<?xml version="1.0" encoding="UTF-8"?>
<svg width="378px" height="311px" viewBox="0 0 378 311" version="1.1" xmlns="http://www.w3.org/2000/svg" xmlns:xlink="http://www.w3.org/1999/xlink">
    <!-- Generator: Sketch 55.1 (78136) - https://sketchapp.com -->
    <title>Illu</title>
    <desc>Created with Sketch.</desc>
    <g id="Flow-2" stroke="none" stroke-width="1" fill="none" fill-rule="evenodd">
        <g id="Bitcoin.org---Wallet-Flow-2.01---Desktop" transform="translate(-254.000000, -475.000000)">
            <g id="//Content" transform="translate(233.000000, 393.000000)">
                <g id="Illu">
                    <g id="Group" transform="translate(225.815051, 222.500000) rotate(-336.000000) translate(-225.815051, -222.500000) translate(52.315051, 57.000000)">
                        <g id="Group-8" opacity="0.200000003" transform="translate(12.000000, 1.000000)" stroke="#979797">
                            <path d="" id="Path-2"></path>
                            <polyline id="Path-5" points="327.306554 250.729508 300.262156 78.2663934 0 153.762295 156.02537 176.618852 189.310782 1.3852459"></polyline>
                            <polyline id="Path-6" points="156.718816 176.618852 209.420719 327.610656 299.56871 78.2663934"></polyline>
                            <polyline id="Path-8" points="156.718816 178.004098 76.9725159 278.434426 208.727273 327.610656"></polyline>
                            <polyline id="Path-9" points="155.331924 176.618852 98.4693446 56.795082 191.391121 0.692622951"></polyline>
                            <polygon id="Path-10" points="78.359408 279.127049 0 272.893443 0 154.454918"></polygon>
                            <polyline id="Path-11" points="299.56871 78.2663934 188.270613 0 326.613108 252.114754 210.114165 328.303279 0 154.454918 98.4693446 56.102459 325.919662 252.114754"></polyline>
                            <polyline id="Path-13" points="328 252.114754 236.465116 252.114754 162.959831 175.233607"></polyline>
                            <path d="M76.9725159,279.127049 L239.238901,252.114754" id="Path-14"></path>
                        </g>
                        <g id="dots" transform="translate(101.000000, 49.000000)">
                            <circle id="Oval-2" fill="#C4C4C4" cx="8.5" cy="8.5" r="2.38"></circle>
                            <circle id="Oval-2" stroke="#CACACA" cx="8.5" cy="8.5" r="8.5"></circle>
                        </g>
                        <g id="dots" transform="translate(330.000000, 243.000000)">
                            <circle id="Oval-2" fill="#C4C4C4" cx="8.5" cy="8.5" r="2.38"></circle>
                            <circle id="Oval-2" stroke="#CACACA" cx="8.5" cy="8.5" r="8.5"></circle>
                        </g>
                        <g id="dots" transform="translate(275.000000, 147.000000)">
                            <circle id="Oval-2" fill="#C4C4C4" cx="8.5" cy="8.5" r="2.38"></circle>
                            <circle id="Oval-2" stroke="#CACACA" cx="8.5" cy="8.5" r="8.5"></circle>
                        </g>
                        <g id="dots" transform="translate(80.000000, 271.000000)">
                            <circle id="Oval-2" fill="#C4C4C4" cx="8.5" cy="8.5" r="2.38"></circle>
                            <circle id="Oval-2" stroke="#CACACA" cx="8.5" cy="8.5" r="8.5"></circle>
                        </g>
                        <circle id="Oval-2" fill="#7B7B7B" cx="220.5" cy="328.5" r="2.5"></circle>
                        <circle id="Oval-2" fill="#7B7B7B" cx="200.5" cy="2.5" r="2.5"></circle>
                        <g id="Group-7" transform="translate(0.000000, 143.000000)">
                            <circle id="Oval-2" fill="#FF7E00" cx="12.5" cy="12.5" r="3.92857143"></circle>
                            <circle id="Oval-2" stroke="#FF7E00" cx="12.5" cy="12.5" r="12.5"></circle>
                        </g>
                        <g id="Group-7" transform="translate(0.000000, 261.000000)">
                            <circle id="Oval-2" fill="#FF7E00" cx="12.5" cy="12.5" r="3.92857143"></circle>
                            <circle id="Oval-2" stroke="#FF7E00" cx="12.5" cy="12.5" r="12.5"></circle>
                        </g>
                        <g id="Group-7" transform="translate(298.000000, 68.000000)">
                            <circle id="Oval-2" fill="#FF7E00" cx="12.5" cy="12.5" r="3.92857143"></circle>
                            <circle id="Oval-2" stroke="#FF7E00" cx="12.5" cy="12.5" r="12.5"></circle>
                        </g>
                    </g>
                    <g id="bitcoin-is-not-anonymous" transform="translate(67.000000, 106.000000)">
                        <g id="Group-4" transform="translate(219.000000, 43.000000)">
                            <g id="Group-2">
                                <path d="M50.4039656,20 C50.4039656,20.9836226 54.4241407,26.8853581 49.3989218,32.7870936 C44.373703,38.688829 42.0299409,35.8815702 35.328309,47.5414323 C26.2829151,63.2793936 19.2476087,77.0501097 11.2072585,85.902713 C3.16690831,94.7553162 -0.853266778,98.6898065 0.151776994,103.607919 C1.15682077,108.526032 2.16186454,108.526032 3.16690831,106.558787 C4.17195208,104.591542 3.16690831,101.640674 6.18203962,99.6734291 C9.19717094,97.7061839 19.2476087,88.8535807 19.2476087,88.8535807 C19.2476087,88.8535807 33.3182215,76.0664871 36.3333528,72.1319968 C39.3484841,68.1975065 38.3434403,74.099242 37.3383966,77.0501097 C36.3333528,80.0009775 27.2879588,115.41139 28.2930026,133.116597 C29.2980464,150.821803 29.2980464,156.723539 28.2930026,169.510632 C27.2879588,182.297726 27.2879588,212.790026 23.2677837,220.659007 C19.2476087,228.527987 14.2223898,230.495232 15.2274336,231.478855 C16.2324773,232.462478 30.3030901,227.544365 30.3030901,224.593497 C30.3030901,221.642629 28.2930026,221.642629 30.3030901,217.708139 C32.3131777,213.773649 44.373703,183.281349 44.373703,173.445123 C44.373703,163.608897 50.4039656,134.100219 50.4039656,134.100219 C50.4039656,134.100219 54.4241407,122.296748 55.4291844,121.313126 C56.4342282,120.329503 58.4443158,155.739916 61.4594471,168.52701 C63.4695346,183.281349 60.4544033,182.297726 64.4745784,200.002932 C68.4947535,217.708139 68.4947535,220.659007 67.4897097,223.609874 C66.4846659,226.560742 66.4846659,227.544365 70.504841,229.51161 C74.5250161,231.478855 80.5552787,233.4461 79.550235,230.495232 C78.5451912,227.544365 73.5199723,224.593497 73.5199723,221.642629 C73.5199723,218.691761 76.5351037,183.281349 77.5401474,176.39599 C78.5451912,169.510632 80.5552787,155.739916 80.5552787,146.887313 L80.5552787,120.329503 C80.5552787,115.41139 72.5149286,81.9682226 71.5098848,76.0664871 C70.504841,70.1647516 71.5098848,64.4446998 72.5149286,66.411945 C73.5199723,68.3791902 77.5401474,87.6934075 80.5552787,95.5623881 C83.5704101,103.431369 85.5804976,113.444145 85.5804976,118.362258 C85.5804976,123.280371 83.5704101,123.280371 83.5704101,126.231239 C83.5704101,129.182107 86.5855414,127.214861 88.5956289,124.263994 C90.6057165,121.313126 91.6107602,119.345881 90.6057165,113.444145 C89.6006727,107.54241 85.5804976,83.9354678 83.5704101,77.0501097 C81.5603225,70.1647516 75.5300599,47.5414323 72.5149286,43.606942 C69.4997973,39.6724516 62.4644908,36.7215839 60.4544033,33.7707161 C58.4443158,30.8198484 58.4443158,20 58.4443158,20 L50.4039656,20 Z" id="Fill-1" fill="#FFFFFF"></path>
                                <path d="M50.4039656,20 C50.4039656,20.9836226 54.4241407,26.8853581 49.3989218,32.7870936 C44.373703,38.688829 42.0299409,35.8815702 35.328309,47.5414323 C26.2829151,63.2793936 19.2476087,77.0501097 11.2072585,85.902713 C3.16690831,94.7553162 -0.853266778,98.6898065 0.151776994,103.607919 C1.15682077,108.526032 2.16186454,108.526032 3.16690831,106.558787 C4.17195208,104.591542 3.16690831,101.640674 6.18203962,99.6734291 C9.19717094,97.7061839 19.2476087,88.8535807 19.2476087,88.8535807 C19.2476087,88.8535807 33.3182215,76.0664871 36.3333528,72.1319968 C39.3484841,68.1975065 38.3434403,74.099242 37.3383966,77.0501097 C36.3333528,80.0009775 27.2879588,115.41139 28.2930026,133.116597 C29.2980464,150.821803 29.2980464,156.723539 28.2930026,169.510632 C27.2879588,182.297726 27.2879588,212.790026 23.2677837,220.659007 C19.2476087,228.527987 14.2223898,230.495232 15.2274336,231.478855 C16.2324773,232.462478 30.3030901,227.544365 30.3030901,224.593497 C30.3030901,221.642629 28.2930026,221.642629 30.3030901,217.708139 C32.3131777,213.773649 44.373703,183.281349 44.373703,173.445123 C44.373703,163.608897 50.4039656,134.100219 50.4039656,134.100219 C50.4039656,134.100219 54.4241407,122.296748 55.4291844,121.313126 C56.4342282,120.329503 58.4443158,155.739916 61.4594471,168.52701 C63.4695346,183.281349 60.4544033,182.297726 64.4745784,200.002932 C68.4947535,217.708139 68.4947535,220.659007 67.4897097,223.609874 C66.4846659,226.560742 66.4846659,227.544365 70.504841,229.51161 C74.5250161,231.478855 80.5552787,233.4461 79.550235,230.495232 C78.5451912,227.544365 73.5199723,224.593497 73.5199723,221.642629 C73.5199723,218.691761 76.5351037,183.281349 77.5401474,176.39599 C78.5451912,169.510632 80.5552787,155.739916 80.5552787,146.887313 L80.5552787,120.329503 C80.5552787,115.41139 72.5149286,81.9682226 71.5098848,76.0664871 C70.504841,70.1647516 70.504841,67.2138839 71.5098848,69.1811291 C72.5149286,71.1483742 75.5300599,88.8535807 78.5451912,96.7225613 C81.5603225,104.591542 85.5804976,113.444145 85.5804976,118.362258 C85.5804976,123.280371 83.5704101,123.280371 83.5704101,126.231239 C83.5704101,129.182107 86.5855414,127.214861 88.5956289,124.263994 C90.6057165,121.313126 91.6107602,119.345881 90.6057165,113.444145 C89.6006727,107.54241 85.5804976,83.9354678 83.5704101,77.0501097 C81.5603225,70.1647516 75.5300599,47.5414323 72.5149286,43.606942 C69.4997973,39.6724516 62.4644908,36.7215839 60.4544033,33.7707161 C58.4443158,30.8198484 58.4443158,20 58.4443158,20 L50.4039656,20 Z" id="Fill-1" stroke="#1C3C55"></path>
                                <path d="M35.2679285,70.1744029 C35.2679285,71.5608991 31.768036,81.1197558 30.0384445,90.5383321 C28.6704007,97.9880825 28.6177167,104.425246 28.6177167,104.425246 C27.7304042,110.116376 37.9598846,110.570065 50.4706885,110.570065 C64.7380295,110.570065 73.8182888,115.088065 76.3827448,108.062376 C78.9472008,101.036686 67.8762839,74.9020757 68.4008052,72.8518379 C69.3514253,69.1292017 72.6193968,76.835367 75.4732669,77.7665177 C78.3271371,78.6966851 85.9762301,71.4913916 83.5216596,64.8356606 C81.067089,58.1799295 75.33913,46.9489443 65.4770996,37.3909276 C55.6150691,27.832911 59.8099975,50.041677 53.3131587,49.6862227 C48.9819328,49.4492531 44.6936453,44.8943638 40.4482963,36.0215545 C37.3317486,34.8715022 33.861798,37.2822941 30.0384445,43.2539302 C24.3034143,52.2113844 22,59.8701872 22,64.8356606 C25.8539496,73.7993924 35.2679285,67.6912388 35.2679285,70.1744029 Z" id="Fill-38" stroke="#FF9500" fill="#FFFFFF" transform="translate(53.000000, 73.500000) scale(-1, 1) translate(-53.000000, -73.500000) "></path>
                                <path d="M50,25.1003934 C50,25.1003934 51,27 55,27 C59,27 62,23.2007868 62,18.4517704 C62,13.7027539 62,7.05413083 56,6.10432753 C50,5.15452424 47,10.853344 47,16.5521638 C47,22.2509835 50,25.1003934 50,25.1003934" id="Fill-3" stroke="#1C3C55" fill="#FFFFFF"></path>
                                <path d="M55.5115365,6.09502445 C54.9308706,5.98871969 57.759083,8.90619474 54.9201396,8.90619474 C52.0823886,8.90619474 47.825762,8.90619474 46.4056941,13.1241314 C44.9868185,17.3408868 47.5980265,17.7897291 46.1791509,17.7897291 C44.7602754,17.7897291 46.039648,21.3237718 46.039648,21.3237718 L46.5213503,26 C46.5213503,26 43.4510944,21.8883682 42.1490675,14.9785588 C40.5382264,6.43283735 52.4615503,-4.19763855 54.846215,1.70818139 C56.2472056,5.17607887 64.158331,5.53397155 65.5772065,11.1574933 C66.9972744,16.7810151 64.3848741,22.9691332 64.3848741,22.9691332 C64.3848741,22.9691332 63.8220932,19.6500624 63.1925417,18.2444772 C63.1925417,18.2444772 62.0002093,17.2877344 62.0002093,15.8821493 C62.0002093,14.4765641 63.1973111,7.5006096 55.5115365,6.09502445" id="Fill-56" stroke="#1C3C55" fill="#FFFFFF"></path>
                            </g>
                        </g>
                        <g id="Group-5" transform="translate(88.500000, 155.000000) scale(-1, 1) translate(-88.500000, -155.000000) translate(44.000000, 36.000000)" fill="#FFFFFF">
                            <g id="Group-3">
                                <g id="Group" transform="translate(44.500000, 121.500000) scale(-1, 1) translate(-44.500000, -121.500000) translate(0.000000, 5.000000)">
                                    <path d="M40.9442952,14.1432511 C40.9442952,15.0664298 42.9864164,23.3799176 40.9442952,27.0755601 C38.9032523,30.7702268 26.6559161,34.4648934 17.4706836,44.6266904 C10.2445504,52.6191151 4.20336507,64.025154 1.14126149,86.1941296 C-1.92084209,108.364081 2.16124388,110.211414 3.18338268,107.440902 C4.20336507,104.669415 4.20336507,99.1264387 4.20336507,96.3559267 C4.20336507,96.3559267 12.367537,65.8724873 17.4706836,60.3295115 C22.5738302,54.7875116 12.367537,88.0424388 12.367537,88.0424388 C12.367537,88.0424388 53.1916314,90.8129509 55.2326744,88.9656175 C57.2747956,87.1182842 56.253735,59.4063328 59.3147603,54.7875116 C62.3768639,50.1686904 77.6863036,66.795666 76.665243,68.6439752 C75.6452606,70.4913085 60.3358209,78.8047964 57.2747956,82.499463 C54.212692,86.1941296 56.253735,88.0424388 58.2947779,90.8129509 C60.3358209,93.5844388 62.3768639,94.5085934 62.3768639,91.7371055 C62.3768639,88.9656175 58.2947779,86.1941296 61.3568815,85.2709509 C64.4179069,84.3467963 83.8094326,77.8806418 87.8915186,72.3386419 C91.9746827,66.795666 75.6452606,48.321357 69.5210535,42.7783812 C63.3979245,37.2363813 52.1705708,32.6175601 51.1505884,28.9228935 C50.130606,25.227251 52.1705708,15.0664298 51.1505884,10.4476086 C50.130606,5.82878736 40.9442952,14.1432511 40.9442952,14.1432511" id="Fill-27" stroke="#1C3C55"></path>
                                    <path d="M38.2983355,18.7253203 C38.2983355,18.7253203 39.0051106,20.8000158 43.2341227,21.4353614 C47.4641929,22.0716652 51.3377014,18.717654 52.2158801,13.9300425 C53.0930007,9.14147271 54.3235088,2.43728337 48.1529812,0.525496961 C41.9845697,-1.38533116 37.7597898,3.88334136 36.7059754,9.62924178 C35.6532191,15.3751422 38.2983355,18.7253203 38.2983355,18.7253203" id="Fill-34" stroke="#1C3C55"></path>
                                    <path d="M54.2484871,209.314894 C54.2484871,209.314894 55.2239262,217.570201 54.2484871,220.321001 C53.273048,223.07277 59.2968486,229.113096 62.0561247,230.409528 C65.9599434,232.244687 64.9845043,230.409528 63.033626,224.906959 C61.0806855,219.403421 58.1523059,212.983273 59.127745,207.480705 C60.1052464,201.978136 54.2484871,209.314894 54.2484871,209.314894" id="Fill-30" stroke="#1C3C55"></path>
                                    <path d="M21.238777,210.851908 C21.238777,210.851908 21.238777,218.341455 22.2224405,221.150529 C23.2071438,223.959604 18.2857068,229.576764 14.3489732,231.449151 C10.4122396,233.322527 11.3959031,231.449151 14.3489732,226.767689 C17.3020433,222.086228 16.31734,212.724295 15.3326367,208.042833 C14.3489732,203.361372 21.238777,210.851908 21.238777,210.851908" id="Fill-32" stroke="#1C3C55"></path>
                                    <path d="M59.5265994,147.377833 C57.8958895,159.372225 63.5628729,170.555629 63.5628729,178.900575 C63.5628729,187.243563 61.5442033,207.640689 61.5442033,210.421359 C61.5442033,213.203008 57.1892485,215.374457 54.4820569,214.130551 C50.4468492,212.276445 45.4023066,197.442616 45.4023066,183.535351 C45.4023066,169.629065 46.4116415,166.847416 42.3764338,152.940151 C38.3401602,139.033866 34.3049525,120.491825 34.3049525,120.491825 C34.3049525,120.491825 29.26041,152.013588 28.2510752,157.575906 C27.2428062,163.139204 27.2428062,164.065767 27.2428062,170.555629 C27.2428062,177.04549 28.2510752,188.171106 26.2345372,199.296722 C24.2158675,210.421359 27.2428062,215.058093 21.1889288,215.058093 C15.1361172,215.058093 9.08330569,199.296722 9.08330569,187.243563 C9.08330569,175.191384 12.1102444,168.701522 11.1009095,157.575906 C10.0915747,146.451269 9.08223987,121.173257 11.1009095,108.193535 C13.1174476,95.2138123 12.1390131,88.6458933 13.6503508,86.4950126 C15.1616884,84.344132 56.5007265,88.9690823 56.5007265,88.9690823 C56.5007265,88.9690823 63.5628729,117.710176 59.5265994,147.377833 Z" id="Fill-36" stroke="#1C3C55"></path>
                                    <path d="M7.42923686,58.1024389 C7.42923686,58.1024389 10.1276308,61.7109983 15.0562512,62.5838094 C16.376182,62.8175564 19.4903745,60.0367847 19.0154165,61.0101958 C17.3258563,64.4719126 12.5067935,92.0570833 12.5067935,92.0570833 C11.5613679,97.7427862 23.8324011,95.5533981 37.1625813,95.5533981 C52.3643402,95.5533981 56.0763644,88.787356 56.0763644,88.787356 C56.0763644,88.787356 59.1160737,60.8922447 60.1310947,57.1721762 C61.1439742,53.45309 62.1568538,55.3126331 65.1976338,56.2428958 C68.2384139,57.1721762 77.3596834,51.5935468 73.0019458,46.0551929 C68.6442081,40.5168389 55.0624141,31.136608 55.0624141,31.136608 L41.887485,43.2251117 L33.7790951,31.136608 L29.1879455,34.1454725 C19.9563942,40.1956183 12.5268263,48.2840906 7.64551769,57.6800387 C7.50418566,57.9531253 7.42923686,58.1024389 7.42923686,58.1024389 Z" id="Fill-38" stroke="#FF9500"></path>
                                </g>
                                <path d="M33.0205202,14.9281259 C33.2583844,15.8236722 37.3352877,8.06972649 39.3538304,7.26864368 C41.3723731,6.46756087 46.2463135,10.7618146 49.0827012,7.5 C50.9736264,5.3254569 51.9460593,3.46134966 52,1.90767827 C49.6044892,2.68855139 47.8724283,3.07898795 46.8038172,3.07898795 C45.2009006,3.07898795 45.1934521,-1.73193072 42.7924291,0.673528613 C40.391406,3.07898795 41.8638304,4.6989223 38.2410249,3.07898795 C34.6182194,1.45905359 32.7826561,14.0325795 33.0205202,14.9281259 Z" id="Path-26" stroke="#1C3C55"></path>
                            </g>
                        </g>
                        <g id="person-left" transform="translate(196.500000, 158.500000) scale(-1, 1) translate(-196.500000, -158.500000) translate(148.000000, 43.000000)" fill="#FFFFFF" stroke-width="1.08988764">
                            <g id="Group-3">
                                <g id="Group" transform="translate(48.500000, 115.311186) scale(-1, 1) translate(-48.500000, -115.311186) translate(0.000000, 0.355997)">
                                    <path d="M51.6865221,36.4257039 C50.7699671,38.0847698 43.8014944,46.492553 36.1826078,44.4711347 C28.5637211,42.4497163 19.6493016,27.2225844 15.651089,21.3575783 C9.4847078,12.3120705 3.91516459,-4.1408556 1.64328491,2.09070063 C-0.628594773,8.32225687 3.94902395,15.5397828 5.25378919,18.8633638 C6.45676857,21.9276693 11.6375652,31.241613 17.713041,39.4524616 C24.4204849,48.5173989 31.8014986,56.3838708 34.3264177,53.6414478 C36.0457521,51.7743338 35.3126165,56.3826141 33.6600708,63.0772685 C30.6875964,75.119107 24.7404537,93.9112203 24.7404537,93.9112203 C24.7404537,93.9112203 63.2349823,96.5235291 65.1595562,94.7816832 C67.0851468,93.0398372 66.1223515,66.910308 69.0087041,62.5552331 C71.8960733,58.2001582 86.3319028,73.8776917 85.3691075,75.6204578 C84.4073288,77.3623037 69.9714994,85.2010705 67.0851468,88.6847623 C64.1977776,92.1684542 66.1223515,93.9112203 68.0469254,96.5235291 C69.9714994,99.1367581 71.8960733,100.008141 71.8960733,97.3949121 C71.8960733,94.7816832 68.0469254,92.1684542 70.9342947,91.2979913 C73.8206472,90.4266083 92.1056245,84.3296874 95.9547724,79.1041497 C99.8049369,73.8776917 84.4073288,56.4583123 78.6325904,51.2318544 C72.8588686,46.0063166 62.272187,41.6512417 61.3104084,38.1675498 C60.3486297,34.6829378 62.272187,25.1023251 61.3104084,20.7472502 C60.3486297,16.3921753 51.6865221,24.2318622 51.6865221,24.2318622 C51.6865221,25.1023251 53.6121127,32.9410919 51.6865221,36.4257039 Z" id="Fill-27" stroke="#1C3C55"></path>
                                    <path d="M49.19155,28.5522838 C49.19155,28.5522838 49.8579941,30.5085089 53.845684,31.1075747 C57.8343715,31.707544 61.4868441,28.5450552 62.3149108,24.0308284 C63.1419798,19.515698 64.3022709,13.1943348 58.4838552,11.3917162 C52.6674349,9.59000115 48.6837356,14.5578192 47.6900556,19.9756142 C46.6973732,25.3934093 49.19155,28.5522838 49.19155,28.5522838" id="Fill-34" stroke="#1C3C55"></path>
                                    <path d="M64.2315301,208.258713 C64.2315301,208.258713 65.1513073,216.042621 64.2315301,218.636343 C63.311753,221.230979 68.9918145,226.926388 71.5936365,228.14879 C75.2746898,229.879156 74.3549126,228.14879 72.5153583,222.960432 C70.6738594,217.77116 67.9125833,211.717619 68.8323605,206.52926 C69.7540822,201.340902 64.2315301,208.258713 64.2315301,208.258713" id="Fill-30" stroke="#1C3C55"></path>
                                    <path d="M33.1054696,209.70796 C33.1054696,209.70796 33.1054696,216.769834 34.0330019,219.418504 C34.9615146,222.067173 30.320912,227.363579 26.6088222,229.129048 C22.8967324,230.895449 23.8242646,229.129048 26.6088222,224.71491 C29.3933798,220.300772 28.4648671,211.473428 27.5363544,207.05929 C26.6088222,202.645152 33.1054696,209.70796 33.1054696,209.70796" id="Fill-32" stroke="#1C3C55"></path>
                                    <path d="M69.2084549,149.858414 C67.670799,161.167896 73.0144045,171.712699 73.0144045,179.581128 C73.0144045,187.447711 71.1109272,206.68011 71.1109272,209.301996 C71.1109272,211.924806 67.0044814,213.97226 64.4517716,212.799383 C60.646827,211.051151 55.8901437,197.064372 55.8901437,183.951247 C55.8901437,170.839045 56.8418824,168.216235 53.0369377,155.10311 C49.2309881,141.990908 45.4260435,124.507665 45.4260435,124.507665 C45.4260435,124.507665 40.6693602,154.229456 39.7176216,159.474152 C38.7668879,164.719771 38.7668879,165.593425 38.7668879,171.712699 C38.7668879,177.831973 39.7176216,188.322288 37.8161543,198.812604 C35.912677,209.301996 38.7668879,213.673961 33.058466,213.673961 C27.3510491,213.673961 21.6436321,198.812604 21.6436321,187.447711 C21.6436321,176.083741 24.4978431,169.964467 23.5461045,159.474152 C22.5943658,148.98476 21.6426271,125.150185 23.5461045,112.911638 C25.4475718,100.67309 24.5249701,94.4802159 25.9500656,92.452156 C27.3751611,90.4240961 66.3552489,94.7849501 66.3552489,94.7849501 C66.3552489,94.7849501 73.0144045,121.884855 69.2084549,149.858414 Z" id="Fill-36" stroke="#1C3C55"></path>
                                    <path d="M25.431005,50.7448626 C31.2060428,55.5413451 35.2287638,55.531731 34.7809086,56.4495579 C33.1877606,59.7136019 22.6295176,95.4912528 24.1795164,97.0470728 C23.28804,102.408108 35.5510925,100.993285 48.120606,100.993285 C62.4548993,100.993285 65.9551023,94.6136008 65.9551023,94.6136008 C65.9551023,94.6136008 68.8213552,68.3113706 69.7784555,64.8037274 C70.7335366,61.2970103 71.6886177,63.0503688 74.5558802,63.9275112 C77.4231427,64.8037274 86.0239206,59.5436518 81.9148508,54.3215518 C77.8057809,49.0994518 64.9990116,40.2548557 64.9990116,40.2548557 L52.5758901,51.6530754 L44.9301933,40.2548557 C40.9876167,41.057852 38.2969349,41.057852 36.858148,40.2548557 C34.6999677,39.0503612 24.1795164,29.0657795 24.1795164,29.0657795 C24.1795164,29.0657795 17.5857778,27.0995804 12.9830138,35.9589963 C18.0144382,43.4839992 19.6559672,45.9483801 25.431005,50.7448626 Z" id="Fill-38" stroke="#FF9500"></path>
                                </g>
                                <path d="M31.1362537,20.6134281 C31.3605445,21.4578365 35.2048054,14.1466606 37.108163,13.3913217 C39.0115206,12.6359827 43.6073369,16.6850238 46.2818704,13.609467 C48.0648927,11.5590958 48.9818352,9.80143372 49.0326979,8.33648088 C46.7738833,9.07276418 45.1406599,9.44090583 44.1330275,9.44090583 C42.621579,9.44090583 42.6145555,4.90470273 40.3505432,7.17280428 C38.086531,9.44090583 39.4749336,10.9683379 36.0588581,9.44090583 C32.6427826,7.91347381 30.9119629,19.7690197 31.1362537,20.6134281 Z" id="Path-26" stroke="#1C3C55"></path>
                            </g>
                        </g>
                        <g id="Group-2" transform="translate(153.760504, 30.500000) scale(-1, 1) translate(-153.760504, -30.500000) translate(128.260504, 0.000000)">
                            <g id="portfel">
                                <path d="M2.27339126,27.4335719 L2.27339126,19.4981501 L42.5462185,19.1092127 C45.561285,19.0692133 47.7513765,19.445988 49.116493,20.2395371 C50.4816095,21.0330861 51.0810402,22.3459655 50.9147851,24.1781753" id="Path-97" stroke="#1C3C55" fill="#FFFFFF"></path>
                                <g id="Group-7" transform="translate(9.739496, 0.000000)">
                                    <circle id="Oval-3" stroke="#FF9500" fill="#FFFFFF" cx="19.7352941" cy="19.7352941" r="19.7352941"></circle>
                                    <path d="M30.4267855,14.4318035 C30.6928433,16.8491183 29.5467481,18.3031422 27.7457414,19.1210306 C30.7337753,19.7571661 32.616646,21.3384171 32.2482582,24.8826004 C31.7775406,29.299198 28.0936632,30.4805925 22.8134389,30.7350467 L22.8134389,35.3697479 L19.6616771,35.3697479 L19.6616771,30.8077479 C18.8635037,30.8077479 18.0243983,30.8077479 17.1648269,30.7895726 L17.1648269,35.3697479 L14.0130651,35.3697479 L14.0130651,30.7350467 C13.2762897,30.7350467 12.5395142,30.7168714 11.7822727,30.7168714 L7.68907563,30.7168714 L8.32352118,27.3907917 C10.6361775,27.4271423 10.5952456,27.3907917 10.5952456,27.3907917 C11.4752829,27.3907917 11.7208748,26.8273574 11.7822727,26.4638514 L11.7822727,19.1573812 L12.1097285,19.1573812 C11.9869326,19.1392059 11.8641367,19.1392059 11.7822727,19.1392059 L11.7822727,13.9228951 C11.6594768,13.3412856 11.2501571,12.6869748 9.96080002,12.6869748 C9.96080002,12.6869748 10.001732,12.6506242 7.68907563,12.6869748 L7.68907563,9.70622576 L12.0278646,9.72440106 C12.6623101,9.72440106 13.3376876,9.72440106 14.0130651,9.70622576 L14.0130651,5.12605042 L17.1648269,5.12605042 L17.1648269,9.61534926 C18.0039323,9.59717397 18.8430377,9.57899867 19.6616771,9.57899867 L19.6616771,5.12605042 L22.8134389,5.12605042 L22.8134389,9.70622576 C26.865704,10.0152058 30.0788638,11.1238991 30.4267855,14.4318035 Z M26.1428571,24.0989211 C26.1428571,20.5194519 19.5362126,21.0437176 17.4285714,21.0437176 L17.4285714,27.1541246 C19.5362126,27.1541246 26.1428571,27.5518434 26.1428571,24.0989211 Z M24.605042,15.6501435 C24.605042,12.3486413 19.1677161,12.8411306 17.4285714,12.8411306 L17.4285714,18.4409161 C19.1677161,18.4409161 24.605042,18.805723 24.605042,15.6501435 Z" id="btc---FontAwesome-Copy" fill="#F7931A" transform="translate(19.991597, 20.247899) scale(-1, 1) translate(-19.991597, -20.247899) "></path>
                                </g>
                                <path d="M0.175815356,32.198698 L0.447716385,52.6673164 C0.505852271,57.0437664 4.07017452,60.5610553 8.44701064,60.5610553 L42.7478992,60.5610553 C47.1661772,60.5610553 50.7478992,56.9793333 50.7478992,52.5610553 L50.7478992,24.092437 L8.17510961,24.092437 C3.75683161,24.092437 0.175109612,27.674159 0.175109612,32.092437 C0.175109612,32.1278585 0.175344865,32.1632796 0.175815356,32.198698 Z" id="Path-96" stroke="#1C3C55" fill="#FFFFFF"></path>
                                <g id="Group-3" transform="translate(7.689076, 41.008403) rotate(180.000000) translate(-7.689076, -41.008403) translate(0.000000, 36.907563)" stroke="#1C3C55">
                                    <path d="M0.5,0.5 L0.5,7.70168067 L11.1574757,7.70168067 C13.1461649,7.70168067 14.7583161,6.08952954 14.7583161,4.10084034 C14.7583161,2.11215113 13.1461649,0.5 11.1574757,0.5 L0.5,0.5 Z" id="Rectangle-9" transform="translate(7.629158, 4.100840) rotate(180.000000) translate(-7.629158, -4.100840) "></path>
                                    <circle id="Oval" cx="4.10084034" cy="4.10084034" r="2.05042017"></circle>
                                </g>
                            </g>
                        </g>
                        <g id="Group-3" transform="translate(79.000000, 53.000000)">
                            <path d="M50.645246,20.7147836 C50.645246,21.6563674 54.4090098,27.3058705 49.704305,32.9553735 C44.9996003,38.6048765 42.805326,35.9175962 36.5311317,47.0791311 C28.0626632,62.1444725 27.6656922,75.793593 24.5622203,84.3821842 C21.4587484,92.9707755 18.985068,107.676613 19.9260089,112.384532 C20.8669499,117.092451 26.0327388,121.472769 26.9736798,119.589602 C27.9146207,117.706434 26.8645675,117.270953 25.2398403,109.448229 C23.6151132,101.625504 30.8408076,89.7641407 30.8408076,89.7641407 C30.8408076,89.7641407 34.6492498,74.3850623 37.4720727,70.618727 C40.2948955,66.8523916 39.3539546,72.5018947 38.4130136,75.3266462 C37.4720727,78.1513977 29.0036041,112.048416 29.9445451,128.996925 C30.885486,145.945434 30.885486,151.594937 29.9445451,163.835527 C29.0036041,176.076117 29.0036041,205.265216 25.2398403,212.797886 C21.4760765,220.330557 16.7713718,222.213725 17.7123127,223.155309 C18.6532537,224.096893 31.826427,219.388973 31.826427,216.564222 C31.826427,213.73947 29.9445451,213.73947 31.826427,209.973135 C33.7083089,206.2068 44.9996003,177.017701 44.9996003,167.601862 C44.9996003,158.186024 50.645246,129.938509 50.645246,129.938509 C50.645246,129.938509 54.4090098,118.639503 55.3499507,117.697919 C56.2908917,116.756335 58.1727736,150.653353 60.9955964,162.893943 C62.8774783,177.017701 60.0546555,176.076117 63.8184193,193.024626 C67.5821831,209.973135 67.5821831,212.797886 66.6412421,215.622638 C65.7003012,218.447389 65.7003012,219.388973 69.464065,221.272141 C73.2278288,223.155309 78.8734745,225.038476 77.9325335,222.213725 C76.9915926,219.388973 72.2868878,216.564222 72.2868878,213.73947 C72.2868878,210.914719 75.1097107,177.017701 76.0506516,170.426614 C76.9915926,163.835527 78.8734745,150.653353 78.8734745,142.179099 L78.8734745,116.756335 C78.8734745,112.048416 71.3459469,80.0345654 70.4050059,74.3850623 C69.464065,68.7355593 69.464065,65.9108078 70.4050059,67.7939755 C71.3459469,69.6771432 74.1687697,86.6256522 76.9915926,94.1583229 C79.8144154,101.690994 83.5781792,110.165248 83.5781792,114.873167 C83.5781792,119.581087 81.6962973,119.581087 81.6962973,122.405838 C81.6962973,125.23059 84.5191202,123.347422 86.401002,120.52267 C88.2828839,117.697919 89.2238249,115.814751 88.2828839,110.165248 C87.341943,104.515745 83.5781792,81.917733 81.6962973,75.3266462 C79.8144154,68.7355593 74.1687697,47.0791311 71.3459469,43.3127957 C68.523124,39.5464604 61.9365374,36.7217088 60.0546555,33.8969573 C58.1727736,31.0722058 58.1727736,20.7147836 58.1727736,20.7147836 L50.645246,20.7147836 Z" id="Fill-1" fill="#FFFFFF"></path>
                            <path d="M50.645246,20.7147836 C50.645246,21.6563674 54.4090098,27.3058705 49.704305,32.9553735 C44.9996003,38.6048765 43.7462669,34.4656354 37.4720727,45.6271702 C29.0036041,60.6925116 31.7660567,61.8756091 27.6644356,73.6065986 C23.5628145,85.337588 18.4127685,107.332518 19.3537094,112.040437 C20.2946504,116.748356 25.2645694,121.10964 26.2055103,119.226472 C27.1464513,117.343305 23.1603198,113.108087 24.3627576,109.078034 C25.5651954,105.04798 28.7063449,95.27605 30.9864543,91.0379185 C33.2665638,86.7997871 35.4455091,74.3850623 37.4720727,70.618727 C39.4986362,66.8523916 39.3539546,72.5018947 38.4130136,75.3266462 C37.4720727,78.1513977 29.0036041,112.048416 29.9445451,128.996925 C30.885486,145.945434 30.885486,151.594937 29.9445451,163.835527 C29.0036041,176.076117 29.0036041,205.265216 25.2398403,212.797886 C21.4760765,220.330557 16.7713718,222.213725 17.7123127,223.155309 C18.6532537,224.096893 31.826427,219.388973 31.826427,216.564222 C31.826427,213.73947 29.9445451,213.73947 31.826427,209.973135 C33.7083089,206.2068 44.9996003,177.017701 44.9996003,167.601862 C44.9996003,158.186024 50.645246,129.938509 50.645246,129.938509 C50.645246,129.938509 54.4090098,118.639503 55.3499507,117.697919 C56.2908917,116.756335 58.1727736,150.653353 60.9955964,162.893943 C62.8774783,177.017701 60.0546555,176.076117 63.8184193,193.024626 C67.5821831,209.973135 67.5821831,212.797886 66.6412421,215.622638 C65.7003012,218.447389 65.7003012,219.388973 69.464065,221.272141 C73.2278288,223.155309 78.8734745,225.038476 77.9325335,222.213725 C76.9915926,219.388973 72.2868878,216.564222 72.2868878,213.73947 C72.2868878,210.914719 75.1097107,177.017701 76.0506516,170.426614 C76.9915926,163.835527 78.8734745,150.653353 78.8734745,142.179099 L78.8734745,116.756335 C78.8734745,112.048416 71.3459469,80.0345654 70.4050059,74.3850623 C69.464065,68.7355593 69.464065,65.9108078 70.4050059,67.7939755 C71.3459469,69.6771432 74.1687697,86.6256522 76.9915926,94.1583229 C79.8144154,101.690994 83.5781792,110.165248 83.5781792,114.873167 C83.5781792,119.581087 81.6962973,119.581087 81.6962973,122.405838 C81.6962973,125.23059 84.5191202,123.347422 86.401002,120.52267 C88.2828839,117.697919 89.2238249,115.814751 88.2828839,110.165248 C87.341943,104.515745 83.5781792,81.917733 81.6962973,75.3266462 C79.8144154,68.7355593 74.1687697,47.0791311 71.3459469,43.3127957 C68.523124,39.5464604 61.9365374,36.7217088 60.0546555,33.8969573 C58.1727736,31.0722058 58.1727736,20.7147836 58.1727736,20.7147836 L50.645246,20.7147836 Z" id="Fill-1" stroke="#1C3C55"></path>
                            <path d="M50.4678252,22.9716869 C50.4678252,22.9716869 51.4258516,24.8353805 55.2579572,24.8353805 C59.0900627,24.8353805 61.9641418,21.1079934 61.9641418,16.4487594 C61.9641418,11.7895255 61.9641418,5.26659799 56.2159835,4.3347512 C50.4678252,3.40290441 47.5937461,8.99398513 47.5937461,14.5850659 C47.5937461,20.1761466 50.4678252,22.9716869 50.4678252,22.9716869" id="Fill-3" fill="#FFFFFF"></path>
                            <path d="M50.4678252,22.9716869 C50.4678252,22.9716869 51.4258516,24.8353805 55.2579572,24.8353805 C59.0900627,24.8353805 61.9641418,21.1079934 61.9641418,16.4487594 C61.9641418,11.7895255 61.9641418,5.26659799 56.2159835,4.3347512 C50.4678252,3.40290441 47.5937461,8.99398513 47.5937461,14.5850659 C47.5937461,20.1761466 50.4678252,22.9716869 50.4678252,22.9716869" id="Fill-3" stroke="#1C3C55"></path>
                            <path d="M46.934807,35.1368727 C46.934807,35.1368727 48.8014024,44.5024381 54.4011886,45.4389946 C60.0009747,46.3755512 61.9133017,35.7231571 62.823267,35.8982932 C63.7341655,36.0734293 65.6119605,37.8453942 65.6119605,37.8453942 C65.6119605,37.8453942 65.0827807,55.0171583 65.6007609,57.6142296 C66.5340586,62.2970123 70.2672494,66.9797949 70.2672494,66.9797949 C70.2672494,66.9797949 69.7278033,69.0964127 70.9308241,76.9353909 C72.1338448,84.7743691 81.4668218,112.871065 81.4668218,124.109744 C81.4668218,127.85597 62.8008678,130.665639 50.6679978,129.729083 C41.1595608,128.994822 30.504101,124.809351 26.3397267,123.03364 C25.3084327,122.593459 24.7792529,121.44805 25.1096403,120.37382 C27.0359668,114.115749 33.2311969,93.8880007 34.8019369,87.5840387 C34.8019369,87.5840387 39.1576373,72.2872608 38.8459158,68.6965031 C38.5351277,65.1066819 43.2016162,63.2335688 44.1349139,54.80456 C45.0682116,46.3755512 43.2016162,37.0099858 43.2016162,37.0099858 L46.934807,35.1368727 Z" id="Fill-5" stroke="#FF9500" fill="#FFFFFF"></path>
                            <path d="M71.0698072,19.9834611 C70.2923693,12.7601435 65.9351876,9.98985599 65.0555775,9.97747589 C64.1768962,9.96414346 66.0141389,0.375272725 59.4509657,0.127670541 C57.1845996,0.0419620929 55.9483155,0.313372179 55.2823383,0.700964829 C55.0724207,0.734295892 54.8634321,0.768579271 54.6340089,0.807624231 C44.9378633,2.46655886 43.9068525,13.2696326 44.7474514,15.9865904 C45.5880503,18.7035482 47.3593454,17.8283698 47.3593454,17.8283698 C47.3593454,17.8283698 45.664215,13.2962975 49.2068053,11.5449882 C52.1112834,10.1098478 55.053844,5.64919925 56.0281956,3.59124417 C57.4994759,4.93115291 59.8159992,7.43574423 59.7816322,9.89938597 C59.7305461,13.5048547 60.8507254,20.1491641 60.6983959,19.0863793 C60.5460663,18.0235945 63.2601326,12.6553887 63.2601326,12.6553887 C63.2601326,12.6553887 64.1768962,9.96414346 63.1960427,17.1617485 C62.2151892,24.3593535 62.1390245,29.7675566 65.6175248,32.5235594 C69.0950964,35.2795621 71.847245,27.2067786 71.0698072,19.9834611" id="Fill-7" fill="#FFFFFF"></path>
                            <path d="M71.0698072,19.9834611 C70.2923693,12.7601435 65.9351876,9.98985599 65.0555775,9.97747589 C64.1768962,9.96414346 66.0141389,0.375272725 59.4509657,0.127670541 C57.1845996,0.0419620929 55.9483155,0.313372179 55.2823383,0.700964829 C55.0724207,0.734295892 54.8634321,0.768579271 54.6340089,0.807624231 C44.9378633,2.46655886 43.9068525,13.2696326 44.7474514,15.9865904 C45.5880503,18.7035482 47.3593454,17.8283698 47.3593454,17.8283698 C47.3593454,17.8283698 45.664215,13.2962975 49.2068053,11.5449882 C52.1112834,10.1098478 55.053844,5.64919925 56.0281956,3.59124417 C57.4994759,4.93115291 59.8159992,7.43574423 59.7816322,9.89938597 C59.7305461,13.5048547 60.8507254,20.1491641 60.6983959,19.0863793 C60.5460663,18.0235945 63.2601326,12.6553887 63.2601326,12.6553887 C63.2601326,12.6553887 64.1768962,9.96414346 63.1960427,17.1617485 C62.2151892,24.3593535 62.1390245,29.7675566 65.6175248,32.5235594 C69.0950964,35.2795621 71.847245,27.2067786 71.0698072,19.9834611" id="Fill-7" stroke="#1C3C55"></path>
                        </g>
                        <g id="Group-2" transform="translate(206.000000, 57.000000)">
                            <path d="M13.5486134,209.640155 C14.7504429,216.259236 16.4074078,216.930606 16.4074078,216.930606 C16.4074078,216.930606 10.7843215,223.31103 9.36665624,224.923391 C7.94899095,226.535752 11.1209799,226.498255 12.7500891,226.020088 C14.3791983,225.541922 22.9813309,221.961478 22.9813309,219.453508 C22.9813309,216.945538 25.4858142,210.264151 25.4858142,206.063419 C25.4858142,201.862687 20.4047762,172.344487 21.6930535,168.410355 C22.9813309,164.476223 22.4474851,157.399805 23.9666496,149.085422 C24.979426,143.5425 26.7836404,133.554619 29.3792928,119.12178 C34.7838689,142.67122 37.4861569,156.773343 37.4861569,161.428148 C37.4861569,168.410355 37.4861569,192.43946 37.4861569,201.039808 C37.4861569,209.640155 42.3508736,212.503163 42.3508736,215.752431 C42.3508736,219.001699 41.4343213,223.990843 45.4770027,224.457117 C49.5196841,224.923391 55.9067808,228.405149 55.9067808,226.020088 C55.9067808,224.430048 53.7032249,221.986199 49.2961131,218.688541 C53.0962695,210.507852 54.6184744,203.664901 53.8627277,198.15969 C52.7291076,189.901872 55.9067808,174.646186 53.8627277,168.410355 C51.8186745,162.174524 51.4439705,149.791934 52.7291076,141.743591 C54.0142447,133.695248 53.633138,93.4359638 48.3688699,90.0746966 C44.8593579,87.8338518 30.8029436,87.3929385 6.19962695,88.7519568 C2.34425907,102.998506 0.894739986,112.788447 1.85106969,118.12178 C3.28556424,126.12178 10.7719937,154.159268 9.36665624,158.401848 C7.96131882,162.644428 5.54481538,187.745002 7.45573581,195.383039 C9.36665624,203.021075 12.3467839,203.021075 13.5486134,209.640155 Z" id="Path-7" stroke="#1C3C55" fill="#FFFFFF"></path>
                            <path d="M35.7525956,31.4241953 C33.9733873,34.9835509 23.2971973,38.5429065 15.2902898,48.3325446 C8.99115918,56.03226 3.72496565,67.0205717 1.05568319,88.3776454 C-1.61359927,109.735659 1.94481742,111.515337 2.83583143,108.84629 C3.72496565,106.176304 3.72496565,100.83633 3.72496565,98.1672835 C3.72496565,98.1672835 10.841799,68.8002495 15.2902898,63.460276 C19.7387806,58.1212426 10.841799,90.1582633 10.841799,90.1582633 C10.841799,90.1582633 46.4287856,92.82731 48.2079939,91.0476322 C49.9881421,89.2679544 49.098068,62.5709071 51.7664106,58.1212426 C54.435693,53.671578 67.7811655,69.6896183 66.8910913,71.4702363 C66.0019571,73.249914 52.6564847,81.2589342 49.9881421,84.8182898 C47.3188597,88.3776454 49.098068,90.1582633 50.8772764,92.82731 C52.6564847,95.4972967 54.435693,96.3876057 54.435693,93.7176189 C54.435693,91.0476322 50.8772764,88.3776454 53.5465588,87.4882766 C56.2149014,86.5979676 73.1187905,80.3686252 76.6772072,75.0295918 C80.2365637,69.6896183 66.0019571,51.8919002 60.6633922,46.5519267 C55.3257672,41.2128933 45.5387114,36.7632287 44.6495772,33.2038731 C43.760443,29.6435774 43.375106,22.3552529 42.4859718,17.9055883 C41.5968375,13.4559238 35.7525956,18.9655106 35.7525956,18.9655106 C35.7525956,19.8548794 37.5327438,27.8638996 35.7525956,31.4241953 Z" id="Fill-27" stroke="#1C3C55" fill="#FFFFFF"></path>
                            <path d="M32.4385051,23.3797692 C32.4385051,23.3797692 33.0546117,25.3784824 36.7411062,25.9905595 C40.428523,26.6035598 43.8051195,23.3723836 44.5706412,18.7601104 C45.3352407,14.1469141 46.4078934,7.68825454 41.0289503,5.84648414 C35.6518518,4.00563692 31.9690466,9.08135306 31.0504205,14.6168194 C30.1327167,20.1522858 32.4385051,23.3797692 32.4385051,23.3797692" id="Fill-34" stroke="#1C3C55" fill="#FFFFFF"></path>
                            <path d="M13.8992178,65.5458967 C12.4264024,68.8808339 6.24113759,87.9459997 6.24113759,87.9459997 C5.41699563,93.4234732 17.0035169,97.1454675 28.6236386,97.1454675 C41.875244,97.1454675 48.9434514,90.8758991 48.9434514,90.8758991 C48.9434514,90.8758991 47.6743894,86.9424019 48.0595754,79.5185647 C48.5315078,70.4228332 50.3391984,58.2194976 50.8263774,56.24623 C51.70932,52.6633491 56.6165575,56.4999804 59.2672519,57.3961738 C61.9179463,58.2914208 67.4964456,55.0442515 63.6977392,49.7087305 C59.8990327,44.3732096 48.0595754,35.3365141 48.0595754,35.3365141 L36.5747885,46.9822964 L30.1951785,34.0699099 L24.4657369,38.2197307 C19.9821327,41.3427187 11.4983387,49.0884499 7.24322744,58.1402871 C7.24322744,58.1402871 15.3720332,62.2100132 13.8992178,65.5458967 Z" id="Fill-38" fill="#FFFFFF"></path>
                            <path d="M13.8992178,65.5458967 C12.4264024,68.8808339 6.24113759,87.9459997 6.24113759,87.9459997 C5.41699563,93.4234732 17.0035169,97.1454675 28.6236386,97.1454675 C41.875244,97.1454675 47.9516524,90.8758991 48.9434514,90.8758991 C49.9352504,90.8758991 48.5582653,89.0979735 48.9434514,81.6741362 C49.4153837,72.5784047 50.5986852,61.3846908 51.0858642,59.4114232 C51.9688068,55.8285423 56.4071522,57.2440937 59.0578466,58.1402871 C61.7085411,59.0355341 67.4964456,55.0442515 63.6977392,49.7087305 C59.8990327,44.3732096 48.0595754,35.3365141 48.0595754,35.3365141 L36.5747885,46.9822964 L30.1951785,34.0699099 L24.4657369,38.2197307 C19.9821327,41.3427187 11.4983387,49.0884499 7.24322744,58.1402871 C7.24322744,58.1402871 15.3720332,62.2100132 13.8992178,65.5458967 Z" id="Fill-38" stroke="#FF9500"></path>
                            <path d="M39.8553165,4.85601088 C39.7436684,3.97133803 39.8553165,9.31329233 37.168192,10.2055023 C34.4820136,11.0977123 32.6918588,11.9889802 32.6918588,11.9889802 C32.6918588,11.9889802 31.2394869,18.4049782 33.0296417,20.187514 C30.3434634,21.079724 29.1106031,21.7957531 27.3195021,18.2297395 C25.5284011,14.6637259 28.2145795,11.0977123 30.0056805,8.42202447 C31.7958352,5.74727875 35.3780372,-0.493480571 39.8553165,0.39778729 C44.3316496,1.28905515 46.1227506,3.07253302 47.9138516,7.53075661 C49.7040063,11.9889802 52.3901847,12.8802481 52.3901847,15.5549938 C52.3901847,18.2297395 47.017828,20.9044853 46.1227506,20.0132174 C46.1227506,17.3384717 46.0716574,13.7715159 46.0716574,11.9889802 C46.0716574,10.2055023 40.7503939,11.9889802 39.8553165,4.85601088" id="Fill-40" fill="#FFFFFF"></path>
                            <path d="M39.8553165,4.85601088 C39.7436684,3.97133803 39.8553165,9.31329233 37.168192,10.2055023 C34.4820136,11.0977123 32.6918588,11.9889802 32.6918588,11.9889802 C32.6918588,11.9889802 31.2394869,18.4049782 33.0296417,20.187514 C30.3434634,21.079724 29.1106031,21.7957531 27.3195021,18.2297395 C25.5284011,14.6637259 28.2145795,11.0977123 30.0056805,8.42202447 C31.7958352,5.74727875 35.3780372,-0.493480571 39.8553165,0.39778729 C44.3316496,1.28905515 46.1227506,3.07253302 47.9138516,7.53075661 C49.7040063,11.9889802 52.3901847,12.8802481 52.3901847,15.5549938 C52.3901847,18.2297395 47.017828,20.9044853 46.1227506,20.0132174 C46.1227506,17.3384717 46.0716574,13.7715159 46.0716574,11.9889802 C46.0716574,10.2055023 40.7503939,11.9889802 39.8553165,4.85601088" id="Fill-40" stroke="#1C3C55"></path>
                        </g>
                        <g id="Group-6" transform="translate(0.000000, 42.000000)" fill="#FFFFFF">
                            <path d="M36.1458161,20 C36.1458161,21.0164607 40.2248078,27.1152247 35.1260682,33.2139886 C30.0273287,39.3127526 35.7618417,31.6082289 27.8899434,39.156007 C24.657566,42.2552934 21.1980182,50.3639211 17.5113,63.48189 C12.2784701,99.1499951 9.66205516,118.18249 9.66205516,120.579375 C9.66205516,122.703012 11.3187223,125.746919 12.6990927,124.695448 C13.6556962,123.966774 14.4949125,119.8777 14.4949125,117.906198 C14.4949125,101.023095 24.9320853,70.6057135 24.5124163,71.860662 C23.4926684,74.910044 12.6916143,118.596684 13.7113623,136.892976 C14.7311102,155.189268 14.7311102,161.288032 13.7113623,174.502021 C12.6916143,187.71601 12.6916143,219.22629 8.61262273,227.357976 C4.53363112,235.489661 -0.565108403,237.522582 0.454639501,238.539043 C1.47438741,239.555504 15.7508581,234.4732 15.7508581,231.423818 C15.7508581,228.374436 13.7113623,228.374436 15.7508581,224.308594 C17.7903539,220.242751 30.0273287,188.73247 30.0273287,178.567864 C30.0273287,168.403257 36.1458161,137.909437 36.1458161,137.909437 C36.1458161,137.909437 40.2248078,125.711909 41.2445557,124.695448 C42.2643036,123.678988 44.3037994,160.271572 47.3630431,173.48556 C49.4025389,188.73247 46.3432952,187.71601 50.4222868,206.012302 C54.5012784,224.308594 54.5012784,227.357976 53.4815305,230.407358 C52.4617826,233.45674 52.4617826,234.4732 56.5407742,236.506122 C60.6197658,238.539043 66.7382533,240.571964 65.7185054,237.522582 C64.6987575,234.4732 59.6000179,231.423818 59.6000179,228.374436 C59.6000179,225.325054 62.6592616,188.73247 63.6790095,181.617246 C64.6987575,174.502021 66.7382533,160.271572 66.7382533,151.123426 L59.292067,125.021423 C59.292067,119.93912 58.58027,84.0370219 57.5605221,77.9382579 C56.5407742,71.8394939 56.5407742,66.5484438 57.5605221,68.5813651 C58.58027,70.6142865 55.2130754,92.1251058 58.2723191,100.256791 C61.3315628,108.388476 64.6120791,118.685051 64.6120791,123.767354 C64.6120791,128.849657 60.2156983,124.912119 60.7586786,127.093681 C61.3016588,129.275242 62.5725833,132.588175 64.6120791,129.538793 C66.6515749,126.489411 64.6987575,108.345215 63.6790095,102.246451 C62.9991776,98.1806082 64.0189255,90.7800904 66.7382533,80.0448974 C63.3390936,58.9888982 60.6197658,47.1056177 58.58027,44.3950559 C55.5210263,40.3292133 48.382791,37.2798313 46.3432952,34.2304493 C44.3037994,31.1810673 44.3037994,20 44.3037994,20 L36.1458161,20 Z" id="Fill-1-Copy" stroke="#1C3C55"></path>
                            <path d="M32.7592453,35 C32.7592453,35 34.7821743,45.1103358 40.8509613,46.1213694 C46.9197484,47.132403 48.9922391,35.632907 49.978417,35.8219703 C50.9656064,36.0110336 53.000673,37.9239091 53.000673,37.9239091 C53.000673,37.9239091 52.4271726,56.4612098 52.9885354,59.2648059 C53.9999999,64.3199738 58.0458579,69.3751417 58.0458579,69.3751417 C58.0458579,69.3751417 57.4612314,71.6600776 58.7650092,80.1224287 C59.2375286,83.1893819 63.0633823,94.8780504 65.0738386,108.867835 C68.6106425,133.478728 70.9252626,165.61506 70.9252626,173.350397 C70.9252626,177.394531 50.3250446,179.611817 37.176006,178.600783 C26.8712057,177.808133 12.2974427,179.549172 11.8458032,178.600783 C10.2829783,175.319037 12.5914015,147.095071 14.330417,123.559923 C15.4299292,108.67956 18.9508178,94.2539209 19.6102068,91.6178805 C19.6102068,91.6178805 24.3307116,75.104669 23.9928825,71.2283663 C23.6560648,67.3530746 28.7133873,65.3310074 29.7248518,56.2317052 C30.7363163,47.132403 28.7133873,37.0220672 28.7133873,37.0220672 L32.7592453,35 Z" id="Fill-5" stroke="#FF9500"></path>
                            <path d="M37.71223,25.5334284 C37.71223,25.5334284 38.8709591,27.4781439 42.9706825,27.2173043 C47.0714331,26.9564647 49.8809404,22.7407325 49.5470867,17.7152896 C49.2142602,12.6908539 48.7489195,5.65624109 42.5320501,5.0419084 C36.3151806,4.42858281 33.6392149,10.6544921 34.0388121,16.6840164 C34.437382,22.7145478 37.71223,25.5334284 37.71223,25.5334284" id="Fill-19" stroke="#1C3C55"></path>
                            <path d="M41.936526,0.193644243 C42.8477,1.1441051 42.8477,3.04502682 43.7588739,3.04502682 C44.6700479,3.04502682 47.4035697,0.193644243 47.4035697,2.09456596 C47.4035697,3.99548768 46.4923958,3.99548768 48.3147437,4.94490865 C50.1360947,5.89536951 50.1360947,6.84583037 50.1360947,7.79629123 C50.1360947,8.7457122 47.4035697,7.79629123 46.4923958,8.7457122 C45.5802249,9.69721295 48.1422786,10.5925596 45.1515545,10.5925596 C42.045189,10.5925596 44.9800863,11.201936 42.1608303,12.6723426 C40.1670142,13.7122342 40.115175,10.6466339 39.2040011,10.6466339 C38.293824,10.6466339 41.1639223,13.7122342 39.1701062,13.7122342 C37.1334231,13.7122342 38.1731982,13.7122342 37.1762901,12.6723426 C35.735758,11.1707393 37.9120083,15.163284 36.4714761,16.6648874 C35.4745681,17.7047789 37.187014,19.0056287 38.0971911,19.9560896 C39.008365,20.9065504 40.0812802,24.8732595 39.1701062,25.8226805 C38.2589323,26.7731414 37.0242759,27.6596783 38.0971911,33.5498731 C39.1701062,39.4400679 32.5890834,42.4013288 30.0639811,42.4013288 C27.5388789,42.4013288 26.496203,48.7158005 24.9060198,44.1403192 C23.8458976,41.0899983 24.5812098,36.5188842 27.1119565,30.4269769 C27.1119565,30.4269769 26.4515609,18.5658091 26.4515609,16.6648874 C26.4515609,14.7639657 26.4515609,11.2239854 30.0639811,7.79629123 C33.6764013,4.36859706 35.5603022,3.99548768 36.4714761,3.99548768 C37.3826501,3.99548768 36.4714761,2.09456596 39.2040011,2.09456596 C39.2040011,2.09456596 41.026349,-0.755776726 41.936526,0.193644243 Z" id="Fill-23" stroke="#1C3C55"></path>
                        </g>
                    </g>
                </g>
            </g>
        </g>
    </g>
</svg>