<?xml version="1.0" encoding="UTF-8"?>
<svg width="6px" height="7px" viewBox="0 0 6 7" version="1.1" xmlns="http://www.w3.org/2000/svg" xmlns:xlink="http://www.w3.org/1999/xlink">
    <!-- Generator: Sketch 55.1 (78136) - https://sketchapp.com -->
    <title>Group 2</title>
    <desc>Created with Sketch.</desc>
    <g id="Flow-2" stroke="none" stroke-width="1" fill="none" fill-rule="evenodd">
        <g id="Bitcoin.org---Wallet-Flow-2.02a---Desktop" transform="translate(-219.000000, -798.000000)" fill="#3BB624" fill-rule="nonzero">
            <g id="//Content" transform="translate(145.000000, 443.000000)">
                <g id="Mobile-wallets" transform="translate(69.000000, 123.000000)">
                    <g id="Info" transform="translate(0.000000, 150.000000)">
                        <g id="Group-3-Copy-3" transform="translate(0.000000, 68.000000)">
                            <g id="Group-18" transform="translate(0.000000, 9.000000)">
                                <g id="Group-2" transform="translate(5.000000, 5.788136)">
                                    <path d="M1,3.99869622 L5,3.99869622 C5.55228475,3.99869622 6,3.55098097 6,2.99869622 C6,2.44641147 5.55228475,1.99869622 5,1.99869622 L1,1.99869622 C0.44771525,1.99869622 0,2.44641147 0,2.99869622 C0,3.55098097 0.44771525,3.99869622 1,3.99869622 Z" id="Stroke-112"></path>
                                    <path d="M2,1 L2,4.99739244 C2,5.54967719 2.44771525,5.99739244 3,5.99739244 C3.55228475,5.99739244 4,5.54967719 4,4.99739244 L4,1 C4,0.44771525 3.55228475,0 3,0 C2.44771525,0 2,0.44771525 2,1 Z" id="Stroke-113"></path>
                                </g>
                            </g>
                        </g>
                    </g>
                </g>
            </g>
        </g>
    </g>
</svg>