<?xml version="1.0" encoding="UTF-8"?>
<svg width="37px" height="28px" viewBox="0 0 37 28" version="1.1" xmlns="http://www.w3.org/2000/svg" xmlns:xlink="http://www.w3.org/1999/xlink">
    <!-- Generator: Sketch 49 (51002) - http://www.bohemiancoding.com/sketch -->
    <title>Global accessibility/icon</title>
    <desc>Created with Sketch.</desc>
    <defs></defs>
    <g id="Innovation" stroke="none" stroke-width="1" fill="none" fill-rule="evenodd">
        <g id="22.01.18-Bitcoin.org_Innovation_Desktop-1200px--" transform="translate(-782.000000, -741.000000)">
            <g id="//contenct" transform="translate(215.000000, 697.000000)">
                <g id="box2" transform="translate(400.000000, 0.000000)">
                    <g id="Global-accessibility/icon" transform="translate(155.000000, 30.000000)">
                        <g>
                            <rect id="Rectangle-2" x="0" y="0" width="60" height="60"></rect>
                            <g id="icon/world" transform="translate(10.000000, 7.000000)">
                                <path d="M21,8 C24.5833512,8 27.6458206,9.27082063 30.1875,11.8125 C32.7291794,14.3541794 34,17.4166488 34,21 C34,24.5833512 32.7291794,27.6458206 30.1875,30.1875 C27.6458206,32.7291794 24.5833512,34 21,34 C17.4166488,34 14.3541794,32.7291794 11.8125,30.1875 C9.27082063,27.6458206 8,24.5833512 8,21 C8,17.4166488 9.27082063,14.3541794 11.8125,11.8125 C14.3541794,9.27082063 17.4166488,8 21,8 Z M17.6,34 L18.2769231,32.3406143 C18.3589748,32.1394757 18.4,31.925769 18.4,31.6994881 C18.4,31.4732071 18.2974369,31.2595004 18.0923077,31.0583618 C17.4358942,30.3543765 16.964104,29.8263954 16.6769231,29.4744027 C16.5948714,29.3738334 16.4717957,29.0847009 16.3076923,28.6069966 C16.1435889,28.1292923 16.0820511,27.8401598 16.1230769,27.7395904 C16.3282062,27.2870285 16.4923071,26.6836215 16.6153846,25.9293515 C16.7384622,25.3259355 16.4717982,24.7728125 15.8153846,24.2699659 C15.5282037,24.0688272 15.2410271,23.8174077 14.9538462,23.5156997 C14.6666652,23.2139917 14.3487197,22.8871462 14,22.5351536 C13.6512803,22.1831609 13.37436,21.9065994 13.1692308,21.7054608 C12.4307655,21.0517601 12.0205132,20.5740629 11.9384615,20.2723549 C11.5692289,18.9649536 11.3641028,18.2609789 11.3230769,18.1604096 C10.9538443,17.5067089 10.7282055,16.8153051 10.6461538,16.0861775 C10.5641022,15.3570498 10.5846148,14.5902202 10.7076923,13.7856655 C10.7076923,13.4336729 10.6666671,12.805124 10.5846154,11.9 C8.86152985,14.3136639 8,17.2301308 8,20.6494881 C8,24.3705533 9.066656,27.5384397 11.2,30.1532423 C12.9641114,32.3154829 15.0974234,33.5977227 17.6,34 Z M29.4842105,30.3703704 C31.0807097,28.6419667 32.1526288,26.6172956 32.7,24.2962963 L31.4,24.1481481 C30.4421005,22.962957 29.9175443,21.851857 29.8263158,20.8148148 C29.7807015,20.3703681 29.7578947,19.679017 29.7578947,18.7407407 C29.7578947,17.8024644 29.7122812,17.0864222 29.6210526,16.5925926 C29.5298241,16.1481459 29.2219324,15.5308681 28.6973684,14.7407407 C28.1728044,13.9506133 27.8649127,13.4321 27.7736842,13.1851852 C27.6368414,12.8395044 27.4201769,12.3209911 27.1236842,11.6296296 C26.8271915,10.9382681 26.5877202,10.4197548 26.4052632,10.0740741 C26.4508774,10.0740741 26.5307012,10.0987652 26.6447368,10.1481481 C26.7587725,10.1975311 26.8385963,10.2469133 26.8842105,10.2962963 C27.3403532,10.1975304 27.6596482,10.1481481 27.8421053,10.1481481 C26.3824488,9.01234 24.6491328,8.29629778 22.6421053,8 L22.6421053,8.59259259 L22.9157895,9.25925926 L21.9578947,10.2222222 L21.3421053,10 L20.6578947,9.25925926 L19.9736842,8.37037037 L19.0157895,8 C18.0578899,8.14814889 17.0315844,8.46913333 15.9368421,8.96296296 L15.9368421,9.48148148 C16.0736849,9.38271556 16.3245596,9.28395111 16.6894737,9.18518519 C17.0543878,9.08641926 17.3280693,8.98765481 17.5105263,8.88888889 C17.6017548,8.83950593 17.9666635,9.06172593 18.6052632,9.55555556 C18.5596489,9.60493852 18.3087742,9.83950407 17.8526316,10.2592593 C17.3964889,10.6790144 17.1456143,10.9629622 17.1,11.1111111 C17.1,11.1604941 17.1798238,11.2716041 17.3394737,11.4444444 C17.4991236,11.6172848 17.5789474,11.7530859 17.5789474,11.8518519 C17.5789474,12.0000007 17.567544,12.2098752 17.5447368,12.4814815 C17.5219297,12.7530878 17.5105263,12.9629622 17.5105263,13.1111111 C18.4684258,12.0740689 18.9701752,11.5555556 19.0157895,11.5555556 C19.4263178,11.4567896 19.9280672,11.6666641 20.5210526,12.1851852 C21.1140381,12.7037063 21.4561399,13.1358007 21.5473684,13.4814815 C21.5929827,13.6296304 21.5017555,13.8395048 21.2736842,14.1111111 C21.0456129,14.3827174 20.6807043,14.7407385 20.1789474,15.1851852 C19.6771905,15.6296319 19.3807022,15.9012341 19.2894737,16 C19.1982452,16.0987659 18.9929841,16.2592581 18.6736842,16.4814815 C18.3543844,16.7037048 18.1263165,16.9135793 17.9894737,17.1111111 C17.8526309,17.308643 17.8298241,17.530863 17.9210526,17.7777778 C18.3771953,18.765437 18.4912292,19.3580237 18.2631579,19.5555556 C18.1719294,19.6543215 18.0578954,19.666667 17.9210526,19.5925926 C17.7842098,19.5185181 17.6815793,19.4320993 17.6131579,19.3333333 C17.5447365,19.2345674 17.4535093,19.1111119 17.3394737,18.962963 C17.225438,18.8148141 17.1456143,18.7160496 17.1,18.6666667 C16.8263144,18.3209859 15.9596564,18.1481481 14.5,18.1481481 C14.5,19.728403 14.8421018,20.7901207 15.5263158,21.3333333 C17.3965006,22.8148222 18.4684197,23.6296289 18.7421053,23.7777778 C19.0157908,23.9259267 19.5631538,23.9259267 20.3842105,23.7777778 C21.2052673,23.6296289 21.7298234,23.65432 21.9578947,23.8518519 C23.4631654,24.98766 24.5350845,25.7037022 25.1736842,26 C25.5842126,26.1481489 26.0403484,26.4814789 26.5421053,27 C27.0438622,27.5185211 27.1807029,27.9506156 26.9526316,28.2962963 C26.3596462,29.2839556 26.0403511,29.8518511 25.9947368,30 C25.6298227,30.8395104 25.1736869,31.4567881 24.6263158,31.8518519 C24.0333304,32.3456815 23.5543878,33.0617237 23.1894737,34 C25.6526439,33.4567874 27.7508685,32.246923 29.4842105,30.3703704 Z" id="ion-android-globe---Ionicons" fill="#95AABF" opacity="0.5"></path>
                                <circle id="Oval-2" stroke="#95AABF" cx="21" cy="21" r="13"></circle>
                                <path d="M35.2043567,26 C36.9731463,25.0882943 38,24.0016217 38,22.8349817 C38,21.8647762 37.2898301,20.9498761 36.0333605,20.1449201 C33.1164224,18.2761866 27.255189,17 20.5,17 C14.6004349,17 9.38270731,17.9733727 6.21257396,19.4647373 C4.18922528,20.416606 3,21.5794877 3,22.8349817 C3,23.969911 3.97179011,25.0291611 5.65305995,25.9252703" id="Oval-3" stroke="#1C3C55" stroke-linecap="round" stroke-linejoin="round" transform="translate(20.500000, 21.500000) scale(-1, -1) rotate(20.000000) translate(-20.500000, -21.500000) "></path>
                                <path d="M36.0446056,27.7327905 C37.9144689,26.645552 39,25.3496599 39,23.958404 C39,22.8014027 38.2492489,21.7103547 36.9209811,20.7504187 C33.8373609,18.5218937 27.6411997,17 20.5,17 C14.2633169,17 8.74743344,18.1607784 5.39614962,19.9392788 C3.25718101,21.0744129 2,22.4611869 2,23.958404 C2,25.3118439 3.02732097,26.5750337 4.80466338,27.6436729 C5.63965506,28.1457173 6.71684387,28.5978264 8.03622978,29" id="Oval-3" stroke="#F7931A" stroke-linecap="round" stroke-linejoin="round" transform="translate(20.500000, 23.000000) scale(1, -1) rotate(20.000000) translate(-20.500000, -23.000000) "></path>
                            </g>
                        </g>
                    </g>
                </g>
            </g>
        </g>
    </g>
</svg>