<?xml version="1.0" encoding="UTF-8"?>
<svg width="38px" height="35px" viewBox="0 0 38 35" version="1.1" xmlns="http://www.w3.org/2000/svg" xmlns:xlink="http://www.w3.org/1999/xlink">
    <!-- Generator: Sketch 49 (51002) - http://www.bohemiancoding.com/sketch -->
    <title>Automated solutions/ICON</title>
    <desc>Created with Sketch.</desc>
    <defs></defs>
    <g id="Innovation" stroke="none" stroke-width="1" fill="none" fill-rule="evenodd">
        <g id="22.01.18-Bitcoin.org_Innovation_Desktop-1200px--" transform="translate(-1179.000000, -2493.000000)">
            <g id="//contenct" transform="translate(215.000000, 697.000000)">
                <g id="box12" transform="translate(800.000000, 1755.000000)">
                    <g id="Automated-solutions/ICON" transform="translate(155.000000, 30.000000)">
                        <g>
                            <rect id="Rectangle-2" x="0" y="0" width="60" height="60"></rect>
                            <g id="Group-7" transform="translate(6.000000, 8.000000)">
                                <g id="Group-6" transform="translate(12.430413, 13.004866) rotate(-8.000000) translate(-12.430413, -13.004866) translate(1.930413, 4.004866)" fill="#1C1F30">
                                    <path d="M20.5,0.5 L20.5,1.5 C12.2157288,1.5 5.5,8.21572875 5.5,16.5 L4.5,16.5 C4.5,7.663444 11.663444,0.5 20.5,0.5 Z" id="Oval-5" fill-rule="nonzero"></path>
                                    <polygon id="ion-android-arrow-forward---Ionicons" transform="translate(5.049911, 15.180367) rotate(-268.000000) translate(-5.049911, -15.180367) " points="5.53233262 14.6471636 2.51084825 11.6002886 3.272567 10.8385699 7.61436387 15.1803667 3.272567 19.5221636 2.48545762 18.7604449 5.53233262 15.7135699"></polygon>
                                </g>
                                <g id="Group-6" transform="translate(23.931684, 19.290337) rotate(116.000000) translate(-23.931684, -19.290337) translate(13.931684, 9.290337)" fill="#1C1F30" fill-rule="nonzero">
                                    <path d="M18.9930313,7.91343637 L17.2154758,7.91343637 C16.9297721,7.91343637 16.6943832,7.75615859 16.5849572,7.49226971 C16.4755313,7.22838082 16.5311239,6.95041785 16.732735,6.74845489 L17.9895498,5.49199193 C18.1742721,5.30726971 18.2759572,5.06132526 18.2759572,4.80025119 C18.2759572,4.53882526 18.1742721,4.29323267 17.9895498,4.10815859 L16.3875684,2.50617711 C16.0181239,2.13673267 15.3738832,2.13602896 15.003735,2.50617711 L13.7472721,3.76264008 C13.5453091,3.96425119 13.2666424,4.02054748 13.0034572,3.91076971 C12.7395684,3.80134378 12.5822906,3.56595489 12.5822906,3.28025119 L12.5822906,1.50269563 C12.5822906,0.963306743 12.1435313,0.524547483 11.6041424,0.524547483 L9.33821651,0.524547483 C8.79882762,0.524547483 8.36006836,0.963306743 8.36006836,1.50269563 L8.36006836,3.28025119 C8.36006836,3.56595489 8.20279058,3.80134378 7.93890169,3.91076971 C7.67571651,4.02089934 7.39704984,3.96425119 7.19508688,3.76264008 L5.93862392,2.50617711 C5.56847577,2.13602896 4.92423503,2.13673267 4.55479058,2.50617711 L2.9528091,4.10815859 C2.76808688,4.29288082 2.66640169,4.53882526 2.66640169,4.80025119 C2.66640169,5.06132526 2.76808688,5.30691785 2.9528091,5.49199193 L4.20962392,6.74845489 C4.41123503,6.95041785 4.46647577,7.22838082 4.35740169,7.49226971 C4.24832762,7.75615859 4.01258688,7.91343637 3.72688317,7.91343637 L1.94932762,7.91343637 C1.40993873,7.91343637 0.971179471,8.35219563 0.971179471,8.89158452 L0.971179471,11.1571586 C0.971179471,11.6968993 1.40993873,12.1356586 1.94932762,12.1356586 L3.72688317,12.1356586 C4.01258688,12.1356586 4.24797577,12.2929364 4.35740169,12.5568253 C4.46682762,12.8207142 4.41123503,13.0986771 4.20962392,13.3006401 L2.9528091,14.557103 C2.76808688,14.7418253 2.66640169,14.9877697 2.66640169,15.2488438 C2.66640169,15.5102697 2.76808688,15.7558623 2.9528091,15.9409364 L4.55479058,17.5429179 C4.92458688,17.9127142 5.56847577,17.9134179 5.93862392,17.5429179 L7.19508688,16.286103 C7.39704984,16.0844919 7.67466095,16.0288993 7.93890169,16.1383253 C8.20279058,16.2477512 8.36006836,16.4831401 8.36006836,16.7688438 L8.36006836,18.5463993 C8.36006836,19.0857882 8.79882762,19.5245475 9.33821651,19.5245475 L11.6037906,19.5245475 C12.1431795,19.5245475 12.5819387,19.0857882 12.5819387,18.5463993 L12.5819387,16.7688438 C12.5819387,16.4831401 12.7392165,16.2477512 13.0031054,16.1383253 C13.2673461,16.0285475 13.5449572,16.0844919 13.7469202,16.286103 L15.0033832,17.5429179 C15.3735313,17.913066 16.0177721,17.9123623 16.3872165,17.5429179 L17.989198,15.9409364 C18.1739202,15.7562142 18.2756054,15.5102697 18.2756054,15.2488438 C18.2756054,14.9877697 18.1739202,14.7421771 17.989198,14.557103 L16.7323832,13.3006401 C16.5307721,13.0986771 16.4755313,12.8207142 16.5846054,12.5568253 C16.6936795,12.2929364 16.9297721,12.1356586 17.2154758,12.1356586 L18.9930313,12.1356586 C19.5324202,12.1356586 19.9711795,11.6968993 19.9711795,11.1575104 L19.9711795,8.89158452 C19.9711795,8.35219563 19.5324202,7.91343637 18.9930313,7.91343637 Z M19.2674758,11.1575104 C19.2674758,11.3088067 19.1443276,11.4319549 18.9930313,11.4319549 L17.2154758,11.4319549 C16.6440684,11.4319549 16.153235,11.7598808 15.934735,12.2876586 C15.7158832,12.8154364 15.8309387,13.3945845 16.2352165,13.7985104 L17.4920313,15.0549734 C17.5993461,15.1622882 17.5993461,15.3364549 17.4920313,15.4434179 L15.8900498,17.0453993 C15.7830869,17.1523623 15.6089202,17.153066 15.5016054,17.0453993 L14.2451424,15.7885845 C13.8408647,15.3843067 13.2620684,15.2699549 12.7342906,15.488103 C12.2065128,15.706603 11.8785869,16.1974364 11.8785869,16.7688438 L11.8785869,18.5463993 C11.8785869,18.6976956 11.7554387,18.8208438 11.6041424,18.8208438 L9.33821651,18.8208438 C9.18692021,18.8208438 9.06377206,18.6976956 9.06377206,18.5463993 L9.06377206,16.7688438 C9.06377206,16.1974364 8.73584614,15.706603 8.20806836,15.488103 C8.03108688,15.414566 7.84882762,15.3786771 7.66867947,15.3786771 C7.31190169,15.3786771 6.96603132,15.5194179 6.69721651,15.7882327 L5.44075355,17.0450475 C5.33308688,17.1527142 5.15892021,17.1520104 5.0523091,17.0450475 L3.45032762,15.443066 C3.3430128,15.3357512 3.3430128,15.1615845 3.45032762,15.0546216 L4.70714243,13.7981586 C5.11106836,13.3942327 5.22647577,12.8150845 5.00762392,12.2873067 C4.78912392,11.7598808 4.29829058,11.4319549 3.72688317,11.4319549 L1.94932762,11.4319549 C1.79803132,11.4319549 1.67488317,11.3088067 1.67488317,11.1575104 L1.67488317,8.89158452 C1.67488317,8.74028822 1.79803132,8.61714008 1.94932762,8.61714008 L3.72688317,8.61714008 C4.29829058,8.61714008 4.78912392,8.28921415 5.00762392,7.76143637 C5.22647577,7.23365859 5.11142021,6.65451045 4.70714243,6.25058452 L3.45032762,4.99412156 C3.3430128,4.88680674 3.3430128,4.71264008 3.45032762,4.60567711 L5.0523091,3.00369563 C5.15927206,2.89638082 5.33343873,2.89638082 5.44075355,3.00369563 L6.69721651,4.26015859 C7.10079058,4.66373267 7.67958688,4.77949193 8.20806836,4.56064008 C8.73584614,4.34249193 9.06377206,3.85165859 9.06377206,3.28025119 L9.06377206,1.50269563 C9.06377206,1.35139934 9.18692021,1.22825119 9.33821651,1.22825119 L11.6037906,1.22825119 C11.7554387,1.22825119 11.8785869,1.35139934 11.8785869,1.50269563 L11.8785869,3.28025119 C11.8785869,3.85165859 12.2065128,4.34249193 12.7342906,4.56099193 C13.2627721,4.77984378 13.8412165,4.66443637 14.2451424,4.26051045 L15.5016054,3.00404748 C15.6092721,2.89673267 15.7834387,2.89673267 15.8900498,3.00404748 L17.4920313,4.60602896 C17.5993461,4.71334378 17.5993461,4.88751045 17.4920313,4.99447341 L16.2352165,6.25093637 C15.8312906,6.6548623 15.7158832,7.23401045 15.934735,7.76178822 C16.153235,8.289566 16.6440684,8.61749193 17.2154758,8.61749193 L18.9930313,8.61749193 C19.1443276,8.61714008 19.2674758,8.74028822 19.2674758,8.89158452 L19.2674758,11.1575104 Z" id="Shape"></path>
                                    <path d="M10.4711795,13.8745475 C8.34488318,13.8745475 6.62117947,12.1508438 6.62117947,10.0245475 C6.62117947,7.8982512 8.34488318,6.17454748 10.4711795,6.17454748 C12.5974758,6.17454748 14.3211795,7.8982512 14.3211795,10.0245475 C14.3211795,12.1508438 12.5974758,13.8745475 10.4711795,13.8745475 Z M10.4711795,13.1745475 C12.2108764,13.1745475 13.6211795,11.7642444 13.6211795,10.0245475 C13.6211795,8.28485052 12.2108764,6.87454748 10.4711795,6.87454748 C8.73148251,6.87454748 7.32117947,8.28485052 7.32117947,10.0245475 C7.32117947,11.7642444 8.73148251,13.1745475 10.4711795,13.1745475 Z" id="Oval-3"></path>
                                </g>
                                <g id="Group-6" transform="translate(35.949397, 13.719186) rotate(116.000000) translate(-35.949397, -13.719186) translate(25.449397, 4.719186)" fill="#95AABF">
                                    <path d="M20.5,0.5 L20.5,1.5 C12.2157288,1.5 5.5,8.21572875 5.5,16.5 L4.5,16.5 C4.5,7.663444 11.663444,0.5 20.5,0.5 Z" id="Oval-5" fill-rule="nonzero"></path>
                                    <polygon id="ion-android-arrow-forward---Ionicons" transform="translate(5.049911, 15.180367) rotate(-268.000000) translate(-5.049911, -15.180367) " points="5.53233262 14.6471636 2.51084825 11.6002886 3.272567 10.8385699 7.61436387 15.1803667 3.272567 19.5221636 2.48545762 18.7604449 5.53233262 15.7135699"></polygon>
                                </g>
                                <g id="Group-6-Copy" transform="translate(24.500000, 32.500000) scale(-1, -1) rotate(48.000000) translate(-24.500000, -32.500000) translate(14.000000, 24.000000)" fill="#FF9500">
                                    <path d="M20.5,-0.5 L20.5,0.5 C12.2157288,0.5 5.5,7.21572875 5.5,15.5 L4.5,15.5 C4.5,6.663444 11.663444,-0.5 20.5,-0.5 Z" id="Oval-5" fill-rule="nonzero"></path>
                                    <polygon id="ion-android-arrow-forward---Ionicons" transform="translate(5.049911, 14.180367) rotate(-268.000000) translate(-5.049911, -14.180367) " points="5.53233262 13.6471636 2.51084825 10.6002886 3.272567 9.83856985 7.61436387 14.1803667 3.272567 18.5221636 2.48545762 17.7604449 5.53233262 14.7135699"></polygon>
                                </g>
                            </g>
                        </g>
                    </g>
                </g>
            </g>
        </g>
    </g>
</svg>