<?xml version="1.0" encoding="UTF-8"?>
<svg width="72px" height="32px" viewBox="0 0 72 32" version="1.1" xmlns="http://www.w3.org/2000/svg" xmlns:xlink="http://www.w3.org/1999/xlink">
    <!-- Generator: Sketch 49 (51002) - http://www.bohemiancoding.com/sketch -->
    <title>Begining?ICON</title>
    <desc>Created with Sketch.</desc>
    <defs></defs>
    <g id="About-us" stroke="none" stroke-width="1" fill="none" fill-rule="evenodd">
        <g id="22.01.18_Bitcoin.org_About-us_Desktop-1200px--" transform="translate(-533.000000, -667.000000)">
            <g id="Who-owns-bitcoin.org?" transform="translate(265.000000, 548.000000)">
                <g id="Group-12" transform="translate(1.000000, 112.000000)">
                    <g id="Group-9" transform="translate(121.000000, 0.000000)">
                        <g id="Begining?ICON" transform="translate(147.000000, 8.000000)">
                            <g id="Group-13">
                                <g id="Satoshi@1x">
                                    <path d="M15.0167598,0 C14.1005541,0 13.1955352,0.172989341 12.3016759,0.518973215 C11.4078167,0.86495709 10.6033555,1.3058009 9.88826813,1.84151785 C9.17318078,2.37723482 8.59776758,2.95758616 8.1620112,3.58258928 C7.72625482,4.20759241 7.5083799,4.79910435 7.5083799,5.35714286 L7.5083799,10.7142857 C7.5083799,11.7633981 7.7709471,13.1026704 8.29608937,14.7321428 C8.82123165,16.3616153 9.64245255,17.6227634 10.7597765,18.515625 C11.0502808,18.7388404 11.2681557,19.0234358 11.4134078,19.3694197 C11.5586599,19.7154035 11.6089388,20.0781231 11.5642458,20.4575893 C11.4972064,20.8147339 11.3575429,21.1439717 11.1452514,21.4453125 C10.9329598,21.7466533 10.6592195,21.9754457 10.3240223,22.1316964 L0.905027933,26.5848214 C0.770949053,26.6294645 0.586593352,26.7354902 0.351955307,26.9029018 C0.117317263,27.0703133 0,27.3772299 0,27.8236607 L0,30 L30,29.9665178 L30,27.890625 C30,27.310265 29.8603366,26.9475454 29.5810056,26.8024553 C29.3016746,26.6573653 29.1508381,26.5848214 29.1284916,26.5848214 L19.7765363,22.1651786 C19.4413391,22.0089278 19.1620123,21.7801354 18.9385474,21.4787947 C18.7150827,21.1774538 18.5810058,20.8370555 18.5363128,20.4575893 C18.4916199,20.0781231 18.5418987,19.7154035 18.6871508,19.3694197 C18.832403,19.0234358 19.0502779,18.7388404 19.3407821,18.515625 C20.5027991,17.6227634 21.32402,16.356035 21.8044693,14.7154018 C22.2849186,13.0747686 22.5251397,11.7410765 22.5251397,10.7142857 L22.5251397,5.35714286 C22.5251397,4.77678281 22.3016782,4.17411027 21.8547486,3.54910714 C21.407819,2.92410402 20.8324058,2.34933298 20.1284916,1.82477678 C19.4245775,1.30022059 18.6201163,0.86495709 17.7150838,0.518973215 C16.8100513,0.172989341 15.910619,0 15.0167598,0 Z" id="User---simple-line-icons" stroke="#F7931A"></path>
                                    <path d="M20,7.19543509 C20,8.06086975 19.8735333,8.71659311 19.6205962,9.16262486 C19.3676591,9.60865653 18.8545657,10.1279096 18.0813008,10.7203995 C17.3080359,11.3128893 16.7768759,11.7855427 16.4878048,12.1383738 C16.1987339,12.4912048 16.0542006,12.8806445 16.0542006,13.3067047 L16.0542006,14.0057061 L14.6883469,14.0057061 C14.5004507,13.6462179 14.4065041,13.2401354 14.4065041,12.7874465 C14.4065041,12.3347576 14.5727174,11.9120324 14.905149,11.5192582 C15.2375807,11.126484 15.772354,10.6371879 16.5094851,10.0513552 C17.2466161,9.46552248 17.7380295,8.99952619 17.9837398,8.65335236 C18.2294502,8.30717852 18.3523035,7.82453945 18.3523035,7.20542086 C18.3523035,6.58630218 18.1210502,6.12363443 17.6585366,5.81740371 C17.196023,5.51117298 16.4661296,5.35805992 15.4688347,5.35805992 C14.8328785,5.35805992 13.9006385,5.47788753 12.6720867,5.71754636 L12.1084011,5.81740371 L12,4.59914408 C13.4598086,4.1997127 14.6666619,4 15.6205962,4 C17.1093119,4 18.2113785,4.24964087 18.9268292,4.7489301 C19.64228,5.24821933 20,6.06371284 20,7.19543509 Z M14.4498645,18 L14.4498645,15.7631954 L16.2276423,15.7631954 L16.2276423,18 L14.4498645,18 Z" id="?" fill="#032327" fill-rule="nonzero"></path>
                                </g>
                                <polygon id="+" fill="#95AABF" points="30 13.786 30 12.29 34.158 12.29 34.158 8 35.698 8 35.698 12.29 39.9 12.29 39.9 13.786 35.698 13.786 35.698 18.12 34.158 18.12 34.158 13.786"></polygon>
                                <g id="Satoshi@1x" transform="translate(40.000000, 0.000000)">
                                    <path d="M15.0167598,0 C14.1005541,0 13.1955352,0.172989341 12.3016759,0.518973215 C11.4078167,0.86495709 10.6033555,1.3058009 9.88826813,1.84151785 C9.17318078,2.37723482 8.59776758,2.95758616 8.1620112,3.58258928 C7.72625482,4.20759241 7.5083799,4.79910435 7.5083799,5.35714286 L7.5083799,10.7142857 C7.5083799,11.7633981 7.7709471,13.1026704 8.29608937,14.7321428 C8.82123165,16.3616153 9.64245255,17.6227634 10.7597765,18.515625 C11.0502808,18.7388404 11.2681557,19.0234358 11.4134078,19.3694197 C11.5586599,19.7154035 11.6089388,20.0781231 11.5642458,20.4575893 C11.4972064,20.8147339 11.3575429,21.1439717 11.1452514,21.4453125 C10.9329598,21.7466533 10.6592195,21.9754457 10.3240223,22.1316964 L0.905027933,26.5848214 C0.770949053,26.6294645 0.586593352,26.7354902 0.351955307,26.9029018 C0.117317263,27.0703133 0,27.3772299 0,27.8236607 L0,30 L30,29.9665178 L30,27.890625 C30,27.310265 29.8603366,26.9475454 29.5810056,26.8024553 C29.3016746,26.6573653 29.1508381,26.5848214 29.1284916,26.5848214 L19.7765363,22.1651786 C19.4413391,22.0089278 19.1620123,21.7801354 18.9385474,21.4787947 C18.7150827,21.1774538 18.5810058,20.8370555 18.5363128,20.4575893 C18.4916199,20.0781231 18.5418987,19.7154035 18.6871508,19.3694197 C18.832403,19.0234358 19.0502779,18.7388404 19.3407821,18.515625 C20.5027991,17.6227634 21.32402,16.356035 21.8044693,14.7154018 C22.2849186,13.0747686 22.5251397,11.7410765 22.5251397,10.7142857 L22.5251397,5.35714286 C22.5251397,4.77678281 22.3016782,4.17411027 21.8547486,3.54910714 C21.407819,2.92410402 20.8324058,2.34933298 20.1284916,1.82477678 C19.4245775,1.30022059 18.6201163,0.86495709 17.7150838,0.518973215 C16.8100513,0.172989341 15.910619,0 15.0167598,0 Z" id="User---simple-line-icons" stroke="#F7931A"></path>
                                    <path d="M20,7.19543509 C20,8.06086975 19.8735333,8.71659311 19.6205962,9.16262486 C19.3676591,9.60865653 18.8545657,10.1279096 18.0813008,10.7203995 C17.3080359,11.3128893 16.7768759,11.7855427 16.4878048,12.1383738 C16.1987339,12.4912048 16.0542006,12.8806445 16.0542006,13.3067047 L16.0542006,14.0057061 L14.6883469,14.0057061 C14.5004507,13.6462179 14.4065041,13.2401354 14.4065041,12.7874465 C14.4065041,12.3347576 14.5727174,11.9120324 14.905149,11.5192582 C15.2375807,11.126484 15.772354,10.6371879 16.5094851,10.0513552 C17.2466161,9.46552248 17.7380295,8.99952619 17.9837398,8.65335236 C18.2294502,8.30717852 18.3523035,7.82453945 18.3523035,7.20542086 C18.3523035,6.58630218 18.1210502,6.12363443 17.6585366,5.81740371 C17.196023,5.51117298 16.4661296,5.35805992 15.4688347,5.35805992 C14.8328785,5.35805992 13.9006385,5.47788753 12.6720867,5.71754636 L12.1084011,5.81740371 L12,4.59914408 C13.4598086,4.1997127 14.6666619,4 15.6205962,4 C17.1093119,4 18.2113785,4.24964087 18.9268292,4.7489301 C19.64228,5.24821933 20,6.06371284 20,7.19543509 Z M14.4498645,18 L14.4498645,15.7631954 L16.2276423,15.7631954 L16.2276423,18 L14.4498645,18 Z" id="?" fill="#032327" fill-rule="nonzero"></path>
                                </g>
                            </g>
                        </g>
                    </g>
                </g>
            </g>
        </g>
    </g>
</svg>