<?xml version="1.0" encoding="UTF-8"?>
<svg width="405px" height="262px" viewBox="0 0 405 262" version="1.1" xmlns="http://www.w3.org/2000/svg" xmlns:xlink="http://www.w3.org/1999/xlink">
    <!-- Generator: Sketch 49 (51002) - http://www.bohemiancoding.com/sketch -->
    <title>secend illustration</title>
    <desc>Created with Sketch.</desc>
    <defs></defs>
    <g id="Things-you-need-to-know" stroke="none" stroke-width="1" fill="none" fill-rule="evenodd">
        <g id="22.01.18-Bitcoin.org_things-you-need-to-know-Desktop-1200px--" transform="translate(-958.000000, -1301.000000)">
            <g id="//body" transform="translate(215.000000, 717.000000)">
                <g id="2" transform="translate(0.000000, 520.000000)">
                    <g id="secend-illustration" transform="translate(700.000000, 39.000000)">
                        <g id="bitcoin-price-is-volatile">
                            <polyline id="Path-100" stroke="#979797" stroke-width="1" opacity="0.200000003" points="49 194.034027 65.4724828 146.734366 86.9106785 219.030602 101.348996 170.75637 107.173032 191.848282 117.777494 127 132.102604 217.487376 150.771482 158.68591 171.041445 236.510318 201.74273 184.292829 221.477359 217.487376 230.366313 195.108486 240.533205 217.487376 269.540655 153.593953 302.211719 209.055108 327.637744 170.75637 375.266237 253.65325 386.050047 228.273679 398.091968 253.65325 415.841367 199.347572"></polyline>
                            <circle id="Oval-2" fill="#7B7B7B" fill-rule="evenodd" cx="200.65291" cy="231.984407" r="2.5"></circle>
                            <circle id="Oval-2" fill="#7B7B7B" fill-rule="evenodd" cx="171.65291" cy="124.984407" r="2.5"></circle>
                            <g id="dots" stroke-width="1" fill-rule="evenodd" transform="translate(193.000000, 175.000000)">
                                <circle id="Oval-2" fill="#C4C4C4" cx="8.5" cy="8.5" r="2.38"></circle>
                                <circle id="Oval-2" stroke="#CACACA" cx="8.5" cy="8.5" r="8.5"></circle>
                            </g>
                            <g id="dots-copy-2" stroke-width="1" fill-rule="evenodd" transform="translate(337.000000, 39.000000)">
                                <circle id="Oval-2" fill="#C4C4C4" cx="8.5" cy="8.5" r="2.38"></circle>
                                <circle id="Oval-2" stroke="#CACACA" cx="8.5" cy="8.5" r="8.5"></circle>
                            </g>
                            <path d="M276.006266,149.847907 C276.205259,151.886523 275.348058,153.112759 274.001027,153.802516 C276.235874,154.338994 277.644133,155.672525 277.368604,158.661474 C277.016539,162.386165 274.261249,163.382481 270.311999,163.597072 L270.311999,167.505698 L267.954695,167.505698 L267.954695,163.658384 C267.357715,163.658384 266.730121,163.658384 266.08722,163.643056 L266.08722,167.505698 L263.729916,167.505698 L263.729916,163.597072 C263.178857,163.597072 262.627799,163.581744 262.061434,163.581744 L259,163.581744 L259.474522,160.77673 C261.204233,160.807386 261.173618,160.77673 261.173618,160.77673 C261.831826,160.77673 262.015513,160.301564 262.061434,159.995005 L262.061434,153.833172 L262.306349,153.833172 C262.214506,153.817844 262.122663,153.817844 262.061434,153.817844 L262.061434,149.418725 C261.969591,148.92823 261.663448,148.376424 260.699096,148.376424 C260.699096,148.376424 260.72971,148.345769 259,148.376424 L259,145.862642 L262.24512,145.87797 C262.719642,145.87797 263.224779,145.87797 263.729916,145.862642 L263.729916,142 L266.08722,142 L266.08722,145.786002 C266.714814,145.770674 267.342408,145.755346 267.954695,145.755346 L267.954695,142 L270.311999,142 L270.311999,145.862642 C273.342818,146.123217 275.746044,147.058221 276.006266,149.847907 Z M272.715224,158.201636 C272.715224,155.166703 267.725087,155.611214 266.133141,155.611214 L266.133141,160.792058 C267.725087,160.792058 272.715224,161.129273 272.715224,158.201636 Z M271.628415,150.905535 C271.628415,148.131177 267.464865,148.545032 266.133141,148.545032 L266.133141,153.25071 C267.464865,153.25071 271.628415,153.557269 271.628415,150.905535 Z" id="btc---FontAwesome-Copy" fill="#F7931A" fill-rule="evenodd"></path>
                            <g id="dots" stroke-width="1" fill-rule="evenodd" transform="translate(127.631237, 211.422064)">
                                <circle id="Oval-2" fill="#C4C4C4" cx="4.92206419" cy="4.92206419" r="1.37817797"></circle>
                                <circle id="Oval-2" stroke="#CACACA" cx="4.92206419" cy="4.92206419" r="4.92206419"></circle>
                            </g>
                            <g id="dots" stroke-width="1" fill-rule="evenodd" transform="translate(381.000000, 221.000000)">
                                <circle id="Oval-2" fill="#C4C4C4" cx="4.92206419" cy="4.92206419" r="1.37817797"></circle>
                                <circle id="Oval-2" stroke="#CACACA" cx="4.92206419" cy="4.92206419" r="4.92206419"></circle>
                            </g>
                            <g id="dots-copy" stroke-width="1" fill-rule="evenodd" transform="translate(403.000000, 138.000000)">
                                <circle id="Oval-2" fill="#C4C4C4" cx="4.92206419" cy="4.92206419" r="1.37817797"></circle>
                                <circle id="Oval-2" stroke="#CACACA" cx="4.92206419" cy="4.92206419" r="4.92206419"></circle>
                            </g>
                            <g id="Group-7" stroke-width="1" fill-rule="evenodd" transform="translate(294.000000, 199.000000)">
                                <circle id="Oval-2" fill="#FF7E00" cx="8.21768222" cy="8.21768222" r="2.58270013"></circle>
                                <circle id="Oval-2" stroke="#FF7E00" cx="8.21768222" cy="8.21768222" r="8.21768222"></circle>
                            </g>
                            <g id="Group-7-Copy-2" stroke-width="1" fill-rule="evenodd" transform="translate(431.000000, 76.000000)">
                                <circle id="Oval-2" fill="#FF7E00" cx="8.21768222" cy="8.21768222" r="2.58270013"></circle>
                                <circle id="Oval-2" stroke="#FF7E00" cx="8.21768222" cy="8.21768222" r="8.21768222"></circle>
                            </g>
                            <g id="Group-7-Copy" stroke-width="1" fill-rule="evenodd" transform="translate(109.000000, 119.000000)">
                                <circle id="Oval-2" fill="#FF7E00" cx="8.21768222" cy="8.21768222" r="2.58270013"></circle>
                                <circle id="Oval-2" stroke="#FF7E00" cx="8.21768222" cy="8.21768222" r="8.21768222"></circle>
                            </g>
                            <path d="M50.4744458,25.7593184 L50.4744458,268.5" id="Path-101" stroke="#FF9500" stroke-width="1"></path>
                            <path d="M43.5720548,261.573183 L433.535855,261.573183" id="Path-102" stroke="#FF9500" stroke-width="1"></path>
                            <polyline id="Path-99" stroke="#1C3C55" stroke-width="1" points="49.9990741 154.006072 67.7401898 71.0037015 105.701608 286.709114 132.641621 175 145.735611 225.402323 172.432743 126.592891 200.047425 231.368203 235 169.255407 269.781291 228.171168 346.877152 47.2121475 361.658717 78.3710952 370.107381 60.4446702 407.521867 143.159181 439.362681 85.394857"></polyline>
                        </g>
                    </g>
                </g>
            </g>
        </g>
    </g>
</svg>