<?xml version="1.0" encoding="UTF-8"?>
<svg width="424px" height="267px" viewBox="0 0 424 267" version="1.1" xmlns="http://www.w3.org/2000/svg" xmlns:xlink="http://www.w3.org/1999/xlink">
    <!-- Generator: Sketch 49 (51002) - http://www.bohemiancoding.com/sketch -->
    <title>bitcoin payments are irreversible</title>
    <desc>Created with Sketch.</desc>
    <defs></defs>
    <g id="Things-you-need-to-know" stroke="none" stroke-width="1" fill="none" fill-rule="evenodd">
        <g id="22.01.18-Bitcoin.org_things-you-need-to-know-Desktop-1200px--" transform="translate(-241.000000, -1848.000000)">
            <g id="//body" transform="translate(215.000000, 717.000000)">
                <g id="3" transform="translate(0.000000, 1047.000000)">
                    <g id="3th-illustration" transform="translate(0.000000, 59.000000)">
                        <g id="bitcoin-payments-are-irreversible">
                            <g>
                                <g id="Group" transform="translate(248.814290, 173.847843) rotate(-245.000000) translate(-248.814290, -173.847843) translate(80.314290, 8.347843)">
                                    <g id="Group-8" opacity="0.200000003" transform="translate(1.000000, 1.000000)" stroke="#979797">
                                        <path d="" id="Path-2"></path>
                                        <polyline id="Path-9" points="148.388535 188.654205 99.4693446 56.795082 192.391121 0.692622951"></polyline>
                                        <polyline id="Path-11" points="77.4532556 278.328971 189.270613 0 327.613108 252.114754 211.114165 328.303279 1 154.454918 99.4693446 56.102459 326.919662 252.114754"></polyline>
                                        <polyline id="Path-13" points="329 252.114754 237.465116 252.114754 149.679629 188.052158 76.5207566 278.153843 203.096732 323.7613"></polyline>
                                        <path d="M77.9725159,279.127049 L0.668252525,153.695033" id="Path-14"></path>
                                    </g>
                                    <g id="dots" transform="translate(91.000000, 49.000000)">
                                        <circle id="Oval-2" fill="#C4C4C4" cx="8.5" cy="8.5" r="2.38"></circle>
                                        <circle id="Oval-2" stroke="#CACACA" cx="8.5" cy="8.5" r="8.5"></circle>
                                    </g>
                                    <g id="dots" transform="translate(320.000000, 243.000000)">
                                        <circle id="Oval-2" fill="#C4C4C4" cx="8.5" cy="8.5" r="2.38"></circle>
                                        <circle id="Oval-2" stroke="#CACACA" cx="8.5" cy="8.5" r="8.5"></circle>
                                    </g>
                                    <g id="dots" transform="translate(70.000000, 271.000000)">
                                        <circle id="Oval-2" fill="#C4C4C4" cx="8.5" cy="8.5" r="2.38"></circle>
                                        <circle id="Oval-2" stroke="#CACACA" cx="8.5" cy="8.5" r="8.5"></circle>
                                    </g>
                                    <circle id="Oval-2" fill="#7B7B7B" cx="210.5" cy="328.5" r="2.5"></circle>
                                    <circle id="Oval-2" fill="#7B7B7B" cx="190.5" cy="2.5" r="2.5"></circle>
                                    <circle id="Oval-2-Copy" fill="#7B7B7B" cx="2.5" cy="155.5" r="2.5"></circle>
                                </g>
                                <g id="tranzakcja" transform="translate(86.225455, 92.280899)">
                                    <g id="Group-7" transform="translate(1.000000, 82.000000)">
                                        <path d="M1.62003744e-12,24.1573034 L305.564914,24.1573034" id="Path-35" stroke="#1C3C55" stroke-linecap="round" stroke-linejoin="round"></path>
                                        <path d="M203.414165,50.1573034 L299.564914,50.1573034" id="Path-35-Copy" stroke="#1C3C55" stroke-linecap="round" stroke-linejoin="round"></path>
                                        <polygon id="ion-ios-arrow-right---Ionicons" fill="#FF9500" points="202.898182 16.0307233 204.065114 15 213.567273 23.6797753 204.065114 32.3595506 202.898182 31.3288272 211.233409 23.6797753"></polygon>
                                        <polygon id="ion-ios-arrow-right---Ionicons-Copy-2" fill="#FF9500" points="84.3527273 16.0307233 85.5196591 15 95.0218182 23.6797753 85.5196591 32.3595506 84.3527273 31.3288272 92.6879545 23.6797753"></polygon>
                                        <g id="tranzakcja-irreversible" transform="translate(192.152727, 36.719101)" stroke="#1C3C55" stroke-width="2">
                                            <g id="Group-5" transform="translate(0.618182, 0.000000)">
                                                <ellipse id="Oval-6" fill="#FFFFFF" cx="13.04" cy="12.7303371" rx="13.04" ry="12.7303371"></ellipse>
                                                <path d="M22.2751954,4.19892349 L4.28950545,22.636358" id="Path-37"></path>
                                            </g>
                                        </g>
                                        <polygon id="ion-ios-arrow-right---Ionicons-Copy" fill="#FF9500" transform="translate(228.487273, 50.398876) rotate(180.000000) translate(-228.487273, -50.398876) " points="223.152727 42.7498244 224.319659 41.7191011 233.821818 50.3988764 224.319659 59.0786517 223.152727 58.0479284 231.487955 50.3988764"></polygon>
                                        <g id="tarcza-+klucz-copy" transform="translate(148.036364, 12.056180)">
                                            <g id="Group-4" fill="#FFFFFF">
                                                <path d="M14.8471336,34.7191011 L14.6529085,34.6876788 C6.02706537,32.7281469 0,25.3930322 0,16.8505465 L0,4.93758183 L0.547138976,4.91380791 C5.5881895,4.69589094 10.4070227,3.07798965 14.4821758,0.234488609 L14.8184796,0 L15.1547835,0.234488609 C19.2321865,3.07849954 24.0504241,4.6963371 29.0892247,4.91380791 L29.6363636,4.93758183 L29.6363636,16.8504827 C29.6363636,25.3924585 23.6092983,32.7275732 14.980014,34.6886986 L14.8471336,34.7191011 Z" id="Path" stroke="#1C3C55"></path>
                                                <path d="M14.8423372,31.7431782 L14.680289,31.7171425 C7.48346946,30.0935304 2.45489418,24.0158639 2.45489418,16.9378043 L2.45489418,7.06706219 L2.9113899,7.04736379 C7.11730115,6.86680401 11.1378093,5.52625723 14.5378411,3.17021352 L14.8184303,2.97592295 L15.0990194,3.17021352 C18.5009284,5.52667972 22.5209397,6.86717369 26.7249737,7.04736379 L27.1814695,7.06706219 L27.1814695,16.9377515 C27.1814695,24.0153886 22.1528942,30.0930551 14.9532036,31.7179875 L14.8423372,31.7431782 Z" id="Path" stroke="#95AABF"></path>
                                            </g>
                                            <g id="key" transform="translate(8.298182, 10.415730)" stroke="#1C3C55" stroke-width="0.6">
                                                <path d="M9.34160092,0 C6.64861908,0 4.45769085,2.10565923 4.45769085,4.6938326 C4.45769085,5.26922033 4.56406221,5.8283606 4.77409554,6.35934586 L0.104254655,10.8477662 C0.0375079687,10.9119422 0,10.9989299 0,11.0896335 L0,13.5455759 C0,13.7344967 0.159345366,13.8876404 0.355916474,13.8876404 L2.46178148,13.8876404 C2.55607352,13.8876404 2.64649906,13.8517008 2.71324574,13.7876603 L3.42290554,13.1066505 C3.48979334,13.0424745 3.52735776,12.9553783 3.52735776,12.8645662 L3.52735776,12.0270764 L4.39766117,12.0270764 C4.59423227,12.0270764 4.75357764,11.8739326 4.75357764,11.6850119 L4.75357764,11.3497555 L5.10243844,11.3497555 C5.29898132,11.3497555 5.45835491,11.1966117 5.45835491,11.007691 L5.45835491,10.2716461 L6.22420611,10.2716461 C6.31858282,10.2716461 6.40909302,10.2355979 6.47586793,10.1714489 L7.60819089,9.08319496 C8.16076314,9.28524386 8.74263055,9.38761096 9.34154448,9.38761096 C12.0345263,9.38761096 14.2254545,7.28195172 14.2254545,4.69377835 C14.2254828,2.10565923 12.0345828,0 9.34160092,0 Z" id="Path"></path>
                                                <path d="M10.161039,1.32263242 C9.41398451,1.32263242 8.80623377,1.91595082 8.80623377,2.64526485 C8.80623377,3.37457888 9.41398451,3.96789727 10.161039,3.96789727 C10.9080934,3.96789727 11.5158442,3.37457888 11.5158442,2.64526485 C11.5158442,1.91595082 10.9081221,1.32263242 10.161039,1.32263242 Z" id="Shape" fill-rule="nonzero"></path>
                                                <path d="M5.75792208,6.94382022 L1.0161039,11.5730337" id="Path-2"></path>
                                                <path d="M6.43532468,7.60513644 L3.55636364,10.4157303" id="Path-2-Copy"></path>
                                            </g>
                                        </g>
                                        <g id="coin" transform="translate(110.101818, 0.483146)">
                                            <rect id="Rectangle" stroke="#1C3C55" x="0.5" y="0.5" width="27.4509091" height="4.78651685" rx="2.39325843"></rect>
                                            <rect id="Rectangle-Copy" stroke="#1C3C55" x="8.79818182" y="5.12921348" width="27.4509091" height="4.78651685" rx="2.39325843"></rect>
                                            <rect id="Rectangle-Copy-2" stroke="#1C3C55" x="2.87090909" y="9.75842697" width="27.4509091" height="4.78651685" rx="2.39325843"></rect>
                                            <rect id="Rectangle-Copy-3" stroke="#1C3C55" x="2.87090909" y="14.3876404" width="27.4509091" height="4.78651685" rx="2.39325843"></rect>
                                            <rect id="Rectangle-Copy-4" stroke="#1C3C55" x="2.87090909" y="19.0168539" width="27.4509091" height="4.78651685" rx="2.39325843"></rect>
                                            <rect id="Rectangle-Copy-5" stroke="#1C3C55" x="2.87090909" y="23.6460674" width="27.4509091" height="4.78651685" rx="2.39325843"></rect>
                                            <rect id="Rectangle-Copy-6" stroke="#1C3C55" x="2.87090909" y="28.2752809" width="27.4509091" height="4.78651685" rx="2.39325843"></rect>
                                            <ellipse id="Oval" fill="#FFFFFF" cx="27.8581818" cy="26.0393258" rx="13.6327273" ry="13.3089888"></ellipse>
                                            <path d="M35.3253833,24.1970568 C35.1519088,25.3504867 34.6080759,26.1464021 33.7597935,26.5882996 C34.9772373,27.4988918 35.3394826,28.7858385 34.7227134,30.517607 C33.8771565,32.8936361 32.0412611,33.5311076 28.8855999,33.0157442 L28.203784,35.7027464 L25.7674431,35.105663 L26.4340036,32.4796301 C26.2669166,32.4377511 26.1014122,32.3955707 25.9368537,32.3529014 L25.2699053,34.9836389 L22.8356002,34.386374 L23.5116433,31.7170891 C23.4379265,31.6982074 23.3538583,31.6766468 23.2554201,31.6513918 C23.0538283,31.5998505 22.8993873,31.5608799 22.7486333,31.5237304 L20.1527273,30.8873582 L21.2973168,28.2920432 L21.6438843,28.382679 C21.6852551,28.3934984 21.7330118,28.4059408 21.7853515,28.4195205 L22.8227245,28.6719868 C22.9730609,28.7085743 23.0295088,28.668445 23.0672741,28.5865602 L24.0381936,24.7587109 L24.1369334,24.3689977 L24.2333668,23.989241 L24.8865931,21.4405642 C24.902423,21.1705 24.8001374,21.0119974 24.4394353,20.9234456 L23.5407107,20.7028102 C23.4375386,20.6752544 23.339712,20.6530189 23.2623841,20.6355919 L22.8517804,20.5430562 L23.4872979,18.0338773 L23.8924109,18.1349129 L26.1385905,18.6951172 C26.3339381,18.7428784 26.521767,18.786937 26.7750487,18.8445191 L27.4456184,16.2022472 L29.8809197,16.7994159 L29.2276656,19.3749168 C29.421333,19.4187978 29.5809591,19.4554411 29.7274456,19.4897728 L30.3785055,16.9215087 L32.8148238,17.5185865 L32.1369193,20.1925445 C34.4665345,21.0579704 35.6141207,22.2990917 35.3253833,24.1970568 Z M28.2680317,32.080431 L28.6539858,32.152256 C31.6925184,32.7177191 33.2264717,32.2535521 33.938887,30.2516531 C34.5271249,28.5999952 34.0768533,27.5886194 32.639053,26.8524945 L31.6497288,26.3459803 L32.7378762,26.0992232 C33.7331741,25.8735214 34.3290936,25.2447674 34.504468,24.0787093 C34.7341112,22.5691869 33.7456363,21.5892961 31.5085096,20.8315014 L31.1507934,20.7103301 L31.8106077,18.1077279 L30.9840035,17.9051489 L30.3334663,20.471351 L29.9297034,20.3724109 C29.5728194,20.2849583 29.2592294,20.2128861 28.6306302,20.071801 L28.2194356,19.979511 L28.8766415,17.3884301 L28.050879,17.185942 L27.3842559,19.8126625 L26.9868122,19.72365 C26.5020115,19.6150728 26.228881,19.552324 25.9350957,19.4804908 L24.0921285,19.0208528 L23.8593207,19.9400352 C23.9202161,19.9541374 23.9827538,19.9687027 24.0453229,19.9833833 C24.2477792,20.0310375 24.3830166,20.063779 24.481807,20.0890391 C24.5594459,20.1091507 24.5594459,20.1091507 24.6214563,20.1268837 C24.6506497,20.1357217 24.6506497,20.1357217 24.6892893,20.1499442 C25.4288131,20.3496 25.7513259,20.8655159 25.703584,21.5610095 L24.9424522,24.5636067 L24.7410502,24.5149491 L24.93965,24.5750865 L23.8552713,28.8343096 C23.6668851,29.2942519 23.2594992,29.5922642 22.6692076,29.4687301 C22.6202775,29.4615112 22.6202775,29.4615112 22.5906716,29.4555807 C22.526105,29.4417763 22.526105,29.4417763 22.4436362,29.4224147 C22.3388148,29.3975217 22.1963919,29.3621566 22.0251854,29.3187295 C21.9232085,29.2928229 21.8479204,29.2735649 21.7760539,29.2550933 L21.3004716,30.3334587 L22.951228,30.738133 C23.1052658,30.7760913 23.2618855,30.8156117 23.4656518,30.8677089 C23.7943018,30.9520246 23.960812,30.9946603 24.1163951,31.0338424 L24.5141261,31.134007 L23.8395757,33.7973978 L24.6644758,33.9997897 L25.335224,31.354064 L25.7452652,31.4634987 C26.1688478,31.5765474 26.5954908,31.6852615 27.0366955,31.7930139 L27.438306,31.8910965 L26.7718857,34.5165771 L27.5984673,34.7191506 L28.2680317,32.080431 Z M27.0626425,29.7767339 C27.563191,29.8997782 28.0382464,29.9890993 28.4804004,30.0346612 C29.7297433,30.1634002 30.4513376,29.9283886 30.5855188,29.2935382 C30.7476735,28.5280035 30.0915489,27.9240316 28.7389953,27.432108 C28.403914,27.310239 28.051687,27.2043 27.6371705,27.0950041 C27.5963993,27.0842539 27.4166062,27.0385679 27.233673,26.9915533 L26.5389429,29.6386567 C26.7271849,29.6919455 26.8649579,29.7281393 27.0626425,29.7767339 Z M26.6414281,25.9842047 L27.0555919,26.1059088 C26.6474079,25.9859619 28.4375741,26.4579766 29.0286908,26.6729657 C30.723343,27.2893105 31.6723812,28.1629134 31.3981804,29.4574186 C31.1484248,30.6390862 30.0169059,31.0076036 28.3932954,30.8402981 C27.9075756,30.7902469 27.3956624,30.6939958 26.8600201,30.5623248 C26.5360311,30.4826821 26.3655719,30.4348525 25.9187588,30.3042175 L25.5369419,30.1925854 L26.6414281,25.9842047 Z M29.7014909,24.9307253 C30.6186386,24.9541138 31.1303595,24.6922802 31.2351262,24.0723795 C31.3694463,23.2763131 30.8841283,22.7670254 29.8365902,22.3886341 C29.597576,22.3022975 29.0845072,22.1640836 28.710051,22.0645676 L27.9928862,24.6343388 C28.5125153,24.7904197 29.1496423,24.9166524 29.7014909,24.9307253 Z M28.1384801,21.0308242 L28.5652866,21.1879457 C28.5866487,21.1958098 29.683738,21.4696327 30.1245487,21.6288622 C31.4999283,22.1256762 32.2685068,22.9322146 32.0538927,24.204154 C31.8670073,25.3099488 30.9615488,25.7732471 29.6798221,25.7405614 C28.8867536,25.7203371 27.9832248,25.5094074 27.34372,25.2739844 L26.9905901,25.1439856 L28.1384801,21.0308242 Z" id="path3096" fill="#FF9500" fill-rule="nonzero"></path>
                                            <ellipse id="Oval" stroke="#FF9500" cx="27.8581818" cy="26.0393258" rx="13.6327273" ry="13.3089888"></ellipse>
                                        </g>
                                    </g>
                                    <g id="Group-7" transform="translate(153.000000, 31.500000) scale(-1, 1) translate(-153.000000, -31.500000) translate(0.000000, 0.000000)">
                                        <path d="M1.62003744e-12,24.1573034 L305.564914,24.1573034" id="Path-35" stroke="#1C3C55" stroke-linecap="round" stroke-linejoin="round"></path>
                                        <path d="M203.414165,50.1573034 L299.564914,50.1573034" id="Path-35-Copy" stroke="#1C3C55" stroke-linecap="round" stroke-linejoin="round"></path>
                                        <polygon id="ion-ios-arrow-right---Ionicons" fill="#FF9500" points="202.898182 16.0307233 204.065114 15 213.567273 23.6797753 204.065114 32.3595506 202.898182 31.3288272 211.233409 23.6797753"></polygon>
                                        <polygon id="ion-ios-arrow-right---Ionicons-Copy-2" fill="#FF9500" points="84.3527273 16.0307233 85.5196591 15 95.0218182 23.6797753 85.5196591 32.3595506 84.3527273 31.3288272 92.6879545 23.6797753"></polygon>
                                        <g id="tranzakcja-irreversible" transform="translate(192.152727, 36.719101)" stroke="#1C3C55" stroke-width="2">
                                            <g id="Group-5" transform="translate(0.618182, 0.000000)">
                                                <ellipse id="Oval-6" fill="#FFFFFF" cx="13.04" cy="12.7303371" rx="13.04" ry="12.7303371"></ellipse>
                                                <path d="M22.2751954,4.19892349 L4.28950545,22.636358" id="Path-37"></path>
                                            </g>
                                        </g>
                                        <polygon id="ion-ios-arrow-right---Ionicons-Copy" fill="#FF9500" transform="translate(228.487273, 50.398876) rotate(180.000000) translate(-228.487273, -50.398876) " points="223.152727 42.7498244 224.319659 41.7191011 233.821818 50.3988764 224.319659 59.0786517 223.152727 58.0479284 231.487955 50.3988764"></polygon>
                                        <g id="coin" transform="translate(131.101818, 20.483146) scale(-1, 1) translate(-131.101818, -20.483146) translate(110.101818, 0.483146)">
                                            <rect id="Rectangle" stroke="#1C3C55" x="0.5" y="0.5" width="27.4509091" height="4.78651685" rx="2.39325843"></rect>
                                            <rect id="Rectangle-Copy" stroke="#1C3C55" x="8.79818182" y="5.12921348" width="27.4509091" height="4.78651685" rx="2.39325843"></rect>
                                            <rect id="Rectangle-Copy-2" stroke="#1C3C55" x="2.87090909" y="9.75842697" width="27.4509091" height="4.78651685" rx="2.39325843"></rect>
                                            <rect id="Rectangle-Copy-3" stroke="#1C3C55" x="2.87090909" y="14.3876404" width="27.4509091" height="4.78651685" rx="2.39325843"></rect>
                                            <rect id="Rectangle-Copy-4" stroke="#1C3C55" x="2.87090909" y="19.0168539" width="27.4509091" height="4.78651685" rx="2.39325843"></rect>
                                            <rect id="Rectangle-Copy-5" stroke="#1C3C55" x="2.87090909" y="23.6460674" width="27.4509091" height="4.78651685" rx="2.39325843"></rect>
                                            <rect id="Rectangle-Copy-6" stroke="#1C3C55" x="2.87090909" y="28.2752809" width="27.4509091" height="4.78651685" rx="2.39325843"></rect>
                                            <ellipse id="Oval" fill="#FFFFFF" cx="27.8581818" cy="26.0393258" rx="13.6327273" ry="13.3089888"></ellipse>
                                            <path d="M35.3253833,24.1970568 C35.1519088,25.3504867 34.6080759,26.1464021 33.7597935,26.5882996 C34.9772373,27.4988918 35.3394826,28.7858385 34.7227134,30.517607 C33.8771565,32.8936361 32.0412611,33.5311076 28.8855999,33.0157442 L28.203784,35.7027464 L25.7674431,35.105663 L26.4340036,32.4796301 C26.2669166,32.4377511 26.1014122,32.3955707 25.9368537,32.3529014 L25.2699053,34.9836389 L22.8356002,34.386374 L23.5116433,31.7170891 C23.4379265,31.6982074 23.3538583,31.6766468 23.2554201,31.6513918 C23.0538283,31.5998505 22.8993873,31.5608799 22.7486333,31.5237304 L20.1527273,30.8873582 L21.2973168,28.2920432 L21.6438843,28.382679 C21.6852551,28.3934984 21.7330118,28.4059408 21.7853515,28.4195205 L22.8227245,28.6719868 C22.9730609,28.7085743 23.0295088,28.668445 23.0672741,28.5865602 L24.0381936,24.7587109 L24.1369334,24.3689977 L24.2333668,23.989241 L24.8865931,21.4405642 C24.902423,21.1705 24.8001374,21.0119974 24.4394353,20.9234456 L23.5407107,20.7028102 C23.4375386,20.6752544 23.339712,20.6530189 23.2623841,20.6355919 L22.8517804,20.5430562 L23.4872979,18.0338773 L23.8924109,18.1349129 L26.1385905,18.6951172 C26.3339381,18.7428784 26.521767,18.786937 26.7750487,18.8445191 L27.4456184,16.2022472 L29.8809197,16.7994159 L29.2276656,19.3749168 C29.421333,19.4187978 29.5809591,19.4554411 29.7274456,19.4897728 L30.3785055,16.9215087 L32.8148238,17.5185865 L32.1369193,20.1925445 C34.4665345,21.0579704 35.6141207,22.2990917 35.3253833,24.1970568 Z M28.2680317,32.080431 L28.6539858,32.152256 C31.6925184,32.7177191 33.2264717,32.2535521 33.938887,30.2516531 C34.5271249,28.5999952 34.0768533,27.5886194 32.639053,26.8524945 L31.6497288,26.3459803 L32.7378762,26.0992232 C33.7331741,25.8735214 34.3290936,25.2447674 34.504468,24.0787093 C34.7341112,22.5691869 33.7456363,21.5892961 31.5085096,20.8315014 L31.1507934,20.7103301 L31.8106077,18.1077279 L30.9840035,17.9051489 L30.3334663,20.471351 L29.9297034,20.3724109 C29.5728194,20.2849583 29.2592294,20.2128861 28.6306302,20.071801 L28.2194356,19.979511 L28.8766415,17.3884301 L28.050879,17.185942 L27.3842559,19.8126625 L26.9868122,19.72365 C26.5020115,19.6150728 26.228881,19.552324 25.9350957,19.4804908 L24.0921285,19.0208528 L23.8593207,19.9400352 C23.9202161,19.9541374 23.9827538,19.9687027 24.0453229,19.9833833 C24.2477792,20.0310375 24.3830166,20.063779 24.481807,20.0890391 C24.5594459,20.1091507 24.5594459,20.1091507 24.6214563,20.1268837 C24.6506497,20.1357217 24.6506497,20.1357217 24.6892893,20.1499442 C25.4288131,20.3496 25.7513259,20.8655159 25.703584,21.5610095 L24.9424522,24.5636067 L24.7410502,24.5149491 L24.93965,24.5750865 L23.8552713,28.8343096 C23.6668851,29.2942519 23.2594992,29.5922642 22.6692076,29.4687301 C22.6202775,29.4615112 22.6202775,29.4615112 22.5906716,29.4555807 C22.526105,29.4417763 22.526105,29.4417763 22.4436362,29.4224147 C22.3388148,29.3975217 22.1963919,29.3621566 22.0251854,29.3187295 C21.9232085,29.2928229 21.8479204,29.2735649 21.7760539,29.2550933 L21.3004716,30.3334587 L22.951228,30.738133 C23.1052658,30.7760913 23.2618855,30.8156117 23.4656518,30.8677089 C23.7943018,30.9520246 23.960812,30.9946603 24.1163951,31.0338424 L24.5141261,31.134007 L23.8395757,33.7973978 L24.6644758,33.9997897 L25.335224,31.354064 L25.7452652,31.4634987 C26.1688478,31.5765474 26.5954908,31.6852615 27.0366955,31.7930139 L27.438306,31.8910965 L26.7718857,34.5165771 L27.5984673,34.7191506 L28.2680317,32.080431 Z M27.0626425,29.7767339 C27.563191,29.8997782 28.0382464,29.9890993 28.4804004,30.0346612 C29.7297433,30.1634002 30.4513376,29.9283886 30.5855188,29.2935382 C30.7476735,28.5280035 30.0915489,27.9240316 28.7389953,27.432108 C28.403914,27.310239 28.051687,27.2043 27.6371705,27.0950041 C27.5963993,27.0842539 27.4166062,27.0385679 27.233673,26.9915533 L26.5389429,29.6386567 C26.7271849,29.6919455 26.8649579,29.7281393 27.0626425,29.7767339 Z M26.6414281,25.9842047 L27.0555919,26.1059088 C26.6474079,25.9859619 28.4375741,26.4579766 29.0286908,26.6729657 C30.723343,27.2893105 31.6723812,28.1629134 31.3981804,29.4574186 C31.1484248,30.6390862 30.0169059,31.0076036 28.3932954,30.8402981 C27.9075756,30.7902469 27.3956624,30.6939958 26.8600201,30.5623248 C26.5360311,30.4826821 26.3655719,30.4348525 25.9187588,30.3042175 L25.5369419,30.1925854 L26.6414281,25.9842047 Z M29.7014909,24.9307253 C30.6186386,24.9541138 31.1303595,24.6922802 31.2351262,24.0723795 C31.3694463,23.2763131 30.8841283,22.7670254 29.8365902,22.3886341 C29.597576,22.3022975 29.0845072,22.1640836 28.710051,22.0645676 L27.9928862,24.6343388 C28.5125153,24.7904197 29.1496423,24.9166524 29.7014909,24.9307253 Z M28.1384801,21.0308242 L28.5652866,21.1879457 C28.5866487,21.1958098 29.683738,21.4696327 30.1245487,21.6288622 C31.4999283,22.1256762 32.2685068,22.9322146 32.0538927,24.204154 C31.8670073,25.3099488 30.9615488,25.7732471 29.6798221,25.7405614 C28.8867536,25.7203371 27.9832248,25.5094074 27.34372,25.2739844 L26.9905901,25.1439856 L28.1384801,21.0308242 Z" id="path3096" fill="#FF9500" fill-rule="nonzero"></path>
                                            <ellipse id="Oval" stroke="#FF9500" cx="27.8581818" cy="26.0393258" rx="13.6327273" ry="13.3089888"></ellipse>
                                        </g>
                                        <g id="tarcza-+klucz-copy" transform="translate(162.672727, 29.556180) scale(-1, 1) translate(-162.672727, -29.556180) translate(147.672727, 12.056180)">
                                            <g id="Group-4" fill="#FFFFFF">
                                                <path d="M14.8471336,34.7191011 L14.6529085,34.6876788 C6.02706537,32.7281469 0,25.3930322 0,16.8505465 L0,4.93758183 L0.547138976,4.91380791 C5.5881895,4.69589094 10.4070227,3.07798965 14.4821758,0.234488609 L14.8184796,0 L15.1547835,0.234488609 C19.2321865,3.07849954 24.0504241,4.6963371 29.0892247,4.91380791 L29.6363636,4.93758183 L29.6363636,16.8504827 C29.6363636,25.3924585 23.6092983,32.7275732 14.980014,34.6886986 L14.8471336,34.7191011 Z" id="Path" stroke="#1C3C55"></path>
                                                <path d="M14.8423372,31.7431782 L14.680289,31.7171425 C7.48346946,30.0935304 2.45489418,24.0158639 2.45489418,16.9378043 L2.45489418,7.06706219 L2.9113899,7.04736379 C7.11730115,6.86680401 11.1378093,5.52625723 14.5378411,3.17021352 L14.8184303,2.97592295 L15.0990194,3.17021352 C18.5009284,5.52667972 22.5209397,6.86717369 26.7249737,7.04736379 L27.1814695,7.06706219 L27.1814695,16.9377515 C27.1814695,24.0153886 22.1528942,30.0930551 14.9532036,31.7179875 L14.8423372,31.7431782 Z" id="Path" stroke="#95AABF"></path>
                                            </g>
                                            <g id="key" transform="translate(14.798182, 16.415730) scale(-1, 1) translate(-14.798182, -16.415730) translate(7.298182, 9.415730)" stroke="#1C3C55" stroke-width="0.6">
                                                <path d="M9.34160092,0 C6.64861908,0 4.45769085,2.10565923 4.45769085,4.6938326 C4.45769085,5.26922033 4.56406221,5.8283606 4.77409554,6.35934586 L0.104254655,10.8477662 C0.0375079687,10.9119422 0,10.9989299 0,11.0896335 L0,13.5455759 C0,13.7344967 0.159345366,13.8876404 0.355916474,13.8876404 L2.46178148,13.8876404 C2.55607352,13.8876404 2.64649906,13.8517008 2.71324574,13.7876603 L3.42290554,13.1066505 C3.48979334,13.0424745 3.52735776,12.9553783 3.52735776,12.8645662 L3.52735776,12.0270764 L4.39766117,12.0270764 C4.59423227,12.0270764 4.75357764,11.8739326 4.75357764,11.6850119 L4.75357764,11.3497555 L5.10243844,11.3497555 C5.29898132,11.3497555 5.45835491,11.1966117 5.45835491,11.007691 L5.45835491,10.2716461 L6.22420611,10.2716461 C6.31858282,10.2716461 6.40909302,10.2355979 6.47586793,10.1714489 L7.60819089,9.08319496 C8.16076314,9.28524386 8.74263055,9.38761096 9.34154448,9.38761096 C12.0345263,9.38761096 14.2254545,7.28195172 14.2254545,4.69377835 C14.2254828,2.10565923 12.0345828,0 9.34160092,0 Z" id="Path"></path>
                                                <path d="M10.161039,1.32263242 C9.41398451,1.32263242 8.80623377,1.91595082 8.80623377,2.64526485 C8.80623377,3.37457888 9.41398451,3.96789727 10.161039,3.96789727 C10.9080934,3.96789727 11.5158442,3.37457888 11.5158442,2.64526485 C11.5158442,1.91595082 10.9081221,1.32263242 10.161039,1.32263242 Z" id="Shape" fill-rule="nonzero"></path>
                                                <path d="M5.75792208,6.94382022 L1.0161039,11.5730337" id="Path-2"></path>
                                                <path d="M6.43532468,7.60513644 L3.55636364,10.4157303" id="Path-2-Copy"></path>
                                            </g>
                                        </g>
                                    </g>
                                </g>
                                <g id="ludzik-2" transform="translate(371.000000, 66.000000)">
                                    <g id="Group-2">
                                        <path d="M38.7722812,14.9137931 C38.7722812,15.6472703 41.8647236,20.0481334 37.9991706,24.4489965 C34.1336177,28.8498596 32.3307238,26.7565157 27.1756223,35.4511542 C20.217627,47.1867892 14.8058528,57.4554697 8.62096806,64.0567644 C2.43608331,70.6580591 -0.65635906,73.5919678 0.116751534,77.2593537 C0.889862128,80.9267396 1.66297272,80.9267396 2.43608331,79.4597853 C3.20919391,77.9928309 2.43608331,75.7923993 4.7554151,74.325445 C7.07474688,72.8584906 14.8058528,66.2571959 14.8058528,66.2571959 C14.8058528,66.2571959 25.6294011,56.7219926 27.9487329,53.7880838 C30.2680647,50.8541751 29.4949541,55.2550382 28.7218435,57.4554697 C27.9487329,59.6559013 20.9907376,86.0610799 21.7638482,99.2636692 C22.5369588,112.466259 22.5369588,116.867122 21.7638482,126.402325 C20.9907376,135.937528 20.9907376,158.675321 17.8982952,164.543139 C14.8058528,170.410956 10.9402998,171.87791 11.7134104,172.611388 C12.486521,173.344865 23.3100693,169.677479 23.3100693,167.477047 C23.3100693,165.276616 21.7638482,165.276616 23.3100693,162.342707 C24.8562905,159.408798 34.1336177,136.671006 34.1336177,129.336234 C34.1336177,122.001462 38.7722812,99.9971464 38.7722812,99.9971464 C38.7722812,99.9971464 41.8647236,91.1954202 42.6378342,90.461943 C43.4109448,89.7284658 44.957166,116.133644 47.2764978,125.668848 C48.8227189,136.671006 46.5033872,135.937528 49.5958295,149.140118 C52.6882719,162.342707 52.6882719,164.543139 51.9151613,166.74357 C51.1420507,168.944002 51.1420507,169.677479 54.2344931,171.144433 C57.3269355,172.611388 61.965599,174.078342 61.1924884,171.87791 C60.4193778,169.677479 56.5538249,167.477047 56.5538249,165.276616 C56.5538249,163.076184 58.8731567,136.671006 59.6462672,131.536665 C60.4193778,126.402325 61.965599,116.133644 61.965599,109.53235 L61.965599,89.7284658 C61.965599,86.0610799 55.7807143,61.1228557 55.0076037,56.7219926 C54.2344931,52.3211295 55.0076037,48.055746 55.7807143,49.5227004 C56.5538249,50.9896547 59.6462672,65.3920668 61.965599,71.2598842 C64.2849308,77.1277017 65.831152,84.5941255 65.831152,88.2615115 C65.831152,91.9288974 64.2849308,91.9288974 64.2849308,94.1293289 C64.2849308,96.3297605 66.6042626,94.8628061 68.1504838,92.6623746 C69.696705,90.461943 70.4698156,88.9949886 69.696705,84.5941255 C68.9235944,80.1932624 65.831152,62.58981 64.2849308,57.4554697 C62.7387096,52.3211295 58.1000461,35.4511542 55.7807143,32.5172455 C53.4613825,29.5833368 48.0496083,27.3829052 46.5033872,25.1824737 C44.957166,22.9820421 44.957166,14.9137931 44.957166,14.9137931 L38.7722812,14.9137931 Z" id="Fill-1" fill="#FFFFFF"></path>
                                        <path d="M38.7722812,14.9137931 C38.7722812,15.6472703 41.8647236,20.0481334 37.9991706,24.4489965 C34.1336177,28.8498596 32.3307238,26.7565157 27.1756223,35.4511542 C20.217627,47.1867892 14.8058528,57.4554697 8.62096806,64.0567644 C2.43608331,70.6580591 -0.65635906,73.5919678 0.116751534,77.2593537 C0.889862128,80.9267396 1.66297272,80.9267396 2.43608331,79.4597853 C3.20919391,77.9928309 2.43608331,75.7923993 4.7554151,74.325445 C7.07474688,72.8584906 14.8058528,66.2571959 14.8058528,66.2571959 C14.8058528,66.2571959 25.6294011,56.7219926 27.9487329,53.7880838 C30.2680647,50.8541751 29.4949541,55.2550382 28.7218435,57.4554697 C27.9487329,59.6559013 20.9907376,86.0610799 21.7638482,99.2636692 C22.5369588,112.466259 22.5369588,116.867122 21.7638482,126.402325 C20.9907376,135.937528 20.9907376,158.675321 17.8982952,164.543139 C14.8058528,170.410956 10.9402998,171.87791 11.7134104,172.611388 C12.486521,173.344865 23.3100693,169.677479 23.3100693,167.477047 C23.3100693,165.276616 21.7638482,165.276616 23.3100693,162.342707 C24.8562905,159.408798 34.1336177,136.671006 34.1336177,129.336234 C34.1336177,122.001462 38.7722812,99.9971464 38.7722812,99.9971464 C38.7722812,99.9971464 41.8647236,91.1954202 42.6378342,90.461943 C43.4109448,89.7284658 44.957166,116.133644 47.2764978,125.668848 C48.8227189,136.671006 46.5033872,135.937528 49.5958295,149.140118 C52.6882719,162.342707 52.6882719,164.543139 51.9151613,166.74357 C51.1420507,168.944002 51.1420507,169.677479 54.2344931,171.144433 C57.3269355,172.611388 61.965599,174.078342 61.1924884,171.87791 C60.4193778,169.677479 56.5538249,167.477047 56.5538249,165.276616 C56.5538249,163.076184 58.8731567,136.671006 59.6462672,131.536665 C60.4193778,126.402325 61.965599,116.133644 61.965599,109.53235 L61.965599,89.7284658 C61.965599,86.0610799 55.7807143,61.1228557 55.0076037,56.7219926 C54.2344931,52.3211295 54.2344931,50.1206979 55.0076037,51.5876523 C55.7807143,53.0546066 58.1000461,66.2571959 60.4193778,72.1250134 C62.7387096,77.9928309 65.831152,84.5941255 65.831152,88.2615115 C65.831152,91.9288974 64.2849308,91.9288974 64.2849308,94.1293289 C64.2849308,96.3297605 66.6042626,94.8628061 68.1504838,92.6623746 C69.696705,90.461943 70.4698156,88.9949886 69.696705,84.5941255 C68.9235944,80.1932624 65.831152,62.58981 64.2849308,57.4554697 C62.7387096,52.3211295 58.1000461,35.4511542 55.7807143,32.5172455 C53.4613825,29.5833368 48.0496083,27.3829052 46.5033872,25.1824737 C44.957166,22.9820421 44.957166,14.9137931 44.957166,14.9137931 L38.7722812,14.9137931 Z" id="Fill-1" stroke="#1C3C55"></path>
                                        <path d="M27.1291758,52.3283263 C27.1291758,53.3622221 24.4369508,60.4901627 23.1064958,67.5134976 C22.0541544,73.0686995 22.0136282,77.8688253 22.0136282,77.8688253 C21.3310802,82.1126422 29.1999112,82.4509539 38.8236066,82.4509539 C49.7984842,82.4509539 56.783299,85.8199796 58.7559575,80.5809957 C60.728616,75.3420117 52.2125261,55.853703 52.616004,54.3248619 C53.3472502,51.5489306 55.8610745,57.2953383 58.0563592,57.9896877 C60.2516439,58.683304 66.1355616,53.3103912 64.2474304,48.3472814 C62.3592992,43.3841715 57.9531769,35.0093421 50.3669997,27.8820279 C42.7808224,20.7547138 46.0076904,37.3155609 41.0101221,37.0505023 C37.6784098,36.8737965 34.3797272,33.4772626 31.1140741,26.8609006 C28.7167297,26.0033184 26.0475369,27.801021 23.1064958,32.2540083 C18.6949341,38.9334892 16.9230769,44.6445792 16.9230769,48.3472814 C19.8876535,55.0314434 27.1291758,50.4766565 27.1291758,52.3283263 Z" id="Fill-38" stroke="#FF9500" fill="#FFFFFF" transform="translate(40.769231, 54.808190) scale(-1, 1) translate(-40.769231, -54.808190) "></path>
                                        <path d="M38.4615385,18.7171037 C38.4615385,18.7171037 39.2307692,20.1336207 42.3076923,20.1336207 C45.3846154,20.1336207 47.6923077,17.3005867 47.6923077,13.7592943 C47.6923077,10.2180018 47.6923077,5.26019238 43.0769231,4.55193389 C38.4615385,3.8436754 36.1538462,8.09322635 36.1538462,12.3427773 C36.1538462,16.5923282 38.4615385,18.7171037 38.4615385,18.7171037" id="Fill-3" stroke="#1C3C55" fill="#FFFFFF"></path>
                                        <path d="M42.7011819,4.54499668 C42.2545159,4.46572632 44.4300639,6.64125729 42.2462613,6.64125729 C40.0633758,6.64125729 36.7890477,6.64125729 35.6966878,9.78652898 C34.605245,12.9309199 36.6138665,13.265617 35.5224238,13.265617 C34.4309811,13.265617 35.4151139,15.900916 35.4151139,15.900916 L35.7856541,19.387931 C35.7856541,19.387931 33.4239188,16.3219297 32.4223596,11.1693564 C31.1832511,4.79690027 40.3550387,-3.13013565 42.1893962,1.27377319 C43.2670812,3.85974846 49.3525623,4.12662534 50.444005,8.32002734 C51.5363649,12.5134293 49.5268262,17.127845 49.5268262,17.127845 C49.5268262,17.127845 49.0939179,14.6528482 48.6096475,13.6047179 C48.6096475,13.6047179 47.6924687,12.8912847 47.6924687,11.8431544 C47.6924687,10.7950241 48.6133162,5.59312698 42.7011819,4.54499668" id="Fill-56" stroke="#1C3C55" fill="#FFFFFF"></path>
                                    </g>
                                </g>
                                <g id="ludzik" transform="translate(29.000000, 70.000000)" fill="#FFFFFF">
                                    <g id="Group-3">
                                        <g id="Group" transform="translate(33.000000, 88.326618) scale(-1, 1) translate(-33.000000, -88.326618) translate(0.000000, 3.631254)">
                                            <path d="M30.3631852,10.2715469 C30.3631852,10.9420062 31.8775672,16.9796831 30.3631852,19.6636463 C28.8496028,22.3469007 19.7673086,25.0301552 12.9557878,32.4101681 C7.59708233,38.2146726 3.11710219,46.4983171 0.846328745,62.5985526 C-1.4244447,78.6994968 1.60272018,80.0411241 2.36071075,78.0290376 C3.11710219,76.0162424 3.11710219,71.990652 3.11710219,69.9785655 C3.11710219,69.9785655 9.17143195,47.8399443 12.9557878,43.8143539 C16.7401437,39.7894722 9.17143195,63.9408886 9.17143195,63.9408886 C9.17143195,63.9408886 39.4454794,65.9529751 40.9590619,64.6113478 C42.4734439,63.2697206 41.7162529,43.1438947 43.9862268,39.7894722 C46.2570002,36.4350498 57.6100679,48.5104036 56.8528769,49.8527395 C56.0964854,51.1943668 44.7434178,57.2320437 42.4734439,59.9152981 C40.2026704,62.5985526 41.7162529,63.9408886 43.2298353,65.9529751 C44.7434178,67.9657703 46.2570002,68.6369382 46.2570002,66.624143 C46.2570002,64.6113478 43.2298353,62.5985526 45.5006088,61.9280934 C47.7705826,61.2569254 62.1508152,56.5608757 65.1779801,52.535994 C68.2059445,48.5104036 56.0964854,35.0934225 51.5549385,31.0678321 C47.0141912,27.0429504 38.6882884,23.688528 37.931897,21.0052735 C37.1755056,18.3213103 38.6882884,10.9420062 37.931897,7.58758372 C37.1755056,4.23316128 30.3631852,10.2715469 30.3631852,10.2715469" id="Fill-27" stroke="#1C3C55"></path>
                                            <path d="M28.4010128,13.5992782 C28.4010128,13.5992782 28.9251382,15.1060274 32.0612596,15.5674476 C35.1981655,16.0295638 38.070655,13.5937105 38.7218886,10.116704 C39.3723376,6.63900155 40.2848492,1.77007891 35.7089524,0.38164257 C31.1346248,-1.00609782 28.0016419,2.82027964 27.2201615,6.99324421 C26.4394658,11.1662088 28.4010128,13.5992782 28.4010128,13.5992782" id="Fill-34" stroke="#1C3C55"></path>
                                            <path d="M40.2292151,152.015102 C40.2292151,152.015102 40.9525745,158.010525 40.2292151,160.008295 C39.5058558,162.00677 43.9729439,166.393561 46.0191486,167.335096 C48.9141154,168.667881 48.190756,167.335096 46.7440373,163.338851 C45.2957893,159.341903 43.1241819,154.679265 43.8475412,150.683021 C44.5724299,146.686776 40.2292151,152.015102 40.2292151,152.015102" id="Fill-30" stroke="#1C3C55"></path>
                                            <path d="M15.7501043,153.13136 C15.7501043,153.13136 15.7501043,158.570649 16.4795626,160.610741 C17.209792,162.650834 13.5601871,166.730301 10.6408116,168.090123 C7.7214361,169.450663 8.45089443,168.090123 10.6408116,164.690208 C12.8307288,161.290293 12.1004993,154.491182 11.3702699,151.091267 C10.6408116,147.691352 15.7501043,153.13136 15.7501043,153.13136" id="Fill-32" stroke="#1C3C55"></path>
                                            <path d="M44.1433209,107.033264 C42.9340304,115.7442 47.1365125,123.866156 47.1365125,129.92668 C47.1365125,135.985781 45.6395215,150.79921 45.6395215,152.818673 C45.6395215,154.838848 42.4100045,156.415864 40.4024242,155.512476 C37.410023,154.16593 33.6691263,143.392851 33.6691263,133.292689 C33.6691263,123.193238 34.4176218,121.173064 31.4252205,111.072902 C28.4320289,100.973451 25.4396277,87.50728 25.4396277,87.50728 C25.4396277,87.50728 21.698731,110.399985 20.9502355,114.439622 C20.2025304,118.479972 20.2025304,119.152889 20.2025304,123.866156 C20.2025304,128.579422 20.9502355,136.65941 19.4548253,144.739397 C17.9578343,152.818673 20.2025304,156.186105 15.7131382,156.186105 C11.2245364,156.186105 6.73593456,144.739397 6.73593456,135.985781 C6.73593456,127.232876 8.98063066,122.51961 8.23213517,114.439622 C7.48363967,106.360347 6.73514417,88.0021706 8.23213517,78.5756373 C9.72754539,69.1491041 9.00196474,64.3791478 10.122732,62.8170691 C11.2434993,61.2549904 41.8994152,64.6138641 41.8994152,64.6138641 C41.8994152,64.6138641 47.1365125,85.4871053 44.1433209,107.033264 Z" id="Fill-36" stroke="#1C3C55"></path>
                                            <path d="M5.50932172,42.1969407 C5.50932172,42.1969407 7.51037789,44.8176597 11.1653099,45.4515394 C12.1441349,45.6212984 14.4535361,43.6017608 14.1013201,44.3087014 C12.8483878,46.8227758 9.27470078,66.8565272 9.27470078,66.8565272 C8.57359863,70.9857733 17.673466,69.3957285 27.5587682,69.3957285 C38.8319826,69.3957285 41.5847196,64.4818852 41.5847196,64.4818852 C41.5847196,64.4818852 43.8388861,44.2230393 44.5915983,41.5213367 C45.3427225,38.8203475 46.0938466,40.1708421 48.3488071,40.8464461 C50.6037676,41.5213367 57.3678551,37.4698529 54.1362744,33.4476191 C50.9046937,29.4253853 40.8328015,22.6129854 40.8328015,22.6129854 L31.0626293,31.3922704 L25.049666,22.6129854 L21.6449933,24.7981755 C14.7991238,29.1920986 9.28955654,35.0663577 5.66970975,41.8901722 C5.56490173,42.0885016 5.50932172,42.1969407 5.50932172,42.1969407 Z" id="Fill-38" stroke="#FF9500"></path>
                                        </g>
                                        <path d="M24.4871273,10.8415628 C24.663521,11.4919541 27.6868425,5.86064504 29.1837394,5.27885803 C30.6806362,4.69707103 34.295019,7.81577612 36.3984076,5.44688074 C37.8006667,3.86761715 38.5217968,2.51380784 38.5617978,1.3854528 C36.7853515,1.9525625 35.5009019,2.23611735 34.7084487,2.23611735 C33.519769,2.23611735 33.5142454,-1.25781601 31.7337115,0.489150671 C29.9531775,2.23611735 31.0450877,3.41259592 28.3585129,2.23611735 C25.671938,1.05963879 24.3107337,10.1911716 24.4871273,10.8415628 Z" id="Path-26" stroke="#1C3C55"></path>
                                    </g>
                                </g>
                                <g id="Group-6" transform="translate(27.000000, 181.000000)" stroke="#1C3C55">
                                    <g id="portfel-prawy" transform="translate(389.400000, 27.382022) scale(-1, 1) translate(-389.400000, -27.382022) translate(356.800000, 0.764045)">
                                        <path d="M2.37090909,10.4157303 L2.37090909,0.490085134 L54.3615554,0.00360128972 C58.2538884,-0.0464301743 61.0812109,0.424840642 62.843523,1.41741374 C64.6058352,2.40998684 65.3796768,4.05213967 65.1650478,6.34387225" id="Path-97" fill="#FFFFFF"></path>
                                        <path d="M0.0386509666,15.0516325 L0.446920969,45.3437673 C0.505897399,49.7196018 4.06996253,53.2359551 8.44619447,53.2359551 L57.2,53.2359551 C61.618278,53.2359551 65.2,49.6542331 65.2,45.2359551 L65.2,6.94382022 L8.03792447,6.94382022 C3.61964647,6.94382022 0.0379244659,10.5255422 0.0379244659,14.9438202 C0.0379244659,14.9797589 0.0381666383,15.0156971 0.0386509666,15.0516325 Z" id="Path-96" fill="#FFFFFF"></path>
                                        <g id="Group-3" transform="translate(10.076364, 28.353933) rotate(180.000000) translate(-10.076364, -28.353933) translate(0.000000, 23.146067)">
                                            <path d="M0.5,0.5 L0.5,9.91573034 L14.9956859,9.91573034 C17.4809673,9.91573034 19.4956859,7.90101171 19.4956859,5.41573034 L19.4956859,5 C19.4956859,2.51471863 17.4809673,0.5 14.9956859,0.5 L0.5,0.5 Z" id="Rectangle-9" transform="translate(9.997843, 5.207865) rotate(180.000000) translate(-9.997843, -5.207865) "></path>
                                            <ellipse id="Oval" cx="5.37406061" cy="5.20786517" rx="2.6870303" ry="2.60393258"></ellipse>
                                        </g>
                                    </g>
                                    <g id="portfel-lewy-copy" transform="translate(32.600000, 27.382022) scale(-1, 1) translate(-32.600000, -27.382022) translate(0.000000, 0.764045)">
                                        <path d="M2.37090909,10.4157303 L2.37090909,0.490085134 L54.3615554,0.00360128972 C58.2538884,-0.0464301743 61.0812109,0.424840642 62.843523,1.41741374 C64.6058352,2.40998684 65.3796768,4.05213967 65.1650478,6.34387225" id="Path-97" fill="#FFFFFF"></path>
                                        <path d="M0.0386509666,15.0516325 L0.446920969,45.3437673 C0.505897399,49.7196018 4.06996253,53.2359551 8.44619447,53.2359551 L57.2,53.2359551 C61.618278,53.2359551 65.2,49.6542331 65.2,45.2359551 L65.2,6.94382022 L8.03792447,6.94382022 C3.61964647,6.94382022 0.0379244659,10.5255422 0.0379244659,14.9438202 C0.0379244659,14.9797589 0.0381666383,15.0156971 0.0386509666,15.0516325 Z" id="Path-96" fill="#FFFFFF"></path>
                                        <g id="Group-3" transform="translate(10.076364, 28.353933) rotate(180.000000) translate(-10.076364, -28.353933) translate(0.000000, 23.146067)">
                                            <path d="M0.5,0.5 L0.5,9.91573034 L14.9956859,9.91573034 C17.4809673,9.91573034 19.4956859,7.90101171 19.4956859,5.41573034 L19.4956859,5 C19.4956859,2.51471863 17.4809673,0.5 14.9956859,0.5 L0.5,0.5 Z" id="Rectangle-9" transform="translate(9.997843, 5.207865) rotate(180.000000) translate(-9.997843, -5.207865) "></path>
                                            <ellipse id="Oval" cx="5.37406061" cy="5.20786517" rx="2.6870303" ry="2.60393258"></ellipse>
                                        </g>
                                    </g>
                                </g>
                                <g id="check" transform="translate(63.000000, 216.000000)">
                                    <path d="M15,29.5 C23.0081289,29.5 29.5,23.0081289 29.5,15 C29.5,6.99187113 23.0081289,0.5 15,0.5 C6.99187113,0.5 0.5,6.99187113 0.5,15 C0.5,23.0081289 6.99187113,29.5 15,29.5 Z" id="Oval" stroke="#1C3C55" stroke-width="2" fill-rule="nonzero"></path>
                                    <path d="M15,29.5 C23.0081289,29.5 29.5,23.0081289 29.5,15 C29.5,6.99187113 23.0081289,0.5 15,0.5 C6.99187113,0.5 0.5,6.99187113 0.5,15 C0.5,23.0081289 6.99187113,29.5 15,29.5 Z" id="Oval" fill="#FFFFFF" fill-rule="nonzero"></path>
                                    <path d="M22.4479472,8.67574881 C22.6270261,8.46554575 22.9426016,8.4403147 23.1528047,8.61939368 C23.3630077,8.79847267 23.3882388,9.11404812 23.2091598,9.32425119 L13.7337122,20.4465396 C13.5551501,20.6561359 13.2407354,20.6819204 13.0304117,20.5042157 L7.67730579,15.9813225 C7.46637318,15.8031034 7.43985363,15.4876336 7.61807272,15.276701 C7.79629181,15.0657684 8.1117616,15.0392489 8.32269421,15.217468 L13.2954293,19.418982 L22.4479472,8.67574881 Z" id="Path-4" fill="#3490E6" fill-rule="nonzero"></path>
                                </g>
                                <g id="check" transform="translate(376.000000, 216.000000)">
                                    <path d="M15,29.5 C23.0081289,29.5 29.5,23.0081289 29.5,15 C29.5,6.99187113 23.0081289,0.5 15,0.5 C6.99187113,0.5 0.5,6.99187113 0.5,15 C0.5,23.0081289 6.99187113,29.5 15,29.5 Z" id="Oval" stroke="#1C3C55" stroke-width="2" fill-rule="nonzero"></path>
                                    <path d="M15,29.5 C23.0081289,29.5 29.5,23.0081289 29.5,15 C29.5,6.99187113 23.0081289,0.5 15,0.5 C6.99187113,0.5 0.5,6.99187113 0.5,15 C0.5,23.0081289 6.99187113,29.5 15,29.5 Z" id="Oval" fill="#FFFFFF" fill-rule="nonzero"></path>
                                    <path d="M22.4479472,8.67574881 C22.6270261,8.46554575 22.9426016,8.4403147 23.1528047,8.61939368 C23.3630077,8.79847267 23.3882388,9.11404812 23.2091598,9.32425119 L13.7337122,20.4465396 C13.5551501,20.6561359 13.2407354,20.6819204 13.0304117,20.5042157 L7.67730579,15.9813225 C7.46637318,15.8031034 7.43985363,15.4876336 7.61807272,15.276701 C7.79629181,15.0657684 8.1117616,15.0392489 8.32269421,15.217468 L13.2954293,19.418982 L22.4479472,8.67574881 Z" id="Path-4" fill="#3490E6" fill-rule="nonzero"></path>
                                </g>
                            </g>
                        </g>
                    </g>
                </g>
            </g>
        </g>
    </g>
</svg>