<?xml version="1.0" encoding="UTF-8"?>
<svg width="39px" height="39px" viewBox="0 0 39 39" version="1.1" xmlns="http://www.w3.org/2000/svg" xmlns:xlink="http://www.w3.org/1999/xlink">
    <!-- Generator: Sketch 49 (51002) - http://www.bohemiancoding.com/sketch -->
    <title>2011-2012/ICON</title>
    <desc>Created with Sketch.</desc>
    <defs></defs>
    <g id="About-us" stroke="none" stroke-width="1" fill="none" fill-rule="evenodd">
        <g id="22.01.18_Bitcoin.org_About-us_Desktop-1200px--" transform="translate(-549.000000, -915.000000)">
            <g id="Who-owns-bitcoin.org?" transform="translate(265.000000, 548.000000)">
                <g id="Group-12" transform="translate(1.000000, 112.000000)">
                    <g id="Group-9" transform="translate(121.000000, 0.000000)">
                        <g id="2011-2012/ICON" transform="translate(163.000000, 256.000000)">
                            <g id="Btc-core@1x">
                                <path d="M36.4462574,22.9753769 C33.975088,32.8860731 23.9360344,38.9175901 14.0230254,36.4461307 C4.11406381,33.9752496 -1.91815678,23.9367889 0.554169035,14.0266708 C3.0241821,4.11481824 13.0632357,-1.91727679 22.9733537,0.553604381 C32.8857845,3.02448556 38.9174269,13.0641025 36.4462574,22.9753769 Z" id="path3094" stroke="#F7931A"></path>
                                <path d="M22.8148513,10.8665696 L23.6603466,7.45043554 L21.5959975,6.93221134 L20.772845,10.2583225 C20.2301523,10.1221035 19.6727605,9.99358392 19.1188964,9.86624879 L19.9479286,6.51822422 L17.8847556,6 L17.0386724,9.4149495 C16.5894663,9.31189694 16.1484918,9.2100289 15.7204524,9.10283047 L12.8758725,8.3761321 L12.3267122,10.597093 C12.3267122,10.597093 13.8583638,10.95067 13.8260257,10.9725835 C14.6621135,11.1828344 14.8132208,11.7401476 14.7879382,12.1819708 L13.8248497,16.0736866 C13.8824704,16.088493 13.9571421,16.1098142 14.0394573,16.1429805 C13.9706653,16.1258051 13.8971696,16.1068529 13.8213219,16.088493 L12.4713518,21.5402117 C12.3690457,21.7960664 12.1097526,22.1798485 11.5253143,22.0341535 C11.5458932,22.0643585 10.0248249,21.6568863 10.0248249,21.6568863 L9,24.0371641 L11.6864171,24.711744 C12.1861882,24.8378945 12.675964,24.9699677 13.1580962,25.0943415 L12.3037815,28.5495645 L14.3657786,29.0677887 L15.2118617,25.6492856 C15.7751333,25.8032722 16.3219418,25.9454137 16.8569909,26.0792637 L16.0138475,29.4817758 L18.0781965,30 L18.9325112,26.5512919 C22.4526642,27.2223182 25.0996876,26.9516571 26.2138833,23.7445895 C27.1117075,21.1623523 26.1691979,19.6728278 24.3171047,18.7015276 C25.6658989,18.388224 26.6819043,17.4945093 26.9529567,15.6484465 C27.327491,13.1266194 25.421305,11.7709449 22.8148513,10.8665696 Z M15.8827311,23.1470029 L17.0163297,18.5694544 C18.415689,18.9212546 22.9030462,19.617748 22.2362926,22.3107371 C21.5983494,24.8929744 17.2820903,23.4970264 15.8827311,23.1470029 Z M17.5349158,16.4740517 L18.5626805,12.3223355 C19.7280293,12.61491 23.4810169,13.1609703 22.8748238,15.6111344 C22.2927374,17.9600227 18.7002646,16.7666264 17.5349158,16.4740517 Z" id="path3096" stroke="#1C3C55"></path>
                            </g>
                        </g>
                    </g>
                </g>
            </g>
        </g>
    </g>
</svg>