<?xml version="1.0" encoding="UTF-8"?>
<svg width="401px" height="317px" viewBox="0 0 401 317" version="1.1" xmlns="http://www.w3.org/2000/svg" xmlns:xlink="http://www.w3.org/1999/xlink">
    <!-- Generator: Sketch 49 (51002) - http://www.bohemiancoding.com/sketch -->
    <title>Balances-block chain</title>
    <desc>Created with Sketch.</desc>
    <defs></defs>
    <g id="How-does-bitcoin-work" stroke="none" stroke-width="1" fill="none" fill-rule="evenodd">
        <g id="22.01.18-Bitcoin.org_How-does-Bitcoin-work-Desktop-1200px--" transform="translate(-966.000000, -1078.000000)">
            <g id="//body" transform="translate(215.000000, 574.000000)">
                <g id="2" transform="translate(0.000000, 487.000000)">
                    <g id="secend-illustration" transform="translate(700.000000, 0.000000)">
                        <g id="Balances-block-chain">
                            <g id="siatka" stroke-width="1" transform="translate(243.815051, 174.760581) rotate(-224.000000) translate(-243.815051, -174.760581) translate(70.315051, 9.260581)">
                                <g id="Group-8" opacity="0.200000003" transform="translate(12.000000, 1.000000)">
                                    <path d="" id="Path-2" stroke="#979797"></path>
                                    <polyline id="Path-5" stroke="#979797" points="327.306554 250.729508 300.262156 78.2663934 0 153.762295 156.02537 176.618852 189.310782 1.3852459"></polyline>
                                    <polyline id="Path-6" stroke="#979797" points="156.718816 176.618852 209.420719 327.610656 299.56871 78.2663934"></polyline>
                                    <polyline id="Path-8" stroke="#979797" points="156.718816 178.004098 76.9725159 278.434426 208.727273 327.610656"></polyline>
                                    <polyline id="Path-9" stroke="#979797" points="155.331924 176.618852 98.4693446 56.795082 191.391121 0.692622951"></polyline>
                                    <polygon id="Path-10" stroke="#979797" points="78.359408 279.127049 20.831855 243.556622 0 154.454918"></polygon>
                                    <circle id="Oval-2" fill="#7B7B7B" cx="20.5" cy="243.5" r="2.5"></circle>
                                    <polyline id="Path-11" stroke="#979797" points="299.56871 78.2663934 188.270613 0 326.613108 252.114754 210.114165 328.303279 0 154.454918 98.4693446 56.102459 325.919662 252.114754"></polyline>
                                    <polyline id="Path-13" stroke="#979797" points="328 252.114754 236.465116 252.114754 162.959831 175.233607"></polyline>
                                    <path d="M76.9725159,279.127049 L239.238901,252.114754" id="Path-14" stroke="#979797"></path>
                                </g>
                                <g id="dots" transform="translate(101.000000, 49.000000)">
                                    <circle id="Oval-2" fill="#C4C4C4" cx="8.5" cy="8.5" r="2.38"></circle>
                                    <circle id="Oval-2" stroke="#CACACA" cx="8.5" cy="8.5" r="8.5"></circle>
                                </g>
                                <g id="dots" transform="translate(330.000000, 243.000000)">
                                    <circle id="Oval-2" fill="#C4C4C4" cx="8.5" cy="8.5" r="2.38"></circle>
                                    <circle id="Oval-2" stroke="#CACACA" cx="8.5" cy="8.5" r="8.5"></circle>
                                </g>
                                <g id="dots" transform="translate(275.000000, 147.000000)">
                                    <circle id="Oval-2" fill="#C4C4C4" cx="8.5" cy="8.5" r="2.38"></circle>
                                    <circle id="Oval-2" stroke="#CACACA" cx="8.5" cy="8.5" r="8.5"></circle>
                                </g>
                                <g id="dots" transform="translate(80.000000, 271.000000)">
                                    <circle id="Oval-2" fill="#C4C4C4" cx="8.5" cy="8.5" r="2.38"></circle>
                                    <circle id="Oval-2" stroke="#CACACA" cx="8.5" cy="8.5" r="8.5"></circle>
                                </g>
                                <circle id="Oval-2" fill="#7B7B7B" cx="220.5" cy="328.5" r="2.5"></circle>
                                <circle id="Oval-2" fill="#7B7B7B" cx="200.5" cy="2.5" r="2.5"></circle>
                                <g id="Group-7" transform="translate(0.000000, 143.000000)">
                                    <circle id="Oval-2" fill="#FF7E00" cx="12.5" cy="12.5" r="3.92857143"></circle>
                                    <circle id="Oval-2" stroke="#FF7E00" cx="12.5" cy="12.5" r="12.5"></circle>
                                </g>
                            </g>
                            <rect id="Rectangle-2" fill="#F9F9F9" x="79" y="75" width="317" height="45"></rect>
                            <path d="M111.696,95.43 L111.696,105 L110.046,105 L110.046,95.43 L108.66,95.43 L108.66,94 L110.046,94 L110.046,93.01 C110.046,91.4553256 110.265998,90.3956695 110.706,89.831 C111.146002,89.2663305 111.915994,88.984 113.016,88.984 L115.238,89.138 L115.216,90.502 C114.394663,90.4726665 113.716336,90.458 113.181,90.458 C112.645664,90.458 112.264334,90.6339982 112.037,90.986 C111.809666,91.3380018 111.696,92.0199949 111.696,93.032 L111.696,94 L114.886,94 L114.886,95.43 L111.696,95.43 Z M116.866,105 L116.866,94 L118.494,94 L118.494,95.496 C119.770006,94.6159956 121.111993,94.0366681 122.52,93.758 L122.52,95.43 C121.903997,95.5473339 121.262337,95.7306654 120.595,95.98 C119.927663,96.2293346 119.418002,96.4493324 119.066,96.64 L118.516,96.926 L118.516,105 L116.866,105 Z M123.774,99.478 C123.774,97.4686566 124.13333,96.0166711 124.852,95.122 C125.57067,94.2273289 126.784325,93.78 128.493,93.78 C130.201675,93.78 131.411663,94.2273289 132.123,95.122 C132.834337,96.0166711 133.19,97.4686566 133.19,99.478 C133.19,101.487343 132.85267,102.946662 132.178,103.856 C131.50333,104.765338 130.271342,105.22 128.482,105.22 C126.692658,105.22 125.46067,104.765338 124.786,103.856 C124.11133,102.946662 123.774,101.487343 123.774,99.478 Z M125.468,99.456 C125.468,101.054675 125.662331,102.176663 126.051,102.822 C126.439669,103.467337 127.25366,103.79 128.493,103.79 C129.73234,103.79 130.542665,103.471003 130.924,102.833 C131.305335,102.194997 131.496,101.069341 131.496,99.456 C131.496,97.8426586 131.283335,96.7316697 130.858,96.123 C130.432665,95.5143303 129.644339,95.21 128.493,95.21 C127.341661,95.21 126.549669,95.5143303 126.117,96.123 C125.684331,96.7316697 125.468,97.8426586 125.468,99.456 Z M137.524,105 L135.874,105 L135.874,94 L137.502,94 L137.502,94.77 C138.602006,94.1099967 139.672661,93.78 140.714,93.78 C142.078007,93.78 143.031331,94.1539963 143.574,94.902 C144.058002,94.6086652 144.684996,94.3483345 145.455,94.121 C146.225004,93.8936655 146.90333,93.78 147.49,93.78 C148.956674,93.78 149.942997,94.1723294 150.449,94.957 C150.955003,95.7416706 151.208,97.1533231 151.208,99.192 L151.208,105 L149.558,105 L149.558,99.236 C149.558,97.710659 149.411335,96.6656695 149.118,96.101 C148.824665,95.5363305 148.201338,95.254 147.248,95.254 C146.763998,95.254 146.265336,95.323666 145.752,95.463 C145.238664,95.602334 144.842668,95.7379993 144.564,95.87 L144.146,96.068 C144.336668,96.5520024 144.432,97.6226584 144.432,99.28 L144.432,105 L142.782,105 L142.782,99.324 C142.782,97.7399921 142.639001,96.6656695 142.353,96.101 C142.066999,95.5363305 141.440005,95.254 140.472,95.254 C140.002664,95.254 139.522336,95.323666 139.031,95.463 C138.539664,95.602334 138.162001,95.7379993 137.898,95.87 L137.524,96.068 L137.524,105 Z" id="from" fill="#1C3C55"></path>
                            <path d="M352.282,93.43 L348.784,93.43 L348.784,98.688 C348.784,99.9493396 348.875666,100.777998 349.059,101.174 C349.242334,101.570002 349.678663,101.768 350.368,101.768 L352.326,101.636 L352.436,103 C351.453328,103.161334 350.705336,103.242 350.192,103.242 C349.047994,103.242 348.256002,102.963336 347.816,102.406 C347.375998,101.848664 347.156,100.785341 347.156,99.216 L347.156,93.43 L345.594,93.43 L345.594,92 L347.156,92 L347.156,88.634 L348.784,88.634 L348.784,92 L352.282,92 L352.282,93.43 Z M353.822,97.478 C353.822,95.4686566 354.18133,94.0166711 354.9,93.122 C355.61867,92.2273289 356.832325,91.78 358.541,91.78 C360.249675,91.78 361.459663,92.2273289 362.171,93.122 C362.882337,94.0166711 363.238,95.4686566 363.238,97.478 C363.238,99.4873434 362.90067,100.946662 362.226,101.856 C361.55133,102.765338 360.319342,103.22 358.53,103.22 C356.740658,103.22 355.50867,102.765338 354.834,101.856 C354.15933,100.946662 353.822,99.4873434 353.822,97.478 Z M355.516,97.456 C355.516,99.0546747 355.710331,100.176663 356.099,100.822 C356.487669,101.467337 357.30166,101.79 358.541,101.79 C359.78034,101.79 360.590665,101.471003 360.972,100.833 C361.353335,100.194997 361.544,99.0693414 361.544,97.456 C361.544,95.8426586 361.331335,94.7316697 360.906,94.123 C360.480665,93.5143303 359.692339,93.21 358.541,93.21 C357.389661,93.21 356.597669,93.5143303 356.165,94.123 C355.732331,94.7316697 355.516,95.8426586 355.516,97.456 Z" id="to" fill="#1C3C55"></path>
                            <rect id="Rectangle-2-Copy" fill="#F9F9F9" x="91" y="135" width="317" height="45"></rect>
                            <rect id="Rectangle-2-Copy-2" fill="#F9F9F9" x="79" y="195" width="317" height="45"></rect>
                            <rect id="Rectangle-2-Copy-3" fill="#F9F9F9" x="79" y="255" width="317" height="45"></rect>
                            <path d="M112.796724,152.079886 L112.796724,163.287902 L111.48698,163.287902 L111.48698,153.540324 L108.595338,155.442291 L108,154.457344 L111.572029,152.079886 L112.796724,152.079886 Z M120.451071,151.893086 C121.380937,151.893086 122.135024,152.068563 122.713356,152.419523 C123.938057,153.144085 124.550399,154.955463 124.550399,157.853712 C124.550399,159.902865 124.210209,161.349137 123.529819,162.192573 C122.84943,163.036009 121.82886,163.45772 120.468081,163.45772 C119.107301,163.45772 118.083897,163.041669 117.397837,162.209555 C116.711777,161.37744 116.368753,159.894374 116.368753,157.760312 C116.368753,155.62625 116.706108,154.114881 117.380827,153.22616 C118.055547,152.33744 119.078952,151.893086 120.451071,151.893086 Z M120.468081,153.064833 C119.82171,153.064833 119.311426,153.200686 118.937211,153.472397 C118.132083,154.02714 117.729525,155.493224 117.729525,157.870694 C117.729525,159.546244 117.950649,160.703828 118.392902,161.343481 C118.835156,161.983133 119.526875,162.302955 120.468081,162.302955 C121.409287,162.302955 122.101006,161.980303 122.543259,161.33499 C122.985513,160.689677 123.206636,159.492469 123.206636,157.74333 C123.206636,155.994192 122.994017,154.777172 122.568774,154.092234 C122.14353,153.407297 121.443306,153.064833 120.468081,153.064833 Z M131.847543,152.079886 L131.847543,163.287902 L130.537799,163.287902 L130.537799,153.540324 L127.646157,155.442291 L127.050819,154.457344 L130.622848,152.079886 L131.847543,152.079886 Z M139.50189,151.893086 C140.431756,151.893086 141.185843,152.068563 141.764175,152.419523 C142.988876,153.144085 143.601218,154.955463 143.601218,157.853712 C143.601218,159.902865 143.261028,161.349137 142.580638,162.192573 C141.900249,163.036009 140.879679,163.45772 139.5189,163.45772 C138.15812,163.45772 137.134716,163.041669 136.448656,162.209555 C135.762596,161.37744 135.419572,159.894374 135.419572,157.760312 C135.419572,155.62625 135.756926,154.114881 136.431646,153.22616 C137.106366,152.33744 138.129771,151.893086 139.50189,151.893086 Z M139.5189,153.064833 C138.872529,153.064833 138.362245,153.200686 137.98803,153.472397 C137.182902,154.02714 136.780344,155.493224 136.780344,157.870694 C136.780344,159.546244 137.001468,160.703828 137.443721,161.343481 C137.885974,161.983133 138.577694,162.302955 139.5189,162.302955 C140.460106,162.302955 141.151825,161.980303 141.594078,161.33499 C142.036331,160.689677 142.257455,159.492469 142.257455,157.74333 C142.257455,155.994192 142.044836,154.777172 141.619593,154.092234 C141.194349,153.407297 140.494125,153.064833 139.5189,153.064833 Z M150.898362,152.079886 L150.898362,163.287902 L149.588618,163.287902 L149.588618,153.540324 L146.696976,155.442291 L146.101638,154.457344 L149.673667,152.079886 L150.898362,152.079886 Z M160.898362,152.079886 L160.898362,163.287902 L159.588618,163.287902 L159.588618,153.540324 L156.696976,155.442291 L156.101638,154.457344 L159.673667,152.079886 L160.898362,152.079886 Z M169.949181,152.079886 L169.949181,163.287902 L168.639437,163.287902 L168.639437,153.540324 L165.747795,155.442291 L165.152457,154.457344 L168.724486,152.079886 L169.949181,152.079886 Z M187.603528,151.893086 C188.533394,151.893086 189.287481,152.068563 189.865813,152.419523 C191.090514,153.144085 191.702856,154.955463 191.702856,157.853712 C191.702856,159.902865 191.362666,161.349137 190.682276,162.192573 C190.001887,163.036009 188.981317,163.45772 187.620538,163.45772 C186.259758,163.45772 185.236354,163.041669 184.550294,162.209555 C183.864234,161.37744 183.52121,159.894374 183.52121,157.760312 C183.52121,155.62625 183.858564,154.114881 184.533284,153.22616 C185.208004,152.33744 186.231409,151.893086 187.603528,151.893086 Z M187.620538,153.064833 C186.974167,153.064833 186.463883,153.200686 186.089668,153.472397 C185.28454,154.02714 184.881982,155.493224 184.881982,157.870694 C184.881982,159.546244 185.103106,160.703828 185.545359,161.343481 C185.987612,161.983133 186.679332,162.302955 187.620538,162.302955 C188.561743,162.302955 189.253463,161.980303 189.695716,161.33499 C190.137969,160.689677 190.359093,159.492469 190.359093,157.74333 C190.359093,155.994192 190.146474,154.777172 189.721231,154.092234 C189.295987,153.407297 188.595763,153.064833 187.620538,153.064833 Z M179,152.079886 L179,163.287902 L177.690256,163.287902 L177.690256,153.540324 L174.798614,155.442291 L174.203276,154.457344 L177.775304,152.079886 L179,152.079886 Z" id="10101010100110111100-copy" fill="#1C3C55"></path>
                            <path d="M112.796724,213.079886 L112.796724,224.287902 L111.48698,224.287902 L111.48698,214.540324 L108.595338,216.442291 L108,215.457344 L111.572029,213.079886 L112.796724,213.079886 Z M120.451071,212.893086 C121.380937,212.893086 122.135024,213.068563 122.713356,213.419523 C123.938057,214.144085 124.550399,215.955463 124.550399,218.853712 C124.550399,220.902865 124.210209,222.349137 123.529819,223.192573 C122.84943,224.036009 121.82886,224.45772 120.468081,224.45772 C119.107301,224.45772 118.083897,224.041669 117.397837,223.209555 C116.711777,222.37744 116.368753,220.894374 116.368753,218.760312 C116.368753,216.62625 116.706108,215.114881 117.380827,214.22616 C118.055547,213.33744 119.078952,212.893086 120.451071,212.893086 Z M120.468081,214.064833 C119.82171,214.064833 119.311426,214.200686 118.937211,214.472397 C118.132083,215.02714 117.729525,216.493224 117.729525,218.870694 C117.729525,220.546244 117.950649,221.703828 118.392902,222.343481 C118.835156,222.983133 119.526875,223.302955 120.468081,223.302955 C121.409287,223.302955 122.101006,222.980303 122.543259,222.33499 C122.985513,221.689677 123.206636,220.492469 123.206636,218.74333 C123.206636,216.994192 122.994017,215.777172 122.568774,215.092234 C122.14353,214.407297 121.443306,214.064833 120.468081,214.064833 Z M130.451071,212.893086 C131.380937,212.893086 132.135024,213.068563 132.713356,213.419523 C133.938057,214.144085 134.550399,215.955463 134.550399,218.853712 C134.550399,220.902865 134.210209,222.349137 133.529819,223.192573 C132.84943,224.036009 131.82886,224.45772 130.468081,224.45772 C129.107301,224.45772 128.083897,224.041669 127.397837,223.209555 C126.711777,222.37744 126.368753,220.894374 126.368753,218.760312 C126.368753,216.62625 126.706108,215.114881 127.380827,214.22616 C128.055547,213.33744 129.078952,212.893086 130.451071,212.893086 Z M130.468081,214.064833 C129.82171,214.064833 129.311426,214.200686 128.937211,214.472397 C128.132083,215.02714 127.729525,216.493224 127.729525,218.870694 C127.729525,220.546244 127.950649,221.703828 128.392902,222.343481 C128.835156,222.983133 129.526875,223.302955 130.468081,223.302955 C131.409287,223.302955 132.101006,222.980303 132.543259,222.33499 C132.985513,221.689677 133.206636,220.492469 133.206636,218.74333 C133.206636,216.994192 132.994017,215.777172 132.568774,215.092234 C132.14353,214.407297 131.443306,214.064833 130.468081,214.064833 Z M139.50189,212.893086 C140.431756,212.893086 141.185843,213.068563 141.764175,213.419523 C142.988876,214.144085 143.601218,215.955463 143.601218,218.853712 C143.601218,220.902865 143.261028,222.349137 142.580638,223.192573 C141.900249,224.036009 140.879679,224.45772 139.5189,224.45772 C138.15812,224.45772 137.134716,224.041669 136.448656,223.209555 C135.762596,222.37744 135.419572,220.894374 135.419572,218.760312 C135.419572,216.62625 135.756926,215.114881 136.431646,214.22616 C137.106366,213.33744 138.129771,212.893086 139.50189,212.893086 Z M139.5189,214.064833 C138.872529,214.064833 138.362245,214.200686 137.98803,214.472397 C137.182902,215.02714 136.780344,216.493224 136.780344,218.870694 C136.780344,220.546244 137.001468,221.703828 137.443721,222.343481 C137.885974,222.983133 138.577694,223.302955 139.5189,223.302955 C140.460106,223.302955 141.151825,222.980303 141.594078,222.33499 C142.036331,221.689677 142.257455,220.492469 142.257455,218.74333 C142.257455,216.994192 142.044836,215.777172 141.619593,215.092234 C141.194349,214.407297 140.494125,214.064833 139.5189,214.064833 Z M150.898362,213.079886 L150.898362,224.287902 L149.588618,224.287902 L149.588618,214.540324 L146.696976,216.442291 L146.101638,215.457344 L149.673667,213.079886 L150.898362,213.079886 Z M158.552709,212.893086 C159.482575,212.893086 160.236662,213.068563 160.814994,213.419523 C162.039695,214.144085 162.652037,215.955463 162.652037,218.853712 C162.652037,220.902865 162.311847,222.349137 161.631457,223.192573 C160.951068,224.036009 159.930498,224.45772 158.569719,224.45772 C157.208939,224.45772 156.185535,224.041669 155.499475,223.209555 C154.813415,222.37744 154.470391,220.894374 154.470391,218.760312 C154.470391,216.62625 154.807745,215.114881 155.482465,214.22616 C156.157185,213.33744 157.18059,212.893086 158.552709,212.893086 Z M158.569719,214.064833 C157.923348,214.064833 157.413064,214.200686 157.038849,214.472397 C156.233721,215.02714 155.831163,216.493224 155.831163,218.870694 C155.831163,220.546244 156.052287,221.703828 156.49454,222.343481 C156.936793,222.983133 157.628513,223.302955 158.569719,223.302955 C159.510924,223.302955 160.202644,222.980303 160.644897,222.33499 C161.08715,221.689677 161.308274,220.492469 161.308274,218.74333 C161.308274,216.994192 161.095655,215.777172 160.670412,215.092234 C160.245168,214.407297 159.544944,214.064833 158.569719,214.064833 Z M169.949181,213.079886 L169.949181,224.287902 L168.639437,224.287902 L168.639437,214.540324 L165.747795,216.442291 L165.152457,215.457344 L168.724486,213.079886 L169.949181,213.079886 Z M177.603528,212.893086 C178.533394,212.893086 179.287481,213.068563 179.865813,213.419523 C181.090514,214.144085 181.702856,215.955463 181.702856,218.853712 C181.702856,220.902865 181.362666,222.349137 180.682276,223.192573 C180.001887,224.036009 178.981317,224.45772 177.620538,224.45772 C176.259758,224.45772 175.236354,224.041669 174.550294,223.209555 C173.864234,222.37744 173.52121,220.894374 173.52121,218.760312 C173.52121,216.62625 173.858564,215.114881 174.533284,214.22616 C175.208004,213.33744 176.231409,212.893086 177.603528,212.893086 Z M177.620538,214.064833 C176.974167,214.064833 176.463883,214.200686 176.089668,214.472397 C175.28454,215.02714 174.881982,216.493224 174.881982,218.870694 C174.881982,220.546244 175.103106,221.703828 175.545359,222.343481 C175.987612,222.983133 176.679332,223.302955 177.620538,223.302955 C178.561743,223.302955 179.253463,222.980303 179.695716,222.33499 C180.137969,221.689677 180.359093,220.492469 180.359093,218.74333 C180.359093,216.994192 180.146474,215.777172 179.721231,215.092234 C179.295987,214.407297 178.595763,214.064833 177.620538,214.064833 Z M189,213.079886 L189,224.287902 L187.690256,224.287902 L187.690256,214.540324 L184.798614,216.442291 L184.203276,215.457344 L187.775304,213.079886 L189,213.079886 Z" id="10101010100110111100-copy" fill="#1C3C55"></path>
                            <path d="M112.796724,273.079886 L112.796724,284.287902 L111.48698,284.287902 L111.48698,274.540324 L108.595338,276.442291 L108,275.457344 L111.572029,273.079886 L112.796724,273.079886 Z M120.451071,272.893086 C121.380937,272.893086 122.135024,273.068563 122.713356,273.419523 C123.938057,274.144085 124.550399,275.955463 124.550399,278.853712 C124.550399,280.902865 124.210209,282.349137 123.529819,283.192573 C122.84943,284.036009 121.82886,284.45772 120.468081,284.45772 C119.107301,284.45772 118.083897,284.041669 117.397837,283.209555 C116.711777,282.37744 116.368753,280.894374 116.368753,278.760312 C116.368753,276.62625 116.706108,275.114881 117.380827,274.22616 C118.055547,273.33744 119.078952,272.893086 120.451071,272.893086 Z M120.468081,274.064833 C119.82171,274.064833 119.311426,274.200686 118.937211,274.472397 C118.132083,275.02714 117.729525,276.493224 117.729525,278.870694 C117.729525,280.546244 117.950649,281.703828 118.392902,282.343481 C118.835156,282.983133 119.526875,283.302955 120.468081,283.302955 C121.409287,283.302955 122.101006,282.980303 122.543259,282.33499 C122.985513,281.689677 123.206636,280.492469 123.206636,278.74333 C123.206636,276.994192 122.994017,275.777172 122.568774,275.092234 C122.14353,274.407297 121.443306,274.064833 120.468081,274.064833 Z M131.847543,273.079886 L131.847543,284.287902 L130.537799,284.287902 L130.537799,274.540324 L127.646157,276.442291 L127.050819,275.457344 L130.622848,273.079886 L131.847543,273.079886 Z M139.50189,272.893086 C140.431756,272.893086 141.185843,273.068563 141.764175,273.419523 C142.988876,274.144085 143.601218,275.955463 143.601218,278.853712 C143.601218,280.902865 143.261028,282.349137 142.580638,283.192573 C141.900249,284.036009 140.879679,284.45772 139.5189,284.45772 C138.15812,284.45772 137.134716,284.041669 136.448656,283.209555 C135.762596,282.37744 135.419572,280.894374 135.419572,278.760312 C135.419572,276.62625 135.756926,275.114881 136.431646,274.22616 C137.106366,273.33744 138.129771,272.893086 139.50189,272.893086 Z M139.5189,274.064833 C138.872529,274.064833 138.362245,274.200686 137.98803,274.472397 C137.182902,275.02714 136.780344,276.493224 136.780344,278.870694 C136.780344,280.546244 137.001468,281.703828 137.443721,282.343481 C137.885974,282.983133 138.577694,283.302955 139.5189,283.302955 C140.460106,283.302955 141.151825,282.980303 141.594078,282.33499 C142.036331,281.689677 142.257455,280.492469 142.257455,278.74333 C142.257455,276.994192 142.044836,275.777172 141.619593,275.092234 C141.194349,274.407297 140.494125,274.064833 139.5189,274.064833 Z M150.898362,273.079886 L150.898362,284.287902 L149.588618,284.287902 L149.588618,274.540324 L146.696976,276.442291 L146.101638,275.457344 L149.673667,273.079886 L150.898362,273.079886 Z M158.552709,272.893086 C159.482575,272.893086 160.236662,273.068563 160.814994,273.419523 C162.039695,274.144085 162.652037,275.955463 162.652037,278.853712 C162.652037,280.902865 162.311847,282.349137 161.631457,283.192573 C160.951068,284.036009 159.930498,284.45772 158.569719,284.45772 C157.208939,284.45772 156.185535,284.041669 155.499475,283.209555 C154.813415,282.37744 154.470391,280.894374 154.470391,278.760312 C154.470391,276.62625 154.807745,275.114881 155.482465,274.22616 C156.157185,273.33744 157.18059,272.893086 158.552709,272.893086 Z M158.569719,274.064833 C157.923348,274.064833 157.413064,274.200686 157.038849,274.472397 C156.233721,275.02714 155.831163,276.493224 155.831163,278.870694 C155.831163,280.546244 156.052287,281.703828 156.49454,282.343481 C156.936793,282.983133 157.628513,283.302955 158.569719,283.302955 C159.510924,283.302955 160.202644,282.980303 160.644897,282.33499 C161.08715,281.689677 161.308274,280.492469 161.308274,278.74333 C161.308274,276.994192 161.095655,275.777172 160.670412,275.092234 C160.245168,274.407297 159.544944,274.064833 158.569719,274.064833 Z M177.603528,272.893086 C178.533394,272.893086 179.287481,273.068563 179.865813,273.419523 C181.090514,274.144085 181.702856,275.955463 181.702856,278.853712 C181.702856,280.902865 181.362666,282.349137 180.682276,283.192573 C180.001887,284.036009 178.981317,284.45772 177.620538,284.45772 C176.259758,284.45772 175.236354,284.041669 174.550294,283.209555 C173.864234,282.37744 173.52121,280.894374 173.52121,278.760312 C173.52121,276.62625 173.858564,275.114881 174.533284,274.22616 C175.208004,273.33744 176.231409,272.893086 177.603528,272.893086 Z M177.620538,274.064833 C176.974167,274.064833 176.463883,274.200686 176.089668,274.472397 C175.28454,275.02714 174.881982,276.493224 174.881982,278.870694 C174.881982,280.546244 175.103106,281.703828 175.545359,282.343481 C175.987612,282.983133 176.679332,283.302955 177.620538,283.302955 C178.561743,283.302955 179.253463,282.980303 179.695716,282.33499 C180.137969,281.689677 180.359093,280.492469 180.359093,278.74333 C180.359093,276.994192 180.146474,275.777172 179.721231,275.092234 C179.295987,274.407297 178.595763,274.064833 177.620538,274.064833 Z M187.603528,272.893086 C188.533394,272.893086 189.287481,273.068563 189.865813,273.419523 C191.090514,274.144085 191.702856,275.955463 191.702856,278.853712 C191.702856,280.902865 191.362666,282.349137 190.682276,283.192573 C190.001887,284.036009 188.981317,284.45772 187.620538,284.45772 C186.259758,284.45772 185.236354,284.041669 184.550294,283.209555 C183.864234,282.37744 183.52121,280.894374 183.52121,278.760312 C183.52121,276.62625 183.858564,275.114881 184.533284,274.22616 C185.208004,273.33744 186.231409,272.893086 187.603528,272.893086 Z M187.620538,274.064833 C186.974167,274.064833 186.463883,274.200686 186.089668,274.472397 C185.28454,275.02714 184.881982,276.493224 184.881982,278.870694 C184.881982,280.546244 185.103106,281.703828 185.545359,282.343481 C185.987612,282.983133 186.679332,283.302955 187.620538,283.302955 C188.561743,283.302955 189.253463,282.980303 189.695716,282.33499 C190.137969,281.689677 190.359093,280.492469 190.359093,278.74333 C190.359093,276.994192 190.146474,275.777172 189.721231,275.092234 C189.295987,274.407297 188.595763,274.064833 187.620538,274.064833 Z M168.603528,272.893086 C169.533394,272.893086 170.287481,273.068563 170.865813,273.419523 C172.090514,274.144085 172.702856,275.955463 172.702856,278.853712 C172.702856,280.902865 172.362666,282.349137 171.682276,283.192573 C171.001887,284.036009 169.981317,284.45772 168.620538,284.45772 C167.259758,284.45772 166.236354,284.041669 165.550294,283.209555 C164.864234,282.37744 164.52121,280.894374 164.52121,278.760312 C164.52121,276.62625 164.858564,275.114881 165.533284,274.22616 C166.208004,273.33744 167.231409,272.893086 168.603528,272.893086 Z M168.620538,274.064833 C167.974167,274.064833 167.463883,274.200686 167.089668,274.472397 C166.28454,275.02714 165.881982,276.493224 165.881982,278.870694 C165.881982,280.546244 166.103106,281.703828 166.545359,282.343481 C166.987612,282.983133 167.679332,283.302955 168.620538,283.302955 C169.561743,283.302955 170.253463,282.980303 170.695716,282.33499 C171.137969,281.689677 171.359093,280.492469 171.359093,278.74333 C171.359093,276.994192 171.146474,275.777172 170.721231,275.092234 C170.295987,274.407297 169.595763,274.064833 168.620538,274.064833 Z" id="10101010100110111100-copy" fill="#1C3C55"></path>
                            <path d="M312.796724,153.079886 L312.796724,164.287902 L311.48698,164.287902 L311.48698,154.540324 L308.595338,156.442291 L308,155.457344 L311.572029,153.079886 L312.796724,153.079886 Z M331.847543,153.079886 L331.847543,164.287902 L330.537799,164.287902 L330.537799,154.540324 L327.646157,156.442291 L327.050819,155.457344 L330.622848,153.079886 L331.847543,153.079886 Z M321.847543,153.079886 L321.847543,164.287902 L320.537799,164.287902 L320.537799,154.540324 L317.646157,156.442291 L317.050819,155.457344 L320.622848,153.079886 L321.847543,153.079886 Z M339.50189,152.893086 C340.431756,152.893086 341.185843,153.068563 341.764175,153.419523 C342.988876,154.144085 343.601218,155.955463 343.601218,158.853712 C343.601218,160.902865 343.261028,162.349137 342.580638,163.192573 C341.900249,164.036009 340.879679,164.45772 339.5189,164.45772 C338.15812,164.45772 337.134716,164.041669 336.448656,163.209555 C335.762596,162.37744 335.419572,160.894374 335.419572,158.760312 C335.419572,156.62625 335.756926,155.114881 336.431646,154.22616 C337.106366,153.33744 338.129771,152.893086 339.50189,152.893086 Z M339.5189,154.064833 C338.872529,154.064833 338.362245,154.200686 337.98803,154.472397 C337.182902,155.02714 336.780344,156.493224 336.780344,158.870694 C336.780344,160.546244 337.001468,161.703828 337.443721,162.343481 C337.885974,162.983133 338.577694,163.302955 339.5189,163.302955 C340.460106,163.302955 341.151825,162.980303 341.594078,162.33499 C342.036331,161.689677 342.257455,160.492469 342.257455,158.74333 C342.257455,156.994192 342.044836,155.777172 341.619593,155.092234 C341.194349,154.407297 340.494125,154.064833 339.5189,154.064833 Z M350.898362,153.079886 L350.898362,164.287902 L349.588618,164.287902 L349.588618,154.540324 L346.696976,156.442291 L346.101638,155.457344 L349.673667,153.079886 L350.898362,153.079886 Z M358.552709,152.893086 C359.482575,152.893086 360.236662,153.068563 360.814994,153.419523 C362.039695,154.144085 362.652037,155.955463 362.652037,158.853712 C362.652037,160.902865 362.311847,162.349137 361.631457,163.192573 C360.951068,164.036009 359.930498,164.45772 358.569719,164.45772 C357.208939,164.45772 356.185535,164.041669 355.499475,163.209555 C354.813415,162.37744 354.470391,160.894374 354.470391,158.760312 C354.470391,156.62625 354.807745,155.114881 355.482465,154.22616 C356.157185,153.33744 357.18059,152.893086 358.552709,152.893086 Z M358.569719,154.064833 C357.923348,154.064833 357.413064,154.200686 357.038849,154.472397 C356.233721,155.02714 355.831163,156.493224 355.831163,158.870694 C355.831163,160.546244 356.052287,161.703828 356.49454,162.343481 C356.936793,162.983133 357.628513,163.302955 358.569719,163.302955 C359.510924,163.302955 360.202644,162.980303 360.644897,162.33499 C361.08715,161.689677 361.308274,160.492469 361.308274,158.74333 C361.308274,156.994192 361.095655,155.777172 360.670412,155.092234 C360.245168,154.407297 359.544944,154.064833 358.569719,154.064833 Z M369.949181,153.079886 L369.949181,164.287902 L368.639437,164.287902 L368.639437,154.540324 L365.747795,156.442291 L365.152457,155.457344 L368.724486,153.079886 L369.949181,153.079886 Z M377.603528,152.893086 C378.533394,152.893086 379.287481,153.068563 379.865813,153.419523 C381.090514,154.144085 381.702856,155.955463 381.702856,158.853712 C381.702856,160.902865 381.362666,162.349137 380.682276,163.192573 C380.001887,164.036009 378.981317,164.45772 377.620538,164.45772 C376.259758,164.45772 375.236354,164.041669 374.550294,163.209555 C373.864234,162.37744 373.52121,160.894374 373.52121,158.760312 C373.52121,156.62625 373.858564,155.114881 374.533284,154.22616 C375.208004,153.33744 376.231409,152.893086 377.603528,152.893086 Z M377.620538,154.064833 C376.974167,154.064833 376.463883,154.200686 376.089668,154.472397 C375.28454,155.02714 374.881982,156.493224 374.881982,158.870694 C374.881982,160.546244 375.103106,161.703828 375.545359,162.343481 C375.987612,162.983133 376.679332,163.302955 377.620538,163.302955 C378.561743,163.302955 379.253463,162.980303 379.695716,162.33499 C380.137969,161.689677 380.359093,160.492469 380.359093,158.74333 C380.359093,156.994192 380.146474,155.777172 379.721231,155.092234 C379.295987,154.407297 378.595763,154.064833 377.620538,154.064833 Z M389,153.079886 L389,164.287902 L387.690256,164.287902 L387.690256,154.540324 L384.798614,156.442291 L384.203276,155.457344 L387.775304,153.079886 L389,153.079886 Z" id="10101010100110111100-copy" fill="#1C3C55"></path>
                            <path d="M312.796724,213.079886 L312.796724,224.287902 L311.48698,224.287902 L311.48698,214.540324 L308.595338,216.442291 L308,215.457344 L311.572029,213.079886 L312.796724,213.079886 Z M320.451071,212.893086 C321.380937,212.893086 322.135024,213.068563 322.713356,213.419523 C323.938057,214.144085 324.550399,215.955463 324.550399,218.853712 C324.550399,220.902865 324.210209,222.349137 323.529819,223.192573 C322.84943,224.036009 321.82886,224.45772 320.468081,224.45772 C319.107301,224.45772 318.083897,224.041669 317.397837,223.209555 C316.711777,222.37744 316.368753,220.894374 316.368753,218.760312 C316.368753,216.62625 316.706108,215.114881 317.380827,214.22616 C318.055547,213.33744 319.078952,212.893086 320.451071,212.893086 Z M320.468081,214.064833 C319.82171,214.064833 319.311426,214.200686 318.937211,214.472397 C318.132083,215.02714 317.729525,216.493224 317.729525,218.870694 C317.729525,220.546244 317.950649,221.703828 318.392902,222.343481 C318.835156,222.983133 319.526875,223.302955 320.468081,223.302955 C321.409287,223.302955 322.101006,222.980303 322.543259,222.33499 C322.985513,221.689677 323.206636,220.492469 323.206636,218.74333 C323.206636,216.994192 322.994017,215.777172 322.568774,215.092234 C322.14353,214.407297 321.443306,214.064833 320.468081,214.064833 Z M339.50189,212.893086 C340.431756,212.893086 341.185843,213.068563 341.764175,213.419523 C342.988876,214.144085 343.601218,215.955463 343.601218,218.853712 C343.601218,220.902865 343.261028,222.349137 342.580638,223.192573 C341.900249,224.036009 340.879679,224.45772 339.5189,224.45772 C338.15812,224.45772 337.134716,224.041669 336.448656,223.209555 C335.762596,222.37744 335.419572,220.894374 335.419572,218.760312 C335.419572,216.62625 335.756926,215.114881 336.431646,214.22616 C337.106366,213.33744 338.129771,212.893086 339.50189,212.893086 Z M339.5189,214.064833 C338.872529,214.064833 338.362245,214.200686 337.98803,214.472397 C337.182902,215.02714 336.780344,216.493224 336.780344,218.870694 C336.780344,220.546244 337.001468,221.703828 337.443721,222.343481 C337.885974,222.983133 338.577694,223.302955 339.5189,223.302955 C340.460106,223.302955 341.151825,222.980303 341.594078,222.33499 C342.036331,221.689677 342.257455,220.492469 342.257455,218.74333 C342.257455,216.994192 342.044836,215.777172 341.619593,215.092234 C341.194349,214.407297 340.494125,214.064833 339.5189,214.064833 Z M330.50189,212.893086 C331.431756,212.893086 332.185843,213.068563 332.764175,213.419523 C333.988876,214.144085 334.601218,215.955463 334.601218,218.853712 C334.601218,220.902865 334.261028,222.349137 333.580638,223.192573 C332.900249,224.036009 331.879679,224.45772 330.5189,224.45772 C329.15812,224.45772 328.134716,224.041669 327.448656,223.209555 C326.762596,222.37744 326.419572,220.894374 326.419572,218.760312 C326.419572,216.62625 326.756926,215.114881 327.431646,214.22616 C328.106366,213.33744 329.129771,212.893086 330.50189,212.893086 Z M330.5189,214.064833 C329.872529,214.064833 329.362245,214.200686 328.98803,214.472397 C328.182902,215.02714 327.780344,216.493224 327.780344,218.870694 C327.780344,220.546244 328.001468,221.703828 328.443721,222.343481 C328.885974,222.983133 329.577694,223.302955 330.5189,223.302955 C331.460106,223.302955 332.151825,222.980303 332.594078,222.33499 C333.036331,221.689677 333.257455,220.492469 333.257455,218.74333 C333.257455,216.994192 333.044836,215.777172 332.619593,215.092234 C332.194349,214.407297 331.494125,214.064833 330.5189,214.064833 Z M350.898362,213.079886 L350.898362,224.287902 L349.588618,224.287902 L349.588618,214.540324 L346.696976,216.442291 L346.101638,215.457344 L349.673667,213.079886 L350.898362,213.079886 Z M358.552709,212.893086 C359.482575,212.893086 360.236662,213.068563 360.814994,213.419523 C362.039695,214.144085 362.652037,215.955463 362.652037,218.853712 C362.652037,220.902865 362.311847,222.349137 361.631457,223.192573 C360.951068,224.036009 359.930498,224.45772 358.569719,224.45772 C357.208939,224.45772 356.185535,224.041669 355.499475,223.209555 C354.813415,222.37744 354.470391,220.894374 354.470391,218.760312 C354.470391,216.62625 354.807745,215.114881 355.482465,214.22616 C356.157185,213.33744 357.18059,212.893086 358.552709,212.893086 Z M358.569719,214.064833 C357.923348,214.064833 357.413064,214.200686 357.038849,214.472397 C356.233721,215.02714 355.831163,216.493224 355.831163,218.870694 C355.831163,220.546244 356.052287,221.703828 356.49454,222.343481 C356.936793,222.983133 357.628513,223.302955 358.569719,223.302955 C359.510924,223.302955 360.202644,222.980303 360.644897,222.33499 C361.08715,221.689677 361.308274,220.492469 361.308274,218.74333 C361.308274,216.994192 361.095655,215.777172 360.670412,215.092234 C360.245168,214.407297 359.544944,214.064833 358.569719,214.064833 Z M369.949181,213.079886 L369.949181,224.287902 L368.639437,224.287902 L368.639437,214.540324 L365.747795,216.442291 L365.152457,215.457344 L368.724486,213.079886 L369.949181,213.079886 Z M377.603528,212.893086 C378.533394,212.893086 379.287481,213.068563 379.865813,213.419523 C381.090514,214.144085 381.702856,215.955463 381.702856,218.853712 C381.702856,220.902865 381.362666,222.349137 380.682276,223.192573 C380.001887,224.036009 378.981317,224.45772 377.620538,224.45772 C376.259758,224.45772 375.236354,224.041669 374.550294,223.209555 C373.864234,222.37744 373.52121,220.894374 373.52121,218.760312 C373.52121,216.62625 373.858564,215.114881 374.533284,214.22616 C375.208004,213.33744 376.231409,212.893086 377.603528,212.893086 Z M377.620538,214.064833 C376.974167,214.064833 376.463883,214.200686 376.089668,214.472397 C375.28454,215.02714 374.881982,216.493224 374.881982,218.870694 C374.881982,220.546244 375.103106,221.703828 375.545359,222.343481 C375.987612,222.983133 376.679332,223.302955 377.620538,223.302955 C378.561743,223.302955 379.253463,222.980303 379.695716,222.33499 C380.137969,221.689677 380.359093,220.492469 380.359093,218.74333 C380.359093,216.994192 380.146474,215.777172 379.721231,215.092234 C379.295987,214.407297 378.595763,214.064833 377.620538,214.064833 Z M389,213.079886 L389,224.287902 L387.690256,224.287902 L387.690256,214.540324 L384.798614,216.442291 L384.203276,215.457344 L387.775304,213.079886 L389,213.079886 Z" id="10101010100110111100-copy" fill="#1C3C55"></path>
                            <path d="M312.796724,273.079886 L312.796724,284.287902 L311.48698,284.287902 L311.48698,274.540324 L308.595338,276.442291 L308,275.457344 L311.572029,273.079886 L312.796724,273.079886 Z M331.847543,273.079886 L331.847543,284.287902 L330.537799,284.287902 L330.537799,274.540324 L327.646157,276.442291 L327.050819,275.457344 L330.622848,273.079886 L331.847543,273.079886 Z M321.847543,273.079886 L321.847543,284.287902 L320.537799,284.287902 L320.537799,274.540324 L317.646157,276.442291 L317.050819,275.457344 L320.622848,273.079886 L321.847543,273.079886 Z M339.50189,272.893086 C340.431756,272.893086 341.185843,273.068563 341.764175,273.419523 C342.988876,274.144085 343.601218,275.955463 343.601218,278.853712 C343.601218,280.902865 343.261028,282.349137 342.580638,283.192573 C341.900249,284.036009 340.879679,284.45772 339.5189,284.45772 C338.15812,284.45772 337.134716,284.041669 336.448656,283.209555 C335.762596,282.37744 335.419572,280.894374 335.419572,278.760312 C335.419572,276.62625 335.756926,275.114881 336.431646,274.22616 C337.106366,273.33744 338.129771,272.893086 339.50189,272.893086 Z M339.5189,274.064833 C338.872529,274.064833 338.362245,274.200686 337.98803,274.472397 C337.182902,275.02714 336.780344,276.493224 336.780344,278.870694 C336.780344,280.546244 337.001468,281.703828 337.443721,282.343481 C337.885974,282.983133 338.577694,283.302955 339.5189,283.302955 C340.460106,283.302955 341.151825,282.980303 341.594078,282.33499 C342.036331,281.689677 342.257455,280.492469 342.257455,278.74333 C342.257455,276.994192 342.044836,275.777172 341.619593,275.092234 C341.194349,274.407297 340.494125,274.064833 339.5189,274.064833 Z M358.552709,272.893086 C359.482575,272.893086 360.236662,273.068563 360.814994,273.419523 C362.039695,274.144085 362.652037,275.955463 362.652037,278.853712 C362.652037,280.902865 362.311847,282.349137 361.631457,283.192573 C360.951068,284.036009 359.930498,284.45772 358.569719,284.45772 C357.208939,284.45772 356.185535,284.041669 355.499475,283.209555 C354.813415,282.37744 354.470391,280.894374 354.470391,278.760312 C354.470391,276.62625 354.807745,275.114881 355.482465,274.22616 C356.157185,273.33744 357.18059,272.893086 358.552709,272.893086 Z M358.569719,274.064833 C357.923348,274.064833 357.413064,274.200686 357.038849,274.472397 C356.233721,275.02714 355.831163,276.493224 355.831163,278.870694 C355.831163,280.546244 356.052287,281.703828 356.49454,282.343481 C356.936793,282.983133 357.628513,283.302955 358.569719,283.302955 C359.510924,283.302955 360.202644,282.980303 360.644897,282.33499 C361.08715,281.689677 361.308274,280.492469 361.308274,278.74333 C361.308274,276.994192 361.095655,275.777172 360.670412,275.092234 C360.245168,274.407297 359.544944,274.064833 358.569719,274.064833 Z M348.552709,272.893086 C349.482575,272.893086 350.236662,273.068563 350.814994,273.419523 C352.039695,274.144085 352.652037,275.955463 352.652037,278.853712 C352.652037,280.902865 352.311847,282.349137 351.631457,283.192573 C350.951068,284.036009 349.930498,284.45772 348.569719,284.45772 C347.208939,284.45772 346.185535,284.041669 345.499475,283.209555 C344.813415,282.37744 344.470391,280.894374 344.470391,278.760312 C344.470391,276.62625 344.807745,275.114881 345.482465,274.22616 C346.157185,273.33744 347.18059,272.893086 348.552709,272.893086 Z M348.569719,274.064833 C347.923348,274.064833 347.413064,274.200686 347.038849,274.472397 C346.233721,275.02714 345.831163,276.493224 345.831163,278.870694 C345.831163,280.546244 346.052287,281.703828 346.49454,282.343481 C346.936793,282.983133 347.628513,283.302955 348.569719,283.302955 C349.510924,283.302955 350.202644,282.980303 350.644897,282.33499 C351.08715,281.689677 351.308274,280.492469 351.308274,278.74333 C351.308274,276.994192 351.095655,275.777172 350.670412,275.092234 C350.245168,274.407297 349.544944,274.064833 348.569719,274.064833 Z M369.949181,273.079886 L369.949181,284.287902 L368.639437,284.287902 L368.639437,274.540324 L365.747795,276.442291 L365.152457,275.457344 L368.724486,273.079886 L369.949181,273.079886 Z M377.603528,272.893086 C378.533394,272.893086 379.287481,273.068563 379.865813,273.419523 C381.090514,274.144085 381.702856,275.955463 381.702856,278.853712 C381.702856,280.902865 381.362666,282.349137 380.682276,283.192573 C380.001887,284.036009 378.981317,284.45772 377.620538,284.45772 C376.259758,284.45772 375.236354,284.041669 374.550294,283.209555 C373.864234,282.37744 373.52121,280.894374 373.52121,278.760312 C373.52121,276.62625 373.858564,275.114881 374.533284,274.22616 C375.208004,273.33744 376.231409,272.893086 377.603528,272.893086 Z M377.620538,274.064833 C376.974167,274.064833 376.463883,274.200686 376.089668,274.472397 C375.28454,275.02714 374.881982,276.493224 374.881982,278.870694 C374.881982,280.546244 375.103106,281.703828 375.545359,282.343481 C375.987612,282.983133 376.679332,283.302955 377.620538,283.302955 C378.561743,283.302955 379.253463,282.980303 379.695716,282.33499 C380.137969,281.689677 380.359093,280.492469 380.359093,278.74333 C380.359093,276.994192 380.146474,275.777172 379.721231,275.092234 C379.295987,274.407297 378.595763,274.064833 377.620538,274.064833 Z M389,273.079886 L389,284.287902 L387.690256,284.287902 L387.690256,274.540324 L384.798614,276.442291 L384.203276,275.457344 L387.775304,273.079886 L389,273.079886 Z" id="10101010100110111100-copy" fill="#1C3C55"></path>
                            <g id="Group-10" stroke-width="1" transform="translate(249.000000, 159.000000) rotate(180.000000) translate(-249.000000, -159.000000) translate(233.000000, 151.000000)">
                                <path d="M2.36647922,7.41011124 L31.7531278,7.41011124" id="Path-28" stroke="#FF9500" stroke-width="1.2"></path>
                                <polygon id="ion-ios-arrow-right---Ionicons" fill="#FF9500" transform="translate(5.449278, 7.745191) rotate(182.000000) translate(-5.449278, -7.745191) " points="0.94927786 1.13581553 1.93365286 0.245190528 9.94927786 7.74519053 1.93365286 15.2451905 0.94927786 14.3545655 7.98052786 7.74519053"></polygon>
                            </g>
                            <g id="Group-10" stroke-width="1" transform="translate(249.000000, 218.000000) rotate(180.000000) translate(-249.000000, -218.000000) translate(233.000000, 210.000000)">
                                <g id="Group-11">
                                    <path d="M2.36647922,7.41011124 L31.7531278,7.41011124" id="Path-28" stroke="#FF9500" stroke-width="1.2"></path>
                                    <polygon id="ion-ios-arrow-right---Ionicons" fill="#FF9500" transform="translate(5.449278, 7.745191) rotate(182.000000) translate(-5.449278, -7.745191) " points="0.94927786 1.13581553 1.93365286 0.245190528 9.94927786 7.74519053 1.93365286 15.2451905 0.94927786 14.3545655 7.98052786 7.74519053"></polygon>
                                </g>
                            </g>
                            <g id="Group-10" stroke-width="1" transform="translate(249.000000, 278.000000) rotate(180.000000) translate(-249.000000, -278.000000) translate(233.000000, 270.000000)">
                                <path d="M2.36647922,7.41011124 L31.7531278,7.41011124" id="Path-28" stroke="#FF9500" stroke-width="1.2"></path>
                                <polygon id="ion-ios-arrow-right---Ionicons" fill="#FF9500" transform="translate(5.449278, 7.745191) rotate(182.000000) translate(-5.449278, -7.745191) " points="0.94927786 1.13581553 1.93365286 0.245190528 9.94927786 7.74519053 1.93365286 15.2451905 0.94927786 14.3545655 7.98052786 7.74519053"></polygon>
                            </g>
                            <g id="person-right" stroke-width="1" transform="translate(374.000000, 99.000000)">
                                <path d="M40.1376996,42.1236144 C38.5383846,45.3091198 39.802445,46.5579553 30.754219,48.9966529 C24.0480237,50.8041212 23.2639387,46.1296777 16.7456459,33.1058604 C8.20952977,16.0503488 5.13584668,2.70325659 3.02065626,1.05947065 C-0.709721916,-1.83953227 1.75441551,11.1452553 1.75441551,11.1452553 C1.75441551,11.1452553 5.29014685,25.4365888 9.87063771,40.7847945 C14.826985,57.3924115 24.0976893,61.8727301 26.1758409,59.3890058 C30.1745509,54.6107477 17.7455996,94.6886605 17.7455996,94.6886605 C17.7455996,94.6886605 49.7344346,97.0773689 51.3337497,95.4846162 C52.9339095,93.8918635 52.1338296,69.9988902 54.5323797,66.0165877 C56.9317747,62.0342853 68.9279046,76.369901 68.1278247,77.9634951 C67.3285896,79.5562478 55.3324596,86.7240556 52.9339095,89.909561 C50.5345146,93.0950665 52.1338296,94.6886605 53.7331446,97.0773689 C55.3324596,99.4669187 56.9317747,100.263716 56.9317747,97.874166 C56.9317747,95.4846162 53.7331446,93.0950665 56.1325396,92.2991108 C58.5310897,91.5023137 73.7258497,85.9272586 76.9244798,81.1490005 C80.1239547,76.369901 67.3285896,60.4415326 62.5297997,55.662433 C57.7318546,50.8841749 48.9343547,46.9018725 48.1351196,43.7163671 C47.3358845,40.5300203 46.9895084,34.0072112 46.1902734,30.0249087 C45.3910383,26.0426063 40.1376996,30.9735041 40.1376996,30.9735041 C40.1376996,31.7694597 41.7378595,38.9372676 40.1376996,42.1236144 Z" id="Fill-27" stroke="#1C3C55" fill="#FFFFFF"></path>
                                <path d="M37.1586923,34.9241193 C37.1586923,34.9241193 37.7125052,36.7129015 41.0262633,37.2606902 C44.3408504,37.8093051 47.3760439,34.9175095 48.0641647,30.7896777 C48.7514566,26.6610197 49.7156549,20.8807333 44.8805693,19.2324097 C40.0471419,17.5849124 36.7367001,22.1275103 35.910955,27.0815694 C35.086039,32.0356285 37.1586923,34.9241193 37.1586923,34.9241193" id="Fill-34" stroke="#1C3C55" fill="#FFFFFF"></path>
                                <path d="M43.8256,18.345969 C43.7252405,17.554216 43.8256,22.3350883 41.410167,23.1335867 C38.9955844,23.9320851 37.3864297,24.7297403 37.3864297,24.7297403 C37.3864297,24.7297403 36.0809052,30.4718461 37.6900599,32.0671566 C35.2754773,32.865655 34.1672698,33.5064774 32.5572647,30.3150133 C30.9472595,27.1235492 33.361842,23.9320851 34.9718472,21.5374331 C36.5810019,19.1436242 39.8010123,13.5583512 43.8256,14.3560065 C47.8493372,15.1536617 49.4593424,16.7498153 51.0693476,20.7397778 C52.6785023,24.7297403 55.0930849,25.5273956 55.0930849,27.9212044 C55.0930849,30.3150133 50.2639198,32.7088222 49.4593424,31.9111669 C49.4593424,29.5173581 49.4134152,26.3250508 49.4134152,24.7297403 C49.4134152,23.1335867 44.6301774,24.7297403 43.8256,18.345969" id="Fill-40" fill="#FFFFFF"></path>
                                <path d="M43.8256,18.345969 C43.7252405,17.554216 43.8256,22.3350883 41.410167,23.1335867 C38.9955844,23.9320851 37.3864297,24.7297403 37.3864297,24.7297403 C37.3864297,24.7297403 36.0809052,30.4718461 37.6900599,32.0671566 C35.2754773,32.865655 34.1672698,33.5064774 32.5572647,30.3150133 C30.9472595,27.1235492 33.361842,23.9320851 34.9718472,21.5374331 C36.5810019,19.1436242 39.8010123,13.5583512 43.8256,14.3560065 C47.8493372,15.1536617 49.4593424,16.7498153 51.0693476,20.7397778 C52.6785023,24.7297403 55.0930849,25.5273956 55.0930849,27.9212044 C55.0930849,30.3150133 50.2639198,32.7088222 49.4593424,31.9111669 C49.4593424,29.5173581 49.4134152,26.3250508 49.4134152,24.7297403 C49.4134152,23.1335867 44.6301774,24.7297403 43.8256,18.345969" id="Fill-40" stroke="#1C3C55"></path>
                                <path d="M11.9435215,133.146637 C14.5477871,144.303743 15.6457024,153.125658 15.2372672,159.61238 C14.0877169,170.115204 13.5129417,176.479896 13.5129417,178.706458 C13.5129417,182.0463 17.639638,199.140545 19.9969844,199.140545 C21.5685487,199.140545 25.1431606,199.49002 30.7208202,200.188969 C30.9948229,195.968316 30.9948229,192.437299 30.7208202,189.595919 C29.7518055,179.547335 27.7727972,168.934195 27.7727972,165.961886 C27.7727972,161.728882 29.8206905,146.83136 33.9164772,121.269321 C39.6024096,143.696808 42.4453758,155.946469 42.4453758,158.018304 C42.4453758,161.126056 41.5952732,181.30447 41.5952732,187.075627 C41.5952732,190.923065 42.4239356,195.294179 44.0812606,200.188969 C51.6167648,201.250258 55.7302396,200.900783 56.421685,199.140545 C57.4588531,196.500189 58.4247327,180.457583 58.4247327,173.634786 C58.4247327,166.811989 57.6689668,162.746933 55.6659191,154.856951 C53.6628715,146.966969 55.6659191,141.997139 55.6659191,141.122916 C55.6659191,140.248693 57.2508835,104.983369 55.0200341,102.455574 C52.7891846,99.9277779 50.7277125,91.9359555 49.6760723,91.9359555 C48.9749788,91.9359555 37.4953771,93.2836487 15.2372672,95.9790351 C10.437171,109.600331 9.33925577,121.989532 11.9435215,133.146637 Z" id="Path-3" fill="#FFFFFF"></path>
                                <path d="M13.138115,177.561897 C13.138115,173.793619 13.3857824,170.986639 14.0228792,166.094179 C14.0678551,165.749232 14.0678551,165.749232 14.1126536,165.40611 C14.1572935,165.063792 14.1755384,164.923516 14.2014775,164.722867 C14.2681342,164.207248 14.3225528,163.777343 14.3729485,163.36564 C14.9100828,158.97757 15.0494136,155.840265 14.7367457,152.086675 C14.592023,150.351262 14.2849148,148.146977 13.7853939,145.136536 C13.5876488,143.944795 13.3689069,142.677357 13.056322,140.900444 C12.9989696,140.57442 12.9400353,140.240107 12.8598361,139.785672 C12.760354,139.222092 12.760354,139.222092 12.6599139,138.652847 C12.496478,137.726187 12.3742,137.029892 12.2542599,136.341473 C11.8200633,133.849319 11.4814777,131.826307 11.1776137,129.877736 C10.2592971,123.988901 10.6418754,112.816909 10.8977013,110.007413 C11.1776137,106.933399 13.1063271,100.510219 14.3729485,97.0418302 C15.5877153,93.7154346 15.5924515,96.0651311 15.607876,97.0418302 C15.6340391,98.698524 13.0494489,104.213277 12.2542599,110.007413 C11.1904772,117.758654 11.8805829,126.311089 12.4069067,129.686215 C12.7094631,131.626402 13.0469133,133.642629 13.4799498,136.128124 C13.5997153,136.815541 13.7218581,137.511066 13.885157,138.43695 C13.9855625,139.005999 13.9855625,139.005999 14.0850562,139.569644 C14.1652915,140.024284 14.2242613,140.358798 14.2816606,140.685089 C14.5948839,142.465632 14.8142236,143.736533 15.0127642,144.933068 C15.5173603,147.974095 15.8284253,150.20678 15.9765872,151.983435 C16.297349,155.834192 16.1544755,159.05127 15.607876,163.516665 C15.5570966,163.931502 15.5023435,164.36405 15.4353558,164.882229 C15.4093417,165.083459 15.3910381,165.224186 15.3463417,165.566936 C15.3015257,165.910194 15.3015257,165.910194 15.2566089,166.254686 C14.6258931,171.098144 14.3822515,173.859498 14.3822515,177.561897 C14.3822515,185.228984 17.0546664,194.720155 20.350515,198.879146 C20.4224738,198.96995 20.467624,199.079041 20.4808753,199.19412 C21.1044769,204.6097 19.831798,204.598473 19.2645141,199.509419 C15.8283269,195.041814 13.138115,185.404272 13.138115,177.561897 Z M33.5707077,125.315363 C33.0060001,129.13887 32.4393625,132.962385 31.9077922,136.531056 C31.8840423,136.690491 31.8840423,136.690491 31.8602897,136.849909 C30.6776662,144.786731 29.850377,150.241082 29.5344355,152.137359 C29.1439526,154.476501 28.9711304,155.717701 28.8715117,156.963696 C28.760424,158.353141 28.7438351,159.365292 28.7438351,163.203137 C28.7438351,164.32753 28.7550933,164.817145 28.843595,168.062702 C29.0809911,176.768554 32.436053,193.121423 31.4393135,199.098053 C31.3828233,199.436779 31.0623102,199.665597 30.7234274,199.609133 C30.3845447,199.552669 30.3628113,199.499581 30.4003147,199.098053 C30.9313197,193.412884 27.8352583,176.726959 27.5999204,168.096584 C27.510985,164.83512 27.4996986,164.344283 27.4996986,163.203137 C27.4996986,159.328016 27.5165418,158.30035 27.631329,156.864633 C27.7344363,155.575005 27.9113893,154.304138 28.3072326,151.932885 C28.6213981,150.047267 29.4486225,144.593344 30.6297264,136.666719 C30.6534745,136.507332 30.6534745,136.507332 30.67722,136.347927 C31.2087062,132.77982 31.775272,128.95679 32.3399105,125.13375 C32.5375349,123.79568 32.720802,122.553188 32.8850862,121.438136 C32.9765979,120.8169 32.9765979,120.8169 33.0375638,120.402753 C33.0821005,120.100117 33.0821005,120.100117 33.0914662,120.036432 C33.1929774,119.346176 34.180029,119.320797 34.3169102,120.004924 C34.3327692,120.084187 34.3637896,120.238232 34.4091728,120.462071 C34.4848718,120.835434 34.5733373,121.26862 34.6737707,121.756641 C34.9607844,123.151282 35.2860912,124.705432 35.6432998,126.379177 C36.663819,131.160948 37.7353215,135.942555 38.8065507,140.404284 C39.45652,143.111442 40.0872398,145.619049 40.6922341,147.886973 C42.2333183,153.665105 42.8939047,157.364239 43.1055162,161.174732 C43.2173706,163.188898 43.2173479,164.436015 43.1505759,169.104854 C43.1198436,171.253729 43.1062616,172.682821 43.1062616,174.371249 C43.1062616,174.714648 42.8277521,174.993028 42.4841933,174.993028 C42.1406345,174.993028 41.8621251,174.714648 41.8621251,174.371249 C41.8621251,172.675679 41.8757566,171.241383 41.9065666,169.08708 C41.9728711,164.450923 41.9728935,163.217252 41.863292,161.243654 C41.6568952,157.527062 41.0107989,153.909069 39.4900896,148.20733 C38.8822168,145.928617 38.2490147,143.41114 37.5967631,140.694476 C36.5227979,136.221352 35.4490899,131.429902 34.4265399,126.638616 C34.2079189,125.61424 34.0012191,124.634548 33.8078945,123.708628 C33.7314979,124.22641 33.6523271,124.762736 33.5707077,125.315363 Z M54.7306677,200.231271 C54.6992146,199.999843 54.8001632,199.770316 54.9920283,199.637015 C55.8230015,199.059686 56.3139006,198.27701 56.3139006,197.505555 C56.3139006,196.582144 56.5151983,193.76423 57.1132992,185.694491 C57.1942147,184.561791 57.2672493,183.514809 57.334869,182.514043 C57.7082974,176.987324 57.9095384,172.959379 57.9095384,170.382517 C57.9095384,167.8862 57.6485415,166.435878 56.2114748,159.846771 C54.610678,152.506943 54.1011644,148.156626 54.7230633,143.183225 C56.3676887,130.02794 55.8617922,116.143106 54.0201774,102.901506 C53.652075,100.254772 54.881618,100.06382 55.252464,102.730281 C57.107876,116.071086 57.6175484,130.059555 55.9575965,143.337436 C55.3580003,148.132479 55.8544613,152.371352 57.4270627,159.5819 C58.8888276,166.284251 59.1536749,167.755969 59.1536749,170.382517 C59.1536749,172.996221 58.9514554,177.043749 58.5761777,182.597837 C58.5084426,183.600313 58.435299,184.648857 58.3542762,185.783059 C57.7556488,193.867558 57.558037,196.633874 57.558037,197.505555 C57.558037,198.60957 56.9724843,199.648073 56.0155999,200.422968 C56.1547697,201.32542 54.8753428,201.295772 54.7306677,200.231271 Z" id="Stroke-42" fill="#1C3C55" fill-rule="nonzero"></path>
                                <path d="M23.610709,65.3676751 C22.286808,68.3523335 13.6101047,92.7087579 13.6101047,92.7087579 C12.8692906,97.6109152 23.2843146,100.941977 33.7295417,100.941977 C45.6412954,100.941977 51.994846,95.3309208 51.994846,95.3309208 C51.994846,95.3309208 50.8540971,91.8105711 51.2003376,85.1664826 C51.6245535,77.026104 53.5969513,68.4107982 54.0348723,66.644789 C54.8285418,63.4382292 58.8921349,64.5656117 61.2748212,65.3676751 C63.6575076,66.1688916 68.6719724,63.2627826 65.257348,58.487668 C61.8427236,53.7125534 51.2003376,45.6250101 51.2003376,45.6250101 L40.8767617,56.0475997 L35.5681157,46.9574502 L28.3523957,49.0468517 L23.610709,45.6250101 C19.580436,48.419981 19.6336005,46.0518485 15.8087177,54.1529431 C16.6922202,56.1537686 24.9346101,62.3821698 23.610709,65.3676751 Z" id="Fill-38" fill="#FFFFFF"></path>
                                <path d="M23.8332096,66.0336319 C22.5093086,69.0182903 13.6101047,92.7087579 13.6101047,92.7087579 C12.8692906,97.6109152 23.2843146,100.941977 33.7295417,100.941977 C45.6412954,100.941977 51.1033265,95.3309208 51.994846,95.3309208 C52.8863656,95.3309208 51.6486056,94.6495043 51.994846,88.0054158 C52.4190619,79.8650373 53.4827214,68.9372658 53.9206424,67.1712566 C54.7143119,63.9646969 58.7039023,65.2315685 61.0865886,66.0336319 C63.469275,66.8348484 68.6719724,63.2627826 65.257348,58.487668 C61.8427236,53.7125534 51.2003376,45.6250101 51.2003376,45.6250101 L40.8767617,56.0475997 L35.6984916,46.861776 C32.443084,48.4933962 30.163857,49.3745125 28.8608105,49.5051249 C27.6507513,49.6264167 25.9748843,48.3330451 23.8332096,45.6250101 C19.8029366,48.419981 19.5769058,46.2573006 15.752023,54.3583951 C15.752023,54.3583951 25.1571107,63.0481266 23.8332096,66.0336319 Z" id="Fill-38" stroke="#FF9500"></path>
                                <path d="M20.1370601,201.718015 C20.3704671,203.789079 22.7484773,208.145709 22.7484773,208.145709 C22.7484773,208.145709 17.6939336,213.855978 16.4196065,215.298988 C15.1452794,216.741997 17.9965528,216.708439 19.460945,216.280496 C20.9253372,215.852552 28.65772,212.648173 28.65772,210.403623 C28.65772,208.159073 30.9089784,202.179453 30.9089784,198.419937" id="Path-7" stroke="#1C3C55"></path>
                                <path d="M42.5148895,174.047952 C41.3037362,187.121506 41.4360442,195.448513 42.9118134,199.028972 C45.1254671,204.399661 45.0939252,211.804986 46.0810614,213.024111 C47.0681977,214.243235 52.9528595,216.258107 54.7565224,216.855434 C56.5601853,217.452761 58.2541228,217.535519 58.2541228,216.53352 C58.2541228,215.53152 52.3118506,211.298535 52.3118506,209.719004 C52.3118506,208.665983 53.3086251,205.508754 55.3021742,200.247317" id="Path-8" stroke="#1C3C55"></path>
                            </g>
                            <g id="person-left" stroke-width="1" transform="translate(52.000000, 111.000000)" fill="#FFFFFF">
                                <g id="Group-3">
                                    <g id="Group" transform="translate(44.500000, 105.826716) scale(-1, 1) translate(-44.500000, -105.826716) translate(0.000000, 0.326716)">
                                        <path d="M47.4237161,33.4296503 C46.5827533,34.9522563 40.189,42.6684902 33.1984752,40.8133357 C26.2079503,38.9581812 18.0287407,24.9834974 14.3602776,19.6008944 C8.70246386,11.2993893 3.59226442,-3.80026575 1.50775626,1.91873824 C-0.576751905,7.63774223 3.62333126,14.2616188 4.82048699,17.3118317 C5.92425158,20.1240948 10.677766,28.6719565 16.2521716,36.207454 C22.4064243,44.5267903 29.1786946,51.7462364 31.495373,49.2293807 C33.0729066,47.5158388 32.4002358,51.745083 30.8839825,57.8890949 C28.1566607,68.9404791 22.7000039,86.1869208 22.7000039,86.1869208 C22.7000039,86.1869208 58.019726,88.5843644 59.7855722,86.9857871 C61.5523512,85.3872099 60.6689617,61.4068628 63.3172646,57.4099975 C65.9665002,53.4131322 79.2117458,67.8011716 78.3283563,69.4005933 C77.4458997,70.9991705 64.2006541,78.1931902 61.5523512,81.3903447 C58.9031155,84.5874991 60.6689617,86.1869208 62.4348079,88.5843644 C64.2006541,90.9826524 65.9665002,91.7823633 65.9665002,89.3840752 C65.9665002,86.9857871 62.4348079,84.5874991 65.0840436,83.7886327 C67.7323464,82.9889219 84.5092844,77.3934794 88.0409767,72.5977477 C91.5736019,67.8011716 77.4458997,51.814555 72.1474283,47.0179789 C66.8498897,42.2222472 57.1363365,38.225382 56.2538798,35.0282275 C55.3714232,31.8302286 57.1363365,23.0376317 56.2538798,19.0407664 C55.3714232,15.0439012 47.4237161,22.2387653 47.4237161,22.2387653 C47.4237161,23.0376317 49.1904951,30.2316514 47.4237161,33.4296503 Z" id="Fill-27" stroke="#1C3C55"></path>
                                        <path d="M45.134515,26.2038275 C45.134515,26.2038275 45.7459946,27.9991511 49.4048028,28.548943 C53.0645265,29.0995642 56.4157641,26.1971935 57.1755367,22.0542668 C57.9343938,17.9105107 58.9989908,12.1090865 53.6604444,10.4547352 C48.3237289,8.80121318 44.6685822,13.3604228 43.7568551,18.3325983 C42.8460435,23.3047739 45.134515,26.2038275 45.134515,26.2038275" id="Fill-34" stroke="#1C3C55"></path>
                                        <path d="M58.9340843,191.129209 C58.9340843,191.129209 59.7780036,198.272882 58.9340843,200.653267 C58.0901651,203.034492 63.3017679,208.261447 65.6890067,209.383305 C69.0664679,210.971347 68.2225487,209.383305 66.5347102,204.621695 C64.8450875,199.859246 62.3115455,194.303615 63.1554648,189.542005 C64.0011682,184.780395 58.9340843,191.129209 58.9340843,191.129209" id="Fill-30" stroke="#1C3C55"></path>
                                        <path d="M30.3751216,192.459253 C30.3751216,192.459253 30.3751216,198.940281 31.2261563,201.371094 C32.0780907,203.801908 27.8202183,208.662679 24.4142802,210.282936 C21.0083421,211.904049 21.8593768,210.282936 24.4142802,206.231865 C26.9691836,202.180795 26.1172492,194.07951 25.2653149,190.028439 C24.4142802,185.977369 30.3751216,192.459253 30.3751216,192.459253" id="Fill-32" stroke="#1C3C55"></path>
                                        <path d="M63.5005411,137.532397 C62.0897021,147.911662 66.9925979,157.589144 66.9925979,164.810386 C66.9925979,172.029934 65.2461084,189.680447 65.2461084,192.08668 C65.2461084,194.493761 61.4783386,196.37281 59.1361616,195.296404 C55.6450268,193.691966 51.2806473,180.855614 51.2806473,168.821058 C51.2806473,156.787349 52.1538921,154.380268 48.6627573,142.345711 C45.1707004,130.312002 41.6795657,114.266774 41.6795657,114.266774 C41.6795657,114.266774 37.3151862,141.543916 36.4419414,146.35723 C35.5696188,151.171392 35.5696188,151.973187 35.5696188,157.589144 C35.5696188,163.205101 36.4419414,172.832576 34.6972962,182.460052 C32.9508067,192.08668 35.5696188,196.099047 30.3319946,196.099047 C25.0952924,196.099047 19.8585903,182.460052 19.8585903,172.029934 C19.8585903,161.600663 22.4774024,155.984706 21.6041577,146.35723 C20.7309129,136.730602 19.8576682,114.856447 21.6041577,103.624533 C23.348803,92.3926197 22.5022922,86.7091159 23.809854,84.8478661 C25.1174158,82.9866163 60.8826511,86.9887853 60.8826511,86.9887853 C60.8826511,86.9887853 66.9925979,111.859694 63.5005411,137.532397 Z" id="Fill-36" stroke="#1C3C55"></path>
                                        <path d="M23.3336025,46.5710427 C28.6323486,50.9730093 32.3232988,50.964186 31.9123801,51.8065206 C30.4506257,54.8020935 20.7631656,87.6369939 22.1853295,89.064846 C21.367377,93.98493 32.6190437,92.6864778 44.1518962,92.6864778 C57.3039797,92.6864778 60.5155062,86.8315297 60.5155062,86.8315297 C60.5155062,86.8315297 63.1453671,62.6926865 64.0235313,59.4735506 C64.8998429,56.2552649 65.7761544,57.8644078 68.4069416,58.6694042 C71.0377289,59.4735506 78.9291643,54.646122 75.1589868,49.8535454 C71.3888093,45.0609688 59.6382684,36.9438502 59.6382684,36.9438502 L48.2397342,47.404554 L41.2246103,36.9438502 C37.6071947,37.6807992 35.1384248,37.6807992 33.8183008,36.9438502 C31.8381147,35.8384267 22.1853295,26.6750876 22.1853295,26.6750876 C22.1853295,26.6750876 16.1354044,24.8706106 11.9122498,33.0013299 C16.5287114,39.9073932 18.0348565,42.1690761 23.3336025,46.5710427 Z" id="Fill-38" stroke="#FF9500"></path>
                                    </g>
                                    <path d="M28.5683152,18.9179514 C28.7741078,19.6929063 32.3013163,12.9830825 34.047696,12.289871 C35.7940756,11.5966595 40.0108555,15.3126625 42.4648089,12.4900736 C44.1007779,10.6083476 44.9420962,8.99525519 44.988764,7.65079631 C42.9162435,8.32651951 41.4177188,8.66438111 40.4931902,8.66438111 C39.1063972,8.66438111 39.099953,4.50128563 37.0226634,6.58283337 C34.9453738,8.66438111 36.219269,10.0661802 33.0849317,8.66438111 C29.9505944,7.26258202 28.3625227,18.1429965 28.5683152,18.9179514 Z" id="Path-26" stroke="#1C3C55"></path>
                                </g>
                            </g>
                        </g>
                    </g>
                </g>
            </g>
        </g>
    </g>
</svg>