<?xml version="1.0" encoding="UTF-8" standalone="no"?>
<!-- Created with Inkscape (http://www.inkscape.org/) -->

<svg
   xmlns:dc="http://purl.org/dc/elements/1.1/"
   xmlns:cc="http://creativecommons.org/ns#"
   xmlns:rdf="http://www.w3.org/1999/02/22-rdf-syntax-ns#"
   xmlns:svg="http://www.w3.org/2000/svg"
   xmlns="http://www.w3.org/2000/svg"
   xmlns:sodipodi="http://sodipodi.sourceforge.net/DTD/sodipodi-0.dtd"
   xmlns:inkscape="http://www.inkscape.org/namespaces/inkscape"
   width="42"
   height="42"
   id="svg5494"
   version="1.1"
   inkscape:version="0.48.4 r9939"
   sodipodi:docname="but_bitcoin.svg"
   inkscape:export-filename="/var/www/img/ico-bitcoin.png"
   inkscape:export-xdpi="90"
   inkscape:export-ydpi="90">
  <defs
     id="defs5496">
    <filter
       inkscape:collect="always"
       id="filter3813"
       x="-0.16729393"
       width="1.3345879"
       y="-0.12640011"
       height="1.2528002">
      <feGaussianBlur
         inkscape:collect="always"
         stdDeviation="1.8737393"
         id="feGaussianBlur3815" />
    </filter>
  </defs>
  <sodipodi:namedview
     id="base"
     pagecolor="#ffffff"
     bordercolor="#666666"
     borderopacity="1.0"
     inkscape:pageopacity="0.0"
     inkscape:pageshadow="2"
     inkscape:zoom="15.836083"
     inkscape:cx="12.843655"
     inkscape:cy="16.621856"
     inkscape:current-layer="layer1"
     showgrid="true"
     inkscape:grid-bbox="true"
     inkscape:document-units="px"
     inkscape:window-width="1680"
     inkscape:window-height="1026"
     inkscape:window-x="0"
     inkscape:window-y="24"
     inkscape:window-maximized="1" />
  <metadata
     id="metadata5499">
    <rdf:RDF>
      <cc:Work
         rdf:about="">
        <dc:format>image/svg+xml</dc:format>
        <dc:type
           rdf:resource="http://purl.org/dc/dcmitype/StillImage" />
        <dc:title />
      </cc:Work>
    </rdf:RDF>
  </metadata>
  <g
     id="layer1"
     inkscape:label="Layer 1"
     inkscape:groupmode="layer"
     transform="translate(0,10)">
    <path
       style="opacity:0.6;fill:#000000;fill-opacity:1;filter:url(#filter3813)"
       inkscape:connector-curvature="0"
       d="M 31.900182,10.611703 C 32.459328,6.8728845 29.612487,4.8637886 25.720324,3.5230902 L 26.982595,-1.5408202 23.90047,-2.3091083 22.670975,2.6213566 C 21.859766,2.4192374 21.028268,2.2288234 20.200671,2.040361 l 1.237297,-4.9632411 -3.080172,-0.7682873 -1.263833,5.063129 C 16.423223,1.2190067 15.764969,1.0683927 15.125447,0.90919432 l 0.003,-0.0156067 -4.250729,-1.0613215 -0.820183,3.29204838 c 0,0 2.286914,0.5240282 2.238531,0.5568042 1.248612,0.3117635 1.473755,1.1377989 1.436296,1.7925415 l -1.437764,5.7689838 c 0.08585,0.02224 0.197047,0.05307 0.320349,0.103009 -0.103009,-0.02574 -0.212656,-0.05346 -0.32542,-0.08078 l -2.01569,8.08088 c -0.152992,0.379271 -0.5404524,0.94856 -1.4129213,0.732395 0.030825,0.04448 -2.2416521,-0.559146 -2.2416521,-0.559146 l -1.5295517,3.527725 4.0111721,1.000059 c 0.7456563,0.186904 1.478046,0.381999 2.19756,0.56695 l -1.274757,5.122049 3.079006,0.768287 1.263049,-5.067423 c 0.842034,0.227875 1.658316,0.438968 2.457428,0.637574 l -1.258759,5.04362 3.082516,0.768288 1.275926,-5.112293 c 5.257056,0.994208 9.210088,0.593091 10.873087,-4.160617 1.341091,-3.827781 -0.06633,-6.035876 -2.832014,-7.476073 2.013782,-0.464329 3.531627,-1.789423 3.936256,-4.525446 z m -7.042572,9.876146 c -0.953629,3.828173 -7.398035,1.758594 -9.488683,1.239249 l 1.69265,-6.785046 c 2.089476,0.520906 8.791023,1.553355 7.796033,5.545797 z m 0.952069,-9.931162 c -0.868566,3.482073 -6.233315,1.712552 -7.973573,1.278659 l 1.534236,-6.1541057 c 1.739867,0.4338938 7.34497,1.2435411 6.439337,4.8754467 z"
       id="path167"
       transform="matrix(0.97494932,0,0,0.97494932,1.6748239,-1.9231465)" />
    <path
       style="fill:#ffffff"
       inkscape:connector-curvature="0"
       d="M 32.794757,6.4899949 C 33.339898,2.8448361 30.564372,0.88606944 26.76971,-0.42104325 L 28.00036,-5.3580998 24.995443,-6.1071417 23.79675,-1.3001881 C 23.005862,-1.497244 22.195194,-1.6828879 21.388328,-1.8666298 l 1.206302,-4.8389085 -3.003011,-0.749041 -1.232173,4.9362944 c -0.653938,-0.1491234 -1.295703,-0.2959644 -1.919203,-0.4511743 l 0.0028,-0.015218 -4.144246,-1.0347343 -0.799636,3.20957986 c 0,0 2.229624,0.51090069 2.182454,0.54285568 1.217334,0.30395417 1.436836,1.1092964 1.400315,1.74763766 l -1.401747,5.6244658 c 0.0837,0.021685 0.192112,0.051744 0.312324,0.1004308 -0.100434,-0.025097 -0.207327,-0.052119 -0.317268,-0.078756 l -1.965195,7.8784497 c -0.149159,0.369769 -0.526913,0.924797 -1.377527,0.714047 0.03006,0.04336 -2.1854968,-0.545137 -2.1854968,-0.545137 l -1.4912348,3.439351 3.9106886,0.975007 c 0.726977,0.182222 1.44102,0.372432 2.14251,0.552749 l -1.242823,4.993738 3.001876,0.749039 1.231407,-4.94048 c 0.820942,0.222166 1.616774,0.427972 2.395869,0.621603 l -1.227227,4.917273 3.005296,0.749042 1.243963,-4.984226 c 5.125365,0.969302 8.97937,0.578233 10.600709,-4.056391 1.307496,-3.731892 -0.06466,-5.884673 -2.761069,-7.288792 1.963335,-0.452698 3.443158,-1.7445965 3.837649,-4.412081 z m -6.866149,9.6287421 c -0.929739,3.732275 -7.21271,1.714539 -9.250985,1.208205 l 1.650248,-6.615076 c 2.037132,0.507857 8.570801,1.514443 7.600737,5.406871 z m 0.92822,-9.6823804 c -0.84681,3.394845 -6.077167,1.6696522 -7.773831,1.2466281 l 1.495802,-5.9999411 c 1.696281,0.4230247 7.160974,1.2123894 6.278029,4.753313 z"
       id="path167-0" />
  </g>
</svg>
