<?xml version="1.0" encoding="UTF-8"?>
<svg xmlns="http://www.w3.org/2000/svg" width="16" height="16">
  <g fill="#329239" stroke="#329239" stroke-linejoin="round">
    <path d="M15.287 11.17c0 .9-.557 1.63-1.244 1.63-.687 0-1.244-.73-1.244-1.63 0-.9.557-1.63 1.244-1.63.687 0 1.244.73 1.244 1.63z" transform="matrix(1.605 0 0 1.423 -14.274 -11.075)" opacity=".99" stroke-width="1.971" stroke-linecap="round"/>
    <path d="M2.616 14.763l11.032.025s.027-1.696.003-4.885c-.012-1.616-3.372-3.086-5.372-3.061-2.065.026-5.631 1.316-5.663 2.884-.087 4.231 0 5.037 0 5.037z" stroke-width=".661"/>
  </g>
</svg>
