<?xml version="1.0" encoding="UTF-8"?>
<svg xmlns="http://www.w3.org/2000/svg" width="16" height="16">
  <g fill="#ee9209">
    <path d="M13.76 5.435c0 1.985-1.624 3.595-3.628 3.595s-3.628-1.609-3.628-3.595c0-1.985 1.624-3.595 3.628-3.595s3.628 1.609 3.628 3.595z" opacity=".99" stroke="#ee9209" stroke-width="1.72" stroke-linecap="round" stroke-linejoin="round"/>
    <path d="M6.916 6.15l-5.565 6.75v1.815l1.099.011 1.375-.987.477-1.042 1.609-.05.311-1.523 1.403-.385 3.294-3.162z"/>
    <path d="M11.764 4.37c0 .299-.242.541-.541.541-.299 0-.541-.242-.541-.541 0-.299.242-.541.541-.541.299 0 .541.242.541.541z" opacity=".99" stroke="#fff" stroke-width="1.353" stroke-linecap="round" stroke-linejoin="round"/>
  </g>
</svg>
