<?xml version="1.0" encoding="UTF-8"?>
<svg width="38px" height="39px" viewBox="0 0 38 39" version="1.1" xmlns="http://www.w3.org/2000/svg" xmlns:xlink="http://www.w3.org/1999/xlink">
    <!-- Generator: Sketch 49.3 (51167) - http://www.bohemiancoding.com/sketch -->
    <title>close - simple-line-icons</title>
    <desc>Created with Sketch.</desc>
    <defs></defs>
    <g id="Page-1" stroke="none" stroke-width="1" fill="none" fill-rule="evenodd">
        <path d="M19,0.375 C21.6224089,0.375 24.0901577,0.869786719 26.4033203,1.859375 C28.7164829,2.84896328 30.7327388,4.20344192 32.4521484,5.92285156 C34.1715581,7.6422612 35.5260367,9.65851708 36.515625,11.9716797 C37.5052133,14.2848423 38,16.7525911 38,19.375 C38,21.9974089 37.5052133,24.4651577 36.515625,26.7783203 C35.5260367,29.0914829 34.1715581,31.1077388 32.4521484,32.8271484 C30.7327388,34.5465581 28.7164829,35.9010367 26.4033203,36.890625 C24.0901577,37.8802133 21.6224089,38.375 19,38.375 C16.3775911,38.375 13.9098423,37.8802133 11.5966797,36.890625 C9.28351708,35.9010367 7.2672612,34.5465581 5.54785156,32.8271484 C3.82844192,31.1077388 2.47396328,29.0914829 1.484375,26.7783203 C0.494786719,24.4651577 0,21.9974089 0,19.375 C0,16.7525911 0.494786719,14.2848423 1.484375,11.9716797 C2.47396328,9.65851708 3.82844192,7.6422612 5.54785156,5.92285156 C7.2672612,4.20344192 9.28351708,2.84896328 11.5966797,1.859375 C13.9098423,0.869786719 16.3775911,0.375 19,0.375 Z M19,36.0371094 C21.3007928,36.0371094 23.4592998,35.5979862 25.4755859,34.7197266 C27.4918721,33.841467 29.2483649,32.647794 30.7451172,31.1386719 C32.2418695,29.6295497 33.4293576,27.8668721 34.3076172,25.8505859 C35.1858768,23.8342998 35.625,21.6757928 35.625,19.375 C35.625,17.0742072 35.1858768,14.9157002 34.3076172,12.8994141 C33.4293576,10.8831279 32.2418695,9.12663509 30.7451172,7.62988281 C29.2483649,6.13313054 27.4918721,4.94564241 25.4755859,4.06738281 C23.4592998,3.18912321 21.3007928,2.75 19,2.75 C16.6992072,2.75 14.5407002,3.18912321 12.5244141,4.06738281 C10.5081279,4.94564241 8.75163509,6.13313054 7.25488281,7.62988281 C5.75813054,9.12663509 4.57064241,10.8831279 3.69238281,12.8994141 C2.81412321,14.9157002 2.375,17.0742072 2.375,19.375 C2.375,21.6757928 2.81412321,23.8342998 3.69238281,25.8505859 C4.57064241,27.8668721 5.75813054,29.6295497 7.25488281,31.1386719 C8.75163509,32.647794 10.5081279,33.841467 12.5244141,34.7197266 C14.5407002,35.5979862 16.6992072,36.0371094 19,36.0371094 Z M25.7167969,12.6582031 C25.9394542,12.8808605 26.0507812,13.159178 26.0507812,13.4931641 C26.0507812,13.8271501 25.9394542,14.1054676 25.7167969,14.328125 L20.6699219,19.375 L25.7167969,24.421875 C25.9394542,24.6445324 26.0507812,24.9228499 26.0507812,25.2568359 C26.0507812,25.590822 25.9394542,25.8691395 25.7167969,26.0917969 C25.4941395,26.3144542 25.215822,26.4257812 24.8818359,26.4257812 C24.5478499,26.4257812 24.2695324,26.3144542 24.046875,26.0917969 L19,21.0449219 L13.953125,26.0917969 C13.7304676,26.3144542 13.4521501,26.4257812 13.1181641,26.4257812 C12.784178,26.4257812 12.5058605,26.3144542 12.2832031,26.0917969 C12.0605458,25.8691395 11.9492188,25.590822 11.9492188,25.2568359 C11.9492188,24.9228499 12.0605458,24.6445324 12.2832031,24.421875 L17.3300781,19.375 L12.2832031,14.328125 C12.0605458,14.1054676 11.9492188,13.8271501 11.9492188,13.4931641 C11.9492188,13.159178 12.0605458,12.8808605 12.2832031,12.6582031 C12.5058605,12.4355458 12.784178,12.3242188 13.1181641,12.3242188 C13.4521501,12.3242188 13.7304676,12.4355458 13.953125,12.6582031 L19,17.7050781 L24.046875,12.6582031 C24.2695324,12.4355458 24.5478499,12.3242188 24.8818359,12.3242188 C25.215822,12.3242188 25.4941395,12.4355458 25.7167969,12.6582031 Z" id="close---simple-line-icons" fill="#FFFFFF"></path>
    </g>
</svg>