<?xml version="1.0" encoding="UTF-8"?>
<svg width="42px" height="30px" viewBox="0 0 42 30" version="1.1" xmlns="http://www.w3.org/2000/svg" xmlns:xlink="http://www.w3.org/1999/xlink">
    <!-- Generator: Sketch 49 (51002) - http://www.bohemiancoding.com/sketch -->
    <title>Group</title>
    <desc>Created with Sketch.</desc>
    <defs></defs>
    <g id="Symbols" stroke="none" stroke-width="1" fill="none" fill-rule="evenodd">
        <g id="Create.Sign.Send.icon" transform="translate(-11.000000, -17.000000)">
            <g id="Group" transform="translate(9.000000, 16.000000)">
                <g id="mail" transform="translate(13.739130, 1.000000)">
                    <path d="M6.39599038,17 L28,17 C28.5522847,17 29,16.5522847 29,16 L29,2 C29,1.44771525 28.5522847,1 28,1 L6.39599038,1 L6.39599038,0 L28,0 C29.1045695,-2.02906125e-16 30,0.8954305 30,2 L30,16 C30,17.1045695 29.1045695,18 28,18 L6.39599038,18 L6.39599038,17 Z M6.39599038,17 L28,17 C28.5522847,17 29,16.5522847 29,16 L29,2 C29,1.44771525 28.5522847,1 28,1 L6.39599038,1 L6.39599038,0 L28,0 C29.1045695,-2.02906125e-16 30,0.8954305 30,2 L30,16 C30,17.1045695 29.1045695,18 28,18 L6.39599038,18 L6.39599038,17 Z" id="Rectangle-2" fill="#1C3C55" fill-rule="nonzero"></path>
                    <path d="M0,6 L5.69958526,6" id="Path-2" stroke="#FF9500" stroke-linecap="round" stroke-linejoin="round"></path>
                    <path d="M2,9 L7.69958526,9" id="Path-2-Copy" stroke="#FF9500" stroke-linecap="round" stroke-linejoin="round"></path>
                    <path d="M4,12 L9.69958526,12" id="Path-2-Copy-2" stroke="#FF9500" stroke-linecap="round" stroke-linejoin="round"></path>
                    <path d="M7.41526987,3.64778443 C7.20591246,3.46771753 7.18216782,3.15202676 7.36223471,2.94266936 C7.54230161,2.73331195 7.85799239,2.70956731 8.06734979,2.88963421 C12.7026707,6.8764426 15.8144102,8.88308574 17.2229892,8.88308574 C18.6315682,8.88308574 21.7433077,6.8764426 26.3786286,2.88963421 C26.587986,2.70956731 26.9036768,2.73331195 27.0837437,2.94266936 C27.2638106,3.15202676 27.2400659,3.46771753 27.0307085,3.64778443 C22.1874043,7.81347792 18.9780242,9.88308574 17.2229892,9.88308574 C15.4679542,9.88308574 12.2585741,7.81347792 7.41526987,3.64778443 Z" id="Path-3" fill="#1C3C55" fill-rule="nonzero"></path>
                    <path d="M21.4664059,10.4670874 C21.2767802,10.266347 21.2857904,9.94989279 21.4865308,9.76026707 C21.6872712,9.57064135 22.0037254,9.57965156 22.1933511,9.78039194 L26.9016849,14.7646984 C27.0913107,14.9654388 27.0823004,15.281893 26.8815601,15.4715188 C26.6808197,15.6611445 26.3643654,15.6521343 26.1747397,15.4513939 L21.4664059,10.4670874 Z" id="Path-4" fill="#1C3C55" fill-rule="nonzero"></path>
                </g>
                <g id="Group-10" transform="translate(10.191220, 13.137051) rotate(150.000000) translate(-10.191220, -13.137051) translate(6.191220, 0.637051)" fill="#C9D4DE" fill-rule="nonzero">
                    <path d="M4.21689118,0.00914302391 L7.49243594,5.81545746 L7.54404937,6.01199448 L7.54404937,6.75198672 L0.884685064,6.75198672 L0.884685064,5.93715796 L0.937530655,5.73845261 L4.21689118,0.00914302391 Z M1.73708735,5.95198672 L6.65093693,5.95198672 L4.21184325,1.62838685 L1.73708735,5.95198672 Z M6.79566281,6.20853151 L7.14404937,6.01199448 L6.74404937,6.01199448 L6.74404937,6.11704021 L6.79566281,6.20853151 Z M1.68074136,5.95198672 L1.63183947,6.13586331 L1.68468506,6.04353776 L1.68468506,5.95198672 L1.68074136,5.95198672 Z" id="Path-5"></path>
                    <path d="M0.886863833,5.95198672 L7.56970488,5.95198672 L7.56970488,22.5456316 L0.886863833,22.5456316 L0.886863833,5.95198672 Z M1.68686383,6.75198672 L1.68686383,21.7456316 L6.76970488,21.7456316 L6.76970488,6.75198672 L1.68686383,6.75198672 Z" id="Path-7"></path>
                    <path d="M0.911360331,22.5008217 L1.509347,22.1369372 C2.22316468,23.3099837 3.09309988,23.8754788 4.14339063,23.8754788 C5.19973489,23.8754788 6.1245844,23.303153 6.93575633,22.1208678 L7.51296128,22.5168911 C6.57996314,23.8767383 5.45083387,24.5754788 4.14339063,24.5754788 C2.82989389,24.5754788 1.74447111,23.8699076 0.911360331,22.5008217 Z" id="Path-8"></path>
                    <polygon id="Path-9" points="3.94926908 6.22072657 4.74926908 6.22072657 4.74926908 22.2152393 3.94926908 22.2152393"></polygon>
                </g>
                <path d="M3.86311329,30.5279513 C3.82028029,30.8007515 3.56440904,30.9871767 3.29160885,30.9443437 C3.01880865,30.9015107 2.8323834,30.6456395 2.8752164,30.3728393 C3.28139554,27.7859142 5.91012779,26.7961946 10.5252686,27.278386 C14.6261851,27.706851 16.2323815,26.720993 15.80074,24.2910744 C15.7524432,24.0191883 15.9336981,23.7596288 16.2055842,23.711332 C16.4774702,23.6630352 16.7370297,23.8442901 16.7853265,24.1161762 C17.3624568,27.3651213 15.0888384,28.7606325 10.4213539,28.2729722 C6.26809372,27.8390382 4.16072835,28.6324628 3.86311329,30.5279513 Z" id="Path-49" fill="#1C3C55" fill-rule="nonzero"></path>
            </g>
        </g>
    </g>
</svg>