<?xml version="1.0" encoding="UTF-8"?>
<svg width="44px" height="33px" viewBox="0 0 44 33" version="1.1" xmlns="http://www.w3.org/2000/svg" xmlns:xlink="http://www.w3.org/1999/xlink">
    <!-- Generator: Sketch 49 (51002) - http://www.bohemiancoding.com/sketch -->
    <title>Crowdfunding icon</title>
    <desc>Created with Sketch.</desc>
    <defs></defs>
    <g id="Innovation" stroke="none" stroke-width="1" fill="none" fill-rule="evenodd">
        <g id="22.01.18-Bitcoin.org_Innovation_Desktop-1200px--" transform="translate(-778.000000, -1326.000000)">
            <g id="//contenct" transform="translate(215.000000, 697.000000)">
                <g id="box5" transform="translate(400.000000, 585.000000)">
                    <g id="Crowdfunding-icon" transform="translate(155.000000, 30.000000)">
                        <g>
                            <rect id="Rectangle-2" x="0" y="0" width="60" height="60"></rect>
                            <path d="M33.8813117,36.8916657 C34.3176314,37.1182988 34.5,37.5919279 34.5,38.2421875 L34.5,40.4715405 L8.5,40.5005583 L8.5,38.1863839 C8.5,37.6677342 8.65602668,37.259549 9.00289189,37.0120647 C9.23558086,36.8460438 9.42693301,36.7359943 9.54048015,36.7019912 L17.392103,32.9898984 C17.5923727,32.8965435 17.7523724,32.7628156 17.8789576,32.5831321 C18.0147609,32.3903639 18.1028533,32.1826978 18.1403038,31.9895061 C18.1675053,31.7585511 18.1376445,31.5431307 18.0501531,31.3347301 C17.9625184,31.1259882 17.8346217,30.9589254 17.6543456,30.820292 C16.6425797,30.0117826 15.9039457,28.877463 15.4375114,27.4301564 C14.9852578,26.0268514 14.7569833,24.8624953 14.7569833,23.9285714 L14.7569833,19.4642857 C14.7569833,18.8873849 14.9738618,18.2985779 15.3915225,17.6995293 C15.7864483,17.1330893 16.3034714,16.6116292 16.9404379,16.1344375 C17.5735759,15.6601139 18.2841584,15.2707156 19.0709114,14.966189 C19.8727086,14.6558394 20.6880051,14.5 21.5139665,14.5 C22.3211858,14.5 23.131043,14.6557612 23.9411124,14.9654418 C24.737211,15.2697814 25.4481038,15.6544186 26.0725097,16.1197253 C26.6992586,16.586778 27.2154065,17.1023499 27.6190037,17.6667553 C28.0483047,18.2671061 28.2709498,18.8675766 28.2709498,19.4642857 L28.2709498,23.9285714 C28.2709498,24.8390174 28.0628492,25.9943781 27.6502389,27.4033553 C27.2212035,28.8684208 26.4780981,30.0146567 25.4219599,30.826164 C25.2491772,30.9589254 25.1212805,31.1259882 25.0336458,31.3347301 C24.9461543,31.5431307 24.9162936,31.7585511 24.9434951,31.9895061 C24.9705763,32.2194395 25.0497762,32.4205146 25.1837424,32.6011672 C25.3206007,32.7857197 25.4880407,32.9228672 25.6940861,33.0189221 L33.406356,36.6636656 C33.4788858,36.6823014 33.5821552,36.736278 33.8813117,36.8916657 Z M33.1652716,37.6499535 C33.1688596,37.6516791 33.1725577,37.653466 33.1763656,37.6553142 C33.1752105,37.6547621 33.1707027,37.6525655 33.1652716,37.6499535 Z M33.273743,37.6540179 L33.0601038,37.6060779 L25.2691981,33.9241641 C24.9141912,33.7586792 24.6160864,33.5145061 24.3805033,33.1968238 C24.1420282,32.8752417 23.9977667,32.5089861 23.9503596,32.1064761 C23.9030729,31.7049873 23.9570102,31.3158751 24.1116056,30.9476361 C24.2660577,30.579738 24.5012859,30.2724753 24.812677,30.0332111 C25.6932338,29.3566157 26.3188297,28.3916376 26.6905432,27.1223143 C27.0786818,25.7969028 27.2709498,24.7294434 27.2709498,23.9285714 L27.2709498,19.4642857 C27.2709498,19.0937282 27.121159,18.6897445 26.8055773,18.2484233 C26.4642919,17.7711569 26.0214178,17.328777 25.4749763,16.9215693 C24.9261919,16.5126157 24.296316,16.1718137 23.5840272,15.8995136 C22.8857092,15.6325544 22.1965126,15.5 21.5139665,15.5 C20.8129184,15.5 20.11985,15.6324762 19.4318818,15.8987663 C18.7288696,16.1708795 18.0986834,16.5162208 17.540009,16.9347589 C16.9851633,17.3504288 16.5431643,17.7962209 16.2118295,18.2714528 C15.9032295,18.7140761 15.7569833,19.1111224 15.7569833,19.4642857 L15.7569833,23.9285714 C15.7569833,24.7431682 15.9663207,25.8109326 16.3893043,27.123415 C16.798107,28.3918957 17.4281745,29.3594897 18.2711219,30.033211 C18.582513,30.2724753 18.8177411,30.579738 18.9721933,30.947636 C19.1267887,31.3158751 19.180726,31.7049873 19.1282889,32.1402348 C19.0591573,32.5085254 18.9144774,32.8495889 18.6964614,33.1590554 C18.4692274,33.4816065 18.1729932,33.7291992 17.8170617,33.8951071 L9.91214497,37.6284124 C9.85798204,37.6464466 9.74207465,37.7131067 9.58370029,37.826105 C9.53950209,37.8576399 9.5,37.9609823 9.5,38.1863839 L9.5,39.4994417 L33.5,39.4726559 L33.5,38.2421875 C33.5,37.9251804 33.4495962,37.7942768 33.4203644,37.7790932 C33.3151593,37.7244476 33.2334294,37.6830094 33.1763656,37.6553142 C33.2194688,37.6762846 33.1747433,37.6540179 33.273743,37.6540179 Z" id="User---simple-line-icons" fill="#F7931A" fill-rule="nonzero"></path>
                            <path d="M50.8813117,36.8916657 C51.3176314,37.1182988 51.5,37.5919279 51.5,38.2421875 L51.5,40.4715405 L25.5,40.5005583 L25.5,38.1863839 C25.5,37.6677342 25.6560267,37.259549 26.0028919,37.0120647 C26.2355809,36.8460438 26.426933,36.7359943 26.5404802,36.7019912 L34.392103,32.9898984 C34.5923727,32.8965435 34.7523724,32.7628156 34.8789576,32.5831321 C35.0147609,32.3903639 35.1028533,32.1826978 35.1403038,31.9895061 C35.1675053,31.7585511 35.1376445,31.5431307 35.0501531,31.3347301 C34.9625184,31.1259882 34.8346217,30.9589254 34.6543456,30.820292 C33.6425797,30.0117826 32.9039457,28.877463 32.4375114,27.4301564 C31.9852578,26.0268514 31.7569832,24.8624953 31.7569832,23.9285714 L31.7569832,19.4642857 C31.7569832,18.8873849 31.9738618,18.2985779 32.3915225,17.6995293 C32.7864483,17.1330893 33.3034714,16.6116292 33.9404379,16.1344375 C34.5735759,15.6601139 35.2841584,15.2707156 36.0709114,14.966189 C36.8727086,14.6558394 37.6880051,14.5 38.5139665,14.5 C39.3211858,14.5 40.131043,14.6557612 40.9411124,14.9654418 C41.737211,15.2697814 42.4481038,15.6544186 43.0725097,16.1197253 C43.6992586,16.586778 44.2154065,17.1023499 44.6190037,17.6667553 C45.0483047,18.2671061 45.2709497,18.8675766 45.2709497,19.4642857 L45.2709497,23.9285714 C45.2709497,24.8390174 45.0628492,25.9943781 44.6502389,27.4033553 C44.2212035,28.8684208 43.4780981,30.0146567 42.4219599,30.826164 C42.2491772,30.9589254 42.1212805,31.1259882 42.0336458,31.3347301 C41.9461543,31.5431307 41.9162936,31.7585511 41.9434951,31.9895061 C41.9705763,32.2194395 42.0497762,32.4205146 42.1837424,32.6011672 C42.3206007,32.7857197 42.4880407,32.9228672 42.6940861,33.0189221 L50.406356,36.6636656 C50.4788858,36.6823014 50.5821552,36.736278 50.8813117,36.8916657 Z M50.1652716,37.6499535 C50.1688596,37.6516791 50.1725577,37.653466 50.1763656,37.6553142 C50.1752105,37.6547621 50.1707027,37.6525655 50.1652716,37.6499535 Z M50.273743,37.6540179 L50.0601038,37.6060779 L42.2691981,33.9241641 C41.9141912,33.7586792 41.6160864,33.5145061 41.3805033,33.1968238 C41.1420282,32.8752417 40.9977667,32.5089861 40.9503596,32.1064761 C40.9030729,31.7049873 40.9570102,31.3158751 41.1116056,30.9476361 C41.2660577,30.579738 41.5012859,30.2724753 41.812677,30.0332111 C42.6932338,29.3566157 43.3188297,28.3916376 43.6905432,27.1223143 C44.0786818,25.7969028 44.2709497,24.7294434 44.2709497,23.9285714 L44.2709497,19.4642857 C44.2709497,19.0937282 44.121159,18.6897445 43.8055773,18.2484233 C43.4642919,17.7711569 43.0214178,17.328777 42.4749763,16.9215693 C41.9261919,16.5126157 41.296316,16.1718137 40.5840272,15.8995136 C39.8857092,15.6325544 39.1965126,15.5 38.5139665,15.5 C37.8129184,15.5 37.11985,15.6324762 36.4318818,15.8987663 C35.7288696,16.1708795 35.0986834,16.5162208 34.540009,16.9347589 C33.9851633,17.3504288 33.5431643,17.7962209 33.2118295,18.2714528 C32.9032295,18.7140761 32.7569832,19.1111224 32.7569832,19.4642857 L32.7569832,23.9285714 C32.7569832,24.7431682 32.9663207,25.8109326 33.3893043,27.123415 C33.798107,28.3918957 34.4281745,29.3594897 35.2711219,30.033211 C35.582513,30.2724753 35.8177411,30.579738 35.9721933,30.947636 C36.1267887,31.3158751 36.180726,31.7049873 36.1282889,32.1402348 C36.0591573,32.5085254 35.9144774,32.8495889 35.6964614,33.1590554 C35.4692274,33.4816065 35.1729932,33.7291992 34.8170617,33.8951071 L26.912145,37.6284124 C26.857982,37.6464466 26.7420747,37.7131067 26.5837003,37.826105 C26.5395021,37.8576399 26.5,37.9609823 26.5,38.1863839 L26.5,39.4994417 L50.5,39.4726559 L50.5,38.2421875 C50.5,37.9251804 50.4495962,37.7942768 50.4203644,37.7790932 C50.3151593,37.7244476 50.2334294,37.6830094 50.1763656,37.6553142 C50.2194688,37.6762846 50.1747433,37.6540179 50.273743,37.6540179 Z" id="User---simple-line-icons" fill="#95AABF" fill-rule="nonzero"></path>
                            <path d="M30.5139665,21 C29.7504617,21 28.9962793,21.1441578 28.2513966,21.4324777 C27.5065139,21.7207976 26.8361296,22.0881674 26.2402234,22.5345982 C25.6443173,22.981029 25.1648063,23.4646551 24.801676,23.9854911 C24.4385457,24.506327 24.2569833,24.9992536 24.2569833,25.4642857 L24.2569833,29.9285714 C24.2569833,30.8028317 24.4757892,31.918892 24.9134078,33.2767857 C25.3510264,34.6346794 26.0353771,35.6856362 26.9664804,36.4296875 C27.2085673,36.6157003 27.3901297,36.8528631 27.5111732,37.1411831 C27.6322166,37.4295029 27.6741156,37.7317692 27.6368715,38.0479911 C27.5810053,38.3456116 27.4646191,38.6199764 27.2877095,38.8710938 C27.1107999,39.1222111 26.8826829,39.3128714 26.6033519,39.4430804 L18.7541899,43.1540179 C18.6424575,43.1912204 18.4888278,43.2795752 18.2932961,43.4190848 C18.0977644,43.5585944 18,43.8143582 18,44.1863839 L18,46 L43,45.9720982 L43,44.2421875 C43,43.7585541 42.8836138,43.4562878 42.650838,43.3353794 C42.4180621,43.2144711 42.2923651,43.1540179 42.273743,43.1540179 L34.4804469,39.4709821 C34.2011159,39.3407732 33.9683436,39.1501129 33.7821229,38.8989956 C33.5959022,38.6478782 33.4841715,38.3642129 33.4469274,38.0479911 C33.4096833,37.7317692 33.4515823,37.4295029 33.5726257,37.1411831 C33.6936691,36.8528631 33.8752316,36.6157003 34.1173184,36.4296875 C35.0856659,35.6856362 35.7700166,34.6300292 36.1703911,33.2628348 C36.5707655,31.8956405 36.7709497,30.7842304 36.7709497,29.9285714 L36.7709497,25.4642857 C36.7709497,24.9806523 36.5847318,24.4784252 36.2122905,23.9575893 C35.8398492,23.4367534 35.3603381,22.9577775 34.773743,22.5206473 C34.1871479,22.0835172 33.5167636,21.7207976 32.7625698,21.4324777 C32.0083761,21.1441578 31.2588492,21 30.5139665,21 Z" id="User---simple-line-icons-Copy" fill="#FFFFFF"></path>
                            <path d="M42.8813117,42.8916657 C43.3176314,43.1182988 43.5,43.5919279 43.5,44.2421875 L43.5,46.4715405 L17.5,46.5005583 L17.5,44.1863839 C17.5,43.6677342 17.6560267,43.259549 18.0028919,43.0120647 C18.2355809,42.8460438 18.426933,42.7359943 18.5404802,42.7019912 L26.392103,38.9898984 C26.5923727,38.8965435 26.7523724,38.7628156 26.8789576,38.5831321 C27.0147609,38.3903639 27.1028533,38.1826978 27.1403038,37.9895061 C27.1675053,37.7585511 27.1376445,37.5431307 27.0501531,37.3347301 C26.9625184,37.1259882 26.8346217,36.9589254 26.6543456,36.820292 C25.6425797,36.0117826 24.9039457,34.877463 24.4375114,33.4301564 C23.9852578,32.0268514 23.7569833,30.8624953 23.7569833,29.9285714 L23.7569833,25.4642857 C23.7569833,24.8873849 23.9738618,24.2985779 24.3915225,23.6995293 C24.7864483,23.1330893 25.3034714,22.6116292 25.9404379,22.1344375 C26.5735759,21.6601139 27.2841584,21.2707156 28.0709114,20.966189 C28.8727086,20.6558394 29.6880051,20.5 30.5139665,20.5 C31.3211858,20.5 32.131043,20.6557612 32.9411124,20.9654418 C33.737211,21.2697814 34.4481038,21.6544186 35.0725097,22.1197253 C35.6992586,22.586778 36.2154065,23.1023499 36.6190037,23.6667553 C37.0483047,24.2671061 37.2709497,24.8675766 37.2709497,25.4642857 L37.2709497,29.9285714 C37.2709497,30.8390174 37.0628492,31.9943781 36.6502389,33.4033553 C36.2212035,34.8684208 35.4780981,36.0146567 34.4219599,36.826164 C34.2491772,36.9589254 34.1212805,37.1259882 34.0336458,37.3347301 C33.9461543,37.5431307 33.9162936,37.7585511 33.9434951,37.9895061 C33.9705763,38.2194395 34.0497762,38.4205146 34.1837424,38.6011672 C34.3206007,38.7857197 34.4880407,38.9228672 34.6940861,39.0189221 L42.406356,42.6636656 C42.4788858,42.6823014 42.5821552,42.736278 42.8813117,42.8916657 Z M42.1652716,43.6499535 C42.1688596,43.6516791 42.1725577,43.653466 42.1763656,43.6553142 C42.1752105,43.6547621 42.1707027,43.6525655 42.1652716,43.6499535 Z M42.273743,43.6540179 L42.0601038,43.6060779 L34.2691981,39.9241641 C33.9141912,39.7586792 33.6160864,39.5145061 33.3805033,39.1968238 C33.1420282,38.8752417 32.9977667,38.5089861 32.9503596,38.1064761 C32.9030729,37.7049873 32.9570102,37.3158751 33.1116056,36.9476361 C33.2660577,36.579738 33.5012859,36.2724753 33.812677,36.0332111 C34.6932338,35.3566157 35.3188297,34.3916376 35.6905432,33.1223143 C36.0786818,31.7969028 36.2709497,30.7294434 36.2709497,29.9285714 L36.2709497,25.4642857 C36.2709497,25.0937282 36.121159,24.6897445 35.8055773,24.2484233 C35.4642919,23.7711569 35.0214178,23.328777 34.4749763,22.9215693 C33.9261919,22.5126157 33.296316,22.1718137 32.5840272,21.8995136 C31.8857092,21.6325544 31.1965126,21.5 30.5139665,21.5 C29.8129184,21.5 29.11985,21.6324762 28.4318818,21.8987663 C27.7288696,22.1708795 27.0986834,22.5162208 26.540009,22.9347589 C25.9851633,23.3504288 25.5431643,23.7962209 25.2118295,24.2714528 C24.9032295,24.7140761 24.7569833,25.1111224 24.7569833,25.4642857 L24.7569833,29.9285714 C24.7569833,30.7431682 24.9663207,31.8109326 25.3893043,33.123415 C25.798107,34.3918957 26.4281745,35.3594897 27.2711219,36.033211 C27.582513,36.2724753 27.8177411,36.579738 27.9721933,36.947636 C28.1267887,37.3158751 28.180726,37.7049873 28.1282889,38.1402348 C28.0591573,38.5085254 27.9144774,38.8495889 27.6964614,39.1590554 C27.4692274,39.4816065 27.1729932,39.7291992 26.8170617,39.8951071 L18.912145,43.6284124 C18.857982,43.6464466 18.7420747,43.7131067 18.5837003,43.826105 C18.5395021,43.8576399 18.5,43.9609823 18.5,44.1863839 L18.5,45.4994417 L42.5,45.4726559 L42.5,44.2421875 C42.5,43.9251804 42.4495962,43.7942768 42.4203644,43.7790932 C42.3151593,43.7244476 42.2334294,43.6830094 42.1763656,43.6553142 C42.2194688,43.6762846 42.1747433,43.6540179 42.273743,43.6540179 Z" id="User---simple-line-icons-Copy" fill="#1C3C55" fill-rule="nonzero"></path>
                        </g>
                    </g>
                </g>
            </g>
        </g>
    </g>
</svg>