<?xml version="1.0" encoding="UTF-8"?>
<svg width="31px" height="37px" viewBox="0 0 31 37" version="1.1" xmlns="http://www.w3.org/2000/svg" xmlns:xlink="http://www.w3.org/1999/xlink">
    <!-- Generator: Sketch 49 (51002) - http://www.bohemiancoding.com/sketch -->
    <title>Navigate a business directory icon</title>
    <desc>Created with Sketch.</desc>
    <defs></defs>
    <g id="Spending-bitcoin" stroke="none" stroke-width="1" fill="none" fill-rule="evenodd">
        <g id="22.01.18-Bitcoin.org_Spending-Bitcoin_Desktop-1200px--" transform="translate(-785.000000, -609.000000)">
            <g id="//contenct" transform="translate(215.000000, 567.000000)">
                <g id="box2" transform="translate(400.000000, 0.000000)">
                    <g id="Navigate-a-business-directory-icon" transform="translate(155.000000, 30.000000)">
                        <g>
                            <rect id="Rectangle-2" x="0" y="0" width="60" height="60"></rect>
                            <g id="big-dictionary" transform="translate(15.000000, 13.000000)">
                                <path d="M4.45923623,29.9131726 L25.294535,29.9131726 C25.4899576,29.9131726 25.6483052,30.0731254 25.6483052,30.2705291 C25.6483052,30.4679329 25.4899576,30.6278857 25.294535,30.6278857 L4.45923623,30.6278857 C4.2638843,30.6278857 4.10546599,30.4679329 4.10546599,30.2705291 C4.10546599,30.0731254 4.2638843,29.9131726 4.45923623,29.9131726 Z" id="Path" fill="#1C1F30"></path>
                                <path d="M25.294535,31.2351774 L4.45923623,31.2351774 C4.2638843,31.2351774 4.10546599,31.3951301 4.10546599,31.5925339 C4.10546599,31.7899377 4.2638843,31.9498904 4.45923623,31.9498904 L25.294535,31.9498904 C25.4899576,31.9498904 25.6483052,31.7899377 25.6483052,31.5925339 C25.6483052,31.3951301 25.4899576,31.2351774 25.294535,31.2351774 Z" id="Path" fill="#1C1F30"></path>
                                <path d="M28.68047,30.5245381 L28.68047,34.6426435 C28.68047,34.8400472 28.5221224,35 28.3266997,35 L4.86423241,35 C3.08165489,35 1,33.9179959 1,30.868601 L1,3.22714399 C0.999929246,1.44772282 2.43312327,0 4.1947576,0 L28.3267705,0 C28.5221932,0 28.6805407,0.159952788 28.6805407,0.357356542 L28.6805407,1.98640207" id="Path" stroke="#1C1F30"></path>
                                <path d="M27.973071,34.2854299 L27.9729295,33.3674524 L4.9889718,33.3674524 C3.62504599,33.3674524 2.51533948,32.2464964 2.51533948,30.868744 C2.51533948,29.4909916 3.62504599,28.3700356 4.9889718,28.3700356 L25.3954302,28.3700356 L27.9730003,28.3700356 L27.9730003,27.6270198 L4.3913831,27.6270198 C3.99685852,27.6270198 3.52882048,27.8065558 3.07337667,28.1324649 C3.01132536,28.1768486 2.93986377,28.1982185 2.86918048,28.1982185 C2.75830888,28.19829 2.64920614,28.1458301 2.58022094,28.0474855 C2.46729748,27.8863892 2.50500939,27.6633987 2.66434751,27.549259 C3.23830436,27.1385134 3.85167121,26.9123067 4.39145385,26.9123067 L4.51053292,26.9123067 L4.51053292,25.8127921 C4.51053292,25.6153884 4.66895124,25.4554356 4.86430317,25.4554356 C5.0596551,25.4554356 5.21807341,25.6153884 5.21807341,25.8127921 L5.21807341,26.9123067 L27.973071,26.9123067 L27.973071,0.714713084 L5.21800266,0.714713084 L5.21800266,23.0684368 C5.21800266,23.2658406 5.05958434,23.4257934 4.86423241,23.4257934 C4.66888048,23.4257934 4.51046217,23.2658406 4.51046217,23.0684368 L4.51046217,0.714713084 L4.1947576,0.714713084 C2.8232611,0.714713084 1.70754049,1.84181562 1.70754049,3.22714399 L1.70754049,30.868744 C1.70754049,34.1206885 4.33711474,34.2854299 4.86423241,34.2854299 L27.973071,34.2854299 Z" id="Path"></path>
                                <polygon id="Path" stroke="#95AABF" points="30.2924595 25.6239649 28.6805407 25.1370309 28.6805407 29.778735 30.2924595 29.2925157"></polygon>
                                <polygon id="Path" stroke="#95AABF" points="30.2924595 20.0227585 28.6805407 19.535896 28.6805407 24.1775286 30.2924595 23.6913093"></polygon>
                                <polygon id="Path" stroke="#95AABF" points="30.2924595 14.4216235 28.6805407 13.9346895 28.6805407 18.5763936 30.2924595 18.0901743"></polygon>
                                <polygon id="Path" stroke="#95AABF" points="30.2924595 8.82041711 28.6805407 8.33355455 28.6805407 12.9751872 30.2924595 12.4889679"></polygon>
                                <polygon id="Path" stroke="#95AABF" points="30.2924595 3.21928214 28.6805407 2.73234812 28.6805407 7.37405224 30.2924595 6.88776146"></polygon>
                                <path d="M7.8369638,16.1196389 L10.8203083,10.092392 C10.880237,9.97139106 11.0027122,9.89484529 11.1367204,9.89484529 C11.2707286,9.89484529 11.3932038,9.97131958 11.4531325,10.092392 L13.4503778,14.1275191 C13.4510854,14.1290915 13.4520052,14.1305209 13.4527127,14.1321647 L14.436477,16.1196389 C14.5238583,16.296173 14.4530335,16.5108728 14.278271,16.5990684 C14.2274696,16.6247266 14.173555,16.6368767 14.1203479,16.6368767 C13.990585,16.6368767 13.8656333,16.5644763 13.8036528,16.4392586 L12.9069867,14.6276753 L9.36652484,14.6276753 L8.46985877,16.4392586 C8.38247752,16.6157927 8.17000311,16.687264 7.99524061,16.598997 C7.82040735,16.5108728 7.74958255,16.296173 7.8369638,16.1196389 Z" id="Path" fill="#FF9500"></path>
                                <polygon id="Path" fill="#FFFFFF" points="9.72029509 13.9130337 12.5532165 13.9130337 11.1367204 11.0513225"></polygon>
                                <path d="M19.0923057,16.6380203 L25.058924,16.6380203 C25.2543467,16.6380203 25.4126942,16.4780675 25.4126942,16.2806637 C25.4126942,16.08326 25.2543467,15.9233072 25.058924,15.9233072 L19.9463779,15.9233072 L25.3090395,10.5060679 C25.4102886,10.4038639 25.4405006,10.2502006 25.3857369,10.1166922 C25.331044,9.98311235 25.2019887,9.8960603 25.058924,9.8960603 L19.7665918,9.8960603 C19.5711691,9.8960603 19.4128216,10.0560131 19.4128216,10.2534168 C19.4128216,10.4508206 19.5711691,10.6107734 19.7665918,10.6107734 L24.2048518,10.6107734 L18.8421902,16.0280127 C18.7409411,16.1302166 18.7107291,16.28388 18.7654928,16.4173884 C18.8201857,16.5509682 18.9491703,16.6380203 19.0923057,16.6380203 Z" id="Path" fill="#FF9500"></path>
                                <path d="M15.1145131,13.496356 L18.0978576,13.496356 C18.2932803,13.496356 18.4516278,13.3364032 18.4516278,13.1389994 C18.4516278,12.9415957 18.2932803,12.7816429 18.0978576,12.7816429 L15.1145131,12.7816429 C14.9191611,12.7816429 14.7607428,12.9415957 14.7607428,13.1389994 C14.7607428,13.3364032 14.9190904,13.496356 15.1145131,13.496356 Z" id="Path" fill="#FF9500"></path>
                                <path d="M0.989564495,31.3894797 C0.76575958,29.0019502 2.03060652,27.6789905 4.78410532,27.4206005 L27.5484205,27.4206005" id="Path-2" stroke="#1C1F30"></path>
                                <polyline id="Path-3" stroke="#1C1F30" points="28.3247875 1.67852668 27.1229817 1.67852668 27.1229817 27.4425192"></polyline>
                                <path d="M5.21595293,0.232146142 L5.21595293,23.8156445" id="Path-4" stroke="#1C1F30"></path>
                            </g>
                        </g>
                    </g>
                </g>
            </g>
        </g>
    </g>
</svg>