<?xml version="1.0" encoding="UTF-8"?>
<svg width="35px" height="38px" viewBox="0 0 35 38" version="1.1" xmlns="http://www.w3.org/2000/svg" xmlns:xlink="http://www.w3.org/1999/xlink">
    <!-- Generator: Sketch 49 (51002) - http://www.bohemiancoding.com/sketch -->
    <title>tips and donation icon</title>
    <desc>Created with Sketch.</desc>
    <defs></defs>
    <g id="Innovation" stroke="none" stroke-width="1" fill="none" fill-rule="evenodd">
        <g id="22.01.18-Bitcoin.org_Innovation_Desktop-1200px--" transform="translate(-383.000000, -1322.000000)">
            <g id="//contenct" transform="translate(215.000000, 697.000000)">
                <g id="box4" transform="translate(0.000000, 585.000000)">
                    <g id="tips-and-donation-icon" transform="translate(155.000000, 30.000000)">
                        <g>
                            <rect id="Rectangle-2" x="0" y="0" width="60" height="60"></rect>
                            <g id="donation" transform="translate(13.000000, 9.000000)">
                                <path d="M34.6863023,28.2270011 C34.0429277,27.0591143 32.6108516,26.6602748 31.5358034,27.312648 L24.8218617,30.7344216 C23.778326,31.2810722 22.7248786,31.2810722 20.4161259,31.2810722 C18.1593244,31.2810722 14.7136606,30.6843161 14.6792771,30.6788045 C14.3584784,30.6244759 14.0603742,30.8485905 14.0078761,31.1802886 C13.9547628,31.5132036 14.1694717,31.828367 14.4867842,31.8833399 C14.6320425,31.9089652 18.0619159,32.502715 20.4161259,32.502715 C22.8380092,32.502715 24.0536674,32.502715 25.3380927,31.8302281 L32.0823164,28.3907744 C32.3517791,28.2277169 32.6662207,28.1843399 32.9678111,28.2685886 C33.2682394,28.3534816 33.5202028,28.5556929 33.6753729,28.8378583 C33.831705,29.1206678 33.8731292,29.4498607 33.7926049,29.7650956 C33.7120805,30.0803306 33.5190407,30.3435274 33.2326255,30.5170355 L25.3456803,35.656997 C25.329343,35.6685928 23.6464657,36.7784288 19.8328369,36.7784288 C16.526621,36.7784288 11.4174248,33.8306529 11.3438729,33.7884927 C11.2913748,33.7616505 10.0261578,33.1135721 7.58328902,33.1135721 C7.26132825,33.1135721 7,33.3872195 7,33.7243577 C7,34.0614959 7.26132825,34.3351433 7.58328902,34.3351433 C9.70481228,34.3351433 10.7979067,34.8696254 10.8002308,34.8696254 L10.8002308,34.8689812 C11.0201348,34.9972512 16.2232533,38 19.8328369,38 C24.0443709,38 25.9120852,36.7295402 25.9739481,36.6861632 L33.8323202,31.564526 C34.3718608,31.2383394 34.7580087,30.7112299 34.9190574,30.0814758 C35.0811999,29.4504333 34.9978045,28.791976 34.6863023,28.2270011 Z" id="Shape" fill="#1C1F30" fill-rule="nonzero"></path>
                                <path d="M4.19999297,23 L0.599978906,23 C0.268805738,23 4.99602313e-16,23.256007 4.99602313e-16,23.5714118 C4.99602313e-16,23.8868167 0.268805738,24.1428237 0.599978906,24.1428237 L4.19999297,24.1428237 C4.53060364,24.1428237 4.79997187,24.3993663 4.79997187,24.7142355 L4.79997187,37.2857645 C4.79997187,37.6006337 4.53060364,37.8571763 4.19999297,37.8571763 L0.599978906,37.8571763 C0.268805738,37.8571763 0,38.1131833 0,38.4285882 C0,38.743993 0.268805738,39 0.599978906,39 L4.19999297,39 C5.19238747,39 6,38.2308407 6,37.2856975 L6,24.7143025 C6,23.7691593 5.19238747,23 4.19999297,23 Z" id="Shape" fill="#95AABF" fill-rule="nonzero"></path>
                                <path d="M7.56664232,26.1111328 L12.0999801,26.1111328 C12.7612509,26.1111328 13.8849731,26.9378255 14.8766138,27.6666667 C16.1198667,28.5811198 17.2945887,29.4444661 18.3332448,29.4444661 L21.7332315,29.4444661 C22.593986,29.4444661 23.0212421,29.8272135 23.0325975,29.8372396 C23.1430971,29.9455729 23.2881942,30 23.4332249,30 C23.578322,30 23.7233526,29.9455729 23.8338522,29.8372396 C24.0553826,29.619987 24.0553826,29.2688802 23.8338522,29.0516927 C23.7590791,28.9783854 23.0632107,28.3333333 21.7332315,28.3333333 L18.3332448,28.3333333 C17.6719739,28.3333333 16.5482518,27.5066406 15.5566111,26.7777995 C14.3133582,25.8633464 13.1386362,25 12.0999801,25 L7.56664232,25 C7.2538701,25 7,25.2488932 7,25.5555339 C7,25.8621745 7.2538701,26.1111328 7.56664232,26.1111328 Z" id="Shape" fill="#1C1F30" fill-rule="nonzero"></path>
                                <circle id="Oval" stroke="#FF9500" transform="translate(22.000000, 12.000000) rotate(10.000000) translate(-22.000000, -12.000000) " cx="22" cy="12" r="10"></circle>
                                <path d="M21.3173953,20.5055148 C25.6990173,20.5055148 29.2510237,16.9535083 29.2510237,12.5718864 C29.2510237,8.19026441 25.6990173,4.63825799 21.3173953,4.63825799" id="Oval" stroke="#FF9500" transform="translate(25.284209, 12.571886) rotate(10.000000) translate(-25.284209, -12.571886) "></path>
                                <path d="M3,35 C3,34.4486719 2.55132812,34 2,34 C1.44867188,34 1,34.4486719 1,35 C1,35.5513281 1.44867188,36 2,36 C2.55132812,36 3,35.5513281 3,35 Z" id="Shape" fill="#95AABF" fill-rule="nonzero"></path>
                            </g>
                        </g>
                    </g>
                </g>
            </g>
        </g>
    </g>
</svg>