<?xml version="1.0" encoding="UTF-8"?>
<svg width="41px" height="35px" viewBox="0 0 41 35" version="1.1" xmlns="http://www.w3.org/2000/svg" xmlns:xlink="http://www.w3.org/1999/xlink">
    <!-- Generator: Sketch 49 (51002) - http://www.bohemiancoding.com/sketch -->
    <title>cloud-computing copy 2</title>
    <desc>Created with Sketch.</desc>
    <defs></defs>
    <g id="new-TEMPLATE" stroke="none" stroke-width="1" fill="none" fill-rule="evenodd">
        <g id="Bitcoin.org---Bitcoin-core-Template" transform="translate(-836.000000, -9662.000000)" fill-rule="nonzero">
            <g id="Group-31" transform="translate(826.000000, 9649.000000)">
                <g id="cloud-computing-copy-2" transform="translate(10.000000, 13.000000)">
                    <path d="M34.3100962,11.2363462 C33.9553846,5.17865385 28.9618269,0.336538462 22.9411538,0.336538462 C19.2863462,0.336538462 15.7473077,2.12894231 13.5544231,5.05346154 C13.5046154,5.02721154 13.4514423,5.00971154 13.4009615,4.98480769 C13.2676923,4.92019231 13.1324038,4.85826923 12.99375,4.80375 C12.9163462,4.77346154 12.8389423,4.74586538 12.7608654,4.71826923 C12.6249038,4.67048077 12.4875962,4.62875 12.3469231,4.59038462 C12.2688462,4.56951923 12.1914423,4.54798077 12.1120192,4.52980769 C11.96125,4.49548077 11.8077885,4.46923077 11.6523077,4.44634615 C11.5836538,4.43625 11.5163462,4.42278846 11.4470192,4.41471154 C11.2249038,4.39048077 10.99875,4.375 10.7692308,4.375 C7.42942308,4.375 4.71153846,7.09221154 4.71153846,10.4326923 C4.71153846,10.5195192 4.71625,10.6043269 4.72230769,10.6891346 C1.92298077,12.215 0,15.4127885 0,18.6132692 C0,23.3806731 3.87826923,27.2596154 8.64567308,27.2596154 L12.1153846,27.2596154 C12.4869231,27.2596154 12.7884615,26.95875 12.7884615,26.5865385 C12.7884615,26.2143269 12.4869231,25.9134615 12.1153846,25.9134615 L8.64567308,25.9134615 C4.62067308,25.9134615 1.34615385,22.6389423 1.34615385,18.6132692 C1.34615385,15.8173077 3.16682692,12.915 5.67538462,11.7122115 L6.05769231,11.5298077 L6.05769231,11.1057692 C6.05769231,11.0229808 6.06307692,10.9381731 6.06778846,10.8533654 L6.07384615,10.7355769 L6.06576923,10.6090385 C6.06240385,10.5504808 6.05769231,10.4919231 6.05769231,10.4326923 C6.05769231,7.83528846 8.17115385,5.72115385 10.7692308,5.72115385 C10.9772115,5.72115385 11.1825,5.73932692 11.3864423,5.76625 C11.4389423,5.77298077 11.4907692,5.78173077 11.5425962,5.79048077 C11.7229808,5.82009615 11.9006731,5.85913462 12.0756731,5.90961538 C12.0985577,5.91634615 12.1221154,5.92038462 12.1443269,5.92711538 C12.3368269,5.98567308 12.5246154,6.06038462 12.7083654,6.14384615 C12.7548077,6.16471154 12.8005769,6.18759615 12.8463462,6.21048077 C13.0092308,6.29057692 13.16875,6.37942308 13.3222115,6.47903846 C14.6192308,7.31971154 15.4807692,8.77625 15.4807692,10.4326923 C15.4807692,10.8049038 15.7823077,11.1057692 16.1538462,11.1057692 C16.5253846,11.1057692 16.8269231,10.8049038 16.8269231,10.4326923 C16.8269231,8.57903846 15.9882692,6.91990385 14.6730769,5.80798077 C16.6021154,3.28394231 19.7803846,1.68269231 22.9411538,1.68269231 C28.1534615,1.68269231 32.4840385,5.81201923 32.935,11.0297115 C32.2471154,10.98125 31.2166346,10.9563462 30.1868269,11.1138462 C29.8193269,11.1697115 29.5669231,11.5129808 29.6227885,11.8804808 C29.6732692,12.2136538 29.96,12.4525962 30.2871154,12.4525962 C30.3207692,12.4525962 30.3550962,12.4499038 30.3894231,12.4445192 C31.8863462,12.2183654 33.4472115,12.4303846 33.5421154,12.4431731 C36.6759615,13.0388462 39.0384615,15.9256731 39.0384615,19.1638462 C39.0384615,22.8852885 36.0102885,25.9134615 32.2888462,25.9134615 L29.6153846,25.9134615 C29.2438462,25.9134615 28.9423077,26.2143269 28.9423077,26.5865385 C28.9423077,26.95875 29.2438462,27.2596154 29.6153846,27.2596154 L32.2888462,27.2596154 C36.7526923,27.2596154 40.3846154,23.6276923 40.3846154,19.1638462 C40.3846154,15.4693269 37.80875,12.1557692 34.3100962,11.2363462 Z" id="Shape" fill="#1C3C55"></path>
                    <path d="M21.3419231,18.0344231 C21.28,17.9718269 21.2052885,17.9226923 21.1225,17.8883654 C20.9582692,17.8203846 20.7725,17.8203846 20.6082692,17.8883654 C20.5254808,17.9226923 20.4514423,17.9718269 20.3888462,18.0344231 L15.0049038,23.4183654 C14.7417308,23.6815385 14.7417308,24.1069231 15.0049038,24.3700962 C15.1361538,24.5013462 15.3084615,24.5673077 15.4807692,24.5673077 C15.6530769,24.5673077 15.8253846,24.5013462 15.9566346,24.3700962 L20.1923077,20.1344231 L20.1923077,33.9903846 C20.1923077,34.3625962 20.4938462,34.6634615 20.8653846,34.6634615 C21.2369231,34.6634615 21.5384615,34.3625962 21.5384615,33.9903846 L21.5384615,20.1344231 L25.7741346,24.3700962 C25.9053846,24.5013462 26.0776923,24.5673077 26.25,24.5673077 C26.4223077,24.5673077 26.5946154,24.5013462 26.7258654,24.3700962 C26.9890385,24.1069231 26.9890385,23.6815385 26.7258654,23.4183654 L21.3419231,18.0344231 Z" id="Shape" fill="#FF9500" transform="translate(20.865385, 26.250421) rotate(-180.000000) translate(-20.865385, -26.250421) "></path>
                </g>
            </g>
        </g>
    </g>
</svg>