<?xml version="1.0" encoding="UTF-8"?>
<svg width="36px" height="35px" viewBox="0 0 36 35" version="1.1" xmlns="http://www.w3.org/2000/svg" xmlns:xlink="http://www.w3.org/1999/xlink">
    <!-- Generator: Sketch 49 (51002) - http://www.bohemiancoding.com/sketch -->
    <title>Cost efficiency ICON</title>
    <desc>Created with Sketch.</desc>
    <defs></defs>
    <g id="Innovation" stroke="none" stroke-width="1" fill="none" fill-rule="evenodd">
        <g id="22.01.18-Bitcoin.org_Innovation_Desktop-1200px--" transform="translate(-1183.000000, -740.000000)">
            <g id="//contenct" transform="translate(215.000000, 697.000000)">
                <g id="box3" transform="translate(798.000000, 0.000000)">
                    <g id="Cost-efficiency-ICON" transform="translate(157.000000, 30.000000)">
                        <g>
                            <rect id="Rectangle-2" x="0" y="0" width="60" height="60"></rect>
                            <g id="Group" transform="translate(13.000000, 13.000000)">
                                <rect id="Rectangle" stroke="#1C3C55" x="0.5" y="0.5" width="23" height="4" rx="2"></rect>
                                <rect id="Rectangle-Copy" stroke="#1C3C55" x="7.5" y="4.5" width="23" height="4" rx="2"></rect>
                                <rect id="Rectangle-Copy-2" stroke="#1C3C55" x="2.5" y="8.5" width="23" height="4" rx="2"></rect>
                                <rect id="Rectangle-Copy-3" stroke="#1C3C55" x="2.5" y="12.5" width="23" height="4" rx="2"></rect>
                                <rect id="Rectangle-Copy-4" stroke="#1C3C55" x="2.5" y="16.5" width="23" height="4" rx="2"></rect>
                                <rect id="Rectangle-Copy-5" stroke="#1C3C55" x="2.5" y="20.5" width="23" height="4" rx="2"></rect>
                                <rect id="Rectangle-Copy-6" stroke="#1C3C55" x="2.5" y="24.5" width="23" height="4" rx="2"></rect>
                                <circle id="Oval" fill="#FFFFFF" cx="23.5" cy="22.5" r="11.5"></circle>
                                <path d="M29.7990196,20.9081365 C29.6526838,21.9047895 29.1939291,22.5925222 28.4783534,22.974356 C29.5053382,23.7611784 29.8109133,24.8732003 29.2906325,26.3695828 C28.577356,28.4226565 27.0286712,28.9734813 24.3666871,28.5281673 L23.7915356,30.8499459 L21.73634,30.3340195 L22.2986227,28.0649231 C22.157675,28.0287364 22.0180625,27.9922892 21.8792478,27.9554197 L21.3166379,30.2285812 L19.2631596,29.7124979 L19.8334414,27.4060285 C19.771257,27.3897132 19.7003406,27.3710831 19.6173022,27.3492609 C19.4472478,27.3047252 19.3169678,27.2710516 19.189798,27.2389516 L17,26.6890765 L17.965528,24.4465228 L18.2578778,24.5248391 C18.2927765,24.534188 18.3330621,24.5449391 18.3772137,24.556673 L19.2522983,24.7748235 C19.3791158,24.806438 19.4267329,24.7717631 19.4585901,24.7010083 L20.2776173,21.3934492 L20.3609101,21.0567067 L20.4422572,20.7285674 L20.9932917,18.5263127 C21.0066451,18.2929563 20.9203613,18.1559977 20.6160881,18.0794821 L19.8579614,17.888836 C19.7709298,17.8650257 19.6884073,17.8458124 19.6231768,17.8307541 L19.2768086,17.7507961 L19.8129047,15.5826707 L20.1546411,15.6699733 L22.0494245,16.1540333 C22.2142115,16.1953027 22.3726562,16.2333727 22.5863141,16.2831281 L23.1519787,14 L25.2062973,14.5160002 L24.6552394,16.7414329 C24.8186091,16.7793496 24.9532631,16.8110123 25.076833,16.8406775 L25.6260399,14.6214978 L27.6812164,15.1374194 L27.1093644,17.4479268 C29.0745306,18.195722 30.0425865,19.2681472 29.7990196,20.9081365 Z M23.8457323,27.719984 L24.1713071,27.7820465 C26.7344864,28.2706504 28.0284654,27.8695742 28.6294292,26.1397779 C29.1256421,24.7126172 28.7458118,23.8387099 27.5329435,23.2026409 L26.6983909,22.7649733 L27.6163066,22.551756 C28.4558984,22.3567321 28.9585912,21.8134398 29.1065297,20.805875 C29.3002472,19.5015304 28.466411,18.6548286 26.5792643,18.0000352 L26.2775098,17.8953338 L26.8341016,15.6464834 L26.1368127,15.4714393 L25.5880467,17.6888373 L25.2474492,17.6033454 C24.9463967,17.5277795 24.6818653,17.4655036 24.1516052,17.3435951 L23.8047386,17.2638493 L24.3591301,15.0249541 L23.6625513,14.8499887 L23.1002159,17.1196793 L22.7649489,17.0427655 C22.3559913,16.9489464 22.1255898,16.8947266 21.8777648,16.8326571 L20.3231146,16.4354941 L20.1267275,17.2297392 C20.1780964,17.2419246 20.2308506,17.2545101 20.2836313,17.2671953 C20.454415,17.3083722 20.5684956,17.3366634 20.6518311,17.3584901 C20.717324,17.375868 20.717324,17.375868 20.7696334,17.3911907 C20.7942597,17.3988275 20.7942597,17.3988275 20.8268545,17.4111168 C21.4506859,17.5836349 21.7227442,18.0294264 21.6824711,18.6303869 L21.0404122,21.2248641 L20.8705178,21.1828201 L21.0380483,21.2347835 L20.1233117,24.915083 C19.9643969,25.3125089 19.6207432,25.5700147 19.1227978,25.4632716 C19.0815224,25.4570339 19.0815224,25.4570339 19.0565481,25.4519095 C19.0020824,25.4399814 19.0020824,25.4399814 18.9325152,25.4232516 C18.8440922,25.4017421 18.7239502,25.3711838 18.5795276,25.3336595 C18.4935041,25.3112742 18.4299942,25.2946337 18.3693706,25.2786729 L17.9681892,26.2104644 L19.3606984,26.5601343 C19.4906383,26.5929333 19.6227562,26.6270819 19.7946449,26.672098 C20.0718804,26.7449533 20.2123415,26.7817939 20.3435848,26.8156502 L20.6790941,26.9022003 L20.1100716,29.2035767 L20.8059228,29.3784591 L21.3717381,27.0923466 L21.7176317,27.1869067 C22.0749483,27.2845895 22.4348465,27.3785269 22.8070284,27.4716333 L23.1458103,27.5563843 L22.5836459,29.8250035 L23.2809156,30.0000428 L23.8457323,27.719984 Z M22.8289162,25.7294109 C23.251158,25.8357307 23.6518949,25.912911 24.0248777,25.9522801 C25.0787712,26.0635205 25.6874781,25.8604523 25.8006677,25.3118922 C25.9374547,24.6504108 25.3839753,24.1285322 24.2430175,23.703472 C23.9603569,23.5981677 23.6632329,23.5066282 23.3135641,23.412188 C23.2791712,23.402899 23.1275052,23.3634227 22.9731904,23.3227985 L22.3871451,25.6101014 C22.5459382,25.6561471 22.6621578,25.6874213 22.8289162,25.7294109 Z M22.4735973,22.4523711 L22.8229686,22.5575328 C22.4786416,22.4538894 23.9887512,22.8617468 24.4873926,23.047514 C25.9169305,23.5800838 26.7174995,24.3349446 26.4861951,25.4534976 C26.2755117,26.4745503 25.3210096,26.7929779 23.9513995,26.6484129 C23.5416665,26.6051648 23.1098379,26.5219964 22.6579925,26.4082224 C22.3846888,26.3394049 22.2408965,26.2980764 21.8639837,26.1851976 L21.5418988,26.0887389 L22.4735973,22.4523711 Z M25.0549387,21.542083 C25.8286062,21.5622925 26.2602726,21.3360479 26.3486494,20.8004056 C26.4619562,20.1125424 26.0525622,19.6724782 25.1689028,19.3455188 C24.9672804,19.2709173 24.5344769,19.1514897 24.2186013,19.0655001 L23.613631,21.285982 C24.0519685,21.4208481 24.5894222,21.529923 25.0549387,21.542083 Z M23.7364479,18.1722655 L24.0964841,18.3080308 C24.1145042,18.314826 25.039963,18.5514302 25.4118126,18.6890168 C26.5720254,19.1183027 27.2203661,19.8152145 27.0393267,20.914269 C26.8816779,21.8697616 26.117871,22.2700873 25.0366597,22.2418443 C24.3676603,22.224369 23.6054811,22.0421093 23.0660215,21.8386856 L22.7681358,21.7263565 L23.7364479,18.1722655 Z" id="path3096" fill="#FF9500" fill-rule="nonzero"></path>
                                <circle id="Oval" stroke="#FF9500" cx="23.5" cy="22.5" r="11.5"></circle>
                            </g>
                        </g>
                    </g>
                </g>
            </g>
        </g>
    </g>
</svg>