<?xml version="1.0" encoding="UTF-8"?>
<svg width="80px" height="67px" viewBox="0 0 80 67" version="1.1" xmlns="http://www.w3.org/2000/svg" xmlns:xlink="http://www.w3.org/1999/xlink">
    <!-- Generator: Sketch 55.1 (78136) - https://sketchapp.com -->
    <title>Group</title>
    <desc>Created with Sketch.</desc>
    <g id="Flow-2" stroke="none" stroke-width="1" fill="none" fill-rule="evenodd">
        <g id="Bitcoin.org---Wallet-Flow-2.06-empty--Desktop" transform="translate(-904.000000, -516.000000)">
            <g id="Content" transform="translate(213.000000, 443.000000)">
                <g id="Table" transform="translate(302.000000, 0.000000)">
                    <g id="Wallet">
                        <g id="Group" transform="translate(389.000000, 74.000000)">
                            <g id="portfel-lewy-copy" transform="translate(46.000000, 27.000000) scale(-1, 1) translate(-46.000000, -27.000000) translate(13.000000, 0.000000)" stroke="#1C3C55">
                                <path d="M2.37090909,10.4157303 L2.37090909,0.490085134 L54.3615554,0.00360128972 C58.2538884,-0.0464301743 61.0812109,0.424840642 62.843523,1.41741374 C64.6058352,2.40998684 65.3796768,4.05213967 65.1650478,6.34387225" id="Path-97" fill="#FFFFFF"></path>
                                <path d="M0.0386509666,15.0516325 L0.446920969,45.3437673 C0.505897399,49.7196018 4.06996253,53.2359551 8.44619447,53.2359551 L57.2,53.2359551 C61.618278,53.2359551 65.2,49.6542331 65.2,45.2359551 L65.2,6.94382022 L8.03792447,6.94382022 C3.61964647,6.94382022 0.0379244659,10.5255422 0.0379244659,14.9438202 C0.0379244659,14.9797589 0.0381666383,15.0156971 0.0386509666,15.0516325 Z" id="Path-96" fill="#FFFFFF"></path>
                                <g id="Group-3" transform="translate(10.152727, 28.061798) rotate(180.000000) translate(-10.152727, -28.061798) translate(0.152727, 22.561798)">
                                    <path d="M0.5,0.5 L0.5,9.91573034 L14.9956859,9.91573034 C17.4809673,9.91573034 19.4956859,7.90101171 19.4956859,5.41573034 L19.4956859,5 C19.4956859,2.51471863 17.4809673,0.5 14.9956859,0.5 L0.5,0.5 Z" id="Rectangle-9" transform="translate(9.997843, 5.207865) rotate(180.000000) translate(-9.997843, -5.207865) "></path>
                                    <ellipse id="Oval" cx="5.37406061" cy="5.20786517" rx="2.6870303" ry="2.60393258"></ellipse>
                                </g>
                            </g>
                            <g id="search" transform="translate(0.000000, 32.000000)" fill-rule="nonzero">
                                <path d="M13.3320337,25.5060549 C6.61136417,25.4985522 1.16505177,20.052334 1.15754889,13.3317808 C1.15754889,6.60811322 6.60824977,1.15750665 13.3320337,1.15750665 C20.0558176,1.15750665 25.5065185,6.60811322 25.5065185,13.3317808 C25.5065185,20.0554484 20.0558176,25.5060549 13.3320337,25.5060549 Z" id="Path" fill="#FFFFFF"></path>
                                <path d="M33.247792,29.6158634 L24.3774058,20.7450644 C28.4782253,14.6384626 26.8521529,6.36384914 20.7454455,2.26310062 C14.6387381,-1.83764791 6.36398147,-0.211532944 2.26316199,5.89506881 C-1.83765749,12.0016706 -0.211585171,20.276284 5.89512224,24.3770326 C10.3859499,27.3926427 16.2546178,27.3926427 20.7454455,24.3770326 L29.6158318,33.2478316 C30.6187403,34.2507228 32.2448834,34.2507228 33.247792,33.2478316 C34.2507006,32.2449404 34.2507714,30.6188254 33.247792,29.6158634 Z M13.3320337,25.5060549 C6.61136417,25.4985522 1.16505177,20.052334 1.15754889,13.3317808 C1.15754889,6.60811322 6.60824977,1.15750665 13.3320337,1.15750665 C20.0558176,1.15750665 25.5065185,6.60811322 25.5065185,13.3317808 C25.5065185,20.0554484 20.0558176,25.5060549 13.3320337,25.5060549 Z M32.4476736,32.4465945 C32.1783485,32.7161272 31.8128308,32.8674563 31.4318119,32.867321 C31.0508638,32.8684472 30.6852753,32.7171889 30.4165165,32.4471607 L21.7771623,23.807319 L23.8077531,21.7767633 L32.4471073,30.4165343 C33.0078414,30.9769756 33.0081246,31.8858701 32.4476736,32.4465945 Z" id="Shape" fill="#FF7E00"></path>
                                <path d="M14.0286428,3 L14,4.16049669 C16.7967979,4.23824997 19.4172803,5.64469943 21.1536851,8 L22,7.27817106 C20.0647842,4.65414297 17.1450382,3.08710978 14.0286428,3 Z" id="Path" fill="#FF7E00"></path>
                            </g>
                        </g>
                    </g>
                </g>
            </g>
        </g>
    </g>
</svg>