<?xml version="1.0" encoding="UTF-8"?>
<svg width="340px" height="319px" viewBox="0 0 340 319" version="1.1" xmlns="http://www.w3.org/2000/svg" xmlns:xlink="http://www.w3.org/1999/xlink">
    <!-- Generator: Sketch 49 (51002) - http://www.bohemiancoding.com/sketch -->
    <title>bitcoin is still experimental</title>
    <desc>Created with Sketch.</desc>
    <defs>
        <rect id="path-1" x="15" y="141" width="6" height="119"></rect>
        <rect id="path-2" x="163" y="141" width="6" height="119"></rect>
        <rect id="path-3" x="0" y="136" width="184" height="8"></rect>
    </defs>
    <g id="Things-you-need-to-know" stroke="none" stroke-width="1" fill="none" fill-rule="evenodd">
        <g id="22.01.18-Bitcoin.org_things-you-need-to-know-Desktop-1200px--" transform="translate(-943.000000, -3327.000000)">
            <g id="//body" transform="translate(215.000000, 717.000000)">
                <g id="2" transform="translate(0.000000, 2579.000000)">
                    <g id="secend-illustration" transform="translate(700.000000, 16.000000)">
                        <g id="bitcoin-is-still-experimental">
                            <g id="Group-Copy" transform="translate(199.000000, 163.500000) scale(-1, -1) rotate(-123.000000) translate(-199.000000, -163.500000) translate(23.000000, -3.000000)">
                                <g id="Group-8" opacity="0.200000003" transform="translate(11.000000, 1.000000)" stroke="#979797">
                                    <path d="" id="Path-2"></path>
                                    <polyline id="Path-6" points="172.530655 193.340164 204.693269 327.346392 328.881607 85.6762295 1.47007415 169.903185 297.858759 256.61104 207.292527 2.35704546"></polyline>
                                    <polyline id="Path-9" points="171.012685 193.340164 108.775899 62.1721311 210.479915 0.758196721"></polyline>
                                    <path d="M86.7653277,305.553279 L0.836588691,169.439489" id="Path-10"></path>
                                    <polyline id="Path-11" points="328.881607 85.6762295 207.064482 -6.11066753e-12 205.320357 328.955086 1 169.077869 108.775899 61.4139344"></polyline>
                                </g>
                                <g id="dots" transform="translate(110.000000, 54.000000)">
                                    <circle id="Oval-2" fill="#C4C4C4" cx="9.5" cy="9.5" r="2.66"></circle>
                                    <circle id="Oval-2" stroke="#CACACA" cx="9.5" cy="9.5" r="9.5"></circle>
                                </g>
                                <g id="dots" transform="translate(298.060651, 247.795247)">
                                    <circle id="Oval-2" fill="#C4C4C4" cx="9.5" cy="9.5" r="2.66"></circle>
                                    <circle id="Oval-2" stroke="#CACACA" cx="9.5" cy="9.5" r="9.5"></circle>
                                </g>
                                <g id="dots" transform="translate(246.089278, 99.322659)">
                                    <circle id="Oval-2" fill="#C4C4C4" cx="9.5" cy="9.5" r="2.66"></circle>
                                    <circle id="Oval-2" stroke="#CACACA" cx="9.5" cy="9.5" r="9.5"></circle>
                                </g>
                                <g id="dots" transform="translate(87.000000, 297.000000)">
                                    <circle id="Oval-2" fill="#C4C4C4" cx="9.5" cy="9.5" r="2.66"></circle>
                                    <circle id="Oval-2" stroke="#CACACA" cx="9.5" cy="9.5" r="9.5"></circle>
                                </g>
                                <circle id="Oval-2" fill="#7B7B7B" cx="216.322659" cy="328.910722" r="4"></circle>
                                <circle id="Oval-2" fill="#7B7B7B" cx="219" cy="3" r="3"></circle>
                                <g id="Group-7" transform="translate(325.000000, 74.000000)">
                                    <circle id="Oval-2" fill="#FF7E00" cx="13.5" cy="13.5" r="4.24285714"></circle>
                                    <circle id="Oval-2" stroke="#FF7E00" cx="13.5" cy="13.5" r="13.5"></circle>
                                </g>
                                <g id="Group-7" transform="translate(0.000000, 158.000000)">
                                    <circle id="Oval-2" fill="#FF7E00" cx="13.5" cy="13.5" r="4.24285714"></circle>
                                    <circle id="Oval-2" stroke="#FF7E00" cx="13.5" cy="13.5" r="13.5"></circle>
                                </g>
                            </g>
                            <g id="ludzik-i-chemical" transform="translate(92.000000, 40.000000)">
                                <path d="M72.7366219,238 L73.7658861,250.190136 C73.7658861,250.190136 69.6488292,255.269359 66.5610365,258.316893 C64.502508,260.348583 68.6195649,260.348583 70.6780934,259.332738 C72.7366219,258.316893 81.5419774,256.054607 80.9707358,253.23767 C79.9414715,248.158447 82,239.015845 82,239.015845 L72.7366219,238 Z" id="Fill-11" stroke="#1C3C55" fill="#FFFFFF"></path>
                                <path d="M100.478535,239 L99.4253647,251.223311 C99.4253647,251.223311 102.45323,255.430167 105.744388,258.353576 C109.184043,261.409403 104.691218,261.409403 102.584876,260.390794 C100.478535,259.372185 91.4686609,257.103742 92.0531706,254.279139 C93.1063412,249.186092 91,240.018609 91,240.018609 L100.478535,239 Z" id="Fill-13" stroke="#1C3C55" fill="#FFFFFF"></path>
                                <path d="M110.894077,127.466384 C109.876356,156.972606 100.716872,245.491272 100.716872,245.491272 C100.716872,245.491272 90.5396679,247.526184 90.5396679,243.45636 C90.5396679,239.261389 88.5042271,144.763135 87.4865067,133.57112 C86.4687862,122.379104 83.4156249,243.45636 83.4156249,243.45636 C83.4156249,243.45636 81.3801841,245.491272 77.3093024,245.491272 C73.2384206,245.491272 72.2207002,244.473816 72.2207002,244.473816 C72.2207002,244.473816 63.0612163,155.95515 64.0789368,133.57112 C65.0966572,111.187089 65.9171045,101.007103 68.9702658,97.9547355 C72.023427,94.9023677 101.379957,100.071047 103.151185,100.911909 C108.991593,98.9440777 111.572557,107.795569 110.894077,127.466384 Z" id="Fill-15" stroke="#1C3C55" fill="#FFFFFF"></path>
                                <path d="M104.905475,57.4143521 C98.2116025,44.4747169 91.7289429,44.182473 91.7289429,44.182473 C86.6948201,43.1694392 90.7221184,30 90.7221184,30 L82.6675219,30 C83.6743465,32.0260676 83.6743465,42.1564054 81.6606974,43.1694392 C79.6470482,44.182473 74.4189873,43.3926852 69.3848645,51.4969555 C68.2466396,53.3293467 66.2196925,56.5725621 63.3040232,61.2266018 L69.7992395,70.1187935 C72.0830055,67.0044391 73.3205552,65.2511264 73.5118886,64.8588554 C73.3014622,65.325864 61.6502714,105.602576 66.3551626,106.549763 C71.3892854,107.562797 104.026765,106.549763 108.680576,106.549763 C111.372503,106.549763 96.1359063,66.8974976 97.1527991,64.1754758 C98.2927421,64.6171482 99.6714323,65.7584781 101.288869,67.5994655 L107.88628,63.2252825 C106.663069,60.8281697 105.669467,58.8911929 104.905475,57.4143521 Z" id="Fill-17" stroke="#FF9500" fill="#FFFFFF"></path>
                                <g id="Rectangle-2">
                                    <use fill="#FFFFFF" fill-rule="evenodd" xlink:href="#path-1"></use>
                                    <rect stroke="#1C3C55" stroke-width="1" x="15.5" y="141.5" width="5" height="118"></rect>
                                </g>
                                <g id="Rectangle-2">
                                    <use fill="#FFFFFF" fill-rule="evenodd" xlink:href="#path-2"></use>
                                    <rect stroke="#1C3C55" stroke-width="1" x="163.5" y="141.5" width="5" height="118"></rect>
                                </g>
                                <g id="Rectangle">
                                    <use fill="#FFFFFF" fill-rule="evenodd" xlink:href="#path-3"></use>
                                    <rect stroke="#1C3C55" stroke-width="1" x="0.5" y="136.5" width="183" height="7"></rect>
                                </g>
                                <g id="chemical" transform="translate(37.000000, 72.000000)" fill="#1C3C55" fill-rule="nonzero">
                                    <g id="flasks" transform="translate(44.000000, 14.500000) rotate(-226.000000) translate(-44.000000, -14.500000) translate(37.000000, 2.000000)">
                                        <path d="M9.41084517,9.98628975 L9.41084517,2.31170747 C9.99484393,2.24739317 10.4505439,1.75534754 10.4505439,1.15951264 C10.4505439,0.520131605 9.92585992,0 9.28088283,0 L4.08238932,0 C3.43741223,0 2.91272828,0.520131605 2.91272828,1.15951264 C2.91272828,1.75529601 3.36842822,2.24739317 3.95242698,2.31170747 L3.95242698,8.50525714 C3.95242698,8.71871053 4.12699239,8.89176135 4.34231399,8.89176135 C4.55763559,8.89176135 4.73220101,8.71871053 4.73220101,8.50525714 L4.73220101,2.31902529 L6.94156075,2.31902529 C7.15688235,2.31902529 7.33144776,2.14597447 7.33144776,1.93252107 C7.33144776,1.71906768 7.15688235,1.54601686 6.94156075,1.54601686 L4.08238932,1.54601686 C3.86737962,1.54601686 3.6925023,1.37265683 3.6925023,1.15951264 C3.6925023,0.946368452 3.86737962,0.773008429 4.08238932,0.773008429 L9.28088283,0.773008429 C9.49589252,0.773008429 9.67076984,0.946368452 9.67076984,1.15951264 C9.67076984,1.37265683 9.49589252,1.54601686 9.28088283,1.54601686 L8.5011088,1.54601686 C8.2857872,1.54601686 8.11122179,1.71906768 8.11122179,1.93252107 C8.11122179,2.14597447 8.2857872,2.31902529 8.5011088,2.31902529 L8.63107114,2.31902529 L8.63107114,10.051274 C8.63107114,10.0942533 8.63829704,10.1369749 8.65248893,10.1775836 L12.4416189,21.0385581 C12.6704566,21.6944815 12.6188355,22.3029422 12.296321,22.751854 C11.9737545,23.2007142 11.4106016,23.4479739 10.7105205,23.4479739 L2.65285559,23.4479739 C1.95277446,23.4479739 1.38956968,23.2007658 1.06700316,22.751854 C0.744488618,22.3029422 0.692867577,21.6944815 0.921705261,21.0386097 L4.7108352,10.1776866 C4.7812228,9.97593144 4.67330207,9.75583017 4.46983304,9.68605328 C4.266364,9.61632792 4.04428436,9.72326075 3.97389676,9.92496442 L0.184714836,20.7858874 C-0.128858292,21.684587 -0.0410557369,22.5420595 0.431851218,23.2002504 C0.904758173,23.8584413 1.69352559,24.2209308 2.6528036,24.2209308 L10.7104685,24.2209308 C11.6697466,24.2209308 12.458514,23.8584413 12.9314209,23.2002504 C13.4043279,22.5420595 13.4921304,21.684587 13.1785573,20.7858874 L9.41084517,9.98628975 Z" id="Shape"></path>
                                    </g>
                                    <g id="flasks-copy" transform="translate(0.000000, 40.000000)">
                                        <path d="M9.41084517,9.98628975 L9.41084517,2.31170747 C9.99484393,2.24739317 10.4505439,1.75534754 10.4505439,1.15951264 C10.4505439,0.520131605 9.92585992,0 9.28088283,0 L4.08238932,0 C3.43741223,0 2.91272828,0.520131605 2.91272828,1.15951264 C2.91272828,1.75529601 3.36842822,2.24739317 3.95242698,2.31170747 L3.95242698,10.051274 C3.95242698,10.2647274 4.12699239,10.4377782 4.34231399,10.4377782 C4.55763559,10.4377782 4.73220101,10.2647274 4.73220101,10.051274 L4.73220101,2.31902529 L8.83633303,2.31902529 C9.05165463,2.31902529 9.22622004,2.14597447 9.22622004,1.93252107 C9.22622004,1.71906768 9.05165463,1.54601686 8.83633303,1.54601686 L4.08238932,1.54601686 C3.86737962,1.54601686 3.6925023,1.37265683 3.6925023,1.15951264 C3.6925023,0.946368452 3.86737962,0.773008429 4.08238932,0.773008429 L9.28088283,0.773008429 C9.49589252,0.773008429 9.67076984,0.946368452 9.67076984,1.15951264 C9.67076984,1.37265683 9.49589252,1.54601686 9.28088283,1.54601686 L8.5011088,1.54601686 C8.2857872,1.54601686 8.11122179,1.71906768 8.11122179,1.93252107 C8.11122179,2.14597447 8.2857872,2.31902529 8.5011088,2.31902529 L8.63107114,2.31902529 L8.63107114,10.051274 C8.63107114,10.0942533 8.63829704,10.1369749 8.65248893,10.1775836 L12.4416189,21.0385581 C12.6704566,21.6944815 12.6188355,22.3029422 12.296321,22.751854 C11.9737545,23.2007142 11.4106536,23.8226685 10.7105725,23.8226685 L2.65290757,23.8226685 C1.95282645,23.8226685 1.38956968,23.2007658 1.06700316,22.751854 C0.744488618,22.3029422 0.692867577,21.6944815 0.921705261,21.0386097 L4.7108352,10.1776866 C4.7812228,9.97593144 4.67330207,9.75583017 4.46983304,9.68605328 C4.266364,9.61632792 4.04428436,9.72326075 3.97389676,9.92496442 L0.184714836,20.7858874 C-0.128858292,21.684587 -0.0410557369,22.5420595 0.431851218,23.2002504 C0.904758173,23.8584413 1.69357758,24.5956254 2.65285559,24.5956254 L10.7105205,24.5956254 C11.6697985,24.5956254 12.458514,23.8584413 12.9314209,23.2002504 C13.4043279,22.5420595 13.4921304,21.684587 13.1785573,20.7858874 L9.41084517,9.98628975 Z" id="Shape"></path>
                                    </g>
                                    <g id="flasks" transform="translate(61.500000, 16.500000) scale(-1, 1) rotate(-208.000000) translate(-61.500000, -16.500000) translate(57.000000, 5.000000)">
                                        <path d="M7.41084517,2.31170747 C7.99484393,2.24739317 8.45054387,1.75534754 8.45054387,1.15951264 C8.45054387,0.520131605 7.92585992,0 7.28088283,0 L2.08238932,0 C1.43741223,0 0.912728276,0.520131605 0.912728276,1.15951264 C0.912728276,1.75529601 1.36842822,2.24739317 1.95242698,2.31170747 L1.95242698,8.50525714 C1.95242698,8.71871053 2.12699239,8.89176135 2.34231399,8.89176135 C2.55763559,8.89176135 2.73220101,8.71871053 2.73220101,8.50525714 L2.73220101,2.31902529 L4.94156075,2.31902529 C5.15688235,2.31902529 5.33144776,2.14597447 5.33144776,1.93252107 C5.33144776,1.71906768 5.15688235,1.54601686 4.94156075,1.54601686 L2.08238932,1.54601686 C1.86737962,1.54601686 1.6925023,1.37265683 1.6925023,1.15951264 C1.6925023,0.946368452 1.86737962,0.773008429 2.08238932,0.773008429 L7.28088283,0.773008429 C7.49589252,0.773008429 7.67076984,0.946368452 7.67076984,1.15951264 C7.67076984,1.37265683 7.49589252,1.54601686 7.28088283,1.54601686 L6.5011088,1.54601686 C6.2857872,1.54601686 6.11122179,1.71906768 6.11122179,1.93252107 C6.11122179,2.14597447 6.2857872,2.31902529 6.5011088,2.31902529 L6.63107114,2.31902529 L5.82393885,20.1808973 C5.75968599,20.7873622 4.98647685,22.1357635 3.83010679,22.1044841 C2.65085205,22.0725856 2.02934224,20.7379576 1.97608433,19.8949924 L2.7108352,10.1776866 C2.7812228,9.97593144 2.67330207,9.75583017 2.46983304,9.68605328 C2.266364,9.61632792 2.04428436,9.72326075 1.97389676,9.92496442 C1.38898138,15.6271062 1.11209148,18.9607364 1.14322705,19.925855 C1.18993042,21.3735329 2.11569888,22.7460628 3.76818444,22.8860457 C5.42066999,23.0260285 6.7373449,21.344322 6.7001471,19.9363434 L7.41084517,2.31170747 Z" id="Shape"></path>
                                    </g>
                                </g>
                                <path d="M63.1025723,61.6273383 C56.8093211,71.5189283 52.9571485,83.5221478 52.8795908,84.7105175 C51.9314104,99.2389116 78.553463,86.9993673 81.5655395,87.9998274 C82.8696729,88.4329948 84.82109,89.0160855 85.6337721,90.9767889 C86.4464542,92.9374923 90.0070238,93.7823792 88.7239356,89.2613911 C88.0354649,86.8355497 85.5157745,85.5081455 82.569565,84.0164005 C74.3600216,79.8596884 61.6077032,88.2889955 62.7685929,84.0164005 C64.104843,79.098401 66.3329532,74.5783884 69.4529235,70.4563627" id="Fill-17" stroke="#1C3C55" fill="#FFFFFF"></path>
                                <path d="M101.477057,67.9349462 C102.463616,69.5475896 107.050329,76.873176 106.605462,80.9149899 C106.160595,84.9568038 89.7613834,81.844026 91.0683914,87.8080503 C92.3753995,93.7720746 94.3837031,92.7142766 95.4114577,88.731537 C96.4392124,84.7487974 116.544455,91.5942896 115.708296,81.844026 C115.150857,75.3438503 112.619835,69.2748948 108.11523,63.6371595" id="Fill-17" stroke="#1C3C55" fill="#FFFFFF"></path>
                                <path d="M83.8137803,35.310585 C83.8137803,35.310585 85.0042072,37.234195 89.2160811,36.9761862 C93.4290103,36.7181774 96.3153734,32.5481974 95.9723869,27.5772943 C95.6304558,22.6073873 95.1523854,15.6491191 88.7654496,15.0414536 C82.3785139,14.4347842 79.6293454,20.5931256 80.0398738,26.5572131 C80.4493469,32.5222969 83.8137803,35.310585 83.8137803,35.310585" id="Fill-19" stroke="#1C3C55" fill="#FFFFFF" transform="translate(88.000000, 26.000000) scale(-1, 1) rotate(5.000000) translate(-88.000000, -26.000000) "></path>
                                <path d="M91.7707881,5.08985914 C92.6786924,6.04439032 92.62594,10.6215561 93.5338442,10.6215561 C94.4417485,10.6215561 99.6954063,7.07081251 99.6954063,8.97987488 C99.6954063,10.8889372 95.5097628,13.2071991 97.3255714,14.1606859 C99.1403866,15.1152171 101,15.5115836 101,16.4661148 C101,17.4196017 95.5381528,16.1931287 94.6302485,17.1466155 C93.7213509,18.1021911 96.2742108,19.001372 93.2942187,19.001372 C90.1990002,19.001372 91.5598628,19.7581838 88.7507235,21.2348874 C86.7640621,22.2792323 87.5765175,21.5907396 85.589856,21.5907396 C84.2643441,21.5907396 80.1641003,29.9771064 78.6870435,29.9999866 C77.9027085,30.0121362 81.266553,21.7767505 80.7687157,22.2997929 C79.7753849,23.3441377 75.8661686,24.1706495 75.4543728,23.3196736 C75.1798422,22.7523564 76.4280032,21.3310245 79.1988558,19.0556779 C79.1988558,19.0556779 73.529605,17.8938375 74.0314554,16.8388786 C74.5333058,15.7839197 81.0146643,15.2385975 81.0146643,15.2385975 C81.0146643,15.2385975 79.0591237,10.4021136 79.8672409,9.76495719 C80.6753581,9.12780077 84.0121322,13.3187739 84.9200365,13.3187739 C85.5963629,13.3187739 83.7136858,5.73812153 85.743112,6.59472552 C86.4379987,6.88803143 89.4635317,11.0852585 89.4635317,11.0852585 C89.4635317,11.0852585 90.8638772,4.1363723 91.7707881,5.08985914 Z" id="Fill-23" stroke="#1C3C55" fill="#FFFFFF" transform="translate(87.500000, 17.500000) rotate(26.000000) translate(-87.500000, -17.500000) "></path>
                            </g>
                            <g id="flask" transform="translate(206.000000, 152.000000)" fill="#1C3C55">
                                <path d="M22.2903226,18.5806452 C21.4623226,18.5806452 20.7012903,18.9487742 20.1895484,19.5812903 C19.996,19.4883871 19.7912258,19.4233548 19.5802581,19.3873548 C19.5806452,18.699871 19.372,18.0646452 18.9876129,17.5370323 C19.3766452,16.92 19.5806452,16.2162581 19.5806452,15.483871 C19.5806452,13.6192258 18.2354839,12.032129 16.4436129,11.6864516 C16.4687742,11.5180645 16.483871,11.3736774 16.483871,11.2258065 C16.483871,11.127871 16.4780645,11.0310968 16.468,10.935871 C16.4505806,10.8058065 16.4378065,10.7256774 16.4203871,10.6467097 C17.6145806,10.1887742 18.4193548,9.05032258 18.4193548,7.74193548 C18.4193548,6.86903226 18.060129,6.05690323 17.4249032,5.4716129 C17.5712258,5.08103226 17.6451613,4.67419355 17.6451613,4.25806452 C17.6451613,2.33690323 16.0824516,0.774193548 14.1612903,0.774193548 C13.5825806,0.774193548 13.0166452,0.918193548 12.5087742,1.19303226 C11.9095484,0.812129032 11.1717419,0.68283871 10.4707097,0.840387097 C9.89858065,0.303483871 9.13987097,0 8.35483871,0 C6.64735484,0 5.25806452,1.38929032 5.25806452,3.09677419 C5.25806452,3.80941935 5.50851613,4.4883871 5.9443871,5.03225806 L5.25806452,5.03225806 L5.25806452,5.80645161 L6.03225806,5.80645161 L6.03225806,12.6685161 L1.30735484,20.6643871 C1.10606452,21.0050323 0.873985082,21.6351646 0.873985082,22.0300033 C0.873985082,23.2493582 1.99212903,24.8772307 3.21109677,24.8772307 L14.2727742,24.8772307 C15.2645161,24.8772307 16.1056774,23.343871 16.3851613,22.4427097 C16.4184516,22.443871 16.4509677,22.4496774 16.483871,22.4496774 C16.6809032,22.4469677 16.8233548,22.4334194 16.9630968,22.412129 C17.3076129,23.34 18.1882581,24 19.1935484,24 C19.7339355,24 20.2538065,23.8072258 20.6687742,23.4615484 C21.1348387,23.8110968 21.6984516,24 22.2903226,24 C23.784129,24 25,22.784129 25,21.2903226 C25,19.7965161 23.784129,18.5806452 22.2903226,18.5806452 Z M6.80645161,12.879871 L6.80645161,5.80645161 L10.6774194,5.80645161 L10.6774194,12.4180645 C9.36670968,12.6069677 8.35483871,13.7345806 8.35483871,15.0967742 C8.35483871,15.2283871 8.3676129,15.3569032 8.38580645,15.483871 L5.26774194,15.483871 L6.80645161,12.879871 Z M14.2727742,24.1030371 L10.2903226,24.1030371 L3.21109677,24.1030371 C2.41870968,24.1030371 1.660724,22.8223904 1.660724,22.0300033 C1.660724,21.7733582 1.84348387,21.2794839 1.97432258,21.0576774 L4.81019355,16.2580645 L8.62,16.2580645 C9.05587097,17.172 9.98645161,17.8064516 11.0645161,17.8064516 C11.2828387,18.6886452 12.0651613,19.3548387 13,19.3548387 C13.4710968,19.3548387 13.8972903,19.1790968 14.2332903,18.8984516 L15.5095484,21.0576774 C15.6403871,21.2794839 15.7096774,21.5322581 15.7096774,21.7889032 C15.7096774,22.5812903 15.0651613,24.1030371 14.2727742,24.1030371 Z M16.9464516,21.6294194 C16.7869677,21.66 16.6603871,21.6700645 16.5322581,21.6727742 C16.5136774,21.6731613 16.4950968,21.6739355 16.4765161,21.6739355 C16.4579355,21.3189677 16.3584516,20.9717419 16.1769032,20.664 L14.7450323,18.2419355 C14.863871,17.9914839 14.9354839,17.7147097 14.9354839,17.4193548 L14.1612903,17.4193548 C14.1612903,18.0596129 13.6402581,18.5806452 13,18.5806452 C12.3597419,18.5806452 11.8387097,18.0596129 11.8363871,17.4572903 L11.8421935,16.9242581 L11.3892903,17.0024516 C11.2727742,17.0225806 11.1667097,17.0322581 11.0645161,17.0322581 C9.99729032,17.0322581 9.12903226,16.164 9.12903226,15.0967742 C9.12903226,14.0295484 9.99729032,13.1612903 11.0645161,13.1612903 C12.1317419,13.1612903 13,14.0295484 13,15.0967742 L13.7741935,15.0967742 C13.7741935,13.7345806 12.7623226,12.6069677 11.4516129,12.4180645 L11.4516129,5.80645161 L12.2258065,5.80645161 L12.2258065,5.03225806 L11.4516129,5.03225806 L10.7656774,5.03225806 C11.2015484,4.49032258 11.4516129,3.81367742 11.4516129,3.09677419 L10.6774194,3.09677419 C10.6774194,3.87793548 10.2883871,4.59987097 9.63767742,5.03225806 L7.00735484,5.03225806 C6.40425806,4.56812903 6.03225806,3.85548387 6.03225806,3.09677419 C6.03225806,1.81587097 7.07393548,0.774193548 8.35483871,0.774193548 C9.00322581,0.774193548 9.628,1.05096774 10.0689032,1.53367742 L10.2365161,1.71754839 L10.4730323,1.64167742 C11.0811613,1.44696774 11.7500645,1.56658065 12.2525161,1.95832258 L12.3090323,2.00245161 C12.748,2.37174194 13,2.91058065 13,3.48387097 L13.7741935,3.48387097 C13.7741935,2.844 13.5473548,2.23625806 13.1451613,1.75354839 C13.4676129,1.62193548 13.8105806,1.5483871 14.1612903,1.5483871 C15.6550968,1.5483871 16.8709677,2.76425806 16.8709677,4.25806452 C16.8709677,4.65870968 16.7823226,5.04890323 16.6069677,5.41819355 C16.1532903,6.36387097 15.2025806,6.96774194 14.1612903,6.96774194 L14.1612903,7.74193548 C15.3303226,7.74193548 16.4099355,7.14929032 17.0505806,6.19819355 C17.4307097,6.62012903 17.6451613,7.16245161 17.6451613,7.74193548 C17.6451613,8.7236129 17.0378065,9.57251613 16.1397419,9.90812903 C15.676,9.07896774 14.7899355,8.51612903 13.7741935,8.51612903 L13.7741935,9.29032258 C14.572,9.29032258 15.2583226,9.77612903 15.5540645,10.4670968 C15.5834839,10.5394839 15.5962581,10.5990968 15.6144516,10.6567742 C15.6349677,10.7233548 15.6589677,10.7891613 15.6725161,10.8569032 C15.6957419,10.9765161 15.7096774,11.0996129 15.7096774,11.2258065 C15.7096774,11.3469677 15.6953548,11.4642581 15.6740645,11.5792258 C15.6628387,11.6384516 15.643871,11.6969032 15.6268387,11.7557419 C15.3945806,12.5643871 14.6563871,13.1612903 13.7741935,13.1612903 L13.7741935,13.9354839 C14.8352258,13.9354839 15.7530323,13.3207742 16.1978065,12.4304516 C17.6803871,12.6665806 18.8064516,13.9583226 18.8064516,15.483871 C18.8064516,16.1496774 18.5950968,16.7856774 18.1952258,17.3249032 C17.6014194,18.116129 16.6832258,18.5806452 15.7096774,18.5806452 L15.7096774,19.3548387 C16.7602581,19.3548387 17.7578065,18.9209032 18.4812903,18.1784516 C18.6914839,18.5338065 18.8064516,18.9383226 18.8064516,19.3548387 C18.8064516,19.4411613 18.7983226,19.5352258 18.7847742,19.6420645 C18.6609032,20.6485161 17.9114839,21.435871 16.9464516,21.6294194 Z M22.2903226,23.2258065 C21.7754839,23.2258065 21.2908387,23.0252903 20.9254194,22.6621935 L20.6308387,22.3691613 L20.3594839,22.683871 C20.0618065,23.028 19.6371613,23.2258065 19.1935484,23.2258065 C18.532,23.2258065 17.9529032,22.7945806 17.7407742,22.1845161 C18.5842581,21.8117419 19.2303226,21.0747097 19.4734194,20.1565161 C19.6890323,20.1967742 19.8953548,20.2815484 20.0796129,20.4108387 L20.1218065,20.4402581 C20.5100645,20.7325161 20.7419355,21.1904516 20.7419355,21.6774194 L21.516129,21.6774194 C21.516129,21.0541935 21.2618065,20.4642581 20.8267097,20.031871 C21.1913548,19.6045161 21.7174194,19.3548387 22.2903226,19.3548387 C23.3575484,19.3548387 24.2258065,20.2230968 24.2258065,21.2903226 C24.2258065,22.3575484 23.3575484,23.2258065 22.2903226,23.2258065 Z" id="Shape" fill-rule="nonzero"></path>
                            </g>
                            <g id="bowl" transform="translate(165.000000, 141.000000)">
                                <path d="M31.833153,20.8634692 C31.832513,22.6310049 25.732122,25.1972984 16.1723044,25.1972984 C6.61248675,25.1972984 0.512735657,22.6301632 0.51145581,20.8634692 C0.512095733,19.0959334 6.61312668,16.5296399 16.1729443,16.5296399 C25.7327619,16.5296399 31.832513,19.0959334 31.833153,20.8634692 Z" id="Path" stroke="#1C3C55" fill="#FFFFFF"></path>
                                <path d="M30.1980886,15.1809374 C29.5672951,17.672474 28.0530321,18.7514953 26.1965768,18.9869274 C28.5659155,20.5801271 29.6380203,22.7589613 28.0541696,26.168276 C26.0703258,30.4130637 22.4483098,30.4053597 17.7698246,28.9621419 L16.1171958,33.5752544 L13.3787698,32.5626228 L15.005475,28.0218728 C14.3119775,27.7654272 13.582916,27.4958304 12.8425534,27.2015675 L11.2093673,31.7604081 L8.47094132,30.7477765 L10.1235701,26.134664 C9.48341857,25.8979449 8.84974793,25.6431352 8.19181441,25.3998406 L4.63541698,24.0847346 L6.37266277,20.9779894 C8.36906553,21.7572056 8.34646335,21.7078732 8.34646335,21.7078732 C9.11108879,21.990621 9.52538045,21.5087176 9.70834436,21.1666315 L12.313665,13.8941953 L12.5981768,13.9994038 C12.4979658,13.9418599 12.3912739,13.9024068 12.3201459,13.8761046 L14.1801634,8.68409175 C14.2808602,8.06573817 14.1585328,7.28296463 13.0382676,6.86870624 C13.0382676,6.86870624 13.0867934,6.84567603 11.064467,6.13882242 L12.1273342,3.1719579 L15.8906345,4.58406089 C16.4418761,4.78790232 17.0286817,5.00489481 17.6219682,5.20379666 L19.2551543,0.644956059 L21.9935803,1.65758767 L20.3927987,6.12597509 C21.1283411,6.37748118 21.8638834,6.62898727 22.5751629,6.89200847 L24.1629827,2.45980233 L26.9014088,3.47243394 L25.2682227,8.03127454 C28.6788809,9.64077031 31.0753181,11.7766574 30.1980886,15.1809374 Z M22.8428724,23.6265958 C21.605021,27.0819075 15.9506729,24.5402907 14.1013463,23.8564356 L16.2918895,17.7418002 C18.1412162,18.4256553 24.12609,20.0446496 22.8428724,23.6265958 Z M24.6652584,14.5485898 C23.5440632,17.67827 18.8369806,15.5279131 17.2899477,14.955842 L19.2795832,9.40201639 C20.826616,9.9740875 25.8383008,11.2741844 24.6652584,14.5485898 Z" id="btc---FontAwesome-Copy" fill="#F7931A"></path>
                                <path d="M15.9276288,35.4708774 C7.85696,35.4708774 1.67149235,29.7321038 0.751763527,21.9399119 C3.52255135,23.684557 9.51079614,24.2593351 15.9276288,24.2593351 C22.3444615,24.2593351 28.8173673,23.3558926 31.5881551,21.6118892 C30.6677818,29.4047227 23.9976531,35.4708774 15.9276288,35.4708774 Z" id="Path" stroke="#1C3C55" fill="#FFFFFF"></path>
                            </g>
                        </g>
                    </g>
                </g>
            </g>
        </g>
    </g>
</svg>