<?xml version="1.0" encoding="UTF-8"?>
<svg width="447px" height="333px" viewBox="0 0 447 333" version="1.1" xmlns="http://www.w3.org/2000/svg" xmlns:xlink="http://www.w3.org/1999/xlink">
    <!-- Generator: Sketch 49 (51002) - http://www.bohemiancoding.com/sketch -->
    <title>Illustration/Future improvements</title>
    <desc>Created with Sketch.</desc>
    <defs>
        <rect id="path-1" x="0" y="0" width="201" height="161" rx="2"></rect>
        <path d="M2,0 L199,0 C200.104569,-2.02906125e-16 201,0.8954305 201,2 L201,7 L0,7 L0,2 C-1.3527075e-16,0.8954305 0.8954305,2.02906125e-16 2,0 Z" id="path-2"></path>
        <polygon id="path-3" points="0 6 201 6 200.729242 18.023813 0 18.023813"></polygon>
        <rect id="path-4" x="0" y="0" width="6.72419355" height="7.7014157"></rect>
    </defs>
    <g id="Protect-your-privacy" stroke="none" stroke-width="1" fill="none" fill-rule="evenodd">
        <g id="22.01.18-Bitcoin.org_Protect-your-privacy-Desktop-1200px--" transform="translate(-929.000000, -3519.000000)">
            <g id="//body" transform="translate(215.000000, 668.000000)">
                <g id="4" transform="translate(0.000000, 2796.000000)">
                    <g id="5th-illustration" transform="translate(700.000000, 52.000000)">
                        <g id="Illustration/Future-improvements">
                            <g id="siatka" opacity="0.5" stroke-width="1" fill-rule="evenodd" transform="translate(254.602919, 170.113642) rotate(-179.000000) translate(-254.602919, -170.113642) translate(81.102919, 4.613642)">
                                <g id="Group-8" opacity="0.200000003" transform="translate(12.000000, 1.000000)">
                                    <path d="" id="Path-2" stroke="#979797"></path>
                                    <polyline id="Path-5" stroke="#979797" points="327.306554 250.729508 299.380444 78.3713856 0 153.762295 156.02537 176.618852 189.310782 1.3852459"></polyline>
                                    <polyline id="Path-6" stroke="#979797" points="155.897048 177.051496 209.420719 327.610656 299.56871 78.2663934"></polyline>
                                    <polyline id="Path-8" stroke="#979797" points="156.186765 176.487406 76.9725159 278.434426 208.727273 327.610656"></polyline>
                                    <polyline id="Path-9" stroke="#979797" points="155.331924 176.618852 98.4693446 56.795082 191.391121 0.692622951"></polyline>
                                    <polygon id="Path-10" stroke="#979797" points="78.359408 279.127049 20.831855 243.556622 0 154.454918"></polygon>
                                    <circle id="Oval-2" fill="#7B7B7B" cx="20.5" cy="243.5" r="2.5"></circle>
                                    <polyline id="Path-11" stroke="#979797" points="299.56871 78.2663934 188.270613 0 326.613108 252.114754 210.114165 328.303279 0 154.454918 98.4693446 56.102459 325.919662 252.114754"></polyline>
                                    <polyline id="Path-13" stroke="#979797" points="328 252.114754 236.465116 252.114754 155.997497 176.425781"></polyline>
                                    <circle id="Oval-2" fill="#7B7B7B" cx="155.790409" cy="176.958877" r="2.5"></circle>
                                    <path d="M76.9725159,279.127049 L239.238901,252.114754" id="Path-14" stroke="#979797"></path>
                                    <circle id="Oval-2" fill="#7B7B7B" cx="299.5" cy="78.5" r="2.5"></circle>
                                </g>
                                <g id="dots" transform="translate(101.000000, 49.000000)">
                                    <circle id="Oval-2" fill="#C4C4C4" cx="8.5" cy="8.5" r="2.38"></circle>
                                    <circle id="Oval-2" stroke="#CACACA" cx="8.5" cy="8.5" r="8.5"></circle>
                                </g>
                                <g id="dots" transform="translate(330.000000, 243.000000)">
                                    <circle id="Oval-2" fill="#C4C4C4" cx="8.5" cy="8.5" r="2.38"></circle>
                                    <circle id="Oval-2" stroke="#CACACA" cx="8.5" cy="8.5" r="8.5"></circle>
                                </g>
                                <g id="dots" transform="translate(275.000000, 147.000000)">
                                    <circle id="Oval-2" fill="#C4C4C4" cx="8.5" cy="8.5" r="2.38"></circle>
                                    <circle id="Oval-2" stroke="#CACACA" cx="8.5" cy="8.5" r="8.5"></circle>
                                </g>
                                <g id="dots" transform="translate(80.000000, 271.000000)">
                                    <circle id="Oval-2" fill="#C4C4C4" cx="8.5" cy="8.5" r="2.38"></circle>
                                    <circle id="Oval-2" stroke="#CACACA" cx="8.5" cy="8.5" r="8.5"></circle>
                                </g>
                                <circle id="Oval-2" fill="#7B7B7B" cx="220.5" cy="328.5" r="2.5"></circle>
                                <circle id="Oval-2" fill="#7B7B7B" cx="200.5" cy="2.5" r="2.5"></circle>
                                <g id="Group-7" transform="translate(0.000000, 143.000000)">
                                    <circle id="Oval-2" fill="#FF7E00" cx="12.5" cy="12.5" r="3.92857143"></circle>
                                    <circle id="Oval-2" stroke="#FF7E00" cx="12.5" cy="12.5" r="12.5"></circle>
                                </g>
                            </g>
                            <rect id="Rectangle" fill="#FFFFFF" fill-rule="evenodd" x="75" y="46" width="151" height="161"></rect>
                            <g id="webside" stroke-width="1" fill-rule="evenodd" transform="translate(260.000000, 76.000000)">
                                <path d="M2,1 C1.44771525,1 1,1.44771525 1,2 L1,159 C1,159.552285 1.44771525,160 2,160 L199,160 C199.552285,160 200,159.552285 200,159 L200,2 C200,1.44771525 199.552285,1 199,1 L2,1 Z M2,-2.46519033e-31 L199,-4.4408921e-16 C200.104569,-6.46995335e-16 201,0.8954305 201,2 L201,159 C201,160.104569 200.104569,161 199,161 L2,161 C0.8954305,161 1.3527075e-16,160.104569 0,159 L0,2 C-1.3527075e-16,0.8954305 0.8954305,2.02906125e-16 2,-2.46519033e-31 Z" id="Rectangle-6" fill="#1C3C55" fill-rule="nonzero"></path>
                                <g id="Rectangle-6">
                                    <use fill="#FFFFFF" fill-rule="evenodd" xlink:href="#path-1"></use>
                                    <rect stroke="#1C3C55" stroke-width="1" x="0.5" y="0.5" width="200" height="160" rx="2"></rect>
                                </g>
                                <g id="Rectangle">
                                    <use fill="#FFFFFF" fill-rule="evenodd" xlink:href="#path-2"></use>
                                    <path stroke="#F7931A" stroke-width="1" d="M0.5,6.5 L200.5,6.5 L200.5,2 C200.5,1.17157288 199.828427,0.5 199,0.5 L2,0.5 C1.17157288,0.5 0.5,1.17157288 0.5,2 L0.5,6.5 Z"></path>
                                </g>
                                <g id="Rectangle-2">
                                    <use fill="#FFFFFF" fill-rule="evenodd" xlink:href="#path-3"></use>
                                    <path stroke="#1C3C55" stroke-width="1" d="M0.5,6.5 L0.5,17.523813 L200.240375,17.523813 L200.488614,6.5 L0.5,6.5 Z"></path>
                                </g>
                                <rect id="Rectangle-2" stroke="#1C3C55" x="0.5" y="17.5" width="200" height="7"></rect>
                                <circle id="Oval-4" fill="#F52D10" cx="3" cy="3" r="1"></circle>
                                <circle id="Oval-4-Copy" fill="#FFB600" cx="7" cy="3" r="1"></circle>
                                <circle id="Oval-4-Copy-2" fill="#69BE29" cx="10" cy="3" r="1"></circle>
                                <g id="Bitmap" transform="translate(12.000000, 6.000000)">
                                    <mask id="mask-5" fill="white">
                                        <use xlink:href="#path-4"></use>
                                    </mask>
                                    <g id="Mask"></g>
                                </g>
                                <g id="Group-12" transform="translate(12.000000, 27.000000)">
                                    <rect id="Rectangle-3" stroke="#1C3C55" fill="#FFFFFF" x="128.781871" y="0" width="51.0348577" height="84.0475301" rx="2"></rect>
                                    <rect id="Rectangle-3-Copy" stroke="#1C3C55" fill="#FFFFFF" x="128.781871" y="86.880593" width="51.0348577" height="40.7961045" rx="2"></rect>
                                    <g id="Group-6">
                                        <rect id="Rectangle-7" stroke="#1C3C55" fill="#FFFFFF" x="0" y="0" width="126.171428" height="40.6072337" rx="2"></rect>
                                        <g id="Group-5" transform="translate(3.480591, 4.719070)">
                                            <rect id="Rectangle-9" stroke="#FF9500" fill="#FFFFFF" x="8.52651283e-14" y="0.00270107946" width="36.5462066" height="32.1080452" rx="2"></rect>
                                            <g id="Group" transform="translate(40.026798, 0.000000)" stroke="#1C3C55">
                                                <rect id="Rectangle-10" fill="#FFFFFF" x="0" y="0.00270107946" width="20.8835466" height="7.55483417" rx="2"></rect>
                                                <rect id="Rectangle-10" fill="#FFFFFF" x="58.299901" y="23.6115579" width="20.8835466" height="7.55483417" rx="2"></rect>
                                                <path d="M0.435073888,10.8627752 L44.8126105,10.8627752" id="Line" stroke-linecap="round" stroke-linejoin="round"></path>
                                                <path d="M0.435073888,15.5845466 L21.3186205,15.5845466" id="Line" stroke-linecap="round" stroke-linejoin="round"></path>
                                                <path d="M0.435073888,20.3063179 L32.6305416,20.3063179" id="Line" stroke-linecap="round" stroke-linejoin="round"></path>
                                                <path d="M0.435073888,25.0280893 L23.0589161,25.0280893" id="Line" stroke-linecap="round" stroke-linejoin="round"></path>
                                                <path d="M27.4096549,15.5845466 L39.5917238,15.5845466" id="Line-Copy" stroke-linecap="round" stroke-linejoin="round"></path>
                                            </g>
                                        </g>
                                    </g>
                                    <g id="Group-4" transform="translate(0.000000, 43.440296)">
                                        <path d="M2,0.5 C1.17157288,0.5 0.5,1.17157288 0.5,2 L0.5,38.6072337 C0.5,39.4356608 1.17157288,40.1072337 2,40.1072337 L124.171428,40.1072337 C124.999855,40.1072337 125.671428,39.4356608 125.671428,38.6072337 L125.671428,2 C125.671428,1.17157288 124.999855,0.5 124.171428,0.5 L2,0.5 Z M2,-0.5 L124.171428,-0.5 C125.552139,-0.5 126.671428,0.619288125 126.671428,2 L126.671428,38.6072337 C126.671428,39.9879455 125.552139,41.1072337 124.171428,41.1072337 L2,41.1072337 C0.619288125,41.1072337 -0.5,39.9879455 -0.5,38.6072337 L-0.5,2 C-0.5,0.619288125 0.619288125,-0.5 2,-0.5 Z" id="Rectangle-7" fill="#1C3C55" fill-rule="nonzero"></path>
                                        <g id="Group-3" transform="translate(3.480591, 4.721771)">
                                            <rect id="Rectangle-9" stroke="#FF9500" fill="#FFFFFF" x="0" y="0" width="36.5462066" height="32.1080452" rx="2"></rect>
                                            <g id="Group-2" transform="translate(40.026798, 0.000000)" stroke="#1C3C55">
                                                <rect id="Rectangle-10" fill="#FFFFFF" x="0" y="0" width="20.8835466" height="7.55483417" rx="2"></rect>
                                                <rect id="Rectangle-10" fill="#FFFFFF" x="58.299901" y="23.6088568" width="20.8835466" height="7.55483417" rx="2"></rect>
                                                <path d="M0.435073888,10.8600741 L44.8126105,10.8600741" id="Line" stroke-linecap="round" stroke-linejoin="round"></path>
                                                <path d="M0.435073888,15.5818455 L21.3186205,15.5818455" id="Line" stroke-linecap="round" stroke-linejoin="round"></path>
                                                <path d="M0.435073888,20.3036168 L32.6305416,20.3036168" id="Line" stroke-linecap="round" stroke-linejoin="round"></path>
                                                <path d="M0.435073888,25.0253882 L23.0589161,25.0253882" id="Line" stroke-linecap="round" stroke-linejoin="round"></path>
                                                <path d="M27.4096549,15.5818455 L39.5917238,15.5818455" id="Line-Copy" stroke-linecap="round" stroke-linejoin="round"></path>
                                            </g>
                                        </g>
                                    </g>
                                    <g id="Group-9" transform="translate(0.000000, 86.880593)">
                                        <rect id="Rectangle-7" stroke="#1C3C55" fill="#FFFFFF" x="0" y="0" width="126.171428" height="40.6072337" rx="2"></rect>
                                        <g id="Group-8" transform="translate(3.480591, 4.721771)">
                                            <rect id="Rectangle-9" stroke="#FF9500" fill="#FFFFFF" x="0" y="0" width="36.5462066" height="32.1080452" rx="2"></rect>
                                            <g id="Group-7" transform="translate(40.026798, 0.000000)" stroke="#1C3C55">
                                                <rect id="Rectangle-10" fill="#FFFFFF" x="0" y="0" width="20.8835466" height="7.55483417" rx="2"></rect>
                                                <rect id="Rectangle-10" fill="#FFFFFF" x="58.299901" y="23.6088568" width="20.8835466" height="7.55483417" rx="2"></rect>
                                                <path d="M0.435073888,10.8600741 L44.8126105,10.8600741" id="Line" stroke-linecap="round" stroke-linejoin="round"></path>
                                                <path d="M0.435073888,15.5818455 L21.3186205,15.5818455" id="Line" stroke-linecap="round" stroke-linejoin="round"></path>
                                                <path d="M0.435073888,20.3036168 L32.6305416,20.3036168" id="Line" stroke-linecap="round" stroke-linejoin="round"></path>
                                                <path d="M0.435073888,25.0253882 L23.0589161,25.0253882" id="Line" stroke-linecap="round" stroke-linejoin="round"></path>
                                            </g>
                                        </g>
                                    </g>
                                </g>
                                <g id="Group-13" transform="translate(85.000000, 9.000000)" fill="#FFFFFF">
                                    <rect id="Rectangle-8" stroke="#1C3C55" x="0" y="0" width="56.542474" height="5.78918919" rx="1"></rect>
                                    <rect id="Rectangle-8" stroke="#1C3C55" x="59.1521266" y="0" width="17.3976843" height="5.78918919" rx="1"></rect>
                                    <rect id="Rectangle-8" stroke="#F7931A" x="79.1594636" y="0" width="17.3976843" height="5.78918919" rx="1"></rect>
                                </g>
                            </g>
                            <rect id="Rectangle" stroke="#1C3C55" stroke-width="1" x="75.5" y="76.5" width="150" height="160"></rect>
                            <rect id="Rectangle" stroke="#1C3C55" stroke-width="1" x="75.5" y="76.5" width="150" height="160"></rect>
                            <path d="M88.724,89.092 L84.656,90.976 L88.724,92.896 L88.724,93.844 L83.732,91.384 L83.732,90.592 L88.724,88.156 L88.724,89.092 Z M91.484,94 L90.584,94 L90.584,85.384 L91.484,85.384 L91.484,88.336 C92.1240032,88.0319985 92.739997,87.88 93.332,87.88 C94.132004,87.88 94.6699986,88.0959978 94.946,88.528 C95.2220014,88.9600022 95.36,89.7279945 95.36,90.832 L95.36,94 L94.46,94 L94.46,90.856 C94.46,90.0239958 94.3780008,89.4540015 94.214,89.146 C94.0499992,88.8379985 93.7040026,88.684 93.176,88.684 C92.6719975,88.684 92.1840024,88.7759991 91.712,88.96 L91.484,89.044 L91.484,94 Z M101.108,93.256 L101.456,93.22 L101.48,93.928 C100.567995,94.0560006 99.7880032,94.12 99.14,94.12 C98.2759957,94.12 97.6640018,93.8700025 97.304,93.37 C96.9439982,92.8699975 96.764,92.0920053 96.764,91.036 C96.764,88.9319895 97.5999916,87.88 99.272,87.88 C100.080004,87.88 100.683998,88.1059977 101.084,88.558 C101.484002,89.0100023 101.684,89.7199952 101.684,90.688 L101.636,91.372 L97.676,91.372 C97.676,92.0360033 97.7959988,92.5279984 98.036,92.848 C98.2760012,93.1680016 98.693997,93.328 99.29,93.328 C99.886003,93.328 100.491997,93.3040002 101.108,93.256 Z M100.784,90.652 C100.784,89.9159963 100.666001,89.3960015 100.43,89.092 C100.193999,88.7879985 99.8100027,88.636 99.278,88.636 C98.7459973,88.636 98.3460013,88.7959984 98.078,89.116 C97.8099987,89.4360016 97.672,89.9479965 97.664,90.652 L100.784,90.652 Z M107.324,89.812 L107.324,92.884 C107.348,93.1800015 107.579998,93.3559997 108.02,93.412 L107.984,94.12 C107.351997,94.12 106.876002,93.9600016 106.556,93.64 C105.835996,93.9600016 105.116004,94.12 104.396,94.12 C103.843997,94.12 103.424001,93.9640016 103.136,93.652 C102.847999,93.3399984 102.704,92.8920029 102.704,92.308 C102.704,91.7239971 102.851999,91.2940014 103.148,91.018 C103.444001,90.7419986 103.907997,90.5720003 104.54,90.508 L106.424,90.328 L106.424,89.812 C106.424,89.403998 106.336001,89.1120009 106.16,88.936 C105.983999,88.7599991 105.744002,88.672 105.44,88.672 C104.799997,88.672 104.136003,88.7119996 103.448,88.792 L103.076,88.828 L103.04,88.144 C103.920004,87.9679991 104.699997,87.88 105.38,87.88 C106.060003,87.88 106.553998,88.0359984 106.862,88.348 C107.170002,88.6600016 107.324,89.1479967 107.324,89.812 Z M103.628,92.26 C103.628,92.9960037 103.931997,93.364 104.54,93.364 C105.084003,93.364 105.619997,93.2720009 106.148,93.088 L106.424,92.992 L106.424,91.012 L104.648,91.18 C104.287998,91.2120002 104.028001,91.3159991 103.868,91.492 C103.707999,91.6680009 103.628,91.9239983 103.628,92.26 Z M113.708,85.384 L113.708,94 L112.82,94 L112.82,93.592 C112.203997,93.9440018 111.596003,94.12 110.996,94.12 C110.675998,94.12 110.396001,94.0800004 110.156,94 C109.915999,93.9199996 109.692001,93.776001 109.484,93.568 C109.051998,93.1359978 108.836,92.3380058 108.836,91.174 C108.836,90.0099942 109.029998,89.1700026 109.418,88.654 C109.806002,88.1379974 110.447996,87.88 111.344,87.88 C111.808002,87.88 112.299997,87.9319995 112.82,88.036 L112.82,85.384 L113.708,85.384 Z M110.18,92.92 C110.308001,93.0720008 110.443999,93.1759997 110.588,93.232 C110.732001,93.2880003 110.917999,93.316 111.146,93.316 C111.374001,93.316 111.629999,93.2780004 111.914,93.202 C112.198001,93.1259996 112.419999,93.0520004 112.58,92.98 L112.82,92.872 L112.82,88.804 C112.307997,88.7079995 111.832002,88.66 111.392,88.66 C110.783997,88.66 110.360001,88.8539981 110.12,89.242 C109.879999,89.6300019 109.76,90.2319959 109.76,91.048 C109.76,91.9760046 109.899999,92.5999984 110.18,92.92 Z M119.636,90.976 L115.568,89.092 L115.568,88.156 L120.56,90.592 L120.56,91.384 L115.568,93.844 L115.568,92.896 L119.636,90.976 Z M127.028,89.092 L122.96,90.976 L127.028,92.896 L127.028,93.844 L122.036,91.384 L122.036,90.592 L127.028,88.156 L127.028,89.092 Z M129.788,94 L128.888,94 L128.888,88 L129.776,88 L129.776,88.42 C130.376003,88.0599982 130.959997,87.88 131.528,87.88 C132.272004,87.88 132.791999,88.083998 133.088,88.492 C133.352001,88.3319992 133.693998,88.1900006 134.114,88.066 C134.534002,87.9419994 134.903998,87.88 135.224,87.88 C136.024004,87.88 136.561999,88.0939979 136.838,88.522 C137.114001,88.9500021 137.252,89.7199944 137.252,90.832 L137.252,94 L136.352,94 L136.352,90.856 C136.352,90.0239958 136.272001,89.4540015 136.112,89.146 C135.951999,88.8379985 135.612003,88.684 135.092,88.684 C134.827999,88.684 134.556001,88.7219996 134.276,88.798 C133.995999,88.8740004 133.780001,88.9479996 133.628,89.02 L133.4,89.128 C133.504001,89.3920013 133.556,89.9759955 133.556,90.88 L133.556,94 L132.656,94 L132.656,90.904 C132.656,90.0399957 132.578001,89.4540015 132.422,89.146 C132.265999,88.8379985 131.924003,88.684 131.396,88.684 C131.139999,88.684 130.878001,88.7219996 130.61,88.798 C130.341999,88.8740004 130.136001,88.9479996 129.992,89.02 L129.788,89.128 L129.788,94 Z M143,93.256 L143.348,93.22 L143.372,93.928 C142.459995,94.0560006 141.680003,94.12 141.032,94.12 C140.167996,94.12 139.556002,93.8700025 139.196,93.37 C138.835998,92.8699975 138.656,92.0920053 138.656,91.036 C138.656,88.9319895 139.491992,87.88 141.164,87.88 C141.972004,87.88 142.575998,88.1059977 142.976,88.558 C143.376002,89.0100023 143.576,89.7199952 143.576,90.688 L143.528,91.372 L139.568,91.372 C139.568,92.0360033 139.687999,92.5279984 139.928,92.848 C140.168001,93.1680016 140.585997,93.328 141.182,93.328 C141.778003,93.328 142.383997,93.3040002 143,93.256 Z M142.676,90.652 C142.676,89.9159963 142.558001,89.3960015 142.322,89.092 C142.085999,88.7879985 141.702003,88.636 141.17,88.636 C140.637997,88.636 140.238001,88.7959984 139.97,89.116 C139.701999,89.4360016 139.564,89.9479965 139.556,90.652 L142.676,90.652 Z M148.052,88.78 L146.144,88.78 L146.144,91.648 C146.144,92.3360034 146.193999,92.7879989 146.294,93.004 C146.394001,93.2200011 146.631998,93.328 147.008,93.328 L148.076,93.256 L148.136,94 C147.599997,94.0880004 147.192001,94.132 146.912,94.132 C146.287997,94.132 145.856001,93.9800015 145.616,93.676 C145.375999,93.3719985 145.256,92.7920043 145.256,91.936 L145.256,88.78 L144.404,88.78 L144.404,88 L145.256,88 L145.256,86.164 L146.144,86.164 L146.144,88 L148.052,88 L148.052,88.78 Z M153.392,89.812 L153.392,92.884 C153.416,93.1800015 153.647998,93.3559997 154.088,93.412 L154.052,94.12 C153.419997,94.12 152.944002,93.9600016 152.624,93.64 C151.903996,93.9600016 151.184004,94.12 150.464,94.12 C149.911997,94.12 149.492001,93.9640016 149.204,93.652 C148.915999,93.3399984 148.772,92.8920029 148.772,92.308 C148.772,91.7239971 148.919999,91.2940014 149.216,91.018 C149.512001,90.7419986 149.975997,90.5720003 150.608,90.508 L152.492,90.328 L152.492,89.812 C152.492,89.403998 152.404001,89.1120009 152.228,88.936 C152.051999,88.7599991 151.812002,88.672 151.508,88.672 C150.867997,88.672 150.204003,88.7119996 149.516,88.792 L149.144,88.828 L149.108,88.144 C149.988004,87.9679991 150.767997,87.88 151.448,87.88 C152.128003,87.88 152.621998,88.0359984 152.93,88.348 C153.238002,88.6600016 153.392,89.1479967 153.392,89.812 Z M149.696,92.26 C149.696,92.9960037 149.999997,93.364 150.608,93.364 C151.152003,93.364 151.687997,93.2720009 152.216,93.088 L152.492,92.992 L152.492,91.012 L150.716,91.18 C150.355998,91.2120002 150.096001,91.3159991 149.936,91.492 C149.775999,91.6680009 149.696,91.9239983 149.696,92.26 Z M86.108,106.88 C86.3720013,106.88 86.8199968,106.928 87.452,107.024 L87.74,107.06 L87.704,107.792 C87.0639968,107.72 86.5920015,107.684 86.288,107.684 C85.6079966,107.684 85.1460012,107.845998 84.902,108.17 C84.6579988,108.494002 84.536,109.093996 84.536,109.97 C84.536,110.846004 84.6499989,111.455998 84.878,111.8 C85.1060011,112.144002 85.5799964,112.316 86.3,112.316 L87.716,112.208 L87.752,112.952 C87.0079963,113.064001 86.4520018,113.12 86.084,113.12 C85.1479953,113.12 84.5020018,112.880002 84.146,112.4 C83.7899982,111.919998 83.612,111.110006 83.612,109.97 C83.612,108.829994 83.8039981,108.030002 84.188,107.57 C84.5720019,107.109998 85.2119955,106.88 86.108,106.88 Z M89.996,113 L89.096,113 L89.096,104.384 L89.996,104.384 L89.996,107.336 C90.6360032,107.031998 91.251997,106.88 91.844,106.88 C92.644004,106.88 93.1819986,107.095998 93.458,107.528 C93.7340014,107.960002 93.872,108.727994 93.872,109.832 L93.872,113 L92.972,113 L92.972,109.856 C92.972,109.023996 92.8900008,108.454002 92.726,108.146 C92.5619992,107.837998 92.2160026,107.684 91.688,107.684 C91.1839975,107.684 90.6960024,107.775999 90.224,107.96 L89.996,108.044 L89.996,113 Z M99.776,108.812 L99.776,111.884 C99.8000001,112.180001 100.031998,112.356 100.472,112.412 L100.436,113.12 C99.8039968,113.12 99.3280016,112.960002 99.008,112.64 C98.2879964,112.960002 97.5680036,113.12 96.848,113.12 C96.2959972,113.12 95.8760014,112.964002 95.588,112.652 C95.2999986,112.339998 95.156,111.892003 95.156,111.308 C95.156,110.723997 95.3039985,110.294001 95.6,110.018 C95.8960015,109.741999 96.3599968,109.572 96.992,109.508 L98.876,109.328 L98.876,108.812 C98.876,108.403998 98.7880009,108.112001 98.612,107.936 C98.4359991,107.759999 98.1960015,107.672 97.892,107.672 C97.2519968,107.672 96.5880034,107.712 95.9,107.792 L95.528,107.828 L95.492,107.144 C96.3720044,106.967999 97.1519966,106.88 97.832,106.88 C98.5120034,106.88 99.0059985,107.035998 99.314,107.348 C99.6220015,107.660002 99.776,108.147997 99.776,108.812 Z M96.08,111.26 C96.08,111.996004 96.383997,112.364 96.992,112.364 C97.5360027,112.364 98.0719974,112.272001 98.6,112.088 L98.876,111.992 L98.876,110.012 L97.1,110.18 C96.7399982,110.212 96.4800008,110.315999 96.32,110.492 C96.1599992,110.668001 96.08,110.923998 96.08,111.26 Z M101.552,113 L101.552,107 L102.44,107 L102.44,107.816 C103.136003,107.335998 103.867996,107.020001 104.636,106.868 L104.636,107.78 C104.299998,107.844 103.950002,107.943999 103.586,108.08 C103.221998,108.216001 102.944001,108.335999 102.752,108.44 L102.452,108.596 L102.452,113 L101.552,113 Z M107.588,107.684 C106.715996,107.684 106.28,107.987997 106.28,108.596 C106.28,108.876001 106.379999,109.073999 106.58,109.19 C106.780001,109.306001 107.235996,109.425999 107.948,109.55 C108.660004,109.674001 109.163999,109.847999 109.46,110.072 C109.756001,110.296001 109.904,110.715997 109.904,111.332 C109.904,111.948003 109.706002,112.399999 109.31,112.688 C108.913998,112.976001 108.336004,113.12 107.576,113.12 C107.079998,113.12 106.496003,113.064001 105.824,112.952 L105.464,112.892 L105.512,112.112 C106.424005,112.248001 107.111998,112.316 107.576,112.316 C108.040002,112.316 108.393999,112.242001 108.638,112.094 C108.882001,111.945999 109.004,111.698002 109.004,111.35 C109.004,111.001998 108.900001,110.766001 108.692,110.642 C108.483999,110.517999 108.028004,110.400001 107.324,110.288 C106.619996,110.175999 106.120001,110.012001 105.824,109.796 C105.527999,109.579999 105.38,109.180003 105.38,108.596 C105.38,108.011997 105.585998,107.580001 105.998,107.3 C106.410002,107.019999 106.923997,106.88 107.54,106.88 C108.028002,106.88 108.639996,106.935999 109.376,107.048 L109.712,107.108 L109.688,107.876 C108.799996,107.747999 108.100003,107.684 107.588,107.684 Z M115.364,112.256 L115.712,112.22 L115.736,112.928 C114.823995,113.056001 114.044003,113.12 113.396,113.12 C112.531996,113.12 111.920002,112.870002 111.56,112.37 C111.199998,111.869998 111.02,111.092005 111.02,110.036 C111.02,107.931989 111.855992,106.88 113.528,106.88 C114.336004,106.88 114.939998,107.105998 115.34,107.558 C115.740002,108.010002 115.94,108.719995 115.94,109.688 L115.892,110.372 L111.932,110.372 C111.932,111.036003 112.051999,111.527998 112.292,111.848 C112.532001,112.168002 112.949997,112.328 113.546,112.328 C114.142003,112.328 114.747997,112.304 115.364,112.256 Z M115.04,109.652 C115.04,108.915996 114.922001,108.396002 114.686,108.092 C114.449999,107.787998 114.066003,107.636 113.534,107.636 C113.001997,107.636 112.602001,107.795998 112.334,108.116 C112.065999,108.436002 111.928,108.947996 111.92,109.652 L115.04,109.652 Z M120.416,107.78 L118.508,107.78 L118.508,110.648 C118.508,111.336003 118.557999,111.787999 118.658,112.004 C118.758001,112.220001 118.995998,112.328 119.372,112.328 L120.44,112.256 L120.5,113 C119.963997,113.088 119.556001,113.132 119.276,113.132 C118.651997,113.132 118.220001,112.980002 117.98,112.676 C117.739999,112.371998 117.62,111.792004 117.62,110.936 L117.62,107.78 L116.768,107.78 L116.768,107 L117.62,107 L117.62,105.164 L118.508,105.164 L118.508,107 L120.416,107 L120.416,107.78 Z M121.424,109.292 L121.424,108.464 L126.608,108.464 L126.608,109.292 L121.424,109.292 Z M121.424,111.512 L121.424,110.684 L126.608,110.684 L126.608,111.512 L121.424,111.512 Z M131.012,107.36 L130.208,107.36 L130.16,104.696 L131.06,104.696 L131.012,107.36 Z M129.02,107.36 L128.216,107.36 L128.168,104.696 L129.068,104.696 L129.02,107.36 Z M133.736,110.504 C133.736,111.704006 134.383994,112.304 135.68,112.304 C136.352003,112.304 136.857998,112.162001 137.198,111.878 C137.538002,111.593999 137.708,111.136003 137.708,110.504 L137.708,104.696 L138.62,104.696 L138.62,110.48 C138.62,111.408005 138.374002,112.079998 137.882,112.496 C137.389998,112.912002 136.664005,113.12 135.704,113.12 C134.743995,113.12 134.022002,112.912002 133.538,112.496 C133.053998,112.079998 132.812,111.408005 132.812,110.48 L132.812,104.696 L133.736,104.696 L133.736,110.504 Z M139.736,105.524 L139.736,104.696 L145.736,104.696 L145.736,105.524 L143.204,105.524 L143.204,113 L142.292,113 L142.292,105.524 L139.736,105.524 Z M146.912,113 L146.912,104.696 L151.88,104.696 L151.88,105.512 L147.836,105.512 L147.836,108.752 L151.256,108.752 L151.256,109.568 L147.836,109.568 L147.836,113 L146.912,113 Z M152.972,110.12 L152.972,109.28 L156.608,109.28 L156.608,110.12 L152.972,110.12 Z M158.672,105.476 C159.176003,105.123998 159.867996,104.948 160.748,104.948 C161.628004,104.948 162.325997,105.121998 162.842,105.47 C163.358003,105.818002 163.616,106.331997 163.616,107.012 C163.616,107.508002 163.516001,107.885999 163.316,108.146 C163.115999,108.406001 162.776002,108.643999 162.296,108.86 C162.776002,109.076001 163.135999,109.329999 163.376,109.622 C163.616001,109.914001 163.736,110.323997 163.736,110.852 C163.736,112.364008 162.74601,113.12 160.766,113.12 C158.78599,113.12 157.796,112.408007 157.796,110.984 C157.796,110.415997 157.905999,109.984001 158.126,109.688 C158.346001,109.391999 158.691998,109.116001 159.164,108.86 C158.731998,108.643999 158.418001,108.398001 158.222,108.122 C158.025999,107.845999 157.928,107.472002 157.928,107 C157.928,106.327997 158.175998,105.820002 158.672,105.476 Z M158.78,110.828 C158.78,111.796005 159.441993,112.28 160.766,112.28 C162.090007,112.28 162.752,111.772005 162.752,110.756 C162.752,110.331998 162.634001,110.018001 162.398,109.814 C162.161999,109.609999 161.812002,109.440001 161.348,109.304 L160.088,109.304 C159.647998,109.424001 159.320001,109.601999 159.104,109.838 C158.887999,110.074001 158.78,110.403998 158.78,110.828 Z M162.632,107.12 C162.632,106.231996 162.012006,105.788 160.772,105.788 C159.531994,105.788 158.912,106.227996 158.912,107.108 C158.912,107.460002 159.007999,107.743999 159.2,107.96 C159.392001,108.176001 159.687998,108.355999 160.088,108.5 L161.348,108.5 C161.780002,108.363999 162.101999,108.188001 162.314,107.972 C162.526001,107.755999 162.632,107.472002 162.632,107.12 Z M167.768,107.36 L166.964,107.36 L166.916,104.696 L167.816,104.696 L167.768,107.36 Z M165.776,107.36 L164.972,107.36 L164.924,104.696 L165.824,104.696 L165.776,107.36 Z M173.66,109.976 L169.592,108.092 L169.592,107.156 L174.584,109.592 L174.584,110.384 L169.592,112.844 L169.592,111.896 L173.66,109.976 Z M88.724,127.092 L84.656,128.976 L88.724,130.896 L88.724,131.844 L83.732,129.384 L83.732,128.592 L88.724,126.156 L88.724,127.092 Z M93.692,126.78 L91.784,126.78 L91.784,129.648 C91.784,130.336003 91.8339995,130.787999 91.934,131.004 C92.0340005,131.220001 92.2719981,131.328 92.648,131.328 L93.716,131.256 L93.776,132 C93.2399973,132.088 92.8320014,132.132 92.552,132.132 C91.9279969,132.132 91.4960012,131.980002 91.256,131.676 C91.0159988,131.371998 90.896,130.792004 90.896,129.936 L90.896,126.78 L90.044,126.78 L90.044,126 L90.896,126 L90.896,124.164 L91.784,124.164 L91.784,126 L93.692,126 L93.692,126.78 Z M94.796,132 L94.796,126 L95.696,126 L95.696,132 L94.796,132 Z M94.796,124.644 L94.796,123.6 L95.696,123.6 L95.696,124.644 L94.796,124.644 Z M100.532,126.78 L98.624,126.78 L98.624,129.648 C98.624,130.336003 98.6739995,130.787999 98.774,131.004 C98.8740005,131.220001 99.1119981,131.328 99.488,131.328 L100.556,131.256 L100.616,132 C100.079997,132.088 99.6720014,132.132 99.392,132.132 C98.7679969,132.132 98.3360012,131.980002 98.096,131.676 C97.8559988,131.371998 97.736,130.792004 97.736,129.936 L97.736,126.78 L96.884,126.78 L96.884,126 L97.736,126 L97.736,124.164 L98.624,124.164 L98.624,126 L100.532,126 L100.532,126.78 Z M101.708,132 L101.708,123.384 L102.608,123.384 L102.608,132 L101.708,132 Z M108.488,131.256 L108.836,131.22 L108.86,131.928 C107.947995,132.056001 107.168003,132.12 106.52,132.12 C105.655996,132.12 105.044002,131.870002 104.684,131.37 C104.323998,130.869998 104.144,130.092005 104.144,129.036 C104.144,126.931989 104.979992,125.88 106.652,125.88 C107.460004,125.88 108.063998,126.105998 108.464,126.558 C108.864002,127.010002 109.064,127.719995 109.064,128.688 L109.016,129.372 L105.056,129.372 C105.056,130.036003 105.175999,130.527998 105.416,130.848 C105.656001,131.168002 106.073997,131.328 106.67,131.328 C107.266003,131.328 107.871997,131.304 108.488,131.256 Z M108.164,128.652 C108.164,127.915996 108.046001,127.396002 107.81,127.092 C107.573999,126.787998 107.190003,126.636 106.658,126.636 C106.125997,126.636 105.726001,126.795998 105.458,127.116 C105.189999,127.436002 105.052,127.947996 105.044,128.652 L108.164,128.652 Z M114.656,128.976 L110.588,127.092 L110.588,126.156 L115.58,128.592 L115.58,129.384 L110.588,131.844 L110.588,130.896 L114.656,128.976 Z M122.492,132 L122.492,128.244 L118.268,128.244 L118.268,132 L117.344,132 L117.344,123.696 L118.268,123.696 L118.268,127.416 L122.492,127.416 L122.492,123.696 L123.404,123.696 L123.404,132 L122.492,132 Z M129.308,131.256 L129.656,131.22 L129.68,131.928 C128.767995,132.056001 127.988003,132.12 127.34,132.12 C126.475996,132.12 125.864002,131.870002 125.504,131.37 C125.143998,130.869998 124.964,130.092005 124.964,129.036 C124.964,126.931989 125.799992,125.88 127.472,125.88 C128.280004,125.88 128.883998,126.105998 129.284,126.558 C129.684002,127.010002 129.884,127.719995 129.884,128.688 L129.836,129.372 L125.876,129.372 C125.876,130.036003 125.995999,130.527998 126.236,130.848 C126.476001,131.168002 126.893997,131.328 127.49,131.328 C128.086003,131.328 128.691997,131.304 129.308,131.256 Z M128.984,128.652 C128.984,127.915996 128.866001,127.396002 128.63,127.092 C128.393999,126.787998 128.010003,126.636 127.478,126.636 C126.945997,126.636 126.546001,126.795998 126.278,127.116 C126.009999,127.436002 125.872,127.947996 125.864,128.652 L128.984,128.652 Z M131.36,132 L131.36,123.384 L132.26,123.384 L132.26,132 L131.36,132 Z M134.132,132 L134.132,123.384 L135.032,123.384 L135.032,132 L134.132,132 Z M136.568,128.988 C136.568,127.891995 136.763998,127.100002 137.156,126.612 C137.548002,126.123998 138.209995,125.88 139.142,125.88 C140.074005,125.88 140.733998,126.123998 141.122,126.612 C141.510002,127.100002 141.704,127.891995 141.704,128.988 C141.704,130.084005 141.520002,130.879998 141.152,131.376 C140.783998,131.872002 140.112005,132.12 139.136,132.12 C138.159995,132.12 137.488002,131.872002 137.12,131.376 C136.751998,130.879998 136.568,130.084005 136.568,128.988 Z M137.492,128.976 C137.492,129.848004 137.597999,130.459998 137.81,130.812 C138.022001,131.164002 138.465997,131.34 139.142,131.34 C139.818003,131.34 140.259999,131.166002 140.468,130.818 C140.676001,130.469998 140.78,129.856004 140.78,128.976 C140.78,128.095996 140.664001,127.490002 140.432,127.158 C140.199999,126.825998 139.770003,126.66 139.142,126.66 C138.513997,126.66 138.082001,126.825998 137.846,127.158 C137.609999,127.490002 137.492,128.095996 137.492,128.976 Z M145.316,126 L146.216,126 L147.428,131.22 L147.62,131.22 L149.048,126.12 L149.984,126.12 L151.412,131.22 L151.616,131.22 L152.816,126 L153.716,126 L152.288,132 L150.788,132 L149.516,127.308 L148.244,132 L146.744,132 L145.316,126 Z M154.628,128.988 C154.628,127.891995 154.823998,127.100002 155.216,126.612 C155.608002,126.123998 156.269995,125.88 157.202,125.88 C158.134005,125.88 158.793998,126.123998 159.182,126.612 C159.570002,127.100002 159.764,127.891995 159.764,128.988 C159.764,130.084005 159.580002,130.879998 159.212,131.376 C158.843998,131.872002 158.172005,132.12 157.196,132.12 C156.219995,132.12 155.548002,131.872002 155.18,131.376 C154.811998,130.879998 154.628,130.084005 154.628,128.988 Z M155.552,128.976 C155.552,129.848004 155.657999,130.459998 155.87,130.812 C156.082001,131.164002 156.525997,131.34 157.202,131.34 C157.878003,131.34 158.319999,131.166002 158.528,130.818 C158.736001,130.469998 158.84,129.856004 158.84,128.976 C158.84,128.095996 158.724001,127.490002 158.492,127.158 C158.259999,126.825998 157.830003,126.66 157.202,126.66 C156.573997,126.66 156.142001,126.825998 155.906,127.158 C155.669999,127.490002 155.552,128.095996 155.552,128.976 Z M161.228,132 L161.228,126 L162.116,126 L162.116,126.816 C162.812003,126.335998 163.543996,126.020001 164.312,125.868 L164.312,126.78 C163.975998,126.844 163.626002,126.943999 163.262,127.08 C162.897998,127.216001 162.620001,127.335999 162.428,127.44 L162.128,127.596 L162.128,132 L161.228,132 Z M165.452,132 L165.452,123.384 L166.352,123.384 L166.352,132 L165.452,132 Z M172.76,123.384 L172.76,132 L171.872,132 L171.872,131.592 C171.255997,131.944002 170.648003,132.12 170.048,132.12 C169.727998,132.12 169.448001,132.08 169.208,132 C168.967999,131.92 168.744001,131.776001 168.536,131.568 C168.103998,131.135998 167.888,130.338006 167.888,129.174 C167.888,128.009994 168.081998,127.170003 168.47,126.654 C168.858002,126.137997 169.499996,125.88 170.396,125.88 C170.860002,125.88 171.351997,125.931999 171.872,126.036 L171.872,123.384 L172.76,123.384 Z M169.232,130.92 C169.360001,131.072001 169.495999,131.176 169.64,131.232 C169.784001,131.288 169.969999,131.316 170.198,131.316 C170.426001,131.316 170.681999,131.278 170.966,131.202 C171.250001,131.126 171.471999,131.052 171.632,130.98 L171.872,130.872 L171.872,126.804 C171.359997,126.708 170.884002,126.66 170.444,126.66 C169.835997,126.66 169.412001,126.853998 169.172,127.242 C168.931999,127.630002 168.812,128.231996 168.812,129.048 C168.812,129.976005 168.951999,130.599998 169.232,130.92 Z M179.36,127.092 L175.292,128.976 L179.36,130.896 L179.36,131.844 L174.368,129.384 L174.368,128.592 L179.36,126.156 L179.36,127.092 Z M180.74,131.88 L184.124,123.504 L184.928,123.804 L181.544,132.168 L180.74,131.88 Z M86.972,145.78 L85.064,145.78 L85.064,148.648 C85.064,149.336003 85.1139995,149.787999 85.214,150.004 C85.3140005,150.220001 85.5519981,150.328 85.928,150.328 L86.996,150.256 L87.056,151 C86.5199973,151.088 86.1120014,151.132 85.832,151.132 C85.2079969,151.132 84.7760012,150.980002 84.536,150.676 C84.2959988,150.371998 84.176,149.792004 84.176,148.936 L84.176,145.78 L83.324,145.78 L83.324,145 L84.176,145 L84.176,143.164 L85.064,143.164 L85.064,145 L86.972,145 L86.972,145.78 Z M88.076,151 L88.076,145 L88.976,145 L88.976,151 L88.076,151 Z M88.076,143.644 L88.076,142.6 L88.976,142.6 L88.976,143.644 L88.076,143.644 Z M93.812,145.78 L91.904,145.78 L91.904,148.648 C91.904,149.336003 91.9539995,149.787999 92.054,150.004 C92.1540005,150.220001 92.3919981,150.328 92.768,150.328 L93.836,150.256 L93.896,151 C93.3599973,151.088 92.9520014,151.132 92.672,151.132 C92.0479969,151.132 91.6160012,150.980002 91.376,150.676 C91.1359988,150.371998 91.016,149.792004 91.016,148.936 L91.016,145.78 L90.164,145.78 L90.164,145 L91.016,145 L91.016,143.164 L91.904,143.164 L91.904,145 L93.812,145 L93.812,145.78 Z M94.988,151 L94.988,142.384 L95.888,142.384 L95.888,151 L94.988,151 Z M101.768,150.256 L102.116,150.22 L102.14,150.928 C101.227995,151.056001 100.448003,151.12 99.8,151.12 C98.9359957,151.12 98.3240018,150.870002 97.964,150.37 C97.6039982,149.869998 97.424,149.092005 97.424,148.036 C97.424,145.931989 98.2599916,144.88 99.932,144.88 C100.740004,144.88 101.343998,145.105998 101.744,145.558 C102.144002,146.010002 102.344,146.719995 102.344,147.688 L102.296,148.372 L98.336,148.372 C98.336,149.036003 98.4559988,149.527998 98.696,149.848 C98.9360012,150.168002 99.353997,150.328 99.95,150.328 C100.546003,150.328 101.151997,150.304 101.768,150.256 Z M101.444,147.652 C101.444,146.915996 101.326001,146.396002 101.09,146.092 C100.853999,145.787998 100.470003,145.636 99.938,145.636 C99.4059973,145.636 99.0060013,145.795998 98.738,146.116 C98.4699987,146.436002 98.332,146.947996 98.324,147.652 L101.444,147.652 Z M107.936,147.976 L103.868,146.092 L103.868,145.156 L108.86,147.592 L108.86,148.384 L103.868,150.844 L103.868,149.896 L107.936,147.976 Z M115.328,146.092 L111.26,147.976 L115.328,149.896 L115.328,150.844 L110.336,148.384 L110.336,147.592 L115.328,145.156 L115.328,146.092 Z M118.088,151 L117.188,151 L117.188,145 L118.076,145 L118.076,145.42 C118.676003,145.059998 119.259997,144.88 119.828,144.88 C120.572004,144.88 121.091999,145.083998 121.388,145.492 C121.652001,145.331999 121.993998,145.190001 122.414,145.066 C122.834002,144.941999 123.203998,144.88 123.524,144.88 C124.324004,144.88 124.861999,145.093998 125.138,145.522 C125.414001,145.950002 125.552,146.719994 125.552,147.832 L125.552,151 L124.652,151 L124.652,147.856 C124.652,147.023996 124.572001,146.454002 124.412,146.146 C124.251999,145.837998 123.912003,145.684 123.392,145.684 C123.127999,145.684 122.856001,145.722 122.576,145.798 C122.295999,145.874 122.080001,145.948 121.928,146.02 L121.7,146.128 C121.804001,146.392001 121.856,146.975995 121.856,147.88 L121.856,151 L120.956,151 L120.956,147.904 C120.956,147.039996 120.878001,146.454002 120.722,146.146 C120.565999,145.837998 120.224003,145.684 119.696,145.684 C119.439999,145.684 119.178001,145.722 118.91,145.798 C118.641999,145.874 118.436001,145.948 118.292,146.02 L118.088,146.128 L118.088,151 Z M131.3,150.256 L131.648,150.22 L131.672,150.928 C130.759995,151.056001 129.980003,151.12 129.332,151.12 C128.467996,151.12 127.856002,150.870002 127.496,150.37 C127.135998,149.869998 126.956,149.092005 126.956,148.036 C126.956,145.931989 127.791992,144.88 129.464,144.88 C130.272004,144.88 130.875998,145.105998 131.276,145.558 C131.676002,146.010002 131.876,146.719995 131.876,147.688 L131.828,148.372 L127.868,148.372 C127.868,149.036003 127.987999,149.527998 128.228,149.848 C128.468001,150.168002 128.885997,150.328 129.482,150.328 C130.078003,150.328 130.683997,150.304 131.3,150.256 Z M130.976,147.652 C130.976,146.915996 130.858001,146.396002 130.622,146.092 C130.385999,145.787998 130.002003,145.636 129.47,145.636 C128.937997,145.636 128.538001,145.795998 128.27,146.116 C128.001999,146.436002 127.864,146.947996 127.856,147.652 L130.976,147.652 Z M136.352,145.78 L134.444,145.78 L134.444,148.648 C134.444,149.336003 134.494,149.787999 134.594,150.004 C134.694,150.220001 134.931998,150.328 135.308,150.328 L136.376,150.256 L136.436,151 C135.899997,151.088 135.492001,151.132 135.212,151.132 C134.587997,151.132 134.156001,150.980002 133.916,150.676 C133.675999,150.371998 133.556,149.792004 133.556,148.936 L133.556,145.78 L132.704,145.78 L132.704,145 L133.556,145 L133.556,143.164 L134.444,143.164 L134.444,145 L136.352,145 L136.352,145.78 Z M141.692,146.812 L141.692,149.884 C141.716,150.180001 141.947998,150.356 142.388,150.412 L142.352,151.12 C141.719997,151.12 141.244002,150.960002 140.924,150.64 C140.203996,150.960002 139.484004,151.12 138.764,151.12 C138.211997,151.12 137.792001,150.964002 137.504,150.652 C137.215999,150.339998 137.072,149.892003 137.072,149.308 C137.072,148.723997 137.219999,148.294001 137.516,148.018 C137.812001,147.741999 138.275997,147.572 138.908,147.508 L140.792,147.328 L140.792,146.812 C140.792,146.403998 140.704001,146.112001 140.528,145.936 C140.351999,145.759999 140.112002,145.672 139.808,145.672 C139.167997,145.672 138.504003,145.712 137.816,145.792 L137.444,145.828 L137.408,145.144 C138.288004,144.967999 139.067997,144.88 139.748,144.88 C140.428003,144.88 140.921998,145.035998 141.23,145.348 C141.538002,145.660002 141.692,146.147997 141.692,146.812 Z M137.996,149.26 C137.996,149.996004 138.299997,150.364 138.908,150.364 C139.452003,150.364 139.987997,150.272001 140.516,150.088 L140.792,149.992 L140.792,148.012 L139.016,148.18 C138.655998,148.212 138.396001,148.315999 138.236,148.492 C138.075999,148.668001 137.996,148.923998 137.996,149.26 Z M84.764,170 L83.864,170 L83.864,164 L84.752,164 L84.752,164.42 C85.4000032,164.059998 86.019997,163.88 86.612,163.88 C87.412004,163.88 87.9499986,164.095998 88.226,164.528 C88.5020014,164.960002 88.64,165.727994 88.64,166.832 L88.64,170 L87.752,170 L87.752,166.856 C87.752,166.023996 87.6700008,165.454002 87.506,165.146 C87.3419992,164.837998 86.9920027,164.684 86.456,164.684 C86.1999987,164.684 85.9300014,164.722 85.646,164.798 C85.3619986,164.874 85.1440008,164.948 84.992,165.02 L84.764,165.128 L84.764,170 Z M94.544,165.812 L94.544,168.884 C94.5680001,169.180001 94.7999978,169.356 95.24,169.412 L95.204,170.12 C94.5719968,170.12 94.0960016,169.960002 93.776,169.64 C93.0559964,169.960002 92.3360036,170.12 91.616,170.12 C91.0639972,170.12 90.6440014,169.964002 90.356,169.652 C90.0679986,169.339998 89.924,168.892003 89.924,168.308 C89.924,167.723997 90.0719985,167.294001 90.368,167.018 C90.6640015,166.741999 91.1279968,166.572 91.76,166.508 L93.644,166.328 L93.644,165.812 C93.644,165.403998 93.5560009,165.112001 93.38,164.936 C93.2039991,164.759999 92.9640015,164.672 92.66,164.672 C92.0199968,164.672 91.3560034,164.712 90.668,164.792 L90.296,164.828 L90.26,164.144 C91.1400044,163.967999 91.9199966,163.88 92.6,163.88 C93.2800034,163.88 93.7739985,164.035998 94.082,164.348 C94.3900015,164.660002 94.544,165.147997 94.544,165.812 Z M90.848,168.26 C90.848,168.996004 91.151997,169.364 91.76,169.364 C92.3040027,169.364 92.8399974,169.272001 93.368,169.088 L93.644,168.992 L93.644,167.012 L91.868,167.18 C91.5079982,167.212 91.2480008,167.315999 91.088,167.492 C90.9279992,167.668001 90.848,167.923998 90.848,168.26 Z M97.22,170 L96.32,170 L96.32,164 L97.208,164 L97.208,164.42 C97.808003,164.059998 98.3919972,163.88 98.96,163.88 C99.7040037,163.88 100.223999,164.083998 100.52,164.492 C100.784001,164.331999 101.125998,164.190001 101.546,164.066 C101.966002,163.941999 102.335998,163.88 102.656,163.88 C103.456004,163.88 103.993999,164.093998 104.27,164.522 C104.546001,164.950002 104.684,165.719994 104.684,166.832 L104.684,170 L103.784,170 L103.784,166.856 C103.784,166.023996 103.704001,165.454002 103.544,165.146 C103.383999,164.837998 103.044003,164.684 102.524,164.684 C102.259999,164.684 101.988001,164.722 101.708,164.798 C101.427999,164.874 101.212001,164.948 101.06,165.02 L100.832,165.128 C100.936001,165.392001 100.988,165.975995 100.988,166.88 L100.988,170 L100.088,170 L100.088,166.904 C100.088,166.039996 100.010001,165.454002 99.854,165.146 C99.6979992,164.837998 99.3560026,164.684 98.828,164.684 C98.5719987,164.684 98.3100013,164.722 98.042,164.798 C97.7739987,164.874 97.5680007,164.948 97.424,165.02 L97.22,165.128 L97.22,170 Z M110.432,169.256 L110.78,169.22 L110.804,169.928 C109.891995,170.056001 109.112003,170.12 108.464,170.12 C107.599996,170.12 106.988002,169.870002 106.628,169.37 C106.267998,168.869998 106.088,168.092005 106.088,167.036 C106.088,164.931989 106.923992,163.88 108.596,163.88 C109.404004,163.88 110.007998,164.105998 110.408,164.558 C110.808002,165.010002 111.008,165.719995 111.008,166.688 L110.96,167.372 L107,167.372 C107,168.036003 107.119999,168.527998 107.36,168.848 C107.600001,169.168002 108.017997,169.328 108.614,169.328 C109.210003,169.328 109.815997,169.304 110.432,169.256 Z M110.108,166.652 C110.108,165.915996 109.990001,165.396002 109.754,165.092 C109.517999,164.787998 109.134003,164.636 108.602,164.636 C108.069997,164.636 107.670001,164.795998 107.402,165.116 C107.133999,165.436002 106.996,165.947996 106.988,166.652 L110.108,166.652 Z M112.316,166.292 L112.316,165.464 L117.5,165.464 L117.5,166.292 L112.316,166.292 Z M112.316,168.512 L112.316,167.684 L117.5,167.684 L117.5,168.512 L112.316,168.512 Z M121.904,164.36 L121.1,164.36 L121.052,161.696 L121.952,161.696 L121.904,164.36 Z M119.912,164.36 L119.108,164.36 L119.06,161.696 L119.96,161.696 L119.912,164.36 Z M123.044,164 L124.004,164 L125.408,169.22 L125.852,169.22 L127.304,164 L128.228,164 L126.536,170 L124.736,170 L123.044,164 Z M129.38,170 L129.38,164 L130.28,164 L130.28,170 L129.38,170 Z M129.38,162.644 L129.38,161.6 L130.28,161.6 L130.28,162.644 L129.38,162.644 Z M136.088,169.256 L136.436,169.22 L136.46,169.928 C135.547995,170.056001 134.768003,170.12 134.12,170.12 C133.255996,170.12 132.644002,169.870002 132.284,169.37 C131.923998,168.869998 131.744,168.092005 131.744,167.036 C131.744,164.931989 132.579992,163.88 134.252,163.88 C135.060004,163.88 135.663998,164.105998 136.064,164.558 C136.464002,165.010002 136.664,165.719995 136.664,166.688 L136.616,167.372 L132.656,167.372 C132.656,168.036003 132.775999,168.527998 133.016,168.848 C133.256001,169.168002 133.673997,169.328 134.27,169.328 C134.866003,169.328 135.471997,169.304 136.088,169.256 Z M135.764,166.652 C135.764,165.915996 135.646001,165.396002 135.41,165.092 C135.173999,164.787998 134.790003,164.636 134.258,164.636 C133.725997,164.636 133.326001,164.795998 133.058,165.116 C132.789999,165.436002 132.652,165.947996 132.644,166.652 L135.764,166.652 Z M137.516,164 L138.416,164 L139.628,169.22 L139.82,169.22 L141.248,164.12 L142.184,164.12 L143.612,169.22 L143.816,169.22 L145.016,164 L145.916,164 L144.488,170 L142.988,170 L141.716,165.308 L140.444,170 L138.944,170 L137.516,164 Z M147.152,172.664 L147.152,164 L148.04,164 L148.04,164.432 C148.648003,164.063998 149.247997,163.88 149.84,163.88 C150.600004,163.88 151.151998,164.121998 151.496,164.606 C151.840002,165.090002 152.012,165.887994 152.012,167 C152.012,168.112006 151.810002,168.909998 151.406,169.394 C151.001998,169.878002 150.332005,170.12 149.396,170.12 C148.907998,170.12 148.460002,170.076 148.052,169.988 L148.052,172.664 L147.152,172.664 Z M149.708,164.684 C149.467999,164.684 149.210001,164.724 148.934,164.804 C148.657999,164.884 148.440001,164.964 148.28,165.044 L148.052,165.164 L148.052,169.208 C148.620003,169.296 149.051999,169.34 149.348,169.34 C149.996003,169.34 150.449999,169.156002 150.71,168.788 C150.970001,168.419998 151.1,167.820004 151.1,166.988 C151.1,166.155996 150.982001,165.564002 150.746,165.212 C150.509999,164.859998 150.164002,164.684 149.708,164.684 Z M153.212,166.988 C153.212,165.891995 153.407998,165.100002 153.8,164.612 C154.192002,164.123998 154.853995,163.88 155.786,163.88 C156.718005,163.88 157.377998,164.123998 157.766,164.612 C158.154002,165.100002 158.348,165.891995 158.348,166.988 C158.348,168.084005 158.164002,168.879998 157.796,169.376 C157.427998,169.872002 156.756005,170.12 155.78,170.12 C154.803995,170.12 154.132002,169.872002 153.764,169.376 C153.395998,168.879998 153.212,168.084005 153.212,166.988 Z M154.136,166.976 C154.136,167.848004 154.241999,168.459998 154.454,168.812 C154.666001,169.164002 155.109997,169.34 155.786,169.34 C156.462003,169.34 156.903999,169.166002 157.112,168.818 C157.320001,168.469998 157.424,167.856004 157.424,166.976 C157.424,166.095996 157.308001,165.490002 157.076,165.158 C156.843999,164.825998 156.414003,164.66 155.786,164.66 C155.157997,164.66 154.726001,164.825998 154.49,165.158 C154.253999,165.490002 154.136,166.095996 154.136,166.976 Z M159.812,170 L159.812,164 L160.7,164 L160.7,164.816 C161.396003,164.335998 162.127996,164.020001 162.896,163.868 L162.896,164.78 C162.559998,164.844 162.210002,164.943999 161.846,165.08 C161.481998,165.216001 161.204001,165.335999 161.012,165.44 L160.712,165.596 L160.712,170 L159.812,170 Z M167.072,164.78 L165.164,164.78 L165.164,167.648 C165.164,168.336003 165.213999,168.787999 165.314,169.004 C165.414,169.220001 165.651998,169.328 166.028,169.328 L167.096,169.256 L167.156,170 C166.619997,170.088 166.212001,170.132 165.932,170.132 C165.307997,170.132 164.876001,169.980002 164.636,169.676 C164.395999,169.371998 164.276,168.792004 164.276,167.936 L164.276,164.78 L163.424,164.78 L163.424,164 L164.276,164 L164.276,162.164 L165.164,162.164 L165.164,164 L167.072,164 L167.072,164.78 Z M170.948,164.36 L170.144,164.36 L170.096,161.696 L170.996,161.696 L170.948,164.36 Z M168.956,164.36 L168.152,164.36 L168.104,161.696 L169.004,161.696 L168.956,164.36 Z M86.108,182.88 C86.3720013,182.88 86.8199968,182.928 87.452,183.024 L87.74,183.06 L87.704,183.792 C87.0639968,183.72 86.5920015,183.684 86.288,183.684 C85.6079966,183.684 85.1460012,183.845998 84.902,184.17 C84.6579988,184.494002 84.536,185.093996 84.536,185.97 C84.536,186.846004 84.6499989,187.455998 84.878,187.8 C85.1060011,188.144002 85.5799964,188.316 86.3,188.316 L87.716,188.208 L87.752,188.952 C87.0079963,189.064001 86.4520018,189.12 86.084,189.12 C85.1479953,189.12 84.5020018,188.880002 84.146,188.4 C83.7899982,187.919998 83.612,187.110006 83.612,185.97 C83.612,184.829994 83.8039981,184.030002 84.188,183.57 C84.5720019,183.109998 85.2119955,182.88 86.108,182.88 Z M88.76,185.988 C88.76,184.891995 88.955998,184.100002 89.348,183.612 C89.740002,183.123998 90.4019953,182.88 91.334,182.88 C92.2660047,182.88 92.9259981,183.123998 93.314,183.612 C93.7020019,184.100002 93.896,184.891995 93.896,185.988 C93.896,187.084005 93.7120018,187.879998 93.344,188.376 C92.9759982,188.872002 92.3040049,189.12 91.328,189.12 C90.3519951,189.12 89.6800018,188.872002 89.312,188.376 C88.9439982,187.879998 88.76,187.084005 88.76,185.988 Z M89.684,185.976 C89.684,186.848004 89.7899989,187.459998 90.002,187.812 C90.2140011,188.164002 90.6579966,188.34 91.334,188.34 C92.0100034,188.34 92.451999,188.166002 92.66,187.818 C92.868001,187.469998 92.972,186.856004 92.972,185.976 C92.972,185.095996 92.8560012,184.490002 92.624,184.158 C92.3919988,183.825998 91.9620031,183.66 91.334,183.66 C90.7059969,183.66 90.2740012,183.825998 90.038,184.158 C89.8019988,184.490002 89.684,185.095996 89.684,185.976 Z M96.26,189 L95.36,189 L95.36,183 L96.248,183 L96.248,183.42 C96.8960032,183.059998 97.515997,182.88 98.108,182.88 C98.908004,182.88 99.4459986,183.095998 99.722,183.528 C99.9980014,183.960002 100.136,184.727994 100.136,185.832 L100.136,189 L99.248,189 L99.248,185.856 C99.248,185.023996 99.1660008,184.454002 99.002,184.146 C98.8379992,183.837998 98.4880027,183.684 97.952,183.684 C97.6959987,183.684 97.4260014,183.722 97.142,183.798 C96.8579986,183.874 96.6400008,183.948 96.488,184.02 L96.26,184.128 L96.26,189 Z M104.876,183.78 L102.968,183.78 L102.968,186.648 C102.968,187.336003 103.018,187.787999 103.118,188.004 C103.218001,188.220001 103.455998,188.328 103.832,188.328 L104.9,188.256 L104.96,189 C104.423997,189.088 104.016001,189.132 103.736,189.132 C103.111997,189.132 102.680001,188.980002 102.44,188.676 C102.199999,188.371998 102.08,187.792004 102.08,186.936 L102.08,183.78 L101.228,183.78 L101.228,183 L102.08,183 L102.08,181.164 L102.968,181.164 L102.968,183 L104.876,183 L104.876,183.78 Z M110.06,188.256 L110.408,188.22 L110.432,188.928 C109.519995,189.056001 108.740003,189.12 108.092,189.12 C107.227996,189.12 106.616002,188.870002 106.256,188.37 C105.895998,187.869998 105.716,187.092005 105.716,186.036 C105.716,183.931989 106.551992,182.88 108.224,182.88 C109.032004,182.88 109.635998,183.105998 110.036,183.558 C110.436002,184.010002 110.636,184.719995 110.636,185.688 L110.588,186.372 L106.628,186.372 C106.628,187.036003 106.747999,187.527998 106.988,187.848 C107.228001,188.168002 107.645997,188.328 108.242,188.328 C108.838003,188.328 109.443997,188.304 110.06,188.256 Z M109.736,185.652 C109.736,184.915996 109.618001,184.396002 109.382,184.092 C109.145999,183.787998 108.762003,183.636 108.23,183.636 C107.697997,183.636 107.298001,183.795998 107.03,184.116 C106.761999,184.436002 106.624,184.947996 106.616,185.652 L109.736,185.652 Z M112.94,189 L112.04,189 L112.04,183 L112.928,183 L112.928,183.42 C113.576003,183.059998 114.195997,182.88 114.788,182.88 C115.588004,182.88 116.125999,183.095998 116.402,183.528 C116.678001,183.960002 116.816,184.727994 116.816,185.832 L116.816,189 L115.928,189 L115.928,185.856 C115.928,185.023996 115.846001,184.454002 115.682,184.146 C115.517999,183.837998 115.168003,183.684 114.632,183.684 C114.375999,183.684 114.106001,183.722 113.822,183.798 C113.537999,183.874 113.320001,183.948 113.168,184.02 L112.94,184.128 L112.94,189 Z M121.556,183.78 L119.648,183.78 L119.648,186.648 C119.648,187.336003 119.698,187.787999 119.798,188.004 C119.898,188.220001 120.135998,188.328 120.512,188.328 L121.58,188.256 L121.64,189 C121.103997,189.088 120.696001,189.132 120.416,189.132 C119.791997,189.132 119.360001,188.980002 119.12,188.676 C118.879999,188.371998 118.76,187.792004 118.76,186.936 L118.76,183.78 L117.908,183.78 L117.908,183 L118.76,183 L118.76,181.164 L119.648,181.164 L119.648,183 L121.556,183 L121.556,183.78 Z M122.564,185.292 L122.564,184.464 L127.748,184.464 L127.748,185.292 L122.564,185.292 Z M122.564,187.512 L122.564,186.684 L127.748,186.684 L127.748,187.512 L122.564,187.512 Z M132.152,183.36 L131.348,183.36 L131.3,180.696 L132.2,180.696 L132.152,183.36 Z M130.16,183.36 L129.356,183.36 L129.308,180.696 L130.208,180.696 L130.16,183.36 Z M133.364,183 L134.264,183 L135.476,188.22 L135.668,188.22 L137.096,183.12 L138.032,183.12 L139.46,188.22 L139.664,188.22 L140.864,183 L141.764,183 L140.336,189 L138.836,189 L137.564,184.308 L136.292,189 L134.792,189 L133.364,183 Z M143,189 L143,183 L143.9,183 L143.9,189 L143,189 Z M143,181.644 L143,180.6 L143.9,180.6 L143.9,181.644 L143,181.644 Z M150.236,180.384 L150.236,189 L149.348,189 L149.348,188.592 C148.731997,188.944002 148.124003,189.12 147.524,189.12 C147.203998,189.12 146.924001,189.08 146.684,189 C146.443999,188.92 146.220001,188.776001 146.012,188.568 C145.579998,188.135998 145.364,187.338006 145.364,186.174 C145.364,185.009994 145.557998,184.170003 145.946,183.654 C146.334002,183.137997 146.975996,182.88 147.872,182.88 C148.336002,182.88 148.827997,182.931999 149.348,183.036 L149.348,180.384 L150.236,180.384 Z M146.708,187.92 C146.836001,188.072001 146.971999,188.176 147.116,188.232 C147.260001,188.288 147.445999,188.316 147.674,188.316 C147.902001,188.316 148.157999,188.278 148.442,188.202 C148.726001,188.126 148.947999,188.052 149.108,187.98 L149.348,187.872 L149.348,183.804 C148.835997,183.708 148.360002,183.66 147.92,183.66 C147.311997,183.66 146.888001,183.853998 146.648,184.242 C146.407999,184.630002 146.288,185.231996 146.288,186.048 C146.288,186.976005 146.427999,187.599998 146.708,187.92 Z M155.084,183.78 L153.176,183.78 L153.176,186.648 C153.176,187.336003 153.226,187.787999 153.326,188.004 C153.426001,188.220001 153.663998,188.328 154.04,188.328 L155.108,188.256 L155.168,189 C154.631997,189.088 154.224001,189.132 153.944,189.132 C153.319997,189.132 152.888001,188.980002 152.648,188.676 C152.407999,188.371998 152.288,187.792004 152.288,186.936 L152.288,183.78 L151.436,183.78 L151.436,183 L152.288,183 L152.288,181.164 L153.176,181.164 L153.176,183 L155.084,183 L155.084,183.78 Z M157.088,189 L156.188,189 L156.188,180.384 L157.088,180.384 L157.088,183.336 C157.728003,183.031998 158.343997,182.88 158.936,182.88 C159.736004,182.88 160.273999,183.095998 160.55,183.528 C160.826001,183.960002 160.964,184.727994 160.964,185.832 L160.964,189 L160.064,189 L160.064,185.856 C160.064,185.023996 159.982001,184.454002 159.818,184.146 C159.653999,183.837998 159.308003,183.684 158.78,183.684 C158.275997,183.684 157.788002,183.775999 157.316,183.96 L157.088,184.044 L157.088,189 Z M162.536,185.292 L162.536,184.464 L167.72,184.464 L167.72,185.292 L162.536,185.292 Z M162.536,187.512 L162.536,186.684 L167.72,186.684 L167.72,187.512 L162.536,187.512 Z M173.96,180.384 L173.96,189 L173.072,189 L173.072,188.592 C172.455997,188.944002 171.848003,189.12 171.248,189.12 C170.927998,189.12 170.648001,189.08 170.408,189 C170.167999,188.92 169.944001,188.776001 169.736,188.568 C169.303998,188.135998 169.088,187.338006 169.088,186.174 C169.088,185.009994 169.281998,184.170003 169.67,183.654 C170.058002,183.137997 170.699996,182.88 171.596,182.88 C172.060002,182.88 172.551997,182.931999 173.072,183.036 L173.072,180.384 L173.96,180.384 Z M170.432,187.92 C170.560001,188.072001 170.695999,188.176 170.84,188.232 C170.984001,188.288 171.169999,188.316 171.398,188.316 C171.626001,188.316 171.881999,188.278 172.166,188.202 C172.450001,188.126 172.671999,188.052 172.832,187.98 L173.072,187.872 L173.072,183.804 C172.559997,183.708 172.084002,183.66 171.644,183.66 C171.035997,183.66 170.612001,183.853998 170.372,184.242 C170.131999,184.630002 170.012,185.231996 170.012,186.048 C170.012,186.976005 170.151999,187.599998 170.432,187.92 Z M179.78,188.256 L180.128,188.22 L180.152,188.928 C179.239995,189.056001 178.460003,189.12 177.812,189.12 C176.947996,189.12 176.336002,188.870002 175.976,188.37 C175.615998,187.869998 175.436,187.092005 175.436,186.036 C175.436,183.931989 176.271992,182.88 177.944,182.88 C178.752004,182.88 179.355998,183.105998 179.756,183.558 C180.156002,184.010002 180.356,184.719995 180.356,185.688 L180.308,186.372 L176.348,186.372 C176.348,187.036003 176.467999,187.527998 176.708,187.848 C176.948001,188.168002 177.365997,188.328 177.962,188.328 C178.558003,188.328 179.163997,188.304 179.78,188.256 Z M179.456,185.652 C179.456,184.915996 179.338001,184.396002 179.102,184.092 C178.865999,183.787998 178.482003,183.636 177.95,183.636 C177.417997,183.636 177.018001,183.795998 176.75,184.116 C176.481999,184.436002 176.344,184.947996 176.336,185.652 L179.456,185.652 Z M181.1,183 L182.06,183 L183.464,188.22 L183.908,188.22 L185.36,183 L186.284,183 L184.592,189 L182.792,189 L181.1,183 Z M187.436,189 L187.436,183 L188.336,183 L188.336,189 L187.436,189 Z M187.436,181.644 L187.436,180.6 L188.336,180.6 L188.336,181.644 L187.436,181.644 Z M192.308,182.88 C192.572001,182.88 193.019997,182.928 193.652,183.024 L193.94,183.06 L193.904,183.792 C193.263997,183.72 192.792002,183.684 192.488,183.684 C191.807997,183.684 191.346001,183.845998 191.102,184.17 C190.857999,184.494002 190.736,185.093996 190.736,185.97 C190.736,186.846004 190.849999,187.455998 191.078,187.8 C191.306001,188.144002 191.779996,188.316 192.5,188.316 L193.916,188.208 L193.952,188.952 C193.207996,189.064001 192.652002,189.12 192.284,189.12 C191.347995,189.12 190.702002,188.880002 190.346,188.4 C189.989998,187.919998 189.812,187.110006 189.812,185.97 C189.812,184.829994 190.003998,184.030002 190.388,183.57 C190.772002,183.109998 191.411996,182.88 192.308,182.88 Z M199.304,188.256 L199.652,188.22 L199.676,188.928 C198.763995,189.056001 197.984003,189.12 197.336,189.12 C196.471996,189.12 195.860002,188.870002 195.5,188.37 C195.139998,187.869998 194.96,187.092005 194.96,186.036 C194.96,183.931989 195.795992,182.88 197.468,182.88 C198.276004,182.88 198.879998,183.105998 199.28,183.558 C199.680002,184.010002 199.88,184.719995 199.88,185.688 L199.832,186.372 L195.872,186.372 C195.872,187.036003 195.991999,187.527998 196.232,187.848 C196.472001,188.168002 196.889997,188.328 197.486,188.328 C198.082003,188.328 198.687997,188.304 199.304,188.256 Z M198.98,185.652 C198.98,184.915996 198.862001,184.396002 198.626,184.092 C198.389999,183.787998 198.006003,183.636 197.474,183.636 C196.941997,183.636 196.542001,183.795998 196.274,184.116 C196.005999,184.436002 195.868,184.947996 195.86,185.652 L198.98,185.652 Z M201.236,186.12 L201.236,185.28 L204.872,185.28 L204.872,186.12 L201.236,186.12 Z M83.372,202 L84.272,202 L85.484,207.22 L85.676,207.22 L87.104,202.12 L88.04,202.12 L89.468,207.22 L89.672,207.22 L90.872,202 L91.772,202 L90.344,208 L88.844,208 L87.572,203.308 L86.3,208 L84.8,208 L83.372,202 Z M93.008,208 L93.008,202 L93.908,202 L93.908,208 L93.008,208 Z M93.008,200.644 L93.008,199.6 L93.908,199.6 L93.908,200.644 L93.008,200.644 Z M100.244,199.384 L100.244,208 L99.356,208 L99.356,207.592 C98.7399969,207.944002 98.132003,208.12 97.532,208.12 C97.2119984,208.12 96.9320012,208.08 96.692,208 C96.4519988,207.92 96.228001,207.776001 96.02,207.568 C95.5879978,207.135998 95.372,206.338006 95.372,205.174 C95.372,204.009994 95.5659981,203.170003 95.954,202.654 C96.3420019,202.137997 96.9839955,201.88 97.88,201.88 C98.3440023,201.88 98.8359974,201.931999 99.356,202.036 L99.356,199.384 L100.244,199.384 Z M96.716,206.92 C96.8440006,207.072001 96.9799993,207.176 97.124,207.232 C97.2680007,207.288 97.4539989,207.316 97.682,207.316 C97.9100011,207.316 98.1659986,207.278 98.45,207.202 C98.7340014,207.126 98.9559992,207.052 99.116,206.98 L99.356,206.872 L99.356,202.804 C98.8439974,202.708 98.3680022,202.66 97.928,202.66 C97.319997,202.66 96.8960012,202.853998 96.656,203.242 C96.4159988,203.630002 96.296,204.231996 96.296,205.048 C96.296,205.976005 96.4359986,206.599998 96.716,206.92 Z M105.092,202.78 L103.184,202.78 L103.184,205.648 C103.184,206.336003 103.234,206.787999 103.334,207.004 C103.434,207.220001 103.671998,207.328 104.048,207.328 L105.116,207.256 L105.176,208 C104.639997,208.088 104.232001,208.132 103.952,208.132 C103.327997,208.132 102.896001,207.980002 102.656,207.676 C102.415999,207.371998 102.296,206.792004 102.296,205.936 L102.296,202.78 L101.444,202.78 L101.444,202 L102.296,202 L102.296,200.164 L103.184,200.164 L103.184,202 L105.092,202 L105.092,202.78 Z M107.096,208 L106.196,208 L106.196,199.384 L107.096,199.384 L107.096,202.336 C107.736003,202.031998 108.351997,201.88 108.944,201.88 C109.744004,201.88 110.281999,202.095998 110.558,202.528 C110.834001,202.960002 110.972,203.727994 110.972,204.832 L110.972,208 L110.072,208 L110.072,204.856 C110.072,204.023996 109.990001,203.454002 109.826,203.146 C109.661999,202.837998 109.316003,202.684 108.788,202.684 C108.283997,202.684 107.796002,202.775999 107.324,202.96 L107.096,203.044 L107.096,208 Z M112.184,209.476 L112.736,206.716 L113.732,206.716 L112.928,209.476 L112.184,209.476 Z M117.956,208 L117.956,202 L118.856,202 L118.856,208 L117.956,208 Z M117.956,200.644 L117.956,199.6 L118.856,199.6 L118.856,200.644 L117.956,200.644 Z M121.484,208 L120.584,208 L120.584,202 L121.472,202 L121.472,202.42 C122.120003,202.059998 122.739997,201.88 123.332,201.88 C124.132004,201.88 124.669999,202.095998 124.946,202.528 C125.222001,202.960002 125.36,203.727994 125.36,204.832 L125.36,208 L124.472,208 L124.472,204.856 C124.472,204.023996 124.390001,203.454002 124.226,203.146 C124.061999,202.837998 123.712003,202.684 123.176,202.684 C122.919999,202.684 122.650001,202.722 122.366,202.798 C122.081999,202.874 121.864001,202.948 121.712,203.02 L121.484,203.128 L121.484,208 Z M127.028,208 L127.028,202 L127.928,202 L127.928,208 L127.028,208 Z M127.028,200.644 L127.028,199.6 L127.928,199.6 L127.928,200.644 L127.028,200.644 Z M132.764,202.78 L130.856,202.78 L130.856,205.648 C130.856,206.336003 130.906,206.787999 131.006,207.004 C131.106,207.220001 131.343998,207.328 131.72,207.328 L132.788,207.256 L132.848,208 C132.311997,208.088 131.904001,208.132 131.624,208.132 C130.999997,208.132 130.568001,207.980002 130.328,207.676 C130.087999,207.371998 129.968,206.792004 129.968,205.936 L129.968,202.78 L129.116,202.78 L129.116,202 L129.968,202 L129.968,200.164 L130.856,200.164 L130.856,202 L132.764,202 L132.764,202.78 Z M133.868,208 L133.868,202 L134.768,202 L134.768,208 L133.868,208 Z M133.868,200.644 L133.868,199.6 L134.768,199.6 L134.768,200.644 L133.868,200.644 Z M140.732,203.812 L140.732,206.884 C140.756,207.180001 140.987998,207.356 141.428,207.412 L141.392,208.12 C140.759997,208.12 140.284002,207.960002 139.964,207.64 C139.243996,207.960002 138.524004,208.12 137.804,208.12 C137.251997,208.12 136.832001,207.964002 136.544,207.652 C136.255999,207.339998 136.112,206.892003 136.112,206.308 C136.112,205.723997 136.259999,205.294001 136.556,205.018 C136.852001,204.741999 137.315997,204.572 137.948,204.508 L139.832,204.328 L139.832,203.812 C139.832,203.403998 139.744001,203.112001 139.568,202.936 C139.391999,202.759999 139.152002,202.672 138.848,202.672 C138.207997,202.672 137.544003,202.712 136.856,202.792 L136.484,202.828 L136.448,202.144 C137.328004,201.967999 138.107997,201.88 138.788,201.88 C139.468003,201.88 139.961998,202.035998 140.27,202.348 C140.578002,202.660002 140.732,203.147997 140.732,203.812 Z M137.036,206.26 C137.036,206.996004 137.339997,207.364 137.948,207.364 C138.492003,207.364 139.027997,207.272001 139.556,207.088 L139.832,206.992 L139.832,205.012 L138.056,205.18 C137.695998,205.212 137.436001,205.315999 137.276,205.492 C137.115999,205.668001 137.036,205.923998 137.036,206.26 Z M142.58,208 L142.58,199.384 L143.48,199.384 L143.48,208 L142.58,208 Z M145.232,205.12 L145.232,204.28 L148.868,204.28 L148.868,205.12 L145.232,205.12 Z M152.42,202.684 C151.547996,202.684 151.112,202.987997 151.112,203.596 C151.112,203.876001 151.211999,204.073999 151.412,204.19 C151.612001,204.306001 152.067996,204.425999 152.78,204.55 C153.492004,204.674001 153.995999,204.847999 154.292,205.072 C154.588001,205.296001 154.736,205.715997 154.736,206.332 C154.736,206.948003 154.538002,207.399999 154.142,207.688 C153.745998,207.976001 153.168004,208.12 152.408,208.12 C151.911998,208.12 151.328003,208.064001 150.656,207.952 L150.296,207.892 L150.344,207.112 C151.256005,207.248001 151.943998,207.316 152.408,207.316 C152.872002,207.316 153.225999,207.242001 153.47,207.094 C153.714001,206.945999 153.836,206.698002 153.836,206.35 C153.836,206.001998 153.732001,205.766001 153.524,205.642 C153.315999,205.517999 152.860004,205.400001 152.156,205.288 C151.451996,205.175999 150.952001,205.012001 150.656,204.796 C150.359999,204.579999 150.212,204.180003 150.212,203.596 C150.212,203.011997 150.417998,202.580001 150.83,202.3 C151.242002,202.019999 151.755997,201.88 152.372,201.88 C152.860002,201.88 153.471996,201.935999 154.208,202.048 L154.544,202.108 L154.52,202.876 C153.631996,202.747999 152.932003,202.684 152.42,202.684 Z M158.36,201.88 C158.624001,201.88 159.071997,201.928 159.704,202.024 L159.992,202.06 L159.956,202.792 C159.315997,202.72 158.844002,202.684 158.54,202.684 C157.859997,202.684 157.398001,202.845998 157.154,203.17 C156.909999,203.494002 156.788,204.093996 156.788,204.97 C156.788,205.846004 156.901999,206.455998 157.13,206.8 C157.358001,207.144002 157.831996,207.316 158.552,207.316 L159.968,207.208 L160.004,207.952 C159.259996,208.064001 158.704002,208.12 158.336,208.12 C157.399995,208.12 156.754002,207.880002 156.398,207.4 C156.041998,206.919998 155.864,206.110006 155.864,204.97 C155.864,203.829994 156.055998,203.030002 156.44,202.57 C156.824002,202.109998 157.463996,201.88 158.36,201.88 Z M165.584,203.812 L165.584,206.884 C165.608,207.180001 165.839998,207.356 166.28,207.412 L166.244,208.12 C165.611997,208.12 165.136002,207.960002 164.816,207.64 C164.095996,207.960002 163.376004,208.12 162.656,208.12 C162.103997,208.12 161.684001,207.964002 161.396,207.652 C161.107999,207.339998 160.964,206.892003 160.964,206.308 C160.964,205.723997 161.111999,205.294001 161.408,205.018 C161.704001,204.741999 162.167997,204.572 162.8,204.508 L164.684,204.328 L164.684,203.812 C164.684,203.403998 164.596001,203.112001 164.42,202.936 C164.243999,202.759999 164.004002,202.672 163.7,202.672 C163.059997,202.672 162.396003,202.712 161.708,202.792 L161.336,202.828 L161.3,202.144 C162.180004,201.967999 162.959997,201.88 163.64,201.88 C164.320003,201.88 164.813998,202.035998 165.122,202.348 C165.430002,202.660002 165.584,203.147997 165.584,203.812 Z M161.888,206.26 C161.888,206.996004 162.191997,207.364 162.8,207.364 C163.344003,207.364 163.879997,207.272001 164.408,207.088 L164.684,206.992 L164.684,205.012 L162.908,205.18 C162.547998,205.212 162.288001,205.315999 162.128,205.492 C161.967999,205.668001 161.888,205.923998 161.888,206.26 Z M167.432,208 L167.432,199.384 L168.332,199.384 L168.332,208 L167.432,208 Z M174.212,207.256 L174.56,207.22 L174.584,207.928 C173.671995,208.056001 172.892003,208.12 172.244,208.12 C171.379996,208.12 170.768002,207.870002 170.408,207.37 C170.047998,206.869998 169.868,206.092005 169.868,205.036 C169.868,202.931989 170.703992,201.88 172.376,201.88 C173.184004,201.88 173.787998,202.105998 174.188,202.558 C174.588002,203.010002 174.788,203.719995 174.788,204.688 L174.74,205.372 L170.78,205.372 C170.78,206.036003 170.899999,206.527998 171.14,206.848 C171.380001,207.168002 171.797997,207.328 172.394,207.328 C172.990003,207.328 173.595997,207.304 174.212,207.256 Z M173.888,204.652 C173.888,203.915996 173.770001,203.396002 173.534,203.092 C173.297999,202.787998 172.914003,202.636 172.382,202.636 C171.849997,202.636 171.450001,202.795998 171.182,203.116 C170.913999,203.436002 170.776,203.947996 170.768,204.652 L173.888,204.652 Z M176.096,204.292 L176.096,203.464 L181.28,203.464 L181.28,204.292 L176.096,204.292 Z M176.096,206.512 L176.096,205.684 L181.28,205.684 L181.28,206.512 L176.096,206.512 Z M186.716,200.08 L186.716,208 L185.792,208 L185.792,201.112 L183.752,202.456 L183.332,201.76 L185.852,200.08 L186.716,200.08 Z M189.176,209.476 L189.728,206.716 L190.724,206.716 L189.92,209.476 L189.176,209.476 Z M84.764,227 L83.864,227 L83.864,221 L84.752,221 L84.752,221.42 C85.352003,221.059998 85.9359972,220.88 86.504,220.88 C87.2480037,220.88 87.7679985,221.083998 88.064,221.492 C88.3280013,221.331999 88.6699979,221.190001 89.09,221.066 C89.5100021,220.941999 89.8799984,220.88 90.2,220.88 C91.000004,220.88 91.5379986,221.093998 91.814,221.522 C92.0900014,221.950002 92.228,222.719994 92.228,223.832 L92.228,227 L91.328,227 L91.328,223.856 C91.328,223.023996 91.2480008,222.454002 91.088,222.146 C90.9279992,221.837998 90.5880026,221.684 90.068,221.684 C89.8039987,221.684 89.5320014,221.722 89.252,221.798 C88.9719986,221.874 88.7560008,221.948 88.604,222.02 L88.376,222.128 C88.4800005,222.392001 88.532,222.975995 88.532,223.88 L88.532,227 L87.632,227 L87.632,223.904 C87.632,223.039996 87.5540008,222.454002 87.398,222.146 C87.2419992,221.837998 86.9000026,221.684 86.372,221.684 C86.1159987,221.684 85.8540013,221.722 85.586,221.798 C85.3179987,221.874 85.1120007,221.948 84.968,222.02 L84.764,222.128 L84.764,227 Z M98.132,222.812 L98.132,225.884 C98.1560001,226.180001 98.3879978,226.356 98.828,226.412 L98.792,227.12 C98.1599968,227.12 97.6840016,226.960002 97.364,226.64 C96.6439964,226.960002 95.9240036,227.12 95.204,227.12 C94.6519972,227.12 94.2320014,226.964002 93.944,226.652 C93.6559986,226.339998 93.512,225.892003 93.512,225.308 C93.512,224.723997 93.6599985,224.294001 93.956,224.018 C94.2520015,223.741999 94.7159968,223.572 95.348,223.508 L97.232,223.328 L97.232,222.812 C97.232,222.403998 97.1440009,222.112001 96.968,221.936 C96.7919991,221.759999 96.5520015,221.672 96.248,221.672 C95.6079968,221.672 94.9440034,221.712 94.256,221.792 L93.884,221.828 L93.848,221.144 C94.7280044,220.967999 95.5079966,220.88 96.188,220.88 C96.8680034,220.88 97.3619985,221.035998 97.67,221.348 C97.9780015,221.660002 98.132,222.147997 98.132,222.812 Z M94.436,225.26 C94.436,225.996004 94.739997,226.364 95.348,226.364 C95.8920027,226.364 96.4279974,226.272001 96.956,226.088 L97.232,225.992 L97.232,224.012 L95.456,224.18 C95.0959982,224.212 94.8360008,224.315999 94.676,224.492 C94.5159992,224.668001 94.436,224.923998 94.436,225.26 Z M99.308,221 L100.292,221 L101.756,223.352 L103.22,221 L104.204,221 L102.296,223.976 L104.192,227 L103.208,227 L101.756,224.66 L100.292,227 L99.308,227 L101.192,224 L99.308,221 Z M105.332,227 L105.332,221 L106.232,221 L106.232,227 L105.332,227 Z M105.332,219.644 L105.332,218.6 L106.232,218.6 L106.232,219.644 L105.332,219.644 Z M108.86,227 L107.96,227 L107.96,221 L108.848,221 L108.848,221.42 C109.448003,221.059998 110.031997,220.88 110.6,220.88 C111.344004,220.88 111.863999,221.083998 112.16,221.492 C112.424001,221.331999 112.765998,221.190001 113.186,221.066 C113.606002,220.941999 113.975998,220.88 114.296,220.88 C115.096004,220.88 115.633999,221.093998 115.91,221.522 C116.186001,221.950002 116.324,222.719994 116.324,223.832 L116.324,227 L115.424,227 L115.424,223.856 C115.424,223.023996 115.344001,222.454002 115.184,222.146 C115.023999,221.837998 114.684003,221.684 114.164,221.684 C113.899999,221.684 113.628001,221.722 113.348,221.798 C113.067999,221.874 112.852001,221.948 112.7,222.02 L112.472,222.128 C112.576001,222.392001 112.628,222.975995 112.628,223.88 L112.628,227 L111.728,227 L111.728,223.904 C111.728,223.039996 111.650001,222.454002 111.494,222.146 C111.337999,221.837998 110.996003,221.684 110.468,221.684 C110.211999,221.684 109.950001,221.722 109.682,221.798 C109.413999,221.874 109.208001,221.948 109.064,222.02 L108.86,222.128 L108.86,227 Z M121.736,221 L122.636,221 L122.636,227 L121.736,227 L121.736,226.58 C121.135997,226.940002 120.544003,227.12 119.96,227.12 C119.143996,227.12 118.602001,226.908002 118.334,226.484 C118.065999,226.059998 117.932,225.276006 117.932,224.132 L117.932,221 L118.832,221 L118.832,224.12 C118.832,224.992004 118.907999,225.575999 119.06,225.872 C119.212001,226.168001 119.555997,226.316 120.092,226.316 C120.356001,226.316 120.623999,226.278 120.896,226.202 C121.168001,226.126 121.375999,226.052 121.52,225.98 L121.736,225.872 L121.736,221 Z M125.264,227 L124.364,227 L124.364,221 L125.252,221 L125.252,221.42 C125.852003,221.059998 126.435997,220.88 127.004,220.88 C127.748004,220.88 128.267999,221.083998 128.564,221.492 C128.828001,221.331999 129.169998,221.190001 129.59,221.066 C130.010002,220.941999 130.379998,220.88 130.7,220.88 C131.500004,220.88 132.037999,221.093998 132.314,221.522 C132.590001,221.950002 132.728,222.719994 132.728,223.832 L132.728,227 L131.828,227 L131.828,223.856 C131.828,223.023996 131.748001,222.454002 131.588,222.146 C131.427999,221.837998 131.088003,221.684 130.568,221.684 C130.303999,221.684 130.032001,221.722 129.752,221.798 C129.471999,221.874 129.256001,221.948 129.104,222.02 L128.876,222.128 C128.980001,222.392001 129.032,222.975995 129.032,223.88 L129.032,227 L128.132,227 L128.132,223.904 C128.132,223.039996 128.054001,222.454002 127.898,222.146 C127.741999,221.837998 127.400003,221.684 126.872,221.684 C126.615999,221.684 126.354001,221.722 126.086,221.798 C125.817999,221.874 125.612001,221.948 125.468,222.02 L125.264,222.128 L125.264,227 Z M134.348,224.12 L134.348,223.28 L137.984,223.28 L137.984,224.12 L134.348,224.12 Z M141.536,221.684 C140.663996,221.684 140.228,221.987997 140.228,222.596 C140.228,222.876001 140.327999,223.073999 140.528,223.19 C140.728001,223.306001 141.183996,223.425999 141.896,223.55 C142.608004,223.674001 143.111999,223.847999 143.408,224.072 C143.704001,224.296001 143.852,224.715997 143.852,225.332 C143.852,225.948003 143.654002,226.399999 143.258,226.688 C142.861998,226.976001 142.284004,227.12 141.524,227.12 C141.027998,227.12 140.444003,227.064001 139.772,226.952 L139.412,226.892 L139.46,226.112 C140.372005,226.248001 141.059998,226.316 141.524,226.316 C141.988002,226.316 142.341999,226.242001 142.586,226.094 C142.830001,225.945999 142.952,225.698002 142.952,225.35 C142.952,225.001998 142.848001,224.766001 142.64,224.642 C142.431999,224.517999 141.976004,224.400001 141.272,224.288 C140.567996,224.175999 140.068001,224.012001 139.772,223.796 C139.475999,223.579999 139.328,223.180003 139.328,222.596 C139.328,222.011997 139.533998,221.580001 139.946,221.3 C140.358002,221.019999 140.871997,220.88 141.488,220.88 C141.976002,220.88 142.587996,220.935999 143.324,221.048 L143.66,221.108 L143.636,221.876 C142.747996,221.747999 142.048003,221.684 141.536,221.684 Z M147.476,220.88 C147.740001,220.88 148.187997,220.928 148.82,221.024 L149.108,221.06 L149.072,221.792 C148.431997,221.72 147.960002,221.684 147.656,221.684 C146.975997,221.684 146.514001,221.845998 146.27,222.17 C146.025999,222.494002 145.904,223.093996 145.904,223.97 C145.904,224.846004 146.017999,225.455998 146.246,225.8 C146.474001,226.144002 146.947996,226.316 147.668,226.316 L149.084,226.208 L149.12,226.952 C148.375996,227.064001 147.820002,227.12 147.452,227.12 C146.515995,227.12 145.870002,226.880002 145.514,226.4 C145.157998,225.919998 144.98,225.110006 144.98,223.97 C144.98,222.829994 145.171998,222.030002 145.556,221.57 C145.940002,221.109998 146.579996,220.88 147.476,220.88 Z M154.7,222.812 L154.7,225.884 C154.724,226.180001 154.955998,226.356 155.396,226.412 L155.36,227.12 C154.727997,227.12 154.252002,226.960002 153.932,226.64 C153.211996,226.960002 152.492004,227.12 151.772,227.12 C151.219997,227.12 150.800001,226.964002 150.512,226.652 C150.223999,226.339998 150.08,225.892003 150.08,225.308 C150.08,224.723997 150.227999,224.294001 150.524,224.018 C150.820001,223.741999 151.283997,223.572 151.916,223.508 L153.8,223.328 L153.8,222.812 C153.8,222.403998 153.712001,222.112001 153.536,221.936 C153.359999,221.759999 153.120002,221.672 152.816,221.672 C152.175997,221.672 151.512003,221.712 150.824,221.792 L150.452,221.828 L150.416,221.144 C151.296004,220.967999 152.075997,220.88 152.756,220.88 C153.436003,220.88 153.929998,221.035998 154.238,221.348 C154.546002,221.660002 154.7,222.147997 154.7,222.812 Z M151.004,225.26 C151.004,225.996004 151.307997,226.364 151.916,226.364 C152.460003,226.364 152.995997,226.272001 153.524,226.088 L153.8,225.992 L153.8,224.012 L152.024,224.18 C151.663998,224.212 151.404001,224.315999 151.244,224.492 C151.083999,224.668001 151.004,224.923998 151.004,225.26 Z M156.548,227 L156.548,218.384 L157.448,218.384 L157.448,227 L156.548,227 Z M163.328,226.256 L163.676,226.22 L163.7,226.928 C162.787995,227.056001 162.008003,227.12 161.36,227.12 C160.495996,227.12 159.884002,226.870003 159.524,226.37 C159.163998,225.869998 158.984,225.092005 158.984,224.036 C158.984,221.931989 159.819992,220.88 161.492,220.88 C162.300004,220.88 162.903998,221.105998 163.304,221.558 C163.704002,222.010002 163.904,222.719995 163.904,223.688 L163.856,224.372 L159.896,224.372 C159.896,225.036003 160.015999,225.527998 160.256,225.848 C160.496001,226.168002 160.913997,226.328 161.51,226.328 C162.106003,226.328 162.711997,226.304 163.328,226.256 Z M163.004,223.652 C163.004,222.915996 162.886001,222.396002 162.65,222.092 C162.413999,221.787998 162.030003,221.636 161.498,221.636 C160.965997,221.636 160.566001,221.795998 160.298,222.116 C160.029999,222.436002 159.892,222.947996 159.884,223.652 L163.004,223.652 Z M165.212,223.292 L165.212,222.464 L170.396,222.464 L170.396,223.292 L165.212,223.292 Z M165.212,225.512 L165.212,224.684 L170.396,224.684 L170.396,225.512 L165.212,225.512 Z M175.832,219.08 L175.832,227 L174.908,227 L174.908,220.112 L172.868,221.456 L172.448,220.76 L174.968,219.08 L175.832,219.08 Z M181.52,221.36 L180.716,221.36 L180.668,218.696 L181.568,218.696 L181.52,221.36 Z M179.528,221.36 L178.724,221.36 L178.676,218.696 L179.576,218.696 L179.528,221.36 Z M187.412,223.976 L183.344,222.092 L183.344,221.156 L188.336,223.592 L188.336,224.384 L183.344,226.844 L183.344,225.896 L187.412,223.976 Z" id="&lt;head&gt;&lt;meta-charset=" fill="#1C3C55" fill-rule="evenodd"></path>
                            <g id="Group-5" stroke-width="1" fill-rule="evenodd" transform="translate(15.000000, 87.000000)" fill="#FFFFFF">
                                <g id="Group-3">
                                    <g id="Group" transform="translate(44.500000, 121.500000) scale(-1, 1) translate(-44.500000, -121.500000) translate(0.000000, 5.000000)">
                                        <path d="M40.9442952,14.1432511 C40.9442952,15.0664298 42.9864164,23.3799176 40.9442952,27.0755601 C38.9032523,30.7702268 26.6559161,34.4648934 17.4706836,44.6266904 C10.2445504,52.6191151 4.20336507,64.025154 1.14126149,86.1941296 C-1.92084209,108.364081 2.16124388,110.211414 3.18338268,107.440902 C4.20336507,104.669415 4.20336507,99.1264387 4.20336507,96.3559267 C4.20336507,96.3559267 12.367537,65.8724873 17.4706836,60.3295115 C22.5738302,54.7875116 12.367537,88.0424388 12.367537,88.0424388 C12.367537,88.0424388 53.1916314,90.8129509 55.2326744,88.9656175 C57.2747956,87.1182842 56.253735,59.4063328 59.3147603,54.7875116 C62.3768639,50.1686904 77.6863036,66.795666 76.665243,68.6439752 C75.6452606,70.4913085 60.3358209,78.8047964 57.2747956,82.499463 C54.212692,86.1941296 56.253735,88.0424388 58.2947779,90.8129509 C60.3358209,93.5844388 62.3768639,94.5085934 62.3768639,91.7371055 C62.3768639,88.9656175 58.2947779,86.1941296 61.3568815,85.2709509 C64.4179069,84.3467963 83.8094326,77.8806418 87.8915186,72.3386419 C91.9746827,66.795666 75.6452606,48.321357 69.5210535,42.7783812 C63.3979245,37.2363813 52.1705708,32.6175601 51.1505884,28.9228935 C50.130606,25.227251 52.1705708,15.0664298 51.1505884,10.4476086 C50.130606,5.82878736 40.9442952,14.1432511 40.9442952,14.1432511" id="Fill-27" stroke="#1C3C55"></path>
                                        <path d="M38.2983355,18.7253203 C38.2983355,18.7253203 39.0051106,20.8000158 43.2341227,21.4353614 C47.4641929,22.0716652 51.3377014,18.717654 52.2158801,13.9300425 C53.0930007,9.14147271 54.3235088,2.43728337 48.1529812,0.525496961 C41.9845697,-1.38533116 37.7597898,3.88334136 36.7059754,9.62924178 C35.6532191,15.3751422 38.2983355,18.7253203 38.2983355,18.7253203" id="Fill-34" stroke="#1C3C55"></path>
                                        <path d="M54.2484871,209.314894 C54.2484871,209.314894 55.2239262,217.570201 54.2484871,220.321001 C53.273048,223.07277 59.2968486,229.113096 62.0561247,230.409528 C65.9599434,232.244687 64.9845043,230.409528 63.033626,224.906959 C61.0806855,219.403421 58.1523059,212.983273 59.127745,207.480705 C60.1052464,201.978136 54.2484871,209.314894 54.2484871,209.314894" id="Fill-30" stroke="#1C3C55"></path>
                                        <path d="M21.238777,210.851908 C21.238777,210.851908 21.238777,218.341455 22.2224405,221.150529 C23.2071438,223.959604 18.2857068,229.576764 14.3489732,231.449151 C10.4122396,233.322527 11.3959031,231.449151 14.3489732,226.767689 C17.3020433,222.086228 16.31734,212.724295 15.3326367,208.042833 C14.3489732,203.361372 21.238777,210.851908 21.238777,210.851908" id="Fill-32" stroke="#1C3C55"></path>
                                        <path d="M59.5265994,147.377833 C57.8958895,159.372225 63.5628729,170.555629 63.5628729,178.900575 C63.5628729,187.243563 61.5442033,207.640689 61.5442033,210.421359 C61.5442033,213.203008 57.1892485,215.374457 54.4820569,214.130551 C50.4468492,212.276445 45.4023066,197.442616 45.4023066,183.535351 C45.4023066,169.629065 46.4116415,166.847416 42.3764338,152.940151 C38.3401602,139.033866 34.3049525,120.491825 34.3049525,120.491825 C34.3049525,120.491825 29.26041,152.013588 28.2510752,157.575906 C27.2428062,163.139204 27.2428062,164.065767 27.2428062,170.555629 C27.2428062,177.04549 28.2510752,188.171106 26.2345372,199.296722 C24.2158675,210.421359 27.2428062,215.058093 21.1889288,215.058093 C15.1361172,215.058093 9.08330569,199.296722 9.08330569,187.243563 C9.08330569,175.191384 12.1102444,168.701522 11.1009095,157.575906 C10.0915747,146.451269 9.08223987,121.173257 11.1009095,108.193535 C13.1174476,95.2138123 12.1390131,88.6458933 13.6503508,86.4950126 C15.1616884,84.344132 56.5007265,88.9690823 56.5007265,88.9690823 C56.5007265,88.9690823 63.5628729,117.710176 59.5265994,147.377833 Z" id="Fill-36" stroke="#1C3C55"></path>
                                        <path d="M7.42923686,58.1024389 C7.42923686,58.1024389 10.1276308,61.7109983 15.0562512,62.5838094 C16.376182,62.8175564 19.4903745,60.0367847 19.0154165,61.0101958 C17.3258563,64.4719126 12.5067935,92.0570833 12.5067935,92.0570833 C11.5613679,97.7427862 23.8324011,95.5533981 37.1625813,95.5533981 C52.3643402,95.5533981 56.0763644,88.787356 56.0763644,88.787356 C56.0763644,88.787356 59.1160737,60.8922447 60.1310947,57.1721762 C61.1439742,53.45309 62.1568538,55.3126331 65.1976338,56.2428958 C68.2384139,57.1721762 77.3596834,51.5935468 73.0019458,46.0551929 C68.6442081,40.5168389 55.0624141,31.136608 55.0624141,31.136608 L41.887485,43.2251117 L33.7790951,31.136608 L29.1879455,34.1454725 C19.9563942,40.1956183 12.5268263,48.2840906 7.64551769,57.6800387 C7.50418566,57.9531253 7.42923686,58.1024389 7.42923686,58.1024389 Z" id="Fill-38" stroke="#FF9500"></path>
                                    </g>
                                    <path d="M33.0205202,14.9281259 C33.2583844,15.8236722 37.3352877,8.06972649 39.3538304,7.26864368 C41.3723731,6.46756087 46.2463135,10.7618146 49.0827012,7.5 C50.9736264,5.3254569 51.9460593,3.46134966 52,1.90767827 C49.6044892,2.68855139 47.8724283,3.07898795 46.8038172,3.07898795 C45.2009006,3.07898795 45.1934521,-1.73193072 42.7924291,0.673528613 C40.391406,3.07898795 41.8638304,4.6989223 38.2410249,3.07898795 C34.6182194,1.45905359 32.7826561,14.0325795 33.0205202,14.9281259 Z" id="Path-26" stroke="#1C3C55"></path>
                                </g>
                            </g>
                            <rect id="Rectangle-11" fill="#FFFFFF" fill-rule="evenodd" x="205" y="97" width="73" height="57" rx="2"></rect>
                            <rect id="Rectangle-11" stroke="#1C3C55" stroke-width="1" x="205.5" y="97.5" width="72" height="56" rx="2"></rect>
                            <path d="M224,134.684 L229.13,116 L233.666,116 L238.796,134.684 L236.744,134.684 L235.394,129.878 L227.402,129.878 L226.052,134.684 L224,134.684 Z M230.696,117.782 L227.861,128.015 L234.935,128.015 L232.1,117.782 L230.696,117.782 Z M248.57,128.393 L243.818,128.393 L243.818,134.684 L241.739,134.684 L241.739,116 L248.57,116 C250.60401,116 252.106995,116.494995 253.079,117.485 C254.051005,118.475005 254.537,119.98699 254.537,122.021 C254.537,126.269021 252.54802,128.393 248.57,128.393 Z M243.818,126.557 L248.543,126.557 C251.117013,126.557 252.404,125.045015 252.404,122.021 C252.404,120.580993 252.098003,119.523503 251.486,118.8485 C250.873997,118.173497 249.893007,117.836 248.543,117.836 L243.818,117.836 L243.818,126.557 Z M257.75,134.684 L257.75,116 L259.829,116 L259.829,134.684 L257.75,134.684 Z" id="API" fill="#1C3C55" fill-rule="evenodd"></path>
                        </g>
                    </g>
                </g>
            </g>
        </g>
    </g>
</svg>