<?xml version="1.0" encoding="UTF-8"?>
<svg width="31px" height="30px" viewBox="0 0 31 30" version="1.1" xmlns="http://www.w3.org/2000/svg" xmlns:xlink="http://www.w3.org/1999/xlink">
    <!-- Generator: Sketch 49 (51002) - http://www.bohemiancoding.com/sketch -->
    <title>bars</title>
    <desc>Created with Sketch.</desc>
    <defs></defs>
    <g id="Symbols" stroke="none" stroke-width="1" fill="none" fill-rule="evenodd">
        <g id="GetBalance.icon" transform="translate(-15.000000, -15.000000)" fill-rule="nonzero">
            <g id="bars" transform="translate(15.000000, 15.000000)">
                <polygon id="Shape" fill="#F7931A" points="23.4003136 0 23.4003136 0.97440585 25.2440554 0.97440585 14.6644892 10.9977148 9.52835119 6.12568556 3 12.3107861 3.72119153 13 9.52835119 7.50411335 14.6644892 12.3702011 25.9715182 1.66361974 25.9715182 3.40447898 27 3.40447898 27 0"></polygon>
                <path d="M29.9992126,28.999204 L29.9992126,7 L25.001378,7 L25.001378,28.999204 L24.0005906,28.999204 L24.0005906,10.0023879 L19.0027559,10.0023879 L19.0027559,29.0053064 L18.0019685,29.0053064 L18.0019685,17.0018573 L12.9980315,17.0018573 L12.9980315,28.999204 L11.9972441,28.999204 L11.9972441,13.9994694 L6.99940945,13.9994694 L6.99940945,28.999204 L5.99862205,28.999204 L5.99862205,21.9997347 L1.0007874,21.9997347 L1.0007874,28.999204 L0,28.999204 L0,30 L31,30 L31,28.999204 L29.9992126,28.999204 Z M5.00393701,28.999204 L2.0015748,28.999204 L2.0015748,23.0005306 L5.00393701,23.0005306 L5.00393701,28.999204 Z M11.0025591,28.999204 L8.00019685,28.999204 L8.00019685,15.0002653 L11.0025591,15.0002653 L11.0025591,28.999204 Z M17.0011811,29.0053064 L13.9988189,29.0053064 L13.9988189,18.0026532 L17.0011811,18.0026532 L17.0011811,29.0053064 Z M22.9998031,29.0053064 L19.9974409,29.0053064 L19.9974409,11.0031839 L22.9998031,11.0031839 L22.9998031,29.0053064 Z M29.0045276,28.999204 L26.0021654,28.999204 L26.0021654,8.00079597 L29.0045276,8.00079597 L29.0045276,28.999204 Z" id="Shape" fill="#1C3C55"></path>
            </g>
        </g>
    </g>
</svg>