<?xml version="1.0" encoding="UTF-8"?>
<svg width="28px" height="35px" viewBox="0 0 28 35" version="1.1" xmlns="http://www.w3.org/2000/svg" xmlns:xlink="http://www.w3.org/1999/xlink">
    <!-- Generator: Sketch 49 (51002) - http://www.bohemiancoding.com/sketch -->
    <title>add-documents</title>
    <desc>Created with Sketch.</desc>
    <defs></defs>
    <g id="Symbols" stroke="none" stroke-width="1" fill="none" fill-rule="evenodd">
        <g id="GetNewAddress.icon" transform="translate(-16.000000, -13.000000)" fill-rule="nonzero">
            <g id="add-documents" transform="translate(16.000000, 13.000000)">
                <path d="M27.9409375,8.40364583 C27.9383125,8.36536458 27.9313854,8.32839583 27.9187708,8.29186458 C27.9135208,8.2779375 27.9100938,8.26444792 27.9044063,8.25095833 C27.8831146,8.204875 27.8565729,8.16090625 27.8191667,8.1235 L19.823125,0.127458333 C19.7857188,0.0904895833 19.74175,0.0635104167 19.6956667,0.0425833333 C19.6821771,0.0360208333 19.66825,0.03259375 19.6547604,0.02778125 C19.6182292,0.0156041667 19.5808229,0.00816666667 19.5425417,0.00561458333 C19.5333542,0.00525 19.5246771,0 19.5150521,0 L6.8166875,0 C6.5765,0 6.38159375,0.19490625 6.38159375,0.43509375 L6.38159375,7.13278125 L0.467104167,7.13278125 C0.226916667,7.13278125 0.0320104167,7.3276875 0.0320104167,7.567875 L0.0320104167,33.8143021 C0.0320104167,34.0549271 0.226916667,34.2493958 0.467104167,34.2493958 L21.161875,34.2493958 C21.4020625,34.2493958 21.5969688,34.0549271 21.5969688,33.8143021 L21.5969688,27.1166146 L27.5114583,27.1166146 C27.7516458,27.1166146 27.9465521,26.9221458 27.9465521,26.6815208 L27.9465521,8.4310625 C27.9465521,8.42151042 27.9418125,8.41276042 27.9409375,8.40364583 Z M26.4611667,7.99596875 L19.9505833,7.99596875 L19.9505833,1.48538542 L26.4611667,7.99596875 Z M20.7268542,33.3787708 L0.902197917,33.3787708 L0.902197917,8.00296875 L6.81676042,8.00296875 L12.7308854,8.00296875 L12.7308854,15.5638437 C12.7308854,15.8040312 12.9257917,15.9989375 13.1659792,15.9989375 L20.7268542,15.9989375 L20.7268542,26.6815937 L20.7268542,33.3787708 Z M13.601,8.61816667 L20.1115833,15.12875 L13.601,15.12875 L13.601,8.61816667 Z M21.5969688,26.2464271 L21.5969688,15.5638438 C21.5969688,15.5542917 21.5921563,15.5455417 21.5912813,15.5364271 C21.5886563,15.4981458 21.5817292,15.4611771 21.5691146,15.4246458 C21.5638646,15.4107188 21.5604375,15.3972292 21.55475,15.3837396 C21.5334583,15.3376563 21.5069167,15.2936875 21.4695104,15.2562813 L13.4734688,7.26023958 C13.4360625,7.22283333 13.3920938,7.19629167 13.3460104,7.17492708 C13.3325208,7.16880208 13.3190313,7.165375 13.3051042,7.1605625 C13.2685729,7.14794792 13.2316042,7.14058333 13.1928854,7.13839583 C13.1837708,7.13795833 13.1750208,7.13270833 13.1654688,7.13270833 L7.25178125,7.13270833 L7.25178125,0.8701875 L19.0803958,0.8701875 L19.0803958,8.4310625 C19.0803958,8.67125 19.2748646,8.86615625 19.5154896,8.86615625 L27.0763646,8.86615625 L27.0763646,26.2465 L21.5969688,26.2465 L21.5969688,26.2464271 Z" id="Shape" fill="#1C3C55"></path>
                <polygon id="Shape" fill="#FF9500" points="11.2498021 17.1558333 10.3796146 17.1558333 10.3796146 20.2558125 7.27963542 20.2558125 7.27963542 21.1259271 10.3796146 21.1259271 10.3796146 24.2259062 11.2498021 24.2259062 11.2498021 21.1259271 14.3497813 21.1259271 14.3497813 20.2558125 11.2498021 20.2558125"></polygon>
            </g>
        </g>
    </g>
</svg>