<?xml version="1.0" encoding="UTF-8"?>
<svg width="31px" height="30px" viewBox="0 0 31 30" version="1.1" xmlns="http://www.w3.org/2000/svg" xmlns:xlink="http://www.w3.org/1999/xlink">
    <!-- Generator: Sketch 49 (51002) - http://www.bohemiancoding.com/sketch -->
    <title>twitter</title>
    <desc>Created with Sketch.</desc>
    <defs></defs>
    <g id="Symbols" stroke="none" stroke-width="1" fill="none" fill-rule="evenodd">
        <g id="//Footer-web-1200px" transform="translate(-826.000000, -605.000000)">
            <g id="//Footer">
                <g id="Bottom" transform="translate(0.000000, 580.000000)">
                    <g id="social-media" transform="translate(744.000000, 25.000000)">
                        <g id="twitter" transform="translate(82.500000, 0.000000)">
                            <rect id="Rectangle-5" fill="#2D313D" x="0" y="0" width="30" height="30" rx="1"></rect>
                            <path d="M21.44198,11.0223229 C21.073676,11.5580379 20.613296,12.035159 20.0859516,12.4202041 C20.0943222,12.5373917 20.0943222,12.6545794 20.0943222,12.771767 C20.0943222,16.34599 17.3738948,20.4642985 12.4017907,20.4642985 C10.8699808,20.4642985 9.44698803,20.0206596 8.25,19.2505694 C8.46763419,19.275681 8.67689783,19.2840515 8.90290256,19.2840515 C10.166855,19.2840515 11.3303608,18.8571537 12.2594914,18.1289162 C11.0708739,18.1038046 10.074779,17.3253439 9.73158659,16.253914 C9.8989975,16.2790256 10.0664084,16.2957667 10.2421899,16.2957667 C10.4849357,16.2957667 10.7276815,16.2622845 10.9536863,16.2036907 C9.7148455,15.9525744 8.78571492,14.8644034 8.78571492,13.5502277 L8.78571492,13.5167456 C9.14564839,13.7176387 9.56417567,13.8431968 10.0078146,13.8599379 C9.27957712,13.3744463 8.80245602,12.5457623 8.80245602,11.6082611 C8.80245602,11.1060284 8.93638475,10.6456484 9.17076003,10.2438622 C10.5016768,11.8844892 12.5022372,12.955919 14.7455435,13.0731066 C14.7036907,12.8722135 14.6785791,12.6629499 14.6785791,12.4536863 C14.6785791,10.9637291 15.8839377,9.75 17.3822654,9.75 C18.1607261,9.75 18.8638519,10.0764513 19.3577141,10.6037957 C19.968764,10.486608 20.5547022,10.2606033 21.073676,9.9508931 C20.8727829,10.578684 20.4458851,11.1060284 19.8850585,11.4408502 C20.429144,11.3822564 20.9564884,11.2315866 21.44198,11.0223229 Z" id="twitter---FontAwesome" fill="#FFFFFF"></path>
                        </g>
                    </g>
                </g>
            </g>
        </g>
    </g>
</svg>