<?xml version="1.0" encoding="UTF-8"?>
<svg xmlns="http://www.w3.org/2000/svg" width="32" height="32">
  <g>
    <path d="M99.5 49.745a49.75 49.75 0 1 1-99.5 0 49.75 49.75 0 1 1 99.5 0z" transform="matrix(.254 0 0 .254 3.38 3.459)" opacity=".99" fill="none"/>
    <path d="M26.051 17.368l.783.427-.996 1.209-.783.569-.142 1.707-.534 1.745-1.264.54-.016.663-.895.871-.453.708-1.192.461-.377-1.756.037-1.523-.142-1.352.285-1.138-.427-.355-.854-.427-1.138.141-1.423-.498-.142-1.85v-1.28l1.28-1.494 1.138-1.565 1.992-.782.783.925h1.067l1.213.717.067 1.275 1.494 1.494"/>
    <path d="M6.123 20.323l.442-1.502 1.06-2.342 1.237-.574.353.619 1.149.53v.795h.795l.619.84.442.265 1.016.486 1.149.707.486.265-.177.619-.265.574-.795.663.398 1.193v1.37l-1.591.84-.707 1.723-.385.479-1.161-.526-1.937-1.186.081-.711-.265-1.767-1.016-1.149-.309-1.06z"/>
    <path d="M6.685 17.873l-.176-.352-.105-.844-.281.281-.176-.563.105-1.02h-.316l-.281.457v.387l-.563-.246-.07-1.195.246-.739 1.382-.475h.527l.457.317h.316l-.141-.844.668-.457.492-.106.949-1.02 1.055-.281.668-.598.316-.633.281-.598h-.527l-.246.106.211-.281.765-.343 1.152-.448.053-.58-.697-.958-.756-.545-.325.079-.202.563-.492.738h-.492l-.577-.403s-.025-.527.116-.527c.141 0 1.024-.511 1.024-.511l.422-.633.967-.387-.44-.387-1.231.351-1.09.175-.133-.034-2.187 1.405s-1.705 1.977-2.294 3.128c-.881 1.722-1.505 3.707-1.785 5.522-.095.616 1.406 1.231 1.406 1.231l.809.774 1.02.598.527.105.176-.211z"/>
    <path d="M13.986 6.118l.062.528.168.522.827-.255.354-.839.342-.143.796-.36.646-.149.149-.994s-.149-.448-.348-.448c-.199 0-1.144-.224-1.144-.224l-.696-.074-1.641.497-.547.348.05.597.771.236.454.143.019.317z"/>
    <path d="M24.715 13.891l.448.554.492.756.492.369-.053.879.756-.211 1.169-2.057-.448-.58-.563-.018-1.108-1.055-.229-.826 1.529 1.477s.237-.311.484-.397c.247-.085.434-.296.404-.377-.688-1.85-1.582-3.488-2.813-4.922-.797-.929-2.874-2.285-2.874-2.285l-1.406.633-.791.264.158-.299.668-.175-.088-.229-.65.158-.844-.089-1.195.703-.51.598.035.299.545-.194.422.317.281-.668.334-.299.105.51-.281.106.686-.069-.65.281-.088.175-.686.299-.633.158-.264-.053-.457-.545-.264.037.176.58.229.457-.035.527-.369.598.756 1.635-.598.897-.141.721.281.703h.327l.275.407.752-.457.352-1.565.844-1.037.809.211-.035.545.387-.756.387.404v.33299999999999996l.738.211.369.721 1.002-.158.778.604-.787 1.262.284.581.783-.585"/>
    <path d="M99.5 49.745a49.75 49.75 0 1 1-99.5 0 49.75 49.75 0 1 1 99.5 0z" transform="matrix(.254 0 0 .254 3.373 3.452)" opacity=".99" stroke="#000" stroke-width="7.837" fill="none"/>
  </g>
</svg>
