<?xml version="1.0" encoding="UTF-8"?>
<svg xmlns="http://www.w3.org/2000/svg" width="32" height="32">
  <g>
    <path d="M15.909 6.985l-10.628 17.435h21.299z" fill="#ee9209" stroke="#ee9209" stroke-width="6.54" stroke-linecap="round" stroke-linejoin="round"/>
    <path d="M17.439 14.396c0 1.155-.042 2.213-.125 3.174-.084.961-.188 1.928-.313 2.902h-1.796c-.139-.974-.251-1.942-.334-2.902-.084-.974-.125-2.032-.125-3.174v-3.884h2.694v3.884m.313 9.208c0 .487-.16.884-.48 1.19-.32.306-.717.459-1.19.459-.459 0-.856-.153-1.19-.459-.32-.306-.48-.703-.48-1.19s.16-.884.48-1.19c.334-.32.731-.48 1.19-.48.473 0 .87.16 1.19.48.32.306.48.703.48 1.19" style="line-height:125%;-inkscape-font-specification:Ubuntu Medium" font-size="28.564" font-weight="500" letter-spacing="0" word-spacing="0" fill="#fff" font-family="Ubuntu"/>
  </g>
</svg>
