<?xml version="1.0" encoding="UTF-8"?>
<svg width="32px" height="39px" viewBox="0 0 32 39" version="1.1" xmlns="http://www.w3.org/2000/svg" xmlns:xlink="http://www.w3.org/1999/xlink">
    <!-- Generator: Sketch 49 (51002) - http://www.bohemiancoding.com/sketch -->
    <title>Control against fraud ICON</title>
    <desc>Created with Sketch.</desc>
    <defs></defs>
    <g id="Innovation" stroke="none" stroke-width="1" fill="none" fill-rule="evenodd">
        <g id="22.01.18-Bitcoin.org_Innovation_Desktop-1200px--" transform="translate(-384.000000, -738.000000)">
            <g id="//contenct" transform="translate(215.000000, 697.000000)">
                <g id="box1">
                    <g id="Control-against-fraud-ICON" transform="translate(155.000000, 30.000000)">
                        <g>
                            <rect id="Rectangle-2" x="0" y="0" width="60" height="60"></rect>
                            <g id="firewall-shield" transform="translate(14.000000, 11.000000)" fill-rule="nonzero">
                                <path d="M16.0348497,38.7368421 L15.8144049,38.7016548 C6.50139624,36.5138452 0,28.3341929 0,18.8089371 L0,5.50593456 L0.648680798,5.4770976 C6.0568465,5.23645988 11.2278353,3.44154093 15.602117,0.287068352 L16.0004444,0 L16.3987719,0.287068352 C20.774413,3.44159299 25.9449313,5.23645988 31.3513192,5.47714965 L32,5.50593456 L32,18.8094055 C32,28.3346614 25.4981332,36.5142616 16.1887323,38.7012904 L16.0348497,38.7368421 Z M1.11461,6.34403495 L1.11461,18.8094055 C1.11461,27.6626664 7.37232577,35.731371 16,37.816065 C24.6285631,35.7304861 30.9687176,27.662302 30.9687176,18.8094055 L30.9687176,6.53315888 C25.6945129,6.1816498 20.3281639,4.19067792 16,1.17862039 C11.6728295,4.19020945 6.39101078,5.99252587 1.11461,6.34403495 Z" id="Shape" fill="#FF9500"></path>
                                <path d="M16.0230343,33.6842105 L15.8685071,33.6582976 C9.00571168,32.042343 4.21052632,25.9933409 4.21052632,18.9486639 L4.21052632,9.12447559 L4.64583482,9.10487011 C8.65653824,8.92516191 12.4904437,7.5909376 15.7326707,5.2460058 L16.0002369,5.05263158 L16.2678032,5.2460058 C19.5118203,7.5913581 23.3452519,8.92552984 27.3541652,9.10487011 L27.7894737,9.12447559 L27.7894737,18.9486113 C27.7894737,25.9928679 22.9942883,32.04187 16.1287551,33.6591386 L16.0230343,33.6842105 Z M5.12221016,9.99042837 L5.12221016,18.9490318 C5.12221016,25.5419417 9.59101945,31.2068234 15.9998157,32.7544479 C22.411771,31.2027236 26.8778951,25.5394713 26.8778951,18.9490318 L26.8778951,9.99042837 C22.9583285,9.73560961 19.2128221,8.42188434 16.0002369,6.17345568 C12.7899683,8.42188434 9.04361953,9.73560961 5.12221016,9.99042837 Z" id="Shape" fill="#1C3C55"></path>
                                <path d="M19.1092213,18.0215706 L19.1092213,16.3747618 C19.1092213,14.7765674 17.7512761,13.4736842 16.084107,13.4736842 L15.9168589,13.4736842 C14.2496361,13.4736842 12.8945883,14.7765674 12.8945883,16.3747618 L12.8945883,18.0215706 L11.7894737,18.0215706 L11.7894737,25.2631579 L20.2105263,25.2631579 L20.2105263,18.0215706 L19.1092213,18.0215706 Z M14.0624813,16.3743022 C14.0624813,15.3950717 14.8949122,14.5979405 15.9169125,14.5979405 L16.0841606,14.5979405 C17.1085218,14.5979405 17.937626,15.3950207 17.937626,16.3743022 L17.937626,18.0211621 L14.0624813,18.0211621 L14.0624813,16.3743022 Z" id="Shape" fill="#C9D4DE"></path>
                            </g>
                        </g>
                    </g>
                </g>
            </g>
        </g>
    </g>
</svg>