<?xml version="1.0" encoding="UTF-8"?>
<svg width="29px" height="36px" viewBox="0 0 29 36" version="1.1" xmlns="http://www.w3.org/2000/svg" xmlns:xlink="http://www.w3.org/1999/xlink">
    <!-- Generator: Sketch 49 (51002) - http://www.bohemiancoding.com/sketch -->
    <title>Group</title>
    <desc>Created with Sketch.</desc>
    <defs></defs>
    <g id="Symbols" stroke="none" stroke-width="1" fill="none" fill-rule="evenodd">
        <g id="Documentation.icon" transform="translate(-16.000000, -12.000000)">
            <g id="documentation-icon">
                <g id="file">
                    <g id="Group" transform="translate(16.000000, 13.000000)">
                        <polyline id="Path-3" stroke="#FF9500" points="4.21231172 31.2745779 0.561456603 31.2745779 0.561456603 0.230367492 25.2404495 0.230367492 25.2404495 9.40632023"></polyline>
                        <path d="M4.41463415,3.56097561 L4.41463415,34 L27.1707317,34 L27.1707317,13.1070218 L18.5064861,13.1070218 L18.5064861,3.56097561 L4.41463415,3.56097561 Z M3.41463415,2.56097561 L19.5064861,2.56097561 L19.5064861,12.1070218 L28.1707317,12.1070218 L28.1707317,35 L3.41463415,35 L3.41463415,2.56097561 Z" id="Rectangle-3" fill="#1C3C55" fill-rule="nonzero"></path>
                        <path d="M23.3017164,14.5121951 L8.2836495,14.5121951 C7.95205059,14.5121951 7.68292683,14.7029878 7.68292683,14.9390244 C7.68292683,15.175061 7.95205059,15.3658537 8.2836495,15.3658537 L23.3017164,15.3658537 C23.6333153,15.3658537 23.902439,15.175061 23.902439,14.9390244 C23.902439,14.7029878 23.6333153,14.5121951 23.3017164,14.5121951 Z" id="Shape" fill="#1C3C55" fill-rule="nonzero"></path>
                        <path d="M8.25203252,11.097561 L13.9430894,11.097561 C14.2572358,11.097561 14.5121951,10.9067683 14.5121951,10.6707317 C14.5121951,10.4346951 14.2572358,10.2439024 13.9430894,10.2439024 L8.25203252,10.2439024 C7.93788618,10.2439024 7.68292683,10.4346951 7.68292683,10.6707317 C7.68292683,10.9067683 7.93788618,11.097561 8.25203252,11.097561 Z" id="Shape" fill="#1C3C55" fill-rule="nonzero"></path>
                        <path d="M23.3017164,19.6341463 L8.2836495,19.6341463 C7.95205059,19.6341463 7.68292683,19.824939 7.68292683,20.0609756 C7.68292683,20.2970122 7.95205059,20.4878049 8.2836495,20.4878049 L23.3017164,20.4878049 C23.6333153,20.4878049 23.902439,20.2970122 23.902439,20.0609756 C23.902439,19.824939 23.6333153,19.6341463 23.3017164,19.6341463 Z" id="Shape" fill="#1C3C55" fill-rule="nonzero"></path>
                        <path d="M23.3017164,23.902439 L8.2836495,23.902439 C7.95205059,23.902439 7.68292683,24.0932317 7.68292683,24.3292683 C7.68292683,24.5653049 7.95205059,24.7560976 8.2836495,24.7560976 L23.3017164,24.7560976 C23.6333153,24.7560976 23.902439,24.5653049 23.902439,24.3292683 C23.902439,24.0932317 23.6333153,23.902439 23.3017164,23.902439 Z" id="Shape" fill="#1C3C55" fill-rule="nonzero"></path>
                        <path d="M23.3017164,28.1707317 L8.2836495,28.1707317 C7.95205059,28.1707317 7.68292683,28.3615244 7.68292683,28.597561 C7.68292683,28.8335976 7.95205059,29.0243902 8.2836495,29.0243902 L23.3017164,29.0243902 C23.6333153,29.0243902 23.902439,28.8335976 23.902439,28.597561 C23.902439,28.3615244 23.6333153,28.1707317 23.3017164,28.1707317 Z" id="Shape" fill="#1C3C55" fill-rule="nonzero"></path>
                        <polygon id="Path-2" fill="#1C3C55" fill-rule="nonzero" points="18.8035482 3.18573747 19.5434773 2.51305263 28.2377189 12.0764056 27.4977898 12.7490904"></polygon>
                    </g>
                </g>
            </g>
        </g>
    </g>
</svg>