<?xml version="1.0" encoding="UTF-8"?>
<svg width="41px" height="27px" viewBox="0 0 41 27" version="1.1" xmlns="http://www.w3.org/2000/svg" xmlns:xlink="http://www.w3.org/1999/xlink">
    <!-- Generator: Sketch 49 (51002) - http://www.bohemiancoding.com/sketch -->
    <title>Group 3</title>
    <desc>Created with Sketch.</desc>
    <defs></defs>
    <g id="Symbols" stroke="none" stroke-width="1" fill="none" fill-rule="evenodd">
        <g id="ListUnspent.icon" transform="translate(-10.000000, -17.000000)">
            <g id="Group-3" transform="translate(10.000000, 17.000000)">
                <path d="M10.3913043,9.99130435 C10.0599335,9.99130435 9.79130435,9.7226752 9.79130435,9.39130435 C9.79130435,9.0599335 10.0599335,8.79130435 10.3913043,8.79130435 L39.7391304,8.79130435 C40.0705013,8.79130435 40.3391304,9.0599335 40.3391304,9.39130435 C40.3391304,9.7226752 40.0705013,9.99130435 39.7391304,9.99130435 L10.3913043,9.99130435 Z" id="Path-46-Copy" fill="#1C3C55" fill-rule="nonzero"></path>
                <g id="Group-2">
                    <path d="M10.3508246,1.95 C10.0194537,1.95 9.75082459,1.68137085 9.75082459,1.35 C9.75082459,1.01862915 10.0194537,0.75 10.3508246,0.75 L39.5614261,0.75 C39.8927969,0.75 40.1614261,1.01862915 40.1614261,1.35 C40.1614261,1.68137085 39.8927969,1.95 39.5614261,1.95 L10.3508246,1.95 Z" id="Path-46" fill="#1C3C55" fill-rule="nonzero"></path>
                    <g id="Group" transform="translate(2.335832, 0.000000)" fill="#C9D4DE">
                        <ellipse id="Oval" cx="1.33583208" cy="1.35" rx="1.33583208" ry="1.35"></ellipse>
                        <ellipse id="Oval-Copy" cx="1.33583208" cy="9.45" rx="1.33583208" ry="1.35"></ellipse>
                    </g>
                    <path d="M10.3508246,18.15 C10.0194537,18.15 9.75082459,17.8813708 9.75082459,17.55 C9.75082459,17.2186292 10.0194537,16.95 10.3508246,16.95 L39.5614261,16.95 C39.8927969,16.95 40.1614261,17.2186292 40.1614261,17.55 C40.1614261,17.8813708 39.8927969,18.15 39.5614261,18.15 L10.3508246,18.15 Z" id="Path-46-Copy-2" fill="#1C3C55" fill-rule="nonzero"></path>
                    <path d="M10.3508246,26.25 C10.0194537,26.25 9.75082459,25.9813708 9.75082459,25.65 C9.75082459,25.3186292 10.0194537,25.05 10.3508246,25.05 L39.5614261,25.05 C39.8927969,25.05 40.1614261,25.3186292 40.1614261,25.65 C40.1614261,25.9813708 39.8927969,26.25 39.5614261,26.25 L10.3508246,26.25 Z" id="Path-46-Copy-3" fill="#1C3C55" fill-rule="nonzero"></path>
                    <path d="M3.32081823,18.947797 L7.13442792,14.5235497 C7.31472146,14.3143874 7.63043777,14.2909847 7.83960003,14.4712782 C8.04876229,14.6515718 8.07216501,14.9672881 7.89187147,15.1764503 L3.7595253,19.9704705 C3.58227258,20.176105 3.27331482,20.2027242 3.06350121,20.0304386 L0.682697683,18.0754739 C0.469284651,17.9002327 0.438340292,17.5851662 0.613581523,17.3717531 C0.788822754,17.1583401 1.10388929,17.1273957 1.31730232,17.302637 L3.32081823,18.947797 Z" id="Path-47" fill="#FF9500" fill-rule="nonzero"></path>
                    <path d="M3.32081823,25.697797 L7.13442792,21.2735497 C7.31472146,21.0643874 7.63043777,21.0409847 7.83960003,21.2212782 C8.04876229,21.4015718 8.07216501,21.7172881 7.89187147,21.9264503 L3.7595253,26.7204705 C3.58227258,26.926105 3.27331482,26.9527242 3.06350121,26.7804386 L0.682697683,24.8254739 C0.469284651,24.6502327 0.438340292,24.3351662 0.613581523,24.1217531 C0.788822754,23.9083401 1.10388929,23.8773957 1.31730232,24.052637 L3.32081823,25.697797 Z" id="Path-47-Copy" fill="#FF9500" fill-rule="nonzero"></path>
                </g>
            </g>
        </g>
    </g>
</svg>