<?xml version="1.0" encoding="UTF-8"?>
<svg width="40px" height="35px" viewBox="0 0 40 35" version="1.1" xmlns="http://www.w3.org/2000/svg" xmlns:xlink="http://www.w3.org/1999/xlink">
    <!-- Generator: Sketch 49 (51002) - http://www.bohemiancoding.com/sketch -->
    <title>cloud-computing copy</title>
    <desc>Created with Sketch.</desc>
    <defs></defs>
    <g id="new-TEMPLATE" stroke="none" stroke-width="1" fill="none" fill-rule="evenodd">
        <g id="Bitcoin.org---Bitcoin-core-Template" transform="translate(-479.000000, -9820.000000)" fill-rule="nonzero">
            <g id="Group-29" transform="translate(469.000000, 9807.000000)">
                <g id="cloud-computing-copy" transform="translate(10.000000, 13.000000)">
                    <path d="M33.9833333,10.93095 C33.632,4.85595 28.686,0 22.7226667,0 C19.1026667,0 15.5973333,1.797525 13.4253333,4.7304 C13.376,4.704075 13.3233333,4.686525 13.2733333,4.66155 C13.1413333,4.59675 13.0073333,4.53465 12.87,4.479975 C12.7933333,4.4496 12.7166667,4.421925 12.6393333,4.39425 C12.5046667,4.346325 12.3686667,4.304475 12.2293333,4.266 C12.152,4.245075 12.0753333,4.223475 11.9966667,4.20525 C11.8473333,4.170825 11.6953333,4.1445 11.5413333,4.12155 C11.4733333,4.111425 11.4066667,4.097925 11.338,4.089825 C11.118,4.065525 10.894,4.05 10.6666667,4.05 C7.35866667,4.05 4.66666667,6.774975 4.66666667,10.125 C4.66666667,10.212075 4.67133333,10.297125 4.67733333,10.382175 C1.90466667,11.9124 0,15.119325 0,18.32895 C0,23.109975 3.84133333,27 8.56333333,27 L12,27 C12.368,27 12.6666667,26.698275 12.6666667,26.325 C12.6666667,25.951725 12.368,25.65 12,25.65 L8.56333333,25.65 C4.57666667,25.65 1.33333333,22.366125 1.33333333,18.32895 C1.33333333,15.525 3.13666667,12.6144 5.62133333,11.408175 L6,11.22525 L6,10.8 C6,10.716975 6.00533333,10.631925 6.01,10.546875 L6.016,10.42875 L6.008,10.30185 C6.00466667,10.243125 6,10.1844 6,10.125 C6,7.520175 8.09333333,5.4 10.6666667,5.4 C10.8726667,5.4 11.076,5.418225 11.278,5.445225 C11.33,5.451975 11.3813333,5.46075 11.4326667,5.469525 C11.6113333,5.499225 11.7873333,5.538375 11.9606667,5.589 C11.9833333,5.59575 12.0066667,5.5998 12.0286667,5.60655 C12.2193333,5.665275 12.4053333,5.7402 12.5873333,5.8239 C12.6333333,5.844825 12.6786667,5.867775 12.724,5.890725 C12.8853333,5.97105 13.0433333,6.06015 13.1953333,6.16005 C14.48,7.003125 15.3333333,8.463825 15.3333333,10.125 C15.3333333,10.498275 15.632,10.8 16,10.8 C16.368,10.8 16.6666667,10.498275 16.6666667,10.125 C16.6666667,8.26605 15.836,6.602175 14.5333333,5.487075 C16.444,2.955825 19.592,1.35 22.7226667,1.35 C27.8853333,1.35 32.1746667,5.491125 32.6213333,10.723725 C31.94,10.675125 30.9193333,10.65015 29.8993333,10.8081 C29.5353333,10.864125 29.2853333,11.208375 29.3406667,11.576925 C29.3906667,11.91105 29.6746667,12.150675 29.9986667,12.150675 C30.032,12.150675 30.066,12.147975 30.1,12.142575 C31.5826667,11.915775 33.1286667,12.1284 33.2226667,12.141225 C36.3266667,12.7386 38.6666667,15.633675 38.6666667,18.8811 C38.6666667,22.613175 35.6673333,25.65 31.9813333,25.65 L29.3333333,25.65 C28.9653333,25.65 28.6666667,25.951725 28.6666667,26.325 C28.6666667,26.698275 28.9653333,27 29.3333333,27 L31.9813333,27 C36.4026667,27 40,23.3577 40,18.8811 C40,15.176025 37.4486667,11.853 33.9833333,10.93095 Z" id="Shape" fill="#1C1F30"></path>
                    <path d="M21.4719869,18.19908 C21.4106553,18.1358368 21.3366573,18.0861943 21.2546596,18.0515126 C21.0919974,17.9828291 20.9080026,17.9828291 20.7453404,18.0515126 C20.6633427,18.0861943 20.5900114,18.1358368 20.5280131,18.19908 L15.1954946,23.6386719 C14.9348351,23.9045652 14.9348351,24.3343467 15.1954946,24.60024 C15.325491,24.7328466 15.4961529,24.79949 15.6668148,24.79949 C15.8374767,24.79949 16.0081387,24.7328466 16.1381351,24.60024 L20.3333519,20.320786 L20.3333519,34.319966 C20.3333519,34.6960248 20.6320102,35 21,35 C21.3679898,35 21.6666481,34.6960248 21.6666481,34.319966 L21.6666481,20.320786 L25.8618649,24.60024 C25.9918613,24.7328466 26.1625233,24.79949 26.3331852,24.79949 C26.5038471,24.79949 26.674509,24.7328466 26.8045054,24.60024 C27.0651649,24.3343467 27.0651649,23.9045652 26.8045054,23.6386719 L21.4719869,18.19908 Z" id="Shape" fill="#FF9500"></path>
                </g>
            </g>
        </g>
    </g>
</svg>