<?xml version="1.0" encoding="UTF-8"?>
<svg xmlns="http://www.w3.org/2000/svg" width="32" height="32">
  <path d="M12.191 31.041c-.814 0-3.56.023-3.56.023l3.659-11.977.814-8.929-5.39 7.322-1.019-.947s4.76-7.715 5.17-8.171c.41-.456 2.259-1.381 2.259-1.381s-.549-1.04-.682-1.596c-.157-.658-.246-1.35-.126-2.014.126-.694.207-1.571.868-1.964.902-.537 2.388-.537 3.266.031.661.428.671 1.344.763 2.062.08.615-.008 1.251-.186 1.85-.174.581-.846 1.643-.846 1.643s1.61.67 2.251 1.196c.487.4 5.352 8.695 5.352 8.695l-1.096.854-5.191-7.706.669 8.976 4.275 12.059-3.661-.008-3.908-12.922z" stroke="#000" stroke-width="1.345" stroke-linecap="round" stroke-linejoin="round"/>
</svg>
