<?xml version="1.0" encoding="UTF-8"?>
<svg width="29px" height="42px" viewBox="0 0 29 42" version="1.1" xmlns="http://www.w3.org/2000/svg" xmlns:xlink="http://www.w3.org/1999/xlink">
    <!-- Generator: Sketch 49 (51002) - http://www.bohemiancoding.com/sketch -->
    <title>icon/block template</title>
    <desc>Created with Sketch.</desc>
    <defs></defs>
    <g id="Developer-Documentation" stroke="none" stroke-width="1" fill="none" fill-rule="evenodd">
        <g id="22.01.18-Bitcoin.org_Developer-Documentation-Desktop-1200px--" transform="translate(-786.000000, -1382.000000)">
            <g id="//contenct" transform="translate(215.000000, 513.000000)">
                <g id="developer-documentation" transform="translate(0.000000, 115.000000)">
                    <g id="box8" transform="translate(400.000000, 707.000000)">
                        <g id="icon/block-template" transform="translate(155.000000, 40.000000)">
                            <g>
                                <rect id="Rectangle-2" x="0" y="0" width="60" height="60"></rect>
                                <g id="Group-5" transform="translate(16.000000, 7.000000)">
                                    <path d="M27.4561099,12.4444384 L24.0576416,9.04609601 C24.7790525,8.86901754 25.4646417,8.50419653 26.0276715,7.94080483 C26.8509691,7.11792045 27.2644774,6.03505119 27.264204,4.95672101 C27.2645868,3.87833614 26.8509691,2.79524813 26.0280543,1.97263718 C25.2050847,1.14898717 24.121902,0.735877009 23.0434772,0.736205134 C21.9647789,0.735822321 20.8819243,1.14942467 20.0592829,1.97263718 C19.4959797,2.53526326 19.1310358,3.22082707 18.9536773,3.94193782 L15.5558654,0.54430633 C15.192781,0.181508762 14.7125513,-0.000382210238 14.2379,6.02992721e-07 C13.7629206,-0.000382210238 13.2820894,0.18156345 12.9195518,0.54430633 L7.9218495,5.54286275 C7.71955256,5.7451522 7.71955256,6.07234814 7.9218495,6.27463759 L8.52042748,6.87352154 C8.64298694,6.99607647 8.81766562,7.04923282 8.98780505,7.01538119 C9.14968635,6.98322488 9.31402869,6.96703735 9.47869916,6.96703735 C10.1228336,6.96774829 10.7617725,7.21110813 11.2546902,7.70258563 C11.7455843,8.193735 11.9888984,8.83275966 11.9896094,9.47681558 C11.9889531,10.1219106 11.7455296,10.7623024 11.2540339,11.254108 C10.7624835,11.7452574 10.1228336,11.9890001 9.47798819,11.9893282 C8.83352561,11.9889454 8.19354757,11.7452574 7.70232533,11.254108 C7.2104468,10.7618649 6.96707796,10.1229496 6.96674982,9.47851089 C6.96636699,9.31351839 6.98260981,9.14951027 7.01504076,8.98872871 C7.04883895,8.8189237 6.99540718,8.64321242 6.873504,8.52098563 L6.27426974,7.92210167 C6.07202749,7.72014035 5.74438193,7.72014035 5.54208499,7.92248449 L0.544054503,12.920494 C0.181243505,13.2829088 -0.000654200112,13.7633941 2.07543358e-06,14.2384106 C-0.000708889741,14.7130443 0.181243505,15.1939124 0.544327951,15.5563272 L3.94203052,18.953904 C3.22061963,19.1313653 2.53535858,19.4961863 1.97200071,20.0598514 C1.14908587,20.8820249 0.735468203,21.9652222 0.736233858,23.0436071 C0.735522893,24.1216092 1.14870304,25.20508 1.97238354,26.0280738 C2.79529838,26.851341 3.87853586,27.2645058 4.9572341,27.2637949 C6.03527606,27.2644511 7.11813071,26.8505753 7.94044397,26.0276909 C8.50374715,25.4644086 8.86896449,24.7788448 9.04604951,24.0577341 L12.4437521,27.4556937 C12.8069459,27.8184912 13.2870662,28.0003822 13.7621003,27.9999994 C14.2370797,28.0003822 14.7172546,27.8184366 15.0796828,27.4559671 L20.077768,22.4580669 C20.2797368,22.2558322 20.2797368,21.9281987 20.077768,21.7259093 L19.47919,21.1270253 C19.3570134,21.0048532 19.1823347,20.9516969 19.0121406,20.9851657 C18.8502593,21.0175954 18.6855888,21.0334548 18.5205902,21.0334548 C17.8761276,21.0327986 17.2368058,20.7897669 16.7452554,20.2985628 C16.2537051,19.8067025 16.0103362,19.1674044 16.0100081,18.5226375 C16.0103909,17.8781988 16.2540879,17.2382445 16.7452554,16.7463295 C17.2368058,16.2551801 17.8764557,16.0117656 18.5216293,16.0111093 C19.1660919,16.0117656 19.8057965,16.2555082 20.297675,16.7466576 C20.7888425,17.2385179 21.0322661,17.877816 21.0325942,18.5222547 C21.032977,18.6865363 21.0163514,18.8512554 20.9842486,19.0144979 C20.9511067,19.1843029 21.0039368,19.3576079 21.1264963,19.4801081 L21.7250743,20.0789921 C21.8210546,20.175297 21.9546613,20.2305314 22.0913307,20.2305314 C22.227672,20.2305314 22.3608959,20.1753516 22.4575872,20.0789921 L27.4559458,15.0804357 C27.8191396,14.7176381 28.0006545,14.2371528 27.9999982,13.7625191 C28.0004357,13.2873385 27.818538,12.8069079 27.4561099,12.4444384 Z M26.7589176,14.3488139 L22.1142508,18.9931027 L22.0647291,18.9435816 C22.080304,18.8075769 22.0910529,18.6708592 22.0910529,18.5333737 C22.0914368,17.6251031 21.7428112,16.7119517 21.0494538,16.0186564 C20.3560963,15.3253611 19.4426062,14.9764101 18.5343261,14.976794 C17.625662,14.9764101 16.7122268,15.325032 16.0188693,16.0183822 C15.3251828,16.7120614 14.9766121,17.6255418 14.976996,18.5341963 C14.9766121,19.4424669 15.3252377,20.3560022 16.0188693,21.0492975 C16.7118977,21.7426477 17.625333,22.0911599 18.5333389,22.0905018 C18.670442,22.0905018 18.8071611,22.080466 18.9438254,22.0645622 L18.993347,22.1140833 L14.3486802,26.7583722 C14.1873922,26.9196585 13.9772955,26.9992871 13.761605,27 C13.5455855,26.9992871 13.3354888,26.9197133 13.1738169,26.7583722 L9.006488,22.5907581 C8.85660696,22.4408786 8.6323064,22.3969513 8.43707169,22.479651 C8.24222086,22.5616926 8.11723774,22.7534703 8.1199798,22.9649357 C8.12069273,23.0051339 8.12135083,23.0403965 8.12135083,23.069791 C8.12069273,23.8894392 7.81292385,24.7022322 7.18915989,25.3266477 C6.56435396,25.951118 5.7505652,26.2616257 4.93227947,26.2618999 C4.11262271,26.261516 3.29812102,25.9517761 2.67326024,25.3269219 C2.04812526,24.7017935 1.73865629,23.8876294 1.7379982,23.0686942 C1.73865629,22.2497042 2.04889303,21.4355401 2.67298603,20.8111246 C3.29746292,20.1866543 4.1098258,19.8796564 4.92986646,19.8789435 C4.96211309,19.8789435 4.99463393,19.8796016 5.02677088,19.8806984 C5.23966447,19.8868954 5.43457014,19.7630104 5.5190256,19.5673939 C5.60348107,19.3717773 5.55988231,19.1450661 5.40961739,18.9945286 L1.24163038,14.8269145 C1.08034238,14.6652443 1.00071294,14.4551499 1,14.2395165 C1.00065809,14.0234992 1.08028754,13.8134047 1.24124649,13.6521184 L5.88624236,9.00750051 L5.93538009,9.05663772 C5.91980519,9.19335542 5.90905631,9.33012797 5.90905631,9.46711988 C5.90867242,10.3753905 6.25762706,11.2885419 6.95092967,11.9818372 C7.64395807,12.6751874 8.55739331,13.0240835 9.46605736,13.0234254 C10.3747214,13.0240835 11.2881567,12.6751874 11.9811851,11.9818372 C12.6752006,11.287829 13.0237713,10.3736356 13.0230584,9.46498109 C13.0237165,8.55671049 12.6744877,7.644272 11.9818431,6.95163478 C11.2878276,6.25795558 10.3746666,5.90905946 9.46671546,5.90977239 C9.32961242,5.90977239 9.19289328,5.92013727 9.05622898,5.9360959 L9.00670736,5.8865748 L13.6517032,1.24162784 C13.8129912,1.08067057 14.0230879,1.00071293 14.2391075,1 C14.4544689,1.00065809 14.6648398,1.08028669 14.8265117,1.24195688 L18.9941696,5.40957096 C19.1450378,5.56049238 19.3749322,5.60376165 19.5698379,5.51793605 C19.7650726,5.4324395 19.8889589,5.23446481 19.8803488,5.02124442 C19.8789778,4.99322085 19.8783197,4.96272946 19.8783197,4.92987992 C19.8793617,4.11056083 20.1867467,3.29782262 20.8105106,2.6733523 C21.4353165,2.04888199 22.2494892,1.73837431 23.068433,1.73810011 C23.8871026,1.73848399 24.7016043,2.0482239 25.3263554,2.6733523 C25.9511065,3.2984807 26.2613433,4.11231573 26.2616175,4.93125094 C26.2612336,5.74991194 25.9511065,6.56440505 25.3263554,7.18914957 C24.7015495,7.8129618 23.8891318,8.11995967 23.069475,8.12061776 C23.0369542,8.12061776 23.0047075,8.12023387 22.9728996,8.11924674 C22.760006,8.11304975 22.5651004,8.23693475 22.4806449,8.43255129 C22.3961894,8.62816784 22.4394591,8.85487902 22.5900531,9.00541657 L26.7580401,13.1733597 C26.9193281,13.334646 26.9992866,13.5447405 26.9999995,13.7607577 C27.0002189,13.9770492 26.9202604,14.1871437 26.7589176,14.3488139 Z" id="Shape" fill="#1C1F30" fill-rule="nonzero"></path>
                                    <path d="M28.5143838,25.1111057 L25.4800372,22.0768714 C26.1241541,21.9187657 26.7362873,21.5930326 27.2389924,21.0900043 C27.9740796,20.3552861 28.3432834,19.3884386 28.3430393,18.4256438 C28.3433811,17.4628001 27.9740796,16.4957573 27.2393342,15.7612832 C26.50454,15.0258814 25.5374125,14.657033 24.5745332,14.657326 C23.6114098,14.6569842 22.6445753,15.026272 21.910074,15.7612832 C21.4071247,16.2636279 21.081282,16.8757385 20.9229262,17.5195873 L17.8891655,14.4859878 C17.564983,14.1620614 17.1362065,13.9996587 16.7124107,14.0000005 C16.288322,13.9996587 15.8590084,14.1621102 15.5353141,14.4859878 L11.0730799,18.9489846 C10.8924576,19.1296002 10.8924576,19.4217394 11.0730799,19.602355 L11.6075245,20.1370728 C11.7169526,20.2464968 11.8729157,20.2939579 12.0248259,20.2637332 C12.1693628,20.2350222 12.316097,20.2205691 12.4631242,20.2205691 C13.0382443,20.2212038 13.6087255,20.4384894 14.0488305,20.8773086 C14.4871288,21.3158348 14.7043736,21.8863926 14.7050084,22.4614425 C14.7044224,23.0374201 14.48708,23.6091986 14.0482445,24.0483107 C13.6093603,24.486837 13.0382443,24.7044643 12.4624895,24.7047573 C11.8870764,24.7044155 11.3156675,24.486837 10.8770762,24.0483107 C10.4378989,23.608808 10.2206053,23.0383479 10.2203123,22.4629562 C10.2199705,22.3156414 10.234473,22.1692056 10.2634293,22.0256506 C10.2936062,21.874039 10.2458993,21.717154 10.1370571,21.6080229 L9.60202655,21.0733051 C9.42145312,20.8929825 9.12891243,20.8929825 8.94829017,21.0736469 L4.48576295,25.5361554 C4.16182456,25.85974 3.99941589,26.2887447 4.00000185,26.7128666 C3.99936706,27.1366467 4.16182456,27.5659932 4.4860071,27.8895778 L7.51967011,30.9231286 C6.87555324,31.0815761 6.26371302,31.4073092 5.76071492,31.9105816 C5.02596952,32.6446651 4.65666804,33.6118056 4.65735166,34.5746492 C4.65671687,35.5371511 5.02562771,36.5045357 5.76105673,37.2393516 C6.49580213,37.9744116 7.46297845,38.3433088 8.42610187,38.342674 C9.38863934,38.3432599 10.3554738,37.973728 11.0896821,37.2390098 C11.5926314,36.7360791 11.9187183,36.1239686 12.0768299,35.4801197 L15.1104929,38.5140122 C15.4347731,38.8379386 15.8634519,39.0003413 16.2875895,38.9999995 C16.7116783,39.0003413 17.1404059,38.8378898 17.4640025,38.5142563 L21.9265786,34.0518455 C22.1069078,33.8712787 22.1069078,33.5787489 21.9265786,33.3981333 L21.3921339,32.8634155 C21.2830476,32.7543332 21.1270845,32.7068722 20.9751255,32.7367551 C20.8305886,32.7657102 20.6835614,32.7798704 20.5362412,32.7798704 C19.9608282,32.7792845 19.3900052,32.5622919 18.9511209,32.1237168 C18.5122367,31.6845558 18.2949431,31.1137539 18.2946501,30.5380692 C18.2949919,29.9626775 18.5125785,29.3912897 18.9511209,28.9520799 C19.3900052,28.5135537 19.9611212,28.2962193 20.537169,28.2956333 C21.112582,28.2962193 21.6837468,28.5138466 22.1229241,28.9523728 C22.5614665,29.3915338 22.778809,29.9623357 22.779102,30.5377274 C22.7794438,30.6844074 22.7645995,30.831478 22.7359362,30.9772302 C22.7063452,31.1288418 22.753515,31.2835785 22.8629431,31.3929537 L23.3973878,31.9276715 C23.4830845,32.013658 23.6023762,32.0629745 23.7244024,32.0629745 C23.8461357,32.0629745 23.9650856,32.0137068 24.0514171,31.9276715 L28.5142373,27.4646747 C28.8385175,27.1407483 29.0005844,26.7117436 28.9999984,26.2879635 C29.0003891,25.8636951 28.8379804,25.4347392 28.5143838,25.1111057 Z" id="Path" stroke="#FF9500" fill="#FFFFFF" transform="translate(16.500000, 26.500000) rotate(-68.000000) translate(-16.500000, -26.500000) "></path>
                                </g>
                            </g>
                        </g>
                    </g>
                </g>
            </g>
        </g>
    </g>
</svg>