<?xml version="1.0" encoding="UTF-8"?>
<svg width="30px" height="35px" viewBox="0 0 30 35" version="1.1" xmlns="http://www.w3.org/2000/svg" xmlns:xlink="http://www.w3.org/1999/xlink">
    <!-- Generator: Sketch 49 (51002) - http://www.bohemiancoding.com/sketch -->
    <title>people</title>
    <desc>Created with Sketch.</desc>
    <defs></defs>
    <g id="Symbols" stroke="none" stroke-width="1" fill="none" fill-rule="evenodd">
        <g id="meetups-icon" transform="translate(-15.000000, -13.000000)" fill-rule="nonzero">
            <g id="people">
                <g transform="translate(15.000000, 13.000000)">
                    <path d="M0.369965014,17.6313237 C0.705744301,18.8142402 1.60115574,20.4082923 1.73546745,20.6535311 C1.89962621,21.0213893 2.00409088,21.4036732 2.04139969,21.800383 L3.30243746,33.7449545 C3.37705508,34.4590321 3.99638132,35 4.74255752,35 L6.92139201,35 C7.6675682,35 8.28689444,34.4590321 8.36151206,33.7449545 L9.62254983,21.800383 C9.6673204,21.3964603 9.77178507,20.9997505 9.9434056,20.6318924 C10.0926408,20.3000987 9.93594383,19.9178147 9.60016455,19.7735566 C9.2569235,19.6292985 8.86145011,19.7807695 8.71221487,20.1053503 C8.48836202,20.6030407 8.33912678,21.1295828 8.28689444,21.6705507 L7.02585667,33.6151222 C7.01839491,33.6583996 6.9810861,33.6944641 6.93631553,33.6944641 L4.75748104,33.6944641 C4.71271047,33.6944641 4.6679399,33.6583996 4.6679399,33.6151222 L3.3919786,21.6633378 C3.33228451,21.1223699 3.19051103,20.5958278 2.96665817,20.0981374 C2.95919641,20.0764986 2.95173465,20.0620728 2.93681112,20.0404341 C2.92934936,20.0260083 1.98916736,18.3886788 1.67577335,17.2851042 C1.33253231,16.0516974 1.2355294,13.3684966 1.51907635,12.8924448 C1.74292921,12.6760577 1.83993212,12.5895028 2.07124674,12.423606 C2.66072593,12.0052575 3.33974627,11.6662509 3.77999022,11.4642896 L5.28726614,13.4694773 C5.41411609,13.6353741 5.61558366,13.7363548 5.83197476,13.7363548 C6.04836586,13.7363548 6.24983343,13.6353741 6.37668338,13.4694773 L8.20481506,11.0387281 C8.42120616,10.7502119 8.3540503,10.3390763 8.05557982,10.1226891 C7.75710934,9.91351488 7.33178891,9.97843103 7.10793605,10.2669473 L5.824513,11.9691929 L4.55601347,10.2741602 C4.37693118,10.0289214 4.04115189,9.94236651 3.75760494,10.0505601 C3.70537261,10.0721988 2.37717898,10.591528 1.27283821,11.3777347 C0.959444208,11.6013348 0.810208969,11.73838 0.549047301,11.9908317 C-0.406058229,12.9140835 0.123726869,16.7513492 0.369965014,17.6313237 Z" id="Shape" fill="#95AABF"></path>
                    <path d="M5.45111495,10 C5.46301779,10 5.47492063,10 5.48682347,10 C5.49277489,10 5.50467773,10 5.51062915,10 C5.52253199,10 5.53443483,10 5.55228909,10 C6.24265383,9.9795122 6.825893,9.69268293 7.24249241,9.15317073 C8.12925402,8.00585366 8.00427419,6.09365854 7.98046851,5.85463415 C7.89119721,3.74439024 6.61164188,3 5.54633767,3 C5.52848341,3 5.51062915,3 5.49872631,3 C5.48682347,3 5.46896921,3 5.45111495,3 C4.38581075,3 3.11220684,3.75121951 3.01698411,5.85463415 C2.99912985,6.09365854 2.86819861,8.00585366 3.75496021,9.15317073 C4.17751104,9.69268293 4.76075022,9.98634146 5.45111495,10 Z M4.09419116,5.96390244 C4.09419116,5.9502439 4.09419116,5.93658537 4.09419116,5.92292683 C4.15370536,4.44780488 4.96904992,4.22926829 5.45111495,4.22926829 L5.47492063,4.22926829 C5.48682347,4.22926829 5.50467773,4.22926829 5.51658057,4.22926829 L5.54038625,4.22926829 C6.02245129,4.22926829 6.83779585,4.44780488 6.89731005,5.92292683 C6.89731005,5.93658537 6.89731005,5.9502439 6.89731005,5.95707317 C6.93896999,6.39414634 6.92706715,7.67121951 6.42119644,8.32682927 C6.20099389,8.61365854 5.89747146,8.75707317 5.49872631,8.75707317 C5.49277489,8.75707317 5.49277489,8.75707317 5.48682347,8.75707317 C5.08807832,8.7502439 4.7845559,8.61365854 4.56435335,8.32682927 C4.06443406,7.67804878 4.05848264,6.40097561 4.09419116,5.96390244 Z" id="Shape" fill="#95AABF"></path>
                    <path d="M20.4037968,19.7726312 C20.0608576,19.916898 19.9042983,20.3064186 20.0608576,20.6310191 C20.2323272,21.006113 20.3367,21.3956335 20.3814312,21.7995808 L21.6413601,33.7448782 C21.7159121,34.4589992 22.3346937,35 23.0802137,35 L25.2571323,35 C26.0026523,35 26.621434,34.4589992 26.695986,33.7448782 L27.9559148,21.7995808 C28.000646,21.4028469 28.0975636,21.0205396 28.2615781,20.6526591 C28.3957717,20.4146188 29.2978509,18.8204698 29.6258797,17.630268 C29.8719014,16.7502401 30.4086758,12.9127412 29.4544101,11.9894332 C29.1934781,11.7369661 29.0443741,11.5999126 28.7312557,11.3762989 C27.627886,10.5900445 26.3083155,10.0706837 26.2486739,10.0490437 C25.9579211,9.93363017 25.6298923,10.0274036 25.4509675,10.2726573 L24.168673,11.9750065 L22.8789233,10.2798707 C22.6627225,9.98412358 22.2377761,9.92641683 21.9321129,10.1356038 C21.6339049,10.3447908 21.566808,10.7559514 21.7830089,11.0516985 L23.609533,13.4825953 C23.7362714,13.6485022 23.9375618,13.7494891 24.1537626,13.7494891 C24.3699634,13.7494891 24.5712538,13.6485022 24.6979922,13.4825953 L26.2039427,11.4772858 C26.6437996,11.6792594 27.3222228,12.0182865 27.9111836,12.4366605 C28.1348396,12.595354 28.2317573,12.6891275 28.4628685,12.9055278 C28.7461661,13.3816085 28.6492485,16.0649724 28.3063093,17.2984542 C27.9931908,18.4020958 27.0538356,20.0395249 27.0463804,20.0539516 C27.0389252,20.0683783 27.0240148,20.0900183 27.0165596,20.1116583 C26.7929036,20.609379 26.6437996,21.1359531 26.5916132,21.6769539 L25.3316843,33.6222513 C25.3242291,33.6655314 25.2869531,33.7015981 25.2422219,33.7015981 L23.0653033,33.7015981 C23.0205721,33.7015981 22.9758409,33.6655314 22.9758409,33.6222513 L21.7159121,21.6769539 C21.6562705,21.1359531 21.5146216,20.609379 21.2909656,20.1116583 C21.1418616,19.7726312 20.746736,19.6283643 20.4037968,19.7726312 Z" id="Shape" fill="#1C3C55"></path>
                    <path d="M24.4451635,10 C24.4570664,10 24.4689692,10 24.4868235,10 C24.4927749,10 24.5046777,10 24.5106292,10 C24.522532,10 24.5344348,10 24.5463377,10 C25.2367024,9.98634146 25.8199416,9.69268293 26.2424924,9.15317073 C27.129254,8.00585366 27.0042742,6.09365854 26.9804685,5.85463415 C26.8911972,3.74439024 25.6175933,3 24.5463377,3 C24.5284834,3 24.5106292,3 24.4987263,3 C24.4868235,3 24.4689692,3 24.451115,3 C23.3858107,3 22.1122068,3.75121951 22.0169841,5.85463415 C21.9991299,6.09365854 21.8681986,8.00585366 22.7549602,9.15317073 C23.1715596,9.69268293 23.7547988,9.9795122 24.4451635,10 Z M23.0882397,5.96390244 C23.0882397,5.9502439 23.0882397,5.93658537 23.0882397,5.92292683 C23.1477539,4.44780488 23.9630985,4.22926829 24.4451635,4.22926829 L24.4689692,4.22926829 C24.4808721,4.22926829 24.4987263,4.22926829 24.5106292,4.22926829 L24.5344348,4.22926829 C25.0164999,4.22926829 25.8318444,4.44780488 25.8913586,5.92292683 C25.8913586,5.93658537 25.8913586,5.9502439 25.8913586,5.95707317 C25.9330186,6.39414634 25.9211157,7.67121951 25.415245,8.32682927 C25.1950425,8.61365854 24.89152,8.7502439 24.4927749,8.75707317 C24.4868235,8.75707317 24.4868235,8.75707317 24.4808721,8.75707317 C24.0821269,8.7502439 23.7786045,8.61365854 23.5584019,8.32682927 C23.0584826,7.67804878 23.0525312,6.40097561 23.0882397,5.96390244 Z" id="Shape" fill="#1C3C55"></path>
                    <path d="M9.55749166,10.147204 C8.58089023,11.1372091 9.13068067,15.2658973 9.39110771,16.2192356 C9.73834378,17.5025756 10.6643066,19.2332513 10.8017542,19.4825859 C10.9753723,19.8859213 11.0838835,20.3039235 11.127288,20.7365924 L12.4294233,33.6799931 C12.5017641,34.4353304 13.1238954,35 13.8762402,35 L16.1260405,35 C16.8711513,35 17.4932825,34.427997 17.5728575,33.6799931 L18.8749927,20.7365924 C18.9183972,20.3039235 19.0269085,19.878588 19.2005265,19.4825859 C19.3379741,19.2259179 20.263937,17.5025756 20.611173,16.2192356 C20.864366,15.2658973 21.4213905,11.1372091 20.4447891,10.147204 C20.1771279,9.87586925 20.0252122,9.72920182 19.7069124,9.48720056 C18.5711612,8.63652947 17.2039191,8.07919323 17.1460465,8.04985975 C16.8639172,7.9325258 16.5456174,8.02785963 16.3719994,8.27719426 L14.9902892,10.1765375 L13.6302813,8.27719426 C13.4566633,8.02785963 13.1311295,7.93985917 12.8562343,8.04985975 C12.7983616,8.07185986 11.4383537,8.63652947 10.2953683,9.48720056 C9.97706857,9.72920182 9.81791871,9.87586925 9.55749166,10.147204 Z M10.4979227,11.0712088 C10.7366475,10.8292075 10.8379246,10.7338737 11.0766494,10.5578728 C11.6987807,10.088537 12.4221892,9.71453508 12.8851706,9.49453393 L14.4622011,11.6945454 C14.5851805,11.8632129 14.7805008,11.9658801 14.9902892,11.9658801 C15.2000777,11.9658801 15.395398,11.8632129 15.5183774,11.6945454 L17.0954079,9.49453393 C17.5511552,9.71453508 18.2745637,10.088537 18.903929,10.5578728 C19.1426538,10.7338737 19.243931,10.8292075 19.4826558,11.0712088 C19.7864874,11.5698781 19.6924443,14.51056 19.323506,15.8672338 C18.9979721,17.0699067 18.0286048,18.8445826 18.0141366,18.8592493 C18.0069025,18.8739161 17.9924344,18.8959162 17.9852003,18.9179163 C17.7537096,19.4532524 17.6017938,20.017922 17.5439211,20.6045918 L16.2417859,33.5479924 C16.2345518,33.6213262 16.1766791,33.6726598 16.1043383,33.6726598 L13.854538,33.6726598 C13.7821971,33.6726598 13.7243244,33.6213262 13.7170903,33.5479924 L12.4149551,20.6045918 C12.3570824,20.0252554 12.2124007,19.4532524 11.9736759,18.9179163 C11.9664419,18.8959162 11.9592078,18.8812494 11.9447396,18.8592493 C11.9375055,18.8445826 10.9609041,17.0625733 10.6353703,15.8599004 C10.2881342,14.51056 10.1940911,11.5698781 10.4979227,11.0712088 Z" id="Shape" fill="#FF9500"></path>
                    <path d="M14.9389184,7 C14.9524921,7 14.9728526,7 14.9864263,7 C14.9932132,7 15.0135737,7 15.0203605,7 C15.0339342,7 15.0475079,7 15.0610816,7 C15.90265,6.987061 16.5813343,6.70240296 17.0903474,6.15249538 C18.1626685,5.00739372 17.9997843,3.07948244 17.9794238,2.84658041 C17.8708343,0.743992606 16.3437948,0 15.0610816,0 C15.0407211,0 15.0203605,0 15,0 C14.9864263,0 14.9660658,0 14.9389184,0 C13.6629921,0 12.1291657,0.743992606 12.0205762,2.84658041 C12.0002157,3.07948244 11.8373315,5.00092421 12.9096526,6.14602588 C13.4186657,6.69593346 14.1041368,6.9805915 14.9389184,7 Z M13.2489947,2.95656192 C13.2489947,2.94362292 13.2489947,2.93068392 13.2489947,2.91774492 C13.32365,1.33918669 14.4570526,1.17097967 14.9389184,1.17097967 L14.9728526,1.17097967 C14.9864263,1.17097967 15.0067868,1.17097967 15.0203605,1.17097967 L15.0542947,1.17097967 C15.5361605,1.17097967 16.6695632,1.33918669 16.7442185,2.91774492 C16.7442185,2.93068392 16.7442185,2.94362292 16.7442185,2.95009242 C16.7917264,3.39648799 16.7849395,4.70332717 16.16055,5.36968577 C15.8822895,5.66728281 15.5022263,5.81608133 15.0067868,5.81608133 C15,5.81608133 14.9932132,5.81608133 14.9864263,5.81608133 C14.4909868,5.80961183 14.1109237,5.66728281 13.8326631,5.36968577 C13.2082736,4.70979667 13.2014868,3.40295749 13.2489947,2.95656192 Z" id="Shape" fill="#FF9500"></path>
                </g>
            </g>
        </g>
    </g>
</svg>