<?xml version="1.0" encoding="UTF-8"?>
<svg width="34px" height="31px" viewBox="0 0 34 31" version="1.1" xmlns="http://www.w3.org/2000/svg" xmlns:xlink="http://www.w3.org/1999/xlink">
    <!-- Generator: Sketch 49 (51002) - http://www.bohemiancoding.com/sketch -->
    <title>icon/payment</title>
    <desc>Created with Sketch.</desc>
    <defs></defs>
    <g id="Developer-Documentation" stroke="none" stroke-width="1" fill="none" fill-rule="evenodd">
        <g id="22.01.18-Bitcoin.org_Developer-Documentation-Desktop-1200px--" transform="translate(-782.000000, -1033.000000)">
            <g id="//contenct" transform="translate(215.000000, 513.000000)">
                <g id="developer-documentation" transform="translate(0.000000, 115.000000)">
                    <g id="box5" transform="translate(400.000000, 353.000000)">
                        <g id="icon/payment" transform="translate(155.000000, 40.000000)">
                            <g>
                                <rect id="Path" opacity="0.5" x="0" y="0" width="60" height="60"></rect>
                                <path d="M45.8583555,16.5999596 C45.7167109,16.4562319 45.575,16.3124368 45.2917109,16.3124368 L18.375,16.3124368 L17.6666445,12.5749781 C17.6666445,12.2874554 17.2416445,12 16.9582891,12 L12.7082891,12 C12.2833555,11.9999326 12,12.2874554 12,12.7187058 C12,13.1499562 12.2833555,13.437479 12.7083555,13.437479 L16.3917109,13.437479 L19.7917109,30.9750185 C20.2167109,33.2749983 22.3417109,35 24.6083555,35 L40.9,35 C41.325,35 41.6083555,34.7124773 41.6083555,34.2812268 C41.6083555,33.8499764 41.325,33.5624537 40.9,33.5624537 L24.75,33.5624537 C23.6166445,33.5624537 22.4833555,32.9874756 21.9166445,31.9811797 L42.6,29.1062218 C42.8833555,29.1062218 43.1666445,28.818699 43.1666445,28.5312437 L46,17.03121 C46,17.03121 46,16.7436873 45.8583555,16.5999596 Z M41.8916445,27.8124705 L21.2082891,30.5437007 L18.6582891,17.6061881 L44.3,17.6061881 L41.8916445,27.8124705 Z" id="Shape" fill="#95AABF" fill-rule="nonzero"></path>
                                <path d="M23.5,36 C21.5400315,36 20,37.5400315 20,39.5 C20,41.4600341 21.5400315,43 23.5,43 C25.4600341,43 27,41.4599685 27,39.5 C27.0000656,37.5400315 25.4600341,36 23.5,36 Z M23.5,41.6000131 C22.3799711,41.6000131 21.3999869,40.6199632 21.3999869,39.5 C21.3999869,38.3800368 22.3799711,37.3999869 23.5,37.3999869 C24.6200289,37.3999869 25.6000131,38.3800368 25.6000131,39.5 C25.6000131,40.6199632 24.6200289,41.6000131 23.5,41.6000131 Z" id="Shape" fill="#FF9500" fill-rule="nonzero"></path>
                                <path d="M38.5,36 C36.5399659,36 35,37.5400315 35,39.5 C35,41.4600341 36.5400315,43 38.5,43 C40.4600341,43 42,41.4599685 42,39.5 C42,37.5400315 40.4599685,36 38.5,36 Z M38.5,41.6000131 C37.3799711,41.6000131 36.3999869,40.6199632 36.3999869,39.5 C36.3999869,38.3800368 37.3799711,37.3999869 38.5,37.3999869 C39.6200289,37.3999869 40.6000131,38.3800368 40.6000131,39.5 C40.6000131,40.6199632 39.6199632,41.6000131 38.5,41.6000131 Z" id="Shape" fill="#FF9500" fill-rule="nonzero"></path>
                            </g>
                        </g>
                    </g>
                </g>
            </g>
        </g>
    </g>
</svg>