<?xml version="1.0" encoding="UTF-8"?>
<svg width="20px" height="30px" viewBox="0 0 20 30" version="1.1" xmlns="http://www.w3.org/2000/svg" xmlns:xlink="http://www.w3.org/1999/xlink">
    <!-- Generator: Sketch 49 (51002) - http://www.bohemiancoding.com/sketch -->
    <title>sd</title>
    <desc>Created with Sketch.</desc>
    <defs></defs>
    <g id="new-TEMPLATE" stroke="none" stroke-width="1" fill="none" fill-rule="evenodd">
        <g id="Bitcoin.org---Bitcoin-core-Template" transform="translate(-860.000000, -9830.000000)" fill-rule="nonzero">
            <g id="Group-32" transform="translate(840.000000, 9815.000000)">
                <g id="sd" transform="translate(20.000000, 15.000000)">
                    <path d="M19.5604954,4.35349914 L15.6464963,0.439499913 C15.3659339,0.157124969 14.984059,-0.00112499978 14.5859966,-1.18297786e-12 L1.49999965,-1.18297786e-12 C0.671562342,-1.18297786e-12 0,0.671562367 0,1.4999997 L0,28.4999943 C0,29.3284317 0.671562342,29.999994 1.49999965,29.999994 L18.4999956,29.999994 C19.3284329,29.999994 19.9999953,29.3284317 19.9999953,28.4999943 L19.9999953,5.41449892 C20.0009953,5.016374 19.8427453,4.63431158 19.5604954,4.35349914 Z M12,1 L14,1 L14,5.5 L12,5.5 L12,1 Z M9,1 L11,1 L11,5.5 L9,5.5 L9,1 Z M6,1 L8,1 L8,5.5 L6,5.5 L6,1 Z M3,1 L5,1 L5,5.5 L3,5.5 L3,1 Z M19,28.5 C19,28.776125 18.776125,29 18.5,29 L1.5,29 C1.223875,29 1,28.776125 1,28.5 L1,1.5 C1,1.223875 1.223875,1 1.5,1 L2,1 L2,6 C2,6.276125 2.223875,6.5 2.5,6.5 L14.5,6.5 C14.776125,6.5 15,6.276125 15,6 L15,1.207 L18.8535,5.0605 C18.947375,5.154375 19.000125,5.28175 19,5.4145 L19,28.5 Z" id="Shape" fill="#1C3C55"></path>
                    <rect id="Rectangle-path" fill="#95AABF" x="6" y="24" width="8" height="1"></rect>
                    <rect id="Rectangle-path" fill="#95AABF" x="8" y="26" width="4" height="1"></rect>
                    <path d="M3.6475,12.631 C3.6471875,12.6313125 3.6468125,12.6316875 3.6465,12.632 L4.3535,13.339 C7.4716875,10.2205 12.5275,10.2203125 15.646,13.3385 C15.6461875,13.3386875 15.6463125,13.3388125 15.6465,13.339 L16.3535,12.632 C12.845125,9.1230625 7.1564375,9.122625 3.6475,12.631 Z" id="Shape" fill="#F7931A"></path>
                    <path d="M5.1470625,14.1314375 C5.146875,14.131625 5.1466875,14.1318125 5.1465,14.132 L5.8535,14.839 C8.145,12.5525 11.855,12.5525 14.1465,14.839 L14.8535,14.132 C12.1733125,11.4515 7.8275625,11.45125 5.1470625,14.1314375 Z" id="Shape" fill="#F7931A"></path>
                    <path d="M6.6465,15.6465 L7.3535,16.3535 C8.81675,14.895875 11.1831875,14.895875 12.6465,16.3535 L13.3535,15.6465 C11.49975,13.7985 8.5003125,13.7985 6.6465,15.6465 Z" id="Shape" fill="#F7931A"></path>
                    <path d="M10,16.5 C9.1715625,16.5 8.5,17.1715625 8.5,18 C8.5,18.8284375 9.1715625,19.5 10,19.5 C10.8284375,19.5 11.5,18.8284375 11.5,18 C11.5,17.1715625 10.8284375,16.5 10,16.5 Z M10,18.5 C9.723875,18.5 9.5,18.276125 9.5,18 C9.5,17.723875 9.723875,17.5 10,17.5 C10.276125,17.5 10.5,17.723875 10.5,18 C10.5,18.276125 10.276125,18.5 10,18.5 Z" id="Shape" fill="#F7931A"></path>
                </g>
            </g>
        </g>
    </g>
</svg>