<?xml version="1.0" encoding="UTF-8"?>
<svg width="45px" height="35px" viewBox="0 0 45 35" version="1.1" xmlns="http://www.w3.org/2000/svg" xmlns:xlink="http://www.w3.org/1999/xlink">
    <!-- Generator: Sketch 49 (51002) - http://www.bohemiancoding.com/sketch -->
    <title>cloud</title>
    <desc>Created with Sketch.</desc>
    <defs></defs>
    <g id="Symbols" stroke="none" stroke-width="1" fill="none" fill-rule="evenodd">
        <g id="Many-third-party-APIs.icon" transform="translate(-8.000000, -13.000000)">
            <g id="cloud" transform="translate(8.000000, 13.000000)">
                <g id="Group-3" transform="translate(0.000000, 19.193548)">
                    <path d="M20.1437419,6.39924194 C19.9347016,2.84279032 17.003,0 13.4690726,0 C11.3233468,0 9.24558871,1.05231452 7.95815323,2.76929032 C7.92851613,2.75387903 7.89729839,2.74320968 7.86726613,2.72898387 C7.78902419,2.69104839 7.70959677,2.65508871 7.62858871,2.62268548 C7.58354032,2.60490323 7.53849194,2.58870161 7.49304839,2.57289516 C7.41283065,2.54483871 7.33142742,2.51994355 7.24844355,2.49741935 C7.203,2.48516935 7.15795161,2.47252419 7.1121129,2.46225 C7.02320161,2.44209677 6.93231452,2.42668548 6.8406371,2.41285484 C6.80072581,2.40692742 6.76160484,2.39902419 6.72129839,2.39467742 C6.59010484,2.38005645 6.45733065,2.37096774 6.32258065,2.37096774 C4.36139516,2.37096774 2.76612903,3.96623387 2.76612903,5.92741935 C2.76612903,5.97760484 2.76929032,6.027 2.77245161,6.07639516 L2.77245161,6.07797581 C1.12897581,6.97420161 0,8.85121774 0,10.7302097 C0,13.5291371 2.27691935,15.8064516 5.07584677,15.8064516 L14.7604597,15.8064516 C14.8015565,15.8064516 14.8422581,15.8040806 14.8833548,15.8009194 L14.9078548,15.7977581 L14.9608065,15.8009194 C15.0011129,15.8040806 15.0414194,15.8064516 15.0829113,15.8064516 L18.9566774,15.8064516 C21.5773871,15.8064516 23.7096774,13.6741613 23.7096774,11.0534516 C23.7096774,8.88441129 22.1973952,6.93903226 20.1437419,6.39924194 Z M18.9566774,15.016129 L15.0829113,15.016129 C15.0595968,15.016129 15.0370726,15.0141532 15.0141532,15.0125726 L14.9070645,15.0082258 L14.8288226,15.0125726 C14.8062984,15.0141532 14.783379,15.016129 14.7604597,15.016129 L5.07584677,15.016129 C2.71278226,15.016129 0.790322581,13.0936694 0.790322581,10.7302097 C0.790322581,9.08870968 1.85923387,7.38477419 3.33239516,6.67862097 L3.55645161,6.57153226 L3.55645161,6.32258065 C3.55645161,6.27239516 3.5596129,6.22141935 3.56237903,6.17004839 L3.56593548,6.10682258 L3.56119355,6.02383871 C3.55882258,5.99183065 3.55645161,5.95982258 3.55645161,5.92741935 C3.55645161,4.40249194 4.79765323,3.16129032 6.32258065,3.16129032 C6.44468548,3.16129032 6.56520968,3.17195968 6.68494355,3.18776613 C6.71576613,3.19171774 6.74658871,3.19685484 6.77701613,3.20199194 C6.88252419,3.21937903 6.98645161,3.24229839 7.08879839,3.27193548 C7.10262903,3.2758871 7.11685484,3.27865323 7.13068548,3.28260484 C7.24330645,3.31698387 7.35316129,3.36045161 7.46064516,3.40945161 C7.48870161,3.42209677 7.51596774,3.43592742 7.54362903,3.4493629 C7.63846774,3.4963871 7.73133065,3.54775806 7.82103226,3.60584677 C8.58250806,4.09900806 9.08870968,4.95453226 9.08870968,5.92741935 C9.08870968,6.14594355 9.26534677,6.32258065 9.48387097,6.32258065 C9.70239516,6.32258065 9.87903226,6.14594355 9.87903226,5.92741935 C9.87903226,4.83914516 9.38666129,3.86507258 8.61451613,3.21226613 C9.74744355,1.73041129 11.613,0.790322581 13.4690726,0.790322581 C16.5295968,0.790322581 19.0712742,3.2146371 19.3364274,6.27832258 C18.9325726,6.24987097 18.3279758,6.23525 17.7229839,6.32732258 C17.5072258,6.36012097 17.3590403,6.56165323 17.3918387,6.77741129 C17.4214758,6.97301613 17.5898145,7.11329839 17.7818629,7.11329839 C17.801621,7.11329839 17.8217742,7.11171774 17.8415323,7.10855645 C18.7215565,6.9753871 19.6387258,7.10025806 19.6924677,7.10776613 C21.5323387,7.45748387 22.9193548,9.15233065 22.9193548,11.0534516 C22.9193548,13.2382984 21.1415242,15.016129 18.9566774,15.016129 Z" id="Shape-Copy-2" fill="#1C3C55" fill-rule="nonzero"></path>
                    <path d="M10.9629032,11.8830645 L10.0540323,11.8830645 L9.69274194,10.9967742 L8.02177419,10.9967742 L7.66048387,11.8830645 L6.77419355,11.8830645 L8.46774194,7.90322581 L9.26935484,7.90322581 L10.9629032,11.8830645 Z M9.38225806,10.2290323 L8.85725806,8.94758065 L8.33225806,10.2290323 L9.38225806,10.2290323 Z M14.7,9.30887097 C14.7,9.53844201 14.6586026,9.73978408 14.5758065,9.91290323 C14.4930103,10.0860224 14.3791674,10.2309134 14.2342742,10.3475806 C14.089381,10.4642479 13.9200279,10.551747 13.7262097,10.6100806 C13.5323915,10.6684143 13.3244635,10.6975806 13.1024194,10.6975806 L12.4419355,10.6975806 L12.4419355,11.8830645 L11.5725806,11.8830645 L11.5725806,7.93145161 L13.1870968,7.93145161 C13.4241947,7.93145161 13.6358862,7.96438139 13.8221774,8.03024194 C14.0084687,8.09610248 14.1665316,8.18924671 14.296371,8.30967742 C14.4262103,8.43010813 14.5259405,8.5740583 14.5955645,8.74153226 C14.6651885,8.90900621 14.7,9.09435382 14.7,9.29758065 L14.7,9.30887097 Z M13.8193548,9.32580645 L13.8193548,9.31451613 C13.8193548,9.11881623 13.7563178,8.9701618 13.6302419,8.86854839 C13.504166,8.76693498 13.3319903,8.71612903 13.1137097,8.71612903 L12.4419355,8.71612903 L12.4419355,9.92419355 L13.1306452,9.92419355 C13.3489258,9.92419355 13.518279,9.86680165 13.6387097,9.75201613 C13.7591404,9.63723061 13.8193548,9.49516214 13.8193548,9.32580645 Z M16.2524194,11.8830645 L15.3830645,11.8830645 L15.3830645,7.93145161 L16.2524194,7.93145161 L16.2524194,11.8830645 Z" id="API-Copy-2" fill="#F7931A"></path>
                </g>
                <g id="Group-2" transform="translate(20.322581, 9.032258)">
                    <path d="M20.1437419,6.39924194 C19.9347016,2.84279032 17.003,0 13.4690726,0 C11.3233468,0 9.24558871,1.05231452 7.95815323,2.76929032 C7.92851613,2.75387903 7.89729839,2.74320968 7.86726613,2.72898387 C7.78902419,2.69104839 7.70959677,2.65508871 7.62858871,2.62268548 C7.58354032,2.60490323 7.53849194,2.58870161 7.49304839,2.57289516 C7.41283065,2.54483871 7.33142742,2.51994355 7.24844355,2.49741935 C7.203,2.48516935 7.15795161,2.47252419 7.1121129,2.46225 C7.02320161,2.44209677 6.93231452,2.42668548 6.8406371,2.41285484 C6.80072581,2.40692742 6.76160484,2.39902419 6.72129839,2.39467742 C6.59010484,2.38005645 6.45733065,2.37096774 6.32258065,2.37096774 C4.36139516,2.37096774 2.76612903,3.96623387 2.76612903,5.92741935 C2.76612903,5.97760484 2.76929032,6.027 2.77245161,6.07639516 L2.77245161,6.07797581 C1.12897581,6.97420161 0,8.85121774 0,10.7302097 C0,13.5291371 2.27691935,15.8064516 5.07584677,15.8064516 L14.7604597,15.8064516 C14.8015565,15.8064516 14.8422581,15.8040806 14.8833548,15.8009194 L14.9078548,15.7977581 L14.9608065,15.8009194 C15.0011129,15.8040806 15.0414194,15.8064516 15.0829113,15.8064516 L18.9566774,15.8064516 C21.5773871,15.8064516 23.7096774,13.6741613 23.7096774,11.0534516 C23.7096774,8.88441129 22.1973952,6.93903226 20.1437419,6.39924194 Z M18.9566774,15.016129 L15.0829113,15.016129 C15.0595968,15.016129 15.0370726,15.0141532 15.0141532,15.0125726 L14.9070645,15.0082258 L14.8288226,15.0125726 C14.8062984,15.0141532 14.783379,15.016129 14.7604597,15.016129 L5.07584677,15.016129 C2.71278226,15.016129 0.790322581,13.0936694 0.790322581,10.7302097 C0.790322581,9.08870968 1.85923387,7.38477419 3.33239516,6.67862097 L3.55645161,6.57153226 L3.55645161,6.32258065 C3.55645161,6.27239516 3.5596129,6.22141935 3.56237903,6.17004839 L3.56593548,6.10682258 L3.56119355,6.02383871 C3.55882258,5.99183065 3.55645161,5.95982258 3.55645161,5.92741935 C3.55645161,4.40249194 4.79765323,3.16129032 6.32258065,3.16129032 C6.44468548,3.16129032 6.56520968,3.17195968 6.68494355,3.18776613 C6.71576613,3.19171774 6.74658871,3.19685484 6.77701613,3.20199194 C6.88252419,3.21937903 6.98645161,3.24229839 7.08879839,3.27193548 C7.10262903,3.2758871 7.11685484,3.27865323 7.13068548,3.28260484 C7.24330645,3.31698387 7.35316129,3.36045161 7.46064516,3.40945161 C7.48870161,3.42209677 7.51596774,3.43592742 7.54362903,3.4493629 C7.63846774,3.4963871 7.73133065,3.54775806 7.82103226,3.60584677 C8.58250806,4.09900806 9.08870968,4.95453226 9.08870968,5.92741935 C9.08870968,6.14594355 9.26534677,6.32258065 9.48387097,6.32258065 C9.70239516,6.32258065 9.87903226,6.14594355 9.87903226,5.92741935 C9.87903226,4.83914516 9.38666129,3.86507258 8.61451613,3.21226613 C9.74744355,1.73041129 11.613,0.790322581 13.4690726,0.790322581 C16.5295968,0.790322581 19.0712742,3.2146371 19.3364274,6.27832258 C18.9325726,6.24987097 18.3279758,6.23525 17.7229839,6.32732258 C17.5072258,6.36012097 17.3590403,6.56165323 17.3918387,6.77741129 C17.4214758,6.97301613 17.5898145,7.11329839 17.7818629,7.11329839 C17.801621,7.11329839 17.8217742,7.11171774 17.8415323,7.10855645 C18.7215565,6.9753871 19.6387258,7.10025806 19.6924677,7.10776613 C21.5323387,7.45748387 22.9193548,9.15233065 22.9193548,11.0534516 C22.9193548,13.2382984 21.1415242,15.016129 18.9566774,15.016129 Z" id="Shape-Copy" fill="#1C3C55" fill-rule="nonzero"></path>
                    <path d="M10.9629032,11.8830645 L10.0540323,11.8830645 L9.69274194,10.9967742 L8.02177419,10.9967742 L7.66048387,11.8830645 L6.77419355,11.8830645 L8.46774194,7.90322581 L9.26935484,7.90322581 L10.9629032,11.8830645 Z M9.38225806,10.2290323 L8.85725806,8.94758065 L8.33225806,10.2290323 L9.38225806,10.2290323 Z M14.7,9.30887097 C14.7,9.53844201 14.6586026,9.73978408 14.5758065,9.91290323 C14.4930103,10.0860224 14.3791674,10.2309134 14.2342742,10.3475806 C14.089381,10.4642479 13.9200279,10.551747 13.7262097,10.6100806 C13.5323915,10.6684143 13.3244635,10.6975806 13.1024194,10.6975806 L12.4419355,10.6975806 L12.4419355,11.8830645 L11.5725806,11.8830645 L11.5725806,7.93145161 L13.1870968,7.93145161 C13.4241947,7.93145161 13.6358862,7.96438139 13.8221774,8.03024194 C14.0084687,8.09610248 14.1665316,8.18924671 14.296371,8.30967742 C14.4262103,8.43010813 14.5259405,8.5740583 14.5955645,8.74153226 C14.6651885,8.90900621 14.7,9.09435382 14.7,9.29758065 L14.7,9.30887097 Z M13.8193548,9.32580645 L13.8193548,9.31451613 C13.8193548,9.11881623 13.7563178,8.9701618 13.6302419,8.86854839 C13.504166,8.76693498 13.3319903,8.71612903 13.1137097,8.71612903 L12.4419355,8.71612903 L12.4419355,9.92419355 L13.1306452,9.92419355 C13.3489258,9.92419355 13.518279,9.86680165 13.6387097,9.75201613 C13.7591404,9.63723061 13.8193548,9.49516214 13.8193548,9.32580645 Z M16.2524194,11.8830645 L15.3830645,11.8830645 L15.3830645,7.93145161 L16.2524194,7.93145161 L16.2524194,11.8830645 Z" id="API-Copy" fill="#F7931A"></path>
                </g>
                <g id="Group">
                    <path d="M20.1437419,6.39924194 C19.9347016,2.84279032 17.003,0 13.4690726,0 C11.3233468,0 9.24558871,1.05231452 7.95815323,2.76929032 C7.92851613,2.75387903 7.89729839,2.74320968 7.86726613,2.72898387 C7.78902419,2.69104839 7.70959677,2.65508871 7.62858871,2.62268548 C7.58354032,2.60490323 7.53849194,2.58870161 7.49304839,2.57289516 C7.41283065,2.54483871 7.33142742,2.51994355 7.24844355,2.49741935 C7.203,2.48516935 7.15795161,2.47252419 7.1121129,2.46225 C7.02320161,2.44209677 6.93231452,2.42668548 6.8406371,2.41285484 C6.80072581,2.40692742 6.76160484,2.39902419 6.72129839,2.39467742 C6.59010484,2.38005645 6.45733065,2.37096774 6.32258065,2.37096774 C4.36139516,2.37096774 2.76612903,3.96623387 2.76612903,5.92741935 C2.76612903,5.97760484 2.76929032,6.027 2.77245161,6.07639516 L2.77245161,6.07797581 C1.12897581,6.97420161 0,8.85121774 0,10.7302097 C0,13.5291371 2.27691935,15.8064516 5.07584677,15.8064516 L14.7604597,15.8064516 C14.8015565,15.8064516 14.8422581,15.8040806 14.8833548,15.8009194 L14.9078548,15.7977581 L14.9608065,15.8009194 C15.0011129,15.8040806 15.0414194,15.8064516 15.0829113,15.8064516 L18.9566774,15.8064516 C21.5773871,15.8064516 23.7096774,13.6741613 23.7096774,11.0534516 C23.7096774,8.88441129 22.1973952,6.93903226 20.1437419,6.39924194 Z M18.9566774,15.016129 L15.0829113,15.016129 C15.0595968,15.016129 15.0370726,15.0141532 15.0141532,15.0125726 L14.9070645,15.0082258 L14.8288226,15.0125726 C14.8062984,15.0141532 14.783379,15.016129 14.7604597,15.016129 L5.07584677,15.016129 C2.71278226,15.016129 0.790322581,13.0936694 0.790322581,10.7302097 C0.790322581,9.08870968 1.85923387,7.38477419 3.33239516,6.67862097 L3.55645161,6.57153226 L3.55645161,6.32258065 C3.55645161,6.27239516 3.5596129,6.22141935 3.56237903,6.17004839 L3.56593548,6.10682258 L3.56119355,6.02383871 C3.55882258,5.99183065 3.55645161,5.95982258 3.55645161,5.92741935 C3.55645161,4.40249194 4.79765323,3.16129032 6.32258065,3.16129032 C6.44468548,3.16129032 6.56520968,3.17195968 6.68494355,3.18776613 C6.71576613,3.19171774 6.74658871,3.19685484 6.77701613,3.20199194 C6.88252419,3.21937903 6.98645161,3.24229839 7.08879839,3.27193548 C7.10262903,3.2758871 7.11685484,3.27865323 7.13068548,3.28260484 C7.24330645,3.31698387 7.35316129,3.36045161 7.46064516,3.40945161 C7.48870161,3.42209677 7.51596774,3.43592742 7.54362903,3.4493629 C7.63846774,3.4963871 7.73133065,3.54775806 7.82103226,3.60584677 C8.58250806,4.09900806 9.08870968,4.95453226 9.08870968,5.92741935 C9.08870968,6.14594355 9.26534677,6.32258065 9.48387097,6.32258065 C9.70239516,6.32258065 9.87903226,6.14594355 9.87903226,5.92741935 C9.87903226,4.83914516 9.38666129,3.86507258 8.61451613,3.21226613 C9.74744355,1.73041129 11.613,0.790322581 13.4690726,0.790322581 C16.5295968,0.790322581 19.0712742,3.2146371 19.3364274,6.27832258 C18.9325726,6.24987097 18.3279758,6.23525 17.7229839,6.32732258 C17.5072258,6.36012097 17.3590403,6.56165323 17.3918387,6.77741129 C17.4214758,6.97301613 17.5898145,7.11329839 17.7818629,7.11329839 C17.801621,7.11329839 17.8217742,7.11171774 17.8415323,7.10855645 C18.7215565,6.9753871 19.6387258,7.10025806 19.6924677,7.10776613 C21.5323387,7.45748387 22.9193548,9.15233065 22.9193548,11.0534516 C22.9193548,13.2382984 21.1415242,15.016129 18.9566774,15.016129 Z" id="Shape" fill="#95AABF" fill-rule="nonzero"></path>
                    <path d="M10.9629032,11.8830645 L10.0540323,11.8830645 L9.69274194,10.9967742 L8.02177419,10.9967742 L7.66048387,11.8830645 L6.77419355,11.8830645 L8.46774194,7.90322581 L9.26935484,7.90322581 L10.9629032,11.8830645 Z M9.38225806,10.2290323 L8.85725806,8.94758065 L8.33225806,10.2290323 L9.38225806,10.2290323 Z M14.7,9.30887097 C14.7,9.53844201 14.6586026,9.73978408 14.5758065,9.91290323 C14.4930103,10.0860224 14.3791674,10.2309134 14.2342742,10.3475806 C14.089381,10.4642479 13.9200279,10.551747 13.7262097,10.6100806 C13.5323915,10.6684143 13.3244635,10.6975806 13.1024194,10.6975806 L12.4419355,10.6975806 L12.4419355,11.8830645 L11.5725806,11.8830645 L11.5725806,7.93145161 L13.1870968,7.93145161 C13.4241947,7.93145161 13.6358862,7.96438139 13.8221774,8.03024194 C14.0084687,8.09610248 14.1665316,8.18924671 14.296371,8.30967742 C14.4262103,8.43010813 14.5259405,8.5740583 14.5955645,8.74153226 C14.6651885,8.90900621 14.7,9.09435382 14.7,9.29758065 L14.7,9.30887097 Z M13.8193548,9.32580645 L13.8193548,9.31451613 C13.8193548,9.11881623 13.7563178,8.9701618 13.6302419,8.86854839 C13.504166,8.76693498 13.3319903,8.71612903 13.1137097,8.71612903 L12.4419355,8.71612903 L12.4419355,9.92419355 L13.1306452,9.92419355 C13.3489258,9.92419355 13.518279,9.86680165 13.6387097,9.75201613 C13.7591404,9.63723061 13.8193548,9.49516214 13.8193548,9.32580645 Z M16.2524194,11.8830645 L15.3830645,11.8830645 L15.3830645,7.93145161 L16.2524194,7.93145161 L16.2524194,11.8830645 Z" id="API" fill="#F7931A"></path>
                </g>
            </g>
        </g>
    </g>
</svg>