<?xml version="1.0" encoding="UTF-8" standalone="no"?>
<!-- Created with Inkscape (http://www.inkscape.org/) -->

<svg
   xmlns:dc="http://purl.org/dc/elements/1.1/"
   xmlns:cc="http://creativecommons.org/ns#"
   xmlns:rdf="http://www.w3.org/1999/02/22-rdf-syntax-ns#"
   xmlns:svg="http://www.w3.org/2000/svg"
   xmlns="http://www.w3.org/2000/svg"
   xmlns:sodipodi="http://sodipodi.sourceforge.net/DTD/sodipodi-0.dtd"
   xmlns:inkscape="http://www.inkscape.org/namespaces/inkscape"
   width="32px"
   height="32px"
   id="svg3789"
   version="1.1"
   inkscape:version="0.48.3.1 r9886"
   sodipodi:docname="for_consensus.svg"
   inkscape:export-filename="/media/X/bitcoin.org/bitcoin.org_icon/img/for_consensus.png"
   inkscape:export-xdpi="90"
   inkscape:export-ydpi="90">
  <defs
     id="defs3791" />
  <sodipodi:namedview
     id="base"
     pagecolor="#000000"
     bordercolor="#666666"
     borderopacity="1.0"
     inkscape:pageopacity="0"
     inkscape:pageshadow="2"
     inkscape:zoom="7.9180415"
     inkscape:cx="-41.10157"
     inkscape:cy="21.07985"
     inkscape:current-layer="layer1"
     showgrid="true"
     inkscape:grid-bbox="true"
     inkscape:document-units="px"
     inkscape:window-width="1680"
     inkscape:window-height="1026"
     inkscape:window-x="0"
     inkscape:window-y="24"
     inkscape:window-maximized="1" />
  <metadata
     id="metadata3794">
    <rdf:RDF>
      <cc:Work
         rdf:about="">
        <dc:format>image/svg+xml</dc:format>
        <dc:type
           rdf:resource="http://purl.org/dc/dcmitype/StillImage" />
        <dc:title></dc:title>
      </cc:Work>
    </rdf:RDF>
  </metadata>
  <g
     id="layer1"
     inkscape:label="Layer 1"
     inkscape:groupmode="layer">
    <path
       style="fill:#000000;fill-opacity:1;stroke:#000000;stroke-width:0.77984196;stroke-linecap:butt;stroke-linejoin:miter;stroke-miterlimit:4;stroke-opacity:1;stroke-dasharray:none"
       d="m 10.056346,28.417776 c -0.1861067,0.510689 9.342042,3.021463 9.591988,2.219691 0.23528,-0.754715 0.394734,-3.520429 0.858097,-3.963173 0.518984,-0.421146 1.007637,-1.347656 1.346009,-1.81328 0.638305,-0.870037 0.678925,-1.182303 1.159489,-1.996792 0.879805,-1.491139 1.752574,-3.122444 2.405647,-4.756507 0.653074,-1.634061 2.073676,-4.607381 2.073676,-4.607381 0,0 1.001526,-1.948108 1.298238,-3.420822 0.06918,-0.3433679 -0.515818,-1.1103647 -0.863688,-1.2146476 -0.372097,-0.1115444 -0.694108,0.3807389 -0.8784,0.7074156 -0.800663,1.419251 -1.517243,2.65226 -2.313808,3.837823 -0.671465,0.999372 -2.326247,3.014351 -2.326247,3.014351 l -0.323813,-0.184081 0.801349,-2.842954 1.231095,-4.6765094 c 0,0 0.805712,-2.7344906 0.920224,-4.1158576 0.0314,-0.3788167 -0.416489,-0.74063 -0.785815,-0.8627754 -0.32481,-0.1074232 -0.858429,-0.1002542 -1.007235,0.1971015 -0.51515,1.029411 -1.025499,2.6137711 -1.487109,3.939211 -0.816544,2.3445759 -2.957686,7.0350849 -2.957686,7.0350849 l -0.601845,-0.0093 1.365557,-7.9816173 c 0,0 0.651818,-3.5097676 1.014287,-5.1441232 C 20.69431,1.2472746 19.856816,0.70673392 19.293168,0.69551337 18.78933,0.68547842 18.271624,1.1508933 18.134438,1.6177937 17.798774,2.7601602 17.354473,4.773254 17.354473,4.773254 l -1.199912,5.454652 -0.919397,3.533852 -0.601843,-0.0093 0.03763,-6.2678703 c 0,0 -0.08621,-1.7912706 -0.01905,-4.3393346 0.0094,-0.3570595 -0.591738,-0.7924172 -1.033154,-0.8412337 -0.448783,-0.049631 -1.14808,0.1499323 -1.2119,0.6050869 -0.281201,2.0054193 -0.287946,3.0423444 -0.444607,4.8246477 -0.207452,2.360162 -0.19874,7.039051 -0.19874,7.039051 l -0.568491,0.906892 -1.2597612,0.97144 -1.7739247,-2.723976 C 7.2992046,12.871105 6.4413375,11.062326 5.6636063,11.052548 c -0.7777307,-0.0098 -1.125386,0.952503 -1.125386,0.952503 l 0.7921741,1.784033 1.5001398,3.174229 1.7972826,3.859644 0.9518498,1.492553 1.7023884,2.191569 c 0,0 0.06218,0.925107 -0.51473,2.031098 -0.310353,0.594948 -0.489687,1.27237 -0.710979,1.879599 z"
       id="path3797"
       inkscape:connector-curvature="0"
       sodipodi:nodetypes="ssccszcssssccccsasscccsascccccsasscccczccccccss" />
  </g>
</svg>
