<?xml version="1.0" encoding="UTF-8"?>
<svg width="28px" height="28px" viewBox="0 0 28 28" version="1.1" xmlns="http://www.w3.org/2000/svg" xmlns:xlink="http://www.w3.org/1999/xlink">
    <!-- Generator: Sketch 49 (51002) - http://www.bohemiancoding.com/sketch -->
    <title>Group</title>
    <desc>Created with Sketch.</desc>
    <defs></defs>
    <g id="Symbols" stroke="none" stroke-width="1" fill="none" fill-rule="evenodd">
        <g id="QR-codes.icon" transform="translate(-16.000000, -15.000000)">
            <g id="Group" transform="translate(16.000000, 15.000000)">
                <rect id="Rectangle-13" fill="#F7931A" x="0" y="0" width="13" height="13"></rect>
                <rect id="Rectangle-13" fill="#FFFFFF" x="4" y="4" width="5" height="5"></rect>
                <rect id="Rectangle-13-Copy" fill="#F7931A" x="15" y="0" width="13" height="13"></rect>
                <rect id="Rectangle-13" fill="#FFFFFF" x="19" y="4" width="5" height="5"></rect>
                <rect id="Rectangle-13-Copy-2" fill="#F7931A" x="0" y="15" width="13" height="13"></rect>
                <rect id="Rectangle-13" fill="#FFFFFF" x="4" y="19" width="5" height="5"></rect>
                <polygon id="Rectangle-13-Copy-3" fill="#F7931A" points="15 15 22.8165481 15 22.8165481 17.598832 25.3848556 17.598832 25.3848556 15 28 15 28 22.8895897 20.1377163 22.8895897 20.1377163 20.4872537 18.0750859 20.4872537 18.0750859 28 15 28"></polygon>
                <rect id="Rectangle-2" fill="#F7931A" x="20" y="25" width="3" height="3"></rect>
                <rect id="Rectangle-2-Copy" fill="#F7931A" x="25" y="25" width="3" height="3"></rect>
            </g>
        </g>
    </g>
</svg>