<?xml version="1.0" encoding="UTF-8" standalone="no"?>
<!-- Created with Inkscape (http://www.inkscape.org/) -->

<svg
   xmlns:dc="http://purl.org/dc/elements/1.1/"
   xmlns:cc="http://creativecommons.org/ns#"
   xmlns:rdf="http://www.w3.org/1999/02/22-rdf-syntax-ns#"
   xmlns:svg="http://www.w3.org/2000/svg"
   xmlns="http://www.w3.org/2000/svg"
   xmlns:sodipodi="http://sodipodi.sourceforge.net/DTD/sodipodi-0.dtd"
   xmlns:inkscape="http://www.inkscape.org/namespaces/inkscape"
   width="32px"
   height="32px"
   id="svg2984"
   version="1.1"
   inkscape:version="0.48.3.1 r9886"
   sodipodi:docname="for_visib.svg"
   inkscape:export-filename="/media/X/bitcoin.org/bitcoin.org_icon/img/for_visib.png"
   inkscape:export-xdpi="90"
   inkscape:export-ydpi="90">
  <defs
     id="defs2986" />
  <sodipodi:namedview
     id="base"
     pagecolor="#ffffff"
     bordercolor="#666666"
     borderopacity="1.0"
     inkscape:pageopacity="0.0"
     inkscape:pageshadow="2"
     inkscape:zoom="11.197802"
     inkscape:cx="2.6181838"
     inkscape:cy="34.166382"
     inkscape:current-layer="layer1"
     showgrid="true"
     inkscape:grid-bbox="true"
     inkscape:document-units="px"
     inkscape:window-width="1680"
     inkscape:window-height="1026"
     inkscape:window-x="0"
     inkscape:window-y="24"
     inkscape:window-maximized="1" />
  <metadata
     id="metadata2989">
    <rdf:RDF>
      <cc:Work
         rdf:about="">
        <dc:format>image/svg+xml</dc:format>
        <dc:type
           rdf:resource="http://purl.org/dc/dcmitype/StillImage" />
        <dc:title></dc:title>
      </cc:Work>
    </rdf:RDF>
  </metadata>
  <g
     id="layer1"
     inkscape:label="Layer 1"
     inkscape:groupmode="layer">
    <path
       style="fill:#000000;fill-opacity:1;stroke:#000000;stroke-width:1px;stroke-linecap:butt;stroke-linejoin:round;stroke-opacity:1"
       d="m 29.922232,14.201978 c 0,0 -1.369993,-2.737074 -2.904759,-3.978256 -1.534766,-1.2411825 -3.56142,-2.1703194 -5.493783,-1.9575555 -2.200052,0.242239 -3.940562,1.568807 -5.051753,3.6625215 -1.111191,2.093715 -0.189441,5.74637 -0.189441,5.74637 l 4.483432,-0.06315 -7.261897,11.11386 -7.5144843,-10.734978 3.91511,-0.126294 c 0,0 -0.19616,-5.222792 0.8840563,-7.703923 0.618929,-1.4216075 1.931689,-3.6214452 3.220493,-4.4834332 1.167545,-0.7808862 2.593413,-1.4701226 3.978257,-1.704967 1.286666,-0.2181954 3.681814,0.015856 4.891643,0.5051754 1.208973,0.4889738 2.457446,0.8221548 4.609725,3.4099341 1.44471,1.7370382 2.433401,6.3146927 2.433401,6.3146927 z"
       id="path2992"
       inkscape:connector-curvature="0"
       sodipodi:nodetypes="czszcccccsssssc" />
  </g>
</svg>
