<?xml version="1.0" encoding="UTF-8"?>
<svg width="31px" height="32px" viewBox="0 0 31 32" version="1.1" xmlns="http://www.w3.org/2000/svg" xmlns:xlink="http://www.w3.org/1999/xlink">
    <!-- Generator: Sketch 49 (51002) - http://www.bohemiancoding.com/sketch -->
    <title>Development/icon</title>
    <desc>Created with Sketch.</desc>
    <defs></defs>
    <g id="Support-bitcoin" stroke="none" stroke-width="1" fill="none" fill-rule="evenodd">
        <g id="22.01.18-Bitcoin.org_Support-Bitcoin_Desktop-1200px--" transform="translate(-785.000000, -1106.000000)">
            <g id="//contenct" transform="translate(215.000000, 637.000000)">
                <g id="box5" transform="translate(400.000000, 425.000000)">
                    <g id="Development/icon" transform="translate(155.000000, 30.000000)">
                        <g>
                            <rect id="Rectangle-2" x="0" y="0" width="60" height="60"></rect>
                            <g id="icon/Desktop" transform="translate(15.000000, 14.000000)">
                                <g id="Group">
                                    <g id="Group-2" fill-rule="nonzero">
                                        <path d="M13,23 L13,28 L18,28 L18,23 L13,23 Z M12,22 L19,22 L19,29 L12,29 L12,22 Z" id="Rectangle-2" fill="#95AABF"></path>
                                        <path d="M23,29 L8,29 C6.69378117,29 5.58254212,29.8348076 5.17070571,31 L25.8292943,31 C25.4174579,29.8348076 24.3062188,29 23,29 Z M8,28 L23,28 C25.209139,28 27,29.790861 27,32 L4,32 C4,29.790861 5.790861,28 8,28 Z" id="Rectangle-3" fill="#95AABF"></path>
                                        <path d="M2,1 C1.44771525,1 1,1.44771525 1,2 L1,21 C1,21.5522847 1.44771525,22 2,22 L29,22 C29.5522847,22 30,21.5522847 30,21 L30,2 C30,1.44771525 29.5522847,1 29,1 L2,1 Z M2,0 L29,0 C30.1045695,-2.02906125e-16 31,0.8954305 31,2 L31,21 C31,22.1045695 30.1045695,23 29,23 L2,23 C0.8954305,23 1.3527075e-16,22.1045695 0,21 L0,2 C-1.3527075e-16,0.8954305 0.8954305,2.02906125e-16 2,0 Z" id="Rectangle-6" fill="#FF9500"></path>
                                        <path d="M4,4 L4,19 L27,19 L27,4 L4,4 Z M3,3 L28,3 L28,20 L3,20 L3,3 Z" id="Rectangle-5" fill="#1C3C55"></path>
                                    </g>
                                    <polygon id="Path" fill="#1C3C55" points="12.2907387 9.0412798 6.91365491 11.8676107 12.2907387 14.7435263 12.2907387 15.8013344 6 12.3304017 6 11.4378762 12.2907387 8"></polygon>
                                    <polygon id="Path" fill="#1C3C55" points="12.9936714 16.5157846 17.1874973 5.02865034 17.9963065 5.37574361 13.8174586 16.8463497"></polygon>
                                    <polygon id="Path" fill="#1C3C55" points="24.3770838 11.8676107 19 9.0412798 19 8 25.2907387 11.4378762 25.2907387 12.3304017 19 15.8013344 19 14.7435263"></polygon>
                                </g>
                            </g>
                        </g>
                    </g>
                </g>
            </g>
        </g>
    </g>
</svg>