<?xml version="1.0" encoding="UTF-8"?>
<svg width="16px" height="16px" viewBox="0 0 16 16" version="1.1" xmlns="http://www.w3.org/2000/svg" xmlns:xlink="http://www.w3.org/1999/xlink">
    <!-- Generator: Sketch 49 (51002) - http://www.bohemiancoding.com/sketch -->
    <title>globe - simple-line-icons</title>
    <desc>Created with Sketch.</desc>
    <defs></defs>
    <g id="Home" stroke="none" stroke-width="1" fill="none" fill-rule="evenodd">
        <g id="19/01/18-Bitcoin.org-ver3-Desktop-1200px--" transform="translate(-506.000000, -2791.000000)" fill="#5B6A77">
            <g id="//Content" transform="translate(0.000000, 585.000000)">
                <g id="Recommended" transform="translate(406.000000, 1762.000000)">
                    <g id="wallets" transform="translate(0.000000, 237.000000)">
                        <g id="row-" transform="translate(0.000000, 139.000000)">
                            <g id="Container">
                                <path d="M116.015625,76 C116.015625,77.0625053 115.820314,78.0650995 115.429688,79.0078125 C115.039061,79.9505255 114.502608,80.7786423 113.820312,81.4921875 C113.138017,82.2057327 112.338546,82.783852 111.421875,83.2265625 C110.505204,83.669273 109.526047,83.9218747 108.484375,83.984375 C108.442708,83.984375 108.398438,83.9869791 108.351562,83.9921875 C108.304687,83.9973959 108.260417,84 108.21875,84 L108,84 C106.895828,84 105.856776,83.7890646 104.882812,83.3671875 C103.908849,82.9453104 103.059899,82.3723995 102.335938,81.6484375 C101.611976,80.9244755 101.039065,80.0781298 100.617188,79.109375 C100.19531,78.1406202 99.984375,77.1041722 99.984375,76 C99.984375,74.8958278 100.19531,73.8593798 100.617188,72.890625 C101.039065,71.9218702 101.611976,71.0755245 102.335938,70.3515625 C103.059899,69.6276005 103.908849,69.0546896 104.882812,68.6328125 C105.856776,68.2109354 106.895828,68 108,68 L108.21875,68 C108.260417,68 108.304687,68.0026041 108.351562,68.0078125 C108.398438,68.0130209 108.442708,68.015625 108.484375,68.015625 C109.526047,68.0781253 110.505204,68.330727 111.421875,68.7734375 C112.338546,69.216148 113.138017,69.7942673 113.820312,70.5078125 C114.502608,71.2213577 115.039061,72.0494745 115.429688,72.9921875 C115.820314,73.9349005 116.015625,74.9374947 116.015625,76 Z M114.53125,78.578125 C114.687501,78.1822897 114.807291,77.7682313 114.890625,77.3359375 C114.973959,76.9036437 115.015625,76.4583356 115.015625,76 C115.015625,75.5208309 114.96875,75.0546898 114.875,74.6015625 C114.78125,74.1484352 114.651043,73.718752 114.484375,73.3125 L114.671875,73.828125 C114.640625,73.8385417 114.445314,73.8906245 114.085938,73.984375 C113.726561,74.0781255 113.161462,74.1718745 112.390625,74.265625 C112.421875,74.5468764 112.447917,74.8307277 112.46875,75.1171875 C112.489583,75.4036473 112.5,75.6979152 112.5,76 C112.5,76.3750019 112.484375,76.7447898 112.453125,77.109375 C112.421875,77.4739602 112.385417,77.8281233 112.34375,78.171875 C112.94792,78.244792 113.427082,78.3203121 113.78125,78.3984375 C114.135418,78.4765629 114.385416,78.5364581 114.53125,78.578125 Z M104.453125,76 C104.453125,76.3645852 104.46875,76.7187483 104.5,77.0625 C104.53125,77.4062517 104.572916,77.74479 104.625,78.078125 C105.031252,78.0468748 105.471352,78.0208334 105.945312,78 C106.419273,77.9791666 106.932289,77.9635417 107.484375,77.953125 L107.484375,74.484375 C106.911455,74.484375 106.382815,74.4739584 105.898438,74.453125 C105.41406,74.4322916 104.968752,74.4062502 104.5625,74.375 C104.53125,74.635418 104.505208,74.9010403 104.484375,75.171875 C104.463542,75.4427097 104.453125,75.7187486 104.453125,76 Z M108.484375,69.0625 L108.484375,73.5 C109.026044,73.4895833 109.523435,73.4739584 109.976562,73.453125 C110.42969,73.4322916 110.848956,73.4062502 111.234375,73.375 C111.109374,72.8124972 110.95573,72.2890649 110.773438,71.8046875 C110.591145,71.3203101 110.38021,70.8906269 110.140625,70.515625 C109.90104,70.1406231 109.640626,69.8281262 109.359375,69.578125 C109.078124,69.3281238 108.78646,69.1562505 108.484375,69.0625 Z M107.484375,69.078125 C107.18229,69.1718755 106.890626,69.3463529 106.609375,69.6015625 C106.328124,69.8567721 106.070314,70.169269 105.835938,70.5390625 C105.601561,70.908856 105.390626,71.3359351 105.203125,71.8203125 C105.015624,72.3046899 104.859376,72.8229139 104.734375,73.375 C105.119794,73.4062502 105.541664,73.4322916 106,73.453125 C106.458336,73.4739584 106.953122,73.4895833 107.484375,73.5 L107.484375,69.078125 Z M107.484375,78.953125 C106.973956,78.9635417 106.500002,78.9765624 106.0625,78.9921875 C105.624998,79.0078126 105.218752,79.0312498 104.84375,79.0625 C104.968751,79.5625025 105.124999,80.0286437 105.3125,80.4609375 C105.500001,80.8932313 105.708332,81.27604 105.9375,81.609375 C106.166668,81.94271 106.411457,82.221353 106.671875,82.4453125 C106.932293,82.669272 107.203124,82.8281245 107.484375,82.921875 L107.484375,78.953125 Z M108.484375,82.9375 C108.765626,82.8541662 109.039061,82.700522 109.304688,82.4765625 C109.570314,82.252603 109.817707,81.97396 110.046875,81.640625 C110.276043,81.30729 110.48177,80.9218772 110.664062,80.484375 C110.846355,80.0468728 110.999999,79.5729192 111.125,79.0625 C110.760415,79.0312498 110.356773,79.0078126 109.914062,78.9921875 C109.471352,78.9765624 108.994794,78.9635417 108.484375,78.953125 L108.484375,82.9375 Z M108.484375,77.953125 C109.036461,77.9635417 109.549477,77.9791666 110.023438,78 C110.497398,78.0208334 110.93229,78.0468748 111.328125,78.078125 C111.380209,77.74479 111.421875,77.4062517 111.453125,77.0625 C111.484375,76.7187483 111.5,76.3645852 111.5,76 C111.5,75.7187486 111.489583,75.4427097 111.46875,75.171875 C111.447917,74.9010403 111.421875,74.6302097 111.390625,74.359375 C110.99479,74.4010419 110.55469,74.4322916 110.070312,74.453125 C109.585935,74.4739584 109.057295,74.484375 108.484375,74.484375 L108.484375,77.953125 Z M114.296875,72.90625 C113.93229,72.166663 113.44792,71.5104195 112.84375,70.9375 C112.23958,70.3645805 111.557295,69.91146 110.796875,69.578125 C111.119793,70.0364606 111.406249,70.580726 111.65625,71.2109375 C111.906251,71.841149 112.104166,72.5312462 112.25,73.28125 C112.875003,73.208333 113.354165,73.1328129 113.6875,73.0546875 C114.020835,72.9765621 114.223958,72.9270834 114.296875,72.90625 Z M105.609375,69.421875 C105.171873,69.5781258 104.760419,69.7734363 104.375,70.0078125 C103.989581,70.2421887 103.63021,70.5104152 103.296875,70.8125 C102.96354,71.1145848 102.658856,71.4453107 102.382812,71.8046875 C102.106769,72.1640643 101.869793,72.546873 101.671875,72.953125 C101.807292,72.9947919 102.046873,73.0468747 102.390625,73.109375 C102.734377,73.1718753 103.192705,73.2343747 103.765625,73.296875 C103.942709,72.4947877 104.192707,71.7656283 104.515625,71.109375 C104.838543,70.4531217 105.203123,69.8906273 105.609375,69.421875 Z M101.3125,73.890625 C101.208333,74.22396 101.127604,74.5677066 101.070312,74.921875 C101.013021,75.2760434 100.984375,75.6354148 100.984375,76 C100.984375,76.4479189 101.023437,76.8828104 101.101562,77.3046875 C101.179688,77.7265646 101.296874,78.1302064 101.453125,78.515625 C101.609376,78.4843748 101.86979,78.4348962 102.234375,78.3671875 C102.59896,78.2994788 103.072914,78.2343753 103.65625,78.171875 C103.59375,77.8281233 103.546875,77.4739602 103.515625,77.109375 C103.484375,76.7447898 103.46875,76.3750019 103.46875,76 C103.46875,75.7083319 103.476562,75.4166681 103.492188,75.125 C103.507813,74.8333319 103.536458,74.5520847 103.578125,74.28125 C102.901038,74.208333 102.377606,74.1328129 102.007812,74.0546875 C101.638019,73.9765621 101.40625,73.9218752 101.3125,73.890625 Z M101.890625,79.4375 C102.098959,79.8020852 102.335936,80.1432276 102.601562,80.4609375 C102.867189,80.7786474 103.156248,81.0703112 103.46875,81.3359375 C103.781252,81.6015638 104.117186,81.8411448 104.476562,82.0546875 C104.835939,82.2682302 105.21354,82.4427077 105.609375,82.578125 C105.234373,82.1614563 104.898439,81.6614613 104.601562,81.078125 C104.304686,80.4947887 104.062501,79.8489619 103.875,79.140625 C103.385414,79.1927086 102.979168,79.2473955 102.65625,79.3046875 C102.333332,79.3619795 102.078126,79.4062498 101.890625,79.4375 Z M110.796875,82.421875 C111.484378,82.1197902 112.109372,81.7187525 112.671875,81.21875 C113.234378,80.7187475 113.703123,80.1406283 114.078125,79.484375 C113.921874,79.4427081 113.687502,79.3932295 113.375,79.3359375 C113.062498,79.2786455 112.656252,79.2187503 112.15625,79.15625 C112.010416,79.8125033 111.820314,80.4166639 111.585938,80.96875 C111.351561,81.5208361 111.088543,82.0052063 110.796875,82.421875 Z" id="globe---simple-line-icons"></path>
                            </g>
                        </g>
                    </g>
                </g>
            </g>
        </g>
    </g>
</svg>