<?xml version="1.0" encoding="UTF-8"?>
<svg width="40px" height="32px" viewBox="0 0 40 32" version="1.1" xmlns="http://www.w3.org/2000/svg" xmlns:xlink="http://www.w3.org/1999/xlink">
    <!-- Generator: Sketch 49 (51002) - http://www.bohemiancoding.com/sketch -->
    <title>Group</title>
    <desc>Created with Sketch.</desc>
    <defs></defs>
    <g id="Symbols" stroke="none" stroke-width="1" fill="none" fill-rule="evenodd">
        <g id="Tech-support.icon" transform="translate(-10.000000, -14.000000)">
            <g id="Group" transform="translate(11.000000, 15.000000)">
                <g id="documentation-icon" transform="translate(19.000000, 9.000000)" fill="#1C1F30" fill-rule="nonzero">
                    <g id="file">
                        <path d="M18.9703704,7.77777778 L17.0992593,7.77777778 C16.7985185,7.77777778 16.5507407,7.61222222 16.4355556,7.33444444 C16.3203704,7.05666667 16.3788889,6.76407407 16.5911111,6.55148148 L17.9140741,5.22888889 C18.1085185,5.03444444 18.2155556,4.77555556 18.2155556,4.50074074 C18.2155556,4.22555556 18.1085185,3.96703704 17.9140741,3.77222222 L16.2277778,2.08592593 C15.8388889,1.69703704 15.1607407,1.6962963 14.7711111,2.08592593 L13.4485185,3.40851852 C13.2359259,3.62074074 12.9425926,3.68 12.6655556,3.56444444 C12.3877778,3.44925926 12.2222222,3.20148148 12.2222222,2.90074074 L12.2222222,1.02962963 C12.2222222,0.461851852 11.7603704,0 11.1925926,0 L8.80740741,0 C8.23962963,0 7.77777778,0.461851852 7.77777778,1.02962963 L7.77777778,2.90074074 C7.77777778,3.20148148 7.61222222,3.44925926 7.33444444,3.56444444 C7.05740741,3.68037037 6.76407407,3.62074074 6.55148148,3.40851852 L5.22888889,2.08592593 C4.83925926,1.6962963 4.16111111,1.69703704 3.77222222,2.08592593 L2.08592593,3.77222222 C1.89148148,3.96666667 1.78444444,4.22555556 1.78444444,4.50074074 C1.78444444,4.77555556 1.89148148,5.03407407 2.08592593,5.22888889 L3.40888889,6.55148148 C3.62111111,6.76407407 3.67925926,7.05666667 3.56444444,7.33444444 C3.44962963,7.61222222 3.20148148,7.77777778 2.90074074,7.77777778 L1.02962963,7.77777778 C0.461851852,7.77777778 0,8.23962963 0,8.80740741 L0,11.1922222 C0,11.7603704 0.461851852,12.2222222 1.02962963,12.2222222 L2.90074074,12.2222222 C3.20148148,12.2222222 3.44925926,12.3877778 3.56444444,12.6655556 C3.67962963,12.9433333 3.62111111,13.2359259 3.40888889,13.4485185 L2.08592593,14.7711111 C1.89148148,14.9655556 1.78444444,15.2244444 1.78444444,15.4992593 C1.78444444,15.7744444 1.89148148,16.032963 2.08592593,16.2277778 L3.77222222,17.9140741 C4.16148148,18.3033333 4.83925926,18.3040741 5.22888889,17.9140741 L6.55148148,16.5911111 C6.76407407,16.3788889 7.0562963,16.3203704 7.33444444,16.4355556 C7.61222222,16.5507407 7.77777778,16.7985185 7.77777778,17.0992593 L7.77777778,18.9703704 C7.77777778,19.5381481 8.23962963,20 8.80740741,20 L11.1922222,20 C11.76,20 12.2218519,19.5381481 12.2218519,18.9703704 L12.2218519,17.0992593 C12.2218519,16.7985185 12.3874074,16.5507407 12.6651852,16.4355556 C12.9433333,16.32 13.2355556,16.3788889 13.4481481,16.5911111 L14.7707407,17.9140741 C15.1603704,18.3037037 15.8385185,18.302963 16.2274074,17.9140741 L17.9137037,16.2277778 C18.1081481,16.0333333 18.2151852,15.7744444 18.2151852,15.4992593 C18.2151852,15.2244444 18.1081481,14.9659259 17.9137037,14.7711111 L16.5907407,13.4485185 C16.3785185,13.2359259 16.3203704,12.9433333 16.4351852,12.6655556 C16.55,12.3877778 16.7985185,12.2222222 17.0992593,12.2222222 L18.9703704,12.2222222 C19.5381481,12.2222222 20,11.7603704 20,11.1925926 L20,8.80740741 C20,8.23962963 19.5381481,7.77777778 18.9703704,7.77777778 Z M19.2592593,11.1925926 C19.2592593,11.3518519 19.1296296,11.4814815 18.9703704,11.4814815 L17.0992593,11.4814815 C16.4977778,11.4814815 15.9811111,11.8266667 15.7511111,12.3822222 C15.5207407,12.9377778 15.6418519,13.5474074 16.0674074,13.9725926 L17.3903704,15.2951852 C17.5033333,15.4081481 17.5033333,15.5914815 17.3903704,15.7040741 L15.7040741,17.3903704 C15.5914815,17.502963 15.4081481,17.5037037 15.2951852,17.3903704 L13.9725926,16.0674074 C13.547037,15.6418519 12.9377778,15.5214815 12.3822222,15.7511111 C11.8266667,15.9811111 11.4814815,16.4977778 11.4814815,17.0992593 L11.4814815,18.9703704 C11.4814815,19.1296296 11.3518519,19.2592593 11.1925926,19.2592593 L8.80740741,19.2592593 C8.64814815,19.2592593 8.51851852,19.1296296 8.51851852,18.9703704 L8.51851852,17.0992593 C8.51851852,16.4977778 8.17333333,15.9811111 7.61777778,15.7511111 C7.43148148,15.6737037 7.23962963,15.6359259 7.05,15.6359259 C6.67444444,15.6359259 6.31037037,15.7840741 6.02740741,16.067037 L4.70481481,17.39 C4.59148148,17.5033333 4.40814815,17.5025926 4.29592593,17.39 L2.60962963,15.7037037 C2.49666667,15.5907407 2.49666667,15.4074074 2.60962963,15.2948148 L3.93259259,13.9722222 C4.35777778,13.547037 4.47925926,12.9374074 4.24888889,12.3818519 C4.01888889,11.8266667 3.50222222,11.4814815 2.90074074,11.4814815 L1.02962963,11.4814815 C0.87037037,11.4814815 0.740740741,11.3518519 0.740740741,11.1925926 L0.740740741,8.80740741 C0.740740741,8.64814815 0.87037037,8.51851852 1.02962963,8.51851852 L2.90074074,8.51851852 C3.50222222,8.51851852 4.01888889,8.17333333 4.24888889,7.61777778 C4.47925926,7.06222222 4.35814815,6.45259259 3.93259259,6.02740741 L2.60962963,4.70481481 C2.49666667,4.59185185 2.49666667,4.40851852 2.60962963,4.29592593 L4.29592593,2.60962963 C4.40851852,2.49666667 4.59185185,2.49666667 4.70481481,2.60962963 L6.02740741,3.93222222 C6.45222222,4.35703704 7.06148148,4.47888889 7.61777778,4.24851852 C8.17333333,4.01888889 8.51851852,3.50222222 8.51851852,2.90074074 L8.51851852,1.02962963 C8.51851852,0.87037037 8.64814815,0.740740741 8.80740741,0.740740741 L11.1922222,0.740740741 C11.3518519,0.740740741 11.4814815,0.87037037 11.4814815,1.02962963 L11.4814815,2.90074074 C11.4814815,3.50222222 11.8266667,4.01888889 12.3822222,4.24888889 C12.9385185,4.47925926 13.5474074,4.35777778 13.9725926,3.93259259 L15.2951852,2.61 C15.4085185,2.49703704 15.5918519,2.49703704 15.7040741,2.61 L17.3903704,4.2962963 C17.5033333,4.40925926 17.5033333,4.59259259 17.3903704,4.70518519 L16.0674074,6.02777778 C15.6422222,6.45296296 15.5207407,7.06259259 15.7511111,7.61814815 C15.9811111,8.1737037 16.4977778,8.51888889 17.0992593,8.51888889 L18.9703704,8.51888889 C19.1296296,8.51851852 19.2592593,8.64814815 19.2592593,8.80740741 L19.2592593,11.1925926 Z" id="Shape"></path>
                        <path d="M10,14 C7.790861,14 6,12.209139 6,10 C6,7.790861 7.790861,6 10,6 C12.209139,6 14,7.790861 14,10 C14,12.209139 12.209139,14 10,14 Z M10,13.2727273 C11.8074774,13.2727273 13.2727273,11.8074774 13.2727273,10 C13.2727273,8.19252264 11.8074774,6.72727273 10,6.72727273 C8.19252264,6.72727273 6.72727273,8.19252264 6.72727273,10 C6.72727273,11.8074774 8.19252264,13.2727273 10,13.2727273 Z" id="Oval-3"></path>
                    </g>
                </g>
                <g id="documentation-icon-copy" transform="translate(0.000000, 10.000000)" stroke="#95AABF" stroke-width="0.7">
                    <g id="file">
                        <path d="M11.3822222,4.66666667 L10.2595556,4.66666667 C10.0791111,4.66666667 9.93044444,4.56733333 9.86133333,4.40066667 C9.79222222,4.234 9.82733333,4.05844444 9.95466667,3.93088889 L10.7484444,3.13733333 C10.8651111,3.02066667 10.9293333,2.86533333 10.9293333,2.70044444 C10.9293333,2.53533333 10.8651111,2.38022222 10.7484444,2.26333333 L9.73666667,1.25155556 C9.50333333,1.01822222 9.09644444,1.01777778 8.86266667,1.25155556 L8.06911111,2.04511111 C7.94155556,2.17244444 7.76555556,2.208 7.59933333,2.13866667 C7.43266667,2.06955556 7.33333333,1.92088889 7.33333333,1.74044444 L7.33333333,0.617777778 C7.33333333,0.277111111 7.05622222,0 6.71555556,0 L5.28444444,0 C4.94377778,0 4.66666667,0.277111111 4.66666667,0.617777778 L4.66666667,1.74044444 C4.66666667,1.92088889 4.56733333,2.06955556 4.40066667,2.13866667 C4.23444444,2.20822222 4.05844444,2.17244444 3.93088889,2.04511111 L3.13733333,1.25155556 C2.90355556,1.01777778 2.49666667,1.01822222 2.26333333,1.25155556 L1.25155556,2.26333333 C1.13488889,2.38 1.07066667,2.53533333 1.07066667,2.70044444 C1.07066667,2.86533333 1.13488889,3.02044444 1.25155556,3.13733333 L2.04533333,3.93088889 C2.17266667,4.05844444 2.20755556,4.234 2.13866667,4.40066667 C2.06977778,4.56733333 1.92088889,4.66666667 1.74044444,4.66666667 L0.617777778,4.66666667 C0.277111111,4.66666667 0,4.94377778 0,5.28444444 L0,6.71533333 C0,7.05622222 0.277111111,7.33333333 0.617777778,7.33333333 L1.74044444,7.33333333 C1.92088889,7.33333333 2.06955556,7.43266667 2.13866667,7.59933333 C2.20777778,7.766 2.17266667,7.94155556 2.04533333,8.06911111 L1.25155556,8.86266667 C1.13488889,8.97933333 1.07066667,9.13466667 1.07066667,9.29955556 C1.07066667,9.46466667 1.13488889,9.61977778 1.25155556,9.73666667 L2.26333333,10.7484444 C2.49688889,10.982 2.90355556,10.9824444 3.13733333,10.7484444 L3.93088889,9.95466667 C4.05844444,9.82733333 4.23377778,9.79222222 4.40066667,9.86133333 C4.56733333,9.93044444 4.66666667,10.0791111 4.66666667,10.2595556 L4.66666667,11.3822222 C4.66666667,11.7228889 4.94377778,12 5.28444444,12 L6.71533333,12 C7.056,12 7.33311111,11.7228889 7.33311111,11.3822222 L7.33311111,10.2595556 C7.33311111,10.0791111 7.43244444,9.93044444 7.59911111,9.86133333 C7.766,9.792 7.94133333,9.82733333 8.06888889,9.95466667 L8.86244444,10.7484444 C9.09622222,10.9822222 9.50311111,10.9817778 9.73644444,10.7484444 L10.7482222,9.73666667 C10.8648889,9.62 10.9291111,9.46466667 10.9291111,9.29955556 C10.9291111,9.13466667 10.8648889,8.97955556 10.7482222,8.86266667 L9.95444444,8.06911111 C9.82711111,7.94155556 9.79222222,7.766 9.86111111,7.59933333 C9.93,7.43266667 10.0791111,7.33333333 10.2595556,7.33333333 L11.3822222,7.33333333 C11.7228889,7.33333333 12,7.05622222 12,6.71555556 L12,5.28444444 C12,4.94377778 11.7228889,4.66666667 11.3822222,4.66666667 Z" id="Path"></path>
                        <path d="M6,8.4 C4.6745166,8.4 3.6,7.3254834 3.6,6 C3.6,4.6745166 4.6745166,3.6 6,3.6 C7.3254834,3.6 8.4,4.6745166 8.4,6 C8.4,7.3254834 7.3254834,8.4 6,8.4 Z" id="Path"></path>
                    </g>
                </g>
                <path d="M18.0167598,0 C17.1005541,0 16.1955352,0.172989342 15.301676,0.518973214 C14.4078168,0.864957087 13.6033555,1.30580089 12.8882682,1.84151786 C12.1731808,2.37723482 11.5977675,2.95758616 11.1620112,3.58258929 C10.7262548,4.20759241 10.5083799,4.79910435 10.5083799,5.35714286 L10.5083799,10.7142857 C10.5083799,11.7633981 10.7709471,13.1026704 11.2960894,14.7321429 C11.8212317,16.3616153 12.6424525,17.6227634 13.7597765,18.515625 C14.0502808,18.7388404 14.2681557,19.0234358 14.4134078,19.3694196 C14.5586599,19.7154035 14.6089388,20.0781231 14.5642458,20.4575893 C14.4972064,20.8147339 14.357543,21.1439717 14.1452514,21.4453125 C13.9329598,21.7466533 13.6592196,21.9754456 13.3240223,22.1316964 L3.90502793,26.5848214 C3.77094905,26.6294645 3.58659335,26.7354902 3.35195531,26.9029018 C3.11731726,27.0703133 3,27.3772299 3,27.8236607 L3,30 L33,29.9665179 L33,27.890625 C33,27.310265 32.8603366,26.9475454 32.5810056,26.8024554 C32.3016746,26.6573653 32.1508381,26.5848214 32.1284916,26.5848214 L22.7765363,22.1651786 C22.4413391,22.0089278 22.1620123,21.7801354 21.9385475,21.4787946 C21.7150827,21.1774539 21.5810058,20.8370555 21.5363128,20.4575893 C21.4916199,20.0781231 21.5418987,19.7154035 21.6871508,19.3694196 C21.832403,19.0234358 22.0502779,18.7388404 22.3407821,18.515625 C23.5027991,17.6227634 24.3240199,16.356035 24.8044693,14.7154018 C25.2849186,13.0747686 25.5251397,11.7410766 25.5251397,10.7142857 L25.5251397,5.35714286 C25.5251397,4.77678281 25.3016782,4.17411027 24.8547486,3.54910714 C24.407819,2.92410402 23.8324058,2.34933298 23.1284916,1.82477679 C22.4245775,1.30022059 21.6201163,0.864957087 20.7150838,0.518973214 C19.8100513,0.172989342 18.910619,0 18.0167598,0 Z" id="User---simple-line-icons" stroke="#F7931A" fill="#FFFFFF"></path>
            </g>
        </g>
    </g>
</svg>