<?xml version="1.0" encoding="UTF-8"?>
<svg width="31px" height="23px" viewBox="0 0 31 23" version="1.1" xmlns="http://www.w3.org/2000/svg" xmlns:xlink="http://www.w3.org/1999/xlink">
    <!-- Generator: Sketch 49 (51002) - http://www.bohemiancoding.com/sketch -->
    <title>bars</title>
    <desc>Created with Sketch.</desc>
    <defs></defs>
    <g id="Symbols" stroke="none" stroke-width="1" fill="none" fill-rule="evenodd">
        <g id="warnining:-better-security-has-costs" transform="translate(-15.000000, -22.000000)">
            <g id="bars" transform="translate(30.500000, 33.500000) scale(-1, 1) translate(-30.500000, -33.500000) translate(15.000000, 22.000000)">
                <path d="M29.9992126,21.999204 L29.9992126,0 L25.001378,0 L25.001378,21.999204 L24.0005906,21.999204 L24.0005906,3.0023879 L19.0027559,3.0023879 L19.0027559,22.0053064 L18.0019685,22.0053064 L18.0019685,10.0018573 L12.9980315,10.0018573 L12.9980315,21.999204 L11.9972441,21.999204 L6.99940945,21.999204 L5.99862205,21.999204 L5.99862205,14.9997347 L1.0007874,14.9997347 L1.0007874,21.999204 L0,21.999204 L0,23 L31,23 L31,21.999204 L29.9992126,21.999204 Z M5.00393701,21.999204 L2.0015748,21.999204 L2.0015748,16.0005306 L5.00393701,16.0005306 L5.00393701,21.999204 Z M11.0025591,21.999204 L8.00019685,21.999204 L11.0025591,21.999204 Z M17.0011811,22.0053064 L13.9988189,22.0053064 L13.9988189,11.0026532 L17.0011811,11.0026532 L17.0011811,22.0053064 Z M22.9998031,22.0053064 L19.9974409,22.0053064 L19.9974409,4.00318387 L22.9998031,4.00318387 L22.9998031,22.0053064 Z M29.0045276,21.999204 L26.0021654,21.999204 L26.0021654,1.00079597 L29.0045276,1.00079597 L29.0045276,21.999204 Z" id="Shape" fill="#1C3C55" fill-rule="nonzero"></path>
                <polyline id="Path-2" stroke="#FF9500" stroke-width="0.8" points="11.5705053 22.0291909 11.5705053 5.00119658 7 5.00119658 7 22.0291909"></polyline>
            </g>
        </g>
    </g>
</svg>