<?xml version="1.0" encoding="UTF-8"?>
<svg xmlns="http://www.w3.org/2000/svg" width="32" height="32">
  <g transform="translate(0 -1020.362)">
    <rect width="104.286" height="154.286" x="138.571" y="175.934" ry="8.201" opacity=".99" fill="#fff"/>
    <path d="M72.226 43.174a19.193 19.445 0 1 1-38.386 0 19.193 19.445 0 1 1 38.386 0z" transform="matrix(-.163 -.137 -.137 .163 39.942 1038.853)" opacity=".99" stroke="#000" stroke-width=".2" stroke-linecap="round" stroke-linejoin="round" stroke-miterlimit="0"/>
    <path transform="matrix(-.159 -.134 -.134 .159 25.528 1027.156)" d="M72.226 43.174a19.193 19.445 0 1 1-38.386 0 19.193 19.445 0 1 1 38.386 0z" opacity=".99" stroke="#000" stroke-width=".2" stroke-linecap="round" stroke-linejoin="round" stroke-miterlimit="0"/>
    <path d="M26.289 1039.085l-16.002-13.646" stroke="#000" stroke-width="2.157" fill="none"/>
    <path d="M72.226 43.174a19.193 19.445 0 1 1-38.386 0 19.193 19.445 0 1 1 38.386 0z" transform="matrix(.238 -.086 -.086 -.238 -1.528 1060.18)" opacity=".99" stroke="#000" stroke-width=".2" stroke-linecap="round" stroke-linejoin="round" stroke-miterlimit="0"/>
    <path d="M6.908 1046.163l19.819-7.035" stroke="#000" stroke-width="2.157" fill="none"/>
    <path d="M10.506 1025.838l-3.817 20.681" stroke="#000" stroke-width="2.157" fill="none"/>
  </g>
</svg>
