<?xml version="1.0" encoding="UTF-8"?>
<svg width="42px" height="32px" viewBox="0 0 42 32" version="1.1" xmlns="http://www.w3.org/2000/svg" xmlns:xlink="http://www.w3.org/1999/xlink">
    <!-- Generator: Sketch 49 (51002) - http://www.bohemiancoding.com/sketch -->
    <title>icon/news</title>
    <desc>Created with Sketch.</desc>
    <defs></defs>
    <g id="Template-3---Bitcoin-resources" stroke="none" stroke-width="1" fill="none" fill-rule="evenodd">
        <g id="22.01.18-Bitcoin.org_Bitcoin-resources_Desktop-1200px--" transform="translate(-1179.000000, -611.000000)">
            <g id="//contenct" transform="translate(215.000000, 555.000000)">
                <g id="box3" transform="translate(798.000000, 0.000000)">
                    <g id="icon/news" transform="translate(157.000000, 42.000000)">
                        <g id="newspaper-3">
                            <rect id="Rectangle-2" x="0" y="0" width="60" height="60"></rect>
                        </g>
                        <g id="folded-newspaper" transform="translate(9.000000, 14.000000)">
                            <path d="M41.5582254,3.49056148 L37.4187295,3.49056148 L37.4187295,0.492897541 C37.4187295,0.255184426 37.2261148,0.0625696721 36.9884016,0.0625696721 L0.430327869,0.0625696721 C0.192614754,0.0625696721 0,0.255184426 0,0.492897541 L0,28.9703607 C0,30.5142049 1.25612705,31.770332 2.79997131,31.770332 L39.2732705,31.770332 C40.7704672,31.770332 41.9885533,30.552332 41.9885533,29.0551352 L41.9885533,3.92088934 C41.9885533,3.68317623 41.7959385,3.49056148 41.5582254,3.49056148 Z M41.1278975,29.0551352 C41.1278975,30.0777664 40.2959016,30.9096762 39.2732705,30.9096762 C38.2506393,30.9096762 37.4187295,30.0777664 37.4187295,29.0551352 L37.4187295,27.8633852 C37.4187295,27.6256721 37.2261148,27.4330574 36.9884016,27.4330574 C36.7506885,27.4330574 36.5580738,27.6256721 36.5580738,27.8633852 L36.5580738,29.0551352 C36.5580738,29.7717172 36.8376148,30.4239221 37.2927295,30.9096762 L2.79997131,30.9096762 C1.73060656,30.9096762 0.860655738,30.0396393 0.860655738,28.9702746 L0.860655738,0.92322541 L36.5581598,0.92322541 L36.5581598,23.8444672 C36.5581598,24.0821803 36.7507746,24.2747951 36.9884877,24.2747951 C37.2262008,24.2747951 37.4188156,24.0821803 37.4188156,23.8444672 L37.4188156,4.35121721 L41.1279836,4.35121721 L41.1279836,29.0551352 L41.1278975,29.0551352 Z" id="Shape" fill="#1C1F30" fill-rule="nonzero"></path>
                            <path d="M19.4214713,6.2057582 C19.4214713,5.96804508 19.6140861,5.77543033 19.8517992,5.77543033 L33.5610984,5.77543033 C33.7988115,5.77543033 33.9914262,5.96804508 33.9914262,6.2057582 C33.9914262,6.44347131 33.7988115,6.63608607 33.5610984,6.63608607 L19.8517992,6.63608607 C19.6140861,6.63608607 19.4214713,6.44347131 19.4214713,6.2057582 Z" id="Path" fill="#95AABF"></path>
                            <path d="M19.4214713,9.63392213 C19.4214713,9.39620902 19.6140861,9.20359426 19.8517992,9.20359426 L33.5610984,9.20359426 C33.7988115,9.20359426 33.9914262,9.39620902 33.9914262,9.63392213 C33.9914262,9.87163525 33.7988115,10.06425 33.5610984,10.06425 L19.8517992,10.06425 C19.6140861,10.06425 19.4214713,9.87154918 19.4214713,9.63392213 Z" id="Path" fill="#95AABF"></path>
                            <path d="M19.4214713,13.062 C19.4214713,12.8242869 19.6140861,12.6316721 19.8517992,12.6316721 L33.5610984,12.6316721 C33.7988115,12.6316721 33.9914262,12.8242869 33.9914262,13.062 C33.9914262,13.2997131 33.7988115,13.4923279 33.5610984,13.4923279 L19.8517992,13.4923279 C19.6140861,13.4923279 19.4214713,13.299627 19.4214713,13.062 Z" id="Path" fill="#95AABF"></path>
                            <path d="M19.8517992,16.9203197 C19.6140861,16.9203197 19.4214713,16.7277049 19.4214713,16.4899918 C19.4214713,16.2522787 19.6140861,16.0596639 19.8517992,16.0596639 L33.5610984,16.0596639 C33.7988115,16.0596639 33.9914262,16.2522787 33.9914262,16.4899918 C33.9914262,16.7277049 33.7988115,16.9203197 33.5610984,16.9203197 L19.8517992,16.9203197 Z" id="Path" fill="#95AABF"></path>
                            <path d="M17.9972582,19.9180697 C17.9972582,20.1557828 17.8046434,20.3483975 17.5669303,20.3483975 L3.85763115,20.3483975 C3.61991803,20.3483975 3.42730328,20.1557828 3.42730328,19.9180697 C3.42730328,19.6803566 3.61991803,19.4877418 3.85763115,19.4877418 L17.5669303,19.4877418 C17.8046434,19.4877418 17.9972582,19.6803566 17.9972582,19.9180697 Z" id="Path" fill="#95AABF"></path>
                            <path d="M17.9972582,23.3434795 C17.9972582,23.5811926 17.8046434,23.7738074 17.5669303,23.7738074 L3.85763115,23.7738074 C3.61991803,23.7738074 3.42730328,23.5811926 3.42730328,23.3434795 C3.42730328,23.1057664 3.61991803,22.9131516 3.85763115,22.9131516 L17.5669303,22.9131516 C17.8046434,22.9131516 17.9972582,23.1057664 17.9972582,23.3434795 Z" id="Path" fill="#95AABF"></path>
                            <path d="M17.9972582,26.7688033 C17.9972582,27.0065164 17.8046434,27.1991311 17.5669303,27.1991311 L3.85763115,27.1991311 C3.61991803,27.1991311 3.42730328,27.0065164 3.42730328,26.7688033 C3.42730328,26.5310902 3.61991803,26.3384754 3.85763115,26.3384754 L17.5669303,26.3384754 C17.8046434,26.3384754 17.9972582,26.5311762 17.9972582,26.7688033 Z" id="Path" fill="#95AABF"></path>
                            <path d="M34.1546926,19.9180697 C34.1546926,20.1557828 33.9620779,20.3483975 33.7243648,20.3483975 L20.0150656,20.3483975 C19.7773525,20.3483975 19.5847377,20.1557828 19.5847377,19.9180697 C19.5847377,19.6803566 19.7773525,19.4877418 20.0150656,19.4877418 L33.7243648,19.4877418 C33.9619918,19.4877418 34.1546926,19.6803566 34.1546926,19.9180697 Z" id="Path" fill="#95AABF"></path>
                            <path d="M34.1546926,23.3434795 C34.1546926,23.5811926 33.9620779,23.7738074 33.7243648,23.7738074 L20.0150656,23.7738074 C19.7773525,23.7738074 19.5847377,23.5811926 19.5847377,23.3434795 C19.5847377,23.1057664 19.7773525,22.9131516 20.0150656,22.9131516 L33.7243648,22.9131516 C33.9619918,22.9131516 34.1546926,23.1057664 34.1546926,23.3434795 Z" id="Path" fill="#95AABF"></path>
                            <path d="M34.1546926,26.7688033 C34.1546926,27.0065164 33.9620779,27.1991311 33.7243648,27.1991311 L20.0150656,27.1991311 C19.7773525,27.1991311 19.5847377,27.0065164 19.5847377,26.7688033 C19.5847377,26.5310902 19.7773525,26.3384754 20.0150656,26.3384754 L33.7243648,26.3384754 C33.9619918,26.3384754 34.1546926,26.5311762 34.1546926,26.7688033 Z" id="Path" fill="#95AABF"></path>
                            <polygon id="Path" stroke="#FF9500" points="17.1366025 16.0569098 4.28795902 16.0569098 4.28795902 6.63608607 17.1366025 6.63608607"></polygon>
                        </g>
                    </g>
                </g>
            </g>
        </g>
    </g>
</svg>