<?xml version="1.0" encoding="UTF-8"?>
<svg width="31px" height="25px" viewBox="0 0 31 25" version="1.1" xmlns="http://www.w3.org/2000/svg" xmlns:xlink="http://www.w3.org/1999/xlink">
    <!-- Generator: Sketch 49 (51002) - http://www.bohemiancoding.com/sketch -->
    <title>icon/transaction</title>
    <desc>Created with Sketch.</desc>
    <defs></defs>
    <g id="Developer-Documentation" stroke="none" stroke-width="1" fill="none" fill-rule="evenodd">
        <g id="22.01.18-Bitcoin.org_Developer-Documentation-Desktop-1200px--" transform="translate(-785.000000, -686.000000)">
            <g id="//contenct" transform="translate(215.000000, 513.000000)">
                <g id="developer-documentation" transform="translate(0.000000, 115.000000)">
                    <g id="box2" transform="translate(400.000000, 0.000000)">
                        <g id="icon/transaction" transform="translate(155.000000, 40.000000)">
                            <g>
                                <rect id="Rectangle-2" x="0" y="0" width="60" height="60"></rect>
                                <g id="Group-3" transform="translate(15.000000, 18.000000)">
                                    <polygon id="ion-android-arrow-forward---Ionicons" fill="#95AABF" points="8 13.6582031 8 12.5917969 28.6015625 12.5917969 25.5800781 9.54492188 26.3417969 8.78320312 30.6835938 13.125 26.3417969 17.4667969 25.5546875 16.7050781 28.6015625 13.6582031"></polygon>
                                    <polygon id="ion-android-arrow-forward---Ionicons" fill="#F7931A" points="4 5.65820312 4 4.59179688 18.6015625 4.59179688 15.5800781 1.54492188 16.3417969 0.783203125 20.6835937 5.125 16.3417969 9.46679688 15.5546875 8.70507812 18.6015625 5.65820312"></polygon>
                                    <polygon id="ion-android-arrow-forward---Ionicons" fill="#1C3C55" points="22.6835938 20.6582031 2.08203125 20.6582031 5.12890625 23.7050781 4.34179688 24.4667969 0 20.125 4.34179688 15.7832031 5.10351562 16.5449219 2.08203125 19.5917969 22.6835938 19.5917969"></polygon>
                                </g>
                            </g>
                        </g>
                    </g>
                </g>
            </g>
        </g>
    </g>
</svg>