<?xml version="1.0" encoding="UTF-8"?>
<svg xmlns="http://www.w3.org/2000/svg" width="32" height="32">
  <g stroke="#000" fill="none">
    <path d="M28.756 16.595a13.351 13.351 0 1 1-26.702 0 13.351 13.351 0 1 1 26.702 0z" transform="matrix(.987 0 0 .987 .852 -.13)" opacity=".99" stroke-width="2.532" stroke-linecap="round" stroke-linejoin="round"/>
    <path d="M16.256 3.211l-.019 25.584" stroke-width="2.5"/>
    <path d="M18.982 3.422s3.975 6.817 4.025 12.875c.05 6.058-3.906 12.614-3.906 12.614" stroke-width="2.5"/>
    <path d="M13.472 3.504s-4.127 6.668-4.127 12.741c0 6.073 4.007 12.598 4.007 12.598" stroke-width="2.5"/>
    <path d="M5.374 23.545s4.853-1.985 10.911-2.027c6.058-.041 10.312 2.113 10.312 2.113" stroke-width="2.5"/>
    <path d="M5.44 8.69s4.366 2.188 10.795 2.188 10.293-2.027 10.293-2.027" stroke-width="2.5"/>
    <path d="M3.277 16.142l25.741.09" stroke-width="2.5"/>
  </g>
</svg>
