<?xml version="1.0" encoding="UTF-8"?>
<svg width="30px" height="35px" viewBox="0 0 30 35" version="1.1" xmlns="http://www.w3.org/2000/svg" xmlns:xlink="http://www.w3.org/1999/xlink">
    <!-- Generator: Sketch 49 (51002) - http://www.bohemiancoding.com/sketch -->
    <title>invoice</title>
    <desc>Created with Sketch.</desc>
    <defs></defs>
    <g id="Symbols" stroke="none" stroke-width="1" fill="none" fill-rule="evenodd">
        <g id="Unique-invoices.icon" transform="translate(-15.000000, -13.000000)" fill-rule="nonzero">
            <g id="invoice" transform="translate(15.000000, 13.000000)">
                <path d="M25.6750585,8.20371345 C25.3924659,8.20371345 25.1633626,8.43274854 25.1633626,8.71540936 L25.1633626,14.1844834 C25.1633626,14.4671442 25.3924659,14.6961793 25.6750585,14.6961793 C25.9576511,14.6961793 26.1867544,14.4671442 26.1867544,14.1844834 L26.1867544,8.71540936 C26.1867544,8.43281676 25.9577193,8.20371345 25.6750585,8.20371345 Z" id="Shape" fill="#1C3C55"></path>
                <path d="M25.6750585,27.8926803 C25.3924659,27.8926803 25.1633626,28.1217154 25.1633626,28.4043762 L25.1633626,33.8732456 C25.1633626,33.8926901 25.1476023,33.9085185 25.1281579,33.9085185 L1.06412281,33.9085185 C1.04467836,33.9085185 1.02891813,33.8927583 1.02891813,33.8732456 L1.02891813,1.05880117 C1.02891813,1.03935673 1.04467836,1.02352827 1.06412281,1.02352827 L19.1473197,1.02352827 L19.1473197,5.98090643 C19.1473197,6.56464912 19.6221735,7.03957115 20.2059162,7.03957115 L25.6750585,7.03957115 C25.8820565,7.03957115 26.0685867,6.91492203 26.1477973,6.72368421 C26.2270078,6.53244639 26.1832066,6.31241715 26.0368616,6.1660039 L20.0208187,0.149961014 C20.0165205,0.145662768 20.012154,0.141500975 20.0077193,0.137339181 C20.0076511,0.137202729 20.0075146,0.137134503 20.0074464,0.137066277 C20.0072417,0.136793372 20.0069688,0.136588694 20.0067641,0.136384016 C20.0066277,0.136179337 20.0063548,0.135974659 20.0062183,0.135838207 C20.0060819,0.135701754 20.0059454,0.135565302 20.005809,0.13542885 C20.0055361,0.135155945 20.0051949,0.134883041 20.0048538,0.13454191 C20.0048538,0.13454191 20.0047856,0.13454191 20.0047856,0.134473684 C19.9144542,0.0516471735 19.794308,0.00081871345 19.6622222,0 C19.6611988,6.82261209e-05 19.6601754,6.82261209e-05 19.6590838,0 L1.06412281,0 C0.480380117,0 0.00552631579,0.474922027 0.00552631579,1.05866472 L0.00552631579,33.8731774 C0.00552631579,34.4569201 0.480380117,34.9318421 1.06412281,34.9318421 L25.1281579,34.9318421 C25.7119006,34.9318421 26.1867544,34.4569201 26.1867544,33.8731774 L26.1867544,28.404308 C26.1867544,28.1217836 25.9577193,27.8926803 25.6750585,27.8926803 Z M20.1707797,1.7471345 L24.4397563,6.01611111 L20.2059844,6.01611111 C20.18654,6.01611111 20.1707797,6.00035088 20.1707797,5.98083821 L20.1707797,1.7471345 Z" id="Shape" fill="#1C3C55"></path>
                <path d="M27.862729,15.8605263 L4.8924269,15.8605263 C4.00712476,15.8605263 3.28692982,16.5807895 3.28692982,17.4660234 L3.28692982,25.122768 C3.28692982,26.0080702 4.00719298,26.7282651 4.8924269,26.7282651 L27.8626608,26.7282651 C28.747963,26.7282651 29.4681579,26.0080019 29.4681579,25.122768 L29.4681579,17.4660234 C29.4681579,16.5807212 28.7480312,15.8605263 27.862729,15.8605263 Z M28.4448343,25.122768 C28.4448343,25.4437719 28.1836647,25.7048733 27.862729,25.7048733 L4.8924269,25.7048733 C4.571423,25.7048733 4.31032164,25.4437719 4.31032164,25.122768 L4.31032164,17.4660234 C4.31032164,17.1450195 4.57149123,16.8839181 4.8924269,16.8839181 L27.8626608,16.8839181 C28.1836647,16.8839181 28.4447661,17.1450195 28.4447661,17.4660234 L28.4447661,25.122768 L28.4448343,25.122768 Z" id="Shape" fill="#FF9500"></path>
                <path d="M5.9862963,18.5950975 C5.7037037,18.5950975 5.47460039,18.8241326 5.47460039,19.1067934 L5.47460039,23.4820663 C5.47460039,23.7647271 5.7037037,23.9937622 5.9862963,23.9937622 C6.26888889,23.9937622 6.4979922,23.7647271 6.4979922,23.4820663 L6.4979922,19.1067934 C6.4979922,18.8241326 6.26895712,18.5950975 5.9862963,18.5950975 Z" id="Shape" fill="#FF9500"></path>
                <path d="M19.4904288,18.5950975 C19.2078363,18.5950975 18.9787329,18.8241326 18.9787329,19.1067934 L18.9787329,23.4820663 C18.9787329,23.7647271 19.2078363,23.9937622 19.4904288,23.9937622 C19.7730214,23.9937622 20.0021248,23.7647271 20.0021248,23.4820663 L20.0021248,19.1067934 C20.0021248,18.8241326 19.7729532,18.5950975 19.4904288,18.5950975 Z" id="Shape" fill="#FF9500"></path>
                <path d="M10.0198246,18.5950975 C9.73723197,18.5950975 9.50812865,18.8241326 9.50812865,19.1067934 L9.50812865,21.3144542 L8.28988304,18.8778947 C8.18379142,18.6657115 7.94561404,18.5540253 7.71466862,18.6087427 C7.4837232,18.6633236 7.32052632,18.8694347 7.32052632,19.1067934 L7.32052632,23.4820663 C7.32052632,23.7647271 7.54962963,23.9937622 7.83222222,23.9937622 C8.11481481,23.9937622 8.34391813,23.7647271 8.34391813,23.4820663 L8.34391813,21.2744055 L9.56216374,23.7109649 C9.65024366,23.8871248 9.82933723,23.9938304 10.0196881,23.9938304 C10.0586452,23.9938304 10.0981481,23.9893957 10.1373782,23.980117 C10.3683236,23.9255361 10.5315205,23.719425 10.5315205,23.4820663 L10.5315205,19.1067934 C10.5315205,18.8241326 10.3023489,18.5950975 10.0198246,18.5950975 Z" id="Shape" fill="#FF9500"></path>
                <path d="M14.0748441,18.6103119 C13.8011209,18.5422222 13.5228947,18.7084893 13.4543275,18.9826218 L12.8568713,21.3722417 L12.2594834,18.9826218 C12.1909162,18.7084211 11.912963,18.5419493 11.6389669,18.6103119 C11.3647661,18.6788791 11.1980897,18.9566959 11.2666569,19.2308967 L12.3604581,23.6061696 C12.4173587,23.8339766 12.622037,23.9937622 12.8568713,23.9937622 C13.0917057,23.9937622 13.2963158,23.8339084 13.3532846,23.6061696 L14.447154,19.2308967 C14.515653,18.9567641 14.3489766,18.6788791 14.0748441,18.6103119 Z" id="Shape" fill="#FF9500"></path>
                <path d="M16.5826998,18.5950975 C15.6973977,18.5950975 14.9772027,19.3153606 14.9772027,20.2005945 L14.9772027,22.3881969 C14.9772027,23.273499 15.6974659,23.993694 16.582768,23.993694 C17.4680702,23.993694 18.1882651,23.2734308 18.1882651,22.3881969 L18.1882651,20.2005945 C18.1882651,19.3152924 17.4680019,18.5950975 16.5826998,18.5950975 Z M17.1649415,22.3882651 C17.1648733,22.709269 16.9037037,22.9703704 16.582768,22.9703704 C16.2617641,22.9703704 16.0006628,22.709269 16.0006628,22.3882651 L16.0006628,20.2006628 C16.0006628,19.8796589 16.2618324,19.6185575 16.5828363,19.6185575 C16.9038402,19.6185575 17.1649415,19.8796589 17.1649415,20.2006628 L17.1649415,22.3882651 Z" id="Shape" fill="#FF9500"></path>
                <path d="M23.5973002,22.4922417 C23.3527778,22.3508772 23.0396881,22.4343177 22.8981189,22.6789084 C22.7941423,22.8586842 22.6008577,22.9703021 22.3935867,22.9703021 C22.0725828,22.9703021 21.8114815,22.7092008 21.8114815,22.3881969 L21.8114815,20.2005945 C21.8114815,19.8795906 22.0726511,19.6184893 22.3935867,19.6184893 C22.6007212,19.6184893 22.7940741,19.7301072 22.8980507,19.9096784 C23.0396881,20.1543372 23.3527778,20.237846 23.5973002,20.0960721 C23.8418226,19.9545029 23.9253314,19.6414133 23.783694,19.3968908 C23.4973489,18.9023197 22.9647076,18.5950975 22.3935867,18.5950975 C21.5082846,18.5950975 20.7880897,19.3153606 20.7880897,20.2005945 L20.7880897,22.3881969 C20.7880897,23.273499 21.5083528,23.993694 22.3935867,23.993694 C22.9649123,23.993694 23.4976901,23.6862671 23.7839669,23.1913548 C23.9255361,22.9467641 23.8419591,22.6337427 23.5973002,22.4922417 Z" id="Shape" fill="#FF9500"></path>
                <path d="M26.7689279,21.8061598 C27.0515205,21.8061598 27.2806238,21.5771248 27.2806238,21.2944639 C27.2806238,21.0118031 27.0515205,20.782768 26.7689279,20.782768 L25.639922,20.782768 L25.639922,19.6185575 L26.7689279,19.6185575 L26.7689279,19.6184893 C27.0515205,19.6184893 27.2806238,19.3894542 27.2806238,19.1067934 C27.2806238,18.8241326 27.0515205,18.5950975 26.7689279,18.5950975 L25.1282261,18.5950975 C24.8456335,18.5950975 24.6165302,18.8241326 24.6165302,19.1067934 L24.6165302,23.4820663 C24.6165302,23.7647271 24.8456335,23.9937622 25.1282261,23.9937622 L26.7689279,23.9937622 C27.0515205,23.9937622 27.2806238,23.7647271 27.2806238,23.4820663 C27.2806238,23.1994055 27.0515205,22.9703704 26.7689279,22.9703704 L25.639922,22.9703704 L25.639922,21.8061598 L26.7689279,21.8061598 Z" id="Shape" fill="#FF9500"></path>
            </g>
        </g>
    </g>
</svg>