<?xml version="1.0" encoding="UTF-8"?>
<svg width="42px" height="34px" viewBox="0 0 42 34" version="1.1" xmlns="http://www.w3.org/2000/svg" xmlns:xlink="http://www.w3.org/1999/xlink">
    <!-- Generator: Sketch 49 (51002) - http://www.bohemiancoding.com/sketch -->
    <title>send</title>
    <desc>Created with Sketch.</desc>
    <defs></defs>
    <g id="Symbols" stroke="none" stroke-width="1" fill="none" fill-rule="evenodd">
        <g id="SendMany.icon" transform="translate(-6.000000, -12.000000)" fill-rule="nonzero">
            <g id="send" transform="translate(7.000000, 13.000000)">
                <path d="M40.1204464,2.20082589 C39.9669643,2.05129464 39.7402232,2.00502232 39.5406696,2.08270089 L6.34908482,14.9732589 C6.15180804,15.0498661 6.01647321,15.2332813 6.00140625,15.4442857 C5.98633929,15.6552902 6.09421875,15.8560491 6.27850446,15.9599107 L13.1570089,19.8354688 L15.5443527,31.5045982 C15.5592187,31.5870982 15.5927679,31.6639063 15.6409152,31.7298661 C15.6457366,31.7364955 15.6496875,31.7415848 15.6537054,31.7466741 C15.7378125,31.851875 15.8570759,31.9253348 15.9960937,31.947567 C16.0138393,31.9503795 16.0316518,31.9523884 16.0493304,31.9534598 C16.0607812,31.9541964 16.0721652,31.9545313 16.0835491,31.9545313 C16.1879464,31.9545313 16.2868527,31.9247321 16.3711607,31.8722991 C16.3996875,31.8546205 16.426808,31.8341964 16.4519866,31.8110268 C16.4598214,31.8037946 16.4666518,31.7972991 16.4732812,31.7905357 L21.6511607,26.5994643 C21.8645089,26.3855134 21.8641071,26.0390402 21.6501562,25.825692 C21.4360045,25.6122098 21.0897991,25.6127455 20.8763839,25.8266964 L16.8090402,29.9044196 L17.6878795,22.3780357 L30.1094196,29.1959375 C30.2345089,29.2642411 30.3735268,29.2789063 30.5008929,29.2481696 C30.5148884,29.2447545 30.5276786,29.2411384 30.5403348,29.2370536 C30.6660937,29.1962723 30.7764509,29.1113616 30.8466295,28.9894866 C30.8501786,28.983192 30.8533259,28.9775 30.8564062,28.971808 C30.8706027,28.9447545 30.8819866,28.9182366 30.8910268,28.891317 L40.2536384,2.77732143 C40.3258929,2.575625 40.2739286,2.35022321 40.1204464,2.20082589 Z M7.82357143,15.5744643 L34.9529464,5.03823661 L13.6234152,18.8422545 L7.82357143,15.5744643 Z M16.8964286,21.0805357 C16.8452679,21.1215848 16.8007366,21.1725446 16.7659152,21.2323438 C16.7613616,21.2401786 16.7570759,21.2480804 16.7529241,21.2560491 C16.7197098,21.3202679 16.7004241,21.3881027 16.6940625,21.4560045 L15.9351562,27.9553571 L14.2538839,19.7376339 L32.6760937,7.81517857 L16.8964286,21.0805357 Z M30.0741295,27.9282366 L18.202433,21.4121429 L38.5398214,4.31522321 L30.0741295,27.9282366 Z" id="Shape" fill="#1C3C55"></path>
                <polygon id="Path-2" fill="#F7931A" points="10.1213898 21.7002581 -0.330161858 14.2005045 38.1271138 -0.149682301 38.4767141 0.787216644 1.77685874 14.4816287 11.0166091 21.1118261 13.443741 32.2469854 12.4666821 32.459955"></polygon>
            </g>
        </g>
    </g>
</svg>