<?xml version="1.0" encoding="UTF-8"?>
<svg width="42px" height="43px" viewBox="0 0 42 43" version="1.1" xmlns="http://www.w3.org/2000/svg" xmlns:xlink="http://www.w3.org/1999/xlink">
    <!-- Generator: Sketch 49 (51002) - http://www.bohemiancoding.com/sketch -->
    <title>user</title>
    <desc>Created with Sketch.</desc>
    <defs></defs>
    <g id="Template-4--For-Individuals" stroke="none" stroke-width="1" fill="none" fill-rule="evenodd">
        <g id="22.01.18-Bitcoin.org_Bitcoin-for-individuals_Desktop-1200px--" transform="translate(-1182.000000, -1139.000000)">
            <g id="//contenct" transform="translate(215.000000, 555.000000)">
                <g id="box3" transform="translate(800.000000, 530.000000)">
                    <g id="user" transform="translate(155.000000, 42.000000)">
                        <rect id="Rectangle-2" x="0" y="0" width="60" height="60"></rect>
                        <g id="Group-2" transform="translate(13.000000, 13.000000)">
                            <circle id="Oval" stroke="#95AABF" cx="17.5" cy="10.5" r="10.5"></circle>
                            <path d="M0,38.0001531 L34.9937074,38.0001531 C31.9795589,28.000051 26.0690244,23 17.2621041,23 C8.45518371,23 2.70114902,28.000051 0,38.0001531 Z" id="Path-2" stroke="#1C1F30"></path>
                            <path d="M32.945313,24.4892808 L25.5563313,29 C25.8352572,31.6090961 26.4190043,33.7168772 27.3075727,35.3233433 C28.1961412,36.9298094 30.0753879,38.8220283 32.945313,41 C35.047737,39.2898575 36.6212675,37.593575 37.6659043,35.9111524 C38.7105412,34.2287298 39.4885731,31.9731047 40,29.1442773 L32.945313,24.4892808 Z" id="Path-3" stroke="#FF9500" fill="#FFFFFF"></path>
                        </g>
                    </g>
                </g>
            </g>
        </g>
    </g>
</svg>