<?xml version="1.0" encoding="UTF-8"?>
<svg width="38px" height="38px" viewBox="0 0 38 38" version="1.1" xmlns="http://www.w3.org/2000/svg" xmlns:xlink="http://www.w3.org/1999/xlink">
    <!-- Generator: Sketch 49 (51002) - http://www.bohemiancoding.com/sketch -->
    <title>Group 3</title>
    <desc>Created with Sketch.</desc>
    <defs></defs>
    <g id="Symbols" stroke="none" stroke-width="1" fill="none" fill-rule="evenodd">
        <g id="forum-icon" transform="translate(-11.000000, -11.000000)">
            <g id="Group-3">
                <g transform="translate(12.000000, 12.000000)">
                    <path d="M18,36 C27.9411255,36 36,27.9411255 36,18 C36,8.0588745 27.9411255,0 18,0 C8.0588745,0 0,8.0588745 0,18 C0,27.9411255 8.0588745,36 18,36 Z" id="Oval" stroke="#95AABF" stroke-linecap="round" stroke-linejoin="round" stroke-dasharray="2,2,2"></path>
                    <circle id="Oval-3" fill="#FFFFFF" cx="5" cy="6" r="2"></circle>
                    <path d="M4.86125613,8.46875 C6.36245649,8.46875 7.59563113,7.23557536 7.59563113,5.734375 C7.59563113,4.23317464 6.36245649,3 4.86125613,3 C3.36005578,3 2.12688113,4.23317464 2.12688113,5.734375 C2.12688113,7.23557536 3.36005578,8.46875 4.86125613,8.46875 Z M4.86125613,4.07231649 C5.77271447,4.07231649 6.52331465,4.82291667 6.52331465,5.734375 C6.52331465,6.64583333 5.77271447,7.39643351 4.86125613,7.39643351 C3.9497978,7.39643351 3.19919762,6.64583333 3.19919762,5.734375 C3.19919762,4.82291667 3.9497978,4.07231649 4.86125613,4.07231649 Z" id="Shape" fill="#95AABF" fill-rule="nonzero"></path>
                    <path d="M1,12.3276466 L1,10.3300962 C1,9.35831692 1.79544654,8.54851277 2.74999648,8.54851277 L6.24998944,8.54851277 C7.20453937,8.54851277 7.99998591,9.35831692 7.99998591,10.3300962 L7.99998591,12.3276466 L1,12.3276466 Z" id="Path" fill="#FFFFFF"></path>
                    <path d="M1,12.3276466 L1,10.3300962 C1,9.35831692 1.79544654,8.54851277 2.74999648,8.54851277 L6.24998944,8.54851277 C7.20453937,8.54851277 7.99998591,9.35831692 7.99998591,10.3300962 L7.99998591,12.3276466 L1,12.3276466 Z" id="Path" stroke="#95AABF"></path>
                    <circle id="Oval-3" fill="#FFFFFF" cx="31" cy="7" r="2"></circle>
                    <path d="M30.8612561,9.46875 C32.3624565,9.46875 33.5956311,8.23557536 33.5956311,6.734375 C33.5956311,5.23317464 32.3624565,4 30.8612561,4 C29.3600558,4 28.1268811,5.23317464 28.1268811,6.734375 C28.1268811,8.23557536 29.3600558,9.46875 30.8612561,9.46875 Z M30.8612561,5.07231649 C31.7727145,5.07231649 32.5233146,5.82291667 32.5233146,6.734375 C32.5233146,7.64583333 31.7727145,8.39643351 30.8612561,8.39643351 C29.9497978,8.39643351 29.1991976,7.64583333 29.1991976,6.734375 C29.1991976,5.82291667 29.9497978,5.07231649 30.8612561,5.07231649 Z" id="Shape" fill="#95AABF" fill-rule="nonzero"></path>
                    <path d="M27,13.3276466 L27,11.3300962 C27,10.3583169 27.7954465,9.54851277 28.7499965,9.54851277 L32.2499894,9.54851277 C33.2045394,9.54851277 33.9999859,10.3583169 33.9999859,11.3300962 L33.9999859,13.3276466 L27,13.3276466 Z" id="Path" fill="#FFFFFF"></path>
                    <path d="M27,13.3276466 L27,11.3300962 C27,10.3583169 27.7954465,9.54851277 28.7499965,9.54851277 L32.2499894,9.54851277 C33.2045394,9.54851277 33.9999859,10.3583169 33.9999859,11.3300962 L33.9999859,13.3276466 L27,13.3276466 Z" id="Path" stroke="#95AABF"></path>
                    <circle id="Oval-3" fill="#FFFFFF" cx="5" cy="27" r="2"></circle>
                    <path d="M13.5822471,23.2984514 C12.708581,23.2984514 12,22.579202 12,21.6966719 L12,15.265921 C12,14.3833737 12.7085981,13.6641414 13.5822471,13.6641414 L24.417798,13.6641414 C25.2914809,13.6641414 26.0000547,14.3833663 26,15.2658752 L26,21.6966261 C26,22.5791734 25.2914019,23.2984057 24.4177529,23.2984057 L24.3264535,23.2984057 L24.3264535,25.4145855 C24.3264535,25.7514367 24.1259945,26.0559016 23.8172245,26.1857951 C23.715952,26.2283854 23.6079971,26.25 23.4993576,26.25 C23.2800881,26.25 23.0688658,26.162173 22.9128468,26.0038088 L20.2475533,23.2984514 L13.5822471,23.2984514 Z M24.417798,14.229798 L13.5822471,14.229798 C13.0229032,14.229798 12.5656566,14.6939067 12.5656566,15.265921 L12.5656566,21.6966719 C12.5656566,22.268675 13.0228923,22.7327948 13.5822471,22.7327948 L20.4843315,22.7327948 L23.315799,25.606824 C23.3651631,25.6569302 23.4310914,25.6843434 23.4993576,25.6843434 C23.5329616,25.6843434 23.5663459,25.6776593 23.5979108,25.6643846 C23.6959761,25.6231305 23.760797,25.5246781 23.760797,25.4145855 L23.760797,22.7327491 L24.4177529,22.7327491 C24.9770968,22.7327491 25.4343434,22.2686404 25.4343434,21.6966261 L25.4343434,15.2658577 C25.4343789,14.6938825 24.977167,14.229798 24.417798,14.229798 Z" id="Path" stroke="#FF9500" stroke-width="0.3" fill="#FF9500" fill-rule="nonzero"></path>
                    <path d="M10.0171588,24.3525759 C9.45551638,24.3525759 9,23.8902013 9,23.3228605 L9,19.1888063 C9,18.6214545 9.45552734,18.1590909 10.0171588,18.1590909 L16.9828701,18.1590909 C17.5445235,18.1590909 18.0000352,18.6214497 18,19.1887769 L18,23.3228311 C18,23.8901829 17.5444727,24.3525465 16.9828412,24.3525465 L16.9241487,24.3525465 L16.9241487,25.7129478 C16.9241487,25.929495 16.7952822,26.1252225 16.5967872,26.2087254 C16.5316834,26.2361049 16.4622838,26.25 16.3924441,26.25 C16.2514852,26.25 16.1156994,26.1935398 16.0154015,26.0917342 L14.3019985,24.3525759 L10.0171588,24.3525759 Z" id="Path" fill="#FFFFFF" transform="translate(13.500000, 22.204545) scale(-1, 1) translate(-13.500000, -22.204545) "></path>
                    <path d="M10.0171588,24.3525759 C9.45551638,24.3525759 9,23.8902013 9,23.3228605 L9,19.1888063 C9,18.6214545 9.45552734,18.1590909 10.0171588,18.1590909 L16.9828701,18.1590909 C17.5445235,18.1590909 18.0000352,18.6214497 18,19.1887769 L18,23.3228311 C18,23.8901829 17.5444727,24.3525465 16.9828412,24.3525465 L16.9241487,24.3525465 L16.9241487,25.7129478 C16.9241487,25.929495 16.7952822,26.1252225 16.5967872,26.2087254 C16.5316834,26.2361049 16.4622838,26.25 16.3924441,26.25 C16.2514852,26.25 16.1156994,26.1935398 16.0154015,26.0917342 L14.3019985,24.3525759 L10.0171588,24.3525759 Z M16.9828701,18.6743595 L10.0171588,18.6743595 C9.65758061,18.6743595 9.50411894,18.8210829 9.50411894,19.1888063 L9.50411894,23.3228311 C9.50411894,23.6905474 9.65757362,23.8264176 10.0171588,23.8264176 L14.6069128,23.896098 L16.2219943,25.7129478 C16.2537284,25.745159 16.2961109,25.7627817 16.3399963,25.7627817 C16.3615989,25.7627817 16.3830602,25.7584848 16.403352,25.7499511 C16.4663939,25.7234305 16.5080645,25.6601397 16.5080645,25.5893659 L16.5605123,23.8264176 L16.9828701,23.8264176 C17.3424484,23.8264176 17.4597359,23.6905545 17.4597359,23.3228311 L17.4597359,19.1888063 C17.4597587,18.821108 17.3424645,18.6743595 16.9828701,18.6743595 Z" id="Path" stroke="#1C3C55" stroke-width="0.3" fill="#1C3C55" fill-rule="nonzero" transform="translate(13.500000, 22.204545) scale(-1, 1) translate(-13.500000, -22.204545) "></path>
                    <path d="M4.86125613,29.46875 C6.36245649,29.46875 7.59563113,28.2355754 7.59563113,26.734375 C7.59563113,25.2331746 6.36245649,24 4.86125613,24 C3.36005578,24 2.12688113,25.2331746 2.12688113,26.734375 C2.12688113,28.2355754 3.36005578,29.46875 4.86125613,29.46875 Z M4.86125613,25.0723165 C5.77271447,25.0723165 6.52331465,25.8229167 6.52331465,26.734375 C6.52331465,27.6458333 5.77271447,28.3964335 4.86125613,28.3964335 C3.9497978,28.3964335 3.19919762,27.6458333 3.19919762,26.734375 C3.19919762,25.8229167 3.9497978,25.0723165 4.86125613,25.0723165 Z" id="Shape" fill="#95AABF" fill-rule="nonzero"></path>
                    <path d="M1,33.3276466 L1,31.3300962 C1,30.3583169 1.79544654,29.5485128 2.74999648,29.5485128 L6.24998944,29.5485128 C7.20453937,29.5485128 7.99998591,30.3583169 7.99998591,31.3300962 L7.99998591,33.3276466 L1,33.3276466 Z" id="Path" fill="#FFFFFF"></path>
                    <path d="M1,33.3276466 L1,31.3300962 C1,30.3583169 1.79544654,29.5485128 2.74999648,29.5485128 L6.24998944,29.5485128 C7.20453937,29.5485128 7.99998591,30.3583169 7.99998591,31.3300962 L7.99998591,33.3276466 L1,33.3276466 Z" id="Path" stroke="#95AABF"></path>
                    <circle id="Oval-3" fill="#FFFFFF" cx="31" cy="27" r="2"></circle>
                    <path d="M30.8612561,29.46875 C32.3624565,29.46875 33.5956311,28.2355754 33.5956311,26.734375 C33.5956311,25.2331746 32.3624565,24 30.8612561,24 C29.3600558,24 28.1268811,25.2331746 28.1268811,26.734375 C28.1268811,28.2355754 29.3600558,29.46875 30.8612561,29.46875 Z M30.8612561,25.0723165 C31.7727145,25.0723165 32.5233146,25.8229167 32.5233146,26.734375 C32.5233146,27.6458333 31.7727145,28.3964335 30.8612561,28.3964335 C29.9497978,28.3964335 29.1991976,27.6458333 29.1991976,26.734375 C29.1991976,25.8229167 29.9497978,25.0723165 30.8612561,25.0723165 Z" id="Shape" fill="#95AABF" fill-rule="nonzero"></path>
                    <path d="M27,33.3276466 L27,31.3300962 C27,30.3583169 27.7954465,29.5485128 28.7499965,29.5485128 L32.2499894,29.5485128 C33.2045394,29.5485128 33.9999859,30.3583169 33.9999859,31.3300962 L33.9999859,33.3276466 L27,33.3276466 Z" id="Path" fill="#FFFFFF"></path>
                    <path d="M27,33.3276466 L27,31.3300962 C27,30.3583169 27.7954465,29.5485128 28.7499965,29.5485128 L32.2499894,29.5485128 C33.2045394,29.5485128 33.9999859,30.3583169 33.9999859,31.3300962 L33.9999859,33.3276466 L27,33.3276466 Z" id="Path" stroke="#95AABF"></path>
                </g>
            </g>
        </g>
    </g>
</svg>