<?xml version="1.0" encoding="UTF-8"?>
<svg xmlns="http://www.w3.org/2000/svg" width="32" height="32">
  <g stroke="#000">
    <rect width="22.378" height=".785" x="4.812" y="4.348" ry="0" stroke-width="1.619" stroke-linecap="round" fill="none"/>
    <path d="M26.585 4.174l-4.838 11.335" stroke-width="1.728" fill="none"/>
    <path d="M21.673 15.836l9.57.005s-.354 4.502-4.827 4.472c-4.473-.029-4.743-4.477-4.743-4.477z" stroke-width="1.328"/>
    <path d="M26.381 4.709l4.808 10.821" stroke-width="1.728" fill="none"/>
    <path d="M18.003 26.5l-1.986-24.466-2.017 24.417z" stroke-width="2.5"/>
    <path d="M7.918 30.754h16.197s-.958-4.223-8.189-4.23c-7.231-.007-8.008 4.23-8.008 4.23z" stroke-width=".291" stroke-linecap="round" stroke-linejoin="round"/>
    <path d="M5.795 4.165l-4.838 11.335" stroke-width="1.728" fill="none"/>
    <path d="M.883 15.827l9.57.005s-.354 4.502-4.827 4.472c-4.473-.029-4.743-4.477-4.743-4.477z" stroke-width="1.328"/>
    <path d="M5.591 4.701l4.808 10.821" stroke-width="1.728" fill="none"/>
  </g>
</svg>
