<?xml version="1.0" encoding="UTF-8"?>
<svg width="41px" height="35px" viewBox="0 0 41 35" version="1.1" xmlns="http://www.w3.org/2000/svg" xmlns:xlink="http://www.w3.org/1999/xlink">
    <!-- Generator: Sketch 49 (51002) - http://www.bohemiancoding.com/sketch -->
    <title>invoice</title>
    <desc>Created with Sketch.</desc>
    <defs></defs>
    <g id="Symbols" stroke="none" stroke-width="1" fill="none" fill-rule="evenodd">
        <g id="Bitcoin-addresses-to-track-invoices.icon" transform="translate(-10.000000, -13.000000)">
            <g id="invoice" transform="translate(10.000000, 13.000000)">
                <path d="M25.6750585,25.8926803 C25.3924659,25.8926803 25.1633626,26.1217154 25.1633626,26.4043762 L25.1633626,33.8732456 C25.1633626,33.8862086 17.1302827,33.8979662 1.06412281,33.9085185 C1.05115984,33.9085185 1.03942495,22.9586127 1.02891813,1.05880117 C1.02891813,1.04583821 7.06838532,1.03408057 19.1473197,1.02352827 L19.1473197,5.98090643 C19.1473197,6.56464912 19.6221735,7.03957115 20.2059162,7.03957115 L25.6750585,7.03957115 C25.8820565,7.03957115 26.0685867,6.91492203 26.1477973,6.72368421 C26.2270078,6.53244639 26.1832066,6.31241715 26.0368616,6.1660039 L20.0208187,0.149961014 C19.9144542,0.0516471735 19.794308,0.00081871345 19.6622222,0 C19.66154,4.54840806e-05 13.4621735,4.54840806e-05 1.06412281,0 C0.480380117,0 0.00552631579,0.474922027 0.00552631579,1.05866472 L0.00552631579,33.8731774 C0.00552631579,34.4569201 0.480380117,34.9318421 1.06412281,34.9318421 L25.1281579,34.9318421 C25.7119006,34.9318421 26.1867544,34.4569201 26.1867544,33.8731774 L26.1867544,26.404308 C26.1867544,26.1217836 25.9577193,25.8926803 25.6750585,25.8926803 Z M24.4397563,6.01611111 L20.2059844,6.01611111 C20.18654,6.01611111 20.1707797,6.00035088 20.1707797,5.98083821 L20.1707797,1.7471345 L24.4397563,6.01611111 Z M25.8476792,6.7515888 L25.8476792,11.7700682 L25.8476792,6.7515888 Z" id="Shape" fill="#1C3C55" fill-rule="nonzero"></path>
                <g id="Group" transform="translate(4.000000, 12.000000)" fill="#FF9500">
                    <path d="M34.7311657,0.860526316 L2.26893069,0.860526316 C1.01779842,0.860526316 0,1.58078947 0,2.46602339 L0,10.122768 C0,11.0080702 1.01789484,11.7282651 2.26893069,11.7282651 L34.7310693,11.7282651 C35.9822016,11.7282651 37,11.0080019 37,10.122768 L37,2.46602339 C37,1.58072125 35.982298,0.860526316 34.7311657,0.860526316 Z M34.7311657,10.7048733 L2.26893069,10.7048733 C1.81527954,10.7048733 1.09763344,10.4437719 1.09763344,10.122768 L1.09763344,2.46602339 C1.09763344,2.14501949 1.81537596,1.88391813 2.26893069,1.88391813 L34.7310693,1.88391813 C35.1847205,1.88391813 36.0283074,2.14501949 36.0283074,2.46602339 L36.0283074,10.122768 C36.0284038,10.4437719 35.1847205,10.7048733 34.7311657,10.7048733 Z" id="Shape" fill-rule="nonzero"></path>
                    <path d="M4.15210526,3.51894737 L4.15210526,8.55578947 L3.56447368,8.55578947 L3.56447368,4.17526316 L2.26710526,5.03 L2,4.58736842 L3.60263158,3.51894737 L4.15210526,3.51894737 Z M5.64026316,8.55578947 L7.09026316,3.27473684 L8.37236842,3.27473684 L9.82236842,8.55578947 L9.24236842,8.55578947 L8.86078947,7.19736842 L6.60184211,7.19736842 L6.22026316,8.55578947 L5.64026316,8.55578947 Z M7.53289474,3.77842105 L6.73157895,6.67078947 L8.73105263,6.67078947 L7.92973684,3.77842105 L7.53289474,3.77842105 Z M11.2418421,8.55578947 L10.6542105,8.55578947 L10.6542105,3.27473684 L11.2418421,3.27473684 L11.2418421,5.73210526 L12.1118421,5.70157895 L13.4626316,3.27473684 L14.1342105,3.27473684 L12.6231579,5.93052632 L14.2181579,8.55578947 L13.5236842,8.55578947 L12.1194737,6.22052632 L11.2418421,6.25105263 L11.2418421,8.55578947 Z M14.9965789,8.55578947 L14.9965789,3.27473684 L16.0955263,3.27473684 L18.1178947,8.03684211 L18.2781579,8.03684211 L18.2781579,3.27473684 L18.8581579,3.27473684 L18.8581579,8.55578947 L17.7821053,8.55578947 L15.7292105,3.79368421 L15.5842105,3.79368421 L15.5842105,8.55578947 L14.9965789,8.55578947 Z M19.6976316,4.74 L20.27,4.74 L21.2239474,8.05973684 L21.4757895,8.05973684 L22.4373684,4.74 L23.0097368,4.74 L21.4223684,10.25 L20.85,10.25 L21.3460526,8.55578947 L20.7813158,8.55578947 L19.6976316,4.74 Z M26.7492105,8.55578947 L23.8415789,8.55578947 L23.8415789,3.27473684 L24.4292105,3.27473684 L24.4292105,8.02921053 L26.7492105,8.02921053 L26.7492105,8.55578947 Z M26.6957895,4.74 L27.3063158,4.74 L28.1992105,8.05973684 L28.4815789,8.05973684 L29.405,4.74 L29.9926316,4.74 L28.9165789,8.55578947 L27.7718421,8.55578947 L26.6957895,4.74 Z M30.42,8.55578947 L30.42,7.68578947 L31.0457895,7.68578947 L31.0457895,8.55578947 L30.42,8.55578947 Z M32.3660526,8.55578947 L32.3660526,7.68578947 L32.9842105,7.68578947 L32.9842105,8.55578947 L32.3660526,8.55578947 Z M34.3044737,8.55578947 L34.3044737,7.68578947 L34.9302632,7.68578947 L34.9302632,8.55578947 L34.3044737,8.55578947 Z" id="1AKNyLv…v2CbVfQ" stroke="#FF9500" stroke-width="0.3"></path>
                </g>
            </g>
        </g>
    </g>
</svg>