<?xml version="1.0" encoding="UTF-8"?>
<svg width="34px" height="36px" viewBox="0 0 34 36" version="1.1" xmlns="http://www.w3.org/2000/svg" xmlns:xlink="http://www.w3.org/1999/xlink">
    <!-- Generator: Sketch 49 (51002) - http://www.bohemiancoding.com/sketch -->
    <title>Group</title>
    <desc>Created with Sketch.</desc>
    <defs></defs>
    <g id="Symbols" stroke="none" stroke-width="1" fill="none" fill-rule="evenodd">
        <g id="New-payment-possibilities.icon" transform="translate(-13.000000, -12.000000)">
            <g id="Group" transform="translate(14.000000, 13.000000)">
                <g id="computer" transform="translate(0.000000, 4.516129)">
                    <path d="M0,21.2143285 C0,22.9030595 1.42454159,24.2769527 3.17552739,24.2769527 L8.2563712,24.2769527 L23.4989027,24.2769527 L28.5797465,24.2769527 C30.3307323,24.2769527 31.7552739,22.9030595 31.7552739,21.2143285 L31.7552739,19.376754 L0,19.376754 L0,21.2143285 Z" id="Path" stroke="#1C3C55" stroke-width="0.7"></path>
                    <path d="M14.5637436,24.6107878 L14.5637436,26.8924884 L18.4430675,26.8924884 L18.4430675,24.6107878 L14.5637436,24.6107878 Z M13.7878788,24.1544477 L19.2189323,24.1544477 L19.2189323,27.3488285 L13.7878788,27.3488285 L13.7878788,24.1544477 Z" id="Rectangle-2" fill="#1C3C55" fill-rule="nonzero"></path>
                    <path d="M22.1998865,27.4848122 L10.5619147,27.4848122 C9.54846548,27.4848122 8.68629422,28.1514856 8.36676486,29.0820026 L24.3950363,29.0820026 C24.0755069,28.1514856 23.2133357,27.4848122 22.1998865,27.4848122 Z M10.5619147,26.686217 L22.1998865,26.686217 C23.9138796,26.686217 25.3033456,28.11639 25.3033456,29.8805978 L7.45845552,29.8805978 C7.45845552,28.11639 8.84792151,26.686217 10.5619147,26.686217 Z" id="Rectangle-3" fill="#1C3C55" fill-rule="nonzero"></path>
                    <path d="M0.19498302,19.5436909 L0.19498302,3.08932661 C0.19498302,1.98475711 1.09041352,1.08932661 2.19498302,1.08932661 L29.7657871,1.08932661 C30.8703566,1.08932661 31.7657871,1.98475711 31.7657871,3.08932661 L31.7657871,19.8545592" id="Path-51" stroke="#1C3C55" stroke-width="0.7"></path>
                    <path d="M5.97672054,16.0367448 L3.40227849,16.0367448 L3.40227849,13.4308663 C3.40227849,13.143047 3.17173721,12.9096906 2.88739009,12.9096906 C2.60304296,12.9096906 2.37250168,13.143047 2.37250168,13.4308663 L2.37250168,16.5579205 C2.37250168,16.8457398 2.60304296,17.0790962 2.88739009,17.0790962 L5.97672054,17.0790962 C6.26106766,17.0790962 6.49160894,16.8457398 6.49160894,16.5579205 C6.49160894,16.2701012 6.26106766,16.0367448 5.97672054,16.0367448 Z" id="Shape" fill="#95AABF" fill-rule="nonzero"></path>
                    <path d="M28.6318105,12.9096906 C28.3474634,12.9096906 28.1169221,13.143047 28.1169221,13.4308663 L28.1169221,16.0367448 L25.5424801,16.0367448 C25.2581329,16.0367448 25.0275916,16.2701012 25.0275916,16.5579205 C25.0275916,16.8457398 25.2581329,17.0790962 25.5424801,17.0790962 L28.6318105,17.0790962 C28.9161576,17.0790962 29.1466989,16.8457398 29.1466989,16.5579205 L29.1466989,13.4308663 C29.1466989,13.143047 28.9161576,12.9096906 28.6318105,12.9096906 Z" id="Shape" fill="#95AABF" fill-rule="nonzero"></path>
                </g>
                <circle id="Oval-12" stroke="#1C3C55" stroke-width="0.7" fill="#FFFFFF" cx="16.3709677" cy="8.46774194" r="8.46774194"></circle>
                <path d="M19.1456193,7.37408569 C18.9796397,8.05747464 18.5811941,8.35343306 18.092708,8.41800833 C18.7161483,8.85499771 18.9982495,9.45261734 18.5814934,10.3877382 C18.0594878,11.5520161 17.1064326,11.549903 15.8753903,11.1540513 L15.4405368,12.4193548 L14.7199791,12.1416061 L15.1480115,10.8961504 C14.9655326,10.8258115 14.7736958,10.7518654 14.5788854,10.6711537 L14.1491478,11.9215713 L13.4285902,11.6438225 L13.8634437,10.378519 C13.6950017,10.3135907 13.5282649,10.2437005 13.355144,10.1769686 L12.4193548,9.81625592 L12.8764735,8.96412504 C13.4017838,9.17785166 13.3958365,9.16432058 13.3958365,9.16432058 C13.5970311,9.24187381 13.706043,9.10969536 13.754186,9.01586656 L14.4397199,7.02115276 L14.514583,7.05000978 C14.4882146,7.03422642 14.4601409,7.02340504 14.4414252,7.01619079 L14.9308486,5.59210407 C14.9573447,5.4224995 14.9251569,5.20779715 14.6303834,5.09417265 C14.6303834,5.09417265 14.6431519,5.08785582 14.1110204,4.8939771 L14.3906909,4.08021326 L15.3809221,4.4675307 C15.5259694,4.52344116 15.6803746,4.58295876 15.8364851,4.63751438 L16.2662227,3.38709677 L16.9867803,3.66484555 L16.5655692,4.89045328 C16.7591113,4.95943741 16.9526534,5.02842154 17.1398112,5.10056408 L17.5576117,3.8848803 L18.2781693,4.16262907 L17.8484317,5.41304668 C18.7458727,5.85450581 19.3764433,6.44034573 19.1456193,7.37408569 Z M16.8902443,9.63860977 C16.5768953,10.6575564 15.1455569,9.90805184 14.6774194,9.70638788 L15.1480115,8.26775788 C15.616149,8.46942185 17.2150773,8.58231956 16.8902443,9.63860977 Z M17.7300504,7.37408569 C17.3947877,8.41232926 16.0762625,7.56386519 15.6136646,7.37408569 L16.0719202,5.89408629 C16.534518,6.08386579 18.0808166,6.28783086 17.7300504,7.37408569 Z" id="btc---FontAwesome-Copy" fill="#F7931A"></path>
                <path d="M16.3709677,14.6774194 C19.8004779,14.6774194 22.5806452,11.8972521 22.5806452,8.46774194 C22.5806452,5.0382318 19.8004779,2.25806452 16.3709677,2.25806452 C12.9414576,2.25806452 10.1612903,5.0382318 10.1612903,8.46774194" id="Oval-8" stroke="#FF9500" stroke-width="0.7" stroke-linecap="round" stroke-linejoin="round"></path>
            </g>
        </g>
    </g>
</svg>