<?xml version="1.0" encoding="UTF-8" standalone="no"?>
<!-- Created with Inkscape (http://www.inkscape.org/) -->

<svg
   xmlns:dc="http://purl.org/dc/elements/1.1/"
   xmlns:cc="http://creativecommons.org/ns#"
   xmlns:rdf="http://www.w3.org/1999/02/22-rdf-syntax-ns#"
   xmlns:svg="http://www.w3.org/2000/svg"
   xmlns="http://www.w3.org/2000/svg"
   xmlns:sodipodi="http://sodipodi.sourceforge.net/DTD/sodipodi-0.dtd"
   xmlns:inkscape="http://www.inkscape.org/namespaces/inkscape"
   width="32px"
   height="32px"
   id="svg2985"
   version="1.1"
   inkscape:version="0.48.3.1 r9886"
   sodipodi:docname="ico_solve.svg"
   inkscape:export-filename="/media/X/bitcoin.org/bitcoin.org_icon/img/for_solve.png"
   inkscape:export-xdpi="90"
   inkscape:export-ydpi="90">
  <defs
     id="defs2987" />
  <sodipodi:namedview
     id="base"
     pagecolor="#ffffff"
     bordercolor="#666666"
     borderopacity="1.0"
     inkscape:pageopacity="0.0"
     inkscape:pageshadow="2"
     inkscape:zoom="1.3997253"
     inkscape:cx="-143.82154"
     inkscape:cy="173.36129"
     inkscape:current-layer="layer1"
     showgrid="true"
     inkscape:grid-bbox="true"
     inkscape:document-units="px"
     inkscape:window-width="1680"
     inkscape:window-height="1026"
     inkscape:window-x="0"
     inkscape:window-y="24"
     inkscape:window-maximized="1" />
  <metadata
     id="metadata2990">
    <rdf:RDF>
      <cc:Work
         rdf:about="">
        <dc:format>image/svg+xml</dc:format>
        <dc:type
           rdf:resource="http://purl.org/dc/dcmitype/StillImage" />
        <dc:title />
      </cc:Work>
    </rdf:RDF>
  </metadata>
  <g
     id="layer1"
     inkscape:label="Layer 1"
     inkscape:groupmode="layer">
    <path
       style="fill:none;stroke:#000000;stroke-width:2.86142421;stroke-linecap:round;stroke-linejoin:round;stroke-miterlimit:4;stroke-opacity:1;stroke-dasharray:none"
       d="m 18.28813,24.629859 c 0,0 0.188562,-0.187575 0.289282,-1.605561 0.08172,-1.150601 0.37857,-1.492428 0.556584,-1.906538 0.318518,-0.740963 0.685574,-1.463586 1.104613,-2.152706 0.624804,-1.027505 1.260659,-1.681137 2.09202,-2.939179 0.982357,-1.486536 1.330868,-3.464636 1.098773,-5.231256 C 23.195757,9.0161964 22.358055,7.1652741 21.000578,5.9928275 19.589839,4.7743798 17.559999,4.1869745 15.69624,4.2216187 13.736697,4.2580434 11.628452,4.956127 10.192356,6.2898297 8.9970706,7.3998887 8.3468167,9.1134431 8.1374151,10.731184 c -0.2409886,1.861768 -0.038912,3.971872 0.9855566,5.544996 0.8017315,1.2311 1.2592333,1.66778 1.7951213,2.562461 0.444152,0.741525 0.772499,1.546606 1.170295,2.313997 0.181067,0.349296 0.519568,0.802256 0.552357,1.982332 0.02296,0.826201 0.237721,1.494889 0.237721,1.494889 z"
       id="path2995"
       inkscape:connector-curvature="0"
       sodipodi:nodetypes="cssasaaaaasasscc" />
    <path
       style="fill:#000000;fill-opacity:1;stroke:#000000;stroke-width:1.04839277px;stroke-linecap:round;stroke-linejoin:round;stroke-opacity:1"
       d="m 18.804954,27.600977 c 0,0 -0.144582,1.068996 -0.680242,1.771043 -0.53566,0.702047 -4.754889,0.625379 -5.251226,-0.05816 -0.496338,-0.683546 -0.544305,-1.695838 -0.544305,-1.695838 z"
       id="path2985"
       inkscape:connector-curvature="0"
       sodipodi:nodetypes="czzcc" />
  </g>
</svg>
