<?xml version="1.0" encoding="UTF-8"?>
<svg xmlns="http://www.w3.org/2000/svg" width="32" height="32">
  <g stroke="#000" stroke-linecap="round" stroke-linejoin="round">
    <path d="M5.793 30.652c-.664 0-2.901.019-2.901.019l2.982-9.761.664-7.277-4.393 5.968-.83-.772s3.88-6.288 4.214-6.659c.334-.371 1.841-1.125 1.841-1.125s-.447-.848-.556-1.301c-.128-.536-.2-1.1-.103-1.642.102-.566.169-1.28.707-1.601.735-.438 1.946-.437 2.661.025.539.349.546 1.095.622 1.68.065.501-.006 1.02-.152 1.508-.141.474-.689 1.339-.689 1.339s1.312.546 1.834.975c.397.326 4.362 7.086 4.362 7.086l-.893.696-4.231-6.28.546 7.316 3.484 9.828-2.984-.007-3.185-10.532z" stroke-width="1.096"/>
    <path d="M24.049 23.907c-.43 0-1.879.013-1.879.013l1.932-6.641.43-4.951-2.846 4.06-.538-.525s2.513-4.278 2.729-4.531c.216-.253 1.193-.766 1.193-.766s-.29-.577-.36-.885c-.083-.365-.13-.749-.066-1.117.066-.385.109-.871.458-1.089.476-.298 1.261-.297 1.724.017.349.237.354.745.403 1.143.042.341-.004.694-.098 1.026-.092.322-.447.911-.447.911s.85.371 1.188.663c.257.222 2.826 4.821 2.826 4.821l-.579.474-2.741-4.273.353 4.977 2.257 6.686-1.933-.005-2.063-7.165z" fill="#333" stroke-width=".728"/>
    <path d="M16.941 11.436l-1.281.008 1.317-4.31.293-3.213-1.94 2.635-.367-.341s1.713-2.777 1.861-2.941c.147-.164.813-.497.813-.497s-.197-.374-.245-.574c-.057-.237-.088-.486-.045-.725.045-.25.074-.565.312-.707.325-.193.859-.193 1.175.011.238.154.241.484.275.742.029.221-.003.45-.067.666-.062.209-.304.591-.304.591s.579.241.81.43c.175.144 1.926 3.129 1.926 3.129l-.394.307-1.868-2.773.241 3.23 1.538 4.34-1.318-.003-1.406-4.65z" fill="#666" stroke-width=".484"/>
  </g>
</svg>
