<svg xmlns="http://www.w3.org/2000/svg" width="32" height="32"><g stroke="#000" stroke-linecap="round" stroke-linejoin="round"><path d="M18.288 24.63s.189-.188.289-1.606c.082-1.151.379-1.492.557-1.907.319-.741.686-1.464 1.105-2.153.625-1.028 1.261-1.681 2.092-2.939.982-1.487 1.331-3.465 1.099-5.231-.234-1.778-1.071-3.629-2.429-4.802-1.411-1.218-3.441-1.806-5.304-1.771-1.96.036-4.068.735-5.504 2.068-1.195 1.11-1.846 2.824-2.055 4.441-.241 1.862-.039 3.972.986 5.545.802 1.231 1.259 1.668 1.795 2.562.444.742.772 1.547 1.17 2.314.181.349.52.802.552 1.982.023.826.238 1.495.238 1.495z" stroke-width="2.861" fill="none"/><path d="M18.805 27.601s-.145 1.069-.68 1.771c-.536.702-4.755.625-5.251-.058-.496-.684-.544-1.696-.544-1.696z" stroke-width="1.048"/></g></svg>