<?xml version="1.0" encoding="UTF-8"?>
<svg width="40px" height="37px" viewBox="0 0 40 37" version="1.1" xmlns="http://www.w3.org/2000/svg" xmlns:xlink="http://www.w3.org/1999/xlink">
    <!-- Generator: Sketch 49 (51002) - http://www.bohemiancoding.com/sketch -->
    <title>Group 4</title>
    <desc>Created with Sketch.</desc>
    <defs></defs>
    <g id="Symbols" stroke="none" stroke-width="1" fill="none" fill-rule="evenodd">
        <g id="Bug-reports.icon" transform="translate(-10.000000, -8.000000)">
            <g id="Group-4" transform="translate(10.000000, 8.000000)">
                <g id="Group-3">
                    <path d="M24,5 L26.2808658,5 L26.2808658,5.25627706 L25.6786147,10.92 L24.6022511,10.92 L24,5.25627706 L24,5 Z M26.178355,13.969697 L24.1025108,13.969697 L24.1025108,11.9194805 L26.178355,11.9194805 L26.178355,13.969697 Z" id="!" fill="#95AABF"></path>
                    <g id="Group-2" fill-rule="nonzero">
                        <g id="malware" transform="translate(0.000000, 10.090909)">
                            <path d="M0.65,18.6989247 L0.65,16.7213587 L28.4760997,16.7213587 L28.4760997,18.6989247 C28.4760997,20.3879575 27.1025225,21.7615347 25.4134897,21.7615347 L3.71260997,21.7615347 C2.02357717,21.7615347 0.65,20.3879575 0.65,18.6989247 Z M1.35,17.4213587 L1.35,18.6989247 C1.35,20.0013582 2.4101765,21.0615347 3.71260997,21.0615347 L25.4134897,21.0615347 C26.7159232,21.0615347 27.7760997,20.0013582 27.7760997,18.6989247 L27.7760997,17.4213587 L1.35,17.4213587 Z" id="Path" fill="#1C3C55"></path>
                            <path d="M12.8993157,21.7072173 L12.8993157,23.7281521 L16.3352884,23.7281521 L16.3352884,21.7072173 L12.8993157,21.7072173 Z M12.2121212,21.3030303 L17.0224829,21.3030303 L17.0224829,24.132339 L12.2121212,24.132339 L12.2121212,21.3030303 Z" id="Rectangle-2" fill="#1C3C55"></path>
                            <path d="M19.6627566,24.2527817 L9.35483871,24.2527817 C8.45721228,24.2527817 7.69357488,24.8432638 7.41056316,25.6674361 L21.6070321,25.6674361 C21.3240204,24.8432638 20.560383,24.2527817 19.6627566,24.2527817 Z M9.35483871,23.5454545 L19.6627566,23.5454545 C21.1808648,23.5454545 22.4115347,24.8121792 22.4115347,26.3747633 L6.60606061,26.3747633 C6.60606061,24.8121792 7.83673048,23.5454545 9.35483871,23.5454545 Z" id="Rectangle-3" fill="#1C3C55"></path>
                            <path d="M12.8383724,5.51998045 L14.0205279,4.92863148 L14.0205279,2.9657869 L12.9354839,2.9657869 L12.9354839,4.25807429 L11.3079179,5.07185728 L9.68035191,4.25807429 L9.68035191,2.9657869 L8.59530792,2.9657869 L8.59530792,4.92863148 L9.77746334,5.51943793 C8.75209677,6.06847019 8.05278592,7.149174 8.05278592,8.39100684 L8.05278592,10.5610948 L5.59244868,10.5610948 L4.34627566,12.4300831 L5.24903226,13.03174 L6.17294721,11.6461388 L8.05278592,11.6461388 L8.05278592,12.7311828 L6.67749267,12.7311828 L5.43131965,14.6001711 L6.33407625,15.201828 L7.2579912,13.8162268 L8.24266862,13.8162268 C8.69079179,15.0786755 9.89356305,15.9863148 11.3079179,15.9863148 C12.7222727,15.9863148 13.925044,15.0786755 14.3731672,13.8162268 L15.3578446,13.8162268 L16.2817595,15.2023705 L17.1845161,14.6007136 L15.9383431,12.7311828 L14.5630499,12.7311828 L14.5630499,11.6461388 L16.4428886,11.6461388 L17.3668035,13.0322825 L18.2695601,12.4306256 L17.0233871,10.5610948 L14.5630499,10.5610948 L14.5630499,8.39100684 C14.5630499,7.149174 13.863739,6.06847019 12.8383724,5.51998045 Z M13.4780059,12.7311828 C13.4780059,13.7397312 12.7835777,14.5817253 11.8504399,14.8242326 L11.8504399,11.6461388 L10.7653959,11.6461388 L10.7653959,14.8242326 C9.83225806,14.5817253 9.13782991,13.7397312 9.13782991,12.7311828 L9.13782991,9.47605083 L13.4780059,9.47605083 L13.4780059,12.7311828 Z M9.13782991,8.39100684 C9.13782991,7.19420332 10.1111144,6.22091887 11.3079179,6.22091887 C12.5047214,6.22091887 13.4780059,7.19420332 13.4780059,8.39100684 L9.13782991,8.39100684 Z" id="Shape" fill="#FF9500"></path>
                            <path d="M1.35,15.8687084 L0.65,15.8687084 L0.65,3.11038195 C0.65,1.81251278 1.70213084,0.760381945 3,0.760381945 L14.0053084,0.760381945 L14.0053084,1.46038195 L3,1.46038195 C2.08873016,1.46038195 1.35,2.19911211 1.35,3.11038195 L1.35,15.8687084 Z" id="Path-2" fill="#1C3C55"></path>
                        </g>
                        <g id="Group" transform="translate(15.575758, 0.000000)" fill="#95AABF">
                            <path d="M23.4167883,23.8782238 L16.5567095,16.6816448 C18.3064705,14.9114904 19.3904913,12.4711828 19.3904913,9.77985878 C19.3904913,4.38696522 15.0414811,0 9.69524566,0 C4.3490102,0 0,4.38696522 0,9.77985878 C0,15.1727523 4.3490102,19.5597176 9.69524566,19.5597176 C12.0419568,19.5597176 14.1956864,18.7135269 15.8743489,17.3094186 L22.7510481,24.5236944 C22.8415371,24.6191645 22.9624968,24.6666667 23.0839182,24.6666667 C23.1993378,24.6666667 23.3142957,24.6233559 23.4038614,24.5367343 C23.5876093,24.3583683 23.5931495,24.0635754 23.4167883,23.8782238 Z M9.70555397,18.9033897 C4.71465024,18.9033897 0.654568868,14.8078749 0.654568868,9.77341413 C0.654568868,4.73895339 4.71465024,0.643438551 9.70555397,0.643438551 C14.6964577,0.643438551 18.7565391,4.73895339 18.7565391,9.77341413 C18.7565391,14.8078749 14.6959813,18.9033897 9.70555397,18.9033897 Z" id="Shape"></path>
                        </g>
                    </g>
                    <path d="M25.2878788,17.4242424 C29.5471657,17.4242424 33,13.9714081 33,9.71212121 C33,5.45283428 29.5471657,2 25.2878788,2 C21.0285919,2 17.5757576,5.45283428 17.5757576,9.71212121" id="Oval-11" stroke="#FF9500" stroke-width="0.6"></path>
                </g>
                <polygon id="Path-50" fill="#1C3C55" fill-rule="nonzero" points="27.5590909 20.1818182 28.2590909 20.1818182 28.2590909 25.4846554 27.5590909 25.4846554"></polygon>
            </g>
        </g>
    </g>
</svg>