<?xml version="1.0" encoding="UTF-8"?>
<svg width="36px" height="36px" viewBox="0 0 36 36" version="1.1" xmlns="http://www.w3.org/2000/svg" xmlns:xlink="http://www.w3.org/1999/xlink">
    <!-- Generator: Sketch 49 (51002) - http://www.bohemiancoding.com/sketch -->
    <title>Group</title>
    <desc>Created with Sketch.</desc>
    <defs></defs>
    <g id="new-TEMPLATE" stroke="none" stroke-width="1" fill="none" fill-rule="evenodd">
        <g id="Bitcoin.org---Bitcoin-core-Template" transform="translate(-1183.000000, -7500.000000)">
            <g id="Group-12" transform="translate(215.000000, 7371.000000)">
                <g id="Group-11">
                    <g id="box3" transform="translate(799.000000, 87.000000)">
                        <g id="Group-2" transform="translate(157.000000, 30.000000)">
                            <g id="Group" transform="translate(13.000000, 13.000000)">
                                <path d="M24.8867962,15.8283326 C24.494768,17.341551 23.5536775,17.9968875 22.3999199,18.1398756 C23.8724264,19.1074949 24.5387226,20.4307955 23.5543844,22.5014204 C22.3214569,25.0794643 20.0704312,25.0747853 17.1628266,24.1982565 L16.135744,27 L14.4338555,26.3849849 L15.4448271,23.6271902 C15.0138293,23.4714397 14.5607292,23.3077019 14.1006055,23.1289832 L13.0856062,25.8977651 L11.3837177,25.2827499 L12.4108004,22.4810064 C12.0129563,22.3372366 11.61914,22.1824796 11.2102448,22.0347162 L9,21.2359953 L10.0796708,19.349134 C11.3204035,19.8223858 11.3063566,19.7924241 11.3063566,19.7924241 C11.7815593,19.9641492 12.039035,19.6714683 12.1527441,19.4637045 L13.7719097,15.0468383 L13.9487293,15.1107359 C13.8864498,15.0757871 13.8201424,15.0518254 13.7759375,15.035851 L14.931909,11.8825162 C14.9944904,11.5069632 14.9184659,11.0315508 14.2222388,10.7799537 C14.2222388,10.7799537 14.2523968,10.7659665 12.9955529,10.3366636 L13.6561081,8.53475794 L15.9949397,9.3923894 C16.3375277,9.51619115 16.7022181,9.64798011 17.0709362,9.76878184 L18.0859355,7 L19.787824,7.61501515 L18.7929636,10.3288608 C19.2500915,10.4816114 19.7072195,10.634362 20.1492684,10.7941062 L21.1360733,8.10223494 L22.8379618,8.71725009 L21.8229625,11.4860319 C23.9426326,12.4635486 25.4319804,13.7607655 24.8867962,15.8283326 Z M20.3156456,20.9577476 C19.5463406,23.0563085 16.0322526,21.5126743 14.8829254,21.0973393 L16.2443134,17.3836558 C17.3936406,17.7989907 21.1131451,18.7822762 20.3156456,20.9577476 Z M21.4482297,15.4442805 C20.7514246,17.3450712 17.8260472,16.039066 16.8645907,15.6916224 L18.1011177,12.318543 C19.0625742,12.6659866 22.177257,13.4555919 21.4482297,15.4442805 Z" id="btc---FontAwesome-Copy" fill="#F7931A"></path>
                                <path d="M33.4911554,21.1125084 C31.2203511,30.2196348 21.9952748,35.7621098 12.8860234,33.4910391 C3.78049107,31.2204996 -1.76263056,21.9959682 0.509236411,12.8893731 C2.77897815,3.78118433 12.0040544,-1.76182192 21.1106493,0.508717539 C30.2193695,2.779257 35.7619598,12.0048509 33.4911554,21.1125084 Z" id="path3094" stroke="#1C3C55" fill-rule="nonzero"></path>
                            </g>
                        </g>
                    </g>
                </g>
            </g>
        </g>
    </g>
</svg>