<?xml version="1.0" encoding="UTF-8"?>
<svg width="31px" height="30px" viewBox="0 0 31 30" version="1.1" xmlns="http://www.w3.org/2000/svg" xmlns:xlink="http://www.w3.org/1999/xlink">
    <!-- Generator: Sketch 49 (51002) - http://www.bohemiancoding.com/sketch -->
    <title>facebook</title>
    <desc>Created with Sketch.</desc>
    <defs></defs>
    <g id="Symbols" stroke="none" stroke-width="1" fill="none" fill-rule="evenodd">
        <g id="//Footer-web-1200px" transform="translate(-784.000000, -605.000000)">
            <g id="//Footer">
                <g id="Bottom" transform="translate(0.000000, 580.000000)">
                    <g id="social-media" transform="translate(744.000000, 25.000000)">
                        <g id="facebook" transform="translate(40.312500, 0.000000)">
                            <rect id="Rectangle-5" fill="#2D313D" x="0" y="0" width="30" height="30" rx="1"></rect>
                            <path d="M20.5341916,5.61661046 L20.5341916,8.37889053 L18.8914721,8.37889053 C17.6045007,8.37889053 17.3638475,8.99621828 17.3638475,9.88558876 L17.3638475,11.8631302 L20.4295598,11.8631302 L20.0214957,14.9602321 L17.3638475,14.9602321 L17.3638475,22.9017873 L14.1621137,22.9017873 L14.1621137,14.9602321 L11.4940023,14.9602321 L11.4940023,11.8631302 L14.1621137,11.8631302 L14.1621137,9.58215648 C14.1621137,6.9349714 15.783907,5.49105227 18.1485861,5.49105227 C19.2786098,5.49105227 20.2516857,5.57475773 20.5341916,5.61661046 Z" id="facebook---FontAwesome" fill="#FFFFFF"></path>
                        </g>
                    </g>
                </g>
            </g>
        </g>
    </g>
</svg>