<?xml version="1.0" encoding="UTF-8"?>
<svg width="14px" height="16px" viewBox="0 0 14 16" version="1.1" xmlns="http://www.w3.org/2000/svg" xmlns:xlink="http://www.w3.org/1999/xlink">
    <!-- Generator: Sketch 49 (51002) - http://www.bohemiancoding.com/sketch -->
    <title>linux - FontAwesome</title>
    <desc>Created with Sketch.</desc>
    <defs></defs>
    <g id="Home" stroke="none" stroke-width="1" fill="none" fill-rule="evenodd">
        <g id="19/01/18-Bitcoin.org-ver3-Desktop-1200px--" transform="translate(-558.000000, -2652.000000)" fill="#5B6A77">
            <g id="//Content" transform="translate(0.000000, 585.000000)">
                <g id="Recommended" transform="translate(406.000000, 1762.000000)">
                    <g id="wallets" transform="translate(0.000000, 237.000000)">
                        <g id="row-">
                            <g id="Container">
                                <g id="Group-10" transform="translate(100.000000, 68.000000)">
                                    <path d="M58.0352455,3.67023682 C57.741129,3.65237834 57.7227467,3.85775084 57.8146581,3.8488216 C57.9157607,3.8488216 57.8514227,3.6880953 58.0352455,3.67023682 Z M58.8360238,3.68921145 C58.7912169,3.65461065 58.7016033,3.63898448 58.5683317,3.69702454 C58.651052,3.67470144 58.69471,3.70595378 58.7291767,3.73943842 L58.8360238,3.68921145 Z M58.8360238,3.68921145 C58.8808306,3.72381225 58.8808306,3.77738769 58.8348749,3.79524617 C58.7889192,3.80864003 58.7636435,3.77292307 58.7291767,3.73943842 L58.8360238,3.68921145 Z M55.608784,7.60803131 C55.5260637,7.58124359 55.544446,7.7419699 55.4617257,7.86697924 C55.3973877,7.98305935 55.2319471,8.07235175 55.3606231,8.09021022 C55.4065788,8.09913946 55.5352548,7.99198859 55.5904017,7.86697924 C55.6363574,7.71518218 55.6823131,7.63481902 55.608784,7.60803131 Z M63.4672105,10.8136282 C63.4672105,10.6529019 63.108756,10.5011048 62.9616977,10.4386001 C63.2098585,9.63496861 63.0995648,9.31351599 62.9341243,8.55453066 C62.8054483,7.98305935 62.2631709,7.20621554 61.8403784,6.96512608 C61.9506721,7.05441848 62.1528772,7.31336641 62.3642735,7.70625294 C62.7319192,8.37594588 63.0995648,9.36709143 62.8605951,10.1885814 C62.7686837,10.510034 62.5480963,10.5546802 62.401038,10.5636095 C61.7576581,10.6350434 62.1344949,9.81355339 61.8679518,8.69739849 C61.5646441,7.447305 61.2521453,7.35801261 61.1786161,7.25979098 C60.8017793,5.63466944 60.3881779,5.79539575 60.2686931,5.18820748 C60.1675905,4.64352389 60.7558236,4.19706193 59.9561942,4.04526487 C59.7080334,4.00061867 59.35877,3.75952921 59.2209028,3.74167073 C59.0830357,3.72381225 59.0095066,2.83981757 59.5242105,2.81302986 C60.0297234,2.7773129 60.1216348,3.36664269 60.0297234,3.59880291 C59.8826651,3.83096312 60.0389145,3.92025552 60.2870753,3.83989236 C60.4892805,3.77738769 60.3606045,3.25949182 60.4065602,3.1880579 C60.2778842,2.43800181 59.9561942,2.33085094 59.6253131,2.26834626 C58.3569355,2.3665679 58.9267863,3.72381225 58.7981103,3.59880291 C58.6142875,3.41128888 58.0812012,3.58094443 58.0812012,3.46486432 C58.0903924,2.76838366 57.8514227,2.3665679 57.5205415,2.35763866 C57.1528959,2.34870942 57.0058376,2.84874681 56.9874553,3.13448247 C56.9598819,3.40235964 57.1437047,3.96490171 57.2815718,3.92025552 C57.3734833,3.8934678 57.5297327,3.71488301 57.3642921,3.72381225 C57.2815718,3.72381225 57.1528959,3.52736899 57.1345136,3.29520877 C57.1253224,3.06304855 57.2172338,2.83088833 57.5297327,2.83981757 C57.8881872,2.84874681 57.8881872,3.54522747 57.8514227,3.57201519 C57.7319378,3.65237834 57.5848795,3.80417541 57.5664972,3.83096312 C57.4470124,4.01847715 57.2172338,4.07205258 57.1253224,4.15241574 C56.969073,4.31314204 56.9323084,4.49172683 57.0517933,4.5542315 C57.4745858,4.78639172 57.3367187,5.0542689 57.9249518,5.07212737 C58.3109798,5.08998585 58.5959052,5.01855194 58.8624483,4.93818879 C59.0646534,4.87568411 59.7172245,4.74174552 59.8550917,4.5095853 C59.9194296,4.41136367 59.9929588,4.41136367 60.0389145,4.43815139 C60.1308259,4.48279759 60.1492082,4.65245313 59.9194296,4.70602857 C59.5977397,4.79532096 59.2760497,4.9649765 58.9819331,5.07212737 C58.6970077,5.18820748 58.6050963,5.23285368 58.3385532,5.27749988 C57.7319378,5.38465075 57.2815718,5.06319813 57.6859821,5.44715542 C57.8238492,5.57216477 57.9525252,5.65252792 58.3017886,5.64359868 C59.0738446,5.61681096 59.9286208,4.71495781 60.0113411,5.11677357 C60.0297234,5.20606596 59.7723714,5.31321683 59.5701662,5.41143846 C58.8532572,5.75074955 58.3477443,6.42937173 57.8881872,6.19721151 C57.4745858,5.98290977 57.0609844,4.99176422 57.0701756,5.43822618 C57.0793667,6.1257776 56.1418702,6.73296587 56.5738539,7.51873892 C56.2889285,7.59017283 55.6547397,8.90277099 55.5628283,9.58139317 C55.5076814,9.9742797 55.5995928,10.4564586 55.4984903,10.7243358 C55.3606231,11.1172223 54.7356255,10.3493077 54.9378306,9.41173763 C54.9745952,9.25101132 54.9378306,9.21529436 54.8918749,9.29565752 C54.643714,9.73319024 54.7815812,10.3493077 54.9837863,10.7779112 C55.0665066,10.9654252 55.2779028,11.0457884 55.4341523,11.2065147 C55.7558422,11.5636843 57.0242199,12.4744667 57.2448073,12.6976977 C57.5297327,12.9566456 57.4470124,13.5638339 56.8587793,13.6263385 C57.162087,14.1799514 57.4562035,14.2335268 57.4470124,15.13538 C57.7962758,14.9567952 57.6584087,14.5639086 57.5113504,14.3138899 C57.4102478,14.1353052 57.2815718,14.054942 57.3091453,14.0102958 C57.3275276,13.9835081 57.5113504,13.831711 57.612453,13.9477911 C57.9249518,14.2871022 58.5131849,14.3496069 59.1381826,14.2692438 C59.7723714,14.1978098 60.4525159,13.9835081 60.7650147,13.4923999 C60.912073,13.2602397 61.0131756,13.1798766 61.0775136,13.2245228 C61.1510427,13.2602397 61.1786161,13.420966 61.169425,13.6888432 C61.1602338,13.9745789 61.040749,14.2692438 60.9580287,14.5103332 C60.8753084,14.7871396 60.847735,14.9746536 61.1234693,14.9835829 C61.1969984,14.4835455 61.3440567,13.9924373 61.3808213,13.4923999 C61.426777,12.9209286 61.0039844,11.8672784 61.4635415,11.3404533 C61.5830264,11.1975855 61.7300847,11.179727 61.9322898,11.179727 C61.9598632,10.4653879 63.0903737,10.5189633 63.4672105,10.8136282 Z M57.6951732,3.42914736 C57.7319378,3.20591638 57.6216441,3.04519007 57.5664972,3.0273316 C57.4562035,3.00054388 57.4745858,3.16127018 57.5297327,3.14341171 C57.5664972,3.14341171 57.612453,3.19698714 57.5940707,3.27735029 C57.5756884,3.38450116 57.5848795,3.45593508 57.6675998,3.45593508 C57.676791,3.45593508 57.6951732,3.45593508 57.6951732,3.42914736 Z M61.5462618,5.18820748 C61.5094972,5.01855194 61.3808213,5.08105661 61.233763,4.99176422 C61.0591313,4.88461335 61.0223667,4.70602857 60.9580287,4.76853324 C60.7650147,4.97390574 61.1969984,5.40250922 61.3808213,5.43822618 C61.491115,5.45608466 61.5738352,5.31321683 61.5462618,5.18820748 Z M59.9102385,3.28627953 C59.9194296,3.07197779 59.7264157,2.96482692 59.68046,2.97375616 C59.5609751,2.9826854 59.5977397,3.03626084 59.6528865,3.05411931 C59.7264157,3.07197779 59.7999448,3.19698714 59.8183271,3.33092573 C59.8183271,3.34878421 59.9102385,3.31306725 59.9102385,3.28627953 Z M60.4065602,1.2057668 C60.4157513,1.1611206 60.2962665,1.10754517 60.2135462,1.04504049 C60.1400171,0.97360658 60.0664879,0.911101905 59.9929588,0.911101905 C59.8091359,0.928960384 59.9010474,1.11647441 59.8734739,1.2057668 C59.8367094,1.30398843 59.6988422,1.38435158 59.7907537,1.4557855 C59.8734739,1.51829017 59.9286208,1.35756387 60.1032525,1.29505919 C60.1492082,1.27720071 60.3606045,1.30398843 60.4065602,1.2057668 Z M65.5995555,13.1798766 C66.730066,13.8584987 65.176763,14.4210408 64.5058096,14.7514227 C63.9819145,15.0103706 63.2833877,15.5818419 63.0260357,15.8229314 C62.8330217,16.0015162 62.0333923,16.0908085 61.5830264,15.8675776 C61.0591313,15.6086296 61.3348655,15.1978846 60.526045,15.1710969 C60.1216348,15.1621677 59.7264157,15.1621677 59.3311965,15.1621677 C58.9819331,15.1710969 58.6326697,15.1889554 58.2742152,15.1978846 C57.0609844,15.2246723 56.9414996,15.9836577 56.1602525,15.95687 C55.6271662,15.9390115 54.9562129,15.5282665 53.798129,15.2961063 C52.9893084,15.13538 52.2080614,15.0907338 52.0426208,14.7424934 C51.8771802,14.3942531 52.2448259,14.0013666 52.2723994,13.6620555 C52.2999728,13.2066643 51.923136,12.5905468 52.1988702,12.3583866 C52.4378399,12.1530141 52.9433527,12.3048111 53.2742339,12.1262263 C53.6234973,11.9297831 53.7705555,11.777986 53.7705555,11.3583118 C53.8992315,11.7869153 53.7613644,12.1351556 53.476439,12.3048111 C53.3018073,12.411962 52.9801173,12.4655374 52.7135742,12.4387497 C52.5021779,12.4208912 52.3735019,12.447679 52.3183551,12.5280421 C52.2356348,12.6262637 52.2632082,12.8048485 52.3643108,13.0370087 C52.4654133,13.269169 52.5848982,13.420966 52.5665159,13.7067017 C52.5573248,13.9924373 52.2264436,14.3317484 52.2815905,14.5728379 C52.2999728,14.6621303 52.3918842,14.7424934 52.6216628,14.8049981 C52.9893084,14.9032197 53.6602618,15.0014414 54.3128329,15.1532384 C55.0389332,15.3318232 55.7926068,15.6532758 56.2613551,15.5907712 C57.6584087,15.4032571 56.8587793,13.9477911 56.6381919,13.5995508 C55.4525345,11.7958445 54.6712875,10.6171849 54.0462898,11.0815054 C53.8900404,11.2065147 53.8808492,10.7779112 53.8900404,10.6082557 C53.9176138,10.0189259 54.2209215,9.80462415 54.4047443,9.34923295 C54.7540077,8.48309675 55.0205509,7.4919512 55.5536371,6.98298456 C55.9488562,6.48294717 56.5738539,5.6703864 56.6933387,5.24178292 C56.5922362,4.31314204 56.5646628,3.33092573 56.5462805,2.47371877 C56.5278982,1.55400713 56.6749565,0.7503756 57.741129,0.18783353 C57.9984809,0.0538949418 58.3385532,0.000319506587 58.6970077,0.000319506587 C59.3311965,-0.00860973262 60.0389145,0.169975051 60.4892805,0.491427663 C61.2061896,1.00932354 61.6565555,2.10761996 61.6014087,2.89339301 C61.5646441,3.50951051 61.6749378,4.1434865 61.8771429,4.8042502 C62.1161126,5.58109401 62.4929495,6.1257776 63.0995648,6.75082434 C63.8256651,7.50088044 64.3955159,8.97420491 64.5609564,9.91177502 C64.7080147,10.7868405 64.5058096,11.3315241 64.3127956,11.3583118 C64.0186791,11.402958 63.8348562,12.3048111 62.915742,12.2690942 C62.3275089,12.2423065 62.272362,11.9029954 62.1069215,11.6083305 C61.8403784,11.1529393 61.5738352,11.2958071 61.4727327,11.777986 C61.4175858,12.0190755 61.4543504,12.376245 61.5370707,12.6441222 C61.7025112,13.2066643 61.6473644,13.7334894 61.5462618,14.3853239 C61.3532478,15.6175589 62.4378026,15.8497191 63.1639028,15.2603893 C63.8808119,14.6799888 64.0370613,14.5906964 64.9377933,14.2871022 C66.3072735,13.831711 65.8477164,13.4298953 65.112425,13.1888058 C64.4506627,12.9745041 64.4230893,11.8940661 64.662059,11.6886936 C64.7172059,12.8494947 65.3422035,13.0191503 65.5995555,13.1798766 Z" id="linux---FontAwesome"></path>
                                </g>
                            </g>
                        </g>
                    </g>
                </g>
            </g>
        </g>
    </g>
</svg>