<?xml version="1.0" encoding="UTF-8"?>
<svg width="60px" height="60px" viewBox="0 0 60 60" version="1.1" xmlns="http://www.w3.org/2000/svg" xmlns:xlink="http://www.w3.org/1999/xlink">
    <!-- Generator: Sketch 49 (51002) - http://www.bohemiancoding.com/sketch -->
    <title>Watch-only support.icon</title>
    <desc>Created with Sketch.</desc>
    <defs></defs>
    <g id="Watch-only-support.icon" stroke="none" stroke-width="1" fill="none" fill-rule="evenodd">
        <rect id="Rectangle" x="0" y="0" width="60" height="60"></rect>
        <path d="M32.0086107,46.494343 C31.734721,46.5295434 31.484154,46.3360476 31.4489535,46.062158 C31.4137531,45.7882683 31.6072489,45.5377013 31.8811386,45.5025008 C39.0692219,44.5786842 44.5138507,38.4346799 44.5138507,31.1215658 C44.5138507,24.9733694 40.6519274,19.5558394 34.96768,17.4896917 C33.3940827,16.9177101 31.7246336,16.6215658 30.0138507,16.6215658 C28.343802,16.6215658 26.7130265,16.903767 25.1721005,17.4494767 C19.4301004,19.4829715 15.5138507,24.9302123 15.5138507,31.1215658 C15.5138507,34.0646078 16.3919163,36.8753045 18.0096379,39.2574056 C18.9624462,40.6604193 20.1553502,41.8884748 21.530012,42.88194 C21.7538243,43.0436887 21.8041368,43.3562477 21.6423881,43.5800601 C21.4806394,43.8038724 21.1680804,43.8541849 20.9442681,43.6924362 C19.4752604,42.6307874 18.200613,41.3185798 17.1823713,39.8192151 C15.4529635,37.2726557 14.5138507,34.2665464 14.5138507,31.1215658 C14.5138507,24.5033352 18.7000069,18.6806726 24.8382724,16.5068428 C26.4860326,15.9232984 28.2296753,15.6215658 30.0138507,15.6215658 C31.841566,15.6215658 33.6265957,15.9382131 35.3092987,16.549853 C41.3857489,18.7585612 45.5138507,24.5494882 45.5138507,31.1215658 C45.5138507,38.939246 39.694058,45.5066049 32.0086107,46.494343 Z" id="Oval" fill="#FF9500" fill-rule="nonzero" transform="translate(30.013851, 31.060021) rotate(165.000000) translate(-30.013851, -31.060021) "></path>
        <path d="M31.7136339,44.2123987 C31.4397443,44.2475991 31.1891772,44.0541033 31.1539768,43.7802137 C31.1187763,43.506324 31.3122721,43.255757 31.5861618,43.2205565 C37.6382297,42.4427413 42.2225008,37.2696096 42.2225008,31.1121603 C42.2225008,25.9355172 38.9708423,21.3740703 34.1848573,19.634429 C32.8599708,19.1528505 31.4543691,18.9035102 30.0138507,18.9035102 C28.6076298,18.9035102 27.2345868,19.1411115 25.9372073,19.6005706 C21.1026021,21.312717 17.8052005,25.8991814 17.8052005,31.1121603 C17.8052005,33.5902093 18.5444731,35.9566281 19.9065466,37.9622863 C20.7088093,39.1436212 21.7132459,40.1776557 22.8707129,41.0141547 C23.0945253,41.1759034 23.1448378,41.4884624 22.9830891,41.7122747 C22.8213404,41.9360871 22.5087814,41.9863996 22.284969,41.8246509 C21.0331561,40.9199683 19.9469761,39.8017817 19.07928,38.5240959 C17.6055203,36.3539792 16.8052005,33.7921479 16.8052005,31.1121603 C16.8052005,25.4723043 20.3725085,20.510418 25.6033792,18.6579367 C27.0075928,18.1606429 28.4935032,17.9035102 30.0138507,17.9035102 C31.5713014,17.9035102 33.0924838,18.1733534 34.5264761,18.6945903 C39.7046638,20.5767922 43.2225008,25.5116359 43.2225008,31.1121603 C43.2225008,37.7741757 38.2630658,43.3706619 31.7136339,44.2123987 Z" id="Oval" fill="#C9D4DE" fill-rule="nonzero" transform="translate(30.013851, 31.060021) rotate(165.000000) translate(-30.013851, -31.060021) "></path>
        <path d="M29,15 C29,14.4477153 29.4477153,14 30,14 C30.5522847,14 31,14.4477153 31,15 L31,26.1240652 C31,26.6763499 30.5522847,27.1240652 30,27.1240652 C29.4477153,27.1240652 29,26.6763499 29,26.1240652 L29,15 Z" id="Path-44" fill="#1C3C55" fill-rule="nonzero"></path>
    </g>
</svg>