<?xml version="1.0" encoding="UTF-8"?>
<svg xmlns="http://www.w3.org/2000/svg" width="32" height="32">
  <g transform="translate(0 -1020.362)" stroke="#000" stroke-linejoin="round">
    <rect width="24.005" height="1.499" x="4.043" y="1028.535" stroke-width=".525"/>
    <path d="M3.977 1028.433l12.083-4.353 12.051 4.353z" stroke-width=".38" stroke-linecap="round"/>
    <rect width="4.017" height="1.107" x="22.433" y="1032.397" stroke-width=".41"/>
    <rect width="2.383" height="11.163" x="23.25" y="1033.316" stroke-width=".455"/>
    <rect width="23.125" height="2.258" x="4.561" y="1047.041" stroke-width=".632"/>
    <rect width="4.017" height="1.107" x="16.807" y="1032.397" stroke-width=".41"/>
    <rect width="2.326" height="11.168" x="17.652" y="1033.313" stroke-width=".449"/>
    <rect width="3.957" height="1.11" x="11.142" y="1032.395" stroke-width=".408"/>
    <rect width="2.326" height="11.168" x="11.957" y="1033.313" stroke-width=".449"/>
    <rect width="3.957" height="1.11" x="5.442" y="1032.389" stroke-width=".408"/>
    <rect width="2.44" height="11.158" x="6.2" y="1033.312" stroke-width=".46"/>
    <rect width="3.653" height="1.123" x="22.645" y="1043.398" stroke-width=".394"/>
    <rect width="3.612" height="1.125" x="17.019" y="1043.39" stroke-width=".392"/>
    <rect width="3.452" height="1.133" x="11.399" y="1043.389" stroke-width=".385"/>
    <rect width="3.573" height="1.127" x="5.633" y="1043.379" stroke-width=".39"/>
  </g>
</svg>
