<?xml version="1.0" encoding="UTF-8"?>
<svg xmlns="http://www.w3.org/2000/svg" width="32" height="32">
  <g>
    <path d="M13.078 10.053a.211.209 0 1 1-.422 0 .211.209 0 1 1 .422 0z" transform="matrix(35.039 0 0 35.039 -430.731 -341.367)" opacity=".99" stroke="#000" stroke-width=".1" stroke-linecap="round" stroke-linejoin="round"/>
    <path d="M13.58 12.336l-11.336 13.751v3.697l2.239.012 2.802-2.011.973-2.123 3.277-.102.633-3.102 2.858-.784 6.71-6.442z"/>
    <path d="M23.234 8.577a1.2 1.2 0 1 1-2.399 0 1.2 1.2 0 1 1 2.399 0z" transform="matrix(.92 0 0 .92 2.111 .829)" opacity=".99" fill="#fff" stroke="#fff" stroke-width="3" stroke-linecap="round" stroke-linejoin="round"/>
  </g>
</svg>
