<?xml version="1.0" encoding="UTF-8"?>
<svg width="46px" height="46px" viewBox="0 0 46 46" version="1.1" xmlns="http://www.w3.org/2000/svg" xmlns:xlink="http://www.w3.org/1999/xlink">
    <!-- Generator: Sketch 49 (51002) - http://www.bohemiancoding.com/sketch -->
    <title>icon</title>
    <desc>Created with Sketch.</desc>
    <defs></defs>
    <g id="Template-4--For-Individuals" stroke="none" stroke-width="1" fill="none" fill-rule="evenodd">
        <g id="22.01.18-Bitcoin.org_Bitcoin-for-individuals_Desktop-1200px--" transform="translate(-377.000000, -1135.000000)">
            <g id="//contenct" transform="translate(215.000000, 555.000000)">
                <g id="box1" transform="translate(0.000000, 530.000000)">
                    <g id="icon" transform="translate(155.000000, 41.000000)">
                        <g id="icon/world">
                            <g id="Group-2">
                                <g transform="translate(8.000000, 10.000000)">
                                    <path d="M22,0 C28.0641329,0 33.2467734,2.15061952 37.5480769,6.45192308 C41.8493805,10.7532266 44,15.9358671 44,22 C44,28.0641329 41.8493805,33.2467734 37.5480769,37.5480769 C33.2467734,41.8493805 28.0641329,44 22,44 C15.9358671,44 10.7532266,41.8493805 6.45192308,37.5480769 C2.15061952,33.2467734 0,28.0641329 0,22 C0,15.9358671 2.15061952,10.7532266 6.45192308,6.45192308 C10.7532266,2.15061952 15.9358671,0 22,0 Z M16.2461538,44 L17.391716,41.1918089 C17.5305727,40.8514204 17.6,40.489763 17.6,40.1068259 C17.6,39.7238889 17.4264317,39.3622315 17.0792899,39.021843 C15.9684363,37.8304832 15.1700222,36.9369768 14.6840237,36.3412969 C14.545167,36.1711027 14.336885,35.6818015 14.0591716,34.8733788 C13.7814582,34.0649561 13.6773172,33.575655 13.7467456,33.4054608 C14.0938873,32.6395866 14.3715966,31.6184364 14.5798817,30.3419795 C14.7881667,29.320814 14.3368892,28.3847597 13.2260355,27.5337884 C12.740037,27.1933999 12.2540458,26.7679206 11.7680473,26.2573379 C11.2820489,25.7467551 10.7439872,25.1936321 10.1538462,24.5979522 C9.56370514,24.0022723 9.09507077,23.5342452 8.74792899,23.1938567 C7.4982186,22.087594 6.80394547,21.2791834 6.66508876,20.7686007 C6.04023356,18.5560754 5.69309699,17.3647335 5.62366864,17.1945392 C4.99881344,16.0882766 4.61696322,14.9182087 4.47810651,13.6843003 C4.3392498,12.450392 4.37396346,11.1526803 4.58224852,9.79112628 C4.58224852,9.1954464 4.72110523,9.67955192 4.58224852,8.14780365 C1.66625761,12.2324657 0,15.6202214 0,21.4068259 C0,27.7040133 1.80511015,33.0650518 5.41538462,37.4901024 C8.40080388,41.1492788 12.0110242,43.319223 16.2461538,44 Z M36.3578947,37.8575499 C39.0596626,34.932559 40.8736796,31.5061925 41.8,27.5783476 L39.6,27.3276353 C37.9789393,25.3219273 37.0912288,23.4416042 36.9368421,21.6866097 C36.8596487,20.9344692 36.8210526,19.7644904 36.8210526,18.1766382 C36.8210526,16.588786 36.7438604,15.3770222 36.5894737,14.5413105 C36.4350869,13.78917 35.9140395,12.7445461 35.0263158,11.4074074 C34.1385921,10.0702687 33.6175446,9.19278462 33.4631579,8.77492877 C33.2315778,8.1899306 32.8649148,7.3124465 32.3631579,6.14245014 C31.861401,4.97245379 31.4561419,4.09496969 31.1473684,3.50997151 C31.2245618,3.50997151 31.3596482,3.55175647 31.5526316,3.63532764 C31.745615,3.7188988 31.8807014,3.80246872 31.9578947,3.88603989 C32.7298284,3.71889755 33.2701739,3.63532764 33.5789474,3.63532764 C31.1087596,1.71319077 28.1754556,0.501427009 24.7789474,0 L24.7789474,1.002849 L25.2421053,2.13105413 L23.6210526,3.76068376 L22.5789474,3.38461538 L21.4210526,2.13105413 L20.2631579,0.626780627 L18.6421053,0 C17.0210445,0.250713504 15.2842198,0.793917949 13.4315789,1.62962963 L13.4315789,2.50712251 C13.6631591,2.33998017 14.0877162,2.17284034 14.7052632,2.00569801 C15.3228101,1.83855567 15.7859634,1.67141584 16.0947368,1.5042735 C16.2491236,1.42070234 16.8666613,1.79676695 17.9473684,2.63247863 C17.8701751,2.7160498 17.4456179,3.11300689 16.6736842,3.82336182 C15.9017505,4.53371675 15.4771934,5.01424376 15.4,5.26495726 C15.4,5.34852843 15.5350864,5.53656074 15.8052632,5.82905983 C16.0754399,6.12155892 16.2105263,6.35137618 16.2105263,6.51851852 C16.2105263,6.76923202 16.1912283,7.12440416 16.1526316,7.58404558 C16.1140349,8.04368701 16.0947368,8.39885915 16.0947368,8.64957265 C17.7157976,6.89457812 18.5649119,6.01709402 18.6421053,6.01709402 C19.3368456,5.84995168 20.1859599,6.20512382 21.1894737,7.08262108 C22.1929875,7.96011835 22.7719291,8.6913551 22.9263158,9.27635328 C23.0035092,9.52706678 22.8491247,9.88223892 22.4631579,10.3418803 C22.0771911,10.8015218 21.4596534,11.4074036 20.6105263,12.1595442 C19.7613993,12.9116847 19.2596499,13.3713192 19.1052632,13.5384615 C18.9508764,13.7056039 18.6035115,13.9772061 18.0631579,14.3532764 C17.5228043,14.7293466 17.1368433,15.0845187 16.9052632,15.4188034 C16.6736831,15.7530881 16.6350869,16.1291527 16.7894737,16.5470085 C17.5614074,18.2184319 17.7543879,19.2212709 17.3684211,19.5555556 C17.2140343,19.7226979 17.0210538,19.7435904 16.7894737,19.6182336 C16.5578936,19.4928769 16.3842111,19.3466295 16.2684211,19.1794872 C16.152631,19.0123448 15.9982466,18.8034201 15.8052632,18.5527066 C15.6122797,18.301993 15.4771934,18.1348532 15.4,18.0512821 C14.9368398,17.4662839 13.4701878,17.1737892 11,17.1737892 C11,19.8480666 11.5789416,21.6448197 12.7368421,22.5641026 C15.9017702,25.0712376 17.7157872,26.4501412 18.1789474,26.7008547 C18.6421076,26.9515682 19.5684141,26.9515682 20.9578947,26.7008547 C22.3473754,26.4501412 23.2350858,26.4919262 23.6210526,26.8262108 C26.1684338,28.7483477 27.9824507,29.9601115 29.0631579,30.4615385 C29.7578982,30.712252 30.5298203,31.2763489 31.3789474,32.1538462 C32.2280744,33.0313434 32.4596511,33.7625802 32.0736842,34.3475783 C31.0701704,36.0190017 30.5298249,36.9800557 30.4526316,37.2307692 C29.8350846,38.6514791 29.0631625,39.696103 28.1368421,40.3646724 C27.1333283,41.200384 26.3228101,42.4121478 25.7052632,44 C29.8737051,43.0807172 33.4245467,41.0332542 36.3578947,37.8575499 Z" id="ion-android-globe---Ionicons" fill="#95AABF" opacity="0.5"></path>
                                    <circle id="Oval-2" stroke="#95AABF" cx="22" cy="22" r="22"></circle>
                                </g>
                            </g>
                        </g>
                    </g>
                </g>
            </g>
        </g>
    </g>
</svg>