<?xml version="1.0" encoding="UTF-8"?>
<svg width="35px" height="34px" viewBox="0 0 35 34" version="1.1" xmlns="http://www.w3.org/2000/svg" xmlns:xlink="http://www.w3.org/1999/xlink">
    <!-- Generator: Sketch 49 (51002) - http://www.bohemiancoding.com/sketch -->
    <title>Group</title>
    <desc>Created with Sketch.</desc>
    <defs></defs>
    <g id="new-TEMPLATE" stroke="none" stroke-width="1" fill="none" fill-rule="evenodd">
        <g id="Bitcoin.org---Bitcoin-core-Template" transform="translate(-872.000000, -10007.000000)">
            <g id="Group-33" transform="translate(859.000000, 9994.000000)">
                <g id="Group" transform="translate(13.000000, 13.000000)">
                    <path d="M6.14783654,7.91466346 L6.14783654,13.7830529 L0,12.9356971 L0,7.91466346 L6.14783654,7.91466346 Z M6.14783654,1.21694712 L6.14783654,7.15745192 L0,7.15745192 L0,2.06430288 L6.14783654,1.21694712 Z M15,7.91466346 L15,15 L6.82391827,13.8731971 L6.82391827,7.91466346 L15,7.91466346 Z M15,0 L15,7.15745192 L6.82391827,7.15745192 L6.82391827,1.12680288 L15,0 Z" id="windows---FontAwesome" fill="#F7931A"></path>
                    <path d="M23,29.952524 C22.7846375,30.6646635 22.4400574,31.421875 21.9404164,32.2061298 C21.1995693,33.3870192 20.4587222,33.9729567 19.7264896,33.9729567 C19.4335966,33.9729567 19.0373295,33.8737981 18.5204594,33.6844952 C18.0122039,33.4861779 17.5728643,33.3960337 17.2196698,33.3960337 C16.8750897,33.3960337 16.4615937,33.4951923 15.9964106,33.6935096 C15.5226131,33.9008413 15.143575,34 14.8592965,34 C13.9720029,34 13.1191673,33.2157452 12.2663317,31.6652644 C11.4307251,30.1147837 11,28.609375 11,27.1310096 C11,25.7518029 11.327351,24.6340144 11.9734386,23.7596154 C12.6195262,22.8942308 13.4292893,22.4615385 14.4199569,22.4615385 C14.8420675,22.4615385 15.3417085,22.5516827 15.9447236,22.7319712 C16.5391242,22.9122596 16.9353912,23.0024038 17.1335248,23.0024038 C17.3833453,23.0024038 17.7968413,22.9032452 18.3653984,22.6959135 C18.9339555,22.4975962 19.4335966,22.3894231 19.8557071,22.3894231 C20.5448672,22.3894231 21.1564968,22.5877404 21.6905958,22.9753606 C21.9921034,23.1917067 22.2936109,23.4981971 22.5865039,23.8768029 C22.1385499,24.2734375 21.8111989,24.625 21.6044508,24.9405048 C21.2340273,25.499399 21.0445083,26.1213942 21.0445083,26.8064904 C21.0445083,27.5456731 21.2426418,28.2217548 21.6389088,28.8167067 C22.0351759,29.4116587 22.4917444,29.7902644 23,29.952524 Z M19.7609476,19.3786058 C19.7609476,19.7481971 19.6748026,20.1628606 19.5111271,20.6045673 C19.338837,21.0552885 19.0717875,21.4699519 18.7099785,21.8485577 C18.3998564,22.1730769 18.0897344,22.3894231 17.7796123,22.4975962 C17.5814788,22.5606971 17.2885858,22.6147837 16.8837042,22.6508413 C16.9009332,21.7584135 17.1249103,20.9831731 17.5556353,20.3341346 C17.9863604,19.6850962 18.7099785,19.2433894 19.7092606,19 C19.7264896,19.0811298 19.7437186,19.1442308 19.7523331,19.1983173 C19.7523331,19.2614183 19.7609476,19.3155048 19.7609476,19.3786058 Z" id="apple---FontAwesome" fill="#1C3C55"></path>
                    <path d="M27.0352455,3.67023682 C26.741129,3.65237834 26.7227467,3.85775084 26.8146581,3.8488216 C26.9157607,3.8488216 26.8514227,3.6880953 27.0352455,3.67023682 Z M27.8360238,3.68921145 C27.7912169,3.65461065 27.7016033,3.63898448 27.5683317,3.69702454 C27.651052,3.67470144 27.69471,3.70595378 27.7291767,3.73943842 L27.8360238,3.68921145 Z M27.8360238,3.68921145 C27.8808306,3.72381225 27.8808306,3.77738769 27.8348749,3.79524617 C27.7889192,3.80864003 27.7636435,3.77292307 27.7291767,3.73943842 L27.8360238,3.68921145 Z M24.608784,7.60803131 C24.5260637,7.58124359 24.544446,7.7419699 24.4617257,7.86697924 C24.3973877,7.98305935 24.2319471,8.07235175 24.3606231,8.09021022 C24.4065788,8.09913946 24.5352548,7.99198859 24.5904017,7.86697924 C24.6363574,7.71518218 24.6823131,7.63481902 24.608784,7.60803131 Z M32.4672105,10.8136282 C32.4672105,10.6529019 32.108756,10.5011048 31.9616977,10.4386001 C32.2098585,9.63496861 32.0995648,9.31351599 31.9341243,8.55453066 C31.8054483,7.98305935 31.2631709,7.20621554 30.8403784,6.96512608 C30.9506721,7.05441848 31.1528772,7.31336641 31.3642735,7.70625294 C31.7319192,8.37594588 32.0995648,9.36709143 31.8605951,10.1885814 C31.7686837,10.510034 31.5480963,10.5546802 31.401038,10.5636095 C30.7576581,10.6350434 31.1344949,9.81355339 30.8679518,8.69739849 C30.5646441,7.447305 30.2521453,7.35801261 30.1786161,7.25979098 C29.8017793,5.63466944 29.3881779,5.79539575 29.2686931,5.18820748 C29.1675905,4.64352389 29.7558236,4.19706193 28.9561942,4.04526487 C28.7080334,4.00061867 28.35877,3.75952921 28.2209028,3.74167073 C28.0830357,3.72381225 28.0095066,2.83981757 28.5242105,2.81302986 C29.0297234,2.7773129 29.1216348,3.36664269 29.0297234,3.59880291 C28.8826651,3.83096312 29.0389145,3.92025552 29.2870753,3.83989236 C29.4892805,3.77738769 29.3606045,3.25949182 29.4065602,3.1880579 C29.2778842,2.43800181 28.9561942,2.33085094 28.6253131,2.26834626 C27.3569355,2.3665679 27.9267863,3.72381225 27.7981103,3.59880291 C27.6142875,3.41128888 27.0812012,3.58094443 27.0812012,3.46486432 C27.0903924,2.76838366 26.8514227,2.3665679 26.5205415,2.35763866 C26.1528959,2.34870942 26.0058376,2.84874681 25.9874553,3.13448247 C25.9598819,3.40235964 26.1437047,3.96490171 26.2815718,3.92025552 C26.3734833,3.8934678 26.5297327,3.71488301 26.3642921,3.72381225 C26.2815718,3.72381225 26.1528959,3.52736899 26.1345136,3.29520877 C26.1253224,3.06304855 26.2172338,2.83088833 26.5297327,2.83981757 C26.8881872,2.84874681 26.8881872,3.54522747 26.8514227,3.57201519 C26.7319378,3.65237834 26.5848795,3.80417541 26.5664972,3.83096312 C26.4470124,4.01847715 26.2172338,4.07205258 26.1253224,4.15241574 C25.969073,4.31314204 25.9323084,4.49172683 26.0517933,4.5542315 C26.4745858,4.78639172 26.3367187,5.0542689 26.9249518,5.07212737 C27.3109798,5.08998585 27.5959052,5.01855194 27.8624483,4.93818879 C28.0646534,4.87568411 28.7172245,4.74174552 28.8550917,4.5095853 C28.9194296,4.41136367 28.9929588,4.41136367 29.0389145,4.43815139 C29.1308259,4.48279759 29.1492082,4.65245313 28.9194296,4.70602857 C28.5977397,4.79532096 28.2760497,4.9649765 27.9819331,5.07212737 C27.6970077,5.18820748 27.6050963,5.23285368 27.3385532,5.27749988 C26.7319378,5.38465075 26.2815718,5.06319813 26.6859821,5.44715542 C26.8238492,5.57216477 26.9525252,5.65252792 27.3017886,5.64359868 C28.0738446,5.61681096 28.9286208,4.71495781 29.0113411,5.11677357 C29.0297234,5.20606596 28.7723714,5.31321683 28.5701662,5.41143846 C27.8532572,5.75074955 27.3477443,6.42937173 26.8881872,6.19721151 C26.4745858,5.98290977 26.0609844,4.99176422 26.0701756,5.43822618 C26.0793667,6.1257776 25.1418702,6.73296587 25.5738539,7.51873892 C25.2889285,7.59017283 24.6547397,8.90277099 24.5628283,9.58139317 C24.5076814,9.9742797 24.5995928,10.4564586 24.4984903,10.7243358 C24.3606231,11.1172223 23.7356255,10.3493077 23.9378306,9.41173763 C23.9745952,9.25101132 23.9378306,9.21529436 23.8918749,9.29565752 C23.643714,9.73319024 23.7815812,10.3493077 23.9837863,10.7779112 C24.0665066,10.9654252 24.2779028,11.0457884 24.4341523,11.2065147 C24.7558422,11.5636843 26.0242199,12.4744667 26.2448073,12.6976977 C26.5297327,12.9566456 26.4470124,13.5638339 25.8587793,13.6263385 C26.162087,14.1799514 26.4562035,14.2335268 26.4470124,15.13538 C26.7962758,14.9567952 26.6584087,14.5639086 26.5113504,14.3138899 C26.4102478,14.1353052 26.2815718,14.054942 26.3091453,14.0102958 C26.3275276,13.9835081 26.5113504,13.831711 26.612453,13.9477911 C26.9249518,14.2871022 27.5131849,14.3496069 28.1381826,14.2692438 C28.7723714,14.1978098 29.4525159,13.9835081 29.7650147,13.4923999 C29.912073,13.2602397 30.0131756,13.1798766 30.0775136,13.2245228 C30.1510427,13.2602397 30.1786161,13.420966 30.169425,13.6888432 C30.1602338,13.9745789 30.040749,14.2692438 29.9580287,14.5103332 C29.8753084,14.7871396 29.847735,14.9746536 30.1234693,14.9835829 C30.1969984,14.4835455 30.3440567,13.9924373 30.3808213,13.4923999 C30.426777,12.9209286 30.0039844,11.8672784 30.4635415,11.3404533 C30.5830264,11.1975855 30.7300847,11.179727 30.9322898,11.179727 C30.9598632,10.4653879 32.0903737,10.5189633 32.4672105,10.8136282 Z M26.6951732,3.42914736 C26.7319378,3.20591638 26.6216441,3.04519007 26.5664972,3.0273316 C26.4562035,3.00054388 26.4745858,3.16127018 26.5297327,3.14341171 C26.5664972,3.14341171 26.612453,3.19698714 26.5940707,3.27735029 C26.5756884,3.38450116 26.5848795,3.45593508 26.6675998,3.45593508 C26.676791,3.45593508 26.6951732,3.45593508 26.6951732,3.42914736 Z M30.5462618,5.18820748 C30.5094972,5.01855194 30.3808213,5.08105661 30.233763,4.99176422 C30.0591313,4.88461335 30.0223667,4.70602857 29.9580287,4.76853324 C29.7650147,4.97390574 30.1969984,5.40250922 30.3808213,5.43822618 C30.491115,5.45608466 30.5738352,5.31321683 30.5462618,5.18820748 Z M28.9102385,3.28627953 C28.9194296,3.07197779 28.7264157,2.96482692 28.68046,2.97375616 C28.5609751,2.9826854 28.5977397,3.03626084 28.6528865,3.05411931 C28.7264157,3.07197779 28.7999448,3.19698714 28.8183271,3.33092573 C28.8183271,3.34878421 28.9102385,3.31306725 28.9102385,3.28627953 Z M29.4065602,1.2057668 C29.4157513,1.1611206 29.2962665,1.10754517 29.2135462,1.04504049 C29.1400171,0.97360658 29.0664879,0.911101905 28.9929588,0.911101905 C28.8091359,0.928960384 28.9010474,1.11647441 28.8734739,1.2057668 C28.8367094,1.30398843 28.6988422,1.38435158 28.7907537,1.4557855 C28.8734739,1.51829017 28.9286208,1.35756387 29.1032525,1.29505919 C29.1492082,1.27720071 29.3606045,1.30398843 29.4065602,1.2057668 Z M34.5995555,13.1798766 C35.730066,13.8584987 34.176763,14.4210408 33.5058096,14.7514227 C32.9819145,15.0103706 32.2833877,15.5818419 32.0260357,15.8229314 C31.8330217,16.0015162 31.0333923,16.0908085 30.5830264,15.8675776 C30.0591313,15.6086296 30.3348655,15.1978846 29.526045,15.1710969 C29.1216348,15.1621677 28.7264157,15.1621677 28.3311965,15.1621677 C27.9819331,15.1710969 27.6326697,15.1889554 27.2742152,15.1978846 C26.0609844,15.2246723 25.9414996,15.9836577 25.1602525,15.95687 C24.6271662,15.9390115 23.9562129,15.5282665 22.798129,15.2961063 C21.9893084,15.13538 21.2080614,15.0907338 21.0426208,14.7424934 C20.8771802,14.3942531 21.2448259,14.0013666 21.2723994,13.6620555 C21.2999728,13.2066643 20.923136,12.5905468 21.1988702,12.3583866 C21.4378399,12.1530141 21.9433527,12.3048111 22.2742339,12.1262263 C22.6234973,11.9297831 22.7705555,11.777986 22.7705555,11.3583118 C22.8992315,11.7869153 22.7613644,12.1351556 22.476439,12.3048111 C22.3018073,12.411962 21.9801173,12.4655374 21.7135742,12.4387497 C21.5021779,12.4208912 21.3735019,12.447679 21.3183551,12.5280421 C21.2356348,12.6262637 21.2632082,12.8048485 21.3643108,13.0370087 C21.4654133,13.269169 21.5848982,13.420966 21.5665159,13.7067017 C21.5573248,13.9924373 21.2264436,14.3317484 21.2815905,14.5728379 C21.2999728,14.6621303 21.3918842,14.7424934 21.6216628,14.8049981 C21.9893084,14.9032197 22.6602618,15.0014414 23.3128329,15.1532384 C24.0389332,15.3318232 24.7926068,15.6532758 25.2613551,15.5907712 C26.6584087,15.4032571 25.8587793,13.9477911 25.6381919,13.5995508 C24.4525345,11.7958445 23.6712875,10.6171849 23.0462898,11.0815054 C22.8900404,11.2065147 22.8808492,10.7779112 22.8900404,10.6082557 C22.9176138,10.0189259 23.2209215,9.80462415 23.4047443,9.34923295 C23.7540077,8.48309675 24.0205509,7.4919512 24.5536371,6.98298456 C24.9488562,6.48294717 25.5738539,5.6703864 25.6933387,5.24178292 C25.5922362,4.31314204 25.5646628,3.33092573 25.5462805,2.47371877 C25.5278982,1.55400713 25.6749565,0.7503756 26.741129,0.18783353 C26.9984809,0.0538949418 27.3385532,0.000319506587 27.6970077,0.000319506587 C28.3311965,-0.00860973262 29.0389145,0.169975051 29.4892805,0.491427663 C30.2061896,1.00932354 30.6565555,2.10761996 30.6014087,2.89339301 C30.5646441,3.50951051 30.6749378,4.1434865 30.8771429,4.8042502 C31.1161126,5.58109401 31.4929495,6.1257776 32.0995648,6.75082434 C32.8256651,7.50088044 33.3955159,8.97420491 33.5609564,9.91177502 C33.7080147,10.7868405 33.5058096,11.3315241 33.3127956,11.3583118 C33.0186791,11.402958 32.8348562,12.3048111 31.915742,12.2690942 C31.3275089,12.2423065 31.272362,11.9029954 31.1069215,11.6083305 C30.8403784,11.1529393 30.5738352,11.2958071 30.4727327,11.777986 C30.4175858,12.0190755 30.4543504,12.376245 30.5370707,12.6441222 C30.7025112,13.2066643 30.6473644,13.7334894 30.5462618,14.3853239 C30.3532478,15.6175589 31.4378026,15.8497191 32.1639028,15.2603893 C32.8808119,14.6799888 33.0370613,14.5906964 33.9377933,14.2871022 C35.3072735,13.831711 34.8477164,13.4298953 34.112425,13.1888058 C33.4506627,12.9745041 33.4230893,11.8940661 33.662059,11.6886936 C33.7172059,12.8494947 34.3422035,13.0191503 34.5995555,13.1798766 Z" id="linux---FontAwesome" fill="#95AABF"></path>
                </g>
            </g>
        </g>
    </g>
</svg>