<?xml version="1.0" encoding="UTF-8"?>
<svg xmlns="http://www.w3.org/2000/svg" width="32" height="32">
  <path d="M29.922 14.202s-1.37-2.737-2.905-3.978c-1.535-1.241-3.561-2.17-5.494-1.958-2.2.242-3.941 1.569-5.052 3.663-1.111 2.094-.189 5.746-.189 5.746l4.483-.063-7.262 11.114-7.514-10.735 3.915-.126s-.196-5.223.884-7.704c.619-1.422 1.932-3.621 3.22-4.483 1.168-.781 2.593-1.47 3.978-1.705 1.287-.218 3.682.016 4.892.505 1.209.489 2.457.822 4.61 3.41 1.445 1.737 2.433 6.315 2.433 6.315z" stroke="#000" stroke-linejoin="round"/>
</svg>
