<?xml version="1.0" encoding="UTF-8"?>
<svg width="18px" height="18px" viewBox="0 0 18 18" version="1.1" xmlns="http://www.w3.org/2000/svg" xmlns:xlink="http://www.w3.org/1999/xlink">
    <!-- Generator: Sketch 49 (51002) - http://www.bohemiancoding.com/sketch -->
    <title>play_circle_outline - material</title>
    <desc>Created with Sketch.</desc>
    <defs></defs>
    <g id="Press" stroke="none" stroke-width="1" fill="none" fill-rule="evenodd">
        <g id="22.01.18_Bitcoin.org_press-centre_Desktop-1200px--" transform="translate(-885.000000, -1906.000000)" fill="#3490E6">
            <g id="//content" transform="translate(217.000000, 548.000000)">
                <g id="right-side" transform="translate(367.000000, 0.000000)">
                    <g id="videos" transform="translate(2.000000, 1119.000000)">
                        <g id="video-2-what-is-bitcoin--weusecoins" transform="translate(299.000000, 56.000000)">
                            <path d="M9,198.68 C10.200006,198.68 11.3199948,198.373336 12.36,197.76 C13.3733384,197.17333 14.1733304,196.373338 14.76,195.36 C15.3733364,194.319995 15.68,193.200006 15.68,192 C15.68,190.799994 15.3733364,189.680005 14.76,188.64 C14.1733304,187.626662 13.3733384,186.82667 12.36,186.24 C11.3199948,185.626664 10.200006,185.32 9,185.32 C7.799994,185.32 6.6800052,185.626664 5.64,186.24 C4.6266616,186.82667 3.8266696,187.626662 3.24,188.64 C2.6266636,189.680005 2.32,190.799994 2.32,192 C2.32,193.200006 2.6266636,194.319995 3.24,195.36 C3.8266696,196.373338 4.6266616,197.17333 5.64,197.76 C6.6800052,198.373336 7.799994,198.68 9,198.68 Z M9,183.68 C10.5200076,183.68 11.9266602,184.059996 13.22,184.82 C14.4733396,185.540004 15.4599964,186.52666 16.18,187.78 C16.9400038,189.07334 17.32,190.479992 17.32,192 C17.32,193.520008 16.9400038,194.92666 16.18,196.22 C15.4599964,197.47334 14.4733396,198.459996 13.22,199.18 C11.9266602,199.940004 10.5200076,200.32 9,200.32 C7.4799924,200.32 6.0733398,199.940004 4.78,199.18 C3.5266604,198.446663 2.5400036,197.45334 1.82,196.2 C1.0599962,194.90666 0.68,193.506674 0.68,192 C0.68,190.493326 1.0599962,189.09334 1.82,187.8 C2.553337,186.54666 3.5466604,185.553337 4.8,184.82 C6.0933398,184.059996 7.4933258,183.68 9,183.68 Z M7.32,195.74 L7.32,188.24 L12.32,192 L7.32,195.74 Z" id="play_circle_outline---material"></path>
                        </g>
                    </g>
                </g>
            </g>
        </g>
    </g>
</svg>