<?xml version="1.0" encoding="UTF-8"?>
<svg width="15px" height="23px" viewBox="0 0 15 23" version="1.1" xmlns="http://www.w3.org/2000/svg" xmlns:xlink="http://www.w3.org/1999/xlink">
    <!-- Generator: Sketch 49 (51002) - http://www.bohemiancoding.com/sketch -->
    <title>ion-ios-arrow-thin-down - Ionicons</title>
    <desc>Created with Sketch.</desc>
    <defs></defs>
    <g id="Home" stroke="none" stroke-width="1" fill="none" fill-rule="evenodd">
        <g id="19/01/18-Bitcoin.org-ver3-Desktop-1200px--" transform="translate(-792.000000, -1341.000000)" fill="#F7931A">
            <g id="//Content" transform="translate(215.000000, 961.000000)">
                <g id="Scroll-down" transform="translate(549.000000, 367.000000)">
                    <path d="M42.359375,29.140625 C42.4531255,29.2343755 42.5,29.3749991 42.5,29.5625 C42.5,29.7500009 42.4531255,29.8906245 42.359375,29.984375 C38.2812296,33.6875185 36.2187502,35.5624998 36.171875,35.609375 C36.0781245,35.7031255 35.9375009,35.75 35.75,35.75 C35.5624991,35.75 35.4218755,35.7031255 35.328125,35.609375 L29.140625,29.984375 C28.8593736,29.7031236 28.8593736,29.4218764 29.140625,29.140625 C29.4218764,28.8593736 29.7031236,28.8593736 29.984375,29.140625 L35.1875,33.8515625 L35.1875,13.8125 C35.1875,13.4374981 35.3749981,13.25 35.75,13.25 C36.1250019,13.25 36.3125,13.4374981 36.3125,13.8125 L36.3125,33.8515625 L41.515625,29.140625 C41.7968764,28.8593736 42.0781236,28.8593736 42.359375,29.140625 Z" id="ion-ios-arrow-thin-down---Ionicons"></path>
                </g>
            </g>
        </g>
    </g>
</svg>