<?xml version="1.0" encoding="UTF-8"?>
<svg width="40px" height="36px" viewBox="0 0 40 36" version="1.1" xmlns="http://www.w3.org/2000/svg" xmlns:xlink="http://www.w3.org/1999/xlink">
    <!-- Generator: Sketch 49 (51002) - http://www.bohemiancoding.com/sketch -->
    <title>Group 3</title>
    <desc>Created with Sketch.</desc>
    <defs>
        <rect id="path-1" x="0" y="11.7602496" width="25.4545455" height="18.9973262" rx="5"></rect>
    </defs>
    <g id="Symbols" stroke="none" stroke-width="1" fill="none" fill-rule="evenodd">
        <g id="Most-of-the-security-is-on-client-side.icon" transform="translate(-10.000000, -12.000000)">
            <g id="Group-3" transform="translate(10.000000, 13.000000)">
                <g id="Group-2" transform="translate(15.909091, 0.000000)">
                    <path d="M22.1355002,20.9155023 C22.1387201,20.9170614 22.1420389,20.9186758 22.1454563,20.9203456 C22.1444197,20.9198468 22.1403742,20.9178622 22.1355002,20.9155023 Z M22.2328463,20.9191744 L22.0411188,20.8758617 L15.0492804,17.549329 C14.7306844,17.3998168 14.4631545,17.1792115 14.2517337,16.8921921 C14.0377176,16.6016494 13.9082521,16.2707451 13.8657074,15.9070855 C13.8232706,15.5443488 13.8716758,15.192794 14.0104152,14.8600977 C14.1490262,14.5277095 14.3601284,14.2501039 14.6395819,14.0339337 C15.4298252,13.4226438 15.9912574,12.5508061 16.3248464,11.4039989 C16.673176,10.2065171 16.8457241,9.24208969 16.8457241,8.51851853 L16.8457241,4.48512907 C16.8457241,4.15033801 16.7112965,3.78534716 16.4280822,3.38662259 C16.1218004,2.95542231 15.7243493,2.55574129 15.2339531,2.1878376 C14.7414542,1.81835646 14.176181,1.51044895 13.5369475,1.26443145 C12.9102519,1.02323935 12.291742,0.903479237 11.6792007,0.903479237 C11.050055,0.903479237 10.4280705,1.02316872 9.81066317,1.26375633 C9.17975481,1.50960493 8.61420306,1.82161364 8.11282862,2.19975414 C7.61489011,2.57530326 7.2182244,2.97806718 6.92087261,3.40742932 C6.64392394,3.80733029 6.51267728,4.16605334 6.51267728,4.48512907 L6.51267728,8.51851853 C6.51267728,9.25448981 6.70054426,10.2191928 7.08014485,11.4049933 C7.44701912,12.5510393 8.01246427,13.4252404 8.76895555,14.0339337 C9.04840906,14.2501039 9.25951128,14.5277095 9.39812219,14.8600976 C9.53686165,15.192794 9.58526689,15.5443488 9.53820802,15.9375858 C9.47616682,16.2703288 9.34632586,16.5784726 9.15067048,16.8580691 C8.94674252,17.1494873 8.68089137,17.3731822 8.36146565,17.5230765 L1.26730959,20.8960404 C1.21870183,20.9123339 1.11468238,20.9725599 0.972551542,21.0746515 C0.93288649,21.1031426 0.897435897,21.1965103 0.897435897,21.4001561 L0.897435897,22.5864765 L22.4358974,22.5622761 L22.4358974,21.4505734 C22.4358974,21.1641641 22.3906633,21.0458954 22.3644296,21.0321774 C22.2700147,20.9828062 22.1966674,20.9453676 22.1454563,20.9203456 C22.1841387,20.9392919 22.1440004,20.9191744 22.2328463,20.9191744 Z" id="User---simple-line-icons-Copy" fill="#1C1F30" fill-rule="nonzero"></path>
                    <path d="M22.7781003,20.2304051 C23.1696692,20.4351634 23.3333333,20.8630774 23.3333333,21.4505734 L23.3333333,23.4647476 L0,23.4909646 L0,21.4001561 C0,20.9315669 0.140023944,20.56278 0.451313234,20.339183 C0.660136669,20.1891866 0.831862957,20.0897591 0.933764238,20.0590381 L7.98009246,16.7052393 C8.15982162,16.6208951 8.30341112,16.5000747 8.41701323,16.3377344 C8.53888799,16.1635723 8.61794529,15.9759503 8.65155467,15.8014056 C8.67596629,15.5927426 8.64916817,15.3981147 8.57065018,15.2098291 C8.49200366,15.0212351 8.37722459,14.8702973 8.21543837,14.7450449 C7.30744331,14.0145735 6.64456665,12.9897393 6.22597174,11.6821278 C5.82010311,10.4142709 5.61524138,9.36229932 5.61524138,8.51851853 L5.61524138,4.48512907 C5.61524138,3.96391113 5.80987601,3.43193624 6.1846997,2.8907083 C6.53912028,2.3789415 7.00311535,1.90781312 7.57475193,1.47668033 C8.14295276,1.04813886 8.78065493,0.696325547 9.48671539,0.421192116 C10.206277,0.140797651 10.9379533,0 11.6792007,0 C12.4036283,0 13.1304232,0.140727014 13.8574086,0.420516988 C14.571856,0.695481532 15.2098367,1.04299323 15.770201,1.4633882 C16.3326679,1.8853606 16.7958777,2.3511691 17.1580802,2.86109767 C17.5433504,3.40350211 17.74316,3.9460148 17.74316,4.48512907 L17.74316,8.51851853 C17.74316,9.34108759 17.5564032,10.384932 17.1861119,11.6579136 C16.8010801,12.9815699 16.1341906,14.0171702 15.1863743,14.7503501 C15.0313129,14.8702973 14.9165338,15.0212351 14.8378873,15.2098291 C14.7593693,15.3981147 14.7325712,15.5927426 14.7569828,15.8014056 C14.7812864,16.0091457 14.8523633,16.1908128 14.9725893,16.3540287 C15.0954109,16.5207681 15.2456775,16.644678 15.4305901,16.7314616 L22.3518579,20.0244117 C22.4169488,20.0412488 22.5096264,20.0900155 22.7781003,20.2304051 Z" id="Path" stroke="#1C3C55" fill="#FFFFFF"></path>
                </g>
                <path d="M37.4079137,26.6754052 C37.5690076,26.4798343 37.8482327,26.4605913 38.0315804,26.6324248 C38.2149281,26.8042583 38.2329684,27.1020984 38.0718745,27.2976693 L31.8593842,34.8397436 C31.702208,35.0305583 31.4315534,35.0542197 31.2473473,34.8932496 L27.7376326,31.8262552 C27.548835,31.6612729 27.5211699,31.3642742 27.6758409,31.1628901 C27.8305119,30.9615061 28.1089481,30.9319967 28.2977457,31.096979 L31.4772121,33.8753831 L37.4079137,26.6754052 Z" id="Path-4" fill="#FF9500" fill-rule="nonzero"></path>
                <g id="Group" transform="translate(0.000000, 3.181818)">
                    <path d="M5.45454545,11.7602496 L5.45454545,7.27272727 C5.45454545,3.25611091 8.71065636,7.37840456e-16 12.7272727,0 L12.7272727,0 C16.7438891,-7.37840456e-16 20,3.25611091 20,7.27272727 L20,11.7602496" id="Path-2" stroke="#95AABF"></path>
                    <g id="Rectangle-2">
                        <use fill="#FFFFFF" fill-rule="evenodd" xlink:href="#path-1"></use>
                        <rect stroke="#1C3C55" stroke-width="1" x="0.5" y="12.2602496" width="24.4545455" height="17.9973262" rx="5"></rect>
                    </g>
                    <path d="M12.7272727,17.188057 C13.2386389,17.188057 13.6695058,17.3616345 14.0198864,17.7087946 C14.3702669,18.0559548 14.5454545,18.4828615 14.5454545,18.9895276 C14.5454545,19.3273051 14.4602281,19.6322384 14.2897727,19.9043369 C14.1193173,20.1764354 13.9015165,20.3875431 13.6363636,20.5376664 L13.6363636,23.4932041 C13.6363636,23.7371545 13.5464024,23.9482622 13.3664773,24.1265336 C13.1865521,24.304805 12.9734861,24.3939394 12.7272727,24.3939394 C12.4810594,24.3939394 12.2679933,24.304805 12.0880682,24.1265336 C11.908143,23.9482622 11.8181818,23.7371545 11.8181818,23.4932041 L11.8181818,20.5376664 C11.553029,20.3875431 11.3352281,20.1764354 11.1647727,19.9043369 C10.9943173,19.6322384 10.9090909,19.3273051 10.9090909,18.9895276 C10.9090909,18.4828615 11.0842786,18.0559548 11.4346591,17.7087946 C11.7850396,17.3616345 12.2159065,17.188057 12.7272727,17.188057 Z" id="Path" stroke="#FF9500"></path>
                </g>
            </g>
        </g>
    </g>
</svg>