<?xml version="1.0" encoding="UTF-8"?>
<svg width="36px" height="35px" viewBox="0 0 36 35" version="1.1" xmlns="http://www.w3.org/2000/svg" xmlns:xlink="http://www.w3.org/1999/xlink">
    <!-- Generator: Sketch 49 (51002) - http://www.bohemiancoding.com/sketch -->
    <title>Mining icon</title>
    <desc>Created with Sketch.</desc>
    <defs></defs>
    <g id="Support-bitcoin" stroke="none" stroke-width="1" fill="none" fill-rule="evenodd">
        <g id="22.01.18-Bitcoin.org_Support-Bitcoin_Desktop-1200px--" transform="translate(-1183.000000, -680.000000)">
            <g id="//contenct" transform="translate(215.000000, 637.000000)">
                <g id="box3" transform="translate(798.000000, 0.000000)">
                    <g id="Mining-icon" transform="translate(157.000000, 30.000000)">
                        <g>
                            <rect id="Rectangle-2" x="0" y="0" width="60" height="60"></rect>
                            <g id="bitcoin" transform="translate(13.000000, 13.000000)">
                                <path d="M34.487376,31.1444038 L31.9773882,28.6569224 C33.4206312,26.7291243 34.2363772,24.366017 34.2363772,21.8163486 C34.2363772,15.473271 29.0281526,10.24956 22.5649341,10.24956 C19.9921966,10.24956 17.6077082,11.1201785 15.6624677,12.4882933 L12.2112345,9.06800637 C12.2112345,9.06800637 12.1484848,9.00581934 12.0857351,9.00581934 C18.9254518,3.84429542 28.337906,2.53836769 28.4634053,2.53836769 C28.6516544,2.53836769 28.7771538,2.41399362 28.9026532,2.28961955 C28.9654029,2.22743251 29.0281526,2.16524548 29.0909023,2.04087141 C29.2164017,1.72993623 29.0909023,1.35681402 28.7771538,1.23243995 C28.5889047,1.17025292 18.2352052,-3.24502657 8.25800377,5.02584909 C8.25800377,4.96366206 8.19525408,4.96366206 8.13250439,4.90147502 L6.31276325,3.03586397 C5.8107657,2.53836769 4.86952028,2.66274176 4.30477303,3.22242507 L3.04977915,4.46616578 C2.79878037,4.71491392 2.61053129,5.08803613 2.54778159,5.3989713 C2.4850319,5.83428055 2.61053129,6.20740276 2.86153006,6.4561509 L4.6812712,8.25957492 C4.74402089,8.32176195 4.74402089,8.32176195 4.80677059,8.38394899 C-3.16244059,18.2716876 1.16728832,28.3459872 1.23003801,28.4703613 C1.3555374,28.7191095 1.54378648,28.8434835 1.79478526,28.8434835 C1.85753495,28.8434835 1.98303434,28.8434835 2.04578404,28.7812965 C2.17128343,28.7191095 2.23403312,28.6569224 2.29678281,28.5947354 C2.4222822,28.4703613 2.54778159,28.3459872 2.54778159,28.1594261 C2.54778159,28.0350521 3.67727609,18.9557449 8.82275102,12.3639192 C8.82275102,12.4261063 8.88550072,12.4261063 8.88550072,12.4882933 L12.5877327,16.1573284 C11.6464873,17.8363783 11.08174,19.7641764 11.08174,21.8163486 C11.08174,28.1594261 16.2899646,33.3209501 22.6904335,33.3209501 C24.7611734,33.3209501 26.7064139,32.7612667 28.4006557,31.8284612 L31.0988925,34.5025037 C31.412641,34.8134389 31.8518888,35 32.228387,35 C32.6048852,35 32.9186336,34.8756259 33.1696324,34.6268778 L34.6128754,33.196576 C35.1776226,32.6368927 35.1148729,31.7040871 34.487376,31.1444038 Z M3.80277548,5.64771944 C3.80277548,5.58553241 3.80277548,5.46115834 3.92827487,5.33678427 L5.18326875,4.09304357 C5.30876814,3.9686695 5.43426753,3.9686695 5.43426753,3.90648246 L7.25400867,5.70990648 C7.25400867,5.77209351 7.25400867,5.89646758 7.12850928,6.02084165 L5.87351539,7.26458235 C5.748016,7.38895642 5.68526631,7.38895642 5.62251661,7.38895642 L3.80277548,5.64771944 Z M8.82275102,10.3739341 C8.76000133,10.4361211 8.63450194,10.5604952 8.63450194,10.6848693 C4.24202334,15.6598321 2.4222822,22.3138448 1.66928587,25.7341318 C0.790790151,22.1272837 0.226042902,14.6026525 7.44225775,7.32676939 C14.783972,0.175260355 22.4394347,0.797130706 26.078917,1.6677492 C22.6276838,2.41399362 15.6624677,4.34179171 10.5797425,8.7570712 C10.4542431,8.81925823 10.3914934,8.88144527 10.265994,8.9436323 L9.57574736,9.62768969 L8.82275102,10.3739341 Z M9.82674613,11.5554878 C9.76399644,11.4933007 9.70124674,11.3689267 9.70124674,11.3067396 C9.95224552,11.0579915 10.1404946,10.8092434 10.3914934,10.5604952 L10.4542431,10.4983082 C10.7052419,10.24956 10.9562406,10.0008119 11.2072394,9.81425079 C11.2699891,9.81425079 11.3327388,9.81425079 11.4582382,9.93862486 L14.8467217,13.2967248 C14.2819744,13.794221 13.7799769,14.4160914 13.2779793,15.0379617 L9.82674613,11.5554878 Z M22.6904335,32.0772094 C16.9174616,32.0772094 12.2739842,27.4753688 12.2739842,21.7541615 C12.2739842,16.0329543 16.9802113,11.4933007 22.6904335,11.4933007 C28.4006557,11.4933007 33.1068827,16.0951413 33.1068827,21.7541615 C33.1069612,27.4131817 28.4634838,32.0772094 22.6904335,32.0772094 Z M32.3538864,33.6940723 C32.2911367,33.6940723 32.1656373,33.7562593 32.0401379,33.5696982 L29.5301501,31.0822168 C30.1576471,30.6469075 30.7223943,30.0872242 31.2871416,29.5275409 L33.67163,31.9528353 C33.7971294,32.0772094 33.7971294,32.2637705 33.7971294,32.2637705 L32.3538864,33.6940723 Z" id="Shape" fill="#1C3C55" fill-rule="nonzero"></path>
                                <circle id="Oval-3" fill="#FFFFFF" cx="23" cy="22" r="12"></circle>
                                <path d="M23,34.5 C16.0964406,34.5 10.5,28.9035594 10.5,22 C10.5,15.0964406 16.0964406,9.5 23,9.5 C29.9035594,9.5 35.5,15.0964406 35.5,22 C35.5,28.9035594 29.9035594,34.5 23,34.5 Z M23,33.5 C29.3512746,33.5 34.5,28.3512746 34.5,22 C34.5,15.6487254 29.3512746,10.5 23,10.5 C16.6487254,10.5 11.5,15.6487254 11.5,22 C11.5,28.3512746 16.6487254,33.5 23,33.5 Z" id="Oval-3" fill="#95AABF" fill-rule="nonzero"></path>
                                <path d="M26.2099009,17.2443797 L26.7735644,14.966957 L25.3973317,14.6214742 L24.8485633,16.8388816 C24.4867682,16.748069 24.1151737,16.6623893 23.7459309,16.5774992 L24.2986191,14.3454828 L22.9231704,14 L22.3591149,16.276633 C22.0596442,16.2079313 21.7656612,16.1400193 21.4803016,16.0685536 L19.583915,15.5840881 L19.2178081,17.0647287 C19.2178081,17.0647287 20.2389092,17.3004467 20.2173505,17.3150556 C20.7747423,17.455223 20.8754805,17.826765 20.8586254,18.1213138 L20.2165665,20.715791 C20.2549803,20.725662 20.3047614,20.7398761 20.3596382,20.761987 C20.3137769,20.7505367 20.2647797,20.7379019 20.2142146,20.725662 L19.3142345,24.3601412 C19.2460305,24.530711 19.0731684,24.7865657 18.6835429,24.6894356 C18.6972621,24.7095723 17.6832166,24.4379242 17.6832166,24.4379242 L17,26.024776 L18.7909447,26.474496 C19.1241255,26.5585964 19.4506427,26.6466451 19.7720641,26.729561 L19.202521,29.033043 L20.5771857,29.3785258 L21.1412412,27.0995237 C21.5167555,27.2021815 21.8812945,27.2969425 22.2379939,27.3861758 L21.6758984,29.6545172 L23.052131,30 L23.6216741,27.7008613 C25.9684428,28.1482121 27.733125,27.9677714 28.4759222,25.8297263 C29.0744717,24.1082349 28.4461319,23.1152185 27.2114031,22.467685 C28.1105992,22.258816 28.7879362,21.6630062 28.9686378,20.4322977 C29.2183274,18.7510796 27.9475366,17.8472966 26.2099009,17.2443797 Z M21.4803016,25.4249164 L22.2379939,22.467685 C22.9852367,22.6926072 26.0153607,23.2360221 25.6593215,24.9577744 C25.3186668,26.6087179 22.2275444,25.6487025 21.4803016,25.4249164 Z M22.7054193,21.0862014 L23.488897,18.2105263 C24.0432414,18.4195628 26.4982607,18.6817227 26.2099009,20.4322977 C25.9330084,22.1105139 23.2597637,21.2952379 22.7054193,21.0862014 Z" id="path3096" stroke="#FF9500" stroke-width="0.7"></path>
                            </g>
                        </g>
                    </g>
                </g>
            </g>
        </g>
    </g>
</svg>