<svg width="120" height="120" viewBox="0 0 120 120" version="1.1" xmlns="http://www.w3.org/2000/svg" xmlns:xlink="http://www.w3.org/1999/xlink">
<title>icon</title>
<desc>Created using Figma</desc>
<g id="Canvas" transform="matrix(2 0 0 2 960 -176)">
<g id="icon">
<g id="exchange icon">
<g id="exchange icon">
<g id="Rectangle 2">
<use xlink:href="#path0_fill" transform="translate(-470.321 108.392)" fill="#95AABF"/>
</g>
<g id="Rectangle 2 Copy">
<use xlink:href="#path1_fill" transform="translate(-458.71 108.281)" fill="#95AABF"/>
</g>
<g id="Rectangle 2 Copy">
<use xlink:href="#path2_fill" transform="translate(-447.095 108.289)" fill="#95AABF"/>
</g>
<g id="Rectangle">
<use xlink:href="#path3_fill" transform="translate(-474.194 104.552)" fill="#95AABF"/>
</g>
<g id="Rectangle 2 Copy 2">
<use xlink:href="#path4_fill" transform="translate(-435.484 108.21)" fill="#95AABF"/>
</g>
<g id="Rectangle">
<use xlink:href="#path5_fill" transform="translate(-478.064 136.757)" fill="#FF9500"/>
</g>
<g id="Rectangle">
<use xlink:href="#path6_fill" transform="translate(-474.194 132.699)" fill="#FF9500"/>
</g>
<g id="Path 2">
<use xlink:href="#path7_fill" transform="translate(-479.765 88.0265)" fill="#1C1F30"/>
</g>
</g>
</g>
</g>
</g>
<defs>
<path id="path0_fill" fill-rule="evenodd" d="M 5.80646 0L 0 0L 0 25.3401L 5.80646 25.3401L 5.80646 0ZM 4.71539 24.3603L 1.1416 24.3603L 1.1416 1.00845L 4.71539 1.00845L 4.71539 24.3603Z"/>
<path id="path1_fill" fill-rule="evenodd" d="M 5.80646 0L 0 0L 0 25.5688L 5.80646 25.5688L 5.80646 0ZM 1.06882 24.4133L 1.06882 1.11919L 4.65659 1.11919L 4.65659 24.4133L 1.06882 24.4133Z"/>
<path id="path2_fill" fill-rule="evenodd" d="M 5.80646 0L 0 0L 0 25.5905L 5.80646 25.5905L 5.80646 0ZM 4.71109 24.426L 1.14182 24.426L 1.14182 1.11076L 4.71109 1.11076L 4.71109 24.426Z"/>
<path id="path3_fill" fill-rule="evenodd" d="M 48.3871 0L 0 0L 0 4.73846L 48.3871 4.73846L 48.3871 0ZM 1.15561 3.63136L 1.15561 0.928123L 46.9877 0.928123L 46.9877 3.63136L 1.15561 3.63136Z"/>
<path id="path4_fill" fill-rule="evenodd" d="M 5.80646 0L 0 0L 0 25.6991L 5.80646 25.6991L 5.80646 0ZM 4.68857 24.6207L 1.12598 24.6207L 1.12598 1.19024L 4.68857 1.19024L 4.68857 24.6207Z"/>
<path id="path5_fill" fill-rule="evenodd" d="M 56.129 0L 0 0L 0 5.80646L 56.129 5.80646L 56.129 0ZM 1.12451 4.68971L 1.12451 1.10463L 55.019 1.10463L 55.019 4.68971L 1.12451 4.68971Z"/>
<path id="path6_fill" fill-rule="evenodd" d="M 48.3871 0L 0 0L 0 5.13699L 48.3871 5.13699L 48.3871 0ZM 47.3015 4.09766L 1.07996 4.09766L 1.07996 1.10565L 47.3015 1.22545L 47.3015 4.09766Z"/>
<path id="path7_fill" fill-rule="evenodd" d="M 29.805 0L 0 17.401L 59.61 17.401L 29.805 0ZM 55.5054 16.2799L 4.39694 16.2799L 29.8065 1.28619L 55.5054 16.2799Z"/>
</defs>
</svg>
