<?xml version="1.0" encoding="UTF-8"?>
<svg width="37px" height="27px" viewBox="0 0 37 27" version="1.1" xmlns="http://www.w3.org/2000/svg" xmlns:xlink="http://www.w3.org/1999/xlink">
    <!-- Generator: Sketch 49 (51002) - http://www.bohemiancoding.com/sketch -->
    <title>icon/operating modes</title>
    <desc>Created with Sketch.</desc>
    <defs></defs>
    <g id="Developer-Documentation" stroke="none" stroke-width="1" fill="none" fill-rule="evenodd">
        <g id="22.01.18-Bitcoin.org_Developer-Documentation-Desktop-1200px--" transform="translate(-1182.000000, -1040.000000)">
            <g id="//contenct" transform="translate(215.000000, 513.000000)">
                <g id="developer-documentation" transform="translate(0.000000, 115.000000)">
                    <g id="box6" transform="translate(800.000000, 353.000000)">
                        <g id="icon/operating-modes" transform="translate(155.000000, 39.000000)">
                            <g>
                                <rect id="Rectangle-2" x="0" y="0.609120521" width="60" height="59.4136808"></rect>
                                <path d="M30.0218519,27.3888889 L28.2442963,27.3888889 C27.9585926,27.3888889 27.7232037,27.2316111 27.6137778,26.9677222 C27.5043519,26.7038333 27.5599444,26.4258704 27.7615556,26.2239074 L29.0183704,24.9674444 C29.2030926,24.7827222 29.3047778,24.5367778 29.3047778,24.2757037 C29.3047778,24.0142778 29.2030926,23.7686852 29.0183704,23.5836111 L27.4163889,21.9816296 C27.0469444,21.6121852 26.4027037,21.6114815 26.0325556,21.9816296 L24.7760926,23.2380926 C24.5741296,23.4397037 24.295463,23.496 24.0322778,23.3862222 C23.7683889,23.2767963 23.6111111,23.0414074 23.6111111,22.7557037 L23.6111111,20.9781481 C23.6111111,20.4387593 23.1723519,20 22.632963,20 L20.367037,20 C19.8276481,20 19.3888889,20.4387593 19.3888889,20.9781481 L19.3888889,22.7557037 C19.3888889,23.0414074 19.2316111,23.2767963 18.9677222,23.3862222 C18.704537,23.4963519 18.4258704,23.4397037 18.2239074,23.2380926 L16.9674444,21.9816296 C16.5972963,21.6114815 15.9530556,21.6121852 15.5836111,21.9816296 L13.9816296,23.5836111 C13.7969074,23.7683333 13.6952222,24.0142778 13.6952222,24.2757037 C13.6952222,24.5367778 13.7969074,24.7823704 13.9816296,24.9674444 L15.2384444,26.2239074 C15.4400556,26.4258704 15.4952963,26.7038333 15.3862222,26.9677222 C15.2771481,27.2316111 15.0414074,27.3888889 14.7557037,27.3888889 L12.9781481,27.3888889 C12.4387593,27.3888889 12,27.8276481 12,28.367037 L12,30.6326111 C12,31.1723519 12.4387593,31.6111111 12.9781481,31.6111111 L14.7557037,31.6111111 C15.0414074,31.6111111 15.2767963,31.7683889 15.3862222,32.0322778 C15.4956481,32.2961667 15.4400556,32.5741296 15.2384444,32.7760926 L13.9816296,34.0325556 C13.7969074,34.2172778 13.6952222,34.4632222 13.6952222,34.7242963 C13.6952222,34.9857222 13.7969074,35.2313148 13.9816296,35.4163889 L15.5836111,37.0183704 C15.9534074,37.3881667 16.5972963,37.3888704 16.9674444,37.0183704 L18.2239074,35.7615556 C18.4258704,35.5599444 18.7034815,35.5043519 18.9677222,35.6137778 C19.2316111,35.7232037 19.3888889,35.9585926 19.3888889,36.2442963 L19.3888889,38.0218519 C19.3888889,38.5612407 19.8276481,39 20.367037,39 L22.6326111,39 C23.172,39 23.6107593,38.5612407 23.6107593,38.0218519 L23.6107593,36.2442963 C23.6107593,35.9585926 23.768037,35.7232037 24.0319259,35.6137778 C24.2961667,35.504 24.5737778,35.5599444 24.7757407,35.7615556 L26.0322037,37.0183704 C26.4023519,37.3885185 27.0465926,37.3878148 27.416037,37.0183704 L29.0180185,35.4163889 C29.2027407,35.2316667 29.3044259,34.9857222 29.3044259,34.7242963 C29.3044259,34.4632222 29.2027407,34.2176296 29.0180185,34.0325556 L27.7612037,32.7760926 C27.5595926,32.5741296 27.5043519,32.2961667 27.6134259,32.0322778 C27.7225,31.7683889 27.9585926,31.6111111 28.2442963,31.6111111 L30.0218519,31.6111111 C30.5612407,31.6111111 31,31.1723519 31,30.632963 L31,28.367037 C31,27.8276481 30.5612407,27.3888889 30.0218519,27.3888889 Z M30.2962963,30.632963 C30.2962963,30.7842593 30.1731481,30.9074074 30.0218519,30.9074074 L28.2442963,30.9074074 C27.6728889,30.9074074 27.1820556,31.2353333 26.9635556,31.7631111 C26.7447037,32.2908889 26.8597593,32.870037 27.264037,33.273963 L28.5208519,34.5304259 C28.6281667,34.6377407 28.6281667,34.8119074 28.5208519,34.9188704 L26.9188704,36.5208519 C26.8119074,36.6278148 26.6377407,36.6285185 26.5304259,36.5208519 L25.273963,35.264037 C24.8696852,34.8597593 24.2908889,34.7454074 23.7631111,34.9635556 C23.2353333,35.1820556 22.9074074,35.6728889 22.9074074,36.2442963 L22.9074074,38.0218519 C22.9074074,38.1731481 22.7842593,38.2962963 22.632963,38.2962963 L20.367037,38.2962963 C20.2157407,38.2962963 20.0925926,38.1731481 20.0925926,38.0218519 L20.0925926,36.2442963 C20.0925926,35.6728889 19.7646667,35.1820556 19.2368889,34.9635556 C19.0599074,34.8900185 18.8776481,34.8541296 18.6975,34.8541296 C18.3407222,34.8541296 17.9948519,34.9948704 17.726037,35.2636852 L16.4695741,36.5205 C16.3619074,36.6281667 16.1877407,36.627463 16.0811296,36.5205 L14.4791481,34.9185185 C14.3718333,34.8112037 14.3718333,34.637037 14.4791481,34.5300741 L15.735963,33.2736111 C16.1398889,32.8696852 16.2552963,32.290537 16.0364444,31.7627593 C15.8179444,31.2353333 15.3271111,30.9074074 14.7557037,30.9074074 L12.9781481,30.9074074 C12.8268519,30.9074074 12.7037037,30.7842593 12.7037037,30.632963 L12.7037037,28.367037 C12.7037037,28.2157407 12.8268519,28.0925926 12.9781481,28.0925926 L14.7557037,28.0925926 C15.3271111,28.0925926 15.8179444,27.7646667 16.0364444,27.2368889 C16.2552963,26.7091111 16.1402407,26.129963 15.735963,25.726037 L14.4791481,24.4695741 C14.3718333,24.3622593 14.3718333,24.1880926 14.4791481,24.0811296 L16.0811296,22.4791481 C16.1880926,22.3718333 16.3622593,22.3718333 16.4695741,22.4791481 L17.726037,23.7356111 C18.1296111,24.1391852 18.7084074,24.2549444 19.2368889,24.0360926 C19.7646667,23.8179444 20.0925926,23.3271111 20.0925926,22.7557037 L20.0925926,20.9781481 C20.0925926,20.8268519 20.2157407,20.7037037 20.367037,20.7037037 L22.6326111,20.7037037 C22.7842593,20.7037037 22.9074074,20.8268519 22.9074074,20.9781481 L22.9074074,22.7557037 C22.9074074,23.3271111 23.2353333,23.8179444 23.7631111,24.0364444 C24.2915926,24.2552963 24.870037,24.1398889 25.273963,23.735963 L26.5304259,22.4795 C26.6380926,22.3721852 26.8122593,22.3721852 26.9188704,22.4795 L28.5208519,24.0814815 C28.6281667,24.1887963 28.6281667,24.362963 28.5208519,24.4699259 L27.264037,25.7263889 C26.8601111,26.1303148 26.7447037,26.709463 26.9635556,27.2372407 C27.1820556,27.7650185 27.6728889,28.0929444 28.2442963,28.0929444 L30.0218519,28.0929444 C30.1731481,28.0925926 30.2962963,28.2157407 30.2962963,28.367037 L30.2962963,30.632963 Z" id="Shape" fill="#FF9500" fill-rule="nonzero"></path>
                                <circle id="Oval-3" stroke="#FF9500" stroke-width="0.7" cx="21.5" cy="29.5" r="3.5"></circle>
                                <path d="M48.0218519,35.3888889 L46.2442963,35.3888889 C45.9585926,35.3888889 45.7232037,35.2316111 45.6137778,34.9677222 C45.5043519,34.7038333 45.5599444,34.4258704 45.7615556,34.2239074 L47.0183704,32.9674444 C47.2030926,32.7827222 47.3047778,32.5367778 47.3047778,32.2757037 C47.3047778,32.0142778 47.2030926,31.7686852 47.0183704,31.5836111 L45.4163889,29.9816296 C45.0469444,29.6121852 44.4027037,29.6114815 44.0325556,29.9816296 L42.7760926,31.2380926 C42.5741296,31.4397037 42.295463,31.496 42.0322778,31.3862222 C41.7683889,31.2767963 41.6111111,31.0414074 41.6111111,30.7557037 L41.6111111,28.9781481 C41.6111111,28.4387593 41.1723519,28 40.632963,28 L38.367037,28 C37.8276481,28 37.3888889,28.4387593 37.3888889,28.9781481 L37.3888889,30.7557037 C37.3888889,31.0414074 37.2316111,31.2767963 36.9677222,31.3862222 C36.704537,31.4963519 36.4258704,31.4397037 36.2239074,31.2380926 L34.9674444,29.9816296 C34.5972963,29.6114815 33.9530556,29.6121852 33.5836111,29.9816296 L31.9816296,31.5836111 C31.7969074,31.7683333 31.6952222,32.0142778 31.6952222,32.2757037 C31.6952222,32.5367778 31.7969074,32.7823704 31.9816296,32.9674444 L33.2384444,34.2239074 C33.4400556,34.4258704 33.4952963,34.7038333 33.3862222,34.9677222 C33.2771481,35.2316111 33.0414074,35.3888889 32.7557037,35.3888889 L30.9781481,35.3888889 C30.4387593,35.3888889 30,35.8276481 30,36.367037 L30,38.6326111 C30,39.1723519 30.4387593,39.6111111 30.9781481,39.6111111 L32.7557037,39.6111111 C33.0414074,39.6111111 33.2767963,39.7683889 33.3862222,40.0322778 C33.4956481,40.2961667 33.4400556,40.5741296 33.2384444,40.7760926 L31.9816296,42.0325556 C31.7969074,42.2172778 31.6952222,42.4632222 31.6952222,42.7242963 C31.6952222,42.9857222 31.7969074,43.2313148 31.9816296,43.4163889 L33.5836111,45.0183704 C33.9534074,45.3881667 34.5972963,45.3888704 34.9674444,45.0183704 L36.2239074,43.7615556 C36.4258704,43.5599444 36.7034815,43.5043519 36.9677222,43.6137778 C37.2316111,43.7232037 37.3888889,43.9585926 37.3888889,44.2442963 L37.3888889,46.0218519 C37.3888889,46.5612407 37.8276481,47 38.367037,47 L40.6326111,47 C41.172,47 41.6107593,46.5612407 41.6107593,46.0218519 L41.6107593,44.2442963 C41.6107593,43.9585926 41.768037,43.7232037 42.0319259,43.6137778 C42.2961667,43.504 42.5737778,43.5599444 42.7757407,43.7615556 L44.0322037,45.0183704 C44.4023519,45.3885185 45.0465926,45.3878148 45.416037,45.0183704 L47.0180185,43.4163889 C47.2027407,43.2316667 47.3044259,42.9857222 47.3044259,42.7242963 C47.3044259,42.4632222 47.2027407,42.2176296 47.0180185,42.0325556 L45.7612037,40.7760926 C45.5595926,40.5741296 45.5043519,40.2961667 45.6134259,40.0322778 C45.7225,39.7683889 45.9585926,39.6111111 46.2442963,39.6111111 L48.0218519,39.6111111 C48.5612407,39.6111111 49,39.1723519 49,38.632963 L49,36.367037 C49,35.8276481 48.5612407,35.3888889 48.0218519,35.3888889 Z M48.2962963,38.632963 C48.2962963,38.7842593 48.1731481,38.9074074 48.0218519,38.9074074 L46.2442963,38.9074074 C45.6728889,38.9074074 45.1820556,39.2353333 44.9635556,39.7631111 C44.7447037,40.2908889 44.8597593,40.870037 45.264037,41.273963 L46.5208519,42.5304259 C46.6281667,42.6377407 46.6281667,42.8119074 46.5208519,42.9188704 L44.9188704,44.5208519 C44.8119074,44.6278148 44.6377407,44.6285185 44.5304259,44.5208519 L43.273963,43.264037 C42.8696852,42.8597593 42.2908889,42.7454074 41.7631111,42.9635556 C41.2353333,43.1820556 40.9074074,43.6728889 40.9074074,44.2442963 L40.9074074,46.0218519 C40.9074074,46.1731481 40.7842593,46.2962963 40.632963,46.2962963 L38.367037,46.2962963 C38.2157407,46.2962963 38.0925926,46.1731481 38.0925926,46.0218519 L38.0925926,44.2442963 C38.0925926,43.6728889 37.7646667,43.1820556 37.2368889,42.9635556 C37.0599074,42.8900185 36.8776481,42.8541296 36.6975,42.8541296 C36.3407222,42.8541296 35.9948519,42.9948704 35.726037,43.2636852 L34.4695741,44.5205 C34.3619074,44.6281667 34.1877407,44.627463 34.0811296,44.5205 L32.4791481,42.9185185 C32.3718333,42.8112037 32.3718333,42.637037 32.4791481,42.5300741 L33.735963,41.2736111 C34.1398889,40.8696852 34.2552963,40.290537 34.0364444,39.7627593 C33.8179444,39.2353333 33.3271111,38.9074074 32.7557037,38.9074074 L30.9781481,38.9074074 C30.8268519,38.9074074 30.7037037,38.7842593 30.7037037,38.632963 L30.7037037,36.367037 C30.7037037,36.2157407 30.8268519,36.0925926 30.9781481,36.0925926 L32.7557037,36.0925926 C33.3271111,36.0925926 33.8179444,35.7646667 34.0364444,35.2368889 C34.2552963,34.7091111 34.1402407,34.129963 33.735963,33.726037 L32.4791481,32.4695741 C32.3718333,32.3622593 32.3718333,32.1880926 32.4791481,32.0811296 L34.0811296,30.4791481 C34.1880926,30.3718333 34.3622593,30.3718333 34.4695741,30.4791481 L35.726037,31.7356111 C36.1296111,32.1391852 36.7084074,32.2549444 37.2368889,32.0360926 C37.7646667,31.8179444 38.0925926,31.3271111 38.0925926,30.7557037 L38.0925926,28.9781481 C38.0925926,28.8268519 38.2157407,28.7037037 38.367037,28.7037037 L40.6326111,28.7037037 C40.7842593,28.7037037 40.9074074,28.8268519 40.9074074,28.9781481 L40.9074074,30.7557037 C40.9074074,31.3271111 41.2353333,31.8179444 41.7631111,32.0364444 C42.2915926,32.2552963 42.870037,32.1398889 43.273963,31.735963 L44.5304259,30.4795 C44.6380926,30.3721852 44.8122593,30.3721852 44.9188704,30.4795 L46.5208519,32.0814815 C46.6281667,32.1887963 46.6281667,32.362963 46.5208519,32.4699259 L45.264037,33.7263889 C44.8601111,34.1303148 44.7447037,34.709463 44.9635556,35.2372407 C45.1820556,35.7650185 45.6728889,36.0929444 46.2442963,36.0929444 L48.0218519,36.0929444 C48.1731481,36.0925926 48.2962963,36.2157407 48.2962963,36.367037 L48.2962963,38.632963 Z" id="Shape" fill="#1C1F30" fill-rule="nonzero"></path>
                                <circle id="Oval-3" stroke="#1C1F30" stroke-width="0.7" cx="39.5" cy="37.5" r="3.5"></circle>
                            </g>
                        </g>
                    </g>
                </g>
            </g>
        </g>
    </g>
</svg>