<?xml version="1.0" encoding="UTF-8"?>
<svg xmlns="http://www.w3.org/2000/svg" width="32" height="32">
  <g>
    <path d="M13.078 10.053a.211.209 0 1 1-.422 0 .211.209 0 1 1 .422 0z" transform="matrix(19.985 -16.77 16.77 19.985 -417.718 22.315)" opacity=".99" stroke="#000" stroke-width=".1" stroke-linecap="round" stroke-linejoin="round"/>
    <path d="M4.987 11.409l.115 13.268 1.769 2.109 1.284-1.063.636-2.488-.461-1.676 1.821-1.626-1.124-2.072 1.255-1.815.744-6.886z"/>
    <path d="M23.234 8.577a1.2 1.2 0 1 1-2.399 0 1.2 1.2 0 1 1 2.399 0z" transform="matrix(.524 -.44 .44 .524 -7.062 10.335)" opacity=".99" fill="#fff" stroke="#fff" stroke-width="3" stroke-linecap="round" stroke-linejoin="round"/>
    <path d="M13.078 10.053a.211.209 0 1 1-.422 0 .211.209 0 1 1 .422 0z" transform="matrix(19.985 -16.77 16.77 19.985 -401.864 27.289)" opacity=".99" stroke="#000" stroke-width=".1" stroke-linecap="round" stroke-linejoin="round"/>
    <path d="M20.841 16.384l.115 13.268 1.769 2.109 1.284-1.063.636-2.488-.461-1.676 1.821-1.627-1.124-2.072 1.255-1.815.744-6.886z"/>
    <path d="M23.234 8.577a1.2 1.2 0 1 1-2.399 0 1.2 1.2 0 1 1 2.399 0z" transform="matrix(.524 -.44 .44 .524 8.792 15.31)" opacity=".99" fill="#fff" stroke="#fff" stroke-width="3" stroke-linecap="round" stroke-linejoin="round"/>
  </g>
</svg>
