<?xml version="1.0" encoding="UTF-8"?>
<svg width="29px" height="30px" viewBox="0 0 29 30" version="1.1" xmlns="http://www.w3.org/2000/svg" xmlns:xlink="http://www.w3.org/1999/xlink">
    <!-- Generator: Sketch 49 (51002) - http://www.bohemiancoding.com/sketch -->
    <title>Group</title>
    <desc>Created with Sketch.</desc>
    <defs></defs>
    <g id="Symbols" stroke="none" stroke-width="1" fill="none" fill-rule="evenodd">
        <g id="Notification.icon" transform="translate(-19.000000, -15.000000)" fill-rule="nonzero">
            <g id="Group" transform="translate(16.000000, 15.000000)">
                <g id="notification">
                    <path d="M16,25.025129 L17,25 L17,26.5608696 C17,27.9415815 15.8807119,29.0608696 14.5,29.0608696 C13.1192881,29.0608696 12,27.9415815 12,26.5608696 L12,25.1256452 L13,25.1256452 L13,26.5608696 C13,27.3892967 13.6715729,28.0608696 14.5,28.0608696 C15.3284271,28.0608696 16,27.3892967 16,26.5608696 L16,25.025129 Z M16,25.025129 L17,25 L17,26.5608696 C17,27.9415815 15.8807119,29.0608696 14.5,29.0608696 C13.1192881,29.0608696 12,27.9415815 12,26.5608696 L12,25.1256452 L13,25.1256452 L13,26.5608696 C13,27.3892967 13.6715729,28.0608696 14.5,28.0608696 C15.3284271,28.0608696 16,27.3892967 16,26.5608696 L16,25.025129 Z" id="Rectangle-3" fill="#FF9500"></path>
                    <path d="M16,0.0251290478 L17,0 L17,1.5608696 C17,2.94158147 15.8807119,4.0608696 14.5,4.0608696 C13.1192881,4.0608696 12,2.94158147 12,1.5608696 L12,0.125645239 L13,0.125645239 L13,1.5608696 C13,2.38929672 13.6715729,3.0608696 14.5,3.0608696 C15.3284271,3.0608696 16,2.38929672 16,1.5608696 L16,0.0251290478 Z M16,0.0251290478 L17,0 L17,1.5608696 C17,2.94158147 15.8807119,4.0608696 14.5,4.0608696 C13.1192881,4.0608696 12,2.94158147 12,1.5608696 L12,0.125645239 L13,0.125645239 L13,1.5608696 C13,2.38929672 13.6715729,3.0608696 14.5,3.0608696 C15.3284271,3.0608696 16,2.38929672 16,1.5608696 L16,0.0251290478 Z" id="Rectangle-3-Copy" fill="#C9D4DE" transform="translate(14.500000, 2.030435) scale(-1, -1) translate(-14.500000, -2.030435) "></path>
                    <path d="M23.0041068,12.5905357 C22.9788918,12.3131704 22.9553674,12.0406841 22.9335393,11.7730812 C22.5750048,7.3814459 18.9062465,4 14.5,4 C9.80557963,4 6,7.80557963 6,12.5 C6,15.5005595 5.42610629,19.3296216 4.28268376,24 L24.7523712,24 C23.9345091,20.2176371 23.3517317,16.4144099 23.0041068,12.5905357 Z M23.9302233,11.6917116 C23.9518437,11.9567689 23.9751089,12.2261978 24,12.5 C24.3810518,16.6915701 25.0477185,20.8582367 26,25 L3,25 C4.33333333,19.8333333 5,15.6666667 5,12.5 C5,7.25329488 9.25329488,3 14.5,3 C19.426981,3 23.5293169,6.78106851 23.9302233,11.6917116 Z" id="Rectangle-2" fill="#1C3C55"></path>
                </g>
                <path d="M30.8682341,23.0127793 C30.8611763,22.7367271 31.0792393,22.5072211 31.3552915,22.5001633 C31.6313436,22.4931055 31.8608496,22.7111685 31.8679074,22.9872207 C31.8997285,24.2318371 31.7299667,25.4271837 31.3584217,26.5708166 C30.9875562,27.7123583 30.075034,28.9234588 29.1097263,29.6208184 C28.8858847,29.7825265 28.5733348,29.7321573 28.4116266,29.5083157 C28.2499185,29.284474 28.3002877,28.9719242 28.5241293,28.810216 C29.3218201,28.2339466 30.1038489,27.1960371 30.4073545,26.2618326 C30.7434881,25.2271974 30.8971814,24.1449943 30.8682341,23.0127793 Z" id="Path-48-Copy" fill="#FF9500"></path>
            </g>
        </g>
    </g>
</svg>