<?xml version="1.0" encoding="UTF-8"?>
<svg width="35px" height="30px" viewBox="0 0 35 30" version="1.1" xmlns="http://www.w3.org/2000/svg" xmlns:xlink="http://www.w3.org/1999/xlink">
    <!-- Generator: Sketch 49 (51002) - http://www.bohemiancoding.com/sketch -->
    <title>Group</title>
    <desc>Created with Sketch.</desc>
    <defs></defs>
    <g id="Symbols" stroke="none" stroke-width="1" fill="none" fill-rule="evenodd">
        <g id="The-simplest-of-all-payment-systems.icon" transform="translate(-13.000000, -15.000000)">
            <g id="Group" transform="translate(13.000000, 15.000000)">
                <g id="Group-3">
                    <polygon id="ion-android-arrow-forward---Ionicons" fill="#95AABF" points="14 11.4912281 14 10.5087719 33.0724987 10.5087719 30.2752712 7.70175439 30.9804546 7 35 11 30.9804546 15 30.2517651 14.2982456 33.0724987 11.4912281"></polygon>
                    <polygon id="ion-android-arrow-forward---Ionicons" fill="#F7931A" points="13 4.49122807 13 3.50877193 26.1280731 3.50877193 23.4114961 0.701754386 24.0963475 0 28 4 24.0963475 8 23.3886678 7.29824561 26.1280731 4.49122807"></polygon>
                    <polygon id="ion-android-arrow-forward---Ionicons" fill="#1C3C55" points="21 18.4912281 1.92750129 18.4912281 4.74823489 21.2982456 4.01954538 22 0 18 4.01954538 14 4.72472878 14.7017544 1.92750129 17.5087719 21 17.5087719"></polygon>
                </g>
                <g id="Group-2" transform="translate(6.000000, 6.000000)">
                    <circle id="Oval" fill="#FFFFFF" cx="12" cy="12" r="11"></circle>
                    <path d="M12,23.5 C5.64872538,23.5 0.5,18.3512746 0.5,12 C0.5,5.64872538 5.64872538,0.5 12,0.5 C18.3512746,0.5 23.5,5.64872538 23.5,12 C23.5,18.3512746 18.3512746,23.5 12,23.5 Z M12,22.5 C17.7989899,22.5 22.5,17.7989899 22.5,12 C22.5,6.20101013 17.7989899,1.5 12,1.5 C6.20101013,1.5 1.5,6.20101013 1.5,12 C1.5,17.7989899 6.20101013,22.5 12,22.5 Z" id="Oval" fill="#1C1F30" fill-rule="nonzero"></path>
                    <path d="M12,23.5 C5.64872538,23.5 0.5,18.3512746 0.5,12 C0.5,5.64872538 5.64872538,0.5 12,0.5 C18.3512746,0.5 23.5,5.64872538 23.5,12 C23.5,18.3512746 18.3512746,23.5 12,23.5 Z M12,22.5 C17.7989899,22.5 22.5,17.7989899 22.5,12 C22.5,6.20101013 17.7989899,1.5 12,1.5 C6.20101013,1.5 1.5,6.20101013 1.5,12 C1.5,17.7989899 6.20101013,22.5 12,22.5 Z" id="Oval" fill="#1C1F30" fill-rule="nonzero"></path>
                    <path d="M17.6243872,7.66997718 C17.8066538,7.46253199 18.1225776,7.44212068 18.3300228,7.62438725 C18.537468,7.80665382 18.5578793,8.12257763 18.3756128,8.33002282 L11.3466113,16.3300228 C11.1687774,16.5324231 10.8625504,16.5575211 10.654134,16.3867775 L6.68313544,13.133567 C6.46952412,12.9585676 6.43822301,12.6435363 6.61322248,12.4299249 C6.78822194,12.2163136 7.10325323,12.1850125 7.31686456,12.360012 L10.91421,15.30711 L17.6243872,7.66997718 Z" id="Path-4" fill="#FF9500" fill-rule="nonzero"></path>
                </g>
            </g>
        </g>
    </g>
</svg>