<?xml version="1.0" encoding="UTF-8"?>
<svg width="36px" height="40px" viewBox="0 0 36 40" version="1.1" xmlns="http://www.w3.org/2000/svg" xmlns:xlink="http://www.w3.org/1999/xlink">
    <!-- Generator: Sketch 49 (51002) - http://www.bohemiancoding.com/sketch -->
    <title>Group 2</title>
    <desc>Created with Sketch.</desc>
    <defs></defs>
    <g id="new-TEMPLATE" stroke="none" stroke-width="1" fill="none" fill-rule="evenodd">
        <g id="Bitcoin.org---Bitcoin-core-Template" transform="translate(-495.000000, -10000.000000)">
            <g id="Group-30" transform="translate(483.000000, 9989.000000)">
                <g id="Group-2" transform="translate(12.000000, 11.000000)">
                    <g id="Group" transform="translate(0.000000, 12.071429)" fill-rule="nonzero">
                        <path d="M10.3948413,14.4605655 C10.3948413,15.0161376 9.94446105,15.4665179 9.38888889,15.4665179 L2.68253968,15.4665179 C2.12696752,15.4665179 1.6765873,15.0161376 1.6765873,14.4605655 L1.6765873,2.68253968 C1.6765873,2.12696752 2.12696752,1.6765873 2.68253968,1.6765873 L9.38888889,1.6765873 C9.94446105,1.6765873 10.3948413,2.12696752 10.3948413,2.68253968 L10.3948413,14.4605655 Z M9.72420635,14.4605655 L9.72420635,2.68253968 C9.72420635,2.49734896 9.57407961,2.34722222 9.38888889,2.34722222 L2.68253968,2.34722222 C2.49734896,2.34722222 2.34722222,2.49734896 2.34722222,2.68253968 L2.34722222,14.4605655 C2.34722222,14.6457562 2.49734896,14.7958829 2.68253968,14.7958829 L9.38888889,14.7958829 C9.57407961,14.7958829 9.72420635,14.6457562 9.72420635,14.4605655 Z" id="phone_iphone---material" fill="#1C3C55"></path>
                        <path d="M11.7361111,17.4365079 C11.7361111,18.3624615 10.9854774,19.1130952 10.0595238,19.1130952 L2.01190476,19.1130952 C1.08595116,19.1130952 0.33531746,18.3624615 0.33531746,17.4365079 L0.33531746,2.01190476 C0.33531746,1.08595116 1.08595116,0.33531746 2.01190476,0.33531746 L10.0595238,0.33531746 C10.9854774,0.33531746 11.7361111,1.08595116 11.7361111,2.01190476 L11.7361111,17.4365079 Z M11.0654762,17.4365079 L11.0654762,2.01190476 C11.0654762,1.4563326 10.615096,1.00595238 10.0595238,1.00595238 L2.01190476,1.00595238 C1.4563326,1.00595238 1.00595238,1.4563326 1.00595238,2.01190476 L1.00595238,17.4365079 C1.00595238,17.9920801 1.4563326,18.4424603 2.01190476,18.4424603 L10.0595238,18.4424603 C10.615096,18.4424603 11.0654762,17.9920801 11.0654762,17.4365079 Z" id="phone_iphone---material" fill="#F7931A"></path>
                        <path d="M5.39548807,17.913229 C5.15306893,17.6775438 5.0297619,17.3727014 5.0297619,17.0197675 C5.0297619,16.6662128 5.15601653,16.359107 5.40273287,16.1190586 C5.64645367,15.8819249 5.94807528,15.7599206 6.28960878,15.7599206 C6.63431756,15.7599206 6.93628339,15.8868835 7.17564258,16.1328916 C7.41277633,16.3766124 7.53478058,16.678234 7.53478058,17.0197675 C7.53478058,17.3625457 7.41178058,17.6632124 7.17241711,17.9025758 C6.93305363,18.1419393 6.63238698,18.2649393 6.28960878,18.2649393 C5.93986876,18.2649393 5.6354995,18.1465735 5.39548807,17.913229 Z M6.69820661,17.4283653 C6.81104657,17.3155254 6.86414566,17.1857276 6.86414566,17.0197675 C6.86414566,16.8525627 6.81005083,16.7188283 6.69498114,16.6005622 C6.58213689,16.4845834 6.4536383,16.4305556 6.28960878,16.4305556 C6.12240397,16.4305556 5.98866952,16.4846504 5.87040345,16.5997201 C5.75513292,16.7118752 5.70039683,16.845017 5.70039683,17.0197675 C5.70039683,17.1951388 5.75318888,17.3256525 5.86297318,17.4323872 C5.97516519,17.5414628 6.11104363,17.5943044 6.28960878,17.5943044 C6.45556888,17.5943044 6.58536664,17.5412053 6.69820661,17.4283653 Z" id="Path" fill="#95AABF"></path>
                    </g>
                    <g id="Group" transform="translate(12.071429, 0.000000)" stroke-width="0.8">
                        <rect id="Rectangle-2" stroke="#95AABF" x="9.68571429" y="15.2571429" width="3.84285714" height="3.64628238"></rect>
                        <rect id="Rectangle-5" stroke="#1C3C55" x="3.18571429" y="2.25714286" width="16.8789028" height="11.2882045" rx="1"></rect>
                        <rect id="Rectangle-5" stroke="#F7931A" x="1.14867182" y="0.864285714" width="20.9529877" height="14.0739188" rx="2"></rect>
                        <path d="M4.14767226,20.9571429 L19.0666135,20.9571429 C18.8763356,19.8299857 17.895574,18.9714286 16.7142857,18.9714286 L6.5,18.9714286 C5.31871167,18.9714286 4.3379501,19.8299857 4.14767226,20.9571429 Z" id="Rectangle-3" stroke="#95AABF"></path>
                    </g>
                    <g id="notebook" transform="translate(14.857143, 23.214286)" stroke-width="0.8">
                        <path d="M1.85714286,11.4825309 L1.85714286,2 C1.85714286,0.8954305 2.75257336,2.02906125e-16 3.85714286,0 L16.5714286,0 C17.6759981,7.78148667e-16 18.5714286,0.8954305 18.5714286,2 L18.5714286,11.4825309" id="Rectangle-24" stroke="#F7931A"></path>
                        <path d="M3.71428571,9.12241389 L3.71428571,2.16479968 C3.71428571,1.61251493 4.16200096,1.16479968 4.71428571,1.16479968 L15.7142857,1.16479968 C16.2665705,1.16479968 16.7142857,1.61251493 16.7142857,2.16479968 L16.7142857,9.2220792 C16.7142857,9.77436395 16.2665705,10.2220792 15.7142857,10.2220792 C15.7112656,10.2220792 15.7082456,10.2220655 15.7052256,10.2220382 L4.7052256,10.1223728 C4.15649831,10.1174011 3.71428571,9.6711637 3.71428571,9.12241389 Z" id="Rectangle-24" stroke="#1C3C55"></path>
                        <path d="M1.37236355,11.9635963 C1.68894128,11.5103146 2.38791413,11.1428571 2.95517333,11.1428571 L17.4733981,11.1428571 C18.0309821,11.1428571 18.7373436,11.5070406 19.0562079,11.9635963 L20.4285714,13.9285714 L0,13.9285714 L1.37236355,11.9635963 Z" id="Rectangle-34" stroke="#95AABF" stroke-linejoin="round"></path>
                        <path d="M0,13.9285714 L20.4285714,13.9285714 L20.4285714,14.8571429 C20.4285714,15.3699787 20.020503,15.7857143 19.4977142,15.7857143 L0.930857267,15.7857143 C0.416758994,15.7857143 0,15.3735541 0,14.8571429 L0,13.9285714 Z" id="Rectangle-111" stroke="#95AABF" stroke-linecap="round" stroke-linejoin="round"></path>
                    </g>
                </g>
            </g>
        </g>
    </g>
</svg>