<?xml version="1.0" encoding="UTF-8"?>
<svg width="30px" height="30px" viewBox="0 0 30 30" version="1.1" xmlns="http://www.w3.org/2000/svg" xmlns:xlink="http://www.w3.org/1999/xlink">
    <!-- Generator: Sketch 49 (51002) - http://www.bohemiancoding.com/sketch -->
    <title>github</title>
    <desc>Created with Sketch.</desc>
    <defs></defs>
    <g id="Symbols" stroke="none" stroke-width="1" fill="none" fill-rule="evenodd">
        <g id="//Footer-web-1200px" transform="translate(-744.000000, -605.000000)">
            <g id="//Footer">
                <g id="Bottom" transform="translate(0.000000, 580.000000)">
                    <g id="social-media" transform="translate(744.000000, 25.000000)">
                        <g id="github">
                            <rect id="Rectangle-5" fill="#2D313D" x="0" y="0" width="30" height="30" rx="1"></rect>
                            <path d="M15.1890146,7.5 C19.4339915,7.5 22.8780293,10.9440378 22.8780293,15.1890146 C22.8780293,18.5829937 20.6754469,21.4663742 17.6218669,22.4875715 C17.2314091,22.5576536 17.0912448,22.3173719 17.0912448,22.1171372 C17.0912448,21.8668437 17.1012565,21.0358695 17.1012565,20.0046605 C17.1012565,19.2838154 16.8609748,18.8232754 16.5806462,18.5829937 C18.2926533,18.3927707 20.0947661,17.7420078 20.0947661,14.7885451 C20.0947661,13.9475591 19.794414,13.266761 19.3038389,12.7261271 C19.3839328,12.5258924 19.6442379,11.7449768 19.223745,10.6837326 C18.5829937,10.4834979 17.1112683,11.4746599 17.1112683,11.4746599 C16.5005523,11.3044604 15.8397776,11.2143547 15.1890146,11.2143547 C14.5382517,11.2143547 13.877477,11.3044604 13.266761,11.4746599 C13.266761,11.4746599 11.7950355,10.4834979 11.1542843,10.6837326 C10.7337913,11.7449768 10.9940965,12.5258924 11.0741904,12.7261271 C10.5836152,13.266761 10.2832631,13.9475591 10.2832631,14.7885451 C10.2832631,17.731996 12.0753642,18.3927707 13.7873713,18.5829937 C13.5671131,18.7832285 13.3668783,19.1236276 13.2967962,19.6142027 C12.8562797,19.8144375 11.7349651,20.1548366 11.0641787,18.9734515 C10.6436857,18.2425947 9.8827936,18.1825242 9.8827936,18.1825242 C9.13191326,18.1725125 9.83273491,18.6530759 9.83273491,18.6530759 C10.3333218,18.8833459 10.6837326,19.7743905 10.6837326,19.7743905 C11.1342608,21.1459986 13.2767727,20.6854587 13.2767727,20.6854587 C13.2767727,21.3262099 13.2867844,21.9269142 13.2867844,22.1171372 C13.2867844,22.3173719 13.1466201,22.5576536 12.7561623,22.4875715 C9.70258232,21.4663742 7.5,18.5829937 7.5,15.1890146 C7.5,10.9440378 10.9440378,7.5 15.1890146,7.5 Z M10.4134157,18.5429468 C10.3933922,18.5829937 10.3333218,18.5930055 10.2832631,18.5629703 C10.2231927,18.5329351 10.1931575,18.4828764 10.2131809,18.4428294 C10.2332044,18.4127942 10.2832631,18.4027825 10.3433335,18.4228059 C10.403404,18.4528411 10.4334392,18.5028998 10.4134157,18.5429468 Z M10.7237796,18.8833459 C10.6837326,18.9233928 10.6136505,18.9033694 10.5635918,18.8533107 C10.5135331,18.7932402 10.5035213,18.7231581 10.5435683,18.6931229 C10.5836152,18.6530759 10.6536974,18.6730994 10.7037561,18.7231581 C10.7538148,18.7832285 10.7638265,18.8533107 10.7237796,18.8833459 Z M11.0241317,19.3338741 C10.9840848,19.3639093 10.9039909,19.3338741 10.8539322,19.2637919 C10.8038735,19.1937097 10.8038735,19.1136158 10.8539322,19.0835806 C10.9039909,19.0435337 10.9840848,19.0735689 11.0241317,19.1436511 C11.0741904,19.2137332 11.0741904,19.2938271 11.0241317,19.3338741 Z M11.4446247,19.7543671 C11.4045777,19.8044258 11.3144721,19.794414 11.2443899,19.7243318 C11.1743078,19.6642614 11.1542843,19.5741558 11.204343,19.5341088 C11.2443899,19.4840501 11.3344956,19.4940619 11.4045777,19.564144 C11.4646482,19.6242145 11.4846716,19.7143201 11.4446247,19.7543671 Z M12.0152937,20.0046605 C11.9952703,20.0647309 11.9051646,20.0947661 11.8250707,20.0647309 C11.7349651,20.0447075 11.6748947,19.9746253 11.6949181,19.9145549 C11.7149416,19.8544844 11.8050473,19.8244492 11.8851412,19.8444727 C11.9752468,19.8745079 12.0353172,19.9445901 12.0152937,20.0046605 Z M12.6460332,20.0547192 C12.6460332,20.1147896 12.5759511,20.1648483 12.4858454,20.1648483 C12.385728,20.1748601 12.3156459,20.1248014 12.3156459,20.0547192 C12.3156459,19.9946488 12.385728,19.9445901 12.4758337,19.9445901 C12.5659393,19.9345783 12.6460332,19.984637 12.6460332,20.0547192 Z M13.226714,19.9546018 C13.2367258,20.0146722 13.1766553,20.0747427 13.0865497,20.0947661 C12.9964441,20.1147896 12.9163501,20.0747427 12.9063384,20.0146722 C12.8963267,19.9445901 12.9563971,19.8845197 13.0465027,19.8644962 C13.1366084,19.8544844 13.2167023,19.8945314 13.226714,19.9546018 Z" id="github---FontAwesome" fill="#FFFFFF"></path>
                        </g>
                    </g>
                </g>
            </g>
        </g>
    </g>
</svg>