<?xml version="1.0" encoding="UTF-8"?>
<svg width="38px" height="41px" viewBox="0 0 38 41" version="1.1" xmlns="http://www.w3.org/2000/svg" xmlns:xlink="http://www.w3.org/1999/xlink">
    <!-- Generator: Sketch 49 (51002) - http://www.bohemiancoding.com/sketch -->
    <title>Group 3</title>
    <desc>Created with Sketch.</desc>
    <defs></defs>
    <g id="Symbols" stroke="none" stroke-width="1" fill="none" fill-rule="evenodd">
        <g id="Network-monitoring.icon" transform="translate(-12.000000, -9.000000)">
            <g id="Group-3" transform="translate(12.000000, 10.000000)">
                <g id="monitor" transform="translate(0.000000, 9.000000)" fill-rule="nonzero">
                    <rect id="Rectangle-path" fill="#C9D4DE" x="24.8669439" y="18.0332952" width="1.16424116" height="1.16424116"></rect>
                    <rect id="Rectangle-path" fill="#C9D4DE" x="22.5384615" y="18.0332952" width="1.16424116" height="1.16424116"></rect>
                    <rect id="Rectangle-path" fill="#C9D4DE" x="27.1954262" y="15.7048129" width="1.16424116" height="1.16424116"></rect>
                    <rect id="Rectangle-path" fill="#C9D4DE" x="27.1954262" y="18.0332952" width="1.16424116" height="1.16424116"></rect>
                    <rect id="Rectangle-path" fill="#C9D4DE" x="20.2099792" y="18.0332952" width="1.16424116" height="1.16424116"></rect>
                    <rect id="Rectangle-path" fill="#C9D4DE" x="27.1954262" y="13.3763306" width="1.16424116" height="1.16424116"></rect>
                    <rect id="Rectangle-path" fill="#C9D4DE" x="27.1954262" y="11.0478482" width="1.16424116" height="1.16424116"></rect>
                    <rect id="Rectangle-path" fill="#C9D4DE" x="9.73180873" y="0.569677755" width="1.16424116" height="1.16424116"></rect>
                    <rect id="Rectangle-path" fill="#C9D4DE" x="12.0602911" y="0.569677755" width="1.16424116" height="1.16424116"></rect>
                    <rect id="Rectangle-path" fill="#C9D4DE" x="16.7172557" y="0.569677755" width="1.16424116" height="1.16424116"></rect>
                    <rect id="Rectangle-path" fill="#C9D4DE" x="14.3887734" y="0.569677755" width="1.16424116" height="1.16424116"></rect>
                    <rect id="Rectangle-path" fill="#C9D4DE" x="9.73180873" y="5.22664241" width="1.16424116" height="1.16424116"></rect>
                    <rect id="Rectangle-path" fill="#C9D4DE" x="9.73180873" y="2.89816008" width="1.16424116" height="1.16424116"></rect>
                    <rect id="Rectangle-path" fill="#C9D4DE" x="9.73180873" y="7.55512474" width="1.16424116" height="1.16424116"></rect>
                    <rect id="Rectangle-path" fill="#C9D4DE" x="9.73180873" y="9.88360707" width="1.16424116" height="1.16424116"></rect>
                    <g id="icon/Desktop" transform="translate(0.000000, 12.000000)">
                        <g id="Group">
                            <g id="Group-2">
                                <path d="M7.96774194,14.2393973 L7.96774194,16.0418527 L11.0322581,16.0418527 L11.0322581,14.2393973 L7.96774194,14.2393973 Z M7.35483871,13.8789062 L11.6451613,13.8789062 L11.6451613,16.4023437 L7.35483871,16.4023437 L7.35483871,13.8789062 Z" id="Rectangle-2" fill="#95AABF"></path>
                                <path d="M14.0201613,16.5705589 L4.8266129,16.5705589 C4.02602717,16.5705589 3.34494517,17.0972051 3.0925293,17.8322776 L15.7542449,17.8322776 C15.501829,17.0972051 14.820747,16.5705589 14.0201613,16.5705589 Z M4.8266129,15.9396995 L14.0201613,15.9396995 C15.3741497,15.9396995 16.4717742,17.0694809 16.4717742,18.463137 L2.375,18.463137 C2.375,17.0694809 3.47262448,15.9396995 4.8266129,15.9396995 Z" id="Rectangle-3" fill="#95AABF"></path>
                                <path d="M1.22580645,0.630859375 C0.887309347,0.630859375 0.612903226,0.913304738 0.612903226,1.26171875 L0.612903226,13.2480469 C0.612903226,13.5964609 0.887309347,13.8789062 1.22580645,13.8789062 L17.7741935,13.8789062 C18.1126907,13.8789062 18.3870968,13.5964609 18.3870968,13.2480469 L18.3870968,1.26171875 C18.3870968,0.913304738 18.1126907,0.630859375 17.7741935,0.630859375 L1.22580645,0.630859375 Z M1.22580645,0 L17.7741935,0 C18.4511878,-1.28005231e-16 19,0.564890726 19,1.26171875 L19,13.2480469 C19,13.9448749 18.4511878,14.5097656 17.7741935,14.5097656 L1.22580645,14.5097656 C0.548812242,14.5097656 8.29078792e-17,13.9448749 0,13.2480469 L0,1.26171875 C-8.29078792e-17,0.564890726 0.548812242,1.28005231e-16 1.22580645,0 Z" id="Rectangle-6" fill="#FF9500"></path>
                                <path d="M2.4516129,2.5234375 L2.4516129,11.9863281 L16.5483871,11.9863281 L16.5483871,2.5234375 L2.4516129,2.5234375 Z M1.83870968,1.89257812 L17.1612903,1.89257812 L17.1612903,12.6171875 L1.83870968,12.6171875 L1.83870968,1.89257812 Z" id="Rectangle-5" fill="#1C3C55"></path>
                            </g>
                        </g>
                    </g>
                </g>
                <g id="Group-2" transform="translate(19.000000, 0.000000)" fill="#95AABF">
                    <path d="M9,0 C11.4807816,0 13.6009527,0.879798894 15.3605769,2.63942308 C17.1202011,4.39904726 18,6.51921837 18,9 C18,11.4807816 17.1202011,13.6009527 15.3605769,15.3605769 C13.6009527,17.1202011 11.4807816,18 9,18 C6.51921837,18 4.39904726,17.1202011 2.63942308,15.3605769 C0.879798894,13.6009527 0,11.4807816 0,9 C0,6.51921837 0.879798894,4.39904726 2.63942308,2.63942308 C4.39904726,0.879798894 6.51921837,0 9,0 Z M6.64615385,18 L7.1147929,16.8511945 C7.17159792,16.7119447 7.2,16.563994 7.2,16.4073379 C7.2,16.2506818 7.12899479,16.1027311 6.98698225,15.9634812 C6.53254211,15.4761068 6.20591815,15.1105814 6.00710059,14.8668942 C5.95029557,14.7972693 5.86508933,14.5971006 5.75147929,14.2663823 C5.63786925,13.9356639 5.59526613,13.7354952 5.62366864,13.6658703 C5.76568118,13.3525582 5.87928951,12.9348149 5.96449704,12.412628 C6.04970457,11.9948785 5.86509103,11.6119471 5.41065089,11.2638225 C5.21183333,11.1245727 5.01301875,10.950513 4.81420118,10.7416382 C4.61538362,10.5327635 4.39526748,10.3064859 4.15384615,10.0627986 C3.91242483,9.81911141 3.72071077,9.62764575 3.57869822,9.4883959 C3.06745307,9.03583391 2.78343224,8.7051205 2.72662722,8.49624573 C2.47100464,7.59112175 2.32899422,7.10375461 2.30059172,7.03412969 C2.04496914,6.5815677 1.88875768,6.10290355 1.83195266,5.59812287 C1.77514764,5.09334219 1.78934869,4.56246012 1.87455621,4.00546075 C1.87455621,3.76177353 1.93136123,3.9598167 1.87455621,3.3331924 C0.68165084,5.00419052 0,6.39009055 0,8.75733788 C0,11.33346 0.738454154,13.5266121 2.21538462,15.3368601 C3.4366925,16.8337959 4.9136008,17.7215003 6.64615385,18 Z M14.8736842,15.4871795 C15.9789529,14.2905923 16.7210507,12.8888969 17.1,11.2820513 L16.2,11.1794872 C15.5368388,10.3589703 15.1736845,9.58974718 15.1105263,8.87179487 C15.0789472,8.56410103 15.0631579,8.08547333 15.0631579,7.43589744 C15.0631579,6.78632154 15.0315793,6.2906 14.9684211,5.94871795 C14.9052628,5.6410241 14.6921071,5.21367795 14.3289474,4.66666667 C13.9657877,4.11965538 13.7526319,3.76068462 13.6894737,3.58974359 C13.5947364,3.35042615 13.4447379,2.99145538 13.2394737,2.51282051 C13.0342095,2.03418564 12.8684217,1.67521487 12.7421053,1.43589744 C12.7736844,1.43589744 12.828947,1.45299128 12.9078947,1.48717949 C12.9868425,1.52136769 13.0421051,1.55555538 13.0736842,1.58974359 C13.3894753,1.52136718 13.6105257,1.48717949 13.7368421,1.48717949 C12.7263107,0.700850769 11.5263227,0.205129231 10.1368421,0 L10.1368421,0.41025641 L10.3263158,0.871794872 L9.66315789,1.53846154 L9.23684211,1.38461538 L8.76315789,0.871794872 L8.28947368,0.256410256 L7.62631579,0 C6.96315458,0.102564615 6.25263537,0.324784615 5.49473684,0.666666667 L5.49473684,1.02564103 C5.58947416,0.957264615 5.76315663,0.888889231 6.01578947,0.820512821 C6.26842232,0.75213641 6.45789411,0.683761026 6.58421053,0.615384615 C6.64736874,0.58119641 6.89999779,0.735041026 7.34210526,1.07692308 C7.31052616,1.11111128 7.13684368,1.27350282 6.82105263,1.56410256 C6.50526158,1.85470231 6.33157911,2.05128154 6.3,2.15384615 C6.3,2.18803436 6.35526261,2.26495667 6.46578947,2.38461538 C6.57631634,2.5042741 6.63157895,2.59829026 6.63157895,2.66666667 C6.63157895,2.76923128 6.62368429,2.91452897 6.60789474,3.1025641 C6.59210518,3.29059923 6.58421053,3.43589692 6.58421053,3.53846154 C7.24737174,2.82050923 7.59473668,2.46153846 7.62631579,2.46153846 C7.91052774,2.39316205 8.25789268,2.53845974 8.66842105,2.8974359 C9.07894942,3.25641205 9.31578916,3.55555436 9.37894737,3.79487179 C9.41052647,3.89743641 9.34736921,4.0427341 9.18947368,4.23076923 C9.03157816,4.41880436 8.77894911,4.66666513 8.43157895,4.97435897 C8.08420879,5.28205282 7.87894768,5.47008513 7.81578947,5.53846154 C7.75263126,5.60683795 7.61052742,5.71794795 7.38947368,5.87179487 C7.16841995,6.02564179 7.01052679,6.17093949 6.91578947,6.30769231 C6.82105216,6.44444513 6.80526284,6.59828974 6.86842105,6.76923077 C7.18421211,7.45299487 7.26315868,7.86324718 7.10526316,8 C7.04210495,8.06837641 6.96315837,8.07692333 6.86842105,8.02564103 C6.77368374,7.97435872 6.70263182,7.91453026 6.65526316,7.84615385 C6.6078945,7.77777744 6.54473724,7.69230821 6.46578947,7.58974359 C6.38684171,7.48717897 6.33157911,7.41880359 6.3,7.38461538 C6.11052537,7.14529795 5.51053137,7.02564103 4.5,7.02564103 C4.5,8.11966359 4.73683974,8.85469897 5.21052632,9.23076923 C6.50526963,10.2564154 7.24736747,10.8205123 7.43684211,10.9230769 C7.62631674,11.0256415 8.00526032,11.0256415 8.57368421,10.9230769 C9.14210811,10.8205123 9.50526237,10.8376062 9.66315789,10.974359 C10.7052684,11.7606877 11.4473662,12.2564092 11.8894737,12.4615385 C12.1736856,12.5641031 12.4894719,12.79487 12.8368421,13.1538462 C13.1842123,13.5128223 13.2789482,13.8119646 13.1210526,14.0512821 C12.7105243,14.7350462 12.4894738,15.1282046 12.4578947,15.2307692 C12.2052619,15.8119687 11.8894756,16.2393149 11.5105263,16.5128205 C11.0999979,16.8547026 10.7684223,17.3504241 10.5157895,18 C12.2210612,17.6239297 13.6736782,16.7863313 14.8736842,15.4871795 Z" id="ion-android-globe---Ionicons" opacity="0.5"></path>
                    <path d="M9,18.3 C3.86375183,18.3 -0.3,14.1362482 -0.3,9 C-0.3,3.86375183 3.86375183,-0.3 9,-0.3 C14.1362482,-0.3 18.3,3.86375183 18.3,9 C18.3,14.1362482 14.1362482,18.3 9,18.3 Z M9,17.7 C13.8048773,17.7 17.7,13.8048773 17.7,9 C17.7,4.19512268 13.8048773,0.3 9,0.3 C4.19512268,0.3 0.3,4.19512268 0.3,9 C0.3,13.8048773 4.19512268,17.7 9,17.7 Z" id="Oval-2" fill-rule="nonzero"></path>
                </g>
            </g>
        </g>
    </g>
</svg>