<?xml version="1.0" encoding="UTF-8"?>
<svg width="30px" height="30px" viewBox="0 0 30 30" version="1.1" xmlns="http://www.w3.org/2000/svg" xmlns:xlink="http://www.w3.org/1999/xlink">
    <!-- Generator: Sketch 49 (51002) - http://www.bohemiancoding.com/sketch -->
    <title>icon/wallet</title>
    <desc>Created with Sketch.</desc>
    <defs></defs>
    <g id="Developer-Documentation" stroke="none" stroke-width="1" fill="none" fill-rule="evenodd">
        <g id="22.01.18-Bitcoin.org_Developer-Documentation-Desktop-1200px--" transform="translate(-385.000000, -1035.000000)">
            <g id="//contenct" transform="translate(215.000000, 513.000000)">
                <g id="developer-documentation" transform="translate(0.000000, 115.000000)">
                    <g id="box4" transform="translate(0.000000, 353.000000)">
                        <g id="icon/wallet" transform="translate(155.000000, 40.000000)">
                            <g>
                                <rect id="Rectangle-2" x="0" y="0" width="60" height="60"></rect>
                                <path d="M23.6814461,20.2272841 L34.0170647,15.2972891 C34.9035097,14.874463 35.9657919,15.1578376 36.5238577,15.9660017 L39.4664235,20.2272841" id="Path-6" stroke="#1C1F30"></path>
                                <path d="M42.2986896,44 L17.7011145,44 C16.211682,44 15,42.7817203 15,41.2846166 L15,22.4462748 C15,20.9489742 16.2118779,19.7308914 17.7011145,19.7308914 L26.2251973,19.7308914 C26.2374722,19.7251154 30.6132516,19.7251154 39.3525356,19.7308914 L42.2988855,19.7308914 C43.788318,19.7308914 45,20.9491711 45,22.4462748 L45,41.2846166 C44.9998041,42.7817203 43.7881221,44 42.2986896,44 Z M17.7011145,20.7154394 C16.751709,20.7154394 15.9793744,21.491854 15.9793744,22.4462748 L15.9793744,41.2846166 C15.9793744,42.2390374 16.751709,43.015452 17.7011145,43.015452 L42.2986896,43.015452 C43.2480951,43.015452 44.0204297,42.2390374 44.0204297,41.2846166 L44.0204297,35.4387643 L34.8991244,35.4387643 C33.7091846,35.4387643 32.7409751,34.465637 32.7409751,33.2694112 L32.7409751,30.4612833 C32.7409751,29.2652544 33.7089887,28.2919302 34.8991244,28.2919302 L44.0204297,28.2919302 L44.0204297,22.4462748 C44.0204297,21.491854 43.2480951,20.7154394 42.2986896,20.7154394 L17.7011145,20.7154394 Z M34.8991244,29.2764782 C34.2492116,29.2764782 33.7203494,29.8079372 33.7203494,30.4612833 L33.7203494,33.2696081 C33.7203494,33.9227572 34.2490157,34.4544132 34.8991244,34.4544132 L44.0204297,34.4544132 L44.0204297,29.2764782 L34.8991244,29.2764782 Z M29.4561534,19.7308914 L38.3402542,19.7308914 L29.4561534,19.7308914 Z M36.4624018,33.6153813 C35.5026149,33.6153813 34.7214659,32.8303027 34.7214659,31.8652488 C34.7214659,30.9001948 35.5024191,30.1151162 36.4624018,30.1151162 C37.4223846,30.1151162 38.2033377,30.9001948 38.2033377,31.8652488 C38.2033377,32.8303027 37.4223846,33.6153813 36.4624018,33.6153813 Z M36.4624018,31.0998611 C36.0424461,31.0998611 35.7008403,31.4432715 35.7008403,31.8654457 C35.7008403,32.2876199 36.0424461,32.6310302 36.4624018,32.6310302 C36.8823575,32.6310302 37.2239633,32.2876199 37.2239633,31.8654457 C37.2239633,31.4432715 36.8823575,31.0998611 36.4624018,31.0998611 Z" id="Shape" fill="#FF9500" fill-rule="nonzero"></path>
                            </g>
                        </g>
                    </g>
                </g>
            </g>
        </g>
    </g>
</svg>