<?xml version="1.0" encoding="UTF-8" standalone="no"?>
<!-- Created with Inkscape (http://www.inkscape.org/) -->

<svg
   xmlns:dc="http://purl.org/dc/elements/1.1/"
   xmlns:cc="http://creativecommons.org/ns#"
   xmlns:rdf="http://www.w3.org/1999/02/22-rdf-syntax-ns#"
   xmlns:svg="http://www.w3.org/2000/svg"
   xmlns="http://www.w3.org/2000/svg"
   xmlns:sodipodi="http://sodipodi.sourceforge.net/DTD/sodipodi-0.dtd"
   xmlns:inkscape="http://www.inkscape.org/namespaces/inkscape"
   width="32"
   height="32"
   id="svg3026"
   version="1.1"
   inkscape:version="0.48.4 r9939"
   sodipodi:docname="ico_donate7.svg"
   inkscape:export-filename="/media/X/bitcoin.org/current/img/ico_donate.png"
   inkscape:export-xdpi="90"
   inkscape:export-ydpi="90">
  <defs
     id="defs3028" />
  <sodipodi:namedview
     id="base"
     pagecolor="#ffffff"
     bordercolor="#666666"
     borderopacity="1.0"
     inkscape:pageopacity="0.0"
     inkscape:pageshadow="2"
     inkscape:zoom="15.999999"
     inkscape:cx="-5.5831177"
     inkscape:cy="30.91011"
     inkscape:current-layer="layer1"
     showgrid="true"
     inkscape:grid-bbox="true"
     inkscape:document-units="px"
     inkscape:window-width="1680"
     inkscape:window-height="1026"
     inkscape:window-x="0"
     inkscape:window-y="24"
     inkscape:window-maximized="1"
     inkscape:object-paths="false"
     inkscape:snap-nodes="false"
     inkscape:snap-global="false" />
  <metadata
     id="metadata3031">
    <rdf:RDF>
      <cc:Work
         rdf:about="">
        <dc:format>image/svg+xml</dc:format>
        <dc:type
           rdf:resource="http://purl.org/dc/dcmitype/StillImage" />
        <dc:title></dc:title>
      </cc:Work>
    </rdf:RDF>
  </metadata>
  <g
     id="layer1"
     inkscape:label="Layer 1"
     inkscape:groupmode="layer"
     transform="translate(0,-16)">
    <rect
       style="fill:#000000;fill-opacity:1;stroke:none"
       id="rect3038"
       width="4.1544733"
       height="12.987413"
       x="0.19099927"
       y="26.261992"
       ry="0.3391906" />
    <path
       style="fill:#000000;fill-opacity:1;stroke:none"
       d="m 5.5756463,38.440283 c 0.00779,0.270773 0.2204704,0.271763 0.2204704,0.271763 0,0 0.6641035,0.686812 3.1405077,1.178729 2.4764046,0.491917 9.3311396,1.037386 10.5296946,0.820166 4.64221,-0.83933 4.923547,-1.747358 6.166975,-3.070719 1.803062,-1.966645 5.403389,-5.534565 6.077695,-6.693424 0.101036,-0.635719 -0.863533,-1.00296 -2.092599,-0.678953 -2.585111,3.317837 1.644656,-1.837711 1.920192,-2.292966 0.53728,-0.705703 -2.008787,-1.878312 -2.911421,-0.77125 -1.328671,1.235452 -1.044521,1.057849 -2.552926,2.765978 0,0 0.04821,-0.02108 -0.08671,-0.04494 0.168958,-0.62441 -0.152078,-0.667319 0.82973,-2.255058 0.650461,-1.072377 0.746407,-1.128731 0.730736,-1.578012 -0.01552,-0.449281 -1.799794,-1.140637 -2.980405,-0.246896 -0.382259,0.260144 -0.471823,0.382436 -1.017413,1.015781 -0.655409,0.760832 -0.898193,2.118222 -1.162089,2.541315 -0.263896,0.423093 -0.614998,1.460016 -2.400839,1.71233 -1.785844,0.252313 -1.913255,0.275351 -2.876555,0.293594 -0.89989,0.01702 -1.389613,-0.07596 -2.662069,-0.451932 -0.515892,-0.152429 -1.933328,-1.616039 -0.613322,-1.742734 0,0 2.260583,-0.348077 3.657581,-0.543029 1.048111,-0.14627 1.459981,-0.562486 1.86724,-0.915848 0.511338,-0.443667 0.681307,-1.267578 0.157115,-1.695979 -1.930145,-0.32042 -1.572037,0.04148 -3.456992,-0.643092 -1.488147,-0.540464 -4.762972,-0.415632 -6.7082607,0.328028 -2.8833397,0.709232 -3.3246934,0.98369 -3.4145273,0.990089 -0.2206163,0.01571 -0.3337922,0.119418 -0.3477118,0.326359"
       id="path3808"
       inkscape:connector-curvature="0"
       sodipodi:nodetypes="cccccccccccczcszzssssscscsc" />
  </g>
</svg>
