<?xml version="1.0" encoding="UTF-8"?>
<svg width="45px" height="36px" viewBox="0 0 45 36" version="1.1" xmlns="http://www.w3.org/2000/svg" xmlns:xlink="http://www.w3.org/1999/xlink">
    <!-- Generator: Sketch 49 (51002) - http://www.bohemiancoding.com/sketch -->
    <title>notebook</title>
    <desc>Created with Sketch.</desc>
    <defs></defs>
    <g id="Home" stroke="none" stroke-width="1" fill="none" fill-rule="evenodd">
        <g id="19/01/18-Bitcoin.org-ver3-Desktop-1200px--" transform="translate(-1058.000000, -1080.000000)">
            <g id="//Content" transform="translate(215.000000, 961.000000)">
                <g id="Get-a-quick-overview" transform="translate(175.000000, 0.000000)">
                    <g id="Containers" transform="translate(0.000000, 73.000000)">
                        <g id="Container" transform="translate(560.000000, 0.000000)">
                            <g id="Icon" transform="translate(90.000000, 20.000000)">
                                <g id="notebook" transform="translate(19.000000, 27.000000)">
                                    <path d="M4,23.6961336 L4,2 C4,0.8954305 4.8954305,2.02906125e-16 6,0 L37,0 C38.1045695,-2.02906125e-16 39,0.8954305 39,2 L39,24" id="Rectangle-24" stroke="#FF7E00"></path>
                                    <path d="M3.53439951,24.8216937 C3.84414211,24.3678848 4.53535909,24 5.09947899,24 L37.900521,24 C38.4551479,24 39.1609374,24.3753269 39.4656005,24.8216937 L43,30 L0,30 L3.53439951,24.8216937 Z" id="Rectangle-34" stroke="#FF7E00" stroke-linejoin="round"></path>
                                    <path d="M0,30 L43,30 L43,32 C43,33.1045695 42.1018839,34 40.9980004,34 L2.00199958,34 C0.896325744,34 0,33.1122704 0,32 L0,30 Z" id="Rectangle-111" stroke="#FF7E00" stroke-linecap="round" stroke-linejoin="round"></path>
                                    <path d="M10,12.5085283 C10,12.3823099 10.0529127,12.2737167 10.159746,12.1816114 L14.5525096,9.05173814 C14.6059262,9.01705653 14.6537996,9 14.6966337,9 C14.7712155,9 14.840254,9.02842755 14.9037492,9.0858512 C14.9677484,9.14327485 15,9.21206953 15,9.29223522 C15,9.40708252 14.9521266,9.49293372 14.8563798,9.55035737 L10.7347309,12.5085283 L14.8563798,15.4496426 C14.9521266,15.5064977 15,15.5929175 15,15.7071962 C15,15.7879305 14.9677484,15.8567251 14.9037492,15.9135802 C14.840254,15.9710039 14.7712155,16 14.6966337,16 C14.6537996,16 14.6059262,15.9823749 14.5525096,15.9482619 L10.159746,12.81782 C10.0529127,12.7490253 10,12.6461176 10,12.5085283" id="Fill-24" stroke="#F7931A" stroke-width="0.5" fill="#73778A"></path>
                                    <path d="M18,19.7143097 C18,19.6381676 18.0114611,19.5809036 18.0332918,19.5431472 L24.4886169,5.15165499 C24.5322782,5.05034191 24.6043194,5 24.7031031,5 C24.768595,5 24.8346328,5.03523933 24.9012163,5.10445945 C24.967254,5.17493812 25,5.25989009 25,5.36120317 C25,5.4253891 24.983627,5.49460922 24.9503353,5.57075135 L18.5452206,19.7904518 C18.4895525,19.9301506 18.3967722,20 18.2641509,20 C18.0884142,20 18,19.9049797 18,19.7143097" id="Fill-26" stroke="#F7931A" stroke-width="0.5" fill="#73778A"></path>
                                    <path d="M26,15.7071962 C26,15.5929175 26.0478734,15.5064977 26.1436202,15.4496426 L30.2652691,12.5085283 L26.1436202,9.55035737 C26.0478734,9.49293372 26,9.40708252 26,9.29223522 C26,9.21206953 26.0317476,9.14327485 26.0952429,9.0858512 C26.1592421,9.02842755 26.2287845,9 26.3033663,9 C26.3567829,9 26.4046563,9.01705653 26.4474904,9.05173814 L30.8397501,12.1816114 C30.9460794,12.2737167 31,12.3823099 31,12.5085283 C31,12.6461176 30.9460794,12.7490253 30.8397501,12.81782 L26.4474904,15.9482619 C26.4046563,15.9823749 26.3567829,16 26.3033663,16 C26.2287845,16 26.1592421,15.9710039 26.0952429,15.9135802 C26.0317476,15.8567251 26,15.7879305 26,15.7071962" id="Fill-28" stroke="#F7931A" stroke-width="0.5" fill="#73778A"></path>
                                </g>
                            </g>
                        </g>
                    </g>
                </g>
            </g>
        </g>
    </g>
</svg>