<?xml version="1.0" encoding="UTF-8"?>
<svg xmlns="http://www.w3.org/2000/svg" width="32" height="32">
  <g stroke="#000" stroke-linecap="round" stroke-linejoin="round">
    <path d="M4.017 27.575c-1.533-1.896 4.839-4.109 8.093-5.237 0 0 4.3-1.842 6.835-1.842 1.324.003 3.758-.053 5.451.712l-8.973-14.023c-.281 3.285-1.148 4.412-2.524 7.38-1.798 3.096-9.211 12.593-10.765 10.701 1.086 1.328.942 1.142 1.882 2.308z" stroke-width="3.374"/>
    <path d="M22.184 9.402s2.04-.281 3.02 1.412c.979 1.693-.006 3.242-.006 3.242" stroke-width="3" fill="none"/>
    <path d="M20.962 4.993s5.253-1.176 8.133 3.099c2.88 4.275-.228 8.835-.228 8.835" stroke-width="3" fill="none"/>
    <path d="M9.436 24.309l2.461 6.378s1.923.161 3.465-1.105c-3.43-4.028-3.314-6.378-3.314-6.378l-2.411 1.105" stroke-width="1.125"/>
  </g>
</svg>
