<?xml version="1.0" encoding="UTF-8"?>
<svg width="42px" height="33px" viewBox="0 0 42 33" version="1.1" xmlns="http://www.w3.org/2000/svg" xmlns:xlink="http://www.w3.org/1999/xlink">
    <!-- Generator: Sketch 49 (51002) - http://www.bohemiancoding.com/sketch -->
    <title>Group</title>
    <desc>Created with Sketch.</desc>
    <defs></defs>
    <g id="new-TEMPLATE" stroke="none" stroke-width="1" fill="none" fill-rule="evenodd">
        <g id="Bitcoin.org---Bitcoin-core-Template" transform="translate(-379.000000, -7500.000000)">
            <g id="Group-12" transform="translate(215.000000, 7371.000000)">
                <g id="Group-11">
                    <g id="box1" transform="translate(0.000000, 87.000000)">
                        <g id="Group-4" transform="translate(155.000000, 30.000000)">
                            <g id="Group" transform="translate(10.000000, 13.000000)">
                                <g id="round-glasses">
                                    <g id="Group-3">
                                        <path d="M35.6521739,27.1266541 C35.6521739,28.953683 34.1742089,30.4347826 32.3510467,30.4347826 L3.30112721,30.4347826 C1.477965,30.4347826 0,28.953683 0,27.1266541 L0,3.30812854 C0,1.4810996 1.477965,0 3.30112721,0 L32.3510467,0 C34.1742089,-2.38729431e-16 35.6521739,1.4810996 35.6521739,3.30812854 L35.6521739,27.1266541 Z" id="Path" stroke="#FF9500"></path>
                                        <circle id="Oval-10" fill="#FFFFFF" cx="23.0434783" cy="26.5217391" r="4.7826087"></circle>
                                        <circle id="Oval-10" fill="#FFFFFF" cx="34.7826087" cy="26.0869565" r="5.2173913"></circle>
                                        <path d="M40,19.0264971 C39.9976599,17.6559241 38.9095334,16.5456167 37.5675106,16.5456167 L36.0277531,16.5456167 C35.9563813,16.5456167 36.0183928,16.9837703 36.0277531,17.2225461 C36.0382833,17.4720667 36.0207329,17.7215874 36.0277531,17.9711081 C36.0464735,17.9695163 36.5597261,17.9667306 37.5675106,17.962751 C38.1408246,17.962751 38.6088361,18.4391087 38.6088361,19.0264971 L38.6088361,22.7191646 C37.704404,21.7568982 36.434923,21.1563771 35.0250386,21.1563771 C33.0769411,21.1563771 31.39444,22.3013069 30.5789301,23.966768 C30.5449993,24.0085538 30.5028783,24.0431763 30.4701175,24.0873498 C29.6616277,23.5465227 28.605092,23.5489104 27.7989423,24.0945131 C27.7626714,24.0443702 27.7147002,24.006166 27.6760893,23.957217 C26.8594094,22.2977253 25.1792484,21.1551832 23.2346609,21.1551832 C21.8271166,21.1551832 20.5576356,21.7533165 19.6532035,22.7131952 L19.6532035,19.0241093 C19.6532035,18.4367209 20.1200449,17.9603632 20.6945289,17.9603632 L22.2342865,17.9388734 C22.2413067,17.6977099 22.2237563,17.4481892 22.2342865,17.1986685 C22.2413067,17.0394846 22.2413067,16.8210048 22.2342865,16.543229 L20.6945289,16.543229 C19.3536762,16.543229 18.2643797,17.6535363 18.2643797,19.0241093 L18.2643797,24.2688194 C18.2643797,24.4944625 18.2971405,24.7105546 18.3533018,24.9182895 C18.3006505,25.1200551 18.2643797,25.3289839 18.2643797,25.5474637 L18.2643797,26.1623113 C18.2643797,26.184995 18.2608696,26.2064849 18.2608696,26.2291686 C18.2608696,26.2518523 18.2643797,26.2733421 18.2643797,26.2960258 L18.2643797,26.5359954 C18.4316937,29.1935699 20.5892264,31.3043478 23.2346609,31.3043478 C25.9807179,31.3043478 28.2072823,29.0323963 28.2072823,26.2303624 C28.2072823,26.0488929 28.196752,25.869811 28.1792016,25.6931169 C28.2072823,25.7014741 28.238873,25.7062496 28.2669537,25.7158006 L28.2669537,25.5510453 L28.4038471,25.4113615 C28.811017,24.9970855 29.4709131,24.9970855 29.878083,25.4113615 L29.998596,25.534331 C29.998596,25.5367188 29.998206,25.5880556 29.9974259,25.6883414 C30.0255066,25.6799843 30.0559274,25.6787904 30.0851781,25.6716271 C30.0652876,25.8542906 30.0535873,26.0417296 30.0535873,26.2303624 C30.0535873,29.0323963 32.2801516,31.3043478 35.0262086,31.3043478 C37.7734357,31.3043478 40,29.0323963 40,26.2303624 C40,26.0262092 39.9836196,25.8256375 39.9625591,25.6274536 C39.9703593,25.6306373 39.9828396,25.6043719 40,25.5486576 C40,25.3289839 39.9637291,25.1212489 39.9110778,24.9194834 C39.9672392,24.7129423 40,24.4968503 40,24.2700133 C40,24.2700133 40,19.0264971 40,19.0264971 Z" id="Path" stroke="#1C3C55"></path>
                                        <path d="M14.4208605,4.72903563 C14.0842574,4.40178264 13.9130435,3.97850385 13.9130435,3.48844916 C13.9130435,2.99753248 14.0883502,2.5711108 14.43092,2.23779964 C14.7693304,1.9085354 15.1881372,1.73913043 15.6623622,1.73913043 C16.1409962,1.73913043 16.5602809,1.91542058 16.8926351,2.25700693 C17.2218994,2.5954174 17.3913043,3.01422411 17.3913043,3.48844916 C17.3913043,3.9644025 17.2205168,4.38188324 16.8881565,4.71424349 C16.5557963,5.04660373 16.1383155,5.2173913 15.6623622,5.2173913 C15.1767423,5.2173913 14.7541204,5.05303835 14.4208605,4.72903563 Z" id="Path" stroke="#95AABF"></path>
                                        <path d="M8.33390393,4.72903563 C7.99730085,4.40178264 7.82608696,3.97850385 7.82608696,3.48844916 C7.82608696,2.99753248 8.00139365,2.5711108 8.34396346,2.23779964 C8.68237392,1.9085354 9.10118064,1.73913043 9.57540568,1.73913043 C10.0540397,1.73913043 10.4733243,1.91542058 10.8056786,2.25700693 C11.1349429,2.5954174 11.3043478,3.01422411 11.3043478,3.48844916 C11.3043478,3.9644025 11.1335603,4.38188324 10.8012,4.71424349 C10.4688398,5.04660373 10.051359,5.2173913 9.57540568,5.2173913 C9.08978575,5.2173913 8.66716387,5.05303835 8.33390393,4.72903563 Z" id="Path-Copy" stroke="#95AABF"></path>
                                        <path d="M3.11651263,4.72903563 C2.77990955,4.40178264 2.60869565,3.97850385 2.60869565,3.48844916 C2.60869565,2.99753248 2.78400234,2.5711108 3.12657215,2.23779964 C3.46498262,1.9085354 3.88378933,1.73913043 4.35801438,1.73913043 C4.83664836,1.73913043 5.25593303,1.91542058 5.58828732,2.25700693 C5.91755156,2.5954174 6.08695652,3.01422411 6.08695652,3.48844916 C6.08695652,3.9644025 5.91616895,4.38188324 5.5838087,4.71424349 C5.25144846,5.04660373 4.83396772,5.2173913 4.35801438,5.2173913 C3.87239444,5.2173913 3.44977257,5.05303835 3.11651263,4.72903563 Z" id="Path-Copy-2" stroke="#95AABF"></path>
                                        <path d="M0,6.95652174 L35.6521739,6.95652174" id="Path-43" stroke="#1C3C55"></path>
                                    </g>
                                    <g id="Group-2" transform="translate(21.000000, 18.000000)"></g>
                                </g>
                            </g>
                        </g>
                    </g>
                </g>
            </g>
        </g>
    </g>
</svg>