<?xml version="1.0" encoding="UTF-8"?>
<svg width="45px" height="45px" viewBox="0 0 45 45" version="1.1" xmlns="http://www.w3.org/2000/svg" xmlns:xlink="http://www.w3.org/1999/xlink">
    <!-- Generator: Sketch 49 (51002) - http://www.bohemiancoding.com/sketch -->
    <title>user</title>
    <desc>Created with Sketch.</desc>
    <defs></defs>
    <g id="Home" stroke="none" stroke-width="1" fill="none" fill-rule="evenodd" stroke-linecap="round" stroke-linejoin="round">
        <g id="19/01/18-Bitcoin.org-ver3-Desktop-1200px--" transform="translate(-498.000000, -1073.000000)" stroke="#FF7E00">
            <g id="//Content" transform="translate(215.000000, 961.000000)">
                <g id="Get-a-quick-overview" transform="translate(175.000000, 0.000000)">
                    <g id="Containers" transform="translate(0.000000, 73.000000)">
                        <g id="Container">
                            <g id="Icon" transform="translate(90.000000, 21.000000)">
                                <g id="user" transform="translate(18.000000, 18.000000)">
                                    <path d="M31.5430622,12.2727273 L31.5430622,16.1483254 C31.5430622,21.1426707 27.4943453,25.1913876 22.5,25.1913876 C17.5056547,25.1913876 13.4569378,21.1426707 13.4569378,16.1483254 L13.4569378,10.9808612" id="Oval-26"></path>
                                    <path d="M43.8829856,44.6495023 L43.8829856,41.9856459 C43.8829856,33.9283292 38.5501041,27.2198784 30.9797357,25.59087 C29.3669551,27.4190106 26.3916335,29.4116481 21.7939481,29.4116481 C17.1962627,29.4116481 14.4137532,27.8100789 12.7127893,25.59087 C8.64642009,26.4940976 5.51822943,28.8715388 3.15149664,32.1334892 C1.81287395,33.9784464 1.00855631,35.7752636 0.738543744,37.5239407" id="Oval-28" transform="translate(22.310765, 34.819768) scale(-1, 1) translate(-22.310765, -34.819768) "></path>
                                    <path d="M13.4569378,12.2727273 L13.4569378,8.52200717 C13.4569378,6.31260525 15.2497637,4.5215311 17.4518243,4.5215311 L18.6244019,4.5215311 L18.6244019,0.645933014 L25.8391448,2.08888159 C28.9893314,2.71891891 31.5430622,5.83316102 31.5430622,9.03351669 L31.5430622,12.2727273" id="Path-187" transform="translate(22.500000, 6.459330) scale(-1, 1) translate(-22.500000, -6.459330) "></path>
                                    <path d="M31.5430622,14.8564593 C31.5430622,12.0025477 29.2295097,9.68899522 26.3755981,9.68899522 L18.6244019,9.68899522" id="Oval-43"></path>
                                    <path d="M14.4861204,7.61676814 C15.4286345,8.87487081 16.9314437,9.68899522 18.6244019,9.68899522" id="Oval-43"></path>
                                </g>
                            </g>
                        </g>
                    </g>
                </g>
            </g>
        </g>
    </g>
</svg>