<?xml version="1.0" encoding="UTF-8"?>
<svg xmlns="http://www.w3.org/2000/svg" width="32" height="32">
  <g stroke="#000">
    <path d="M25.362 18.381a10.672 10.672 0 1 1-21.343 0 10.672 10.672 0 1 1 21.343 0z" transform="matrix(.843 0 0 .843 3.507 .781)" opacity=".99" stroke-width=".356" stroke-linecap="round" stroke-linejoin="round"/>
    <path d="M12.794 7.831h6l-1.412-4.544-3.029-.009z" stroke-width=".19"/>
    <path d="M8.15 11.695l4.596-3.857-4.002-2.573-2.326 1.94z" stroke-width=".19"/>
    <path d="M6.98 17.653l1.042-5.909-4.72.602-.535 2.981z" stroke-width=".19"/>
    <path d="M9.983 23.114l-3-5.196-3.229 3.495 1.507 2.628z" stroke-width=".19"/>
    <path d="M15.722 25.271l-5.638-2.052-.227 4.753 2.843 1.045z" stroke-width=".19"/>
    <path d="M21.638 23.264l-5.638 2.052 2.881 3.787 2.85-1.027z" stroke-width=".19"/>
    <path d="M24.794 17.939l-3 5.196 4.641 1.049 1.523-2.619z" stroke-width=".19"/>
    <path d="M23.74 11.669l1.042 5.909 4.23-2.18-.517-2.985z" stroke-width=".19"/>
    <path d="M18.976 7.722l4.596 3.857 1.839-4.388-2.314-1.954z" stroke-width=".19"/>
    <path d="M19.797 16.734a4.847 4.847 0 1 1-9.693 0 4.847 4.847 0 1 1 9.693 0z" transform="translate(.568 -.379)" opacity=".99" fill="#fff" stroke-width=".19" stroke-linecap="round" stroke-linejoin="round"/>
  </g>
</svg>
