<?xml version="1.0" encoding="UTF-8"?>
<svg width="12px" height="15px" viewBox="0 0 12 15" version="1.1" xmlns="http://www.w3.org/2000/svg" xmlns:xlink="http://www.w3.org/1999/xlink">
    <!-- Generator: Sketch 49 (51002) - http://www.bohemiancoding.com/sketch -->
    <title>apple - FontAwesome</title>
    <desc>Created with Sketch.</desc>
    <defs></defs>
    <g id="Home" stroke="none" stroke-width="1" fill="none" fill-rule="evenodd">
        <g id="19/01/18-Bitcoin.org-ver3-Desktop-1200px--" transform="translate(-533.000000, -2652.000000)" fill="#5B6A77">
            <g id="//Content" transform="translate(0.000000, 585.000000)">
                <g id="Recommended" transform="translate(406.000000, 1762.000000)">
                    <g id="wallets" transform="translate(0.000000, 237.000000)">
                        <g id="row-">
                            <g id="Container">
                                <g id="Group-10" transform="translate(100.000000, 68.000000)">
                                    <path d="M39,10.952524 C38.7846375,11.6646635 38.4400574,12.421875 37.9404164,13.2061298 C37.1995693,14.3870192 36.4587222,14.9729567 35.7264896,14.9729567 C35.4335966,14.9729567 35.0373295,14.8737981 34.5204594,14.6844952 C34.0122039,14.4861779 33.5728643,14.3960337 33.2196698,14.3960337 C32.8750897,14.3960337 32.4615937,14.4951923 31.9964106,14.6935096 C31.5226131,14.9008413 31.143575,15 30.8592965,15 C29.9720029,15 29.1191673,14.2157452 28.2663317,12.6652644 C27.4307251,11.1147837 27,9.609375 27,8.13100962 C27,6.75180288 27.327351,5.63401442 27.9734386,4.75961538 C28.6195262,3.89423077 29.4292893,3.46153846 30.4199569,3.46153846 C30.8420675,3.46153846 31.3417085,3.55168269 31.9447236,3.73197115 C32.5391242,3.91225962 32.9353912,4.00240385 33.1335248,4.00240385 C33.3833453,4.00240385 33.7968413,3.90324519 34.3653984,3.69591346 C34.9339555,3.49759615 35.4335966,3.38942308 35.8557071,3.38942308 C36.5448672,3.38942308 37.1564968,3.58774038 37.6905958,3.97536058 C37.9921034,4.19170673 38.2936109,4.49819712 38.5865039,4.87680288 C38.1385499,5.2734375 37.8111989,5.625 37.6044508,5.94050481 C37.2340273,6.49939904 37.0445083,7.12139423 37.0445083,7.80649038 C37.0445083,8.54567308 37.2426418,9.22175481 37.6389088,9.81670673 C38.0351759,10.4116587 38.4917444,10.7902644 39,10.952524 Z M35.7609476,0.378605769 C35.7609476,0.748197115 35.6748026,1.16286058 35.5111271,1.60456731 C35.338837,2.05528846 35.0717875,2.46995192 34.7099785,2.84855769 C34.3998564,3.17307692 34.0897344,3.38942308 33.7796123,3.49759615 C33.5814788,3.56069712 33.2885858,3.61478365 32.8837042,3.65084135 C32.9009332,2.75841346 33.1249103,1.98317308 33.5556353,1.33413462 C33.9863604,0.685096154 34.7099785,0.243389423 35.7092606,0 C35.7264896,0.0811298077 35.7437186,0.144230769 35.7523331,0.198317308 C35.7523331,0.261418269 35.7609476,0.315504808 35.7609476,0.378605769 Z" id="apple---FontAwesome"></path>
                                </g>
                            </g>
                        </g>
                    </g>
                </g>
            </g>
        </g>
    </g>
</svg>