<?xml version="1.0" encoding="UTF-8"?>
<svg width="30px" height="29px" viewBox="0 0 30 29" version="1.1" xmlns="http://www.w3.org/2000/svg" xmlns:xlink="http://www.w3.org/1999/xlink">
    <!-- Generator: Sketch 49 (51002) - http://www.bohemiancoding.com/sketch -->
    <title>Group</title>
    <desc>Created with Sketch.</desc>
    <defs></defs>
    <g id="Symbols" stroke="none" stroke-width="1" fill="none" fill-rule="evenodd">
        <g id="a-better-user-interface" transform="translate(-17.000000, -15.000000)">
            <g id="Group" transform="translate(17.000000, 16.000000)">
                <path d="M29.0716165,27.2492987 L20,27.2492987 C17.790861,27.2492987 16,25.4584377 16,23.2492987 L16,4 C16,1.790861 17.790861,4.05812251e-16 20,0 L29.0716165,0" id="Path-55" stroke="#1C3C55" stroke-linecap="round" stroke-linejoin="round" transform="translate(22.535808, 13.624649) rotate(-180.000000) translate(-22.535808, -13.624649) "></path>
                <path d="M9.53439904,5.19704327 C9.47247596,5.13444712 9.39776442,5.0853125 9.31497596,5.05098558 C9.15074519,4.98300481 8.96497596,4.98300481 8.80074519,5.05098558 C8.71795673,5.0853125 8.64391827,5.13444712 8.58132212,5.19704327 L3.19737981,10.5809856 C2.93420673,10.8441587 2.93420673,11.2695433 3.19737981,11.5327163 C3.32862981,11.6639663 3.5009375,11.7299279 3.67324519,11.7299279 C3.84555288,11.7299279 4.01786058,11.6639663 4.14911058,11.5327163 L8.38478365,7.29704327 L8.38478365,21.1530048 C8.38478365,21.5252163 8.68632212,21.8260817 9.05786058,21.8260817 C9.42939904,21.8260817 9.7309375,21.5252163 9.7309375,21.1530048 L9.7309375,7.29704327 L13.9666106,11.5327163 C14.0978606,11.6639663 14.2701683,11.7299279 14.442476,11.7299279 C14.6147837,11.7299279 14.7870913,11.6639663 14.9183413,11.5327163 C15.1815144,11.2695433 15.1815144,10.8441587 14.9183413,10.5809856 L9.53439904,5.19704327 Z" id="Shape" fill="#FF9500" fill-rule="nonzero" transform="translate(9.057861, 13.413041) rotate(-270.000000) translate(-9.057861, -13.413041) "></path>
            </g>
        </g>
    </g>
</svg>