<?xml version="1.0" encoding="UTF-8"?>
<svg xmlns="http://www.w3.org/2000/svg" width="32" height="32">
  <g transform="translate(0 -1020.362)">
    <rect width="18.67" height="11.956" x="3.909" y="-1047.655" transform="scale(1 -1)" stroke="#000" stroke-width="2.5" stroke-linecap="round" stroke-linejoin="round"/>
    <rect width="728.571" height="131.429" x="-531.429" y="-130.495"/>
    <path d="M23.026 1043.901l5.896 2.341.05-8.93-6.009 2.569z" stroke="#000" stroke-width="2.5" stroke-linecap="round" stroke-linejoin="round"/>
    <path d="M21.999 1029.139c0 1.767-1.432 3.2-3.2 3.2-1.767 0-3.2-1.432-3.2-3.2 0-1.767 1.432-3.2 3.2-3.2 1.767 0 3.2 1.432 3.2 3.2z" stroke="#000" stroke-linecap="round" stroke-linejoin="round" stroke-width="1.493"/>
    <path d="M12.874 1028.43c0 2.391-1.938 4.329-4.329 4.329s-4.329-1.938-4.329-4.329 1.938-4.329 4.329-4.329 4.329 1.938 4.329 4.329z" stroke="#000" stroke-linecap="round" stroke-linejoin="round" stroke-width="1.09"/>
  </g>
</svg>
