<?xml version="1.0" encoding="UTF-8"?>
<svg width="37px" height="41px" viewBox="0 0 37 41" version="1.1" xmlns="http://www.w3.org/2000/svg" xmlns:xlink="http://www.w3.org/1999/xlink">
    <!-- Generator: Sketch 49 (51002) - http://www.bohemiancoding.com/sketch -->
    <title>Group 2</title>
    <desc>Created with Sketch.</desc>
    <defs></defs>
    <g id="Symbols" stroke="none" stroke-width="1" fill="none" fill-rule="evenodd">
        <g id="social-network-icon" transform="translate(-12.000000, -10.000000)">
            <g id="Group-2">
                <g transform="translate(12.000000, 10.000000)">
                    <path d="M35.6071555,12.1473216 L35.6071555,15.3883969 L33.6796978,15.3883969 C32.1696514,15.3883969 31.887285,16.1127281 31.887285,17.1562561 L31.887285,19.4765714 L35.4843875,19.4765714 L35.0055923,23.1105043 L31.887285,23.1105043 L31.887285,32.4285958 L28.1305841,32.4285958 L28.1305841,23.1105043 L25,23.1105043 L25,19.4765714 L28.1305841,19.4765714 L28.1305841,16.8002289 C28.1305841,13.6941984 30.0334881,12 32.808045,12 C34.1339395,12 35.2756819,12.0982144 35.6071555,12.1473216 Z" id="facebook---FontAwesome" stroke="#FF9500"></path>
                    <path d="M15.5722109,9.42934997 C15.5722109,7.69832112 14.1603788,6.28648908 12.42935,6.28648908 C10.6983211,6.28648908 9.28648908,7.69832112 9.28648908,9.42934997 C9.28648908,11.1603788 10.6983211,12.5722109 12.42935,12.5722109 C14.1603788,12.5722109 15.5722109,11.1603788 15.5722109,9.42934997 Z M17.2664093,9.42934997 C17.2664093,12.1056924 15.1056924,14.2664093 12.42935,14.2664093 C9.75300749,14.2664093 7.59229063,12.1056924 7.59229063,9.42934997 C7.59229063,6.75300749 9.75300749,4.59229063 12.42935,4.59229063 C15.1056924,4.59229063 17.2664093,6.75300749 17.2664093,9.42934997 Z M18.5923037,4.39586183 C18.5923037,5.02197864 18.0889549,5.52532746 17.4628381,5.52532746 C16.8367213,5.52532746 16.3333725,5.02197864 16.3333725,4.39586183 C16.3333725,3.76974501 16.8367213,3.26639619 17.4628381,3.26639619 C18.0889549,3.26639619 18.5923037,3.76974501 18.5923037,4.39586183 Z M12.42935,1.10863965 C11.0543483,1.10863965 7.7460575,1.09340253 6.50610067,1.58447455 C6.07641266,1.75634975 5.72054191,2.0355797 5.3890683,2.36705331 C5.05759469,2.69852692 4.75634975,3.20699335 4.58447455,3.63668136 C4.09340253,4.87663819 4.05575859,8.28199959 4.05575859,9.65700123 C4.05575859,11.0320029 4.09340253,14.1840394 4.58447455,15.4239963 C4.75634975,15.8536843 5.05759469,16.216564 5.3890683,16.5480376 C5.72054191,16.8795112 6.07641266,17.448938 6.50610067,17.6208132 C7.7460575,18.1118853 11.0543483,18.0053063 12.42935,18.0053063 C13.8043516,18.0053063 16.7507837,18.1118853 17.9907405,17.6208132 C18.4204285,17.448938 19.2003299,16.8795112 19.5318036,16.5480376 C19.8632772,16.216564 20.1023502,15.4103157 20.2742254,14.9806277 C20.7652974,13.7406709 20.7305407,10.8043516 20.7305407,9.42934997 C20.7305407,8.05434833 20.7652974,4.87663819 20.2742254,3.63668136 C20.1023502,3.20699335 19.8632772,2.69852692 19.5318036,2.36705331 C19.2003299,2.0355797 18.7883873,1.75634975 18.3586993,1.58447455 C17.1187424,1.09340253 13.8043516,1.10863965 12.42935,1.10863965 Z M21.8579326,9.42934997 C21.8579326,10.7306908 21.8702094,12.0197548 21.7965486,13.3210957 C21.7228878,14.8311421 21.3791374,16.1693134 20.2742254,17.2742254 C19.1693134,18.3791374 17.8311421,18.7228878 16.3210957,18.7965486 C15.0197548,18.8702094 13.7306908,18.8579326 12.42935,18.8579326 C11.1280091,18.8579326 9.83894509,18.8702094 8.53760426,18.7965486 C7.02755781,18.7228878 5.68938658,18.3791374 4.58447455,17.2742254 C3.47956251,16.1693134 3.1358121,14.8311421 3.0621513,13.3210957 C2.9884905,12.0197548 3.0007673,10.7306908 3.0007673,9.42934997 C3.0007673,8.12800913 2.9884905,6.83894509 3.0621513,5.53760426 C3.1358121,4.02755781 3.47956251,2.68938658 4.58447455,1.58447455 C5.68938658,0.479562514 7.02755781,0.135812104 8.53760426,0.0621513018 C9.83894509,-0.0115095003 11.1280091,0.000767300022 12.42935,0.000767300022 C13.7306908,0.000767300022 15.0197548,-0.0115095003 16.3210957,0.0621513018 C17.8311421,0.135812104 19.1693134,0.479562514 20.2742254,1.58447455 C21.3791374,2.68938658 21.7228878,4.02755781 21.7965486,5.53760426 C21.8702094,6.83894509 21.8579326,8.12800913 21.8579326,9.42934997 Z" id="instagram---FontAwesome" fill="#1C3C55"></path>
                    <path d="M19.3482374,25.8660737 C18.8080581,26.6517889 18.1328341,27.3515665 17.3593957,27.9162993 C17.3716725,28.0881745 17.3716725,28.2600497 17.3716725,28.4319249 C17.3716725,33.6741187 13.3817124,39.7143044 6.08929297,39.7143044 C3.84263851,39.7143044 1.75558245,39.063634 0,37.9341684 C0.319196809,37.9709988 0.626116818,37.9832756 0.957590427,37.9832756 C2.81138728,37.9832756 4.51786253,37.3571588 5.88058737,36.2890771 C4.13728172,36.2522467 2.67634248,35.1105043 2.17299366,33.5390739 C2.41852967,33.5759043 2.66406568,33.6004579 2.92187848,33.6004579 C3.27790569,33.6004579 3.6339329,33.5513507 3.96540651,33.4654131 C2.14844006,33.0971091 0.785715222,31.501125 0.785715222,29.5736674 L0.785715222,29.5245602 C1.31361764,29.8192034 1.92745765,30.0033554 2.57812807,30.027909 C1.51004644,29.3158546 0.810268823,28.1004513 0.810268823,26.7254497 C0.810268823,25.9888417 1.00669763,25.3136176 1.35044804,24.7243312 C3.30245929,27.1305841 6.23661458,28.7020145 9.52679707,28.8738897 C9.46541307,28.5792465 9.42858267,28.2723265 9.42858267,27.9654065 C9.42858267,25.7801361 11.1964419,24 13.3939892,24 C14.5357316,24 15.5669828,24.4787952 16.2913141,25.2522336 C17.1875205,25.0803584 18.0468965,24.7488848 18.8080581,24.2946432 C18.5134149,25.2154032 17.8872981,25.9888417 17.0647525,26.4799137 C17.8627445,26.3939761 18.6361829,26.1729937 19.3482374,25.8660737 Z" id="twitter---FontAwesome" stroke="#95AABF"></path>
                </g>
            </g>
        </g>
    </g>
</svg>