<?xml version="1.0" encoding="UTF-8"?>
<svg xmlns="http://www.w3.org/2000/svg" width="32" height="32">
  <g transform="translate(0 -16)">
    <rect width="4.154" height="12.987" x=".191" y="26.262" ry=".339"/>
    <path d="M5.576 38.44c.008.271.22.272.22.272s.664.687 3.141 1.179c2.476.492 9.331 1.037 10.53.82 4.642-.839 4.924-1.747 6.167-3.071 1.803-1.967 5.403-5.535 6.078-6.693.101-.636-.864-1.003-2.093-.679-2.585 3.318 1.645-1.838 1.92-2.293.537-.706-2.009-1.878-2.911-.771-1.329 1.235-1.045 1.058-2.553 2.766l-.087-.045c.169-.624-.152-.667.83-2.255.65-1.072.746-1.129.731-1.578-.016-.449-1.8-1.141-2.98-.247-.382.26-.472.382-1.017 1.016-.655.761-.898 2.118-1.162 2.541-.264.423-.615 1.46-2.401 1.712-1.786.252-1.913.275-2.877.294-.9.017-1.39-.076-2.662-.452-.516-.152-1.933-1.616-.613-1.743 0 0 2.261-.348 3.658-.543 1.048-.146 1.46-.562 1.867-.916.511-.444.681-1.268.157-1.696-1.93-.32-1.572.041-3.457-.643-1.488-.54-4.763-.416-6.708.328-2.883.709-3.325.984-3.415.99-.221.016-.334.119-.348.326"/>
  </g>
</svg>
