<?xml version="1.0" encoding="UTF-8"?>
<svg width="35px" height="35px" viewBox="0 0 35 35" version="1.1" xmlns="http://www.w3.org/2000/svg" xmlns:xlink="http://www.w3.org/1999/xlink">
    <!-- Generator: Sketch 49 (51002) - http://www.bohemiancoding.com/sketch -->
    <title>donation icon</title>
    <desc>Created with Sketch.</desc>
    <defs></defs>
    <g id="Support-bitcoin" stroke="none" stroke-width="1" fill="none" fill-rule="evenodd">
        <g id="22.01.18-Bitcoin.org_Support-Bitcoin_Desktop-1200px--" transform="translate(-1183.000000, -1105.000000)">
            <g id="//contenct" transform="translate(215.000000, 637.000000)">
                <g id="box6" transform="translate(800.000000, 425.000000)">
                    <g id="donation-icon" transform="translate(155.000000, 30.000000)">
                        <g>
                            <rect id="Rectangle-2" x="0" y="0" width="60" height="60"></rect>
                            <g id="donation-2" transform="translate(13.000000, 13.000000)" fill-rule="nonzero">
                                <path d="M28.5380735,3.91853505 C29.2643816,4.17592901 29.8508243,4.76349813 30.1084138,5.48925479 C30.1832467,5.70125118 30.3825186,5.83333333 30.5946761,5.83333333 C30.6519653,5.83333333 30.7102828,5.82354051 30.7670881,5.80341083 C31.0355063,5.70850512 31.1764606,5.41345112 31.0814828,5.14517625 C30.7165139,4.11348468 29.9148284,3.31192434 28.8833814,2.94614443 C28.6144187,2.85172232 28.319685,2.99154201 28.2241627,3.25975643 C28.1292453,3.52857534 28.2691108,3.82314574 28.5380735,3.91853505 Z" id="Shape" fill="#FF9500"></path>
                                <path d="M23.0487748,19.3746778 C23.1378951,19.4209879 23.2353009,19.4444444 23.3333333,19.4444444 C23.4313657,19.4444444 23.5293981,19.4209879 23.6178919,19.3746778 C30.3797607,15.8243547 34.0277778,9.9835957 34.0277778,6.29085756 C34.0277778,2.82176129 31.0963442,4.76197507e-16 27.4922607,4.76197507e-16 C24.9612422,4.76197507e-16 22.6345739,1.42689815 21.5657561,3.63610722 C21.4267144,3.92261277 21.5556604,4.26293444 21.8527516,4.3961679 C22.1503997,4.53000453 22.5039569,4.40534948 22.642372,4.11938009 C23.5175618,2.31161387 25.4211173,1.14381056 27.4923304,1.14381056 C30.441031,1.14381056 32.8395526,3.45254262 32.8395526,6.29085756 C32.8395526,9.64843448 29.2907516,14.9836704 23.333403,18.2182677 C17.3759847,14.9836704 13.8271837,9.6485015 13.8271837,6.29085756 C13.8271837,3.45254262 16.2263319,1.14381056 19.1744059,1.14381056 C19.9188395,1.14381056 20.6389739,1.28790107 21.3156621,1.57273114 C21.6163041,1.69912868 21.9662408,1.56757069 22.0981111,1.27818334 C22.2294244,0.988795982 22.0921929,0.651959286 21.7915509,0.525025601 C20.9645417,0.176728684 20.0839907,0 19.1744059,0 C15.5709491,0 12.6388889,2.82169427 12.6388889,6.29085756 C12.6388889,9.9835957 16.2875326,15.8243547 23.0487748,19.3746778 Z" id="Shape" fill="#FF9500"></path>
                                <path d="M7.3888775,22.4691569 L12.0556581,22.4691569 C12.7358472,22.4691569 13.893194,23.2728859 14.9140245,23.9814815 C16.1938737,24.8705331 17.4025594,25.7098976 18.4724045,25.7098976 L21.9724729,25.7098976 C22.8580175,25.7098976 23.2983972,26.0820132 23.3100869,26.0917607 C23.4238391,26.1970848 23.5732073,26.25 23.7225071,26.25 C23.8718752,26.25 24.0206281,26.1970848 24.1349272,26.0917607 C24.3624317,25.8805429 24.3624317,25.5386827 24.1349272,25.3280346 C24.0573378,25.2567636 23.3409859,24.6296296 21.9724729,24.6296296 L18.4724045,24.6296296 C17.7916686,24.6296296 16.6348686,23.8259006 15.6140381,23.117305 C14.3335737,22.2282534 13.124888,21.3888889 12.0556581,21.3888889 L7.3888775,21.3888889 C7.0662833,21.3888889 6.80555556,21.6308684 6.80555556,21.9289912 C6.80555556,22.2271774 7.0662833,22.4691569 7.3888775,22.4691569 Z" id="Shape" fill="#95AABF"></path>
                                <path d="M2.91666667,31.1111111 C2.91666667,30.5750977 2.4804579,30.1388889 1.94444444,30.1388889 C1.40843099,30.1388889 0.972222222,30.5750977 0.972222222,31.1111111 C0.972222222,31.6471246 1.40843099,32.0833333 1.94444444,32.0833333 C2.4804579,32.0833333 2.91666667,31.6471246 2.91666667,31.1111111 Z" id="Shape" fill="#1C3C55"></path>
                                <path d="M34.6844076,24.523355 C34.3701899,23.9739024 33.8638624,23.5806606 33.2577285,23.4166532 C32.6509752,23.251532 32.0177905,23.3358329 31.5114629,23.6340535 L24.7508612,26.9618162 C23.7006239,27.493448 22.6393047,27.493448 20.3150574,27.493448 C18.0419524,27.493448 14.5724109,26.9130874 14.5377197,26.9077272 C14.2175824,26.8548216 13.915135,27.0728484 13.8616526,27.3954334 C13.8087897,27.7192017 14.0249219,28.0250797 14.3444397,28.0791687 C14.4907075,28.10409 17.9444175,28.6815269 20.3149886,28.6815269 C22.7537033,28.6815269 23.97781,28.6815269 25.270611,28.0275161 L32.0623247,24.6825591 C32.6220658,24.3546836 33.3428048,24.5495293 33.6670031,25.1173597 C33.8238022,25.3923992 33.8649637,25.7125477 33.7838797,26.0191218 C33.7027957,26.3256959 33.5084144,26.5816616 33.2200086,26.7504026 L25.278802,31.7491472 C25.2618005,31.7598675 23.5677783,32.8397684 19.7275771,32.8397684 C16.3978333,32.8397684 11.2536803,29.9729806 11.1796171,29.9319788 C11.1267542,29.9052475 9.85274434,29.2756012 7.39289827,29.2756012 C7.06808047,29.2756012 6.80555556,29.5417303 6.80555556,29.8696059 C6.80555556,30.1974814 7.06808047,30.4636105 7.39289827,30.4636105 C9.52916552,30.4636105 10.629306,30.9827816 10.6316463,30.9827816 C10.853698,31.1075275 16.0929767,34.0277778 19.7275771,34.0277778 C23.9677606,34.0277778 25.8490744,32.792223 25.9113673,32.7500377 L33.8243528,27.769114 C34.3676431,27.4518892 34.7564746,26.9392617 34.9186426,26.3268097 C35.0814989,25.7131743 34.9980746,25.0728076 34.6844076,24.523355 Z" id="Shape" fill="#95AABF"></path>
                                <path d="M4.0833265,18.4722222 L0.583312825,18.4722222 C0.260723675,18.4722222 4.85724471e-16,18.7366739 4.85724471e-16,19.0624827 C4.85724471e-16,19.3882916 0.260723675,19.6527432 0.583312825,19.6527432 L4.0833265,19.6527432 C4.40475353,19.6527432 4.66663932,19.9177482 4.66663932,20.2430037 L4.66663932,33.2292185 C4.66663932,33.554474 4.40475353,33.819479 4.0833265,33.819479 L0.583312825,33.819479 C0.260723675,33.819479 0,34.0839307 0,34.4097395 C0,34.7355484 0.260723675,35 0.583312825,35 L4.0833265,35 C5.04815448,35 5.83333333,34.2054691 5.83333333,33.2291494 L5.83333333,20.2430728 C5.83333333,19.2667531 5.04815448,18.4722222 4.0833265,18.4722222 Z" id="Shape" fill="#1C3C55"></path>
                            </g>
                        </g>
                    </g>
                </g>
            </g>
        </g>
    </g>
</svg>