<?xml version="1.0" encoding="UTF-8"?>
<svg xmlns="http://www.w3.org/2000/svg" width="22" height="22">
  <g transform="translate(0 -1030.362)">
    <rect width="20.671" height="20.724" x=".68" y="1031.035" ry="4.375" fill="#f7931a" fill-rule="evenodd" stroke="#f7931a"/>
    <path d="M6.161 17.714a1.696 1.696 0 1 1-3.393 0 1.696 1.696 0 1 1 3.393 0z" transform="translate(0 1030.362)" fill="#f7931a" stroke="#f7931a"/>
    <path d="M8.482 18.339a2.902 2.143 0 1 1-5.804 0 2.902 2.143 0 1 1 5.804 0z" transform="translate(0 1030.362)" stroke="#f7931a" fill="none"/>
    <path d="M8.125 19.054a3.125 3.125 0 1 1-6.25 0 3.125 3.125 0 1 1 6.25 0z" transform="matrix(.671 0 0 .671 2.357 1034.033)" fill="#fff" fill-opacity=".941"/>
    <path d="M12.001 1048.931c.043-3.142-.732-4.81-2.068-6.186-1.335-1.376-2.99-2.408-6.306-2.339" stroke="#fff" stroke-width="3" stroke-opacity=".941" fill="none"/>
    <path d="M17.342 1048.943c.034-3.158-.201-6.102-3.43-9.751-3.229-3.649-6.967-4.117-10.282-4.079" stroke="#fff" stroke-width="3" stroke-opacity=".941" fill="none"/>
  </g>
</svg>
