<?xml version="1.0" encoding="UTF-8"?>
<svg width="14px" height="14px" viewBox="0 0 14 14" version="1.1" xmlns="http://www.w3.org/2000/svg" xmlns:xlink="http://www.w3.org/1999/xlink">
    <!-- Generator: Sketch 55.1 (78136) - https://sketchapp.com -->
    <title>Shape</title>
    <desc>Created with Sketch.</desc>
    <g id="Flow-2" stroke="none" stroke-width="1" fill="none" fill-rule="evenodd" opacity="0.600000024">
        <g id="Bitcoin.org---Wallet-Flow-2.06---Desktop" transform="translate(-454.000000, -508.000000)" fill="#5B6A77">
            <g id="Content" transform="translate(213.000000, 443.000000)">
                <g id="Filter">
                    <g id="Wallet-type" transform="translate(16.000000, 15.000000)">
                        <g id="Group-3-Copy" transform="translate(127.000000, 41.000000)">
                            <path d="M104.890333,9 C101.08525,9 98,12.08525 98,15.8903333 C98,19.6954167 101.08525,22.78125 104.890333,22.78125 C108.695417,22.78125 111.78125,19.6954167 111.78125,15.8903333 C111.78125,12.08525 108.695417,9 104.890333,9 Z M106.32475,19.6790833 C105.970083,19.8190833 105.68775,19.92525 105.476,19.99875 C105.264833,20.07225 105.01925,20.109 104.739833,20.109 C104.3105,20.109 103.97625,20.004 103.73825,19.7945833 C103.50025,19.5851667 103.381833,19.31975 103.381833,18.9971667 C103.381833,18.87175 103.390583,18.7434167 103.408083,18.61275 C103.426167,18.4820833 103.45475,18.3350833 103.493833,18.17 L103.93775,16.602 C103.976833,16.4515 104.010667,16.3085833 104.0375,16.1755833 C104.064333,16.0414167 104.077167,15.9183333 104.077167,15.8063333 C104.077167,15.6068333 104.03575,15.4668333 103.9535,15.3880833 C103.870083,15.3093333 103.713167,15.2708333 103.47925,15.2708333 C103.364917,15.2708333 103.247083,15.28775 103.126333,15.3233333 C103.00675,15.3600833 102.902917,15.3933333 102.81775,15.426 L102.935,14.943 C103.2255,14.8245833 103.50375,14.7230833 103.769167,14.6390833 C104.034583,14.5539167 104.285417,14.5119167 104.521667,14.5119167 C104.948083,14.5119167 105.277083,14.61575 105.508667,14.8210833 C105.739083,15.027 105.855167,15.29475 105.855167,15.62375 C105.855167,15.692 105.847,15.8121667 105.83125,15.9836667 C105.8155,16.15575 105.78575,16.3126667 105.742583,16.45675 L105.301,18.0200833 C105.264833,18.1455 105.23275,18.289 105.203583,18.4494167 C105.175,18.6098333 105.161,18.7323333 105.161,18.8145833 C105.161,19.02225 105.207083,19.164 105.300417,19.23925 C105.392583,19.3145 105.554167,19.3524167 105.782833,19.3524167 C105.89075,19.3524167 106.0115,19.3331667 106.148,19.2958333 C106.283333,19.2585 106.381333,19.22525 106.443167,19.1966667 L106.32475,19.6790833 Z M106.246583,13.3335833 C106.040667,13.5249167 105.79275,13.6205833 105.502833,13.6205833 C105.2135,13.6205833 104.963833,13.5249167 104.756167,13.3335833 C104.549667,13.14225 104.44525,12.9095 104.44525,12.6376667 C104.44525,12.3664167 104.55025,12.1330833 104.756167,11.94 C104.963833,11.7463333 105.2135,11.6500833 105.502833,11.6500833 C105.79275,11.6500833 106.04125,11.7463333 106.246583,11.94 C106.4525,12.1330833 106.55575,12.3664167 106.55575,12.6376667 C106.55575,12.9100833 106.4525,13.14225 106.246583,13.3335833 Z" id="Shape"></path>
                        </g>
                    </g>
                </g>
            </g>
        </g>
    </g>
</svg>