<?xml version="1.0" encoding="UTF-8"?>
<svg width="29px" height="29px" viewBox="0 0 29 29" version="1.1" xmlns="http://www.w3.org/2000/svg" xmlns:xlink="http://www.w3.org/1999/xlink">
    <!-- Generator: Sketch 49 (51002) - http://www.bohemiancoding.com/sketch -->
    <title>icon/glossary</title>
    <desc>Created with Sketch.</desc>
    <defs></defs>
    <g id="Developer-Documentation" stroke="none" stroke-width="1" fill="none" fill-rule="evenodd">
        <g id="22.01.18-Bitcoin.org_Developer-Documentation-Desktop-1200px--" transform="translate(-1236.000000, -1881.000000)">
            <g id="//contenct" transform="translate(215.000000, 513.000000)">
                <g id="see-also" transform="translate(0.000000, 1259.000000)">
                    <g id="Glossary" transform="translate(900.000000, 59.000000)">
                        <g id="icon/glossary" transform="translate(106.000000, 40.000000)">
                            <g>
                                <rect id="Rectangle-2" x="0" y="0" width="60" height="60"></rect>
                                <path d="M32.9911432,28.2558036 L23.8855885,28.2558036 L21.2723351,34.8297691 C21.1362275,35.1564274 21.0681747,35.4286386 21.0681747,35.6464108 C21.0681747,36.2180628 21.8984187,36.6263796 23.5589318,36.8713733 C23.7494825,36.8985948 23.8787828,36.9734529 23.9468366,37.0959498 C24.0148904,37.2184466 24.0489168,37.3613575 24.0489168,37.5246867 C24.0489168,37.6880158 24.0216957,37.9057847 23.9672526,38.178 C23.2322714,38.1235569 22.4564696,38.07592 21.6398238,38.0350877 C20.8231781,37.9942554 20.0201551,37.9738396 19.2307309,37.9738396 C18.6863004,37.9738396 18.1282675,37.9874501 17.5566154,38.0146717 C16.9849634,38.0418932 16.3860988,38.0963354 15.7600037,38.178 C15.7055607,37.9602278 15.6783396,37.7424589 15.6783396,37.5246867 C15.6783396,37.334136 15.712366,37.1708093 15.7804198,37.0347016 C15.8484736,36.898594 15.9913845,36.8169307 16.2091567,36.7897091 C17.053024,36.6536015 17.6859149,36.4834695 18.1078486,36.2793081 C18.5297822,36.0751467 18.8360198,35.7552985 19.0265705,35.3197541 L28.8671027,11.6371454 C29.0576534,11.1743795 29.316254,10.943 29.6429123,10.943 C29.7517984,10.943 29.9151251,10.9702211 30.1328973,11.0246642 L40.0142616,35.4422504 C40.1775908,35.8233517 40.5450759,36.122784 41.1167279,36.3405562 C41.6883799,36.5583284 42.2464128,36.7080446 42.7908433,36.7897091 C42.9541725,36.8441522 43.0834728,36.9190103 43.1787481,37.0142856 C43.2740235,37.1095609 43.3216604,37.2796929 43.3216604,37.5246867 C43.3216604,37.6880158 43.2944393,37.9057847 43.2399963,38.178 C42.3689074,38.1235569 41.5114423,38.07592 40.667575,38.0350877 C39.8237077,37.9942554 39.0342953,37.9738396 38.2993141,37.9738396 C37.5371114,37.9738396 36.6660356,37.9942554 35.6860607,38.0350877 C34.7060858,38.07592 33.8213995,38.1235569 33.0319753,38.178 C32.9775322,37.9057847 32.9503111,37.6880158 32.9503111,37.5246867 C32.9503111,37.2796929 32.997948,37.1095609 33.0932234,37.0142856 C33.1884987,36.9190103 33.2769674,36.8713733 33.3586319,36.8713733 C34.0663916,36.7352657 34.6380351,36.5787443 35.0735795,36.4018043 C35.5091239,36.2248644 35.7268928,35.9594585 35.7268928,35.6055787 C35.7268928,35.4422496 35.6724506,35.2380912 35.5635645,34.9930975 L32.9911432,28.2558036 Z M32.3378298,26.5816882 L28.540446,16.5778276 L24.5797339,26.5816882 L32.3378298,26.5816882 Z" id="H4-Copy-2" fill="#1C1F30"></path>
                            </g>
                        </g>
                    </g>
                </g>
            </g>
        </g>
    </g>
</svg>