<?xml version="1.0" encoding="UTF-8"?>
<svg width="35px" height="29px" viewBox="0 0 35 29" version="1.1" xmlns="http://www.w3.org/2000/svg" xmlns:xlink="http://www.w3.org/1999/xlink">
    <!-- Generator: Sketch 49 (51002) - http://www.bohemiancoding.com/sketch -->
    <title>Find local businesses icon</title>
    <desc>Created with Sketch.</desc>
    <defs></defs>
    <g id="Spending-bitcoin" stroke="none" stroke-width="1" fill="none" fill-rule="evenodd">
        <g id="22.01.18-Bitcoin.org_Spending-Bitcoin_Desktop-1200px--" transform="translate(-1183.000000, -613.000000)">
            <g id="//contenct" transform="translate(215.000000, 567.000000)">
                <g id="box3" transform="translate(798.000000, 0.000000)">
                    <g id="Find-local-businesses-icon" transform="translate(157.000000, 30.000000)">
                        <g>
                            <rect id="Rectangle-2" x="0" y="0" width="60" height="60"></rect>
                            <g id="shop" transform="translate(13.000000, 16.000000)">
                                <path d="M33.3913672,27.4897293 L32.808125,27.4897293 L32.808125,12.2291494 C34.1251367,11.3788894 35,9.89626687 35,8.21152157 C35,8.1220169 34.9766895,8.03402113 34.9324609,7.95631324 L30.8641895,0.813223621 C30.5784473,0.311654561 30.0432617,0 29.4674707,0 L5.5325293,0 C4.95673828,0 4.42155273,0.311585975 4.13581055,0.813223621 L0.0675390625,7.95631324 C0.0233105469,8.03402113 0,8.12208549 0,8.21152157 C0,9.89626687 0.874863281,11.3788894 2.191875,12.2291494 L2.191875,27.4897293 L1.60863281,27.4897293 C1.32548828,27.4897293 1.0959375,27.7200409 1.0959375,28.0041239 C1.0959375,28.2882069 1.32548828,28.5185185 1.60863281,28.5185185 L33.3913672,28.5185185 C33.6745801,28.5185185 33.9040625,28.2882069 33.9040625,28.0041239 C33.9040625,27.7200409 33.6745117,27.4897293 33.3913672,27.4897293 Z M1.06073242,8.7259162 L2.70436523,8.7259162 C2.98750977,8.7259162 3.21706055,8.49560458 3.21706055,8.21152157 C3.21706055,7.92743856 2.98750977,7.69712693 2.70436523,7.69712693 L1.39617187,7.69712693 L5.02612305,1.32364027 C5.12975586,1.14175033 5.32375977,1.02878926 5.5325293,1.02878926 L29.4674707,1.02878926 C29.6762402,1.02878926 29.8703125,1.14175033 29.973877,1.32364027 L33.6037598,7.69712693 L32.295293,7.69712693 C32.0120801,7.69712693 31.7825977,7.92743856 31.7825977,8.21152157 C31.7825977,8.49560458 32.0120801,8.7259162 32.295293,8.7259162 L33.9391992,8.7259162 C33.6885254,10.5492051 32.1254883,11.9580291 30.2404102,11.9580291 C28.3554004,11.9580291 26.7931152,10.5490679 26.542373,8.7259162 L30.103623,8.7259162 C30.3868359,8.7259162 30.6163184,8.49560458 30.6163184,8.21152157 C30.6163184,7.92743856 30.3868359,7.69712693 30.103623,7.69712693 L4.89665039,7.69712693 C4.61350586,7.69712693 4.38395508,7.92743856 4.38395508,8.21152157 C4.38395508,8.49560458 4.61350586,8.7259162 4.89665039,8.7259162 L8.45755859,8.7259162 C8.20681641,10.5490679 6.64446289,11.9580291 4.75952148,11.9580291 C2.87444336,11.9580291 1.31140625,10.5492051 1.06073242,8.7259162 Z M25.4448633,8.7259162 C25.1941211,10.5490679 23.6317676,11.9580291 21.7468262,11.9580291 C19.8618164,11.9580291 18.2995313,10.5490679 18.0487891,8.7259162 L25.4448633,8.7259162 Z M16.9512109,8.7259162 C16.7004688,10.5490679 15.1381152,11.9580291 13.2531738,11.9580291 C11.3682324,11.9580291 9.80587891,10.5490679 9.55513672,8.7259162 L16.9512109,8.7259162 Z M29.0427539,27.4897978 L23.4924512,27.4897978 L23.4924512,25.7695936 L29.0427539,25.7695936 L29.0427539,27.4897978 Z M29.0427539,24.7408043 L23.4924512,24.7408043 L23.4924512,15.3234732 L29.0427539,15.3234732 L29.0427539,24.7408043 Z M31.7827344,27.4897978 L30.0682129,27.4897978 L30.0682129,14.8090785 C30.0682129,14.5249955 29.8387305,14.2946839 29.5555176,14.2946839 L22.9798242,14.2946839 C22.6966113,14.2946839 22.4671289,14.5249955 22.4671289,14.8090785 L22.4671289,27.4897293 L3.21726563,27.4897978 L3.21726563,12.7280436 C3.70131836,12.8949132 4.21975586,12.9868184 4.75952148,12.9868184 C6.61171875,12.9868184 8.22014648,11.9198954 9.00634766,10.366355 C9.79254883,11.9198268 11.4009766,12.9868184 13.2531738,12.9868184 C15.1053711,12.9868184 16.7137988,11.9198954 17.5,10.366355 C18.2862012,11.9198268 19.8946289,12.9868184 21.7468262,12.9868184 C23.5990234,12.9868184 25.2074512,11.9198954 25.9936523,10.366355 C26.7798535,11.9198268 28.3882812,12.9868184 30.2404785,12.9868184 C30.7802441,12.9868184 31.2986816,12.8949132 31.7827344,12.7281122 L31.7827344,27.4897978 Z" id="Shape" fill="#1C1F30" fill-rule="nonzero"></path>
                                <path d="M20.2366417,14.2592593 L5.68928423,14.2592593 C5.41088713,14.2592593 5.18518519,14.4934196 5.18518519,14.7822499 L5.18518519,25.4029353 C5.18518519,25.6917656 5.41088713,25.9259259 5.68928423,25.9259259 L20.2366417,25.9259259 C20.515106,25.9259259 20.7407407,25.6917656 20.7407407,25.4029353 L20.7407407,14.7822499 C20.7407407,14.4933499 20.515106,14.2592593 20.2366417,14.2592593 Z M19.7325426,24.8799446 L6.19338328,24.8799446 L6.19338328,15.3052406 L19.7325426,15.3052406 L19.7325426,24.8799446 Z" id="Shape" fill="#FF9500" fill-rule="nonzero"></path>
                                <path d="M22.9779054,27.5198556 L22.9779054,14.9734448 C22.9779054,14.8629879 23.0674485,14.7734448 23.1779054,14.7734448 L29.3510552,14.7734448 C29.4615122,14.7734448 29.5510552,14.8629879 29.5510552,14.9734448 L29.5510552,27.5198556" id="Path-5" stroke="#95AABF" stroke-width="1.2"></path>
                                <path d="M22.8683792,25.2802805 L29.5140212,25.2802805" id="Path-6" stroke="#95AABF" stroke-width="1.2"></path>
                            </g>
                        </g>
                    </g>
                </g>
            </g>
        </g>
    </g>
</svg>