<?xml version="1.0" encoding="UTF-8"?>
<svg width="111px" height="24px" viewBox="0 0 111 24" version="1.1" xmlns="http://www.w3.org/2000/svg" xmlns:xlink="http://www.w3.org/1999/xlink">
    <!-- Generator: Sketch 49 (51002) - http://www.bohemiancoding.com/sketch -->
    <title>Logo</title>
    <desc>Created with Sketch.</desc>
    <defs></defs>
    <g id="Home" stroke="none" stroke-width="1" fill="none" fill-rule="evenodd">
        <g id="19/01/18-Bitcoin.org-ver3-Desktop-1200px--" transform="translate(-744.000000, -3139.000000)" fill-rule="nonzero">
            <g id="//Footer" transform="translate(0.000000, 3078.000000)">
                <g id="Logo" transform="translate(744.000000, 61.000000)">
                    <path d="M23.0219043,14.902998 C21.4809547,21.0837419 15.220892,24.8452597 9.03942704,23.3039496 C2.86048589,21.763 -0.901031967,15.5025767 0.640638728,9.32219337 C2.18086726,3.14072843 8.44093,-0.621149964 14.6205922,0.91979965 C20.8016966,2.46074926 24.5628539,8.72189363 23.0219043,14.902998 Z" id="path3094" fill="#F7931A"></path>
                    <path d="M16.9161529,10.4683513 C17.1458171,8.93317029 15.9769452,8.10789335 14.3786696,7.55734818 L14.8971267,5.47775122 L13.6312694,5.16227838 L13.1265129,7.1870732 C12.7937341,7.10414891 12.4519418,7.02591165 12.1123128,6.94839546 L12.6206747,4.91026065 L11.3555385,4.59478782 L10.8367209,6.67366369 C10.561268,6.61092966 10.2908627,6.54891671 10.0283893,6.4836589 L10.0298315,6.47716918 L8.28409493,6.04127585 L7.94735021,7.3933023 C7.94735021,7.3933023 8.88655792,7.60854491 8.8667282,7.6218849 C9.37941663,7.74987674 9.47207551,8.08914525 9.45657227,8.35810838 L8.86600712,10.7272193 C8.90134008,10.7362328 8.94712871,10.7492122 8.99760436,10.7694025 C8.95542113,10.7589468 8.91035359,10.7474095 8.86384388,10.7362328 L8.03604315,14.055007 C7.97330912,14.2107605 7.81431081,14.4443906 7.45593366,14.3556977 C7.46855258,14.3740853 6.5358346,14.1260335 6.5358346,14.1260335 L5.9074127,15.5750453 L7.55472173,15.9857008 C7.86118106,16.0624959 8.1615112,16.1428964 8.45715432,16.2186099 L7.93328914,18.3220025 L9.19770427,18.6374754 L9.71652189,16.5564362 C10.0619196,16.6501767 10.3972221,16.7367064 10.7253139,16.8181886 L10.208299,18.8894931 L11.4741563,19.2049659 L11.9980215,17.1055392 C14.1565768,17.5140315 15.7797296,17.3492645 16.4629536,15.3969384 C17.0134988,13.8249823 16.4355525,12.9182232 15.2998503,12.326937 C16.12693,12.1362111 16.7499438,11.5921556 16.9161529,10.4683513 Z M14.0238979,14.5240701 C13.6327116,16.0960262 10.9859846,15.2462325 10.1278985,15.0331531 L10.8230203,12.2465364 C11.6811065,12.4606974 14.4327507,12.8846929 14.0238979,14.5240701 Z M14.4154448,10.4456372 C14.0585098,11.8755404 11.855608,11.1490515 11.141017,10.9709446 L11.7712416,8.44355645 C12.4858326,8.6216634 14.7871619,8.95408163 14.4154448,10.4456372 Z" id="path3096" fill="#FFFFFF"></path>
                    <g id="g3098" transform="translate(23.798869, 0.485348)" fill="#FFFFFF">
                        <path d="M10.3046048,7.07127861 C11.2402071,7.07127861 12.0485387,7.23892989 12.7277967,7.56810326 C13.4102997,7.9005215 13.9734638,8.34831266 14.4252209,8.91147675 C14.8708488,9.47752515 15.202546,10.1391168 15.416707,10.8973332 C15.6294258,11.6577129 15.7361457,12.4750579 15.7361457,13.3500895 C15.7361457,14.694184 15.4898966,15.9640073 14.9927115,17.1610013 C14.4955263,18.3597981 13.8209552,19.3995966 12.9628691,20.286526 C12.105504,21.1723737 11.0931066,21.8707404 9.92567686,22.3866737 C8.76004978,22.9029675 7.49275032,23.1611145 6.1320709,23.1611145 C5.95612719,23.1611145 5.64678354,23.1560669 5.20980859,23.1470534 C4.77283364,23.1380399 4.27060088,23.0929723 3.70815788,23.0168983 C3.14210947,22.93794 2.54361243,22.8211249 1.91158513,22.6646504 C1.27991837,22.5110601 0.67997917,22.2958175 0.115012383,22.0225279 L5.16690429,0.795352094 L9.69168614,0.094101041 L7.88285502,7.62687135 C8.2700754,7.4523698 8.6601801,7.31716716 9.04956371,7.21873963 C9.43930787,7.12175427 9.85753472,7.07127861 10.3046048,7.07127861 Z M6.50919615,19.5715744 C7.19061748,19.5715744 7.83273991,19.4039231 8.43592398,19.0747497 C9.04091075,18.7452158 9.56297323,18.300309 10.0003087,17.7461584 C10.4376442,17.189484 10.783763,16.5625043 11.0361412,15.8619743 C11.2885195,15.1614444 11.4161508,14.430629 11.4161508,13.6702493 C11.4161508,12.7360892 11.2600368,12.0074371 10.9488905,11.4806875 C10.6377441,10.9561013 10.0619611,10.6921857 9.22586796,10.6921857 C8.95185727,10.6921857 8.59888823,10.7444641 8.1611922,10.837844 C7.72205401,10.9369926 7.32906499,11.1428612 6.97681703,11.4525654 L5.05081028,19.4522355 C5.16690429,19.4727863 5.2696583,19.4922555 5.35726961,19.510643 C5.44307822,19.5304728 5.53790035,19.5445338 5.63236193,19.5542684 C5.73223161,19.5654452 5.84652292,19.5712138 5.98460988,19.5712138 C6.12269685,19.5712138 6.2953957,19.5715744 6.50919615,19.5715744 Z" id="path3100"></path>
                        <path d="M20.4296605,22.7529827 L16.1078629,22.7529827 L19.7576132,7.39504388 L24.1089751,7.39504388 L20.4296605,22.7529827 Z M22.5326926,5.52383927 C21.9295085,5.52383927 21.3825687,5.34429016 20.8972814,4.98447085 C20.4080281,4.62681479 20.1657449,4.07626962 20.1657449,3.3342775 C20.1657449,2.92614578 20.2486692,2.54325189 20.4130756,2.18199042 C20.5800058,1.82145004 20.7981328,1.51102476 21.0714224,1.2471092 C21.3443515,0.985356878 21.6605454,0.776243453 22.0196436,0.618687304 C22.3809051,0.463654938 22.7652411,0.386138755 23.174815,0.386138755 C23.7776385,0.386138755 24.321694,0.565687867 24.808784,0.925507174 C25.2940714,1.28712918 25.5381572,1.83767435 25.5381572,2.57570053 C25.5381572,2.9852744 25.4555935,3.36961046 25.2897449,3.73015084 C25.124978,4.09069123 24.906851,4.4011165 24.6335614,4.66503207 C24.3627956,4.92714493 24.0437173,5.13553727 23.6853402,5.29165126 C23.3237182,5.44920741 22.9408243,5.52383927 22.5326926,5.52383927 Z" id="path3102"></path>
                        <path d="M27.8957308,3.56934983 L32.4223154,2.86809878 L31.3107694,7.39504388 L36.1585954,7.39504388 L35.2832034,10.9564618 L30.4645811,10.9564618 L29.1810573,16.3285136 C29.0628001,16.7763047 28.9957395,17.1945316 28.9769914,17.5831941 C28.9557196,17.9736594 29.0051136,18.3089619 29.1219287,18.5912651 C29.2380227,18.8742893 29.4467756,19.0924162 29.7496295,19.2467275 C30.0510413,19.4035626 30.4826081,19.4825209 31.0486565,19.4825209 C31.5148352,19.4825209 31.9691161,19.4381744 32.4082543,19.3502026 C32.8448687,19.2636729 33.2872518,19.1432524 33.7350429,18.9856962 L34.057366,22.3156473 C33.4732906,22.5298082 32.8409028,22.7140444 32.1594814,22.8690768 C31.4769785,23.0262724 30.6690075,23.1019858 29.7352079,23.1019858 C28.3925555,23.1019858 27.3516754,22.902607 26.6100438,22.505652 C25.8694939,22.1058128 25.3459892,21.5595941 25.0326796,20.8680776 C24.7236965,20.1790849 24.5856095,19.3848145 24.6241874,18.4899532 C24.6642073,17.5929287 24.79941,16.6501156 25.0326796,15.6571874 L27.8957308,3.56934983 Z" id="path3104"></path>
                        <path d="M35.9678696,16.6219935 C35.9678696,15.2991708 36.1820305,14.051701 36.609992,12.8839107 C37.0372323,11.7150388 37.6526748,10.6929068 38.4512717,9.81571204 C39.2469844,8.94284376 40.2164775,8.2513273 41.3575878,7.74368643 C42.49329,7.23892989 43.764916,6.98438838 45.1663364,6.98438838 C46.0435312,6.98438838 46.8269855,7.06731267 47.5163387,7.23352179 C48.2085762,7.40117307 48.8348349,7.61785784 49.4012438,7.88970529 L47.9107699,11.2787849 C47.5213863,11.1208682 47.1172205,10.9816996 46.6993542,10.8555105 C46.2811273,10.7267976 45.7706021,10.6647846 45.166697,10.6647846 C43.7241749,10.6647846 42.5837857,11.1619698 41.7350736,12.1530954 C40.8896064,13.144942 40.4638082,14.480023 40.4638082,16.1547331 C40.4638082,17.1473008 40.6779692,17.9498637 41.1077333,18.563864 C41.5353342,19.1778643 42.3252782,19.483242 43.4721572,19.483242 C44.0382056,19.483242 44.5844243,19.4241134 45.1075684,19.3087404 C45.6346784,19.1919253 46.100136,19.0448249 46.5100705,18.8710444 L46.8327541,22.3452116 C46.2861749,22.5572093 45.6833514,22.7486563 45.0221203,22.9163075 C44.3594471,23.0781902 43.5705847,23.1621961 42.6558937,23.1621961 C41.448444,23.1621961 40.426312,22.9855313 39.5902188,22.6376098 C38.7537651,22.2842802 38.0626092,21.8152172 37.5181932,21.2210466 C36.9708929,20.6254339 36.5779039,19.9299515 36.3348997,19.1317151 C36.0918954,18.3341998 35.9678696,17.4963039 35.9678696,16.6219935 Z" id="path3106"></path>
                        <path d="M55.1659241,23.161475 C54.134418,23.161475 53.2384752,23.0042794 52.478456,22.693133 C51.7206001,22.3819867 51.0928993,21.9453723 50.5964352,21.3793239 C50.09925,20.8161598 49.7271723,20.1487995 49.4722703,19.3797669 C49.2173682,18.6110948 49.0947845,17.7598589 49.0947845,16.8271409 C49.0947845,15.6571874 49.282626,14.4875944 49.6622751,13.3212462 C50.0401214,12.1523743 50.6007617,11.1021201 51.3427538,10.1686811 C52.0789773,9.23379985 52.9871785,8.46945423 54.0565413,7.87348097 C55.1248225,7.28147366 56.3535441,6.9836673 57.7336927,6.9836673 C58.7464507,6.9836673 59.6377065,7.14122345 60.4081813,7.4523698 C61.1750507,7.76279507 61.8067175,8.20301489 62.3060659,8.76617897 C62.8000062,9.33222738 63.1753288,9.99670331 63.4277071,10.7668176 C63.681888,11.5340475 63.8073561,12.3874466 63.8073561,13.3208857 C63.8073561,14.4872338 63.6220383,15.6568268 63.2542871,16.8267804 C62.8861754,17.9909653 62.3399567,19.0437432 61.6188759,19.9793455 C60.8992373,20.9127846 59.9993285,21.6767697 58.9184284,22.2702192 C57.8389705,22.8636686 56.5871743,23.161475 55.1659241,23.161475 Z M57.3259215,10.6644241 C56.6852413,10.6644241 56.1188323,10.8504629 55.6339055,11.2178536 C55.147176,11.5895707 54.7383232,12.0568311 54.4087893,12.6203557 C54.07565,13.1864041 53.8286798,13.8036493 53.6617496,14.4746149 C53.4962615,15.1470227 53.41514,15.7826554 53.41514,16.3865606 C53.41514,17.3611013 53.5723356,18.1200388 53.8813187,18.6662575 C54.1946283,19.2095918 54.7574318,19.4828814 55.575498,19.4828814 C56.2183415,19.4828814 56.7818661,19.2982848 57.2696772,18.9269282 C57.7535224,18.5580953 58.1627358,18.0904745 58.4947935,17.5258682 C58.8257696,16.9627041 59.074903,16.3436563 59.2418332,15.671609 C59.405158,15.0013644 59.4884428,14.3621263 59.4884428,13.7593028 C59.4884428,12.7872859 59.3319683,12.0265457 59.0201008,11.4810481 C58.7085939,10.9377137 58.1432666,10.6644241 57.3259215,10.6644241 Z" id="path3108"></path>
                        <path d="M68.5181768,22.7529827 L64.1927738,22.7529827 L67.8425241,7.39504388 L72.1960493,7.39504388 L68.5181768,22.7529827 Z M70.617964,5.52383927 C70.0151405,5.52383927 69.4685612,5.34429016 68.983995,4.98447085 C68.4972654,4.62681479 68.2528191,4.07626962 68.2528191,3.3342775 C68.2528191,2.92614578 68.336825,2.54325189 68.5015919,2.18199042 C68.6663589,1.82145004 68.885928,1.51102476 69.1592176,1.2471092 C69.4307045,0.985356878 69.7497827,0.776243453 70.1081599,0.618687304 C70.4672581,0.463654938 70.8515942,0.386138755 71.2597259,0.386138755 C71.8639916,0.386138755 72.4098497,0.565687867 72.8958582,0.925507174 C73.3822271,1.28712918 73.6277551,1.83767435 73.6277551,2.57570053 C73.6277551,2.9852744 73.5405044,3.36961046 73.3771796,3.73015084 C73.2138548,4.09069123 72.9942857,4.4011165 72.7220777,4.66503207 C72.448067,4.92714493 72.1329547,5.13553727 71.7738565,5.29165126 C71.4118739,5.44920741 71.028259,5.52383927 70.617964,5.52383927 Z" id="path3110"></path>
                        <path d="M75.308955,8.09485277 C75.6370467,7.99894903 76.0033558,7.8835761 76.4017529,7.75810805 C76.8015922,7.63263999 77.2483017,7.51582491 77.7472896,7.41054712 C78.2408694,7.30202446 78.7979043,7.2140526 79.4104624,7.14591047 C80.0230205,7.07632618 80.7210267,7.04243538 81.4965491,7.04243538 C83.7758854,7.04243538 85.3471204,7.70619023 86.2145806,9.02973399 C87.0813197,10.3532778 87.2313045,12.1646327 86.6688615,14.4605538 L84.6808418,22.7529827 L80.3305615,22.7529827 L82.2572893,14.6350554 C82.3748255,14.1281356 82.4671238,13.6381612 82.5352659,13.1593636 C82.6041292,12.6848924 82.6001632,12.2666656 82.5197627,11.904683 C82.4429676,11.547027 82.2619763,11.2542682 81.9811154,11.0274883 C81.6959279,10.8043138 81.2650822,10.6921857 80.6806462,10.6921857 C80.1171216,10.6921857 79.5438624,10.7527565 78.9587053,10.8695716 L76.1259395,22.7526222 L71.7738565,22.7526222 L75.308955,8.09485277 Z" id="path3112"></path>
                    </g>
                </g>
            </g>
        </g>
    </g>
</svg>