<?xml version="1.0" encoding="UTF-8"?>
<svg xmlns="http://www.w3.org/2000/svg" width="48" height="48">
  <g>
    <path d="M99.5 49.745a49.75 49.75 0 1 1-99.5 0 49.75 49.75 0 1 1 99.5 0z" transform="matrix(.391 0 0 .391 4.811 4.65)" opacity=".99" fill="none"/>
    <path d="M39.63 26.012l1.202.655-1.53 1.857-1.202.874-.219 2.622-.82 2.68-1.942.829-.025 1.018-1.375 1.337-.696 1.087-1.83.709-.58-2.698.057-2.339-.219-2.076.437-1.748-.656-.546-1.311-.656-1.748.217-2.185-.765-.219-2.841v-1.967l1.967-2.295 1.748-2.404 3.059-1.202 1.202 1.42h1.639l1.864 1.101.103 1.958 2.294 2.294"/>
    <path d="M9.023 30.55l.679-2.307 1.629-3.597 1.9-.882.543.95 1.764.814v1.222h1.222l.95 1.29.679.407 1.561.746 1.764 1.086.746.407-.271.95-.407.882-1.221 1.018.611 1.832v2.103l-2.443 1.29-1.086 2.647-.591.736-1.783-.808-2.976-1.822.125-1.091-.407-2.714-1.561-1.765-.475-1.628z"/>
    <path d="M9.887 26.788l-.27-.54-.162-1.296-.432.432-.27-.864.162-1.566h-.486l-.432.702v.594l-.864-.378-.108-1.836.378-1.134 2.123-.73h.81l.702.486h.486l-.216-1.296 1.026-.702.756-.162 1.458-1.566 1.62-.432 1.026-.918.486-.972.432-.918h-.81l-.378.162.324-.432 1.175-.526 1.769-.689.081-.891-1.07-1.471-1.161-.837-.5.121-.311.864-.756 1.134h-.756l-.887-.62s-.038-.81.178-.81 1.573-.784 1.573-.784l.648-.972 1.485-.594-.675-.594-1.89.54-1.674.269-.204-.052-3.36 2.158s-2.619 3.036-3.523 4.804c-1.353 2.645-2.311 5.694-2.742 8.481-.146.946 2.16 1.89 2.16 1.89l1.242 1.188 1.566.918.81.162.27-.324z"/>
    <path d="M21.1 8.734l.095.811.258.802 1.27-.392.544-1.289.525-.22 1.222-.554.993-.229.229-1.527s-.229-.688-.535-.688c-.305 0-1.756-.344-1.756-.344l-1.069-.114-2.52.764-.84.534.076.917 1.184.363.697.22.029.487z"/>
    <path d="M37.577 20.672l.688.851.756 1.161.756.567-.081 1.35 1.161-.324 1.796-3.159-.689-.891-.864-.028-1.701-1.62-.351-1.269 2.349 2.268s.364-.478.743-.61c.379-.131.666-.455.62-.579-1.057-2.842-2.43-5.357-4.32-7.56-1.224-1.427-4.415-3.51-4.415-3.51l-2.16.972-1.215.405.243-.459 1.026-.269-.135-.351-.999.243-1.296-.137-1.836 1.08-.783.918.054.459.837-.297.648.486.432-1.026.513-.459.162.783-.432.162 1.053-.106-.999.432-.135.269-1.053.459-.972.243-.405-.081-.702-.837-.405.057.27.891.351.702-.054.81-.567.918 1.161 2.511-.918 1.377-.216 1.107.432 1.08h.503l.422.625 1.154-.702.54-2.403 1.296-1.593 1.242.324-.054.837.594-1.161.594.621v.512l1.134.324.567 1.107 1.539-.243 1.195.927-1.208 1.938.435.892 1.202-.899"/>
    <path d="M99.5 49.745a49.75 49.75 0 1 1-99.5 0 49.75 49.75 0 1 1 99.5 0z" transform="matrix(.391 0 0 .391 4.8 4.639)" opacity=".99" stroke="#000" stroke-width="7.837" fill="none"/>
  </g>
</svg>
