<?xml version="1.0" encoding="UTF-8"?>
<svg xmlns="http://www.w3.org/2000/svg" width="48" height="48">
  <g stroke="#000" stroke-width="1.299" stroke-linejoin="round">
    <path d="M3.599 13.362l20.022-.235s.136.319.167 4.248l9.376-6.316-9.627-6.776.103 4.337c2.204.065-20.072.272-20.072.272z"/>
    <path d="M10.258 26.109l25.656-.235s.136.319.167 4.248l9.376-6.316-9.627-6.776.103 4.337c2.204.065-25.706.272-25.706.272z"/>
    <path d="M32.092 39.444l-20.022-.235s-.136.319-.167 4.248l-9.376-6.316 9.627-6.776-.103 4.337c-2.204.065 20.072.272 20.072.272z"/>
  </g>
</svg>
