<svg width="56" height="44" viewBox="0 0 56 44" version="1.1" xmlns="http://www.w3.org/2000/svg" xmlns:xlink="http://www.w3.org/1999/xlink">
<title>Worldwide</title>
<desc>Created using Figma</desc>
<g id="Canvas" transform="matrix(2 0 0 2 -10062 -3548)">
<rect x="5031" y="1774" width="28" height="22" fill="#FFFFFF"/>
<clipPath id="clip-0" clip-rule="evenodd">
<path d="M 4815 -244L 6415 -244L 6415 3494L 4815 3494L 4815 -244Z" fill="#FFFFFF"/>
</clipPath>
<g id="19/01/18 Bitcoin.org ver3 Desktop 1200px  " clip-path="url(#clip-0)">
<path d="M 4815 -244L 6415 -244L 6415 3494L 4815 3494L 4815 -244Z" fill="#FFFFFF"/>
<g id="//Content">
<g id="Get started with">
<g id="features">
<g id="2">
<g id="icon/ Worldwide">
<g id="Icon/Worldwide">
<g id="ion-android-globe - Ionicons" opacity="0.5">
<use xlink:href="#path0_fill" transform="translate(5036 1775)" fill="#95AABF"/>
</g>
<g id="Oval 2">
<use xlink:href="#path1_fill" transform="translate(5035.5 1774.5)" fill="#95AABF"/>
</g>
<g id="Oval 3">
<use xlink:href="#path2_fill" transform="matrix(0.939693 0.34202 0.34202 -0.939693 5031.23 1784.9)" fill="#1C3C55"/>
</g>
<g id="Oval 3">
<use xlink:href="#path3_fill" transform="matrix(0.939693 -0.34202 -0.34202 -0.939693 5033.35 1795.67)" fill="#F7931A"/>
</g>
</g>
</g>
</g>
</g>
</g>
</g>
</g>
</g>
<defs>
<path id="path0_fill" fill-rule="evenodd" d="M 10 0C 12.7564 0 15.1122 0.977554 17.0673 2.93269C 19.0224 4.88783 20 7.24358 20 10C 20 12.7564 19.0224 15.1122 17.0673 17.0673C 15.1122 19.0224 12.7564 20 10 20C 7.24358 20 4.88783 19.0224 2.93269 17.0673C 0.977554 15.1122 0 12.7564 0 10C 0 7.24358 0.977554 4.88783 2.93269 2.93269C 4.88783 0.977554 7.24358 0 10 0ZM 7.38462 20L 7.90533 18.7235C 7.96844 18.5688 8 18.4044 8 18.2304C 8 18.0563 7.92111 17.8919 7.76331 17.7372C 7.25838 17.1957 6.89546 16.7895 6.67456 16.5188C 6.61144 16.4414 6.51677 16.219 6.39053 15.8515C 6.2643 15.4841 6.21696 15.2617 6.24852 15.1843C 6.40631 14.8362 6.53254 14.372 6.62722 13.7918C 6.72189 13.3276 6.51677 12.9022 6.01183 12.5154C 5.79093 12.3606 5.57002 12.1672 5.34911 11.9352C 5.1282 11.7031 4.88363 11.4517 4.61538 11.1809C 4.34714 10.9101 4.13412 10.6974 3.97633 10.5427C 3.40828 10.0398 3.0927 9.67236 3.02959 9.44027C 2.74556 8.43458 2.58777 7.89306 2.55621 7.8157C 2.27219 7.31285 2.09862 6.781 2.0355 6.22014C 1.97239 5.65927 1.98817 5.0694 2.08284 4.45051C 2.08284 4.17975 2.05128 3.69625 1.98817 3C 0.662715 4.85666 0 7.1001 0 9.73038C 0 12.5927 0.820505 15.0296 2.46154 17.041C 3.81855 18.7042 5.45956 19.6906 7.38462 20ZM 16.5263 17.208C 17.7544 15.8784 18.5789 14.321 19 12.5356L 18 12.4217C 17.2632 11.51 16.8596 10.6553 16.7895 9.85755C 16.7544 9.51567 16.7368 8.98386 16.7368 8.26211C 16.7368 7.54036 16.7018 6.98956 16.6316 6.60969C 16.5614 6.2678 16.3246 5.79298 15.9211 5.18518C 15.5175 4.57739 15.2807 4.17854 15.2105 3.9886C 15.1053 3.7227 14.9386 3.32384 14.7105 2.79202C 14.4825 2.26021 14.2982 1.86135 14.1579 1.59544C 14.193 1.59544 14.2544 1.61443 14.3421 1.65242C 14.4298 1.69041 14.4912 1.72839 14.5263 1.76638C 14.8772 1.69041 15.1228 1.65242 15.2632 1.65242C 14.1403 0.778723 12.807 0.227921 11.2632 0L 11.2632 0.45584L 11.4737 0.968661L 10.7368 1.7094L 10.2632 1.53846L 9.73684 0.968661L 9.21053 0.2849L 8.47368 0C 7.73684 0.113961 6.94737 0.360872 6.10526 0.740741L 6.10526 1.1396C 6.21053 1.06363 6.40351 0.987655 6.68421 0.911681C 6.96491 0.835707 7.17544 0.759735 7.31579 0.683761C 7.38597 0.645774 7.66666 0.816712 8.1579 1.19658C 8.12281 1.23457 7.92983 1.415 7.57895 1.73789C 7.22807 2.06078 7.03509 2.2792 7 2.39316C 7 2.43115 7.0614 2.51662 7.18421 2.64957C 7.30702 2.78253 7.36842 2.88699 7.36842 2.96296C 7.36842 3.07692 7.35965 3.23837 7.3421 3.44729C 7.32456 3.65622 7.31579 3.81766 7.31579 3.93162C 8.05264 3.1339 8.4386 2.73504 8.47368 2.73504C 8.78948 2.65907 9.17544 2.82051 9.63158 3.21937C 10.0877 3.61824 10.3509 3.95062 10.4211 4.21652C 10.4561 4.33048 10.386 4.49193 10.2105 4.70085C 10.0351 4.90978 9.75439 5.18518 9.36842 5.52707C 8.98245 5.86895 8.75439 6.07787 8.68421 6.15385C 8.61403 6.22982 8.45614 6.35328 8.21053 6.52422C 7.96491 6.69516 7.78947 6.8566 7.68421 7.00855C 7.57895 7.16049 7.5614 7.33143 7.63158 7.52137C 7.98246 8.28111 8.07018 8.73694 7.89474 8.88889C 7.82456 8.96486 7.73684 8.97436 7.63158 8.91738C 7.52632 8.8604 7.44737 8.79392 7.39474 8.71795C 7.3421 8.64198 7.27193 8.54701 7.18421 8.43305C 7.09649 8.31909 7.03509 8.24312 7 8.20513C 6.78947 7.93922 6.12281 7.80627 5 7.80627C 5 9.02185 5.26316 9.83855 5.78947 10.2564C 7.22808 11.396 8.05263 12.0228 8.26316 12.1368C 8.47369 12.2507 8.89473 12.2507 9.52632 12.1368C 10.1579 12.0228 10.5614 12.0418 10.7368 12.1937C 11.8947 13.0674 12.7193 13.6182 13.2105 13.8462C 13.5263 13.9601 13.8772 14.2165 14.2632 14.6154C 14.6491 15.0142 14.7544 15.3466 14.5789 15.6125C 14.1228 16.3723 13.8772 16.8091 13.8421 16.9231C 13.5614 17.5689 13.2105 18.0437 12.7895 18.3476C 12.3333 18.7274 11.9649 19.2782 11.6842 20C 13.579 19.5821 15.193 18.6515 16.5263 17.208Z"/>
<path id="path1_fill" fill-rule="evenodd" d="M 0 10.5C 0 16.299 4.70117 21 10.5 21C 16.2988 21 21 16.299 21 10.5C 21 4.70105 16.2988 0 10.5 0C 4.70117 0 0 4.70105 0 10.5ZM 20 10.5C 20 15.7467 15.7466 20 10.5 20C 5.25342 20 1 15.7467 1 10.5C 1 5.2533 5.25342 1 10.5 1C 15.7466 1 20 5.2533 20 10.5Z"/>
<path id="path2_fill" d="M 24.8785 8.1722C 24.6369 8.30581 24.3327 8.2182 24.1991 7.97653C 24.0655 7.73486 24.1531 7.43064 24.3947 7.29704C 25.6128 6.62363 26.2319 5.88509 26.2319 5.19043C 26.2319 4.61899 25.8159 4.01805 24.9748 3.44013C 22.8303 1.96659 18.4691 1 13.616 1C 9.3806 1 5.49914 1.7338 3.13301 2.92767C 1.72551 3.63784 1 4.43919 1 5.19043C 1 5.86502 1.58331 6.5812 2.73657 7.24047C 2.9763 7.37752 3.05955 7.68296 2.9225 7.92269C 2.78546 8.16243 2.48002 8.24567 2.24028 8.10863C 0.808186 7.28996 0 6.29769 0 5.19043C 0 3.97292 0.974267 2.89681 2.68254 2.03488C 5.20504 0.762105 9.23624 0 13.616 0C 18.6529 0 23.201 1.00802 25.5411 2.61594C 26.6275 3.36242 27.2319 4.23545 27.2319 5.19043C 27.2319 6.32678 26.3815 7.34136 24.8785 8.1722Z"/>
<path id="path3_fill" d="M 26.3694 8.61907C 26.1277 8.75267 25.8235 8.66506 25.6899 8.42339C 25.5563 8.18172 25.6439 7.8775 25.8856 7.7439C 27.1877 7.02403 27.8522 6.23135 27.8522 5.48015C 27.8522 4.86157 27.4046 4.2151 26.504 3.59628C 24.221 2.02757 19.5847 1 14.4261 1C 9.92467 1 5.79884 1.78 3.28173 3.05004C 1.77801 3.80877 1 4.6681 1 5.48015C 1 6.20977 1.62629 6.97871 2.85939 7.68362C 3.45005 8.02128 4.2252 8.3306 5.18303 8.60819C 5.44825 8.68506 5.60095 8.96238 5.52409 9.22761C 5.44722 9.49284 5.1699 9.64553 4.90467 9.56867C 3.87613 9.27058 3.02954 8.93275 2.3631 8.55178C 0.851161 7.68747 0 6.64243 0 5.48015C 0 4.20183 1.02676 3.06774 2.83126 2.15725C 5.50475 0.808305 9.78031 0 14.4261 0C 19.7685 0 24.5918 1.069 27.0704 2.77209C 28.2163 3.55947 28.8522 4.47802 28.8522 5.48015C 28.8522 6.67304 27.9564 7.74176 26.3694 8.61907Z"/>
</defs>
</svg>
