<?xml version="1.0" encoding="UTF-8" standalone="no"?>
<!-- Created with Inkscape (http://www.inkscape.org/) -->

<svg
   xmlns:dc="http://purl.org/dc/elements/1.1/"
   xmlns:cc="http://creativecommons.org/ns#"
   xmlns:rdf="http://www.w3.org/1999/02/22-rdf-syntax-ns#"
   xmlns:svg="http://www.w3.org/2000/svg"
   xmlns="http://www.w3.org/2000/svg"
   xmlns:sodipodi="http://sodipodi.sourceforge.net/DTD/sodipodi-0.dtd"
   xmlns:inkscape="http://www.inkscape.org/namespaces/inkscape"
   width="48"
   height="48"
   id="svg2984"
   version="1.1"
   inkscape:version="0.48.4 r9939"
   sodipodi:docname="main_ico_worldwide.svg"
   inkscape:export-filename="/media/X/bitcoin.org/bitcoin.org_icon/img/for_international.png"
   inkscape:export-xdpi="90"
   inkscape:export-ydpi="90">
  <defs
     id="defs2986" />
  <sodipodi:namedview
     id="base"
     pagecolor="#ffffff"
     bordercolor="#666666"
     borderopacity="1.0"
     inkscape:pageopacity="0.0"
     inkscape:pageshadow="2"
     inkscape:zoom="7.9195959"
     inkscape:cx="52.779419"
     inkscape:cy="25.094065"
     inkscape:document-units="px"
     inkscape:current-layer="layer1"
     showgrid="false"
     inkscape:window-width="1680"
     inkscape:window-height="1026"
     inkscape:window-x="0"
     inkscape:window-y="24"
     inkscape:window-maximized="1" />
  <metadata
     id="metadata2989">
    <rdf:RDF>
      <cc:Work
         rdf:about="">
        <dc:format>image/svg+xml</dc:format>
        <dc:type
           rdf:resource="http://purl.org/dc/dcmitype/StillImage" />
        <dc:title />
      </cc:Work>
    </rdf:RDF>
  </metadata>
  <g
     inkscape:label="Calque 1"
     inkscape:groupmode="layer"
     id="layer1"
     transform="translate(0,-1004.3622)">
    <path
       sodipodi:type="arc"
       style="opacity:0.98999999;fill:#ffffff;fill-opacity:0;stroke:none"
       id="path2992"
       sodipodi:cx="49.750011"
       sodipodi:cy="49.744911"
       sodipodi:rx="49.750011"
       sodipodi:ry="49.750011"
       d="m 99.500023,49.744911 a 49.750011,49.750011 0 1 1 -99.500023,0 49.750011,49.750011 0 1 1 99.500023,0 z"
       transform="matrix(0.39076067,0,0,0.39076067,4.8112577,1009.0119)" />
    <path
       style="fill:#000000;fill-opacity:1;stroke:none"
       d="m 39.629661,1030.3741 1.201834,0.6555 -1.529609,1.8575 -1.201836,0.8743 -0.218521,2.6219 -0.820065,2.6801 -1.941836,0.8288 -0.02488,1.0178 -1.375142,1.3373 -0.696049,1.0867 -1.830068,0.7086 -0.579567,-2.6977 0.05653,-2.3393 -0.218526,-2.0759 0.437031,-1.7483 -0.655544,-0.5461 -1.311096,-0.6558 -1.748124,0.2172 -2.185155,-0.7646 -0.218525,-2.8408 0,-1.9666 1.96664,-2.2946 1.748124,-2.4037 3.059218,-1.2018 1.201834,1.4203 1.638869,0 1.863659,1.1012 0.102979,1.9582 2.294412,2.2941"
       id="path2996"
       inkscape:connector-curvature="0"
       sodipodi:nodetypes="ccccccccccccccccccccccccccccc" />
    <path
       style="fill:#000000;fill-opacity:1;stroke:none"
       d="m 9.0233336,1034.9124 0.678614,-2.3074 1.6286664,-3.5967 1.900114,-0.8821 0.542892,0.95 1.764388,0.8144 0,1.2215 1.221503,0 0.950057,1.2895 0.678614,0.4072 1.560806,0.746 1.764392,1.0861 0.746475,0.4071 -0.271455,0.9501 -0.407167,0.8822 -1.221499,1.0179 0.610749,1.8324 0,2.1034 -2.443003,1.2896 -1.085781,2.6465 -0.591459,0.7355 -1.78288,-0.8085 -2.975513,-1.8217 0.12453,-1.0912 -0.407164,-2.7142 -1.56081,-1.7649 -0.4750287,-1.6283 z"
       id="path3766"
       inkscape:connector-curvature="0"
       sodipodi:nodetypes="cccccccccccccccccccccccccccc" />
    <path
       style="fill:#000000;fill-opacity:1;stroke:none"
       d="m 9.8873495,1031.1503 -0.2700077,-0.5402 -0.1620042,-1.296 -0.4320069,0.4323 -0.2700077,-0.8642 0.1620049,-1.566 -0.4860082,0 -0.432007,0.7021 0,0.5942 -0.864016,-0.3783 -0.1080034,-1.8359 0.3780077,-1.1342 2.1229785,-0.7296 0.8100145,0 0.70201,0.486 0.486012,0 -0.216006,-1.2959 1.026021,-0.702 0.756013,-0.1622 1.458024,-1.566 1.620027,-0.432 1.026022,-0.9182 0.486007,-0.972 0.432007,-0.9179 -0.810013,0 -0.378006,0.1621 0.324005,-0.432 1.174521,-0.5265 1.768532,-0.6886 0.08101,-0.891 -1.069959,-1.4708 -1.161021,-0.8368 -0.499509,0.1213 -0.310505,0.8642 -0.756013,1.1338 -0.756016,0 -0.886945,-0.6196 c 0,0 -0.0382,-0.8099 0.177834,-0.8099 0.216007,0 1.573142,-0.7844 1.573142,-0.7844 l 0.648012,-0.9721 1.485027,-0.5938 -0.675012,-0.594 -1.890035,0.5399 -1.67403,0.2692 -0.204488,-0.052 -3.359572,2.1582 c 0,0 -2.6185023,3.0358 -3.5225069,4.8037 -1.3526982,2.6449 -2.3111601,5.6935 -2.7416059,8.4808 -0.1460172,0.9455 2.1600388,1.89 2.1600388,1.89 l 1.2420238,1.1881 1.5660274,0.9179 0.8100148,0.1619 0.270008,-0.324 z"
       id="path3806"
       inkscape:connector-curvature="0"
       sodipodi:nodetypes="cccccccccccccccccccccccccccccccccccccsccccccccsscccccc" />
    <path
       style="fill:#000000;fill-opacity:1;stroke:none"
       d="m 21.100299,1013.096 0.09548,0.8111 0.257735,0.8021 1.269632,-0.3915 0.544133,-1.2888 0.525034,-0.2198 1.221904,-0.5537 0.992795,-0.2285 0.229116,-1.5273 c 0,0 -0.229116,-0.6875 -0.534583,-0.6875 -0.305478,0 -1.756485,-0.3436 -1.756485,-0.3436 l -1.069165,-0.1137 -2.520173,0.7637 -0.84006,0.5344 0.07636,0.9166 1.183717,0.3629 0.696866,0.22 0.02864,0.4869 z"
       id="path3826"
       inkscape:connector-curvature="0"
       sodipodi:nodetypes="cccccccccsccccccccc" />
    <path
       style="fill:#000000;fill-opacity:1;stroke:none"
       d="m 37.577307,1025.0342 0.687554,0.8509 0.756011,1.1612 0.756013,0.5669 -0.08101,1.3499 1.16102,-0.324 1.795536,-3.1589 -0.688515,-0.8909 -0.864016,-0.028 -1.701028,-1.6201 -0.351007,-1.2691 2.349042,2.2682 c 0,0 0.363828,-0.4783 0.743186,-0.6097 0.379357,-0.1306 0.666238,-0.4553 0.620337,-0.5786 -1.056741,-2.8416 -2.430141,-5.3573 -4.320078,-7.5599 -1.224147,-1.4269 -4.414577,-3.5103 -4.414577,-3.5103 l -2.160039,0.9721 -1.215022,0.4048 0.243009,-0.4588 1.026017,-0.269 -0.135016,-0.3513 -0.999016,0.2432 -1.296024,-0.1367 -1.836033,1.08 -0.783015,0.9181 0.054,0.4593 0.837018,-0.2974 0.648012,0.4862 0.432004,-1.0262 0.513011,-0.4589 0.161999,0.7828 -0.432007,0.1623 1.053021,-0.1059 -0.999022,0.4319 -0.135001,0.2689 -1.053019,0.4592 -0.97202,0.243 -0.405005,-0.081 -0.702014,-0.8369 -0.405005,0.057 0.270008,0.8907 0.351004,0.7022 -0.054,0.8097 -0.567011,0.9181 1.161019,2.5111 -0.918015,1.377 -0.216006,1.1072 0.432006,1.08 0.502884,0 0.421882,0.6248 1.154274,-0.7024 0.540005,-2.4029 1.296026,-1.5929 1.242021,0.3238 -0.054,0.8373 0.594011,-1.1611 0.594011,0.621 0,0.1879 0,0.324 1.13402,0.3241 0.567011,1.1072 1.539028,-0.2432 1.195136,0.9269 -1.208402,1.9375 0.435447,0.8924 1.202481,-0.8992"
       id="path3828"
       inkscape:connector-curvature="0"
       sodipodi:nodetypes="ccccccccccccssaccccccccccccccccccccccccccccccccccccccccccccccccccc" />
    <path
       sodipodi:type="arc"
       style="opacity:0.98999999;fill:none;stroke:#000000;stroke-width:7.83737087;stroke-miterlimit:4;stroke-opacity:1;stroke-dasharray:none"
       id="path2992-7"
       sodipodi:cx="49.750011"
       sodipodi:cy="49.744911"
       sodipodi:rx="49.750011"
       sodipodi:ry="49.750011"
       d="m 99.500023,49.744911 a 49.750011,49.750011 0 1 1 -99.500023,0 49.750011,49.750011 0 1 1 99.500023,0 z"
       transform="matrix(0.39076067,0,0,0.39076067,4.8000744,1009.0009)" />
  </g>
</svg>
