<?xml version="1.0" encoding="UTF-8"?>
<svg width="381px" height="316px" viewBox="0 0 381 316" version="1.1" xmlns="http://www.w3.org/2000/svg" xmlns:xlink="http://www.w3.org/1999/xlink">
    <!-- Generator: Sketch 49 (51002) - http://www.bohemiancoding.com/sketch -->
    <title>Illustration/ processing mining</title>
    <desc>Created with Sketch.</desc>
    <defs>
        <rect id="path-1" x="0" y="0" width="66.8450704" height="26.2176166"></rect>
        <rect id="path-2" x="0" y="0" width="66.8450704" height="26.2176166"></rect>
        <rect id="path-3" x="0" y="0" width="66.8450704" height="26.2176166"></rect>
        <rect id="path-4" x="0" y="0" width="66.8450704" height="26.2176166"></rect>
        <rect id="path-5" x="0" y="0" width="66.8450704" height="26.2176166"></rect>
        <rect id="path-6" x="0" y="0" width="66.8450704" height="26.2176166"></rect>
        <rect id="path-7" x="0" y="0" width="66.8450704" height="26.2176166"></rect>
    </defs>
    <g id="How-does-bitcoin-work" stroke="none" stroke-width="1" fill="none" fill-rule="evenodd">
        <g id="22.01.18-Bitcoin.org_How-does-Bitcoin-work-Desktop-1200px--" transform="translate(-971.000000, -2139.000000)">
            <g id="//body" transform="translate(215.000000, 574.000000)">
                <g id="4" transform="translate(0.000000, 1464.000000)">
                    <g id="5th-illustration" transform="translate(690.000000, 94.000000)">
                        <g id="processing--mining">
                            <g id="Group" opacity="0.699999988" transform="translate(272.532537, 170.944631) rotate(-340.000000) translate(-272.532537, -170.944631) translate(125.032537, 29.944631)">
                                <g id="Group-8" opacity="0.200000003" transform="translate(10.192087, 0.849341)" stroke="#979797">
                                    <path d="" id="Path-2"></path>
                                    <polyline id="Path-5" points="277.994741 212.954748 255.024836 66.4748246 0 130.596558 132.518679 150.00956 160.789331 1.17654557"></polyline>
                                    <path d="M177.869516,278.253027 L254.435864,66.4748246" id="Path-6"></path>
                                    <polygon id="Path-8" points="132.148661 150.009886 65.3758818 236.485659 177.280544 278.253027"></polygon>
                                    <polyline id="Path-9" points="131.929707 150.00956 83.634011 48.2383683 162.556247 0.588272784"></polyline>
                                    <polygon id="Path-10" points="66.5538256 237.073932 0 231.779477 0 131.184831"></polygon>
                                    <polyline id="Path-11" points="254.435864 66.4748246 159.905873 0 277.405769 214.131293 178.458488 278.841299 0 131.184831 83.634011 47.6500955 276.816797 214.131293"></polyline>
                                    <polyline id="Path-13" points="278.583713 214.131293 200.839421 214.131293 133.00333 149.932842"></polyline>
                                    <path d="M65.3758818,237.073932 L203.195308,214.131293" id="Path-14"></path>
                                </g>
                                <g id="dots" transform="translate(85.783399, 41.617689)">
                                    <circle id="Oval-2" fill="#C4C4C4" cx="7.21939499" cy="7.21939499" r="2.0214306"></circle>
                                    <circle id="Oval-2" stroke="#CACACA" cx="7.21939499" cy="7.21939499" r="7.21939499"></circle>
                                </g>
                                <g id="dots" transform="translate(280.282394, 206.389763)">
                                    <circle id="Oval-2" fill="#C4C4C4" cx="7.21939499" cy="7.21939499" r="2.0214306"></circle>
                                    <circle id="Oval-2" stroke="#CACACA" cx="7.21939499" cy="7.21939499" r="7.21939499"></circle>
                                </g>
                                <g id="dots" transform="translate(233.568661, 124.853066)">
                                    <circle id="Oval-2" fill="#C4C4C4" cx="7.21939499" cy="7.21939499" r="2.0214306"></circle>
                                    <circle id="Oval-2" stroke="#CACACA" cx="7.21939499" cy="7.21939499" r="7.21939499"></circle>
                                </g>
                                <g id="dots" transform="translate(67.947247, 230.171299)">
                                    <circle id="Oval-2" fill="#C4C4C4" cx="7.21939499" cy="7.21939499" r="2.0214306"></circle>
                                    <circle id="Oval-2" stroke="#CACACA" cx="7.21939499" cy="7.21939499" r="7.21939499"></circle>
                                </g>
                                <circle id="Oval-2" fill="#7B7B7B" cx="187.279599" cy="279.008383" r="2.12335147"></circle>
                                <circle id="Oval-2" fill="#7B7B7B" cx="170.292788" cy="2.12335147" r="2.12335147"></circle>
                                <g id="Group-7" transform="translate(0.000000, 121.455704)">
                                    <circle id="Oval-2" fill="#FF7E00" cx="10.6167573" cy="10.6167573" r="3.33669516"></circle>
                                    <circle id="Oval-2" stroke="#FF7E00" cx="10.6167573" cy="10.6167573" r="10.6167573"></circle>
                                </g>
                                <g id="Group-7" transform="translate(0.000000, 221.677893)">
                                    <circle id="Oval-2" fill="#FF7E00" cx="10.6167573" cy="10.6167573" r="3.33669516"></circle>
                                    <circle id="Oval-2" stroke="#FF7E00" cx="10.6167573" cy="10.6167573" r="10.6167573"></circle>
                                </g>
                                <g id="Group-7" transform="translate(253.103495, 57.755160)">
                                    <circle id="Oval-2" fill="#FF7E00" cx="10.6167573" cy="10.6167573" r="3.33669516"></circle>
                                    <circle id="Oval-2" stroke="#FF7E00" cx="10.6167573" cy="10.6167573" r="10.6167573"></circle>
                                </g>
                            </g>
                            <g id="Group-3" transform="translate(235.000000, 76.500000) scale(-1, 1) translate(-235.000000, -76.500000) translate(208.000000, 8.000000)">
                                <path d="M30.9807102,13.1043478 C30.9807102,13.6791901 33.260282,17.1282437 30.4108172,20.5772973 C27.5613524,24.026351 26.2323621,22.3857511 22.4323159,29.1999314 C17.3032793,38.3974077 13.3140286,46.4451995 8.75488503,51.6187799 C4.19574142,56.7923603 1.91616961,59.0917294 2.48606256,61.9659408 C3.05595551,64.8401521 3.62584846,64.8401521 4.19574142,63.6904676 C4.76563437,62.540783 4.19574142,60.8162562 5.90542027,59.6665717 C7.61509913,58.5168871 13.3140286,53.3433067 13.3140286,53.3433067 C13.3140286,53.3433067 21.29253,45.8703572 23.0022088,43.5709881 C24.7118877,41.271619 24.1419947,44.7206727 23.5721018,46.4451995 C23.0022088,48.1697263 17.8731723,68.864048 18.4430652,79.2112089 C19.0129582,89.5583697 19.0129582,93.0074233 18.4430652,100.480373 C17.8731723,107.953322 17.8731723,125.773433 15.5936005,130.372171 C13.3140286,134.970909 10.4645639,136.120594 11.0344568,136.695436 C11.6043498,137.270278 19.5828511,134.396067 19.5828511,132.67154 C19.5828511,130.947013 18.4430652,130.947013 19.5828511,128.647644 C20.722637,126.348275 27.5613524,108.528165 27.5613524,102.779742 C27.5613524,97.0313192 30.9807102,79.7860511 30.9807102,79.7860511 C30.9807102,79.7860511 33.260282,72.8879439 33.8301749,72.3131016 C34.4000679,71.7382594 35.5398538,92.4325811 37.2495326,99.9055306 C38.3893185,108.528165 36.6796397,107.953322 38.9592115,118.300483 C41.2387833,128.647644 41.2387833,130.372171 40.6688903,132.096698 C40.0989974,133.821224 40.0989974,134.396067 42.3785692,135.545751 C44.658141,136.695436 48.0774987,137.84512 47.5076058,136.120594 C46.9377128,134.396067 44.0882481,132.67154 44.0882481,130.947013 C44.0882481,129.222486 45.7979269,108.528165 46.3678199,104.504269 C46.9377128,100.480373 48.0774987,92.4325811 48.0774987,87.2590006 L48.0774987,71.7382594 C48.0774987,68.864048 43.5183551,49.3194108 42.9484621,45.8703572 C42.3785692,42.4213036 42.3785692,40.6967768 42.9484621,41.8464613 C43.5183551,42.9961459 45.228034,53.3433067 46.9377128,57.9420449 C48.6473917,62.540783 50.9269635,67.7143635 50.9269635,70.5885748 C50.9269635,73.4627862 49.7871776,73.4627862 49.7871776,75.187313 C49.7871776,76.9118398 51.4968564,75.7621552 52.6366423,74.0376284 C53.7764282,72.3131016 54.3463212,71.1634171 53.7764282,67.7143635 C53.2065353,64.2653098 50.9269635,50.4690954 49.7871776,46.4451995 C48.6473917,42.4213036 45.228034,29.1999314 43.5183551,26.9005623 C41.8086762,24.6011932 37.8194256,22.8766664 36.6796397,21.1521396 C35.5398538,19.4276128 35.5398538,13.1043478 35.5398538,13.1043478 L30.9807102,13.1043478 Z" id="Fill-1" fill="#FFFFFF"></path>
                                <path d="M30.9807102,13.1043478 C30.9807102,13.6791901 33.260282,17.1282437 30.4108172,20.5772973 C27.5613524,24.026351 26.2323621,22.3857511 22.4323159,29.1999314 C17.3032793,38.3974077 13.3140286,46.4451995 8.75488503,51.6187799 C4.19574142,56.7923603 1.91616961,59.0917294 2.48606256,61.9659408 C3.05595551,64.8401521 3.62584846,64.8401521 4.19574142,63.6904676 C4.76563437,62.540783 4.19574142,60.8162562 5.90542027,59.6665717 C7.61509913,58.5168871 13.3140286,53.3433067 13.3140286,53.3433067 C13.3140286,53.3433067 21.29253,45.8703572 23.0022088,43.5709881 C24.7118877,41.271619 24.1419947,44.7206727 23.5721018,46.4451995 C23.0022088,48.1697263 17.8731723,68.864048 18.4430652,79.2112089 C19.0129582,89.5583697 19.0129582,93.0074233 18.4430652,100.480373 C17.8731723,107.953322 17.8731723,125.773433 15.5936005,130.372171 C13.3140286,134.970909 10.4645639,136.120594 11.0344568,136.695436 C11.6043498,137.270278 19.5828511,134.396067 19.5828511,132.67154 C19.5828511,130.947013 18.4430652,130.947013 19.5828511,128.647644 C20.722637,126.348275 27.5613524,108.528165 27.5613524,102.779742 C27.5613524,97.0313192 30.9807102,79.7860511 30.9807102,79.7860511 C30.9807102,79.7860511 33.260282,72.8879439 33.8301749,72.3131016 C34.4000679,71.7382594 35.5398538,92.4325811 37.2495326,99.9055306 C38.3893185,108.528165 36.6796397,107.953322 38.9592115,118.300483 C41.2387833,128.647644 41.2387833,130.372171 40.6688903,132.096698 C40.0989974,133.821224 40.0989974,134.396067 42.3785692,135.545751 C44.658141,136.695436 48.0774987,137.84512 47.5076058,136.120594 C46.9377128,134.396067 44.0882481,132.67154 44.0882481,130.947013 C44.0882481,129.222486 45.7979269,108.528165 46.3678199,104.504269 C46.9377128,100.480373 48.0774987,92.4325811 48.0774987,87.2590006 L48.0774987,71.7382594 C48.0774987,68.864048 43.5183551,49.3194108 42.9484621,45.8703572 C42.3785692,42.4213036 42.3785692,40.6967768 42.9484621,41.8464613 C43.5183551,42.9961459 45.228034,53.3433067 46.9377128,57.9420449 C48.6473917,62.540783 50.9269635,67.7143635 50.9269635,70.5885748 C50.9269635,73.4627862 49.7871776,73.4627862 49.7871776,75.187313 C49.7871776,76.9118398 51.4968564,75.7621552 52.6366423,74.0376284 C53.7764282,72.3131016 54.3463212,71.1634171 53.7764282,67.7143635 C53.2065353,64.2653098 50.9269635,50.4690954 49.7871776,46.4451995 C48.6473917,42.4213036 45.228034,29.1999314 43.5183551,26.9005623 C41.8086762,24.6011932 37.8194256,22.8766664 36.6796397,21.1521396 C35.5398538,19.4276128 35.5398538,13.1043478 35.5398538,13.1043478 L30.9807102,13.1043478 Z" id="Fill-1" stroke="#1C3C55" stroke-width="0.8"></path>
                                <path d="M30.48,14.3015705 C30.48,14.3015705 31.04,15.4869565 33.28,15.4869565 C35.52,15.4869565 37.2,13.1161846 37.2,10.1527196 C37.2,7.1892547 37.2,3.04040379 33.84,2.4477108 C30.48,1.85501782 28.8,5.41117574 28.8,8.96733366 C28.8,12.5234916 30.48,14.3015705 30.48,14.3015705" id="Fill-3" fill="#FFFFFF"></path>
                                <path d="M30.48,14.3015705 C30.48,14.3015705 31.04,15.4869565 33.28,15.4869565 C35.52,15.4869565 37.2,13.1161846 37.2,10.1527196 C37.2,7.1892547 37.2,3.04040379 33.84,2.4477108 C30.48,1.85501782 28.8,5.41117574 28.8,8.96733366 C28.8,12.5234916 30.48,14.3015705 30.48,14.3015705" id="Fill-3" stroke="#1C3C55" stroke-width="0.8"></path>
                                <path d="M29.1138176,21.4434783 C29.1138176,21.4434783 30.264422,27.2120041 33.7162354,27.7888566 C37.1680488,28.3657092 38.346843,21.804588 38.9077627,21.9124594 C39.4692577,22.0203308 40.6267657,23.1117359 40.6267657,23.1117359 C40.6267657,23.1117359 40.3005694,33.688328 40.6198621,35.2879402 C41.1951643,38.1722031 43.4963733,41.0564659 43.4963733,41.0564659 C43.4963733,41.0564659 43.1638486,42.3601528 43.9054131,47.1884089 C44.6469777,52.0166649 50.4,69.3222423 50.4,76.2444733 C50.4,78.5518836 38.8939554,80.2824413 31.4150265,79.7055887 C25.5538474,79.2533363 18.9856218,76.6753821 16.4186233,75.5816697 C15.7829143,75.3105489 15.456718,74.6050582 15.6603749,73.9434083 C16.8477987,70.0888794 20.6666549,57.6300174 21.6348886,53.7472227 C21.6348886,53.7472227 24.3198241,44.3254895 24.1276731,42.1138367 C23.9360975,39.9027608 26.8126086,38.7490556 27.3879109,33.5573824 C27.9632131,28.3657092 26.8126086,22.5971834 26.8126086,22.5971834 L29.1138176,21.4434783 Z" id="Fill-5" stroke="#FF9500" stroke-width="0.8" fill="#FFFFFF"></path>
                                <path d="M44.3166252,12.2083148 C43.8272286,7.77061177 41.0843859,6.06866343 40.5306719,6.06105761 C39.9775427,6.05286673 41.1340856,0.161867109 37.0025728,0.00975072227 C35.575897,-0.0429049501 34.797657,0.123838012 34.3784248,0.361958664 C34.2462819,0.38243587 34.1147237,0.403498139 33.970302,0.427485723 C27.8665852,1.44666552 27.2175647,8.08362049 27.7467211,9.75280531 C28.2758775,11.4219901 29.3909065,10.8843172 29.3909065,10.8843172 C29.3909065,10.8843172 28.3238231,8.10000226 30.5538811,7.02407135 C32.3822481,6.14238137 34.2345878,3.40194615 34.8479415,2.13762495 C35.7741114,2.96080863 37.2323612,4.49952439 37.2107271,6.01308244 C37.1785685,8.22813106 37.8837205,12.3101158 37.7878292,11.6571855 C37.6919379,11.0042551 39.4004406,7.70625484 39.4004406,7.70625484 C39.4004406,7.70625484 39.9775427,6.05286673 39.3600961,10.4747731 C38.7426495,14.8966794 38.6947039,18.2192524 40.8844174,19.9124248 C43.0735462,21.6055972 44.8060218,16.6460179 44.3166252,12.2083148" id="Fill-7" fill="#FFFFFF"></path>
                                <path d="M44.3166252,12.2083148 C43.8272286,7.77061177 41.0843859,6.06866343 40.5306719,6.06105761 C39.9775427,6.05286673 41.1340856,0.161867109 37.0025728,0.00975072227 C35.575897,-0.0429049501 34.797657,0.123838012 34.3784248,0.361958664 C34.2462819,0.38243587 34.1147237,0.403498139 33.970302,0.427485723 C27.8665852,1.44666552 27.2175647,8.08362049 27.7467211,9.75280531 C28.2758775,11.4219901 29.3909065,10.8843172 29.3909065,10.8843172 C29.3909065,10.8843172 28.3238231,8.10000226 30.5538811,7.02407135 C32.3822481,6.14238137 34.2345878,3.40194615 34.8479415,2.13762495 C35.7741114,2.96080863 37.2323612,4.49952439 37.2107271,6.01308244 C37.1785685,8.22813106 37.8837205,12.3101158 37.7878292,11.6571855 C37.6919379,11.0042551 39.4004406,7.70625484 39.4004406,7.70625484 C39.4004406,7.70625484 39.9775427,6.05286673 39.3600961,10.4747731 C38.7426495,14.8966794 38.6947039,18.2192524 40.8844174,19.9124248 C43.0735462,21.6055972 44.8060218,16.6460179 44.3166252,12.2083148" id="Fill-7" stroke="#1C3C55" stroke-width="0.8"></path>
                            </g>
                            <g id="Group-12" transform="translate(66.000000, 64.000000)">
                                <g id="Group-2-Copy" transform="translate(64.457746, 112.020725)">
                                    <path d="M0.729195304,5.51802018 L25.6929065,5.51802018" id="Path-8" stroke="#1C3C55"></path>
                                    <polygon id="ion-ios-arrow-right---Ionicons" fill="#FF9500" transform="translate(14.239681, 5.818341) rotate(180.000000) translate(-14.239681, -5.818341) " points="10.7429577 0.690928012 11.507866 0 17.7364043 5.81834116 11.507866 11.6366823 10.7429577 10.9457543 16.2065879 5.81834116"></polygon>
                                </g>
                                <g id="Group-2-Copy-2" transform="translate(156.369718, 110.829016)">
                                    <path d="M0.729195304,5.51802018 L25.6929065,5.51802018" id="Path-8" stroke="#1C3C55"></path>
                                    <polygon id="ion-ios-arrow-right---Ionicons" fill="#FF9500" transform="translate(14.239681, 5.818341) rotate(180.000000) translate(-14.239681, -5.818341) " points="10.7429577 0.690928012 11.507866 0 17.7364043 5.81834116 11.507866 11.6366823 10.7429577 10.9457543 16.2065879 5.81834116"></polygon>
                                </g>
                                <g id="Group-2-Copy-5" transform="translate(247.088028, 162.072539)">
                                    <path d="M0.729195304,5.51802018 L25.6929065,5.51802018" id="Path-8" stroke="#1C3C55"></path>
                                    <polygon id="ion-ios-arrow-right---Ionicons" fill="#FF9500" transform="translate(14.239681, 5.818341) rotate(180.000000) translate(-14.239681, -5.818341) " points="10.7429577 0.690928012 11.507866 0 17.7364043 5.81834116 11.507866 11.6366823 10.7429577 10.9457543 16.2065879 5.81834116"></polygon>
                                </g>
                                <g id="Group-2-Copy-4" transform="translate(214.859155, 66.139896) rotate(-90.000000) translate(-214.859155, -66.139896) translate(173.677817, 60.181347)">
                                    <path d="M0.729195304,5.51802018 L81.7658451,5.51802018" id="Path-8" stroke="#1C3C55"></path>
                                    <polygon id="ion-ios-arrow-right---Ionicons" fill="#FF9500" transform="translate(14.239681, 5.818341) rotate(180.000000) translate(-14.239681, -5.818341) " points="10.7429577 0.690928012 11.507866 0 17.7364043 5.81834116 11.507866 11.6366823 10.7429577 10.9457543 16.2065879 5.81834116"></polygon>
                                </g>
                                <g id="Group-2-Copy-6" transform="translate(305.577465, 193.056995) rotate(-270.000000) translate(-305.577465, -193.056995) translate(292.447183, 187.098446)">
                                    <path d="M0.729195304,5.51802018 L25.6929065,5.51802018" id="Path-8" stroke="#1C3C55"></path>
                                    <polygon id="ion-ios-arrow-right---Ionicons" fill="#FF9500" transform="translate(14.239681, 5.818341) rotate(180.000000) translate(-14.239681, -5.818341) " points="10.7429577 0.690928012 11.507866 0 17.7364043 5.81834116 11.507866 11.6366823 10.7429577 10.9457543 16.2065879 5.81834116"></polygon>
                                </g>
                                <g id="Group-2-Copy-3" transform="translate(155.176056, 129.896373)">
                                    <path d="M0.729195304,0.751180807 L26.8573944,25.6217617" id="Path-8" stroke="#1C3C55"></path>
                                    <polygon id="ion-ios-arrow-right---Ionicons" fill="#FF9500" transform="translate(10.658695, 9.393471) rotate(219.000000) translate(-10.658695, -9.393471) " points="7.16197183 4.26605755 7.92688005 3.57512953 14.1554184 9.39347069 7.92688005 15.2118118 7.16197183 14.5208838 12.6256019 9.39347069"></polygon>
                                </g>
                                <g id="Group-2" transform="translate(0.000000, 104.870466)">
                                    <g id="Rectangle-Copy">
                                        <use fill="#FFFFFF" fill-rule="evenodd" xlink:href="#path-1"></use>
                                        <rect stroke="#1C3C55" stroke-width="1" x="0.5" y="0.5" width="65.8450704" height="25.2176166"></rect>
                                    </g>
                                    <path d="M10.2552496,9.6541412 L10.2552496,16.8818877 L9.41063117,16.8818877 L9.41063117,10.5959385 L7.54588928,11.8224651 L7.16197183,11.1872995 L9.46547652,9.6541412 L10.2552496,9.6541412 Z M15.191331,9.53367876 C15.7909765,9.53367876 16.2772671,9.64683931 16.6502173,9.87316382 C17.4399943,10.3404144 17.8348769,11.5085234 17.8348769,13.3775257 C17.8348769,14.6989688 17.6154977,15.6316308 17.1767327,16.1755397 C16.7379677,16.7194486 16.0798301,16.991399 15.2023001,16.991399 C14.3247701,16.991399 13.6648043,16.7230989 13.222383,16.1864908 C12.7799616,15.6498827 12.5587542,14.6934935 12.5587542,13.3172945 C12.5587542,11.9410955 12.7763053,10.9664546 13.2114139,10.3933425 C13.6465225,9.82023049 14.3064883,9.53367876 15.191331,9.53367876 Z M15.2023001,10.2893068 C14.7854733,10.2893068 14.4564045,10.376915 14.2150838,10.5521339 C13.6958786,10.9098727 13.4362798,11.8553109 13.4362798,13.3884769 C13.4362798,14.4689939 13.5788763,15.2154885 13.8640736,15.6279832 C14.1492708,16.0404778 14.5953418,16.2467221 15.2023001,16.2467221 C15.8092583,16.2467221 16.2553294,16.0386526 16.5405266,15.6225076 C16.8257239,15.2063625 16.9683203,14.4343155 16.9683203,13.3063434 C16.9683203,12.1783713 16.8312083,11.393548 16.5569802,10.9518502 C16.2827521,10.5101524 15.8311966,10.2893068 15.2023001,10.2893068 Z M22.5406079,9.6541412 L22.5406079,16.8818877 L21.6959895,16.8818877 L21.6959895,10.5959385 L19.8312476,11.8224651 L19.4473301,11.1872995 L21.7508348,9.6541412 L22.5406079,9.6541412 Z M27.4766893,9.53367876 C28.0763348,9.53367876 28.5626254,9.64683931 28.9355756,9.87316382 C29.7253526,10.3404144 30.1202352,11.5085234 30.1202352,13.3775257 C30.1202352,14.6989688 29.900856,15.6316308 29.462091,16.1755397 C29.023326,16.7194486 28.3651884,16.991399 27.4876584,16.991399 C26.6101284,16.991399 25.9501626,16.7230989 25.5077413,16.1864908 C25.0653199,15.6498827 24.8441126,14.6934935 24.8441126,13.3172945 C24.8441126,11.9410955 25.0616636,10.9664546 25.4967722,10.3933425 C25.9318808,9.82023049 26.5918466,9.53367876 27.4766893,9.53367876 Z M27.4876584,10.2893068 C27.0708317,10.2893068 26.7417629,10.376915 26.5004421,10.5521339 C25.9812369,10.9098727 25.7216381,11.8553109 25.7216381,13.3884769 C25.7216381,14.4689939 25.8642346,15.2154885 26.1494319,15.6279832 C26.4346291,16.0404778 26.8807002,16.2467221 27.4876584,16.2467221 C28.0946166,16.2467221 28.5406877,16.0386526 28.8258849,15.6225076 C29.1110822,15.2063625 29.2536787,14.4343155 29.2536787,13.3063434 C29.2536787,12.1783713 29.1165667,11.393548 28.8423385,10.9518502 C28.5681104,10.5101524 28.1165549,10.2893068 27.4876584,10.2893068 Z M34.8259662,9.6541412 L34.8259662,16.8818877 L33.9813478,16.8818877 L33.9813478,10.5959385 L32.1166059,11.8224651 L31.7326885,11.1872995 L34.0361932,9.6541412 L34.8259662,9.6541412 Z M39.7620477,9.53367876 C40.3616931,9.53367876 40.8479837,9.64683931 41.220934,9.87316382 C42.0107109,10.3404144 42.4055935,11.5085234 42.4055935,13.3775257 C42.4055935,14.6989688 42.1862143,15.6316308 41.7474493,16.1755397 C41.3086843,16.7194486 40.6505467,16.991399 39.7730167,16.991399 C38.8954867,16.991399 38.235521,16.7230989 37.7930996,16.1864908 C37.3506782,15.6498827 37.1294709,14.6934935 37.1294709,13.3172945 C37.1294709,11.9410955 37.3470219,10.9664546 37.7821305,10.3933425 C38.2172391,9.82023049 38.8772049,9.53367876 39.7620477,9.53367876 Z M39.7730167,10.2893068 C39.35619,10.2893068 39.0271212,10.376915 38.7858004,10.5521339 C38.2665952,10.9098727 38.0069965,11.8553109 38.0069965,13.3884769 C38.0069965,14.4689939 38.1495929,15.2154885 38.4347902,15.6279832 C38.7199874,16.0404778 39.1660585,16.2467221 39.7730167,16.2467221 C40.379975,16.2467221 40.826046,16.0386526 41.1112433,15.6225076 C41.3964405,15.2063625 41.539037,14.4343155 41.539037,13.3063434 C41.539037,12.1783713 41.401925,11.393548 41.1276969,10.9518502 C40.8534687,10.5101524 40.4019132,10.2893068 39.7730167,10.2893068 Z M47.1113245,9.6541412 L47.1113245,16.8818877 L46.2667061,16.8818877 L46.2667061,10.5959385 L44.4019642,11.8224651 L44.0180468,11.1872995 L46.3215515,9.6541412 L47.1113245,9.6541412 Z M52.047406,9.53367876 C52.6470515,9.53367876 53.133342,9.64683931 53.5062923,9.87316382 C54.2960693,10.3404144 54.6909518,11.5085234 54.6909518,13.3775257 C54.6909518,14.6989688 54.4715726,15.6316308 54.0328076,16.1755397 C53.5940426,16.7194486 52.935905,16.991399 52.058375,16.991399 C51.1808451,16.991399 50.5208793,16.7230989 50.0784579,16.1864908 C49.6360366,15.6498827 49.4148292,14.6934935 49.4148292,13.3172945 C49.4148292,11.9410955 49.6323802,10.9664546 50.0674888,10.3933425 C50.5025975,9.82023049 51.1625632,9.53367876 52.047406,9.53367876 Z M52.058375,10.2893068 C51.6415483,10.2893068 51.3124795,10.376915 51.0711587,10.5521339 C50.5519535,10.9098727 50.2923548,11.8553109 50.2923548,13.3884769 C50.2923548,14.4689939 50.4349513,15.2154885 50.7201485,15.6279832 C51.0053458,16.0404778 51.4514168,16.2467221 52.058375,16.2467221 C52.6653333,16.2467221 53.1114043,16.0386526 53.3966016,15.6225076 C53.6817988,15.2063625 53.8243953,14.4343155 53.8243953,13.3063434 C53.8243953,12.1783713 53.6872833,11.393548 53.4130552,10.9518502 C53.1388271,10.5101524 52.6872715,10.2893068 52.058375,10.2893068 Z M59.3966828,9.6541412 L59.3966828,16.8818877 L58.5520644,16.8818877 L58.5520644,10.5959385 L56.6873225,11.8224651 L56.3034051,11.1872995 L58.6069098,9.6541412 L59.3966828,9.6541412 Z" id="10101010100110111100-copy" fill="#1C3C55"></path>
                                </g>
                                <g id="Group-4" transform="translate(90.718310, 104.870466)">
                                    <g id="Rectangle-Copy-2">
                                        <use fill="#FFFFFF" fill-rule="evenodd" xlink:href="#path-2"></use>
                                        <rect stroke="#1C3C55" stroke-width="1" x="0.5" y="0.5" width="65.8450704" height="25.2176166"></rect>
                                    </g>
                                    <path d="M10.2552496,9.6541412 L10.2552496,16.8818877 L9.41063117,16.8818877 L9.41063117,10.5959385 L7.54588928,11.8224651 L7.16197183,11.1872995 L9.46547652,9.6541412 L10.2552496,9.6541412 Z M15.191331,9.53367876 C15.7909765,9.53367876 16.2772671,9.64683931 16.6502173,9.87316382 C17.4399943,10.3404144 17.8348769,11.5085234 17.8348769,13.3775257 C17.8348769,14.6989688 17.6154977,15.6316308 17.1767327,16.1755397 C16.7379677,16.7194486 16.0798301,16.991399 15.2023001,16.991399 C14.3247701,16.991399 13.6648043,16.7230989 13.222383,16.1864908 C12.7799616,15.6498827 12.5587542,14.6934935 12.5587542,13.3172945 C12.5587542,11.9410955 12.7763053,10.9664546 13.2114139,10.3933425 C13.6465225,9.82023049 14.3064883,9.53367876 15.191331,9.53367876 Z M15.2023001,10.2893068 C14.7854733,10.2893068 14.4564045,10.376915 14.2150838,10.5521339 C13.6958786,10.9098727 13.4362798,11.8553109 13.4362798,13.3884769 C13.4362798,14.4689939 13.5788763,15.2154885 13.8640736,15.6279832 C14.1492708,16.0404778 14.5953418,16.2467221 15.2023001,16.2467221 C15.8092583,16.2467221 16.2553294,16.0386526 16.5405266,15.6225076 C16.8257239,15.2063625 16.9683203,14.4343155 16.9683203,13.3063434 C16.9683203,12.1783713 16.8312083,11.393548 16.5569802,10.9518502 C16.2827521,10.5101524 15.8311966,10.2893068 15.2023001,10.2893068 Z M22.5406079,9.6541412 L22.5406079,16.8818877 L21.6959895,16.8818877 L21.6959895,10.5959385 L19.8312476,11.8224651 L19.4473301,11.1872995 L21.7508348,9.6541412 L22.5406079,9.6541412 Z M27.4766893,9.53367876 C28.0763348,9.53367876 28.5626254,9.64683931 28.9355756,9.87316382 C29.7253526,10.3404144 30.1202352,11.5085234 30.1202352,13.3775257 C30.1202352,14.6989688 29.900856,15.6316308 29.462091,16.1755397 C29.023326,16.7194486 28.3651884,16.991399 27.4876584,16.991399 C26.6101284,16.991399 25.9501626,16.7230989 25.5077413,16.1864908 C25.0653199,15.6498827 24.8441126,14.6934935 24.8441126,13.3172945 C24.8441126,11.9410955 25.0616636,10.9664546 25.4967722,10.3933425 C25.9318808,9.82023049 26.5918466,9.53367876 27.4766893,9.53367876 Z M27.4876584,10.2893068 C27.0708317,10.2893068 26.7417629,10.376915 26.5004421,10.5521339 C25.9812369,10.9098727 25.7216381,11.8553109 25.7216381,13.3884769 C25.7216381,14.4689939 25.8642346,15.2154885 26.1494319,15.6279832 C26.4346291,16.0404778 26.8807002,16.2467221 27.4876584,16.2467221 C28.0946166,16.2467221 28.5406877,16.0386526 28.8258849,15.6225076 C29.1110822,15.2063625 29.2536787,14.4343155 29.2536787,13.3063434 C29.2536787,12.1783713 29.1165667,11.393548 28.8423385,10.9518502 C28.5681104,10.5101524 28.1165549,10.2893068 27.4876584,10.2893068 Z M34.8259662,9.6541412 L34.8259662,16.8818877 L33.9813478,16.8818877 L33.9813478,10.5959385 L32.1166059,11.8224651 L31.7326885,11.1872995 L34.0361932,9.6541412 L34.8259662,9.6541412 Z M39.7620477,9.53367876 C40.3616931,9.53367876 40.8479837,9.64683931 41.220934,9.87316382 C42.0107109,10.3404144 42.4055935,11.5085234 42.4055935,13.3775257 C42.4055935,14.6989688 42.1862143,15.6316308 41.7474493,16.1755397 C41.3086843,16.7194486 40.6505467,16.991399 39.7730167,16.991399 C38.8954867,16.991399 38.235521,16.7230989 37.7930996,16.1864908 C37.3506782,15.6498827 37.1294709,14.6934935 37.1294709,13.3172945 C37.1294709,11.9410955 37.3470219,10.9664546 37.7821305,10.3933425 C38.2172391,9.82023049 38.8772049,9.53367876 39.7620477,9.53367876 Z M39.7730167,10.2893068 C39.35619,10.2893068 39.0271212,10.376915 38.7858004,10.5521339 C38.2665952,10.9098727 38.0069965,11.8553109 38.0069965,13.3884769 C38.0069965,14.4689939 38.1495929,15.2154885 38.4347902,15.6279832 C38.7199874,16.0404778 39.1660585,16.2467221 39.7730167,16.2467221 C40.379975,16.2467221 40.826046,16.0386526 41.1112433,15.6225076 C41.3964405,15.2063625 41.539037,14.4343155 41.539037,13.3063434 C41.539037,12.1783713 41.401925,11.393548 41.1276969,10.9518502 C40.8534687,10.5101524 40.4019132,10.2893068 39.7730167,10.2893068 Z M47.1113245,9.6541412 L47.1113245,16.8818877 L46.2667061,16.8818877 L46.2667061,10.5959385 L44.4019642,11.8224651 L44.0180468,11.1872995 L46.3215515,9.6541412 L47.1113245,9.6541412 Z M52.047406,9.53367876 C52.6470515,9.53367876 53.133342,9.64683931 53.5062923,9.87316382 C54.2960693,10.3404144 54.6909518,11.5085234 54.6909518,13.3775257 C54.6909518,14.6989688 54.4715726,15.6316308 54.0328076,16.1755397 C53.5940426,16.7194486 52.935905,16.991399 52.058375,16.991399 C51.1808451,16.991399 50.5208793,16.7230989 50.0784579,16.1864908 C49.6360366,15.6498827 49.4148292,14.6934935 49.4148292,13.3172945 C49.4148292,11.9410955 49.6323802,10.9664546 50.0674888,10.3933425 C50.5025975,9.82023049 51.1625632,9.53367876 52.047406,9.53367876 Z M52.058375,10.2893068 C51.6415483,10.2893068 51.3124795,10.376915 51.0711587,10.5521339 C50.5519535,10.9098727 50.2923548,11.8553109 50.2923548,13.3884769 C50.2923548,14.4689939 50.4349513,15.2154885 50.7201485,15.6279832 C51.0053458,16.0404778 51.4514168,16.2467221 52.058375,16.2467221 C52.6653333,16.2467221 53.1114043,16.0386526 53.3966016,15.6225076 C53.6817988,15.2063625 53.8243953,14.4343155 53.8243953,13.3063434 C53.8243953,12.1783713 53.6872833,11.393548 53.4130552,10.9518502 C53.1388271,10.5101524 52.6872715,10.2893068 52.058375,10.2893068 Z M59.3966828,9.6541412 L59.3966828,16.8818877 L58.5520644,16.8818877 L58.5520644,10.5959385 L56.6873225,11.8224651 L56.3034051,11.1872995 L58.6069098,9.6541412 L59.3966828,9.6541412 Z" id="10101010100110111100" fill="#1C3C55"></path>
                                </g>
                                <g id="Group-5" transform="translate(181.436620, 104.870466)">
                                    <g id="Rectangle-Copy-3">
                                        <use fill="#FFFFFF" fill-rule="evenodd" xlink:href="#path-3"></use>
                                        <rect stroke="#1C3C55" stroke-width="1" x="0.5" y="0.5" width="65.8450704" height="25.2176166"></rect>
                                    </g>
                                    <path d="M10.2552496,9.6541412 L10.2552496,16.8818877 L9.41063117,16.8818877 L9.41063117,10.5959385 L7.54588928,11.8224651 L7.16197183,11.1872995 L9.46547652,9.6541412 L10.2552496,9.6541412 Z M15.191331,9.53367876 C15.7909765,9.53367876 16.2772671,9.64683931 16.6502173,9.87316382 C17.4399943,10.3404144 17.8348769,11.5085234 17.8348769,13.3775257 C17.8348769,14.6989688 17.6154977,15.6316308 17.1767327,16.1755397 C16.7379677,16.7194486 16.0798301,16.991399 15.2023001,16.991399 C14.3247701,16.991399 13.6648043,16.7230989 13.222383,16.1864908 C12.7799616,15.6498827 12.5587542,14.6934935 12.5587542,13.3172945 C12.5587542,11.9410955 12.7763053,10.9664546 13.2114139,10.3933425 C13.6465225,9.82023049 14.3064883,9.53367876 15.191331,9.53367876 Z M15.2023001,10.2893068 C14.7854733,10.2893068 14.4564045,10.376915 14.2150838,10.5521339 C13.6958786,10.9098727 13.4362798,11.8553109 13.4362798,13.3884769 C13.4362798,14.4689939 13.5788763,15.2154885 13.8640736,15.6279832 C14.1492708,16.0404778 14.5953418,16.2467221 15.2023001,16.2467221 C15.8092583,16.2467221 16.2553294,16.0386526 16.5405266,15.6225076 C16.8257239,15.2063625 16.9683203,14.4343155 16.9683203,13.3063434 C16.9683203,12.1783713 16.8312083,11.393548 16.5569802,10.9518502 C16.2827521,10.5101524 15.8311966,10.2893068 15.2023001,10.2893068 Z M22.5406079,9.6541412 L22.5406079,16.8818877 L21.6959895,16.8818877 L21.6959895,10.5959385 L19.8312476,11.8224651 L19.4473301,11.1872995 L21.7508348,9.6541412 L22.5406079,9.6541412 Z M27.4766893,9.53367876 C28.0763348,9.53367876 28.5626254,9.64683931 28.9355756,9.87316382 C29.7253526,10.3404144 30.1202352,11.5085234 30.1202352,13.3775257 C30.1202352,14.6989688 29.900856,15.6316308 29.462091,16.1755397 C29.023326,16.7194486 28.3651884,16.991399 27.4876584,16.991399 C26.6101284,16.991399 25.9501626,16.7230989 25.5077413,16.1864908 C25.0653199,15.6498827 24.8441126,14.6934935 24.8441126,13.3172945 C24.8441126,11.9410955 25.0616636,10.9664546 25.4967722,10.3933425 C25.9318808,9.82023049 26.5918466,9.53367876 27.4766893,9.53367876 Z M27.4876584,10.2893068 C27.0708317,10.2893068 26.7417629,10.376915 26.5004421,10.5521339 C25.9812369,10.9098727 25.7216381,11.8553109 25.7216381,13.3884769 C25.7216381,14.4689939 25.8642346,15.2154885 26.1494319,15.6279832 C26.4346291,16.0404778 26.8807002,16.2467221 27.4876584,16.2467221 C28.0946166,16.2467221 28.5406877,16.0386526 28.8258849,15.6225076 C29.1110822,15.2063625 29.2536787,14.4343155 29.2536787,13.3063434 C29.2536787,12.1783713 29.1165667,11.393548 28.8423385,10.9518502 C28.5681104,10.5101524 28.1165549,10.2893068 27.4876584,10.2893068 Z M34.8259662,9.6541412 L34.8259662,16.8818877 L33.9813478,16.8818877 L33.9813478,10.5959385 L32.1166059,11.8224651 L31.7326885,11.1872995 L34.0361932,9.6541412 L34.8259662,9.6541412 Z M39.7620477,9.53367876 C40.3616931,9.53367876 40.8479837,9.64683931 41.220934,9.87316382 C42.0107109,10.3404144 42.4055935,11.5085234 42.4055935,13.3775257 C42.4055935,14.6989688 42.1862143,15.6316308 41.7474493,16.1755397 C41.3086843,16.7194486 40.6505467,16.991399 39.7730167,16.991399 C38.8954867,16.991399 38.235521,16.7230989 37.7930996,16.1864908 C37.3506782,15.6498827 37.1294709,14.6934935 37.1294709,13.3172945 C37.1294709,11.9410955 37.3470219,10.9664546 37.7821305,10.3933425 C38.2172391,9.82023049 38.8772049,9.53367876 39.7620477,9.53367876 Z M39.7730167,10.2893068 C39.35619,10.2893068 39.0271212,10.376915 38.7858004,10.5521339 C38.2665952,10.9098727 38.0069965,11.8553109 38.0069965,13.3884769 C38.0069965,14.4689939 38.1495929,15.2154885 38.4347902,15.6279832 C38.7199874,16.0404778 39.1660585,16.2467221 39.7730167,16.2467221 C40.379975,16.2467221 40.826046,16.0386526 41.1112433,15.6225076 C41.3964405,15.2063625 41.539037,14.4343155 41.539037,13.3063434 C41.539037,12.1783713 41.401925,11.393548 41.1276969,10.9518502 C40.8534687,10.5101524 40.4019132,10.2893068 39.7730167,10.2893068 Z M47.1113245,9.6541412 L47.1113245,16.8818877 L46.2667061,16.8818877 L46.2667061,10.5959385 L44.4019642,11.8224651 L44.0180468,11.1872995 L46.3215515,9.6541412 L47.1113245,9.6541412 Z M52.047406,9.53367876 C52.6470515,9.53367876 53.133342,9.64683931 53.5062923,9.87316382 C54.2960693,10.3404144 54.6909518,11.5085234 54.6909518,13.3775257 C54.6909518,14.6989688 54.4715726,15.6316308 54.0328076,16.1755397 C53.5940426,16.7194486 52.935905,16.991399 52.058375,16.991399 C51.1808451,16.991399 50.5208793,16.7230989 50.0784579,16.1864908 C49.6360366,15.6498827 49.4148292,14.6934935 49.4148292,13.3172945 C49.4148292,11.9410955 49.6323802,10.9664546 50.0674888,10.3933425 C50.5025975,9.82023049 51.1625632,9.53367876 52.047406,9.53367876 Z M52.058375,10.2893068 C51.6415483,10.2893068 51.3124795,10.376915 51.0711587,10.5521339 C50.5519535,10.9098727 50.2923548,11.8553109 50.2923548,13.3884769 C50.2923548,14.4689939 50.4349513,15.2154885 50.7201485,15.6279832 C51.0053458,16.0404778 51.4514168,16.2467221 52.058375,16.2467221 C52.6653333,16.2467221 53.1114043,16.0386526 53.3966016,15.6225076 C53.6817988,15.2063625 53.8243953,14.4343155 53.8243953,13.3063434 C53.8243953,12.1783713 53.6872833,11.393548 53.4130552,10.9518502 C53.1388271,10.5101524 52.6872715,10.2893068 52.058375,10.2893068 Z M59.3966828,9.6541412 L59.3966828,16.8818877 L58.5520644,16.8818877 L58.5520644,10.5959385 L56.6873225,11.8224651 L56.3034051,11.1872995 L58.6069098,9.6541412 L59.3966828,9.6541412 Z" id="10101010100110111100" fill="#1C3C55"></path>
                                </g>
                                <g id="Group-6" transform="translate(182.630282, 0.000000)">
                                    <g id="Rectangle-Copy-6">
                                        <use fill="#FFFFFF" fill-rule="evenodd" xlink:href="#path-4"></use>
                                        <rect stroke="#FF9500" stroke-width="1" x="0.5" y="0.5" width="65.8450704" height="25.2176166"></rect>
                                    </g>
                                    <path d="M9.06158758,9.6541412 L9.06158758,16.8818877 L8.21696919,16.8818877 L8.21696919,10.5959385 L6.35222731,11.8224651 L5.96830986,11.1872995 L8.27181454,9.6541412 L9.06158758,9.6541412 Z M13.997669,9.53367876 C14.5973145,9.53367876 15.0836051,9.64683931 15.4565553,9.87316382 C16.2463323,10.3404144 16.6412149,11.5085234 16.6412149,13.3775257 C16.6412149,14.6989688 16.4218357,15.6316308 15.9830707,16.1755397 C15.5443057,16.7194486 14.8861681,16.991399 14.0086381,16.991399 C13.1311081,16.991399 12.4711424,16.7230989 12.028721,16.1864908 C11.5862996,15.6498827 11.3650923,14.6934935 11.3650923,13.3172945 C11.3650923,11.9410955 11.5826433,10.9664546 12.0177519,10.3933425 C12.4528605,9.82023049 13.1128263,9.53367876 13.997669,9.53367876 Z M14.0086381,10.2893068 C13.5918114,10.2893068 13.2627426,10.376915 13.0214218,10.5521339 C12.5022166,10.9098727 12.2426179,11.8553109 12.2426179,13.3884769 C12.2426179,14.4689939 12.3852143,15.2154885 12.6704116,15.6279832 C12.9556088,16.0404778 13.4016799,16.2467221 14.0086381,16.2467221 C14.6155964,16.2467221 15.0616674,16.0386526 15.3468646,15.6225076 C15.6320619,15.2063625 15.7746584,14.4343155 15.7746584,13.3063434 C15.7746584,12.1783713 15.6375464,11.393548 15.3633183,10.9518502 C15.0890901,10.5101524 14.6375346,10.2893068 14.0086381,10.2893068 Z M21.3469459,9.6541412 L21.3469459,16.8818877 L20.5023275,16.8818877 L20.5023275,10.5959385 L18.6375856,11.8224651 L18.2536682,11.1872995 L20.5571729,9.6541412 L21.3469459,9.6541412 Z M26.2830274,9.53367876 C26.8826728,9.53367876 27.3689634,9.64683931 27.7419137,9.87316382 C28.5316906,10.3404144 28.9265732,11.5085234 28.9265732,13.3775257 C28.9265732,14.6989688 28.707194,15.6316308 28.268429,16.1755397 C27.829664,16.7194486 27.1715264,16.991399 26.2939964,16.991399 C25.4164665,16.991399 24.7565007,16.7230989 24.3140793,16.1864908 C23.8716579,15.6498827 23.6504506,14.6934935 23.6504506,13.3172945 C23.6504506,11.9410955 23.8680016,10.9664546 24.3031102,10.3933425 C24.7382189,9.82023049 25.3981846,9.53367876 26.2830274,9.53367876 Z M26.2939964,10.2893068 C25.8771697,10.2893068 25.5481009,10.376915 25.3067801,10.5521339 C24.7875749,10.9098727 24.5279762,11.8553109 24.5279762,13.3884769 C24.5279762,14.4689939 24.6705727,15.2154885 24.9557699,15.6279832 C25.2409671,16.0404778 25.6870382,16.2467221 26.2939964,16.2467221 C26.9009547,16.2467221 27.3470257,16.0386526 27.632223,15.6225076 C27.9174202,15.2063625 28.0600167,14.4343155 28.0600167,13.3063434 C28.0600167,12.1783713 27.9229047,11.393548 27.6486766,10.9518502 C27.3744484,10.5101524 26.9228929,10.2893068 26.2939964,10.2893068 Z M33.6323042,9.6541412 L33.6323042,16.8818877 L32.7876858,16.8818877 L32.7876858,10.5959385 L30.9229439,11.8224651 L30.5390265,11.1872995 L32.8425312,9.6541412 L33.6323042,9.6541412 Z M38.5683857,9.53367876 C39.1680312,9.53367876 39.6543217,9.64683931 40.027272,9.87316382 C40.817049,10.3404144 41.2119315,11.5085234 41.2119315,13.3775257 C41.2119315,14.6989688 40.9925523,15.6316308 40.5537873,16.1755397 C40.1150223,16.7194486 39.4568847,16.991399 38.5793547,16.991399 C37.7018248,16.991399 37.041859,16.7230989 36.5994376,16.1864908 C36.1570163,15.6498827 35.9358089,14.6934935 35.9358089,13.3172945 C35.9358089,11.9410955 36.1533599,10.9664546 36.5884686,10.3933425 C37.0235772,9.82023049 37.6835429,9.53367876 38.5683857,9.53367876 Z M38.5793547,10.2893068 C38.162528,10.2893068 37.8334592,10.376915 37.5921385,10.5521339 C37.0729332,10.9098727 36.8133345,11.8553109 36.8133345,13.3884769 C36.8133345,14.4689939 36.955931,15.2154885 37.2411282,15.6279832 C37.5263255,16.0404778 37.9723965,16.2467221 38.5793547,16.2467221 C39.186313,16.2467221 39.632384,16.0386526 39.9175813,15.6225076 C40.2027785,15.2063625 40.345375,14.4343155 40.345375,13.3063434 C40.345375,12.1783713 40.208263,11.393548 39.9340349,10.9518502 C39.6598068,10.5101524 39.2082512,10.2893068 38.5793547,10.2893068 Z M45.9176625,9.6541412 L45.9176625,16.8818877 L45.0730441,16.8818877 L45.0730441,10.5959385 L43.2083023,11.8224651 L42.8243848,11.1872995 L45.1278895,9.6541412 L45.9176625,9.6541412 Z M50.853744,9.53367876 C51.4533895,9.53367876 51.9396801,9.64683931 52.3126303,9.87316382 C53.1024073,10.3404144 53.4972898,11.5085234 53.4972898,13.3775257 C53.4972898,14.6989688 53.2779106,15.6316308 52.8391457,16.1755397 C52.4003807,16.7194486 51.742243,16.991399 50.8647131,16.991399 C49.9871831,16.991399 49.3272173,16.7230989 48.8847959,16.1864908 C48.4423746,15.6498827 48.2211672,14.6934935 48.2211672,13.3172945 C48.2211672,11.9410955 48.4387183,10.9664546 48.8738269,10.3933425 C49.3089355,9.82023049 49.9689013,9.53367876 50.853744,9.53367876 Z M50.8647131,10.2893068 C50.4478863,10.2893068 50.1188175,10.376915 49.8774968,10.5521339 C49.3582915,10.9098727 49.0986928,11.8553109 49.0986928,13.3884769 C49.0986928,14.4689939 49.2412893,15.2154885 49.5264865,15.6279832 C49.8116838,16.0404778 50.2577548,16.2467221 50.8647131,16.2467221 C51.4716713,16.2467221 51.9177424,16.0386526 52.2029396,15.6225076 C52.4881368,15.2063625 52.6307333,14.4343155 52.6307333,13.3063434 C52.6307333,12.1783713 52.4936213,11.393548 52.2193932,10.9518502 C51.9451651,10.5101524 51.4936096,10.2893068 50.8647131,10.2893068 Z M58.2030208,9.6541412 L58.2030208,16.8818877 L57.3584025,16.8818877 L57.3584025,10.5959385 L55.4936606,11.8224651 L55.1097431,11.1872995 L57.4132478,9.6541412 L58.2030208,9.6541412 Z" id="10101010100110111100" fill="#FF9500"></path>
                                </g>
                                <g id="Group-9" transform="translate(181.436620, 154.922280)">
                                    <g id="Rectangle-Copy-4">
                                        <use fill="#FFFFFF" fill-rule="evenodd" xlink:href="#path-5"></use>
                                        <rect stroke="#1C3C55" stroke-width="1" x="0.5" y="0.5" width="65.8450704" height="25.2176166"></rect>
                                    </g>
                                    <path d="M9.06158758,9.6541412 L9.06158758,16.8818877 L8.21696919,16.8818877 L8.21696919,10.5959385 L6.35222731,11.8224651 L5.96830986,11.1872995 L8.27181454,9.6541412 L9.06158758,9.6541412 Z M13.997669,9.53367876 C14.5973145,9.53367876 15.0836051,9.64683931 15.4565553,9.87316382 C16.2463323,10.3404144 16.6412149,11.5085234 16.6412149,13.3775257 C16.6412149,14.6989688 16.4218357,15.6316308 15.9830707,16.1755397 C15.5443057,16.7194486 14.8861681,16.991399 14.0086381,16.991399 C13.1311081,16.991399 12.4711424,16.7230989 12.028721,16.1864908 C11.5862996,15.6498827 11.3650923,14.6934935 11.3650923,13.3172945 C11.3650923,11.9410955 11.5826433,10.9664546 12.0177519,10.3933425 C12.4528605,9.82023049 13.1128263,9.53367876 13.997669,9.53367876 Z M14.0086381,10.2893068 C13.5918114,10.2893068 13.2627426,10.376915 13.0214218,10.5521339 C12.5022166,10.9098727 12.2426179,11.8553109 12.2426179,13.3884769 C12.2426179,14.4689939 12.3852143,15.2154885 12.6704116,15.6279832 C12.9556088,16.0404778 13.4016799,16.2467221 14.0086381,16.2467221 C14.6155964,16.2467221 15.0616674,16.0386526 15.3468646,15.6225076 C15.6320619,15.2063625 15.7746584,14.4343155 15.7746584,13.3063434 C15.7746584,12.1783713 15.6375464,11.393548 15.3633183,10.9518502 C15.0890901,10.5101524 14.6375346,10.2893068 14.0086381,10.2893068 Z M21.3469459,9.6541412 L21.3469459,16.8818877 L20.5023275,16.8818877 L20.5023275,10.5959385 L18.6375856,11.8224651 L18.2536682,11.1872995 L20.5571729,9.6541412 L21.3469459,9.6541412 Z M26.2830274,9.53367876 C26.8826728,9.53367876 27.3689634,9.64683931 27.7419137,9.87316382 C28.5316906,10.3404144 28.9265732,11.5085234 28.9265732,13.3775257 C28.9265732,14.6989688 28.707194,15.6316308 28.268429,16.1755397 C27.829664,16.7194486 27.1715264,16.991399 26.2939964,16.991399 C25.4164665,16.991399 24.7565007,16.7230989 24.3140793,16.1864908 C23.8716579,15.6498827 23.6504506,14.6934935 23.6504506,13.3172945 C23.6504506,11.9410955 23.8680016,10.9664546 24.3031102,10.3933425 C24.7382189,9.82023049 25.3981846,9.53367876 26.2830274,9.53367876 Z M26.2939964,10.2893068 C25.8771697,10.2893068 25.5481009,10.376915 25.3067801,10.5521339 C24.7875749,10.9098727 24.5279762,11.8553109 24.5279762,13.3884769 C24.5279762,14.4689939 24.6705727,15.2154885 24.9557699,15.6279832 C25.2409671,16.0404778 25.6870382,16.2467221 26.2939964,16.2467221 C26.9009547,16.2467221 27.3470257,16.0386526 27.632223,15.6225076 C27.9174202,15.2063625 28.0600167,14.4343155 28.0600167,13.3063434 C28.0600167,12.1783713 27.9229047,11.393548 27.6486766,10.9518502 C27.3744484,10.5101524 26.9228929,10.2893068 26.2939964,10.2893068 Z M33.6323042,9.6541412 L33.6323042,16.8818877 L32.7876858,16.8818877 L32.7876858,10.5959385 L30.9229439,11.8224651 L30.5390265,11.1872995 L32.8425312,9.6541412 L33.6323042,9.6541412 Z M38.5683857,9.53367876 C39.1680312,9.53367876 39.6543217,9.64683931 40.027272,9.87316382 C40.817049,10.3404144 41.2119315,11.5085234 41.2119315,13.3775257 C41.2119315,14.6989688 40.9925523,15.6316308 40.5537873,16.1755397 C40.1150223,16.7194486 39.4568847,16.991399 38.5793547,16.991399 C37.7018248,16.991399 37.041859,16.7230989 36.5994376,16.1864908 C36.1570163,15.6498827 35.9358089,14.6934935 35.9358089,13.3172945 C35.9358089,11.9410955 36.1533599,10.9664546 36.5884686,10.3933425 C37.0235772,9.82023049 37.6835429,9.53367876 38.5683857,9.53367876 Z M38.5793547,10.2893068 C38.162528,10.2893068 37.8334592,10.376915 37.5921385,10.5521339 C37.0729332,10.9098727 36.8133345,11.8553109 36.8133345,13.3884769 C36.8133345,14.4689939 36.955931,15.2154885 37.2411282,15.6279832 C37.5263255,16.0404778 37.9723965,16.2467221 38.5793547,16.2467221 C39.186313,16.2467221 39.632384,16.0386526 39.9175813,15.6225076 C40.2027785,15.2063625 40.345375,14.4343155 40.345375,13.3063434 C40.345375,12.1783713 40.208263,11.393548 39.9340349,10.9518502 C39.6598068,10.5101524 39.2082512,10.2893068 38.5793547,10.2893068 Z M45.9176625,9.6541412 L45.9176625,16.8818877 L45.0730441,16.8818877 L45.0730441,10.5959385 L43.2083023,11.8224651 L42.8243848,11.1872995 L45.1278895,9.6541412 L45.9176625,9.6541412 Z M50.853744,9.53367876 C51.4533895,9.53367876 51.9396801,9.64683931 52.3126303,9.87316382 C53.1024073,10.3404144 53.4972898,11.5085234 53.4972898,13.3775257 C53.4972898,14.6989688 53.2779106,15.6316308 52.8391457,16.1755397 C52.4003807,16.7194486 51.742243,16.991399 50.8647131,16.991399 C49.9871831,16.991399 49.3272173,16.7230989 48.8847959,16.1864908 C48.4423746,15.6498827 48.2211672,14.6934935 48.2211672,13.3172945 C48.2211672,11.9410955 48.4387183,10.9664546 48.8738269,10.3933425 C49.3089355,9.82023049 49.9689013,9.53367876 50.853744,9.53367876 Z M50.8647131,10.2893068 C50.4478863,10.2893068 50.1188175,10.376915 49.8774968,10.5521339 C49.3582915,10.9098727 49.0986928,11.8553109 49.0986928,13.3884769 C49.0986928,14.4689939 49.2412893,15.2154885 49.5264865,15.6279832 C49.8116838,16.0404778 50.2577548,16.2467221 50.8647131,16.2467221 C51.4716713,16.2467221 51.9177424,16.0386526 52.2029396,15.6225076 C52.4881368,15.2063625 52.6307333,14.4343155 52.6307333,13.3063434 C52.6307333,12.1783713 52.4936213,11.393548 52.2193932,10.9518502 C51.9451651,10.5101524 51.4936096,10.2893068 50.8647131,10.2893068 Z M58.2030208,9.6541412 L58.2030208,16.8818877 L57.3584025,16.8818877 L57.3584025,10.5959385 L55.4936606,11.8224651 L55.1097431,11.1872995 L57.4132478,9.6541412 L58.2030208,9.6541412 Z" id="10101010100110111100" fill="#1C3C55"></path>
                                </g>
                                <g id="Group-10" transform="translate(272.154930, 154.922280)">
                                    <g id="Rectangle-Copy-5">
                                        <use fill="#FFFFFF" fill-rule="evenodd" xlink:href="#path-6"></use>
                                        <rect stroke="#FF9500" stroke-width="1" x="0.5" y="0.5" width="65.8450704" height="25.2176166"></rect>
                                    </g>
                                    <path d="M10.2552496,9.6541412 L10.2552496,16.8818877 L9.41063117,16.8818877 L9.41063117,10.5959385 L7.54588928,11.8224651 L7.16197183,11.1872995 L9.46547652,9.6541412 L10.2552496,9.6541412 Z M15.191331,9.53367876 C15.7909765,9.53367876 16.2772671,9.64683931 16.6502173,9.87316382 C17.4399943,10.3404144 17.8348769,11.5085234 17.8348769,13.3775257 C17.8348769,14.6989688 17.6154977,15.6316308 17.1767327,16.1755397 C16.7379677,16.7194486 16.0798301,16.991399 15.2023001,16.991399 C14.3247701,16.991399 13.6648043,16.7230989 13.222383,16.1864908 C12.7799616,15.6498827 12.5587542,14.6934935 12.5587542,13.3172945 C12.5587542,11.9410955 12.7763053,10.9664546 13.2114139,10.3933425 C13.6465225,9.82023049 14.3064883,9.53367876 15.191331,9.53367876 Z M15.2023001,10.2893068 C14.7854733,10.2893068 14.4564045,10.376915 14.2150838,10.5521339 C13.6958786,10.9098727 13.4362798,11.8553109 13.4362798,13.3884769 C13.4362798,14.4689939 13.5788763,15.2154885 13.8640736,15.6279832 C14.1492708,16.0404778 14.5953418,16.2467221 15.2023001,16.2467221 C15.8092583,16.2467221 16.2553294,16.0386526 16.5405266,15.6225076 C16.8257239,15.2063625 16.9683203,14.4343155 16.9683203,13.3063434 C16.9683203,12.1783713 16.8312083,11.393548 16.5569802,10.9518502 C16.2827521,10.5101524 15.8311966,10.2893068 15.2023001,10.2893068 Z M22.5406079,9.6541412 L22.5406079,16.8818877 L21.6959895,16.8818877 L21.6959895,10.5959385 L19.8312476,11.8224651 L19.4473301,11.1872995 L21.7508348,9.6541412 L22.5406079,9.6541412 Z M27.4766893,9.53367876 C28.0763348,9.53367876 28.5626254,9.64683931 28.9355756,9.87316382 C29.7253526,10.3404144 30.1202352,11.5085234 30.1202352,13.3775257 C30.1202352,14.6989688 29.900856,15.6316308 29.462091,16.1755397 C29.023326,16.7194486 28.3651884,16.991399 27.4876584,16.991399 C26.6101284,16.991399 25.9501626,16.7230989 25.5077413,16.1864908 C25.0653199,15.6498827 24.8441126,14.6934935 24.8441126,13.3172945 C24.8441126,11.9410955 25.0616636,10.9664546 25.4967722,10.3933425 C25.9318808,9.82023049 26.5918466,9.53367876 27.4766893,9.53367876 Z M27.4876584,10.2893068 C27.0708317,10.2893068 26.7417629,10.376915 26.5004421,10.5521339 C25.9812369,10.9098727 25.7216381,11.8553109 25.7216381,13.3884769 C25.7216381,14.4689939 25.8642346,15.2154885 26.1494319,15.6279832 C26.4346291,16.0404778 26.8807002,16.2467221 27.4876584,16.2467221 C28.0946166,16.2467221 28.5406877,16.0386526 28.8258849,15.6225076 C29.1110822,15.2063625 29.2536787,14.4343155 29.2536787,13.3063434 C29.2536787,12.1783713 29.1165667,11.393548 28.8423385,10.9518502 C28.5681104,10.5101524 28.1165549,10.2893068 27.4876584,10.2893068 Z M34.8259662,9.6541412 L34.8259662,16.8818877 L33.9813478,16.8818877 L33.9813478,10.5959385 L32.1166059,11.8224651 L31.7326885,11.1872995 L34.0361932,9.6541412 L34.8259662,9.6541412 Z M39.7620477,9.53367876 C40.3616931,9.53367876 40.8479837,9.64683931 41.220934,9.87316382 C42.0107109,10.3404144 42.4055935,11.5085234 42.4055935,13.3775257 C42.4055935,14.6989688 42.1862143,15.6316308 41.7474493,16.1755397 C41.3086843,16.7194486 40.6505467,16.991399 39.7730167,16.991399 C38.8954867,16.991399 38.235521,16.7230989 37.7930996,16.1864908 C37.3506782,15.6498827 37.1294709,14.6934935 37.1294709,13.3172945 C37.1294709,11.9410955 37.3470219,10.9664546 37.7821305,10.3933425 C38.2172391,9.82023049 38.8772049,9.53367876 39.7620477,9.53367876 Z M39.7730167,10.2893068 C39.35619,10.2893068 39.0271212,10.376915 38.7858004,10.5521339 C38.2665952,10.9098727 38.0069965,11.8553109 38.0069965,13.3884769 C38.0069965,14.4689939 38.1495929,15.2154885 38.4347902,15.6279832 C38.7199874,16.0404778 39.1660585,16.2467221 39.7730167,16.2467221 C40.379975,16.2467221 40.826046,16.0386526 41.1112433,15.6225076 C41.3964405,15.2063625 41.539037,14.4343155 41.539037,13.3063434 C41.539037,12.1783713 41.401925,11.393548 41.1276969,10.9518502 C40.8534687,10.5101524 40.4019132,10.2893068 39.7730167,10.2893068 Z M47.1113245,9.6541412 L47.1113245,16.8818877 L46.2667061,16.8818877 L46.2667061,10.5959385 L44.4019642,11.8224651 L44.0180468,11.1872995 L46.3215515,9.6541412 L47.1113245,9.6541412 Z M52.047406,9.53367876 C52.6470515,9.53367876 53.133342,9.64683931 53.5062923,9.87316382 C54.2960693,10.3404144 54.6909518,11.5085234 54.6909518,13.3775257 C54.6909518,14.6989688 54.4715726,15.6316308 54.0328076,16.1755397 C53.5940426,16.7194486 52.935905,16.991399 52.058375,16.991399 C51.1808451,16.991399 50.5208793,16.7230989 50.0784579,16.1864908 C49.6360366,15.6498827 49.4148292,14.6934935 49.4148292,13.3172945 C49.4148292,11.9410955 49.6323802,10.9664546 50.0674888,10.3933425 C50.5025975,9.82023049 51.1625632,9.53367876 52.047406,9.53367876 Z M52.058375,10.2893068 C51.6415483,10.2893068 51.3124795,10.376915 51.0711587,10.5521339 C50.5519535,10.9098727 50.2923548,11.8553109 50.2923548,13.3884769 C50.2923548,14.4689939 50.4349513,15.2154885 50.7201485,15.6279832 C51.0053458,16.0404778 51.4514168,16.2467221 52.058375,16.2467221 C52.6653333,16.2467221 53.1114043,16.0386526 53.3966016,15.6225076 C53.6817988,15.2063625 53.8243953,14.4343155 53.8243953,13.3063434 C53.8243953,12.1783713 53.6872833,11.393548 53.4130552,10.9518502 C53.1388271,10.5101524 52.6872715,10.2893068 52.058375,10.2893068 Z M59.3966828,9.6541412 L59.3966828,16.8818877 L58.5520644,16.8818877 L58.5520644,10.5959385 L56.6873225,11.8224651 L56.3034051,11.1872995 L58.6069098,9.6541412 L59.3966828,9.6541412 Z" id="10101010100110111100" fill="#FF9500"></path>
                                </g>
                                <g id="Group-11" transform="translate(272.154930, 203.782383)">
                                    <g id="Rectangle-Copy-7">
                                        <use fill="#FFFFFF" fill-rule="evenodd" xlink:href="#path-7"></use>
                                        <rect stroke="#1C3C55" stroke-width="1" x="0.5" y="0.5" width="65.8450704" height="25.2176166"></rect>
                                    </g>
                                    <path d="M10.2552496,8.46243135 L10.2552496,15.6901778 L9.41063117,15.6901778 L9.41063117,9.40422862 L7.54588928,10.6307553 L7.16197183,9.99558969 L9.46547652,8.46243135 L10.2552496,8.46243135 Z M15.191331,8.34196891 C15.7909765,8.34196891 16.2772671,8.45512947 16.6502173,8.68145397 C17.4399943,9.14870456 17.8348769,10.3168135 17.8348769,12.1858159 C17.8348769,13.507259 17.6154977,14.439921 17.1767327,14.9838299 C16.7379677,15.5277388 16.0798301,15.7996891 15.2023001,15.7996891 C14.3247701,15.7996891 13.6648043,15.5313891 13.222383,14.994781 C12.7799616,14.4581729 12.5587542,13.5017837 12.5587542,12.1255847 C12.5587542,10.7493857 12.7763053,9.77474475 13.2114139,9.20163269 C13.6465225,8.62852064 14.3064883,8.34196891 15.191331,8.34196891 Z M15.2023001,9.09759695 C14.7854733,9.09759695 14.4564045,9.18520512 14.2150838,9.36042409 C13.6958786,9.71816283 13.4362798,10.663601 13.4362798,12.196767 C13.4362798,13.277284 13.5788763,14.0237786 13.8640736,14.4362733 C14.1492708,14.848768 14.5953418,15.0550122 15.2023001,15.0550122 C15.8092583,15.0550122 16.2553294,14.8469428 16.5405266,14.4307977 C16.8257239,14.0146527 16.9683203,13.2426057 16.9683203,12.1146335 C16.9683203,10.9866614 16.8312083,10.2018382 16.5569802,9.76014038 C16.2827521,9.31844255 15.8311966,9.09759695 15.2023001,9.09759695 Z M22.5406079,8.46243135 L22.5406079,15.6901778 L21.6959895,15.6901778 L21.6959895,9.40422862 L19.8312476,10.6307553 L19.4473301,9.99558969 L21.7508348,8.46243135 L22.5406079,8.46243135 Z M27.4766893,8.34196891 C28.0763348,8.34196891 28.5626254,8.45512947 28.9355756,8.68145397 C29.7253526,9.14870456 30.1202352,10.3168135 30.1202352,12.1858159 C30.1202352,13.507259 29.900856,14.439921 29.462091,14.9838299 C29.023326,15.5277388 28.3651884,15.7996891 27.4876584,15.7996891 C26.6101284,15.7996891 25.9501626,15.5313891 25.5077413,14.994781 C25.0653199,14.4581729 24.8441126,13.5017837 24.8441126,12.1255847 C24.8441126,10.7493857 25.0616636,9.77474475 25.4967722,9.20163269 C25.9318808,8.62852064 26.5918466,8.34196891 27.4766893,8.34196891 Z M27.4876584,9.09759695 C27.0708317,9.09759695 26.7417629,9.18520512 26.5004421,9.36042409 C25.9812369,9.71816283 25.7216381,10.663601 25.7216381,12.196767 C25.7216381,13.277284 25.8642346,14.0237786 26.1494319,14.4362733 C26.4346291,14.848768 26.8807002,15.0550122 27.4876584,15.0550122 C28.0946166,15.0550122 28.5406877,14.8469428 28.8258849,14.4307977 C29.1110822,14.0146527 29.2536787,13.2426057 29.2536787,12.1146335 C29.2536787,10.9866614 29.1165667,10.2018382 28.8423385,9.76014038 C28.5681104,9.31844255 28.1165549,9.09759695 27.4876584,9.09759695 Z M34.8259662,8.46243135 L34.8259662,15.6901778 L33.9813478,15.6901778 L33.9813478,9.40422862 L32.1166059,10.6307553 L31.7326885,9.99558969 L34.0361932,8.46243135 L34.8259662,8.46243135 Z M39.7620477,8.34196891 C40.3616931,8.34196891 40.8479837,8.45512947 41.220934,8.68145397 C42.0107109,9.14870456 42.4055935,10.3168135 42.4055935,12.1858159 C42.4055935,13.507259 42.1862143,14.439921 41.7474493,14.9838299 C41.3086843,15.5277388 40.6505467,15.7996891 39.7730167,15.7996891 C38.8954867,15.7996891 38.235521,15.5313891 37.7930996,14.994781 C37.3506782,14.4581729 37.1294709,13.5017837 37.1294709,12.1255847 C37.1294709,10.7493857 37.3470219,9.77474475 37.7821305,9.20163269 C38.2172391,8.62852064 38.8772049,8.34196891 39.7620477,8.34196891 Z M39.7730167,9.09759695 C39.35619,9.09759695 39.0271212,9.18520512 38.7858004,9.36042409 C38.2665952,9.71816283 38.0069965,10.663601 38.0069965,12.196767 C38.0069965,13.277284 38.1495929,14.0237786 38.4347902,14.4362733 C38.7199874,14.848768 39.1660585,15.0550122 39.7730167,15.0550122 C40.379975,15.0550122 40.826046,14.8469428 41.1112433,14.4307977 C41.3964405,14.0146527 41.539037,13.2426057 41.539037,12.1146335 C41.539037,10.9866614 41.401925,10.2018382 41.1276969,9.76014038 C40.8534687,9.31844255 40.4019132,9.09759695 39.7730167,9.09759695 Z M47.1113245,8.46243135 L47.1113245,15.6901778 L46.2667061,15.6901778 L46.2667061,9.40422862 L44.4019642,10.6307553 L44.0180468,9.99558969 L46.3215515,8.46243135 L47.1113245,8.46243135 Z M52.047406,8.34196891 C52.6470515,8.34196891 53.133342,8.45512947 53.5062923,8.68145397 C54.2960693,9.14870456 54.6909518,10.3168135 54.6909518,12.1858159 C54.6909518,13.507259 54.4715726,14.439921 54.0328076,14.9838299 C53.5940426,15.5277388 52.935905,15.7996891 52.058375,15.7996891 C51.1808451,15.7996891 50.5208793,15.5313891 50.0784579,14.994781 C49.6360366,14.4581729 49.4148292,13.5017837 49.4148292,12.1255847 C49.4148292,10.7493857 49.6323802,9.77474475 50.0674888,9.20163269 C50.5025975,8.62852064 51.1625632,8.34196891 52.047406,8.34196891 Z M52.058375,9.09759695 C51.6415483,9.09759695 51.3124795,9.18520512 51.0711587,9.36042409 C50.5519535,9.71816283 50.2923548,10.663601 50.2923548,12.196767 C50.2923548,13.277284 50.4349513,14.0237786 50.7201485,14.4362733 C51.0053458,14.848768 51.4514168,15.0550122 52.058375,15.0550122 C52.6653333,15.0550122 53.1114043,14.8469428 53.3966016,14.4307977 C53.6817988,14.0146527 53.8243953,13.2426057 53.8243953,12.1146335 C53.8243953,10.9866614 53.6872833,10.2018382 53.4130552,9.76014038 C53.1388271,9.31844255 52.6872715,9.09759695 52.058375,9.09759695 Z M59.3966828,8.46243135 L59.3966828,15.6901778 L58.5520644,15.6901778 L58.5520644,9.40422862 L56.6873225,10.6307553 L56.3034051,9.99558969 L58.6069098,8.46243135 L59.3966828,8.46243135 Z" id="10101010100110111100" fill="#1C3C55"></path>
                                </g>
                            </g>
                            <g id="czlowiek" transform="translate(422.000000, 246.000000) scale(-1, 1) translate(-422.000000, -246.000000) translate(398.000000, 170.000000)" fill="#FFFFFF">
                                <path d="M8.84197313,137.637795 L9.45953167,144.93268 C9.45953167,144.93268 6.9892975,147.972215 5.13662188,149.795936 C3.9015048,151.01175 6.37173896,151.01175 7.60685605,150.403843 C8.84197313,149.795936 14.1251864,148.442127 13.7824415,146.756401 C13.1648829,143.716866 14.4,138.245702 14.4,138.245702 L8.84197313,137.637795 Z" id="Fill-11" stroke="#1C3C55" stroke-width="0.7"></path>
                                <path d="M26.0871212,138.834646 L25.4552188,146.149383 C25.4552188,146.149383 27.2719381,148.666872 29.2466329,150.416313 C31.310426,152.244997 28.6147306,152.244997 27.3509259,151.635436 C26.0871212,151.025874 20.6811965,149.668381 21.0319024,147.978067 C21.6638047,144.93026 20.4,139.444207 20.4,139.444207 L26.0871212,138.834646 Z" id="Fill-13" stroke="#1C3C55" stroke-width="0.7"></path>
                                <path d="M23.9878417,44.7780536 C23.9878417,44.7780536 31.7654503,53.9039549 31.1671727,71.5473639 C30.5688951,89.190773 25.1843969,142.121 25.1843969,142.121 C25.1843969,142.121 19.201621,143.337787 19.201621,140.904213 C19.201621,138.395807 18.0050658,81.890052 17.4067882,75.1977244 C16.8085107,68.5053968 15.0136779,140.904213 15.0136779,140.904213 C15.0136779,140.904213 13.8171227,142.121 11.4240124,142.121 C9.03090206,142.121 8.43262448,141.512607 8.43262448,141.512607 C8.43262448,141.512607 3.04812622,88.5823796 3.6464038,75.1977244 C4.24468139,61.8130693 6.63779173,44.1696602 8.43262448,42.34448 C10.2274572,40.5192997 23.9878417,44.7780536 23.9878417,44.7780536" id="Fill-15" stroke="#1C3C55" stroke-width="0.7"></path>
                                <path d="M26.0496667,29.4573504 C22.4527439,21.613056 19.4553082,21.613056 19.4553082,21.613056 C16.4578725,21.0096487 18.855821,13.1653543 18.855821,13.1653543 L14.0599239,13.1653543 C14.6594111,14.3721689 14.6594111,20.4062415 13.4604368,21.0096487 C12.2614625,21.613056 9.26402679,20.4062415 6.26659108,25.2334996 C3.26915537,30.0607577 0.271719668,43.9391247 1.47069395,54.8004554 C2.66966823,65.6617861 6.86607822,73.5060805 8.66453965,74.1094878 C10.4630011,74.7128951 9.16750936,72.5134756 7.46556536,65.6617861 C6.26659108,60.834528 6.42305722,57.441569 6.67184439,54.1898073 C7.07769718,48.8882711 8.50147914,43.6953482 9.25023858,42.1596767 C9.12494577,42.4378474 7.66159766,47.5987897 10.4630011,48.1629755 C13.4604368,48.7663828 23.052231,48.7663828 24.8506925,47.5595683 C25.5754724,47.073222 23.9503642,38.416505 24.5558462,36.7951497 C26.6960153,37.9138667 29.41184,43.1013227 33.8932562,44.4723072 C38.3746724,45.8432917 43.9005851,47.5595683 44.22656,50.8808291 C44.5525349,54.20209 47.9616713,50.8161584 47.3146671,48.1629755 C46.6676628,45.5097926 40.979807,42.5305004 38.7057867,41.7973626 C29.8372944,38.2657087 29.6465896,37.3016448 26.0496667,29.4573504 Z" id="Fill-17" stroke="#1C3C55" stroke-width="0.7"></path>
                                <path d="M15.4882682,15.744917 C15.4882682,15.744917 16.2025243,16.8960537 18.7296487,16.7416548 C21.2574062,16.5872558 22.989224,14.0918347 22.7834321,11.117121 C22.5782735,8.14300342 22.2914312,3.9790004 18.4592698,3.61535805 C14.6271083,3.25231183 12.9776072,6.93761844 13.2239243,10.5066787 C13.4696081,14.0763351 15.4882682,15.744917 15.4882682,15.744917" id="Fill-19" stroke="#1C3C55" stroke-width="0.7"></path>
                                <path d="M29.0220873,53.9102196 C29.0413884,54.2211857 14.4771417,56.0052778 6.02761226,54.3827662 C6.91795395,47.8817444 8.16318708,39.9551563 8.16318708,39.9551563 C8.16318708,39.9551563 1.93702142,39.3454188 0.0691717284,38.7356812 C-0.553444837,38.7356812 3.18225456,27.1506678 5.05010425,24.1019801 C6.40927621,21.8837549 9.40842021,18.6143421 13.1441196,19.2240797 C13.1441196,21.0532923 14.3893527,21.6630299 16.2572024,21.6630299 C18.1250521,21.6630299 18.7476687,19.8338172 18.7476687,19.8338172 C18.7476687,19.8338172 20.6155184,19.8338172 22.4833681,21.6630299 C24.3512178,23.4922425 31.2,36.296731 31.2,36.296731 L26.841684,38.1259437 C26.841684,38.1259437 28.7120242,48.9634189 29.0220873,53.9102196" id="Fill-21" stroke="#FF9500"></path>
                                <path d="M17.1726443,1.23983781 C17.1726443,1.23983781 18.3107445,-0.447367416 18.879172,0.114623965 C19.448222,0.677230889 19.448222,1.80244474 20.0172721,1.80244474 C20.5863222,1.80244474 22.2934724,0.114623965 22.2934724,1.23983781 C22.2934724,2.36505166 21.7244223,2.36505166 22.8625225,2.92704304 C24,3.48964996 24,4.05225689 24,4.61486381 C24,5.17685519 22.2934724,4.61486381 21.7244223,5.17685519 C21.1547496,5.74007766 22.7548139,6.27006077 20.8870346,6.27006077 C18.9470346,6.27006077 20.7799486,6.63076937 19.0192554,7.50114813 C17.7740693,8.11669181 17.7416944,6.30206904 17.1726443,6.30206904 C16.6042169,6.30206904 18.3966623,8.11669181 17.1514762,8.11669181 C15.8795185,8.11669181 16.5288831,8.11669181 15.90629,7.50114813 C15.006643,6.61230306 16.1833439,7.84339042 15.283697,8.73223549 C14.6611039,9.34777917 14.3286392,9.11448812 14.8970667,9.67709504 C15.4661167,10.239702 16.6042169,10.8023089 16.0351668,11.3643003 C15.4661167,11.9269072 16.6042169,13.614728 14.8970667,13.052121 C13.190539,12.4895141 14.3286392,12.4895141 13.7595891,11.3643003 C13.190539,10.239702 13.190539,10.239702 12.6208664,10.239702 C12.0524389,10.239702 10.3459113,9.67709504 10.9143388,8.55188119 L12.0524389,6.30206904 C12.0524389,6.30206904 10.9143388,5.74007766 10.9143388,4.61486381 C10.9143388,3.48964996 13.190539,4.05225689 13.190539,4.05225689 C13.190539,4.05225689 12.0524389,2.36505166 13.190539,1.80244474 C14.3286392,1.23983781 14.8970667,2.36505166 15.4661167,2.36505166 C16.0351668,2.36505166 15.4661167,1.23983781 17.1726443,1.23983781" id="Fill-23" stroke="#1C3C55" stroke-width="0.7"></path>
                            </g>
                        </g>
                    </g>
                </g>
            </g>
        </g>
    </g>
</svg>