<?xml version="1.0" encoding="UTF-8"?>
<svg width="79px" height="58px" viewBox="0 0 79 58" version="1.1" xmlns="http://www.w3.org/2000/svg" xmlns:xlink="http://www.w3.org/1999/xlink">
    <!-- Generator: Sketch 49 (51002) - http://www.bohemiancoding.com/sketch -->
    <title>Multi-signature accounts icon</title>
    <desc>Created with Sketch.</desc>
    <defs></defs>
    <g id="Innovation" stroke="none" stroke-width="1" fill="none" fill-rule="evenodd">
        <g id="22.01.18-Bitcoin.org_Innovation_Desktop-1200px--" transform="translate(-757.000000, -1914.000000)">
            <g id="//contenct" transform="translate(215.000000, 697.000000)">
                <g id="box8" transform="translate(400.000000, 1170.000000)">
                    <g id="Multi-signature-accounts-icon" transform="translate(142.000000, 30.000000)">
                        <g>
                            <rect id="Rectangle-2" x="0" y="0" width="80" height="80"></rect>
                            <g id="Group-10" transform="translate(1.000000, 18.000000)">
                                <g id="Group-9" transform="translate(48.000000, 1.000000)">
                                    <path d="M19.0111732,0 C18.4003694,0 17.7970234,0.115326228 17.2011173,0.345982143 C16.6052111,0.57663806 16.0689037,0.87053393 15.5921788,1.22767857 C15.1154538,1.58482321 14.7318451,1.97172411 14.4413408,2.38839286 C14.1508365,2.8050616 14.0055866,3.1994029 14.0055866,3.57142857 L14.0055866,7.14285715 C14.0055866,7.8422654 14.1806314,8.7351136 14.5307263,9.82142855 C14.8808211,10.9077435 15.4283017,11.748509 16.1731843,12.34375 C16.3668538,12.4925603 16.5121038,12.6822905 16.6089386,12.9129464 C16.7057733,13.1436024 16.7392925,13.3854154 16.7094972,13.6383929 C16.6648042,13.8764893 16.5716953,14.0959812 16.4301676,14.296875 C16.2886399,14.4977688 16.1061463,14.6502971 15.8826816,14.7544643 L9.60335196,17.7232143 C9.51396603,17.7529764 9.39106223,17.8236601 9.23463687,17.9352678 C9.07821151,18.0468755 9,18.2514866 9,18.5491072 L9,20 L29,19.9776786 L29,18.59375 C29,18.2068433 28.906891,17.9650303 28.7206704,17.8683036 C28.5344497,17.7715769 28.4338921,17.7232143 28.4189944,17.7232143 L22.1843575,14.7767857 C21.9608927,14.6726185 21.7746749,14.5200903 21.6256983,14.3191964 C21.4767218,14.1183025 21.3873372,13.8913703 21.3575419,13.6383929 C21.3277466,13.3854154 21.3612658,13.1436024 21.4581005,12.9129464 C21.5549353,12.6822905 21.7001853,12.4925603 21.8938547,12.34375 C22.6685328,11.748509 23.2160133,10.9040233 23.5363129,9.81026785 C23.8566124,8.7165124 24.0167598,7.82738435 24.0167598,7.14285715 L24.0167598,3.57142857 C24.0167598,3.18452188 23.8677854,2.78274018 23.5698324,2.36607143 C23.2718793,1.94940268 22.8882705,1.56622199 22.4189944,1.21651785 C21.9497183,0.86681373 21.4134108,0.57663806 20.8100558,0.345982143 C20.2067009,0.115326228 19.6070793,0 19.0111732,0 Z" id="User---simple-line-icons-Copy" stroke="#95AABF" fill="#FFFFFF"></path>
                                    <path d="M12.5139665,0 C11.7504618,0 10.9962793,0.144157784 10.2513966,0.432477679 C9.50651394,0.720797575 8.83612962,1.08816741 8.24022344,1.53459821 C7.64431731,1.98102902 7.16480631,2.46465513 6.801676,2.98549107 C6.43854569,3.50632701 6.25698325,3.99925363 6.25698325,4.46428571 L6.25698325,8.92857144 C6.25698325,9.80283175 6.47578925,10.918892 6.91340781,12.2767857 C7.35102638,13.6346794 8.03537713,14.6856362 8.96648044,15.4296875 C9.20856731,15.6157003 9.39012975,15.8528631 9.51117319,16.1411831 C9.63221662,16.4295029 9.67411563,16.7317692 9.6368715,17.0479911 C9.58100531,17.3456116 9.46461913,17.6199764 9.2877095,17.8710938 C9.11079987,18.1222111 8.88268294,18.3128714 8.60335194,18.4430804 L0.754189944,22.1540179 C0.642457544,22.1912204 0.488827793,22.2795752 0.293296089,22.4190848 C0.0977643856,22.5585944 0,22.8143582 0,23.1863839 L0,25 L25,24.9720982 L25,23.2421875 C25,22.7585541 24.8836138,22.4562878 24.650838,22.3353794 C24.4180621,22.2144711 24.2923651,22.1540179 24.273743,22.1540179 L16.4804469,18.4709821 C16.2011159,18.3407732 15.9683436,18.1501129 15.7821229,17.8989956 C15.5959022,17.6478782 15.4841715,17.3642129 15.4469274,17.0479911 C15.4096833,16.7317692 15.4515823,16.4295029 15.5726257,16.1411831 C15.6936691,15.8528631 15.8752316,15.6157003 16.1173184,15.4296875 C17.0856659,14.6856362 17.7700166,13.6300292 18.1703911,12.2628348 C18.5707655,10.8956405 18.7709498,9.78423044 18.7709498,8.92857144 L18.7709498,4.46428571 C18.7709498,3.98065234 18.5847318,3.47842522 18.2122905,2.95758929 C17.8398492,2.43675335 17.3603381,1.95777748 16.773743,1.52064732 C16.1871479,1.08351716 15.5167636,0.720797575 14.7625698,0.432477679 C14.0083761,0.144157784 13.2588492,0 12.5139665,0 Z" id="User---simple-line-icons-Copy" fill="#FFFFFF"></path>
                                    <path d="M24.8813117,21.8916657 C25.3176314,22.1182988 25.5,22.5919279 25.5,23.2421875 L25.5,25.4715405 L-0.5,25.5005583 L-0.5,23.1863839 C-0.5,22.6677342 -0.34397332,22.259549 0.0028918888,22.0120647 C0.235580859,21.8460438 0.426933009,21.7359943 0.540480151,21.7019912 L8.39210302,17.9898984 C8.59237267,17.8965435 8.75237239,17.7628156 8.8789576,17.5831321 C9.0147609,17.3903639 9.10285332,17.1826978 9.14030377,16.9895061 C9.1675053,16.7585511 9.13764453,16.5431307 9.05015306,16.3347301 C8.96251836,16.1259882 8.83462168,15.9589254 8.65434561,15.820292 C7.64257969,15.0117826 6.90394569,13.877463 6.43751137,12.4301564 C5.98525775,11.0268514 5.75698325,9.86249527 5.75698325,8.92857144 L5.75698325,4.46428571 C5.75698325,3.88738487 5.97386184,3.29857788 6.39152252,2.69952931 C6.78644831,2.13308928 7.3034714,1.61162918 7.94043787,1.13443748 C8.57357593,0.660113938 9.28415835,0.270715606 10.0709114,-0.0338109625 C10.8727086,-0.344160612 11.6880051,-0.5 12.5139665,-0.5 C13.3211858,-0.5 14.131043,-0.344238796 14.9411124,-0.0345582159 C15.737211,0.269781423 16.4481038,0.654418595 17.0725097,1.11972532 C17.6992586,1.586778 18.2154065,2.1023499 18.6190037,2.66675531 C19.0483047,3.26710606 19.2709498,3.86757663 19.2709498,4.46428571 L19.2709498,8.92857144 C19.2709498,9.83901745 19.0628492,10.9943781 18.6502389,12.4033553 C18.2212035,13.8684208 17.4780981,15.0146567 16.4219599,15.826164 C16.2491772,15.9589254 16.1212805,16.1259882 16.0336458,16.3347301 C15.9461543,16.5431307 15.9162936,16.7585511 15.9434951,16.9895061 C15.9705763,17.2194395 16.0497762,17.4205146 16.1837424,17.6011672 C16.3206007,17.7857197 16.4880407,17.9228672 16.6940861,18.0189221 L24.406356,21.6636656 C24.4788858,21.6823014 24.5821552,21.736278 24.8813117,21.8916657 Z M24.1652716,22.6499535 C24.1688596,22.6516791 24.1725577,22.653466 24.1763656,22.6553142 C24.1752105,22.6547621 24.1707027,22.6525655 24.1652716,22.6499535 Z M24.273743,22.6540179 L24.0601038,22.6060779 L16.2691981,18.9241641 C15.9141912,18.7586792 15.6160864,18.5145061 15.3805033,18.1968238 C15.1420282,17.8752417 14.9977667,17.5089861 14.9503596,17.1064761 C14.9030729,16.7049873 14.9570102,16.3158751 15.1116056,15.9476361 C15.2660577,15.579738 15.5012859,15.2724753 15.812677,15.0332111 C16.6932338,14.3566157 17.3188297,13.3916376 17.6905432,12.1223143 C18.0786818,10.7969028 18.2709497,9.72944337 18.2709497,8.92857144 L18.2709497,4.46428571 C18.2709497,4.09372816 18.121159,3.6897445 17.8055773,3.24842326 C17.4642919,2.77115686 17.0214178,2.32877701 16.4749763,1.92156932 C15.9261919,1.51261566 15.296316,1.17181368 14.5840272,0.899513569 C13.8857092,0.632554364 13.1965126,0.5 12.5139665,0.5 C11.8129184,0.5 11.11985,0.632476187 10.4318818,0.89876632 C9.72886964,1.1708795 9.09868341,1.51622082 8.54000903,1.93475893 C7.98516327,2.35042883 7.54316434,2.79622094 7.21182948,3.27145283 C6.90322953,3.71407614 6.75698325,4.11112239 6.75698325,4.46428571 L6.75698325,8.92857144 C6.75698325,9.74316822 6.96632074,10.8109326 7.38930426,12.123415 C7.79810702,13.3918957 8.42817447,14.3594897 9.2711219,15.033211 C9.58251295,15.2724753 9.81774114,15.579738 9.9721933,15.947636 C10.1267887,16.3158751 10.180726,16.7049873 10.1282889,17.1402348 C10.0591573,17.5085254 9.91447739,17.8495889 9.6964614,18.1590554 C9.46922738,18.4816065 9.17299324,18.7291992 8.81706173,18.8951071 L0.912144966,22.6284124 C0.857982036,22.6464466 0.742074654,22.7131067 0.58370029,22.826105 C0.539502089,22.8576399 0.5,22.9609823 0.5,23.1863839 L0.5,24.4994417 L24.5,24.4726559 L24.5,23.2421875 C24.5,22.9251804 24.4495962,22.7942768 24.4203644,22.7790932 C24.3151593,22.7244476 24.2334294,22.6830094 24.1763656,22.6553142 C24.2194688,22.6762846 24.1747433,22.6540179 24.273743,22.6540179 Z" id="User---simple-line-icons-Copy" fill="#1C1F30" fill-rule="nonzero"></path>
                                </g>
                                <g id="Group-9" transform="translate(15.000000, 13.000000) scale(-1, 1) translate(-15.000000, -13.000000) ">
                                    <path d="M20.0111732,0 C19.4003694,0 18.7970234,0.115326228 18.2011173,0.345982143 C17.6052111,0.57663806 17.0689037,0.87053393 16.5921788,1.22767857 C16.1154539,1.58482321 15.7318451,1.97172411 15.4413408,2.38839286 C15.1508365,2.8050616 15.0055866,3.1994029 15.0055866,3.57142857 L15.0055866,7.14285715 C15.0055866,7.8422654 15.1806314,8.7351136 15.5307263,9.82142855 C15.8808211,10.9077435 16.4283017,11.748509 17.1731843,12.34375 C17.3668538,12.4925603 17.5121038,12.6822905 17.6089386,12.9129464 C17.7057733,13.1436024 17.7392925,13.3854154 17.7094972,13.6383929 C17.6648042,13.8764893 17.5716953,14.0959812 17.4301676,14.296875 C17.2886399,14.4977688 17.1061463,14.6502971 16.8826816,14.7544643 L10.603352,17.7232143 C10.513966,17.7529764 10.3910622,17.8236601 10.2346369,17.9352678 C10.0782115,18.0468755 10,18.2514866 10,18.5491072 L10,20 L30,19.9776786 L30,18.59375 C30,18.2068433 29.906891,17.9650303 29.7206704,17.8683036 C29.5344497,17.7715769 29.4338921,17.7232143 29.4189944,17.7232143 L23.1843575,14.7767857 C22.9608927,14.6726185 22.7746749,14.5200903 22.6256983,14.3191964 C22.4767218,14.1183025 22.3873372,13.8913703 22.3575419,13.6383929 C22.3277466,13.3854154 22.3612658,13.1436024 22.4581005,12.9129464 C22.5549353,12.6822905 22.7001853,12.4925603 22.8938547,12.34375 C23.6685328,11.748509 24.2160133,10.9040233 24.5363129,9.81026785 C24.8566124,8.7165124 25.0167598,7.82738435 25.0167598,7.14285715 L25.0167598,3.57142857 C25.0167598,3.18452188 24.8677854,2.78274018 24.5698324,2.36607143 C24.2718793,1.94940268 23.8882705,1.56622199 23.4189944,1.21651785 C22.9497183,0.86681373 22.4134108,0.57663806 21.8100558,0.345982143 C21.2067009,0.115326228 20.6070793,0 20.0111732,0 Z" id="User---simple-line-icons-Copy" stroke="#95AABF" fill="#FFFFFF"></path>
                                    <path d="M12.5139665,1 C11.7504618,1 10.9962793,1.14415778 10.2513966,1.43247768 C9.50651394,1.72079757 8.83612962,2.08816741 8.24022344,2.53459821 C7.64431731,2.98102902 7.16480631,3.46465513 6.801676,3.98549107 C6.43854569,4.50632701 6.25698325,4.99925362 6.25698325,5.46428571 L6.25698325,9.92857144 C6.25698325,10.8028317 6.47578925,11.918892 6.91340781,13.2767857 C7.35102638,14.6346794 8.03537713,15.6856362 8.96648044,16.4296875 C9.20856731,16.6157003 9.39012975,16.8528631 9.51117319,17.1411831 C9.63221662,17.4295029 9.67411563,17.7317692 9.6368715,18.0479911 C9.58100531,18.3456116 9.46461913,18.6199764 9.2877095,18.8710938 C9.11079987,19.1222111 8.88268294,19.3128714 8.60335194,19.4430804 L0.754189944,23.1540179 C0.642457544,23.1912204 0.488827793,23.2795752 0.293296089,23.4190848 C0.0977643856,23.5585944 0,23.8143582 0,24.1863839 L0,26 L25,25.9720982 L25,24.2421875 C25,23.7585541 24.8836138,23.4562878 24.650838,23.3353794 C24.4180621,23.2144711 24.2923651,23.1540179 24.273743,23.1540179 L16.4804469,19.4709821 C16.2011159,19.3407732 15.9683436,19.1501129 15.7821229,18.8989956 C15.5959022,18.6478782 15.4841715,18.3642129 15.4469274,18.0479911 C15.4096833,17.7317692 15.4515823,17.4295029 15.5726257,17.1411831 C15.6936691,16.8528631 15.8752316,16.6157003 16.1173184,16.4296875 C17.0856659,15.6856362 17.7700166,14.6300292 18.1703911,13.2628348 C18.5707655,11.8956405 18.7709498,10.7842304 18.7709498,9.92857144 L18.7709498,5.46428571 C18.7709498,4.98065234 18.5847318,4.47842522 18.2122905,3.95758929 C17.8398492,3.43675335 17.3603381,2.95777748 16.773743,2.52064732 C16.1871479,2.08351716 15.5167636,1.72079757 14.7625698,1.43247768 C14.0083761,1.14415778 13.2588492,1 12.5139665,1 Z" id="User---simple-line-icons-Copy" fill="#FFFFFF"></path>
                                    <path d="M24.8813117,22.8916657 C25.3176314,23.1182988 25.5,23.5919279 25.5,24.2421875 L25.5,26.4715405 L-0.5,26.5005583 L-0.5,24.1863839 C-0.5,23.6677342 -0.34397332,23.259549 0.0028918888,23.0120647 C0.235580859,22.8460438 0.426933009,22.7359943 0.540480151,22.7019912 L8.39210302,18.9898984 C8.59237267,18.8965435 8.75237239,18.7628156 8.8789576,18.5831321 C9.0147609,18.3903639 9.10285332,18.1826978 9.14030377,17.9895061 C9.1675053,17.7585511 9.13764453,17.5431307 9.05015306,17.3347301 C8.96251836,17.1259882 8.83462168,16.9589254 8.65434561,16.820292 C7.64257969,16.0117826 6.90394569,14.877463 6.43751137,13.4301564 C5.98525775,12.0268514 5.75698325,10.8624953 5.75698325,9.92857144 L5.75698325,5.46428571 C5.75698325,4.88738487 5.97386184,4.29857788 6.39152252,3.69952931 C6.78644831,3.13308928 7.3034714,2.61162918 7.94043787,2.13443748 C8.57357593,1.66011394 9.28415835,1.27071561 10.0709114,0.966189037 C10.8727086,0.655839388 11.6880051,0.5 12.5139665,0.5 C13.3211858,0.5 14.131043,0.655761204 14.9411124,0.965441784 C15.737211,1.26978142 16.4481038,1.6544186 17.0725097,2.11972532 C17.6992586,2.586778 18.2154065,3.1023499 18.6190037,3.66675531 C19.0483047,4.26710606 19.2709498,4.86757663 19.2709498,5.46428571 L19.2709498,9.92857144 C19.2709498,10.8390174 19.0628492,11.9943781 18.6502389,13.4033553 C18.2212035,14.8684208 17.4780981,16.0146567 16.4219599,16.826164 C16.2491772,16.9589254 16.1212805,17.1259882 16.0336458,17.3347301 C15.9461543,17.5431307 15.9162936,17.7585511 15.9434951,17.9895061 C15.9705763,18.2194395 16.0497762,18.4205146 16.1837424,18.6011672 C16.3206007,18.7857197 16.4880407,18.9228672 16.6940861,19.0189221 L24.406356,22.6636656 C24.4788858,22.6823014 24.5821552,22.736278 24.8813117,22.8916657 Z M24.1652716,23.6499535 C24.1688596,23.6516791 24.1725577,23.653466 24.1763656,23.6553142 C24.1752105,23.6547621 24.1707027,23.6525655 24.1652716,23.6499535 Z M24.273743,23.6540179 L24.0601038,23.6060779 L16.2691981,19.9241641 C15.9141912,19.7586792 15.6160864,19.5145061 15.3805033,19.1968238 C15.1420282,18.8752417 14.9977667,18.5089861 14.9503596,18.1064761 C14.9030729,17.7049873 14.9570102,17.3158751 15.1116056,16.9476361 C15.2660577,16.579738 15.5012859,16.2724753 15.812677,16.0332111 C16.6932338,15.3566157 17.3188297,14.3916376 17.6905432,13.1223143 C18.0786818,11.7969028 18.2709497,10.7294434 18.2709497,9.92857144 L18.2709497,5.46428571 C18.2709497,5.09372816 18.121159,4.6897445 17.8055773,4.24842326 C17.4642919,3.77115686 17.0214178,3.32877701 16.4749763,2.92156932 C15.9261919,2.51261566 15.296316,2.17181368 14.5840272,1.89951357 C13.8857092,1.63255436 13.1965126,1.5 12.5139665,1.5 C11.8129184,1.5 11.11985,1.63247619 10.4318818,1.89876632 C9.72886964,2.1708795 9.09868341,2.51622082 8.54000903,2.93475893 C7.98516327,3.35042883 7.54316434,3.79622094 7.21182948,4.27145283 C6.90322953,4.71407614 6.75698325,5.11112239 6.75698325,5.46428571 L6.75698325,9.92857144 C6.75698325,10.7431682 6.96632074,11.8109326 7.38930426,13.123415 C7.79810702,14.3918957 8.42817447,15.3594897 9.2711219,16.033211 C9.58251295,16.2724753 9.81774114,16.579738 9.9721933,16.947636 C10.1267887,17.3158751 10.180726,17.7049873 10.1282889,18.1402348 C10.0591573,18.5085254 9.91447739,18.8495889 9.6964614,19.1590554 C9.46922738,19.4816065 9.17299324,19.7291992 8.81706173,19.8951071 L0.912144966,23.6284124 C0.857982036,23.6464466 0.742074654,23.7131067 0.58370029,23.826105 C0.539502089,23.8576399 0.5,23.9609823 0.5,24.1863839 L0.5,25.4994417 L24.5,25.4726559 L24.5,24.2421875 C24.5,23.9251804 24.4495962,23.7942768 24.4203644,23.7790932 C24.3151593,23.7244476 24.2334294,23.6830094 24.1763656,23.6553142 C24.2194688,23.6762846 24.1747433,23.6540179 24.273743,23.6540179 Z" id="User---simple-line-icons-Copy" fill="#1C1F30" fill-rule="nonzero"></path>
                                </g>
                                <g id="Group-9" transform="translate(40.500000, 43.500000) scale(-1, 1) translate(-40.500000, -43.500000) translate(28.000000, 31.000000)" fill="#1C1F30" fill-rule="nonzero">
                                    <path d="M24.8813117,21.8916657 C25.3176314,22.1182988 25.5,22.5919279 25.5,23.2421875 L25.5,25.4715405 L-0.5,25.5005583 L-0.5,23.1863839 C-0.5,22.6677342 -0.34397332,22.259549 0.0028918888,22.0120647 C0.235580859,21.8460438 0.426933009,21.7359943 0.540480151,21.7019912 L8.39210302,17.9898984 C8.59237267,17.8965435 8.75237239,17.7628156 8.8789576,17.5831321 C9.0147609,17.3903639 9.10285332,17.1826978 9.14030377,16.9895061 C9.1675053,16.7585511 9.13764453,16.5431307 9.05015306,16.3347301 C8.96251836,16.1259882 8.83462168,15.9589254 8.65434561,15.820292 C7.64257969,15.0117826 6.90394569,13.877463 6.43751137,12.4301564 C5.98525775,11.0268514 5.75698325,9.86249527 5.75698325,8.92857144 L5.75698325,4.46428571 C5.75698325,3.88738487 5.97386184,3.29857788 6.39152252,2.69952931 C6.78644831,2.13308928 7.3034714,1.61162918 7.94043787,1.13443748 C8.57357593,0.660113938 9.28415835,0.270715606 10.0709114,-0.0338109625 C10.8727086,-0.344160612 11.6880051,-0.5 12.5139665,-0.5 C13.3211858,-0.5 14.131043,-0.344238796 14.9411124,-0.0345582159 C15.737211,0.269781423 16.4481038,0.654418595 17.0725097,1.11972532 C17.6992586,1.586778 18.2154065,2.1023499 18.6190037,2.66675531 C19.0483047,3.26710606 19.2709498,3.86757663 19.2709498,4.46428571 L19.2709498,8.92857144 C19.2709498,9.83901745 19.0628492,10.9943781 18.6502389,12.4033553 C18.2212035,13.8684208 17.4780981,15.0146567 16.4219599,15.826164 C16.2491772,15.9589254 16.1212805,16.1259882 16.0336458,16.3347301 C15.9461543,16.5431307 15.9162936,16.7585511 15.9434951,16.9895061 C15.9705763,17.2194395 16.0497762,17.4205146 16.1837424,17.6011672 C16.3206007,17.7857197 16.4880407,17.9228672 16.6940861,18.0189221 L24.406356,21.6636656 C24.4788858,21.6823014 24.5821552,21.736278 24.8813117,21.8916657 Z M24.1652716,22.6499535 C24.1688596,22.6516791 24.1725577,22.653466 24.1763656,22.6553142 C24.1752105,22.6547621 24.1707027,22.6525655 24.1652716,22.6499535 Z M24.273743,22.6540179 L24.0601038,22.6060779 L16.2691981,18.9241641 C15.9141912,18.7586792 15.6160864,18.5145061 15.3805033,18.1968238 C15.1420282,17.8752417 14.9977667,17.5089861 14.9503596,17.1064761 C14.9030729,16.7049873 14.9570102,16.3158751 15.1116056,15.9476361 C15.2660577,15.579738 15.5012859,15.2724753 15.812677,15.0332111 C16.6932338,14.3566157 17.3188297,13.3916376 17.6905432,12.1223143 C18.0786818,10.7969028 18.2709497,9.72944337 18.2709497,8.92857144 L18.2709497,4.46428571 C18.2709497,4.09372816 18.121159,3.6897445 17.8055773,3.24842326 C17.4642919,2.77115686 17.0214178,2.32877701 16.4749763,1.92156932 C15.9261919,1.51261566 15.296316,1.17181368 14.5840272,0.899513569 C13.8857092,0.632554364 13.1965126,0.5 12.5139665,0.5 C11.8129184,0.5 11.11985,0.632476187 10.4318818,0.89876632 C9.72886964,1.1708795 9.09868341,1.51622082 8.54000903,1.93475893 C7.98516327,2.35042883 7.54316434,2.79622094 7.21182948,3.27145283 C6.90322953,3.71407614 6.75698325,4.11112239 6.75698325,4.46428571 L6.75698325,8.92857144 C6.75698325,9.74316822 6.96632074,10.8109326 7.38930426,12.123415 C7.79810702,13.3918957 8.42817447,14.3594897 9.2711219,15.033211 C9.58251295,15.2724753 9.81774114,15.579738 9.9721933,15.947636 C10.1267887,16.3158751 10.180726,16.7049873 10.1282889,17.1402348 C10.0591573,17.5085254 9.91447739,17.8495889 9.6964614,18.1590554 C9.46922738,18.4816065 9.17299324,18.7291992 8.81706173,18.8951071 L0.912144966,22.6284124 C0.857982036,22.6464466 0.742074654,22.7131067 0.58370029,22.826105 C0.539502089,22.8576399 0.5,22.9609823 0.5,23.1863839 L0.5,24.4994417 L24.5,24.4726559 L24.5,23.2421875 C24.5,22.9251804 24.4495962,22.7942768 24.4203644,22.7790932 C24.3151593,22.7244476 24.2334294,22.6830094 24.1763656,22.6553142 C24.2194688,22.6762846 24.1747433,22.6540179 24.273743,22.6540179 Z" id="User---simple-line-icons-Copy"></path>
                                </g>
                                <polygon id="Path-21" fill="#95AABF" fill-rule="nonzero" points="40.1830226 25.5430529 39.1830226 25.5430529 39.1830226 20.8069864 54.0737913 17.5318333 54.2886021 18.5084889 40.1830226 21.6109435"></polygon>
                                <path d="M45.6243872,7.66997718 C45.8066538,7.46253199 46.1225776,7.44212068 46.3300228,7.62438725 C46.537468,7.80665382 46.5578793,8.12257763 46.3756128,8.33002282 L39.3466113,16.3300228 C39.1687774,16.5324231 38.8625504,16.5575211 38.654134,16.3867775 L34.6831354,13.133567 C34.4695241,12.9585676 34.438223,12.6435363 34.6132225,12.4299249 C34.7882219,12.2163136 35.1032532,12.1850125 35.3168646,12.360012 L38.91421,15.30711 L45.6243872,7.66997718 Z" id="Path-4" fill="#FF9500" fill-rule="nonzero"></path>
                                <polygon id="Path-22" fill="#95AABF" fill-rule="nonzero" points="23.897507 18.4893824 24.102493 17.5106176 39.6280531 20.7621885 39.423067 21.7409534"></polygon>
                            </g>
                        </g>
                    </g>
                </g>
            </g>
        </g>
    </g>
</svg>