<?xml version="1.0" encoding="UTF-8"?>
<svg width="31px" height="34px" viewBox="0 0 31 34" version="1.1" xmlns="http://www.w3.org/2000/svg" xmlns:xlink="http://www.w3.org/1999/xlink">
    <!-- Generator: Sketch 49 (51002) - http://www.bohemiancoding.com/sketch -->
    <title>icon/network</title>
    <desc>Created with Sketch.</desc>
    <defs></defs>
    <g id="Developer-Documentation" stroke="none" stroke-width="1" fill="none" fill-rule="evenodd">
        <g id="22.01.18-Bitcoin.org_Developer-Documentation-Desktop-1200px--" transform="translate(-385.000000, -1388.000000)">
            <g id="//contenct" transform="translate(215.000000, 513.000000)">
                <g id="developer-documentation" transform="translate(0.000000, 115.000000)">
                    <g id="box7" transform="translate(0.000000, 707.000000)">
                        <g id="icon/network" transform="translate(155.000000, 40.000000)">
                            <g>
                                <rect id="Rectangle-2" x="0" y="0" width="60" height="60"></rect>
                                <path d="M36.3783386,37.1645224 C36.0829985,37.4665141 35.8288031,37.7984744 35.6089889,38.1494533 L25.8695296,32.1044326 C26.1271068,31.4451225 26.2730859,30.7281804 26.2730859,29.9760827 C26.2730859,29.2239851 26.1271068,28.507043 25.8700933,27.8477329 L35.6118071,21.8488177 C36.6122434,23.4555979 38.3662479,24.5264005 40.3637388,24.5264005 C43.4715732,24.5264005 46,21.9410289 46,18.7632003 C46,15.5853716 43.4715732,13 40.3637388,13 C37.2559044,13 34.7274777,15.5853716 34.7274777,18.7632003 C34.7274777,19.4870582 34.8644388,20.1774896 35.1034163,20.8160522 L25.3487391,26.8230359 C24.3409756,25.2531401 22.6061344,24.2128824 20.6362612,24.2128824 C17.5284268,24.2128824 15,26.7982541 15,29.9760827 C15,33.1539113 17.5284268,35.739283 20.6362612,35.739283 C22.6061344,35.739283 24.340412,34.6990253 25.3481755,33.1291296 L35.1011618,39.1822188 C34.8588026,39.8311552 34.7269141,40.5244682 34.7269141,41.2396813 C34.7269141,42.7790321 35.3130852,44.226748 36.3777749,45.3148402 C37.4762822,46.438088 38.9197287,47 40.3631752,47 C41.8066217,47 43.2500682,46.438088 44.3485755,45.3148402 C45.4132652,44.2261717 45.9994364,42.7790321 45.9994364,41.2396813 C45.9994364,39.7003305 45.4132652,38.2526146 44.3485755,37.1645224 C42.1509973,34.9168743 38.5759168,34.9168743 36.3783386,37.1645224 Z M40.3637388,14.1526401 C42.8498936,14.1526401 44.8727478,16.2210526 44.8727478,18.7632003 C44.8727478,21.3053479 42.8498936,23.3737605 40.3637388,23.3737605 C37.877584,23.3737605 35.8547299,21.3053479 35.8547299,18.7632003 C35.8547299,16.2210526 37.8770204,14.1526401 40.3637388,14.1526401 Z M20.6368248,34.5866429 C18.15067,34.5866429 16.1278159,32.5182304 16.1278159,29.9760827 C16.1278159,27.4339351 18.15067,25.3655225 20.6368248,25.3655225 C23.1229796,25.3655225 25.1458337,27.4339351 25.1458337,29.9760827 C25.1458337,32.5182304 23.1229796,34.5866429 20.6368248,34.5866429 Z M43.5516082,44.4999237 C41.7936583,46.2974659 38.9332558,46.2974659 37.1753059,44.4999237 C36.3236668,43.6291042 35.8547299,42.4707009 35.8547299,41.2396813 C35.8547299,40.0086618 36.3236668,38.8502585 37.1753059,37.9794389 C38.0545626,37.0803797 39.2088689,36.6314264 40.3637388,36.6314264 C41.5186088,36.6314264 42.672915,37.0803797 43.5521718,37.9794389 C44.4038108,38.8502585 44.8727478,40.0086618 44.8727478,41.2396813 C44.8727478,42.4707009 44.4038108,43.6291042 43.5516082,44.4999237 Z" id="Shape" fill="#1C1F30" fill-rule="nonzero"></path>
                                <path d="M25.5712558,32.5905133 L35.3608191,38.673239" id="Path-7" stroke="#FF9500" stroke-width="1.2"></path>
                                <path d="M25.6161355,27.2721768 L35.4014219,21.3281534" id="Path-7" stroke="#FF9500" stroke-width="1.2"></path>
                            </g>
                        </g>
                    </g>
                </g>
            </g>
        </g>
    </g>
</svg>