<?xml version="1.0" encoding="UTF-8"?>
<svg width="41px" height="34px" viewBox="0 0 41 34" version="1.1" xmlns="http://www.w3.org/2000/svg" xmlns:xlink="http://www.w3.org/1999/xlink">
    <!-- Generator: Sketch 49 (51002) - http://www.bohemiancoding.com/sketch -->
    <title>Group 20</title>
    <desc>Created with Sketch.</desc>
    <defs></defs>
    <g id="Symbols" stroke="none" stroke-width="1" fill="none" fill-rule="evenodd">
        <g id="today/ICON" transform="translate(-10.000000, -13.000000)" fill-rule="nonzero">
            <g id="icon-today">
                <g id="Group-20" transform="translate(10.000000, 13.000000)">
                    <g id="Group-10" transform="translate(7.000000, 1.000000)" fill="#1C1F30">
                        <path d="M5.72727273,7.99212465 C5.72727273,9.93486678 6.49729896,12.1770354 7.78701923,13.9901229 C9.2512058,16.0483166 11.1025526,17.1818182 13.0000421,17.1818182 C14.8974474,17.1818182 16.7487942,16.0483166 18.2129808,13.9900399 C19.502701,12.1770354 20.2727273,9.93478372 20.2727273,7.99212465 C20.2727273,4.03637277 17.0102411,0.818181818 13.0000421,0.818181818 C8.98984315,0.818181818 5.72727273,4.03637277 5.72727273,7.99212465 Z M13.0000459,1.44112179 C16.6113397,1.44112179 19.5494503,4.33934124 19.5494503,7.90160398 C19.5494503,9.72265398 18.7850534,11.9284979 17.5544936,13.6583958 C16.2431812,15.5017133 14.5831643,16.5588782 13.0000459,16.5588782 C11.4169275,16.5588782 9.7569106,15.5017133 8.44559819,13.6583958 C7.2150384,11.9285884 6.45054969,9.72274449 6.45054969,7.90160398 C6.45054969,4.33925072 9.38866031,1.44112179 13.0000459,1.44112179 Z" id="Shape"></path>
                        <path d="M18.4655688,16.3326411 C18.2228846,16.220525 17.9336476,16.2686453 17.7431125,16.4528184 C16.3206706,17.8288113 14.680559,18.5560443 13.0000848,18.5560443 C11.3193562,18.5560443 9.67966862,17.8288113 8.25807464,16.4529829 C8.06762429,16.2686453 7.77821777,16.220525 7.53553349,16.3326411 C5.39411181,17.3215332 3.58169608,18.8685381 2.29424833,20.8064277 C0.971780109,22.7970439 0.272727273,25.10657 0.272727273,27.4852741 C0.272727273,27.6692827 0.348534312,27.835277 0.48140862,27.9522463 C3.91494179,30.972883 8.3607618,32.6363636 13,32.6363636 C17.6392382,32.6363636 22.0850582,30.9728007 25.5185066,27.9522463 C25.6514657,27.835277 25.7272727,27.6693649 25.7272727,27.4952271 C25.7272727,25.10657 25.0283895,22.7970439 23.7062604,20.8065099 C22.4191519,18.8684559 20.6069057,17.321451 18.4655688,16.3326411 Z M13.0001696,32.0327769 C8.66082728,32.0327769 4.24104761,30.0622548 0.98860781,27.2928281 C1.03934559,25.1910219 1.81909711,22.8698529 2.99006943,21.1071757 C4.09890319,19.4381242 5.82162824,18.042563 7.62625715,17.1263154 C9.25769878,18.5747684 11.1074322,19.2655161 13.0484352,19.2655161 C14.9891771,19.2655161 16.7637646,18.5748529 18.3960765,17.1263154 C20.2005314,18.042563 22.1401214,19.7255325 23.2488681,21.394584 C24.4195793,23.1570923 25.0575248,25.3693845 25.1082626,27.4712751 C21.8557358,30.2407018 17.3394249,32.0327769 13.0001696,32.0327769 Z" id="Shape"></path>
                    </g>
                    <g id="Group-11" fill="#95AABF">
                        <path d="M10.8716903,14.5454545 C11.5359258,14.5454545 12.1985698,14.3818961 12.8414459,14.059346 C13.1521205,13.9034834 13.3584072,13.7246158 13.0753742,13.3820383 C12.7923412,13.0394609 12.4776742,13.8221871 10.8716903,13.9336117 C9.65534754,14.0180027 7.79878126,12.7233891 6.78291139,11.2615114 C5.82391616,9.88149756 5.29886581,7.94923032 5.24458885,6.50030803 C5.12408307,3.28340921 8.07620543,0.493974359 10.8716903,0.493974359 C13.4518106,0.493974359 14.8920553,2.5530608 15.2625131,2.46812132 C15.6329709,2.38318184 15.5122087,2.03289457 15.2625131,1.78975571 C14.0776108,0.635628406 12.518207,0 10.8716903,0 C7.38332321,0 4.54545455,2.86531746 4.54545455,6.38732126 C4.54545455,8.11085863 5.21195162,10.0988465 6.32816879,11.7051698 C7.60093781,13.5367031 9.21453586,14.5454545 10.8716903,14.5454545 Z" id="Shape"></path>
                        <path d="M5.01407424,26.5023373 C3.56730643,25.8820627 1.80230256,24.8559582 0.612279258,23.8225681 C0.662540039,22.0093256 1.42797283,19.7164963 2.41384409,18.1951831 C3.34315039,16.7610451 5.06949692,15.2632608 6.5763704,14.4669182 C7.97874982,15.7261907 9.60326352,16.3826737 11.2685189,16.3826737 C12.2691575,16.3826737 14.4756231,15.8189649 14.4756231,15.4047155 C14.4756231,14.9904661 13.924568,14.9600795 13.6052998,15.1206019 C12.8503518,15.5003075 12.0641419,15.6928658 11.2685189,15.6928658 C9.8167423,15.6928658 8.39812744,15.0468251 7.16613379,13.824484 C6.97217208,13.6320975 6.6775161,13.5818538 6.43027105,13.6989175 C4.53435149,14.5965206 2.92980628,16.0006841 1.7899574,17.7596461 C0.618933019,19.5667905 0,21.6632877 0,23.8225681 C0,24.0131509 0.0772047048,24.1864705 0.212528835,24.3086015 C1.56222943,25.5259612 3.09155618,26.5055004 4.75793424,27.2199069 C4.84152949,27.2557217 4.92849273,27.2727273 5.01407424,27.2727273 C5.26485999,27.2727273 5.39925204,27.2885195 5.50486877,27.0449445 C5.64641073,26.7182311 5.34249649,26.6431917 5.01407424,26.5023373 Z" id="Shape"></path>
                    </g>
                    <g id="Group-11" transform="translate(33.000000, 14.000000) scale(-1, 1) translate(-33.000000, -14.000000) translate(25.000000, 0.000000)" fill="#FF9500">
                        <path d="M10.8716903,14.5454545 C11.5359258,14.5454545 12.1985698,14.3818961 12.8414459,14.059346 C13.1521205,13.9034834 13.3584072,13.7246158 13.0753742,13.3820383 C12.7923412,13.0394609 12.4776742,13.8221871 10.8716903,13.9336117 C9.65534754,14.0180027 7.79878126,12.7233891 6.78291139,11.2615114 C5.82391616,9.88149756 5.29886581,7.94923032 5.24458885,6.50030803 C5.12408307,3.28340921 8.07620543,0.493974359 10.8716903,0.493974359 C13.4518106,0.493974359 14.8920553,2.5530608 15.2625131,2.46812132 C15.6329709,2.38318184 15.5122087,2.03289457 15.2625131,1.78975571 C14.0776108,0.635628406 12.518207,0 10.8716903,0 C7.38332321,0 4.54545455,2.86531746 4.54545455,6.38732126 C4.54545455,8.11085863 5.21195162,10.0988465 6.32816879,11.7051698 C7.60093781,13.5367031 9.21453586,14.5454545 10.8716903,14.5454545 Z" id="Shape"></path>
                        <path d="M5.01407424,26.5023373 C3.56730643,25.8820627 1.80230256,24.8559582 0.612279258,23.8225681 C0.662540039,22.0093256 1.42797283,19.7164963 2.41384409,18.1951831 C3.34315039,16.7610451 5.06949692,15.2632608 6.5763704,14.4669182 C7.97874982,15.7261907 9.60326352,16.3826737 11.2685189,16.3826737 C12.2691575,16.3826737 14.4756231,15.8189649 14.4756231,15.4047155 C14.4756231,14.9904661 13.924568,14.9600795 13.6052998,15.1206019 C12.8503518,15.5003075 12.0641419,15.6928658 11.2685189,15.6928658 C9.8167423,15.6928658 8.39812744,15.0468251 7.16613379,13.824484 C6.97217208,13.6320975 6.6775161,13.5818538 6.43027105,13.6989175 C4.53435149,14.5965206 2.92980628,16.0006841 1.7899574,17.7596461 C0.618933019,19.5667905 0,21.6632877 0,23.8225681 C0,24.0131509 0.0772047048,24.1864705 0.212528835,24.3086015 C1.56222943,25.5259612 3.09155618,26.5055004 4.75793424,27.2199069 C4.84152949,27.2557217 4.92849273,27.2727273 5.01407424,27.2727273 C5.26485999,27.2727273 5.39925204,27.2885195 5.50486877,27.0449445 C5.64641073,26.7182311 5.34249649,26.6431917 5.01407424,26.5023373 Z" id="Shape"></path>
                    </g>
                </g>
            </g>
        </g>
    </g>
</svg>