<?xml version="1.0" encoding="UTF-8"?>
<svg width="378px" height="312px" viewBox="0 0 378 312" version="1.1" xmlns="http://www.w3.org/2000/svg" xmlns:xlink="http://www.w3.org/1999/xlink">
    <!-- Generator: Sketch 49 (51002) - http://www.bohemiancoding.com/sketch -->
    <title>Rectangle 2</title>
    <desc>Created with Sketch.</desc>
    <defs>
        <path d="M6,40 L117.173111,40 L117.173111,72.179729 L125,72.179729 L125,110 C125,119.388841 117.388841,127 108,127 L27,127 C15.4020203,127 6,117.59798 6,106 L6,40 Z" id="path-1"></path>
        <polygon id="path-2" points="0 0 59.1287519 0 59.1287519 19.545474 80 19.545474 80 96 0 96"></polygon>
        <path d="M0,56 L94.3193104,56 C93.9721319,84.017521 93.9721319,102.471062 94.3193104,111.360625 C94.6223174,119.119172 99.748812,124.077274 109.698794,126.234929 C110.665777,126.444619 110.501118,126.699643 109.204817,127 L17,127 C7.61115925,127 1.14980138e-15,119.388841 0,110 L0,56 Z" id="path-3"></path>
    </defs>
    <g id="How-does-bitcoin-work" stroke="none" stroke-width="1" fill="none" fill-rule="evenodd">
        <g id="22.01.18-Bitcoin.org_How-does-Bitcoin-work-Desktop-1200px--" transform="translate(-275.000000, -2682.000000)">
            <g id="//body" transform="translate(215.000000, 574.000000)">
                <g id="5" transform="translate(0.000000, 2097.000000)">
                    <g id="4th-illustration">
                        <g id="going-down-the-rabbit-hole">
                            <g id="Group" transform="translate(264.815051, 151.760581) rotate(-336.000000) translate(-264.815051, -151.760581) translate(91.315051, -13.739419)">
                                <g id="Group-8" opacity="0.200000003" transform="translate(12.000000, 1.000000)" stroke="#979797">
                                    <path d="" id="Path-2"></path>
                                    <polyline id="Path-5" points="327.306554 250.729508 300.262156 78.2663934 0 153.762295 156.02537 176.618852 189.310782 1.3852459"></polyline>
                                    <polyline id="Path-6" points="156.718816 176.618852 209.420719 327.610656 299.56871 78.2663934"></polyline>
                                    <polyline id="Path-8" points="156.718816 178.004098 76.9725159 278.434426 208.727273 327.610656"></polyline>
                                    <polyline id="Path-9" points="155.331924 176.618852 98.4693446 56.795082 191.391121 0.692622951"></polyline>
                                    <polygon id="Path-10" points="78.359408 279.127049 0 272.893443 0 154.454918"></polygon>
                                    <polyline id="Path-11" points="299.56871 78.2663934 188.270613 0 326.613108 252.114754 210.114165 328.303279 0 154.454918 98.4693446 56.102459 325.919662 252.114754"></polyline>
                                    <polyline id="Path-13" points="328 252.114754 236.465116 252.114754 162.959831 175.233607"></polyline>
                                    <path d="M76.9725159,279.127049 L239.238901,252.114754" id="Path-14"></path>
                                </g>
                                <g id="dots" transform="translate(101.000000, 49.000000)">
                                    <circle id="Oval-2" fill="#C4C4C4" cx="8.5" cy="8.5" r="2.38"></circle>
                                    <circle id="Oval-2" stroke="#CACACA" cx="8.5" cy="8.5" r="8.5"></circle>
                                </g>
                                <g id="dots" transform="translate(330.000000, 243.000000)">
                                    <circle id="Oval-2" fill="#C4C4C4" cx="8.5" cy="8.5" r="2.38"></circle>
                                    <circle id="Oval-2" stroke="#CACACA" cx="8.5" cy="8.5" r="8.5"></circle>
                                </g>
                                <g id="dots" transform="translate(275.000000, 147.000000)">
                                    <circle id="Oval-2" fill="#C4C4C4" cx="8.5" cy="8.5" r="2.38"></circle>
                                    <circle id="Oval-2" stroke="#CACACA" cx="8.5" cy="8.5" r="8.5"></circle>
                                </g>
                                <g id="dots" transform="translate(80.000000, 271.000000)">
                                    <circle id="Oval-2" fill="#C4C4C4" cx="8.5" cy="8.5" r="2.38"></circle>
                                    <circle id="Oval-2" stroke="#CACACA" cx="8.5" cy="8.5" r="8.5"></circle>
                                </g>
                                <circle id="Oval-2" fill="#7B7B7B" cx="220.5" cy="328.5" r="2.5"></circle>
                                <circle id="Oval-2" fill="#7B7B7B" cx="200.5" cy="2.5" r="2.5"></circle>
                                <g id="Group-7" transform="translate(0.000000, 143.000000)">
                                    <circle id="Oval-2" fill="#FF7E00" cx="12.5" cy="12.5" r="3.92857143"></circle>
                                    <circle id="Oval-2" stroke="#FF7E00" cx="12.5" cy="12.5" r="12.5"></circle>
                                </g>
                                <g id="Group-7" transform="translate(0.000000, 261.000000)">
                                    <circle id="Oval-2" fill="#FF7E00" cx="12.5" cy="12.5" r="3.92857143"></circle>
                                    <circle id="Oval-2" stroke="#FF7E00" cx="12.5" cy="12.5" r="12.5"></circle>
                                </g>
                                <g id="Group-7" transform="translate(298.000000, 68.000000)">
                                    <circle id="Oval-2" fill="#FF7E00" cx="12.5" cy="12.5" r="3.92857143"></circle>
                                    <circle id="Oval-2" stroke="#FF7E00" cx="12.5" cy="12.5" r="12.5"></circle>
                                </g>
                            </g>
                            <g id="person" transform="translate(269.000000, 83.000000)" fill="#FFFFFF">
                                <path d="M38.879023,22.3825068 C37.4157788,25.3305749 28.6355406,28.2786431 22.0505553,36.3869986 C19.2037027,39.891572 17.8465605,46.4583959 17.9791286,56.0874701 C6.54625049,65.9436969 0.591791516,71.6612691 0.115751677,73.2401866 C-0.651002724,75.7833393 2.64253814,78.3745578 2.64253814,76.163896 C2.64253814,73.5045046 18.3920583,65.6034903 20.8984709,58.4990671 C24.0065161,49.6893176 23.7705054,48.1329772 25.2915124,46.2941803 C28.9500093,41.8720781 18.8798351,71.7661526 18.8798351,71.7661526 C18.8798351,71.7661526 47.6592611,73.2401866 49.1225053,71.7661526 C50.5865224,70.2921185 48.8706309,46.1746951 52.7163746,43.12685 C56.5621182,40.0790049 65.2197374,54.0761862 64.4877288,55.550999 C63.7564932,57.0250331 52.7810023,63.6585758 50.5865224,66.6066439 C48.3912697,69.5547121 49.1232783,70.0807108 50.5865224,72.2913726 C52.0497666,74.502813 54.1642167,73.977593 54.1642167,71.7661526 C54.1642167,69.5547121 51.3177581,69.5547121 53.5130108,68.8180844 C55.7074906,68.080678 69.6094699,62.9211694 72.5359583,58.4990671 C75.4632197,54.0761862 63.7564932,39.3350667 59.3659876,34.9121858 C54.976255,30.4900835 46.9272525,26.804609 46.1960169,23.8565408 C45.4647813,20.907694 46.9272525,12.8001172 46.1960169,9.11464266 C45.4647813,5.42916811 38.879023,12.0634895 38.879023,12.0634895 C38.879023,12.8001172 40.3430401,19.4336599 38.879023,22.3825068 Z" id="Fill-27" stroke="#1C3C55"></path>
                                <path d="M38.9790148,23 C37.3771334,23 29.1626341,27.341442 22.5625053,35.4677614 C19.7091059,38.9800992 17.7443764,45.5735465 16.6683168,55.2481032 L7,65.0428784 L12.071867,68.4354943 C17.730791,63.9158108 20.9663867,60.5048803 21.7786541,58.2027028 C24.8938467,49.3734354 24.9969725,47.942681 26.1817981,45.9707762 C28.4416029,42.2097841 18.7257265,70.715091 18.7257265,70.715091 C18.7257265,70.715091 48.6009855,72.9764811 50.0675947,71.4991813 C51.5349786,70.0218815 50.8012866,47.8608239 53.0008131,44.1671842 C55.0082243,40.7973484 63.3686387,51.7040005 64.4323259,54.7409864 C64.5004649,54.9355335 61.3345508,57.4248222 54.9345835,62.2088526 L58.9975393,66.8243545 C67.3198482,63.1454467 72.1656322,60.2715628 73.5348912,58.2027028 C76.4688843,53.7700231 64.7352361,38.9962448 60.3346337,34.563565 C55.9348062,30.1316656 51.0646529,26.1295565 47.8404672,24.4290959 C44.6162816,22.7286354 42.9494654,31.0300283 41.3750105,29.298204 C39.8005556,27.5663797 40.5808962,23 38.9790148,23 Z" id="Fill-27" stroke="#FF9500"></path>
                                <path d="M39.4,18.4622232 C39.4,18.4622232 40.2,20 43.4,20 C46.6,20 49,16.9244465 49,13.0800046 C49,9.23556267 49,3.853344 44.2,3.08445562 C39.4,2.31556724 37,6.92889752 37,11.5422278 C37,16.1555581 39.4,18.4622232 39.4,18.4622232" id="Fill-3" stroke="#1C3C55"></path>
                                <path d="M43.4447103,3.98520829 C43.0817941,3.91570134 44.8494269,5.82328118 43.0750873,5.82328118 C41.3014929,5.82328118 38.6411012,5.82328118 37.7535588,8.58116281 C36.8667616,11.3382721 38.4987665,11.631746 37.6119693,11.631746 C36.7251721,11.631746 37.52478,13.9424662 37.52478,13.9424662 L37.825844,17 C37.825844,17 35.906934,14.3116253 35.0931672,9.79367307 C34.0863915,4.20608596 41.5384689,-2.74460982 43.0288844,1.11688783 C43.9045035,3.38435926 48.8489569,3.61836602 49.7357541,7.29528409 C50.6232965,10.9722022 48.9905463,15.0182794 48.9905463,15.0182794 C48.9905463,15.0182794 48.6388083,12.8481177 48.2453386,11.9290813 C48.2453386,11.9290813 47.5001308,11.3035187 47.5001308,10.3844822 C47.5001308,9.46544577 48.2483194,4.90424474 43.4447103,3.98520829" id="Fill-56" stroke="#1C3C55"></path>
                                <path d="M49.0798105,167.024221 C49.0798105,167.024221 49.816156,173.457731 49.0798105,175.601479 C48.3434651,177.745982 52.8907486,182.453317 54.9736878,183.46365 C57.9206264,184.893822 57.1842809,183.46365 55.71159,179.175399 C54.2373423,174.886393 52.0267491,169.883055 52.7630946,165.594804 C53.5009968,161.306553 49.0798105,167.024221 49.0798105,167.024221" id="Fill-30" stroke="#1C3C55"></path>
                                <path d="M25.1612385,167.38871 C25.1612385,167.38871 25.1612385,173.225449 25.9037925,175.414612 C26.6471313,177.603774 22.9320069,181.981329 19.9602213,183.440513 C16.9884358,184.900469 17.7309897,183.440513 19.9602213,179.792166 C22.189453,176.143819 21.4461141,168.847895 20.7027753,165.199548 C19.9602213,161.551201 25.1612385,167.38871 25.1612385,167.38871" id="Fill-32" stroke="#1C3C55"></path>
                                <path d="M52.1226439,118.084008 C50.9601526,127.639077 55,136.54809 55,143.195908 C55,149.842166 53.5609421,166.091088 53.5609421,168.306247 C53.5609421,170.522187 50.4564063,172.252024 48.5265187,171.261093 C45.6499225,169.784061 42.0537972,157.967017 42.0537972,146.8881 C42.0537972,135.809963 42.7733262,133.594024 39.89673,122.515107 C37.0193739,111.43697 34.1427776,96.6658609 34.1427776,96.6658609 C34.1427776,96.6658609 30.5466524,121.776981 29.8271235,126.208079 C29.1083543,130.639958 29.1083543,131.378084 29.1083543,136.54809 C29.1083543,141.718095 29.8271235,150.581072 28.3895851,159.44405 C26.9505272,168.306247 29.1083543,172 24.7927001,172 C20.4778057,172 16.1629113,159.44405 16.1629113,149.842166 C16.1629113,140.241062 18.3207384,135.071057 17.6012095,126.208079 C16.8816805,117.345882 12.8701071,97.7368056 14.309165,87.3967951 C15.7467034,77.0567847 17.9711546,72.2831726 19.0485485,70.5697208 C20.1259425,68.856269 49.9655767,71.5539611 49.9655767,71.5539611 C49.9655767,71.5539611 55,94.4499215 52.1226439,118.084008 Z" id="Fill-36" stroke="#1C3C55"></path>
                            </g>
                            <g id="folder" transform="translate(156.000000, 129.000000)">
                                <g id="Rectangle-2">
                                    <use fill="#FFFFFF" fill-rule="evenodd" xlink:href="#path-1"></use>
                                    <path stroke="#1C3C55" stroke-width="1" d="M6.5,40.5 L6.5,106 C6.5,117.321837 15.6781626,126.5 27,126.5 L108,126.5 C117.112698,126.5 124.5,119.112698 124.5,110 L124.5,72.679729 L116.673111,72.679729 L116.673111,40.5 L6.5,40.5 Z"></path>
                                </g>
                                <g id="doc" transform="translate(38.000000, 0.000000)">
                                    <g id="Rectangle-3">
                                        <use fill="#FFFFFF" fill-rule="evenodd" xlink:href="#path-2"></use>
                                        <path stroke="#1C3C55" stroke-width="1" d="M0.5,0.5 L0.5,95.5 L79.5,95.5 L79.5,20.045474 L58.6287519,20.045474 L58.6287519,0.5 L0.5,0.5 Z"></path>
                                    </g>
                                    <path d="M7,21 L46.5,21" id="Path-108" stroke="#1C3C55" stroke-linecap="round" stroke-linejoin="round"></path>
                                    <path d="M7,13 L40.4233059,13" id="Path-109" stroke="#1C3C55" stroke-linecap="round" stroke-linejoin="round"></path>
                                    <path d="M69.5,29 L7,29" id="Path-111" stroke="#1C3C55" stroke-linecap="round" stroke-linejoin="round"></path>
                                    <path d="M52.8404937,38 L7.24276542,38" id="Path-112" stroke="#1C3C55" stroke-linecap="round" stroke-linejoin="round"></path>
                                    <path d="M71.0709913,46 L36,46" id="Path-112-Copy" stroke="#1C3C55" stroke-linecap="round" stroke-linejoin="round"></path>
                                    <path d="M58.7121335,0.301808847 L79.3479498,19.8836098" id="Path-29" stroke="#1C3C55"></path>
                                </g>
                                <g id="Rectangle">
                                    <use fill="#FFFFFF" fill-rule="evenodd" xlink:href="#path-3"></use>
                                    <path stroke="#1C3C55" stroke-width="1" d="M0.5,56.5 L0.5,110 C0.5,119.112698 7.88730163,126.5 17,126.5 L108.619787,126.5 C99.0986153,124.185469 94.1223885,119.130753 93.8196912,111.380137 C93.4741593,102.532733 93.4720747,84.2424372 93.8131012,56.5 L0.5,56.5 Z M109.146812,126.5 L109.204817,126.5 L109.091955,126.512904 C109.110491,126.508609 109.12878,126.504305 109.146812,126.5 Z"></path>
                                </g>
                                <rect id="Rectangle-4" stroke="#FF9500" x="11.5" y="70.5" width="70" height="31"></rect>
                            </g>
                        </g>
                    </g>
                </g>
            </g>
        </g>
    </g>
</svg>