<?xml version="1.0" encoding="UTF-8"?>
<svg width="52px" height="43px" viewBox="0 0 52 43" version="1.1" xmlns="http://www.w3.org/2000/svg" xmlns:xlink="http://www.w3.org/1999/xlink">
    <!-- Generator: Sketch 55.1 (78136) - https://sketchapp.com -->
    <title>Group 9</title>
    <desc>Created with Sketch.</desc>
    <g id="Flow-2" stroke="none" stroke-width="1" fill="none" fill-rule="evenodd">
        <g id="Bitcoin.org---Wallet-Flow-2.03---Desktop" transform="translate(-394.000000, -638.000000)">
            <g id="//Content" transform="translate(148.000000, 438.000000)">
                <g id="Beginner" transform="translate(70.000000, 178.000000)">
                    <g id="Group-2" transform="translate(65.000000, 23.000000)">
                        <g id="Group-9" transform="translate(111.000000, 0.000000)">
                            <g id="leaves" fill="#1C1F30" fill-rule="nonzero" stroke="#FFFFFF" stroke-width="0.5">
                                <path d="M40.7722051,0.0230769231 C36.9405128,0.0230769231 33.3598974,1.17538462 30.417641,3.35538462 C27.8124103,5.28553846 25.8814359,7.95435897 25.1198974,10.6775385 C24.2483077,13.7940513 24.9565128,16.6099487 27.0102564,18.4683077 C26.3033846,19.7095385 25.646359,20.9905641 25.1259487,22.2331282 C24.648,21.0442051 24.0115897,19.9794872 23.2918974,19.0306667 C24.3123077,17.4093333 24.453641,15.4286154 23.652,13.3987692 C22.8971282,11.4874872 21.3683077,9.72512821 19.3469744,8.43610256 C17.1666667,7.04574359 14.5994872,6.31087179 11.9230769,6.31087179 C8.48871795,6.31087179 4.96553846,7.54964103 1.7345641,9.89323077 L2.13162821e-14,11.1514872 L2.06789744,11.7133333 C5.47917949,12.6401026 8.20174359,15.2701538 10.6037949,17.5905641 C13.0561026,19.9595897 15.3725128,22.1971282 18.056,22.1978462 C18.0564103,22.1978462 18.0568205,22.1978462 18.0572308,22.1978462 C19.3777436,22.1978462 20.6397949,21.6700513 21.9031795,20.5909744 C23.1154872,22.3001026 23.9778462,24.3954872 23.9778462,26.9435897 L23.9778462,39.9692308 L26.0291282,39.9692308 C26.0291282,39.9692308 26.0309744,27.3766154 26.0309744,26.6990769 C26.0309744,25.0621538 26.9911795,22.6492308 28.7019487,19.6342564 C29.9724103,20.3203077 31.1595897,20.6551795 32.3157949,20.6551795 C36.0860513,20.6551795 38.5378462,17.0476923 41.133641,13.2285128 C43.4505641,9.81948718 46.0766154,5.95558974 49.9838974,3.9545641 L51.889641,2.9785641 L49.9346667,2.10512821 C46.8420513,0.723589744 43.7593846,0.0230769231 40.7722051,0.0230769231 M18.0572308,20.1464615 C18.0570256,20.1464615 18.0568205,20.1464615 18.0565128,20.1464615 C16.201641,20.1459487 14.268,18.2779487 12.0290256,16.1150769 C9.90974359,14.0677949 7.55846154,11.7963077 4.61312821,10.4602051 C7.00748718,9.06676923 9.45907692,8.36215385 11.9230769,8.36215385 C16.8694359,8.36215385 20.6077949,11.2749744 21.7441026,14.1522051 C22.038359,14.8974359 22.3425641,16.1311795 21.845641,17.3660513 C20.0054359,15.4977436 17.98,14.2211282 16.7195897,13.4267692 C16.3509744,13.194359 16.0326154,12.9937436 15.82,12.8426667 L14.6312821,14.514359 C14.890359,14.6986667 15.2312821,14.9135385 15.6258462,15.1621538 C16.9242051,15.9805128 18.894359,17.2226667 20.5951795,19.0106667 C19.7092308,19.7733333 18.8762051,20.1464615 18.0572308,20.1464615 M39.4369231,12.0753846 C37.0561026,15.5784615 34.9998974,18.6037949 32.3156923,18.6037949 C31.5284103,18.6037949 30.6852308,18.3619487 29.752,17.8689231 C29.8436923,17.7213333 29.9363077,17.5729231 30.0311795,17.4229744 C32.0634872,14.2097436 34.1273846,11.608 34.148,11.5820513 L32.5429744,10.3047179 C32.3670769,10.5257436 30.201641,13.2632821 28.0923077,16.6539487 C26.8517949,15.3175385 26.4855385,13.4106667 27.0953846,11.2299487 C27.7366154,8.93723077 29.3925128,6.66769231 31.6387692,5.00348718 C33.4422564,3.66728205 36.4909744,2.07425641 40.7722051,2.07425641 C42.8704615,2.07425641 45.0316923,2.46184615 47.2194872,3.22892308 C43.864,5.56174359 41.5312821,8.99394872 39.4369231,12.0753846" id="Shape"></path>
                            </g>
                            <g id="Group-7" transform="translate(14.000000, 31.000000) scale(-1, 1) translate(-14.000000, -31.000000) translate(4.000000, 21.000000)">
                                <circle id="Oval-3" stroke="#FF9500" fill="#FFFFFF" cx="10.1323529" cy="9.86764706" r="9.86764706"></circle>
                                <path d="M13.3133053,7.42210738 C13.4111457,8.31105325 12.9896795,8.84575753 12.3273754,9.14652868 C13.4261981,9.38046181 14.1186069,9.96195271 13.9831356,11.2652944 C13.8100334,12.8894586 12.4553205,13.3239059 10.5135653,13.4174791 L10.5135653,15.121849 L9.35453309,15.121849 L9.35453309,13.4442143 C9.06101196,13.4442143 8.75243846,13.4442143 8.43633877,13.4375305 L8.43633877,15.121849 L7.2773066,15.121849 L7.2773066,13.4174791 C7.00636401,13.4174791 6.73542143,13.4107953 6.45695266,13.4107953 L4.95171607,13.4107953 L5.18502774,12.1876593 C6.03548641,12.2010269 6.02043405,12.1876593 6.02043405,12.1876593 C6.34405991,12.1876593 6.43437411,11.9804614 6.45695266,11.8467853 L6.45695266,9.15989629 L6.57737159,9.15989629 C6.53221449,9.15321249 6.48705739,9.15321249 6.45695266,9.15321249 L6.45695266,7.23496089 C6.41179556,7.02107918 6.2612719,6.78046225 5.78712238,6.78046225 C5.78712238,6.78046225 5.80217474,6.76709464 4.95171607,6.78046225 L4.95171607,5.68431848 L6.54726685,5.69100228 C6.78057853,5.69100228 7.02894256,5.69100228 7.2773066,5.68431848 L7.2773066,4 L8.43633877,4 L8.43633877,5.65089946 C8.74491228,5.64421566 9.05348578,5.63753185 9.35453309,5.63753185 L9.35453309,4 L10.5135653,4 L10.5135653,5.68431848 C12.0037495,5.79794314 13.1853602,6.20565515 13.3133053,7.42210738 Z M11.737929,10.9771033 C11.737929,9.66078559 9.30839464,9.8535796 8.53332846,9.8535796 L8.53332846,12.1006271 C9.30839464,12.1006271 11.737929,12.2468846 11.737929,10.9771033 Z M11.1724113,7.87014102 C11.1724113,6.65604313 9.17288335,6.83715165 8.53332846,6.83715165 L8.53332846,8.89642266 C9.17288335,8.89642266 11.1724113,9.03057712 11.1724113,7.87014102 Z" id="btc---FontAwesome-Copy" fill="#F7931A" transform="translate(9.475858, 9.560924) scale(-1, 1) translate(-9.475858, -9.560924) "></path>
                            </g>
                        </g>
                    </g>
                </g>
            </g>
        </g>
    </g>
</svg>