<?xml version="1.0" encoding="UTF-8"?>
<svg width="428px" height="312px" viewBox="0 0 428 312" version="1.1" xmlns="http://www.w3.org/2000/svg" xmlns:xlink="http://www.w3.org/1999/xlink">
    <!-- Generator: Sketch 49 (51002) - http://www.bohemiancoding.com/sketch -->
    <title>3th illustration</title>
    <desc>Created with Sketch.</desc>
    <defs></defs>
    <g id="How-does-bitcoin-work" stroke="none" stroke-width="1" fill="none" fill-rule="evenodd">
        <g id="22.01.18-Bitcoin.org_How-does-Bitcoin-work-Desktop-1200px--" transform="translate(-261.000000, -1571.000000)">
            <g id="//body" transform="translate(215.000000, 574.000000)">
                <g id="3" transform="translate(0.000000, 937.000000)">
                    <g id="3th-illustration" transform="translate(0.000000, 39.000000)">
                        <g id="transactions-private-keys-illustration">
                            <g id="siatka" transform="translate(230.894818, 158.913424) scale(-1, 1) rotate(-336.000000) translate(-230.894818, -158.913424) translate(50.394818, -6.586576)">
                                <g id="Group-8" opacity="0.200000003" transform="translate(0.000000, 1.000000)" stroke="#979797">
                                    <path d="" id="Path-2"></path>
                                    <polyline id="Path-5" points="353.306554 250.729508 326.262156 78.2663934 26 153.762295 75.3968024 165.377174 215.310782 1.3852459"></polyline>
                                    <polyline id="Path-6" points="182.718816 176.618852 235.420719 327.610656 325.56871 78.2663934"></polyline>
                                    <path d="M102.972516,278.434426 L234.727273,327.610656 L102.972516,278.434426 Z" id="Path-8"></path>
                                    <polyline id="Path-9" points="181.331924 176.618852 124.469345 56.795082 217.391121 0.692622951"></polyline>
                                    <polygon id="Path-10" points="104.359408 279.127049 0.168855885 279.213745 26 154.454918"></polygon>
                                    <polyline id="Path-11" points="325.56871 78.2663934 214.270613 0 352.613108 252.114754 236.114165 328.303279 26 154.454918 124.469345 56.102459 351.919662 252.114754"></polyline>
                                    <polyline id="Path-13" points="354 252.114754 262.465116 252.114754 188.959831 175.233607"></polyline>
                                    <path d="M102.972516,279.127049 L265.238901,252.114754" id="Path-14"></path>
                                </g>
                                <g id="dots" transform="translate(115.000000, 49.000000)">
                                    <circle id="Oval-2" fill="#C4C4C4" cx="8.5" cy="8.5" r="2.38"></circle>
                                    <circle id="Oval-2" stroke="#CACACA" cx="8.5" cy="8.5" r="8.5"></circle>
                                </g>
                                <g id="dots" transform="translate(344.000000, 243.000000)">
                                    <circle id="Oval-2" fill="#C4C4C4" cx="8.5" cy="8.5" r="2.38"></circle>
                                    <circle id="Oval-2" stroke="#CACACA" cx="8.5" cy="8.5" r="8.5"></circle>
                                </g>
                                <g id="dots" transform="translate(289.000000, 147.000000)">
                                    <circle id="Oval-2" fill="#C4C4C4" cx="8.5" cy="8.5" r="2.38"></circle>
                                    <circle id="Oval-2" stroke="#CACACA" cx="8.5" cy="8.5" r="8.5"></circle>
                                </g>
                                <g id="dots" transform="translate(94.000000, 271.000000)">
                                    <circle id="Oval-2" fill="#C4C4C4" cx="8.5" cy="8.5" r="2.38"></circle>
                                    <circle id="Oval-2" stroke="#CACACA" cx="8.5" cy="8.5" r="8.5"></circle>
                                </g>
                                <circle id="Oval-2" fill="#7B7B7B" cx="234.5" cy="328.5" r="2.5"></circle>
                                <circle id="Oval-2-Copy" fill="#7B7B7B" cx="76.5" cy="163.5" r="2.5"></circle>
                                <circle id="Oval-2" fill="#7B7B7B" cx="214.5" cy="2.5" r="2.5"></circle>
                                <g id="Group-7" transform="translate(14.000000, 143.000000)">
                                    <circle id="Oval-2" fill="#FF7E00" cx="12.5" cy="12.5" r="3.92857143"></circle>
                                    <circle id="Oval-2" stroke="#FF7E00" cx="12.5" cy="12.5" r="12.5"></circle>
                                </g>
                                <g id="Group-7" transform="translate(312.000000, 68.000000)">
                                    <circle id="Oval-2" fill="#FF7E00" cx="12.5" cy="12.5" r="3.92857143"></circle>
                                    <circle id="Oval-2" stroke="#FF7E00" cx="12.5" cy="12.5" r="12.5"></circle>
                                </g>
                            </g>
                            <g id="czlowiek" transform="translate(443.000000, 203.500000) scale(-1, 1) translate(-443.000000, -203.500000) translate(412.000000, 77.000000)" fill="#FFFFFF">
                                <path d="M15.0838716,229.086207 L16.0857294,241.410091 C16.0857294,241.410091 12.0782982,246.545042 9.07272484,249.626013 C7.06900926,251.679994 11.0764404,251.679994 13.080156,250.653003 C15.0838716,249.626013 23.654765,247.338906 23.0987339,244.491061 C22.0968761,239.35611 24.1005917,230.113197 24.1005917,230.113197 L15.0838716,229.086207 Z" id="Fill-11" stroke="#1C3C55"></path>
                                <path d="M42.2261483,230.198276 L41.2010207,242.555698 C41.2010207,242.555698 44.1482625,246.808711 47.3517862,249.764195 C50.6998529,252.85355 46.3266586,252.85355 44.2764034,251.823765 C42.2261483,250.79398 33.4561818,248.500648 34.0251276,245.645054 C35.0502552,240.496128 33,231.228061 33,231.228061 L42.2261483,230.198276 Z" id="Fill-13" stroke="#1C3C55"></path>
                                <path d="M40.8147667,73.7725312 C40.8147667,73.7725312 53.9808754,89.0153498 52.9680979,118.484799 C51.9553203,147.954248 42.8403219,236.362596 42.8403219,236.362596 C42.8403219,236.362596 32.712546,238.394972 32.712546,234.33022 C32.712546,230.140477 30.6869908,135.759993 29.6742132,124.581926 C28.6614356,113.403859 25.6231028,234.33022 25.6231028,234.33022 C25.6231028,234.33022 23.5975476,236.362596 19.5464373,236.362596 C15.4953269,236.362596 14.4825493,235.346408 14.4825493,235.346408 C14.4825493,235.346408 5.36755094,146.93806 6.38032853,124.581926 C7.39310613,102.225793 11.4442165,72.7563433 14.4825493,69.7077796 C17.5208821,66.6592159 40.8147667,73.7725312 40.8147667,73.7725312" id="Fill-15" stroke="#1C3C55"></path>
                                <path d="M59.2843191,81.8129035 C56.2373441,68.6647917 51.1590523,61.5850391 45.0651023,48.4369273 C38.9711522,35.2888154 33.8928604,35.2888154 33.8928604,35.2888154 C28.8145687,34.2774222 32.8772021,21.1293103 32.8772021,21.1293103 L24.7519353,21.1293103 C25.7675937,23.1520968 25.7675937,33.266029 23.736277,34.2774222 C21.7049603,35.2888154 16.6266685,33.266029 11.5483768,41.3571747 C6.47008504,49.4483205 1.3917933,72.7103646 3.42311,90.9154425 C5.45442669,109.12052 12.5640351,122.268632 15.6110102,123.280026 C18.6579852,124.291419 16.4631475,120.60489 13.5796935,109.12052 C11.5483768,101.029375 11.8134636,95.3423106 12.2349618,89.8919126 C12.9225625,81.0058118 15.3347511,72.3017617 16.6033084,69.727766 C16.3910358,70.1940182 13.9118138,78.8444644 18.6579852,79.7901171 C23.736277,80.8015103 39.9868105,80.8015103 43.0337856,78.7787239 C44.2617165,77.9635409 42.6011151,70.9282897 43.62693,68.2106761 C47.2528303,70.0857992 57.2611277,108.139469 58.2686608,112.1547 C59.2843191,116.200273 57.2530024,116.200273 58.2686608,120.245846 C59.2843191,124.291419 60.2999775,123.280026 61.3156358,119.234453 C62.3312942,115.18888 62.3312942,94.9610154 59.2843191,81.8129035" id="Fill-17" stroke="#1C3C55"></path>
                                <path d="M26.7003956,26.0937733 C26.7003956,26.0937733 27.8591248,28.0384887 31.9588482,27.7776491 C36.0595988,27.5168095 38.869106,23.3010773 38.5352523,18.2756345 C38.2024259,13.2511988 37.7370852,6.21658592 31.5202158,5.60225323 C25.3033463,4.98892764 22.6273805,11.214837 23.0269777,17.2443612 C23.4255477,23.2748926 26.7003956,26.0937733 26.7003956,26.0937733" id="Fill-19" stroke="#1C3C55"></path>
                                <path d="M48.4516406,90.3868892 C48.4832967,90.9069779 24.5962527,93.8908598 10.7380501,91.1772201 C12.1983132,80.3043055 14.2406391,67.0471408 14.2406391,67.0471408 C14.2406391,67.0471408 4.0290095,66.0273589 0.965520617,65.007577 C-0.0556423439,65.007577 6.07133542,45.6317209 9.1348243,40.5328114 C11.364023,36.8228448 16.282965,31.3547743 22.4099428,32.3745562 C22.4099428,35.4339019 24.4522687,36.4536838 27.5157576,36.4536838 C30.5792465,36.4536838 31.6004094,33.3943381 31.6004094,33.3943381 C31.6004094,33.3943381 34.6638983,33.3943381 37.7273872,36.4536838 C40.7908761,39.5130295 52.0236686,60.9284494 52.0236686,60.9284494 L44.8755279,63.9877951 C44.8755279,63.9877951 47.9431014,82.1133986 48.4516406,90.3868892" id="Fill-21" stroke="#FF9500"></path>
                                <path d="M27.6300366,2.09456596 C27.6300366,2.09456596 29.4523845,-0.755776726 30.3625615,0.193644243 C31.2737355,1.1441051 31.2737355,3.04502682 32.1849094,3.04502682 C33.0960834,3.04502682 35.8296052,0.193644243 35.8296052,2.09456596 C35.8296052,3.99548768 34.9184313,3.99548768 36.7407792,4.94490865 C38.5621302,5.89536951 38.5621302,6.84583037 38.5621302,7.79629123 C38.5621302,8.7457122 35.8296052,7.79629123 34.9184313,8.7457122 C34.0062604,9.69721295 36.5683141,10.5925596 33.57759,10.5925596 C30.4712245,10.5925596 33.4061218,11.201936 30.5868658,12.6723426 C28.5930497,13.7122342 28.5412105,10.6466339 27.6300366,10.6466339 C26.7198595,10.6466339 29.5899578,13.7122342 27.5961417,13.7122342 C25.5594586,13.7122342 26.5992337,13.7122342 25.6023256,12.6723426 C24.1617935,11.1707393 26.0459497,13.2505223 24.6054176,14.7521257 C23.6085095,15.7920172 23.0761606,15.3978983 23.9863377,16.3483592 C24.8975116,17.29882 26.7198595,18.2492809 25.8086856,19.1987019 C24.8975116,20.1491627 26.7198595,23.0005453 23.9863377,22.0500845 C21.2538127,21.0996236 23.0761606,21.0996236 22.1649867,19.1987019 C21.2538127,17.29882 21.2538127,17.29882 20.3416419,17.29882 C19.4314648,17.29882 16.6989399,16.3483592 17.6091169,14.4474375 L19.4314648,10.6466339 C19.4314648,10.6466339 17.6091169,9.69721295 17.6091169,7.79629123 C17.6091169,5.89536951 21.2538127,6.84583037 21.2538127,6.84583037 C21.2538127,6.84583037 19.4314648,3.99548768 21.2538127,3.04502682 C23.0761606,2.09456596 23.9863377,3.99548768 24.8975116,3.99548768 C25.8086856,3.99548768 24.8975116,2.09456596 27.6300366,2.09456596" id="Fill-23" stroke="#1C3C55"></path>
                            </g>
                            <g id="Group-2" transform="translate(213.500000, 175.000000) scale(-1, 1) translate(-213.500000, -175.000000) translate(46.000000, 89.000000)">
                                <g id="portfel-prawy" transform="translate(235.000000, 90.000000)" stroke="#1C3C55">
                                    <path d="M4.43497639,16.5179517 L4.43497639,1.03737484 L83,0.278628143 C88.881851,0.200596347 93.1543246,0.935615979 95.8174208,2.48368704 C98.480517,4.03175809 99.6498982,6.59294909 99.3255643,10.16726" id="Path-97" fill="#FFFFFF"></path>
                                    <path d="M0.24059794,18.106261 L0.973115788,73.2499592 C1.03125167,77.6264092 4.59557393,81.1436981 8.97241004,81.1436981 L91,81.1436981 C95.418278,81.1436981 99,77.5619761 99,73.1436981 L99,10 L8.2398922,10 C3.8216142,10 0.239892196,13.581722 0.239892196,18 C0.239892196,18.0354215 0.240127449,18.0708426 0.24059794,18.106261 Z" id="Path-96" fill="#FFFFFF"></path>
                                    <g id="Group-3" transform="translate(15.000000, 43.000000) rotate(180.000000) translate(-15.000000, -43.000000) translate(0.000000, 35.000000)">
                                        <path d="M0.5,0.5 L0.5,15.5 L24.7662232,15.5 C27.2515045,15.5 29.2662232,13.4852814 29.2662232,11 L29.2662232,5 C29.2662232,2.51471863 27.2515045,0.5 24.7662232,0.5 L0.5,0.5 Z" id="Rectangle-9" transform="translate(14.883112, 8.000000) rotate(180.000000) translate(-14.883112, -8.000000) "></path>
                                        <circle id="Oval" cx="8" cy="8" r="4"></circle>
                                    </g>
                                </g>
                                <g id="portfel-lewy" transform="translate(0.000000, 90.000000)" stroke="#1C3C55">
                                    <path d="M4.43497639,16.5179517 L4.43497639,1.03737484 L83,0.278628143 C88.881851,0.200596347 93.1543246,0.935615979 95.8174208,2.48368704 C98.480517,4.03175809 99.6498982,6.59294909 99.3255643,10.16726" id="Path-97" fill="#FFFFFF"></path>
                                    <path d="M0.24059794,18.106261 L0.973115788,73.2499592 C1.03125167,77.6264092 4.59557393,81.1436981 8.97241004,81.1436981 L91,81.1436981 C95.418278,81.1436981 99,77.5619761 99,73.1436981 L99,10 L8.2398922,10 C3.8216142,10 0.239892196,13.581722 0.239892196,18 C0.239892196,18.0354215 0.240127449,18.0708426 0.24059794,18.106261 Z" id="Path-96" fill="#FFFFFF"></path>
                                    <g id="Group-3" transform="translate(15.000000, 43.000000) rotate(180.000000) translate(-15.000000, -43.000000) translate(0.000000, 35.000000)">
                                        <path d="M0.5,0.5 L0.5,15.5 L24.7662232,15.5 C27.2515045,15.5 29.2662232,13.4852814 29.2662232,11 L29.2662232,5 C29.2662232,2.51471863 27.2515045,0.5 24.7662232,0.5 L0.5,0.5 Z" id="Rectangle-9" transform="translate(14.883112, 8.000000) rotate(180.000000) translate(-14.883112, -8.000000) "></path>
                                        <circle id="Oval" cx="8" cy="8" r="4"></circle>
                                    </g>
                                </g>
                                <g id="tranzakcja" transform="translate(46.000000, 39.000000)">
                                    <polyline id="Path-28" stroke="#FF9500" points="0.0905094274 47 110.649043 0.466573649 244.197836 47"></polyline>
                                    <polygon id="ion-ios-arrow-right---Ionicons" fill="#FF9500" transform="translate(44.908115, 28.745191) rotate(330.000000) translate(-44.908115, -28.745191) " points="40.4081149 22.1358155 41.3924899 21.2451905 49.4081149 28.7451905 41.3924899 36.2451905 40.4081149 35.3545655 47.4393649 28.7451905"></polygon>
                                    <polygon id="ion-ios-arrow-right---Ionicons" fill="#FF9500" transform="translate(191.256778, 28.662076) rotate(203.000000) translate(-191.256778, -28.662076) " points="186.756778 22.0527015 187.741153 21.1620765 195.756778 28.6620765 187.741153 36.1620765 186.756778 35.2714515 193.788028 28.6620765"></polygon>
                                </g>
                                <g id="tarcza-+klucz" transform="translate(120.000000, 0.000000)">
                                    <g id="Group-4" fill="#FFFFFF">
                                        <path d="M43.0840134,105 L42.5204033,104.90497 C17.4895823,98.9788131 0,76.7954322 0,50.9606333 L0,14.9325897 L1.58771003,14.8606909 C16.2160346,14.2016507 30.1995199,9.30867742 42.024964,0.709157298 L43.0008641,0 L43.9767643,0.709157298 C55.8087374,9.31021949 69.7904945,14.2030001 84.41229,14.8606909 L86,14.9325897 L86,50.9604405 C86,76.7936974 68.5104177,98.9770783 43.4696111,104.908054 L43.0840134,105 Z" id="Path" stroke="#1C3C55"></path>
                                        <path d="M43.078152,101 L42.5538635,100.912211 C19.2693789,95.4375702 3,74.9443516 3,51.0779184 L3,17.7948686 L4.47693957,17.7284478 C18.0846833,17.1196202 31.0925767,12.5994449 42.0929898,4.65512627 L43.0008038,4 L43.9086179,4.65512627 C54.9151046,12.6008694 67.9213902,17.1208667 81.5230604,17.7284478 L83,17.7948686 L83,51.0777403 C83,74.942749 66.7306211,95.4359676 43.4368476,100.91506 L43.078152,101 Z" id="Path" stroke="#95AABF"></path>
                                    </g>
                                    <g id="key" transform="translate(23.000000, 32.000000)" stroke="#1C3C55">
                                        <path d="M27.5806469,0 C19.6297419,0 13.1611271,6.36808594 13.1611271,14.1954258 C13.1611271,15.9355547 13.4751837,17.6265469 14.0952974,19.2323906 L0.307807072,32.8065938 C0.110740552,33.0006797 0,33.2637539 0,33.5380664 L0,40.9655039 C0,41.5368516 0.470459862,42 1.05082701,42 L7.26829655,42 C7.54668947,42 7.81366669,41.8913086 8.01073321,41.6976328 L10.1059711,39.6380742 C10.3034543,39.4439883 10.4143615,39.1805859 10.4143615,38.9059453 L10.4143615,36.3731484 L12.9838922,36.3731484 C13.5642594,36.3731484 14.0347193,35.91 14.0347193,35.3386523 L14.0347193,34.3247461 L15.0647147,34.3247461 C15.6449985,34.3247461 16.1155417,33.8615977 16.1155417,33.29025 L16.1155417,31.06425 L18.3766821,31.06425 C18.655325,31.06425 18.9225522,30.9552305 19.1197021,30.7612266 L22.4628335,27.4700508 C24.0942777,28.0811016 25.8122144,28.3906875 27.5804802,28.3906875 C35.5313852,28.3906875 42,22.0226016 42,14.1952617 C42.0000833,6.36808594 35.5315519,0 27.5806469,0 Z" id="Path"></path>
                                        <path d="M30,4 C27.7943561,4 26,5.79435612 26,8 C26,10.2056439 27.7943561,12 30,12 C32.2056439,12 34,10.2056439 34,8 C34,5.79435612 32.2057286,4 30,4 Z" id="Shape" fill-rule="nonzero"></path>
                                        <path d="M17,21 L3,35" id="Path-2"></path>
                                        <path d="M19,23 L10.5,31.5" id="Path-2-Copy"></path>
                                    </g>
                                </g>
                            </g>
                        </g>
                    </g>
                </g>
            </g>
        </g>
    </g>
</svg>