<?xml version="1.0" encoding="UTF-8"?>
<svg width="30px" height="49px" viewBox="0 0 30 49" version="1.1" xmlns="http://www.w3.org/2000/svg" xmlns:xlink="http://www.w3.org/1999/xlink">
    <!-- Generator: Sketch 49 (51002) - http://www.bohemiancoding.com/sketch -->
    <title>Find products for sale online icon</title>
    <desc>Created with Sketch.</desc>
    <defs></defs>
    <g id="Spending-bitcoin" stroke="none" stroke-width="1" fill="none" fill-rule="evenodd">
        <g id="22.01.18-Bitcoin.org_Spending-Bitcoin_Desktop-1200px--" transform="translate(-385.000000, -603.000000)">
            <g id="//contenct" transform="translate(215.000000, 567.000000)">
                <g id="box1">
                    <g id="Find-products-for-sale-online-icon" transform="translate(155.000000, 30.000000)">
                        <g id="icon/Mobile-shop-online">
                            <g fill-rule="nonzero">
                                <g id="Group" transform="translate(15.000000, 6.000000)">
                                    <g id="shopping-basket" transform="translate(6.000000, 14.000000)" fill="#95AABF">
                                        <path d="M2.89729076,7.21793103 L3.5799908,13.6611574 C3.60298977,13.8788697 3.80601652,14.052069 4.06566667,14.052069 L14.9343333,14.052069 C15.1942654,14.052069 15.3981353,13.8784051 15.4215672,13.6610392 L16.1037614,7.21793103 L2.89729076,7.21793103 Z M14.9343333,15.052069 L4.06566667,15.052069 C3.30545942,15.052069 2.6635092,14.5044303 2.58554084,13.7663679 L1.87254355,7.03719997 C1.84970416,6.82055933 1.92471947,6.606158 2.07463746,6.45159526 C2.21865884,6.30167612 2.41823278,6.21793103 2.62633333,6.21793103 L16.374697,6.21793103 C16.5823475,6.21793103 16.7824084,6.30171457 16.9247324,6.44987506 C17.076332,6.60617986 17.1514213,6.82120123 17.1284631,7.03742344 L16.415908,13.7672719 C16.3363852,14.5049929 15.6941542,15.052069 14.9343333,15.052069 Z" id="Path"></path>
                                        <path d="M4.91721212,3.67551724 C4.84354545,3.67551724 4.77039394,3.64396552 4.71990909,3.58293103 C4.62769697,3.4737931 4.45706512,3.18432945 4.56627724,3.09277772 L7.88803321,0.396139453 C7.99776049,0.304587729 8.2409697,0.430862069 8.33163636,0.540517241 C8.42333333,0.649655172 8.40890909,0.813103448 8.29969697,0.904655172 L5.08206061,3.615 C5.03415152,3.65534483 4.97542424,3.67551724 4.91721212,3.67551724 Z" id="Shape"></path>
                                        <path d="M14.083303,3.67551724 C14.0250909,3.67551724 13.9663636,3.65534483 13.9179394,3.615 L10.6997879,0.904655172 C10.5910909,0.812586207 10.6359091,0.685702516 10.6678485,0.54 C10.6997879,0.394297484 11.0022652,0.30274576 11.1114773,0.394297484 L14.4612436,3.12792323 C14.5699406,3.21999219 14.372303,3.47327586 14.2811212,3.58293103 C14.2301212,3.64396552 14.1569697,3.67551724 14.083303,3.67551724 Z" id="Shape"></path>
                                        <path d="M17.1113636,6.21793103 C17.3249685,6.21793103 17.5,6.04211915 17.5,5.82568966 L17.5,4.17155172 C17.5,3.95534541 17.3246762,3.77931034 17.1113636,3.77931034 L1.88863636,3.77931034 C1.67532381,3.77931034 1.5,3.95534541 1.5,4.17155172 L1.5,5.82568966 C1.5,6.04189597 1.67532381,6.21793103 1.88863636,6.21793103 L17.1113636,6.21793103 Z M17.1113636,7.21793103 L1.88863636,7.21793103 C1.12213073,7.21793103 0.5,6.59327645 0.5,5.82568966 L0.5,4.17155172 C0.5,3.40396493 1.12213073,2.77931034 1.88863636,2.77931034 L17.1113636,2.77931034 C17.8778693,2.77931034 18.5,3.40396493 18.5,4.17155172 L18.5,5.82568966 C18.5,6.59341045 17.8782516,7.21793103 17.1113636,7.21793103 Z" id="Path"></path>
                                        <path d="M5.66441176,12.524 C5.51829412,12.524 5.39970588,12.412 5.39970588,12.274 L5.39970588,8.649 C5.39970588,8.511 5.51829412,8.399 5.66441176,8.399 C5.81052941,8.399 5.92911765,8.511 5.92911765,8.649 L5.92911765,12.274 C5.92911765,12.4125 5.81105882,12.524 5.66441176,12.524 Z" id="Shape"></path>
                                        <path d="M8.22147059,12.524 C8.07535294,12.524 7.95676471,12.412 7.95676471,12.274 L7.95676471,8.649 C7.95676471,8.511 8.07535294,8.399 8.22147059,8.399 C8.36758824,8.399 8.48617647,8.511 8.48617647,8.649 L8.48617647,12.274 C8.48617647,12.4125 8.36811765,12.524 8.22147059,12.524 Z" id="Shape"></path>
                                        <path d="M10.7785294,12.524 C10.6324118,12.524 10.5138235,12.412 10.5138235,12.274 L10.5138235,8.649 C10.5138235,8.511 10.6324118,8.399 10.7785294,8.399 C10.9246471,8.399 11.0432353,8.511 11.0432353,8.649 L11.0432353,12.274 C11.0432353,12.4125 10.9246471,12.524 10.7785294,12.524 Z" id="Shape"></path>
                                        <path d="M13.3355882,12.524 C13.1894706,12.524 13.0708824,12.412 13.0708824,12.274 L13.0708824,8.649 C13.0708824,8.511 13.1894706,8.399 13.3355882,8.399 C13.4817059,8.399 13.6002941,8.511 13.6002941,8.649 L13.6002941,12.274 C13.6002941,12.4125 13.4817059,12.524 13.3355882,12.524 Z" id="Shape"></path>
                                    </g>
                                    <g id="Group-2">
                                        <path d="M27,37.3738602 C27,38.8242372 25.7601732,40 24.2307692,40 L5.76923077,40 C4.23982685,40 3,38.8242372 3,37.3738602 L3,6.62613982 C3,5.17576285 4.23982685,4 5.76923077,4 L24.2307692,4 C25.7601732,4 27,5.17576285 27,6.62613982 L27,37.3738602 Z M26,37.458379 L26,6.70031053 C26,5.99672353 25.1137699,5 24.1289114,5 L5.59394468,5 C5.06509631,5 4,5.77629351 4,6.55972568 L4,37.458379 C4,37.9603979 4.81034917,39 5.81028268,39 L24.4793069,39 C25.1765707,39 26,38.0232055 26,37.458379 Z" id="phone_iphone---material" fill="#1C3C55"></path>
                                        <path d="M30,44.625 C30,47.0412458 28.0247857,49 25.5882353,49 L4.41176471,49 C1.97521434,49 0,47.0412458 0,44.625 L0,4.375 C0,1.95875422 1.97521434,0 4.41176471,0 L25.5882353,0 C28.0247857,-3.88578059e-16 30,1.95875422 30,4.375 L30,44.625 Z M29.0348175,45.0120192 L29.0348175,3.98798077 C29.0348175,2.51035354 27.2818995,0.8296287 25.7918552,0.8296287 L4.2081448,0.8296287 C2.71810053,0.8296287 0.966762797,2.51035354 0.966762797,3.98798077 L0.966762797,45.0120192 C0.966762797,46.4896465 2.71810053,48.1352498 4.2081448,48.1352498 L25.7918552,48.1352498 C27.2818995,48.1352498 29.0348175,46.4896465 29.0348175,45.0120192 Z" id="phone_iphone---material" fill="#F7931A"></path>
                                        <path d="M15.5146457,46.65 C16.1071908,46.65 16.6179439,46.4405313 17.0292376,46.0292376 C17.4405313,45.6179439 17.65,45.1071908 17.65,44.5146457 C17.65,43.9237131 17.4417732,43.40936 17.0323089,42.9885217 C16.6207309,42.5655109 16.1086094,42.35 15.5146457,42.35 C14.9237131,42.35 14.40936,42.5582268 13.9885217,42.9676911 C13.5656373,43.3791462 13.35,43.900854 13.35,44.5146457 C13.35,45.1287576 13.5608413,45.6453931 13.9739643,46.0470405 C14.3848478,46.4465105 14.9036576,46.65 15.5146457,46.65 Z M12.65,44.5146457 C12.65,43.7137618 12.9406441,43.0105842 13.5003732,42.4659829 C14.0521069,41.9291609 14.7416786,41.65 15.5146457,41.65 C16.2972779,41.65 16.9904394,41.9416961 17.5340171,42.5003732 C18.0708391,43.0521069 18.35,43.7416786 18.35,44.5146457 C18.35,45.2919682 18.0674102,45.9810145 17.5242124,46.5242124 C16.9810145,47.0674102 16.2919682,47.35 15.5146457,47.35 C14.7243112,47.35 14.0297554,47.0775788 13.4860095,46.5489369 C12.9350401,46.0132723 12.65,45.3148235 12.65,44.5146457 Z" id="Path" fill="#95AABF"></path>
                                    </g>
                                </g>
                            </g>
                        </g>
                    </g>
                </g>
            </g>
        </g>
    </g>
</svg>