<?xml version="1.0" encoding="UTF-8"?>
<svg width="34px" height="30px" viewBox="0 0 34 30" version="1.1" xmlns="http://www.w3.org/2000/svg" xmlns:xlink="http://www.w3.org/1999/xlink">
    <!-- Generator: Sketch 49 (51002) - http://www.bohemiancoding.com/sketch -->
    <title>Big Paragraph Copy</title>
    <desc>Created with Sketch.</desc>
    <defs></defs>
    <g id="Press" stroke="none" stroke-width="1" fill="none" fill-rule="evenodd">
        <g id="22.01.18_Bitcoin.org_press-centre_Desktop-1200px--" transform="translate(-972.000000, -2124.000000)" fill="#FF7E00">
            <g id="//content" transform="translate(217.000000, 548.000000)">
                <g id="right-side" transform="translate(367.000000, 0.000000)">
                    <g id="what-are-the-advantages-of-bitcoin" transform="translate(31.000000, 1530.000000)">
                        <g id="Group" transform="translate(172.000000, 46.000000)">
                            <path d="M186.410925,29.234375 L186.410925,25.0580357 C187.727796,24.3431633 188.715434,23.0545309 189.373869,21.1921 C190.032304,19.3296691 190.361517,16.8746834 190.361517,13.8270693 L190.361517,12.5290179 L185,12.5290179 L185,0 L197.529018,0 L197.529018,9.36854488 C197.529018,15.0498997 196.597816,19.5460038 194.735385,22.856992 C192.872955,26.1679803 190.098162,28.2937533 186.410925,29.234375 Z M207.292622,29.234375 L207.292622,25.0580357 C208.609492,24.3431633 209.59713,23.0545309 210.255565,21.1921 C210.914,19.3296691 211.243213,16.8746834 211.243213,13.8270693 L211.243213,12.5290179 L205.881696,12.5290179 L205.881696,0 L218.410714,0 L218.410714,9.36854488 C218.410714,15.0498997 217.479513,19.5460038 215.617082,22.856992 C213.754651,26.1679803 210.979859,28.2937533 207.292622,29.234375 Z" id="Big-Paragraph-Copy"></path>
                        </g>
                    </g>
                </g>
            </g>
        </g>
    </g>
</svg>