<svg xmlns="http://www.w3.org/2000/svg" viewBox="0 0 77.21 64.57"><defs><style>.cls-1,.cls-2,.cls-3{fill:none;stroke-miterlimit:10;}.cls-1{stroke:#8eabc0;}.cls-2{stroke:#222829;}.cls-3{stroke:#ff8e00;}</style></defs><title>Asset 22</title><g id="Layer_2" data-name="Layer 2"><g id="ICONS_1.0" data-name="ICONS 1.0"><g id="LINE_ICONS" data-name="LINE ICONS"><g id="_28._KNOWLEDGE_IS_POWER" data-name="28. KNOWLEDGE IS POWER"><g id="_28_geography_globe" data-name="28_geography_globe"><path class="cls-1" d="M7.26,19.8a31.79,31.79,0,0,1,58.52.11"/><path class="cls-1" d="M62.57,50.46A31.79,31.79,0,0,1,7.33,44.94"/><path class="cls-1" d="M46.42,22.28l2.4-3.88a1,1,0,0,0-.08-1.16l-1.14-1.4a1,1,0,0,1,1.07-1.58l1.57.48a1,1,0,0,0,1.19-.49l3.88-7.58"/><path class="cls-1" d="M24.18,3l9.58,4.89A1,1,0,0,1,34,9.44L30.1,13.62A1,1,0,0,0,30,14.85l2.29,3.52a1,1,0,0,0,.65.43l5.28,1a1,1,0,0,1,.63.42l1.4,2"/><path class="cls-1" d="M19.33,43.07l.29,1.12a1,1,0,0,0,1,.75h5a1,1,0,0,1,1,1v4.44a1,1,0,0,1-1,1H21.66a1,1,0,0,0-.83,1.55l1.54,2.34a1,1,0,0,1-.08,1.21l-2.48,2.86"/><path class="cls-1" d="M12.63,40.32"/><path class="cls-1" d="M51.12,60l-1.81-5.92a1,1,0,0,1,0-.74l3.14-6.59a1,1,0,0,1,.9-.57h6.77a1,1,0,0,1,.93,1.38L59,52.48A1,1,0,0,0,59,53l.24,1.49"/><path class="cls-2" d="M57.49,42.28H2.62c-1.17,0-2.12-.44-2.12-1v-18c0-.55,1-1,2.12-1H70.38c1.17,0,2.11.45,2.11,1v.62"/><rect class="cls-2" x="66.46" y="46.15" width="2.73" height="15.04"/><path class="cls-2" d="M67.82,46.15V43.41a8.88,8.88,0,1,0-3.42-.68"/><circle class="cls-3" cx="67.82" cy="34.52" r="6.15"/><line class="cls-3" x1="7.38" y1="32.52" x2="8.98" y2="32.52"/><line class="cls-3" x1="10.29" y1="32.52" x2="11.89" y2="32.52"/><line class="cls-3" x1="13.2" y1="32.52" x2="14.8" y2="32.52"/></g></g></g></g></g></svg>