<?xml version="1.0" encoding="UTF-8" standalone="no"?>
<svg
   xmlns:dc="http://purl.org/dc/elements/1.1/"
   xmlns:cc="http://creativecommons.org/ns#"
   xmlns:rdf="http://www.w3.org/1999/02/22-rdf-syntax-ns#"
   xmlns:svg="http://www.w3.org/2000/svg"
   xmlns="http://www.w3.org/2000/svg"
   xmlns:sodipodi="http://sodipodi.sourceforge.net/DTD/sodipodi-0.dtd"
   xmlns:inkscape="http://www.inkscape.org/namespaces/inkscape"
   inkscape:version="1.0 (4035a4fb49, 2020-05-01)"
   inkscape:export-ydpi="62.443859"
   inkscape:export-xdpi="62.443859"
   inkscape:export-filename="/tmp/search.png"
   sodipodi:docname="search.svg"
   id="svg1014"
   version="1.1"
   viewBox="0 0 77.21 64.57">
  <metadata
     id="metadata1018">
    <rdf:RDF>
      <cc:Work
         rdf:about="">
        <dc:format>image/svg+xml</dc:format>
        <dc:type
           rdf:resource="http://purl.org/dc/dcmitype/StillImage" />
        <dc:title>Asset 22</dc:title>
      </cc:Work>
    </rdf:RDF>
  </metadata>
  <sodipodi:namedview
     inkscape:current-layer="svg1014"
     inkscape:window-maximized="1"
     inkscape:window-y="37"
     inkscape:window-x="0"
     inkscape:cy="32.285"
     inkscape:cx="38.510323"
     inkscape:zoom="21.124361"
     showgrid="false"
     id="namedview1016"
     inkscape:window-height="1561"
     inkscape:window-width="2556"
     inkscape:pageshadow="2"
     inkscape:pageopacity="0"
     guidetolerance="10"
     gridtolerance="10"
     objecttolerance="10"
     borderopacity="1"
     bordercolor="#666666"
     pagecolor="#ffffff" />
  <defs
     id="defs977">
    <style
       id="style975">.cls-1,.cls-2,.cls-3{fill:none;stroke-miterlimit:10;}.cls-1{stroke:#8eabc0;}.cls-2{stroke:#222829;}.cls-3{stroke:#ff8e00;}</style>
  </defs>
  <title
     id="title979">Asset 22</title>
  <g
     data-name="Layer 2"
     id="Layer_2">
    <g
       data-name="ICONS 1.0"
       id="ICONS_1.0">
      <g
         data-name="LINE ICONS"
         id="LINE_ICONS">
        <g
           data-name="28. KNOWLEDGE IS POWER"
           id="_28._KNOWLEDGE_IS_POWER">
          <g
             data-name="28_geography_globe"
             id="_28_geography_globe">
            <path
               id="path981"
               d="M7.26,19.8a31.79,31.79,0,0,1,58.52.11"
               class="cls-1" />
            <path
               id="path983"
               d="M62.57,50.46A31.79,31.79,0,0,1,7.33,44.94"
               class="cls-1" />
            <path
               id="path985"
               d="M46.42,22.28l2.4-3.88a1,1,0,0,0-.08-1.16l-1.14-1.4a1,1,0,0,1,1.07-1.58l1.57.48a1,1,0,0,0,1.19-.49l3.88-7.58"
               class="cls-1" />
            <path
               id="path987"
               d="M24.18,3l9.58,4.89A1,1,0,0,1,34,9.44L30.1,13.62A1,1,0,0,0,30,14.85l2.29,3.52a1,1,0,0,0,.65.43l5.28,1a1,1,0,0,1,.63.42l1.4,2"
               class="cls-1" />
            <path
               id="path989"
               d="M19.33,43.07l.29,1.12a1,1,0,0,0,1,.75h5a1,1,0,0,1,1,1v4.44a1,1,0,0,1-1,1H21.66a1,1,0,0,0-.83,1.55l1.54,2.34a1,1,0,0,1-.08,1.21l-2.48,2.86"
               class="cls-1" />
            <path
               id="path991"
               d="M12.63,40.32"
               class="cls-1" />
            <path
               id="path993"
               d="M51.12,60l-1.81-5.92a1,1,0,0,1,0-.74l3.14-6.59a1,1,0,0,1,.9-.57h6.77a1,1,0,0,1,.93,1.38L59,52.48A1,1,0,0,0,59,53l.24,1.49"
               class="cls-1" />
            <path
               id="path995"
               d="M57.49,42.28H2.62c-1.17,0-2.12-.44-2.12-1v-18c0-.55,1-1,2.12-1H70.38c1.17,0,2.11.45,2.11,1v.62"
               class="cls-2" />
            <rect
               id="rect997"
               height="15.04"
               width="2.73"
               y="46.15"
               x="66.46"
               class="cls-2" />
            <path
               id="path999"
               d="M67.82,46.15V43.41a8.88,8.88,0,1,0-3.42-.68"
               class="cls-2" />
            <circle
               id="circle1001"
               r="6.15"
               cy="34.52"
               cx="67.82"
               class="cls-3" />
            <line
               id="line1003"
               y2="32.52"
               x2="8.98"
               y1="32.52"
               x1="7.38"
               class="cls-3" />
            <line
               id="line1005"
               y2="32.52"
               x2="11.89"
               y1="32.52"
               x1="10.29"
               class="cls-3" />
            <line
               id="line1007"
               y2="32.52"
               x2="14.8"
               y1="32.52"
               x1="13.2"
               class="cls-3" />
          </g>
        </g>
      </g>
    </g>
  </g>
</svg>
