<?xml version="1.0" encoding="UTF-8"?>
<svg width="378px" height="312px" viewBox="0 0 378 312" version="1.1" xmlns="http://www.w3.org/2000/svg" xmlns:xlink="http://www.w3.org/1999/xlink">
    <!-- Generator: Sketch 49 (51002) - http://www.bohemiancoding.com/sketch -->
    <title>securing your wallet</title>
    <desc>Created with Sketch.</desc>
    <defs></defs>
    <g id="Things-you-need-to-know" stroke="none" stroke-width="1" fill="none" fill-rule="evenodd">
        <g id="22.01.18-Bitcoin.org_things-you-need-to-know-Desktop-1200px--" transform="translate(-245.000000, -786.000000)">
            <g id="//body" transform="translate(215.000000, 717.000000)">
                <g id="1">
                    <g id="securing-your-wallet" transform="translate(0.000000, 35.000000)">
                        <g id="Group" transform="translate(234.815051, 174.760581) rotate(-336.000000) translate(-234.815051, -174.760581) translate(61.315051, 9.260581)">
                            <g id="Group-8" opacity="0.200000003" transform="translate(12.000000, 1.000000)" stroke="#979797">
                                <path d="" id="Path-2"></path>
                                <polyline id="Path-5" points="327.306554 250.729508 300.262156 78.2663934 0 153.762295 156.02537 176.618852 189.310782 1.3852459"></polyline>
                                <polyline id="Path-6" points="156.718816 176.618852 209.420719 327.610656 299.56871 78.2663934"></polyline>
                                <polyline id="Path-8" points="156.718816 178.004098 76.9725159 278.434426 208.727273 327.610656"></polyline>
                                <polyline id="Path-9" points="155.331924 176.618852 98.4693446 56.795082 191.391121 0.692622951"></polyline>
                                <polygon id="Path-10" points="78.359408 279.127049 0 272.893443 0 154.454918"></polygon>
                                <polyline id="Path-11" points="299.56871 78.2663934 188.270613 0 326.613108 252.114754 210.114165 328.303279 0 154.454918 98.4693446 56.102459 325.919662 252.114754"></polyline>
                                <polyline id="Path-13" points="328 252.114754 236.465116 252.114754 162.959831 175.233607"></polyline>
                                <path d="M76.9725159,279.127049 L239.238901,252.114754" id="Path-14"></path>
                            </g>
                            <g id="dots" transform="translate(101.000000, 49.000000)">
                                <circle id="Oval-2" fill="#C4C4C4" cx="8.5" cy="8.5" r="2.38"></circle>
                                <circle id="Oval-2" stroke="#CACACA" cx="8.5" cy="8.5" r="8.5"></circle>
                            </g>
                            <g id="dots" transform="translate(330.000000, 243.000000)">
                                <circle id="Oval-2" fill="#C4C4C4" cx="8.5" cy="8.5" r="2.38"></circle>
                                <circle id="Oval-2" stroke="#CACACA" cx="8.5" cy="8.5" r="8.5"></circle>
                            </g>
                            <g id="dots" transform="translate(275.000000, 147.000000)">
                                <circle id="Oval-2" fill="#C4C4C4" cx="8.5" cy="8.5" r="2.38"></circle>
                                <circle id="Oval-2" stroke="#CACACA" cx="8.5" cy="8.5" r="8.5"></circle>
                            </g>
                            <g id="dots" transform="translate(80.000000, 271.000000)">
                                <circle id="Oval-2" fill="#C4C4C4" cx="8.5" cy="8.5" r="2.38"></circle>
                                <circle id="Oval-2" stroke="#CACACA" cx="8.5" cy="8.5" r="8.5"></circle>
                            </g>
                            <circle id="Oval-2" fill="#7B7B7B" cx="220.5" cy="328.5" r="2.5"></circle>
                            <circle id="Oval-2" fill="#7B7B7B" cx="200.5" cy="2.5" r="2.5"></circle>
                            <g id="Group-7" transform="translate(0.000000, 143.000000)">
                                <circle id="Oval-2" fill="#FF7E00" cx="12.5" cy="12.5" r="3.92857143"></circle>
                                <circle id="Oval-2" stroke="#FF7E00" cx="12.5" cy="12.5" r="12.5"></circle>
                            </g>
                            <g id="Group-7" transform="translate(0.000000, 261.000000)">
                                <circle id="Oval-2" fill="#FF7E00" cx="12.5" cy="12.5" r="3.92857143"></circle>
                                <circle id="Oval-2" stroke="#FF7E00" cx="12.5" cy="12.5" r="12.5"></circle>
                            </g>
                            <g id="Group-7" transform="translate(298.000000, 68.000000)">
                                <circle id="Oval-2" fill="#FF7E00" cx="12.5" cy="12.5" r="3.92857143"></circle>
                                <circle id="Oval-2" stroke="#FF7E00" cx="12.5" cy="12.5" r="12.5"></circle>
                            </g>
                        </g>
                        <g id="Group-4" transform="translate(140.000000, 105.000000)" fill="#FFFFFF">
                            <path d="M70.637743,172 L69.7136844,171.844332 C28.6747803,162.136722 0,125.798232 0,83.4783707 L0,24.4610041 L2.60310599,24.343227 C26.5867543,23.2636565 49.5131664,15.2485002 68.9013945,1.16166719 L70.5014168,0 L72.1014391,1.16166719 C91.5003718,15.2510262 114.42395,23.2658668 138.396894,24.343227 L141,24.4610041 L141,83.4780549 C141,125.79539 112.32522,162.133881 71.2699438,171.849384 L70.637743,172 Z" id="Path" stroke="#1C3C55"></path>
                            <path d="M70.6305355,167.5 L69.7548288,167.352478 C30.8633093,158.152824 3.68895349,123.715766 3.68895349,83.6103164 L3.68895349,27.6810678 L6.15585044,27.5694535 C28.8845405,26.5463721 50.6113147,18.9506135 68.9850424,5.60088228 L70.5013427,4.5 L72.0176429,5.60088228 C90.4015151,18.9530074 112.125604,26.5484667 134.84415,27.5694535 L137.311047,27.6810678 L137.311047,83.6100172 C137.311047,123.713073 110.136691,158.150131 71.2296561,167.357265 L70.6305355,167.5 Z" id="Path" stroke="#95AABF"></path>
                        </g>
                        <g id="Group-6" transform="translate(341.500000, 191.000000) scale(-1, 1) translate(-341.500000, -191.000000) translate(294.000000, 71.000000)" fill="#FFFFFF">
                            <path d="M36.1458161,20 C36.1458161,21.0164607 40.2248078,27.1152247 35.1260682,33.2139886 C30.0273287,39.3127526 35.7618417,31.6082289 27.8899434,39.156007 C22.0093471,44.7944737 20.9830892,52.3012381 24.8111698,61.6763003 C24.2096175,71.1623245 23.5689253,76.9217972 22.8890934,78.9547185 C21.8693455,82.0041005 12.6916143,118.596684 13.7113623,136.892976 C14.7311102,155.189268 14.7311102,161.288032 13.7113623,174.502021 C12.6916143,187.71601 12.6916143,219.22629 8.61262273,227.357976 C4.53363112,235.489661 -0.565108403,237.522582 0.454639501,238.539043 C1.47438741,239.555504 15.7508581,234.4732 15.7508581,231.423818 C15.7508581,228.374436 13.7113623,228.374436 15.7508581,224.308594 C17.7903539,220.242751 30.0273287,188.73247 30.0273287,178.567864 C30.0273287,168.403257 36.1458161,137.909437 36.1458161,137.909437 C36.1458161,137.909437 40.2248078,125.711909 41.2445557,124.695448 C42.2643036,123.678988 44.3037994,160.271572 47.3630431,173.48556 C49.4025389,188.73247 46.3432952,187.71601 50.4222868,206.012302 C54.5012784,224.308594 54.5012784,227.357976 53.4815305,230.407358 C52.4617826,233.45674 52.4617826,234.4732 56.5407742,236.506122 C60.6197658,238.539043 66.7382533,240.571964 65.7185054,237.522582 C64.6987575,234.4732 59.6000179,231.423818 59.6000179,228.374436 C59.6000179,225.325054 62.6592616,188.73247 63.6790095,181.617246 C64.6987575,174.502021 66.7382533,160.271572 66.7382533,151.123426 L59.292067,125.021423 C59.292067,119.93912 58.58027,84.0370219 57.5605221,77.9382579 C56.5407742,71.8394939 56.5407742,66.5484438 57.5605221,68.5813651 C58.58027,70.6142865 55.2130754,92.1251058 58.2723191,100.256791 C61.3315628,108.388476 64.6120791,118.685051 64.6120791,123.767354 C64.6120791,128.849657 60.2156983,124.912119 60.7586786,127.093681 C61.3016588,129.275242 66.165369,130.501738 68.2048648,127.452356 C70.2443606,124.402974 70.509294,124.004962 69.4895461,117.906198 C68.8097141,113.840356 67.8926165,101.219922 66.7382533,80.0448974 C63.3390936,58.9888982 60.6197658,47.1056177 58.58027,44.3950559 C55.5210263,40.3292133 48.382791,37.2798313 46.3432952,34.2304493 C44.3037994,31.1810673 44.3037994,20 44.3037994,20 L36.1458161,20 Z" id="Fill-1-Copy" stroke="#1C3C55"></path>
                            <path d="M32.7592453,35 C32.7592453,35 34.7821743,45.1103358 40.8509613,46.1213694 C46.9197484,47.132403 48.9922391,35.632907 49.978417,35.8219703 C50.9656064,36.0110336 53.000673,37.9239091 53.000673,37.9239091 C53.000673,37.9239091 52.4271726,56.4612098 52.9885354,59.2648059 C53.9999999,64.3199738 58.0458579,69.3751417 58.0458579,69.3751417 C58.0458579,69.3751417 57.4612314,71.6600776 58.7650092,80.1224287 C59.2375286,83.1893819 63.0633823,94.8780504 65.0738386,108.867835 C68.6106425,133.478728 70.9252626,165.61506 70.9252626,173.350397 C70.9252626,177.394531 50.3250446,179.611817 37.176006,178.600783 C26.8712057,177.808133 12.2974427,179.549172 11.8458032,178.600783 C10.2829783,175.319037 12.5914015,147.095071 14.330417,123.559923 C15.4299292,108.67956 18.9508178,94.2539209 19.6102068,91.6178805 C19.6102068,91.6178805 24.3307116,75.104669 23.9928825,71.2283663 C23.6560648,67.3530746 28.7133873,65.3310074 29.7248518,56.2317052 C30.7363163,47.132403 28.7133873,37.0220672 28.7133873,37.0220672 L32.7592453,35 Z" id="Fill-5" stroke="#FF9500"></path>
                            <path d="M37.71223,25.5334284 C37.71223,25.5334284 38.8709591,27.4781439 42.9706825,27.2173043 C47.0714331,26.9564647 49.8809404,22.7407325 49.5470867,17.7152896 C49.2142602,12.6908539 48.7489195,5.65624109 42.5320501,5.0419084 C36.3151806,4.42858281 33.6392149,10.6544921 34.0388121,16.6840164 C34.437382,22.7145478 37.71223,25.5334284 37.71223,25.5334284" id="Fill-19" stroke="#1C3C55"></path>
                            <path d="M39.2040011,2.09456596 C39.2040011,2.09456596 41.026349,-0.755776726 41.936526,0.193644243 C42.8477,1.1441051 42.8477,3.04502682 43.7588739,3.04502682 C44.6700479,3.04502682 47.4035697,0.193644243 47.4035697,2.09456596 C47.4035697,3.99548768 46.4923958,3.99548768 48.3147437,4.94490865 C50.1360947,5.89536951 50.1360947,6.84583037 50.1360947,7.79629123 C50.1360947,8.7457122 47.4035697,7.79629123 46.4923958,8.7457122 C45.5802249,9.69721295 48.1422786,10.5925596 45.1515545,10.5925596 C42.045189,10.5925596 44.9800863,11.201936 42.1608303,12.6723426 C40.1670142,13.7122342 40.115175,10.6466339 39.2040011,10.6466339 C38.293824,10.6466339 41.1639223,13.7122342 39.1701062,13.7122342 C37.1334231,13.7122342 38.1731982,13.7122342 37.1762901,12.6723426 C35.735758,11.1707393 37.6199142,13.2505223 36.1793821,14.7521257 C35.182474,15.7920172 34.6501251,15.3978983 35.5603022,16.3483592 C36.4714761,17.29882 38.293824,18.2492809 37.3826501,19.1987019 C36.4714761,20.1491627 38.293824,23.0005453 35.5603022,22.0500845 C32.8277772,21.0996236 34.6501251,21.0996236 33.7389512,19.1987019 C32.8277772,17.29882 32.8277772,17.29882 31.9156064,17.29882 C31.0054293,17.29882 28.2729044,16.3483592 29.1830814,14.4474375 L31.0054293,10.6466339 C31.0054293,10.6466339 29.1830814,9.69721295 29.1830814,7.79629123 C29.1830814,5.89536951 32.8277772,6.84583037 32.8277772,6.84583037 C32.8277772,6.84583037 31.0054293,3.99548768 32.8277772,3.04502682 C34.6501251,2.09456596 35.5603022,3.99548768 36.4714761,3.99548768 C37.3826501,3.99548768 36.4714761,2.09456596 39.2040011,2.09456596" id="Fill-23" stroke="#1C3C55"></path>
                            <path d="M63.4410783,25.9213328 C58.5222984,27.8652928 53.9236317,32.3678633 45.2461189,42.935995 C41.4946149,47.5037269 38.9253954,56.1896168 37.5384604,68.9936646 C36.0941213,83.6166741 35.0582956,91.9571304 34.4309834,94.0150333 C33.4205755,97.3296847 39.3564336,101.992744 39.8305518,97.6829725 C39.8305518,96.6890145 38.933949,93.471596 39.0815702,91.1990896 C39.4487368,85.5468606 41.3721903,78.3603877 43.7279339,71.7560504 C47.8236303,60.2737475 47.5126219,58.2452707 49.5169632,55.8486507 C54.33803,50.0850455 80.6038691,35.4572891 79.6402669,31.6148857 C78.6766647,27.7714674 68.3598582,23.9773729 63.4410783,25.9213328 Z" id="Fill-27-Copy" stroke="#1C3C55" transform="translate(56.990780, 62.407986) scale(-1, -1) rotate(92.000000) translate(-56.990780, -62.407986) "></path>
                        </g>
                        <g id="Group-2" transform="translate(244.000000, 194.500000) scale(-1, 1) translate(-244.000000, -194.500000) translate(194.000000, 135.000000)">
                            <g id="portfel">
                                <path d="M4.43497639,53.5179517 L4.43497639,38.0373748 L83,37.2786281 C88.881851,37.2005963 93.1543246,37.935616 95.8174208,39.483687 C98.480517,41.0317581 99.6498982,43.5929491 99.3255643,47.16726" id="Path-97" stroke="#1C3C55" fill="#FFFFFF"></path>
                                <circle id="Oval-3" stroke="#FF9500" fill="#FFFFFF" cx="57.5" cy="38.5" r="38.5"></circle>
                                <path d="M78.3571718,28.1538462 C78.8762026,32.8695913 76.6403775,35.7061298 73.1269382,37.3016827 C78.9560535,38.5426683 82.6291946,41.6274038 81.9105365,48.5414663 C80.9922513,57.1574519 73.8056708,59.4621394 63.5049054,59.9585337 L63.5049054,69 L57.3563866,69 L57.3563866,60.1003606 C55.7992941,60.1003606 54.1623508,60.1003606 52.485482,60.0649038 L52.485482,69 L46.3369632,69 L46.3369632,59.9585337 C44.8996471,59.9585337 43.462331,59.9230769 41.9850894,59.9230769 L34,59.9230769 L35.2376889,53.4344952 C39.7492644,53.5054087 39.6694135,53.4344952 39.6694135,53.4344952 C41.3862077,53.4344952 41.8653131,52.3353365 41.9850894,51.6262019 L41.9850894,37.3725962 L42.6238966,37.3725962 C42.3843439,37.3371394 42.1447912,37.3371394 41.9850894,37.3371394 L41.9850894,27.1610577 C41.7455367,26.0264423 40.9470278,24.75 38.4317246,24.75 C38.4317246,24.75 38.5115755,24.6790865 34,24.75 L34,18.9350962 L42.4641948,18.9705529 C43.7018837,18.9705529 45.0194234,18.9705529 46.3369632,18.9350962 L46.3369632,10 L52.485482,10 L52.485482,18.7578125 C54.1224253,18.7223558 55.7593687,18.686899 57.3563866,18.686899 L57.3563866,10 L63.5049054,10 L63.5049054,18.9350962 C71.410144,19.5378606 77.6784392,21.7007212 78.3571718,28.1538462 Z M70,47.0126493 C70,40.0297504 57.1116279,41.0524982 53,41.0524982 L53,52.9728004 C57.1116279,52.9728004 70,53.748678 70,47.0126493 Z M67,30.5306078 C67,24.0899723 56.3927577,25.0507301 53,25.0507301 L53,35.9749019 C56.3927577,35.9749019 67,36.6865743 67,30.5306078 Z" id="btc---FontAwesome-Copy" fill="#F7931A" transform="translate(58.000000, 39.500000) scale(-1, 1) translate(-58.000000, -39.500000) "></path>
                                <path d="M0.24059794,55.106261 L0.973115788,110.249959 C1.03125167,114.626409 4.59557393,118.143698 8.97241004,118.143698 L91,118.143698 C95.418278,118.143698 99,114.561976 99,110.143698 L99,47 L8.2398922,47 C3.8216142,47 0.239892196,50.581722 0.239892196,55 C0.239892196,55.0354215 0.240127449,55.0708426 0.24059794,55.106261 Z" id="Path-96" stroke="#1C3C55" fill="#FFFFFF"></path>
                                <g id="Group-3" transform="translate(15.000000, 80.000000) rotate(180.000000) translate(-15.000000, -80.000000) translate(0.000000, 72.000000)" stroke="#1C3C55">
                                    <path d="M0.5,0.5 L0.5,15.5 L24.7662232,15.5 C27.2515045,15.5 29.2662232,13.4852814 29.2662232,11 L29.2662232,5 C29.2662232,2.51471863 27.2515045,0.5 24.7662232,0.5 L0.5,0.5 Z" id="Rectangle-9" transform="translate(14.883112, 8.000000) rotate(180.000000) translate(-14.883112, -8.000000) "></path>
                                    <circle id="Oval" cx="8" cy="8" r="4"></circle>
                                </g>
                            </g>
                        </g>
                    </g>
                </g>
            </g>
        </g>
    </g>
</svg>