<?xml version="1.0" encoding="UTF-8"?>
<svg width="56px" height="44px" viewBox="0 0 56 44" version="1.1" xmlns="http://www.w3.org/2000/svg" xmlns:xlink="http://www.w3.org/1999/xlink">
    <!-- Generator: Sketch 55.1 (78136) - https://sketchapp.com -->
    <title>Group 11</title>
    <desc>Created with Sketch.</desc>
    <g id="Flow-2" stroke="none" stroke-width="1" fill="none" fill-rule="evenodd">
        <g id="Bitcoin.org---Wallet-Flow-2.03---Desktop" transform="translate(-859.000000, -638.000000)">
            <g id="//Content" transform="translate(148.000000, 438.000000)">
                <g id="Advance" transform="translate(540.000000, 178.000000)">
                    <g id="Group-2-Copy-2" transform="translate(65.000000, 22.000000)">
                        <g id="Group-11" transform="translate(107.000000, 0.000000)">
                            <g id="trees" transform="translate(13.000000, 0.000000)" fill="#1C1F30" fill-rule="nonzero">
                                <path d="M41.9128571,19.5598628 C41.9136424,17.7178004 41.1058628,15.9682952 39.7033597,14.7741331 C40.237921,13.9021746 40.5192599,12.8986279 40.5157672,11.8758711 C40.5120998,9.04222453 38.3910561,6.65835343 35.5770561,6.32523493 C35.6097131,6.08118087 35.6261289,5.83520582 35.6259543,5.58896881 C35.6332017,2.50952183 33.1427152,0.00733471933 30.0632682,4.5771103e-05 C28.2512432,-0.00419126819 26.5501123,0.87239501 25.5019459,2.35051559 C23.7231019,-0.159879418 20.2460083,-0.752856549 17.7356133,1.02598753 C17.2225322,1.38958004 16.7746778,1.83743451 16.4110852,2.35051559 C14.6223742,-0.159006237 11.1380333,-0.743338877 8.62851143,1.04528482 C6.9454553,2.24486071 6.06336798,4.27649064 6.33597505,6.32523493 C3.52197505,6.65835343 1.40093139,9.04222453 1.39726403,11.8758711 C1.39377131,12.8986279 1.67511019,13.9021746 2.20967152,14.7741331 C-0.433010395,17.0262412 -0.74962578,20.9943243 1.50248233,23.6370062 C1.71903119,23.8911892 1.95557588,24.1276466 2.20967152,24.3441954 C1.67484823,25.2165904 1.39350936,26.2205738 1.39726403,27.2438545 C1.40075676,30.3288025 3.9006736,32.8287193 6.98562162,32.8322121 L11.1768898,32.8322121 L11.1768898,40.5162037 L9.08125572,40.5162037 C8.69548441,40.5162037 8.38271102,40.8289771 8.38271102,41.2147484 C8.38271102,41.6005198 8.69548441,41.9132931 9.08125572,41.9132931 L32.8317755,41.9132931 C33.2175468,41.9132931 33.5303202,41.6005198 33.5303202,41.2147484 C33.5303202,40.8289771 33.2175468,40.5162037 32.8317755,40.5162037 L30.7361414,40.5162037 L30.7361414,32.8322121 L34.9274096,32.8322121 C38.0123576,32.8287193 40.5122744,30.3288025 40.5157672,27.2438545 C40.5192599,26.2210977 40.237921,25.2175509 39.7033597,24.3455925 C41.1058628,23.1514304 41.9135551,21.4018378 41.9128571,19.5598628 Z M6.98562162,31.4288358 C4.67422453,31.4265655 2.80011642,29.5552516 2.79435343,27.2438545 C2.79164657,26.2938337 3.11542204,25.3717547 3.71154262,24.6319958 C3.95227859,24.3305738 3.9031185,23.8910146 3.60169647,23.6501913 C3.58711435,23.6384906 3.57200832,23.6274012 3.5564657,23.6170104 C1.31579626,22.1095509 0.721334719,19.0711435 2.22870686,16.8303867 C2.58138462,16.3062162 3.0322079,15.8553056 3.5564657,15.5027152 C3.87622453,15.2869522 3.9605738,14.8527193 3.74472349,14.5329605 C3.73424532,14.5174179 3.72315593,14.5023992 3.71154262,14.4877297 C3.11542204,13.7479709 2.79164657,12.8258919 2.79435343,11.8758711 C2.7966237,9.56202911 4.67177963,7.68687318 6.98562162,7.68460291 L7.1665447,7.69438254 C7.39243659,7.70564657 7.6092474,7.60444491 7.74563825,7.42404574 C7.88447401,7.24591684 7.92795842,7.01138046 7.86229522,6.79535551 C7.20793347,4.57503119 8.47745114,2.24459875 10.6978628,1.59023701 C12.6716881,1.00852391 14.7757921,1.94579626 15.6636424,3.80209148 C15.6636424,3.80907692 15.6636424,3.81606237 15.6587526,3.82304782 C15.5716965,4.08491476 15.5043742,4.35298129 15.4575717,4.62497713 C15.4491892,4.67177963 15.4429023,4.71928067 15.4359168,4.76468607 C15.3523534,5.28038669 15.3459792,5.80560499 15.4170561,6.32313929 C12.6022703,6.65643243 10.4809647,9.04135135 10.4783451,11.8758711 C10.4748524,12.8986279 10.7561913,13.9021746 11.2907526,14.7741331 C11.2781788,14.7853098 11.2677006,14.797185 11.2551268,14.8083617 L8.00340125,11.5566362 C7.72590437,11.288657 7.28363825,11.296341 7.01565904,11.5738378 C6.75422869,11.8445239 6.75422869,12.2736923 7.01565904,12.5443784 L10.3072017,15.835921 C8.34926819,18.4905655 8.77887318,22.2075218 11.2907526,24.3455925 C11.0212017,24.7852391 10.815131,25.2606861 10.6788274,25.7580499 L8.17803742,23.2572599 C7.90054054,22.9891933 7.45836175,22.9968773 7.19029522,23.2743742 C6.92886486,23.5450603 6.92886486,23.9742287 7.19029522,24.2450021 L10.4937131,27.54842 C10.4993015,27.6455177 10.5006985,27.7433139 10.5111767,27.838316 C10.5181622,27.9039792 10.5314345,27.9668482 10.5405156,28.0311143 C10.5586778,28.1603451 10.5768399,28.2888773 10.6040832,28.4153139 C10.6201497,28.4907568 10.6425031,28.5634054 10.6613638,28.6374511 C10.6900042,28.7492183 10.7186445,28.861684 10.7542703,28.970657 C10.7794179,29.0481954 10.8094553,29.1222412 10.8380956,29.1983825 C10.8765156,29.3003701 10.9149356,29.4030561 10.9596424,29.5022495 C10.9931726,29.5776923 11.0294969,29.6510395 11.0665198,29.7243867 C11.1140208,29.8200873 11.1629189,29.9143909 11.2153098,30.0038046 C11.2565239,30.073659 11.3005322,30.1435135 11.3452391,30.213368 C11.4011227,30.3020832 11.4584033,30.3887027 11.5191767,30.4732266 C11.5673763,30.5430811 11.6176715,30.6080457 11.6693638,30.6737089 C11.7329314,30.7561372 11.7992931,30.8350728 11.8677505,30.9133098 C11.9229356,30.9761788 11.9788191,31.0383493 12.0360998,31.0984241 C12.1059543,31.1738669 12.1834927,31.245817 12.2603326,31.3170686 C12.2987526,31.3533929 12.3343784,31.3939085 12.3741954,31.4288358 L6.98562162,31.4288358 L6.98562162,31.4288358 Z M20.2579709,40.5162037 L12.5739792,40.5162037 L12.5739792,32.8322121 L20.2579709,32.8322121 L20.2579709,40.5162037 Z M20.9565156,9.08169231 C20.5707443,9.08169231 20.2579709,9.3944657 20.2579709,9.78023701 L20.2579709,14.7301247 L17.0844823,11.5566362 C16.8069854,11.288657 16.3647193,11.296341 16.0967401,11.5738378 C15.8353098,11.8445239 15.8353098,12.2736923 16.0967401,12.5443784 L20.2579709,16.7056091 L20.2579709,26.2561123 L17.2591185,23.2572599 C16.9816216,22.9891933 16.5394428,22.9968773 16.2713763,23.2743742 C16.0099459,23.5450603 16.0099459,23.9742287 16.2713763,24.2450021 L20.2579709,28.2315967 L20.2579709,31.4351227 L16.0667027,31.4351227 C13.7528607,31.4328524 11.8777048,29.5576965 11.8754345,27.2438545 C11.8727277,26.2938337 12.1965031,25.3717547 12.7926237,24.6319958 C13.0333597,24.3305738 12.9841996,23.8910146 12.6827775,23.6501913 C12.6681954,23.6384906 12.6530894,23.6274012 12.6375468,23.6170104 C10.3968773,22.1095509 9.8024158,19.0711435 11.3097879,16.8303867 C11.6624657,16.3062162 12.113289,15.8553056 12.6375468,15.5027152 C12.9573056,15.2869522 13.0416549,14.8527193 12.8258046,14.5329605 C12.8153264,14.5174179 12.804237,14.5023992 12.7926237,14.4877297 C12.1965031,13.7479709 11.8727277,12.8258919 11.8754345,11.8758711 C11.8777048,9.56202911 13.7528607,7.68687318 16.0667027,7.68460291 L16.2476258,7.69438254 C16.4737796,7.70695634 16.6911143,7.60549272 16.8267193,7.42404574 C16.9655551,7.24591684 17.0090395,7.01138046 16.9433763,6.79535551 C16.8256715,6.40399584 16.7655967,5.99761746 16.7652474,5.58896881 C16.7655967,5.3311185 16.7902204,5.07387942 16.8385946,4.82056965 C16.8385946,4.81079002 16.8385946,4.80031185 16.8427859,4.79053222 C16.8934304,4.53835759 16.9666029,4.2912474 17.0614304,4.05217048 C17.6921289,2.45189189 19.2364366,1.39944699 20.9565156,1.39770062 C22.6765946,1.39944699 24.2209023,2.45189189 24.8516008,4.05217048 C24.9466902,4.29281913 25.0198628,4.54158836 25.0702453,4.79542204 C25.0702453,4.80520166 25.0702453,4.81567983 25.0744366,4.82545946 C25.1225489,5.07711019 25.1470852,5.33277755 25.1477838,5.58896881 C25.1474345,5.99761746 25.0873597,6.40399584 24.9696549,6.79535551 C24.9039917,7.01138046 24.9474761,7.24591684 25.0863119,7.42404574 C25.2224407,7.60479418 25.4394262,7.70608316 25.6654054,7.69438254 L25.8463285,7.68460291 C28.1601705,7.68687318 30.0353264,9.56202911 30.0375967,11.8758711 C30.0403035,12.8258919 29.7165281,13.7479709 29.1204075,14.4877297 C28.8796715,14.7891518 28.9288316,15.228711 29.2302536,15.4695343 C29.2448358,15.4812349 29.2599418,15.4923243 29.2754844,15.5027152 C31.5161538,17.0101746 32.1106154,20.0485821 30.6031559,22.2893389 C30.2504782,22.8135094 29.7996549,23.26442 29.2754844,23.6170104 C28.9557256,23.8327734 28.8713763,24.2670062 29.0872266,24.5867651 C29.0977048,24.6023077 29.1087942,24.6173264 29.1204075,24.6319958 C29.7165281,25.3717547 30.0403035,26.2938337 30.0375967,27.2438545 C30.0353264,29.5576965 28.1601705,31.4328524 25.8463285,31.4351227 L21.6550603,31.4351227 L21.6550603,21.8964948 C21.7071892,21.870736 21.7558254,21.838341 21.799659,21.8000956 L26.3401996,17.2595551 C26.6082661,16.9820582 26.6005821,16.5398794 26.3230852,16.2718129 C26.0523992,16.0103825 25.6232308,16.0103825 25.3524574,16.2718129 L21.6550603,19.96921 L21.6550603,9.78023701 C21.6550603,9.39437838 21.3422869,9.08169231 20.9565156,9.08169231 Z M29.339052,40.5162037 L21.6550603,40.5162037 L21.6550603,32.8322121 L29.339052,32.8322121 L29.339052,40.5162037 Z M38.1682204,24.5867651 C38.1786985,24.6023077 38.1897879,24.6173264 38.2014012,24.6319958 C38.7975218,25.3717547 39.1212973,26.2938337 39.1185904,27.2438545 C39.1163202,29.5576965 37.2411642,31.4328524 34.9273222,31.4351227 L29.5388358,31.4351227 C29.5786528,31.4001954 29.6142786,31.3596798 29.6526985,31.3233555 C29.7295385,31.253501 29.8042827,31.1801538 29.8769314,31.104711 C29.9342121,31.0446362 29.9900956,30.9824657 30.0452807,30.9195967 C30.1151351,30.8413597 30.1800998,30.7624241 30.2436674,30.6799958 C30.2953597,30.6143326 30.3456549,30.5479709 30.3938545,30.4795135 C30.4546279,30.3949896 30.5119085,30.3083701 30.5677921,30.2196549 C30.612499,30.1498004 30.6565073,30.0799459 30.6977214,30.0100915 C30.7501123,29.9178836 30.7990104,29.82358 30.8465114,29.7306736 C30.8828358,29.6573264 30.9163659,29.5839792 30.9533888,29.5085364 C30.9980956,29.409343 31.0365156,29.306657 31.0749356,29.2046694 C31.1035759,29.1285281 31.1336133,29.0544823 31.1587609,28.9769439 C31.1943867,28.8679709 31.223027,28.7555052 31.2516674,28.643738 C31.2705281,28.5696923 31.2928815,28.4970437 31.308948,28.4216008 C31.3361913,28.2951642 31.3543534,28.166632 31.3725156,28.0374012 C31.3815967,27.9731351 31.394869,27.9102661 31.4018545,27.8446029 C31.4235967,27.6450811 31.4345988,27.4445114 31.4346861,27.2438545 C31.4381788,26.2210977 31.1568399,25.2175509 30.6222786,24.3455925 C31.9406944,23.2194511 32.7344158,21.5978669 32.8150104,19.8658254 L35.4212807,17.2595551 C35.6893472,16.9820582 35.6816632,16.5398794 35.4041663,16.2718129 C35.1334802,16.0103825 34.7043119,16.0103825 34.4335385,16.2718129 L32.6445655,18.0607859 C32.3317921,16.7813139 31.6242536,15.6326445 30.6222786,14.7776258 C31.1574511,13.9047069 31.43879,12.8998503 31.4346861,11.8758711 C31.4310187,9.04222453 29.3099751,6.65835343 26.4959751,6.32523493 C26.5663534,5.80761331 26.5592807,5.28230769 26.4750187,4.7667817 C26.4680333,4.71928067 26.4617464,4.67177963 26.4533638,4.62707277 C26.4065613,4.35507692 26.3392391,4.0870104 26.252183,3.82514345 C26.252183,3.818158 26.252183,3.81117256 26.2472931,3.80418711 C27.2461247,1.71597505 29.7485738,0.832839917 31.8367859,1.83167152 C33.6930811,2.71952183 34.6302661,4.8237131 34.0486403,6.79745114 C33.9829771,7.01347609 34.0264615,7.24801247 34.1652973,7.42614137 C34.3016881,7.60654054 34.518499,7.7077422 34.7443909,7.69647817 L34.9274096,7.68460291 C37.2412516,7.68687318 39.1164075,9.56202911 39.1186778,11.8758711 C39.1213846,12.8258919 38.7976091,13.7479709 38.2014886,14.4877297 C37.9607526,14.7891518 38.0099127,15.228711 38.3113347,15.4695343 C38.3259168,15.4812349 38.3410229,15.4923243 38.3565655,15.5027152 C40.5972349,17.0101746 41.1916965,20.0485821 39.684237,22.2893389 C39.3315593,22.8135094 38.880736,23.26442 38.3565655,23.6170104 C38.0367193,23.8327734 37.9524574,24.2670062 38.1682204,24.5867651 Z" id="Shape"></path>
                            </g>
                            <g id="Group-7" transform="translate(10.000000, 33.000000) scale(-1, 1) translate(-10.000000, -33.000000) translate(0.000000, 23.000000)">
                                <circle id="Oval-3" stroke="#FF9500" fill="#FFFFFF" cx="10.1323529" cy="9.86764706" r="9.86764706"></circle>
                                <path d="M13.3133053,7.42210738 C13.4111457,8.31105325 12.9896795,8.84575753 12.3273754,9.14652868 C13.4261981,9.38046181 14.1186069,9.96195271 13.9831356,11.2652944 C13.8100334,12.8894586 12.4553205,13.3239059 10.5135653,13.4174791 L10.5135653,15.121849 L9.35453309,15.121849 L9.35453309,13.4442143 C9.06101196,13.4442143 8.75243846,13.4442143 8.43633877,13.4375305 L8.43633877,15.121849 L7.2773066,15.121849 L7.2773066,13.4174791 C7.00636401,13.4174791 6.73542143,13.4107953 6.45695266,13.4107953 L4.95171607,13.4107953 L5.18502774,12.1876593 C6.03548641,12.2010269 6.02043405,12.1876593 6.02043405,12.1876593 C6.34405991,12.1876593 6.43437411,11.9804614 6.45695266,11.8467853 L6.45695266,9.15989629 L6.57737159,9.15989629 C6.53221449,9.15321249 6.48705739,9.15321249 6.45695266,9.15321249 L6.45695266,7.23496089 C6.41179556,7.02107918 6.2612719,6.78046225 5.78712238,6.78046225 C5.78712238,6.78046225 5.80217474,6.76709464 4.95171607,6.78046225 L4.95171607,5.68431848 L6.54726685,5.69100228 C6.78057853,5.69100228 7.02894256,5.69100228 7.2773066,5.68431848 L7.2773066,4 L8.43633877,4 L8.43633877,5.65089946 C8.74491228,5.64421566 9.05348578,5.63753185 9.35453309,5.63753185 L9.35453309,4 L10.5135653,4 L10.5135653,5.68431848 C12.0037495,5.79794314 13.1853602,6.20565515 13.3133053,7.42210738 Z M11.737929,10.9771033 C11.737929,9.66078559 9.30839464,9.8535796 8.53332846,9.8535796 L8.53332846,12.1006271 C9.30839464,12.1006271 11.737929,12.2468846 11.737929,10.9771033 Z M11.1724113,7.87014102 C11.1724113,6.65604313 9.17288335,6.83715165 8.53332846,6.83715165 L8.53332846,8.89642266 C9.17288335,8.89642266 11.1724113,9.03057712 11.1724113,7.87014102 Z" id="btc---FontAwesome-Copy" fill="#F7931A" transform="translate(9.475858, 9.560924) scale(-1, 1) translate(-9.475858, -9.560924) "></path>
                            </g>
                        </g>
                    </g>
                </g>
            </g>
        </g>
    </g>
</svg>