<?xml version="1.0" encoding="UTF-8"?>
<svg width="57px" height="38px" viewBox="0 0 57 38" version="1.1" xmlns="http://www.w3.org/2000/svg" xmlns:xlink="http://www.w3.org/1999/xlink">
    <!-- Generator: Sketch 49 (51002) - http://www.bohemiancoding.com/sketch -->
    <title>Trust and integrity icon</title>
    <desc>Created with Sketch.</desc>
    <defs></defs>
    <g id="Innovation" stroke="none" stroke-width="1" fill="none" fill-rule="evenodd">
        <g id="22.01.18-Bitcoin.org_Innovation_Desktop-1200px--" transform="translate(-1169.000000, -1909.000000)">
            <g id="//contenct" transform="translate(215.000000, 697.000000)">
                <g id="box9" transform="translate(798.000000, 1170.000000)">
                    <g id="Group" transform="translate(154.000000, 30.000000)">
                        <g>
                            <rect id="Rectangle-2" x="4" y="0" width="60" height="60"></rect>
                            <g id="Group-3" transform="translate(0.000000, 10.000000)">
                                <path d="M33.2550997,18.2434283 L29.8566315,14.8450859 C30.5780424,14.6680074 31.2636316,14.3031864 31.8266613,13.7397947 C32.649959,12.9169103 33.0634673,11.8340411 33.0631938,10.7557109 C33.0635767,9.67732601 32.649959,8.594238 31.8270442,7.77162706 C31.0040746,6.94797705 29.9208918,6.53486688 28.842467,6.53519501 C27.7637688,6.53481219 26.6809142,6.94841455 25.8582728,7.77162706 C25.2949696,8.33425313 24.9300257,9.01981694 24.7526672,9.74092769 L21.3548553,6.3432962 C20.9917708,5.98049864 20.5115412,5.79860766 20.0368899,5.79899048 C19.5619105,5.79860766 19.0810793,5.98055332 18.7185417,6.3432962 L13.7208394,11.3418526 C13.5185424,11.5441421 13.5185424,11.871338 13.7208394,12.0736275 L14.3194174,12.6725114 C14.4419768,12.7950663 14.6166555,12.8482227 14.7867949,12.8143711 C14.9486762,12.7822148 15.1130186,12.7660272 15.277689,12.7660272 C15.9218235,12.7667382 16.5607624,13.010098 17.05368,13.5015755 C17.5445741,13.9927249 17.7878883,14.6317495 17.7885993,15.2758055 C17.787943,15.9209004 17.5445195,16.5612923 17.0530238,17.0530979 C16.5614734,17.5442473 15.9218235,17.7879899 15.2769781,17.7883181 C14.6325155,17.7879353 13.9925374,17.5442473 13.5013152,17.0530979 C13.0094367,16.5608548 12.7660678,15.9219395 12.7657397,15.2775008 C12.7653569,15.1125083 12.7815997,14.9485001 12.8140306,14.7877186 C12.8478288,14.6179136 12.7943971,14.4422023 12.6724939,14.3199755 L12.0732596,13.7210915 C11.8710174,13.5191302 11.5433718,13.5191302 11.3410749,13.7214744 L6.34304438,18.7194839 C5.98023338,19.0818987 5.79833567,19.562384 5.79899195,20.0374005 C5.79828098,20.5120342 5.98023338,20.9929023 6.34331782,21.3553171 L9.74102039,24.7528939 C9.0196095,24.9303551 8.33434845,25.2951762 7.77099058,25.8588413 C6.94807574,26.6810147 6.53445808,27.7642121 6.53522373,28.842597 C6.53451277,29.920599 6.94769291,31.0040699 7.77137341,31.8270636 C8.59428826,32.6503308 9.67752573,33.0634957 10.756224,33.0627847 C11.8342659,33.063441 12.9171206,32.6495652 13.7394338,31.8266808 C14.302737,31.2633985 14.6679544,30.5778347 14.8450394,29.8567239 L18.2427419,33.2546835 C18.6059358,33.6174811 19.086056,33.7993721 19.5610901,33.7989893 C20.0360696,33.7993721 20.5162445,33.6174264 20.8786727,33.254957 L25.8767579,28.2570568 C26.0787267,28.054822 26.0787267,27.7271886 25.8767579,27.5248992 L25.2781799,26.9260152 C25.1560032,26.8038431 24.9813246,26.7506867 24.8111304,26.7841556 C24.6492491,26.8165853 24.4845787,26.8324447 24.3195801,26.8324447 C23.6751175,26.8317885 23.0357957,26.5887567 22.5442453,26.0975527 C22.0526949,25.6056924 21.8093261,24.9663943 21.808998,24.3216274 C21.8093808,23.6771887 22.0530778,23.0372343 22.5442453,22.5453193 C23.0357957,22.05417 23.6754456,21.8107554 24.3206192,21.8100992 C24.9650817,21.8107554 25.6047863,22.0544981 26.0966648,22.5456475 C26.5878324,23.0375078 26.8312559,23.6768059 26.8315841,24.3212446 C26.8319669,24.4855262 26.8153413,24.6502452 26.7832384,24.8134877 C26.7500965,24.9832927 26.8029267,25.1565978 26.9254862,25.279098 L27.5240642,25.877982 C27.6200445,25.9742868 27.7536512,26.0295213 27.8903206,26.0295213 C28.0266618,26.0295213 28.1598858,25.9743415 28.256577,25.877982 L33.2549357,20.8794255 C33.6181295,20.516628 33.7996444,20.0361427 33.7989881,19.561509 C33.7994256,19.0863284 33.6175279,18.6058978 33.2550997,18.2434283 Z M32.5579075,20.1478037 L27.9132406,24.7920926 L27.863719,24.7425715 C27.8792939,24.6065667 27.8900428,24.469849 27.8900428,24.3323636 C27.8904267,23.424093 27.5418011,22.5109415 26.8484436,21.8176462 C26.1550862,21.1243509 25.2415961,20.7754 24.333316,20.7757838 C23.4246519,20.7754 22.5112167,21.1240219 21.8178592,21.817372 C21.1241727,22.5110512 20.775602,23.4245317 20.7759859,24.3331862 C20.775602,25.2414568 21.1242276,26.1549921 21.8178592,26.8482874 C22.5108876,27.5416375 23.4243229,27.8901498 24.3323288,27.8894917 C24.4694318,27.8894917 24.606151,27.8794558 24.7428153,27.8635521 L24.7923369,27.9130732 L20.1476701,32.557362 C19.9863821,32.7186483 19.7762854,32.7982769 19.5605949,32.7989899 C19.3445754,32.7982769 19.1344787,32.7187032 18.9728068,32.557362 L14.8054779,28.389748 C14.6555968,28.2398685 14.4312963,28.1959412 14.2360616,28.2786408 C14.0412107,28.3606824 13.9162276,28.5524601 13.9189697,28.7639256 C13.9196826,28.8041238 13.9203407,28.8393863 13.9203407,28.8687809 C13.9196826,29.688429 13.6119137,30.5012221 12.9881498,31.1256376 C12.3633438,31.7501079 11.5495551,32.0606156 10.7312693,32.0608898 C9.91161258,32.0605059 9.09711089,31.750766 8.47225011,31.1259118 C7.84711513,30.5007834 7.53764617,29.6866193 7.53698807,28.8676841 C7.53764617,28.0486941 7.84788291,27.23453 8.47197591,26.6101145 C9.09645279,25.9856442 9.90881568,25.6786463 10.7288563,25.6779334 C10.761103,25.6779334 10.7936238,25.6785915 10.8257608,25.6796883 C11.0386543,25.6858853 11.23356,25.5620003 11.3180155,25.3663837 C11.4024709,25.1707672 11.3588722,24.944056 11.2086073,24.7935185 L7.04062026,20.6259044 C6.87933225,20.4642342 6.79970281,20.2541397 6.79898987,20.0385063 C6.79964797,19.8224891 6.87927741,19.6123946 7.04023637,19.4511083 L11.6852322,14.8064904 L11.73437,14.8556276 C11.7187951,14.9923453 11.7080462,15.1291178 11.7080462,15.2661097 C11.7076623,16.1743803 12.0566169,17.0875318 12.7499195,17.7808271 C13.4429479,18.4741772 14.3563832,18.8230733 15.2650472,18.8224153 C16.1737113,18.8230733 17.0871465,18.4741772 17.7801749,17.7808271 C18.4741905,17.0868188 18.8227612,16.1726254 18.8220483,15.263971 C18.8227064,14.3557004 18.4734775,13.4432619 17.780833,12.7506247 C17.0868175,12.0569455 16.1736564,11.7080493 15.2657053,11.7087623 C15.1286023,11.7087623 14.9918832,11.7191271 14.8552189,11.7350858 L14.8056972,11.6855647 L19.4506931,7.04061771 C19.6119811,6.87966045 19.8220778,6.7997028 20.0380973,6.79898987 C20.2534588,6.79964796 20.4638297,6.87927656 20.6255016,7.04094676 L24.7931595,11.2085608 C24.9440277,11.3594823 25.1739221,11.4027515 25.3688277,11.3169259 C25.5640624,11.2314294 25.6879487,11.0334547 25.6793387,10.8202343 C25.6779676,10.7922107 25.6773095,10.7617193 25.6773095,10.7288698 C25.6783515,9.9095507 25.9857365,9.09681249 26.6095005,8.47234218 C27.2343064,7.84787186 28.0484791,7.53736419 28.8674229,7.53708998 C29.6860925,7.53747387 30.5005942,7.84721377 31.1253453,8.47234218 C31.7500964,9.09747058 32.0603331,9.9113056 32.0606073,10.7302408 C32.0602234,11.5489018 31.7500964,12.3633949 31.1253453,12.9881394 C30.5005394,13.6119517 29.6881216,13.9189495 28.8684649,13.9196076 C28.835944,13.9196076 28.8036974,13.9192237 28.7718895,13.9182366 C28.5589959,13.9120396 28.3640902,14.0359246 28.2796348,14.2315412 C28.1951793,14.4271577 28.238449,14.6538689 28.389043,14.8044064 L32.55703,18.9723496 C32.718318,19.1336359 32.7982765,19.3437303 32.7989894,19.5597476 C32.7992088,19.7760391 32.7192503,19.9861335 32.5579075,20.1478037 Z" id="Shape" fill="#95AABF" fill-rule="nonzero" transform="translate(19.798990, 19.798990) rotate(45.000000) translate(-19.798990, -19.798990) "></path>
                                <path d="M61.2520843,18.2404128 L57.853616,14.8420704 C58.5750269,14.6649919 59.2606161,14.3001709 59.8236458,13.7367792 C60.6469435,12.9138948 61.0604518,11.8310256 61.0601784,10.7526954 C61.0605612,9.67431053 60.6469435,8.59122252 59.8240287,7.76861157 C59.0010591,6.94496156 57.9178764,6.5318514 56.8394516,6.53217953 C55.7607533,6.53179671 54.6778987,6.94539906 53.8552573,7.76861157 C53.2919541,8.33123765 52.9270102,9.01680146 52.7496517,9.73791221 L49.3518398,6.34028072 C48.9887553,5.97748315 48.5085257,5.79559218 48.0338744,5.79597499 C47.558895,5.79559218 47.0780638,5.97753784 46.7155262,6.34028072 L41.7178239,11.3388371 C41.515527,11.5411266 41.515527,11.8683225 41.7178239,12.070612 L42.3164019,12.6694959 C42.4389613,12.7920509 42.61364,12.8452072 42.7837794,12.8113556 C42.9456607,12.7791993 43.1100031,12.7630117 43.2746736,12.7630117 C43.918808,12.7637227 44.5577469,13.0070825 45.0506646,13.49856 C45.5415587,13.9897094 45.7848728,14.6287341 45.7855838,15.27279 C45.7849275,15.917885 45.541504,16.5582768 45.0500083,17.0500824 C44.5584579,17.5412318 43.918808,17.7849745 43.2739626,17.7853026 C42.6295,17.7849198 41.989522,17.5412318 41.4982997,17.0500824 C41.0064212,16.5578393 40.7630523,15.918924 40.7627242,15.2744853 C40.7623414,15.1094928 40.7785842,14.9454847 40.8110152,14.7847031 C40.8448133,14.6148981 40.7913816,14.4391868 40.6694784,14.31696 L40.0702441,13.7180761 C39.8680019,13.5161147 39.5403563,13.5161147 39.3380594,13.7184589 L34.3400289,18.7164684 C33.9772179,19.0788832 33.7953202,19.5593685 33.7959765,20.034385 C33.7952655,20.5090187 33.9772179,20.9898868 34.3403023,21.3523016 L37.7380049,24.7498784 C37.016594,24.9273397 36.331333,25.2921607 35.7679751,25.8558258 C34.9450603,26.6779993 34.5314426,27.7611966 34.5322082,28.8395815 C34.5314973,29.9175836 34.9446774,31.0010544 35.7683579,31.8240481 C36.5912728,32.6473153 37.6745103,33.0604802 38.7532085,33.0597693 C39.8312505,33.0604255 40.9141051,32.6465497 41.7364184,31.8236653 C42.2997215,31.260383 42.6649389,30.5748192 42.8420239,29.8537084 L46.2397265,33.2516681 C46.6029203,33.6144656 47.0830405,33.7963566 47.5580747,33.7959738 C48.0330541,33.7963566 48.513229,33.6144109 48.8756572,33.2519415 L53.8737424,28.2540413 C54.0757112,28.0518066 54.0757112,27.7241731 53.8737424,27.5218837 L53.2751644,26.9229997 C53.1529878,26.8008276 52.9783091,26.7476713 52.808115,26.7811401 C52.6462337,26.8135698 52.4815632,26.8294292 52.3165646,26.8294292 C51.672102,26.828773 51.0327802,26.5857413 50.5412298,26.0945372 C50.0496795,25.6026769 49.8063106,24.9633788 49.8059825,24.3186119 C49.8063653,23.6741732 50.0500623,23.0342189 50.5412298,22.5423039 C51.0327802,22.0511545 51.6724301,21.80774 52.3176037,21.8070837 C52.9620663,21.80774 53.6017708,22.0514826 54.0936494,22.542632 C54.5848169,23.0344923 54.8282405,23.6737904 54.8285686,24.3182291 C54.8289514,24.4825107 54.8123258,24.6472298 54.780223,24.8104723 C54.7470811,24.9802773 54.7999112,25.1535823 54.9224707,25.2760825 L55.5210487,25.8749665 C55.617029,25.9712713 55.7506357,26.0265058 55.8873051,26.0265058 C56.0236464,26.0265058 56.1568703,25.971326 56.2535616,25.8749665 L61.2519202,20.87641 C61.615114,20.5136125 61.7966289,20.0331272 61.7959726,19.5584935 C61.7964101,19.0833129 61.6145124,18.6028823 61.2520843,18.2404128 Z M60.554892,20.1447883 L55.9102251,24.7890771 L55.8607035,24.739556 C55.8762784,24.6035513 55.8870273,24.4668336 55.8870273,24.3293481 C55.8874112,23.4210775 55.5387856,22.5079261 54.8454282,21.8146308 C54.1520707,21.1213354 53.2385806,20.7723845 52.3303005,20.7727684 C51.4216364,20.7723845 50.5082012,21.1210064 49.8148437,21.8143566 C49.1211572,22.5080357 48.7725865,23.4215162 48.7729704,24.3301707 C48.7725865,25.2384413 49.1212121,26.1519766 49.8148437,26.8452719 C50.5078721,27.5386221 51.4213074,27.8871343 52.3293133,27.8864762 C52.4664164,27.8864762 52.6031355,27.8764404 52.7397998,27.8605366 L52.7893214,27.9100577 L48.1446546,32.5543466 C47.9833666,32.7156329 47.7732699,32.7952615 47.5575794,32.7959744 C47.3415599,32.7952615 47.1314632,32.7156877 46.9697913,32.5543466 L42.8024624,28.3867325 C42.6525814,28.236853 42.4282808,28.1929257 42.2330461,28.2756254 C42.0381953,28.3576669 41.9132121,28.5494446 41.9159542,28.7609101 C41.9166671,28.8011083 41.9173252,28.8363708 41.9173252,28.8657654 C41.9166671,29.6854136 41.6088982,30.4982066 40.9851343,31.1226221 C40.3603283,31.7470924 39.5465396,32.0576001 38.7282539,32.0578743 C37.9085971,32.0574904 37.0940954,31.7477505 36.4692346,31.1228963 C35.8440996,30.4977679 35.5346307,29.6836038 35.5339726,28.8646686 C35.5346307,28.0456786 35.8448674,27.2315145 36.4689604,26.607099 C37.0934373,25.9826287 37.9058002,25.6756308 38.7258408,25.6749179 C38.7580875,25.6749179 38.7906083,25.675576 38.8227453,25.6766728 C39.0356389,25.6828698 39.2305445,25.5589848 39.315,25.3633683 C39.3994555,25.1677517 39.3558567,24.9410405 39.2055918,24.790503 L35.0376048,20.6228889 C34.8763168,20.4612187 34.7966873,20.2511242 34.7959744,20.0354909 C34.7966325,19.8194736 34.8762619,19.6093791 35.0372209,19.4480928 L39.6822168,14.8034749 L39.7313545,14.8526121 C39.7157796,14.9893298 39.7050307,15.1261024 39.7050307,15.2630943 C39.7046468,16.1713649 40.0536014,17.0845163 40.7469041,17.7778116 C41.4399325,18.4711617 42.3533677,18.8200579 43.2620318,18.8193998 C44.1706958,18.8200579 45.084131,18.4711617 45.7771594,17.7778116 C46.471175,17.0838034 46.8197457,16.16961 46.8190328,15.2609555 C46.8196909,14.3526849 46.4704621,13.4402464 45.7778175,12.7476092 C45.083802,12.05393 44.170641,11.7050339 43.2626898,11.7057468 C43.1255868,11.7057468 42.9888677,11.7161117 42.8522034,11.7320703 L42.8026818,11.6825492 L47.4476776,7.03760223 C47.6089656,6.87664497 47.8190623,6.79668732 48.0350819,6.79597439 C48.2504433,6.79663248 48.4608142,6.87626108 48.6224861,7.03793127 L52.790144,11.2055453 C52.9410122,11.3564668 53.1709066,11.399736 53.3658122,11.3139104 C53.561047,11.2284139 53.6849333,11.0304392 53.6763232,10.8172188 C53.6749522,10.7891952 53.6742941,10.7587039 53.6742941,10.7258543 C53.6753361,9.90653522 53.982721,9.09379701 54.606485,8.46932669 C55.2312909,7.84485638 56.0454636,7.5343487 56.8644074,7.5340745 C57.683077,7.53445839 58.4975787,7.84419829 59.1223298,8.46932669 C59.7470809,9.09445509 60.0573176,9.90829012 60.0575919,10.7272253 C60.057208,11.5458863 59.7470809,12.3603794 59.1223298,12.985124 C58.4975239,13.6089362 57.6851062,13.9159341 56.8654494,13.9165921 C56.8329286,13.9165921 56.8006819,13.9162083 56.768874,13.9152211 C56.5559804,13.9090241 56.3610748,14.0329091 56.2766193,14.2285257 C56.1921638,14.4241422 56.2354335,14.6508534 56.3860275,14.801391 L60.5540145,18.9693341 C60.7153025,19.1306204 60.795261,19.3407149 60.7959739,19.5567321 C60.7961933,19.7730236 60.7162348,19.9831181 60.554892,20.1447883 Z" id="Shape" fill="#95AABF" fill-rule="nonzero" transform="translate(47.795974, 19.795974) rotate(-44.000000) translate(-47.795974, -19.795974) "></path>
                                <g id="Group-2" transform="translate(22.000000, 17.000000)">
                                    <circle id="Oval" stroke="#1C1F30" fill="#FFFFFF" cx="11" cy="11" r="11"></circle>
                                    <path d="M11,22.5 C4.64872538,22.5 -0.5,17.3512746 -0.5,11 C-0.5,4.64872538 4.64872538,-0.5 11,-0.5 C17.3512746,-0.5 22.5,4.64872538 22.5,11 C22.5,17.3512746 17.3512746,22.5 11,22.5 Z M11,21.5 C16.7989899,21.5 21.5,16.7989899 21.5,11 C21.5,5.20101013 16.7989899,0.5 11,0.5 C5.20101013,0.5 0.5,5.20101013 0.5,11 C0.5,16.7989899 5.20101013,21.5 11,21.5 Z" id="Oval" fill="#1C1F30" fill-rule="nonzero"></path>
                                    <polyline id="Path-4" stroke="#FF9500" stroke-linecap="round" stroke-linejoin="round" points="6 11.7467895 9.97099856 15 17 7"></polyline>
                                </g>
                            </g>
                        </g>
                    </g>
                </g>
            </g>
        </g>
    </g>
</svg>