<?xml version="1.0" encoding="UTF-8"?>
<svg width="27px" height="29px" viewBox="0 0 27 29" version="1.1" xmlns="http://www.w3.org/2000/svg" xmlns:xlink="http://www.w3.org/1999/xlink">
    <!-- Generator: Sketch 49 (51002) - http://www.bohemiancoding.com/sketch -->
    <title>icon/Hardware</title>
    <desc>Created with Sketch.</desc>
    <defs></defs>
    <g id="Choose-Your-wallet" stroke="none" stroke-width="1" fill="none" fill-rule="evenodd">
        <g id="Bitcoin.org--Choose-Your-wallet--Step1-Mobile-320px" transform="translate(-221.000000, -437.000000)" fill-rule="nonzero">
            <g id="//Content" transform="translate(0.000000, 342.000000)">
                <g id="Step-1">
                    <g id="Container" transform="translate(165.000000, 75.000000)">
                        <g id="icon/Hardware" transform="translate(55.000000, 15.000000)">
                            <g id="trezor" transform="translate(17.000000, 17.500000) scale(1, -1) rotate(45.000000) translate(-17.000000, -17.500000) translate(1.000000, 10.000000)">
                                <g id="Icon">
                                    <path d="M26.6954569,8.00087504 L26.3787619,7.05234761 C27.0255546,6.83639601 27.924624,6.83639601 29.0939987,7.03357109 C30.2536955,7.22911435 31.1418081,7.52861407 31.7632457,7.94566853 L31.2059925,8.77601115 C30.7206517,8.45029289 29.9595944,8.19364026 28.9277299,8.01965156 C27.9055431,7.84729469 27.1554426,7.84729469 26.6954569,8.00087504 Z" id="Path-3" fill="#95AABF"></path>
                                    <path d="M2,1 C1.44771525,1 1,1.44771525 1,2 L1,13 C1,13.5522847 1.44771525,14 2,14 L16.8378834,14 C16.9113116,14 16.9845163,13.9919125 17.0561736,13.9758839 L24.2182902,12.3738289 C24.6751765,12.2716305 25,11.866122 25,11.397945 L25,3.60316911 C25,3.13473808 24.6748316,2.72908102 24.217628,2.62713732 L17.0276337,1.02396821 C16.956187,1.00803756 16.883207,1 16.8100057,1 L2,1 Z M2,0 L16.8100057,0 C16.9564083,-2.6893708e-17 17.1023682,0.0160751299 17.2452617,0.047936418 L24.435256,1.65110553 C25.3496631,1.85499293 26,2.66630705 26,3.60316911 L26,11.397945 C26,12.334299 25.3503531,13.145316 24.4365803,13.3497129 L17.2744638,14.9517678 C17.1311492,14.9838251 16.9847397,15 16.8378834,15 L2,15 C0.8954305,15 1.3527075e-16,14.1045695 0,13 L0,2 C-1.3527075e-16,0.8954305 0.8954305,2.02906125e-16 2,0 Z" id="Rectangle-6" fill="#F7931A"></path>
                                    <path d="M26,5 L26,4 L27,5 L26,5 Z M26,5 L25,5 L25,4 L27,4 L27,11 L25,11 L25,10 L26,10 L26,5 Z M26,10 L27,10 L26,11 L26,10 Z M26,10 L27,10 L26,11 L26,10 Z M26,10 L26,5 L25,5 L25,4 L27,4 L27,11 L25,11 L25,10 L26,10 Z M26,5 L26,4 L27,5 L26,5 Z" id="Rectangle-9" fill="#F7931A"></path>
                                    <path d="M15,3 L15,6 L16,6 L16,3 L15,3 Z M15,2 L16,2 C16.5522847,2 17,2.44771525 17,3 L17,6 C17,6.55228475 16.5522847,7 16,7 L15,7 C14.4477153,7 14,6.55228475 14,6 L14,3 C14,2.44771525 14.4477153,2 15,2 Z" id="Rectangle-8" fill="#95AABF"></path>
                                    <path d="M15,9 L15,12 L16,12 L16,9 L15,9 Z M15,8 L16,8 C16.5522847,8 17,8.44771525 17,9 L17,12 C17,12.5522847 16.5522847,13 16,13 L15,13 C14.4477153,13 14,12.5522847 14,12 L14,9 C14,8.44771525 14.4477153,8 15,8 Z" id="Rectangle-8" fill="#95AABF"></path>
                                    <path d="M7,3 L7,12 L12,12 L12,3 L7,3 Z M7,2 L12,2 C12.5522847,2 13,2.44771525 13,3 L13,12 C13,12.5522847 12.5522847,13 12,13 L7,13 C6.44771525,13 6,12.5522847 6,12 L6,3 C6,2.44771525 6.44771525,2 7,2 Z" id="Rectangle-7" fill="#95AABF"></path>
                                </g>
                            </g>
                        </g>
                    </g>
                </g>
            </g>
        </g>
    </g>
</svg>