<?xml version="1.0" encoding="UTF-8"?>
<svg width="12px" height="15px" viewBox="0 0 12 15" version="1.1" xmlns="http://www.w3.org/2000/svg" xmlns:xlink="http://www.w3.org/1999/xlink">
    <!-- Generator: Sketch 49 (51002) - http://www.bohemiancoding.com/sketch -->
    <title>apple - FontAwesome</title>
    <desc>Created with Sketch.</desc>
    <defs></defs>
    <g id="Choose-Your-wallet" stroke="none" stroke-width="1" fill="none" fill-rule="evenodd">
        <g id="Bitcoin.org---Choose-Your-wallet--Desktop" transform="translate(-763.000000, -566.000000)" fill="#5B6A77">
            <g id="//Content" transform="translate(0.000000, 473.000000)">
                <g id="Sub-Tabs" transform="translate(0.000000, 66.000000)">
                    <g id="Tabs" transform="translate(648.000000, 23.000000)">
                        <g id="Mac" transform="translate(115.000000, 0.000000)">
                            <path d="M12,14.8167702 C11.7846375,15.552795 11.4400574,16.3354037 10.9404164,17.1459627 C10.1995693,18.3664596 9.45872218,18.9720497 8.72648959,18.9720497 C8.43359655,18.9720497 8.0373295,18.8695652 7.52045944,18.673913 C7.01220388,18.4689441 6.57286432,18.3757764 6.21966978,18.3757764 C5.87508973,18.3757764 5.46159368,18.4782609 4.99641062,18.6832298 C4.52261307,18.8975155 4.14357502,19 3.85929648,19 C2.97200287,19 2.11916726,18.189441 1.26633166,16.5869565 C0.430725054,14.984472 0,13.4285714 0,11.9006211 C0,10.4751553 0.327351041,9.31987578 0.973438622,8.41614907 C1.6195262,7.52173913 2.4292893,7.07453416 3.41995693,7.07453416 C3.84206748,7.07453416 4.34170854,7.16770186 4.94472362,7.35403727 C5.53912419,7.54037267 5.93539124,7.63354037 6.13352477,7.63354037 C6.3833453,7.63354037 6.79684135,7.5310559 7.36539842,7.31677019 C7.93395549,7.11180124 8.43359655,7 8.85570711,7 C9.54486719,7 10.1564968,7.20496894 10.6905958,7.60559006 C10.9921034,7.82919255 11.2936109,8.14596273 11.5865039,8.53726708 C11.1385499,8.94720497 10.8111989,9.31055901 10.6044508,9.63664596 C10.2340273,10.2142857 10.0445083,10.8571429 10.0445083,11.5652174 C10.0445083,12.3291925 10.2426418,13.0279503 10.6389088,13.6428571 C11.0351759,14.257764 11.4917444,14.6490683 12,14.8167702 Z M9,4.41481481 C9,4.81975309 8.91017964,5.27407407 8.73952096,5.75802469 C8.55988024,6.25185185 8.28143713,6.70617284 7.90419162,7.12098765 C7.58083832,7.47654321 7.25748503,7.71358025 6.93413174,7.83209877 C6.72754491,7.90123457 6.42215569,7.96049383 6,8 C6.01796407,7.02222222 6.25149701,6.17283951 6.7005988,5.4617284 C7.1497006,4.75061728 7.90419162,4.26666667 8.94610778,4 C8.96407186,4.08888889 8.98203593,4.15802469 8.99101796,4.21728395 C8.99101796,4.28641975 9,4.34567901 9,4.41481481 Z" id="apple---FontAwesome"></path>
                        </g>
                    </g>
                </g>
            </g>
        </g>
    </g>
</svg>