<?xml version="1.0" encoding="UTF-8"?>
<svg xmlns="http://www.w3.org/2000/svg" width="42" height="100">
  <g transform="translate(0 -952.362)">
    <text style="line-height:125%" x="64.65" y="69.67" transform="translate(0 452.362)" font-size="40" letter-spacing="0" word-spacing="0" font-family="Sans">
      <tspan x="64.65" y="69.67"/>
    </text>
    <text style="line-height:125%" x="67" y="73" transform="translate(0 452.362)" font-size="40" letter-spacing="0" word-spacing="0" font-family="Sans">
      <tspan x="67" y="73"/>
    </text>
    <rect width="24.393" height="16.575" x="8.884" y="957.569" stroke="#000" stroke-width="3" stroke-linejoin="round" fill="none"/>
    <path d="M18.516 975.379l5.419.026-.169 3.711-5.015.04s-.233-3.776-.235-3.776z" stroke="#000" stroke-width=".73" stroke-linecap="round" stroke-linejoin="round"/>
    <path d="M15.572 980.623c-.521.545-.135.551-.135.551l11.567-.014s.462 0-.105-.577c-2.647-2.362-8.88-2.341-11.326.031z" stroke="#000" stroke-width=".846" stroke-linecap="round" stroke-linejoin="round"/>
    <rect width="23.337" height="1.795" x="9.501" y="971.659"/>
    <rect width="24.393" height="16.575" x="8.884" y="1025.569" stroke="#fff" stroke-width="3" stroke-linejoin="round" fill="none"/>
    <path d="M18.516 1043.379l5.419.026-.169 3.711-5.015.04s-.233-3.776-.235-3.776z" fill="#fff" stroke="#fff" stroke-width=".73" stroke-linecap="round" stroke-linejoin="round"/>
    <path d="M15.572 1048.623c-.521.545-.135.551-.135.551l11.567-.014s.462 0-.105-.577c-2.647-2.362-8.88-2.341-11.326.031z" fill="#fff" stroke="#fff" stroke-width=".846" stroke-linecap="round" stroke-linejoin="round"/>
    <rect width="23.337" height="1.795" x="9.501" y="1039.659" fill="#fff"/>
  </g>
</svg>
