<?xml version="1.0" encoding="UTF-8" standalone="no"?>
<!-- Created with Inkscape (http://www.inkscape.org/) -->

<svg
   xmlns:dc="http://purl.org/dc/elements/1.1/"
   xmlns:cc="http://creativecommons.org/ns#"
   xmlns:rdf="http://www.w3.org/1999/02/22-rdf-syntax-ns#"
   xmlns:svg="http://www.w3.org/2000/svg"
   xmlns="http://www.w3.org/2000/svg"
   xmlns:sodipodi="http://sodipodi.sourceforge.net/DTD/sodipodi-0.dtd"
   xmlns:inkscape="http://www.inkscape.org/namespaces/inkscape"
   width="42"
   height="100"
   id="svg2984"
   version="1.1"
   inkscape:version="0.48.4 r9939"
   sodipodi:docname="wallet_menu_web.svg"
   inkscape:export-filename="/media/X/bitcoin.org/current/img/wallet_menu_web.png"
   inkscape:export-xdpi="90"
   inkscape:export-ydpi="90">
  <defs
     id="defs2986" />
  <sodipodi:namedview
     id="base"
     pagecolor="#ffffff"
     bordercolor="#666666"
     borderopacity="1.0"
     inkscape:pageopacity="0.0"
     inkscape:pageshadow="2"
     inkscape:zoom="3.959798"
     inkscape:cx="-5.7854718"
     inkscape:cy="26.599481"
     inkscape:document-units="px"
     inkscape:current-layer="layer1"
     showgrid="false"
     inkscape:window-width="1615"
     inkscape:window-height="1026"
     inkscape:window-x="65"
     inkscape:window-y="24"
     inkscape:window-maximized="1" />
  <metadata
     id="metadata2989">
    <rdf:RDF>
      <cc:Work
         rdf:about="">
        <dc:format>image/svg+xml</dc:format>
        <dc:type
           rdf:resource="http://purl.org/dc/dcmitype/StillImage" />
        <dc:title></dc:title>
      </cc:Work>
    </rdf:RDF>
  </metadata>
  <g
     inkscape:label="Calque 1"
     inkscape:groupmode="layer"
     id="layer1"
     transform="translate(0,-952.3622)">
    <path
       sodipodi:type="arc"
       style="opacity:0.98999999;fill:#ffffff;fill-opacity:0;stroke:none"
       id="path2992"
       sodipodi:cx="49.750011"
       sodipodi:cy="49.744911"
       sodipodi:rx="49.750011"
       sodipodi:ry="49.750011"
       d="m 99.500023,49.744911 a 49.750011,49.750011 0 1 1 -99.500023,0 49.750011,49.750011 0 1 1 99.500023,0 z"
       transform="matrix(0.25442777,0,0,0.25442777,8.3803039,955.82101)" />
    <path
       style="fill:#000000;fill-opacity:1;stroke:none"
       d="m 31.050878,969.73021 0.782525,0.4268 -0.995942,1.2094 -0.782527,0.5693 -0.142281,1.7071 -0.533951,1.7451 -1.264347,0.5396 -0.0162,0.6627 -0.895367,0.8707 -0.453204,0.7076 -1.191574,0.4614 -0.377361,-1.7565 0.0368,-1.5232 -0.142284,-1.3516 0.284555,-1.1384 -0.426831,-0.3555 -0.853666,-0.427 -1.13822,0.1414 -1.422773,-0.4978 -0.142284,-1.8497 0,-1.2805 1.280497,-1.494 1.138219,-1.5651 1.991884,-0.7825 0.782525,0.9248 1.067083,0 1.213445,0.717 0.06705,1.275 1.493913,1.4937"
       id="path2996"
       inkscape:connector-curvature="0"
       sodipodi:nodetypes="ccccccccccccccccccccccccccccc" />
    <path
       style="fill:#000000;fill-opacity:1;stroke:none"
       d="m 11.122824,972.68511 0.441851,-1.5024 1.06044,-2.3418 1.237181,-0.5743 0.353482,0.6185 1.14881,0.5302 0,0.7954 0.795331,0 0.61859,0.8396 0.441852,0.2651 1.016255,0.4858 1.148811,0.7071 0.486037,0.2651 -0.176747,0.6186 -0.26511,0.5744 -0.795329,0.6628 0.397664,1.193 0,1.3696 -1.590661,0.8397 -0.706962,1.7232 -0.385104,0.4788 -1.16085,-0.5264 -1.937382,-1.1861 0.08108,-0.7105 -0.265109,-1.7673 -1.016257,-1.1491 -0.309295,-1.0602 z"
       id="path3766"
       inkscape:connector-curvature="0"
       sodipodi:nodetypes="cccccccccccccccccccccccccccc" />
    <path
       style="fill:#000000;fill-opacity:1;stroke:none"
       d="m 11.685393,970.23551 -0.175805,-0.3517 -0.105482,-0.8438 -0.281284,0.2814 -0.175804,-0.5626 0.105482,-1.0197 -0.316444,0 -0.281283,0.4572 0,0.3868 -0.5625687,-0.2463 -0.070322,-1.1953 0.2461237,-0.7385 1.382291,-0.4751 0.527407,0 0.457086,0.3165 0.316446,0 -0.140643,-0.8438 0.668051,-0.4571 0.492247,-0.1056 0.949332,-1.0196 1.054815,-0.2813 0.668052,-0.5978 0.316443,-0.6329 0.281284,-0.5977 -0.527407,0 -0.246123,0.1056 0.210962,-0.2813 0.764742,-0.3428 1.151507,-0.4484 0.05275,-0.5801 -0.69666,-0.9576 -0.755951,-0.5449 -0.325235,0.079 -0.202173,0.5627 -0.492246,0.7382 -0.492249,0 -0.577498,-0.4034 c 0,0 -0.02487,-0.5274 0.11579,-0.5274 0.140644,0 1.024286,-0.5107 1.024286,-0.5107 l 0.421927,-0.6329 0.966914,-0.3867 -0.439506,-0.3867 -1.230619,0.3515 -1.089976,0.1753 -0.133144,-0.034 -2.187448,1.4052 c 0,0 -1.704929,1.9766 -2.293535,3.1277 -0.8807539,1.7222 -1.504817,3.7071 -1.7850842,5.5219 -0.095073,0.6156 1.4064206,1.2306 1.4064206,1.2306 l 0.8086926,0.7736 1.019655,0.5976 0.527407,0.1055 0.175805,-0.211 z"
       id="path3806"
       inkscape:connector-curvature="0"
       sodipodi:nodetypes="cccccccccccccccccccccccccccccccccccccsccccccccsscccccc" />
    <path
       style="fill:#000000;fill-opacity:1;stroke:none"
       d="m 18.986244,958.48021 0.06217,0.5282 0.167813,0.5222 0.826669,-0.2549 0.35429,-0.8391 0.341854,-0.1432 0.795593,-0.3605 0.646417,-0.1488 0.14918,-0.9944 c 0,0 -0.14918,-0.4476 -0.348072,-0.4476 -0.198899,0 -1.143663,-0.2238 -1.143663,-0.2238 l -0.696143,-0.074 -1.640907,0.4972 -0.546971,0.348 0.04972,0.5968 0.770729,0.2363 0.453735,0.1432 0.01865,0.3171 z"
       id="path3826"
       inkscape:connector-curvature="0"
       sodipodi:nodetypes="cccccccccsccccccccc" />
    <path
       style="fill:#000000;fill-opacity:1;stroke:none"
       d="m 29.714572,966.25331 0.447672,0.554 0.492246,0.7561 0.492247,0.3691 -0.05275,0.879 0.755951,-0.211 1.169089,-2.0568 -0.448298,-0.5801 -0.562569,-0.018 -1.107554,-1.0548 -0.228544,-0.8264 1.529482,1.4769 c 0,0 0.236892,-0.3115 0.483895,-0.397 0.247003,-0.085 0.433794,-0.2964 0.403907,-0.3767 -0.688053,-1.8502 -1.582286,-3.4882 -2.812841,-4.9224 -0.797053,-0.929 -2.874371,-2.2855 -2.874371,-2.2855 l -1.406421,0.6329 -0.791111,0.2636 0.158225,-0.2988 0.668049,-0.1751 -0.08791,-0.2287 -0.650468,0.1583 -0.843853,-0.089 -1.195457,0.7032 -0.509829,0.5978 0.03516,0.299 0.544989,-0.1936 0.421927,0.3166 0.281282,-0.6682 0.334025,-0.2988 0.10548,0.5098 -0.281284,0.1056 0.685631,-0.069 -0.650472,0.2812 -0.0879,0.1751 -0.68563,0.299 -0.632891,0.1582 -0.263702,-0.053 -0.457088,-0.5449 -0.263702,0.037 0.175804,0.58 0.228542,0.4571 -0.03516,0.5273 -0.369186,0.5977 0.75595,1.635 -0.597728,0.8966 -0.140643,0.7209 0.281282,0.7032 0.327433,0 0.274691,0.4068 0.751558,-0.4573 0.351602,-1.5646 0.843854,-1.0371 0.808691,0.2108 -0.03516,0.5451 0.386766,-0.7559 0.386766,0.4043 0,0.1224 0,0.2109 0.738371,0.211 0.369186,0.7209 1.002074,-0.1583 0.778164,0.6035 -0.786801,1.2615 0.283523,0.581 0.782946,-0.5854"
       id="path3828"
       inkscape:connector-curvature="0"
       sodipodi:nodetypes="ccccccccccccssaccccccccccccccccccccccccccccccccccccccccccccccccccc" />
    <path
       sodipodi:type="arc"
       style="opacity:0.98999999;fill:none;stroke:#000000;stroke-width:7.83737087;stroke-miterlimit:4;stroke-opacity:1;stroke-dasharray:none"
       id="path2992-7"
       sodipodi:cx="49.750011"
       sodipodi:cy="49.744911"
       sodipodi:rx="49.750011"
       sodipodi:ry="49.750011"
       d="m 99.500023,49.744911 a 49.750011,49.750011 0 1 1 -99.500023,0 49.750011,49.750011 0 1 1 99.500023,0 z"
       transform="matrix(0.25442777,0,0,0.25442777,8.3730224,955.81391)" />
    <path
       sodipodi:type="arc"
       style="opacity:0.98999999;fill:#ffffff;fill-opacity:0;stroke:none"
       id="path2992-6"
       sodipodi:cx="49.750011"
       sodipodi:cy="49.744911"
       sodipodi:rx="49.750011"
       sodipodi:ry="49.750011"
       d="m 99.500023,49.744911 a 49.750011,49.750011 0 1 1 -99.500023,0 49.750011,49.750011 0 1 1 99.500023,0 z"
       transform="matrix(0.25442777,0,0,0.25442777,8.3803309,1023.821)" />
    <path
       style="fill:#ffffff;fill-opacity:1;stroke:none"
       d="m 31.050911,1037.7302 0.78252,0.4268 -0.99594,1.2094 -0.78253,0.5693 -0.14228,1.7071 -0.53395,1.7451 -1.26435,0.5396 -0.0162,0.6627 -0.89536,0.8707 -0.45321,0.7076 -1.19157,0.4614 -0.37736,-1.7565 0.0368,-1.5232 -0.14229,-1.3516 0.28456,-1.1384 -0.42683,-0.3555 -0.85367,-0.427 -1.13822,0.1414 -1.42277,-0.4978 -0.14228,-1.8497 0,-1.2805 1.28049,-1.494 1.13822,-1.5651 1.99189,-0.7825 0.78252,0.9248 1.06708,0 1.21345,0.717 0.067,1.275 1.49391,1.4937"
       id="path2996-7"
       inkscape:connector-curvature="0"
       sodipodi:nodetypes="ccccccccccccccccccccccccccccc" />
    <path
       style="fill:#ffffff;fill-opacity:1;stroke:none"
       d="m 11.122851,1040.6851 0.44186,-1.5024 1.06044,-2.3418 1.23718,-0.5743 0.35348,0.6185 1.14881,0.5302 0,0.7954 0.79533,0 0.61859,0.8396 0.44185,0.2651 1.01626,0.4858 1.14881,0.7071 0.48603,0.2651 -0.17674,0.6186 -0.26511,0.5744 -0.79533,0.6628 0.39766,1.193 0,1.3696 -1.59066,0.8397 -0.70696,1.7232 -0.38511,0.4788 -1.16085,-0.5264 -1.93738,-1.1861 0.0811,-0.7105 -0.2651,-1.7673 -1.01626,-1.1491 -0.3093,-1.0602 z"
       id="path3766-0"
       inkscape:connector-curvature="0"
       sodipodi:nodetypes="cccccccccccccccccccccccccccc" />
    <path
       style="fill:#ffffff;fill-opacity:1;stroke:none"
       d="m 11.685421,1038.2355 -0.1758,-0.3517 -0.10548,-0.8438 -0.28129,0.2814 -0.1758,-0.5626 0.10548,-1.0197 -0.31644,0 -0.28129,0.4572 0,0.3868 -0.5625701,-0.2463 -0.0703,-1.1953 0.2461301,-0.7385 1.38229,-0.4751 0.5274,0 0.45709,0.3165 0.31645,0 -0.14065,-0.8438 0.66805,-0.4571 0.49225,-0.1056 0.94933,-1.0196 1.05482,-0.2813 0.66805,-0.5978 0.31644,-0.6329 0.28129,-0.5977 -0.52741,0 -0.24612,0.1056 0.21096,-0.2813 0.76474,-0.3428 1.15151,-0.4484 0.0528,-0.5801 -0.69666,-0.9576 -0.75595,-0.5449 -0.32524,0.079 -0.20217,0.5627 -0.49225,0.7382 -0.49225,0 -0.57749,-0.4034 c 0,0 -0.0249,-0.5274 0.11579,-0.5274 0.14064,0 1.02428,-0.5107 1.02428,-0.5107 l 0.42193,-0.6329 0.96691,-0.3867 -0.4395,-0.3867 -1.23062,0.3515 -1.08998,0.1753 -0.13314,-0.034 -2.18745,1.4052 c 0,0 -1.70493,1.9766 -2.29354,3.1277 -0.8807501,1.7222 -1.5048101,3.7071 -1.7850801,5.5219 -0.0951,0.6156 1.40642,1.2306 1.40642,1.2306 l 0.8086901,0.7736 1.01966,0.5976 0.52741,0.1055 0.1758,-0.211 z"
       id="path3806-0"
       inkscape:connector-curvature="0"
       sodipodi:nodetypes="cccccccccccccccccccccccccccccccccccccsccccccccsscccccc" />
    <path
       style="fill:#ffffff;fill-opacity:1;stroke:none"
       d="m 18.986271,1026.4802 0.0622,0.5282 0.16782,0.5222 0.82667,-0.2549 0.35429,-0.8391 0.34185,-0.1432 0.79559,-0.3605 0.64642,-0.1488 0.14918,-0.9944 c 0,0 -0.14918,-0.4476 -0.34807,-0.4476 -0.1989,0 -1.14367,-0.2238 -1.14367,-0.2238 l -0.69614,-0.074 -1.64091,0.4972 -0.54697,0.348 0.0497,0.5968 0.77073,0.2363 0.45374,0.1432 0.0187,0.3171 z"
       id="path3826-6"
       inkscape:connector-curvature="0"
       sodipodi:nodetypes="cccccccccsccccccccc" />
    <path
       style="fill:#ffffff;fill-opacity:1;stroke:none"
       d="m 29.714601,1034.2533 0.44767,0.554 0.49225,0.7561 0.49225,0.3691 -0.0528,0.879 0.75595,-0.211 1.16909,-2.0568 -0.4483,-0.5801 -0.56257,-0.018 -1.10755,-1.0548 -0.22855,-0.8264 1.52948,1.4769 c 0,0 0.2369,-0.3115 0.4839,-0.397 0.247,-0.085 0.43379,-0.2964 0.40391,-0.3767 -0.68806,-1.8502 -1.58229,-3.4882 -2.81285,-4.9224 -0.79705,-0.929 -2.87437,-2.2855 -2.87437,-2.2855 l -1.40642,0.6329 -0.79111,0.2636 0.15823,-0.2988 0.66805,-0.1751 -0.0879,-0.2287 -0.65047,0.1583 -0.84386,-0.089 -1.19545,0.7032 -0.50983,0.5978 0.0352,0.299 0.54499,-0.1936 0.42192,0.3166 0.28129,-0.6682 0.33402,-0.2988 0.10548,0.5098 -0.28128,0.1056 0.68563,-0.069 -0.65047,0.2812 -0.0879,0.1751 -0.68563,0.299 -0.63289,0.1582 -0.26371,-0.053 -0.45708,-0.5449 -0.26371,0.037 0.17581,0.58 0.22854,0.4571 -0.0352,0.5273 -0.36919,0.5977 0.75595,1.635 -0.59772,0.8966 -0.14065,0.7209 0.28128,0.7032 0.32744,0 0.27469,0.4068 0.75156,-0.4573 0.3516,-1.5646 0.84385,-1.0371 0.80869,0.2108 -0.0352,0.5451 0.38677,-0.7559 0.38677,0.4043 0,0.1224 0,0.2109 0.73837,0.211 0.36918,0.7209 1.00208,-0.1583 0.77816,0.6035 -0.7868,1.2615 0.28352,0.581 0.78295,-0.5854"
       id="path3828-7"
       inkscape:connector-curvature="0"
       sodipodi:nodetypes="ccccccccccccssaccccccccccccccccccccccccccccccccccccccccccccccccccc" />
    <path
       sodipodi:type="arc"
       style="opacity:0.98999999;fill:none;stroke:#ffffff;stroke-width:7.83719492;stroke-miterlimit:4;stroke-opacity:1;stroke-dasharray:none"
       id="path2992-7-0"
       sodipodi:cx="49.750011"
       sodipodi:cy="49.744911"
       sodipodi:rx="49.750011"
       sodipodi:ry="49.750011"
       d="m 99.500023,49.744911 a 49.750011,49.750011 0 1 1 -99.500023,0 49.750011,49.750011 0 1 1 99.500023,0 z"
       transform="matrix(0.25442777,0,0,0.25442777,8.3730509,1023.8139)" />
  </g>
</svg>
