<?xml version="1.0" encoding="UTF-8" standalone="no"?>
<!-- Created with Inkscape (http://www.inkscape.org/) -->

<svg
   xmlns:dc="http://purl.org/dc/elements/1.1/"
   xmlns:cc="http://creativecommons.org/ns#"
   xmlns:rdf="http://www.w3.org/1999/02/22-rdf-syntax-ns#"
   xmlns:svg="http://www.w3.org/2000/svg"
   xmlns="http://www.w3.org/2000/svg"
   xmlns:sodipodi="http://sodipodi.sourceforge.net/DTD/sodipodi-0.dtd"
   xmlns:inkscape="http://www.inkscape.org/namespaces/inkscape"
   width="42"
   height="100"
   id="svg4913"
   version="1.1"
   inkscape:version="0.48.4 r9939"
   inkscape:export-filename="/media/X/bitcoin.org/current/img/wallet_menu_mobile.png"
   inkscape:export-xdpi="90"
   inkscape:export-ydpi="90"
   sodipodi:docname="wallet_menu_mobile.svg">
  <defs
     id="defs4915" />
  <sodipodi:namedview
     id="base"
     pagecolor="#ffffff"
     bordercolor="#666666"
     borderopacity="1.0"
     inkscape:pageopacity="0.0"
     inkscape:pageshadow="2"
     inkscape:zoom="1.9795104"
     inkscape:cx="60.900353"
     inkscape:cy="-0.63675478"
     inkscape:current-layer="layer1"
     showgrid="true"
     inkscape:grid-bbox="true"
     inkscape:document-units="px"
     inkscape:window-width="1615"
     inkscape:window-height="1026"
     inkscape:window-x="65"
     inkscape:window-y="24"
     inkscape:window-maximized="1" />
  <metadata
     id="metadata4918">
    <rdf:RDF>
      <cc:Work
         rdf:about="">
        <dc:format>image/svg+xml</dc:format>
        <dc:type
           rdf:resource="http://purl.org/dc/dcmitype/StillImage" />
        <dc:title></dc:title>
      </cc:Work>
    </rdf:RDF>
  </metadata>
  <g
     id="layer1"
     inkscape:label="Layer 1"
     inkscape:groupmode="layer"
     transform="translate(0,68)">
    <path
       style="opacity:0.98999999;fill:#000000;fill-opacity:1;fill-rule:nonzero;stroke:#000000;stroke-width:0.49351057;stroke-linecap:round;stroke-linejoin:round;stroke-miterlimit:4;stroke-opacity:1;stroke-dasharray:none;stroke-dashoffset:0"
       d="m 29.812507,-65.656507 -17.3125,0.03125 c -0.573954,9.58e-4 -1.032298,0.457296 -1.03125,1.03125 l 0.03125,25.25 c 0.001,0.573954 0.488546,1.032208 1.0625,1.03125 l 17.3125,-0.03125 c 0.573954,-9.58e-4 1.032298,-0.457296 1.03125,-1.03125 l -0.0625,-25.25 c -0.001,-0.573954 -0.457296,-1.032207 -1.03125,-1.03125 z m -2.84375,2.71875 c 0.54702,-9.27e-4 0.999017,0.45298 1,1 l 0,16.65625 c 9.83e-4,0.54702 -0.42173,0.967823 -0.96875,0.96875 l -11.5,0.03125 c -0.54702,9.27e-4 -0.967767,-0.45298 -0.96875,-1 l -0.03125,-16.625 c -9.83e-4,-0.54702 0.42173,-0.999072 0.96875,-1 l 11.5,-0.03125 z m -5.375,19.71875 c 1.094781,-0.0019 1.998089,0.905219 2,2 0.0019,1.094781 -0.905219,1.966839 -2,1.96875 -1.094781,0.0019 -1.966839,-0.873969 -1.96875,-1.96875 -0.0019,-1.094781 0.873969,-1.998089 1.96875,-2 z"
       id="rect4921"
       inkscape:connector-curvature="0" />
    <path
       style="opacity:0.98999999;fill:#ffffff;fill-opacity:1;fill-rule:nonzero;stroke:#ffffff;stroke-width:0.49351102;stroke-linecap:round;stroke-linejoin:round;stroke-miterlimit:4;stroke-opacity:1;stroke-dasharray:none;stroke-dashoffset:0"
       d="m 29.812541,2.3434936 -17.312532,0.03125 c -0.573961,9.58e-4 -1.032302,0.457296 -1.031252,1.03125 l 0.0312,25.2499994 c 10e-4,0.573954 0.488541,1.032208 1.062502,1.03125 l 17.312532,-0.03125 c 0.573951,-9.58e-4 1.032292,-0.457296 1.031252,-1.03125 l -0.0625,-25.2499994 c -0.001,-0.573954 -0.457301,-1.032208 -1.031252,-1.03125 z m -2.843755,2.71875 c 0.547021,-9.27e-4 0.999011,0.45298 1.000001,1 l 0,16.6562494 c 9.8e-4,0.54702 -0.42173,0.967823 -0.968751,0.96875 l -11.500021,0.03125 c -0.547021,9.27e-4 -0.967772,-0.45298 -0.968752,-1 l -0.0312,-16.6249994 c -9.9e-4,-0.54702 0.421731,-0.999072 0.968752,-1 l 11.500021,-0.03125 z m -5.37501,19.7187494 c 1.094782,-0.0019 1.998093,0.905219 2.000003,2 0.002,1.094781 -0.905221,1.966839 -2.000003,1.96875 -1.094782,0.0019 -1.966844,-0.873969 -1.968754,-1.96875 -0.002,-1.094781 0.873972,-1.998089 1.968754,-2 z"
       id="rect4921-1"
       inkscape:connector-curvature="0" />
  </g>
</svg>
