<?xml version="1.0" encoding="UTF-8"?>
<svg xmlns="http://www.w3.org/2000/svg" width="42" height="100">
  <g transform="translate(0 68)">
    <rect width="18.383" height="12.727" x="11.392" y="-54.241" opacity=".99" stroke="#000" stroke-width="2.111" stroke-linecap="round" stroke-linejoin="round"/>
    <path d="M26.158-52.333s.891-6.366-.864-8.687c-1.036-1.369-3.078-1.98-4.792-1.885-1.726.096-3.841.328-5.028 2.592-1.042 1.987-.946 7.911-.946 7.911z" stroke="#000" stroke-width="3.871" fill="none"/>
    <rect width="18.383" height="12.727" x="11.392" y="13.759" opacity=".99" fill="#fff" stroke="#fff" stroke-width="2.111" stroke-linecap="round" stroke-linejoin="round"/>
    <path d="M26.158 15.667s.891-6.366-.864-8.687c-1.036-1.369-3.078-1.98-4.792-1.885-1.726.096-3.841.328-5.028 2.592-1.042 1.987-.946 7.911-.946 7.911z" stroke="#fff" stroke-width="3.871" fill="none"/>
  </g>
</svg>
