<?xml version="1.0" encoding="UTF-8"?>
<svg xmlns="http://www.w3.org/2000/svg" width="42" height="100">
  <g stroke-width=".494" stroke-linecap="round" stroke-linejoin="round">
    <path d="M29.813 2.343l-17.313.031c-.574.001-1.032.457-1.031 1.031l.031 25.25c.001.574.489 1.032 1.063 1.031l17.313-.031c.574-.001 1.032-.457 1.031-1.031l-.063-25.25c-.001-.574-.457-1.032-1.031-1.031zm-2.844 2.719c.547-.001.999.453 1 1v16.656c.001.547-.422.968-.969.969l-11.5.031c-.547.001-.968-.453-.969-1l-.031-16.625c-.001-.547.422-.999.969-1l11.5-.031zm-5.375 19.719c1.095-.002 1.998.905 2 2 .002 1.095-.905 1.967-2 1.969-1.095.002-1.967-.874-1.969-1.969-.002-1.095.874-1.998 1.969-2z" opacity=".99" stroke="#000"/>
    <path d="M29.813 70.343l-17.313.031c-.574.001-1.032.457-1.031 1.031l.031 25.25c.001.574.489 1.032 1.063 1.031l17.313-.031c.574-.001 1.032-.457 1.031-1.031l-.063-25.25c-.001-.574-.457-1.032-1.031-1.031zm-2.844 2.719c.547-.001.999.453 1 1v16.656c.001.547-.422.968-.969.969l-11.5.031c-.547.001-.968-.453-.969-1l-.031-16.625c-.001-.547.422-.999.969-1l11.5-.031zm-5.375 19.719c1.095-.002 1.998.905 2 2 .002 1.095-.905 1.967-2 1.969-1.095.002-1.967-.874-1.969-1.969-.002-1.095.874-1.998 1.969-2z" opacity=".99" fill="#fff" stroke="#fff"/>
  </g>
</svg>
