<?xml version="1.0" encoding="UTF-8"?>
<svg width="15px" height="18px" viewBox="0 0 15 18" version="1.1" xmlns="http://www.w3.org/2000/svg" xmlns:xlink="http://www.w3.org/1999/xlink">
    <!-- Generator: Sketch 49 (51002) - http://www.bohemiancoding.com/sketch -->
    <title>linux - FontAwesome</title>
    <desc>Created with Sketch.</desc>
    <defs></defs>
    <g id="Choose-Your-wallet" stroke="none" stroke-width="1" fill="none" fill-rule="evenodd">
        <g id="Bitcoin.org---Choose-Your-wallet--Desktop" transform="translate(-648.000000, -564.000000)" fill="#5B6A77">
            <g id="//Content" transform="translate(0.000000, 473.000000)">
                <g id="Sub-Tabs" transform="translate(0.000000, 66.000000)">
                    <g id="Tabs" transform="translate(648.000000, 23.000000)">
                        <g id="Linux">
                            <path d="M6.46633447,6.12871255 C6.15120959,6.10862324 6.13151429,6.33965031 6.22999081,6.32960565 C6.33831498,6.32960565 6.26938142,6.14880186 6.46633447,6.12871255 Z M7.32431118,6.15005745 C7.27630387,6.11113441 7.18028926,6.09355626 7.0374983,6.15884652 C7.12612717,6.13373488 7.17290352,6.16889117 7.20983222,6.20655863 L7.32431118,6.15005745 Z M7.32431118,6.15005745 C7.37231848,6.18898048 7.37231848,6.24924841 7.32308022,6.26933772 C7.27384196,6.2844047 7.24676091,6.24422608 7.20983222,6.20655863 L7.32431118,6.15005745 Z M3.86655425,10.5584053 C3.77792538,10.5282714 3.79762068,10.7090752 3.70899181,10.8497003 C3.64005824,10.9802808 3.4628005,11.0807274 3.60066764,11.1008167 C3.6499059,11.1108614 3.78777303,10.9903255 3.84685894,10.8497003 C3.89609721,10.6789412 3.94533547,10.5885393 3.86655425,10.5584053 Z M12.286297,14.1644364 C12.286297,13.9836326 11.9022386,13.8128735 11.7446761,13.7425609 C12.0105627,12.838542 11.8923909,12.4769344 11.7151332,11.6231387 C11.577266,10.9802808 10.9962545,10.1063959 10.5432625,9.83519019 C10.6614344,9.93563674 10.8780827,10.2269317 11.1045787,10.6688965 C11.4984848,11.4222457 11.8923909,12.5372023 11.6363519,13.4613106 C11.5378754,13.8229182 11.3015318,13.8731414 11.1439693,13.8831861 C10.4546337,13.9635433 10.8583874,13.0394351 10.5728055,11.7838532 C10.247833,10.3776015 9.91301278,10.277155 9.83423156,10.1666638 C9.43047782,8.33853662 8.98733346,8.5193404 8.85931398,7.83630388 C8.75098981,7.22357993 9.38123956,6.72134719 8.5244938,6.55058806 C8.25860719,6.50036478 7.8843964,6.2291591 7.73668162,6.20906979 C7.58896683,6.18898048 7.51018561,5.19455965 8.06165414,5.16442569 C8.60327502,5.12424707 8.70175155,5.78719429 8.60327502,6.04835532 C8.44571258,6.30951634 8.61312267,6.40996289 8.87900929,6.319561 C9.09565764,6.24924841 8.95779051,5.66665843 9.00702877,5.58630119 C8.86916164,4.74255019 8.5244938,4.62201433 8.16997832,4.55170175 C6.8110023,4.66219295 7.42155674,6.18898048 7.28368961,6.04835532 C7.08673656,5.83741756 6.51557273,6.02826601 6.51557273,5.89768549 C6.52542038,5.11420242 6.26938142,4.66219295 5.91486593,4.65214829 C5.52095984,4.64210364 5.3633974,5.20460431 5.3437021,5.52603326 C5.31415914,5.82737291 5.51111219,6.46018616 5.65882697,6.40996289 C5.7573035,6.37982892 5.92471359,6.17893583 5.74745584,6.18898048 C5.65882697,6.18898048 5.52095984,5.96799808 5.50126454,5.70683705 C5.49141688,5.44567603 5.58989341,5.184515 5.92471359,5.19455965 C6.30877203,5.20460431 6.30877203,5.98808739 6.26938142,6.01822135 C6.14136194,6.10862324 5.9837995,6.27938238 5.9641042,6.30951634 C5.83608472,6.52045409 5.58989341,6.58072202 5.49141688,6.67112392 C5.32400679,6.8519277 5.28461618,7.0528208 5.41263567,7.12313338 C5.86562767,7.38429441 5.71791289,7.68563405 6.34816264,7.70572336 C6.76176404,7.72581267 7.06704126,7.64545543 7.35262318,7.55505354 C7.56927153,7.48474096 8.26845484,7.33407113 8.41616963,7.07291011 C8.48510319,6.96241891 8.56388441,6.96241891 8.61312267,6.99255287 C8.7115992,7.04277614 8.7312945,7.23362459 8.48510319,7.29389251 C8.14043536,7.39433906 7.79576753,7.5851875 7.48064266,7.70572336 C7.17536543,7.83630388 7.07688891,7.88652715 6.79130699,7.93675042 C6.14136194,8.05728628 5.65882697,7.69567871 6.09212368,8.12759887 C6.23983846,8.26822403 6.37770559,8.35862593 6.75191638,8.34858127 C7.57911918,8.31844731 8.49495085,7.30393717 8.58357972,7.75594664 C8.60327502,7.85639319 8.32754076,7.97692904 8.11089241,8.08742025 C7.34277552,8.46911713 6.80115464,9.2325109 6.30877203,8.97134987 C5.86562767,8.73027816 5.42248332,7.61532147 5.43233097,8.11755421 C5.44217862,8.89099263 4.43771808,9.57402916 4.90055774,10.4579588 C4.59528052,10.538316 3.91579251,12.0148803 3.81731599,12.7782741 C3.75823007,13.2202389 3.8567066,13.7626502 3.74838242,14.0639899 C3.60066764,14.5059547 2.93102728,13.6421144 3.14767563,12.5874256 C3.18706624,12.4066218 3.14767563,12.3664432 3.09843737,12.4568451 C2.83255075,12.9490332 2.98026554,13.6421144 3.19691389,14.1242578 C3.28554276,14.3351956 3.51203876,14.4255974 3.67944885,14.6064012 C4.02411669,15.0081874 5.38309271,16.0327422 5.61943636,16.2838586 C5.92471359,16.5751536 5.83608472,17.2581901 5.20583497,17.3285027 C5.53080749,17.9512713 5.84593237,18.0115392 5.83608472,19.0260494 C6.2102955,18.8251563 6.06258072,18.3831914 5.90501828,18.1019411 C5.79669411,17.901048 5.65882697,17.8106461 5.68836993,17.7604228 C5.70806524,17.7302889 5.90501828,17.5595298 6.01334246,17.6901103 C6.34816264,18.0718071 6.97841239,18.1421197 7.64805275,18.0517178 C8.32754076,17.9713606 9.05626703,17.7302889 9.39108721,17.1778329 C9.54864965,16.9166718 9.65697382,16.8262699 9.72590739,16.8764932 C9.80468861,16.9166718 9.83423156,17.0974756 9.82438391,17.3988153 C9.81453626,17.7202442 9.68651678,18.0517178 9.59788791,18.3229235 C9.50925904,18.6343078 9.47971608,18.8452456 9.77514565,18.8552902 C9.85392687,18.2927896 10.0114893,17.7403335 10.0508799,17.1778329 C10.1001182,16.534975 9.64712617,15.3497057 10.1395088,14.7570711 C10.2675283,14.5963566 10.4250907,14.5762673 10.6417391,14.5762673 C10.671282,13.7726949 11.8825433,13.8329628 12.286297,14.1644364 Z M6.10197133,5.85750687 C6.14136194,5.6063905 6.02319011,5.42558672 5.9641042,5.40549741 C5.84593237,5.37536344 5.86562767,5.55616723 5.92471359,5.53607792 C5.9641042,5.53607792 6.01334246,5.59634585 5.99364715,5.68674774 C5.97395185,5.8072836 5.9837995,5.88764084 6.07242837,5.88764084 C6.08227602,5.88764084 6.10197133,5.88764084 6.10197133,5.85750687 Z M10.2281377,7.83630388 C10.188747,7.64545543 10.0508799,7.71576802 9.89331748,7.61532147 C9.70621208,7.49478561 9.66682147,7.29389251 9.59788791,7.3642051 C9.39108721,7.59523216 9.85392687,8.07737559 10.0508799,8.11755421 C10.1690517,8.13764352 10.2576806,7.97692904 10.2281377,7.83630388 Z M8.47525554,5.6967924 C8.48510319,5.45572068 8.2783025,5.33518482 8.22906423,5.34522948 C8.10104475,5.35527413 8.14043536,5.41554206 8.19952128,5.43563137 C8.2783025,5.45572068 8.35708371,5.59634585 8.37677902,5.74701567 C8.37677902,5.76710498 8.47525554,5.72692636 8.47525554,5.6967924 Z M9.00702877,3.35638782 C9.01687642,3.30616455 8.88885694,3.24589662 8.80022807,3.17558403 C8.72144685,3.0952268 8.64266563,3.02491421 8.56388441,3.02491421 C8.36693137,3.04500352 8.46540789,3.25594127 8.43586493,3.35638782 C8.39647432,3.46687902 8.24875954,3.55728092 8.34723606,3.63763816 C8.43586493,3.70795074 8.49495085,3.52714695 8.68205624,3.45683437 C8.7312945,3.43674506 8.95779051,3.46687902 9.00702877,3.35638782 Z M14.5709523,16.8262699 C15.7822136,17.5896637 14.1179603,18.222477 13.3990817,18.5941292 C12.8377655,18.8854242 12.0893439,19.5282821 11.8136097,19.7994878 C11.606809,20.0003809 10.7500632,20.1008274 10.2675283,19.8497111 C9.70621208,19.5584161 10.0016417,19.0963619 9.13504825,19.066228 C8.70175155,19.0561833 8.2783025,19.0561833 7.85485344,19.0561833 C7.48064266,19.066228 7.10643187,19.0863173 6.72237343,19.0963619 C5.42248332,19.1264959 5.29446384,19.9802916 4.45741339,19.9501576 C3.88624955,19.9300683 3.16737093,19.4680142 1.92656674,19.2068531 C1.05997333,19.0260494 0.222922884,18.9758261 0.045665142,18.5840845 C-0.1315926,18.192343 0.262313493,17.7503782 0.29185645,17.3686813 C0.321399407,16.8564039 -0.0823543384,16.1633227 0.213075232,15.9021617 C0.469114192,15.6711346 1.01073507,15.8418938 1.36525056,15.6410007 C1.73946134,15.4200183 1.89702378,15.2492591 1.89702378,14.7771604 C2.03489091,15.2593038 1.88717613,15.6510453 1.58189891,15.8418938 C1.39479351,15.9624296 1.05012568,16.0226976 0.764543763,15.9925636 C0.538047759,15.9724743 0.400180626,16.0026083 0.341094712,16.0930101 C0.252465841,16.2035013 0.282008798,16.4043944 0.390332974,16.6655555 C0.498657149,16.9267165 0.62667663,17.0974756 0.606981325,17.4189046 C0.597133673,17.7403335 0.242618189,18.1220304 0.301704103,18.3932361 C0.321399407,18.4936827 0.419875931,18.5840845 0.666067239,18.6543971 C1.05997333,18.7648883 1.77885195,18.8753795 2.47803527,19.0461387 C3.2559998,19.2470318 4.0635073,19.6086393 4.56573756,19.5383268 C6.06258072,19.327389 5.20583497,17.6901103 4.96949131,17.2983687 C3.69914416,15.2693485 2.86209371,13.943454 2.19245335,14.4657761 C2.02504326,14.6064012 2.01519561,14.1242578 2.02504326,13.9334094 C2.05458622,13.2704621 2.37955875,13.0293904 2.57651179,12.517113 C2.95072258,11.5427815 3.2363045,10.4278248 3.80746833,9.8552795 C4.23091738,9.29277883 4.90055774,8.37871524 5.02857722,7.8965718 C4.92025305,6.8519277 4.89071009,5.74701567 4.87101479,4.78272881 C4.85131948,3.74812936 5.00888192,2.84411042 6.15120959,2.21129717 C6.42694386,2.06062735 6.79130699,2.00035942 7.17536543,2.00035942 C7.85485344,1.99031476 8.61312267,2.19120786 9.09565764,2.55281543 C9.86377452,3.13540541 10.3463095,4.37089796 10.2872236,5.25482758 C10.247833,5.94790877 10.3660048,6.66107926 10.5826531,7.40438372 C10.8386921,8.27826869 11.2424458,8.89099263 11.8923909,9.59411847 C12.6703554,10.4378695 13.2809099,12.0952375 13.4581676,13.1499263 C13.6157301,14.1343025 13.3990817,14.7470264 13.192281,14.7771604 C12.8771561,14.8273836 12.6802031,15.8418938 11.6954379,15.8017152 C11.0651881,15.7715812 11.0061022,15.3898843 10.8288445,15.0584107 C10.5432625,14.5461333 10.2576806,14.7068478 10.1493564,15.2492591 C10.0902705,15.5204648 10.1296611,15.922251 10.21829,16.2235907 C10.3955477,16.8564039 10.3364618,17.4490385 10.2281377,18.1822984 C10.021337,19.5684607 11.1833599,19.8296217 11.9613245,19.1666745 C12.7294414,18.513772 12.8968514,18.4133254 13.8619214,18.0718071 C15.3292216,17.5595298 14.836839,17.1075203 14.0490268,16.8363146 C13.3399958,16.5952429 13.3104528,15.3798397 13.5664918,15.1488126 C13.6255777,16.4546177 14.2952181,16.6454662 14.5709523,16.8262699 Z" id="linux---FontAwesome"></path>
                        </g>
                    </g>
                </g>
            </g>
        </g>
    </g>
</svg>