<?xml version="1.0" encoding="UTF-8"?>
<svg xmlns="http://www.w3.org/2000/svg" width="42" height="42">
  <g>
    <path d="M20.944 9.172l-14.547 23.863h29.152z" fill="#ee9209" stroke="#ee9209" stroke-width="8.951" stroke-linecap="round" stroke-linejoin="round"/>
    <path d="M23.026 18.788c0 1.581-.057 3.028-.171 4.342-.114 1.314-.257 2.638-.428 3.97h-2.457c-.19-1.333-.343-2.656-.457-3.97-.114-1.333-.171-2.78-.171-4.342v-5.313h3.685v5.313m.428 12.597c0 .666-.219 1.209-.657 1.628-.438.419-.981.628-1.628.628-.628 0-1.171-.209-1.628-.628-.438-.419-.657-.962-.657-1.628 0-.666.219-1.209.657-1.628.457-.438 1-.657 1.628-.657.647 0 1.19.219 1.628.657.438.419.657.962.657 1.628" font-size="28.564" font-weight="500" letter-spacing="0" word-spacing="0" fill="#fff" font-family="Ubuntu"/>
  </g>
</svg>
