<?xml version="1.0" encoding="UTF-8"?>
<svg width="39px" height="38px" viewBox="0 0 39 38" version="1.1" xmlns="http://www.w3.org/2000/svg" xmlns:xlink="http://www.w3.org/1999/xlink">
    <!-- Generator: Sketch 49 (51002) - http://www.bohemiancoding.com/sketch -->
    <title>Group</title>
    <desc>Created with Sketch.</desc>
    <defs></defs>
    <g id="Symbols" stroke="none" stroke-width="1" fill="none" fill-rule="evenodd">
        <g id="No-PCI-compliance-required.icon" transform="translate(-11.000000, -11.000000)">
            <g id="Group" transform="translate(10.000000, 11.000000)">
                <path d="M36.2041724,25.6219651 L10.2400653,25.6219651 C8.66788653,25.6219651 7.38888889,24.3360032 7.38888889,22.7557271 L7.38888889,2.87081075 C7.38888889,1.29032675 8.66809329,0.00457267857 10.2400653,0.00457267857 L19.2377083,0.00457267857 C19.2506651,-0.00152422619 23.8695433,-0.00152422619 33.0943431,0.00457267857 L36.2043791,0.00457267857 C37.7765579,0.00457267857 39.0555556,1.2905346 39.0555556,2.87081075 L39.0555556,22.7557271 C39.0553488,24.3360032 37.7763512,25.6219651 36.2041724,25.6219651 Z M10.2400653,1.04381781 C9.23791506,1.04381781 8.42267295,1.86336652 8.42267295,2.87081075 L8.42267295,22.7557271 C8.42267295,23.7631713 9.23791506,24.58272 10.2400653,24.58272 L36.2041724,24.58272 C37.2063226,24.58272 38.0215647,23.7631713 38.0215647,22.7557271 L38.0215647,16.5851052 L28.3935202,16.5851052 C27.1374726,16.5851052 26.1154737,15.5579153 26.1154737,14.2952325 L26.1154737,11.3310975 C26.1154737,10.0686225 27.1372658,9.04122478 28.3935202,9.04122478 L38.0215647,9.04122478 L38.0215647,2.87081075 C38.0215647,1.86336652 37.2063226,1.04381781 36.2041724,1.04381781 L10.2400653,1.04381781 Z M28.3935202,10.0804699 C27.7075011,10.0804699 27.1492577,10.6414544 27.1492577,11.3310975 L27.1492577,14.2954403 C27.1492577,14.9848755 27.7072944,15.5460679 28.3935202,15.5460679 L38.0215647,15.5460679 L38.0215647,10.0804699 L28.3935202,10.0804699 Z M22.6481619,0.00457267857 L32.0258239,0.00457267857 L22.6481619,0.00457267857 Z M30.0436464,14.6604232 C29.030538,14.6604232 28.2059918,13.8317291 28.2059918,12.8130611 C28.2059918,11.794393 29.0303312,10.9656989 30.0436464,10.9656989 C31.0569615,10.9656989 31.8813009,11.794393 31.8813009,12.8130611 C31.8813009,13.8317291 31.0569615,14.6604232 30.0436464,14.6604232 Z M30.0436464,12.0051519 C29.6003598,12.0051519 29.2397759,12.3676406 29.2397759,12.8132689 C29.2397759,13.2588972 29.6003598,13.6213859 30.0436464,13.6213859 C30.486933,13.6213859 30.8475169,13.2588972 30.8475169,12.8132689 C30.8475169,12.3676406 30.486933,12.0051519 30.0436464,12.0051519 Z" id="Shape" fill="#1C3C55" fill-rule="nonzero"></path>
                <g id="credit-card-2" transform="translate(15.611111, 25.722222) scale(-1, 1) translate(-15.611111, -25.722222) translate(0.611111, 13.722222)">
                    <rect id="Rectangle" fill="#FFFFFF" transform="translate(15.472897, 12.724932) rotate(5.000000) translate(-15.472897, -12.724932) " x="2.27845237" y="3.22493235" width="26.3888889" height="19" rx="2"></rect>
                    <path d="M2.18676876,0.300582676 L24.0527716,0.300582676 C25.1573411,0.300582676 26.0527716,1.19601318 26.0527716,2.30058268 L26.0527716,16.7729294 C26.0527716,17.8774989 25.1573411,18.7729294 24.0527716,18.7729294 L2.18676876,18.7729294 C1.08219926,18.7729294 0.186768762,17.8774989 0.186768762,16.7729294 L0.186768762,2.30058268 C0.186768762,1.19601318 1.08219926,0.300582676 2.18676876,0.300582676 Z" id="Rectangle" fill="#FFFFFF"></path>
                    <path d="M15.7765683,16.344086 L23.040636,16.344086 C23.3130393,16.344086 23.4946237,16.1583746 23.4946237,15.8797802 L23.4946237,11.7008649 C23.4946237,11.4222706 23.3130393,11.2365591 23.040636,11.2365591 L15.7765683,11.2365591 C15.5041651,11.2365591 15.3225807,11.4222706 15.3225807,11.7008649 L15.3225807,15.8797802 C15.3225275,16.1583202 15.5041651,16.344086 15.7765683,16.344086 Z M16.1352393,11.988425 L22.6737898,12.0495097 L22.6737898,15.5912707 L16.1352393,15.5912707 L16.1352393,11.988425 Z" id="Shape" fill="#1C3C55" fill-rule="nonzero"></path>
                    <path d="M8.86553807,10.3035685 L12.9515955,10.3035685 C13.2580483,10.3035685 13.3970709,10.0873607 13.3970709,9.90178427 C13.3970709,9.71620787 13.2580483,9.5 12.9515955,9.5 L8.86553807,9.5 C8.59937213,9.5 8.44444444,9.71636981 8.44444444,9.90178427 C8.44444444,10.0871987 8.65525648,10.3035685 8.86553807,10.3035685 Z" id="Shape" fill="#1C3C55" fill-rule="nonzero"></path>
                    <path d="M2.53220474,10.3035685 L6.61826216,10.3035685 C6.92471497,10.3035685 7.06373753,10.0873607 7.06373753,9.90178427 C7.06373753,9.71620787 6.92471497,9.5 6.61826216,9.5 L2.53220474,9.5 C2.2660388,9.5 2.11111111,9.71636981 2.11111111,9.90178427 C2.11111111,10.0871987 2.32192315,10.3035685 2.53220474,10.3035685 Z" id="Shape-Copy" fill="#1C3C55" fill-rule="nonzero"></path>
                    <path d="M29.2626692,5.08249575 C28.917187,4.6509615 28.3804934,4.41120152 27.8375433,4.363272 L26.652967,4.22381002 L26.652967,2.8768388 L26.652967,1.91791126 C26.652967,0.863068496 25.7645347,0 24.6786924,0 L1.97427457,0 C0.888432232,-5.61893552e-05 0,0.863012306 0,1.91791126 L0,2.87689499 L0,6.7127737 L0,17.2613699 C0,18.1274164 0.59905551,18.8637779 1.41437717,19.0997732 C1.3895057,20.0697139 2.1449623,20.9117676 3.15890872,21.0013334 L25.9620027,23.4946237 C26.0113407,23.4946237 26.1100747,23.4946237 26.1594128,23.4946237 C27.146579,23.4946237 28.0350112,22.7753999 28.1336874,21.8644019 L29.6144077,6.47301372 C29.6637458,5.99349376 29.6081513,5.46604428 29.2626692,5.08249575 Z M0.720236283,3.35635875 L25.8583393,3.35635875 L25.8583393,6.54412269 L0.720236283,6.54412269 L0.720236283,3.35635875 Z M1.97427457,0.710846749 L24.5575807,0.710846749 C25.1005308,0.710846749 25.8867226,1.32046177 25.8583393,2.06118123 L25.8583393,2.68523913 L0.720236283,2.68523913 L0.720236283,1.7376235 C0.720236283,1.38597623 1.21804504,0.710846749 1.97427457,0.710846749 Z M0.802438993,17.2613699 L0.720236283,7.18743327 L25.8583393,7.18743327 L25.9620027,17.2613699 C25.9620027,17.7888194 25.2216425,18.5613972 24.6786924,18.5613972 L1.97427457,18.5613972 C1.38198641,18.5613972 0.802438993,17.7888194 0.802438993,17.2613699 Z M28.9425655,6.54412269 L27.3442339,21.8644019 C27.2948958,22.3918514 26.5048949,22.8591343 25.9620027,22.8112047 L3.31449703,20.3920402 C2.82094285,20.3441107 2.15688542,19.7558415 2.15688542,19.1792812 L24.6786346,19.1792812 C25.7644769,19.1792812 26.6529091,18.3162127 26.6529091,17.2613699 L26.6529091,6.71271751 L26.6529091,4.9838534 L27.7729397,5.08249575 C28.177368,5.08249575 28.6121518,5.23618527 28.7647227,5.47538848 C28.9172936,5.71459169 29.0233578,6.00606991 28.9425655,6.54412269 Z" id="Shape" fill="#95AABF" fill-rule="nonzero"></path>
                    <polygon id="Path-2" fill="#FF9500" fill-rule="nonzero" points="25.7338035 6.46468626 25.7338035 7.26005909 0.809484017 7.26005909 0.809484017 6.46468626"></polygon>
                    <polygon id="Path-2" fill="#FF9500" fill-rule="nonzero" points="25.7336684 2.58288808 25.7336684 3.40240733 0.800527911 3.40240733 0.800527911 2.58288808"></polygon>
                </g>
            </g>
        </g>
    </g>
</svg>