<?xml version="1.0" encoding="UTF-8"?>
<svg width="39px" height="36px" viewBox="0 0 39 36" version="1.1" xmlns="http://www.w3.org/2000/svg" xmlns:xlink="http://www.w3.org/1999/xlink">
    <!-- Generator: Sketch 49 (51002) - http://www.bohemiancoding.com/sketch -->
    <title>Using Bitcoin icon</title>
    <desc>Created with Sketch.</desc>
    <defs></defs>
    <g id="Support-bitcoin" stroke="none" stroke-width="1" fill="none" fill-rule="evenodd">
        <g id="22.01.18-Bitcoin.org_Support-Bitcoin_Desktop-1200px--" transform="translate(-380.000000, -679.000000)">
            <g id="//contenct" transform="translate(215.000000, 637.000000)">
                <g id="box1">
                    <g id="Using-Bitcoin-icon" transform="translate(155.000000, 30.000000)">
                        <g>
                            <rect id="Rectangle-2" x="0" y="0" width="60" height="60"></rect>
                            <g id="Group-2" transform="translate(10.000000, 12.000000)">
                                <path d="M18.9270652,35.226687 C19.0891023,35.310887 19.2662037,35.3535354 19.4444444,35.3535354 C19.6226852,35.3535354 19.8009259,35.310887 19.9618236,35.226687 C32.2561306,28.771554 38.8888889,18.1519922 38.8888889,11.4379228 C38.8888889,5.13047507 33.5590097,8.65813649e-16 27.0061306,8.65813649e-16 C22.4042788,8.65813649e-16 18.2616454,2.4228398 16.3183403,6.43958358 C16.0655372,6.96050275 16.3661224,7.25204801 16.4239148,7.29309585 C16.4817073,7.33414369 16.9822804,7.44610967 17.1862411,6.90916956 C17.8584789,5.13945896 19.5401691,3.34208756 21.7061148,2.22180024 C23.3626879,1.36497461 25.3741197,0.954592002 27.0061306,0.954592002 C30.2804186,0.954592002 33.5351105,2.4962917 35.5223016,4.94963418 C37.0120812,6.78888332 37.7943105,9.22676939 37.7943105,11.4379228 C37.7943105,14.2018727 36.47515,18.1185677 33.7830612,21.9124744 C31.8322804,24.6616705 29.2293788,27.5508585 26.1545146,29.979362 C24.100543,31.6015726 21.818248,32.9226724 19.4444444,34.2115509 C16.173792,32.4357408 13.0819078,30.3670577 10.560267,27.9885168 C7.45528689,25.0597405 4.92950936,21.899802 3.34751992,18.873724 C1.95939054,16.2184674 1.31802205,13.641016 1.31802205,11.6493666 C1.31802205,8.89626271 2.24280014,5.95233377 4.37519387,3.95487673 C6.23987876,2.20818806 9.12663143,1.07760705 11.8827582,1.07760705 C13.2362739,1.07760705 14.5094765,1.30525427 15.7398187,1.82312714 C16.2864405,2.05294083 16.9937581,2.32348251 17.1862411,1.91135363 C17.3787242,1.49922475 17.1878255,1.18538052 16.6412037,0.954592002 C15.1375506,0.32132488 13.5365488,0 11.8827582,0 C5.33101852,0 0,5.13035321 0,11.4379228 C0,18.1519922 6.63389757,28.771554 18.9270652,35.226687 Z" id="Shape" fill="#1C3C55" fill-rule="nonzero"></path>
                                <path d="M22.2099009,13.2443797 L22.7735644,10.966957 L21.3973317,10.6214742 L20.8485633,12.8388816 C20.4867682,12.748069 20.1151737,12.6623893 19.7459309,12.5774992 L20.2986191,10.3454828 L18.9231704,10 L18.3591149,12.276633 C18.0596442,12.2079313 17.7656612,12.1400193 17.4803016,12.0685536 L15.583915,11.5840881 L15.2178081,13.0647287 C15.2178081,13.0647287 16.2389092,13.3004467 16.2173505,13.3150556 C16.7747423,13.455223 16.8754805,13.826765 16.8586254,14.1213138 L16.2165665,16.715791 C16.2549803,16.725662 16.3047614,16.7398761 16.3596382,16.761987 C16.3137769,16.7505367 16.2647797,16.7379019 16.2142146,16.725662 L15.3142345,20.3601412 C15.2460305,20.530711 15.0731684,20.7865657 14.6835429,20.6894356 C14.6972621,20.7095723 13.6832166,20.4379242 13.6832166,20.4379242 L13,22.024776 L14.7909447,22.474496 C15.1241255,22.5585964 15.4506427,22.6466451 15.7720641,22.729561 L15.202521,25.033043 L16.5771857,25.3785258 L17.1412412,23.0995237 C17.5167555,23.2021815 17.8812945,23.2969425 18.2379939,23.3861758 L17.6758984,25.6545172 L19.052131,26 L19.6216741,23.7008613 C21.9684428,24.1482121 23.733125,23.9677714 24.4759222,21.8297263 C25.0744717,20.1082349 24.4461319,19.1152185 23.2114031,18.467685 C24.1105992,18.258816 24.7879362,17.6630062 24.9686378,16.4322977 C25.2183274,14.7510796 23.9475366,13.8472966 22.2099009,13.2443797 Z M17.4803016,21.4249164 L18.2379939,18.467685 C18.9852367,18.6926072 22.0153607,19.2360221 21.6593215,20.9577744 C21.3186668,22.6087179 18.2275444,21.6487025 17.4803016,21.4249164 Z M18.7054193,17.0862014 L19.488897,14.2105263 C20.0432414,14.4195628 22.4982607,14.6817227 22.2099009,16.4322977 C21.9330084,18.1105139 19.2597637,17.2952379 18.7054193,17.0862014 Z" id="path3096" stroke="#FF9500" stroke-width="0.7" transform="translate(19.000000, 18.000000) rotate(-13.000000) translate(-19.000000, -18.000000) "></path>
                            </g>
                        </g>
                    </g>
                </g>
            </g>
        </g>
    </g>
</svg>