<svg width="120" height="120" viewBox="0 0 120 120" version="1.1" xmlns="http://www.w3.org/2000/svg" xmlns:xlink="http://www.w3.org/1999/xlink">
<title>icon</title>
<desc>Created using Figma</desc>
<g id="Canvas" transform="matrix(2 0 0 2 -640 -176)">
<g id="icon">
<g id="credit-cards-payment">
<g id="credit-cards-payment">
<g id="credit-card-2">
<g id="Shape">
<use xlink:href="#path0_fill" transform="matrix(-1 0 0 1 349.031 118.968)" fill="#1C3C55"/>
</g>
<g id="Shape">
<use xlink:href="#path1_fill" transform="matrix(-1 0 0 1 362.064 113.677)" fill="#1C3C55"/>
</g>
<g id="Shape Copy">
<use xlink:href="#path1_fill" transform="matrix(-1 0 0 1 374.064 113.677)" fill="#1C3C55"/>
</g>
<g id="Shape">
<use xlink:href="#path2_fill" transform="matrix(-1 0 0 1 378.064 97.6774)" fill="#95AABF"/>
</g>
<g id="Path 2">
<use xlink:href="#path3_fill" transform="matrix(-1 0 0 1 376.53 107.926)" fill="#FF9500"/>
</g>
<g id="Path 2">
<use xlink:href="#path4_fill" transform="matrix(-1 0 0 1 376.547 100.571)" fill="#FF9500"/>
</g>
</g>
</g>
<g id="Shape Copy">
<use xlink:href="#path5_fill" transform="translate(358 118)" fill="#1C3C55"/>
</g>
</g>
</g>
</g>
<defs>
<path id="path0_fill" fill-rule="evenodd" d="M 14.6237 9.67741L 0.860199 9.67741C 0.344055 9.67741 -9.15345e-05 9.32544 1.82623e-08 8.79768L 1.82623e-08 0.879738C 1.82623e-08 0.351875 0.344055 0 0.860199 0L 14.6237 0C 15.1398 0 15.4839 0.351875 15.4839 0.879738L 15.4839 8.79768C 15.4839 9.32555 15.1398 9.67741 14.6237 9.67741ZM 13.9289 1.54033L 1.54007 1.42459L 1.54007 8.25104L 13.9289 8.25104L 13.9289 1.54033Z"/>
<path id="path1_fill" d="M 0.797862 3.52255L 8.53987 3.52255C 9.12051 3.52255 9.38392 3.11289 9.38392 2.76128C 9.38392 2.40966 9.12051 2 8.53987 2L 0.797862 2C 0.293547 2 4.1205e-17 2.40996 0 2.76128C 0 3.11259 0.399433 3.52255 0.797862 3.52255Z"/>
<path id="path2_fill" fill-rule="evenodd" d="M 55.4451 9.62999C 54.7905 8.81235 53.7736 8.35806 52.7448 8.26725L 50.5004 8.00301L 50.5004 5.45085L 50.5004 3.63393C 50.5004 1.63528 48.817 5.23214e-09 46.7596 5.23214e-09L 3.74072 5.23214e-09C 1.68335 -0.000106806 0 1.63518 0 3.63393L 0 5.45096L 0 12.7189L 0 32.7058C 0 34.3467 1.13504 35.7419 2.67987 36.189C 2.63275 38.0268 4.06415 39.6223 5.98529 39.792L 49.1912 44.5161L 49.5652 44.5161C 51.4356 44.5161 53.119 43.1534 53.3059 41.4273L 56.1115 12.2647C 56.205 11.3561 56.0996 10.3567 55.4451 9.62999ZM 1.36743 6.35941L 48.9975 6.35941L 48.9975 12.3994L 1.36743 12.3994L 1.36743 6.35941ZM 46.5322 1.34687L 3.7428 1.34687C 2.30994 1.34687 1.36673 2.62606 1.36673 3.29234L 1.36673 5.08782L 48.9968 5.08782L 48.9968 3.9054C 49.0506 2.50193 47.561 1.34687 46.5322 1.34687ZM 1.52264 32.7058L 1.36688 13.6183L 48.997 13.6183L 49.1934 32.7058C 49.1934 33.7051 47.7906 35.169 46.7618 35.169L 3.74295 35.169C 2.62073 35.169 1.52264 33.7051 1.52264 32.7058ZM 51.81 41.4273L 54.8384 12.3994C 54.9915 11.3799 54.7905 10.8277 54.5014 10.3744C 54.2123 9.9212 53.3885 9.63 52.6223 9.63L 50.5001 9.44309L 50.5001 12.7188L 50.5001 32.7058C 50.5001 34.7044 48.8167 36.3397 46.7594 36.3397L 4.08658 36.3397C 4.08658 37.4321 5.34479 38.5467 6.27994 38.6376L 49.191 43.2212C 50.2196 43.312 51.7165 42.4267 51.81 41.4273Z"/>
<path id="path3_fill" d="M 47.225 2L 47.225 3.50702L 0 3.50702L 0 2L 47.225 2Z"/>
<path id="path4_fill" d="M 47.2417 2L 47.2417 3.55277L 0 3.55277L 0 2L 47.2417 2Z"/>
<path id="path5_fill" d="M 0.850243 3.52255L 15.1005 3.52255C 15.7193 3.52255 16 3.1129 16 2.76128C 16 2.40966 15.7193 2 15.1005 2L 0.850243 2C 0.312819 2 0 2.40997 0 2.76128C 0 3.11259 0.425657 3.52255 0.850243 3.52255Z"/>
</defs>
</svg>
