<?xml version="1.0" encoding="UTF-8"?>
<svg width="38px" height="36px" viewBox="0 0 38 36" version="1.1" xmlns="http://www.w3.org/2000/svg" xmlns:xlink="http://www.w3.org/1999/xlink">
    <!-- Generator: Sketch 49 (51002) - http://www.bohemiancoding.com/sketch -->
    <title>visibility</title>
    <desc>Created with Sketch.</desc>
    <defs></defs>
    <g id="Symbols" stroke="none" stroke-width="1" fill="none" fill-rule="evenodd">
        <g id="Get-some-free-visibility.icon" transform="translate(-11.000000, -12.000000)" fill-rule="nonzero">
            <g id="visibility" transform="translate(11.000000, 12.000000)">
                <g id="Group-3" transform="translate(0.000000, 7.000000)">
                    <path d="M19,18.5580357 C23.17421,18.5580357 26.5580357,15.17421 26.558036,11.0005434 C26.5535009,6.8279234 23.1720766,3.44649914 19,3.44196429 C14.82579,3.44196429 11.4419643,6.82578998 11.4419643,11 C11.4419643,15.17421 14.82579,18.5580357 19,18.5580357 Z M19,19.5580357 C14.2735052,19.5580357 10.4419643,15.7264948 10.4419643,11 C10.4419643,6.27350523 14.2735052,2.44196429 19.0005434,2.44196458 C23.7245992,2.44709908 27.5529009,6.27540081 27.5580357,11 C27.5580357,15.7264948 23.7264948,19.5580357 19,19.5580357 Z" id="Path" fill="#95AABF"></path>
                    <path d="M19.5,11.5 L19.5,16.402951 L19.0377825,16.4379787 C18.6516187,16.4672429 18.3578563,16.4672429 18.1418436,16.4333731 C15.4837916,16.0166038 13.5,13.7178744 13.5,11 C13.5,7.96243388 15.9624339,5.5 19,5.5 C21.8838979,5.5 24.2724219,7.7273727 24.4847447,10.5875454 C24.4917085,10.6813539 24.4966338,10.8145468 24.4999134,10.9906923 L24.5093959,11.5 L19.5,11.5 Z M18.5,10.5 L23.472586,10.5 C23.2231589,8.23919855 21.3047795,6.5 19,6.5 C16.5147186,6.5 14.5,8.51471863 14.5,11 C14.5,13.223536 16.1234138,15.1046757 18.2967461,15.4454434 C18.3473536,15.4533784 18.4154438,15.4580529 18.5,15.4591474 L18.5,10.5 Z" id="Oval" fill="#FF9500"></path>
                    <path d="M20.8018397,0.953715994 C21.9902122,1.12174925 23.3077156,1.44429124 24.7320616,1.95748865 C28.6576091,3.37187863 32.7537332,5.98292773 36.8467997,10.0759943 C37.356552,10.5859098 37.356552,11.4124786 36.8467431,11.9224507 C32.9476046,15.8215892 29.0363725,18.380186 25.2596933,19.8403685 C22.7543901,20.8089972 20.6761337,21.1696429 19.1676071,21.1696429 L18.8323929,21.1696429 C17.3255518,21.1696429 15.246249,20.8082303 12.7408872,19.8388095 C8.96434453,18.3775199 5.05312462,15.8177638 1.15400609,11.9175593 C0.644253829,11.4076438 0.644253829,10.5810749 1.15418131,10.0709843 C5.24114948,5.98675728 9.33188052,3.37901734 13.2537431,1.96376701 C14.6778447,1.44986315 15.995694,1.12618443 17.185461,0.956688268 C17.9623087,0.84601728 18.5762769,0.814571581 18.9984045,0.828129801 C19.4126113,0.813562206 20.0269664,0.844150609 20.8018397,0.953715994 Z M19.0186951,1.82806293 C18.6167054,1.81509069 18.0551583,1.84288645 17.3264986,1.9466925 C16.2033909,2.10669227 14.9520134,2.41404476 13.5931801,2.9043958 C9.81002942,4.26959031 5.84459259,6.79745828 1.86122605,10.778153 C1.74184717,10.8975701 1.74184717,11.0911486 1.86121869,11.2105583 C5.66236529,15.0127637 9.4557957,17.4954306 13.1017529,18.9061917 C15.4878129,19.82945 17.4450328,20.1696429 18.8323929,20.1696429 L19.1676071,20.1696429 C20.5567825,20.1696429 22.5130536,19.8301657 24.8990768,18.9076544 C28.5451187,17.4979803 32.3385079,15.0164724 36.1395798,11.2154005 C36.2589586,11.0959834 36.2589586,10.902405 36.1396363,10.7830445 C32.1502024,6.79361054 28.1796182,4.26258603 24.3930891,2.89828492 C23.0341904,2.40866846 21.7833515,2.10244681 20.6618346,1.94386677 C19.9354166,1.84115287 19.3740767,1.81419184 19.0186951,1.82806293 Z" id="Path" fill="#95AABF"></path>
                </g>
                <g id="Group-2" transform="translate(2.000000, 0.000000)" fill="#1C3C55">
                    <path d="M0.5,5.99607431 L-0.5,5.99607431 L-0.5,3 C-0.5,1.61928813 0.619288125,0.5 2,0.5 L5.11713436,0.5 L5.11713436,1.5 L2,1.5 C1.17157288,1.5 0.5,2.17157288 0.5,3 L0.5,5.99607431 Z" id="Path-2"></path>
                    <path d="M21.0327933,5.99607431 L20.0327933,5.99607431 L20.0327933,3 C20.0327933,1.61928813 21.1520814,0.5 22.5327933,0.5 L34.1171344,0.5 L34.1171344,1.5 L22.5327933,1.5 C21.7043662,1.5 21.0327933,2.17157288 21.0327933,3 L21.0327933,5.99607431 Z" id="Path-2-Copy" transform="translate(27.074964, 3.248037) scale(-1, 1) translate(-27.074964, -3.248037) "></path>
                    <polygon id="Path-3" points="16.9743375 0.526332905 16.9743375 1.5263329 12.3714708 1.5263329 12.3714708 0.526332905"></polygon>
                </g>
                <g id="Group" transform="translate(19.500000, 33.000000) scale(-1, -1) translate(-19.500000, -33.000000) translate(2.000000, 30.000000)" fill="#1C3C55">
                    <path d="M0.5,5.99607431 L-0.5,5.99607431 L-0.5,3 C-0.5,1.61928813 0.619288125,0.5 2,0.5 L5.11713436,0.5 L5.11713436,1.5 L2,1.5 C1.17157288,1.5 0.5,2.17157288 0.5,3 L0.5,5.99607431 Z" id="Path-2"></path>
                    <path d="M21.0327933,5.99607431 L20.0327933,5.99607431 L20.0327933,3 C20.0327933,1.61928813 21.1520814,0.5 22.5327933,0.5 L34.1171344,0.5 L34.1171344,1.5 L22.5327933,1.5 C21.7043662,1.5 21.0327933,2.17157288 21.0327933,3 L21.0327933,5.99607431 Z" id="Path-2-Copy" transform="translate(27.074964, 3.248037) scale(-1, 1) translate(-27.074964, -3.248037) "></path>
                    <polygon id="Path-3" points="16.9743375 0.526332905 16.9743375 1.5263329 12.3714708 1.5263329 12.3714708 0.526332905"></polygon>
                </g>
            </g>
        </g>
    </g>
</svg>