<?xml version="1.0" encoding="UTF-8"?>
<svg width="52px" height="23px" viewBox="0 0 52 23" version="1.1" xmlns="http://www.w3.org/2000/svg" xmlns:xlink="http://www.w3.org/1999/xlink">
    <!-- Generator: Sketch 49 (51002) - http://www.bohemiancoding.com/sketch -->
    <title>translate icon</title>
    <desc>Created with Sketch.</desc>
    <defs></defs>
    <g id="Support-bitcoin" stroke="none" stroke-width="1" fill="none" fill-rule="evenodd">
        <g id="22.01.18-Bitcoin.org_Support-Bitcoin_Desktop-1200px--" transform="translate(-374.000000, -1110.000000)">
            <g id="//contenct" transform="translate(215.000000, 637.000000)">
                <g id="box4" transform="translate(0.000000, 425.000000)">
                    <g id="translate-icon" transform="translate(155.000000, 30.000000)">
                        <g>
                            <rect id="Rectangle-2" x="0" y="0" width="60" height="60"></rect>
                            <g id="translation" transform="translate(4.000000, 18.000000)" fill-rule="nonzero">
                                <path d="M15.080496,17.5320837 L3.29718679,17.5320837 C1.75267006,17.5320837 0.5,16.2605535 0.5,14.7003663 L0.5,3.33171741 C0.5,1.77149994 1.75270018,0.5 3.29718679,0.5 L22.4528929,0.5 C23.9974395,0.5 25.2500967,1.77148677 25.25,3.33163654 L25.25,14.7002854 C25.25,16.2605029 23.9972998,17.5320029 22.4528132,17.5320029 L22.2914089,17.5320029 L22.2914089,21.2731066 C22.2914089,21.8686113 21.937026,22.4068618 21.3911647,22.6364948 C21.2121294,22.7117885 21.0212806,22.75 20.8292214,22.75 C20.4415843,22.75 20.0681735,22.5947345 19.7923542,22.3147692 L15.080496,17.5320837 Z M22.4528929,1.5 L3.29718679,1.5 C2.30834669,1.5 1.5,2.32047786 1.5,3.33171741 L1.5,14.7003663 C1.5,15.7115861 2.30832746,16.5320837 3.29718679,16.5320837 L15.4990861,16.5320837 L20.504716,21.6129568 C20.5919848,21.7015374 20.7085366,21.75 20.8292214,21.75 C20.8886286,21.75 20.9476473,21.7381834 21.0034495,21.7147156 C21.1768149,21.6417842 21.2914089,21.4677344 21.2914089,21.2731066 L21.2914089,16.5320029 L22.4528132,16.5320029 C23.4416533,16.5320029 24.25,15.711525 24.25,14.7002854 L24.25,3.33160555 C24.2500627,2.32043521 23.4417774,1.5 22.4528929,1.5 Z" id="Path" fill="#1C3C55" transform="translate(12.875000, 11.625000) scale(-1, 1) translate(-12.875000, -11.625000) "></path>
                                <path d="M9.39444069,13.4191604 C9.47456074,13.456121 9.55749352,13.4735588 9.63914779,13.4735588 C9.88982128,13.4735588 10.1277949,13.3084683 10.2299053,13.0349602 L11.0769618,10.7644449 L14.2683822,10.7644449 L15.1409237,13.0413098 C15.2792587,13.4024808 15.6547149,13.5705091 15.9796273,13.4166016 C16.3044544,13.2626941 16.4554892,12.8452293 16.3170691,12.4840584 L15.2813895,9.78148368 C15.2801962,9.77835625 15.2790882,9.77532359 15.2778097,9.77219615 L13.2314242,4.43215418 C13.1309332,4.16992378 12.8994373,4 12.6433941,4 C12.6423713,4 12.6413485,4 12.6403257,4 C12.3830039,4.00142156 12.1515934,4.17418846 12.0528923,4.43840904 L10.0622499,9.77437588 C10.0614828,9.77646083 10.0607156,9.77854579 10.0599485,9.78053597 L9.04890165,12.4902185 C8.91372036,12.852811 9.06842026,13.2686646 9.39444069,13.4191604 Z M12.6512356,6.54459203 L13.7235659,9.34279033 L11.6072884,9.34279033 L12.6512356,6.54459203 Z" id="Shape" fill="#95AABF"></path>
                                <path d="M29.2971868,17.5320837 C27.7526701,17.5320837 26.5,16.2605535 26.5,14.7003663 L26.5,3.33171741 C26.5,1.77149994 27.7527002,0.5 29.2971868,0.5 L48.4528929,0.5 C49.9974395,0.5 51.2500967,1.77148677 51.25,3.33163654 L51.25,14.7002854 C51.25,16.2605029 49.9972998,17.5320029 48.4528132,17.5320029 L48.2914089,17.5320029 L48.2914089,21.2731066 C48.2914089,21.8686113 47.937026,22.4068618 47.3911647,22.6364948 C47.2121294,22.7117885 47.0212806,22.75 46.8292214,22.75 C46.4415843,22.75 46.0681735,22.5947345 45.7923542,22.3147692 L41.080496,17.5320837 L29.2971868,17.5320837 Z M48.4528929,1.5 L29.2971868,1.5 C28.3083467,1.5 27.5,2.32047786 27.5,3.33171741 L27.5,14.7003663 C27.5,15.7115861 28.3083275,16.5320837 29.2971868,16.5320837 L41.4990861,16.5320837 L46.504716,21.6129568 C46.5919848,21.7015374 46.7085366,21.75 46.8292214,21.75 C46.8886286,21.75 46.9476473,21.7381834 47.0034495,21.7147156 C47.1768149,21.6417842 47.2914089,21.4677344 47.2914089,21.2731066 L47.2914089,16.5320029 L48.4528132,16.5320029 C49.4416533,16.5320029 50.25,15.711525 50.25,14.7002854 L50.25,3.33160555 C50.2500627,2.32043521 49.4417774,1.5 48.4528929,1.5 Z" id="Path" fill="#FF9500"></path>
                                <g id="Group-4" transform="translate(33.000000, 3.000000)" fill="#95AABF">
                                    <path d="M0.950553353,8.3230704 C0.570836102,8.3230704 0.263157895,8.63956676 0.263157895,9.02995625 C0.263157895,9.42034575 0.570836102,9.73684211 0.950553353,9.73684211 L6.79039021,9.73684211 C7.17010746,9.73684211 7.47778567,9.42034575 7.47778567,9.02995625 C7.47778567,8.63956676 7.17010746,8.3230704 6.79039021,8.3230704 L4.55791307,8.3230704 L4.55791307,7.68234906 L6.79039021,7.68234906 C7.17010746,7.68234906 7.47778567,7.3658527 7.47778567,6.97546321 C7.47778567,6.58507371 7.17010746,6.26857735 6.79039021,6.26857735 L4.55791307,6.26857735 L4.55791307,4.83765188 L5.70513026,4.83765188 L5.9266549,5.29326338 C6.04699494,5.54095618 6.28987466,5.68412413 6.54201132,5.68412413 C6.64530394,5.68412413 6.75015466,5.66009001 6.8489563,5.60938273 C7.18843801,5.43482905 7.32610041,5.01022628 7.15635955,4.66102467 L6.23983228,2.77599573 C6.07018308,2.42679412 5.65737919,2.28522844 5.31753088,2.45987637 C4.97804917,2.63443005 4.84038677,3.05903282 5.01012763,3.40823443 L5.0177348,3.42388017 L2.32919369,3.42388017 L3.36606099,1.6769296 L6.94418349,1.6769296 C7.32390074,1.6769296 7.63157895,1.36043324 7.63157895,0.970043748 C7.63157895,0.579654254 7.32390074,0.263157895 6.94418349,0.263157895 L1.18124327,0.263157895 C0.801526018,0.263157895 0.493847811,0.579654254 0.493847811,0.970043748 C0.493847811,1.36043324 0.801526018,1.6769296 1.18124327,1.6769296 L1.75553926,1.6769296 L0.51767752,3.76252562 C0.388172215,3.98071772 0.383222968,4.25376417 0.504937791,4.47676309 C0.626560961,4.69966776 0.855784433,4.83774613 1.10434663,4.83774613 L3.1832138,4.83774613 L3.1832138,6.2686716 L0.950736659,6.2686716 C0.571019407,6.2686716 0.2633412,6.58516796 0.2633412,6.97555746 C0.2633412,7.36594695 0.571019407,7.68244331 0.950736659,7.68244331 L3.1832138,7.68244331 L3.1832138,8.32316465 L0.950553353,8.32316465 L0.950553353,8.3230704 Z" id="Shape"></path>
                                    <path d="M8.15789474,7.63157895 C8.44863158,7.63157895 8.68421053,7.35016579 8.68421053,7.00305046 L8.68421053,1.94431796 C8.68421053,1.59720263 8.44863158,1.31578947 8.15789474,1.31578947 C7.86715789,1.31578947 7.63157895,1.59720263 7.63157895,1.94431796 L7.63157895,7.00305046 C7.63157895,7.35016579 7.86722807,7.63157895 8.15789474,7.63157895 Z" id="Shape"></path>
                                    <path d="M7.28070175,10.7894737 L7.36135673,10.7894737 C9.25160234,10.7894737 10.7894737,9.35963462 10.7894737,7.60217486 L10.7894737,0.915615485 C10.7894737,0.555284906 10.4753684,0.263157895 10.0877193,0.263157895 C9.70007018,0.263157895 9.38596491,0.555284906 9.38596491,0.915615485 L9.38596491,7.60217486 C9.38596491,8.64010439 8.4777076,9.4845585 7.36135673,9.4845585 L7.28070175,9.4845585 C6.89305263,9.4845585 6.57894737,9.77668552 6.57894737,10.1370161 C6.57894737,10.4973467 6.8931462,10.7894737 7.28070175,10.7894737 Z" id="Shape"></path>
                                </g>
                            </g>
                        </g>
                    </g>
                </g>
            </g>
        </g>
    </g>
</svg>