<?xml version="1.0" encoding="UTF-8"?>
<svg width="11px" height="13px" viewBox="0 0 11 13" version="1.1" xmlns="http://www.w3.org/2000/svg" xmlns:xlink="http://www.w3.org/1999/xlink">
    <!-- Generator: Sketch 49 (51002) - http://www.bohemiancoding.com/sketch -->
    <title>lock - FontAwesome</title>
    <desc>Created with Sketch.</desc>
    <defs></defs>
    <g id="Home" stroke="none" stroke-width="1" fill="none" fill-rule="evenodd">
        <g id="19/01/18-Bitcoin.org-ver3-Desktop-1200px--" transform="translate(-775.000000, -2653.000000)" fill="#5B6A77">
            <g id="//Content" transform="translate(0.000000, 585.000000)">
                <g id="Recommended" transform="translate(406.000000, 1762.000000)">
                    <g id="wallets" transform="translate(0.000000, 237.000000)">
                        <g id="row-">
                            <g id="Container" transform="translate(269.000000, 0.000000)">
                                <path d="M102.857146,75.142849 L107.42858,75.142849 L107.42858,73.4285612 C107.42858,72.1696311 106.401793,71.1428442 105.142863,71.1428442 C103.883933,71.1428442 102.857146,72.1696311 102.857146,73.4285612 L102.857146,75.142849 Z M110.285727,75.9999928 L110.285727,81.1428561 C110.285727,81.616071 109.901798,82 109.428583,82 L100.857144,82 C100.383929,82 100,81.616071 100,81.1428561 L100,75.9999928 C100,75.526778 100.383929,75.142849 100.857144,75.142849 L101.142859,75.142849 L101.142859,73.4285612 C101.142859,71.23213 102.946432,69.4285564 105.142863,69.4285564 C107.339294,69.4285564 109.142868,71.23213 109.142868,73.4285612 L109.142868,75.142849 L109.428583,75.142849 C109.901798,75.142849 110.285727,75.526778 110.285727,75.9999928 Z" id="lock---FontAwesome"></path>
                            </g>
                        </g>
                    </g>
                </g>
            </g>
        </g>
    </g>
</svg>