<?xml version="1.0" encoding="UTF-8"?>
<svg width="35px" height="44px" viewBox="0 0 35 44" version="1.1" xmlns="http://www.w3.org/2000/svg" xmlns:xlink="http://www.w3.org/1999/xlink">
    <!-- Generator: Sketch 49 (51002) - http://www.bohemiancoding.com/sketch -->
    <title>icon/security</title>
    <desc>Created with Sketch.</desc>
    <defs></defs>
    <g id="Template-4--For-Individuals" stroke="none" stroke-width="1" fill="none" fill-rule="evenodd">
        <g id="22.01.18-Bitcoin.org_Bitcoin-for-individuals_Desktop-1200px--" transform="translate(-782.000000, -605.000000)">
            <g id="//contenct" transform="translate(215.000000, 555.000000)">
                <g id="box2" transform="translate(400.000000, 0.000000)">
                    <g id="icon" transform="translate(155.000000, 42.000000)">
                        <g id="icon/security">
                            <g id="icon">
                                <rect id="Rectangle-3" x="0" y="0" width="60" height="60"></rect>
                                <path d="M29.8046875,33 C30.5935098,33 31.2581557,33.2702406 31.798645,33.81073 C32.3391344,34.3512193 32.609375,35.0158652 32.609375,35.8046875 C32.609375,36.330569 32.4779066,36.8053161 32.2149658,37.2289429 C31.9520251,37.6525697 31.6160502,37.9812407 31.2070313,38.2149658 L31.2070313,42.8164063 C31.2070313,43.1962096 31.068259,43.5248806 30.7907104,43.8024292 C30.5131619,44.0799778 30.1844908,44.21875 29.8046875,44.21875 C29.4248842,44.21875 29.0962131,44.0799778 28.8186646,43.8024292 C28.541116,43.5248806 28.4023438,43.1962096 28.4023438,42.8164063 L28.4023438,38.2149658 C27.9933248,37.9812407 27.6573499,37.6525697 27.3944092,37.2289429 C27.1314684,36.8053161 27,36.330569 27,35.8046875 C27,35.0158652 27.2702406,34.3512193 27.81073,33.81073 C28.3512193,33.2702406 29.0158652,33 29.8046875,33 Z" id="Path" stroke="#FF9500"></path>
                                <path d="M20,25.7346513 L20,18.9136914 C20,13.4385108 24.4385108,9 29.9136914,9 L29.9136914,9 C35.3888719,9 39.8273827,13.4385108 39.8273827,18.9136914 L39.8273827,25.7346513" id="Path-2" stroke="#95AABF"></path>
                                <rect id="Rectangle-2" stroke="#1C1F30" x="12.5" y="25.5" width="34" height="26" rx="5"></rect>
                            </g>
                        </g>
                    </g>
                </g>
            </g>
        </g>
    </g>
</svg>