<?xml version="1.0" encoding="UTF-8"?>
<svg width="41px" height="41px" viewBox="0 0 41 41" version="1.1" xmlns="http://www.w3.org/2000/svg" xmlns:xlink="http://www.w3.org/1999/xlink">
    <!-- Generator: Sketch 49 (51002) - http://www.bohemiancoding.com/sketch -->
    <title>icon/chartsandstatistics</title>
    <desc>Created with Sketch.</desc>
    <defs></defs>
    <g id="Template-3---Bitcoin-resources" stroke="none" stroke-width="1" fill="none" fill-rule="evenodd">
        <g id="22.01.18-Bitcoin.org_Bitcoin-resources_Desktop-1200px--" transform="translate(-378.000000, -1144.000000)">
            <g id="//contenct" transform="translate(215.000000, 555.000000)">
                <g id="box4" transform="translate(0.000000, 530.000000)">
                    <g id="icon" transform="translate(155.000000, 48.000000)">
                        <g id="icon/chartsandstatistics">
                            <g id="pie-chart" transform="translate(0.356122, 0.250000)">
                                <rect id="Rectangle-2" x="0" y="0" width="60" height="60"></rect>
                                <g id="Group" transform="translate(8.000000, 9.000000)">
                                    <path d="M18.5,42 C28.1649831,42 36,34.1649831 36,24.5 C36,14.8350169 28.1649831,7 18.5,7 C8.83501688,7 1,14.8350169 1,24.5" id="Oval" stroke="#1C1F30" stroke-linecap="round" stroke-linejoin="round" transform="translate(18.500000, 24.500000) rotate(-179.000000) translate(-18.500000, -24.500000) "></path>
                                    <path d="M21.9218039,13.5087761 L32.5661657,24.9234566 C32.6910524,24.7875165 32.7839672,24.6853781 32.8449101,24.6170414 C35.8478584,21.2497621 37.3447692,17.5792652 37.3447692,13.1198981 C37.3447692,9.3075345 36.0148912,5.6844204 33.9453138,2.81006182 C33.8716663,2.70777558 33.7969418,2.60631661 33.7211568,2.50570152 C33.6706335,2.4386248 29.7375159,6.10631633 21.9218039,13.5087761 Z" id="Oval" stroke="#FF9500" stroke-linecap="round" stroke-linejoin="round" transform="translate(29.633287, 13.714127) rotate(-407.000000) translate(-29.633287, -13.714127) "></path>
                                    <path d="M18.4566144,14.3819684 C18.0569666,14.3819684 17.7292555,14.7016866 17.7292555,15.1093273 C17.7292555,15.5089751 18.0569666,15.8366862 18.4566144,15.8366862 C18.8562622,15.8366862 19.1839733,15.5089751 19.1839733,15.1093273 C19.1839733,14.7016866 18.8642551,14.3819684 18.4566144,14.3819684 Z" id="Shape" fill="#000000" fill-rule="nonzero"></path>
                                    <path d="M18.4566144,9.60218109 C18.0569666,9.60218109 17.7292555,9.9218993 17.7292555,10.32954 C17.7292555,10.7291878 18.0569666,11.048906 18.4566144,11.048906 C18.8562622,11.048906 19.1839733,10.7211948 19.1839733,10.32954 C19.1839733,9.9218993 18.8642551,9.60218109 18.4566144,9.60218109 Z" id="Shape" fill="#000000" fill-rule="nonzero"></path>
                                    <path d="M18.4566144,16.771862 C18.0569666,16.771862 17.7292555,17.0995732 17.7292555,17.4992209 C17.7292555,17.8988687 18.0569666,18.2265799 18.4566144,18.2265799 C18.8562622,18.2265799 19.1839733,17.9068617 19.1839733,17.4992209 C19.1839733,17.0995732 18.8642551,16.771862 18.4566144,16.771862 Z" id="Shape" fill="#000000" fill-rule="nonzero"></path>
                                    <path d="M18.4566144,11.9920747 C18.0569666,11.9920747 17.7292555,12.3197859 17.7292555,12.7194337 C17.7292555,13.1190814 18.0569666,13.4467926 18.4566144,13.4467926 C18.8562622,13.4467926 19.1839733,13.1190814 19.1839733,12.7194337 C19.1839733,12.3117929 18.8642551,11.9920747 18.4566144,11.9920747 Z" id="Shape" fill="#000000" fill-rule="nonzero"></path>
                                    <path d="M18.4566144,21.5516493 C18.0569666,21.5516493 17.7292555,21.8793604 17.7292555,22.2790082 C17.7292555,22.678656 18.0569666,23.0063671 18.4566144,23.0063671 C18.8562622,23.0063671 19.1839733,22.6866489 19.1839733,22.2790082 C19.1839733,21.8793604 18.8642551,21.5516493 18.4566144,21.5516493 Z" id="Shape" fill="#000000" fill-rule="nonzero"></path>
                                    <path d="M18.4566144,19.1617556 C18.0569666,19.1617556 17.7292555,19.4814739 17.7292555,19.8891146 C17.7292555,20.2887623 18.0569666,20.6164735 18.4566144,20.6164735 C18.8562622,20.6164735 19.1839733,20.2887623 19.1839733,19.8891146 C19.1839733,19.4894668 18.8642551,19.1617556 18.4566144,19.1617556 Z" id="Shape" fill="#000000" fill-rule="nonzero"></path>
                                    <path d="M18.4566144,23.9415429 C18.2647835,23.9415429 18.0809455,24.0214725 17.9450653,24.1573527 C17.809185,24.293233 17.7292555,24.4770709 17.7292555,24.6689019 C17.7292555,24.8607328 17.809185,25.0445708 17.9450653,25.180451 C18.0809455,25.3163312 18.2647835,25.3882678 18.4566144,25.3882678 C18.6484453,25.3882678 18.8322833,25.3083383 18.9681635,25.180451 C19.1040438,25.0445708 19.1839733,24.8607328 19.1839733,24.6689019 C19.1839733,24.4770709 19.1040438,24.293233 18.9681635,24.1573527 C18.8402763,24.0214725 18.6484453,23.9415429 18.4566144,23.9415429 Z" id="Shape" fill="#000000" fill-rule="nonzero"></path>
                                    <path d="M33.5313281,24.6689019 C33.5313281,24.2692541 33.2116099,23.9415429 32.8039692,23.9415429 C32.4043214,23.9415429 32.0766103,24.2692541 32.0766103,24.6689019 C32.0766103,25.0685496 32.4043214,25.3962608 32.8039692,25.3962608 C33.203617,25.3962608 33.5313281,25.0685496 33.5313281,24.6689019 Z" id="Shape" fill="#000000" fill-rule="nonzero"></path>
                                    <path d="M23.9637606,24.6689019 C23.9637606,24.2692541 23.6360494,23.9415429 23.2364017,23.9415429 C22.8367539,23.9415429 22.5090427,24.2692541 22.5090427,24.6689019 C22.5090427,25.0685496 22.828761,25.3962608 23.2364017,25.3962608 C23.6440424,25.3962608 23.9637606,25.0685496 23.9637606,24.6689019 Z" id="Shape" fill="#000000" fill-rule="nonzero"></path>
                                    <path d="M26.3616472,24.6689019 C26.3616472,24.2692541 26.033936,23.9415429 25.6342883,23.9415429 C25.2346405,23.9415429 24.9069293,24.2692541 24.9069293,24.6689019 C24.9069293,25.0685496 25.2266476,25.3962608 25.6342883,25.3962608 C26.033936,25.3962608 26.3616472,25.0685496 26.3616472,24.6689019 Z" id="Shape" fill="#000000" fill-rule="nonzero"></path>
                                    <path d="M28.7515408,24.6689019 C28.7515408,24.2692541 28.4238297,23.9415429 28.0241819,23.9415429 C27.6245341,23.9415429 27.296823,24.2692541 27.296823,24.6689019 C27.296823,25.0685496 27.6165412,25.3962608 28.0241819,25.3962608 C28.4238297,25.3962608 28.7515408,25.0685496 28.7515408,24.6689019 Z" id="Shape" fill="#000000" fill-rule="nonzero"></path>
                                    <path d="M30.4140755,25.3962608 C30.8137233,25.3962608 31.1414345,25.0765426 31.1414345,24.6689019 C31.1414345,24.2692541 30.8137233,23.9415429 30.4140755,23.9415429 C30.0144278,23.9415429 29.6867166,24.2692541 29.6867166,24.6689019 C29.6947096,25.0685496 30.0144278,25.3962608 30.4140755,25.3962608 Z" id="Shape" fill="#000000" fill-rule="nonzero"></path>
                                    <path d="M21.573867,24.6689019 C21.573867,24.2692541 21.2541488,23.9415429 20.846508,23.9415429 C20.4468603,23.9415429 20.1191491,24.2692541 20.1191491,24.6689019 C20.1191491,25.0685496 20.4468603,25.3962608 20.846508,25.3962608 C21.2541488,25.3962608 21.573867,25.0685496 21.573867,24.6689019 Z" id="Shape" fill="#000000" fill-rule="nonzero"></path>
                                </g>
                            </g>
                        </g>
                    </g>
                </g>
            </g>
        </g>
    </g>
</svg>