<?xml version="1.0" encoding="UTF-8"?>
<svg width="51px" height="45px" viewBox="0 0 51 45" version="1.1" xmlns="http://www.w3.org/2000/svg" xmlns:xlink="http://www.w3.org/1999/xlink">
    <!-- Generator: Sketch 49 (51002) - http://www.bohemiancoding.com/sketch -->
    <title>icon/fees</title>
    <desc>Created with Sketch.</desc>
    <defs></defs>
    <g id="Template-4--For-Individuals" stroke="none" stroke-width="1" fill="none" fill-rule="evenodd">
        <g id="22.01.18-Bitcoin.org_Bitcoin-for-individuals_Desktop-1200px--" transform="translate(-776.000000, -1137.000000)">
            <g id="//contenct" transform="translate(215.000000, 555.000000)">
                <g id="box2" transform="translate(400.000000, 530.000000)">
                    <g id="icon" transform="translate(155.000000, 42.000000)">
                        <g id="icon/fees">
                            <g id="Group-2">
                                <g>
                                    <rect id="Rectangle-2" x="0" y="0" width="60" height="60"></rect>
                                    <path d="M8.09933945,42.7626848 L18.6313675,52.8644126 L36.4902278,33.5940487 L36.4902278,23.4852189 L25.9647815,23.4852189 L8.09933945,42.7626848 Z M38,22 L38,34.1694537 L18.6952367,55 L6,42.8234444 L25.2981816,22 L38,22 Z M30.451139,32.3965323 C29.674845,32.3965323 28.9678439,32.0803945 28.3604013,31.4828307 C27.7529587,30.8852668 27.4315945,30.1897636 27.4315945,29.4260945 C27.4315945,28.6624253 27.7529587,27.9669221 28.3604013,27.3693583 C28.9678439,26.7717945 29.674845,26.4556567 30.451139,26.4556567 C31.2274329,26.4556567 31.934434,26.7717945 32.5418766,27.3693583 C33.1493192,27.9669221 33.4706834,28.6624253 33.4706834,29.4260945 C33.4706834,30.1897636 33.1493192,30.8852668 32.5418766,31.4828307 C31.934434,32.0803945 31.2274329,32.3965323 30.451139,32.3965323 Z M30.451139,30.9113134 C30.8071798,30.9113134 31.1381367,30.7633249 31.4743065,30.4326223 C31.8104762,30.1019197 31.9609112,29.7763451 31.9609112,29.4260945 C31.9609112,29.0758439 31.8104762,28.7502693 31.4743065,28.4195667 C31.1381367,28.088864 30.8071798,27.9408756 30.451139,27.9408756 C30.0950981,27.9408756 29.7641412,28.088864 29.4279715,28.4195667 C29.0918017,28.7502693 28.9413667,29.0758439 28.9413667,29.4260945 C28.9413667,29.7763451 29.0918017,30.1019197 29.4279715,30.4326223 C29.7641412,30.7633249 30.0950981,30.9113134 30.451139,30.9113134 Z" id="ion-ios-pricetag---Ionicons" fill="#95AABF" fill-rule="nonzero"></path>
                                    <path d="M31,31 C33.3817101,17.6364469 35.8692841,11.998065 38.4627219,14.0848542 C42.3528787,17.215038 44.8393342,15.1561481 47.7422336,11.7662862 C50.6451329,8.37642432 58.6014859,17.0205821 55.1459734,22.3149521 C52.8422984,25.8445322 47.1931239,28.7395481 38.1984501,31" id="Path-2" stroke="#FF9500"></path>
                                    <path d="M31,31 C33.6730562,18.4396762 36.3002121,13.1132996 38.8814676,15.0208701 C42.7533509,17.882226 44.8829492,15.8191697 47.3796684,12.7294385 C49.8763876,9.63970727 56.193249,17.0667471 53.2212395,21.8923656 C51.2398999,25.1094446 46.2137667,28.1453227 38.1428401,31" id="Path-2" stroke="#1C1F30"></path>
                                </g>
                            </g>
                        </g>
                    </g>
                </g>
            </g>
        </g>
    </g>
</svg>