<?xml version="1.0" encoding="UTF-8"?>
<svg width="35px" height="34px" viewBox="0 0 35 34" version="1.1" xmlns="http://www.w3.org/2000/svg" xmlns:xlink="http://www.w3.org/1999/xlink">
    <!-- Generator: Sketch 49 (51002) - http://www.bohemiancoding.com/sketch -->
    <title>organizations icon</title>
    <desc>Created with Sketch.</desc>
    <defs></defs>
    <g id="Support-bitcoin" stroke="none" stroke-width="1" fill="none" fill-rule="evenodd">
        <g id="22.01.18-Bitcoin.org_Support-Bitcoin_Desktop-1200px--" transform="translate(-383.000000, -1531.000000)">
            <g id="//contenct" transform="translate(215.000000, 637.000000)">
                <g id="box7" transform="translate(0.000000, 849.000000)">
                    <g id="organizations-icon" transform="translate(155.000000, 31.000000)">
                        <g>
                            <rect id="Rectangle-2" x="0" y="0" width="60" height="60"></rect>
                            <g id="hierarchical-structure" transform="translate(14.000000, 14.000000)">
                                <path d="M3.921875,5.46875 C5.42307536,5.46875 6.65625,4.23557536 6.65625,2.734375 C6.65625,1.23317464 5.42307536,0 3.921875,0 C2.42067464,0 1.1875,1.23317464 1.1875,2.734375 C1.1875,4.23557536 2.42067464,5.46875 3.921875,5.46875 Z M3.921875,1.07231649 C4.83333333,1.07231649 5.58393351,1.82291667 5.58393351,2.734375 C5.58393351,3.64583333 4.83333333,4.39643351 3.921875,4.39643351 C3.01041667,4.39643351 2.25981649,3.64583333 2.25981649,2.734375 C2.25981649,1.82291667 3.01041667,1.07231649 3.921875,1.07231649 Z" id="Shape" fill="#1C3C55" fill-rule="nonzero"></path>
                                <polygon id="Path-11" fill="#95AABF" fill-rule="nonzero" points="10.8946761 18.1930297 10.1053239 18.8069703 3.10532389 9.80697031 3.89467611 9.19302969"></polygon>
                                <polygon id="Path-12" fill="#95AABF" fill-rule="nonzero" points="16.9588224 16.5933886 15.9588224 16.5933886 15.9588224 9.08573799 16.9588224 9.08573799"></polygon>
                                <polygon id="Path-13" fill="#95AABF" fill-rule="nonzero" points="22.3790213 18.8187557 21.6209787 18.1665506 29.4796745 9.03257585 30.237717 9.684781"></polygon>
                                <path d="M0.0606188662,9.32764661 L0.0606188662,7.33009624 C0.0606188662,6.35831692 0.856065408,5.54851277 1.81061534,5.54851277 L5.3106083,5.54851277 C6.26515824,5.54851277 7.06060478,6.35831692 7.06060478,7.33009624 L7.06060478,9.32764661 L0.0606188662,9.32764661 Z" id="Path" stroke="#1C3C55"></path>
                                <path d="M12.9999718,9.32764661 L12.9999718,7.33009624 C12.9999718,6.35831692 13.7954184,5.54851277 14.7499683,5.54851277 L18.2499613,5.54851277 C19.2045112,5.54851277 19.9999577,6.35831692 19.9999577,7.33009624 L19.9999577,9.32764661 L12.9999718,9.32764661 Z" id="Path" stroke="#1C3C55"></path>
                                <path d="M24.06064,24.7680606 C24.06064,20.5072745 20.6764139,17.0619639 16.5000352,17.0619639 C12.3424134,17.0619639 8.93943044,20.5421184 8.93943044,24.7680606 C8.93943044,28.9826981 12.3313716,32.4201655 16.5000352,32.4201655 C20.6686989,32.4201655 24.06064,28.9826981 24.06064,24.7680606 Z M25.06064,24.7680606 C25.06064,29.5320205 21.22399,33.4201655 16.5000352,33.4201655 C11.7760804,33.4201655 7.93943044,29.5320205 7.93943044,24.7680606 C7.93943044,19.9947903 11.7850474,16.0619639 16.5000352,16.0619639 C21.2327423,16.0619639 25.06064,19.9589542 25.06064,24.7680606 Z" id="Path" fill="#95AABF" fill-rule="nonzero"></path>
                                <path d="M32.9393811,9.32764661 L25.9393952,9.32764661 L25.9393952,7.33009624 C25.9393952,6.35831692 26.7348418,5.54851277 27.6893917,5.54851277 L31.1893847,5.54851277 C32.1439346,5.54851277 32.9393811,6.35831692 32.9393811,7.33009624 L32.9393811,9.32764661 Z" id="Path" stroke="#1C3C55"></path>
                                <path d="M29.734375,5.46875 C31.2355754,5.46875 32.46875,4.23557536 32.46875,2.734375 C32.46875,1.23317464 31.2355754,0 29.734375,0 C28.2331746,0 27,1.23317464 27,2.734375 C27,4.23557536 28.2331746,5.46875 29.734375,5.46875 Z M29.734375,1.07231649 C30.6458333,1.07231649 31.3964335,1.82291667 31.3964335,2.734375 C31.3964335,3.64583333 30.6458333,4.39643351 29.734375,4.39643351 C28.8229167,4.39643351 28.0723165,3.64583333 28.0723165,2.734375 C28.0723165,1.82291667 28.8229167,1.07231649 29.734375,1.07231649 Z" id="Shape" fill="#1C3C55" fill-rule="nonzero"></path>
                                <path d="M16.046875,5.46875 C17.5480754,5.46875 18.78125,4.23557536 18.78125,2.734375 C18.78125,1.23317464 17.5480754,0 16.046875,0 C14.5456746,0 13.3125,1.23317464 13.3125,2.734375 C13.3125,4.23557536 14.5456034,5.46875 16.046875,5.46875 Z M16.046875,1.07231649 C16.9583333,1.07231649 17.7089335,1.82291667 17.7089335,2.734375 C17.7089335,3.64583333 16.9583333,4.39643351 16.046875,4.39643351 C15.1354167,4.39643351 14.3847453,3.64583333 14.3847453,2.734375 C14.3847453,1.82291667 15.1354167,1.07231649 16.046875,1.07231649 Z" id="Shape" fill="#1C3C55" fill-rule="nonzero"></path>
                                <path d="M19.0112167,24.15625 L13.9888574,24.15625 C12.3705705,24.15625 11.03125,25.4557856 11.03125,27.0260008 L11.03125,29.0835688 C11.03125,29.4084707 11.2544824,29.625 11.589257,29.625 L21.410743,29.625 C21.7455917,29.625 21.96875,29.4083988 21.96875,29.0835688 L21.96875,27.0260008 C21.9688241,25.4557137 20.6295036,24.15625 19.0112167,24.15625 Z M20.852736,28.5420657 L12.1473381,28.5420657 L12.1473381,27.0260008 C12.1473381,26.0513671 12.9843856,25.2391843 13.9888574,25.2391843 L19.0112167,25.2391843 C20.0156885,25.2391843 20.852736,26.0513671 20.852736,27.0260008 L20.852736,28.5420657 Z" id="Shape" fill="#FF9500" fill-rule="nonzero"></path>
                                <path d="M16.5,25.25 C17.7446224,25.25 18.8195134,24.5652378 19.3852099,23.5380567 C19.6115185,23.081498 19.78125,22.5679453 19.78125,21.9973228 C19.78125,20.1712398 18.3103941,18.6875 16.5,18.6875 C14.6896059,18.6875 13.21875,20.171164 13.21875,21.997247 C13.21875,22.5108755 13.3884815,23.0244282 13.6147901,23.4809868 C14.1804866,24.508168 15.2553776,25.25 16.5,25.25 Z M16.5,19.771751 C17.6880453,19.771751 18.6497819,20.7418623 18.6497819,21.940253 C18.6497819,23.1386436 17.6880453,24.108755 16.5,24.108755 C15.3119547,24.108755 14.3502181,23.1386436 14.3502181,21.940253 C14.3502181,20.7418623 15.3119547,19.771751 16.5,19.771751 Z" id="Shape" fill="#FF9500" fill-rule="nonzero"></path>
                            </g>
                        </g>
                    </g>
                </g>
            </g>
        </g>
    </g>
</svg>