<?xml version="1.0" encoding="UTF-8"?>
<svg width="54px" height="57px" viewBox="0 0 54 57" version="1.1" xmlns="http://www.w3.org/2000/svg" xmlns:xlink="http://www.w3.org/1999/xlink">
    <!-- Generator: Sketch 49 (51002) - http://www.bohemiancoding.com/sketch -->
    <title>icon/learning resources</title>
    <desc>Created with Sketch.</desc>
    <defs></defs>
    <g id="Template-3---Bitcoin-resources" stroke="none" stroke-width="1" fill="none" fill-rule="evenodd">
        <g id="22.01.18-Bitcoin.org_Bitcoin-resources_Desktop-1200px--" transform="translate(-373.000000, -599.000000)">
            <g id="//contenct" transform="translate(215.000000, 555.000000)">
                <g id="box1">
                    <g id="icon/learning-resources" transform="translate(155.000000, 42.000000)">
                        <g id="idea">
                            <rect id="Rectangle-2" x="0" y="0" width="60" height="60"></rect>
                            <g id="Group" transform="translate(3.000000, 2.000000)">
                                <path d="M26.635514,0 C26.1872605,0 25.8239077,0.363352804 25.8239077,0.811606308 L25.8239077,5.07917056 C25.8239077,5.52731308 26.1872605,5.89066589 26.635514,5.89066589 C27.0837675,5.89066589 27.4471203,5.52731308 27.4471203,5.07905958 L27.4471203,0.811606308 C27.4471203,0.363352804 27.0837675,0 26.635514,0 Z" id="Shape" fill="#FF9500" fill-rule="nonzero"></path>
                                <path d="M52.3489953,25.7134813 L48.0815421,25.7134813 C47.6332886,25.7134813 47.2699357,26.0767231 47.2699357,26.5250876 C47.2699357,26.9733411 47.6331776,27.3366939 48.0815421,27.3366939 L52.3491063,27.3366939 C52.7973598,27.3366939 53.1607126,26.9733411 53.1607126,26.5250876 C53.1606016,26.0768341 52.7973598,25.7134813 52.3489953,25.7134813 Z" id="Shape" fill="#FF9500" fill-rule="nonzero"></path>
                                <path d="M5.18948598,25.7134813 L0.92203271,25.7134813 C0.473779206,25.7134813 0.110426402,26.0767231 0.110426402,26.5250876 C0.110426402,26.9733411 0.473779206,27.3366939 0.92203271,27.3366939 L5.18948598,27.3366939 C5.63773949,27.3366939 6.00109229,26.9733411 6.00109229,26.5250876 C6.00109229,26.0768341 5.63773949,25.7134813 5.18948598,25.7134813 Z" id="Shape" fill="#FF9500" fill-rule="nonzero"></path>
                                <path d="M45.3915771,44.133382 L42.3738843,41.1158002 C42.0570327,40.7989486 41.5431893,40.7989486 41.2262266,41.1159112 C40.909375,41.4328738 40.909375,41.9466063 41.2263376,42.2635689 L44.2440304,45.2811507 C44.4024007,45.439521 44.6101577,45.5187617 44.8178037,45.5187617 C45.0254498,45.5187617 45.2332068,45.439521 45.3916881,45.2810397 C45.7085397,44.9641881 45.7085397,44.4503446 45.3915771,44.133382 Z" id="Shape" fill="#FF9500" fill-rule="nonzero"></path>
                                <path d="M12.0449124,10.7864953 L9.02721963,7.76891355 C8.71025701,7.45206192 8.19641355,7.45195093 7.87956192,7.76902453 C7.5625993,8.08598715 7.5625993,8.59971963 7.87956192,8.91668224 L10.8971437,11.934264 C11.055625,12.0926343 11.263271,12.171875 11.471028,12.171875 C11.678785,12.171875 11.8864311,12.0926343 12.0449124,11.934153 C12.361875,11.6171904 12.361875,11.1034579 12.0449124,10.7864953 Z" id="Shape" fill="#FF9500" fill-rule="nonzero"></path>
                                <path d="M45.3915771,7.76902453 C45.0747255,7.4521729 44.560882,7.45206192 44.2439194,7.76891355 L41.2262266,10.7864953 C40.909264,11.1034579 40.909264,11.6173014 41.2261157,11.934153 C41.384597,12.0926343 41.592243,12.171875 41.8,12.171875 C42.007646,12.171875 42.215403,12.0926343 42.3737734,11.934264 L45.3914661,8.91668224 C45.7084287,8.59971963 45.7084287,8.08587617 45.3915771,7.76902453 Z" id="Shape" fill="#FF9500" fill-rule="nonzero"></path>
                                <path d="M12.0449124,41.1159112 C11.7279498,40.7988376 11.2141063,40.7989486 10.8971437,41.1158002 L7.87945093,44.133382 C7.56248832,44.4503446 7.56248832,44.9641881 7.87945093,45.2810397 C8.03793224,45.439521 8.24557827,45.5187617 8.45333528,45.5187617 C8.66098131,45.5187617 8.86873832,45.439521 9.02721963,45.2811507 L12.0449124,42.2635689 C12.361875,41.9466063 12.361875,41.4327629 12.0449124,41.1159112 Z" id="Shape" fill="#FF9500" fill-rule="nonzero"></path>
                                <path d="M20.1849302,46.1182302 C20.3106267,41.5044459 19.4268982,38.1485 17.5337446,36.0503924 C16.1520169,34.5190781 13.7156684,32.3162078 12.6735755,29.1315795 C11.5739563,25.7711513 11.8176312,21.2719556 13.6806532,17.6078465 C15.9160079,13.2114501 20.4638336,10.3159457 25.7949136,10.0299096 C32.99056,9.64383129 37.0690935,13.6678013 39.2920418,17.6078465 C41.5715995,21.6482284 41.3481233,27.038287 39.6551564,30.8042432 C38.4902444,33.3955566 36.3304239,34.6913671 35.0189205,36.3744866 C32.8739128,39.1272846 31.9722601,42.3751992 32.3139624,46.1182302 L20.1849302,46.1182302 Z" id="Path-2" stroke="#1C1F30"></path>
                                <path d="M20.9357337,46.1395146 L20.9357337,52.4588453 C20.9357337,54.6679843 22.7265947,56.4588453 24.9357337,56.4588453 L27.9905803,56.4588453 C30.1997193,56.4588453 31.9905803,54.6679843 31.9905803,52.4588453 L31.9905803,46.1395146" id="Path-3" stroke="#1C1F30"></path>
                            </g>
                            <path d="M23.8626402,51.1767792 L26.2860786,51.1767792" id="Path-4" stroke="#1C1F30" stroke-linecap="round" stroke-linejoin="round"></path>
                            <path d="M31.155262,51.2899049 L34.5,51.2899049" id="Path-5" stroke="#1C1F30" stroke-linecap="round" stroke-linejoin="round"></path>
                            <path d="M24.0371086,54.8898103 L35.1116726,54.8898103" id="Path-6" stroke="#1C1F30"></path>
                        </g>
                    </g>
                </g>
            </g>
        </g>
    </g>
</svg>