<?xml version="1.0" encoding="UTF-8"?>
<svg width="40px" height="25px" viewBox="0 0 40 25" version="1.1" xmlns="http://www.w3.org/2000/svg" xmlns:xlink="http://www.w3.org/1999/xlink">
    <!-- Generator: Sketch 49 (51002) - http://www.bohemiancoding.com/sketch -->
    <title>spread icon</title>
    <desc>Created with Sketch.</desc>
    <defs></defs>
    <g id="Support-bitcoin" stroke="none" stroke-width="1" fill="none" fill-rule="evenodd">
        <g id="22.01.18-Bitcoin.org_Support-Bitcoin_Desktop-1200px--" transform="translate(-780.000000, -1534.000000)">
            <g id="//contenct" transform="translate(215.000000, 637.000000)">
                <g id="box8" transform="translate(400.000000, 850.000000)">
                    <g id="spread-icon" transform="translate(155.000000, 30.000000)">
                        <g>
                            <rect id="Rectangle-2" x="0" y="0" width="60" height="60"></rect>
                            <g id="megaphone" transform="translate(10.000000, 18.000000)" fill-rule="nonzero">
                                <path d="M24.3878719,0 C23.1069279,0 22.0652174,1.03273026 22.0652174,2.30263158 L22.0652174,3.03199013 L4.03851545,8.66422697 C3.9084468,7.67639803 3.06358124,6.90789474 2.03232265,6.90789474 C0.911641876,6.90789474 0,7.81167763 0,8.92269737 L0,14.1036184 C0,15.2146382 0.911641876,16.1184211 2.03232265,16.1184211 C3.06358124,16.1184211 3.9084468,15.3499178 4.03851545,14.3620888 L5.2776516,14.7489309 C5.0941619,14.9481086 4.947254,15.1852796 4.85783181,15.4581414 C4.52220824,16.4845395 5.09125858,17.5909539 6.12774314,17.9236842 L12.7560183,20.0524671 L12.756599,20.0524671 C12.9580892,20.1169408 13.1619022,20.1480263 13.3628118,20.1480263 C14.1960641,20.1480263 14.9724113,19.620148 15.2430006,18.7929276 C15.3422941,18.4878289 15.3539073,18.178125 15.3051316,17.8810855 L22.0652174,19.9943257 L22.0652174,20.7236842 C22.0652174,21.9935855 23.1069279,23.0263158 24.3878719,23.0263158 C25.6688158,23.0263158 26.7105263,21.9935855 26.7105263,20.7236842 L26.7105263,2.30263158 C26.7105263,1.03273026 25.6688158,0 24.3878719,0 Z M14.1379977,18.438898 C13.9997998,18.8620066 13.5399142,19.095148 13.1137071,18.9575658 L6.48543192,16.8287829 C6.05864416,16.6917763 5.8234754,16.2364309 5.962254,15.8133224 C6.10103261,15.3907895 6.55975686,15.1587993 6.98596396,15.2952303 L13.6154005,17.4240132 C14.0416076,17.5610197 14.275615,18.0163651 14.1379977,18.438898 Z M2.90331808,14.1036184 C2.90331808,14.5796875 2.51253146,14.9671053 2.03232265,14.9671053 C1.55211384,14.9671053 1.16132723,14.5796875 1.16132723,14.1036184 L1.16132723,8.92269737 C1.16132723,8.44662829 1.55211384,8.05921053 2.03232265,8.05921053 C2.51253146,8.05921053 2.90331808,8.44662829 2.90331808,8.92269737 L2.90331808,9.01883224 L2.90331808,14.0074836 L2.90331808,14.1036184 Z M4.06464531,13.1629934 L4.06464531,9.86332237 L22.0652174,4.23856908 L22.0652174,18.7871711 L4.06464531,13.1629934 Z M25.5491991,20.7236842 C25.5491991,21.3586349 25.0283438,21.875 24.3878719,21.875 C23.7473999,21.875 23.2265446,21.3586349 23.2265446,20.7236842 L23.2265446,20.3569901 L23.2265446,2.66932566 L23.2265446,2.30263158 C23.2265446,1.66768092 23.7473999,1.15131579 24.3878719,1.15131579 C25.0283438,1.15131579 25.5491991,1.66768092 25.5491991,2.30263158 L25.5491991,20.7236842 Z" id="Shape" fill="#FF9500"></path>
                                <path d="M28.5070251,5.18908328 C28.2575656,5.3075085 27.959336,5.20128417 27.8409108,4.9518246 C27.7224856,4.70236502 27.8287099,4.40413547 28.0781695,4.28571025 L37.3684235,-0.124625062 C37.6178831,-0.243050281 37.9161126,-0.136825949 38.0345378,0.112633624 C38.152963,0.362093198 38.0467387,0.660322747 37.7972791,0.778747966 L28.5070251,5.18908328 Z" id="Path-14" fill="#1C3C55"></path>
                                <path d="M28.7752871,8.86446534 C28.5124421,8.94912411 28.2307346,8.80467562 28.1460759,8.5418306 C28.0614171,8.27898558 28.2058656,7.9972781 28.4687106,7.91261933 L34.7843375,5.87844267 C35.0471825,5.7937839 35.32889,5.93823239 35.4135488,6.20107741 C35.4982075,6.46392243 35.353759,6.74562991 35.090914,6.83028868 L28.7752871,8.86446534 Z" id="Path-15" fill="#95AABF"></path>
                                <path d="M28.9334284,12.3594541 C28.657286,12.3594541 28.4334284,12.1355965 28.4334284,11.8594541 C28.4334284,11.5833118 28.657286,11.3594541 28.9334284,11.3594541 L39.4771029,11.3594541 C39.7532453,11.3594541 39.9771029,11.5833118 39.9771029,11.8594541 C39.9771029,12.1355965 39.7532453,12.3594541 39.4771029,12.3594541 L28.9334284,12.3594541 Z" id="Path-16" fill="#1C3C55"></path>
                                <path d="M28.8039447,15.9765697 C28.5352529,15.9128565 28.369085,15.6433891 28.4327981,15.3746974 C28.4965113,15.1060057 28.7659787,14.9398377 29.0346704,15.0035508 L32.92279,15.9255158 C33.1914817,15.989229 33.3576497,16.2586964 33.2939365,16.5273881 C33.2302234,16.7960798 32.960756,16.9622478 32.6920642,16.8985346 L28.8039447,15.9765697 Z" id="Path-17" fill="#95AABF"></path>
                                <path d="M27.9719324,19.2806153 C27.7294634,19.1484661 27.6400316,18.8447781 27.7721808,18.6023091 C27.90433,18.3598402 28.2080181,18.2704084 28.450487,18.4025576 L36.309911,22.6860617 C36.5523799,22.818211 36.6418117,23.121899 36.5096625,23.364368 C36.3775133,23.6068369 36.0738253,23.6962687 35.8313563,23.5641195 L27.9719324,19.2806153 Z" id="Path-18" fill="#1C3C55"></path>
                            </g>
                        </g>
                    </g>
                </g>
            </g>
        </g>
    </g>
</svg>