<?xml version="1.0" encoding="UTF-8"?>
<svg width="22px" height="22px" viewBox="0 0 22 22" version="1.1" xmlns="http://www.w3.org/2000/svg" xmlns:xlink="http://www.w3.org/1999/xlink">
    <!-- Generator: Sketch 49 (51002) - http://www.bohemiancoding.com/sketch -->
    <title>Shape</title>
    <desc>Created with Sketch.</desc>
    <defs></defs>
    <g id="Template-2--developer-examples" stroke="none" stroke-width="1" fill="none" fill-rule="evenodd" opacity="0.300000012">
        <g id="22.01.18.Bitcoin.org_developer-examples_desktop-1200px" transform="translate(-245.000000, -590.000000)" fill="#000000" fill-rule="nonzero">
            <g id="left-side" transform="translate(215.000000, 573.000000)">
                <g id="Search">
                    <path d="M51.7306122,37.437551 L46.4416327,32.1485714 C47.7526531,30.5502041 48.5428571,28.5028571 48.5428571,26.2714286 C48.5428571,21.1530612 44.3897959,17 39.2714286,17 C34.1485714,17 30,21.1530612 30,26.2714286 C30,31.3897959 34.1485714,35.5428571 39.2714286,35.5428571 C41.5028571,35.5428571 43.5457143,34.7571429 45.1440816,33.4461224 L50.4330612,38.7306122 C50.7922449,39.0897959 51.3714286,39.0897959 51.7306122,38.7306122 C52.0897959,38.3759184 52.0897959,37.7922449 51.7306122,37.437551 Z M39,34 C34.5867069,34 31,30.4122091 31,26.0024176 C31,21.5926262 34.5867069,18 39,18 C43.4084592,18 47,21.5926262 47,26.0024176 C47,30.4122091 43.4084592,34 39,34 Z" id="Shape"></path>
                </g>
            </g>
        </g>
    </g>
</svg>