<?xml version="1.0" encoding="UTF-8"?>
<svg width="38px" height="37px" viewBox="0 0 38 37" version="1.1" xmlns="http://www.w3.org/2000/svg" xmlns:xlink="http://www.w3.org/1999/xlink">
    <!-- Generator: Sketch 49 (51002) - http://www.bohemiancoding.com/sketch -->
    <title>Group 2</title>
    <desc>Created with Sketch.</desc>
    <defs></defs>
    <g id="Symbols" stroke="none" stroke-width="1" fill="none" fill-rule="evenodd">
        <g id="You-can-be-your-own-financial-system.icon" transform="translate(-11.000000, -12.000000)">
            <g id="Group-2" transform="translate(12.000000, 13.000000)">
                <g id="documentation-icon-copy" transform="translate(18.064516, 0.000000)" stroke="#95AABF" stroke-width="0.9">
                    <g id="file">
                        <path d="M17.1345281,7.02508961 L15.4444922,7.02508961 C15.1728554,7.02508961 14.9490562,6.87555556 14.8450179,6.6246595 C14.7409797,6.37376344 14.7938351,6.10948626 14.9855197,5.91746714 L16.180454,4.72286738 C16.3560812,4.54724014 16.4527599,4.31340502 16.4527599,4.06518519 C16.4527599,3.81663082 16.3560812,3.58313023 16.180454,3.40716846 L14.6573477,1.88406213 C14.3060932,1.53280765 13.6935723,1.53213859 13.3416487,1.88406213 L12.147049,3.07866189 C11.9550299,3.27034648 11.6900836,3.32387097 11.4398566,3.21949821 C11.1889606,3.11545998 11.0394265,2.89166069 11.0394265,2.62002389 L11.0394265,0.929988053 C11.0394265,0.417156511 10.62227,0 10.1094385,0 L7.95507766,0 C7.44224612,0 7.02508961,0.417156511 7.02508961,0.929988053 L7.02508961,2.62002389 C7.02508961,2.89166069 6.87555556,3.11545998 6.6246595,3.21949821 C6.3744325,3.3242055 6.10948626,3.27034648 5.91746714,3.07866189 L4.72286738,1.88406213 C4.37094385,1.53213859 3.75842294,1.53280765 3.40716846,1.88406213 L1.88406213,3.40716846 C1.70843489,3.5827957 1.61175627,3.81663082 1.61175627,4.06518519 C1.61175627,4.31340502 1.70843489,4.54690562 1.88406213,4.72286738 L3.07899642,5.91746714 C3.270681,6.10948626 3.32320191,6.37376344 3.21949821,6.6246595 C3.1157945,6.87555556 2.89166069,7.02508961 2.62002389,7.02508961 L0.929988053,7.02508961 C0.417156511,7.02508961 0,7.44224612 0,7.95507766 L0,10.1091039 C0,10.62227 0.417156511,11.0394265 0.929988053,11.0394265 L2.62002389,11.0394265 C2.89166069,11.0394265 3.11545998,11.1889606 3.21949821,11.4398566 C3.32353644,11.6907527 3.270681,11.9550299 3.07899642,12.147049 L1.88406213,13.3416487 C1.70843489,13.517276 1.61175627,13.7511111 1.61175627,13.9993309 C1.61175627,14.2478853 1.70843489,14.4813859 1.88406213,14.6573477 L3.40716846,16.180454 C3.75875747,16.532043 4.37094385,16.5327121 4.72286738,16.180454 L5.91746714,14.9855197 C6.10948626,14.7938351 6.37342891,14.7409797 6.6246595,14.8450179 C6.87555556,14.9490562 7.02508961,15.1728554 7.02508961,15.4444922 L7.02508961,17.1345281 C7.02508961,17.6473596 7.44224612,18.0645161 7.95507766,18.0645161 L10.1091039,18.0645161 C10.6219355,18.0645161 11.039092,17.6473596 11.039092,17.1345281 L11.039092,15.4444922 C11.039092,15.1728554 11.188626,14.9490562 11.4395221,14.8450179 C11.6907527,14.7406452 11.9546953,14.7938351 12.1467145,14.9855197 L13.3413142,16.180454 C13.6932378,16.5323775 14.3057587,16.5317085 14.6570131,16.180454 L16.1801195,14.6573477 C16.3557467,14.4817204 16.4524253,14.2478853 16.4524253,13.9993309 C16.4524253,13.7511111 16.3557467,13.5176105 16.1801195,13.3416487 L14.9851852,12.147049 C14.7935006,11.9550299 14.7409797,11.6907527 14.8446834,11.4398566 C14.9483871,11.1889606 15.1728554,11.0394265 15.4444922,11.0394265 L17.1345281,11.0394265 C17.6473596,11.0394265 18.0645161,10.62227 18.0645161,10.1094385 L18.0645161,7.95507766 C18.0645161,7.44224612 17.6473596,7.02508961 17.1345281,7.02508961 Z" id="Path"></path>
                        <path d="M9.03225806,12.6451613 C7.03690671,12.6451613 5.41935484,11.0276094 5.41935484,9.03225806 C5.41935484,7.03690671 7.03690671,5.41935484 9.03225806,5.41935484 C11.0276094,5.41935484 12.6451613,7.03690671 12.6451613,9.03225806 C12.6451613,11.0276094 11.0276094,12.6451613 9.03225806,12.6451613 Z" id="Path"></path>
                    </g>
                </g>
                <path d="M28.6563197,25.2809129 C29.1489387,25.536789 29.3548387,26.0715315 29.3548387,26.8056956 L29.3548387,29.322707 L0,29.3554691 L0,26.7426915 C0,26.1571193 0.176159155,25.696265 0.567781165,25.4168472 C0.830494519,25.2294042 1.04653727,25.1051548 1.17473565,25.0667642 L10.0394712,20.8756918 C10.265582,20.7702911 10.4462269,20.619308 10.5891457,20.4164395 C10.742472,20.1987979 10.8419312,19.9643362 10.8842139,19.7462165 C10.9149253,19.485461 10.8812116,19.2422443 10.7824309,19.0069533 C10.6834885,18.771277 10.539089,18.5826577 10.3355515,18.4261361 C9.19323513,17.5133029 8.35929352,16.2326196 7.83267413,14.5985637 C7.32206521,13.014187 7.06433593,11.6995914 7.06433593,10.6451613 L7.06433593,5.60483871 C7.06433593,4.95349904 7.30919885,4.28871696 7.78075124,3.6123718 C8.22663519,2.97284274 8.81037093,2.38409746 9.52952662,1.84533264 C10.2443599,1.30980606 11.0466304,0.87016278 11.9349,0.526342462 C12.8401549,0.175947696 13.7606509,0 14.693188,0 C15.6045646,0 16.5189195,0.175859424 17.4335141,0.525498789 C18.332335,0.869108058 19.1349559,1.30337583 19.8399303,1.82872213 C20.54755,2.35603968 21.1302977,2.93813698 21.5859719,3.5753689 C22.0706666,4.25318426 22.32204,4.93113491 22.32204,5.60483871 L22.32204,10.6451613 C22.32204,11.6730842 22.0870879,12.9775237 21.6212375,14.5683044 C21.1368427,16.2224106 20.2978527,17.5165479 19.1054386,18.4327658 C18.9103613,18.5826577 18.7659619,18.771277 18.6670194,19.0069533 C18.5682388,19.2422443 18.534525,19.485461 18.5652364,19.7462165 C18.595812,20.0058188 18.6852312,20.232839 18.8364834,20.4368016 C18.9910008,20.6451674 19.1800459,20.8000113 19.4126779,20.9084604 L28.1200793,25.0234934 C28.2019679,25.0445339 28.3185623,25.1054751 28.6563197,25.2809129 Z" id="Path" stroke="#1C3C55" fill="#FFFFFF"></path>
                <g id="Group" transform="translate(14.677419, 13.548387)">
                    <path d="M21.1305677,13.3205105 C19.6978496,19.0664679 13.8774741,22.5633805 8.13017603,21.1304943 C2.38522444,19.6979433 -1.11209613,13.8779116 0.321292422,8.13228951 C1.75334011,2.38566184 7.57371556,-1.11158594 13.3193376,0.320965051 C19.0663005,1.75351604 22.5632858,7.57421805 21.1305677,13.3205105 Z" id="path3094" stroke="#1C3C55" fill="#FFFFFF" fill-rule="nonzero"></path>
                    <path d="M15.7345581,9.99823879 C15.4855885,10.9378986 14.8879202,11.3448414 14.155191,11.4336324 C15.0903515,12.0344928 15.5135032,12.8562198 14.8883691,14.1420111 C14.1053607,15.7428931 12.6757779,15.7399877 10.8292145,15.1956915 L10.1769342,16.9354839 L9.09609775,16.5535793 L9.73814622,14.8410778 C9.4644279,14.7443617 9.17667275,14.6426858 8.88445714,14.5317073 L8.23985071,16.2510315 L7.15901428,15.869127 L7.8112946,14.1293346 C7.55863154,14.0400582 7.30852644,13.9439591 7.04884496,13.8522028 L5.64516129,13.3562229 L6.33083931,12.1845429 C7.11880466,12.478417 7.10988375,12.4598118 7.10988375,12.4598118 C7.41167574,12.5664475 7.57519358,12.3847021 7.64740808,12.2556875 L8.67570881,9.51295601 L8.7880035,9.55263441 C8.74845096,9.5309323 8.70634045,9.5160529 8.67826677,9.5061333 L9.41240188,7.54801406 C9.45214615,7.31480778 9.40386442,7.01959204 8.96170406,6.86335836 C8.96170406,6.86335836 8.98085682,6.85467273 8.18265962,6.58808948 L8.6021654,5.4691642 L10.0875121,6.00172567 C10.3050831,6.07860257 10.5366909,6.16043926 10.7708567,6.23545324 L11.4154631,4.51612903 L12.4962995,4.8980336 L11.8644829,6.58324423 C12.154796,6.67809741 12.4451091,6.77295058 12.7258459,6.87214657 L13.3525466,5.20058137 L14.433383,5.58248594 L13.7887766,7.30181015 C15.134938,7.90881646 16.080794,8.71434635 15.7345581,9.99823879 Z M12.8315088,13.1834401 C12.3429381,14.4865787 10.1112088,13.5280316 9.38129333,13.270122 L10.2458845,10.9640443 C10.9758,11.2219539 13.3379853,11.8325425 12.8315088,13.1834401 Z M13.550791,9.7597548 C13.1082636,10.9400845 11.250413,10.1290975 10.6398106,9.91334618 L11.425105,7.81877265 C12.0357074,8.03452393 14.0137822,8.52484336 13.550791,9.7597548 Z" id="btc---FontAwesome-Copy" fill="#F7931A"></path>
                </g>
            </g>
        </g>
    </g>
</svg>