<?xml version="1.0" encoding="UTF-8"?>
<svg width="54px" height="41px" viewBox="0 0 54 41" version="1.1" xmlns="http://www.w3.org/2000/svg" xmlns:xlink="http://www.w3.org/1999/xlink">
    <!-- Generator: Sketch 49 (51002) - http://www.bohemiancoding.com/sketch -->
    <title>icon/vouchers</title>
    <desc>Created with Sketch.</desc>
    <defs></defs>
    <g id="Template-3---Bitcoin-resources" stroke="none" stroke-width="1" fill="none" fill-rule="evenodd">
        <g id="22.01.18-Bitcoin.org_Bitcoin-resources_Desktop-1200px--" transform="translate(-1172.000000, -1141.000000)">
            <g id="//contenct" transform="translate(215.000000, 555.000000)">
                <g id="box6" transform="translate(800.000000, 530.000000)">
                    <g id="icon/vouchers" transform="translate(155.000000, 43.000000)">
                        <g id="Group-2">
                            <rect id="Rectangle-3" x="0" y="0" width="60" height="60"></rect>
                            <g id="coupon" transform="translate(24.000000, 36.000000) rotate(32.000000) translate(-24.000000, -36.000000) translate(5.000000, 26.000000)">
                                <path d="M0.61662885,0.5 L0.727001349,6.23158841 C3.86896626,6.73665548 5.43361012,8.16109884 5.19645631,10.4755461 C4.96724416,12.7124885 3.36477874,14.1758276 0.507812022,14.8491968 L0.597371972,19.5 L36.3713801,19.5 L36.2712793,14.3018168 C33.1843517,13.809683 31.6211637,12.3462295 31.7846835,9.95404425 C31.9456592,7.59907793 33.5773486,6.30873465 36.498758,6.11466866 L36.390637,0.5 L0.61662885,0.5 Z" id="Rectangle-2" stroke="#FF9500"></path>
                                <path d="M10.8347503,8.03985272 C10.4267407,8.03985272 10.0955795,8.34002816 10.0955795,8.70986138 L10.0955795,11.3898332 C10.0955795,11.7596665 10.4267407,12.0598419 10.8347503,12.0598419 C11.2427599,12.0598419 11.5739211,11.7596665 11.5739211,11.3898332 L11.5739211,8.70986138 C11.5738519,8.34002816 11.2427599,8.03985272 10.8347503,8.03985272 Z" id="Shape" fill="#FF9500" fill-rule="nonzero"></path>
                                <path d="M10.8347503,2.67997184 C10.4267407,2.67997184 10.0955795,2.98014728 10.0955795,3.34998051 L10.0955795,6.02988954 C10.0955795,6.39972276 10.4267407,6.6998982 10.8347503,6.6998982 C11.2427599,6.6998982 11.5739211,6.39972276 11.5739211,6.02988954 L11.5739211,3.3499177 C11.5738519,2.98008447 11.2427599,2.67997184 10.8347503,2.67997184 Z" id="Shape" fill="#FF9500" fill-rule="nonzero"></path>
                                <path d="M10.8347503,13.3997336 C10.4267407,13.3997336 10.0955795,13.699909 10.0955795,14.0697423 L10.0955795,16.7497141 C10.0955795,17.1195473 10.4267407,17.4197228 10.8347503,17.4197228 C11.2427599,17.4197228 11.5739211,17.1195473 11.5739211,16.7497141 L11.5739211,14.0697423 C11.5738519,13.699909 11.2427599,13.3997336 10.8347503,13.3997336 Z" id="Shape" fill="#FF9500" fill-rule="nonzero"></path>
                                <path d="M27.0959546,8.03985272 C26.687945,8.03985272 26.3567838,8.34002816 26.3567838,8.70986138 L26.3567838,11.3898332 C26.3567838,11.7596665 26.687945,12.0598419 27.0959546,12.0598419 C27.5039642,12.0598419 27.8351254,11.7596665 27.8351254,11.3898332 L27.8351254,8.70986138 C27.8351254,8.34002816 27.5039642,8.03985272 27.0959546,8.03985272 Z" id="Shape" fill="#FF9500" fill-rule="nonzero"></path>
                                <path d="M27.0959546,2.67997184 C26.687945,2.67997184 26.3567838,2.98014728 26.3567838,3.34998051 L26.3567838,6.02988954 C26.3567838,6.39972276 26.687945,6.6998982 27.0959546,6.6998982 C27.5039642,6.6998982 27.8351254,6.39972276 27.8351254,6.02988954 L27.8351254,3.3499177 C27.8351254,2.98008447 27.5039642,2.67997184 27.0959546,2.67997184 Z" id="Shape" fill="#FF9500" fill-rule="nonzero"></path>
                                <path d="M27.0959546,13.3997336 C26.687945,13.3997336 26.3567838,13.699909 26.3567838,14.0697423 L26.3567838,16.7497141 C26.3567838,17.1195473 26.687945,17.4197228 27.0959546,17.4197228 C27.5039642,17.4197228 27.8351254,17.1195473 27.8351254,16.7497141 L27.8351254,14.0697423 C27.8351254,13.699909 27.5039642,13.3997336 27.0959546,13.3997336 Z" id="Shape" fill="#FF9500" fill-rule="nonzero"></path>
                            </g>
                            <g id="coupon" transform="translate(37.500000, 25.000000) rotate(1.000000) translate(-37.500000, -25.000000) translate(19.000000, 14.000000)">
                                <path d="M0.72752847,0.5 L0.839003615,6.90460168 C3.96613008,7.45903688 5.51368442,9.01521089 5.28233717,11.5131478 C5.05734674,13.942448 3.46728004,15.5456282 0.619357786,16.2852501 L0.710122994,21.5 L36.2724715,21.5 L36.1712089,15.682142 C33.0975461,15.1418353 31.5512786,13.5426791 31.7110861,10.9561237 C31.8687897,8.40362217 33.4874045,6.98921427 36.3991157,6.77611257 L36.289877,0.5 L0.72752847,0.5 Z" id="Rectangle-2" stroke="#1C1F30"></path>
                                <path d="M30.9090975,11 C30.9090975,13.6475385 32.9348545,15.8452768 35.5625,16.2108144 L35.9100215,21.1358837 L1.18365448,21.034272 L1.4375,16.2108144 C4.0651455,15.8452768 5.66442033,13.8715844 5.66442033,11.2240459 C5.66442033,8.57650737 4.15523186,6.74880354 1.52758635,6.38326596 L1.4375,1.22222222 L35.5624273,1.22222222 L35.6469606,6.06513005 C33.0193878,6.43066763 30.9090975,8.35246149 30.9090975,11 Z" id="Path" fill="#FFFFFF"></path>
                                <path d="M9.7723792,8.84383799 C9.36671838,8.84383799 9.03746345,9.17403097 9.03746345,9.58084752 L9.03746345,12.5288165 C9.03746345,12.9356331 9.36671838,13.2658261 9.7723792,13.2658261 C10.17804,13.2658261 10.507295,12.9356331 10.507295,12.5288165 L10.507295,9.58084752 C10.5072261,9.17403097 10.17804,8.84383799 9.7723792,8.84383799 Z" id="Shape" fill="#000000" fill-rule="nonzero"></path>
                                <path d="M9.7723792,2.94796903 C9.36671838,2.94796903 9.03746345,3.27816201 9.03746345,3.68497856 L9.03746345,6.63287849 C9.03746345,7.03969504 9.36671838,7.36988802 9.7723792,7.36988802 C10.17804,7.36988802 10.507295,7.03969504 10.507295,6.63287849 L10.507295,3.68490947 C10.5072261,3.27809292 10.17804,2.94796903 9.7723792,2.94796903 Z" id="Shape" fill="#000000" fill-rule="nonzero"></path>
                                <path d="M9.7723792,14.739707 C9.36671838,14.739707 9.03746345,15.0698999 9.03746345,15.4767165 L9.03746345,18.4246855 C9.03746345,18.8315021 9.36671838,19.161695 9.7723792,19.161695 C10.17804,19.161695 10.507295,18.8315021 10.507295,18.4246855 L10.507295,15.4767165 C10.5072261,15.0698999 10.17804,14.739707 9.7723792,14.739707 Z" id="Shape" fill="#000000" fill-rule="nonzero"></path>
                                <path d="M25.9399746,8.84383799 C25.5343138,8.84383799 25.2050588,9.17403097 25.2050588,9.58084752 L25.2050588,12.5288165 C25.2050588,12.9356331 25.5343138,13.2658261 25.9399746,13.2658261 C26.3456354,13.2658261 26.6748904,12.9356331 26.6748904,12.5288165 L26.6748904,9.58084752 C26.6748904,9.17403097 26.3456354,8.84383799 25.9399746,8.84383799 Z" id="Shape" fill="#000000" fill-rule="nonzero"></path>
                                <path d="M25.9399746,2.94796903 C25.5343138,2.94796903 25.2050588,3.27816201 25.2050588,3.68497856 L25.2050588,6.63287849 C25.2050588,7.03969504 25.5343138,7.36988802 25.9399746,7.36988802 C26.3456354,7.36988802 26.6748904,7.03969504 26.6748904,6.63287849 L26.6748904,3.68490947 C26.6748904,3.27809292 26.3456354,2.94796903 25.9399746,2.94796903 Z" id="Shape" fill="#000000" fill-rule="nonzero"></path>
                                <path d="M25.9399746,14.739707 C25.5343138,14.739707 25.2050588,15.0698999 25.2050588,15.4767165 L25.2050588,18.4246855 C25.2050588,18.8315021 25.5343138,19.161695 25.9399746,19.161695 C26.3456354,19.161695 26.6748904,18.8315021 26.6748904,18.4246855 L26.6748904,15.4767165 C26.6748904,15.0698999 26.3456354,14.739707 25.9399746,14.739707 Z" id="Shape" fill="#000000" fill-rule="nonzero"></path>
                            </g>
                        </g>
                    </g>
                </g>
            </g>
        </g>
    </g>
</svg>