<?xml version="1.0" encoding="UTF-8"?>
<svg width="30px" height="49px" viewBox="0 0 30 49" version="1.1" xmlns="http://www.w3.org/2000/svg" xmlns:xlink="http://www.w3.org/1999/xlink">
    <!-- Generator: Sketch 49 (51002) - http://www.bohemiancoding.com/sketch -->
    <title>icon</title>
    <desc>Created with Sketch.</desc>
    <defs></defs>
    <g id="Template-4--For-Individuals" stroke="none" stroke-width="1" fill="none" fill-rule="evenodd">
        <g id="22.01.18-Bitcoin.org_Bitcoin-for-individuals_Desktop-1200px--" transform="translate(-386.000000, -602.000000)" fill-rule="nonzero">
            <g id="//contenct" transform="translate(215.000000, 555.000000)">
                <g id="box1">
                    <g id="icon" transform="translate(155.000000, 43.000000)">
                        <g id="icon/Mobile">
                            <g id="Group" transform="translate(16.000000, 4.000000)">
                                <path d="M27,37.3738602 C27,38.8242372 25.7601732,40 24.2307692,40 L5.76923077,40 C4.23982685,40 3,38.8242372 3,37.3738602 L3,6.62613982 C3,5.17576285 4.23982685,4 5.76923077,4 L24.2307692,4 C25.7601732,4 27,5.17576285 27,6.62613982 L27,37.3738602 Z M26,37.458379 L26,6.70031053 C26,5.99672353 25.1137699,5 24.1289114,5 L5.59394468,5 C5.06509631,5 4,5.77629351 4,6.55972568 L4,37.458379 C4,37.9603979 4.81034917,39 5.81028268,39 L24.4793069,39 C25.1765707,39 26,38.0232055 26,37.458379 Z" id="phone_iphone---material" fill="#1C3C55"></path>
                                <path d="M30,44.625 C30,47.0412458 28.0247857,49 25.5882353,49 L4.41176471,49 C1.97521434,49 0,47.0412458 0,44.625 L0,4.375 C0,1.95875422 1.97521434,0 4.41176471,0 L25.5882353,0 C28.0247857,-3.88578059e-16 30,1.95875422 30,4.375 L30,44.625 Z M29.0348175,45.0120192 L29.0348175,3.98798077 C29.0348175,2.51035354 27.2818995,0.8296287 25.7918552,0.8296287 L4.2081448,0.8296287 C2.71810053,0.8296287 0.966762797,2.51035354 0.966762797,3.98798077 L0.966762797,45.0120192 C0.966762797,46.4896465 2.71810053,48.1352498 4.2081448,48.1352498 L25.7918552,48.1352498 C27.2818995,48.1352498 29.0348175,46.4896465 29.0348175,45.0120192 Z" id="phone_iphone---material" fill="#F7931A"></path>
                                <path d="M13.7299869,46.2979887 C13.24612,45.8275625 13,45.2190993 13,44.5146457 C13,43.8089529 13.2520034,43.1959718 13.7444475,42.716837 C14.2309125,42.2435196 14.8329472,42 15.5146457,42 C16.202682,42 16.8054037,42.2534171 17.283163,42.7444475 C17.7564804,43.2309125 18,43.8329472 18,44.5146457 C18,45.1988286 17.7544929,45.7989572 17.276725,46.276725 C16.7989572,46.7544929 16.1988286,47 15.5146457,47 C14.816567,47 14.2090481,46.7637426 13.7299869,46.2979887 Z" id="Path" stroke="#95AABF"></path>
                            </g>
                        </g>
                    </g>
                </g>
            </g>
        </g>
    </g>
</svg>