<?xml version="1.0" encoding="UTF-8"?>
<svg xmlns="http://www.w3.org/2000/svg" width="32" height="32">
  <g stroke="#000" stroke-width=".89" stroke-linejoin="round">
    <path d="M1.985 8.834l13.714-.161s.093.219.114 2.91l6.422-4.326-6.594-4.641.071 2.971c1.51.045-13.748.187-13.748.187z"/>
    <path d="M6.546 17.566l17.573-.161s.093.219.114 2.91l6.422-4.326-6.594-4.641.071 2.971c1.51.045-17.607.187-17.607.187z"/>
    <path d="M21.5 26.699l-13.714-.161s-.093.219-.114 2.91l-6.422-4.326 6.594-4.641-.071 2.971c-1.51.045 13.748.187 13.748.187z"/>
  </g>
</svg>
