<?xml version="1.0" encoding="UTF-8"?>
<svg xmlns="http://www.w3.org/2000/svg" width="32" height="32">
  <g stroke="#000">
    <path d="M28.15 26.601l-.051-4.17c-.001-.089-14.444.707-18.968-.185-4.524-.892-4.213-5.576-3.142-7.461 1.071-1.885 4.293-1.687 4.293-1.687s.075.267.257 3.55l7.716-5.277-8.044-5.662.086 3.624c1.842.054-2.649-.677-5.982 1.444-3.334 2.12-3.519 8.279-2.494 10.46 1.025 2.181 2.361 4.302 5.794 5.083 2.25.447 13.867.26 20.534.281z" stroke-width="1.085" stroke-linejoin="round"/>
    <path d="M30.746 6.503l-9.822 9.524" stroke-width="3" fill="none"/>
    <path d="M20.946 6.451l9.71 9.636" stroke-width="3" fill="none"/>
  </g>
</svg>
