<svg xmlns:svg="http://www.w3.org/2000/svg" xmlns="http://www.w3.org/2000/svg" xml:space="preserve" width="48" height="48" viewBox="0 0 13.546666 13.546666" version="1.1" fill-rule="evenodd">
  <metadata/>
  <defs>
    <style type="text/css">
    .str1 {stroke:#999999;stroke-width:0.0762}
    .str0 {stroke:#B2B2B2;stroke-width:0.0762}
    .fil0 {fill:none}
    .fil1 {fill:#9999FF}
    .fil2 {fill:#E5E5E5}
    .fil3 {fill:black;fill-rule:nonzero}
    </style>
  </defs>
  <circle d="M 76.5,45 C 76.5,62.39697 62.39697,76.5 45,76.5 27.60303,76.5 13.5,62.39697 13.5,45 13.5,27.60303 27.60303,13.5 45,13.5 62.39697,13.5 76.5,27.60303 76.5,45 z" r="31.5" cy="45" cx="45" class="fil0 str0" transform="matrix(0.18698133,0,0,-0.18698133,-1.7495191,15.188054)" style="fill:none;stroke-width:0.28222221;stroke:#000"/>
  <polygon class="fil1 str1" points="45.5813 45.003 53.596 37.003 45.5813 10.003 " transform="matrix(0.18698133,0,0,-0.18698133,-1.7495191,15.188054)" style="fill:#000;stroke-width:0.56444442;stroke:#000"/>
  <polygon class="fil2 str1" points="45.5813 45.003 37.5666 37.003 45.5813 10.003 " transform="matrix(0.18698133,0,0,-0.18698133,-1.7495191,15.188054)" style="fill:#fff;stroke-width:0.56444442;stroke:#000"/>
  <polygon class="fil1 str1" points="45.5813 45.003 53.5813 53.0177 80.5813 45.003 " transform="matrix(0.18698133,0,0,-0.18698133,-1.7495191,15.188054)" style="fill:#000;stroke-width:0.56444442;stroke:#000"/>
  <polygon class="fil2 str1" points="45.5813 45.003 53.5813 36.9883 80.5813 45.003 " transform="matrix(0.18698133,0,0,-0.18698133,-1.7495191,15.188054)" style="fill:#fff;stroke-width:0.56444442;stroke:#000"/>
  <polygon class="fil1 str1" points="45.5813 45.003 37.5666 53.003 45.5813 80.003 " transform="matrix(0.18698133,0,0,-0.18698133,-1.7495191,15.188054)" style="fill:#000;stroke-width:0.56444442;stroke:#000"/>
  <polygon class="fil2 str1" points="45.5813 45.003 53.596 53.003 45.5813 80.003 " transform="matrix(0.18698133,0,0,-0.18698133,-1.7495191,15.188054)" style="fill:#fff;stroke-width:0.56444442;stroke:#000"/>
  <polygon class="fil1 str1" points="45.5813 45.003 37.5813 36.9883 10.5813 45.003 " transform="matrix(0.18698133,0,0,-0.18698133,-1.7495191,15.188054)" style="fill:#000;stroke-width:0.56444442;stroke:#000"/>
  <polygon class="fil2 str1" points="45.5813 45.003 37.5813 53.0177 10.5813 45.003 " transform="matrix(0.18698133,0,0,-0.18698133,-1.7495191,15.188054)" style="fill:#fff;stroke-width:0.56444442;stroke:#000"/>
  <path d="M8.9329554 4.7290382 11.932577 1.7294216" style="fill:none;stroke-width:0.15696824;stroke:#000"/>
  <path d="M8.8605813 8.8551168 12.004951 11.993504" style="fill:none;stroke-width:0.16438642;stroke:#000"/>
  <path d="M1.659623 1.6832236 4.757519 4.7752362" style="fill:none;stroke-width:0.16195713;stroke:#000"/>
  <path d="M1.7087612 11.924122 4.7083808 8.9244992" style="fill:none;stroke-width:0.15696824;stroke:#000"/>
</svg>
