<svg width="60" height="50" viewBox="0 0 60 50" version="1.1" xmlns="http://www.w3.org/2000/svg" xmlns:xlink="http://www.w3.org/1999/xlink">
<title>fastP2p</title>
<desc>Created using Figma</desc>
<g id="Canvas" transform="matrix(2 0 0 2 -10060 -3450)">
<rect x="5030" y="1725" width="30" height="25" fill="#FFFFFF"/>
<clipPath id="clip-0" clip-rule="evenodd">
<path d="M 4815 -244L 6415 -244L 6415 3494L 4815 3494L 4815 -244Z" fill="#FFFFFF"/>
</clipPath>
<g id="19/01/18 Bitcoin.org ver3 Desktop 1200px  " clip-path="url(#clip-0)">
<path d="M 4815 -244L 6415 -244L 6415 3494L 4815 3494L 4815 -244Z" fill="#FFFFFF"/>
<g id="//Content">
<g id="Get started with">
<g id="features">
<g id="1">
<g id="icon/fastP2p">
<g id="icon/fastP2p">
<g id="ion-android-arrow-forward - Ionicons">
<use xlink:href="#path0_fill" transform="translate(5037 1733.78)" fill="#95AABF"/>
</g>
<g id="ion-android-arrow-forward - Ionicons">
<use xlink:href="#path1_fill" transform="translate(5034 1725.78)" fill="#F7931A"/>
</g>
<g id="ion-android-arrow-forward - Ionicons">
<use xlink:href="#path2_fill" transform="translate(5030 1740.78)" fill="#1C3C55"/>
</g>
</g>
</g>
</g>
</g>
</g>
</g>
</g>
</g>
<defs>
<path id="path0_fill" fill-rule="evenodd" d="M 0 4.875L 0 3.80859L 20.6016 3.80859L 17.5801 0.761719L 18.3418 0L 22.6836 4.3418L 18.3418 8.68359L 17.5547 7.92188L 20.6016 4.875L 0 4.875Z"/>
<path id="path1_fill" fill-rule="evenodd" d="M 0 4.875L 0 3.80859L 14.6016 3.80859L 11.5801 0.761719L 12.3418 0L 16.6836 4.3418L 12.3418 8.68359L 11.5547 7.92188L 14.6016 4.875L 0 4.875Z"/>
<path id="path2_fill" fill-rule="evenodd" d="M 22.6836 4.875L 2.08203 4.875L 5.12891 7.92188L 4.3418 8.68359L 0 4.3418L 4.3418 0L 5.10352 0.761719L 2.08203 3.80859L 22.6836 3.80859L 22.6836 4.875Z"/>
</defs>
</svg>
