<svg width="60" height="50" viewBox="0 0 60 50" version="1.1" xmlns="http://www.w3.org/2000/svg" xmlns:xlink="http://www.w3.org/1999/xlink">
<title>low processing</title>
<desc>Created using Figma</desc>
<g id="Canvas" transform="matrix(2 0 0 2 -10060 -3638)">
<rect x="5030" y="1819" width="30" height="25" fill="#FFFFFF"/>
<clipPath id="clip-0" clip-rule="evenodd">
<path d="M 4815 -244L 6415 -244L 6415 3494L 4815 3494L 4815 -244Z" fill="#FFFFFF"/>
</clipPath>
<g id="19/01/18 Bitcoin.org ver3 Desktop 1200px  " clip-path="url(#clip-0)">
<path d="M 4815 -244L 6415 -244L 6415 3494L 4815 3494L 4815 -244Z" fill="#FFFFFF"/>
<g id="//Content">
<g id="Get started with">
<g id="features">
<g id="3">
<g id="icon/low processing">
<g id="icon/low processing">
<g id="ion-android-arrow-forward - Ionicons">
<use xlink:href="#path0_fill" transform="matrix(6.12323e-17 1 -1 6.12323e-17 5059.68 1821)" fill="#F7931A"/>
</g>
<g id="ion-ios-pricetag - Ionicons">
<use xlink:href="#path1_fill" transform="translate(5030.3 1819)" fill="#95AABF"/>
</g>
<g id="FEES">
<use xlink:href="#path2_fill" transform="matrix(0.669131 -0.743145 0.743145 0.669131 5035.14 1835.43)" fill="#1C3C55"/>
</g>
</g>
</g>
</g>
</g>
</g>
</g>
</g>
</g>
<defs>
<path id="path0_fill" fill-rule="evenodd" d="M 0 4.875L 0 3.80859L 20.6016 3.80859L 17.5801 0.761719L 18.3418 0L 22.6836 4.3418L 18.3418 8.68359L 17.5547 7.92188L 20.6016 4.875L 0 4.875Z"/>
<path id="path1_fill" fill-rule="evenodd" d="M 22.626 8.74683L 22.626 0L 13.645 0L 0 14.9669L 8.97656 23.719L 22.626 8.74683ZM 8.93115 22.184L 1.48438 14.9233L 14.1162 1.0675L 21.5586 1.0675L 21.5586 8.33325L 8.93115 22.184ZM 17.2891 7.47253C 16.7397 7.47253 16.2402 7.24536 15.8105 6.8158C 15.3809 6.38635 15.1538 5.88647 15.1538 5.33752C 15.1538 4.7887 15.3809 4.2887 15.8105 3.85925C 16.2402 3.42969 16.7397 3.20251 17.2891 3.20251C 17.8379 3.20251 18.3374 3.42969 18.7671 3.85925C 19.1968 4.2887 19.4238 4.7887 19.4238 5.33752C 19.4238 5.88647 19.1968 6.38635 18.7671 6.8158C 18.3374 7.24536 17.8379 7.47253 17.2891 7.47253ZM 18.0122 6.06104C 17.7744 6.29871 17.5405 6.40503 17.2886 6.40503C 17.0371 6.40503 16.8027 6.29871 16.5654 6.06104C 16.3276 5.82324 16.2212 5.58923 16.2212 5.33752C 16.2212 5.08582 16.3276 4.85181 16.5654 4.61414C 16.8027 4.37634 17.0371 4.27002 17.2886 4.27002C 17.5405 4.27002 17.7744 4.37634 18.0122 4.61414C 18.25 4.85181 18.3564 5.08582 18.3564 5.33752C 18.3564 5.58923 18.25 5.82324 18.0122 6.06104Z"/>
<path id="path2_fill" fill-rule="evenodd" d="M 0 0.0559554L 2.46185 0.0559554L 2.45676 0.652305L 0.682998 0.652305L 0.682998 1.61564L 2.29875 1.61564L 2.29875 2.21199L 0.682998 2.21199L 0.682998 3.62386L 0 3.62386L 0 0.0559554ZM 2.97147 0.0559273L 5.58623 0.0559273L 5.58623 0.652277L 3.65447 0.652277L 3.65447 1.53406L 5.38745 1.53406L 5.38745 2.13041L 3.65447 2.13041L 3.65447 3.02748L 5.6474 3.02748L 5.6474 3.62383L 2.97147 3.62383L 2.97147 0.0559273ZM 6.34063 0.0559102L 8.95539 0.0559102L 8.95539 0.65226L 7.02363 0.65226L 7.02363 1.53404L 8.75661 1.53404L 8.75661 2.13039L 7.02363 2.13039L 7.02363 3.02746L 9.01656 3.02746L 9.01656 3.62381L 6.34063 3.62381L 6.34063 0.0559102ZM 11.3893 0.713581C 11.1973 0.652416 11.0283 0.621834 10.8822 0.621834C 10.7191 0.621834 10.59 0.652416 10.4948 0.713581C 10.3997 0.774745 10.3521 0.859694 10.3521 0.968431C 10.3521 1.06697 10.3852 1.14937 10.4515 1.21564C 10.5177 1.2819 10.601 1.33626 10.7012 1.37874C 10.8015 1.42121 10.9382 1.46794 11.1115 1.51891C 11.3528 1.59027 11.5507 1.66162 11.7053 1.73298C 11.86 1.80434 11.9916 1.90968 12.1004 2.049C 12.2091 2.18831 12.2635 2.3718 12.2635 2.59947C 12.2635 2.81695 12.2049 3.00638 12.0876 3.16779C 11.9704 3.32919 11.809 3.45237 11.6034 3.53732C 11.3978 3.62227 11.1625 3.66475 10.8975 3.66475C 10.6188 3.66475 10.347 3.61293 10.082 3.50929C 9.81691 3.40565 9.58584 3.26718 9.38876 3.09388L 9.67419 2.51282C 9.85429 2.67933 10.0565 2.81015 10.2807 2.90529C 10.505 3.00044 10.714 3.04801 10.9077 3.04801C 11.098 3.04801 11.2475 3.01148 11.3562 2.93842C 11.4649 2.86537 11.5193 2.76597 11.5193 2.64025C 11.5193 2.53831 11.4862 2.45421 11.4199 2.38795C 11.3537 2.32168 11.2696 2.26817 11.1676 2.22739C 11.0657 2.18661 10.9264 2.14074 10.7497 2.08977C 10.5084 2.01841 10.3113 1.94875 10.1584 1.88079C 10.0055 1.81283 9.87467 1.71005 9.76594 1.57243C 9.6572 1.43481 9.60283 1.25386 9.60283 1.02959C 9.60283 0.822316 9.65805 0.641374 9.76849 0.486764C 9.87892 0.332154 10.0352 0.212376 10.2374 0.127425C 10.4396 0.0424746 10.6732 -2.77556e-17 10.9382 0C 11.1693 1.38778e-17 11.3978 0.0339797 11.6238 0.10194C 11.8498 0.1699 12.0511 0.261646 12.2278 0.377178L 11.9526 0.973528C 11.7691 0.861393 11.5813 0.774745 11.3893 0.713581Z"/>
</defs>
</svg>
