<?xml version="1.0" encoding="UTF-8"?>
<svg width="36px" height="32px" viewBox="0 0 36 32" version="1.1" xmlns="http://www.w3.org/2000/svg" xmlns:xlink="http://www.w3.org/1999/xlink">
    <!-- Generator: Sketch 49 (51002) - http://www.bohemiancoding.com/sketch -->
    <title>Dispute mediation ICON</title>
    <desc>Created with Sketch.</desc>
    <defs></defs>
    <g id="Innovation" stroke="none" stroke-width="1" fill="none" fill-rule="evenodd">
        <g id="22.01.18-Bitcoin.org_Innovation_Desktop-1200px--" transform="translate(-382.000000, -1910.000000)">
            <g id="//contenct" transform="translate(215.000000, 697.000000)">
                <g id="box7" transform="translate(0.000000, 1170.000000)">
                    <g id="Dispute-mediation-ICON" transform="translate(155.000000, 30.000000)">
                        <g>
                            <rect id="Rectangle-2" x="0" y="0" width="60" height="60"></rect>
                            <g id="scales" transform="translate(30.000000, 29.500000) scale(-1, 1) translate(-30.000000, -29.500000) translate(12.000000, 13.000000)">
                                <polygon id="Path" fill="#1C3C55" fill-rule="nonzero" points="6.58814652 6.57810517 1.85176928 19.0411313 0.916996344 18.6858855 6.56422848 3.8260891 12.5058103 18.6777888 11.5773531 19.0492281"></polygon>
                                <path d="M18,1.6409119 C17.5936813,1.6409119 17.2598984,1.97869256 17.2598984,2.39589364 C17.2598984,2.8131169 17.5937035,3.15094654 18,3.15094654 C18.4063187,3.15094654 18.7401016,2.81316587 18.7401016,2.3959648 C18.7401016,1.97874153 18.4062965,1.6409119 18,1.6409119 Z M18,0.640911897 C18.9612817,0.640911897 19.7401016,1.42912167 19.7401016,2.3959648 C19.7401016,3.36280302 18.9612862,4.15094654 18,4.15094654 C17.0387183,4.15094654 16.2598984,3.36273676 16.2598984,2.39589364 C16.2598984,1.42905541 17.0387138,0.640911897 18,0.640911897 Z" id="Path" fill="#95AABF" fill-rule="nonzero"></path>
                                <polygon id="Path" fill="#1C3C55" fill-rule="nonzero" points="24.6827924 19.0416217 23.7483928 18.6853951 29.4245501 3.79656161 35.0830037 18.6858855 34.1482307 19.0411313 29.4230749 6.60763265"></polygon>
                                <polygon id="Path-23" fill="#95AABF" fill-rule="nonzero" points="29.5191153 3.45259933 29.5191153 4.45259933 6.40222869 4.45259933 6.40222869 3.45259933"></polygon>
                                <polygon id="Path-24" fill="#95AABF" fill-rule="nonzero" points="17.3354371 4.23884001 18.3354371 4.23884001 18.3354371 30.9859037 17.3354371 30.9859037"></polygon>
                                <path d="M8.43398241,31.2368458 L26.7383739,31.2368458" id="Path-25" stroke="#95AABF"></path>
                                <path d="M6.5761875,23.4484905 C8.92570089,23.4484905 10.9241829,21.7709832 11.4116225,19.5044203 L1.74069661,19.5044203 C2.22819375,21.7709925 4.22668427,23.4484905 6.5761875,23.4484905 Z M6.5761875,24.4484905 C3.52331679,24.4484905 0.96976535,22.102081 0.658871741,19.0551747 L0.60267506,18.5044203 L12.5496157,18.5044203 L12.4934342,19.0551622 C12.1826183,22.1020644 9.62907198,24.4484905 6.5761875,24.4484905 Z" id="Path" fill="#FF9500" fill-rule="nonzero"></path>
                                <path d="M29.4238125,23.4484905 C31.7732826,23.4484905 33.7718012,21.7709634 34.2592463,19.5044203 L24.5883216,19.5044203 C25.0758187,21.7709925 27.0743093,23.4484905 29.4238125,23.4484905 Z M29.4238125,24.4484905 C26.3709418,24.4484905 23.8173904,22.102081 23.5064967,19.0551747 L23.4503001,18.5044203 L35.3972407,18.5044203 L35.3410592,19.0551622 C35.0302457,22.1020404 32.4766501,24.4484905 29.4238125,24.4484905 Z" id="Path" fill="#FF9500" fill-rule="nonzero"></path>
                            </g>
                        </g>
                    </g>
                </g>
            </g>
        </g>
    </g>
</svg>