<?xml version="1.0" encoding="UTF-8"?>
<svg width="44px" height="52px" viewBox="0 0 44 52" version="1.1" xmlns="http://www.w3.org/2000/svg" xmlns:xlink="http://www.w3.org/1999/xlink">
    <!-- Generator: Sketch 49 (51002) - http://www.bohemiancoding.com/sketch -->
    <title>Micro payments ICON</title>
    <desc>Created with Sketch.</desc>
    <defs></defs>
    <g id="Innovation" stroke="none" stroke-width="1" fill="none" fill-rule="evenodd">
        <g id="22.01.18-Bitcoin.org_Innovation_Desktop-1200px--" transform="translate(-1177.000000, -1313.000000)">
            <g id="//contenct" transform="translate(215.000000, 697.000000)">
                <g id="box6" transform="translate(800.000000, 585.000000)">
                    <g id="Micro-payments-ICON" transform="translate(155.000000, 30.000000)">
                        <g transform="translate(0.000000, -1.000000)">
                            <rect id="Rectangle-2" x="0" y="1" width="60" height="60"></rect>
                            <path d="M38.1835012,30.0880691 C37.9278821,31.82902 37.1265305,33.0303497 35.8765648,33.697336 C37.6704993,35.0717553 38.2042769,37.0142322 37.2954518,39.6281093 C36.0495022,43.214413 33.3442637,44.1765924 28.6943168,43.3987191 L27.6896437,47.4543959 L24.0996335,46.553177 L25.0818274,42.5895254 C24.8356204,42.5263145 24.5917455,42.4626487 24.3492644,42.3982451 L23.3664989,46.3689976 L19.7794884,45.4675048 L20.7756552,41.4385699 C20.6670317,41.4100704 20.5431551,41.3775275 20.3981038,41.3394084 C20.1010532,41.2616136 19.8734804,41.2027927 19.6513406,41.1467204 L16.4935807,40.3567339 L17.5127889,36.2689131 L18.0234648,36.4057159 C18.0844258,36.4220464 18.1547964,36.4408265 18.2319204,36.4613233 L19.7605159,36.842388 C19.9820404,36.897612 20.0652177,36.8370421 20.1208659,36.7134478 L21.5515405,30.9358122 L21.697036,30.3475913 L21.8391331,29.7743984 L22.8016786,25.9275057 C22.8250044,25.5198793 22.674284,25.2806404 22.1427803,25.1469831 L20.8184867,24.813963 C20.66646,24.7723712 20.52231,24.7388095 20.4083654,24.7125058 L19.8033304,24.5728353 L20.7397817,20.7855594 L21.3367259,20.9380594 L24.6465286,21.7836142 C24.9343782,21.8557035 25.211149,21.9222041 25.5843659,22.0091167 L26.5724675,18.0209544 L30.1609458,18.9223022 L29.1983593,22.8096823 C29.4837331,22.875915 29.7189463,22.9312233 29.9347978,22.9830425 L30.8941511,19.1065852 L34.484128,20.0077956 L33.4852185,24.043784 C36.5145855,25.1965343 38.1874959,26.7909073 38.2464214,29.1185525 M27.7843144,41.9869867 L28.3530276,42.0953972 C32.8303825,42.9488893 35.0907016,42.2482904 36.1404637,39.2266867 C37.0072471,36.7337261 36.3437605,35.2071873 34.2251253,34.0961034 L32.7673309,33.3315869 L34.3707438,32.9591394 C35.8373404,32.6184722 36.715443,31.6694506 36.9738616,29.9094391 C37.3122467,27.6310134 35.8557039,26.1519969 32.5592409,25.0082054 L32.0321369,24.8253133 L33.0043901,20.8970272 L31.7863677,20.5912608 L30.8277847,24.4646058 L30.2328298,24.3152687 C29.7069522,24.1832704 29.2448693,24.074487 28.3186124,23.8615375 L27.7127067,23.7222379 L28.6811163,19.8113416 L27.4643343,19.5057124 L26.4820483,23.470402 L25.8964048,23.3360493 C25.1820387,23.1721663 24.779574,23.0774552 24.3466739,22.9690325 L21.6310149,22.2752692 L21.2879666,23.6626544 C21.3776976,23.6839398 21.4698485,23.7059242 21.5620456,23.7280826 C21.8603702,23.8000103 22.0596459,23.8494294 22.2052161,23.8875561 C22.3196189,23.9179119 22.3196189,23.9179119 22.4109929,23.9446776 C22.4540101,23.9580174 22.4540101,23.9580174 22.5109465,23.9794843 C23.6006536,24.2808386 24.0758843,25.0595459 24.0055354,26.1093021 L22.8839885,30.6413281 L22.5872175,30.5678857 L22.8798593,30.6586553 L21.2819998,37.087393 C21.0044079,37.7816155 20.4041145,38.2314259 19.5343048,38.0449673 C19.462205,38.0340714 19.462205,38.0340714 19.41858,38.02512 C19.3234395,38.0042841 19.3234395,38.0042841 19.2019196,37.9750604 C19.0474626,37.9374877 18.8375989,37.8841086 18.5853217,37.8185611 C18.4350561,37.7794586 18.3241172,37.7503911 18.2182201,37.7225107 L17.7886466,39.4454359 L19.949869,39.9609642 C20.1768476,40.0182574 20.4076308,40.0779081 20.7078856,40.1565421 C21.1921597,40.2838055 21.4375168,40.3481586 21.6667723,40.4072987 L22.252839,40.5584841 L21.258872,44.5785225 L22.4743831,44.8840066 L23.4627477,40.8906312 L24.0669538,41.0558085 C24.6911135,41.2264407 25.3197828,41.3905302 25.9699091,41.5531683 L26.5616925,41.7012112 L25.5797052,45.6640292 L26.7976941,45.9697873 M26.0081427,38.5098586 C26.7457136,38.6955779 27.4457198,38.8303963 28.0972451,38.899166 C29.9381835,39.0934806 31.0014711,38.7387614 31.1991904,37.7805382 C31.4381296,36.6250642 30.4713133,35.713448 28.4782912,34.9709539 C27.9845403,34.7870086 27.465525,34.6271077 26.8547243,34.4621399 C26.7946469,34.4459139 26.5297172,34.3769568 26.2601606,34.3059945 L25.236458,38.3014492 M25.3874725,32.7855342 L25.9977534,32.9692304 C25.396284,32.7881864 28.0341394,33.5006305 28.9051649,33.8251283 C31.402278,34.7554198 32.8007098,36.0740087 32.396668,38.0278941 C32.0286467,39.8114662 30.361325,40.3676948 27.9688936,40.1151691 C27.2531731,40.0396234 26.498856,39.894345 25.7095735,39.6956048 C25.2321674,39.5753947 24.9809915,39.5032022 24.3226011,39.3060258 L23.7599841,39.1375319 M29.8965529,31.1954453 C31.2479934,31.2307472 32.0020271,30.8355438 32.1564035,29.8998852 C32.3543275,28.6983275 31.6391991,27.9296245 30.0956252,27.3584927 C29.7434316,27.2281789 28.3396406,26.8580558 27.7878699,26.7078494 L26.7311094,30.5865813 M26.9456457,25.1475495 L27.5745559,25.3847039 C27.6060334,25.3965737 29.8703935,25.9713808 30.5199393,26.2117167 C32.5465961,26.9615922 33.679116,28.1789559 33.3628768,30.0987814 C33.0874963,31.7678334 31.7532803,32.4671214 29.8646233,32.4177866 C28.6960168,32.3872606 27.3646442,32.0688899 26.4223176,31.7135499 L25.2542006,31.3558263" id="path3096" fill="#FF9500" fill-rule="nonzero" transform="translate(27.370001, 32.737675) rotate(-14.000000) translate(-27.370001, -32.737675) "></path>
                            <path d="M28.5,53 C34.1335903,53 39.2364237,50.7275599 42.9418628,47.0493174 C46.6832518,43.3353887 49,38.1882471 49,32.5 C49,26.2303479 46.185451,20.6180689 41.7509243,16.8577344 C38.1775123,13.8275971 33.5521852,12 28.5,12 C22.3557122,12 16.8427715,14.7031181 13.0855146,18.9850175 C9.91942198,22.5932058 8,27.3224504 8,32.5 C8,37.6159219 9.87400063,42.2941475 12.9729888,45.8856636" id="Oval" stroke="#1C3C55" transform="translate(28.500000, 32.500000) rotate(182.000000) translate(-28.500000, -32.500000) "></path>
                            <polyline id="Path-2" stroke="#1C3C55" fill="#FFFFFF" transform="translate(35.528863, 20.646045) rotate(-13.000000) translate(-35.528863, -20.646045) " points="31.9047635 10.4633795 25.9398457 30.8287103 45.1178802 21.8998852"></polyline>
                            <path d="M37.2181535,1.91309036 L30.9910837,21.8116984 L50.2671915,12.9613395 C49.7218186,9.75499658 48.3572345,7.18515193 46.173439,5.25180549 C43.9896436,3.31845906 41.0045484,2.20555402 37.2181535,1.91309036 Z" id="Path-2-Copy" stroke="#1C3C55" fill="#FFFFFF" transform="translate(40.629138, 11.862394) rotate(-13.000000) translate(-40.629138, -11.862394) "></path>
                        </g>
                    </g>
                </g>
            </g>
        </g>
    </g>
</svg>