<?xml version="1.0" encoding="UTF-8"?>
<svg xmlns="http://www.w3.org/2000/svg" width="16" height="16">
  <g stroke-width="2">
    <rect width="10.812" height="10.812" x="1.487" y="3.251" ry="1.847" stroke="#2c6fad" fill="none"/>
    <path style="text-indent:0;text-align:start;line-height:normal;text-transform:none;block-progression:tb;-inkscape-font-specification:Sans" d="M8.563.198c-.434.067-.729.403-.842.741-.113.338-.072.763.236 1.078l.876.909-3.671 3.435c-.422.407-.451 1.038-.067 1.482v.034l2.66 2.829c.414.467 1.097.497 1.549.067l3.671-3.435 1.01.977c.335.317.803.308 1.145.168.342-.139.656-.448.674-.909v-.034l-.067-6.264c0-.609-.469-1.078-1.078-1.078h-6.061999999999999z" color="#000" fill="#2c6fad" stroke="#fff" overflow="visible" enable-background="accumulate" font-family="Sans"/>
  </g>
</svg>
