<svg xmlns:dc="http://purl.org/dc/elements/1.1/" xmlns:cc="http://creativecommons.org/ns#" xmlns:rdf="http://www.w3.org/1999/02/22-rdf-syntax-ns#" xmlns:svg="http://www.w3.org/2000/svg" xmlns="http://www.w3.org/2000/svg" xmlns:sodipodi="http://sodipodi.sourceforge.net/DTD/sodipodi-0.dtd" xmlns:inkscape="http://www.inkscape.org/namespaces/inkscape" width="16" height="16" id="svg2" version="1.1" inkscape:version="0.91 r13725" inkscape:export-filename="/media/X/bitcoin.org/current/img/icons/mini_ico_key.png" inkscape:export-xdpi="90" inkscape:export-ydpi="90">
  <metadata id="metadata16">
    <rdf:RDF>
      <cc:Work rdf:about="">
        <dc:format>image/svg+xml</dc:format>
        <dc:type rdf:resource="http://purl.org/dc/dcmitype/StillImage"/>
        <dc:title/>
      </cc:Work>
    </rdf:RDF>
  </metadata>
  <defs id="defs14"/>
  <g id="g4">
    <path d="M13.76 5.435c0 1.985-1.624 3.595-3.628 3.595s-3.628-1.609-3.628-3.595c0-1.985 1.624-3.595 3.628-3.595s3.628 1.6 3.6 3.595z" opacity=".99" fill="#329239" stroke="#329239" stroke-width="1.72" stroke-linecap="round" stroke-linejoin="round" id="path6" style="fill:#8b8b8b;fill-opacity:1;stroke:#8b8b8b;stroke-opacity:1"/>
    <path d="M6.916 6.15l-5.565 6.75v1.815l1.099.011 1.375-.987.477-1.042 1.609-.05.311-1.523 1.403-.385 3.294-3.162z" fill="#329239" id="path8" style="fill:#8b8b8b;fill-opacity:1"/>
    <path d="M11.764 4.37c0 .299-.242.541-.541.541-.299 0-.541-.242-.541-.541 0-.299.242-.541.541-.541.299 0 .541.242.541.541z" opacity=".99" fill="#fff" stroke="#fff" stroke-width="1.353" stroke-linecap="round" stroke-linejoin="round" id="path10"/>
  </g>
</svg>
