<?xml version="1.0" encoding="UTF-8"?>
<svg width="410px" height="316px" viewBox="0 0 410 316" version="1.1" xmlns="http://www.w3.org/2000/svg" xmlns:xlink="http://www.w3.org/1999/xlink">
    <!-- Generator: Sketch 49 (51002) - http://www.bohemiancoding.com/sketch -->
    <title>Illustration/Limitations of mixing services</title>
    <desc>Created with Sketch.</desc>
    <defs></defs>
    <g id="Protect-your-privacy" stroke="none" stroke-width="1" fill="none" fill-rule="evenodd">
        <g id="22.01.18-Bitcoin.org_Protect-your-privacy-Desktop-1200px--" transform="translate(-248.000000, -2975.000000)">
            <g id="//body" transform="translate(215.000000, 668.000000)">
                <g id="5" transform="translate(0.000000, 2247.000000)">
                    <g id="Illustration/Limitations-of-mixing-services" transform="translate(0.000000, 53.000000)">
                        <g id="siatka" opacity="0.600000024" stroke-width="1" fill-rule="evenodd" transform="translate(246.084629, 174.765829) rotate(-15.000000) translate(-246.084629, -174.765829) translate(72.584629, 9.265829)">
                            <g id="Group-8" opacity="0.200000003" transform="translate(12.000000, 1.000000)">
                                <path d="" id="Path-2" stroke="#979797"></path>
                                <polyline id="Path-5" stroke="#979797" points="327.306554 250.729508 299.380444 78.3713856 0 153.762295 156.02537 176.618852 189.310782 1.3852459"></polyline>
                                <polyline id="Path-6" stroke="#979797" points="155.897048 177.051496 209.420719 327.610656 299.56871 78.2663934"></polyline>
                                <polyline id="Path-8" stroke="#979797" points="156.186765 176.487406 76.9725159 278.434426 208.727273 327.610656"></polyline>
                                <polyline id="Path-9" stroke="#979797" points="155.331924 176.618852 98.4693446 56.795082 191.391121 0.692622951"></polyline>
                                <polygon id="Path-10" stroke="#979797" points="78.359408 279.127049 20.831855 243.556622 0 154.454918"></polygon>
                                <circle id="Oval-2" fill="#7B7B7B" cx="20.5" cy="243.5" r="2.5"></circle>
                                <polyline id="Path-11" stroke="#979797" points="299.56871 78.2663934 188.270613 0 326.613108 252.114754 210.114165 328.303279 0 154.454918 98.4693446 56.102459 325.919662 252.114754"></polyline>
                                <polyline id="Path-13" stroke="#979797" points="328 252.114754 236.465116 252.114754 155.997497 176.425781"></polyline>
                                <circle id="Oval-2" fill="#7B7B7B" cx="155.790409" cy="176.958877" r="2.5"></circle>
                                <path d="M76.9725159,279.127049 L239.238901,252.114754" id="Path-14" stroke="#979797"></path>
                                <circle id="Oval-2" fill="#7B7B7B" cx="299.5" cy="78.5" r="2.5"></circle>
                            </g>
                            <g id="dots" transform="translate(101.000000, 49.000000)">
                                <circle id="Oval-2" fill="#C4C4C4" cx="8.5" cy="8.5" r="2.38"></circle>
                                <circle id="Oval-2" stroke="#CACACA" cx="8.5" cy="8.5" r="8.5"></circle>
                            </g>
                            <g id="dots" transform="translate(330.000000, 243.000000)">
                                <circle id="Oval-2" fill="#C4C4C4" cx="8.5" cy="8.5" r="2.38"></circle>
                                <circle id="Oval-2" stroke="#CACACA" cx="8.5" cy="8.5" r="8.5"></circle>
                            </g>
                            <g id="dots" transform="translate(275.000000, 147.000000)">
                                <circle id="Oval-2" fill="#C4C4C4" cx="8.5" cy="8.5" r="2.38"></circle>
                                <circle id="Oval-2" stroke="#CACACA" cx="8.5" cy="8.5" r="8.5"></circle>
                            </g>
                            <g id="dots" transform="translate(80.000000, 271.000000)">
                                <circle id="Oval-2" fill="#C4C4C4" cx="8.5" cy="8.5" r="2.38"></circle>
                                <circle id="Oval-2" stroke="#CACACA" cx="8.5" cy="8.5" r="8.5"></circle>
                            </g>
                            <circle id="Oval-2" fill="#7B7B7B" cx="220.5" cy="328.5" r="2.5"></circle>
                            <circle id="Oval-2" fill="#7B7B7B" cx="200.5" cy="2.5" r="2.5"></circle>
                            <g id="Group-7" transform="translate(0.000000, 143.000000)">
                                <circle id="Oval-2" fill="#FF7E00" cx="12.5" cy="12.5" r="3.92857143"></circle>
                                <circle id="Oval-2" stroke="#FF7E00" cx="12.5" cy="12.5" r="12.5"></circle>
                            </g>
                        </g>
                        <ellipse id="Oval-3" stroke="#1C3C55" stroke-width="1" fill="#FFFFFF" fill-rule="evenodd" cx="239" cy="144" rx="122" ry="101"></ellipse>
                        <path d="M239,245.5 C171.363786,245.5 116.5,200.079981 116.5,144 C116.5,87.9200192 171.363786,42.5 239,42.5 C306.636214,42.5 361.5,87.9200192 361.5,144 C361.5,200.079981 306.636214,245.5 239,245.5 Z M239,244.5 C306.121265,244.5 360.5,199.481539 360.5,144 C360.5,88.5184613 306.121265,43.5 239,43.5 C171.878735,43.5 117.5,88.5184613 117.5,144 C117.5,199.481539 171.878735,244.5 239,244.5 Z" id="Oval-3" fill="#1C3C55" fill-rule="nonzero"></path>
                        <g id="Group-2" stroke-width="1" fill-rule="evenodd" transform="translate(84.000000, 60.000000)">
                            <g id="Group-11" transform="translate(40.000000, 45.000000) scale(-1, 1) translate(-40.000000, -45.000000) translate(11.000000, 37.000000)" fill="#FF9500">
                                <g id="Group">
                                    <polygon id="ion-ios-arrow-right---Ionicons-Copy-21" points="49.01707 1.67501954 49.6416677 1 57.6572927 8.5 49.6416677 16 49 15.4018825 56.258497 8.54884702"></polygon>
                                    <polygon id="ion-ios-arrow-right---Ionicons-Copy-20" transform="translate(5.329559, 7.646499) rotate(182.000000) translate(-5.329559, -7.646499) " points="1.01798266 0.821518327 1.64258034 0.146498782 9.65820534 7.64649878 1.64258034 15.1464988 1.00091262 14.5483813 8.25940965 7.6953458"></polygon>
                                </g>
                            </g>
                            <path d="M112.200943,52.7226373 L112.192849,53.7226046 C94.6976292,53.5809985 80.7493416,52.3107687 70.3421274,49.9084598 C59.9382639,47.5069243 49.2443473,43.6588888 38.2739902,38.3715476 L2.30508708,22.357149 L2.71182396,21.4436037 L38.6944353,37.4643554 C49.6137825,42.7268593 60.2380172,46.5498209 70.5670441,48.9340818 C80.8927202,51.3175692 94.7726395,52.5815728 112.200943,52.7226373 Z" id="Path-3" fill="#1C3C55" fill-rule="nonzero" transform="translate(57.253015, 37.583104) rotate(-24.000000) translate(-57.253015, -37.583104) "></path>
                        </g>
                        <g id="Group-2-Copy" stroke-width="1" fill-rule="evenodd" transform="translate(346.000000, 96.500000) scale(-1, 1) translate(-346.000000, -96.500000) translate(289.000000, 59.000000)">
                            <g id="Group-11" transform="translate(47.500000, 43.000000) scale(-1, 1) translate(-47.500000, -43.000000) translate(18.000000, 34.000000)" fill="#FF9500">
                                <g id="Group">
                                    <polygon id="ion-ios-arrow-right---Ionicons" points="50.01707 3.67501954 50.6416677 3 58.6572927 10.5 50.6416677 18 50 17.4018825 57.258497 10.548847"></polygon>
                                    <polygon id="ion-ios-arrow-right---Ionicons-Copy-19" transform="translate(4.587756, 7.646499) rotate(182.000000) translate(-4.587756, -7.646499) " points="0.276179367 0.821518327 0.900777043 0.146498782 8.91640204 7.64649878 0.900777043 15.1464988 0.259109331 14.5483813 7.51760636 7.6953458"></polygon>
                                </g>
                            </g>
                            <path d="M111.973634,53.0032853 L111.917682,54.0017188 C94.77865,53.0412523 81.0122725,51.3620458 70.6141746,48.9618429 C60.2103112,46.5603091 49.5163946,42.7122763 38.5460375,37.4249388 L2.57713433,21.4105513 L2.98387098,20.4970059 L38.9664823,36.5177465 C49.8858295,41.7802467 60.5100643,45.6032057 70.8390912,47.9874649 C81.1738836,50.3730549 94.8868562,52.0457472 111.973634,53.0032853 Z" id="Path-3" fill="#1C3C55" fill-rule="nonzero" transform="translate(57.275384, 37.249362) rotate(-24.000000) translate(-57.275384, -37.249362) "></path>
                            <g id="Group-9" transform="translate(45.015252, 47.106068) scale(-1, 1) rotate(-15.000000) translate(-45.015252, -47.106068) translate(28.515252, 27.606068)">
                                <g id="Group-9-Copy" transform="translate(18.847772, 25.045521) rotate(-15.000000) translate(-18.847772, -25.045521) translate(7.847772, 14.045521)">
                                    <g id="Group-4" transform="translate(0.000000, 0.000000)">
                                        <g id="Group-5" transform="translate(0.311304, 0.805686)">
                                            <ellipse id="Oval" fill="#FFFFFF" cx="10.4210855" cy="10.5573024" rx="10.2515481" ry="10.008103"></ellipse>
                                            <ellipse id="Oval" stroke="#FF9500" stroke-width="0.9" cx="10.4210855" cy="10.5573024" rx="10.2515481" ry="10.008103"></ellipse>
                                            <path d="M16.0362771,9.17195155 C15.9058276,10.0393086 15.4968758,10.6378216 14.8589837,10.9701201 C15.774478,11.6548678 16.0468795,12.6226269 15.5830809,13.9248835 C14.9472385,15.7116115 13.5666805,16.1909778 11.1936842,15.8034344 L10.6809717,17.8240083 L8.84889035,17.3750131 L9.35013101,15.400287 C9.22448478,15.3687948 9.10002868,15.3370759 8.97628386,15.3049895 L8.4747515,17.2832533 L6.64420097,16.8341217 L7.15257238,14.8268709 C7.09713879,14.8126722 7.03392113,14.796459 6.95989747,14.7774678 C6.80830434,14.7387097 6.69216768,14.7094046 6.57880357,14.6814689 L4.62673229,14.2029292 L5.48744156,12.2513024 L5.74805359,12.3194587 C5.77916366,12.3275948 5.81507575,12.3369511 5.85443426,12.3471628 L6.63451873,12.5370126 C6.74756882,12.5645257 6.79001651,12.5343493 6.81841529,12.4727735 L7.54852807,9.59430459 L7.62277846,9.30124776 L7.69529452,9.01567805 L8.1865081,7.09912225 C8.19841187,6.89603921 8.12149512,6.77684827 7.8502541,6.71025906 L7.17443048,6.54434551 C7.09684707,6.52362408 7.02328332,6.50690336 6.96513426,6.4937986 L6.65636816,6.42421356 L7.13426513,4.5373594 L7.43890224,4.61333623 L9.12798603,5.03459908 C9.27488362,5.07051457 9.41612739,5.10364577 9.60659032,5.14694637 L10.1108458,3.16000887 L11.9421455,3.60906825 L11.450911,5.54579523 C11.5965451,5.57879292 11.7165809,5.606348 11.8267359,5.63216477 L12.3163204,3.70087966 L14.1483847,4.14987064 L13.6386136,6.16063552 C15.3904393,6.8114191 16.2534021,7.74471839 16.0362771,9.17195155 Z M10.7292848,15.1000969 L11.0195148,15.154108 C13.3044328,15.5793253 14.457936,15.2302807 14.9936586,13.7248912 C15.4360021,12.4828763 15.0974066,11.7223412 14.0162085,11.1687895 L13.2722558,10.7879006 L14.0905217,10.602344 C14.8389664,10.4326206 15.2870865,9.95980971 15.4189646,9.08295652 C15.5916519,7.94782477 14.8483378,7.21096577 13.1660617,6.64111875 L12.897066,6.5500003 L13.3932336,4.59289365 L12.7716432,4.44055811 L12.2824517,6.37029266 L11.9788299,6.29589161 C11.71046,6.23012889 11.4746463,6.17593203 11.0019518,6.06983875 L10.6927414,6.00043843 L11.1869476,4.05199553 L10.5659901,3.89972838 L10.0647024,5.87497159 L9.76583238,5.8080359 C9.40127161,5.72638794 9.19588274,5.67920205 8.97496189,5.62518487 L7.58908608,5.27954593 L7.41401904,5.97075341 C7.45981123,5.98135798 7.50683842,5.99231083 7.55388912,6.00335033 C7.70613242,6.03918535 7.80782831,6.06380637 7.8821168,6.08280143 C7.94049973,6.09792495 7.94049973,6.09792495 7.98713038,6.11125984 C8.00908324,6.11790585 8.00908324,6.11790585 8.03813945,6.12860088 C8.59424713,6.27873821 8.83677048,6.66669704 8.80086949,7.18969482 L8.22851311,9.44759003 L8.07706268,9.41100041 L8.22640587,9.45622259 L7.41097399,12.6590762 C7.26931119,13.004944 6.96296491,13.2290435 6.51907696,13.1361482 C6.48228245,13.1307198 6.48228245,13.1307198 6.46001943,13.1262601 C6.41146658,13.1158795 6.41146658,13.1158795 6.34945163,13.10132 C6.27062796,13.0826009 6.16352869,13.056007 6.03478469,13.0233507 C5.95810002,13.0038694 5.90148483,12.9893877 5.84744259,12.9754975 L5.48981389,13.7864075 L6.73115086,14.0907147 C6.84698434,14.1192587 6.96475936,14.1489772 7.11798766,14.1881533 C7.36512615,14.2515571 7.49033862,14.2836183 7.60733404,14.3130825 L7.9064201,14.3884044 L7.39917124,16.3912229 L8.01948016,16.5434177 L8.52386994,14.553883 L8.83221297,14.6361758 C9.15073893,14.7211862 9.47156624,14.8029371 9.80334364,14.8839648 L10.1053471,14.9577211 L9.6042118,16.9320319 L10.2257852,17.0843633 L10.7292848,15.1000969 Z M9.82285528,13.3677612 C10.1992581,13.4602881 10.5564906,13.5274558 10.888982,13.5617175 C11.8284637,13.6585267 12.3710887,13.4818025 12.4719904,13.0044073 C12.5939276,12.42874 12.1005345,11.9745648 11.0834403,11.6046477 C10.8314656,11.5130045 10.5665977,11.4333405 10.2548893,11.3511521 C10.2242301,11.3430681 10.0890292,11.3087131 9.95146698,11.2733591 L9.42904329,13.2639297 C9.57059769,13.3040019 9.67420034,13.331219 9.82285528,13.3677612 Z M9.50611017,10.5158524 L9.81755337,10.6073714 C9.51060688,10.5171737 10.8567774,10.8721197 11.3012857,11.0337873 C12.5756315,11.4972667 13.2892899,12.1541993 13.0830962,13.1276422 C12.8952848,14.0162335 12.0444045,14.2933515 10.8234807,14.1675409 C10.4582287,14.1299034 10.0732799,14.0575244 9.67048721,13.9585103 C9.42685368,13.8986206 9.29867165,13.8626537 8.96267685,13.7644186 L8.67555787,13.6804735 L9.50611017,10.5158524 Z M11.8072184,9.72365612 C12.4968958,9.7412438 12.8817001,9.54434999 12.9604826,9.07819666 C13.0614887,8.47957005 12.696539,8.09659548 11.9088105,7.81205256 C11.7290764,7.74712909 11.3432586,7.64319493 11.0616747,7.56836078 L10.5223806,9.50077916 C10.9131317,9.61814903 11.392239,9.7130736 11.8072184,9.72365612 Z M10.6318644,6.79100566 L10.9528147,6.90915806 C10.9688786,6.91507169 11.7938686,7.12098123 12.1253497,7.2407187 C13.1596087,7.61431327 13.7375649,8.22081457 13.5761793,9.17728849 C13.435645,10.0088249 12.7547577,10.3572163 11.7909239,10.3326373 C11.1945517,10.317429 10.5151155,10.1588139 10.0342202,9.98178037 L9.76867332,9.88402377 L10.6318644,6.79100566 Z" id="path3096" fill="#FF9500" fill-rule="nonzero"></path>
                                        </g>
                                    </g>
                                </g>
                                <g id="Group-4">
                                    <ellipse id="Oval" fill="#FFFFFF" cx="13.8581818" cy="14.0393258" rx="13.6327273" ry="13.3089888"></ellipse>
                                    <ellipse id="Oval" stroke="#FF9500" cx="13.8581818" cy="14.0393258" rx="13.6327273" ry="13.3089888"></ellipse>
                                    <path d="M21.3253833,12.1970568 C21.1519088,13.3504867 20.6080759,14.1464021 19.7597935,14.5882996 C20.9772373,15.4988918 21.3394826,16.7858385 20.7227134,18.517607 C19.8771565,20.8936361 18.0412611,21.5311076 14.8855999,21.0157442 L14.203784,23.7027464 L11.7674431,23.105663 L12.4340036,20.4796301 C12.2669166,20.4377511 12.1014122,20.3955707 11.9368537,20.3529014 L11.2699053,22.9836389 L8.83560015,22.386374 L9.5116433,19.7170891 C9.43792654,19.6982074 9.35385834,19.6766468 9.2554201,19.6513918 C9.05382832,19.5998505 8.89938731,19.5608799 8.74863331,19.5237304 L6.15272727,18.8873582 L7.29731682,16.2920432 L7.64388426,16.382679 C7.68525509,16.3934984 7.73301176,16.4059408 7.78535154,16.4195205 L8.82272451,16.6719868 C8.97306093,16.7085743 9.02950878,16.668445 9.06727407,16.5865602 L10.0381936,12.7587109 L10.1369334,12.3689977 L10.2333668,11.989241 L10.8865931,9.44056418 C10.902423,9.17050002 10.8001374,9.01199736 10.4394353,8.92344561 L9.54071066,8.70281024 C9.43753859,8.67525444 9.33971195,8.65301886 9.2623841,8.63559188 L8.85178035,8.54305621 L9.48729793,6.03387731 L9.89241086,6.13491291 L12.1385905,6.69511724 C12.3339381,6.74287842 12.521767,6.786937 12.7750487,6.84451906 L13.4456184,4.20224719 L15.8809197,4.79941593 L15.2276656,7.37491678 C15.421333,7.41879782 15.5809591,7.45544115 15.7274456,7.48977284 L16.3785055,4.9215087 L18.8148238,5.51858648 L18.1369193,8.19254451 C20.4665345,9.05797039 21.6141207,10.2990917 21.3253833,12.1970568 Z M14.2680317,20.080431 L14.6539858,20.152256 C17.6925184,20.7177191 19.2264717,20.2535521 19.938887,18.2516531 C20.5271249,16.5999952 20.0768533,15.5886194 18.639053,14.8524945 L17.6497288,14.3459803 L18.7378762,14.0992232 C19.7331741,13.8735214 20.3290936,13.2447674 20.504468,12.0787093 C20.7341112,10.5691869 19.7456363,9.58929607 17.5085096,8.83150136 L17.1507934,8.7103301 L17.8106077,6.10772793 L16.9840035,5.90514888 L16.3334663,8.47135105 L15.9297034,8.37241095 C15.5728194,8.28495828 15.2592294,8.21288613 14.6306302,8.07180103 L14.2194356,7.97951101 L14.8766415,5.38843007 L14.050879,5.18594197 L13.3842559,7.81266253 L12.9868122,7.72365001 C12.5020115,7.61507282 12.228881,7.55232401 11.9350957,7.48049081 L10.0921285,7.02085277 L9.85932065,7.94003523 C9.92021608,7.95413742 9.98275384,7.96870274 10.0453229,7.9833833 C10.2477792,8.03103748 10.3830166,8.06377904 10.481807,8.08903908 C10.5594459,8.10915066 10.5594459,8.10915066 10.6214563,8.12688367 C10.6506497,8.13572168 10.6506497,8.13572168 10.6892893,8.14994416 C11.4288131,8.34959998 11.7513259,8.86551592 11.703584,9.56100952 L10.9424522,12.5636067 L10.7410502,12.5149491 L10.93965,12.5750865 L9.85527128,16.8343096 C9.66688506,17.2942519 9.25949924,17.5922642 8.66920758,17.4687301 C8.62027746,17.4615112 8.62027746,17.4615112 8.59067162,17.4555807 C8.526105,17.4417763 8.526105,17.4417763 8.4436362,17.4224147 C8.3388148,17.3975217 8.19639191,17.3621566 8.02518539,17.3187295 C7.92320848,17.2928229 7.8479204,17.2735649 7.77605387,17.2550933 L7.30047159,18.3334587 L8.95122798,18.738133 C9.10526581,18.7760913 9.26188554,18.8156117 9.46565181,18.8677089 C9.79430184,18.9520246 9.96081205,18.9946603 10.1163951,19.0338424 L10.5141261,19.134007 L9.83957573,21.7973978 L10.6644758,21.9997897 L11.335224,19.354064 L11.7452652,19.4634987 C12.1688478,19.5765474 12.5954908,19.6852615 13.0366955,19.7930139 L13.438306,19.8910965 L12.7718857,22.5165771 L13.5984673,22.7191506 L14.2680317,20.080431 Z M13.0626425,17.7767339 C13.563191,17.8997782 14.0382464,17.9890993 14.4804004,18.0346612 C15.7297433,18.1634002 16.4513376,17.9283886 16.5855188,17.2935382 C16.7476735,16.5280035 16.0915489,15.9240316 14.7389953,15.432108 C14.403914,15.310239 14.051687,15.2043 13.6371705,15.0950041 C13.5963993,15.0842539 13.4166062,15.0385679 13.233673,14.9915533 L12.5389429,17.6386567 C12.7271849,17.6919455 12.8649579,17.7281393 13.0626425,17.7767339 Z M12.6414281,13.9842047 L13.0555919,14.1059088 C12.6474079,13.9859619 14.4375741,14.4579766 15.0286908,14.6729657 C16.723343,15.2893105 17.6723812,16.1629134 17.3981804,17.4574186 C17.1484248,18.6390862 16.0169059,19.0076036 14.3932954,18.8402981 C13.9075756,18.7902469 13.3956624,18.6939958 12.8600201,18.5623248 C12.5360311,18.4826821 12.3655719,18.4348525 11.9187588,18.3042175 L11.5369419,18.1925854 L12.6414281,13.9842047 Z M15.7014909,12.9307253 C16.6186386,12.9541138 17.1303595,12.6922802 17.2351262,12.0723795 C17.3694463,11.2763131 16.8841283,10.7670254 15.8365902,10.3886341 C15.597576,10.3022975 15.0845072,10.1640836 14.710051,10.0645676 L13.9928862,12.6343388 C14.5125153,12.7904197 15.1496423,12.9166524 15.7014909,12.9307253 Z M14.1384801,9.03082416 L14.5652866,9.18794574 C14.5866487,9.19580983 15.683738,9.46963272 16.1245487,9.62886216 C17.4999283,10.1256762 18.2685068,10.9322146 18.0538927,12.204154 C17.8670073,13.3099488 16.9615488,13.7732471 15.6798221,13.7405614 C14.8867536,13.7203371 13.9832248,13.5094074 13.34372,13.2739844 L12.9905901,13.1439856 L14.1384801,9.03082416 Z" id="path3096" fill="#FF9500" fill-rule="nonzero"></path>
                                </g>
                            </g>
                        </g>
                        <path d="M170.5,152.5 C165.529437,152.5 161.5,148.470563 161.5,143.5 C161.5,138.529437 165.529437,134.5 170.5,134.5 C175.470563,134.5 179.5,138.529437 179.5,143.5 C179.5,148.470563 175.470563,152.5 170.5,152.5 Z M170.5,151.5 C174.918278,151.5 178.5,147.918278 178.5,143.5 C178.5,139.081722 174.918278,135.5 170.5,135.5 C166.081722,135.5 162.5,139.081722 162.5,143.5 C162.5,147.918278 166.081722,151.5 170.5,151.5 Z" id="Oval-2" fill="#FF9500" fill-rule="nonzero"></path>
                        <g id="Group" stroke-width="1" fill-rule="evenodd" transform="translate(241.116582, 149.378039) rotate(131.000000) translate(-241.116582, -149.378039) translate(171.116582, 76.378039)">
                            <polygon id="Path-28" fill="#1C3C55" fill-rule="nonzero" points="53.5376654 141.000247 53.3985447 140.009971 103.434107 132.980634 103.573227 133.970909"></polygon>
                            <polygon id="Path-28" fill="#1C3C55" fill-rule="nonzero" points="21.2315068 20.5678696 21.9995347 19.9274533 107.465578 122.42378 106.69755 123.064196"></polygon>
                            <polygon id="Path-28-Copy-5" fill="#1C3C55" fill-rule="nonzero" points="137.887061 62.3440973 138.838581 62.6516852 118.815367 124.593266 117.863848 124.285678"></polygon>
                            <polygon id="Path-28-Copy-6" fill="#1C3C55" fill-rule="nonzero" points="91.1413348 4.73470042 91.8960444 4.07864139 139.014976 58.2827715 138.260266 58.9388306"></polygon>
                            <polygon id="Path-28-Copy-7" fill="#1C3C55" fill-rule="nonzero" points="25.5766825 17.7785694 25.3560964 16.8032019 85.9361804 3.10259737 86.1567665 4.07796488"></polygon>
                            <polygon id="Path-28-Copy-3" fill="#1C3C55" fill-rule="nonzero" points="68.6369882 75.8484223 68.4293167 74.8702237 134.561485 60.8303673 134.769157 61.8085659"></polygon>
                            <polygon id="Path-28-Copy-4" fill="#1C3C55" fill-rule="nonzero" points="69.4294247 73.3193555 68.471418 73.0326097 87.9923319 7.81397851 88.9503386 8.10072428"></polygon>
                            <polygon id="Path-28-Copy-2" fill="#1C3C55" fill-rule="nonzero" points="0.112559452 83.3693148 0.87752777 82.7252469 46.3587484 136.743918 45.5937801 137.387986"></polygon>
                            <polygon id="Path-28-Copy-2" fill="#1C3C55" fill-rule="nonzero" points="70.0059014 68.3700092 70.9533279 68.6899827 47.8537084 137.086873 46.9062819 136.7669"></polygon>
                            <polygon id="ion-ios-arrow-right---Ionicons" fill="#FF9500" transform="translate(72.685873, 138.008805) rotate(177.000000) translate(-72.685873, -138.008805) " points="68.3413487 131.136782 69.0147715 130.508805 77.0303965 138.008805 69.0147715 145.508805 68.3422953 144.787662 75.6215495 137.999648"></polygon>
                            <polygon id="ion-ios-arrow-right---Ionicons-Copy-15" fill="#FF9500" transform="translate(44.464404, 13.497692) rotate(172.000000) translate(-44.464404, -13.497692) " points="40.1198804 6.62566842 40.7933032 5.99769153 48.8089282 13.4976915 40.7933032 20.9976915 40.120827 20.2765491 47.4000812 13.4885347"></polygon>
                            <polygon id="ion-ios-arrow-right---Ionicons-Copy" fill="#FF9500" transform="translate(54.058923, 117.664414) rotate(112.000000) translate(-54.058923, -117.664414) " points="49.7143992 110.792391 50.387822 110.164414 58.403447 117.664414 50.387822 125.164414 49.7153458 124.443272 56.9946 117.655258"></polygon>
                            <polygon id="ion-ios-arrow-right---Ionicons-Copy-7" fill="#FF9500" transform="translate(122.684131, 110.967310) rotate(112.000000) translate(-122.684131, -110.967310) " points="118.339608 104.095287 119.01303 103.46731 127.028655 110.96731 119.01303 118.46731 118.340554 117.746168 125.619808 110.958154"></polygon>
                            <polygon id="ion-ios-arrow-right---Ionicons-Copy-5" fill="#FF9500" transform="translate(75.539020, 52.673273) rotate(112.000000) translate(-75.539020, -52.673273) " points="71.1944961 45.8012498 71.8679189 45.1732729 79.8835439 52.6732729 71.8679189 60.1732729 71.1954427 59.4521305 78.4746969 52.6641161"></polygon>
                            <polygon id="ion-ios-arrow-right---Ionicons-Copy-3" fill="#FF9500" transform="translate(31.048306, 118.229854) rotate(56.000000) translate(-31.048306, -118.229854) " points="26.7037822 111.35783 27.377205 110.729854 35.39283 118.229854 27.377205 125.729854 26.7047288 125.008711 33.9839829 118.220697"></polygon>
                            <polygon id="ion-ios-arrow-right---Ionicons-Copy-9" fill="#FF9500" transform="translate(98.290568, 111.552015) rotate(56.000000) translate(-98.290568, -111.552015) " points="93.9460437 104.679992 94.6194665 104.052015 102.635091 111.552015 94.6194665 119.052015 93.9469903 118.330873 101.226244 111.542859"></polygon>
                            <polygon id="ion-ios-arrow-right---Ionicons-Copy-17" fill="#FF9500" transform="translate(113.160597, 65.904976) rotate(-14.000000) translate(-113.160597, -65.904976) " points="108.816073 59.0329525 109.489496 58.4049757 117.505121 65.9049757 109.489496 73.4049757 108.81702 72.6838332 116.096274 65.8958189"></polygon>
                            <polygon id="ion-ios-arrow-right---Ionicons-Copy-11" fill="#FF9500" transform="translate(49.862851, 53.345669) rotate(56.000000) translate(-49.862851, -53.345669) " points="45.5183267 46.4736454 46.1917495 45.8456685 54.2073745 53.3456685 46.1917495 60.8456685 45.5192733 60.1245261 52.7985275 53.3365117"></polygon>
                            <polygon id="ion-ios-arrow-right---Ionicons-Copy-13" fill="#FF9500" transform="translate(121.802474, 38.835107) rotate(56.000000) translate(-121.802474, -38.835107) " points="117.45795 31.9630837 118.131373 31.3351068 126.146998 38.8351068 118.131373 46.3351068 117.458897 45.6139643 124.738151 38.82595"></polygon>
                            <polygon id="ion-ios-arrow-right---Ionicons" fill="#FF9500" transform="translate(94.091103, 135.115313) rotate(-13.000000) translate(-94.091103, -135.115313) " points="89.6780027 128.340145 90.4885787 127.615313 98.5042037 135.115313 90.4885787 142.615313 89.7531428 141.922439 97.1809271 135.108679"></polygon>
                            <polygon id="ion-ios-arrow-right---Ionicons-Copy-16" fill="#FF9500" transform="translate(63.583146, 8.801572) rotate(-13.000000) translate(-63.583146, -8.801572) " points="59.1700458 2.0264039 59.9806219 1.3015724 67.9962469 8.8015724 59.9806219 16.3015724 59.2451859 15.6086981 66.6729702 8.79493768"></polygon>
                            <polygon id="ion-ios-arrow-right---Ionicons-Copy-2" fill="#FF9500" transform="translate(60.330829, 98.481704) rotate(-70.000000) translate(-60.330829, -98.481704) " points="55.9177285 91.7065351 56.7283045 90.9817036 64.7439295 98.4817036 56.7283045 105.981704 55.9928686 105.288829 63.4206529 98.4750688"></polygon>
                            <polygon id="ion-ios-arrow-right---Ionicons-Copy-8" fill="#FF9500" transform="translate(128.768840, 91.692337) rotate(-70.000000) translate(-128.768840, -91.692337) " points="124.35574 84.917169 125.166316 84.1923375 133.181941 91.6923375 125.166316 99.1923375 124.43088 98.4994632 131.858664 91.6857027"></polygon>
                            <polygon id="ion-ios-arrow-right---Ionicons-Copy-6" fill="#FF9500" transform="translate(81.680479, 28.199416) rotate(-70.000000) translate(-81.680479, -28.199416) " points="77.2673785 21.4242475 78.0779546 20.699416 86.0935796 28.199416 78.0779546 35.699416 77.3425186 35.0065417 84.7703029 28.1927813"></polygon>
                            <polygon id="ion-ios-arrow-right---Ionicons-Copy-4" fill="#FF9500" transform="translate(17.667863, 102.524446) rotate(-139.000000) translate(-17.667863, -102.524446) " points="13.2547625 95.7492778 14.0653385 95.0244463 22.0809635 102.524446 14.0653385 110.024446 13.3299025 109.331572 20.7576868 102.517812"></polygon>
                            <polygon id="ion-ios-arrow-right---Ionicons-Copy-10" fill="#FF9500" transform="translate(85.192873, 95.258207) rotate(-139.000000) translate(-85.192873, -95.258207) " points="80.7797725 88.4830386 81.5903485 87.7582071 89.6059735 95.2582071 81.5903485 102.758207 80.8549126 102.065333 88.2826968 95.2515724"></polygon>
                            <polygon id="ion-ios-arrow-right---Ionicons-Copy-18" fill="#FF9500" transform="translate(91.812091, 70.215349) rotate(-192.000000) translate(-91.812091, -70.215349) " points="87.3989902 63.4401807 88.2095662 62.7153492 96.2251912 70.2153492 88.2095662 77.7153492 87.4741303 77.0224749 94.9019146 70.2087144"></polygon>
                            <polygon id="ion-ios-arrow-right---Ionicons-Copy-12" fill="#FF9500" transform="translate(37.429257, 38.060630) rotate(-139.000000) translate(-37.429257, -38.060630) " points="33.0161569 31.2854612 33.8267329 30.5606297 41.8423579 38.0606297 33.8267329 45.5606297 33.0912969 44.8677554 40.5190812 38.053995"></polygon>
                            <polygon id="ion-ios-arrow-right---Ionicons-Copy-14" fill="#FF9500" transform="translate(107.916767, 23.173816) rotate(-139.000000) translate(-107.916767, -23.173816) " points="103.503667 16.3986473 104.314243 15.6738158 112.329868 23.1738158 104.314243 30.6738158 103.578807 29.9809415 111.006591 23.1671811"></polygon>
                        </g>
                        <g id="Group-Copy" stroke-width="1" fill-rule="evenodd" transform="translate(298.339734, 117.774071) scale(-1, 1) rotate(118.000000) translate(-298.339734, -117.774071) translate(270.339734, 108.774071)">
                            <polygon id="Path-28" fill="#1C3C55" fill-rule="nonzero" points="0.0121627466 7.98126885 0.0338690547 6.98150446 55.5642137 8.1871473 55.5425074 9.18691169"></polygon>
                            <polygon id="ion-ios-arrow-right---Ionicons" fill="#FF9500" transform="translate(17.386872, 7.961346) rotate(182.000000) translate(-17.386872, -7.961346) " points="13.042348 1.08932302 13.7157707 0.461346132 21.7313957 7.96134613 13.7157707 15.4613461 13.0432945 14.7402037 20.3225487 7.95218934"></polygon>
                            <polygon id="ion-ios-arrow-right---Ionicons" fill="#FF9500" transform="translate(44.404869, 9.293982) rotate(-3.000000) translate(-44.404869, -9.293982) " points="39.9917682 2.51881328 40.8023442 1.79398178 48.8179692 9.29398178 40.8023442 16.7939818 40.0669083 16.1011075 47.4946925 9.28734706"></polygon>
                        </g>
                        <circle id="Oval-2-Copy-6" stroke="#FF9500" stroke-width="1" fill="#FFFFFF" fill-rule="evenodd" cx="241.5" cy="145.5" r="8.5"></circle>
                        <circle id="Oval-2-Copy" stroke="#FF9500" stroke-width="1" fill="#FFFFFF" fill-rule="evenodd" cx="206.5" cy="89.5" r="8.5"></circle>
                        <path d="M206.5,98.5 C201.529437,98.5 197.5,94.4705627 197.5,89.5 C197.5,84.5294373 201.529437,80.5 206.5,80.5 C211.470563,80.5 215.5,84.5294373 215.5,89.5 C215.5,94.4705627 211.470563,98.5 206.5,98.5 Z M206.5,97.5 C210.918278,97.5 214.5,93.918278 214.5,89.5 C214.5,85.081722 210.918278,81.5 206.5,81.5 C202.081722,81.5 198.5,85.081722 198.5,89.5 C198.5,93.918278 202.081722,97.5 206.5,97.5 Z" id="Oval-2-Copy" fill="#FF9500" fill-rule="nonzero"></path>
                        <circle id="Oval-2-Copy-2" fill="#FFFFFF" fill-rule="evenodd" cx="206.5" cy="210.5" r="8.5"></circle>
                        <path d="M206.5,219.5 C201.529437,219.5 197.5,215.470563 197.5,210.5 C197.5,205.529437 201.529437,201.5 206.5,201.5 C211.470563,201.5 215.5,205.529437 215.5,210.5 C215.5,215.470563 211.470563,219.5 206.5,219.5 Z M206.5,218.5 C210.918278,218.5 214.5,214.918278 214.5,210.5 C214.5,206.081722 210.918278,202.5 206.5,202.5 C202.081722,202.5 198.5,206.081722 198.5,210.5 C198.5,214.918278 202.081722,218.5 206.5,218.5 Z" id="Oval-2-Copy-2" fill="#FF9500" fill-rule="nonzero"></path>
                        <circle id="Oval-2-Copy-3" stroke="#FF9500" stroke-width="1" fill="#FFFFFF" fill-rule="evenodd" cx="281.5" cy="89.5" r="8.5"></circle>
                        <path d="M281.5,98.5 C276.529437,98.5 272.5,94.4705627 272.5,89.5 C272.5,84.5294373 276.529437,80.5 281.5,80.5 C286.470563,80.5 290.5,84.5294373 290.5,89.5 C290.5,94.4705627 286.470563,98.5 281.5,98.5 Z M281.5,97.5 C285.918278,97.5 289.5,93.918278 289.5,89.5 C289.5,85.081722 285.918278,81.5 281.5,81.5 C277.081722,81.5 273.5,85.081722 273.5,89.5 C273.5,93.918278 277.081722,97.5 281.5,97.5 Z" id="Oval-2-Copy-3" fill="#FF9500" fill-rule="nonzero"></path>
                        <circle id="Oval-2-Copy-4" stroke="#FF9500" stroke-width="1" fill="#FFFFFF" fill-rule="evenodd" cx="313.5" cy="147.5" r="8.5"></circle>
                        <path d="M313.5,156.5 C308.529437,156.5 304.5,152.470563 304.5,147.5 C304.5,142.529437 308.529437,138.5 313.5,138.5 C318.470563,138.5 322.5,142.529437 322.5,147.5 C322.5,152.470563 318.470563,156.5 313.5,156.5 Z M313.5,155.5 C317.918278,155.5 321.5,151.918278 321.5,147.5 C321.5,143.081722 317.918278,139.5 313.5,139.5 C309.081722,139.5 305.5,143.081722 305.5,147.5 C305.5,151.918278 309.081722,155.5 313.5,155.5 Z" id="Oval-2-Copy-4" fill="#FF9500" fill-rule="nonzero"></path>
                        <circle id="Oval-2-Copy-5" stroke="#FF9500" stroke-width="1" fill="#FFFFFF" fill-rule="evenodd" cx="281.5" cy="210.5" r="8.5"></circle>
                        <path d="M281.5,219.5 C276.529437,219.5 272.5,215.470563 272.5,210.5 C272.5,205.529437 276.529437,201.5 281.5,201.5 C286.470563,201.5 290.5,205.529437 290.5,210.5 C290.5,215.470563 286.470563,219.5 281.5,219.5 Z M281.5,218.5 C285.918278,218.5 289.5,214.918278 289.5,210.5 C289.5,206.081722 285.918278,202.5 281.5,202.5 C277.081722,202.5 273.5,206.081722 273.5,210.5 C273.5,214.918278 277.081722,218.5 281.5,218.5 Z" id="Oval-2-Copy-5" fill="#FF9500" fill-rule="nonzero"></path>
                        <path d="M200.771,68 L199.796,68 L199.796,61.5 L200.758,61.5 L200.758,61.955 C201.408003,61.564998 202.040664,61.37 202.656,61.37 C203.462004,61.37 204.025332,61.5909978 204.346,62.033 C204.632001,61.8596658 205.002498,61.705834 205.4575,61.5715 C205.912502,61.437166 206.313332,61.37 206.66,61.37 C207.526671,61.37 208.109499,61.601831 208.4085,62.0655 C208.707501,62.529169 208.857,63.3633273 208.857,64.568 L208.857,68 L207.882,68 L207.882,64.594 C207.882,63.6926622 207.795334,63.0751683 207.622,62.7415 C207.448666,62.4078317 207.080336,62.241 206.517,62.241 C206.230999,62.241 205.936335,62.2821663 205.633,62.3645 C205.329665,62.4468337 205.095667,62.5269996 204.931,62.605 L204.684,62.722 C204.796667,63.0080014 204.853,63.6406618 204.853,64.62 L204.853,68 L203.878,68 L203.878,64.646 C203.878,63.7099953 203.793501,63.0751683 203.6245,62.7415 C203.455499,62.4078317 203.085003,62.241 202.513,62.241 C202.235665,62.241 201.951835,62.2821663 201.6615,62.3645 C201.371165,62.4468337 201.148001,62.5269996 200.992,62.605 L200.771,62.722 L200.771,68 Z M210.664,68 L210.664,61.5 L211.639,61.5 L211.639,68 L210.664,68 Z M210.664,60.031 L210.664,58.9 L211.639,58.9 L211.639,60.031 L210.664,60.031 Z M212.861,61.5 L213.927,61.5 L215.513,64.048 L217.099,61.5 L218.165,61.5 L216.098,64.724 L218.152,68 L217.086,68 L215.513,65.465 L213.927,68 L212.861,68 L214.902,64.75 L212.861,61.5 Z M219.387,68 L219.387,61.5 L220.362,61.5 L220.362,68 L219.387,68 Z M219.387,60.031 L219.387,58.9 L220.362,58.9 L220.362,60.031 L219.387,60.031 Z M223.209,68 L222.234,68 L222.234,61.5 L223.196,61.5 L223.196,61.955 C223.898004,61.564998 224.569663,61.37 225.211,61.37 C226.077671,61.37 226.660499,61.6039977 226.9595,62.072 C227.258501,62.5400023 227.408,63.371994 227.408,64.568 L227.408,68 L226.446,68 L226.446,64.594 C226.446,63.6926622 226.357168,63.0751683 226.1795,62.7415 C226.001832,62.4078317 225.62267,62.241 225.042,62.241 C224.764665,62.241 224.472168,62.2821663 224.1645,62.3645 C223.856832,62.4468337 223.620667,62.5269996 223.456,62.605 L223.209,62.722 L223.209,68 Z M231.724,71.055 C230.683995,71.055 229.958169,70.9141681 229.5465,70.6325 C229.134831,70.3508319 228.929,69.8373371 228.929,69.092 C228.929,68.7366649 229.006999,68.4485011 229.163,68.2275 C229.319001,68.0064989 229.583331,67.7573347 229.956,67.48 C229.713332,67.3153325 229.592,67.0163355 229.592,66.583 C229.592,66.4356659 229.700332,66.1626687 229.917,65.764 L230.034,65.556 C229.34933,65.2439984 229.007,64.5896716 229.007,63.593 C229.007,62.1109926 229.817325,61.37 231.438,61.37 C231.854002,61.37 232.239665,61.4133329 232.595,61.5 L232.79,61.539 L234.714,61.487 L234.714,62.319 L233.479,62.293 C233.765001,62.5790014 233.908,63.0123304 233.908,63.593 C233.908,64.4076707 233.706502,64.9774984 233.3035,65.3025 C232.900498,65.6275016 232.265671,65.79 231.399,65.79 C231.164999,65.79 230.952668,65.7726668 230.762,65.738 C230.605999,66.1193352 230.528,66.3663328 230.528,66.479 C230.528,66.747668 230.610333,66.9144997 230.775,66.9795 C230.939667,67.0445003 231.437996,67.077 232.27,67.077 C233.102004,67.077 233.699998,67.2069987 234.064,67.467 C234.428002,67.7270013 234.61,68.2339962 234.61,68.988 C234.61,70.3660069 233.64801,71.055 231.724,71.055 Z M229.891,69.014 C229.891,69.4733356 230.018832,69.7918324 230.2745,69.9695 C230.530168,70.1471676 231.002497,70.236 231.6915,70.236 C232.380503,70.236 232.874499,70.1406676 233.1735,69.95 C233.472501,69.7593324 233.622,69.4408356 233.622,68.9945 C233.622,68.5481644 233.513668,68.2600006 233.297,68.13 C233.080332,67.9999993 232.65567,67.935 232.023,67.935 L230.619,67.87 C230.332999,68.078001 230.140167,68.2599992 230.0405,68.416 C229.940833,68.5720008 229.891,68.7713321 229.891,69.014 Z M229.982,63.593 C229.982,64.1043359 230.096832,64.4683323 230.3265,64.685 C230.556168,64.9016678 230.935331,65.01 231.464,65.01 C231.992669,65.01 232.369666,64.9016678 232.595,64.685 C232.820334,64.4683323 232.933,64.1021692 232.933,63.5865 C232.933,63.0708308 232.820334,62.7046677 232.595,62.488 C232.369666,62.2713323 231.992669,62.163 231.464,62.163 C230.935331,62.163 230.556168,62.2734989 230.3265,62.4945 C230.096832,62.7155011 229.982,63.0816641 229.982,63.593 Z M240.798,62.241 C239.853329,62.241 239.381,62.57033 239.381,63.229 C239.381,63.5323348 239.489332,63.7468327 239.706,63.8725 C239.922668,63.9981673 240.416663,64.128166 241.188,64.2625 C241.959337,64.396834 242.505332,64.5853321 242.826,64.828 C243.146668,65.0706679 243.307,65.5256633 243.307,66.193 C243.307,66.8603367 243.092502,67.3499984 242.6635,67.662 C242.234498,67.9740016 241.608337,68.13 240.785,68.13 C240.247664,68.13 239.615004,68.0693339 238.887,67.948 L238.497,67.883 L238.549,67.038 C239.537005,67.1853341 240.282331,67.259 240.785,67.259 C241.287669,67.259 241.671165,67.1788341 241.9355,67.0185 C242.199835,66.8581659 242.332,66.5895019 242.332,66.2125 C242.332,65.8354981 242.219334,65.579834 241.994,65.4455 C241.768666,65.311166 241.27467,65.1833339 240.512,65.062 C239.74933,64.9406661 239.207668,64.7630012 238.887,64.529 C238.566332,64.2949988 238.406,63.8616698 238.406,63.229 C238.406,62.5963302 238.629164,62.1283349 239.0755,61.825 C239.521836,61.5216652 240.078663,61.37 240.746,61.37 C241.274669,61.37 241.937663,61.4306661 242.735,61.552 L243.099,61.617 L243.073,62.449 C242.110995,62.3103326 241.352669,62.241 240.798,62.241 Z M249.222,67.194 L249.599,67.155 L249.625,67.922 C248.636995,68.0606674 247.792004,68.13 247.09,68.13 C246.153995,68.13 245.491002,67.8591694 245.101,67.3175 C244.710998,66.7758306 244.516,65.9330057 244.516,64.789 C244.516,62.5096553 245.421658,61.37 247.233,61.37 C248.108338,61.37 248.762665,61.6148309 249.196,62.1045 C249.629336,62.5941691 249.846,63.3633281 249.846,64.412 L249.794,65.153 L245.504,65.153 C245.504,65.8723369 245.633999,66.4053316 245.894,66.752 C246.154001,67.0986684 246.60683,67.272 247.2525,67.272 C247.89817,67.272 248.554663,67.2460003 249.222,67.194 Z M248.871,64.373 C248.871,63.5756627 248.743168,63.012335 248.4875,62.683 C248.231832,62.353665 247.815836,62.189 247.2395,62.189 C246.663164,62.189 246.229835,62.3623316 245.9395,62.709 C245.649165,63.0556684 245.499667,63.6103295 245.491,64.373 L248.871,64.373 Z M251.367,68 L251.367,61.5 L252.329,61.5 L252.329,62.384 C253.083004,61.8639974 253.875996,61.5216675 254.708,61.357 L254.708,62.345 C254.343998,62.4143337 253.964835,62.5226659 253.5705,62.67 C253.176165,62.8173341 252.875001,62.9473328 252.667,63.06 L252.342,63.229 L252.342,68 L251.367,68 Z M255.254,61.5 L256.294,61.5 L257.815,67.155 L258.296,67.155 L259.869,61.5 L260.87,61.5 L259.037,68 L257.087,68 L255.254,61.5 Z M262.118,68 L262.118,61.5 L263.093,61.5 L263.093,68 L262.118,68 Z M262.118,60.031 L262.118,58.9 L263.093,58.9 L263.093,60.031 L262.118,60.031 Z M267.396,61.37 C267.682001,61.37 268.16733,61.4219995 268.852,61.526 L269.164,61.565 L269.125,62.358 C268.431663,62.2799996 267.920335,62.241 267.591,62.241 C266.85433,62.241 266.353835,62.4164982 266.0895,62.7675 C265.825165,63.1185018 265.693,63.7684953 265.693,64.7175 C265.693,65.6665047 265.816499,66.3273315 266.0635,66.7 C266.310501,67.0726685 266.823996,67.259 267.604,67.259 L269.138,67.142 L269.177,67.948 C268.370996,68.0693339 267.768669,68.13 267.37,68.13 C266.355995,68.13 265.656169,67.8700026 265.2705,67.35 C264.884831,66.8299974 264.692,65.9525062 264.692,64.7175 C264.692,63.4824938 264.899998,62.6158358 265.316,62.1175 C265.732002,61.6191642 266.425328,61.37 267.396,61.37 Z M274.975,67.194 L275.352,67.155 L275.378,67.922 C274.389995,68.0606674 273.545004,68.13 272.843,68.13 C271.906995,68.13 271.244002,67.8591694 270.854,67.3175 C270.463998,66.7758306 270.269,65.9330057 270.269,64.789 C270.269,62.5096553 271.174658,61.37 272.986,61.37 C273.861338,61.37 274.515665,61.6148309 274.949,62.1045 C275.382336,62.5941691 275.599,63.3633281 275.599,64.412 L275.547,65.153 L271.257,65.153 C271.257,65.8723369 271.386999,66.4053316 271.647,66.752 C271.907001,67.0986684 272.35983,67.272 273.0055,67.272 C273.65117,67.272 274.307663,67.2460003 274.975,67.194 Z M274.624,64.373 C274.624,63.5756627 274.496168,63.012335 274.2405,62.683 C273.984832,62.353665 273.568836,62.189 272.9925,62.189 C272.416164,62.189 271.982835,62.3623316 271.6925,62.709 C271.402165,63.0556684 271.252667,63.6103295 271.244,64.373 L274.624,64.373 Z M279.161,62.241 C278.216329,62.241 277.744,62.57033 277.744,63.229 C277.744,63.5323348 277.852332,63.7468327 278.069,63.8725 C278.285668,63.9981673 278.779663,64.128166 279.551,64.2625 C280.322337,64.396834 280.868332,64.5853321 281.189,64.828 C281.509668,65.0706679 281.67,65.5256633 281.67,66.193 C281.67,66.8603367 281.455502,67.3499984 281.0265,67.662 C280.597498,67.9740016 279.971337,68.13 279.148,68.13 C278.610664,68.13 277.978004,68.0693339 277.25,67.948 L276.86,67.883 L276.912,67.038 C277.900005,67.1853341 278.645331,67.259 279.148,67.259 C279.650669,67.259 280.034165,67.1788341 280.2985,67.0185 C280.562835,66.8581659 280.695,66.5895019 280.695,66.2125 C280.695,65.8354981 280.582334,65.579834 280.357,65.4455 C280.131666,65.311166 279.63767,65.1833339 278.875,65.062 C278.11233,64.9406661 277.570668,64.7630012 277.25,64.529 C276.929332,64.2949988 276.769,63.8616698 276.769,63.229 C276.769,62.5963302 276.992164,62.1283349 277.4385,61.825 C277.884836,61.5216652 278.441663,61.37 279.109,61.37 C279.637669,61.37 280.300663,61.4306661 281.098,61.552 L281.462,61.617 L281.436,62.449 C280.473995,62.3103326 279.715669,62.241 279.161,62.241 Z" id="mixing-services" fill="#1C3C55" fill-rule="evenodd"></path>
                        <g id="czlowiek2" stroke-width="1" fill-rule="evenodd" transform="translate(34.000000, 65.000000)" fill="#FFFFFF">
                            <path d="M30.7445676,18 C30.7445676,18.8722691 34.2452919,24.1058836 29.8693865,29.3394981 C25.4934811,34.5731125 30.4150281,27.9615259 23.659107,34.4386023 C20.8849748,37.0982347 17.9158774,44.0566006 14.751815,55.3136999 C10.2608288,85.9220514 8.01533578,102.254663 8.01533578,104.311534 C8.01533578,106.133919 9.43714182,108.746028 10.6218209,107.843715 C11.4428094,107.218408 12.1630524,103.709396 12.1630524,102.017565 C12.1630524,87.5294398 21.1205762,61.4269626 20.7604025,62.5038884 C19.8852214,65.1206957 15.4105457,86.3167212 16.2857268,102.017565 C17.1609079,117.718408 12.3657649,139.245402 11.4905839,150.5849 C10.6154028,161.924398 10.6154028,188.96474 7.11467847,195.942893 C3.61395415,202.921045 -0.761951244,204.665583 0.113229835,205.537853 C0.988410915,206.410122 13.240946,202.048776 13.240946,199.431969 C13.240946,196.815162 11.4905839,196.815162 13.240946,193.326085 C14.9913082,189.837009 25.4934811,162.796668 25.4934811,154.073977 C25.4934811,145.351286 30.7445676,119.183213 30.7445676,119.183213 C30.7445676,119.183213 34.2452919,108.715984 35.120473,107.843715 C35.9956541,106.971446 37.7460163,138.373133 40.3715595,149.712631 C42.1219216,162.796668 39.4963784,161.924398 42.9971027,177.625242 C46.497827,193.326085 46.497827,195.942893 45.622646,198.5597 C44.7474649,201.176507 44.7474649,202.048776 48.2481892,203.793314 C51.7489135,205.537853 57,207.282391 56.1248189,204.665583 C55.2496378,202.048776 50.8737324,199.431969 50.8737324,196.815162 C50.8737324,194.198354 53.4992757,162.796668 54.3744568,156.690784 C55.2496378,150.5849 54.3744568,138.926235 54.3744568,131.075813 L50.6094389,108.123448 C50.6094389,103.762103 49.9985514,72.9529521 49.1233703,67.7193376 C48.2481892,62.4857232 48.2481892,57.9452431 49.1233703,59.6897813 C49.9985514,61.4343194 47.1087146,79.8936885 49.7342578,86.8718412 C52.359801,93.8499938 55.1752476,102.685932 55.1752476,107.047277 C55.1752476,111.408623 51.4021295,108.02965 51.868133,109.901743 C52.3341364,111.773835 53.4248855,114.616807 55.1752476,112 C56.9256098,109.383193 55.2496378,93.8128693 54.3744568,88.5792548 C53.7910027,85.0901784 54.6661838,78.7394724 57,69.5271366 C54.0827297,51.4580684 51.7489135,41.2605088 49.9985514,38.934458 C47.3730081,35.4453816 41.2467406,32.8285744 39.4963784,30.2117671 C37.7460163,27.5949599 37.7460163,18 37.7460163,18 L30.7445676,18 Z" id="Fill-1-Copy" stroke="#1C3C55" stroke-width="0.7"></path>
                            <path d="M28.3398154,30 C28.3398154,30 30.0709165,38.7126578 35.2642198,39.5839236 C40.4575231,40.4551894 42.2310362,30.5454124 43.074948,30.7083391 C43.9197254,30.8712658 45.6612131,32.5197006 45.6612131,32.5197006 C45.6612131,32.5197006 45.1704459,48.4943587 45.6508265,50.9103787 C46.516377,55.2667076 49.9785793,59.6230365 49.9785793,59.6230365 C49.9785793,59.6230365 49.478291,61.5920972 50.5939857,68.8845917 C50.9983394,71.5275617 54.2722752,81.6003596 55.9927029,93.6561618 C59.0192872,114.864784 61,142.558508 61,149.224494 C61,152.709557 43.3715711,154.620319 32.1194139,153.749053 C23.3011848,153.065981 10.829834,154.566335 10.4433481,153.749053 C9.10597639,150.920984 11.0813863,126.59877 12.5695313,106.317179 C13.5104277,93.4939144 16.5233927,81.0625113 17.0876582,78.7908836 C17.0876582,78.7908836 21.1271826,64.5604997 20.8380887,61.2200667 C20.5498604,57.8805049 24.8776132,56.1379734 25.7431637,48.2965814 C26.6087143,40.4551894 24.8776132,31.7425316 24.8776132,31.7425316 L28.3398154,30 Z" id="Fill-5" stroke="#FF9500" stroke-width="0.7"></path>
                            <path d="M32.0986965,21.5409598 C32.0986965,21.5409598 33.0659184,23.2022594 36.4880659,22.9794336 C39.9110709,22.7566078 42.2562409,19.1552614 41.9775644,14.8622087 C41.6997453,10.5700163 41.3113131,4.56060285 36.1219278,4.03580082 C30.9325425,3.51185912 28.6988431,8.83042661 29.0323975,13.9812295 C29.3650943,19.1328928 32.0986965,21.5409598 32.0986965,21.5409598" id="Fill-19" stroke="#1C3C55" stroke-width="0.7"></path>
                            <path d="M35.9807884,0.164879994 C36.7607957,0.974157764 36.7607957,2.5927133 37.5408029,2.5927133 C38.3208101,2.5927133 40.6608317,0.164879994 40.6608317,1.78343553 C40.6608317,3.40199107 39.8808245,3.40199107 41.440839,4.21038342 C43,5.01966119 43,5.82893896 43,6.63821673 C43,7.44660907 40.6608317,6.63821673 39.8808245,7.44660907 C39.0999639,8.25677226 41.2932008,9.01912255 38.7330021,9.01912255 C36.073809,9.01912255 38.5862174,9.53798116 36.1728033,10.7899711 C34.4660042,11.6753953 34.4216274,9.06516461 33.6416202,9.06516461 C32.8624664,9.06516461 35.3194038,11.6753953 33.6126046,11.6753953 C31.8691092,11.6753953 32.759205,11.6753953 31.9058054,10.7899711 C30.672643,9.51141843 32.5356143,12.9109038 31.3024519,14.1894564 C30.4490523,15.0748806 31.9149856,16.1824999 32.6941394,16.9917777 C33.4741466,17.8010555 34.3926118,21.1785428 33.6126046,21.9869351 C32.8325974,22.7962129 31.7756742,23.5510621 32.6941394,28.5663172 C33.6126046,33.5815724 27.9789434,36.1029625 25.8173386,36.1029625 C23.6557338,36.1029625 22.7631549,41.4794717 21.4018842,37.5836403 C20.4943703,34.9864193 21.1238318,31.0943064 23.2902684,25.9073014 C23.2902684,25.9073014 22.7249392,15.8080119 22.7249392,14.1894564 C22.7249392,12.5709008 22.7249392,9.55675531 25.8173386,6.63821673 C28.9097381,3.71967814 30.5224447,3.40199107 31.3024519,3.40199107 C32.0824591,3.40199107 31.3024519,1.78343553 33.6416202,1.78343553 C33.6416202,1.78343553 35.2016346,-0.643512351 35.9807884,0.164879994 Z" id="Fill-23" stroke="#1C3C55" stroke-width="0.7"></path>
                        </g>
                        <g id="czlowiek" stroke-width="1" fill-rule="evenodd" transform="translate(409.500000, 166.000000) scale(-1, 1) translate(-409.500000, -166.000000) translate(377.000000, 61.000000)" fill="#FFFFFF">
                            <path d="M12.4735053,190 L13.3097825,199.973748 C13.3097825,199.973748 9.9646737,204.129476 7.45584213,206.622913 C5.78328775,208.285204 9.12839651,208.285204 10.8009509,207.454058 C12.4735053,206.622913 19.6278566,204.771951 19.1637228,202.467185 C18.3274456,198.311456 20,190.831146 20,190.831146 L12.4735053,190 Z" id="Fill-11" stroke="#1C3C55" stroke-width="0.7"></path>
                            <path d="M35.7013099,192 L34.8456088,202.000891 C34.8456088,202.000891 37.3057495,205.442864 39.9798155,207.834744 C42.7745353,210.334966 39.1241143,210.334966 37.4127121,209.501559 C35.7013099,208.668151 28.380787,206.812153 28.8557011,204.501113 C29.7114022,200.334076 28,192.833408 28,192.833408 L35.7013099,192 Z" id="Fill-13" stroke="#1C3C55" stroke-width="0.7"></path>
                            <path d="M33.0702168,61.9933412 C33.0702168,61.9933412 43.7785185,74.610786 42.954803,99.0045125 C42.1310875,123.398239 34.7176478,196.579419 34.7176478,196.579419 C34.7176478,196.579419 26.4804927,198.261744 26.4804927,194.897093 C26.4804927,191.428978 24.8330617,113.304283 24.0093461,104.05149 C23.1856306,94.7986976 20.7144841,194.897093 20.7144841,194.897093 C20.7144841,194.897093 19.067053,196.579419 15.772191,196.579419 C12.4773289,196.579419 11.6536134,195.738256 11.6536134,195.738256 C11.6536134,195.738256 4.24017378,122.557076 5.06388929,104.05149 C5.88760481,85.5459047 9.18246687,61.1521782 11.6536134,58.6286893 C14.12476,56.1052003 33.0702168,61.9933412 33.0702168,61.9933412" id="Fill-15" stroke="#1C3C55" stroke-width="0.7"></path>
                            <path d="M35.8887417,40.4204095 C30.9834369,29.6253975 26.8956829,29.6253975 26.8956829,29.6253975 C22.8079289,28.795012 26.0781321,18 26.0781321,18 L19.5377257,18 C20.3552765,19.6607711 20.3552765,27.9646264 18.7201749,28.795012 C17.0850733,29.6253975 12.9973193,27.9646264 8.90956535,34.6077107 C4.82181136,41.250795 0.734057375,60.3496623 2.36915897,75.2966019 C4.00426056,90.2435416 9.72711614,101.038554 12.1797685,101.868939 C14.6324209,102.699325 12.8656937,99.6725693 10.5446669,90.2435416 C8.90956535,83.6004573 9.12294611,78.9311994 9.46222969,74.4562518 C10.0157116,67.1604845 11.9573947,60.0141866 12.9785157,57.9008554 C12.8076475,58.2836631 10.8120061,65.3859506 14.6324209,66.1623611 C18.7201749,66.9927466 31.8009877,66.9927466 34.2536401,65.3319755 C35.242059,64.6626848 33.0258171,52.7496485 33.8515434,50.5184026 C36.7701998,52.0579374 40.4739066,59.1967119 46.5854395,61.0834073 C52.6969724,62.9701026 60.2329377,65.3319755 60.6774862,69.9025652 C61.1220346,74.4731548 65.7712456,69.8135679 64.8888933,66.1623611 C64.006541,62.5111542 56.2497256,58.4111685 53.1485297,57.4022529 C41.0541201,52.5421286 40.7940464,51.2154214 35.8887417,40.4204095 Z" id="Fill-17" stroke="#1C3C55" stroke-width="0.7"></path>
                            <path d="M21.0986965,21.6177514 C21.0986965,21.6177514 22.0659184,23.1916141 25.4880659,22.980516 C28.9110709,22.7694179 31.2562409,19.357616 30.9775644,15.2905135 C30.6997453,11.224226 30.3113131,5.53109744 25.1219278,5.03391657 C19.9325425,4.53755074 17.6988431,9.57619363 18.0323975,14.4559017 C18.3650943,19.3364247 21.0986965,21.6177514 21.0986965,21.6177514" id="Fill-19" stroke="#1C3C55" stroke-width="0.7"></path>
                            <path d="M39.9983895,75.4056786 C40.0249904,75.8387126 19.9524709,78.3231391 8.30728613,76.0637205 C9.53435961,67.0107626 11.2505463,55.9726409 11.2505463,55.9726409 C11.2505463,55.9726409 2.66961286,55.1235546 0.0953328308,54.2744684 C-0.762760513,54.2744684 4.38579955,38.1418291 6.96007958,33.8963977 C8.83329735,30.8074218 12.966733,26.2546211 18.115293,27.1037074 C18.115293,29.6509663 19.8314797,30.5000525 22.4057598,30.5000525 C24.9800398,30.5000525 25.8381331,27.9527937 25.8381331,27.9527937 C25.8381331,27.9527937 28.4124132,27.9527937 30.9866932,30.5000525 C33.5609732,33.0473114 43,50.8781232 43,50.8781232 L36.9933466,53.4253821 C36.9933466,53.4253821 39.571059,68.5170416 39.9983895,75.4056786" id="Fill-21" stroke="#FF9500"></path>
                            <path d="M23.6899696,1.6951371 C23.6899696,1.6951371 25.2419243,-0.611651862 26.0170527,0.156716736 C26.79303,0.925926921 26.79303,2.46434729 27.5690074,2.46434729 C28.3449848,2.46434729 30.6729169,0.156716736 30.6729169,1.6951371 C30.6729169,3.23355747 29.8969395,3.23355747 31.4488943,4.00192607 C33,4.77113626 33,5.54034644 33,6.30955662 C33,7.07792522 30.6729169,6.30955662 29.8969395,7.07792522 C29.1201132,7.84797699 31.3020189,8.57258309 28.7550472,8.57258309 C26.1095926,8.57258309 28.6090208,9.06575285 26.2080756,10.2557564 C24.5100944,11.097343 24.4659469,8.61634559 23.6899696,8.61634559 C22.9148412,8.61634559 25.359085,11.097343 23.6611039,11.097343 C21.9266162,11.097343 22.8121133,11.097343 21.9631228,10.2557564 C20.7363314,9.04050525 22.3409236,10.7236785 21.1141322,11.9389296 C20.2651417,12.7805163 19.8117807,12.4615549 20.5869091,13.2307651 C21.3628864,13.9999753 22.9148412,14.7691855 22.1388638,15.5375541 C21.3628864,16.3067643 22.9148412,18.6143948 20.5869091,17.8451846 C18.259826,17.0759744 19.8117807,17.0759744 19.0358033,15.5375541 C18.259826,13.9999753 18.259826,13.9999753 17.4829996,13.9999753 C16.7078712,13.9999753 14.3807881,13.2307651 15.1559165,11.6923447 L16.7078712,8.61634559 C16.7078712,8.61634559 15.1559165,7.84797699 15.1559165,6.30955662 C15.1559165,4.77113626 18.259826,5.54034644 18.259826,5.54034644 C18.259826,5.54034644 16.7078712,3.23355747 18.259826,2.46434729 C19.8117807,1.6951371 20.5869091,3.23355747 21.3628864,3.23355747 C22.1388638,3.23355747 21.3628864,1.6951371 23.6899696,1.6951371" id="Fill-23" stroke="#1C3C55" stroke-width="0.7"></path>
                        </g>
                        <g id="Group-9" stroke-width="1" fill-rule="evenodd" transform="translate(127.984748, 110.811973) rotate(-15.000000) translate(-127.984748, -110.811973) translate(111.484748, 91.311973)">
                            <g id="Group-9-Copy" transform="translate(18.847772, 25.045521) rotate(-15.000000) translate(-18.847772, -25.045521) translate(7.847772, 14.045521)">
                                <g id="Group-4" transform="translate(0.000000, 0.000000)">
                                    <g id="Group-5" transform="translate(0.311304, 0.805686)">
                                        <ellipse id="Oval" fill="#FFFFFF" cx="10.4210855" cy="10.5573024" rx="10.2515481" ry="10.008103"></ellipse>
                                        <ellipse id="Oval" stroke="#FF9500" stroke-width="0.9" cx="10.4210855" cy="10.5573024" rx="10.2515481" ry="10.008103"></ellipse>
                                        <path d="M16.0362771,9.17195155 C15.9058276,10.0393086 15.4968758,10.6378216 14.8589837,10.9701201 C15.774478,11.6548678 16.0468795,12.6226269 15.5830809,13.9248835 C14.9472385,15.7116115 13.5666805,16.1909778 11.1936842,15.8034344 L10.6809717,17.8240083 L8.84889035,17.3750131 L9.35013101,15.400287 C9.22448478,15.3687948 9.10002868,15.3370759 8.97628386,15.3049895 L8.4747515,17.2832533 L6.64420097,16.8341217 L7.15257238,14.8268709 C7.09713879,14.8126722 7.03392113,14.796459 6.95989747,14.7774678 C6.80830434,14.7387097 6.69216768,14.7094046 6.57880357,14.6814689 L4.62673229,14.2029292 L5.48744156,12.2513024 L5.74805359,12.3194587 C5.77916366,12.3275948 5.81507575,12.3369511 5.85443426,12.3471628 L6.63451873,12.5370126 C6.74756882,12.5645257 6.79001651,12.5343493 6.81841529,12.4727735 L7.54852807,9.59430459 L7.62277846,9.30124776 L7.69529452,9.01567805 L8.1865081,7.09912225 C8.19841187,6.89603921 8.12149512,6.77684827 7.8502541,6.71025906 L7.17443048,6.54434551 C7.09684707,6.52362408 7.02328332,6.50690336 6.96513426,6.4937986 L6.65636816,6.42421356 L7.13426513,4.5373594 L7.43890224,4.61333623 L9.12798603,5.03459908 C9.27488362,5.07051457 9.41612739,5.10364577 9.60659032,5.14694637 L10.1108458,3.16000887 L11.9421455,3.60906825 L11.450911,5.54579523 C11.5965451,5.57879292 11.7165809,5.606348 11.8267359,5.63216477 L12.3163204,3.70087966 L14.1483847,4.14987064 L13.6386136,6.16063552 C15.3904393,6.8114191 16.2534021,7.74471839 16.0362771,9.17195155 Z M10.7292848,15.1000969 L11.0195148,15.154108 C13.3044328,15.5793253 14.457936,15.2302807 14.9936586,13.7248912 C15.4360021,12.4828763 15.0974066,11.7223412 14.0162085,11.1687895 L13.2722558,10.7879006 L14.0905217,10.602344 C14.8389664,10.4326206 15.2870865,9.95980971 15.4189646,9.08295652 C15.5916519,7.94782477 14.8483378,7.21096577 13.1660617,6.64111875 L12.897066,6.5500003 L13.3932336,4.59289365 L12.7716432,4.44055811 L12.2824517,6.37029266 L11.9788299,6.29589161 C11.71046,6.23012889 11.4746463,6.17593203 11.0019518,6.06983875 L10.6927414,6.00043843 L11.1869476,4.05199553 L10.5659901,3.89972838 L10.0647024,5.87497159 L9.76583238,5.8080359 C9.40127161,5.72638794 9.19588274,5.67920205 8.97496189,5.62518487 L7.58908608,5.27954593 L7.41401904,5.97075341 C7.45981123,5.98135798 7.50683842,5.99231083 7.55388912,6.00335033 C7.70613242,6.03918535 7.80782831,6.06380637 7.8821168,6.08280143 C7.94049973,6.09792495 7.94049973,6.09792495 7.98713038,6.11125984 C8.00908324,6.11790585 8.00908324,6.11790585 8.03813945,6.12860088 C8.59424713,6.27873821 8.83677048,6.66669704 8.80086949,7.18969482 L8.22851311,9.44759003 L8.07706268,9.41100041 L8.22640587,9.45622259 L7.41097399,12.6590762 C7.26931119,13.004944 6.96296491,13.2290435 6.51907696,13.1361482 C6.48228245,13.1307198 6.48228245,13.1307198 6.46001943,13.1262601 C6.41146658,13.1158795 6.41146658,13.1158795 6.34945163,13.10132 C6.27062796,13.0826009 6.16352869,13.056007 6.03478469,13.0233507 C5.95810002,13.0038694 5.90148483,12.9893877 5.84744259,12.9754975 L5.48981389,13.7864075 L6.73115086,14.0907147 C6.84698434,14.1192587 6.96475936,14.1489772 7.11798766,14.1881533 C7.36512615,14.2515571 7.49033862,14.2836183 7.60733404,14.3130825 L7.9064201,14.3884044 L7.39917124,16.3912229 L8.01948016,16.5434177 L8.52386994,14.553883 L8.83221297,14.6361758 C9.15073893,14.7211862 9.47156624,14.8029371 9.80334364,14.8839648 L10.1053471,14.9577211 L9.6042118,16.9320319 L10.2257852,17.0843633 L10.7292848,15.1000969 Z M9.82285528,13.3677612 C10.1992581,13.4602881 10.5564906,13.5274558 10.888982,13.5617175 C11.8284637,13.6585267 12.3710887,13.4818025 12.4719904,13.0044073 C12.5939276,12.42874 12.1005345,11.9745648 11.0834403,11.6046477 C10.8314656,11.5130045 10.5665977,11.4333405 10.2548893,11.3511521 C10.2242301,11.3430681 10.0890292,11.3087131 9.95146698,11.2733591 L9.42904329,13.2639297 C9.57059769,13.3040019 9.67420034,13.331219 9.82285528,13.3677612 Z M9.50611017,10.5158524 L9.81755337,10.6073714 C9.51060688,10.5171737 10.8567774,10.8721197 11.3012857,11.0337873 C12.5756315,11.4972667 13.2892899,12.1541993 13.0830962,13.1276422 C12.8952848,14.0162335 12.0444045,14.2933515 10.8234807,14.1675409 C10.4582287,14.1299034 10.0732799,14.0575244 9.67048721,13.9585103 C9.42685368,13.8986206 9.29867165,13.8626537 8.96267685,13.7644186 L8.67555787,13.6804735 L9.50611017,10.5158524 Z M11.8072184,9.72365612 C12.4968958,9.7412438 12.8817001,9.54434999 12.9604826,9.07819666 C13.0614887,8.47957005 12.696539,8.09659548 11.9088105,7.81205256 C11.7290764,7.74712909 11.3432586,7.64319493 11.0616747,7.56836078 L10.5223806,9.50077916 C10.9131317,9.61814903 11.392239,9.7130736 11.8072184,9.72365612 Z M10.6318644,6.79100566 L10.9528147,6.90915806 C10.9688786,6.91507169 11.7938686,7.12098123 12.1253497,7.2407187 C13.1596087,7.61431327 13.7375649,8.22081457 13.5761793,9.17728849 C13.435645,10.0088249 12.7547577,10.3572163 11.7909239,10.3326373 C11.1945517,10.317429 10.5151155,10.1588139 10.0342202,9.98178037 L9.76867332,9.88402377 L10.6318644,6.79100566 Z" id="path3096" fill="#FF9500" fill-rule="nonzero"></path>
                                    </g>
                                </g>
                            </g>
                            <g id="Group-4">
                                <ellipse id="Oval" fill="#FFFFFF" cx="13.8581818" cy="14.0393258" rx="13.6327273" ry="13.3089888"></ellipse>
                                <ellipse id="Oval" stroke="#FF9500" cx="13.8581818" cy="14.0393258" rx="13.6327273" ry="13.3089888"></ellipse>
                                <path d="M21.3253833,12.1970568 C21.1519088,13.3504867 20.6080759,14.1464021 19.7597935,14.5882996 C20.9772373,15.4988918 21.3394826,16.7858385 20.7227134,18.517607 C19.8771565,20.8936361 18.0412611,21.5311076 14.8855999,21.0157442 L14.203784,23.7027464 L11.7674431,23.105663 L12.4340036,20.4796301 C12.2669166,20.4377511 12.1014122,20.3955707 11.9368537,20.3529014 L11.2699053,22.9836389 L8.83560015,22.386374 L9.5116433,19.7170891 C9.43792654,19.6982074 9.35385834,19.6766468 9.2554201,19.6513918 C9.05382832,19.5998505 8.89938731,19.5608799 8.74863331,19.5237304 L6.15272727,18.8873582 L7.29731682,16.2920432 L7.64388426,16.382679 C7.68525509,16.3934984 7.73301176,16.4059408 7.78535154,16.4195205 L8.82272451,16.6719868 C8.97306093,16.7085743 9.02950878,16.668445 9.06727407,16.5865602 L10.0381936,12.7587109 L10.1369334,12.3689977 L10.2333668,11.989241 L10.8865931,9.44056418 C10.902423,9.17050002 10.8001374,9.01199736 10.4394353,8.92344561 L9.54071066,8.70281024 C9.43753859,8.67525444 9.33971195,8.65301886 9.2623841,8.63559188 L8.85178035,8.54305621 L9.48729793,6.03387731 L9.89241086,6.13491291 L12.1385905,6.69511724 C12.3339381,6.74287842 12.521767,6.786937 12.7750487,6.84451906 L13.4456184,4.20224719 L15.8809197,4.79941593 L15.2276656,7.37491678 C15.421333,7.41879782 15.5809591,7.45544115 15.7274456,7.48977284 L16.3785055,4.9215087 L18.8148238,5.51858648 L18.1369193,8.19254451 C20.4665345,9.05797039 21.6141207,10.2990917 21.3253833,12.1970568 Z M14.2680317,20.080431 L14.6539858,20.152256 C17.6925184,20.7177191 19.2264717,20.2535521 19.938887,18.2516531 C20.5271249,16.5999952 20.0768533,15.5886194 18.639053,14.8524945 L17.6497288,14.3459803 L18.7378762,14.0992232 C19.7331741,13.8735214 20.3290936,13.2447674 20.504468,12.0787093 C20.7341112,10.5691869 19.7456363,9.58929607 17.5085096,8.83150136 L17.1507934,8.7103301 L17.8106077,6.10772793 L16.9840035,5.90514888 L16.3334663,8.47135105 L15.9297034,8.37241095 C15.5728194,8.28495828 15.2592294,8.21288613 14.6306302,8.07180103 L14.2194356,7.97951101 L14.8766415,5.38843007 L14.050879,5.18594197 L13.3842559,7.81266253 L12.9868122,7.72365001 C12.5020115,7.61507282 12.228881,7.55232401 11.9350957,7.48049081 L10.0921285,7.02085277 L9.85932065,7.94003523 C9.92021608,7.95413742 9.98275384,7.96870274 10.0453229,7.9833833 C10.2477792,8.03103748 10.3830166,8.06377904 10.481807,8.08903908 C10.5594459,8.10915066 10.5594459,8.10915066 10.6214563,8.12688367 C10.6506497,8.13572168 10.6506497,8.13572168 10.6892893,8.14994416 C11.4288131,8.34959998 11.7513259,8.86551592 11.703584,9.56100952 L10.9424522,12.5636067 L10.7410502,12.5149491 L10.93965,12.5750865 L9.85527128,16.8343096 C9.66688506,17.2942519 9.25949924,17.5922642 8.66920758,17.4687301 C8.62027746,17.4615112 8.62027746,17.4615112 8.59067162,17.4555807 C8.526105,17.4417763 8.526105,17.4417763 8.4436362,17.4224147 C8.3388148,17.3975217 8.19639191,17.3621566 8.02518539,17.3187295 C7.92320848,17.2928229 7.8479204,17.2735649 7.77605387,17.2550933 L7.30047159,18.3334587 L8.95122798,18.738133 C9.10526581,18.7760913 9.26188554,18.8156117 9.46565181,18.8677089 C9.79430184,18.9520246 9.96081205,18.9946603 10.1163951,19.0338424 L10.5141261,19.134007 L9.83957573,21.7973978 L10.6644758,21.9997897 L11.335224,19.354064 L11.7452652,19.4634987 C12.1688478,19.5765474 12.5954908,19.6852615 13.0366955,19.7930139 L13.438306,19.8910965 L12.7718857,22.5165771 L13.5984673,22.7191506 L14.2680317,20.080431 Z M13.0626425,17.7767339 C13.563191,17.8997782 14.0382464,17.9890993 14.4804004,18.0346612 C15.7297433,18.1634002 16.4513376,17.9283886 16.5855188,17.2935382 C16.7476735,16.5280035 16.0915489,15.9240316 14.7389953,15.432108 C14.403914,15.310239 14.051687,15.2043 13.6371705,15.0950041 C13.5963993,15.0842539 13.4166062,15.0385679 13.233673,14.9915533 L12.5389429,17.6386567 C12.7271849,17.6919455 12.8649579,17.7281393 13.0626425,17.7767339 Z M12.6414281,13.9842047 L13.0555919,14.1059088 C12.6474079,13.9859619 14.4375741,14.4579766 15.0286908,14.6729657 C16.723343,15.2893105 17.6723812,16.1629134 17.3981804,17.4574186 C17.1484248,18.6390862 16.0169059,19.0076036 14.3932954,18.8402981 C13.9075756,18.7902469 13.3956624,18.6939958 12.8600201,18.5623248 C12.5360311,18.4826821 12.3655719,18.4348525 11.9187588,18.3042175 L11.5369419,18.1925854 L12.6414281,13.9842047 Z M15.7014909,12.9307253 C16.6186386,12.9541138 17.1303595,12.6922802 17.2351262,12.0723795 C17.3694463,11.2763131 16.8841283,10.7670254 15.8365902,10.3886341 C15.597576,10.3022975 15.0845072,10.1640836 14.710051,10.0645676 L13.9928862,12.6343388 C14.5125153,12.7904197 15.1496423,12.9166524 15.7014909,12.9307253 Z M14.1384801,9.03082416 L14.5652866,9.18794574 C14.5866487,9.19580983 15.683738,9.46963272 16.1245487,9.62886216 C17.4999283,10.1256762 18.2685068,10.9322146 18.0538927,12.204154 C17.8670073,13.3099488 16.9615488,13.7732471 15.6798221,13.7405614 C14.8867536,13.7203371 13.9832248,13.5094074 13.34372,13.2739844 L12.9905901,13.1439856 L14.1384801,9.03082416 Z" id="path3096" fill="#FF9500" fill-rule="nonzero"></path>
                            </g>
                        </g>
                        <g id="portfel-lewy-copy" stroke-width="1" fill-rule="evenodd" transform="translate(102.500000, 246.000000) scale(-1, 1) translate(-102.500000, -246.000000) translate(69.000000, 219.000000)" stroke="#1C3C55">
                            <path d="M3.37090909,10.4157303 L3.37090909,0.490085134 L55.3615554,0.00360128972 C59.2538884,-0.0464301743 62.0812109,0.424840642 63.843523,1.41741374 C65.6058352,2.40998684 66.3796768,4.05213967 66.1650478,6.34387225" id="Path-97" fill="#FFFFFF"></path>
                            <path d="M1.03865097,15.0516325 L1.44692097,45.3437673 C1.5058974,49.7196018 5.06996253,53.2359551 9.44619447,53.2359551 L58.2,53.2359551 C62.618278,53.2359551 66.2,49.6542331 66.2,45.2359551 L66.2,6.94382022 L9.03792447,6.94382022 C4.61964647,6.94382022 1.03792447,10.5255422 1.03792447,14.9438202 C1.03792447,14.9797589 1.03816664,15.0156971 1.03865097,15.0516325 Z" id="Path-96" fill="#FFFFFF"></path>
                            <g id="Group-3" transform="translate(10.652727, 28.061798) rotate(180.000000) translate(-10.652727, -28.061798) translate(0.152727, 22.561798)">
                                <path d="M0.505524673,0.5 L0.608993843,9.91573034 L15.4526704,9.91573034 C17.9379518,9.91573034 19.9526704,7.90101171 19.9526704,5.41573034 L19.9526704,5 C19.9526704,2.51471863 17.9379518,0.5 15.4526704,0.5 L0.505524673,0.5 Z" id="Rectangle-9" transform="translate(10.226335, 5.207865) rotate(180.000000) translate(-10.226335, -5.207865) "></path>
                                <ellipse id="Oval" cx="5.37406061" cy="5.20786517" rx="2.6870303" ry="2.60393258"></ellipse>
                            </g>
                        </g>
                        <g id="portfel-lewy-copy-2" stroke-width="1" fill-rule="evenodd" transform="translate(351.000000, 219.000000)" stroke="#1C3C55">
                            <path d="M3.37090909,10.4157303 L3.37090909,0.490085134 L55.3615554,0.00360128972 C59.2538884,-0.0464301743 62.0812109,0.424840642 63.843523,1.41741374 C65.6058352,2.40998684 66.3796768,4.05213967 66.1650478,6.34387225" id="Path-97" fill="#FFFFFF"></path>
                            <path d="M1.03865097,15.0516325 L1.44692097,45.3437673 C1.5058974,49.7196018 5.06996253,53.2359551 9.44619447,53.2359551 L58.2,53.2359551 C62.618278,53.2359551 66.2,49.6542331 66.2,45.2359551 L66.2,6.94382022 L9.03792447,6.94382022 C4.61964647,6.94382022 1.03792447,10.5255422 1.03792447,14.9438202 C1.03792447,14.9797589 1.03816664,15.0156971 1.03865097,15.0516325 Z" id="Path-96" fill="#FFFFFF"></path>
                            <g id="Group-3" transform="translate(10.652727, 28.061798) rotate(180.000000) translate(-10.652727, -28.061798) translate(0.152727, 22.561798)">
                                <path d="M0.508290279,0.5 L0.663135195,9.91573034 L15.4761317,9.91573034 C17.9614131,9.91573034 19.9761317,7.90101171 19.9761317,5.41573034 L19.9761317,5 C19.9761317,2.51471863 17.9614131,0.5 15.4761317,0.5 L0.508290279,0.5 Z" id="Rectangle-9" transform="translate(10.238066, 5.207865) rotate(180.000000) translate(-10.238066, -5.207865) "></path>
                                <ellipse id="Oval" cx="5.37406061" cy="5.20786517" rx="2.6870303" ry="2.60393258"></ellipse>
                            </g>
                        </g>
                    </g>
                </g>
            </g>
        </g>
    </g>
</svg>