<?xml version="1.0" encoding="UTF-8"?>
<svg width="376px" height="365px" viewBox="0 0 376 365" version="1.1" xmlns="http://www.w3.org/2000/svg" xmlns:xlink="http://www.w3.org/1999/xlink">
    <!-- Generator: Sketch 49 (51002) - http://www.bohemiancoding.com/sketch -->
    <title>first illustration</title>
    <desc>Created with Sketch.</desc>
    <defs></defs>
    <g id="How-does-bitcoin-work" stroke="none" stroke-width="1" fill="none" fill-rule="evenodd">
        <g id="22.01.18-Bitcoin.org_How-does-Bitcoin-work-Desktop-1200px--" transform="translate(-266.000000, -594.000000)">
            <g id="//body" transform="translate(215.000000, 574.000000)">
                <g id="1" transform="translate(41.000000, 0.000000)">
                    <g id="first-illustration" transform="translate(0.000000, 17.000000)">
                        <g id="Group-Copy" transform="translate(10.000000, 3.000000)">
                            <g id="Group-8" opacity="0.200000003" transform="translate(2.000000, 1.000000)" stroke="#979797">
                                <path d="" id="Path-2"></path>
                                <path d="M359.241015,274.467213 L329.640592,85.6762295" id="Path-5"></path>
                                <polyline id="Path-6" points="172.530655 193.340164 230.213531 358.627049 328.881607 85.6762295 1.47007415 169.903185 230.213531 362.829715 207.292527 2.35704546"></polyline>
                                <polyline id="Path-8" points="172.530655 194.856557 85.2473573 304.795082 229.454545 358.627049"></polyline>
                                <polyline id="Path-9" points="171.012685 193.340164 108.775899 62.1721311 210.479915 0.758196721"></polyline>
                                <path d="M86.7653277,305.553279 L0.836588691,169.439489" id="Path-10"></path>
                                <polyline id="Path-11" points="328.881607 85.6762295 207.064482 0 358.48203 275.983607 1 169.077869 108.775899 61.4139344"></polyline>
                            </g>
                            <g id="dots" transform="translate(101.000000, 54.000000)">
                                <circle id="Oval-2" fill="#C4C4C4" cx="9.5" cy="9.5" r="2.66"></circle>
                                <circle id="Oval-2" stroke="#CACACA" cx="9.5" cy="9.5" r="9.5"></circle>
                            </g>
                            <g id="dots" transform="translate(351.000000, 266.000000)">
                                <circle id="Oval-2" fill="#C4C4C4" cx="9.5" cy="9.5" r="2.66"></circle>
                                <circle id="Oval-2" stroke="#CACACA" cx="9.5" cy="9.5" r="9.5"></circle>
                            </g>
                            <g id="dots" transform="translate(291.000000, 161.000000)">
                                <circle id="Oval-2" fill="#C4C4C4" cx="9.5" cy="9.5" r="2.66"></circle>
                                <circle id="Oval-2" stroke="#CACACA" cx="9.5" cy="9.5" r="9.5"></circle>
                            </g>
                            <g id="dots" transform="translate(78.000000, 297.000000)">
                                <circle id="Oval-2" fill="#C4C4C4" cx="9.5" cy="9.5" r="2.66"></circle>
                                <circle id="Oval-2" stroke="#CACACA" cx="9.5" cy="9.5" r="9.5"></circle>
                            </g>
                            <circle id="Oval-2" fill="#7B7B7B" cx="231" cy="361" r="4"></circle>
                            <circle id="Oval-2" fill="#7B7B7B" cx="3" cy="171" r="3"></circle>
                            <circle id="Oval-2" fill="#7B7B7B" cx="210" cy="3" r="3"></circle>
                            <g id="Group-7" transform="translate(316.000000, 74.000000)">
                                <circle id="Oval-2" fill="#FF7E00" cx="13.5" cy="13.5" r="4.24285714"></circle>
                                <circle id="Oval-2" stroke="#FF7E00" cx="13.5" cy="13.5" r="13.5"></circle>
                            </g>
                        </g>
                        <g transform="translate(68.000000, 4.000000)" id="Group-4">
                            <g>
                                <g id="Illustration" transform="translate(0.106610, 0.000000)">
                                    <g id="Group" transform="translate(0.000000, 70.245902)">
                                        <path d="M89.4171881,34.811911 C74.3121818,42.1035495 66.7596787,48.9374963 66.7596787,55.3137513 C66.7596787,64.8781338 55.4179593,96.5437241 59.4216817,107.27139 C63.4254041,117.999056 69.0838884,148.482505 69.0838884,160.189592 C69.0838884,171.896679 74.7152648,187.850281 70.7374718,194.15582 C66.7596787,200.461359 71.680356,217.606531 76.2639523,217.606531 C80.8475485,217.606531 96.1199168,208.362729 96.1199168,206.817578 C96.1199168,205.272426 111.340426,214.998277 115.268718,214.998277 C119.19701,214.998277 131.255321,215.439076 131.255321,210.48304 C131.255321,205.527005 136.964486,217.606531 138.646356,217.606531 C140.328225,217.606531 145.309012,224.730022 153.54982,217.606531 C161.790629,210.48304 159.198876,201.841506 163.790722,201.841506 C168.382569,201.841506 166.797345,216.114417 178.113135,217.606531 C189.428925,219.098645 211.737567,214.148503 207.106827,210.48304 C202.476086,206.817578 193.578794,194.436328 193.578794,185.633325 C193.578794,176.830321 195.793394,138.687116 193.578794,131.628448 C192.102395,126.92267 192.102395,118.803651 193.578794,107.27139 C202.547195,113.489712 207.703987,115.977355 209.049168,114.734319 C211.066941,112.869766 210.99151,101.168571 209.049168,95.5572314 C207.106827,89.9458912 189.174346,72.7323599 187.875523,68.1464065 C186.5767,63.560453 172.817661,45.1954243 172.817661,40.0036676 C172.817661,34.811911 177.720659,20.8065435 172.817661,16.5388135 C167.914662,12.2710835 161.041036,6.19537282 153.54982,7.7511319 C146.058605,9.30689098 142.971837,20.0663793 142.971837,22.988142 C142.971837,25.9099047 142.742661,36.478459 138.646356,40.0036676 C134.55005,43.5288763 135.240186,47.0540849 131.255321,43.5288763 C127.270457,40.0036676 115.268718,40.4951461 115.268718,34.811911 C115.268718,29.128676 119.631915,22.2621211 119.631915,19.4004673 C119.631915,16.5388135 112.458923,1.79799622 105.927092,0.390741414 C99.3952611,-1.01651339 91.8380435,2.74205911 90.6276158,7.7511319 C89.820664,11.0905138 89.4171881,20.1107735 89.4171881,34.811911 Z" id="Path-3" fill="#FFFFFF"></path>
                                        <g id="people" transform="translate(0.000000, 7.000000)">
                                            <g id="Group-3" transform="translate(170.173774, 107.132319) scale(-1, 1) translate(-170.173774, -107.132319) translate(129.673774, 6.632319)">
                                                <path d="M45.5245745,18.5390455 C45.5245745,19.3817318 48.9077893,24.43785 44.6787708,29.4939681 C40.4497523,34.5500863 38.4773381,32.1450594 32.837519,42.1342635 C25.2252857,55.6172453 19.3046599,67.4148543 12.5382303,74.9990315 C5.77180068,82.5832087 2.38858588,85.9539542 3.23438958,90.167386 C4.08019328,94.3808178 4.92599698,94.3808178 5.77180068,92.695445 C6.61760437,91.0100723 5.77180068,88.4820132 8.30921177,86.7966405 C10.8466229,85.1112678 19.3046599,77.5270906 19.3046599,77.5270906 C19.3046599,77.5270906 31.1459116,66.5721679 33.6833227,63.2014225 C36.2207338,59.830677 35.3749301,64.8867952 34.5291264,67.4148543 C33.6833227,69.9429134 26.0710894,100.279622 26.9168931,115.447977 C27.7626968,130.616331 27.7626968,135.672449 26.9168931,146.627372 C26.0710894,157.582295 26.0710894,183.705572 22.6878746,190.447063 C19.3046599,197.188554 15.0756414,198.873926 15.9214451,199.716613 C16.7672488,200.559299 28.6085005,196.345867 28.6085005,193.817808 C28.6085005,191.289749 26.9168931,191.289749 28.6085005,187.919004 C30.3001079,184.548258 40.4497523,158.424981 40.4497523,149.998117 C40.4497523,141.571254 45.5245745,116.290663 45.5245745,116.290663 C45.5245745,116.290663 48.9077893,106.178427 49.753593,105.33574 C50.5993967,104.493054 52.2910041,134.829763 54.8284152,145.784686 C56.5200226,158.424981 53.9826115,157.582295 57.3658263,172.750649 C60.7490411,187.919004 60.7490411,190.447063 59.9032374,192.975122 C59.0574337,195.503181 59.0574337,196.345867 62.4406485,198.03124 C65.8238633,199.716613 70.8986855,201.401985 70.0528818,198.873926 C69.2070781,196.345867 64.9780596,193.817808 64.9780596,191.289749 C64.9780596,188.76169 67.5154707,158.424981 68.3612744,152.526177 C69.2070781,146.627372 70.8986855,134.829763 70.8986855,127.245586 L70.8986855,104.493054 C70.8986855,100.279622 64.1322559,71.6282861 63.2864522,66.5721679 C62.4406485,61.5160498 62.4406485,58.9879907 63.2864522,60.6733634 C64.1322559,62.3587361 66.669667,77.5270906 69.2070781,84.2685815 C71.7444892,91.0100723 75.127704,98.5942496 75.127704,102.807681 C75.127704,107.021113 73.4360966,107.021113 73.4360966,109.549172 C73.4360966,112.077231 75.9735077,110.391859 77.6651151,107.863799 C79.3567225,105.33574 80.2025262,103.650368 79.3567225,98.5942496 C78.5109188,93.5381314 75.127704,73.3136588 73.4360966,67.4148543 C71.7444892,61.5160498 66.669667,42.1342635 64.1322559,38.7635181 C61.5948448,35.3927726 55.6742189,32.8647136 53.9826115,30.3366545 C52.2910041,27.8085954 52.2910041,18.5390455 52.2910041,18.5390455 L45.5245745,18.5390455 Z" id="Fill-1" fill="#FFFFFF"></path>
                                                <path d="M45.5245745,18.5390455 C45.5245745,19.3817318 48.9077893,24.43785 44.6787708,29.4939681 C40.4497523,34.5500863 38.4773381,32.1450594 32.837519,42.1342635 C25.2252857,55.6172453 19.3046599,67.4148543 12.5382303,74.9990315 C5.77180068,82.5832087 2.38858588,85.9539542 3.23438958,90.167386 C4.08019328,94.3808178 4.92599698,94.3808178 5.77180068,92.695445 C6.61760437,91.0100723 5.77180068,88.4820132 8.30921177,86.7966405 C10.8466229,85.1112678 19.3046599,77.5270906 19.3046599,77.5270906 C19.3046599,77.5270906 31.1459116,66.5721679 33.6833227,63.2014225 C36.2207338,59.830677 35.3749301,64.8867952 34.5291264,67.4148543 C33.6833227,69.9429134 26.0710894,100.279622 26.9168931,115.447977 C27.7626968,130.616331 27.7626968,135.672449 26.9168931,146.627372 C26.0710894,157.582295 26.0710894,183.705572 22.6878746,190.447063 C19.3046599,197.188554 15.0756414,198.873926 15.9214451,199.716613 C16.7672488,200.559299 28.6085005,196.345867 28.6085005,193.817808 C28.6085005,191.289749 26.9168931,191.289749 28.6085005,187.919004 C30.3001079,184.548258 40.4497523,158.424981 40.4497523,149.998117 C40.4497523,141.571254 45.5245745,116.290663 45.5245745,116.290663 C45.5245745,116.290663 48.9077893,106.178427 49.753593,105.33574 C50.5993967,104.493054 52.2910041,134.829763 54.8284152,145.784686 C56.5200226,158.424981 53.9826115,157.582295 57.3658263,172.750649 C60.7490411,187.919004 60.7490411,190.447063 59.9032374,192.975122 C59.0574337,195.503181 59.0574337,196.345867 62.4406485,198.03124 C65.8238633,199.716613 70.8986855,201.401985 70.0528818,198.873926 C69.2070781,196.345867 64.9780596,193.817808 64.9780596,191.289749 C64.9780596,188.76169 67.5154707,158.424981 68.3612744,152.526177 C69.2070781,146.627372 70.8986855,134.829763 70.8986855,127.245586 L70.8986855,104.493054 C70.8986855,100.279622 64.1322559,71.6282861 63.2864522,66.5721679 C62.4406485,61.5160498 62.4406485,58.9879907 63.2864522,60.6733634 C64.1322559,62.3587361 66.669667,77.5270906 69.2070781,84.2685815 C71.7444892,91.0100723 75.127704,98.5942496 75.127704,102.807681 C75.127704,107.021113 73.4360966,107.021113 73.4360966,109.549172 C73.4360966,112.077231 75.9735077,110.391859 77.6651151,107.863799 C79.3567225,105.33574 80.2025262,103.650368 79.3567225,98.5942496 C78.5109188,93.5381314 75.127704,73.3136588 73.4360966,67.4148543 C71.7444892,61.5160498 66.669667,42.1342635 64.1322559,38.7635181 C61.5948448,35.3927726 55.6742189,32.8647136 53.9826115,30.3366545 C52.2910041,27.8085954 52.2910041,18.5390455 52.2910041,18.5390455 L45.5245745,18.5390455 Z" id="Fill-1" stroke="#1C3C55"></path>
                                                <path d="M45.3650925,20.5588992 C45.3650925,20.5588992 46.2262542,22.2268433 49.6709008,22.2268433 C53.1155474,22.2268433 55.6990323,18.8909552 55.6990323,14.7210951 C55.6990323,10.551235 55.6990323,4.71343082 50.5320624,3.8794588 C45.3650925,3.04548678 42.7816076,8.0493189 42.7816076,13.053151 C42.7816076,18.0569832 45.3650925,20.5588992 45.3650925,20.5588992" id="Fill-3" fill="#FFFFFF"></path>
                                                <path d="M45.3650925,20.5588992 C45.3650925,20.5588992 46.2262542,22.2268433 49.6709008,22.2268433 C53.1155474,22.2268433 55.6990323,18.8909552 55.6990323,14.7210951 C55.6990323,10.551235 55.6990323,4.71343082 50.5320624,3.8794588 C45.3650925,3.04548678 42.7816076,8.0493189 42.7816076,13.053151 C42.7816076,18.0569832 45.3650925,20.5588992 45.3650925,20.5588992" id="Fill-3" stroke="#1C3C55"></path>
                                                <path d="M42.1892929,31.4463377 C42.1892929,31.4463377 43.8671594,39.8282086 48.9007589,40.6663957 C53.9343584,41.5045828 55.6533326,31.9710428 56.4712925,32.1277838 C57.2900913,32.2845248 58.978025,33.8703748 58.978025,33.8703748 C58.978025,33.8703748 58.5023499,49.2385351 58.9679578,51.5628279 C59.8068911,55.7537633 63.162624,59.9446988 63.162624,59.9446988 C63.162624,59.9446988 62.6777206,61.8390016 63.7591056,68.8546275 C64.8404905,75.8702535 73.229823,101.015866 73.229823,111.074111 C73.229823,114.42686 56.4511581,116.941421 45.5450259,116.103234 C36.997974,115.446095 27.4198731,111.700237 23.676553,110.111034 C22.7495318,109.717086 22.2738566,108.691984 22.570839,107.730583 C24.3023972,102.129817 29.8712361,84.026652 31.2831607,78.3848147 C31.2831607,78.3848147 35.1984622,64.694705 34.9182585,61.4810957 C34.6388937,58.2683246 38.8335599,56.5919504 39.6724932,49.0482666 C40.5114264,41.5045828 38.8335599,33.1227119 38.8335599,33.1227119 L42.1892929,31.4463377 Z" id="Fill-5" stroke="#FF9500" fill="#FFFFFF"></path>
                                                <path d="M63.8840363,17.884536 C63.1852041,11.419906 59.2685711,8.94059035 58.4778972,8.92951056 C57.6880582,8.91757848 59.3395397,0.335856664 53.43996,0.114260907 C51.4027431,0.0375546838 50.2914579,0.280457725 49.6928167,0.627340313 C49.5041237,0.657170511 49.3162656,0.687853 49.1100391,0.722796947 C40.3942575,2.20748852 39.4674908,11.8758818 40.2230979,14.3074691 C40.9787049,16.7390564 42.5709068,15.9558006 42.5709068,15.9558006 C42.5709068,15.9558006 41.0471688,11.899746 44.2315726,10.3323822 C46.8423829,9.04797906 49.4874252,5.05584628 50.3632615,3.21404463 C51.6857826,4.41321859 53.7680855,6.65474489 53.7371932,8.85962267 C53.6912724,12.0863978 54.6981919,18.0328347 54.5612642,17.0816775 C54.4243365,16.1305204 56.8639872,11.3261539 56.8639872,11.3261539 C56.8639872,11.3261539 57.6880582,8.91757848 56.8063774,15.3591967 C55.9246966,21.8008149 55.8562328,26.6409776 58.9830268,29.1075088 C62.1089858,31.57404 64.5828685,24.3491661 63.8840363,17.884536" id="Fill-7" fill="#FFFFFF"></path>
                                                <path d="M63.8840363,17.884536 C63.1852041,11.419906 59.2685711,8.94059035 58.4778972,8.92951056 C57.6880582,8.91757848 59.3395397,0.335856664 53.43996,0.114260907 C51.4027431,0.0375546838 50.2914579,0.280457725 49.6928167,0.627340313 C49.5041237,0.657170511 49.3162656,0.687853 49.1100391,0.722796947 C40.3942575,2.20748852 39.4674908,11.8758818 40.2230979,14.3074691 C40.9787049,16.7390564 42.5709068,15.9558006 42.5709068,15.9558006 C42.5709068,15.9558006 41.0471688,11.899746 44.2315726,10.3323822 C46.8423829,9.04797906 49.4874252,5.05584628 50.3632615,3.21404463 C51.6857826,4.41321859 53.7680855,6.65474489 53.7371932,8.85962267 C53.6912724,12.0863978 54.6981919,18.0328347 54.5612642,17.0816775 C54.4243365,16.1305204 56.8639872,11.3261539 56.8639872,11.3261539 C56.8639872,11.3261539 57.6880582,8.91757848 56.8063774,15.3591967 C55.9246966,21.8008149 55.8562328,26.6409776 58.9830268,29.1075088 C62.1089858,31.57404 64.5828685,24.3491661 63.8840363,17.884536" id="Fill-7" stroke="#1C3C55"></path>
                                            </g>
                                            <g id="Group-2" transform="translate(67.524520, 0.000000)">
                                                <path d="M32.1376996,28.1236144 C30.5383846,31.3091198 20.9416496,34.4946252 13.7443096,43.2560271 C8.08207539,50.1470174 3.34833948,59.9811926 0.948944512,79.0950665 C-1.45045045,98.2097817 1.7481796,99.8025344 2.54910439,97.413826 C3.34833948,95.0242763 3.34833948,90.2451768 3.34833948,87.8564684 C3.34833948,87.8564684 9.74559957,61.5739453 13.7443096,56.7948458 C17.7430196,52.0165877 9.74559957,80.6886605 9.74559957,80.6886605 C9.74559957,80.6886605 41.7344346,83.0773689 43.3337497,81.4846162 C44.9339095,79.8918635 44.1338296,55.9988902 46.5323797,52.0165877 C48.9317747,48.0342853 60.9279046,62.369901 60.1278247,63.9634951 C59.3285896,65.5562478 47.3324596,72.7240556 44.9339095,75.909561 C42.5345146,79.0950665 44.1338296,80.6886605 45.7331446,83.0773689 C47.3324596,85.4669187 48.9317747,86.2637157 48.9317747,83.874166 C48.9317747,81.4846162 45.7331446,79.0950665 48.1325396,78.2991108 C50.5310897,77.5023137 65.7258497,71.9272586 68.9244798,67.1490005 C72.1239547,62.369901 59.3285896,46.4415326 54.5297997,41.662433 C49.7318546,36.8841749 40.9343547,32.9018725 40.1351196,29.7163671 C39.3358845,26.5300203 38.9895084,20.0072112 38.1902734,16.0249087 C37.3910383,12.0426063 32.1376996,16.9735041 32.1376996,16.9735041 C32.1376996,17.7694597 33.7378595,24.9372676 32.1376996,28.1236144 Z" id="Fill-27" stroke="#1C3C55" fill="#FFFFFF"></path>
                                                <path d="M29.1586923,20.9241193 C29.1586923,20.9241193 29.7125052,22.7129015 33.0262633,23.2606902 C36.3408504,23.8093051 39.3760439,20.9175095 40.0641647,16.7896777 C40.7514566,12.6610197 41.7156549,6.88073326 36.8805693,5.23240973 C32.0471419,3.58491242 28.7367001,8.12751031 27.910955,13.0815694 C27.086039,18.0356285 29.1586923,20.9241193 29.1586923,20.9241193" id="Fill-34" stroke="#1C3C55" fill="#FFFFFF"></path>
                                                <path d="M12.4938869,58.6614074 C11.1699858,61.6460657 5.61010472,78.7087579 5.61010472,78.7087579 C4.86929062,83.6109152 15.2843146,86.9419769 25.7295417,86.9419769 C37.6412954,86.9419769 43.994846,81.3309208 43.994846,81.3309208 C43.994846,81.3309208 42.8540971,77.8105711 43.2003376,71.1664826 C43.6245535,63.026104 45.249471,52.1045227 45.687392,50.3385135 C46.4810615,47.1319538 50.8921349,50.5656117 53.2748212,51.3676751 C55.6575076,52.1688916 60.6719724,49.2627826 57.257348,44.487668 C53.8427236,39.7125534 43.2003376,31.6250101 43.2003376,31.6250101 L32.8767617,42.0475997 L27.1421854,30.4914413 L21.9920397,34.2053935 C17.9617667,37.0003644 10.3357574,43.9325374 6.51087463,52.0336319 C6.51087463,52.0336319 13.817788,55.6759021 12.4938869,58.6614074 Z" id="Fill-38" fill="#FFFFFF"></path>
                                                <path d="M12.4938869,58.6614074 C11.1699858,61.6460657 5.61010472,78.7087579 5.61010472,78.7087579 C4.86929062,83.6109152 15.2843146,86.9419769 25.7295417,86.9419769 C37.6412954,86.9419769 43.1033265,81.3309208 43.994846,81.3309208 C44.8863656,81.3309208 43.6486056,79.7397362 43.994846,73.0956477 C44.4190619,64.9552692 45.4827214,54.9372658 45.9206424,53.1712566 C46.7143119,49.9646969 50.7039023,51.2315685 53.0865886,52.0336319 C55.469275,52.8348484 60.6719724,49.2627826 57.257348,44.487668 C53.8427236,39.7125534 43.2003376,31.6250101 43.2003376,31.6250101 L32.8767617,42.0475997 L27.1421854,30.4914413 L21.9920397,34.2053935 C17.9617667,37.0003644 10.3357574,43.9325374 6.51087463,52.0336319 C6.51087463,52.0336319 13.817788,55.6759021 12.4938869,58.6614074 Z" id="Fill-38" stroke="#FF9500"></path>
                                                <path d="M35.8256,4.34596896 C35.7252405,3.55421604 35.8256,8.33508828 33.410167,9.13358669 C30.9955844,9.9320851 29.3864297,10.7297403 29.3864297,10.7297403 C29.3864297,10.7297403 28.0809052,16.4718461 29.6900599,18.0671566 C27.2754773,18.865655 26.1672698,19.5064774 24.5572647,16.3150133 C22.9472595,13.1235492 25.361842,9.9320851 26.9718472,7.53743305 C28.5810019,5.14362419 31.8010123,-0.441648772 35.8256,0.356006454 C39.8493372,1.15366168 41.4593424,2.74981532 43.0693476,6.73977783 C44.6785023,10.7297403 47.0930849,11.5273956 47.0930849,13.9212044 C47.0930849,16.3150133 42.2639198,18.7088222 41.4593424,17.9111669 C41.4593424,15.5173581 41.4134152,12.3250508 41.4134152,10.7297403 C41.4134152,9.13358669 36.6301774,10.7297403 35.8256,4.34596896" id="Fill-40" fill="#FFFFFF"></path>
                                                <path d="M35.8256,4.34596896 C35.7252405,3.55421604 35.8256,8.33508828 33.410167,9.13358669 C30.9955844,9.9320851 29.3864297,10.7297403 29.3864297,10.7297403 C29.3864297,10.7297403 28.0809052,16.4718461 29.6900599,18.0671566 C27.2754773,18.865655 26.1672698,19.5064774 24.5572647,16.3150133 C22.9472595,13.1235492 25.361842,9.9320851 26.9718472,7.53743305 C28.5810019,5.14362419 31.8010123,-0.441648772 35.8256,0.356006454 C39.8493372,1.15366168 41.4593424,2.74981532 43.0693476,6.73977783 C44.6785023,10.7297403 47.0930849,11.5273956 47.0930849,13.9212044 C47.0930849,16.3150133 42.2639198,18.7088222 41.4593424,17.9111669 C41.4593424,15.5173581 41.4134152,12.3250508 41.4134152,10.7297403 C41.4134152,9.13358669 36.6301774,10.7297403 35.8256,4.34596896" id="Fill-40" stroke="#1C3C55"></path>
                                                <path d="M5.13811502,163.561897 C5.13811502,159.793619 5.38578239,156.986639 6.02287921,152.094179 C6.06785515,151.749232 6.06785515,151.749232 6.11265357,151.40611 C6.15729348,151.063792 6.17553844,150.923516 6.20147747,150.722867 C6.26813421,150.207248 6.32255278,149.777343 6.37294847,149.36564 C6.91008284,144.97757 7.04941356,141.840265 6.73674568,138.086675 C6.59202304,136.351262 6.28491481,134.146977 5.78539387,131.136536 C5.58764877,129.944795 5.36890687,128.677357 5.05632195,126.900444 C4.99896961,126.57442 4.94003529,126.240107 4.85983611,125.785672 C4.76035398,125.222092 4.76035398,125.222092 4.65991389,124.652847 C4.496478,123.726187 4.37420001,123.029892 4.25425989,122.341473 C3.82006331,119.849319 3.48147771,117.826307 3.17761367,115.877736 C2.25929712,109.988901 1.73527088,105.185707 1.66475554,101.26234 C1.62686575,99.1542085 2.87568657,99.1289329 2.90719382,101.124023 C2.96835738,104.996998 3.4871503,109.788147 4.40690669,115.686215 C4.70946313,117.626402 5.04691333,119.642629 5.47994979,122.128124 C5.59971527,122.815541 5.7218581,123.511066 5.88515704,124.43695 C5.9855625,125.005999 5.9855625,125.005999 6.08505616,125.569644 C6.16529153,126.024284 6.2242613,126.358798 6.28166055,126.685089 C6.59488393,128.465632 6.81422365,129.736533 7.01276416,130.933068 C7.51736029,133.974095 7.82842534,136.20678 7.97658725,137.983435 C8.29734901,141.834192 8.1544755,145.05127 7.60787596,149.516665 C7.55709659,149.931502 7.50234351,150.36405 7.43535576,150.882229 C7.4093417,151.083459 7.3910381,151.224186 7.34634172,151.566936 C7.30152566,151.910194 7.30152566,151.910194 7.25660891,152.254686 C6.62589315,157.098144 6.38225148,159.859498 6.38225148,163.561897 C6.38225148,171.228984 9.05466638,180.720155 12.350515,184.879146 C12.4224738,184.96995 12.467624,185.079041 12.4808753,185.19412 C13.1044769,190.6097 11.831798,190.598473 11.2645141,185.509419 C7.82832692,181.041814 5.13811502,171.404272 5.13811502,163.561897 Z M25.5707077,111.315363 C25.0060001,115.13887 24.4393625,118.962385 23.9077922,122.531056 C23.8840423,122.690491 23.8840423,122.690491 23.8602897,122.849909 C22.6776662,130.786731 21.850377,136.241082 21.5344355,138.137359 C21.1439526,140.476501 20.9711304,141.717701 20.8715117,142.963696 C20.760424,144.353141 20.7438351,145.365292 20.7438351,149.203137 C20.7438351,150.32753 20.7550933,150.817145 20.843595,154.062702 C21.0809911,162.768554 24.436053,179.121423 23.4393135,185.098053 C23.3828233,185.436779 23.0623102,185.665597 22.7234274,185.609133 C22.3845447,185.552669 22.3628113,185.499581 22.4003147,185.098053 C22.9313197,179.412884 19.8352583,162.726959 19.5999204,154.096584 C19.510985,150.83512 19.4996986,150.344283 19.4996986,149.203137 C19.4996986,145.328016 19.5165418,144.30035 19.631329,142.864633 C19.7344363,141.575005 19.9113893,140.304138 20.3072326,137.932885 C20.6213981,136.047267 21.4486225,130.593344 22.6297264,122.666719 C22.6534745,122.507332 22.6534745,122.507332 22.67722,122.347927 C23.2087062,118.77982 23.775272,114.95679 24.3399105,111.13375 C24.5375349,109.79568 24.720802,108.553188 24.8850862,107.438136 C24.9765979,106.8169 24.9765979,106.8169 25.0375638,106.402753 C25.0821005,106.100117 25.0821005,106.100117 25.0914662,106.036432 C25.1929774,105.346176 26.180029,105.320797 26.3169102,106.004924 C26.3327692,106.084187 26.3637896,106.238232 26.4091728,106.462071 C26.4848718,106.835434 26.5733373,107.26862 26.6737707,107.756641 C26.9607844,109.151282 27.2860912,110.705432 27.6432998,112.379177 C28.663819,117.160948 29.7353215,121.942555 30.8065507,126.404284 C31.45652,129.111442 32.0872398,131.619049 32.6922341,133.886973 C34.2333183,139.665105 34.8939047,143.364239 35.1055162,147.174732 C35.2173706,149.188898 35.2173479,150.436015 35.1505759,155.104854 C35.1198436,157.253729 35.1062616,158.682821 35.1062616,160.371249 C35.1062616,160.714648 34.8277521,160.993028 34.4841933,160.993028 C34.1406345,160.993028 33.8621251,160.714648 33.8621251,160.371249 C33.8621251,158.675679 33.8757566,157.241383 33.9065666,155.08708 C33.9728711,150.450923 33.9728935,149.217252 33.863292,147.243654 C33.6568952,143.527062 33.0107989,139.909069 31.4900896,134.20733 C30.8822168,131.928617 30.2490147,129.41114 29.5967631,126.694476 C28.5227979,122.221352 27.4490899,117.429902 26.4265399,112.638616 C26.2079189,111.61424 26.0012191,110.634548 25.8078945,109.708628 C25.7314979,110.22641 25.6523271,110.762736 25.5707077,111.315363 Z M46.7306677,186.231271 C46.6992146,185.999843 46.8001632,185.770316 46.9920283,185.637015 C47.8230015,185.059686 48.3139006,184.27701 48.3139006,183.505555 C48.3139006,182.582144 48.5151983,179.76423 49.1132992,171.694491 C49.1942147,170.561791 49.2672493,169.514809 49.334869,168.514043 C49.7082974,162.987324 49.9095384,158.959379 49.9095384,156.382517 C49.9095384,153.8862 49.6485415,152.435878 48.2114748,145.846771 C46.610678,138.506943 46.1011644,134.156626 46.7230633,129.183225 C48.3676887,116.02794 47.8617922,102.143106 46.0201774,88.9015064 C45.652075,86.2547722 46.881618,86.06382 47.252464,88.7302814 C49.107876,102.071086 49.6175484,116.059555 47.9575965,129.337436 C47.3580003,134.132479 47.8544613,138.371352 49.4270627,145.5819 C50.8888276,152.284251 51.1536749,153.755969 51.1536749,156.382517 C51.1536749,158.996221 50.9514554,163.043749 50.5761777,168.597837 C50.5084426,169.600313 50.435299,170.648857 50.3542762,171.783059 C49.7556488,179.867558 49.558037,182.633874 49.558037,183.505555 C49.558037,184.60957 48.9724843,185.648073 48.0155999,186.422968 C48.1547697,187.32542 46.8753428,187.295772 46.7306677,186.231271 Z" id="Stroke-42" fill="#1C3C55" fill-rule="nonzero"></path>
                                                <path d="M12.1370601,187.718015 C12.3704671,189.789079 14.7484773,194.145709 14.7484773,194.145709 C14.7484773,194.145709 9.69393355,199.855978 8.41960646,201.298988 C7.14527936,202.741997 9.99655283,202.708439 11.460945,202.280496 C12.9253372,201.852552 20.65772,198.648173 20.65772,196.403623 C20.65772,194.159073 22.9089784,188.179453 22.9089784,184.419937" id="Path-7" stroke="#1C3C55"></path>
                                                <path d="M34.5148895,160.047952 C33.3037362,173.121506 33.4360442,181.448513 34.9118134,185.028972 C37.1254671,190.399661 37.0939252,197.804986 38.0810614,199.024111 C39.0681977,200.243235 44.9528595,202.258107 46.7565224,202.855434 C48.5601853,203.452761 50.2541228,203.535519 50.2541228,202.53352 C50.2541228,201.53152 44.3118506,197.298535 44.3118506,195.719004 C44.3118506,194.665983 45.3086251,191.508754 47.3021742,186.247317" id="Path-8" stroke="#1C3C55"></path>
                                            </g>
                                            <path d="M234.500729,185.248585 C234.500729,185.248585 235.265061,192.366229 234.500729,194.737942 C233.736397,197.11049 238.456511,202.318401 240.618617,203.436172 C243.677561,205.018427 242.913229,203.436172 241.384565,198.691911 C239.854285,193.946814 237.559673,188.411425 238.324005,183.667164 C239.089953,178.922904 234.500729,185.248585 234.500729,185.248585" id="Fill-30" fill="#FFFFFF"></path>
                                            <path d="M208.635068,186.573783 C208.635068,186.573783 208.635068,193.031197 209.405845,195.453154 C210.177436,197.87511 206.32111,202.718171 203.236374,204.332524 C200.151639,205.94773 200.922416,204.332524 203.236374,200.296214 C205.550333,196.259904 204.778742,188.188137 204.007151,184.151826 C203.236374,180.115516 208.635068,186.573783 208.635068,186.573783" id="Fill-32" fill="#FFFFFF"></path>
                                            <path d="M7.32401617,159.775983 C7.32401617,159.775983 -0.316690907,185.587182 0.0733333904,185.877224 C1.31796975,193.150062 3.55569319,198.530085 2.96410171,201.222611 C2.37087148,203.915975 2.45608687,204.784424 6.02284268,206.173439 C9.58959849,207.560777 14.8541071,208.773755 13.7495845,206.254751 C12.6442426,203.736585 8.14257557,201.56714 7.88692939,198.961794 C7.6435739,196.485542 7.15604352,167.906373 7.32401617,159.775983" id="Fill-44" fill="#FFFFFF"></path>
                                        </g>
                                        <g id="Strokes" transform="translate(2.488273, 31.042155)"></g>
                                    </g>
                                    <g id="Page-1" transform="translate(112.825051, 24.863310) rotate(10.000000) translate(-112.825051, -24.863310) translate(98.825051, 2.863310)">
                                        <g id="Group-2" transform="translate(0.576434, 0.135497)">
                                            <path d="M25.3992456,39.3758745 L25.3992456,3.48862888 C25.3992456,2.19602159 23.8658178,0.725747392 22.5623483,0.725747392 L3.68122524,0.725747392 C2.3777557,0.725747392 0.845710351,2.19602159 0.845710351,3.48862888 L0.845710351,39.3758745 C0.845710351,40.6684818 2.3777557,42.1080322 3.68122524,42.1080322 L22.5623483,42.1080322 C23.8658178,42.1080322 25.3992456,40.6684818 25.3992456,39.3758745 Z" id="Path" fill="#FFFFFF"></path>
                                            <path d="M26.2435735,39.0373156 C26.2435735,41.151013 24.5156841,42.8645034 22.3842245,42.8645034 L3.85934904,42.8645034 C1.72788942,42.8645034 5.71748204e-12,41.151013 5.71748204e-12,39.0373156 L5.71748204e-12,3.8271878 C5.71748204e-12,1.71349034 1.72788942,-1.00541797e-12 3.85934904,-1.00541797e-12 L22.3842245,-1.00541797e-12 C24.5156841,-1.00575789e-12 26.2435735,1.71349034 26.2435735,3.8271878 L26.2435735,39.0373156 Z M25.3992456,39.3758745 L25.3992456,3.48862888 C25.3992456,2.19602159 23.8658178,0.725747392 22.5623483,0.725747392 L3.68122524,0.725747392 C2.3777557,0.725747392 0.845710351,2.19602159 0.845710351,3.48862888 L0.845710351,39.3758745 C0.845710351,40.6684818 2.3777557,42.1080322 3.68122524,42.1080322 L22.5623483,42.1080322 C23.8658178,42.1080322 25.3992456,40.6684818 25.3992456,39.3758745 Z" id="phone_iphone---material" fill="#F7931A" fill-rule="nonzero"></path>
                                            <path d="M23.6192161,32.6941215 C23.6192161,33.9628907 22.5346332,34.9914313 21.1967324,34.9914313 L5.04684106,34.9914313 C3.70894025,34.9914313 2.62435735,33.9628907 2.62435735,32.6941215 L2.62435735,5.79645291 C2.62435735,4.52768375 3.70894025,3.49914313 5.04684106,3.49914313 L21.1967324,3.49914313 C22.5346332,3.49914313 23.6192161,4.52768375 23.6192161,5.79645291 L23.6192161,32.6941215 Z" id="Path" fill="#FFFFFF"></path>
                                            <path d="M23.6192161,32.6941215 C23.6192161,33.9628907 22.5346332,34.9914313 21.1967324,34.9914313 L5.04684106,34.9914313 C3.70894025,34.9914313 2.62435735,33.9628907 2.62435735,32.6941215 L2.62435735,5.79645291 C2.62435735,4.52768375 3.70894025,3.49914313 5.04684106,3.49914313 L21.1967324,3.49914313 C22.5346332,3.49914313 23.6192161,4.52768375 23.6192161,5.79645291 L23.6192161,32.6941215 Z M22.7444304,32.7680574 L22.7444304,5.86133639 C22.7444304,5.24584849 21.9691689,4.37392892 21.1076286,4.37392892 L4.89350328,4.37392892 C4.43087424,4.37392892 3.49914313,5.05301944 3.49914313,5.73835476 L3.49914313,32.7680574 C3.49914313,33.2072164 4.20802506,34.1166455 5.08275269,34.1166455 L21.4141496,34.1166455 C22.0241061,34.1166455 22.7444304,33.2621596 22.7444304,32.7680574 Z" id="phone_iphone---material" fill="#1C3C55" fill-rule="nonzero"></path>
                                            <path d="M13.5719915,40.8087568 C14.0903415,40.8087568 14.5371411,40.6255166 14.896935,40.2657227 C15.2567289,39.9059288 15.4399691,39.4591292 15.4399691,38.9407792 C15.4399691,38.4238398 15.2578152,37.973891 14.8996217,37.6057476 C14.5395791,37.2357038 14.0915825,37.0471779 13.5719915,37.0471779 C13.055052,37.0471779 12.6051033,37.2293317 12.2369599,37.5875253 C11.8670266,37.9474603 11.6783902,38.4038429 11.6783902,38.9407792 C11.6783902,39.4779955 11.8628311,39.9299409 12.2242253,40.2812964 C12.5836603,40.6307471 13.0375078,40.8087568 13.5719915,40.8087568 Z M11.0660402,38.9407792 C11.0660402,38.2401773 11.3202915,37.6250476 11.8099346,37.1486381 C12.2925833,36.6790339 12.8958109,36.4348279 13.5719915,36.4348279 C14.256627,36.4348279 14.8629948,36.6899995 15.3385089,37.1787223 C15.8081131,37.6613711 16.0523191,38.2645986 16.0523191,38.9407792 C16.0523191,39.6207699 15.8051136,40.2235378 15.3299319,40.6987196 C14.8547501,41.1739013 14.2519822,41.4211068 13.5719915,41.4211068 C12.8806181,41.4211068 12.2730305,41.1827966 11.7973694,40.7203483 C11.3153892,40.2517564 11.0660402,39.6407633 11.0660402,38.9407792 Z" id="Path" fill="#95AABF" fill-rule="nonzero"></path>
                                            <path d="M17.4905265,16.685182 C17.603062,17.8380689 17.1182938,18.5315347 16.3565153,18.9216092 C17.6203752,19.2250005 18.41678,19.9791445 18.2609617,21.6694674 C18.0618605,23.7758697 16.503677,24.3393107 14.2702808,24.4606672 L14.2702808,26.6710894 L12.9371683,26.6710894 L12.9371683,24.4953405 C12.5995618,24.4953405 12.2446423,24.4953405 11.8810661,24.4866722 L11.8810661,26.6710894 L10.5479536,26.6710894 L10.5479536,24.4606672 C10.2363169,24.4606672 9.92468025,24.4519989 9.60438699,24.4519989 L7.87307205,24.4519989 L8.14142586,22.8656959 C9.11961881,22.8830325 9.10230566,22.8656959 9.10230566,22.8656959 C9.47453837,22.8656959 9.57841727,22.5969779 9.60438699,22.4236114 L9.60438699,18.9389458 L9.74289219,18.9389458 C9.69095274,18.9302775 9.63901329,18.9302775 9.60438699,18.9302775 L9.60438699,16.442469 C9.55244754,16.1650827 9.37931605,15.8530231 8.83395184,15.8530231 C8.83395184,15.8530231 8.85126499,15.8356864 7.87307205,15.8530231 L7.87307205,14.4314182 L9.70826589,14.4400865 C9.9766197,14.4400865 10.2622867,14.4400865 10.5479536,14.4314182 L10.5479536,12.247001 L11.8810661,12.247001 L11.8810661,14.3880766 C12.2359857,14.3794083 12.5909053,14.3707399 12.9371683,14.3707399 L12.9371683,12.247001 L14.2702808,12.247001 L14.2702808,14.4314182 C15.9842826,14.5787797 17.3433648,15.1075474 17.4905265,16.685182 Z M15.629363,21.4094177 C15.629363,19.6930899 12.8073196,19.9444712 11.9070359,19.9444712 L11.9070359,22.8743642 C12.8073196,22.8743642 15.629363,23.0650673 15.629363,21.4094177 Z M15.0147462,17.2832963 C15.0147462,15.7143299 12.6601579,15.9483746 11.9070359,15.9483746 L11.9070359,18.6095496 C12.6601579,18.6095496 15.0147462,18.782916 15.0147462,17.2832963 Z" id="btc---FontAwesome" fill="#F7931A"></path>
                                        </g>
                                    </g>
                                </g>
                                <g id="Page-1" transform="translate(269.916844, 150.030445)">
                                    <g id="icon/Desktop" transform="translate(0.083156, 0.969555)">
                                        <g id="Group-3" transform="translate(-0.000000, 0.000000)">
                                            <path d="M7,1.77635684e-15 L40,1.77635684e-15 C42.7614237,1.26909153e-15 45,2.23857625 45,5 L45,26 C45,28.7614237 42.7614237,31 40,31 L7,31 C4.23857625,31 2,28.7614237 2,26 L2,5 C2,2.23857625 4.23857625,5.07265313e-16 7,1.77635684e-15 Z" id="Path" fill="#FFFFFF"></path>
                                            <path d="M7,1 C4.790861,1 3,2.790861 3,5 L3,26 C3,28.209139 4.790861,30 7,30 L40,30 C42.209139,30 44,28.209139 44,26 L44,5 C44,2.790861 42.209139,1 40,1 L7,1 Z M7,3.94430453e-31 L40,3.94430453e-31 C42.7614237,-5.07265313e-16 45,2.23857625 45,5 L45,26 C45,28.7614237 42.7614237,31 40,31 L7,31 C4.23857625,31 2,28.7614237 2,26 L2,5 C2,2.23857625 4.23857625,-1.26909153e-15 7,3.94430453e-31 Z" id="Rectangle-6" fill="#1C1F30" fill-rule="nonzero"></path>
                                            <path d="M7,3 C5.8954305,3 5,3.8954305 5,5 L5,26 C5,27.1045695 5.8954305,28 7,28 L40,28 C41.1045695,28 42,27.1045695 42,26 L42,5 C42,3.8954305 41.1045695,3 40,3 L7,3 Z M7,2 L40,2 C41.6568542,2 43,3.34314575 43,5 L43,26 C43,27.6568542 41.6568542,29 40,29 L7,29 C5.34314575,29 4,27.6568542 4,26 L4,5 C4,3.34314575 5.34314575,2 7,2 Z" id="Rectangle-6" fill="#FF9500" fill-rule="nonzero"></path>
                                            <path d="M42,31 L6,31 C3.58104209,31 1.56328845,32.7177597 1.10001812,35 L46.8999819,35 C46.4367116,32.7177597 44.4189579,31 42,31 Z M6,30 L42,30 C45.3137085,30 48,32.6862915 48,36 L0,36 C-4.05812251e-16,32.6862915 2.6862915,30 6,30 Z" id="Rectangle-3" fill="#95AABF" fill-rule="nonzero" transform="translate(24.000000, 33.000000) rotate(180.000000) translate(-24.000000, -33.000000) "></path>
                                            <path d="M28.4759445,11.9071727 C28.6045879,13.2250803 28.0504315,14.0178067 27.1796142,14.4637153 C28.6243792,14.8105331 29.5347791,15.6726231 29.3566574,17.6048937 C29.1290574,20.0128002 27.3478403,20.6568904 24.7947623,20.7956175 L24.7947623,23.3224329 L23.2708321,23.3224329 L23.2708321,20.8352538 C22.8849017,20.8352538 22.47918,20.8352538 22.0635627,20.8253447 L22.0635627,23.3224329 L20.5396325,23.3224329 L20.5396325,20.7956175 C20.183389,20.7956175 19.8271456,20.7857084 19.4610065,20.7857084 L17.4818763,20.7857084 L17.7886415,18.9723468 C18.9068501,18.9921649 18.8870588,18.9723468 18.8870588,18.9723468 C19.3125717,18.9723468 19.4313196,18.6651653 19.4610065,18.4669837 L19.4610065,14.4835335 L19.6193369,14.4835335 C19.559963,14.4736244 19.5005891,14.4736244 19.4610065,14.4736244 L19.4610065,11.6297184 C19.4016326,11.3126279 19.2037196,10.955901 18.5802936,10.955901 C18.5802936,10.955901 18.6000849,10.9360828 17.4818763,10.955901 L17.4818763,9.33081184 L19.5797543,9.34072092 C19.8865195,9.34072092 20.213076,9.34072092 20.5396325,9.33081184 L20.5396325,6.83372365 L22.0635627,6.83372365 L22.0635627,9.28126644 C22.4692844,9.27135736 22.8750061,9.26144828 23.2708321,9.26144828 L23.2708321,6.83372365 L24.7947623,6.83372365 L24.7947623,9.33081184 C26.7541012,9.4992662 28.3077184,10.1037201 28.4759445,11.9071727 Z M26.3483795,17.3076213 C26.3483795,15.3456235 23.1223973,15.6329868 22.0932496,15.6329868 L22.0932496,18.9822558 C23.1223973,18.9822558 26.3483795,19.2002556 26.3483795,17.3076213 Z M25.6457883,12.5908992 C25.6457883,10.7973557 22.9541713,11.0649009 22.0932496,11.0649009 L22.0932496,14.1069884 C22.9541713,14.1069884 25.6457883,14.30517 25.6457883,12.5908992 Z" id="btc---FontAwesome" fill="#F7931A"></path>
                                        </g>
                                    </g>
                                </g>
                            </g>
                        </g>
                        <g id="Group-5" transform="translate(28.000000, 242.000000)">
                            <g id="Page-1" transform="translate(14.000000, 8.346604)">
                                <path d="M42.3796013,32.1358314 L28.6360405,32.1358314 C27.39771,32.1358314 26.3841535,31.1227447 26.3841535,29.8849883 L26.3841535,3.2976815 C26.3841535,2.05992506 27.39771,1.04683841 28.6360405,1.04683841 L42.3796013,1.04683841 C43.6179318,1.04683841 44.6314883,2.05992506 44.6314883,3.2976815 L44.6314883,29.8849883 C44.6314883,31.1227447 43.6179318,32.1358314 42.3796013,32.1358314" id="Fill-1" stroke="#95AABF"></path>
                                <path d="M8.3169697,3.8380444 C8.41428798,4.83503641 7.99507079,5.43473085 7.33630091,5.77205897 C8.42926002,6.03442528 9.11797399,6.68659298 8.9832256,8.14834818 C8.81104711,9.96992003 7.46356327,10.4571718 5.53216977,10.5621183 L5.53216977,12.4736443 L4.37932248,12.4736443 L4.37932248,10.592103 C4.08736765,10.592103 3.78044077,10.592103 3.46602788,10.5846068 L3.46602788,12.4736443 L2.31318059,12.4736443 L2.31318059,10.5621183 C2.04368382,10.5621183 1.77418706,10.5546221 1.49720427,10.5546221 L0,10.5546221 L0.232066661,9.18282108 C1.07798707,9.19781344 1.06301503,9.18282108 1.06301503,9.18282108 C1.38491395,9.18282108 1.4747462,8.95043949 1.49720427,8.80051588 L1.49720427,5.78705133 L1.61698061,5.78705133 C1.57206448,5.77955515 1.52714835,5.77955515 1.49720427,5.77955515 L1.49720427,3.62815135 C1.45228814,3.38827358 1.30256771,3.11841108 0.830948368,3.11841108 C0.830948368,3.11841108 0.845920411,3.10341872 0,3.11841108 L0,1.88903748 L1.58703652,1.89653366 C1.81910318,1.89653366 2.06614189,1.89653366 2.31318059,1.88903748 L2.31318059,0 L3.46602788,0 L3.46602788,1.85155658 C3.77295475,1.8440604 4.07988163,1.83656422 4.37932248,1.83656422 L4.37932248,0 L5.53216977,0 L5.53216977,1.88903748 C7.01440199,2.01647255 8.18970734,2.47373956 8.3169697,3.8380444 Z M6.70747512,7.92346276 C6.70747512,6.43921903 4.26703216,6.65660826 3.48848594,6.65660826 L3.48848594,9.19031726 C4.26703216,9.19031726 6.70747512,9.35523323 6.70747512,7.92346276 Z M6.1759676,4.35528086 C6.1759676,2.99847219 4.1397698,3.20086906 3.48848594,3.20086906 L3.48848594,5.50219647 C4.1397698,5.50219647 6.1759676,5.65212008 6.1759676,4.35528086 Z" id="btc---FontAwesome" fill="#F7931A"></path>
                                <path d="M40.4842009,7.67915691 L30.5311092,7.67915691 C29.8468341,7.67915691 29.2869727,7.11955504 29.2869727,6.43559719 C29.2869727,5.75163934 29.8468341,5.19203747 30.5311092,5.19203747 L40.4842009,5.19203747 C41.1684759,5.19203747 41.7283373,5.75163934 41.7283373,6.43559719 C41.7283373,7.11955504 41.1684759,7.67915691 40.4842009,7.67915691" id="Fill-15" stroke="#1C3C55" fill="#FFFFFF"></path>
                                <path d="M40.4842009,11.824356 L30.5311092,11.824356 C29.8468341,11.824356 29.2869727,11.2647541 29.2869727,10.5807963 C29.2869727,9.89683841 29.8468341,9.33723653 30.5311092,9.33723653 L40.4842009,9.33723653 C41.1684759,9.33723653 41.7283373,9.89683841 41.7283373,10.5807963 C41.7283373,11.2647541 41.1684759,11.824356 40.4842009,11.824356" id="Fill-17" stroke="#1C3C55" fill="#FFFFFF"></path>
                                <path d="M40.4842009,15.969555 L30.5311092,15.969555 C29.8468341,15.969555 29.2869727,15.4099532 29.2869727,14.7259953 C29.2869727,14.0420375 29.8468341,13.4824356 30.5311092,13.4824356 L40.4842009,13.4824356 C41.1684759,13.4824356 41.7283373,14.0420375 41.7283373,14.7259953 C41.7283373,15.4099532 41.1684759,15.969555 40.4842009,15.969555" id="Fill-19" fill="#FFFFFF"></path>
                                <path d="M36.7517915,27.1615925 C36.7517915,27.8480375 36.1944183,28.4051522 35.507655,28.4051522 C34.8208917,28.4051522 34.2635186,27.8480375 34.2635186,27.1615925 C34.2635186,26.4751475 34.8208917,25.9180328 35.507655,25.9180328 C36.1944183,25.9180328 36.7517915,26.4751475 36.7517915,27.1615925" id="Fill-21" fill="#95AABF"></path>
                            </g>
                            <g id="Group-2" fill-rule="nonzero">
                                <path d="M16.2857143,28.2857143 L16.2857143,34.7142857 L22.7142857,34.7142857 L22.7142857,28.2857143 L16.2857143,28.2857143 Z M15,27 L24,27 L24,36 L15,36 L15,27 Z" id="Rectangle-2" fill="#95AABF"></path>
                                <path d="M28.1304348,36.25 L9.86956522,36.25 C8.27938578,36.25 6.92657301,37.2935095 6.42520695,38.75 L31.5747931,38.75 C31.073427,37.2935095 29.7206142,36.25 28.1304348,36.25 Z M9.86956522,35 L28.1304348,35 C30.8198214,35 33,37.2385763 33,40 L5,40 C5,37.2385763 7.18017861,35 9.86956522,35 Z" id="Rectangle-3" fill="#95AABF"></path>
                                <path d="M2.4516129,1.2173913 C1.77461869,1.2173913 1.22580645,1.76243596 1.22580645,2.43478261 L1.22580645,25.5652174 C1.22580645,26.237564 1.77461869,26.7826087 2.4516129,26.7826087 L35.5483871,26.7826087 C36.2253813,26.7826087 36.7741935,26.237564 36.7741935,25.5652174 L36.7741935,2.43478261 C36.7741935,1.76243596 36.2253813,1.2173913 35.5483871,1.2173913 L2.4516129,1.2173913 Z M2.4516129,0 L35.5483871,0 C36.9023755,-2.47016153e-16 38,1.0900893 38,2.43478261 L38,25.5652174 C38,26.9099107 36.9023755,28 35.5483871,28 L2.4516129,28 C1.09762448,28 1.65815758e-16,26.9099107 0,25.5652174 L0,2.43478261 C-1.65815758e-16,1.0900893 1.09762448,2.47016153e-16 2.4516129,0 Z" id="Rectangle-6" fill="#FF9500"></path>
                                <path d="M5,5 L5,23 L33,23 L33,5 L5,5 Z M4,4 L34,4 L34,24 L4,24 L4,4 Z" id="Rectangle-5" fill="#1C3C55"></path>
                            </g>
                        </g>
                    </g>
                </g>
            </g>
        </g>
    </g>
</svg>