<?xml version="1.0" encoding="UTF-8"?>
<svg width="406px" height="324px" viewBox="0 0 406 324" version="1.1" xmlns="http://www.w3.org/2000/svg" xmlns:xlink="http://www.w3.org/1999/xlink">
    <!-- Generator: Sketch 49 (51002) - http://www.bohemiancoding.com/sketch -->
    <title>illustration/Be careful with public spaces</title>
    <desc>Created with Sketch.</desc>
    <defs>
        <path d="M40.000125,37.33325 C38.1255,37.33325 36.272125,37.055875 34.488125,36.503875 C33.81075,36.29325 33.080125,36.66125 32.840125,37.33325 C31.7095,40.522625 28.6935,42.666625 25.336125,42.666625 C21.77875,42.666625 18.7095,40.34925 17.69875,36.904 C17.53075,36.333375 16.81875,35.96 16.21075,35.96 C15.85075,35.978625 15.59475,35.997375 15.333375,35.997375 C6.877375,35.997375 0,29.117375 0,20.664 C0,12.210625 6.8775,5.330625 15.3335,5.330625 C18.184125,5.330625 20.9815,6.136 23.424125,7.658625 C24.0055,8.02125 24.768125,7.88525 25.18675,7.338625 C28.76275,2.674625 34.16275,0 40.000125,0 C50.29075,0 58.66675,8.373375 58.66675,18.666625 C58.66675,28.959875 50.29075,37.33325 40.000125,37.33325 Z" id="path-1"></path>
        <path d="M23.7499355,52.4998711 C22.2319474,52.4998711 21,51.2650878 21,49.7499355 C21,48.2347833 22.2319474,47 23.7499355,47 C25.2679237,47 26.4998711,48.2347833 26.4998711,49.7499355 C26.4998711,51.2650878 25.2679237,52.4998711 23.7499355,52.4998711 Z" id="path-2"></path>
        <path d="M21.333375,58.66675 C20.6,58.66675 20,58.069375 20,57.333375 C20,56.597375 20.6,56 21.333375,56 C22.06675,56 22.66675,56.597375 22.66675,57.333375 C22.66675,58.069375 22.06675,58.66675 21.333375,58.66675 Z" id="path-3"></path>
        <path d="M31.7436331,37.1355317 C25.6961648,36.0136385 25.3804169,37.7844924 18.7363293,38.317217 C10.3391901,38.9905017 0.837130091,32.0476742 0.837130091,22.057214 C0.837130091,12.0667538 10.2804543,5.65046699 18.7364543,5.65046699 C21.5870793,5.65046699 24.3844543,6.45584199 26.8270793,7.97846699 C27.4084543,8.34109199 28.1710793,8.20509199 28.5897043,7.65846699 C32.1657043,2.99446699 37.5657043,0.31984199 43.4030793,0.31984199 C53.6937043,0.31984199 64.2325742,8.50198371 64.2325742,18.7952337 C64.2325742,24.5015442 62.2363338,36.0147839 51.7180192,40.2006302 C40.8249468,44.5356143 36.166493,37.9560364 31.7436331,37.1355317 Z" id="path-4"></path>
        <path d="M31.7436331,37.1355317 C25.6961648,36.0136385 25.3804169,37.7844924 18.7363293,38.317217 C10.3391901,38.9905017 0.837130091,32.0476742 0.837130091,22.057214 C0.837130091,12.0667538 10.2804543,5.65046699 18.7364543,5.65046699 C21.5870793,5.65046699 24.3844543,6.45584199 26.8270793,7.97846699 C27.4084543,8.34109199 28.1710793,8.20509199 28.5897043,7.65846699 C32.1657043,2.99446699 37.5657043,0.31984199 43.4030793,0.31984199 C53.6937043,0.31984199 64.2325742,8.50198371 64.2325742,18.7952337 C64.2325742,24.5015442 62.2363338,36.0147839 51.7180192,40.2006302 C40.8249468,44.5356143 36.166493,37.9560364 31.7436331,37.1355317 Z" id="path-5"></path>
        <path d="M31.7436331,37.1355317 C25.6961648,36.0136385 25.3804169,37.7844924 18.7363293,38.317217 C10.3391901,38.9905017 0.837130091,32.0476742 0.837130091,22.057214 C0.837130091,12.0667538 10.2804543,5.65046699 18.7364543,5.65046699 C21.5870793,5.65046699 24.3844543,6.45584199 26.8270793,7.97846699 C27.4084543,8.34109199 28.1710793,8.20509199 28.5897043,7.65846699 C32.1657043,2.99446699 37.5657043,0.31984199 43.4030793,0.31984199 C53.6937043,0.31984199 64.2325742,8.50198371 64.2325742,18.7952337 C64.2325742,24.5015442 62.2363338,36.0147839 51.7180192,40.2006302 C40.8249468,44.5356143 36.166493,37.9560364 31.7436331,37.1355317 Z" id="path-6"></path>
        <path d="M19.7499355,49.4998711 C18.2319474,49.4998711 17,48.2650878 17,46.7499355 C17,45.2347833 18.2319474,44 19.7499355,44 C21.2679237,44 22.4998711,45.2347833 22.4998711,46.7499355 C22.4998711,48.2650878 21.2679237,49.4998711 19.7499355,49.4998711 Z" id="path-7"></path>
        <path d="M15,53.333375 C14.266625,53.333375 13.666625,52.736 13.666625,52 C13.666625,51.264 14.266625,50.666625 15,50.666625 C15.733375,50.666625 16.333375,51.264 16.333375,52 C16.333375,52.736 15.733375,53.333375 15,53.333375 Z" id="path-8"></path>
        <path d="M29.1778088,35.1355317 C23.1303405,34.0136385 22.8145926,35.7844924 16.1705051,36.317217 C7.77336587,36.9905017 0.837130091,29.437217 0.837130091,20.983842 C0.837130091,12.530467 7.71463009,5.65046699 16.1706301,5.65046699 C19.0212551,5.65046699 21.8186301,6.45584199 24.2612551,7.97846699 C24.8426301,8.34109199 25.6052551,8.20509199 26.0238801,7.65846699 C29.5998801,2.99446699 34.9998801,0.31984199 40.8372551,0.31984199 C51.1278801,0.31984199 61.66675,8.50198371 61.66675,18.7952337 C61.66675,24.5015442 59.6705095,34.0147839 49.152195,38.2006302 C38.2591226,42.5356143 33.6006687,35.9560364 29.1778088,35.1355317 Z" id="path-9"></path>
        <path d="M19.7499355,47.4998711 C18.2319474,47.4998711 17,46.2650878 17,44.7499355 C17,43.2347833 18.2319474,42 19.7499355,42 C21.2679237,42 22.4998711,43.2347833 22.4998711,44.7499355 C22.4998711,46.2650878 21.2679237,47.4998711 19.7499355,47.4998711 Z" id="path-10"></path>
        <path d="M15,51.333375 C14.266625,51.333375 13.666625,50.736 13.666625,50 C13.666625,49.264 14.266625,48.666625 15,48.666625 C15.733375,48.666625 16.333375,49.264 16.333375,50 C16.333375,50.736 15.733375,51.333375 15,51.333375 Z" id="path-11"></path>
    </defs>
    <g id="Protect-your-privacy" stroke="none" stroke-width="1" fill="none" fill-rule="evenodd">
        <g id="22.01.18-Bitcoin.org_Protect-your-privacy-Desktop-1200px--" transform="translate(-242.000000, -1954.000000)">
            <g id="//body" transform="translate(215.000000, 668.000000)">
                <g id="3" transform="translate(0.000000, 1216.000000)">
                    <g id="illustration/Be-careful-with-public-spaces" transform="translate(0.000000, 53.000000)">
                        <g id="siatka" opacity="0.600000024" transform="translate(244.602919, 180.113642) rotate(-48.000000) translate(-244.602919, -180.113642) translate(71.102919, 14.613642)">
                            <g id="Group-8" opacity="0.200000003" transform="translate(12.000000, 1.000000)">
                                <path d="" id="Path-2" stroke="#979797"></path>
                                <polyline id="Path-5" stroke="#979797" points="327.306554 250.729508 299.380444 78.3713856 0 153.762295 156.02537 176.618852 189.310782 1.3852459"></polyline>
                                <polyline id="Path-6" stroke="#979797" points="155.897048 177.051496 209.420719 327.610656 299.56871 78.2663934"></polyline>
                                <polyline id="Path-8" stroke="#979797" points="156.186765 176.487406 76.9725159 278.434426 208.727273 327.610656"></polyline>
                                <polyline id="Path-9" stroke="#979797" points="155.331924 176.618852 98.4693446 56.795082 191.391121 0.692622951"></polyline>
                                <polygon id="Path-10" stroke="#979797" points="78.359408 279.127049 20.831855 243.556622 0 154.454918"></polygon>
                                <circle id="Oval-2" fill="#7B7B7B" cx="20.5" cy="243.5" r="2.5"></circle>
                                <polyline id="Path-11" stroke="#979797" points="299.56871 78.2663934 188.270613 0 326.613108 252.114754 210.114165 328.303279 0 154.454918 98.4693446 56.102459 325.919662 252.114754"></polyline>
                                <polyline id="Path-13" stroke="#979797" points="328 252.114754 236.465116 252.114754 155.997497 176.425781"></polyline>
                                <circle id="Oval-2" fill="#7B7B7B" cx="155.790409" cy="176.958877" r="2.5"></circle>
                                <path d="M76.9725159,279.127049 L239.238901,252.114754" id="Path-14" stroke="#979797"></path>
                                <circle id="Oval-2" fill="#7B7B7B" cx="299.5" cy="78.5" r="2.5"></circle>
                            </g>
                            <g id="dots" transform="translate(101.000000, 49.000000)">
                                <circle id="Oval-2" fill="#C4C4C4" cx="8.5" cy="8.5" r="2.38"></circle>
                                <circle id="Oval-2" stroke="#CACACA" cx="8.5" cy="8.5" r="8.5"></circle>
                            </g>
                            <g id="dots" transform="translate(330.000000, 243.000000)">
                                <circle id="Oval-2" fill="#C4C4C4" cx="8.5" cy="8.5" r="2.38"></circle>
                                <circle id="Oval-2" stroke="#CACACA" cx="8.5" cy="8.5" r="8.5"></circle>
                            </g>
                            <g id="dots" transform="translate(275.000000, 147.000000)">
                                <circle id="Oval-2" fill="#C4C4C4" cx="8.5" cy="8.5" r="2.38"></circle>
                                <circle id="Oval-2" stroke="#CACACA" cx="8.5" cy="8.5" r="8.5"></circle>
                            </g>
                            <g id="dots" transform="translate(80.000000, 271.000000)">
                                <circle id="Oval-2" fill="#C4C4C4" cx="8.5" cy="8.5" r="2.38"></circle>
                                <circle id="Oval-2" stroke="#CACACA" cx="8.5" cy="8.5" r="8.5"></circle>
                            </g>
                            <circle id="Oval-2" fill="#7B7B7B" cx="220.5" cy="328.5" r="2.5"></circle>
                            <circle id="Oval-2" fill="#7B7B7B" cx="200.5" cy="2.5" r="2.5"></circle>
                            <g id="Group-7" transform="translate(0.000000, 143.000000)">
                                <circle id="Oval-2" fill="#FF7E00" cx="12.5" cy="12.5" r="3.92857143"></circle>
                                <circle id="Oval-2" stroke="#FF7E00" cx="12.5" cy="12.5" r="12.5"></circle>
                            </g>
                        </g>
                        <g id="Group-2" transform="translate(92.000000, 173.000000) scale(-1, 1) translate(-92.000000, -173.000000) translate(57.000000, 71.000000)">
                            <path d="M32.1376996,28.1236144 C30.5383846,31.3091198 20.9416496,34.4946252 13.7443096,43.2560271 C8.08207539,50.1470174 3.34833948,59.9811926 0.948944512,79.0950665 C-1.45045045,98.2097817 1.7481796,99.8025344 2.54910439,97.413826 C3.34833948,95.0242763 3.34833948,90.2451768 3.34833948,87.8564684 C3.34833948,87.8564684 9.74559957,61.5739453 13.7443096,56.7948458 C17.7430196,52.0165877 9.74559957,80.6886605 9.74559957,80.6886605 C9.74559957,80.6886605 41.7344346,83.0773689 43.3337497,81.4846162 C44.9339095,79.8918635 44.1338296,55.9988902 46.5323797,52.0165877 C48.9317747,48.0342853 60.9279046,62.369901 60.1278247,63.9634951 C59.3285896,65.5562478 47.3324596,72.7240556 44.9339095,75.909561 C42.5345146,79.0950665 44.1338296,80.6886605 45.7331446,83.0773689 C47.3324596,85.4669187 48.9317747,86.2637157 48.9317747,83.874166 C48.9317747,81.4846162 45.7331446,79.0950665 48.1325396,78.2991108 C50.5310897,77.5023137 65.7258497,71.9272586 68.9244798,67.1490005 C72.1239547,62.369901 59.3285896,46.4415326 54.5297997,41.662433 C49.7318546,36.8841749 40.9343547,32.9018725 40.1351196,29.7163671 C39.3358845,26.5300203 38.9895084,20.0072112 38.1902734,16.0249087 C37.3910383,12.0426063 32.1376996,16.9735041 32.1376996,16.9735041 C32.1376996,17.7694597 33.7378595,24.9372676 32.1376996,28.1236144 Z" id="Fill-27" stroke="#1C3C55" fill="#FFFFFF"></path>
                            <path d="M29.1586923,20.9241193 C29.1586923,20.9241193 29.7125052,22.7129015 33.0262633,23.2606902 C36.3408504,23.8093051 39.3760439,20.9175095 40.0641647,16.7896777 C40.7514566,12.6610197 41.7156549,6.88073326 36.8805693,5.23240973 C32.0471419,3.58491242 28.7367001,8.12751031 27.910955,13.0815694 C27.086039,18.0356285 29.1586923,20.9241193 29.1586923,20.9241193" id="Fill-34" stroke="#1C3C55" fill="#FFFFFF"></path>
                            <path d="M12.4938869,58.6614074 C11.1699858,61.6460657 5.61010472,78.7087579 5.61010472,78.7087579 C4.86929062,83.6109152 15.2843146,86.9419769 25.7295417,86.9419769 C37.6412954,86.9419769 43.994846,81.3309208 43.994846,81.3309208 C43.994846,81.3309208 42.8540971,77.8105711 43.2003376,71.1664826 C43.6245535,63.026104 45.249471,52.1045227 45.687392,50.3385135 C46.4810615,47.1319538 50.8921349,50.5656117 53.2748212,51.3676751 C55.6575076,52.1688916 60.6719724,49.2627826 57.257348,44.487668 C53.8427236,39.7125534 43.2003376,31.6250101 43.2003376,31.6250101 L32.8767617,42.0475997 L27.1421854,30.4914413 L21.9920397,34.2053935 C17.9617667,37.0003644 10.3357574,43.9325374 6.51087463,52.0336319 C6.51087463,52.0336319 13.817788,55.6759021 12.4938869,58.6614074 Z" id="Fill-38" fill="#FFFFFF"></path>
                            <path d="M12.4938869,58.6614074 C11.1699858,61.6460657 5.61010472,78.7087579 5.61010472,78.7087579 C4.86929062,83.6109152 15.2843146,86.9419769 25.7295417,86.9419769 C37.6412954,86.9419769 43.1033265,81.3309208 43.994846,81.3309208 C44.8863656,81.3309208 43.6486056,79.7397362 43.994846,73.0956477 C44.4190619,64.9552692 45.4827214,54.9372658 45.9206424,53.1712566 C46.7143119,49.9646969 50.7039023,51.2315685 53.0865886,52.0336319 C55.469275,52.8348484 60.6719724,49.2627826 57.257348,44.487668 C53.8427236,39.7125534 43.2003376,31.6250101 43.2003376,31.6250101 L32.8767617,42.0475997 L27.1421854,30.4914413 L21.9920397,34.2053935 C17.9617667,37.0003644 10.3357574,43.9325374 6.51087463,52.0336319 C6.51087463,52.0336319 13.817788,55.6759021 12.4938869,58.6614074 Z" id="Fill-38" stroke="#FF9500"></path>
                            <path d="M35.8256,4.34596896 C35.7252405,3.55421604 35.8256,8.33508828 33.410167,9.13358669 C30.9955844,9.9320851 29.3864297,10.7297403 29.3864297,10.7297403 C29.3864297,10.7297403 28.0809052,16.4718461 29.6900599,18.0671566 C27.2754773,18.865655 26.1672698,19.5064774 24.5572647,16.3150133 C22.9472595,13.1235492 25.361842,9.9320851 26.9718472,7.53743305 C28.5810019,5.14362419 31.8010123,-0.441648772 35.8256,0.356006454 C39.8493372,1.15366168 41.4593424,2.74981532 43.0693476,6.73977783 C44.6785023,10.7297403 47.0930849,11.5273956 47.0930849,13.9212044 C47.0930849,16.3150133 42.2639198,18.7088222 41.4593424,17.9111669 C41.4593424,15.5173581 41.4134152,12.3250508 41.4134152,10.7297403 C41.4134152,9.13358669 36.6301774,10.7297403 35.8256,4.34596896" id="Fill-40" fill="#FFFFFF"></path>
                            <path d="M35.8256,4.34596896 C35.7252405,3.55421604 35.8256,8.33508828 33.410167,9.13358669 C30.9955844,9.9320851 29.3864297,10.7297403 29.3864297,10.7297403 C29.3864297,10.7297403 28.0809052,16.4718461 29.6900599,18.0671566 C27.2754773,18.865655 26.1672698,19.5064774 24.5572647,16.3150133 C22.9472595,13.1235492 25.361842,9.9320851 26.9718472,7.53743305 C28.5810019,5.14362419 31.8010123,-0.441648772 35.8256,0.356006454 C39.8493372,1.15366168 41.4593424,2.74981532 43.0693476,6.73977783 C44.6785023,10.7297403 47.0930849,11.5273956 47.0930849,13.9212044 C47.0930849,16.3150133 42.2639198,18.7088222 41.4593424,17.9111669 C41.4593424,15.5173581 41.4134152,12.3250508 41.4134152,10.7297403 C41.4134152,9.13358669 36.6301774,10.7297403 35.8256,4.34596896" id="Fill-40" stroke="#1C3C55"></path>
                            <path d="M5.13811502,163.561897 C5.13811502,159.793619 5.38578239,156.986639 6.02287921,152.094179 C6.06785515,151.749232 6.06785515,151.749232 6.11265357,151.40611 C6.15729348,151.063792 6.17553844,150.923516 6.20147747,150.722867 C6.26813421,150.207248 6.32255278,149.777343 6.37294847,149.36564 C6.91008284,144.97757 7.04941356,141.840265 6.73674568,138.086675 C6.59202304,136.351262 6.28491481,134.146977 5.78539387,131.136536 C5.58764877,129.944795 5.36890687,128.677357 5.05632195,126.900444 C4.99896961,126.57442 4.94003529,126.240107 4.85983611,125.785672 C4.76035398,125.222092 4.76035398,125.222092 4.65991389,124.652847 C4.496478,123.726187 4.37420001,123.029892 4.25425989,122.341473 C3.82006331,119.849319 3.48147771,117.826307 3.17761367,115.877736 C2.25929712,109.988901 1.73527088,105.185707 1.66475554,101.26234 C1.62686575,99.1542085 2.87568657,99.1289329 2.90719382,101.124023 C2.96835738,104.996998 3.4871503,109.788147 4.40690669,115.686215 C4.70946313,117.626402 5.04691333,119.642629 5.47994979,122.128124 C5.59971527,122.815541 5.7218581,123.511066 5.88515704,124.43695 C5.9855625,125.005999 5.9855625,125.005999 6.08505616,125.569644 C6.16529153,126.024284 6.2242613,126.358798 6.28166055,126.685089 C6.59488393,128.465632 6.81422365,129.736533 7.01276416,130.933068 C7.51736029,133.974095 7.82842534,136.20678 7.97658725,137.983435 C8.29734901,141.834192 8.1544755,145.05127 7.60787596,149.516665 C7.55709659,149.931502 7.50234351,150.36405 7.43535576,150.882229 C7.4093417,151.083459 7.3910381,151.224186 7.34634172,151.566936 C7.30152566,151.910194 7.30152566,151.910194 7.25660891,152.254686 C6.62589315,157.098144 6.38225148,159.859498 6.38225148,163.561897 C6.38225148,171.228984 9.05466638,180.720155 12.350515,184.879146 C12.4224738,184.96995 12.467624,185.079041 12.4808753,185.19412 C13.1044769,190.6097 11.831798,190.598473 11.2645141,185.509419 C7.82832692,181.041814 5.13811502,171.404272 5.13811502,163.561897 Z M25.5707077,111.315363 C25.0060001,115.13887 24.4393625,118.962385 23.9077922,122.531056 C23.8840423,122.690491 23.8840423,122.690491 23.8602897,122.849909 C22.6776662,130.786731 21.850377,136.241082 21.5344355,138.137359 C21.1439526,140.476501 20.9711304,141.717701 20.8715117,142.963696 C20.760424,144.353141 20.7438351,145.365292 20.7438351,149.203137 C20.7438351,150.32753 20.7550933,150.817145 20.843595,154.062702 C21.0809911,162.768554 24.436053,179.121423 23.4393135,185.098053 C23.3828233,185.436779 23.0623102,185.665597 22.7234274,185.609133 C22.3845447,185.552669 22.3628113,185.499581 22.4003147,185.098053 C22.9313197,179.412884 19.8352583,162.726959 19.5999204,154.096584 C19.510985,150.83512 19.4996986,150.344283 19.4996986,149.203137 C19.4996986,145.328016 19.5165418,144.30035 19.631329,142.864633 C19.7344363,141.575005 19.9113893,140.304138 20.3072326,137.932885 C20.6213981,136.047267 21.4486225,130.593344 22.6297264,122.666719 C22.6534745,122.507332 22.6534745,122.507332 22.67722,122.347927 C23.2087062,118.77982 23.775272,114.95679 24.3399105,111.13375 C24.5375349,109.79568 24.720802,108.553188 24.8850862,107.438136 C24.9765979,106.8169 24.9765979,106.8169 25.0375638,106.402753 C25.0821005,106.100117 25.0821005,106.100117 25.0914662,106.036432 C25.1929774,105.346176 26.180029,105.320797 26.3169102,106.004924 C26.3327692,106.084187 26.3637896,106.238232 26.4091728,106.462071 C26.4848718,106.835434 26.5733373,107.26862 26.6737707,107.756641 C26.9607844,109.151282 27.2860912,110.705432 27.6432998,112.379177 C28.663819,117.160948 29.7353215,121.942555 30.8065507,126.404284 C31.45652,129.111442 32.0872398,131.619049 32.6922341,133.886973 C34.2333183,139.665105 34.8939047,143.364239 35.1055162,147.174732 C35.2173706,149.188898 35.2173479,150.436015 35.1505759,155.104854 C35.1198436,157.253729 35.1062616,158.682821 35.1062616,160.371249 C35.1062616,160.714648 34.8277521,160.993028 34.4841933,160.993028 C34.1406345,160.993028 33.8621251,160.714648 33.8621251,160.371249 C33.8621251,158.675679 33.8757566,157.241383 33.9065666,155.08708 C33.9728711,150.450923 33.9728935,149.217252 33.863292,147.243654 C33.6568952,143.527062 33.0107989,139.909069 31.4900896,134.20733 C30.8822168,131.928617 30.2490147,129.41114 29.5967631,126.694476 C28.5227979,122.221352 27.4490899,117.429902 26.4265399,112.638616 C26.2079189,111.61424 26.0012191,110.634548 25.8078945,109.708628 C25.7314979,110.22641 25.6523271,110.762736 25.5707077,111.315363 Z M46.7306677,186.231271 C46.6992146,185.999843 46.8001632,185.770316 46.9920283,185.637015 C47.8230015,185.059686 48.3139006,184.27701 48.3139006,183.505555 C48.3139006,182.582144 48.5151983,179.76423 49.1132992,171.694491 C49.1942147,170.561791 49.2672493,169.514809 49.334869,168.514043 C49.7082974,162.987324 49.9095384,158.959379 49.9095384,156.382517 C49.9095384,153.8862 49.6485415,152.435878 48.2114748,145.846771 C46.610678,138.506943 46.1011644,134.156626 46.7230633,129.183225 C48.3676887,116.02794 47.8617922,102.143106 46.0201774,88.9015064 C45.652075,86.2547722 46.881618,86.06382 47.252464,88.7302814 C49.107876,102.071086 49.6175484,116.059555 47.9575965,129.337436 C47.3580003,134.132479 47.8544613,138.371352 49.4270627,145.5819 C50.8888276,152.284251 51.1536749,153.755969 51.1536749,156.382517 C51.1536749,158.996221 50.9514554,163.043749 50.5761777,168.597837 C50.5084426,169.600313 50.435299,170.648857 50.3542762,171.783059 C49.7556488,179.867558 49.558037,182.633874 49.558037,183.505555 C49.558037,184.60957 48.9724843,185.648073 48.0155999,186.422968 C48.1547697,187.32542 46.8753428,187.295772 46.7306677,186.231271 Z" id="Stroke-42" fill="#1C3C55" fill-rule="nonzero"></path>
                            <path d="M12.1370601,187.718015 C12.3704671,189.789079 14.7484773,194.145709 14.7484773,194.145709 C14.7484773,194.145709 9.69393355,199.855978 8.41960646,201.298988 C7.14527936,202.741997 9.99655283,202.708439 11.460945,202.280496 C12.9253372,201.852552 20.65772,198.648173 20.65772,196.403623 C20.65772,194.159073 22.9089784,188.179453 22.9089784,184.419937" id="Path-7" stroke="#1C3C55"></path>
                            <path d="M34.5148895,160.047952 C33.3037362,173.121506 33.4360442,181.448513 34.9118134,185.028972 C37.1254671,190.399661 37.0939252,197.804986 38.0810614,199.024111 C39.0681977,200.243235 44.9528595,202.258107 46.7565224,202.855434 C48.5601853,203.452761 50.2541228,203.535519 50.2541228,202.53352 C50.2541228,201.53152 44.3118506,197.298535 44.3118506,195.719004 C44.3118506,194.665983 45.3086251,191.508754 47.3021742,186.247317" id="Path-8" stroke="#1C3C55"></path>
                        </g>
                        <g id="adres-wallet" transform="translate(358.000000, 46.000000)">
                            <path d="M37,39.5 C31.2862364,39.5 25.7540069,38.8216144 20.7225043,37.532784 C19.5756678,37.2390194 14.0715729,39.9156329 4.76338031,45.4237296 L2.97460757,46.4822308 L4.08627227,44.7260035 C8.4978241,37.7565568 10.4065298,33.6322775 9.86501777,33.3303957 C3.27106853,29.6544048 -0.5,24.7597351 -0.5,19.5 C-0.5,8.36762691 16.3257536,-0.5 37,-0.5 C57.6742464,-0.5 74.5,8.36762691 74.5,19.5 C74.5,30.6323731 57.6742464,39.5 37,39.5 Z M6.017764,43.526063 C14.6729094,38.4710748 19.5049851,36.188628 20.9706451,36.56406 C25.9199452,37.831834 31.3688334,38.5 37,38.5 C57.1948251,38.5 73.5,29.9067321 73.5,19.5 C73.5,9.09326785 57.1948251,0.5 37,0.5 C16.8051749,0.5 0.5,9.09326785 0.5,19.5 C0.5,24.3402555 4.04427392,28.9405565 10.3519442,32.4569527 C11.7285682,33.2243922 10.2699493,36.6561405 6.017764,43.526063 Z" id="Oval-7" fill="#FF9500" fill-rule="nonzero"></path>
                            <path d="M12.318202,15.1292217 L12.318202,22.8825257 L11.4121681,22.8825257 L11.4121681,16.1395007 L9.41183358,17.4552129 L9,16.773862 L11.4710015,15.1292217 L12.318202,15.1292217 Z M25.4968764,15.1292217 L25.4968764,22.8825257 L24.5908425,22.8825257 L24.5908425,16.1395007 L22.590508,17.4552129 L22.1786744,16.773862 L24.6496759,15.1292217 L25.4968764,15.1292217 Z M18.5792344,15.1292217 L18.5792344,22.8825257 L17.6732006,22.8825257 L17.6732006,16.1395007 L15.6728661,17.4552129 L15.2610325,16.773862 L17.7320339,15.1292217 L18.5792344,15.1292217 Z M30.7918795,15 C31.4351275,15 31.9567782,15.1213889 32.3568471,15.3641703 C33.2040518,15.8653965 33.6276478,17.1184432 33.6276478,19.123348 C33.6276478,20.5408784 33.3923167,21.5413578 32.9216474,22.1248164 C32.4509781,22.7082751 31.7449848,23 30.8036462,23 C29.8623076,23 29.1543531,22.7121908 28.6797616,22.1365639 C28.20517,21.5609369 27.9678778,20.5350049 27.9678778,19.0587372 C27.9678778,17.5824694 28.2012479,16.5369585 28.6679949,15.9221733 C29.134742,15.307388 29.8426964,15 30.7918795,15 Z M30.8036462,15.8105727 C30.3565103,15.8105727 30.0035137,15.9045512 29.7446455,16.092511 C29.1876869,16.4762623 28.9092117,17.490447 28.9092117,19.1350954 C28.9092117,20.294181 29.0621769,21.0949562 29.368112,21.5374449 C29.674047,21.9799337 30.1525536,22.2011747 30.8036462,22.2011747 C31.4547387,22.2011747 31.9332453,21.9779758 32.2391803,21.5315712 C32.5451154,21.0851666 32.6980806,20.2569811 32.6980806,19.0469897 C32.6980806,17.8369984 32.5509987,16.9951076 32.2568304,16.5212922 C31.962662,16.0474768 31.4782722,15.8105727 30.8036462,15.8105727 Z M43.9705539,15 C44.613802,15 45.1354526,15.1213889 45.5355215,15.3641703 C46.3827262,15.8653965 46.8063222,17.1184432 46.8063222,19.123348 C46.8063222,20.5408784 46.5709911,21.5413578 46.1003218,22.1248164 C45.6296525,22.7082751 44.9236592,23 43.9823206,23 C43.040982,23 42.3330275,22.7121908 41.858436,22.1365639 C41.3838445,21.5609369 41.1465522,20.5350049 41.1465522,19.0587372 C41.1465522,17.5824694 41.3799223,16.5369585 41.8466693,15.9221733 C42.3134164,15.307388 43.0213708,15 43.9705539,15 Z M43.9823206,15.8105727 C43.5351848,15.8105727 43.1821881,15.9045512 42.92332,16.092511 C42.3663613,16.4762623 42.0878861,17.490447 42.0878861,19.1350954 C42.0878861,20.294181 42.2408514,21.0949562 42.5467864,21.5374449 C42.8527215,21.9799337 43.3312281,22.2011747 43.9823206,22.2011747 C44.6334131,22.2011747 45.1119197,21.9779758 45.4178548,21.5315712 C45.7237898,21.0851666 45.876755,20.2569811 45.876755,19.0469897 C45.876755,17.8369984 45.7296731,16.9951076 45.4355048,16.5212922 C45.1413365,16.0474768 44.6569466,15.8105727 43.9823206,15.8105727 Z M37.052912,15 C37.69616,15 38.2178107,15.1213889 38.6178796,15.3641703 C39.4650843,15.8653965 39.8886803,17.1184432 39.8886803,19.123348 C39.8886803,20.5408784 39.6533492,21.5413578 39.1826799,22.1248164 C38.7120106,22.7082751 38.0060172,23 37.0646787,23 C36.1233401,23 35.4153856,22.7121908 34.9407941,22.1365639 C34.4662025,21.5609369 34.2289103,20.5350049 34.2289103,19.0587372 C34.2289103,17.5824694 34.4622803,16.5369585 34.9290274,15.9221733 C35.3957745,15.307388 36.1037289,15 37.052912,15 Z M37.0646787,15.8105727 C36.6175428,15.8105727 36.2645461,15.9045512 36.005678,16.092511 C35.4487194,16.4762623 35.1702442,17.490447 35.1702442,19.1350954 C35.1702442,20.294181 35.3232094,21.0949562 35.6291445,21.5374449 C35.9350795,21.9799337 36.4135861,22.2011747 37.0646787,22.2011747 C37.7157712,22.2011747 38.1942778,21.9779758 38.5002128,21.5315712 C38.8061479,21.0851666 38.9591131,20.2569811 38.9591131,19.0469897 C38.9591131,17.8369984 38.8120312,16.9951076 38.5178628,16.5212922 C38.2236945,16.0474768 37.7393046,15.8105727 37.0646787,15.8105727 Z M51.8542252,15.1292217 L51.8542252,22.8825257 L50.9481914,22.8825257 L50.9481914,16.1395007 L48.9478568,17.4552129 L48.5360233,16.773862 L51.0070247,15.1292217 L51.8542252,15.1292217 Z M57.1492283,15 C57.7924764,15 58.314127,15.1213889 58.7141959,15.3641703 C59.5614007,15.8653965 59.9849967,17.1184432 59.9849967,19.123348 C59.9849967,20.5408784 59.7496655,21.5413578 59.2789963,22.1248164 C58.808327,22.7082751 58.1023336,23 57.160995,23 C56.2196564,23 55.511702,22.7121908 55.0371104,22.1365639 C54.5625189,21.5609369 54.3252267,20.5350049 54.3252267,19.0587372 C54.3252267,17.5824694 54.5585967,16.5369585 55.0253437,15.9221733 C55.4920908,15.307388 56.2000453,15 57.1492283,15 Z M57.160995,15.8105727 C56.7138592,15.8105727 56.3608625,15.9045512 56.1019944,16.092511 C55.5450357,16.4762623 55.2665606,17.490447 55.2665606,19.1350954 C55.2665606,20.294181 55.4195258,21.0949562 55.7254608,21.5374449 C56.0313959,21.9799337 56.5099025,22.2011747 57.160995,22.2011747 C57.8120875,22.2011747 58.2905941,21.9779758 58.5965292,21.5315712 C58.9024642,21.0851666 59.0554295,20.2569811 59.0554295,19.0469897 C59.0554295,17.8369984 58.9083475,16.9951076 58.6141792,16.5212922 C58.3200109,16.0474768 57.835621,15.8105727 57.160995,15.8105727 Z M65.0328996,15.1292217 L65.0328996,22.8825257 L64.1268658,22.8825257 L64.1268658,16.1395007 L62.1265313,17.4552129 L61.7146977,16.773862 L64.1856991,15.1292217 L65.0328996,15.1292217 Z" id="10101010100110111100-copy" fill="#1C3C55"></path>
                        </g>
                        <g id="thinking" transform="translate(142.000000, 113.000000)"></g>
                        <g id="Group" transform="translate(121.000000, 24.000000)">
                            <g id="Path">
                                <use stroke="#979797" fill="#FFFFFF" fill-rule="evenodd" xlink:href="#path-1"></use>
                                <use stroke="#1C3C55" xlink:href="#path-1"></use>
                            </g>
                            <g id="Group-5" transform="translate(31.500000, 21.000000) scale(-1, 1) translate(-31.500000, -21.000000) translate(10.000000, 8.000000)">
                                <g id="portfel-lewy-copy" transform="translate(0.000000, 5.000000)" fill="#1C3C55" fill-rule="nonzero">
                                    <path d="M2.22339697,0.917729034 L2.22339697,3.35287185 L1.65089638,3.35287185 L1.65089638,0.292161932 L1.79637546,0.290800664 L17.0658421,0.147922998 C18.2326076,0.13292557 19.1603485,0.246382003 19.6310034,0.582055518 C20.1016583,0.917729034 20.4456451,1.55602469 20.3774111,2.28460291 L19.8252387,2.28460291 C19.8252387,1.67115688 19.7480635,1.33755339 19.3294615,1.05629996 C18.9108595,0.775046537 18.1859954,0.716922078 17.0658421,0.731319463 L2.22339697,0.917729034 Z" id="Path-97"></path>
                                    <path d="M0.965910823,4.71644456 C0.965684109,3.30401954 2.0834068,2.18629685 3.46218761,2.18629685 L20.3979021,2.18629685 L20.3979021,13.579791 C20.3979021,14.9585718 19.2801794,16.0762945 17.9013986,16.0762945 L3.58209907,16.0762945 C2.21643928,16.0762945 1.10422665,14.978971 1.08582229,13.6134352 L0.965910823,4.71644456 Z M3.46218761,2.90192456 C2.2456163,2.90192456 1.72326721,3.71330731 1.72326721,4.71644456 C1.72326721,4.72634022 1.75514275,7.69200377 1.81889385,13.6134352 C1.83513299,14.8183197 2.52806654,15.3879105 3.73306048,15.3879105 L17.9013986,15.3879105 C18.9065389,15.3879105 19.6147543,14.5053456 19.6147543,13.579791 L19.6147543,2.90192456 L3.46218761,2.90192456 Z" id="Path-96"></path>
                                    <g id="Group-3" transform="translate(4.020381, 8.151018) rotate(180.000000) translate(-4.020381, -8.151018) translate(1.020381, 6.151018)">
                                        <path d="M0.293706294,0.469798844 L0.293706294,2.56211811 L4.40432733,2.56211811 C5.05316536,2.56211811 5.38633895,1.93831763 5.38633895,1.59063409 L5.38633895,1.46853147 C5.38633895,1.15531767 5.10200913,0.534431788 4.40432733,0.469798844 L0.293706294,0.469798844 Z M0,0 L4.40432733,0 C5.21537486,-1.48987015e-16 5.8728588,0.657483934 5.8728588,1.46853147 L5.8728588,1.59063409 C5.8728588,2.40168162 5.21537486,3.05916555 4.40432733,3.05916555 L0,3.05916555 L0,0 Z" id="Rectangle-9" transform="translate(2.936429, 1.529583) scale(-1, 1) translate(-2.936429, -1.529583) "></path>
                                        <path d="M1.57839542,2.44122731 C1.06244321,2.44122731 0.642344565,2.03412042 0.642344565,1.52958278 C0.642344565,1.02504513 1.06244321,0.617938242 1.57839542,0.617938242 C2.09434764,0.617938242 2.51444628,1.02504513 2.51444628,1.52958278 C2.51444628,2.03412042 2.09434764,2.44122731 1.57839542,2.44122731 Z M1.57839542,2.14752102 C1.93416693,2.14752102 2.22073999,1.86981037 2.22073999,1.52958278 C2.22073999,1.18935518 1.93416693,0.911644535 1.57839542,0.911644535 C1.22262392,0.911644535 0.936050858,1.18935518 0.936050858,1.52958278 C0.936050858,1.86981037 1.22262392,2.14752102 1.57839542,2.14752102 Z" id="Oval"></path>
                                    </g>
                                </g>
                                <g id="Group-4" transform="translate(34.000000, 0.000000)" stroke="#FF9500" stroke-width="0.7">
                                    <path d="M0.418118746,7.59052148 C-0.314332326,8.32385863 0.0980105001,11.3821461 0.293330786,12.0883227 C0.553757834,13.0389449 1.24822996,14.3209269 1.35131567,14.5056192 C1.48152919,14.8043862 1.56291264,15.1140174 1.59546603,15.4345129 L2.57206745,25.0222171 C2.62632309,25.5817262 3.09292155,26 3.65718015,26 L5.3445304,26 C5.90336344,26 6.3699619,25.5762941 6.4296431,25.0222171 L7.40624453,15.4345129 C7.43879791,15.1140174 7.52018136,14.7989541 7.65039489,14.5056192 C7.75348059,14.3154947 8.44795272,13.0389449 8.70837977,12.0883227 C8.89827449,11.3821461 9.31604288,8.32385863 8.58359181,7.59052148 C8.38284596,7.38953278 8.26890913,7.28089024 8.03018433,7.10163004 C7.17837086,6.47150331 6.15293936,6.05866165 6.10953485,6.03693315 C5.89793788,5.95001911 5.65921308,6.02063676 5.52899956,6.20532908 L4.49271693,7.61224999 L3.47271099,6.20532908 C3.34249747,6.02063676 3.09834711,5.95545124 2.8921757,6.03693315 C2.84877119,6.05322953 1.82876526,6.47150331 0.971526223,7.10163004 C0.732801429,7.28089024 0.613439032,7.38953278 0.418118746,7.59052148 Z" id="Path"></path>
                                    <path d="M3.95927895,5 C3.96832807,5 3.98190175,5 3.99095088,5 C3.99547544,5 4.00904912,5 4.01357368,5 C4.02262281,5 4.03167193,5 4.04072105,5 C4.60176668,4.99075786 5.05422283,4.78743068 5.39356495,4.39463956 C6.10844567,3.5767098 5.99985619,2.19963031 5.98628251,2.03327172 C5.91388952,0.53142329 4.89586318,0 4.04072105,0 C4.02714737,0 4.01357368,0 4,0 C3.99095088,0 3.97737719,0 3.95927895,0 C3.10866138,0 2.08611048,0.53142329 2.01371749,2.03327172 C2.00014381,2.19963031 1.89155433,3.57208872 2.60643505,4.39001848 C2.94577717,4.78280961 3.40275788,4.98613678 3.95927895,5 Z" id="Shape" fill-rule="nonzero"></path>
                                </g>
                                <path d="M24.5696085,12.8402383 L24.5696085,12 L31.006434,12 L31.006434,12.8402383 L24.5696085,12.8402383 Z M24.5696085,15.526 L24.5696085,14.6857617 L31.006434,14.6857617 L31.006434,15.526 L24.5696085,15.526 Z" id="=" fill="#1C3C55"></path>
                            </g>
                            <g id="Path">
                                <use stroke="#979797" xlink:href="#path-2"></use>
                                <use stroke="#1C3C55" xlink:href="#path-2"></use>
                            </g>
                            <g id="Path">
                                <use stroke="#979797" xlink:href="#path-3"></use>
                                <use stroke="#1C3C55" xlink:href="#path-3"></use>
                            </g>
                        </g>
                        <g id="Group-Copy" transform="translate(59.500000, 51.000000) scale(-1, 1) translate(-59.500000, -51.000000) translate(27.000000, 24.000000)">
                            <g id="Path" transform="translate(32.534852, 20.993233) rotate(-180.000000) translate(-32.534852, -20.993233) ">
                                <use stroke="#979797" fill="#FFFFFF" fill-rule="evenodd" xlink:href="#path-4"></use>
                                <use stroke="#1C3C55" xlink:href="#path-4"></use>
                            </g>
                            <g id="Path" transform="translate(32.534852, 20.993233) rotate(-180.000000) translate(-32.534852, -20.993233) ">
                                <use stroke="#979797" fill="#FFFFFF" fill-rule="evenodd" xlink:href="#path-5"></use>
                                <use stroke="#1C3C55" xlink:href="#path-5"></use>
                            </g>
                            <g id="Group-9">
                                <g id="Path" transform="translate(32.534852, 20.993233) rotate(-180.000000) translate(-32.534852, -20.993233) ">
                                    <use stroke="#979797" fill="#FFFFFF" fill-rule="evenodd" xlink:href="#path-6"></use>
                                    <use stroke="#1C3C55" xlink:href="#path-6"></use>
                                </g>
                                <g id="Group-5" transform="translate(9.000000, 7.000000)">
                                    <g id="portfel-lewy-copy" transform="translate(0.000000, 5.000000)" fill="#1C3C55" fill-rule="nonzero">
                                        <path d="M2.22339697,0.917729034 L2.22339697,3.35287185 L1.65089638,3.35287185 L1.65089638,0.292161932 L1.79637546,0.290800664 L17.0658421,0.147922998 C18.2326076,0.13292557 19.1603485,0.246382003 19.6310034,0.582055518 C20.1016583,0.917729034 20.4456451,1.55602469 20.3774111,2.28460291 L19.8252387,2.28460291 C19.8252387,1.67115688 19.7480635,1.33755339 19.3294615,1.05629996 C18.9108595,0.775046537 18.1859954,0.716922078 17.0658421,0.731319463 L2.22339697,0.917729034 Z" id="Path-97"></path>
                                        <path d="M0.965910823,4.71644456 C0.965684109,3.30401954 2.0834068,2.18629685 3.46218761,2.18629685 L20.3979021,2.18629685 L20.3979021,13.579791 C20.3979021,14.9585718 19.2801794,16.0762945 17.9013986,16.0762945 L3.58209907,16.0762945 C2.21643928,16.0762945 1.10422665,14.978971 1.08582229,13.6134352 L0.965910823,4.71644456 Z M3.46218761,2.90192456 C2.2456163,2.90192456 1.72326721,3.71330731 1.72326721,4.71644456 C1.72326721,4.72634022 1.75514275,7.69200377 1.81889385,13.6134352 C1.83513299,14.8183197 2.52806654,15.3879105 3.73306048,15.3879105 L17.9013986,15.3879105 C18.9065389,15.3879105 19.6147543,14.5053456 19.6147543,13.579791 L19.6147543,2.90192456 L3.46218761,2.90192456 Z" id="Path-96"></path>
                                        <g id="Group-3" transform="translate(4.020381, 8.151018) rotate(180.000000) translate(-4.020381, -8.151018) translate(1.020381, 6.151018)">
                                            <path d="M0.293706294,0.469798844 L0.293706294,2.56211811 L4.40432733,2.56211811 C5.05316536,2.56211811 5.38633895,1.93831763 5.38633895,1.59063409 L5.38633895,1.46853147 C5.38633895,1.15531767 5.10200913,0.534431788 4.40432733,0.469798844 L0.293706294,0.469798844 Z M0,0 L4.40432733,0 C5.21537486,-1.48987015e-16 5.8728588,0.657483934 5.8728588,1.46853147 L5.8728588,1.59063409 C5.8728588,2.40168162 5.21537486,3.05916555 4.40432733,3.05916555 L0,3.05916555 L0,0 Z" id="Rectangle-9" transform="translate(2.936429, 1.529583) scale(-1, 1) translate(-2.936429, -1.529583) "></path>
                                            <path d="M1.57839542,2.44122731 C1.06244321,2.44122731 0.642344565,2.03412042 0.642344565,1.52958278 C0.642344565,1.02504513 1.06244321,0.617938242 1.57839542,0.617938242 C2.09434764,0.617938242 2.51444628,1.02504513 2.51444628,1.52958278 C2.51444628,2.03412042 2.09434764,2.44122731 1.57839542,2.44122731 Z M1.57839542,2.14752102 C1.93416693,2.14752102 2.22073999,1.86981037 2.22073999,1.52958278 C2.22073999,1.18935518 1.93416693,0.911644535 1.57839542,0.911644535 C1.22262392,0.911644535 0.936050858,1.18935518 0.936050858,1.52958278 C0.936050858,1.86981037 1.22262392,2.14752102 1.57839542,2.14752102 Z" id="Oval"></path>
                                        </g>
                                    </g>
                                    <g id="Group-4" transform="translate(34.000000, 0.000000)" stroke="#FF9500" stroke-width="0.7">
                                        <path d="M0.418118746,7.59052148 C-0.314332326,8.32385863 0.0980105001,11.3821461 0.293330786,12.0883227 C0.553757834,13.0389449 1.24822996,14.3209269 1.35131567,14.5056192 C1.48152919,14.8043862 1.56291264,15.1140174 1.59546603,15.4345129 L2.57206745,25.0222171 C2.62632309,25.5817262 3.09292155,26 3.65718015,26 L5.3445304,26 C5.90336344,26 6.3699619,25.5762941 6.4296431,25.0222171 L7.40624453,15.4345129 C7.43879791,15.1140174 7.52018136,14.7989541 7.65039489,14.5056192 C7.75348059,14.3154947 8.44795272,13.0389449 8.70837977,12.0883227 C8.89827449,11.3821461 9.31604288,8.32385863 8.58359181,7.59052148 C8.38284596,7.38953278 8.26890913,7.28089024 8.03018433,7.10163004 C7.17837086,6.47150331 6.15293936,6.05866165 6.10953485,6.03693315 C5.89793788,5.95001911 5.65921308,6.02063676 5.52899956,6.20532908 L4.49271693,7.61224999 L3.47271099,6.20532908 C3.34249747,6.02063676 3.09834711,5.95545124 2.8921757,6.03693315 C2.84877119,6.05322953 1.82876526,6.47150331 0.971526223,7.10163004 C0.732801429,7.28089024 0.613439032,7.38953278 0.418118746,7.59052148 Z" id="Path"></path>
                                        <path d="M3.95927895,5 C3.96832807,5 3.98190175,5 3.99095088,5 C3.99547544,5 4.00904912,5 4.01357368,5 C4.02262281,5 4.03167193,5 4.04072105,5 C4.60176668,4.99075786 5.05422283,4.78743068 5.39356495,4.39463956 C6.10844567,3.5767098 5.99985619,2.19963031 5.98628251,2.03327172 C5.91388952,0.53142329 4.89586318,0 4.04072105,0 C4.02714737,0 4.01357368,0 4,0 C3.99095088,0 3.97737719,0 3.95927895,0 C3.10866138,0 2.08611048,0.53142329 2.01371749,2.03327172 C2.00014381,2.19963031 1.89155433,3.57208872 2.60643505,4.39001848 C2.94577717,4.78280961 3.40275788,4.98613678 3.95927895,5 Z" id="Shape" fill-rule="nonzero"></path>
                                    </g>
                                    <path d="M24.5696085,12.8402383 L24.5696085,12 L31.006434,12 L31.006434,12.8402383 L24.5696085,12.8402383 Z M24.5696085,15.526 L24.5696085,14.6857617 L31.006434,14.6857617 L31.006434,15.526 L24.5696085,15.526 Z" id="=" fill="#1C3C55"></path>
                                </g>
                                <g id="Path">
                                    <use stroke="#979797" xlink:href="#path-7"></use>
                                    <use stroke="#1C3C55" xlink:href="#path-7"></use>
                                </g>
                                <g id="Path">
                                    <use stroke="#979797" xlink:href="#path-8"></use>
                                    <use stroke="#1C3C55" xlink:href="#path-8"></use>
                                </g>
                            </g>
                        </g>
                        <g id="Group-Copy-2" transform="translate(188.000000, 27.000000)">
                            <g id="Path" transform="translate(31.251940, 19.993233) rotate(-180.000000) translate(-31.251940, -19.993233) ">
                                <use stroke="#979797" fill="#FFFFFF" fill-rule="evenodd" xlink:href="#path-9"></use>
                                <use stroke="#1C3C55" xlink:href="#path-9"></use>
                            </g>
                            <g id="Group-5" transform="translate(32.500000, 20.000000) scale(-1, 1) translate(-32.500000, -20.000000) translate(11.000000, 7.000000)">
                                <g id="portfel-lewy-copy" transform="translate(0.000000, 5.000000)" fill="#1C3C55" fill-rule="nonzero">
                                    <path d="M2.22339697,0.917729034 L2.22339697,3.35287185 L1.65089638,3.35287185 L1.65089638,0.292161932 L1.79637546,0.290800664 L17.0658421,0.147922998 C18.2326076,0.13292557 19.1603485,0.246382003 19.6310034,0.582055518 C20.1016583,0.917729034 20.4456451,1.55602469 20.3774111,2.28460291 L19.8252387,2.28460291 C19.8252387,1.67115688 19.7480635,1.33755339 19.3294615,1.05629996 C18.9108595,0.775046537 18.1859954,0.716922078 17.0658421,0.731319463 L2.22339697,0.917729034 Z" id="Path-97"></path>
                                    <path d="M0.965910823,4.71644456 C0.965684109,3.30401954 2.0834068,2.18629685 3.46218761,2.18629685 L20.3979021,2.18629685 L20.3979021,13.579791 C20.3979021,14.9585718 19.2801794,16.0762945 17.9013986,16.0762945 L3.58209907,16.0762945 C2.21643928,16.0762945 1.10422665,14.978971 1.08582229,13.6134352 L0.965910823,4.71644456 Z M3.46218761,2.90192456 C2.2456163,2.90192456 1.72326721,3.71330731 1.72326721,4.71644456 C1.72326721,4.72634022 1.75514275,7.69200377 1.81889385,13.6134352 C1.83513299,14.8183197 2.52806654,15.3879105 3.73306048,15.3879105 L17.9013986,15.3879105 C18.9065389,15.3879105 19.6147543,14.5053456 19.6147543,13.579791 L19.6147543,2.90192456 L3.46218761,2.90192456 Z" id="Path-96"></path>
                                    <g id="Group-3" transform="translate(4.020381, 8.151018) rotate(180.000000) translate(-4.020381, -8.151018) translate(1.020381, 6.151018)">
                                        <path d="M0.293706294,0.469798844 L0.293706294,2.56211811 L4.40432733,2.56211811 C5.05316536,2.56211811 5.38633895,1.93831763 5.38633895,1.59063409 L5.38633895,1.46853147 C5.38633895,1.15531767 5.10200913,0.534431788 4.40432733,0.469798844 L0.293706294,0.469798844 Z M0,0 L4.40432733,0 C5.21537486,-1.48987015e-16 5.8728588,0.657483934 5.8728588,1.46853147 L5.8728588,1.59063409 C5.8728588,2.40168162 5.21537486,3.05916555 4.40432733,3.05916555 L0,3.05916555 L0,0 Z" id="Rectangle-9" transform="translate(2.936429, 1.529583) scale(-1, 1) translate(-2.936429, -1.529583) "></path>
                                        <path d="M1.57839542,2.44122731 C1.06244321,2.44122731 0.642344565,2.03412042 0.642344565,1.52958278 C0.642344565,1.02504513 1.06244321,0.617938242 1.57839542,0.617938242 C2.09434764,0.617938242 2.51444628,1.02504513 2.51444628,1.52958278 C2.51444628,2.03412042 2.09434764,2.44122731 1.57839542,2.44122731 Z M1.57839542,2.14752102 C1.93416693,2.14752102 2.22073999,1.86981037 2.22073999,1.52958278 C2.22073999,1.18935518 1.93416693,0.911644535 1.57839542,0.911644535 C1.22262392,0.911644535 0.936050858,1.18935518 0.936050858,1.52958278 C0.936050858,1.86981037 1.22262392,2.14752102 1.57839542,2.14752102 Z" id="Oval"></path>
                                    </g>
                                </g>
                                <g id="Group-4" transform="translate(34.000000, 0.000000)" stroke="#FF9500" stroke-width="0.7">
                                    <path d="M0.418118746,7.59052148 C-0.314332326,8.32385863 0.0980105001,11.3821461 0.293330786,12.0883227 C0.553757834,13.0389449 1.24822996,14.3209269 1.35131567,14.5056192 C1.48152919,14.8043862 1.56291264,15.1140174 1.59546603,15.4345129 L2.57206745,25.0222171 C2.62632309,25.5817262 3.09292155,26 3.65718015,26 L5.3445304,26 C5.90336344,26 6.3699619,25.5762941 6.4296431,25.0222171 L7.40624453,15.4345129 C7.43879791,15.1140174 7.52018136,14.7989541 7.65039489,14.5056192 C7.75348059,14.3154947 8.44795272,13.0389449 8.70837977,12.0883227 C8.89827449,11.3821461 9.31604288,8.32385863 8.58359181,7.59052148 C8.38284596,7.38953278 8.26890913,7.28089024 8.03018433,7.10163004 C7.17837086,6.47150331 6.15293936,6.05866165 6.10953485,6.03693315 C5.89793788,5.95001911 5.65921308,6.02063676 5.52899956,6.20532908 L4.49271693,7.61224999 L3.47271099,6.20532908 C3.34249747,6.02063676 3.09834711,5.95545124 2.8921757,6.03693315 C2.84877119,6.05322953 1.82876526,6.47150331 0.971526223,7.10163004 C0.732801429,7.28089024 0.613439032,7.38953278 0.418118746,7.59052148 Z" id="Path"></path>
                                    <path d="M3.95927895,5 C3.96832807,5 3.98190175,5 3.99095088,5 C3.99547544,5 4.00904912,5 4.01357368,5 C4.02262281,5 4.03167193,5 4.04072105,5 C4.60176668,4.99075786 5.05422283,4.78743068 5.39356495,4.39463956 C6.10844567,3.5767098 5.99985619,2.19963031 5.98628251,2.03327172 C5.91388952,0.53142329 4.89586318,0 4.04072105,0 C4.02714737,0 4.01357368,0 4,0 C3.99095088,0 3.97737719,0 3.95927895,0 C3.10866138,0 2.08611048,0.53142329 2.01371749,2.03327172 C2.00014381,2.19963031 1.89155433,3.57208872 2.60643505,4.39001848 C2.94577717,4.78280961 3.40275788,4.98613678 3.95927895,5 Z" id="Shape" fill-rule="nonzero"></path>
                                </g>
                                <path d="M24.5696085,12.8402383 L24.5696085,12 L31.006434,12 L31.006434,12.8402383 L24.5696085,12.8402383 Z M24.5696085,15.526 L24.5696085,14.6857617 L31.006434,14.6857617 L31.006434,15.526 L24.5696085,15.526 Z" id="=" fill="#1C3C55"></path>
                            </g>
                            <g id="Path">
                                <use stroke="#979797" xlink:href="#path-10"></use>
                                <use stroke="#1C3C55" xlink:href="#path-10"></use>
                            </g>
                            <g id="Path">
                                <use stroke="#979797" xlink:href="#path-11"></use>
                                <use stroke="#1C3C55" xlink:href="#path-11"></use>
                            </g>
                        </g>
                        <g id="Group-3" transform="translate(138.500000, 178.500000) scale(-1, 1) translate(-138.500000, -178.500000) translate(98.000000, 78.000000)">
                            <path d="M45.5245745,18.5390455 C45.5245745,19.3817318 48.9077893,24.43785 44.6787708,29.4939681 C40.4497523,34.5500863 38.4773381,32.1450594 32.837519,42.1342635 C25.2252857,55.6172453 19.3046599,67.4148543 12.5382303,74.9990315 C5.77180068,82.5832087 2.38858588,85.9539542 3.23438958,90.167386 C4.08019328,94.3808178 4.92599698,94.3808178 5.77180068,92.695445 C6.61760437,91.0100723 5.77180068,88.4820132 8.30921177,86.7966405 C10.8466229,85.1112678 19.3046599,77.5270906 19.3046599,77.5270906 C19.3046599,77.5270906 31.1459116,66.5721679 33.6833227,63.2014225 C36.2207338,59.830677 35.3749301,64.8867952 34.5291264,67.4148543 C33.6833227,69.9429134 26.0710894,100.279622 26.9168931,115.447977 C27.7626968,130.616331 27.7626968,135.672449 26.9168931,146.627372 C26.0710894,157.582295 26.0710894,183.705572 22.6878746,190.447063 C19.3046599,197.188554 15.0756414,198.873926 15.9214451,199.716613 C16.7672488,200.559299 28.6085005,196.345867 28.6085005,193.817808 C28.6085005,191.289749 26.9168931,191.289749 28.6085005,187.919004 C30.3001079,184.548258 40.4497523,158.424981 40.4497523,149.998117 C40.4497523,141.571254 45.5245745,116.290663 45.5245745,116.290663 C45.5245745,116.290663 48.9077893,106.178427 49.753593,105.33574 C50.5993967,104.493054 52.2910041,134.829763 54.8284152,145.784686 C56.5200226,158.424981 53.9826115,157.582295 57.3658263,172.750649 C60.7490411,187.919004 60.7490411,190.447063 59.9032374,192.975122 C59.0574337,195.503181 59.0574337,196.345867 62.4406485,198.03124 C65.8238633,199.716613 70.8986855,201.401985 70.0528818,198.873926 C69.2070781,196.345867 64.9780596,193.817808 64.9780596,191.289749 C64.9780596,188.76169 67.5154707,158.424981 68.3612744,152.526177 C69.2070781,146.627372 70.8986855,134.829763 70.8986855,127.245586 L70.8986855,104.493054 C70.8986855,100.279622 64.1322559,71.6282861 63.2864522,66.5721679 C62.4406485,61.5160498 62.4406485,58.9879907 63.2864522,60.6733634 C64.1322559,62.3587361 66.669667,77.5270906 69.2070781,84.2685815 C71.7444892,91.0100723 75.127704,98.5942496 75.127704,102.807681 C75.127704,107.021113 73.4360966,107.021113 73.4360966,109.549172 C73.4360966,112.077231 75.9735077,110.391859 77.6651151,107.863799 C79.3567225,105.33574 80.2025262,103.650368 79.3567225,98.5942496 C78.5109188,93.5381314 75.127704,73.3136588 73.4360966,67.4148543 C71.7444892,61.5160498 66.669667,42.1342635 64.1322559,38.7635181 C61.5948448,35.3927726 55.6742189,32.8647136 53.9826115,30.3366545 C52.2910041,27.8085954 52.2910041,18.5390455 52.2910041,18.5390455 L45.5245745,18.5390455 Z" id="Fill-1" fill="#FFFFFF"></path>
                            <path d="M45.5245745,18.5390455 C45.5245745,19.3817318 48.9077893,24.43785 44.6787708,29.4939681 C40.4497523,34.5500863 38.4773381,32.1450594 32.837519,42.1342635 C25.2252857,55.6172453 19.3046599,67.4148543 12.5382303,74.9990315 C5.77180068,82.5832087 2.38858588,85.9539542 3.23438958,90.167386 C4.08019328,94.3808178 4.92599698,94.3808178 5.77180068,92.695445 C6.61760437,91.0100723 5.77180068,88.4820132 8.30921177,86.7966405 C10.8466229,85.1112678 19.3046599,77.5270906 19.3046599,77.5270906 C19.3046599,77.5270906 31.1459116,66.5721679 33.6833227,63.2014225 C36.2207338,59.830677 35.3749301,64.8867952 34.5291264,67.4148543 C33.6833227,69.9429134 26.0710894,100.279622 26.9168931,115.447977 C27.7626968,130.616331 27.7626968,135.672449 26.9168931,146.627372 C26.0710894,157.582295 26.0710894,183.705572 22.6878746,190.447063 C19.3046599,197.188554 15.0756414,198.873926 15.9214451,199.716613 C16.7672488,200.559299 28.6085005,196.345867 28.6085005,193.817808 C28.6085005,191.289749 26.9168931,191.289749 28.6085005,187.919004 C30.3001079,184.548258 40.4497523,158.424981 40.4497523,149.998117 C40.4497523,141.571254 45.5245745,116.290663 45.5245745,116.290663 C45.5245745,116.290663 48.9077893,106.178427 49.753593,105.33574 C50.5993967,104.493054 52.2910041,134.829763 54.8284152,145.784686 C56.5200226,158.424981 53.9826115,157.582295 57.3658263,172.750649 C60.7490411,187.919004 60.7490411,190.447063 59.9032374,192.975122 C59.0574337,195.503181 59.0574337,196.345867 62.4406485,198.03124 C65.8238633,199.716613 70.8986855,201.401985 70.0528818,198.873926 C69.2070781,196.345867 64.9780596,193.817808 64.9780596,191.289749 C64.9780596,188.76169 67.5154707,158.424981 68.3612744,152.526177 C69.2070781,146.627372 70.8986855,134.829763 70.8986855,127.245586 L70.8986855,104.493054 C70.8986855,100.279622 64.1322559,71.6282861 63.2864522,66.5721679 C62.4406485,61.5160498 62.4406485,58.9879907 63.2864522,60.6733634 C64.1322559,62.3587361 66.669667,77.5270906 69.2070781,84.2685815 C71.7444892,91.0100723 75.127704,98.5942496 75.127704,102.807681 C75.127704,107.021113 73.4360966,107.021113 73.4360966,109.549172 C73.4360966,112.077231 75.9735077,110.391859 77.6651151,107.863799 C79.3567225,105.33574 80.2025262,103.650368 79.3567225,98.5942496 C78.5109188,93.5381314 75.127704,73.3136588 73.4360966,67.4148543 C71.7444892,61.5160498 66.669667,42.1342635 64.1322559,38.7635181 C61.5948448,35.3927726 55.6742189,32.8647136 53.9826115,30.3366545 C52.2910041,27.8085954 52.2910041,18.5390455 52.2910041,18.5390455 L45.5245745,18.5390455 Z" id="Fill-1" stroke="#1C3C55"></path>
                            <path d="M45.3650925,20.5588992 C45.3650925,20.5588992 46.2262542,22.2268433 49.6709008,22.2268433 C53.1155474,22.2268433 55.6990323,18.8909552 55.6990323,14.7210951 C55.6990323,10.551235 55.6990323,4.71343082 50.5320624,3.8794588 C45.3650925,3.04548678 42.7816076,8.0493189 42.7816076,13.053151 C42.7816076,18.0569832 45.3650925,20.5588992 45.3650925,20.5588992" id="Fill-3" fill="#FFFFFF"></path>
                            <path d="M45.3650925,20.5588992 C45.3650925,20.5588992 46.2262542,22.2268433 49.6709008,22.2268433 C53.1155474,22.2268433 55.6990323,18.8909552 55.6990323,14.7210951 C55.6990323,10.551235 55.6990323,4.71343082 50.5320624,3.8794588 C45.3650925,3.04548678 42.7816076,8.0493189 42.7816076,13.053151 C42.7816076,18.0569832 45.3650925,20.5588992 45.3650925,20.5588992" id="Fill-3" stroke="#1C3C55"></path>
                            <path d="M42.1892929,31.4463377 C42.1892929,31.4463377 43.8671594,39.8282086 48.9007589,40.6663957 C53.9343584,41.5045828 55.6533326,31.9710428 56.4712925,32.1277838 C57.2900913,32.2845248 58.978025,33.8703748 58.978025,33.8703748 C58.978025,33.8703748 58.5023499,49.2385351 58.9679578,51.5628279 C59.8068911,55.7537633 63.162624,59.9446988 63.162624,59.9446988 C63.162624,59.9446988 62.6777206,61.8390016 63.7591056,68.8546275 C64.8404905,75.8702535 73.229823,101.015866 73.229823,111.074111 C73.229823,114.42686 56.4511581,116.941421 45.5450259,116.103234 C36.997974,115.446095 27.4198731,111.700237 23.676553,110.111034 C22.7495318,109.717086 22.2738566,108.691984 22.570839,107.730583 C24.3023972,102.129817 29.8712361,84.026652 31.2831607,78.3848147 C31.2831607,78.3848147 35.1984622,64.694705 34.9182585,61.4810957 C34.6388937,58.2683246 38.8335599,56.5919504 39.6724932,49.0482666 C40.5114264,41.5045828 38.8335599,33.1227119 38.8335599,33.1227119 L42.1892929,31.4463377 Z" id="Fill-5" stroke="#FF9500" fill="#FFFFFF"></path>
                            <path d="M63.8840363,17.884536 C63.1852041,11.419906 59.2685711,8.94059035 58.4778972,8.92951056 C57.6880582,8.91757848 59.3395397,0.335856664 53.43996,0.114260907 C51.4027431,0.0375546838 50.2914579,0.280457725 49.6928167,0.627340313 C49.5041237,0.657170511 49.3162656,0.687853 49.1100391,0.722796947 C40.3942575,2.20748852 39.4674908,11.8758818 40.2230979,14.3074691 C40.9787049,16.7390564 42.5709068,15.9558006 42.5709068,15.9558006 C42.5709068,15.9558006 41.0471688,11.899746 44.2315726,10.3323822 C46.8423829,9.04797906 49.4874252,5.05584628 50.3632615,3.21404463 C51.6857826,4.41321859 53.7680855,6.65474489 53.7371932,8.85962267 C53.6912724,12.0863978 54.6981919,18.0328347 54.5612642,17.0816775 C54.4243365,16.1305204 56.8639872,11.3261539 56.8639872,11.3261539 C56.8639872,11.3261539 57.6880582,8.91757848 56.8063774,15.3591967 C55.9246966,21.8008149 55.8562328,26.6409776 58.9830268,29.1075088 C62.1089858,31.57404 64.5828685,24.3491661 63.8840363,17.884536" id="Fill-7" fill="#FFFFFF"></path>
                            <path d="M63.8840363,17.884536 C63.1852041,11.419906 59.2685711,8.94059035 58.4778972,8.92951056 C57.6880582,8.91757848 59.3395397,0.335856664 53.43996,0.114260907 C51.4027431,0.0375546838 50.2914579,0.280457725 49.6928167,0.627340313 C49.5041237,0.657170511 49.3162656,0.687853 49.1100391,0.722796947 C40.3942575,2.20748852 39.4674908,11.8758818 40.2230979,14.3074691 C40.9787049,16.7390564 42.5709068,15.9558006 42.5709068,15.9558006 C42.5709068,15.9558006 41.0471688,11.899746 44.2315726,10.3323822 C46.8423829,9.04797906 49.4874252,5.05584628 50.3632615,3.21404463 C51.6857826,4.41321859 53.7680855,6.65474489 53.7371932,8.85962267 C53.6912724,12.0863978 54.6981919,18.0328347 54.5612642,17.0816775 C54.4243365,16.1305204 56.8639872,11.3261539 56.8639872,11.3261539 C56.8639872,11.3261539 57.6880582,8.91757848 56.8063774,15.3591967 C55.9246966,21.8008149 55.8562328,26.6409776 58.9830268,29.1075088 C62.1089858,31.57404 64.5828685,24.3491661 63.8840363,17.884536" id="Fill-7" stroke="#1C3C55"></path>
                        </g>
                        <g id="Group-6" transform="translate(154.000000, 75.000000)" fill="#FFFFFF">
                            <path d="M30.7445676,18 C30.7445676,18.8722691 34.2452919,24.1058836 29.8693865,29.3394981 C25.4934811,34.5731125 30.4150281,27.9615259 23.659107,34.4386023 C20.8849748,37.0982347 17.9158774,44.0566006 14.751815,55.3136999 C10.2608288,85.9220514 8.01533578,102.254663 8.01533578,104.311534 C8.01533578,106.133919 9.43714182,108.746028 10.6218209,107.843715 C11.4428094,107.218408 12.1630524,103.709396 12.1630524,102.017565 C12.1630524,87.5294398 21.1205762,61.4269626 20.7604025,62.5038884 C19.8852214,65.1206957 15.4105457,86.3167212 16.2857268,102.017565 C17.1609079,117.718408 12.3657649,139.245402 11.4905839,150.5849 C10.6154028,161.924398 10.6154028,188.96474 7.11467847,195.942893 C3.61395415,202.921045 -0.761951244,204.665583 0.113229835,205.537853 C0.988410915,206.410122 13.240946,202.048776 13.240946,199.431969 C13.240946,196.815162 11.4905839,196.815162 13.240946,193.326085 C14.9913082,189.837009 25.4934811,162.796668 25.4934811,154.073977 C25.4934811,145.351286 30.7445676,119.183213 30.7445676,119.183213 C30.7445676,119.183213 34.2452919,108.715984 35.120473,107.843715 C35.9956541,106.971446 37.7460163,138.373133 40.3715595,149.712631 C42.1219216,162.796668 39.4963784,161.924398 42.9971027,177.625242 C46.497827,193.326085 46.497827,195.942893 45.622646,198.5597 C44.7474649,201.176507 44.7474649,202.048776 48.2481892,203.793314 C51.7489135,205.537853 57,207.282391 56.1248189,204.665583 C55.2496378,202.048776 50.8737324,199.431969 50.8737324,196.815162 C50.8737324,194.198354 53.4992757,162.796668 54.3744568,156.690784 C55.2496378,150.5849 54.3744568,138.926235 54.3744568,131.075813 L50.6094389,108.123448 C50.6094389,103.762103 49.9985514,72.9529521 49.1233703,67.7193376 C48.2481892,62.4857232 48.2481892,57.9452431 49.1233703,59.6897813 C49.9985514,61.4343194 47.1087146,79.8936885 49.7342578,86.8718412 C52.359801,93.8499938 55.1752476,102.685932 55.1752476,107.047277 C55.1752476,111.408623 51.4021295,108.02965 51.868133,109.901743 C52.3341364,111.773835 53.4248855,114.616807 55.1752476,112 C56.9256098,109.383193 55.2496378,93.8128693 54.3744568,88.5792548 C53.7910027,85.0901784 54.6661838,78.7394724 57,69.5271366 C54.0827297,51.4580684 51.7489135,41.2605088 49.9985514,38.934458 C47.3730081,35.4453816 41.2467406,32.8285744 39.4963784,30.2117671 C37.7460163,27.5949599 37.7460163,18 37.7460163,18 L30.7445676,18 Z" id="Fill-1-Copy" stroke="#1C3C55"></path>
                            <path d="M28.3398154,30 C28.3398154,30 30.0709165,38.7126578 35.2642198,39.5839236 C40.4575231,40.4551894 42.2310362,30.5454124 43.074948,30.7083391 C43.9197254,30.8712658 45.6612131,32.5197006 45.6612131,32.5197006 C45.6612131,32.5197006 45.1704459,48.4943587 45.6508265,50.9103787 C46.516377,55.2667076 49.9785793,59.6230365 49.9785793,59.6230365 C49.9785793,59.6230365 49.478291,61.5920972 50.5939857,68.8845917 C50.9983394,71.5275617 54.2722752,81.6003596 55.9927029,93.6561618 C59.0192872,114.864784 61,142.558508 61,149.224494 C61,152.709557 43.3715711,154.620319 32.1194139,153.749053 C23.3011848,153.065981 10.829834,154.566335 10.4433481,153.749053 C9.10597639,150.920984 11.0813863,126.59877 12.5695313,106.317179 C13.5104277,93.4939144 16.5233927,81.0625113 17.0876582,78.7908836 C17.0876582,78.7908836 21.1271826,64.5604997 20.8380887,61.2200667 C20.5498604,57.8805049 24.8776132,56.1379734 25.7431637,48.2965814 C26.6087143,40.4551894 24.8776132,31.7425316 24.8776132,31.7425316 L28.3398154,30 Z" id="Fill-5" stroke="#FF9500"></path>
                            <path d="M32.0986965,21.5409598 C32.0986965,21.5409598 33.0659184,23.2022594 36.4880659,22.9794336 C39.9110709,22.7566078 42.2562409,19.1552614 41.9775644,14.8622087 C41.6997453,10.5700163 41.3113131,4.56060285 36.1219278,4.03580082 C30.9325425,3.51185912 28.6988431,8.83042661 29.0323975,13.9812295 C29.3650943,19.1328928 32.0986965,21.5409598 32.0986965,21.5409598" id="Fill-19" stroke="#1C3C55"></path>
                            <path d="M35.9807884,0.164879994 C36.7607957,0.974157764 36.7607957,2.5927133 37.5408029,2.5927133 C38.3208101,2.5927133 40.6608317,0.164879994 40.6608317,1.78343553 C40.6608317,3.40199107 39.8808245,3.40199107 41.440839,4.21038342 C43,5.01966119 43,5.82893896 43,6.63821673 C43,7.44660907 40.6608317,6.63821673 39.8808245,7.44660907 C39.0999639,8.25677226 41.2932008,9.01912255 38.7330021,9.01912255 C36.073809,9.01912255 38.5862174,9.53798116 36.1728033,10.7899711 C34.4660042,11.6753953 34.4216274,9.06516461 33.6416202,9.06516461 C32.8624664,9.06516461 35.3194038,11.6753953 33.6126046,11.6753953 C31.8691092,11.6753953 32.759205,11.6753953 31.9058054,10.7899711 C30.672643,9.51141843 32.5356143,12.9109038 31.3024519,14.1894564 C30.4490523,15.0748806 31.9149856,16.1824999 32.6941394,16.9917777 C33.4741466,17.8010555 34.3926118,21.1785428 33.6126046,21.9869351 C32.8325974,22.7962129 31.7756742,23.5510621 32.6941394,28.5663172 C33.6126046,33.5815724 27.9789434,36.1029625 25.8173386,36.1029625 C23.6557338,36.1029625 22.7631549,41.4794717 21.4018842,37.5836403 C20.4943703,34.9864193 21.1238318,31.0943064 23.2902684,25.9073014 C23.2902684,25.9073014 22.7249392,15.8080119 22.7249392,14.1894564 C22.7249392,12.5709008 22.7249392,9.55675531 25.8173386,6.63821673 C28.9097381,3.71967814 30.5224447,3.40199107 31.3024519,3.40199107 C32.0824591,3.40199107 31.3024519,1.78343553 33.6416202,1.78343553 C33.6416202,1.78343553 35.2016346,-0.643512351 35.9807884,0.164879994 Z" id="Fill-23" stroke="#1C3C55"></path>
                        </g>
                        <g id="Group-2" transform="translate(299.000000, 75.000000)">
                            <path d="M44.8650683,18 C44.8650683,18.8722691 48.4434659,24.1058836 43.9704689,29.3394981 C39.4974719,34.5731125 37.4112661,32.0836566 31.4460772,42.4235343 C23.3946826,56.3798396 17.1324868,68.5916067 9.97569162,76.4420285 C2.81889641,84.2924502 -0.759501198,87.7815265 0.135098203,92.1428719 C1.0296976,96.5042173 1.92429701,96.5042173 2.81889641,94.7596792 C3.71349581,93.015141 2.81889641,90.3983338 5.50269461,88.6537956 C8.18649282,86.9092574 17.1324868,79.0588357 17.1324868,79.0588357 C17.1324868,79.0588357 29.6568784,67.7193376 32.3406767,64.2302613 C35.0244749,60.741185 34.1298755,65.9747995 33.2352761,68.5916067 C32.3406767,71.208414 24.289282,102.610101 25.1838814,118.310944 C26.0784808,134.011788 26.0784808,139.245402 25.1838814,150.5849 C24.289282,161.924398 24.289282,188.96474 20.7108844,195.942893 C17.1324868,202.921045 12.6594898,204.665583 13.5540892,205.537853 C14.4486886,206.410122 26.9730802,202.048776 26.9730802,199.431969 C26.9730802,196.815162 25.1838814,196.815162 26.9730802,193.326085 C28.762279,189.837009 39.4974719,162.796668 39.4974719,154.073977 C39.4974719,145.351286 44.8650683,119.183213 44.8650683,119.183213 C44.8650683,119.183213 48.4434659,108.715984 49.3380653,107.843715 C50.2326647,106.971446 52.0218635,138.373133 54.7056617,149.712631 C56.4948605,162.796668 53.8110623,161.924398 57.3894599,177.625242 C60.9678575,193.326085 60.9678575,195.942893 60.0732581,198.5597 C59.1786587,201.176507 59.1786587,202.048776 62.7570563,203.793314 C66.3354539,205.537853 71.7030503,207.282391 70.8084509,204.665583 C69.9138515,202.048776 65.4408545,199.431969 65.4408545,196.815162 C65.4408545,194.198354 68.1246527,162.796668 69.0192521,156.690784 C69.9138515,150.5849 71.7030503,138.373133 71.7030503,130.522712 L71.7030503,106.971446 C71.7030503,102.610101 64.5462551,72.9529521 63.6516557,67.7193376 C62.7570563,62.4857232 63.6516557,57.4132244 64.5462551,59.1577625 C65.4408545,60.9023007 69.0192521,78.0300028 71.7030503,85.0081555 C74.3868485,91.9863081 76.1760473,100.865563 76.1760473,105.226908 C76.1760473,109.588254 74.3868485,109.588254 74.3868485,112.205061 C74.3868485,114.821868 77.0706467,113.07733 78.8598455,110.460523 C80.6490443,107.843715 81.5436437,106.099177 80.6490443,100.865563 C79.7544449,95.6319483 76.1760473,74.6974903 74.3868485,68.5916067 C72.5976497,62.4857232 67.2300533,42.4235343 64.5462551,38.934458 C61.8624569,35.4453816 55.6002611,32.8285744 53.8110623,30.2117671 C52.0218635,27.5949599 52.0218635,18 52.0218635,18 L44.8650683,18 Z" id="Fill-1" fill="#FFFFFF"></path>
                            <path d="M44.8650683,18 C44.8650683,18.8722691 48.4434659,24.1058836 43.9704689,29.3394981 C39.4974719,34.5731125 37.4112661,32.0836566 31.4460772,42.4235343 C23.3946826,56.3798396 17.1324868,68.5916067 9.97569162,76.4420285 C2.81889641,84.2924502 -0.759501198,87.7815265 0.135098203,92.1428719 C1.0296976,96.5042173 1.92429701,96.5042173 2.81889641,94.7596792 C3.71349581,93.015141 2.81889641,90.3983338 5.50269461,88.6537956 C8.18649282,86.9092574 17.1324868,79.0588357 17.1324868,79.0588357 C17.1324868,79.0588357 29.6568784,67.7193376 32.3406767,64.2302613 C35.0244749,60.741185 34.1298755,65.9747995 33.2352761,68.5916067 C32.3406767,71.208414 24.289282,102.610101 25.1838814,118.310944 C26.0784808,134.011788 26.0784808,139.245402 25.1838814,150.5849 C24.289282,161.924398 24.289282,188.96474 20.7108844,195.942893 C17.1324868,202.921045 12.6594898,204.665583 13.5540892,205.537853 C14.4486886,206.410122 26.9730802,202.048776 26.9730802,199.431969 C26.9730802,196.815162 25.1838814,196.815162 26.9730802,193.326085 C28.762279,189.837009 39.4974719,162.796668 39.4974719,154.073977 C39.4974719,145.351286 44.8650683,119.183213 44.8650683,119.183213 C44.8650683,119.183213 48.4434659,108.715984 49.3380653,107.843715 C50.2326647,106.971446 52.0218635,138.373133 54.7056617,149.712631 C56.4948605,162.796668 53.8110623,161.924398 57.3894599,177.625242 C60.9678575,193.326085 60.9678575,195.942893 60.0732581,198.5597 C59.1786587,201.176507 59.1786587,202.048776 62.7570563,203.793314 C66.3354539,205.537853 71.7030503,207.282391 70.8084509,204.665583 C69.9138515,202.048776 65.4408545,199.431969 65.4408545,196.815162 C65.4408545,194.198354 68.1246527,162.796668 69.0192521,156.690784 C69.9138515,150.5849 71.7030503,138.373133 71.7030503,130.522712 L71.7030503,106.971446 C71.7030503,102.610101 64.5462551,72.9529521 63.6516557,67.7193376 C62.7570563,62.4857232 62.7570563,59.8689159 63.6516557,61.6134541 C64.5462551,63.3579922 67.2300533,79.0588357 69.9138515,86.0369884 C72.5976497,93.015141 76.1760473,100.865563 76.1760473,105.226908 C76.1760473,109.588254 74.3868485,109.588254 74.3868485,112.205061 C74.3868485,114.821868 77.0706467,113.07733 78.8598455,110.460523 C80.6490443,107.843715 81.5436437,106.099177 80.6490443,100.865563 C79.7544449,95.6319483 76.1760473,74.6974903 74.3868485,68.5916067 C72.5976497,62.4857232 67.2300533,42.4235343 64.5462551,38.934458 C61.8624569,35.4453816 55.6002611,32.8285744 53.8110623,30.2117671 C52.0218635,27.5949599 52.0218635,18 52.0218635,18 L44.8650683,18 Z" id="Fill-1" stroke="#1C3C55"></path>
                            <path d="M31.9839354,62.0631091 C31.9839354,63.2875472 28.8227422,71.729135 27.2605305,80.0468387 C26.024878,86.6258391 25.9772925,92.3106064 25.9772925,92.3106064 C25.175849,97.3365396 34.4153796,97.7372006 45.7154606,97.7372006 C58.6020912,97.7372006 66.8036156,101.727122 69.1198985,95.5226175 C71.4361814,89.3181125 61.4366435,66.2381967 61.9104047,64.4275971 C62.7690293,61.1400742 65.7207455,67.9455189 68.2984347,68.7678338 C70.8761238,69.5892804 77.784982,63.2261641 75.5679506,57.3483756 C73.3509191,51.4705871 68.1772787,41.5523145 59.2696383,33.1114686 C50.3619979,24.6706227 54.1509655,44.2835589 48.282853,43.9696512 C44.370778,43.7603794 40.4974861,39.7378797 36.6629773,31.9021521 C33.848031,30.8865214 30.7138821,33.0155324 27.2605305,38.2891851 C22.0805032,46.1996641 20,52.9632822 20,57.3483756 C23.4809867,65.2643984 31.9839354,59.8701849 31.9839354,62.0631091 Z" id="Fill-38" stroke="#FF9500" fill="#FFFFFF" transform="translate(48.000000, 65.000000) scale(-1, 1) translate(-48.000000, -65.000000) "></path>
                            <path d="M44.8,22.2813083 C44.8,22.2813083 45.7333333,24 49.4666667,24 C53.2,24 56,20.5626167 56,16.2658875 C56,11.9691583 56,5.95373741 50.4,5.09439158 C44.8,4.23504574 42,9.39112076 42,14.5471958 C42,19.7032708 44.8,22.2813083 44.8,22.2813083" id="Fill-3" stroke="#1C3C55" fill="#FFFFFF"></path>
                            <path d="M48.8225944,5.3917524 C48.3145118,5.29771357 50.7891977,7.87855689 48.3051222,7.87855689 C45.82209,7.87855689 42.0975417,7.87855689 40.8549823,11.6098085 C39.6134662,15.3400152 41.8982732,15.7370681 40.6567571,15.7370681 C39.415241,15.7370681 40.534692,18.8633366 40.534692,18.8633366 L40.9561815,23 C40.9561815,23 38.2697076,19.3627872 37.130434,13.2502636 C35.7209481,5.69058689 46.1538565,-3.71329564 48.2404382,1.51108354 C49.4663049,4.578839 56.3885396,4.89543638 57.6300557,9.87009023 C58.8726151,14.8447441 56.5867648,20.3188486 56.5867648,20.3188486 C56.5867648,20.3188486 56.0943316,17.3827475 55.543474,16.1393453 C55.543474,16.1393453 54.5001832,15.2929958 54.5001832,14.0495936 C54.5001832,12.8061913 55.5476472,6.63515464 48.8225944,5.3917524" id="Fill-56" stroke="#1C3C55" fill="#FFFFFF"></path>
                        </g>
                    </g>
                </g>
            </g>
        </g>
    </g>
</svg>