<?xml version="1.0" encoding="UTF-8"?>
<svg width="29px" height="33px" viewBox="0 0 29 33" version="1.1" xmlns="http://www.w3.org/2000/svg" xmlns:xlink="http://www.w3.org/1999/xlink">
    <!-- Generator: Sketch 49 (51002) - http://www.bohemiancoding.com/sketch -->
    <title>icon/reference</title>
    <desc>Created with Sketch.</desc>
    <defs></defs>
    <g id="Developer-Documentation" stroke="none" stroke-width="1" fill="none" fill-rule="evenodd">
        <g id="22.01.18-Bitcoin.org_Developer-Documentation-Desktop-1200px--" transform="translate(-638.000000, -1884.000000)">
            <g id="//contenct" transform="translate(215.000000, 513.000000)">
                <g id="see-also" transform="translate(0.000000, 1259.000000)">
                    <g id="Reference" transform="translate(300.000000, 59.000000)">
                        <g id="icon/reference" transform="translate(106.000000, 40.000000)">
                            <g>
                                <rect id="Rectangle-2" x="0" y="0" width="60" height="60"></rect>
                                <g id="Group" transform="translate(17.000000, 13.000000)" fill-rule="nonzero">
                                    <path d="M11.4999854,15 L14.5000146,15 C14.7759939,15 15,14.7759873 15,14.5 C15,14.2240127 14.7759939,14 14.5000146,14 L11.4999854,14 C11.2240061,14 11,14.2240127 11,14.5 C11,14.7759873 11.2240061,15 11.4999854,15 Z" id="Shape" fill="#95AABF"></path>
                                    <path d="M28.442265,4.40002148 L11.7115209,4.40002148 C11.4037013,4.40002148 11.1538512,4.64642578 11.1538512,4.95 C11.1538512,5.25357422 11.4037013,5.49997852 11.7115209,5.49997852 L27.8845953,5.49997852 L27.8845953,30.2499785 C27.8845953,31.1288613 27.1026944,31.8999785 26.2115209,31.8999785 L2.78847913,31.8999785 C1.89730559,31.8999785 1.11540472,31.1288613 1.11540472,30.2499785 L1.11540472,4.99563281 C1.4740047,5.23430273 1.87051026,5.37455273 2.23080945,5.4439043 L2.23080945,30.2499785 C2.23080945,30.5535527 2.48065958,30.799957 2.78847913,30.799957 C3.09629868,30.799957 3.34614882,30.5535527 3.34614882,30.2499785 L3.34614882,4.95 C3.34614882,4.64861719 3.09688687,4.40330859 2.79122402,4.40002148 C2.51124548,4.39673437 1.11533937,4.30269727 1.11533937,2.75002148 L1.11533937,2.20004297 C1.11533937,1.59341016 1.61556248,1.10002148 2.23074409,1.10002148 L28.442265,1.10002148 C28.7500845,1.10002148 28.9999346,0.853617187 28.9999346,0.550042969 C28.9999346,0.24646875 28.7501499,0 28.442265,0 L2.23080945,0 C1.00051157,0 0,0.986712891 0,2.19997852 L0,30.2499785 C0,31.7405215 1.27715704,33 2.78847913,33 L26.2115209,33 C27.722843,33 29,31.7405215 29,30.2499785 L29,4.95 C29,4.64642578 28.7501499,4.40002148 28.442265,4.40002148 Z" id="Shape" fill="#1C1F30"></path>
                                    <path d="M28,2.57140944 C28,2.25600589 27.746778,2 27.4348042,2 L9.34781025,2 C9.03583648,2 8.78261446,2.25600589 8.78261446,2.57140944 L8.78261446,8.04918554 L7.48656546,6.73882109 C7.26553436,6.51536002 6.90832108,6.51536002 6.68735622,6.73882109 L5.39130723,8.04911858 L5.39130723,2.57140944 C5.39130723,2.25600589 5.13808521,2 4.82611144,2 L2.56519579,2 C2.25322202,2 2,2.25600589 2,2.57140944 C2,2.88681298 2.25322202,3.14281888 2.56519579,3.14281888 L4.26084941,3.14281888 L4.26084941,9.42859056 C4.26084941,9.65948471 4.39875374,9.86801266 4.60958442,9.9566069 C4.82094499,10.0445985 5.0634367,9.99604909 5.22564982,9.83258835 L7.08689461,7.95088142 L8.94813939,9.83258835 C9.05610484,9.94174075 9.20076529,10 9.34774401,10 C9.42067036,10 9.49412661,9.98573653 9.56420479,9.95653994 C9.77503547,9.86794569 9.9129398,9.65941774 9.9129398,9.4285236 L9.9129398,3.14281888 L27.4346717,3.14281888 C27.746778,3.14281888 28,2.88681298 28,2.57140944 Z" id="Shape" fill="#FF9500"></path>
                                    <path d="M8,11.5555375 L8,20.4444625 C8,20.7511052 8.24267208,21 8.54164815,21 L20.4583518,21 C20.7573279,21 21,20.7511052 21,20.4444625 L21,11.5555375 C21,11.2488948 20.7573279,11 20.4583518,11 L8.54164815,11 C8.24267208,11 8,11.2488948 8,11.5555375 Z M9.08335978,12.1110749 L19.9167672,12.1110749 L19.9167672,19.8889251 L9.08335978,19.8889251 L9.08335978,12.1110749 Z" id="Shape" fill="#95AABF"></path>
                                    <path d="M17.4166838,16 L11.5833162,16 C11.2613404,16 11,16.2240127 11,16.5 C11,16.7759873 11.2613404,17 11.5833162,17 L17.4166838,17 C17.7386596,17 18,16.7759873 18,16.5 C18,16.2240127 17.7386596,16 17.4166838,16 Z" id="Shape" fill="#95AABF"></path>
                                </g>
                            </g>
                        </g>
                    </g>
                </g>
            </g>
        </g>
    </g>
</svg>