<?xml version="1.0" encoding="UTF-8"?>
<svg width="378px" height="311px" viewBox="0 0 378 311" version="1.1" xmlns="http://www.w3.org/2000/svg" xmlns:xlink="http://www.w3.org/1999/xlink">
    <!-- Generator: Sketch 49 (51002) - http://www.bohemiancoding.com/sketch -->
    <title>government taxes and regulation</title>
    <desc>Created with Sketch.</desc>
    <defs>
        <rect id="path-1" x="0" y="43" width="108" height="108" rx="3"></rect>
        <rect id="path-2" x="8" y="52" width="90" height="17"></rect>
        <rect id="path-3" x="13" y="85" width="10" height="10"></rect>
        <rect id="path-4" x="31" y="85" width="10" height="10"></rect>
        <rect id="path-5" x="49" y="85" width="10" height="10"></rect>
        <rect id="path-6" x="49" y="117" width="10" height="10"></rect>
        <rect id="path-7" x="67" y="85" width="10" height="10"></rect>
        <rect id="path-8" x="85" y="85" width="10" height="10"></rect>
        <rect id="path-9" x="85" y="101" width="10" height="10"></rect>
        <rect id="path-10" x="67" y="101" width="10" height="10"></rect>
        <rect id="path-11" x="67" y="117" width="10" height="10"></rect>
        <rect id="path-12" x="85" y="117" width="10" height="26"></rect>
        <rect id="path-13" x="67" y="133" width="10" height="10"></rect>
        <rect id="path-14" x="13" y="101" width="10" height="10"></rect>
        <rect id="path-15" x="31" y="101" width="10" height="10"></rect>
        <rect id="path-16" x="49" y="101" width="10" height="10"></rect>
        <rect id="path-17" x="49" y="133" width="10" height="10"></rect>
        <rect id="path-18" x="31" y="117" width="10" height="10"></rect>
        <rect id="path-19" x="31" y="133" width="10" height="10"></rect>
        <rect id="path-20" x="13" y="117" width="10" height="10"></rect>
        <rect id="path-21" x="13" y="133" width="10" height="10"></rect>
        <path d="M2,0 L83,-8.8817842e-16 C84.1045695,6.7573538e-15 85,0.8954305 85,2 L85,97.9247978 L72.7860899,111 L2,111 C0.8954305,111 -2.62380273e-16,110.104569 -8.8817842e-16,109 L0,2 C-1.3527075e-16,0.8954305 0.8954305,2.02906125e-16 2,0 Z" id="path-22"></path>
    </defs>
    <g id="Things-you-need-to-know" stroke="none" stroke-width="1" fill="none" fill-rule="evenodd">
        <g id="22.01.18-Bitcoin.org_things-you-need-to-know-Desktop-1200px--" transform="translate(-253.000000, -3808.000000)">
            <g id="//body" transform="translate(215.000000, 717.000000)">
                <g id="3" transform="translate(24.000000, 3060.000000)">
                    <g id="3th-illustration">
                        <g id="government-taxes-and-regulation">
                            <g id="siatka" transform="translate(187.500000, 171.500000) scale(-1, 1) rotate(-336.000000) translate(-187.500000, -171.500000) translate(14.000000, 6.000000)">
                                <g id="Group-8" opacity="0.200000003" transform="translate(12.000000, 1.000000)" stroke="#979797">
                                    <path d="" id="Path-2"></path>
                                    <polyline id="Path-5" points="327.306554 250.729508 300.262156 78.2663934 0 153.762295 49.3968024 165.377174 189.310782 1.3852459"></polyline>
                                    <polyline id="Path-6" points="156.718816 176.618852 209.420719 327.610656 299.56871 78.2663934"></polyline>
                                    <path d="M76.9725159,278.434426 L208.727273,327.610656 L76.9725159,278.434426 Z" id="Path-8"></path>
                                    <polyline id="Path-9" points="155.331924 176.618852 98.4693446 56.795082 191.391121 0.692622951"></polyline>
                                    <polygon id="Path-10" points="78.359408 279.127049 0 272.893443 0 154.454918"></polygon>
                                    <polyline id="Path-11" points="299.56871 78.2663934 188.270613 0 326.613108 252.114754 210.114165 328.303279 0 154.454918 98.4693446 56.102459 325.919662 252.114754"></polyline>
                                    <polyline id="Path-13" points="328 252.114754 236.465116 252.114754 162.959831 175.233607"></polyline>
                                    <path d="M76.9725159,279.127049 L239.238901,252.114754" id="Path-14"></path>
                                </g>
                                <g id="dots" transform="translate(101.000000, 49.000000)">
                                    <circle id="Oval-2" fill="#C4C4C4" cx="8.5" cy="8.5" r="2.38"></circle>
                                    <circle id="Oval-2" stroke="#CACACA" cx="8.5" cy="8.5" r="8.5"></circle>
                                </g>
                                <g id="dots" transform="translate(330.000000, 243.000000)">
                                    <circle id="Oval-2" fill="#C4C4C4" cx="8.5" cy="8.5" r="2.38"></circle>
                                    <circle id="Oval-2" stroke="#CACACA" cx="8.5" cy="8.5" r="8.5"></circle>
                                </g>
                                <g id="dots" transform="translate(275.000000, 147.000000)">
                                    <circle id="Oval-2" fill="#C4C4C4" cx="8.5" cy="8.5" r="2.38"></circle>
                                    <circle id="Oval-2" stroke="#CACACA" cx="8.5" cy="8.5" r="8.5"></circle>
                                </g>
                                <g id="dots" transform="translate(80.000000, 271.000000)">
                                    <circle id="Oval-2" fill="#C4C4C4" cx="8.5" cy="8.5" r="2.38"></circle>
                                    <circle id="Oval-2" stroke="#CACACA" cx="8.5" cy="8.5" r="8.5"></circle>
                                </g>
                                <circle id="Oval-2" fill="#7B7B7B" cx="220.5" cy="328.5" r="2.5"></circle>
                                <circle id="Oval-2-Copy" fill="#7B7B7B" cx="62.5" cy="163.5" r="2.5"></circle>
                                <circle id="Oval-2" fill="#7B7B7B" cx="200.5" cy="2.5" r="2.5"></circle>
                                <g id="Group-7" transform="translate(0.000000, 143.000000)">
                                    <circle id="Oval-2" fill="#FF7E00" cx="12.5" cy="12.5" r="3.92857143"></circle>
                                    <circle id="Oval-2" stroke="#FF7E00" cx="12.5" cy="12.5" r="12.5"></circle>
                                </g>
                                <g id="Group-7" transform="translate(0.000000, 261.000000)">
                                    <circle id="Oval-2" fill="#FF7E00" cx="12.5" cy="12.5" r="3.92857143"></circle>
                                    <circle id="Oval-2" stroke="#FF7E00" cx="12.5" cy="12.5" r="12.5"></circle>
                                </g>
                                <g id="Group-7" transform="translate(298.000000, 68.000000)">
                                    <circle id="Oval-2" fill="#FF7E00" cx="12.5" cy="12.5" r="3.92857143"></circle>
                                    <circle id="Oval-2" stroke="#FF7E00" cx="12.5" cy="12.5" r="12.5"></circle>
                                </g>
                            </g>
                            <g id="kalkulator" transform="translate(146.000000, 106.000000)">
                                <g id="Rectangle-8">
                                    <use fill="#FFFFFF" fill-rule="evenodd" xlink:href="#path-1"></use>
                                    <rect stroke="#1C3C55" stroke-width="1" x="0.5" y="43.5" width="107" height="107" rx="3"></rect>
                                </g>
                                <path d="M114.70177,1.99528602 C102.74362,0.985337684 94.4798849,3.8288588 89.9105641,10.5258494 C85.3412432,17.2228399 83.9905399,28.1218491 85.8584541,43.222877 L17.0544617,43.222877 C12.531425,14.875482 20.2822039,0.701784444 40.3067983,0.701784444 C70.3436899,0.701784444 106.075912,0.212063682 114.70177,1.99528602 C123.327628,3.77850836 130.481332,10.2706632 130.481332,26.6136899 C130.481332,35.9829364 130.481332,92.1232552 130.481332,102.80754 C130.481332,113.491825 129.98788,121.666481 131.998921,128.375966 C134.009962,135.085451 137.307153,138.584354 142.38951,141.947416 C147.471866,145.310478 157.730542,146.95961 167.903725,140.382979 C174.685847,135.998559 177.552951,125.277494 176.505038,108.219783 L130.481332,108.219783" id="Path-105" stroke="#1C3C55" fill="#FFFFFF" stroke-linecap="round" stroke-linejoin="round"></path>
                                <path d="M107.510054,144.747244 L150.395048,144.747244" id="Path-106" stroke="#1C3C55" stroke-linecap="round" stroke-linejoin="round"></path>
                                <g id="Rectangle">
                                    <use fill="#FFFFFF" fill-rule="evenodd" xlink:href="#path-2"></use>
                                    <rect stroke="#FF9500" stroke-width="1" x="8.5" y="52.5" width="89" height="16"></rect>
                                </g>
                                <g id="Rectangle-3">
                                    <use fill="#FFFFFF" fill-rule="evenodd" xlink:href="#path-3"></use>
                                    <rect stroke="#1C3C55" stroke-width="1" x="13.5" y="85.5" width="9" height="9"></rect>
                                </g>
                                <g id="Rectangle-3-Copy">
                                    <use fill="#FFFFFF" fill-rule="evenodd" xlink:href="#path-4"></use>
                                    <rect stroke="#1C3C55" stroke-width="1" x="31.5" y="85.5" width="9" height="9"></rect>
                                </g>
                                <g id="Rectangle-3-Copy-2">
                                    <use fill="#FFFFFF" fill-rule="evenodd" xlink:href="#path-5"></use>
                                    <rect stroke="#1C3C55" stroke-width="1" x="49.5" y="85.5" width="9" height="9"></rect>
                                </g>
                                <g id="Rectangle-3-Copy-11">
                                    <use fill="#FFFFFF" fill-rule="evenodd" xlink:href="#path-6"></use>
                                    <rect stroke="#1C3C55" stroke-width="1" x="49.5" y="117.5" width="9" height="9"></rect>
                                </g>
                                <g id="Rectangle-3-Copy-3">
                                    <use fill="#FFFFFF" fill-rule="evenodd" xlink:href="#path-7"></use>
                                    <rect stroke="#1C3C55" stroke-width="1" x="67.5" y="85.5" width="9" height="9"></rect>
                                </g>
                                <g id="Rectangle-3-Copy-14">
                                    <use fill="#FFFFFF" fill-rule="evenodd" xlink:href="#path-8"></use>
                                    <rect stroke="#1C3C55" stroke-width="1" x="85.5" y="85.5" width="9" height="9"></rect>
                                </g>
                                <g id="Rectangle-3-Copy-15">
                                    <use fill="#FFFFFF" fill-rule="evenodd" xlink:href="#path-9"></use>
                                    <rect stroke="#1C3C55" stroke-width="1" x="85.5" y="101.5" width="9" height="9"></rect>
                                </g>
                                <g id="Rectangle-3-Copy-13">
                                    <use fill="#FFFFFF" fill-rule="evenodd" xlink:href="#path-10"></use>
                                    <rect stroke="#1C3C55" stroke-width="1" x="67.5" y="101.5" width="9" height="9"></rect>
                                </g>
                                <g id="Rectangle-3-Copy-16">
                                    <use fill="#FFFFFF" fill-rule="evenodd" xlink:href="#path-11"></use>
                                    <rect stroke="#1C3C55" stroke-width="1" x="67.5" y="117.5" width="9" height="9"></rect>
                                </g>
                                <g id="Rectangle-3-Copy-18">
                                    <use fill="#FFFFFF" fill-rule="evenodd" xlink:href="#path-12"></use>
                                    <rect stroke="#1C3C55" stroke-width="1" x="85.5" y="117.5" width="9" height="25"></rect>
                                </g>
                                <g id="Rectangle-3-Copy-17">
                                    <use fill="#FFFFFF" fill-rule="evenodd" xlink:href="#path-13"></use>
                                    <rect stroke="#1C3C55" stroke-width="1" x="67.5" y="133.5" width="9" height="9"></rect>
                                </g>
                                <g id="Rectangle-3-Copy-4">
                                    <use fill="#FFFFFF" fill-rule="evenodd" xlink:href="#path-14"></use>
                                    <rect stroke="#1C3C55" stroke-width="1" x="13.5" y="101.5" width="9" height="9"></rect>
                                </g>
                                <g id="Rectangle-3-Copy-7">
                                    <use fill="#FFFFFF" fill-rule="evenodd" xlink:href="#path-15"></use>
                                    <rect stroke="#1C3C55" stroke-width="1" x="31.5" y="101.5" width="9" height="9"></rect>
                                </g>
                                <g id="Rectangle-3-Copy-10">
                                    <use fill="#FFFFFF" fill-rule="evenodd" xlink:href="#path-16"></use>
                                    <rect stroke="#1C3C55" stroke-width="1" x="49.5" y="101.5" width="9" height="9"></rect>
                                </g>
                                <g id="Rectangle-3-Copy-12">
                                    <use fill="#FFFFFF" fill-rule="evenodd" xlink:href="#path-17"></use>
                                    <rect stroke="#1C3C55" stroke-width="1" x="49.5" y="133.5" width="9" height="9"></rect>
                                </g>
                                <g id="Rectangle-3-Copy-8">
                                    <use fill="#FFFFFF" fill-rule="evenodd" xlink:href="#path-18"></use>
                                    <rect stroke="#1C3C55" stroke-width="1" x="31.5" y="117.5" width="9" height="9"></rect>
                                </g>
                                <g id="Rectangle-3-Copy-9">
                                    <use fill="#FFFFFF" fill-rule="evenodd" xlink:href="#path-19"></use>
                                    <rect stroke="#1C3C55" stroke-width="1" x="31.5" y="133.5" width="9" height="9"></rect>
                                </g>
                                <g id="Rectangle-3-Copy-5">
                                    <use fill="#FFFFFF" fill-rule="evenodd" xlink:href="#path-20"></use>
                                    <rect stroke="#1C3C55" stroke-width="1" x="13.5" y="117.5" width="9" height="9"></rect>
                                </g>
                                <g id="Rectangle-3-Copy-6">
                                    <use fill="#FFFFFF" fill-rule="evenodd" xlink:href="#path-21"></use>
                                    <rect stroke="#1C3C55" stroke-width="1" x="13.5" y="133.5" width="9" height="9"></rect>
                                </g>
                                <path d="M16.2393065,27.9497819 L48.3525754,27.9497819" id="Path-108" stroke="#1C3C55" stroke-linecap="round" stroke-linejoin="round"></path>
                                <path d="M28.2778816,18.7787029 L61.7011875,18.7787029" id="Path-109" stroke="#1C3C55" stroke-linecap="round" stroke-linejoin="round"></path>
                                <path d="M39.4312553,7.37744012 L22.5625241,7.37744012" id="Path-110" stroke="#1C3C55" stroke-linecap="round" stroke-linejoin="round"></path>
                                <path d="M85.1794768,27.6675319 L63.1778866,27.6675319" id="Path-111" stroke="#1C3C55" stroke-linecap="round" stroke-linejoin="round"></path>
                                <path d="M85.2694696,37.3671137 L50.1984783,37.3671137" id="Path-112" stroke="#1C3C55" stroke-linecap="round" stroke-linejoin="round"></path>
                                <path d="M91.337435,8.15874078 L69.2114912,8.15874078" id="Path-113" stroke="#1C3C55" stroke-linecap="round" stroke-linejoin="round"></path>
                                <path d="M176.864253,117.683795 L146.949278,117.683795" id="Path-114" stroke="#1C3C55" stroke-linecap="round" stroke-linejoin="round"></path>
                                <path d="M174.383174,130.418216 L156.70875,130.418216" id="Path-115" stroke="#1C3C55" stroke-linecap="round" stroke-linejoin="round"></path>
                                <path d="M35.668,56.08 L35.668,64 L34.744,64 L34.744,57.112 L32.704,58.456 L32.284,57.76 L34.804,56.08 L35.668,56.08 Z M43.612,64 L38.548,64 L38.548,63.22 L40.864,60.784 C41.264002,60.3679979 41.5559991,60.0520011 41.74,59.836 C41.9240009,59.6199989 42.0899993,59.3640015 42.238,59.068 C42.3860007,58.7719985 42.46,58.4760015 42.46,58.18 C42.46,57.6679974 42.3200014,57.308001 42.04,57.1 C41.7599986,56.891999 41.324003,56.788 40.732,56.788 C40.2119974,56.788 39.6320032,56.8559993 38.992,56.992 L38.68,57.052 L38.608,56.284 C39.3680038,56.0679989 40.151996,55.96 40.96,55.96 C41.768004,55.96 42.3779979,56.1299983 42.79,56.47 C43.2020021,56.8100017 43.408,57.3479963 43.408,58.084 C43.408,58.6440028 43.2840012,59.1319979 43.036,59.548 C42.7879988,59.9640021 42.360003,60.4639971 41.752,61.048 L39.64,63.196 L43.612,63.196 L43.612,64 Z M45.304,56.284 C46.0560038,56.0599989 46.8619957,55.948 47.722,55.948 C48.5820043,55.948 49.2039981,56.1119984 49.588,56.44 C49.9720019,56.7680016 50.164,57.2919964 50.164,58.012 C50.164,58.3800018 50.1140005,58.6459992 50.014,58.81 C49.9139995,58.9740008 49.8340003,59.0999996 49.774,59.188 C49.7139997,59.2760004 49.6360005,59.3599996 49.54,59.44 C49.3639991,59.5760007 49.2240005,59.6719997 49.12,59.728 L48.988,59.812 C49.4520023,59.9800008 49.7959989,60.1939987 50.02,60.454 C50.2440011,60.7140013 50.356,61.139997 50.356,61.732 C50.356,62.540004 50.1500021,63.139998 49.738,63.532 C49.3259979,63.924002 48.6760044,64.12 47.788,64.12 C47.0839965,64.12 46.3400039,64.0400008 45.556,63.88 L45.184,63.796 L45.268,63.04 C46.1320043,63.2160009 46.9399962,63.304 47.692,63.304 C48.8360057,63.296 49.408,62.7840051 49.408,61.768 C49.408,60.8159952 48.8640054,60.3200002 47.776,60.28 L46.18,60.28 L46.18,59.488 L47.776,59.488 C48.1120017,59.488 48.4359984,59.3540013 48.748,59.086 C49.0600016,58.8179987 49.216,58.4640022 49.216,58.024 C49.216,57.5839978 49.0920012,57.266001 48.844,57.07 C48.5959988,56.873999 48.1800029,56.776 47.596,56.776 C46.9559968,56.776 46.3240031,56.8359994 45.7,56.956 L45.388,57.016 L45.304,56.284 Z M55.48,64 L55.48,62.452 L51.64,62.452 L51.64,61.732 L53.896,56.08 L54.904,56.08 L52.612,61.636 L55.48,61.636 L55.48,59.164 L56.404,59.164 L56.404,61.636 L57.412,61.636 L57.412,62.452 L56.404,62.452 L56.404,64 L55.48,64 Z M63.604,56.08 L63.604,56.92 L59.752,56.92 L59.536,59.5 C60.1520031,59.1719984 60.7719969,59.008 61.396,59.008 C63.0760084,59.008 63.916,59.7879922 63.916,61.348 C63.916,62.2440045 63.6840023,62.9279976 63.22,63.4 C62.7559977,63.8720024 62.1040042,64.108 61.264,64.108 C60.5919966,64.108 59.8480041,64.0200009 59.032,63.844 L58.636,63.76 L58.744,63.028 C59.6640046,63.2040009 60.4379969,63.292 61.066,63.292 C61.6940031,63.292 62.1679984,63.1300016 62.488,62.806 C62.8080016,62.4819984 62.968,62.0280029 62.968,61.444 C62.968,60.8599971 62.8220015,60.4460012 62.53,60.202 C62.2379985,59.9579988 61.8240027,59.836 61.288,59.836 C60.9999986,59.836 60.6980016,59.8759996 60.382,59.956 C60.0659984,60.0360004 59.8240008,60.1159996 59.656,60.196 L59.404,60.316 L58.768,60.196 L58.984,56.08 L63.604,56.08 Z M70.384,56.92 C69.6639964,56.8239995 68.9640034,56.776 68.284,56.776 C67.6039966,56.776 67.0800018,57.0119976 66.712,57.484 C66.3439982,57.9560024 66.16,58.6319956 66.16,59.512 L66.46,59.392 C66.660001,59.3199996 66.9259983,59.2440004 67.258,59.164 C67.5900017,59.0839996 67.8839987,59.044 68.14,59.044 C69.9160089,59.044 70.804,59.8639918 70.804,61.504 C70.804,62.3440042 70.5620024,62.9899977 70.078,63.442 C69.5939976,63.8940023 68.9120044,64.12 68.032,64.12 C66.1439906,64.12 65.2,62.7480137 65.2,60.004 C65.2,58.6199931 65.4699973,57.6000033 66.01,56.944 C66.5500027,56.2879967 67.3119951,55.96 68.296,55.96 C68.9440032,55.96 69.5599971,56.0079995 70.144,56.104 L70.468,56.164 L70.384,56.92 Z M68.08,59.872 C67.8079986,59.872 67.5100016,59.9099996 67.186,59.986 C66.8619984,60.0620004 66.6080009,60.1359996 66.424,60.208 L66.148,60.328 C66.156,61.2400046 66.3099985,61.9639973 66.61,62.5 C66.9100015,63.0360027 67.3679969,63.304 67.984,63.304 C68.6000031,63.304 69.0639984,63.1500015 69.376,62.842 C69.6880016,62.5339985 69.844,62.0980028 69.844,61.534 C69.844,60.9699972 69.6900015,60.5520014 69.382,60.28 C69.0739985,60.0079986 68.6400028,59.872 68.08,59.872 Z M72.244,56.92 L72.244,56.08 L77.164,56.08 L77.164,57.292 L74.116,64.12 L73.24,63.844 L76.228,57.232 L76.228,56.92 L72.244,56.92 Z M79.3,56.476 C79.8040025,56.1239982 80.4959956,55.948 81.376,55.948 C82.2560044,55.948 82.9539974,56.1219983 83.47,56.47 C83.9860026,56.8180017 84.244,57.3319966 84.244,58.012 C84.244,58.5080025 84.144001,58.8859987 83.944,59.146 C83.743999,59.4060013 83.4040024,59.6439989 82.924,59.86 C83.4040024,60.0760011 83.7639988,60.3299985 84.004,60.622 C84.2440012,60.9140015 84.364,61.3239974 84.364,61.852 C84.364,63.3640076 83.3740099,64.12 81.394,64.12 C79.4139901,64.12 78.424,63.4080071 78.424,61.984 C78.424,61.4159972 78.5339989,60.9840015 78.754,60.688 C78.9740011,60.3919985 79.3199976,60.1160013 79.792,59.86 C79.3599978,59.6439989 79.046001,59.3980014 78.85,59.122 C78.653999,58.8459986 78.556,58.4720024 78.556,58 C78.556,57.3279966 78.8039975,56.8200017 79.3,56.476 Z M79.408,61.828 C79.408,62.7960048 80.0699934,63.28 81.394,63.28 C82.7180066,63.28 83.38,62.7720051 83.38,61.756 C83.38,61.3319979 83.2620012,61.018001 83.026,60.814 C82.7899988,60.609999 82.4400023,60.4400007 81.976,60.304 L80.716,60.304 C80.2759978,60.4240006 79.9480011,60.6019988 79.732,60.838 C79.5159989,61.0740012 79.408,61.4039979 79.408,61.828 Z M83.26,58.12 C83.26,57.2319956 82.6400062,56.788 81.4,56.788 C80.1599938,56.788 79.54,57.2279956 79.54,58.108 C79.54,58.4600018 79.635999,58.7439989 79.828,58.96 C80.020001,59.1760011 80.315998,59.3559993 80.716,59.5 L81.976,59.5 C82.4080022,59.3639993 82.7299989,59.1880011 82.942,58.972 C83.1540011,58.7559989 83.26,58.4720018 83.26,58.12 Z M87.724,63.304 C89.1720072,63.304 89.9,62.3840092 89.908,60.544 C89.107996,60.8480015 88.4200029,61 87.844,61 C86.1159914,61 85.252,60.196008 85.252,58.588 C85.252,57.779996 85.4999975,57.1400024 85.996,56.668 C86.4920025,56.1959976 87.1599958,55.96 88,55.96 C88.9680048,55.96 89.6879976,56.3179964 90.16,57.034 C90.6320024,57.7500036 90.868,58.8019931 90.868,60.19 C90.868,61.5780069 90.6020027,62.5799969 90.07,63.196 C89.5379973,63.8120031 88.7560052,64.12 87.724,64.12 C87.123997,64.12 86.5040032,64.0640006 85.864,63.952 L85.552,63.904 L85.636,63.16 C86.3560036,63.2560005 87.0519966,63.304 87.724,63.304 Z M87.916,60.184 C88.4040024,60.184 88.9679968,60.0760011 89.608,59.86 L89.92,59.752 C89.8959999,57.7679901 89.2560063,56.776 88,56.776 C87.4399972,56.776 87.0020016,56.9379984 86.686,57.262 C86.3699984,57.5860016 86.212,58.0279972 86.212,58.588 C86.212,59.6520053 86.7799943,60.184 87.916,60.184 Z" id="123456789" fill="#1C3C55"></path>
                                <path d="M0.415584119,76.6983543 L107.236004,76.6983543" id="Path-107" stroke="#1C3C55"></path>
                            </g>
                            <g id="tax" transform="translate(77.000000, 172.000000)">
                                <g id="Group-2">
                                    <g id="Rectangle-4">
                                        <use fill="#FFFFFF" fill-rule="evenodd" xlink:href="#path-22"></use>
                                        <path stroke="#1C3C55" stroke-width="1" d="M72.5689399,110.5 L84.5,97.7275936 L84.5,2 C84.5,1.17157288 83.8284271,0.5 83,0.5 L2,0.5 C1.17157288,0.5 0.5,1.17157288 0.5,2 L0.5,109 C0.5,109.828427 1.17157288,110.5 2,110.5 L72.5689399,110.5 Z"></path>
                                    </g>
                                    <path d="M72.297035,110.341127 L72.297035,100.203958 C72.297035,99.0993884 73.1924655,98.2039579 74.297035,98.2039579 L83.891626,98.2039579" id="Path-116" stroke="#1C3C55"></path>
                                </g>
                                <g id="Group-3" transform="translate(18.000000, 16.000000)" fill="#FF9500" fill-rule="nonzero">
                                    <path d="M15.3858415,0 L1.61395718,0 C0.722727488,0 0,0.706871763 0,1.57898883 C0,2.4511059 0.722526171,3.15797767 1.61395718,3.15797767 L6.88604282,3.15797767 L6.88604282,18.4210112 C6.88604282,19.2929313 7.60856899,20 8.5,20 C9.39143101,20 10.1139572,19.2931282 10.1139572,18.4210112 L10.1139572,3.15797767 L15.3860428,3.15797767 C16.2772725,3.15797767 17,2.4511059 17,1.57898883 C17,0.706871763 16.2770712,0 15.3858415,0 Z" id="Shape"></path>
                                    <path d="M31.9314557,17.9668305 L27.1351439,2.32539729 C26.7085769,0.934531221 25.4248499,0 23.9406223,0 L23.0593055,0 C21.5750779,0 20.2913509,0.934531221 19.8647839,2.32539729 L15.0684721,17.9668305 C14.8124112,18.8020985 15.2967529,19.6822714 16.1504908,19.9327927 C17.0042286,20.1839049 17.9038642,19.7094506 18.1599252,18.8743795 L18.8475858,16.6311106 L28.1517382,16.6311106 L28.8396001,18.8741825 C29.0493607,19.5581924 29.6905196,19.9997559 30.3848233,19.9997559 C30.5382183,19.9997559 30.6944316,19.9780914 30.8492358,19.9327927 C31.703175,19.6822714 32.187718,18.8020985 31.9314557,17.9668305 Z M19.8162692,13.4732026 L22.956237,3.23274931 C22.9697245,3.18863234 23.0122,3.15771108 23.0593055,3.15771108 L23.9406223,3.15771108 C23.9877279,3.15771108 24.0302034,3.18843539 24.0436909,3.23274931 L27.1836586,13.4732026 L19.8162692,13.4732026 Z" id="Shape"></path>
                                    <path d="M48.7133541,17.515599 L43.4339506,10.0001581 L48.7133541,2.48471722 C49.2151662,1.77035839 49.0408463,0.785776149 48.3240001,0.285705273 C47.6071538,-0.214365602 46.6191433,-0.0408475081 46.1173311,0.673708277 L41.5000271,7.24691245 L36.8827231,0.673708277 C36.3809109,-0.0408475081 35.3927027,-0.214562558 34.6760541,0.285705273 C33.9590103,0.785776149 33.7846903,1.77035839 34.2867001,2.48471722 L39.5661036,10.0001581 L34.2870954,17.515599 C33.7852833,18.2299579 33.9596032,19.2145401 34.6764494,19.714611 C34.9529501,19.9076277 35.2699673,20 35.5836246,20 C36.083065,20 36.5747974,19.7652286 36.8829207,19.326411 L41.5002247,12.7532069 L46.1175288,19.326411 C46.4258497,19.7652286 46.9173845,20 47.4168249,20 C47.7304822,20 48.0476971,19.9074308 48.3240001,19.714611 C49.0408463,19.2145401 49.2153639,18.2299579 48.7133541,17.515599 Z" id="Shape"></path>
                                </g>
                                <g id="Group-4" transform="translate(7.000000, 47.000000)" stroke="#1C3C55" stroke-linecap="round" stroke-linejoin="round">
                                    <path d="M0.518411098,1.80240485 L46.8558162,1.80240485" id="Path-117"></path>
                                    <path d="M2,13 L27.5,13" id="Path-118"></path>
                                    <path d="M1.18184628,23.2287849 L42.0185364,23.2287849" id="Path-119"></path>
                                    <path d="M2,34 L66.5,34" id="Path-120"></path>
                                    <path d="M1.80770828,44.2504481 L41.0523686,44.2504481" id="Path-121"></path>
                                </g>
                            </g>
                            <g id="pen" transform="translate(200.500000, 276.500000) rotate(-135.000000) translate(-200.500000, -276.500000) translate(173.000000, 249.000000)" stroke="#1C3C55">
                                <path d="M52.124743,8.16182395 L54.7217809,5.56489603 C55.0927397,5.19393738 55.0927397,4.63744506 54.7217809,4.26637772 L50.7335115,0.278218987 C50.3625527,-0.0927396625 49.8060601,-0.0927396625 49.4349925,0.278218987 L47.1657636,2.62852952 C47.0141411,2.6696143 46.8692573,2.75124042 46.7452421,2.87525561 L44.7907792,4.8297175 C44.4250375,4.54853671 43.9310417,4.57647002 43.5917116,4.91579991 L8.06911545,40.2529535 C7.97955492,40.342514 7.91205846,40.4430522 7.86575654,40.5490248 L4.17366729,44.2411123 C3.98813353,44.4266459 3.89542099,44.6120709 3.89542099,44.8903171 C3.89542099,45.12237 3.96085235,45.2896438 4.08986733,45.4464833 C2.32767701,46.8953198 1.29849178,49.0700961 1.29849178,51.3826912 L1.29849178,52.4029634 L0.278219125,53.4232355 C-0.0927397083,53.7941942 -0.0927397083,54.3506865 0.278219125,54.7217538 C0.463752886,54.9072875 0.649177958,55 0.927424255,55 C1.20567055,55 1.39120431,54.9072875 1.57662939,54.7217538 L2.59690204,53.7014817 L3.61717469,53.7014817 C5.91574997,53.7014817 8.14595925,52.6170825 9.55653755,50.9126074 C9.71239896,51.0398833 9.87912935,51.1045538 10.1095521,51.1045538 C10.3877984,51.1045538 10.5733321,51.0118413 10.7587572,50.7335951 L14.4912791,47.001075 C14.5634492,46.9584686 14.6210549,46.9044497 14.6542054,46.8381489 L44.8439286,16.6484405 L46.6627233,18.3625222 L32.2403265,32.7848033 C31.8693676,33.1557619 31.8693676,33.7122542 32.2403265,34.0833216 L33.1112822,35.058989 C33.296816,35.2445226 33.482241,35.3372351 33.7604873,35.3372351 C33.9460211,35.3372351 34.2242674,35.2445226 34.4096925,35.058989 L52.7739481,16.6947424 C53.1449069,16.3237838 53.1449069,15.7672915 52.7739481,15.3962241 L51.9029923,14.4205567 C51.5320335,14.0495981 50.9755409,14.0495981 50.6044734,14.4205567 L47.9611336,17.0638952 L46.1423389,15.3498135 L50.0843064,11.4080654 C50.2698401,11.3153529 50.4552652,11.1298192 50.4552652,10.8515731 C50.4552652,10.5733269 50.3625527,10.3877932 50.1770189,10.2023683 L51.8484531,8.3455099 C51.9521433,8.3002949 52.046921,8.23975462 52.124743,8.16182395 Z" id="Shape" fill="#FFFFFF" fill-rule="nonzero"></path>
                                <path d="M4.36403783,45.6208942 L10.0276573,51.0645163" id="Path-2"></path>
                                <path d="M44.5267063,4.72427534 L50.0987228,10.0988198" id="Path-3"></path>
                            </g>
                        </g>
                    </g>
                </g>
            </g>
        </g>
    </g>
</svg>