<?xml version="1.0" encoding="UTF-8"?>
<svg width="423px" height="323px" viewBox="0 0 423 323" version="1.1" xmlns="http://www.w3.org/2000/svg" xmlns:xlink="http://www.w3.org/1999/xlink">
    <!-- Generator: Sketch 49 (51002) - http://www.bohemiancoding.com/sketch -->
    <title>Illustration/ Understanding Bitcoin traceability</title>
    <desc>Created with Sketch.</desc>
    <defs></defs>
    <g id="Protect-your-privacy" stroke="none" stroke-width="1" fill="none" fill-rule="evenodd">
        <g id="22.01.18-Bitcoin.org_Protect-your-privacy-Desktop-1200px--" transform="translate(-250.000000, -843.000000)">
            <g id="//body" transform="translate(215.000000, 668.000000)">
                <g id="1">
                    <g id="Illustration/-Understanding-Bitcoin-traceability" transform="translate(0.000000, 158.000000)">
                        <g id="siatka" opacity="0.5" stroke-width="1" fill-rule="evenodd" transform="translate(239.771416, 169.573964) rotate(-199.000000) translate(-239.771416, -169.573964) translate(66.271416, 4.073964)">
                            <g id="Group-8" opacity="0.200000003" transform="translate(12.000000, 1.000000)">
                                <path d="" id="Path-2" stroke="#979797"></path>
                                <polyline id="Path-5" stroke="#979797" points="327.306554 250.729508 300.262156 78.2663934 0 153.762295 156.02537 176.618852 189.310782 1.3852459"></polyline>
                                <polyline id="Path-6" stroke="#979797" points="156.718816 176.618852 209.420719 327.610656 299.56871 78.2663934"></polyline>
                                <polyline id="Path-8" stroke="#979797" points="156.718816 178.004098 76.9725159 278.434426 208.727273 327.610656"></polyline>
                                <polyline id="Path-9" stroke="#979797" points="155.331924 176.618852 98.4693446 56.795082 191.391121 0.692622951"></polyline>
                                <polygon id="Path-10" stroke="#979797" points="78.359408 279.127049 20.831855 243.556622 0 154.454918"></polygon>
                                <circle id="Oval-2" fill="#7B7B7B" cx="20.5" cy="243.5" r="2.5"></circle>
                                <polyline id="Path-11" stroke="#979797" points="299.56871 78.2663934 188.270613 0 326.613108 252.114754 210.114165 328.303279 0 154.454918 98.4693446 56.102459 325.919662 252.114754"></polyline>
                                <polyline id="Path-13" stroke="#979797" points="328 252.114754 236.465116 252.114754 162.959831 175.233607"></polyline>
                                <path d="M76.9725159,279.127049 L239.238901,252.114754" id="Path-14" stroke="#979797"></path>
                            </g>
                            <g id="dots" transform="translate(101.000000, 49.000000)">
                                <circle id="Oval-2" fill="#C4C4C4" cx="8.5" cy="8.5" r="2.38"></circle>
                                <circle id="Oval-2" stroke="#CACACA" cx="8.5" cy="8.5" r="8.5"></circle>
                            </g>
                            <g id="dots" transform="translate(330.000000, 243.000000)">
                                <circle id="Oval-2" fill="#C4C4C4" cx="8.5" cy="8.5" r="2.38"></circle>
                                <circle id="Oval-2" stroke="#CACACA" cx="8.5" cy="8.5" r="8.5"></circle>
                            </g>
                            <g id="dots" transform="translate(275.000000, 147.000000)">
                                <circle id="Oval-2" fill="#C4C4C4" cx="8.5" cy="8.5" r="2.38"></circle>
                                <circle id="Oval-2" stroke="#CACACA" cx="8.5" cy="8.5" r="8.5"></circle>
                            </g>
                            <g id="dots" transform="translate(80.000000, 271.000000)">
                                <circle id="Oval-2" fill="#C4C4C4" cx="8.5" cy="8.5" r="2.38"></circle>
                                <circle id="Oval-2" stroke="#CACACA" cx="8.5" cy="8.5" r="8.5"></circle>
                            </g>
                            <circle id="Oval-2" fill="#7B7B7B" cx="220.5" cy="328.5" r="2.5"></circle>
                            <circle id="Oval-2" fill="#7B7B7B" cx="200.5" cy="2.5" r="2.5"></circle>
                            <g id="Group-7" transform="translate(0.000000, 143.000000)">
                                <circle id="Oval-2" fill="#FF7E00" cx="12.5" cy="12.5" r="3.92857143"></circle>
                                <circle id="Oval-2" stroke="#FF7E00" cx="12.5" cy="12.5" r="12.5"></circle>
                            </g>
                        </g>
                        <path d="M220.848198,202.972645 L221.321926,296.833514" id="Path-42" stroke="#1C3C55" stroke-width="1"></path>
                        <polygon id="Path-41" fill="#1C3C55" fill-rule="nonzero" points="84.0050743 142.640818 83.9949257 141.64087 196.402619 140.500026 196.412768 141.499974"></polygon>
                        <path d="M77.4325361,66.5 L77.4325361,65.5 L189.963902,65.5 C206.256302,65.5 219.463902,78.7075999 219.463902,95 L219.463902,133.782892 L218.463902,133.782892 L218.463902,95 C218.463902,79.2598846 205.704017,66.5 189.963902,66.5 L77.4325361,66.5 Z" id="Path-40" fill="#1C3C55" fill-rule="nonzero"></path>
                        <path d="M328.779239,200.040405 C345.071639,200.040405 358.279239,213.248005 358.279239,229.540405 L358.279239,259.115036 L357.279239,259.115036 L357.279239,229.540405 C357.279239,213.80029 344.519354,201.040405 328.779239,201.040405 L238.5,201.040405 L238.5,192 L239.5,192 L239.5,200.040405 L328.779239,200.040405 Z" id="Path-40-Copy" fill="#1C3C55" fill-rule="nonzero" transform="translate(298.389619, 225.557518) scale(-1, -1) translate(-298.389619, -225.557518) "></path>
                        <path d="M83.9440008,192.5 L83.9440008,191.5 L170.963902,191.5 C187.256302,191.5 200.463902,204.7076 200.463902,221 L200.463902,250.574631 L199.463902,250.574631 L199.463902,221 C199.463902,205.259885 186.704017,192.5 170.963902,192.5 L83.9440008,192.5 Z" id="Path-40-Copy-2" fill="#1C3C55" fill-rule="nonzero" transform="translate(142.203951, 221.037315) scale(1, -1) translate(-142.203951, -221.037315) "></path>
                        <polygon id="Path-41" fill="#1C3C55" fill-rule="nonzero" points="224.996013 163.640836 224.990364 162.640852 426.939732 161.500008 426.945381 162.499992"></polygon>
                        <circle id="Oval-2-Copy-6" fill="#FFFFFF" fill-rule="evenodd" cx="222.5" cy="164.5" r="38.5"></circle>
                        <path d="M222.5,203.5 C200.960895,203.5 183.5,186.039105 183.5,164.5 C183.5,142.960895 200.960895,125.5 222.5,125.5 C244.039105,125.5 261.5,142.960895 261.5,164.5 C261.5,186.039105 244.039105,203.5 222.5,203.5 Z M222.5,202.5 C243.48682,202.5 260.5,185.48682 260.5,164.5 C260.5,143.51318 243.48682,126.5 222.5,126.5 C201.51318,126.5 184.5,143.51318 184.5,164.5 C184.5,185.48682 201.51318,202.5 222.5,202.5 Z" id="Oval-2-Copy-6" fill="#FF9500" fill-rule="nonzero"></path>
                        <path d="M196.275,169 L196.275,158.62 L198.435,158.62 L202.41,167.98 L202.725,167.98 L202.725,158.62 L203.865,158.62 L203.865,169 L201.75,169 L197.715,159.64 L197.43,159.64 L197.43,169 L196.275,169 Z M211.245,168.07 L211.68,168.025 L211.71,168.91 C210.569994,169.070001 209.595004,169.15 208.785,169.15 C207.704995,169.15 206.940002,168.837503 206.49,168.2125 C206.039998,167.587497 205.815,166.615007 205.815,165.295 C205.815,162.664987 206.85999,161.35 208.95,161.35 C209.960005,161.35 210.714998,161.632497 211.215,162.1975 C211.715002,162.762503 211.965,163.649994 211.965,164.86 L211.905,165.715 L206.955,165.715 C206.955,166.545004 207.104998,167.159998 207.405,167.56 C207.705002,167.960002 208.227496,168.16 208.9725,168.16 C209.717504,168.16 210.474996,168.13 211.245,168.07 Z M210.84,164.815 C210.84,163.894995 210.692501,163.245002 210.3975,162.865 C210.102499,162.484998 209.622503,162.295 208.9575,162.295 C208.292497,162.295 207.792502,162.494998 207.4575,162.895 C207.122498,163.295002 206.95,163.934996 206.94,164.815 L210.84,164.815 Z M217.56,162.475 L215.175,162.475 L215.175,166.06 C215.175,166.920004 215.237499,167.484999 215.3625,167.755 C215.487501,168.025001 215.784998,168.16 216.255,168.16 L217.59,168.07 L217.665,169 C216.994997,169.110001 216.485002,169.165 216.135,169.165 C215.354996,169.165 214.815001,168.975002 214.515,168.595 C214.214999,168.214998 214.065,167.490005 214.065,166.42 L214.065,162.475 L213,162.475 L213,161.5 L214.065,161.5 L214.065,159.205 L215.175,159.205 L215.175,161.5 L217.56,161.5 L217.56,162.475 Z M218.325,161.5 L219.45,161.5 L220.965,168.025 L221.205,168.025 L222.99,161.65 L224.16,161.65 L225.945,168.025 L226.2,168.025 L227.7,161.5 L228.825,161.5 L227.04,169 L225.165,169 L223.575,163.135 L221.985,169 L220.11,169 L218.325,161.5 Z M229.965,165.235 C229.965,163.864993 230.209998,162.875003 230.7,162.265 C231.190002,161.654997 232.017494,161.35 233.1825,161.35 C234.347506,161.35 235.172498,161.654997 235.6575,162.265 C236.142502,162.875003 236.385,163.864993 236.385,165.235 C236.385,166.605007 236.155002,167.599997 235.695,168.22 C235.234998,168.840003 234.395006,169.15 233.175,169.15 C231.954994,169.15 231.115002,168.840003 230.655,168.22 C230.194998,167.599997 229.965,166.605007 229.965,165.235 Z M231.12,165.22 C231.12,166.310005 231.252499,167.074998 231.5175,167.515 C231.782501,167.955002 232.337496,168.175 233.1825,168.175 C234.027504,168.175 234.579999,167.957502 234.84,167.5225 C235.100001,167.087498 235.23,166.320006 235.23,165.22 C235.23,164.119994 235.085001,163.362502 234.795,162.9475 C234.504999,162.532498 233.967504,162.325 233.1825,162.325 C232.397496,162.325 231.857501,162.532498 231.5625,162.9475 C231.267499,163.362502 231.12,164.119994 231.12,165.22 Z M238.215,169 L238.215,161.5 L239.325,161.5 L239.325,162.52 C240.195004,161.919997 241.109995,161.525001 242.07,161.335 L242.07,162.475 C241.649998,162.555 241.212502,162.679999 240.7575,162.85 C240.302498,163.020001 239.955001,163.169999 239.715,163.3 L239.34,163.495 L239.34,169 L238.215,169 Z M244.53,169 L243.405,169 L243.405,158.23 L244.53,158.23 L244.53,164.59 L245.7,164.53 L247.845,161.5 L249.12,161.5 L246.675,164.95 L249.225,169 L247.95,169 L245.715,165.52 L244.53,165.565 L244.53,169 Z" id="Network" fill="#1C3C55" fill-rule="evenodd"></path>
                        <g id="Group-4" stroke-width="1" fill-rule="evenodd" transform="translate(47.000000, 126.000000)">
                            <g id="history">
                                <rect id="Rectangle" fill="#F9F9F9" x="0" y="0" width="55" height="64" rx="6"></rect>
                                <path d="M16.3104389,12.4135314 L16.3104389,9.27866667 L13.1755743,9.27866667 L13.1755743,12.4135314 L12,12.4135314 L12,5.15886139 L13.1755743,5.15886139 L13.1755743,8.25136304 L16.3104389,8.25136304 L16.3104389,5.15886139 L17.496604,5.15886139 L17.496604,12.4135314 L16.3104389,12.4135314 Z M19.0216733,12.4135314 L19.0216733,7.11815182 L20.176066,7.11815182 L20.176066,12.4135314 L19.0216733,12.4135314 Z M19.0216733,6.21793729 L19.0216733,5 L20.176066,5 L20.176066,6.21793729 L19.0216733,6.21793729 Z M25.2490396,8.209 C24.4158957,8.09603134 23.8122285,8.03954785 23.4380198,8.03954785 C23.0638111,8.03954785 22.8043401,8.08367558 22.659599,8.17193234 C22.5148579,8.26018911 22.4424884,8.39963271 22.4424884,8.59026733 C22.4424884,8.78090194 22.5219183,8.91505022 22.6807805,8.99271617 C22.8396427,9.07038213 23.2138458,9.16040268 23.803401,9.26278053 C24.3929562,9.36515838 24.811287,9.52578328 25.0584059,9.74466007 C25.3055249,9.96353685 25.4290825,10.3518608 25.4290825,10.9096436 C25.4290825,11.4674263 25.2508065,11.8769316 24.8942492,12.1381716 C24.5376918,12.3994116 24.0169847,12.5300297 23.3321122,12.5300297 C22.9014192,12.5300297 22.3577657,12.470016 21.7011353,12.3499868 L21.3728218,12.297033 L21.4151848,11.3332739 C22.2624498,11.4462426 22.8731774,11.5027261 23.2473861,11.5027261 C23.6215948,11.5027261 23.8881263,11.4568332 24.0469884,11.3650462 C24.2058506,11.2732592 24.2852805,11.1214598 24.2852805,10.9096436 C24.2852805,10.6978273 24.2093808,10.5513233 24.0575792,10.4701271 C23.9057776,10.3889308 23.5421651,10.3006754 22.966731,10.2053581 C22.3912969,10.1100408 21.9694359,9.96000652 21.7011353,9.75525083 C21.4328347,9.55049513 21.2986865,9.17629205 21.2986865,8.63263036 C21.2986865,8.08896868 21.4840229,7.68299364 21.8547013,7.41469307 C22.2253797,7.1463925 22.700194,7.01224422 23.2791584,7.01224422 C23.7310331,7.01224422 24.2852772,7.06872771 24.9419076,7.18169637 L25.2702211,7.24524092 L25.2490396,8.209 Z M29.3900264,8.10309241 L27.9285017,8.10309241 L27.9285017,10.4330594 C27.9285017,10.8637524 27.9602736,11.1497001 28.0238185,11.2909109 C28.0873634,11.4321217 28.2497534,11.5027261 28.5109934,11.5027261 L29.3794356,11.4709538 L29.4323894,12.3923498 C28.9593332,12.4841369 28.599251,12.5300297 28.352132,12.5300297 C27.751986,12.5300297 27.3407156,12.3923512 27.1183086,12.1169901 C26.8959015,11.841629 26.7846997,11.322687 26.7846997,10.5601485 L26.7846997,8.10309241 L26.1068911,8.10309241 L26.1068911,7.11815182 L26.7846997,7.11815182 L26.7846997,5.58249175 L27.9285017,5.58249175 L27.9285017,7.11815182 L29.3900264,7.11815182 L29.3900264,8.10309241 Z M30.6185545,7.69005281 C30.9857026,7.23111762 31.5929001,7.00165347 32.440165,7.00165347 C33.28743,7.00165347 33.8928623,7.23111762 34.2564802,7.69005281 C34.6200981,8.14898799 34.8019043,8.83738045 34.8019043,9.75525083 C34.8019043,10.6731212 34.6253934,11.3650439 34.2723663,11.8310396 C33.9193393,12.2970353 33.3086116,12.5300297 32.440165,12.5300297 C31.5717184,12.5300297 30.9609908,12.2970353 30.6079637,11.8310396 C30.2549366,11.3650439 30.0784257,10.6731212 30.0784257,9.75525083 C30.0784257,8.83738045 30.2584668,8.14898799 30.6185545,7.69005281 Z M31.4869967,11.1320495 C31.6493892,11.4144712 31.9671087,11.5556799 32.440165,11.5556799 C32.9132213,11.5556799 33.2309409,11.4144712 33.3933333,11.1320495 C33.5557258,10.8496279 33.6369208,10.3871693 33.6369208,9.74466007 C33.6369208,9.1021508 33.5504305,8.64675272 33.3774472,8.37845215 C33.2044639,8.11015157 32.8920397,7.9760033 32.440165,7.9760033 C31.9882904,7.9760033 31.6758661,8.11015157 31.5028828,8.37845215 C31.3298996,8.64675272 31.2434092,9.1021508 31.2434092,9.74466007 C31.2434092,10.3871693 31.3246042,10.8496279 31.4869967,11.1320495 Z M35.9457063,12.4135314 L35.9457063,7.11815182 L37.0895083,7.11815182 L37.0895083,7.75359736 C37.6896543,7.36526759 38.2897913,7.11462213 38.8899373,7.00165347 L38.8899373,8.1560462 C38.2827307,8.27607541 37.7637887,8.43140499 37.3330957,8.6220396 L37.100099,8.71735644 L37.100099,12.4135314 L35.9457063,12.4135314 Z M39.2817954,7.11815182 L40.4150066,7.11815182 L41.5376271,11.4285908 L41.8235776,11.4285908 L42.946198,7.11815182 L44.09,7.11815182 L42.0777558,14.6905446 L40.9445446,14.6905446 L41.5799901,12.4135314 L40.6691848,12.4135314 L39.2817954,7.11815182 Z" id="History" fill="#1C3C55"></path>
                                <g id="Group" transform="translate(19.000000, 36.500000) scale(-1, 1) translate(-19.000000, -36.500000) translate(5.000000, 19.000000)" fill="#979797" fill-rule="nonzero" opacity="0.5">
                                    <path d="M3,6.5 C2.72385763,6.5 2.5,6.27614237 2.5,6 C2.5,5.72385763 2.72385763,5.5 3,5.5 L26.557052,5.5 C26.8331943,5.5 27.057052,5.72385763 27.057052,6 C27.057052,6.27614237 26.8331943,6.5 26.557052,6.5 L3,6.5 Z" id="Path-39"></path>
                                    <path d="M3,30.5 C2.72385763,30.5 2.5,30.2761424 2.5,30 C2.5,29.7238576 2.72385763,29.5 3,29.5 L27.1017878,29.5 C27.3779302,29.5 27.6017878,29.7238576 27.6017878,30 C27.6017878,30.2761424 27.3779302,30.5 27.1017878,30.5 L3,30.5 Z" id="Path-39-Copy-4"></path>
                                    <path d="M3,18.5 C2.72385763,18.5 2.5,18.2761424 2.5,18 C2.5,17.7238576 2.72385763,17.5 3,17.5 L26.5109488,17.5 C26.7870912,17.5 27.0109488,17.7238576 27.0109488,18 C27.0109488,18.2761424 26.7870912,18.5 26.5109488,18.5 L3,18.5 Z" id="Path-39-Copy"></path>
                                    <path d="M3,34.5 C2.72385763,34.5 2.5,34.2761424 2.5,34 C2.5,33.7238576 2.72385763,33.5 3,33.5 L27.1017878,33.5 C27.3779302,33.5 27.6017878,33.7238576 27.6017878,34 C27.6017878,34.2761424 27.3779302,34.5 27.1017878,34.5 L3,34.5 Z" id="Path-39-Copy-6"></path>
                                    <path d="M3,22.5 C2.72385763,22.5 2.5,22.2761424 2.5,22 C2.5,21.7238576 2.72385763,21.5 3,21.5 L26.517466,21.5 C26.7936084,21.5 27.017466,21.7238576 27.017466,22 C27.017466,22.2761424 26.7936084,22.5 26.517466,22.5 L3,22.5 Z" id="Path-39-Copy-2"></path>
                                    <path d="M12,10.5 C11.7238576,10.5 11.5,10.2761424 11.5,10 C11.5,9.72385763 11.7238576,9.5 12,9.5 L26.5696841,9.5 C26.8458264,9.5 27.0696841,9.72385763 27.0696841,10 C27.0696841,10.2761424 26.8458264,10.5 26.5696841,10.5 L12,10.5 Z" id="Path-39"></path>
                                    <path d="M12.0033451,2.49998881 C11.7272089,2.50183625 11.5018586,2.27948128 11.5000112,2.00334509 C11.4981637,1.72720889 11.7205187,1.50185863 11.9966549,1.50001119 L26.5674654,1.40252771 C26.8436016,1.40068027 27.0689519,1.62303524 27.0707993,1.89917143 C27.0726467,2.17530763 26.8502918,2.40065789 26.5741556,2.40250533 L12.0033451,2.49998881 Z" id="Path-39-Copy-5"></path>
                                    <path d="M12,26.5 C11.7238576,26.5 11.5,26.2761424 11.5,26 C11.5,25.7238576 11.7238576,25.5 12,25.5 L26.52342,25.5 C26.7995624,25.5 27.02342,25.7238576 27.02342,26 C27.02342,26.2761424 26.7995624,26.5 26.52342,26.5 L12,26.5 Z" id="Path-39-Copy-3"></path>
                                    <path d="M0.495157806,14.5 C0.219015431,14.5 -0.00484219402,14.2761424 -0.00484219402,14 C-0.00484219402,13.7238576 0.219015431,13.5 0.495157806,13.5 L26.5276039,13.5 C26.8037462,13.5 27.0276039,13.7238576 27.0276039,14 C27.0276039,14.2761424 26.8037462,14.5 26.5276039,14.5 L0.495157806,14.5 Z" id="Path-39"></path>
                                </g>
                            </g>
                            <g id="portfel-lewy-copy" transform="translate(57.500000, 45.000000) scale(-1, 1) translate(-57.500000, -45.000000) translate(30.000000, 23.000000)">
                                <path d="M2.92555048,8.4592086 L2.92555048,0.398026086 L45.1501193,0.00292481275 C48.3113049,-0.0377085924 50.6075348,0.345037313 52.0388089,1.15116253 C53.4700831,1.95728775 54.098564,3.29097371 53.9242516,5.15222043" id="Path-97" stroke="#1C3C55" fill="#FFFFFF"></path>
                                <path d="M1.05191722,13.7472847 L1.34298934,35.3437673 C1.40196577,39.7196018 4.9660309,43.2359551 9.34226284,43.2359551 L45.9526382,43.2359551 C50.3709162,43.2359551 53.9526382,39.6542331 53.9526382,35.2359551 L53.9526382,5.6394724 L9.05119072,5.6394724 C4.63291272,5.6394724 1.05119072,9.2211944 1.05119072,13.6394724 C1.05119072,13.675411 1.05143289,13.7113493 1.05191722,13.7472847 Z" id="Path-96" fill="#FFFFFF"></path>
                                <path d="M0.551962623,13.7540229 C0.551190716,8.94505203 4.35677034,5.1394724 9.05119072,5.1394724 L54.4526382,5.1394724 L54.4526382,35.2359551 C54.4526382,39.9303754 50.6470586,43.7359551 45.9526382,43.7359551 L9.34226284,43.7359551 C4.69251641,43.7359551 0.905697204,39.9998298 0.843034747,35.3505056 L0.551962623,13.7540229 Z M9.05119072,6.1394724 C4.90905509,6.1394724 1.55119072,9.49733677 1.55119072,13.6394724 C1.55126639,13.6731647 1.64851747,20.9056836 1.84294393,35.337029 C1.89823434,39.4393739 5.2395454,42.7359551 9.34226284,42.7359551 L45.9526382,42.7359551 C50.0947739,42.7359551 53.4526382,39.3780907 53.4526382,35.2359551 L53.4526382,6.1394724 L9.05119072,6.1394724 Z" id="Path-96" fill="#1C3C55" fill-rule="nonzero"></path>
                                <g id="Group-3" transform="translate(8.867179, 22.757450) rotate(180.000000) translate(-8.867179, -22.757450) translate(0.367179, 18.257450)" stroke="#1C3C55">
                                    <path d="M0.5,0.5 L0.5,7.9592086 L12.0100325,7.9592086 C14.0698361,7.9592086 15.7396368,6.28940788 15.7396368,4.2296043 C15.7396368,2.16980072 14.0698361,0.5 12.0100325,0.5 L0.5,0.5 Z" id="Rectangle-9" transform="translate(8.119818, 4.229604) rotate(180.000000) translate(-8.119818, -4.229604) "></path>
                                    <ellipse id="Oval" cx="4.36458109" cy="4.2296043" rx="2.18229055" ry="2.11480215"></ellipse>
                                </g>
                            </g>
                        </g>
                        <g id="Group-4-Copy-2" stroke-width="1" fill-rule="evenodd" transform="translate(35.000000, 238.000000)">
                            <g id="history">
                                <rect id="Rectangle" fill="#F9F9F9" x="0" y="0" width="55" height="64" rx="6"></rect>
                                <path d="M16.3104389,12.4135314 L16.3104389,9.27866667 L13.1755743,9.27866667 L13.1755743,12.4135314 L12,12.4135314 L12,5.15886139 L13.1755743,5.15886139 L13.1755743,8.25136304 L16.3104389,8.25136304 L16.3104389,5.15886139 L17.496604,5.15886139 L17.496604,12.4135314 L16.3104389,12.4135314 Z M19.0216733,12.4135314 L19.0216733,7.11815182 L20.176066,7.11815182 L20.176066,12.4135314 L19.0216733,12.4135314 Z M19.0216733,6.21793729 L19.0216733,5 L20.176066,5 L20.176066,6.21793729 L19.0216733,6.21793729 Z M25.2490396,8.209 C24.4158957,8.09603134 23.8122285,8.03954785 23.4380198,8.03954785 C23.0638111,8.03954785 22.8043401,8.08367558 22.659599,8.17193234 C22.5148579,8.26018911 22.4424884,8.39963271 22.4424884,8.59026733 C22.4424884,8.78090194 22.5219183,8.91505022 22.6807805,8.99271617 C22.8396427,9.07038213 23.2138458,9.16040268 23.803401,9.26278053 C24.3929562,9.36515838 24.811287,9.52578328 25.0584059,9.74466007 C25.3055249,9.96353685 25.4290825,10.3518608 25.4290825,10.9096436 C25.4290825,11.4674263 25.2508065,11.8769316 24.8942492,12.1381716 C24.5376918,12.3994116 24.0169847,12.5300297 23.3321122,12.5300297 C22.9014192,12.5300297 22.3577657,12.470016 21.7011353,12.3499868 L21.3728218,12.297033 L21.4151848,11.3332739 C22.2624498,11.4462426 22.8731774,11.5027261 23.2473861,11.5027261 C23.6215948,11.5027261 23.8881263,11.4568332 24.0469884,11.3650462 C24.2058506,11.2732592 24.2852805,11.1214598 24.2852805,10.9096436 C24.2852805,10.6978273 24.2093808,10.5513233 24.0575792,10.4701271 C23.9057776,10.3889308 23.5421651,10.3006754 22.966731,10.2053581 C22.3912969,10.1100408 21.9694359,9.96000652 21.7011353,9.75525083 C21.4328347,9.55049513 21.2986865,9.17629205 21.2986865,8.63263036 C21.2986865,8.08896868 21.4840229,7.68299364 21.8547013,7.41469307 C22.2253797,7.1463925 22.700194,7.01224422 23.2791584,7.01224422 C23.7310331,7.01224422 24.2852772,7.06872771 24.9419076,7.18169637 L25.2702211,7.24524092 L25.2490396,8.209 Z M29.3900264,8.10309241 L27.9285017,8.10309241 L27.9285017,10.4330594 C27.9285017,10.8637524 27.9602736,11.1497001 28.0238185,11.2909109 C28.0873634,11.4321217 28.2497534,11.5027261 28.5109934,11.5027261 L29.3794356,11.4709538 L29.4323894,12.3923498 C28.9593332,12.4841369 28.599251,12.5300297 28.352132,12.5300297 C27.751986,12.5300297 27.3407156,12.3923512 27.1183086,12.1169901 C26.8959015,11.841629 26.7846997,11.322687 26.7846997,10.5601485 L26.7846997,8.10309241 L26.1068911,8.10309241 L26.1068911,7.11815182 L26.7846997,7.11815182 L26.7846997,5.58249175 L27.9285017,5.58249175 L27.9285017,7.11815182 L29.3900264,7.11815182 L29.3900264,8.10309241 Z M30.6185545,7.69005281 C30.9857026,7.23111762 31.5929001,7.00165347 32.440165,7.00165347 C33.28743,7.00165347 33.8928623,7.23111762 34.2564802,7.69005281 C34.6200981,8.14898799 34.8019043,8.83738045 34.8019043,9.75525083 C34.8019043,10.6731212 34.6253934,11.3650439 34.2723663,11.8310396 C33.9193393,12.2970353 33.3086116,12.5300297 32.440165,12.5300297 C31.5717184,12.5300297 30.9609908,12.2970353 30.6079637,11.8310396 C30.2549366,11.3650439 30.0784257,10.6731212 30.0784257,9.75525083 C30.0784257,8.83738045 30.2584668,8.14898799 30.6185545,7.69005281 Z M31.4869967,11.1320495 C31.6493892,11.4144712 31.9671087,11.5556799 32.440165,11.5556799 C32.9132213,11.5556799 33.2309409,11.4144712 33.3933333,11.1320495 C33.5557258,10.8496279 33.6369208,10.3871693 33.6369208,9.74466007 C33.6369208,9.1021508 33.5504305,8.64675272 33.3774472,8.37845215 C33.2044639,8.11015157 32.8920397,7.9760033 32.440165,7.9760033 C31.9882904,7.9760033 31.6758661,8.11015157 31.5028828,8.37845215 C31.3298996,8.64675272 31.2434092,9.1021508 31.2434092,9.74466007 C31.2434092,10.3871693 31.3246042,10.8496279 31.4869967,11.1320495 Z M35.9457063,12.4135314 L35.9457063,7.11815182 L37.0895083,7.11815182 L37.0895083,7.75359736 C37.6896543,7.36526759 38.2897913,7.11462213 38.8899373,7.00165347 L38.8899373,8.1560462 C38.2827307,8.27607541 37.7637887,8.43140499 37.3330957,8.6220396 L37.100099,8.71735644 L37.100099,12.4135314 L35.9457063,12.4135314 Z M39.2817954,7.11815182 L40.4150066,7.11815182 L41.5376271,11.4285908 L41.8235776,11.4285908 L42.946198,7.11815182 L44.09,7.11815182 L42.0777558,14.6905446 L40.9445446,14.6905446 L41.5799901,12.4135314 L40.6691848,12.4135314 L39.2817954,7.11815182 Z" id="History" fill="#1C3C55"></path>
                                <g id="Group" transform="translate(19.000000, 36.500000) scale(-1, 1) translate(-19.000000, -36.500000) translate(5.000000, 19.000000)" fill="#979797" fill-rule="nonzero" opacity="0.5">
                                    <path d="M3,6.5 C2.72385763,6.5 2.5,6.27614237 2.5,6 C2.5,5.72385763 2.72385763,5.5 3,5.5 L26.557052,5.5 C26.8331943,5.5 27.057052,5.72385763 27.057052,6 C27.057052,6.27614237 26.8331943,6.5 26.557052,6.5 L3,6.5 Z" id="Path-39"></path>
                                    <path d="M3,30.5 C2.72385763,30.5 2.5,30.2761424 2.5,30 C2.5,29.7238576 2.72385763,29.5 3,29.5 L27.1017878,29.5 C27.3779302,29.5 27.6017878,29.7238576 27.6017878,30 C27.6017878,30.2761424 27.3779302,30.5 27.1017878,30.5 L3,30.5 Z" id="Path-39-Copy-4"></path>
                                    <path d="M3,18.5 C2.72385763,18.5 2.5,18.2761424 2.5,18 C2.5,17.7238576 2.72385763,17.5 3,17.5 L26.5109488,17.5 C26.7870912,17.5 27.0109488,17.7238576 27.0109488,18 C27.0109488,18.2761424 26.7870912,18.5 26.5109488,18.5 L3,18.5 Z" id="Path-39-Copy"></path>
                                    <path d="M3,34.5 C2.72385763,34.5 2.5,34.2761424 2.5,34 C2.5,33.7238576 2.72385763,33.5 3,33.5 L27.1017878,33.5 C27.3779302,33.5 27.6017878,33.7238576 27.6017878,34 C27.6017878,34.2761424 27.3779302,34.5 27.1017878,34.5 L3,34.5 Z" id="Path-39-Copy-6"></path>
                                    <path d="M3,22.5 C2.72385763,22.5 2.5,22.2761424 2.5,22 C2.5,21.7238576 2.72385763,21.5 3,21.5 L26.517466,21.5 C26.7936084,21.5 27.017466,21.7238576 27.017466,22 C27.017466,22.2761424 26.7936084,22.5 26.517466,22.5 L3,22.5 Z" id="Path-39-Copy-2"></path>
                                    <path d="M12,10.5 C11.7238576,10.5 11.5,10.2761424 11.5,10 C11.5,9.72385763 11.7238576,9.5 12,9.5 L26.5696841,9.5 C26.8458264,9.5 27.0696841,9.72385763 27.0696841,10 C27.0696841,10.2761424 26.8458264,10.5 26.5696841,10.5 L12,10.5 Z" id="Path-39"></path>
                                    <path d="M12.0033451,2.49998881 C11.7272089,2.50183625 11.5018586,2.27948128 11.5000112,2.00334509 C11.4981637,1.72720889 11.7205187,1.50185863 11.9966549,1.50001119 L26.5674654,1.40252771 C26.8436016,1.40068027 27.0689519,1.62303524 27.0707993,1.89917143 C27.0726467,2.17530763 26.8502918,2.40065789 26.5741556,2.40250533 L12.0033451,2.49998881 Z" id="Path-39-Copy-5"></path>
                                    <path d="M12,26.5 C11.7238576,26.5 11.5,26.2761424 11.5,26 C11.5,25.7238576 11.7238576,25.5 12,25.5 L26.52342,25.5 C26.7995624,25.5 27.02342,25.7238576 27.02342,26 C27.02342,26.2761424 26.7995624,26.5 26.52342,26.5 L12,26.5 Z" id="Path-39-Copy-3"></path>
                                    <path d="M0.495157806,14.5 C0.219015431,14.5 -0.00484219402,14.2761424 -0.00484219402,14 C-0.00484219402,13.7238576 0.219015431,13.5 0.495157806,13.5 L26.5276039,13.5 C26.8037462,13.5 27.0276039,13.7238576 27.0276039,14 C27.0276039,14.2761424 26.8037462,14.5 26.5276039,14.5 L0.495157806,14.5 Z" id="Path-39"></path>
                                </g>
                            </g>
                            <g id="portfel-lewy-copy" transform="translate(57.500000, 45.000000) scale(-1, 1) translate(-57.500000, -45.000000) translate(30.000000, 23.000000)">
                                <path d="M2.92555048,8.4592086 L2.92555048,0.398026086 L45.1501193,0.00292481275 C48.3113049,-0.0377085924 50.6075348,0.345037313 52.0388089,1.15116253 C53.4700831,1.95728775 54.098564,3.29097371 53.9242516,5.15222043" id="Path-97" stroke="#1C3C55" fill="#FFFFFF"></path>
                                <path d="M1.05191722,13.7472847 L1.34298934,35.3437673 C1.40196577,39.7196018 4.9660309,43.2359551 9.34226284,43.2359551 L45.9526382,43.2359551 C50.3709162,43.2359551 53.9526382,39.6542331 53.9526382,35.2359551 L53.9526382,5.6394724 L9.05119072,5.6394724 C4.63291272,5.6394724 1.05119072,9.2211944 1.05119072,13.6394724 C1.05119072,13.675411 1.05143289,13.7113493 1.05191722,13.7472847 Z" id="Path-96" fill="#FFFFFF"></path>
                                <path d="M0.551962623,13.7540229 C0.551190716,8.94505203 4.35677034,5.1394724 9.05119072,5.1394724 L54.4526382,5.1394724 L54.4526382,35.2359551 C54.4526382,39.9303754 50.6470586,43.7359551 45.9526382,43.7359551 L9.34226284,43.7359551 C4.69251641,43.7359551 0.905697204,39.9998298 0.843034747,35.3505056 L0.551962623,13.7540229 Z M9.05119072,6.1394724 C4.90905509,6.1394724 1.55119072,9.49733677 1.55119072,13.6394724 C1.55126639,13.6731647 1.64851747,20.9056836 1.84294393,35.337029 C1.89823434,39.4393739 5.2395454,42.7359551 9.34226284,42.7359551 L45.9526382,42.7359551 C50.0947739,42.7359551 53.4526382,39.3780907 53.4526382,35.2359551 L53.4526382,6.1394724 L9.05119072,6.1394724 Z" id="Path-96" fill="#1C3C55" fill-rule="nonzero"></path>
                                <g id="Group-3" transform="translate(8.867179, 22.757450) rotate(180.000000) translate(-8.867179, -22.757450) translate(0.367179, 18.257450)" stroke="#1C3C55">
                                    <path d="M0.5,0.5 L0.5,7.9592086 L12.0100325,7.9592086 C14.0698361,7.9592086 15.7396368,6.28940788 15.7396368,4.2296043 C15.7396368,2.16980072 14.0698361,0.5 12.0100325,0.5 L0.5,0.5 Z" id="Rectangle-9" transform="translate(8.119818, 4.229604) rotate(180.000000) translate(-8.119818, -4.229604) "></path>
                                    <ellipse id="Oval" cx="4.36458109" cy="4.2296043" rx="2.18229055" ry="2.11480215"></ellipse>
                                </g>
                            </g>
                        </g>
                        <g id="Group-5" stroke-width="1" fill-rule="evenodd" transform="translate(41.000000, 17.000000)">
                            <g id="history-copy-3">
                                <rect id="Rectangle" fill="#F9F9F9" x="0" y="0" width="55" height="64" rx="6"></rect>
                                <path d="M16.3104389,12.4135314 L16.3104389,9.27866667 L13.1755743,9.27866667 L13.1755743,12.4135314 L12,12.4135314 L12,5.15886139 L13.1755743,5.15886139 L13.1755743,8.25136304 L16.3104389,8.25136304 L16.3104389,5.15886139 L17.496604,5.15886139 L17.496604,12.4135314 L16.3104389,12.4135314 Z M19.0216733,12.4135314 L19.0216733,7.11815182 L20.176066,7.11815182 L20.176066,12.4135314 L19.0216733,12.4135314 Z M19.0216733,6.21793729 L19.0216733,5 L20.176066,5 L20.176066,6.21793729 L19.0216733,6.21793729 Z M25.2490396,8.209 C24.4158957,8.09603134 23.8122285,8.03954785 23.4380198,8.03954785 C23.0638111,8.03954785 22.8043401,8.08367558 22.659599,8.17193234 C22.5148579,8.26018911 22.4424884,8.39963271 22.4424884,8.59026733 C22.4424884,8.78090194 22.5219183,8.91505022 22.6807805,8.99271617 C22.8396427,9.07038213 23.2138458,9.16040268 23.803401,9.26278053 C24.3929562,9.36515838 24.811287,9.52578328 25.0584059,9.74466007 C25.3055249,9.96353685 25.4290825,10.3518608 25.4290825,10.9096436 C25.4290825,11.4674263 25.2508065,11.8769316 24.8942492,12.1381716 C24.5376918,12.3994116 24.0169847,12.5300297 23.3321122,12.5300297 C22.9014192,12.5300297 22.3577657,12.470016 21.7011353,12.3499868 L21.3728218,12.297033 L21.4151848,11.3332739 C22.2624498,11.4462426 22.8731774,11.5027261 23.2473861,11.5027261 C23.6215948,11.5027261 23.8881263,11.4568332 24.0469884,11.3650462 C24.2058506,11.2732592 24.2852805,11.1214598 24.2852805,10.9096436 C24.2852805,10.6978273 24.2093808,10.5513233 24.0575792,10.4701271 C23.9057776,10.3889308 23.5421651,10.3006754 22.966731,10.2053581 C22.3912969,10.1100408 21.9694359,9.96000652 21.7011353,9.75525083 C21.4328347,9.55049513 21.2986865,9.17629205 21.2986865,8.63263036 C21.2986865,8.08896868 21.4840229,7.68299364 21.8547013,7.41469307 C22.2253797,7.1463925 22.700194,7.01224422 23.2791584,7.01224422 C23.7310331,7.01224422 24.2852772,7.06872771 24.9419076,7.18169637 L25.2702211,7.24524092 L25.2490396,8.209 Z M29.3900264,8.10309241 L27.9285017,8.10309241 L27.9285017,10.4330594 C27.9285017,10.8637524 27.9602736,11.1497001 28.0238185,11.2909109 C28.0873634,11.4321217 28.2497534,11.5027261 28.5109934,11.5027261 L29.3794356,11.4709538 L29.4323894,12.3923498 C28.9593332,12.4841369 28.599251,12.5300297 28.352132,12.5300297 C27.751986,12.5300297 27.3407156,12.3923512 27.1183086,12.1169901 C26.8959015,11.841629 26.7846997,11.322687 26.7846997,10.5601485 L26.7846997,8.10309241 L26.1068911,8.10309241 L26.1068911,7.11815182 L26.7846997,7.11815182 L26.7846997,5.58249175 L27.9285017,5.58249175 L27.9285017,7.11815182 L29.3900264,7.11815182 L29.3900264,8.10309241 Z M30.6185545,7.69005281 C30.9857026,7.23111762 31.5929001,7.00165347 32.440165,7.00165347 C33.28743,7.00165347 33.8928623,7.23111762 34.2564802,7.69005281 C34.6200981,8.14898799 34.8019043,8.83738045 34.8019043,9.75525083 C34.8019043,10.6731212 34.6253934,11.3650439 34.2723663,11.8310396 C33.9193393,12.2970353 33.3086116,12.5300297 32.440165,12.5300297 C31.5717184,12.5300297 30.9609908,12.2970353 30.6079637,11.8310396 C30.2549366,11.3650439 30.0784257,10.6731212 30.0784257,9.75525083 C30.0784257,8.83738045 30.2584668,8.14898799 30.6185545,7.69005281 Z M31.4869967,11.1320495 C31.6493892,11.4144712 31.9671087,11.5556799 32.440165,11.5556799 C32.9132213,11.5556799 33.2309409,11.4144712 33.3933333,11.1320495 C33.5557258,10.8496279 33.6369208,10.3871693 33.6369208,9.74466007 C33.6369208,9.1021508 33.5504305,8.64675272 33.3774472,8.37845215 C33.2044639,8.11015157 32.8920397,7.9760033 32.440165,7.9760033 C31.9882904,7.9760033 31.6758661,8.11015157 31.5028828,8.37845215 C31.3298996,8.64675272 31.2434092,9.1021508 31.2434092,9.74466007 C31.2434092,10.3871693 31.3246042,10.8496279 31.4869967,11.1320495 Z M35.9457063,12.4135314 L35.9457063,7.11815182 L37.0895083,7.11815182 L37.0895083,7.75359736 C37.6896543,7.36526759 38.2897913,7.11462213 38.8899373,7.00165347 L38.8899373,8.1560462 C38.2827307,8.27607541 37.7637887,8.43140499 37.3330957,8.6220396 L37.100099,8.71735644 L37.100099,12.4135314 L35.9457063,12.4135314 Z M39.2817954,7.11815182 L40.4150066,7.11815182 L41.5376271,11.4285908 L41.8235776,11.4285908 L42.946198,7.11815182 L44.09,7.11815182 L42.0777558,14.6905446 L40.9445446,14.6905446 L41.5799901,12.4135314 L40.6691848,12.4135314 L39.2817954,7.11815182 Z" id="History" fill="#1C3C55"></path>
                                <g id="Group" transform="translate(19.000000, 36.500000) scale(-1, 1) translate(-19.000000, -36.500000) translate(5.000000, 19.000000)" fill="#979797" fill-rule="nonzero" opacity="0.5">
                                    <path d="M3,6.5 C2.72385763,6.5 2.5,6.27614237 2.5,6 C2.5,5.72385763 2.72385763,5.5 3,5.5 L26.557052,5.5 C26.8331943,5.5 27.057052,5.72385763 27.057052,6 C27.057052,6.27614237 26.8331943,6.5 26.557052,6.5 L3,6.5 Z" id="Path-39"></path>
                                    <path d="M3,30.5 C2.72385763,30.5 2.5,30.2761424 2.5,30 C2.5,29.7238576 2.72385763,29.5 3,29.5 L27.1017878,29.5 C27.3779302,29.5 27.6017878,29.7238576 27.6017878,30 C27.6017878,30.2761424 27.3779302,30.5 27.1017878,30.5 L3,30.5 Z" id="Path-39-Copy-4"></path>
                                    <path d="M3,18.5 C2.72385763,18.5 2.5,18.2761424 2.5,18 C2.5,17.7238576 2.72385763,17.5 3,17.5 L26.5109488,17.5 C26.7870912,17.5 27.0109488,17.7238576 27.0109488,18 C27.0109488,18.2761424 26.7870912,18.5 26.5109488,18.5 L3,18.5 Z" id="Path-39-Copy"></path>
                                    <path d="M3,34.5 C2.72385763,34.5 2.5,34.2761424 2.5,34 C2.5,33.7238576 2.72385763,33.5 3,33.5 L27.1017878,33.5 C27.3779302,33.5 27.6017878,33.7238576 27.6017878,34 C27.6017878,34.2761424 27.3779302,34.5 27.1017878,34.5 L3,34.5 Z" id="Path-39-Copy-6"></path>
                                    <path d="M3,22.5 C2.72385763,22.5 2.5,22.2761424 2.5,22 C2.5,21.7238576 2.72385763,21.5 3,21.5 L26.517466,21.5 C26.7936084,21.5 27.017466,21.7238576 27.017466,22 C27.017466,22.2761424 26.7936084,22.5 26.517466,22.5 L3,22.5 Z" id="Path-39-Copy-2"></path>
                                    <path d="M12,10.5 C11.7238576,10.5 11.5,10.2761424 11.5,10 C11.5,9.72385763 11.7238576,9.5 12,9.5 L26.5696841,9.5 C26.8458264,9.5 27.0696841,9.72385763 27.0696841,10 C27.0696841,10.2761424 26.8458264,10.5 26.5696841,10.5 L12,10.5 Z" id="Path-39"></path>
                                    <path d="M12.0033451,2.49998881 C11.7272089,2.50183625 11.5018586,2.27948128 11.5000112,2.00334509 C11.4981637,1.72720889 11.7205187,1.50185863 11.9966549,1.50001119 L26.5674654,1.40252771 C26.8436016,1.40068027 27.0689519,1.62303524 27.0707993,1.89917143 C27.0726467,2.17530763 26.8502918,2.40065789 26.5741556,2.40250533 L12.0033451,2.49998881 Z" id="Path-39-Copy-5"></path>
                                    <path d="M12,26.5 C11.7238576,26.5 11.5,26.2761424 11.5,26 C11.5,25.7238576 11.7238576,25.5 12,25.5 L26.52342,25.5 C26.7995624,25.5 27.02342,25.7238576 27.02342,26 C27.02342,26.2761424 26.7995624,26.5 26.52342,26.5 L12,26.5 Z" id="Path-39-Copy-3"></path>
                                    <path d="M0.495157806,14.5 C0.219015431,14.5 -0.00484219402,14.2761424 -0.00484219402,14 C-0.00484219402,13.7238576 0.219015431,13.5 0.495157806,13.5 L26.5276039,13.5 C26.8037462,13.5 27.0276039,13.7238576 27.0276039,14 C27.0276039,14.2761424 26.8037462,14.5 26.5276039,14.5 L0.495157806,14.5 Z" id="Path-39"></path>
                                </g>
                            </g>
                            <g id="portfel-lewy-copy" transform="translate(63.500000, 46.000000) scale(-1, 1) translate(-63.500000, -46.000000) translate(36.000000, 24.000000)">
                                <path d="M2.92555048,8.4592086 L2.92555048,0.398026086 L45.1501193,0.00292481275 C48.3113049,-0.0377085924 50.6075348,0.345037313 52.0388089,1.15116253 C53.4700831,1.95728775 54.098564,3.29097371 53.9242516,5.15222043" id="Path-97" fill="#FFFFFF"></path>
                                <path d="M3.42555048,0.893369404 L3.42555048,8.4592086 L2.42555048,8.4592086 L2.42555048,-0.0973172316 L2.92087212,-0.101952026 L45.1436929,-0.497033887 C48.3851042,-0.538698501 50.760256,-0.142797525 52.2841785,0.715509246 C53.8950024,1.62276087 54.614077,3.14869371 54.4220732,5.1988432 L53.42643,5.10559767 C53.583051,3.43325372 53.0451638,2.29181463 51.7934394,1.58681581 C50.4548135,0.832872152 48.2375056,0.463281316 45.1547976,0.502902925 L3.42555048,0.893369404 Z" id="Path-97" fill="#1C3C55" fill-rule="nonzero"></path>
                                <path d="M1.05191722,13.7472847 L1.34298934,35.3437673 C1.40196577,39.7196018 4.9660309,43.2359551 9.34226284,43.2359551 L45.9526382,43.2359551 C50.3709162,43.2359551 53.9526382,39.6542331 53.9526382,35.2359551 L53.9526382,5.6394724 L9.05119072,5.6394724 C4.63291272,5.6394724 1.05119072,9.2211944 1.05119072,13.6394724 C1.05119072,13.675411 1.05143289,13.7113493 1.05191722,13.7472847 Z" id="Path-96" fill="#FFFFFF"></path>
                                <path d="M0.551962623,13.7540229 C0.551190716,8.94505203 4.35677034,5.1394724 9.05119072,5.1394724 L54.4526382,5.1394724 L54.4526382,35.2359551 C54.4526382,39.9303754 50.6470586,43.7359551 45.9526382,43.7359551 L9.34226284,43.7359551 C4.69251641,43.7359551 0.905697204,39.9998298 0.843034747,35.3505056 L0.551962623,13.7540229 Z M53.4526382,6.1394724 L9.05119072,6.1394724 C4.90905509,6.1394724 1.55119072,9.49733677 1.55119072,13.6394724 C1.55126639,13.6731647 1.64851747,20.9056836 1.84294393,35.337029 C1.89823434,39.4393739 5.2395454,42.7359551 9.34226284,42.7359551 L45.9526382,42.7359551 C50.0947739,42.7359551 53.4526382,39.3780907 53.4526382,35.2359551 L53.4526382,6.1394724 Z" id="Path-96" fill="#1C3C55" fill-rule="nonzero"></path>
                                <g id="Group-3" transform="translate(8.867179, 22.757450) rotate(180.000000) translate(-8.867179, -22.757450) translate(0.367179, 18.257450)" stroke="#1C3C55">
                                    <path d="M0.505732108,0.5 L0.590761462,7.9592086 L12.4083568,7.9592086 C14.4681604,7.9592086 16.1379611,6.28940788 16.1379611,4.2296043 C16.1379611,2.16980072 14.4681604,0.5 12.4083568,0.5 L0.505732108,0.5 Z" id="Rectangle-9" transform="translate(8.318981, 4.229604) rotate(180.000000) translate(-8.318981, -4.229604) "></path>
                                    <ellipse id="Oval" cx="4.36458109" cy="4.2296043" rx="2.18229055" ry="2.11480215"></ellipse>
                                </g>
                            </g>
                        </g>
                        <g id="Group-5-Copy" stroke-width="1" fill-rule="evenodd" transform="translate(193.000000, 272.000000)">
                            <g id="history-copy-3">
                                <rect id="Rectangle" fill="#F9F9F9" x="0" y="0" width="55" height="64" rx="6"></rect>
                                <path d="M16.3104389,12.4135314 L16.3104389,9.27866667 L13.1755743,9.27866667 L13.1755743,12.4135314 L12,12.4135314 L12,5.15886139 L13.1755743,5.15886139 L13.1755743,8.25136304 L16.3104389,8.25136304 L16.3104389,5.15886139 L17.496604,5.15886139 L17.496604,12.4135314 L16.3104389,12.4135314 Z M19.0216733,12.4135314 L19.0216733,7.11815182 L20.176066,7.11815182 L20.176066,12.4135314 L19.0216733,12.4135314 Z M19.0216733,6.21793729 L19.0216733,5 L20.176066,5 L20.176066,6.21793729 L19.0216733,6.21793729 Z M25.2490396,8.209 C24.4158957,8.09603134 23.8122285,8.03954785 23.4380198,8.03954785 C23.0638111,8.03954785 22.8043401,8.08367558 22.659599,8.17193234 C22.5148579,8.26018911 22.4424884,8.39963271 22.4424884,8.59026733 C22.4424884,8.78090194 22.5219183,8.91505022 22.6807805,8.99271617 C22.8396427,9.07038213 23.2138458,9.16040268 23.803401,9.26278053 C24.3929562,9.36515838 24.811287,9.52578328 25.0584059,9.74466007 C25.3055249,9.96353685 25.4290825,10.3518608 25.4290825,10.9096436 C25.4290825,11.4674263 25.2508065,11.8769316 24.8942492,12.1381716 C24.5376918,12.3994116 24.0169847,12.5300297 23.3321122,12.5300297 C22.9014192,12.5300297 22.3577657,12.470016 21.7011353,12.3499868 L21.3728218,12.297033 L21.4151848,11.3332739 C22.2624498,11.4462426 22.8731774,11.5027261 23.2473861,11.5027261 C23.6215948,11.5027261 23.8881263,11.4568332 24.0469884,11.3650462 C24.2058506,11.2732592 24.2852805,11.1214598 24.2852805,10.9096436 C24.2852805,10.6978273 24.2093808,10.5513233 24.0575792,10.4701271 C23.9057776,10.3889308 23.5421651,10.3006754 22.966731,10.2053581 C22.3912969,10.1100408 21.9694359,9.96000652 21.7011353,9.75525083 C21.4328347,9.55049513 21.2986865,9.17629205 21.2986865,8.63263036 C21.2986865,8.08896868 21.4840229,7.68299364 21.8547013,7.41469307 C22.2253797,7.1463925 22.700194,7.01224422 23.2791584,7.01224422 C23.7310331,7.01224422 24.2852772,7.06872771 24.9419076,7.18169637 L25.2702211,7.24524092 L25.2490396,8.209 Z M29.3900264,8.10309241 L27.9285017,8.10309241 L27.9285017,10.4330594 C27.9285017,10.8637524 27.9602736,11.1497001 28.0238185,11.2909109 C28.0873634,11.4321217 28.2497534,11.5027261 28.5109934,11.5027261 L29.3794356,11.4709538 L29.4323894,12.3923498 C28.9593332,12.4841369 28.599251,12.5300297 28.352132,12.5300297 C27.751986,12.5300297 27.3407156,12.3923512 27.1183086,12.1169901 C26.8959015,11.841629 26.7846997,11.322687 26.7846997,10.5601485 L26.7846997,8.10309241 L26.1068911,8.10309241 L26.1068911,7.11815182 L26.7846997,7.11815182 L26.7846997,5.58249175 L27.9285017,5.58249175 L27.9285017,7.11815182 L29.3900264,7.11815182 L29.3900264,8.10309241 Z M30.6185545,7.69005281 C30.9857026,7.23111762 31.5929001,7.00165347 32.440165,7.00165347 C33.28743,7.00165347 33.8928623,7.23111762 34.2564802,7.69005281 C34.6200981,8.14898799 34.8019043,8.83738045 34.8019043,9.75525083 C34.8019043,10.6731212 34.6253934,11.3650439 34.2723663,11.8310396 C33.9193393,12.2970353 33.3086116,12.5300297 32.440165,12.5300297 C31.5717184,12.5300297 30.9609908,12.2970353 30.6079637,11.8310396 C30.2549366,11.3650439 30.0784257,10.6731212 30.0784257,9.75525083 C30.0784257,8.83738045 30.2584668,8.14898799 30.6185545,7.69005281 Z M31.4869967,11.1320495 C31.6493892,11.4144712 31.9671087,11.5556799 32.440165,11.5556799 C32.9132213,11.5556799 33.2309409,11.4144712 33.3933333,11.1320495 C33.5557258,10.8496279 33.6369208,10.3871693 33.6369208,9.74466007 C33.6369208,9.1021508 33.5504305,8.64675272 33.3774472,8.37845215 C33.2044639,8.11015157 32.8920397,7.9760033 32.440165,7.9760033 C31.9882904,7.9760033 31.6758661,8.11015157 31.5028828,8.37845215 C31.3298996,8.64675272 31.2434092,9.1021508 31.2434092,9.74466007 C31.2434092,10.3871693 31.3246042,10.8496279 31.4869967,11.1320495 Z M35.9457063,12.4135314 L35.9457063,7.11815182 L37.0895083,7.11815182 L37.0895083,7.75359736 C37.6896543,7.36526759 38.2897913,7.11462213 38.8899373,7.00165347 L38.8899373,8.1560462 C38.2827307,8.27607541 37.7637887,8.43140499 37.3330957,8.6220396 L37.100099,8.71735644 L37.100099,12.4135314 L35.9457063,12.4135314 Z M39.2817954,7.11815182 L40.4150066,7.11815182 L41.5376271,11.4285908 L41.8235776,11.4285908 L42.946198,7.11815182 L44.09,7.11815182 L42.0777558,14.6905446 L40.9445446,14.6905446 L41.5799901,12.4135314 L40.6691848,12.4135314 L39.2817954,7.11815182 Z" id="History" fill="#1C3C55"></path>
                                <g id="Group" transform="translate(19.000000, 36.500000) scale(-1, 1) translate(-19.000000, -36.500000) translate(5.000000, 19.000000)" fill="#979797" fill-rule="nonzero" opacity="0.5">
                                    <path d="M3,6.5 C2.72385763,6.5 2.5,6.27614237 2.5,6 C2.5,5.72385763 2.72385763,5.5 3,5.5 L26.557052,5.5 C26.8331943,5.5 27.057052,5.72385763 27.057052,6 C27.057052,6.27614237 26.8331943,6.5 26.557052,6.5 L3,6.5 Z" id="Path-39"></path>
                                    <path d="M3,30.5 C2.72385763,30.5 2.5,30.2761424 2.5,30 C2.5,29.7238576 2.72385763,29.5 3,29.5 L27.1017878,29.5 C27.3779302,29.5 27.6017878,29.7238576 27.6017878,30 C27.6017878,30.2761424 27.3779302,30.5 27.1017878,30.5 L3,30.5 Z" id="Path-39-Copy-4"></path>
                                    <path d="M3,18.5 C2.72385763,18.5 2.5,18.2761424 2.5,18 C2.5,17.7238576 2.72385763,17.5 3,17.5 L26.5109488,17.5 C26.7870912,17.5 27.0109488,17.7238576 27.0109488,18 C27.0109488,18.2761424 26.7870912,18.5 26.5109488,18.5 L3,18.5 Z" id="Path-39-Copy"></path>
                                    <path d="M3,34.5 C2.72385763,34.5 2.5,34.2761424 2.5,34 C2.5,33.7238576 2.72385763,33.5 3,33.5 L27.1017878,33.5 C27.3779302,33.5 27.6017878,33.7238576 27.6017878,34 C27.6017878,34.2761424 27.3779302,34.5 27.1017878,34.5 L3,34.5 Z" id="Path-39-Copy-6"></path>
                                    <path d="M3,22.5 C2.72385763,22.5 2.5,22.2761424 2.5,22 C2.5,21.7238576 2.72385763,21.5 3,21.5 L26.517466,21.5 C26.7936084,21.5 27.017466,21.7238576 27.017466,22 C27.017466,22.2761424 26.7936084,22.5 26.517466,22.5 L3,22.5 Z" id="Path-39-Copy-2"></path>
                                    <path d="M12,10.5 C11.7238576,10.5 11.5,10.2761424 11.5,10 C11.5,9.72385763 11.7238576,9.5 12,9.5 L26.5696841,9.5 C26.8458264,9.5 27.0696841,9.72385763 27.0696841,10 C27.0696841,10.2761424 26.8458264,10.5 26.5696841,10.5 L12,10.5 Z" id="Path-39"></path>
                                    <path d="M12.0033451,2.49998881 C11.7272089,2.50183625 11.5018586,2.27948128 11.5000112,2.00334509 C11.4981637,1.72720889 11.7205187,1.50185863 11.9966549,1.50001119 L26.5674654,1.40252771 C26.8436016,1.40068027 27.0689519,1.62303524 27.0707993,1.89917143 C27.0726467,2.17530763 26.8502918,2.40065789 26.5741556,2.40250533 L12.0033451,2.49998881 Z" id="Path-39-Copy-5"></path>
                                    <path d="M12,26.5 C11.7238576,26.5 11.5,26.2761424 11.5,26 C11.5,25.7238576 11.7238576,25.5 12,25.5 L26.52342,25.5 C26.7995624,25.5 27.02342,25.7238576 27.02342,26 C27.02342,26.2761424 26.7995624,26.5 26.52342,26.5 L12,26.5 Z" id="Path-39-Copy-3"></path>
                                    <path d="M0.495157806,14.5 C0.219015431,14.5 -0.00484219402,14.2761424 -0.00484219402,14 C-0.00484219402,13.7238576 0.219015431,13.5 0.495157806,13.5 L26.5276039,13.5 C26.8037462,13.5 27.0276039,13.7238576 27.0276039,14 C27.0276039,14.2761424 26.8037462,14.5 26.5276039,14.5 L0.495157806,14.5 Z" id="Path-39"></path>
                                </g>
                            </g>
                            <g id="portfel-lewy-copy" transform="translate(63.500000, 46.000000) scale(-1, 1) translate(-63.500000, -46.000000) translate(36.000000, 24.000000)">
                                <path d="M2.92555048,8.4592086 L2.92555048,0.398026086 L45.1501193,0.00292481275 C48.3113049,-0.0377085924 50.6075348,0.345037313 52.0388089,1.15116253 C53.4700831,1.95728775 54.098564,3.29097371 53.9242516,5.15222043" id="Path-97" fill="#FFFFFF"></path>
                                <path d="M3.42555048,0.893369404 L3.42555048,8.4592086 L2.42555048,8.4592086 L2.42555048,-0.0973172316 L2.92087212,-0.101952026 L45.1436929,-0.497033887 C48.3851042,-0.538698501 50.760256,-0.142797525 52.2841785,0.715509246 C53.8950024,1.62276087 54.614077,3.14869371 54.4220732,5.1988432 L53.42643,5.10559767 C53.583051,3.43325372 53.0451638,2.29181463 51.7934394,1.58681581 C50.4548135,0.832872152 48.2375056,0.463281316 45.1547976,0.502902925 L3.42555048,0.893369404 Z" id="Path-97" fill="#1C3C55" fill-rule="nonzero"></path>
                                <path d="M1.05191722,13.7472847 L1.34298934,35.3437673 C1.40196577,39.7196018 4.9660309,43.2359551 9.34226284,43.2359551 L45.9526382,43.2359551 C50.3709162,43.2359551 53.9526382,39.6542331 53.9526382,35.2359551 L53.9526382,5.6394724 L9.05119072,5.6394724 C4.63291272,5.6394724 1.05119072,9.2211944 1.05119072,13.6394724 C1.05119072,13.675411 1.05143289,13.7113493 1.05191722,13.7472847 Z" id="Path-96" fill="#FFFFFF"></path>
                                <path d="M0.551962623,13.7540229 C0.551190716,8.94505203 4.35677034,5.1394724 9.05119072,5.1394724 L54.4526382,5.1394724 L54.4526382,35.2359551 C54.4526382,39.9303754 50.6470586,43.7359551 45.9526382,43.7359551 L9.34226284,43.7359551 C4.69251641,43.7359551 0.905697204,39.9998298 0.843034747,35.3505056 L0.551962623,13.7540229 Z M53.4526382,6.1394724 L9.05119072,6.1394724 C4.90905509,6.1394724 1.55119072,9.49733677 1.55119072,13.6394724 C1.55126639,13.6731647 1.64851747,20.9056836 1.84294393,35.337029 C1.89823434,39.4393739 5.2395454,42.7359551 9.34226284,42.7359551 L45.9526382,42.7359551 C50.0947739,42.7359551 53.4526382,39.3780907 53.4526382,35.2359551 L53.4526382,6.1394724 Z" id="Path-96" fill="#1C3C55" fill-rule="nonzero"></path>
                                <g id="Group-3" transform="translate(8.867179, 22.757450) rotate(180.000000) translate(-8.867179, -22.757450) translate(0.367179, 18.257450)" stroke="#1C3C55">
                                    <path d="M0.505732108,0.5 L0.590761462,7.9592086 L12.4083568,7.9592086 C14.4681604,7.9592086 16.1379611,6.28940788 16.1379611,4.2296043 C16.1379611,2.16980072 14.4681604,0.5 12.4083568,0.5 L0.505732108,0.5 Z" id="Rectangle-9" transform="translate(8.318981, 4.229604) rotate(180.000000) translate(-8.318981, -4.229604) "></path>
                                    <ellipse id="Oval" cx="4.36458109" cy="4.2296043" rx="2.18229055" ry="2.11480215"></ellipse>
                                </g>
                            </g>
                        </g>
                        <g id="Group-5-Copy-2" stroke-width="1" fill-rule="evenodd" transform="translate(324.000000, 221.000000)">
                            <g id="history-copy-3">
                                <rect id="Rectangle" fill="#F9F9F9" x="0" y="0" width="55" height="64" rx="6"></rect>
                                <path d="M16.3104389,12.4135314 L16.3104389,9.27866667 L13.1755743,9.27866667 L13.1755743,12.4135314 L12,12.4135314 L12,5.15886139 L13.1755743,5.15886139 L13.1755743,8.25136304 L16.3104389,8.25136304 L16.3104389,5.15886139 L17.496604,5.15886139 L17.496604,12.4135314 L16.3104389,12.4135314 Z M19.0216733,12.4135314 L19.0216733,7.11815182 L20.176066,7.11815182 L20.176066,12.4135314 L19.0216733,12.4135314 Z M19.0216733,6.21793729 L19.0216733,5 L20.176066,5 L20.176066,6.21793729 L19.0216733,6.21793729 Z M25.2490396,8.209 C24.4158957,8.09603134 23.8122285,8.03954785 23.4380198,8.03954785 C23.0638111,8.03954785 22.8043401,8.08367558 22.659599,8.17193234 C22.5148579,8.26018911 22.4424884,8.39963271 22.4424884,8.59026733 C22.4424884,8.78090194 22.5219183,8.91505022 22.6807805,8.99271617 C22.8396427,9.07038213 23.2138458,9.16040268 23.803401,9.26278053 C24.3929562,9.36515838 24.811287,9.52578328 25.0584059,9.74466007 C25.3055249,9.96353685 25.4290825,10.3518608 25.4290825,10.9096436 C25.4290825,11.4674263 25.2508065,11.8769316 24.8942492,12.1381716 C24.5376918,12.3994116 24.0169847,12.5300297 23.3321122,12.5300297 C22.9014192,12.5300297 22.3577657,12.470016 21.7011353,12.3499868 L21.3728218,12.297033 L21.4151848,11.3332739 C22.2624498,11.4462426 22.8731774,11.5027261 23.2473861,11.5027261 C23.6215948,11.5027261 23.8881263,11.4568332 24.0469884,11.3650462 C24.2058506,11.2732592 24.2852805,11.1214598 24.2852805,10.9096436 C24.2852805,10.6978273 24.2093808,10.5513233 24.0575792,10.4701271 C23.9057776,10.3889308 23.5421651,10.3006754 22.966731,10.2053581 C22.3912969,10.1100408 21.9694359,9.96000652 21.7011353,9.75525083 C21.4328347,9.55049513 21.2986865,9.17629205 21.2986865,8.63263036 C21.2986865,8.08896868 21.4840229,7.68299364 21.8547013,7.41469307 C22.2253797,7.1463925 22.700194,7.01224422 23.2791584,7.01224422 C23.7310331,7.01224422 24.2852772,7.06872771 24.9419076,7.18169637 L25.2702211,7.24524092 L25.2490396,8.209 Z M29.3900264,8.10309241 L27.9285017,8.10309241 L27.9285017,10.4330594 C27.9285017,10.8637524 27.9602736,11.1497001 28.0238185,11.2909109 C28.0873634,11.4321217 28.2497534,11.5027261 28.5109934,11.5027261 L29.3794356,11.4709538 L29.4323894,12.3923498 C28.9593332,12.4841369 28.599251,12.5300297 28.352132,12.5300297 C27.751986,12.5300297 27.3407156,12.3923512 27.1183086,12.1169901 C26.8959015,11.841629 26.7846997,11.322687 26.7846997,10.5601485 L26.7846997,8.10309241 L26.1068911,8.10309241 L26.1068911,7.11815182 L26.7846997,7.11815182 L26.7846997,5.58249175 L27.9285017,5.58249175 L27.9285017,7.11815182 L29.3900264,7.11815182 L29.3900264,8.10309241 Z M30.6185545,7.69005281 C30.9857026,7.23111762 31.5929001,7.00165347 32.440165,7.00165347 C33.28743,7.00165347 33.8928623,7.23111762 34.2564802,7.69005281 C34.6200981,8.14898799 34.8019043,8.83738045 34.8019043,9.75525083 C34.8019043,10.6731212 34.6253934,11.3650439 34.2723663,11.8310396 C33.9193393,12.2970353 33.3086116,12.5300297 32.440165,12.5300297 C31.5717184,12.5300297 30.9609908,12.2970353 30.6079637,11.8310396 C30.2549366,11.3650439 30.0784257,10.6731212 30.0784257,9.75525083 C30.0784257,8.83738045 30.2584668,8.14898799 30.6185545,7.69005281 Z M31.4869967,11.1320495 C31.6493892,11.4144712 31.9671087,11.5556799 32.440165,11.5556799 C32.9132213,11.5556799 33.2309409,11.4144712 33.3933333,11.1320495 C33.5557258,10.8496279 33.6369208,10.3871693 33.6369208,9.74466007 C33.6369208,9.1021508 33.5504305,8.64675272 33.3774472,8.37845215 C33.2044639,8.11015157 32.8920397,7.9760033 32.440165,7.9760033 C31.9882904,7.9760033 31.6758661,8.11015157 31.5028828,8.37845215 C31.3298996,8.64675272 31.2434092,9.1021508 31.2434092,9.74466007 C31.2434092,10.3871693 31.3246042,10.8496279 31.4869967,11.1320495 Z M35.9457063,12.4135314 L35.9457063,7.11815182 L37.0895083,7.11815182 L37.0895083,7.75359736 C37.6896543,7.36526759 38.2897913,7.11462213 38.8899373,7.00165347 L38.8899373,8.1560462 C38.2827307,8.27607541 37.7637887,8.43140499 37.3330957,8.6220396 L37.100099,8.71735644 L37.100099,12.4135314 L35.9457063,12.4135314 Z M39.2817954,7.11815182 L40.4150066,7.11815182 L41.5376271,11.4285908 L41.8235776,11.4285908 L42.946198,7.11815182 L44.09,7.11815182 L42.0777558,14.6905446 L40.9445446,14.6905446 L41.5799901,12.4135314 L40.6691848,12.4135314 L39.2817954,7.11815182 Z" id="History" fill="#1C3C55"></path>
                                <g id="Group" transform="translate(19.000000, 36.500000) scale(-1, 1) translate(-19.000000, -36.500000) translate(5.000000, 19.000000)" fill="#979797" fill-rule="nonzero" opacity="0.5">
                                    <path d="M3,6.5 C2.72385763,6.5 2.5,6.27614237 2.5,6 C2.5,5.72385763 2.72385763,5.5 3,5.5 L26.557052,5.5 C26.8331943,5.5 27.057052,5.72385763 27.057052,6 C27.057052,6.27614237 26.8331943,6.5 26.557052,6.5 L3,6.5 Z" id="Path-39"></path>
                                    <path d="M3,30.5 C2.72385763,30.5 2.5,30.2761424 2.5,30 C2.5,29.7238576 2.72385763,29.5 3,29.5 L27.1017878,29.5 C27.3779302,29.5 27.6017878,29.7238576 27.6017878,30 C27.6017878,30.2761424 27.3779302,30.5 27.1017878,30.5 L3,30.5 Z" id="Path-39-Copy-4"></path>
                                    <path d="M3,18.5 C2.72385763,18.5 2.5,18.2761424 2.5,18 C2.5,17.7238576 2.72385763,17.5 3,17.5 L26.5109488,17.5 C26.7870912,17.5 27.0109488,17.7238576 27.0109488,18 C27.0109488,18.2761424 26.7870912,18.5 26.5109488,18.5 L3,18.5 Z" id="Path-39-Copy"></path>
                                    <path d="M3,34.5 C2.72385763,34.5 2.5,34.2761424 2.5,34 C2.5,33.7238576 2.72385763,33.5 3,33.5 L27.1017878,33.5 C27.3779302,33.5 27.6017878,33.7238576 27.6017878,34 C27.6017878,34.2761424 27.3779302,34.5 27.1017878,34.5 L3,34.5 Z" id="Path-39-Copy-6"></path>
                                    <path d="M3,22.5 C2.72385763,22.5 2.5,22.2761424 2.5,22 C2.5,21.7238576 2.72385763,21.5 3,21.5 L26.517466,21.5 C26.7936084,21.5 27.017466,21.7238576 27.017466,22 C27.017466,22.2761424 26.7936084,22.5 26.517466,22.5 L3,22.5 Z" id="Path-39-Copy-2"></path>
                                    <path d="M12,10.5 C11.7238576,10.5 11.5,10.2761424 11.5,10 C11.5,9.72385763 11.7238576,9.5 12,9.5 L26.5696841,9.5 C26.8458264,9.5 27.0696841,9.72385763 27.0696841,10 C27.0696841,10.2761424 26.8458264,10.5 26.5696841,10.5 L12,10.5 Z" id="Path-39"></path>
                                    <path d="M12.0033451,2.49998881 C11.7272089,2.50183625 11.5018586,2.27948128 11.5000112,2.00334509 C11.4981637,1.72720889 11.7205187,1.50185863 11.9966549,1.50001119 L26.5674654,1.40252771 C26.8436016,1.40068027 27.0689519,1.62303524 27.0707993,1.89917143 C27.0726467,2.17530763 26.8502918,2.40065789 26.5741556,2.40250533 L12.0033451,2.49998881 Z" id="Path-39-Copy-5"></path>
                                    <path d="M12,26.5 C11.7238576,26.5 11.5,26.2761424 11.5,26 C11.5,25.7238576 11.7238576,25.5 12,25.5 L26.52342,25.5 C26.7995624,25.5 27.02342,25.7238576 27.02342,26 C27.02342,26.2761424 26.7995624,26.5 26.52342,26.5 L12,26.5 Z" id="Path-39-Copy-3"></path>
                                    <path d="M0.495157806,14.5 C0.219015431,14.5 -0.00484219402,14.2761424 -0.00484219402,14 C-0.00484219402,13.7238576 0.219015431,13.5 0.495157806,13.5 L26.5276039,13.5 C26.8037462,13.5 27.0276039,13.7238576 27.0276039,14 C27.0276039,14.2761424 26.8037462,14.5 26.5276039,14.5 L0.495157806,14.5 Z" id="Path-39"></path>
                                </g>
                            </g>
                            <g id="portfel-lewy-copy" transform="translate(63.500000, 46.000000) scale(-1, 1) translate(-63.500000, -46.000000) translate(36.000000, 24.000000)">
                                <path d="M2.92555048,8.4592086 L2.92555048,0.398026086 L45.1501193,0.00292481275 C48.3113049,-0.0377085924 50.6075348,0.345037313 52.0388089,1.15116253 C53.4700831,1.95728775 54.098564,3.29097371 53.9242516,5.15222043" id="Path-97" fill="#FFFFFF"></path>
                                <path d="M3.42555048,0.893369404 L3.42555048,8.4592086 L2.42555048,8.4592086 L2.42555048,-0.0973172316 L2.92087212,-0.101952026 L45.1436929,-0.497033887 C48.3851042,-0.538698501 50.760256,-0.142797525 52.2841785,0.715509246 C53.8950024,1.62276087 54.614077,3.14869371 54.4220732,5.1988432 L53.42643,5.10559767 C53.583051,3.43325372 53.0451638,2.29181463 51.7934394,1.58681581 C50.4548135,0.832872152 48.2375056,0.463281316 45.1547976,0.502902925 L3.42555048,0.893369404 Z" id="Path-97" fill="#1C3C55" fill-rule="nonzero"></path>
                                <path d="M1.05191722,13.7472847 L1.34298934,35.3437673 C1.40196577,39.7196018 4.9660309,43.2359551 9.34226284,43.2359551 L45.9526382,43.2359551 C50.3709162,43.2359551 53.9526382,39.6542331 53.9526382,35.2359551 L53.9526382,5.6394724 L9.05119072,5.6394724 C4.63291272,5.6394724 1.05119072,9.2211944 1.05119072,13.6394724 C1.05119072,13.675411 1.05143289,13.7113493 1.05191722,13.7472847 Z" id="Path-96" fill="#FFFFFF"></path>
                                <path d="M0.551962623,13.7540229 C0.551190716,8.94505203 4.35677034,5.1394724 9.05119072,5.1394724 L54.4526382,5.1394724 L54.4526382,35.2359551 C54.4526382,39.9303754 50.6470586,43.7359551 45.9526382,43.7359551 L9.34226284,43.7359551 C4.69251641,43.7359551 0.905697204,39.9998298 0.843034747,35.3505056 L0.551962623,13.7540229 Z M53.4526382,6.1394724 L9.05119072,6.1394724 C4.90905509,6.1394724 1.55119072,9.49733677 1.55119072,13.6394724 C1.55126639,13.6731647 1.64851747,20.9056836 1.84294393,35.337029 C1.89823434,39.4393739 5.2395454,42.7359551 9.34226284,42.7359551 L45.9526382,42.7359551 C50.0947739,42.7359551 53.4526382,39.3780907 53.4526382,35.2359551 L53.4526382,6.1394724 Z" id="Path-96" fill="#1C3C55" fill-rule="nonzero"></path>
                                <g id="Group-3" transform="translate(8.867179, 22.757450) rotate(180.000000) translate(-8.867179, -22.757450) translate(0.367179, 18.257450)" stroke="#1C3C55">
                                    <path d="M0.505732108,0.5 L0.590761462,7.9592086 L12.4083568,7.9592086 C14.4681604,7.9592086 16.1379611,6.28940788 16.1379611,4.2296043 C16.1379611,2.16980072 14.4681604,0.5 12.4083568,0.5 L0.505732108,0.5 Z" id="Rectangle-9" transform="translate(8.318981, 4.229604) rotate(180.000000) translate(-8.318981, -4.229604) "></path>
                                    <ellipse id="Oval" cx="4.36458109" cy="4.2296043" rx="2.18229055" ry="2.11480215"></ellipse>
                                </g>
                            </g>
                        </g>
                        <g id="Group-5-Copy-3" stroke-width="1" fill-rule="evenodd" transform="translate(367.000000, 107.000000)">
                            <g id="history-copy-3">
                                <rect id="Rectangle" fill="#F9F9F9" x="0" y="0" width="55" height="64" rx="6"></rect>
                                <path d="M16.3104389,12.4135314 L16.3104389,9.27866667 L13.1755743,9.27866667 L13.1755743,12.4135314 L12,12.4135314 L12,5.15886139 L13.1755743,5.15886139 L13.1755743,8.25136304 L16.3104389,8.25136304 L16.3104389,5.15886139 L17.496604,5.15886139 L17.496604,12.4135314 L16.3104389,12.4135314 Z M19.0216733,12.4135314 L19.0216733,7.11815182 L20.176066,7.11815182 L20.176066,12.4135314 L19.0216733,12.4135314 Z M19.0216733,6.21793729 L19.0216733,5 L20.176066,5 L20.176066,6.21793729 L19.0216733,6.21793729 Z M25.2490396,8.209 C24.4158957,8.09603134 23.8122285,8.03954785 23.4380198,8.03954785 C23.0638111,8.03954785 22.8043401,8.08367558 22.659599,8.17193234 C22.5148579,8.26018911 22.4424884,8.39963271 22.4424884,8.59026733 C22.4424884,8.78090194 22.5219183,8.91505022 22.6807805,8.99271617 C22.8396427,9.07038213 23.2138458,9.16040268 23.803401,9.26278053 C24.3929562,9.36515838 24.811287,9.52578328 25.0584059,9.74466007 C25.3055249,9.96353685 25.4290825,10.3518608 25.4290825,10.9096436 C25.4290825,11.4674263 25.2508065,11.8769316 24.8942492,12.1381716 C24.5376918,12.3994116 24.0169847,12.5300297 23.3321122,12.5300297 C22.9014192,12.5300297 22.3577657,12.470016 21.7011353,12.3499868 L21.3728218,12.297033 L21.4151848,11.3332739 C22.2624498,11.4462426 22.8731774,11.5027261 23.2473861,11.5027261 C23.6215948,11.5027261 23.8881263,11.4568332 24.0469884,11.3650462 C24.2058506,11.2732592 24.2852805,11.1214598 24.2852805,10.9096436 C24.2852805,10.6978273 24.2093808,10.5513233 24.0575792,10.4701271 C23.9057776,10.3889308 23.5421651,10.3006754 22.966731,10.2053581 C22.3912969,10.1100408 21.9694359,9.96000652 21.7011353,9.75525083 C21.4328347,9.55049513 21.2986865,9.17629205 21.2986865,8.63263036 C21.2986865,8.08896868 21.4840229,7.68299364 21.8547013,7.41469307 C22.2253797,7.1463925 22.700194,7.01224422 23.2791584,7.01224422 C23.7310331,7.01224422 24.2852772,7.06872771 24.9419076,7.18169637 L25.2702211,7.24524092 L25.2490396,8.209 Z M29.3900264,8.10309241 L27.9285017,8.10309241 L27.9285017,10.4330594 C27.9285017,10.8637524 27.9602736,11.1497001 28.0238185,11.2909109 C28.0873634,11.4321217 28.2497534,11.5027261 28.5109934,11.5027261 L29.3794356,11.4709538 L29.4323894,12.3923498 C28.9593332,12.4841369 28.599251,12.5300297 28.352132,12.5300297 C27.751986,12.5300297 27.3407156,12.3923512 27.1183086,12.1169901 C26.8959015,11.841629 26.7846997,11.322687 26.7846997,10.5601485 L26.7846997,8.10309241 L26.1068911,8.10309241 L26.1068911,7.11815182 L26.7846997,7.11815182 L26.7846997,5.58249175 L27.9285017,5.58249175 L27.9285017,7.11815182 L29.3900264,7.11815182 L29.3900264,8.10309241 Z M30.6185545,7.69005281 C30.9857026,7.23111762 31.5929001,7.00165347 32.440165,7.00165347 C33.28743,7.00165347 33.8928623,7.23111762 34.2564802,7.69005281 C34.6200981,8.14898799 34.8019043,8.83738045 34.8019043,9.75525083 C34.8019043,10.6731212 34.6253934,11.3650439 34.2723663,11.8310396 C33.9193393,12.2970353 33.3086116,12.5300297 32.440165,12.5300297 C31.5717184,12.5300297 30.9609908,12.2970353 30.6079637,11.8310396 C30.2549366,11.3650439 30.0784257,10.6731212 30.0784257,9.75525083 C30.0784257,8.83738045 30.2584668,8.14898799 30.6185545,7.69005281 Z M31.4869967,11.1320495 C31.6493892,11.4144712 31.9671087,11.5556799 32.440165,11.5556799 C32.9132213,11.5556799 33.2309409,11.4144712 33.3933333,11.1320495 C33.5557258,10.8496279 33.6369208,10.3871693 33.6369208,9.74466007 C33.6369208,9.1021508 33.5504305,8.64675272 33.3774472,8.37845215 C33.2044639,8.11015157 32.8920397,7.9760033 32.440165,7.9760033 C31.9882904,7.9760033 31.6758661,8.11015157 31.5028828,8.37845215 C31.3298996,8.64675272 31.2434092,9.1021508 31.2434092,9.74466007 C31.2434092,10.3871693 31.3246042,10.8496279 31.4869967,11.1320495 Z M35.9457063,12.4135314 L35.9457063,7.11815182 L37.0895083,7.11815182 L37.0895083,7.75359736 C37.6896543,7.36526759 38.2897913,7.11462213 38.8899373,7.00165347 L38.8899373,8.1560462 C38.2827307,8.27607541 37.7637887,8.43140499 37.3330957,8.6220396 L37.100099,8.71735644 L37.100099,12.4135314 L35.9457063,12.4135314 Z M39.2817954,7.11815182 L40.4150066,7.11815182 L41.5376271,11.4285908 L41.8235776,11.4285908 L42.946198,7.11815182 L44.09,7.11815182 L42.0777558,14.6905446 L40.9445446,14.6905446 L41.5799901,12.4135314 L40.6691848,12.4135314 L39.2817954,7.11815182 Z" id="History" fill="#1C3C55"></path>
                                <g id="Group" transform="translate(19.000000, 36.500000) scale(-1, 1) translate(-19.000000, -36.500000) translate(5.000000, 19.000000)" fill="#979797" fill-rule="nonzero" opacity="0.5">
                                    <path d="M3,6.5 C2.72385763,6.5 2.5,6.27614237 2.5,6 C2.5,5.72385763 2.72385763,5.5 3,5.5 L26.557052,5.5 C26.8331943,5.5 27.057052,5.72385763 27.057052,6 C27.057052,6.27614237 26.8331943,6.5 26.557052,6.5 L3,6.5 Z" id="Path-39"></path>
                                    <path d="M3,30.5 C2.72385763,30.5 2.5,30.2761424 2.5,30 C2.5,29.7238576 2.72385763,29.5 3,29.5 L27.1017878,29.5 C27.3779302,29.5 27.6017878,29.7238576 27.6017878,30 C27.6017878,30.2761424 27.3779302,30.5 27.1017878,30.5 L3,30.5 Z" id="Path-39-Copy-4"></path>
                                    <path d="M3,18.5 C2.72385763,18.5 2.5,18.2761424 2.5,18 C2.5,17.7238576 2.72385763,17.5 3,17.5 L26.5109488,17.5 C26.7870912,17.5 27.0109488,17.7238576 27.0109488,18 C27.0109488,18.2761424 26.7870912,18.5 26.5109488,18.5 L3,18.5 Z" id="Path-39-Copy"></path>
                                    <path d="M3,34.5 C2.72385763,34.5 2.5,34.2761424 2.5,34 C2.5,33.7238576 2.72385763,33.5 3,33.5 L27.1017878,33.5 C27.3779302,33.5 27.6017878,33.7238576 27.6017878,34 C27.6017878,34.2761424 27.3779302,34.5 27.1017878,34.5 L3,34.5 Z" id="Path-39-Copy-6"></path>
                                    <path d="M3,22.5 C2.72385763,22.5 2.5,22.2761424 2.5,22 C2.5,21.7238576 2.72385763,21.5 3,21.5 L26.517466,21.5 C26.7936084,21.5 27.017466,21.7238576 27.017466,22 C27.017466,22.2761424 26.7936084,22.5 26.517466,22.5 L3,22.5 Z" id="Path-39-Copy-2"></path>
                                    <path d="M12,10.5 C11.7238576,10.5 11.5,10.2761424 11.5,10 C11.5,9.72385763 11.7238576,9.5 12,9.5 L26.5696841,9.5 C26.8458264,9.5 27.0696841,9.72385763 27.0696841,10 C27.0696841,10.2761424 26.8458264,10.5 26.5696841,10.5 L12,10.5 Z" id="Path-39"></path>
                                    <path d="M12.0033451,2.49998881 C11.7272089,2.50183625 11.5018586,2.27948128 11.5000112,2.00334509 C11.4981637,1.72720889 11.7205187,1.50185863 11.9966549,1.50001119 L26.5674654,1.40252771 C26.8436016,1.40068027 27.0689519,1.62303524 27.0707993,1.89917143 C27.0726467,2.17530763 26.8502918,2.40065789 26.5741556,2.40250533 L12.0033451,2.49998881 Z" id="Path-39-Copy-5"></path>
                                    <path d="M12,26.5 C11.7238576,26.5 11.5,26.2761424 11.5,26 C11.5,25.7238576 11.7238576,25.5 12,25.5 L26.52342,25.5 C26.7995624,25.5 27.02342,25.7238576 27.02342,26 C27.02342,26.2761424 26.7995624,26.5 26.52342,26.5 L12,26.5 Z" id="Path-39-Copy-3"></path>
                                    <path d="M0.495157806,14.5 C0.219015431,14.5 -0.00484219402,14.2761424 -0.00484219402,14 C-0.00484219402,13.7238576 0.219015431,13.5 0.495157806,13.5 L26.5276039,13.5 C26.8037462,13.5 27.0276039,13.7238576 27.0276039,14 C27.0276039,14.2761424 26.8037462,14.5 26.5276039,14.5 L0.495157806,14.5 Z" id="Path-39"></path>
                                </g>
                            </g>
                            <g id="portfel-lewy-copy" transform="translate(63.500000, 46.000000) scale(-1, 1) translate(-63.500000, -46.000000) translate(36.000000, 24.000000)">
                                <path d="M2.92555048,8.4592086 L2.92555048,0.398026086 L45.1501193,0.00292481275 C48.3113049,-0.0377085924 50.6075348,0.345037313 52.0388089,1.15116253 C53.4700831,1.95728775 54.098564,3.29097371 53.9242516,5.15222043" id="Path-97" fill="#FFFFFF"></path>
                                <path d="M3.42555048,0.893369404 L3.42555048,8.4592086 L2.42555048,8.4592086 L2.42555048,-0.0973172316 L2.92087212,-0.101952026 L45.1436929,-0.497033887 C48.3851042,-0.538698501 50.760256,-0.142797525 52.2841785,0.715509246 C53.8950024,1.62276087 54.614077,3.14869371 54.4220732,5.1988432 L53.42643,5.10559767 C53.583051,3.43325372 53.0451638,2.29181463 51.7934394,1.58681581 C50.4548135,0.832872152 48.2375056,0.463281316 45.1547976,0.502902925 L3.42555048,0.893369404 Z" id="Path-97" fill="#1C3C55" fill-rule="nonzero"></path>
                                <path d="M1.05191722,13.7472847 L1.34298934,35.3437673 C1.40196577,39.7196018 4.9660309,43.2359551 9.34226284,43.2359551 L45.9526382,43.2359551 C50.3709162,43.2359551 53.9526382,39.6542331 53.9526382,35.2359551 L53.9526382,5.6394724 L9.05119072,5.6394724 C4.63291272,5.6394724 1.05119072,9.2211944 1.05119072,13.6394724 C1.05119072,13.675411 1.05143289,13.7113493 1.05191722,13.7472847 Z" id="Path-96" fill="#FFFFFF"></path>
                                <path d="M0.551962623,13.7540229 C0.551190716,8.94505203 4.35677034,5.1394724 9.05119072,5.1394724 L54.4526382,5.1394724 L54.4526382,35.2359551 C54.4526382,39.9303754 50.6470586,43.7359551 45.9526382,43.7359551 L9.34226284,43.7359551 C4.69251641,43.7359551 0.905697204,39.9998298 0.843034747,35.3505056 L0.551962623,13.7540229 Z M53.4526382,6.1394724 L9.05119072,6.1394724 C4.90905509,6.1394724 1.55119072,9.49733677 1.55119072,13.6394724 C1.55126639,13.6731647 1.64851747,20.9056836 1.84294393,35.337029 C1.89823434,39.4393739 5.2395454,42.7359551 9.34226284,42.7359551 L45.9526382,42.7359551 C50.0947739,42.7359551 53.4526382,39.3780907 53.4526382,35.2359551 L53.4526382,6.1394724 Z" id="Path-96" fill="#1C3C55" fill-rule="nonzero"></path>
                                <g id="Group-3" transform="translate(8.867179, 22.757450) rotate(180.000000) translate(-8.867179, -22.757450) translate(0.367179, 18.257450)" stroke="#1C3C55">
                                    <path d="M0.505732108,0.5 L0.590761462,7.9592086 L12.4083568,7.9592086 C14.4681604,7.9592086 16.1379611,6.28940788 16.1379611,4.2296043 C16.1379611,2.16980072 14.4681604,0.5 12.4083568,0.5 L0.505732108,0.5 Z" id="Rectangle-9" transform="translate(8.318981, 4.229604) rotate(180.000000) translate(-8.318981, -4.229604) "></path>
                                    <ellipse id="Oval" cx="4.36458109" cy="4.2296043" rx="2.18229055" ry="2.11480215"></ellipse>
                                </g>
                            </g>
                        </g>
                        <polygon id="ion-ios-arrow-right---Ionicons-Copy" fill="#FF9500" fill-rule="evenodd" transform="translate(218.500000, 97.344524) rotate(90.000000) translate(-218.500000, -97.344524) " points="214.155476 90.4725008 214.828899 89.8445239 222.844524 97.3445239 214.828899 104.844524 214.156423 104.123381 221.435677 97.3353671"></polygon>
                        <polygon id="ion-ios-arrow-right---Ionicons-Copy-6" fill="#FF9500" fill-rule="evenodd" transform="translate(220.500000, 221.344524) rotate(270.000000) translate(-220.500000, -221.344524) " points="216.155476 214.472501 216.828899 213.844524 224.844524 221.344524 216.828899 228.844524 216.156423 228.123381 223.435677 221.335367"></polygon>
                        <polygon id="ion-ios-arrow-right---Ionicons-Copy-2" fill="#FF9500" fill-rule="evenodd" points="163 134.627977 163.673423 134 171.689048 141.5 163.673423 149 163.000947 148.278858 170.280201 141.490843"></polygon>
                        <polygon id="ion-ios-arrow-right---Ionicons-Copy-3" fill="#FF9500" fill-rule="evenodd" points="148 243.627977 148.673423 243 156.689048 250.5 148.673423 258 148.000947 257.278858 155.280201 250.490843"></polygon>
                        <polygon id="ion-ios-arrow-right---Ionicons-Copy-4" fill="#FF9500" fill-rule="evenodd" transform="translate(293.344524, 250.500000) rotate(180.000000) translate(-293.344524, -250.500000) " points="289 243.627977 289.673423 243 297.689048 250.5 289.673423 258 289.000947 257.278858 296.280201 250.490843"></polygon>
                        <polygon id="ion-ios-arrow-right---Ionicons-Copy-5" fill="#FF9500" fill-rule="evenodd" transform="translate(342.344524, 162.500000) rotate(180.000000) translate(-342.344524, -162.500000) " points="338 155.627977 338.673423 155 346.689048 162.5 338.673423 170 338.000947 169.278858 345.280201 162.490843"></polygon>
                    </g>
                </g>
            </g>
        </g>
    </g>
</svg>