<?xml version="1.0" encoding="UTF-8"?>
<svg width="28px" height="24px" viewBox="0 0 28 24" version="1.1" xmlns="http://www.w3.org/2000/svg" xmlns:xlink="http://www.w3.org/1999/xlink">
    <!-- Generator: Sketch 49 (51002) - http://www.bohemiancoding.com/sketch -->
    <title>icon/Web</title>
    <desc>Created with Sketch.</desc>
    <defs></defs>
    <g id="Choose-Your-wallet" stroke="none" stroke-width="1" fill="none" fill-rule="evenodd">
        <g id="Bitcoin.org--Choose-Your-wallet--Step1-Mobile-320px" transform="translate(-221.000000, -543.000000)" fill-rule="nonzero">
            <g id="//Content" transform="translate(0.000000, 342.000000)">
                <g id="Step-1">
                    <g id="Container" transform="translate(165.000000, 178.000000)">
                        <g id="icon/Web" transform="translate(55.000000, 20.000000)">
                            <polygon id="Path-3" fill="#95AABF" points="1.98632812 11.2070312 1.98632812 10.2070312 28.2584762 10.2070312 28.2584762 11.2070312"></polygon>
                            <path d="M28.5,24 C28.5,25.3807119 27.3807119,26.5 26,26.5 L4,26.5 C2.61928813,26.5 1.5,25.3807119 1.5,24 L1.5,6 C1.5,4.61928813 2.61928813,3.5 4,3.5 L26,3.5 C27.3807119,3.5 28.5,4.61928813 28.5,6 L28.5,24 Z M27.5,24 L27.5,6 C27.5,5.17157288 26.8284271,4.5 26,4.5 L4,4.5 C3.17157288,4.5 2.5,5.17157288 2.5,6 L2.5,24 C2.5,24.8284271 3.17157288,25.5 4,25.5 L26,25.5 C26.8284271,25.5 27.5,24.8284271 27.5,24 Z" id="phone_iphone---material" fill="#F7931A"></path>
                            <path d="M4.04534316,8.7108504 C3.6838661,8.35941437 3.5,7.90485652 3.5,7.37858824 C3.5,6.85139425 3.68826134,6.39346127 4.05614605,6.03551939 C4.41956405,5.68192349 4.86931935,5.5 5.37858824,5.5 C5.89259186,5.5 6.34286044,5.68931747 6.69977473,6.05614605 C7.05337063,6.41956405 7.23529412,6.86931935 7.23529412,7.37858824 C7.23529412,7.88971313 7.05188584,8.33804447 6.69496516,8.69496516 C6.33804447,9.05188584 5.88971313,9.23529412 5.37858824,9.23529412 C4.85708241,9.23529412 4.40323002,9.05879597 4.04534316,8.7108504 Z M5.98785837,7.98785837 C6.15611678,7.81959996 6.23529412,7.62605537 6.23529412,7.37858824 C6.23529412,7.12926509 6.154632,6.92985041 5.9830488,6.75350101 C5.814784,6.58056218 5.62317664,6.5 5.37858824,6.5 C5.12926509,6.5 4.92985041,6.58066212 4.75350101,6.75224532 C4.58161832,6.91948253 4.5,7.11801357 4.5,7.37858824 C4.5,7.6400886 4.57871951,7.83470072 4.74242155,7.99385548 C4.90971378,8.1565007 5.11232541,8.23529412 5.37858824,8.23529412 C5.62605537,8.23529412 5.81959996,8.15611678 5.98785837,7.98785837 Z" id="Path" fill="#95AABF"></path>
                            <path d="M9.04534316,8.7108504 C8.6838661,8.35941437 8.5,7.90485652 8.5,7.37858824 C8.5,6.85139425 8.68826134,6.39346127 9.05614605,6.03551939 C9.41956405,5.68192349 9.86931935,5.5 10.3785882,5.5 C10.8925919,5.5 11.3428604,5.68931747 11.6997747,6.05614605 C12.0533706,6.41956405 12.2352941,6.86931935 12.2352941,7.37858824 C12.2352941,7.88971313 12.0518858,8.33804447 11.6949652,8.69496516 C11.3380445,9.05188584 10.8897131,9.23529412 10.3785882,9.23529412 C9.85708241,9.23529412 9.40323002,9.05879597 9.04534316,8.7108504 Z M10.9878584,7.98785837 C11.1561168,7.81959996 11.2352941,7.62605537 11.2352941,7.37858824 C11.2352941,7.12926509 11.154632,6.92985041 10.9830488,6.75350101 C10.814784,6.58056218 10.6231766,6.5 10.3785882,6.5 C10.1292651,6.5 9.92985041,6.58066212 9.75350101,6.75224532 C9.58161832,6.91948253 9.5,7.11801357 9.5,7.37858824 C9.5,7.6400886 9.57871951,7.83470072 9.74242155,7.99385548 C9.90971378,8.1565007 10.1123254,8.23529412 10.3785882,8.23529412 C10.6260554,8.23529412 10.8196,8.15611678 10.9878584,7.98785837 Z" id="Path" fill="#95AABF"></path>
                            <path d="M14.0453432,8.7108504 C13.6838661,8.35941437 13.5,7.90485652 13.5,7.37858824 C13.5,6.85139425 13.6882613,6.39346127 14.056146,6.03551939 C14.4195641,5.68192349 14.8693194,5.5 15.3785882,5.5 C15.8925919,5.5 16.3428604,5.68931747 16.6997747,6.05614605 C17.0533706,6.41956405 17.2352941,6.86931935 17.2352941,7.37858824 C17.2352941,7.88971313 17.0518858,8.33804447 16.6949652,8.69496516 C16.3380445,9.05188584 15.8897131,9.23529412 15.3785882,9.23529412 C14.8570824,9.23529412 14.40323,9.05879597 14.0453432,8.7108504 Z M15.9878584,7.98785837 C16.1561168,7.81959996 16.2352941,7.62605537 16.2352941,7.37858824 C16.2352941,7.12926509 16.154632,6.92985041 15.9830488,6.75350101 C15.814784,6.58056218 15.6231766,6.5 15.3785882,6.5 C15.1292651,6.5 14.9298504,6.58066212 14.753501,6.75224532 C14.5816183,6.91948253 14.5,7.11801357 14.5,7.37858824 C14.5,7.6400886 14.5787195,7.83470072 14.7424215,7.99385548 C14.9097138,8.1565007 15.1123254,8.23529412 15.3785882,8.23529412 C15.6260554,8.23529412 15.8196,8.15611678 15.9878584,7.98785837 Z" id="Path" fill="#95AABF"></path>
                        </g>
                    </g>
                </g>
            </g>
        </g>
    </g>
</svg>