<?xml version="1.0" encoding="UTF-8"?>
<svg width="18px" height="29px" viewBox="0 0 18 29" version="1.1" xmlns="http://www.w3.org/2000/svg" xmlns:xlink="http://www.w3.org/1999/xlink">
    <!-- Generator: Sketch 49 (51002) - http://www.bohemiancoding.com/sketch -->
    <title>icon/Mobile</title>
    <desc>Created with Sketch.</desc>
    <defs></defs>
    <g id="Choose-Your-wallet" stroke="none" stroke-width="1" fill="none" fill-rule="evenodd">
        <g id="Bitcoin.org--Choose-Your-wallet--Step1-Mobile-320px" transform="translate(-77.000000, -540.000000)" fill-rule="nonzero">
            <g id="//Content" transform="translate(0.000000, 342.000000)">
                <g id="Step-1">
                    <g id="Container" transform="translate(15.000000, 178.000000)">
                        <g id="icon/Mobile" transform="translate(56.000000, 20.000000)">
                            <path d="M21.5,21.5625 C21.5,22.3909271 20.8284271,23.0625 20,23.0625 L10,23.0625 C9.17157288,23.0625 8.5,22.3909271 8.5,21.5625 L8.5,4 C8.5,3.17157288 9.17157288,2.5 10,2.5 L20,2.5 C20.8284271,2.5 21.5,3.17157288 21.5,4 L21.5,21.5625 Z M20.5,21.5625 L20.5,4 C20.5,3.72385763 20.2761424,3.5 20,3.5 L10,3.5 C9.72385763,3.5 9.5,3.72385763 9.5,4 L9.5,21.5625 C9.5,21.8386424 9.72385763,22.0625 10,22.0625 L20,22.0625 C20.2761424,22.0625 20.5,21.8386424 20.5,21.5625 Z" id="phone_iphone---material" fill="#95AABF"></path>
                            <path d="M23.5,26 C23.5,27.3807119 22.3807119,28.5 21,28.5 L9,28.5 C7.61928813,28.5 6.5,27.3807119 6.5,26 L6.5,3 C6.5,1.61928813 7.61928813,0.5 9,0.5 L21,0.5 C22.3807119,0.5 23.5,1.61928813 23.5,3 L23.5,26 Z M22.5,26 L22.5,3 C22.5,2.17157288 21.8284271,1.5 21,1.5 L9,1.5 C8.17157288,1.5 7.5,2.17157288 7.5,3 L7.5,26 C7.5,26.8284271 8.17157288,27.5 9,27.5 L21,27.5 C21.8284271,27.5 22.5,26.8284271 22.5,26 Z" id="phone_iphone---material" fill="#F7931A"></path>
                            <path d="M14.0453432,26.7108504 C13.6838661,26.3594144 13.5,25.9048565 13.5,25.3785882 C13.5,24.8513943 13.6882613,24.3934613 14.056146,24.0355194 C14.4195641,23.6819235 14.8693194,23.5 15.3785882,23.5 C15.8925919,23.5 16.3428604,23.6893175 16.6997747,24.056146 C17.0533706,24.4195641 17.2352941,24.8693194 17.2352941,25.3785882 C17.2352941,25.8897131 17.0518858,26.3380445 16.6949652,26.6949652 C16.3380445,27.0518858 15.8897131,27.2352941 15.3785882,27.2352941 C14.8570824,27.2352941 14.40323,27.058796 14.0453432,26.7108504 Z M15.9878584,25.9878584 C16.1561168,25.8196 16.2352941,25.6260554 16.2352941,25.3785882 C16.2352941,25.1292651 16.154632,24.9298504 15.9830488,24.753501 C15.814784,24.5805622 15.6231766,24.5 15.3785882,24.5 C15.1292651,24.5 14.9298504,24.5806621 14.753501,24.7522453 C14.5816183,24.9194825 14.5,25.1180136 14.5,25.3785882 C14.5,25.6400886 14.5787195,25.8347007 14.7424215,25.9938555 C14.9097138,26.1565007 15.1123254,26.2352941 15.3785882,26.2352941 C15.6260554,26.2352941 15.8196,26.1561168 15.9878584,25.9878584 Z" id="Path" fill="#95AABF"></path>
                        </g>
                    </g>
                </g>
            </g>
        </g>
    </g>
</svg>