<?xml version="1.0" encoding="UTF-8"?>
<svg xmlns="http://www.w3.org/2000/svg" width="16" height="16">
  <g stroke-width=".4">
    <path d="M14.136 4.521c1.919 3.325.779 7.577-2.546 9.496-3.325 1.919-7.577.779-9.496-2.546-1.919-3.325-.779-7.577 2.546-9.496 3.325-1.919 7.575-.779 9.495 2.545" fill="#b3b3b3" stroke="#b3b3b3" stroke-linecap="round" stroke-linejoin="round" stroke-width="0.497"/>
    <path style="text-indent:0;text-align:start;line-height:125%;text-transform:none;block-progression:tb;-inkscape-font-specification:Ubuntu Medium" d="M8.188 3.313c-.456 0-.905.069-1.344.188-.428.109-.814.243-1.156.438l-.156.094.063.156.438 1.219.094.219.219-.094c.295-.16.551-.278.813-.344.263-.074.554-.125.844-.125.362 0 .605.105.75.25.163.149.219.319.219.563 0 .18-.013.323-.094.469-.088.161-.203.312-.344.469-.145.162-.328.337-.5.5-.173.173-.314.363-.469.563-.16.207-.303.444-.406.688-.108.256-.156.532-.156.844v.313l.063.313.031.156h1.75l-.031-.25v-.281c0-.237.035-.444.125-.625.106-.196.25-.358.406-.531.149-.23.383-.405.531-.563.199-.19.359-.386.531-.594.178-.216.325-.434.438-.688.128-.267.187-.582.188-.906 0-.267-.041-.533-.125-.813-.088-.294-.249-.573-.469-.813-.226-.245-.512-.413-.875-.563-.377-.164-.829-.25-1.375-.25zm-.219 7.406c-.336 0-.631.141-.875.375-.24.23-.375.524-.375.875s.135.676.375.906c.244.224.541.344.875.344.342 0 .669-.117.906-.344.24-.23.344-.555.344-.906s-.104-.645-.344-.875c-.237-.237-.563-.375-.906-.375z" font-size="medium" font-weight="normal" color="#000" stroke="none" overflow="visible" enable-background="accumulate" letter-spacing="0" word-spacing="0" fill="#fff" font-family="Ubuntu"/>
  </g>
</svg>
