<?xml version="1.0" encoding="UTF-8" standalone="no"?>
<!-- Created with Inkscape (http://www.inkscape.org/) -->

<svg
   xmlns:dc="http://purl.org/dc/elements/1.1/"
   xmlns:cc="http://creativecommons.org/ns#"
   xmlns:rdf="http://www.w3.org/1999/02/22-rdf-syntax-ns#"
   xmlns:svg="http://www.w3.org/2000/svg"
   xmlns="http://www.w3.org/2000/svg"
   xmlns:sodipodi="http://sodipodi.sourceforge.net/DTD/sodipodi-0.dtd"
   xmlns:inkscape="http://www.inkscape.org/namespaces/inkscape"
   width="600"
   height="600"
   id="svg2985"
   version="1.1"
   inkscape:version="0.48.4 r9939"
   sodipodi:docname="bitcoin_at_a_glance_src.svg"
   inkscape:export-filename="C:\Users\DV6\Desktop\bitcoin.org-master\ar\img\bitcoin_at_a_glance.png"
   inkscape:export-xdpi="90"
   inkscape:export-ydpi="90">
  <defs
     id="defs2987" />
  <sodipodi:namedview
     id="base"
     pagecolor="#ffffff"
     bordercolor="#666666"
     borderopacity="1.0"
     inkscape:pageopacity="0.0"
     inkscape:pageshadow="2"
     inkscape:zoom="1"
     inkscape:cx="334.50379"
     inkscape:cy="343.79885"
     inkscape:current-layer="layer1"
     showgrid="true"
     inkscape:grid-bbox="true"
     inkscape:document-units="px"
     inkscape:window-width="1366"
     inkscape:window-height="706"
     inkscape:window-x="-8"
     inkscape:window-y="-8"
     inkscape:window-maximized="1" />
  <metadata
     id="metadata2990">
    <rdf:RDF>
      <cc:Work
         rdf:about="">
        <dc:format>image/svg+xml</dc:format>
        <dc:type
           rdf:resource="http://purl.org/dc/dcmitype/StillImage" />
        <dc:title></dc:title>
      </cc:Work>
    </rdf:RDF>
  </metadata>
  <g
     id="layer1"
     inkscape:label="Layer 1"
     inkscape:groupmode="layer"
     transform="translate(0,568)">
    <path
       sodipodi:type="arc"
       style="opacity:0.98999999;fill:#000000;fill-opacity:1;stroke:#000000;stroke-width:1.97099996;stroke-linecap:round;stroke-linejoin:round;stroke-miterlimit:4;stroke-opacity:1;stroke-dasharray:none"
       id="path3765"
       sodipodi:cx="14.042934"
       sodipodi:cy="11.170019"
       sodipodi:rx="1.2438533"
       sodipodi:ry="1.6297841"
       d="m 15.286788,11.170019 c 0,0.900105 -0.556892,1.629784 -1.243854,1.629784 -0.686961,0 -1.243853,-0.729679 -1.243853,-1.629784 0,-0.900105 0.556892,-1.629784 1.243853,-1.629784 0.686962,0 1.243854,0.729679 1.243854,1.629784 z"
       transform="matrix(13.382582,0,0,11.866899,114.61286,-599.99155)" />
    <path
       style="fill:#000000;fill-opacity:1;stroke:#000000;stroke-width:5.50831413;stroke-linecap:butt;stroke-linejoin:round;stroke-miterlimit:4;stroke-opacity:1;stroke-dasharray:none"
       d="m 255.45551,-376.39244 91.99394,0.21031 c 0,0 0.22208,-14.14113 0.0201,-40.73312 -0.10037,-13.47647 -28.11908,-25.73828 -44.79565,-25.52656 -17.22086,0.21864 -46.95198,10.97155 -47.22032,24.04785 -0.72408,35.28228 0,42.00148 -9e-5,42.00152 z"
       id="path3767"
       inkscape:connector-curvature="0"
       sodipodi:nodetypes="ccssscc" />
    <text
       xml:space="preserve"
       style="font-size:18.44081879px;font-style:normal;font-variant:normal;font-weight:500;font-stretch:normal;line-height:125%;letter-spacing:0px;word-spacing:0px;fill:#000000;fill-opacity:1;stroke:none;font-family:Ubuntu;-inkscape-font-specification:Ubuntu Medium"
       x="280.09485"
       y="-325.73792"
       id="text3777"
       sodipodi:linespacing="125%"><tspan
         sodipodi:role="line"
         id="tspan3779"
         x="280.09485"
         y="-325.73792"
         style="font-style:normal;font-variant:normal;font-weight:500;font-stretch:normal;font-family:Ubuntu;-inkscape-font-specification:Ubuntu Medium">1pY3..</tspan></text>
    <text
       xml:space="preserve"
       style="font-size:18.44081879px;font-style:normal;font-variant:normal;font-weight:500;font-stretch:normal;line-height:125%;letter-spacing:0px;word-spacing:0px;fill:#000000;fill-opacity:1;stroke:none;font-family:Ubuntu;-inkscape-font-specification:Ubuntu Medium"
       x="279.50327"
       y="-348.81546"
       id="text3777-7"
       sodipodi:linespacing="125%"><tspan
         sodipodi:role="line"
         id="tspan3779-8"
         x="279.50327"
         y="-348.81546"
         style="font-style:normal;font-variant:normal;font-weight:500;font-stretch:normal;font-family:Ubuntu;-inkscape-font-specification:Ubuntu Medium">1sd9..</tspan></text>
    <path
       style="font-size:33.05439758px;font-style:normal;font-variant:normal;font-weight:500;font-stretch:normal;line-height:125%;letter-spacing:0px;word-spacing:0px;fill:#ffffff;fill-opacity:1;stroke:none;font-family:Ubuntu;-inkscape-font-specification:Ubuntu Medium"
       d="M 325.09375 142.78125 C 324.39062 142.78129 323.57812 143.28129 322.65625 144.25 C 321.82812 145.12504 321.40625 145.79691 321.40625 146.28125 C 321.40625 146.60941 321.57812 146.92191 321.90625 147.21875 C 322.15625 147.45316 322.51562 147.68754 323 147.9375 C 321.4375 148.48441 320.65625 149.12504 320.65625 149.84375 L 325 148.34375 C 325.65624 148.10941 326.17187 147.89066 326.5 147.6875 C 326.98437 147.37504 327.21874 147.01566 327.21875 146.625 C 326.74999 146.81254 326.42968 146.9141 326.28125 146.9375 C 326.1328 146.96098 325.90624 146.96879 325.5625 146.96875 C 325.04687 146.96879 324.41406 146.78129 323.6875 146.375 C 322.96093 145.96879 322.59375 145.64066 322.59375 145.40625 C 322.59375 145.21879 322.75781 145.04691 323.09375 144.90625 C 323.42968 144.76567 323.78124 144.71879 324.125 144.71875 C 324.68749 144.71879 325.20312 144.93754 325.6875 145.375 C 325.85937 145.09379 325.99999 144.82035 326.09375 144.59375 C 326.18749 144.36723 326.21874 144.15629 326.21875 143.9375 C 326.21874 143.59379 326.13281 143.30473 325.90625 143.09375 C 325.67968 142.88285 325.40624 142.78129 325.09375 142.78125 z M 324.28125 149.5 C 323.92187 150.20316 323.55468 150.95316 323.15625 151.75 C 322.75781 152.54691 322.40625 153.28128 322.09375 153.96875 C 322.35937 155.96878 322.59375 157.9219 322.8125 159.84375 C 323.17187 163.01565 323.49218 166.05471 323.75 168.96875 C 324.00781 171.88283 324.12499 174.15626 324.125 175.78125 C 324.12499 175.98438 324.10156 176.37501 324.0625 176.96875 C 324.02343 177.56251 323.98437 178.10938 323.9375 178.5625 L 324.34375 178.78125 C 325.12499 177.42188 325.64062 176.43751 325.875 175.8125 C 326.32812 174.64064 326.56249 173.43751 326.5625 172.1875 C 326.56249 170.60939 326.40624 168.25002 326.125 165.15625 C 325.90624 162.6719 325.63281 159.90628 325.25 156.8125 C 324.86718 153.71878 324.53124 151.28128 324.28125 149.5 z M 312.90625 154.5 L 311.1875 157.90625 L 314.96875 159.875 L 316.75 156.46875 L 312.90625 154.5 z M 292.0625 154.875 L 290.3125 158.21875 L 294.09375 160.25 L 295.9375 156.875 L 292.0625 154.875 z M 286.6875 157 L 284.96875 160.40625 L 288.75 162.375 L 290.53125 158.96875 L 286.6875 157 z M 304.09375 162.53125 L 302.3125 166.34375 C 303.32809 167.12502 304.04684 168.0547 304.46875 169.15625 C 304.89059 170.25783 305.09372 171.68751 305.09375 173.4375 L 305.09375 174.0625 L 285.25 174.0625 C 282.59374 174.06251 280.39062 173.62501 278.65625 172.71875 C 276.71875 171.70314 275.75 170.28126 275.75 168.4375 C 275.75 167.56252 275.98437 166.54689 276.4375 165.4375 C 276.76562 164.71877 277.09375 164.00002 277.4375 163.28125 L 276.71875 162.84375 C 275.82812 164.37502 275.26562 165.42189 275.03125 165.96875 C 274.375 167.48439 274.0625 168.95314 274.0625 170.40625 C 274.0625 173.20314 275.17187 175.28126 277.40625 176.59375 C 279.18749 177.64063 281.59374 178.15626 284.59375 178.15625 L 305.28125 178.15625 L 306.9375 178.15625 L 318.625 178.15625 L 318.625 172.4375 C 318.62499 169.65627 318.42186 167.67189 318 166.46875 C 317.71874 165.67189 317.03124 164.5469 315.90625 163.125 L 314.0625 166.9375 C 315.23437 168.20314 315.98437 169.17189 316.28125 169.84375 C 316.71874 170.81251 316.93749 172.21876 316.9375 174.0625 L 306.9375 174.0625 L 306.9375 171.78125 C 306.93747 168.43752 306.40622 165.87502 305.34375 164.125 C 305.20309 163.90627 304.78122 163.39065 304.09375 162.53125 z "
       transform="translate(0,-568)"
       id="text3833" />
    <rect
       style="opacity:0.98999999;fill:#000000;fill-opacity:1;stroke:#000000;stroke-width:0;stroke-linecap:round;stroke-linejoin:round;stroke-miterlimit:4;stroke-opacity:1;stroke-dasharray:none"
       id="rect3775-6-5"
       width="20.965456"
       height="19.412464"
       x="121.70264"
       y="-350.01218"
       ry="2.8571582" />
    <text
       xml:space="preserve"
       style="font-size:16.60424614px;font-style:normal;font-weight:normal;line-height:125%;letter-spacing:0px;word-spacing:0px;fill:#000000;fill-opacity:1;stroke:none;font-family:Sans"
       x="147.51283"
       y="-334.77994"
       id="text3777-0-0"
       sodipodi:linespacing="125%"><tspan
         sodipodi:role="line"
         id="tspan3779-2-8"
         x="147.51283"
         y="-334.77994"
         style="font-style:normal;font-variant:normal;font-weight:500;font-stretch:normal;font-family:Ubuntu;-inkscape-font-specification:Ubuntu Medium">1qTu..</tspan></text>
    <text
       xml:space="preserve"
       style="font-size:17.46800804px;font-style:normal;font-variant:normal;font-weight:500;font-stretch:normal;line-height:125%;letter-spacing:0px;word-spacing:0px;fill:#ffffff;fill-opacity:1;stroke:none;font-family:Ubuntu;-inkscape-font-specification:Ubuntu Medium"
       x="128.64735"
       y="-333.93777"
       id="text3864-0"
       sodipodi:linespacing="125%"><tspan
         sodipodi:role="line"
         id="tspan3866-7"
         x="128.64735"
         y="-333.93777">?</tspan></text>
    <rect
       style="opacity:0.98999999;fill:#ffffff;fill-opacity:0;stroke:#000000;stroke-width:4.89048529;stroke-linecap:round;stroke-linejoin:round;stroke-miterlimit:4;stroke-opacity:1;stroke-dasharray:none"
       id="rect3910"
       width="126.69685"
       height="96.68187"
       x="110.84156"
       y="-249.56139"
       ry="0"
       rx="0" />
    <rect
       style="opacity:0.98999999;fill:#000000;fill-opacity:1;stroke:#000000;stroke-width:3.77378631;stroke-linecap:round;stroke-linejoin:round;stroke-miterlimit:4;stroke-opacity:1;stroke-dasharray:none"
       id="rect3968"
       width="32.858604"
       height="22.748264"
       x="95.143631"
       y="-269.66183" />
    <path
       style="fill:none;stroke:#000000;stroke-width:6.91860723;stroke-linecap:butt;stroke-linejoin:miter;stroke-miterlimit:4;stroke-opacity:1;stroke-dasharray:none"
       d="m 121.68326,-267.27457 c 0,0 1.21074,-9.89367 -1.54451,-13.48044 -1.86912,-2.43328 -5.5021,-3.53942 -8.5657,-3.37011 -3.08528,0.17153 -6.86475,0.58667 -8.98697,4.63389 -1.86269,3.55226 -1.5447,11.65496 -1.5447,11.65496 z"
       id="path3970"
       inkscape:connector-curvature="0"
       sodipodi:nodetypes="casscc" />
    <rect
       style="opacity:0.98999999;fill:#000000;fill-opacity:1;stroke:#000000;stroke-width:2.83422971;stroke-linecap:round;stroke-linejoin:round;stroke-miterlimit:4;stroke-opacity:1;stroke-dasharray:none"
       id="rect3968-6"
       width="24.677822"
       height="17.084648"
       x="225.26515"
       y="-263.95233" />
    <path
       style="fill:none;stroke:#000000;stroke-width:5.19608688;stroke-linecap:butt;stroke-linejoin:miter;stroke-miterlimit:4;stroke-opacity:1;stroke-dasharray:none"
       d="m 245.19723,-262.15944 c 0,0 0.90948,-7.43045 -1.16022,-10.12427 -1.40401,-1.82756 -4.13224,-2.65823 -6.43308,-2.53102 -2.31718,0.12773 -5.15565,0.44069 -6.74951,3.4802 -1.39909,2.66787 -1.16022,8.75323 -1.16022,8.75323 z"
       id="path3970-8"
       inkscape:connector-curvature="0"
       sodipodi:nodetypes="casscc" />
    <rect
       style="opacity:0.98999999;fill:#000000;fill-opacity:1;stroke:#000000;stroke-width:2.05065179;stroke-linecap:round;stroke-linejoin:round;stroke-miterlimit:4;stroke-opacity:1;stroke-dasharray:none"
       id="rect3968-3"
       width="17.855162"
       height="12.361265"
       x="355.64349"
       y="-258.81003" />
    <path
       style="fill:none;stroke:#000000;stroke-width:3.75952888;stroke-linecap:butt;stroke-linejoin:miter;stroke-miterlimit:4;stroke-opacity:1;stroke-dasharray:none"
       d="m 370.06504,-257.51278 c 0,0 0.65767,-5.37614 -0.83922,-7.32518 -1.01588,-1.32244 -2.98981,-1.92326 -4.65452,-1.83127 -1.67646,0.0912 -3.73031,0.31897 -4.8835,2.51803 -1.01222,1.93034 -0.83923,6.33326 -0.83923,6.33326 z"
       id="path3970-1"
       inkscape:connector-curvature="0"
       sodipodi:nodetypes="casscc" />
    <text
       xml:space="preserve"
       style="font-size:4px;font-style:normal;font-weight:normal;line-height:125%;letter-spacing:0px;word-spacing:0px;fill:#000000;fill-opacity:1;stroke:none;font-family:Sans"
       x="6.6307654"
       y="18.827772"
       id="text4015"
       sodipodi:linespacing="125%"><tspan
         sodipodi:role="line"
         id="tspan4017"
         x="6.6307654"
         y="18.827772" /></text>
    <text
       xml:space="preserve"
       style="font-size:14.59846592px;font-style:normal;font-variant:normal;font-weight:500;font-stretch:normal;line-height:125%;letter-spacing:0px;word-spacing:0px;fill:#000000;fill-opacity:1;stroke:none;font-family:Ubuntu;-inkscape-font-specification:Ubuntu Medium"
       x="247.52753"
       y="-209.1823"
       id="text4023"
       sodipodi:linespacing="125%"><tspan
         sodipodi:role="line"
         id="tspan4025"
         x="247.52753"
         y="-209.1823">1x4F..-&gt;1pY3..</tspan></text>
    <text
       xml:space="preserve"
       style="font-size:14.59846497px;font-style:normal;font-variant:normal;font-weight:normal;font-stretch:normal;line-height:125%;letter-spacing:0px;word-spacing:0px;fill:#000000;fill-opacity:1;stroke:none;font-family:Ubuntu;-inkscape-font-specification:Ubuntu"
       x="248.48535"
       y="-225.67215"
       id="text4048"
       sodipodi:linespacing="125%"><tspan
         sodipodi:role="line"
         id="tspan4050"
         x="248.48535"
         y="-225.67215">2.00 BTC</tspan></text>
    <text
       xml:space="preserve"
       style="font-size:32.57752228px;font-style:normal;font-variant:normal;font-weight:normal;font-stretch:normal;line-height:125%;letter-spacing:0px;word-spacing:0px;fill:#000000;fill-opacity:1;stroke:none;font-family:Ubuntu;-inkscape-font-specification:Ubuntu"
       x="150.67883"
       y="-190.47754"
       id="text4083-7"
       sodipodi:linespacing="125%"><tspan
         sodipodi:role="line"
         id="tspan4085-6"
         x="150.67883"
         y="-190.47754"
         style="font-size:32.57752228px;font-style:normal;font-variant:normal;font-weight:normal;font-stretch:normal;font-family:Ubuntu;-inkscape-font-specification:Ubuntu">(...)</tspan></text>
    <text
       xml:space="preserve"
       style="font-size:32.57752228px;font-style:normal;font-variant:normal;font-weight:normal;font-stretch:normal;line-height:125%;letter-spacing:0px;word-spacing:0px;fill:#000000;fill-opacity:1;stroke:none;font-family:Ubuntu;-inkscape-font-specification:Ubuntu"
       x="406.62646"
       y="-190.09898"
       id="text4083-7-9"
       sodipodi:linespacing="125%"><tspan
         sodipodi:role="line"
         id="tspan4085-6-5"
         x="406.62646"
         y="-190.09898"
         style="font-size:32.57752228px;font-style:normal;font-variant:normal;font-weight:normal;font-stretch:normal;font-family:Ubuntu;-inkscape-font-specification:Ubuntu">(...)</tspan></text>
    <path
       sodipodi:type="arc"
       style="opacity:0.98999999;fill:none;stroke:#000000;stroke-width:0.34463671;stroke-linecap:round;stroke-linejoin:round;stroke-miterlimit:4;stroke-opacity:1;stroke-dasharray:none"
       id="path4129"
       sodipodi:cx="16.342493"
       sodipodi:cy="12.911432"
       sodipodi:rx="14.243867"
       sodipodi:ry="13.10525"
       d="m 30.58636,12.911432 c 0,7.23783 -6.377196,13.105251 -14.243867,13.105251 -7.8666704,0 -14.2438669,-5.867421 -14.2438669,-13.105251 0,-7.2378296 6.3771965,-13.10525009 14.2438669,-13.10525009 7.866671,0 14.243867,5.86742049 14.243867,13.10525009 z"
       transform="matrix(19.990924,0,0,21.00392,-25.509877,-538.40922)" />
    <path
       style="font-size:40.70894241px;font-style:normal;font-variant:normal;font-weight:normal;font-stretch:normal;line-height:125%;letter-spacing:0px;word-spacing:0px;fill:#000000;fill-opacity:1;stroke:none;font-family:Arial;-inkscape-font-specification:Arial"
       d="M 305.375 427.28125 C 304.77867 427.28129 304.09434 427.67844 303.3125 428.5 C 302.61016 429.24212 302.25 429.80798 302.25 430.21875 C 302.25 430.49707 302.40921 430.7795 302.6875 431.03125 C 302.89952 431.23006 303.2142 431.44426 303.625 431.65625 C 302.29984 432.12009 301.625 432.64046 301.625 433.25 L 305.3125 431.96875 C 305.86906 431.77001 306.28421 431.6098 306.5625 431.4375 C 306.97329 431.1725 307.18749 430.86257 307.1875 430.53125 C 306.78994 430.6903 306.53213 430.79265 306.40625 430.8125 C 306.28035 430.83241 306.07278 430.84378 305.78125 430.84375 C 305.34394 430.84378 304.80369 430.65707 304.1875 430.3125 C 303.5713 429.96799 303.28125 429.69881 303.28125 429.5 C 303.28125 429.34101 303.40259 429.21305 303.6875 429.09375 C 303.97241 428.97452 304.27096 428.90628 304.5625 428.90625 C 305.03955 428.90628 305.49544 429.09774 305.90625 429.46875 C 306.05201 429.23025 306.17048 429.00468 306.25 428.8125 C 306.3295 428.62039 306.34374 428.43556 306.34375 428.25 C 306.34374 427.9585 306.25464 427.71018 306.0625 427.53125 C 305.87035 427.35239 305.64003 427.28129 305.375 427.28125 z M 295.46875 431.53125 C 295.15071 432.28662 294.90902 433.07331 294.75 433.875 C 294.59098 434.67675 294.5 435.55442 294.5 436.46875 L 295.53125 436.9375 L 297.90625 453.8125 L 291.46875 453.8125 C 291.46873 452.87165 291.10382 451.63569 290.375 450.125 C 289.83167 449.01188 289.10185 447.76643 288.1875 446.375 C 287.29963 446.58704 286.34137 447.07517 285.28125 447.84375 C 284.10185 448.70512 283.08959 449.70887 282.28125 450.875 C 281.68492 451.73637 281.01008 452.4292 280.28125 452.90625 C 279.34038 453.51583 278.26839 453.81251 277.0625 453.8125 L 275.4375 453.8125 L 274.25 453.8125 C 273.68016 453.69324 272.60343 452.91319 271 451.46875 C 268.93273 449.61354 267.4456 448.3501 266.53125 447.6875 C 264.68927 446.36236 263.0704 445.68752 261.71875 445.6875 C 260.34058 445.68752 259.2136 446.13866 258.3125 447 C 257.68967 447.59634 257.19679 448.36315 256.8125 449.34375 C 257.50158 449.251 258.16791 449.21876 258.84375 449.21875 C 259.94363 449.21876 261.02036 449.41022 262.09375 449.78125 C 263.04786 450.11255 264.12835 450.64617 265.28125 451.375 C 266.20885 451.95808 267.33582 452.76563 268.6875 453.8125 L 253.84375 453.8125 L 252.5 453.8125 L 251.0625 453.8125 C 250.62519 453.81251 250.21479 453.52533 249.84375 452.96875 C 249.39319 452.30618 249.05102 450.7963 248.8125 448.4375 C 248.67998 443.2959 248.53876 440.03444 248.40625 438.65625 C 248.19422 436.44326 247.82931 434.55897 247.3125 432.96875 L 244.875 436.8125 C 245.39181 437.28958 245.80221 437.8327 246.09375 438.46875 C 246.33228 438.98559 246.51711 439.6538 246.65625 440.46875 C 246.79539 441.28375 246.91386 442.48558 247 444.0625 C 247.08613 445.63946 247.17049 447.19008 247.25 448.6875 C 247.38251 450.52949 247.56734 452.08486 247.8125 453.34375 C 248.05765 454.60266 248.39794 455.55143 248.875 456.1875 C 249.41831 456.91634 250.16138 457.25001 251.0625 457.25 L 252.5 457.25 L 253.84375 457.25 L 274.03125 457.25 L 275.4375 457.25 L 277.125 457.25 C 278.66218 457.25001 279.85452 457.08318 280.65625 456.71875 C 281.45797 456.35434 282.2314 455.69087 283 454.75 C 283.98061 455.55836 285.12083 456.19245 286.40625 456.65625 C 287.51937 457.0538 288.51838 457.25001 289.40625 457.25 L 290.09375 457.25 L 291.46875 457.25 L 299.90625 457.25 L 299.90625 453.375 L 297.5625 437.78125 L 298.53125 438.09375 C 298.67701 437.72273 298.80023 437.16162 298.90625 436.40625 C 299.01226 435.65094 299.06249 434.94386 299.0625 434.28125 C 298.38666 434.01625 297.72507 433.76506 297.0625 433.5 C 296.20114 433.11573 295.75 432.51862 295.75 431.75 L 295.46875 431.53125 z M 338.875 431.53125 C 338.55696 432.28662 338.31527 433.07331 338.15625 433.875 C 337.99723 434.67675 337.90625 435.55442 337.90625 436.46875 L 338.96875 436.9375 L 341.3125 453.8125 L 334.90625 453.8125 L 333.5 453.8125 L 332.0625 453.8125 C 331.62518 453.81251 331.19204 453.12818 330.78125 451.75 C 330.51621 450.8489 330.23753 449.44424 329.90625 447.5625 L 329.28125 444.15625 C 329.09572 443.33467 328.95163 442.51861 328.8125 441.75 C 328.67335 440.98143 328.53876 440.19662 328.40625 439.375 C 327.99544 439.85208 327.65802 440.33072 327.40625 440.78125 C 327.10146 441.33784 326.93749 441.83072 326.9375 442.28125 C 326.93749 442.38728 327.00761 442.67447 327.09375 443.125 C 327.17988 443.57557 327.22349 443.83151 327.25 443.9375 C 325.02372 444.97114 323.17168 446.17772 321.6875 447.5625 C 320.20332 448.94731 319.46875 450.23537 319.46875 451.375 C 319.46875 451.69305 319.955 451.95086 320.96875 452.15625 C 321.9825 452.36166 323.25731 452.46876 324.78125 452.46875 C 325.45708 452.46876 326.10917 452.25456 326.71875 451.84375 C 327.32832 451.43296 327.82119 450.83585 328.21875 450.09375 C 328.55003 452.01524 328.98792 453.59336 329.53125 454.8125 C 330.26008 456.44245 331.10837 457.25001 332.0625 457.25 L 333.5 457.25 L 334.90625 457.25 L 341.9375 457.25 L 343.3125 457.25 L 345.78125 457.25 C 346.97389 457.25001 347.81368 457.1789 348.34375 457 C 348.87381 456.82111 349.45767 456.47706 350.09375 456 C 350.75632 456.39755 351.33069 456.70274 351.78125 456.875 C 352.47032 457.14004 353.15466 457.25001 353.84375 457.25 L 355.125 457.25 C 356.30438 457.25001 357.2304 457.14478 357.90625 456.90625 C 358.37004 456.74724 358.93966 456.42782 359.5625 455.9375 C 360.06604 456.36156 360.60916 456.67435 361.21875 456.90625 C 361.82831 457.13816 362.55813 457.25001 363.40625 457.25 L 363.5625 457.25 L 364.9375 457.25 L 372 457.25 L 373.375 457.25 L 375.8125 457.25 C 377.00514 457.25001 377.87618 457.1789 378.40625 457 C 378.93631 456.82111 379.52017 456.47706 380.15625 456 C 380.81882 456.39755 381.39319 456.70274 381.84375 456.875 C 382.53282 457.14004 383.21716 457.25001 383.90625 457.25 L 385.1875 457.25 C 386.36688 457.25001 387.2929 457.14478 387.96875 456.90625 C 388.43254 456.74724 388.97091 456.42782 389.59375 455.9375 C 390.09729 456.36156 390.67166 456.67435 391.28125 456.90625 C 391.89081 457.13816 392.62063 457.25001 393.46875 457.25 L 395 457.25 L 395 452.5 C 394.99998 451.00258 394.85401 449.80737 394.5625 448.90625 C 394.3637 448.30994 393.9808 447.60287 393.4375 446.78125 L 392.15625 448.9375 C 392.7128 449.66635 393.03222 450.08625 393.125 450.21875 C 393.6683 451.04036 393.93748 451.82042 393.9375 452.5625 C 393.93748 452.90705 393.81238 453.18761 393.59375 453.40625 C 393.37508 453.62491 393.10777 453.75001 392.75 453.75 C 391.98139 453.75001 391.35679 453.50357 390.90625 453 C 390.38942 452.43019 389.95153 451.40844 389.59375 449.9375 L 389.1875 448.0625 L 388.34375 449.25 C 388.4365 449.70057 388.50948 450.11572 388.5625 450.5 C 388.61549 450.88431 388.65623 451.27671 388.65625 451.6875 C 388.65623 452.44285 388.3738 452.99922 387.84375 453.34375 C 387.36668 453.64855 386.65011 453.81251 385.65625 453.8125 L 384.3125 453.8125 C 383.46439 453.81251 382.73456 453.50258 382.125 452.90625 C 381.62143 452.41595 381.17404 451.68613 380.75 450.71875 C 380.51146 450.1622 380.18354 449.28166 379.8125 448.0625 L 379 449.25 C 379.10601 449.72707 379.17899 450.14697 379.21875 450.53125 C 379.2585 450.91556 379.28124 451.30322 379.28125 451.6875 C 379.28124 452.60187 378.89359 453.22647 378.125 453.53125 C 377.66119 453.71678 376.88588 453.81251 375.8125 453.8125 L 373.375 453.8125 L 373.375 453.375 L 371.03125 437.78125 L 372 438.09375 C 372.14576 437.72273 372.26898 437.16162 372.375 436.40625 C 372.48101 435.65094 372.53124 434.94386 372.53125 434.28125 C 371.85541 434.01625 371.19382 433.76506 370.53125 433.5 C 369.66989 433.11573 369.21875 432.51862 369.21875 431.75 L 368.9375 431.53125 C 368.61946 432.28662 368.37777 433.07331 368.21875 433.875 C 368.05973 434.67675 367.96875 435.55442 367.96875 436.46875 L 369 436.9375 L 371.375 453.8125 L 364.9375 453.8125 L 364.9375 452.5 C 364.93748 451.00258 364.79151 449.80737 364.5 448.90625 C 364.3012 448.30994 363.9183 447.60287 363.375 446.78125 L 362.09375 448.9375 C 362.6503 449.66635 362.96972 450.08625 363.0625 450.21875 C 363.6058 451.04036 363.87498 451.82042 363.875 452.5625 C 363.87498 452.90705 363.78113 453.18761 363.5625 453.40625 C 363.34383 453.62491 363.04527 453.75001 362.6875 453.75 C 361.91889 453.75001 361.32554 453.50357 360.875 453 C 360.35817 452.43019 359.92028 451.40844 359.5625 449.9375 L 359.125 448.0625 L 358.28125 449.25 C 358.374 449.70057 358.44698 450.11572 358.5 450.5 C 358.55299 450.88431 358.59373 451.27671 358.59375 451.6875 C 358.59373 452.44285 358.34255 452.99922 357.8125 453.34375 C 357.33543 453.64855 356.58761 453.81251 355.59375 453.8125 L 354.25 453.8125 C 353.40189 453.81251 352.67206 453.50258 352.0625 452.90625 C 351.55893 452.41595 351.11154 451.68613 350.6875 450.71875 C 350.44896 450.1622 350.15229 449.28166 349.78125 448.0625 L 348.96875 449.25 C 349.07476 449.72707 349.14774 450.14697 349.1875 450.53125 C 349.22725 450.91556 349.21874 451.30322 349.21875 451.6875 C 349.21874 452.60187 348.86234 453.22647 348.09375 453.53125 C 347.62994 453.71678 346.85463 453.81251 345.78125 453.8125 L 343.3125 453.8125 L 343.3125 453.375 L 340.96875 437.78125 L 341.9375 438.09375 C 342.08326 437.72273 342.20648 437.16162 342.3125 436.40625 C 342.41851 435.65094 342.46874 434.94386 342.46875 434.28125 C 341.79291 434.01625 341.13132 433.76506 340.46875 433.5 C 339.60739 433.11573 339.1875 432.51862 339.1875 431.75 L 338.875 431.53125 z M 326.59375 431.8125 L 325.09375 434.65625 L 328.3125 436.375 L 329.875 433.5 L 326.59375 431.8125 z M 304.71875 432.96875 C 304.41396 433.5651 304.08791 434.1992 303.75 434.875 C 303.41208 435.55086 303.10878 436.16696 302.84375 436.75 C 303.06902 438.44623 303.28322 440.12008 303.46875 441.75 C 303.77353 444.4401 304.03134 446.99734 304.25 449.46875 C 304.46865 451.94019 304.5625 453.87184 304.5625 455.25 C 304.5625 455.42228 304.56437 455.7777 304.53125 456.28125 C 304.49812 456.78482 304.446 457.20946 304.40625 457.59375 L 304.78125 457.8125 C 305.44382 456.65962 305.86372 455.81132 306.0625 455.28125 C 306.44679 454.28739 306.62499 453.24764 306.625 452.1875 C 306.62499 450.8491 306.51977 448.87383 306.28125 446.25 C 306.09572 444.14301 305.82466 441.78009 305.5 439.15625 C 305.17533 436.53246 304.93077 434.47946 304.71875 432.96875 z M 322.03125 433.625 L 320.5625 436.5 L 323.78125 438.1875 L 325.3125 435.3125 L 322.03125 433.625 z M 226.125 444.53125 L 224.5625 447.75 C 225.55636 448.82339 226.18571 449.64894 226.4375 450.21875 C 226.80854 451.04036 226.99999 452.24882 227 453.8125 L 218.46875 453.8125 L 217.09375 453.8125 L 216.625 453.8125 C 215.60461 453.81251 214.74494 453.62105 214.0625 453.25 C 213.38003 452.87897 212.67958 452.26287 211.9375 451.375 C 212.22902 451.13648 212.59868 450.80856 213.0625 450.4375 C 213.56605 449.98696 213.81249 449.46184 213.8125 448.8125 C 213.81249 447.81864 213.3831 446.99784 212.46875 446.375 C 211.64714 445.81845 210.63963 445.53127 209.5 445.53125 C 207.80379 445.53127 206.58583 446.16536 205.84375 447.4375 C 205.53896 447.96758 205.24703 448.9211 204.96875 450.3125 L 205.3125 450.3125 C 205.64378 449.84871 205.9992 449.62501 206.34375 449.625 C 206.62203 449.62501 206.87984 449.72549 207.125 449.9375 C 207.37015 450.14954 207.55498 450.48696 207.6875 450.9375 C 206.26957 452.26267 205.28006 453.21619 204.75 453.8125 C 203.63686 455.05816 202.80656 456.29886 202.25 457.53125 C 201.54766 459.08169 201.21875 460.77828 201.21875 462.59375 C 201.21875 465.33683 202.13152 467.47606 204 469 C 205.45767 470.17939 207.49168 470.96419 210.0625 471.375 C 211.48041 471.60027 213.42819 471.71874 215.90625 471.71875 L 219.90625 468.53125 L 219.84375 468.375 C 217.18016 468.37499 215.02768 468.29727 213.4375 468.125 C 210.42937 467.79371 208.06645 467.15961 206.34375 466.21875 C 204.10422 464.98635 203 463.23952 203 461 C 203 460.00613 203.35166 458.97963 204.09375 457.90625 C 204.69007 457.0449 205.53362 456.15112 206.59375 455.25 C 207.37559 454.58743 208.25137 453.96658 209.21875 453.34375 C 209.89457 454.74843 210.78648 455.73418 211.90625 456.34375 C 213.026 456.95333 214.59749 457.25001 216.625 457.25 L 217.09375 457.25 L 218.46875 457.25 L 227.03125 457.25 L 228.4375 457.25 L 230.15625 457.25 C 231.69343 457.25001 232.85452 457.08318 233.65625 456.71875 C 234.45797 456.35434 235.2314 455.69087 236 454.75 C 236.98061 455.55836 238.12083 456.19245 239.40625 456.65625 C 240.51937 457.0538 241.51838 457.25001 242.40625 457.25 L 244.46875 457.25 L 244.46875 453.8125 C 244.46873 452.87165 244.10382 451.63569 243.375 450.125 C 242.83167 449.01188 242.10185 447.76643 241.1875 446.375 C 240.29963 446.58704 239.34137 447.07517 238.28125 447.84375 C 237.10185 448.70512 236.08959 449.70887 235.28125 450.875 C 234.68492 451.73637 234.04133 452.4292 233.3125 452.90625 C 232.37163 453.51583 231.29964 453.81251 230.09375 453.8125 L 228.4375 453.8125 L 228.4375 452.40625 C 228.43749 450.04748 228.26403 448.36414 227.90625 447.34375 C 227.66771 446.66793 227.07911 445.73716 226.125 444.53125 z M 327.59375 446.21875 L 327.96875 448.375 C 327.25316 449.20987 326.48259 449.62501 325.6875 449.625 C 325.03817 449.62501 324.52729 449.59752 324.15625 449.53125 C 323.7852 449.46501 323.46578 449.36928 323.1875 449.25 C 323.63805 448.52118 324.21241 447.94394 324.875 447.5 C 325.53757 447.05609 326.44085 446.62957 327.59375 446.21875 z M 240.1875 449.15625 C 240.69105 449.81884 241.10145 450.47094 241.40625 451.09375 C 241.76403 451.83585 242.01522 452.57517 242.1875 453.34375 L 242 453.59375 C 241.23139 453.501 240.43047 453.25456 239.5625 452.84375 C 238.69451 452.43296 238.0083 451.98557 237.53125 451.46875 C 237.92879 450.80618 238.27095 450.3408 238.5625 450.0625 C 238.99979 449.62521 239.55141 449.31528 240.1875 449.15625 z M 287.1875 449.15625 C 287.69105 449.81884 288.0702 450.47094 288.375 451.09375 C 288.73278 451.83585 289.01522 452.57517 289.1875 453.34375 L 289 453.59375 C 288.23139 453.501 287.43047 453.25456 286.5625 452.84375 C 285.69451 452.43296 285.0083 451.98557 284.53125 451.46875 C 284.92879 450.80618 285.27095 450.3408 285.5625 450.0625 C 285.99979 449.62521 286.55141 449.31528 287.1875 449.15625 z M 225.0625 459.5625 L 223.5625 462.40625 L 226.78125 464.09375 L 228.34375 461.25 L 225.0625 459.5625 z M 262.15625 459.875 L 260.59375 462.78125 L 263.84375 464.4375 L 265.34375 461.59375 L 262.15625 459.875 z M 220.5 461.375 L 219.03125 464.25 L 222.25 465.90625 L 223.75 463.03125 L 220.5 461.375 z "
       transform="translate(0,-568)"
       id="text4131" />
    <path
       style="font-size:21.11429596px;font-style:normal;font-variant:normal;font-weight:normal;font-stretch:normal;line-height:125%;letter-spacing:0px;word-spacing:0px;fill:#000000;fill-opacity:1;stroke:none;font-family:Arial;-inkscape-font-specification:Arial"
       d="M 205.96875 479.4375 C 205.80378 479.82929 205.67622 480.20919 205.59375 480.625 C 205.51126 481.04084 205.46874 481.49452 205.46875 481.96875 L 206 482.21875 L 207.3125 490.96875 L 200.75 490.96875 C 199.60905 490.96875 198.71609 490.85182 198.125 490.625 C 197.33459 490.32259 196.9375 489.81168 196.9375 489.0625 C 196.9375 488.80133 196.99033 488.50743 197.0625 488.21875 C 197.13467 487.93009 197.29756 487.53611 197.53125 487 L 197.15625 486.78125 C 196.86758 487.3586 196.6831 487.75569 196.59375 487.96875 C 196.27071 488.73855 196.125 489.42642 196.125 490.03125 C 196.125 491.04161 196.47645 491.76824 197.21875 492.1875 C 197.91294 492.57927 199.10732 492.75 200.75 492.75 L 208.34375 492.75 L 208.34375 490.75 L 207.125 482.65625 L 207.625 482.8125 C 207.70747 482.59257 207.79595 482.29803 207.875 481.90625 C 207.95403 481.5145 207.96874 481.15993 207.96875 480.84375 L 206.875 480.4375 C 206.38012 480.23819 206.12499 479.92991 206.125 479.53125 L 205.96875 479.4375 z M 376.5 479.4375 C 376.12197 480.19356 375.93749 481.01651 375.9375 481.9375 L 376.40625 482.1875 L 376.75 484.1875 C 376.99055 485.6996 377.17879 487.05784 377.34375 488.28125 C 377.55681 489.87583 377.65624 491.02081 377.65625 491.6875 C 377.65624 492.29921 377.1172 492.81012 376.03125 493.25 C 375.04151 493.64864 373.97406 493.84375 372.8125 493.84375 C 371.71967 493.84375 370.86514 493.65176 370.25 493.21875 C 369.63485 492.78574 369.34375 492.12665 369.34375 491.28125 C 369.34375 490.84137 369.40066 490.40488 369.53125 489.9375 C 369.64122 489.55261 369.80443 489.113 370.03125 488.625 C 370.20308 488.26073 370.40194 487.83551 370.65625 487.375 L 370.34375 487.1875 C 369.97947 487.84733 369.68182 488.40763 369.46875 488.875 C 369.1732 489.52108 368.95683 490.11328 368.8125 490.65625 C 368.64067 491.29546 368.5625 491.90891 368.5625 492.5 C 368.5625 493.56534 368.95271 494.37015 369.75 494.90625 C 370.47855 495.39424 371.51723 495.65625 372.84375 495.65625 C 374.00531 495.65625 374.9627 495.54994 375.71875 495.34375 C 376.61225 495.09632 377.28949 494.66422 377.75 494.09375 C 378.04926 493.71867 378.24947 493.27797 378.375 492.75 L 388.96875 492.75 L 389.6875 492.75 L 390.9375 492.75 C 391.55608 492.75 392.00632 492.71779 392.28125 492.625 C 392.55617 492.53222 392.85759 492.37244 393.1875 492.125 C 393.53115 492.3312 393.82881 492.47315 394.0625 492.5625 C 394.4199 492.69997 394.76759 492.75 395.125 492.75 L 395.8125 492.75 C 396.4242 492.75 396.89946 492.71747 397.25 492.59375 C 397.49055 492.51128 397.7707 492.31681 398.09375 492.0625 C 398.35492 492.28244 398.65258 492.47347 398.96875 492.59375 C 399.2849 492.71403 399.65386 492.75 400.09375 492.75 L 400.875 492.75 L 400.875 490.28125 C 400.87499 489.50459 400.80745 488.90488 400.65625 488.4375 C 400.55314 488.12822 400.37554 487.73864 400.09375 487.3125 L 399.40625 488.4375 C 399.69491 488.81553 399.85813 489.05628 399.90625 489.125 C 400.18804 489.55114 400.34374 489.95886 400.34375 490.34375 C 400.34374 490.52246 400.3009 490.66785 400.1875 490.78125 C 400.07408 490.89466 399.90431 490.9375 399.71875 490.9375 C 399.3201 490.9375 399.01493 490.82368 398.78125 490.5625 C 398.51319 490.26696 398.27932 489.73167 398.09375 488.96875 L 397.875 488 L 397.4375 488.625 C 397.4856 488.85869 397.535 489.05069 397.5625 489.25 C 397.58998 489.44933 397.59374 489.66194 397.59375 489.875 C 397.59374 490.26677 397.46242 490.54005 397.1875 490.71875 C 396.94006 490.87684 396.54673 490.96875 396.03125 490.96875 L 395.34375 490.96875 C 394.90386 490.96875 394.53491 490.8093 394.21875 490.5 C 393.95757 490.2457 393.71994 489.87675 393.5 489.375 C 393.37628 489.08633 393.22369 488.63234 393.03125 488 L 392.59375 488.625 C 392.64873 488.87244 392.69813 489.08194 392.71875 489.28125 C 392.73937 489.48058 392.75 489.67568 392.75 489.875 C 392.75 490.34925 392.55489 490.65442 392.15625 490.8125 C 391.91569 490.90873 391.49422 490.96875 390.9375 490.96875 L 389.6875 490.96875 L 389.0625 490.96875 C 388.76694 490.9069 388.20664 490.49918 387.375 489.75 C 386.30278 488.78777 385.53674 488.12491 385.0625 487.78125 C 384.10713 487.09394 383.29481 486.75001 382.59375 486.75 C 381.87894 486.75001 381.27987 486.99075 380.8125 487.4375 C 380.48946 487.7468 380.23057 488.14765 380.03125 488.65625 C 380.38865 488.60815 380.74322 488.59376 381.09375 488.59375 C 381.66422 488.59376 382.22452 488.68256 382.78125 488.875 C 383.27611 489.04684 383.80828 489.30948 384.40625 489.6875 C 384.88736 489.98992 385.48643 490.42578 386.1875 490.96875 L 378.5 490.96875 C 378.47471 490.25236 378.41502 489.37816 378.28125 488.21875 C 378.17814 487.32525 377.99431 486.15525 377.78125 484.71875 C 377.59567 483.48847 377.51374 482.80747 377.5 482.65625 L 378.09375 482.8125 C 378.19684 482.41387 378.24687 482.1262 378.28125 481.90625 C 378.31561 481.68632 378.34374 481.32488 378.34375 480.84375 C 378.20628 480.77503 378.02931 480.71437 377.84375 480.625 C 377.58943 480.5013 377.36931 480.37062 377.15625 480.28125 C 376.99816 480.21941 376.88122 480.12717 376.8125 480 C 376.74376 479.87286 376.68373 479.6987 376.65625 479.4375 L 376.5 479.4375 z M 341.90625 480.15625 L 340.625 482.15625 C 340.89305 482.4037 341.13004 482.70135 341.28125 483.03125 C 341.40497 483.29932 341.49033 483.63981 341.5625 484.0625 C 341.63467 484.48521 341.70532 485.08836 341.75 485.90625 C 341.79467 486.72416 341.83376 487.53584 341.875 488.3125 C 341.94373 489.26787 342.0291 490.06581 342.15625 490.71875 C 342.2834 491.3717 342.47131 491.85759 342.71875 492.1875 C 343.00055 492.56553 343.37637 492.75 343.84375 492.75 L 344.59375 492.75 L 345.28125 492.75 L 345.5 492.75 C 346.421 492.75 347.24707 492.62555 347.96875 492.34375 C 348.55984 492.11694 349.102 491.78739 349.5625 491.375 C 349.80993 491.82863 350.20014 492.1832 350.75 492.4375 C 351.21049 492.65057 351.67824 492.75 352.125 492.75 L 352.90625 492.75 L 353.625 492.75 L 354.53125 492.75 C 355.32853 492.75 355.92792 492.65776 356.34375 492.46875 C 356.75957 492.27974 357.16385 491.95675 357.5625 491.46875 C 358.07111 491.88802 358.67705 492.22819 359.34375 492.46875 C 359.92109 492.67495 360.41449 492.75 360.875 492.75 L 361.96875 492.75 L 361.96875 490.96875 C 361.96874 490.48076 361.78426 489.84604 361.40625 489.0625 C 361.12444 488.48516 360.72424 487.84669 360.25 487.125 C 359.78949 487.23498 359.29985 487.47637 358.75 487.875 C 358.13829 488.32176 357.60676 488.86392 357.1875 489.46875 C 356.87821 489.91551 356.53427 490.25257 356.15625 490.5 C 355.66825 490.81617 355.12545 490.96875 354.5 490.96875 L 353.625 490.96875 L 352.90625 490.96875 L 352.125 490.96875 C 351.91193 490.96875 351.62522 490.92248 351.3125 490.8125 C 350.99977 490.70253 350.79746 490.57121 350.6875 490.40625 C 351.18236 489.99387 351.53317 489.67119 351.71875 489.4375 C 351.97305 489.12134 352.09374 488.79555 352.09375 488.5 C 352.09374 487.94328 351.7642 487.54931 351.125 487.28125 C 350.637 487.07506 350.02666 486.96876 349.25 486.96875 C 348.34962 486.96876 347.70802 487.08945 347.34375 487.34375 C 346.94511 487.62556 346.75 488.15021 346.75 488.90625 L 346.75 489.5 L 346.96875 489.5 C 347.08559 489.3488 347.18502 489.26343 347.28125 489.21875 C 347.37747 489.17408 347.47003 489.15626 347.59375 489.15625 C 347.86867 489.15626 348.12381 489.27008 348.34375 489.53125 L 348.78125 490.09375 C 348.23827 490.40992 347.6886 490.63692 347.125 490.78125 C 346.63013 490.90497 346.07734 490.96875 345.5 490.96875 L 345.28125 490.96875 L 344.59375 490.96875 L 343.84375 490.96875 C 343.61693 490.96875 343.4112 490.81993 343.21875 490.53125 C 342.98506 490.1876 342.81121 489.41093 342.6875 488.1875 C 342.61877 485.52073 342.53748 483.83982 342.46875 483.125 C 342.35878 481.9772 342.1743 480.98104 341.90625 480.15625 z M 329.25 480.3125 C 329.13315 480.5462 329.01245 480.81948 328.875 481.15625 L 328.53125 482.03125 C 328.68245 482.64297 328.78908 483.2283 328.875 483.8125 C 328.9609 484.39673 328.99999 485.01394 329 485.6875 C 328.99999 487.08276 328.53912 488.29528 327.625 489.3125 C 326.86895 490.1579 325.77647 490.91643 324.3125 491.5625 C 323.40524 491.96802 322.03637 492.44328 320.1875 493 L 320.1875 493.28125 C 322.46938 493.28125 324.08275 493.18869 325.03125 492.96875 C 326.14469 492.70757 326.98203 492.17229 327.59375 491.375 C 328.10923 490.69456 328.71517 489.42889 329.375 487.59375 C 329.37499 487.64187 329.38218 487.75193 329.40625 487.9375 C 329.4303 488.12308 329.43749 488.29629 329.4375 488.40625 C 329.43749 489.93897 329.64323 491.05646 330.0625 491.8125 C 330.39962 492.41404 330.85931 492.727 331.40625 492.75 C 331.42799 492.75091 331.44667 492.75 331.46875 492.75 L 332.09375 492.75 L 333 492.75 C 333.79728 492.75 334.39667 492.65776 334.8125 492.46875 C 335.22832 492.27974 335.6326 491.95675 336.03125 491.46875 C 336.53986 491.88802 337.1458 492.22819 337.8125 492.46875 C 338.38984 492.67495 338.91449 492.75 339.375 492.75 L 340.4375 492.75 L 340.4375 490.96875 C 340.43749 490.48076 340.25301 489.84604 339.875 489.0625 C 339.59319 488.48516 339.19299 487.84669 338.71875 487.125 C 338.25824 487.23498 337.7686 487.47637 337.21875 487.875 C 336.60704 488.32176 336.07551 488.86392 335.65625 489.46875 C 335.34696 489.91551 335.00302 490.25257 334.625 490.5 C 334.137 490.81617 333.5942 490.96875 332.96875 490.96875 L 332.09375 490.96875 L 331.46875 490.96875 C 331.30378 490.96875 331.13369 490.84119 330.96875 490.59375 C 330.72131 490.22261 330.52996 489.61602 330.40625 488.75 C 330.31002 488.06957 330.19308 487.17596 330.0625 486.0625 C 329.95939 485.15526 329.85996 484.29042 329.75 483.5 C 329.59191 482.3522 329.42869 481.30225 329.25 480.3125 z M 193.53125 480.40625 C 192.2391 482.13142 191.30608 483.88611 190.6875 485.625 C 190.15827 487.12335 189.875 488.6767 189.875 490.3125 C 189.875 492.16825 190.22956 493.95547 190.9375 495.6875 C 191.64543 497.41953 192.50715 498.9266 193.53125 500.21875 L 194.875 500.21875 C 192.81993 496.91964 191.78125 493.61848 191.78125 490.3125 C 191.78125 489.01348 191.9232 487.72279 192.21875 486.4375 C 192.45931 485.40654 192.79948 484.41726 193.21875 483.46875 C 193.4868 482.85705 194.04334 481.83588 194.875 480.40625 L 193.53125 480.40625 z M 402.1875 480.40625 C 403.02602 481.84962 403.57569 482.88143 403.84375 483.5 C 404.26301 484.44851 404.57881 485.43779 404.8125 486.46875 C 405.10804 487.74029 405.25 489.02036 405.25 490.3125 C 405.25 493.61848 404.24257 496.91964 402.1875 500.21875 L 403.5 500.21875 C 404.51722 498.9266 405.38238 497.41953 406.09375 495.6875 C 406.80511 493.95547 407.15624 492.16825 407.15625 490.3125 C 407.15624 488.6767 406.90423 487.12335 406.375 485.625 C 405.75641 483.88611 404.79215 482.13142 403.5 480.40625 L 402.1875 480.40625 z M 321.0625 480.65625 C 320.7807 480.65627 320.65625 480.87951 320.65625 481.3125 C 320.65625 481.91735 320.84448 482.49516 321.25 483.03125 C 321.55242 483.4299 321.96701 483.79134 322.46875 484.09375 C 322.86739 484.33432 323.15817 484.43751 323.34375 484.4375 C 323.48121 484.43751 323.5844 484.36621 323.6875 484.1875 C 323.79059 484.00881 323.8969 483.90626 324 483.90625 C 324.48111 483.90626 325.16147 484.42716 326 485.4375 C 326.75604 486.35164 327.3026 487.23462 327.6875 488.09375 C 327.74248 487.94942 327.79875 487.81498 327.8125 487.71875 C 327.82624 487.62253 327.81249 487.51247 327.8125 487.375 C 327.81249 486.28905 327.3266 485.16533 326.34375 484.03125 C 325.54646 483.10339 324.58155 482.3192 323.40625 481.625 C 322.35466 480.99956 321.55736 480.65627 321.0625 480.65625 z M 230.40625 480.6875 L 229.625 482.1875 L 231.28125 483.0625 L 232.0625 481.5625 L 230.40625 480.6875 z M 222.0625 481.6875 L 221.28125 483.1875 L 222.96875 484.0625 L 223.78125 482.59375 L 222.0625 481.6875 z M 204.0625 482.34375 C 203.40267 482.5637 202.78889 483.07085 202.1875 483.875 C 201.58609 484.67917 201.28124 485.36017 201.28125 485.9375 C 201.28124 486.15058 201.34846 486.31691 201.46875 486.40625 C 201.58902 486.49561 201.73442 486.53126 201.90625 486.53125 L 202.625 486.46875 C 202.72122 486.46189 202.85254 486.46876 203.03125 486.46875 C 203.18932 486.46876 203.32065 486.52191 203.4375 486.625 C 203.55434 486.72811 203.62499 486.85567 203.625 487 C 203.62499 487.31617 203.34828 487.58226 202.78125 487.8125 C 202.21421 488.04276 201.54041 488.15626 200.75 488.15625 C 200.61941 488.15626 200.26172 488.14187 199.71875 488.09375 C 199.48506 488.07314 199.28995 488.06251 199.125 488.0625 L 198.9375 488.28125 C 199.53546 488.46683 200.0032 488.58753 200.3125 488.65625 C 200.82111 488.7731 201.29948 488.81251 201.71875 488.8125 C 202.626 488.81251 203.31075 488.63115 203.8125 488.21875 C 204.31423 487.80637 204.56249 487.21793 204.5625 486.46875 C 204.56249 486.00139 204.48808 485.68558 204.34375 485.5 C 204.19941 485.31444 203.95115 485.21876 203.59375 485.21875 L 203.03125 485.28125 C 202.93502 485.29501 202.84246 485.31251 202.71875 485.3125 C 202.57441 485.31251 202.45371 485.27031 202.34375 485.21875 C 202.23377 485.16721 202.15624 485.0856 202.15625 484.96875 C 202.15624 484.63198 202.36885 484.33432 202.78125 484.09375 C 203.03555 483.94255 203.40075 483.8181 203.875 483.6875 L 204.0625 482.34375 z M 232.40625 482.53125 L 231.625 484 L 233.3125 484.875 L 234.09375 483.40625 L 232.40625 482.53125 z M 312.875 482.53125 L 312.09375 484 L 313.78125 484.875 L 314.5625 483.40625 L 312.875 482.53125 z M 219.71875 482.65625 L 218.9375 484.125 L 220.625 485 L 221.40625 483.5 L 219.71875 482.65625 z M 230.03125 483.46875 L 229.28125 484.96875 L 230.96875 485.8125 L 231.75 484.34375 L 230.03125 483.46875 z M 310.5 483.46875 L 309.75 484.96875 L 311.40625 485.8125 L 312.21875 484.34375 L 310.5 483.46875 z M 292.125 485.8125 C 291.05966 485.81251 290.177 486.10641 289.5 486.65625 C 288.82299 487.20611 288.5 487.87648 288.5 488.6875 C 288.5 489.0724 288.56378 489.46605 288.6875 489.875 C 288.81122 490.28396 288.95693 490.64572 289.15625 490.96875 L 287.40625 490.96875 C 287.40624 490.48076 287.22176 489.84604 286.84375 489.0625 C 286.56194 488.48516 286.16174 487.84669 285.6875 487.125 C 285.22699 487.23498 284.73735 487.47637 284.1875 487.875 C 283.57579 488.32176 283.04426 488.86392 282.625 489.46875 C 282.31571 489.91551 281.97177 490.25257 281.59375 490.5 C 281.10575 490.81617 280.56295 490.96875 279.9375 490.96875 L 279.09375 490.96875 C 279.09374 489.99964 278.98744 489.23048 278.78125 488.6875 C 278.52006 487.99332 278.09796 487.65626 277.5 487.65625 C 276.9089 487.65626 276.41614 488.0177 276.03125 488.71875 C 275.70133 489.32359 275.53124 489.97957 275.53125 490.6875 C 275.53124 491.4573 275.79014 492.00697 276.3125 492.34375 C 276.77299 492.6393 277.47837 492.78125 278.40625 492.78125 C 277.86326 493.50981 277.45179 494.05196 277.15625 494.375 C 276.57203 495.0142 275.95921 495.47572 275.375 495.8125 C 274.62582 496.23863 273.83852 496.46875 273 496.46875 C 272.66321 496.46875 272.2977 496.41216 271.875 496.3125 C 271.4523 496.21284 271.04114 496.1206 270.65625 496.03125 L 270.46875 496.40625 C 270.9155 496.55746 271.36574 496.68567 271.8125 496.84375 C 272.3761 497.02932 272.83697 497.17439 273.1875 497.25 C 273.66862 497.3531 274.14012 497.40625 274.59375 497.40625 C 275.81716 497.40625 276.909 496.78216 277.84375 495.53125 C 278.53484 494.6079 278.90974 493.68269 279.03125 492.75 L 279.96875 492.75 C 280.76603 492.75 281.36542 492.65776 281.78125 492.46875 C 282.19707 492.27974 282.60135 491.95675 283 491.46875 C 283.50861 491.88802 284.11455 492.22819 284.78125 492.46875 C 285.35859 492.67495 285.85199 492.75 286.3125 492.75 L 286.6875 492.75 L 287.40625 492.75 L 289.25 492.75 C 290.39781 492.75 291.66693 492.63275 293.03125 492.375 C 294.39556 492.11726 295.58715 491.81553 296.625 491.4375 L 297.34375 489.5625 C 296.04472 489.9474 295.03417 490.21349 294.3125 490.375 C 293.59081 490.53652 292.65844 490.70318 291.53125 490.875 C 290.99514 490.55197 290.55897 490.16583 290.21875 489.75 C 289.87853 489.33418 289.71875 488.96179 289.71875 488.625 C 289.71875 488.28135 289.99171 488.02214 290.53125 487.8125 C 291.07079 487.60288 291.8015 487.50001 292.75 487.5 C 293.15551 487.50001 293.55947 487.52846 293.9375 487.59375 C 294.31552 487.65905 294.7445 487.74442 295.21875 487.875 L 295.40625 487.6875 C 294.84952 487.01394 294.45243 486.60934 294.21875 486.4375 C 293.66889 486.02512 292.97039 485.81251 292.125 485.8125 z M 318.1875 485.875 L 317.375 487.5625 C 317.82174 487.90617 318.15816 488.32795 318.34375 488.8125 C 318.52931 489.29706 318.59374 489.91771 318.59375 490.6875 L 318.59375 490.96875 L 309.875 490.96875 C 308.70656 490.96875 307.73167 490.77365 306.96875 490.375 C 306.11648 489.92825 305.6875 489.31104 305.6875 488.5 C 305.6875 488.11511 305.80068 487.6755 306 487.1875 C 306.14433 486.87134 306.28629 486.53492 306.4375 486.21875 L 306.125 486.03125 C 305.73323 486.70483 305.4781 487.1657 305.375 487.40625 C 305.08633 488.07295 304.96875 488.7358 304.96875 489.375 C 304.96875 490.6053 305.45464 491.48516 306.4375 492.0625 C 307.22104 492.523 308.2741 492.75 309.59375 492.75 L 319.40625 492.75 L 319.40625 489.96875 C 319.40623 488.4979 319.18611 487.36355 318.71875 486.59375 C 318.65688 486.49754 318.4899 486.25303 318.1875 485.875 z M 222.625 486.15625 L 221.8125 487.84375 C 222.32798 488.40048 222.65066 488.82946 222.78125 489.125 C 222.97369 489.55114 223.0625 490.15772 223.0625 490.96875 L 218.6875 490.96875 L 218.6875 490.25 C 218.68749 489.52145 218.52116 488.87235 218.21875 488.28125 C 217.95069 487.7589 217.53234 487.24112 216.96875 486.71875 L 216.375 488.34375 C 216.83549 488.85237 217.21443 489.33139 217.46875 489.8125 C 217.78491 490.41047 217.93749 490.98828 217.9375 491.53125 C 217.93749 492.16358 217.6117 492.86928 217 493.65625 C 216.38828 494.44323 215.67851 495.10951 214.8125 495.625 C 213.85713 496.1886 212.91101 496.46875 212.03125 496.46875 C 211.6326 496.46875 211.21018 496.40529 210.71875 496.3125 C 210.22732 496.21971 209.73488 496.1206 209.28125 496.03125 L 209.125 496.46875 C 209.61299 496.65432 210.09888 496.81442 210.59375 497 C 211.17796 497.21994 211.67448 497.3969 212.09375 497.5 C 212.6436 497.63746 213.15075 497.71875 213.625 497.71875 C 214.14048 497.71875 214.79646 497.46361 215.59375 496.96875 C 216.43227 496.45326 217.15514 495.83981 217.71875 495.125 C 218.36482 494.31397 218.68749 493.50605 218.6875 492.75 L 223.09375 492.75 L 223.8125 492.75 L 225.09375 492.75 C 225.71233 492.75 226.16257 492.71779 226.4375 492.625 C 226.71242 492.53222 227.01384 492.37244 227.34375 492.125 C 227.6874 492.3312 227.95381 492.47315 228.1875 492.5625 C 228.5449 492.69997 228.92384 492.75 229.28125 492.75 L 229.9375 492.75 C 230.5492 492.75 231.02446 492.71747 231.375 492.59375 C 231.61555 492.51128 231.8957 492.31681 232.21875 492.0625 C 232.47992 492.28244 232.77758 492.47347 233.09375 492.59375 C 233.4099 492.71403 233.77886 492.75 234.21875 492.75 L 234.3125 492.75 L 235.03125 492.75 L 235.9375 492.75 C 236.73478 492.75 237.33417 492.65776 237.75 492.46875 C 238.16582 492.27974 238.5701 491.95675 238.96875 491.46875 C 239.47736 491.88802 240.05205 492.22819 240.71875 492.46875 C 241.29609 492.67495 241.82074 492.75 242.28125 492.75 L 243.34375 492.75 L 243.34375 490.96875 C 243.34374 490.48076 243.15926 489.84604 242.78125 489.0625 C 242.49944 488.48516 242.13049 487.84669 241.65625 487.125 C 241.19574 487.23498 240.67485 487.47637 240.125 487.875 C 239.51329 488.32176 239.01301 488.86392 238.59375 489.46875 C 238.28446 489.91551 237.94052 490.25257 237.5625 490.5 C 237.0745 490.81617 236.5317 490.96875 235.90625 490.96875 L 235.03125 490.96875 L 235.03125 490.28125 C 235.03124 489.50459 234.9637 488.90488 234.8125 488.4375 C 234.70939 488.12822 234.50054 487.73864 234.21875 487.3125 L 233.5625 488.4375 C 233.85116 488.81553 234.01438 489.05628 234.0625 489.125 C 234.34429 489.55114 234.46874 489.95886 234.46875 490.34375 C 234.46874 490.52246 234.4259 490.66785 234.3125 490.78125 C 234.19908 490.89466 234.06056 490.9375 233.875 490.9375 C 233.47635 490.9375 233.13993 490.82368 232.90625 490.5625 C 232.63819 490.26696 232.40432 489.73167 232.21875 488.96875 L 232.03125 488 L 231.59375 488.625 C 231.64185 488.85869 231.66 489.05069 231.6875 489.25 C 231.71498 489.44933 231.74999 489.66194 231.75 489.875 C 231.74999 490.26677 231.58742 490.54005 231.3125 490.71875 C 231.06506 490.87684 230.70298 490.96875 230.1875 490.96875 L 229.5 490.96875 C 229.06011 490.96875 228.65991 490.8093 228.34375 490.5 C 228.08257 490.2457 227.84494 489.87675 227.625 489.375 C 227.50128 489.08633 227.34869 488.63234 227.15625 488 L 226.75 488.625 C 226.80498 488.87244 226.82313 489.08194 226.84375 489.28125 C 226.86437 489.48058 226.875 489.67568 226.875 489.875 C 226.875 490.34925 226.67989 490.65442 226.28125 490.8125 C 226.04069 490.90873 225.65047 490.96875 225.09375 490.96875 L 223.8125 490.96875 L 223.8125 490.25 C 223.81249 489.02659 223.71682 488.15424 223.53125 487.625 C 223.40753 487.27448 223.11986 486.78172 222.625 486.15625 z M 268.25 487.125 C 267.78949 487.23498 267.29985 487.47637 266.75 487.875 C 266.13829 488.32176 265.60676 488.86392 265.1875 489.46875 C 264.87821 489.91551 264.53427 490.25257 264.15625 490.5 C 263.66825 490.81617 263.12545 490.96875 262.5 490.96875 L 261.65625 490.96875 L 260.90625 490.96875 L 259.84375 490.96875 C 259.2664 490.96875 258.70985 491.06067 258.1875 491.21875 C 257.4933 491.43182 256.94363 491.74762 256.53125 492.1875 C 256.0295 492.73048 255.78124 493.42898 255.78125 494.28125 C 255.78124 494.50807 255.87692 494.66784 256.0625 494.78125 C 256.24807 494.89466 256.56698 494.96875 257 494.96875 C 257.12371 494.96875 257.35479 494.97594 257.75 495 C 258.1452 495.02406 258.43942 495.04188 258.625 495.0625 C 258.86555 495.0625 259.05314 495.09783 259.15625 495.15625 C 259.25934 495.21467 259.31249 495.28941 259.3125 495.40625 C 259.31249 495.72929 258.85849 496.00192 257.9375 496.1875 C 257.18832 496.33871 256.29535 496.40625 255.3125 496.40625 C 253.84852 496.40625 252.71352 496.20051 251.875 495.78125 C 250.99524 495.34137 250.5625 494.68915 250.5625 493.84375 C 250.5625 493.36263 250.73323 492.75605 251.125 492 C 251.3793 491.56012 251.64507 491.10301 251.90625 490.65625 L 251.5 490.46875 C 250.82643 491.52722 250.40808 492.20822 250.25 492.53125 C 249.81012 493.42476 249.59375 494.26522 249.59375 495.0625 C 249.59375 496.05223 250.07212 496.80764 251 497.34375 C 251.87289 497.84549 253.02227 498.09375 254.5 498.09375 C 256.62379 498.09375 258.17274 497.79545 259.09375 497.15625 C 259.93914 496.57203 260.34374 495.62903 260.34375 494.34375 C 260.34374 494.08945 260.26181 493.9156 260.0625 493.8125 C 259.93877 493.75064 259.7049 493.69749 259.375 493.65625 C 258.81827 493.59439 258.4462 493.545 258.28125 493.53125 C 258.11629 493.51751 257.90679 493.53125 257.625 493.53125 C 256.98579 493.53125 256.65624 493.41432 256.65625 493.1875 C 256.65624 493.02255 256.93607 492.89874 257.46875 492.84375 C 258.00141 492.78877 258.78528 492.75 259.84375 492.75 L 260.90625 492.75 L 261.65625 492.75 L 262.53125 492.75 C 263.32853 492.75 263.92792 492.65776 264.34375 492.46875 C 264.75957 492.27974 265.16385 491.95675 265.5625 491.46875 C 266.07111 491.88802 266.6458 492.22819 267.3125 492.46875 C 267.88984 492.67495 268.41449 492.75 268.875 492.75 L 269.96875 492.75 L 269.96875 490.96875 C 269.96874 490.48076 269.75301 489.84604 269.375 489.0625 C 269.09319 488.48516 268.72424 487.84669 268.25 487.125 z M 241.125 488.5625 C 241.38617 488.90616 241.59191 489.23947 241.75 489.5625 C 241.93557 489.9474 242.06689 490.32011 242.15625 490.71875 L 242.0625 490.875 C 241.66385 490.82689 241.26268 490.68182 240.8125 490.46875 C 240.3623 490.25569 239.99743 490.01806 239.75 489.75 C 239.95619 489.40635 240.13004 489.17559 240.28125 489.03125 C 240.50806 488.80444 240.79508 488.64498 241.125 488.5625 z M 267.71875 488.5625 C 267.97992 488.90616 268.18566 489.23947 268.34375 489.5625 C 268.52932 489.9474 268.69189 490.32011 268.78125 490.71875 L 268.6875 490.875 C 268.28885 490.82689 267.85643 490.68182 267.40625 490.46875 C 266.95605 490.25569 266.59118 490.01806 266.34375 489.75 C 266.54994 489.40635 266.75504 489.17559 266.90625 489.03125 C 267.13306 488.80444 267.38883 488.64498 267.71875 488.5625 z M 285.1875 488.5625 C 285.44867 488.90616 285.65441 489.23947 285.8125 489.5625 C 285.99807 489.9474 286.12939 490.32011 286.21875 490.71875 L 286.125 490.875 C 285.72635 490.82689 285.29393 490.68182 284.84375 490.46875 C 284.39355 490.25569 284.05993 490.01806 283.8125 489.75 C 284.01869 489.40635 284.19254 489.17559 284.34375 489.03125 C 284.57056 488.80444 284.85758 488.64498 285.1875 488.5625 z M 338.21875 488.5625 C 338.47992 488.90616 338.68566 489.23947 338.84375 489.5625 C 339.02932 489.9474 339.16064 490.32011 339.25 490.71875 L 339.15625 490.875 C 338.7576 490.82689 338.32518 490.68182 337.875 490.46875 C 337.4248 490.25569 337.09118 490.01806 336.84375 489.75 C 337.04994 489.40635 337.22379 489.17559 337.375 489.03125 C 337.60181 488.80444 337.88883 488.64498 338.21875 488.5625 z M 359.71875 488.5625 C 359.97992 488.90616 360.21691 489.23947 360.375 489.5625 C 360.56057 489.9474 360.69189 490.32011 360.78125 490.71875 L 360.6875 490.875 C 360.28885 490.82689 359.85643 490.68182 359.40625 490.46875 C 358.95605 490.25569 358.62243 490.01806 358.375 489.75 C 358.58119 489.40635 358.75504 489.17559 358.90625 489.03125 C 359.13306 488.80444 359.38883 488.64498 359.71875 488.5625 z M 277.21875 489.3125 C 277.4868 489.31251 277.72067 489.43632 277.90625 489.65625 C 278.11098 489.90062 278.25862 490.34996 278.40625 490.96875 L 278.34375 490.96875 L 278.34375 491.03125 C 277.71248 491.02241 277.25504 490.91593 276.96875 490.75 C 276.66633 490.57474 276.49999 490.33679 276.5 490 C 276.49999 489.80756 276.57784 489.62716 276.71875 489.5 C 276.85964 489.37285 277.02629 489.31251 277.21875 489.3125 z M 382.78125 494.125 L 382 495.625 L 383.65625 496.5 L 384.4375 495 L 382.78125 494.125 z M 254.0625 498.5625 L 253.125 499.53125 L 254.3125 500.25 L 255.25 499.375 L 254.0625 498.5625 z M 256.1875 498.5625 L 255.25 499.53125 L 256.40625 500.25 L 257.375 499.375 L 256.1875 498.5625 z "
       transform="translate(0,-568)"
       id="text4139" />
    <rect
       style="opacity:0.98999999;fill:#ffffff;fill-opacity:0;stroke:#000000;stroke-width:4.8866291;stroke-linecap:round;stroke-linejoin:round;stroke-miterlimit:4;stroke-opacity:1;stroke-dasharray:none"
       id="rect3910-0"
       width="126.69685"
       height="96.68187"
       x="237.82028"
       y="-249.54121"
       ry="0"
       rx="0" />
    <rect
       style="opacity:0.98999999;fill:#ffffff;fill-opacity:0;stroke:#000000;stroke-width:4.8866291;stroke-linecap:round;stroke-linejoin:round;stroke-miterlimit:4;stroke-opacity:1;stroke-dasharray:none"
       id="rect3910-00"
       width="126.69685"
       height="96.68187"
       x="364.52725"
       y="-249.56285"
       ry="0"
       rx="0" />
    <text
       xml:space="preserve"
       style="font-size:1.5px;font-style:normal;font-weight:normal;line-height:125%;letter-spacing:0px;word-spacing:0px;fill:#000000;fill-opacity:1;stroke:none;font-family:Sans"
       x="8.087534"
       y="27.403807"
       id="text4168"
       sodipodi:linespacing="125%"><tspan
         sodipodi:role="line"
         id="tspan4170"
         x="8.087534"
         y="27.403807" /></text>
    <rect
       style="opacity:0.98999999;fill:#000000;fill-opacity:1;stroke:#000000;stroke-width:1.00531864;stroke-linecap:round;stroke-linejoin:round;stroke-miterlimit:4;stroke-opacity:1;stroke-dasharray:none"
       id="rect3968-3-4"
       width="8.7533751"
       height="6.060029"
       x="312.43851"
       y="-231.70477" />
    <path
       style="fill:none;stroke:#000000;stroke-width:1.84308445;stroke-linecap:butt;stroke-linejoin:miter;stroke-miterlimit:4;stroke-opacity:1;stroke-dasharray:none"
       d="m 319.50855,-231.06881 c 0,0 0.32245,-2.63563 -0.41148,-3.59114 -0.498,-0.64835 -1.4657,-0.94287 -2.28185,-0.8978 -0.8219,0.0456 -1.82876,0.15693 -2.3941,1.23449 -0.49617,0.94633 -0.41149,3.10483 -0.41149,3.10483 z"
       id="path3970-1-8"
       inkscape:connector-curvature="0"
       sodipodi:nodetypes="casscc" />
    <rect
       style="opacity:0.98999999;fill:none;stroke:#000000;stroke-width:1.82480812;stroke-linecap:round;stroke-linejoin:round;stroke-miterlimit:4;stroke-opacity:1;stroke-dasharray:none"
       id="rect4234"
       width="112.90999"
       height="39.062298"
       x="244.85536"
       y="-242.51218" />
    <text
       xml:space="preserve"
       style="font-size:23.72250366px;font-style:normal;font-variant:normal;font-weight:normal;font-stretch:normal;line-height:125%;letter-spacing:0px;word-spacing:0px;fill:#000000;fill-opacity:1;stroke:none;font-family:Ubuntu;-inkscape-font-specification:Ubuntu"
       x="285.1553"
       y="-171.31741"
       id="text4083-7-9-0"
       sodipodi:linespacing="125%"><tspan
         sodipodi:role="line"
         id="tspan4085-6-5-7"
         x="285.1553"
         y="-171.31741"
         style="font-size:23.72250366px;font-style:normal;font-variant:normal;font-weight:normal;font-stretch:normal;font-family:Ubuntu;-inkscape-font-specification:Ubuntu">(...)</tspan></text>
    <rect
       style="opacity:0.98999999;fill:none;stroke:#000000;stroke-width:1.82480812;stroke-linecap:round;stroke-linejoin:round;stroke-miterlimit:4;stroke-opacity:1;stroke-dasharray:none"
       id="rect4234-2"
       width="112.90999"
       height="39.062298"
       x="244.85536"
       y="-198.25854" />
    <path
       sodipodi:type="arc"
       style="opacity:0.98999999;fill:#000000;fill-opacity:1;stroke:#000000;stroke-width:0.1;stroke-linecap:round;stroke-linejoin:round;stroke-miterlimit:4;stroke-opacity:1;stroke-dasharray:none"
       id="path4293-3"
       sodipodi:cx="12.867188"
       sodipodi:cy="10.052734"
       sodipodi:rx="0.2109375"
       sodipodi:ry="0.20898438"
       d="m 13.078126,10.052734 c 0,0.115419 -0.09444,0.208985 -0.210938,0.208985 -0.116497,0 -0.210937,-0.09357 -0.210937,-0.208985 0,-0.1154185 0.09444,-0.208984 0.210937,-0.208984 0.116498,0 0.210938,0.093566 0.210938,0.208984 z"
       transform="matrix(22.897483,0,0,22.897483,-28.509058,-588.11129)" />
    <path
       style="fill:#000000;fill-opacity:1;stroke:#000000;stroke-width:0;stroke-linecap:butt;stroke-linejoin:miter;stroke-miterlimit:4;stroke-opacity:1;stroke-dasharray:none"
       d="m 261.83921,-356.97445 -8.13933,9.92819 0,2.41497 3.0323,-0.85948 1.06533,-1.71897 0.78539,-1.4396 1.74124,0.003 0.33941,-1.58394 2.12041,-0.64562 4.38472,-4.20891 z"
       id="path4297-3"
       inkscape:connector-curvature="0"
       sodipodi:nodetypes="ccccccccccc" />
    <path
       sodipodi:type="arc"
       style="opacity:0.98999999;fill:#000000;fill-opacity:1;stroke:#000000;stroke-width:0.1;stroke-linecap:round;stroke-linejoin:round;stroke-miterlimit:4;stroke-opacity:1;stroke-dasharray:none"
       id="path4293-3-2"
       sodipodi:cx="12.867188"
       sodipodi:cy="10.052734"
       sodipodi:rx="0.2109375"
       sodipodi:ry="0.20898438"
       d="m 13.078126,10.052734 c 0,0.115419 -0.09444,0.208985 -0.210938,0.208985 -0.116497,0 -0.210937,-0.09357 -0.210937,-0.208985 0,-0.1154185 0.09444,-0.208984 0.210937,-0.208984 0.116498,0 0.210938,0.093566 0.210938,0.208984 z"
       transform="matrix(22.897483,0,0,22.897483,-27.948507,-564.33395)" />
    <path
       style="fill:#000000;fill-opacity:1;stroke:#000000;stroke-width:0;stroke-linecap:butt;stroke-linejoin:miter;stroke-miterlimit:4;stroke-opacity:1;stroke-dasharray:none"
       d="m 262.39976,-333.19708 -8.13932,9.9282 0,2.41497 3.03231,-0.85948 1.06532,-1.71897 0.7854,-1.4396 1.74105,0.003 0.33941,-1.58393 2.12041,-0.64562 4.38472,-4.20892 z"
       id="path4297-3-0"
       inkscape:connector-curvature="0"
       sodipodi:nodetypes="ccccccccccc" />
    <text
       xml:space="preserve"
       style="font-size:16.51408768px;font-style:normal;font-variant:normal;font-weight:500;font-stretch:normal;line-height:125%;letter-spacing:0px;word-spacing:0px;fill:#000000;fill-opacity:1;stroke:none;font-family:Ubuntu;-inkscape-font-specification:Ubuntu Medium"
       x="433.74728"
       y="-334.09183"
       id="text3777-0-0-0"
       sodipodi:linespacing="125%"><tspan
         sodipodi:role="line"
         id="tspan3779-2-8-0"
         x="433.74728"
         y="-334.09183"
         style="font-style:normal;font-variant:normal;font-weight:500;font-stretch:normal;font-family:Ubuntu;-inkscape-font-specification:Ubuntu Medium">1x4F..</tspan></text>
    <path
       style="font-size:27.37211990000000100px;font-style:oblique;font-variant:normal;font-weight:500;font-stretch:normal;line-height:125%;letter-spacing:0px;word-spacing:0px;fill:#000000;fill-opacity:1;stroke:none;font-family:Arial;-inkscape-font-specification:Arial Oblique"
       d="M 505.3125 22.78125 L 500.3125 24.5 C 498.06835 25.250021 496.38085 26.09377 495.25 27.03125 C 494.02799 28.052102 493.10937 29.45835 492.5 31.25 C 492.39778 31.552098 492.56966 31.958348 493.03125 32.5 L 494.40625 33.90625 L 495.09375 33.4375 C 496.36522 34.385429 497.34016 35.276053 498 36.09375 C 498.65982 36.911468 499.14647 37.864592 499.5 38.96875 L 488.71875 38.96875 C 489.21808 37.500009 489.47004 36.354177 489.4375 35.53125 C 489.39907 34.479178 488.90623 33.937512 488 33.9375 C 487.10415 33.937512 486.19465 34.468762 485.25 35.53125 C 484.43879 36.447926 483.86457 37.458342 483.5 38.53125 C 483.1035 39.697923 483.19465 40.520839 483.8125 41.03125 C 484.35806 41.479171 485.34374 41.718755 486.75 41.71875 C 485.55207 42.82292 484.64582 43.604169 484.03125 44.09375 C 482.81705 45.062501 481.68424 45.802084 480.625 46.3125 C 479.27018 46.958333 477.95833 47.281249 476.6875 47.28125 C 476.17708 47.281249 475.62044 47.213541 475.03125 47.0625 C 474.44206 46.911458 473.88151 46.760416 473.34375 46.625 L 472.875 47.1875 C 473.47461 47.416666 474.09245 47.635415 474.6875 47.875 C 475.44661 48.156248 476.07031 48.354165 476.5625 48.46875 C 477.23828 48.624998 477.90624 48.718748 478.59375 48.71875 C 480.44791 48.718748 482.40754 47.770832 484.46875 45.875 C 485.97444 44.491325 487.05225 43.085014 487.71875 41.6875 L 500.40625 41.6875 L 501.3125 38.96875 C 501.05532 37.458342 500.54295 36.00001 499.75 34.59375 C 499.01887 33.281263 498.05142 32.010431 496.875 30.8125 C 496.55403 30.500016 496.24739 30.187516 495.9375 29.875 C 495.44075 29.375017 495.23111 29.020851 495.3125 28.78125 C 495.39387 28.541684 496.01496 28.197935 497.1875 27.75 C 498.11001 27.395852 499.30272 26.989603 500.75 26.5625 L 504.375 25.46875 L 505.3125 22.78125 z M 527.46875 26.15625 L 525.53125 28.40625 L 527.625 29.75 L 529.59375 27.5 L 527.46875 26.15625 z M 523.40625 27.59375 L 521.46875 29.84375 L 523.5625 31.15625 L 525.53125 28.90625 L 523.40625 27.59375 z M 462.40625 28.40625 L 460.53125 30.59375 L 462.5 31.9375 L 464.4375 29.6875 L 462.40625 28.40625 z M 533.78125 31.25 L 531.6875 33.8125 C 532.18748 34.333345 532.4684 34.953136 532.5 35.6875 C 532.53155 36.421885 532.33396 37.364592 531.9375 38.53125 L 531.8125 38.96875 L 518.5625 38.96875 C 516.79166 38.968757 515.45051 38.666674 514.5 38.0625 C 513.43815 37.385426 513.11328 36.416676 513.53125 35.1875 C 513.72916 34.604178 514.10286 33.958346 514.65625 33.21875 C 515.03775 32.739597 515.41991 32.260431 515.8125 31.78125 L 515.4375 31.46875 C 514.49674 32.489597 513.90494 33.19793 513.625 33.5625 C 512.84374 34.572928 512.26627 35.562511 511.9375 36.53125 C 511.30338 38.395841 511.58854 39.750007 512.78125 40.625 C 513.73111 41.322922 515.21874 41.687505 517.21875 41.6875 L 531 41.6875 L 532.125 41.6875 L 539.90625 41.6875 L 541.21875 37.875 C 541.84895 36.020844 542.1647 34.677095 542.15625 33.875 C 542.14908 33.343763 541.92772 32.60418 541.5 31.65625 L 539.40625 34.21875 C 539.90103 35.062511 540.17317 35.708344 540.21875 36.15625 C 540.29101 36.802093 540.10546 37.739592 539.6875 38.96875 L 533.03125 38.96875 L 533.5625 37.4375 C 534.32029 35.208344 534.53057 33.510429 534.21875 32.34375 C 534.17445 32.197931 534.0449 31.822931 533.78125 31.25 z M 475.5625 31.65625 L 473.46875 34.21875 C 473.96353 35.062511 474.23567 35.708344 474.28125 36.15625 C 474.35351 36.802093 474.16796 37.739592 473.75 38.96875 L 467.09375 38.96875 C 467.58592 37.520842 467.87954 36.34376 467.96875 35.46875 C 468.05792 34.593762 467.98435 33.750013 467.71875 32.90625 L 465.3125 36.09375 C 465.6074 36.697926 465.75519 37.406259 465.75 38.21875 C 465.75063 39.135424 465.57941 40.125006 465.21875 41.1875 C 464.69139 42.739587 463.33592 43.947919 461.15625 44.8125 C 459.39843 45.510417 457.53124 45.875 455.5625 45.875 C 453.85416 45.875 452.66243 45.546876 451.96875 44.875 C 451.27506 44.203127 451.15429 43.19792 451.59375 41.90625 C 451.83789 41.187505 452.222 40.395839 452.75 39.53125 C 453.27799 38.666674 454.16731 37.500009 455.40625 36 L 454.875 35.71875 C 453.91601 36.885426 453.20117 37.750009 452.78125 38.3125 C 452.09114 39.23959 451.49902 40.145839 450.96875 41.0625 C 450.43847 41.979171 450.02344 42.88542 449.71875 43.78125 C 449.15625 45.437501 449.3457 46.666666 450.28125 47.46875 C 451.13737 48.197915 452.60416 48.562498 454.6875 48.5625 C 457.95832 48.562498 460.5371 47.989582 462.40625 46.8125 C 464.14256 45.718751 465.39842 44.010419 466.1875 41.6875 L 473.96875 41.6875 L 475.28125 37.875 C 475.91145 36.020844 476.2272 34.677095 476.21875 33.875 C 476.21158 33.343763 475.99022 32.60418 475.5625 31.65625 z M 486.71875 36.46875 C 487.12499 36.46876 487.42577 36.635426 487.59375 36.96875 C 487.78146 37.345488 487.82025 38.00484 487.71875 38.96875 L 487.625 38.96875 L 487.59375 39.03125 C 486.62537 39.02021 485.94589 38.910333 485.59375 38.65625 C 485.22557 38.390633 485.13866 37.979175 485.3125 37.46875 C 485.41145 37.177092 485.59602 36.942718 485.875 36.75 C 486.15396 36.557301 486.42707 36.46876 486.71875 36.46875 z M 470.71875 43.46875 L 468.78125 45.71875 L 470.84375 47.0625 L 472.84375 44.8125 L 470.71875 43.46875 z M 534.875 44.15625 L 532.96875 46.4375 L 535.03125 47.75 L 537.03125 45.46875 L 534.875 44.15625 z M 466.65625 44.90625 L 464.71875 47.15625 L 466.8125 48.46875 L 468.75 46.21875 L 466.65625 44.90625 z "
       transform="translate(0,-568)"
       id="text4484" />
    <path
       style="font-size:12.77365685px;font-style:italic;font-variant:normal;font-weight:500;font-stretch:normal;line-height:125%;letter-spacing:0px;word-spacing:0px;fill:#000000;fill-opacity:1;stroke:none;font-family:Ubuntu;-inkscape-font-specification:Ubuntu Medium Italic"
       d="M 523.28125 50.375 C 523.15625 50.671887 523.0625 50.997408 523 51.3125 C 522.9375 51.627615 522.90625 51.953136 522.90625 52.3125 L 523.3125 52.5 L 524.25 59.125 L 521.71875 59.125 C 521.71874 58.755212 521.5677 58.281254 521.28125 57.6875 C 521.0677 57.250006 520.79687 56.765631 520.4375 56.21875 C 520.08854 56.30209 519.69791 56.479173 519.28125 56.78125 C 518.8177 57.119797 518.41146 57.541672 518.09375 58 C 517.85937 58.338546 517.59896 58.593754 517.3125 58.78125 C 516.94271 59.020837 516.53646 59.125004 516.0625 59.125 L 515.40625 59.125 L 514.9375 59.125 C 514.71353 59.078129 514.28645 58.786462 513.65625 58.21875 C 512.84374 57.489589 512.26562 56.979172 511.90625 56.71875 C 511.18229 56.197923 510.5625 55.937507 510.03125 55.9375 C 509.48958 55.937507 509.04166 56.130215 508.6875 56.46875 C 508.44271 56.703131 508.24479 56.989589 508.09375 57.375 C 508.36458 57.338547 508.64062 57.343755 508.90625 57.34375 C 509.33854 57.343755 509.76562 57.416672 510.1875 57.5625 C 510.5625 57.692713 510.95312 57.901047 511.40625 58.1875 C 511.77083 58.416671 512.21874 58.713546 512.75 59.125 L 506.9375 59.125 L 506.40625 59.125 L 505.8125 59.125 C 505.64062 59.125004 505.47395 58.854171 505.3125 58.3125 C 505.20833 57.958338 505.09895 57.427089 504.96875 56.6875 L 504.75 55.34375 C 504.67708 55.020841 504.58593 54.708341 504.53125 54.40625 C 504.47656 54.104175 504.42708 53.791676 504.375 53.46875 C 504.21354 53.656259 504.09896 53.822926 504 54 C 503.88021 54.218759 503.8125 54.416675 503.8125 54.59375 C 503.8125 54.635425 503.84114 54.760425 503.875 54.9375 C 503.90885 55.114591 503.92708 55.208341 503.9375 55.25 C 503.0625 55.656257 502.33333 56.143236 501.75 56.6875 C 501.16667 57.231776 500.875 57.739588 500.875 58.1875 C 500.875 58.312504 501.07031 58.388025 501.46875 58.46875 C 501.86719 58.549483 502.36979 58.593754 502.96875 58.59375 C 503.23437 58.593754 503.47916 58.536463 503.71875 58.375 C 503.95833 58.213546 504.15625 57.979171 504.3125 57.6875 C 504.4427 58.442713 504.6302 59.052087 504.84375 59.53125 C 505.1302 60.171878 505.4375 60.500002 505.8125 60.5 L 506.40625 60.5 L 506.9375 60.5 L 514.875 60.5 L 515.40625 60.5 L 516.09375 60.5 C 516.69792 60.500002 517.15364 60.424482 517.46875 60.28125 C 517.78385 60.138023 518.07291 59.869795 518.375 59.5 C 518.76041 59.817711 519.21354 60.067711 519.71875 60.25 C 520.15625 60.406252 520.55729 60.500002 520.90625 60.5 L 521.1875 60.5 L 521.71875 60.5 L 524.5 60.5 L 525.03125 60.5 L 528.9375 60.5 L 528.9375 58.59375 C 528.9375 57.666672 528.85937 56.994797 528.71875 56.59375 C 528.625 56.328131 528.40625 55.973965 528.03125 55.5 L 527.40625 56.75 C 527.79687 57.171881 528.05729 57.494797 528.15625 57.71875 C 528.30208 58.041671 528.375 58.510421 528.375 59.125 L 525.03125 59.125 L 525.03125 58.96875 L 524.125 52.84375 L 524.5 52.96875 C 524.55729 52.822927 524.58333 52.609385 524.625 52.3125 C 524.66666 52.015636 524.6875 51.729178 524.6875 51.46875 C 524.42187 51.364595 524.16666 51.260428 523.90625 51.15625 C 523.56771 51.00522 523.40625 50.770845 523.40625 50.46875 L 523.28125 50.375 z M 503.6875 50.5 L 503.09375 51.625 L 504.34375 52.28125 L 504.96875 51.15625 L 503.6875 50.5 z M 536.125 50.5 L 535.53125 51.625 L 536.78125 52.28125 L 537.40625 51.15625 L 536.125 50.5 z M 544.9375 51.03125 L 542.71875 51.90625 C 541.72396 52.281261 541.03125 52.68751 540.625 53.15625 C 540.1875 53.666676 539.96875 54.385425 539.96875 55.28125 C 539.96875 55.432299 540.11458 55.635424 540.4375 55.90625 L 541.375 56.625 L 541.625 56.375 C 542.42187 56.848964 543.0625 57.278651 543.53125 57.6875 C 544 58.096359 544.41666 58.572921 544.78125 59.125 L 539.375 59.125 L 538.84375 59.125 L 538.25 59.125 C 538.07812 59.125004 537.91145 58.854171 537.75 58.3125 C 537.64583 57.958338 537.53645 57.427089 537.40625 56.6875 L 537.1875 55.34375 C 537.11458 55.020841 537.02343 54.708341 536.96875 54.40625 C 536.91406 54.104175 536.86458 53.791676 536.8125 53.46875 C 536.65104 53.656259 536.53646 53.822926 536.4375 54 C 536.31771 54.218759 536.25 54.416675 536.25 54.59375 C 536.25 54.635425 536.27864 54.760425 536.3125 54.9375 C 536.34635 55.114591 536.36458 55.208341 536.375 55.25 C 535.5 55.656257 534.77083 56.143236 534.1875 56.6875 C 533.60417 57.231776 533.3125 57.739588 533.3125 58.1875 C 533.3125 58.312504 533.50781 58.388025 533.90625 58.46875 C 534.30469 58.549483 534.80729 58.593754 535.40625 58.59375 C 535.67187 58.593754 535.91666 58.536463 536.15625 58.375 C 536.39583 58.213546 536.59375 57.979171 536.75 57.6875 C 536.8802 58.442713 537.0677 59.052087 537.28125 59.53125 C 537.5677 60.171878 537.875 60.500002 538.25 60.5 L 538.84375 60.5 L 539.375 60.5 L 545.15625 60.5 L 545.6875 60.5 L 549.0625 60.5 L 549.59375 60.5 L 550.5625 60.5 C 551.03125 60.500002 551.35416 60.445315 551.5625 60.375 C 551.77083 60.30469 552 60.187503 552.25 60 C 552.51041 60.156253 552.72916 60.276044 552.90625 60.34375 C 553.17708 60.447919 553.44791 60.500002 553.71875 60.5 L 554.25 60.5 C 554.71354 60.500002 555.07812 60.437502 555.34375 60.34375 C 555.52604 60.281252 555.72395 60.161461 555.96875 59.96875 C 556.16666 60.135419 556.38541 60.252607 556.625 60.34375 C 556.86458 60.434898 557.16666 60.500002 557.5 60.5 L 558.09375 60.5 L 558.09375 58.625 C 558.09374 58.036463 558.02082 57.572922 557.90625 57.21875 C 557.82812 56.984381 557.68228 56.697923 557.46875 56.375 L 556.96875 57.21875 C 557.18749 57.505214 557.30728 57.666672 557.34375 57.71875 C 557.55728 58.041671 557.68749 58.364588 557.6875 58.65625 C 557.68749 58.791671 557.61718 58.882816 557.53125 58.96875 C 557.4453 59.054691 557.35937 59.125004 557.21875 59.125 C 556.91666 59.125004 556.67708 59.01042 556.5 58.8125 C 556.29687 58.588546 556.10937 58.20313 555.96875 57.625 L 555.8125 56.875 L 555.46875 57.34375 C 555.5052 57.520839 555.54166 57.692713 555.5625 57.84375 C 555.58333 57.994796 555.59374 58.151046 555.59375 58.3125 C 555.59374 58.609379 555.48958 58.833337 555.28125 58.96875 C 555.09374 59.088545 554.79687 59.125004 554.40625 59.125 L 553.90625 59.125 C 553.57291 59.125004 553.27083 59.015629 553.03125 58.78125 C 552.83333 58.588546 552.66666 58.317713 552.5 57.9375 C 552.40625 57.718755 552.27083 57.354172 552.125 56.875 L 551.8125 57.34375 C 551.85416 57.531255 551.89062 57.692713 551.90625 57.84375 C 551.92187 57.994796 551.90625 58.161463 551.90625 58.3125 C 551.90625 58.671879 551.77083 58.911462 551.46875 59.03125 C 551.28646 59.10417 550.98437 59.125004 550.5625 59.125 L 549.59375 59.125 L 549.59375 58.59375 C 549.59375 57.666672 549.51562 56.994797 549.375 56.59375 C 549.28125 56.328131 549.0625 55.973965 548.6875 55.5 L 548.0625 56.75 C 548.45312 57.171881 548.71354 57.494797 548.8125 57.71875 C 548.95833 58.041671 549.03125 58.510421 549.03125 59.125 L 545.6875 59.125 C 545.30208 58.369796 544.79166 57.64063 544.15625 56.9375 C 543.5677 56.281256 542.88541 55.661465 542.09375 55.0625 C 541.88021 54.906258 541.64583 54.750008 541.4375 54.59375 C 541.10416 54.343758 540.9375 54.15105 540.9375 54.03125 C 540.9375 53.911467 541.20833 53.755217 541.71875 53.53125 C 542.11979 53.354176 542.63021 53.151051 543.28125 52.9375 L 544.9375 52.40625 L 544.9375 51.03125 z M 501.875 51.21875 L 501.3125 52.34375 L 502.5625 53 L 503.15625 51.875 L 501.875 51.21875 z M 534.3125 51.21875 L 533.75 52.34375 L 535 53 L 535.59375 51.875 L 534.3125 51.21875 z M 554.59375 51.34375 L 554 52.46875 L 555.25 53.15625 L 555.84375 52 L 554.59375 51.34375 z M 556.09375 52.75 L 555.53125 53.84375 L 556.78125 54.53125 L 557.40625 53.40625 L 556.09375 52.75 z M 554.3125 53.4375 L 553.75 54.59375 L 555 55.25 L 555.59375 54.09375 L 554.3125 53.4375 z M 495.59375 55.5 L 494.96875 56.75 C 495.35937 57.171881 495.61979 57.494797 495.71875 57.71875 C 495.86458 58.041671 495.9375 58.510421 495.9375 59.125 L 492.59375 59.125 L 492.59375 58.53125 C 492.59374 57.843755 492.42707 57.286464 492.09375 56.90625 C 491.73436 56.494798 491.20832 56.312506 490.5 56.3125 C 490.04166 56.312506 489.63541 56.369798 489.25 56.5 C 488.90624 56.61459 488.51562 56.791673 488.09375 57.0625 C 487.92707 57.166672 487.46353 57.500005 486.71875 58.03125 C 486.26041 58.359379 485.72916 58.630212 485.09375 58.84375 C 484.5052 59.04167 483.96875 59.125004 483.53125 59.125 C 483.07291 59.125004 482.68229 58.942712 482.34375 58.53125 C 482.02604 58.145838 481.77604 57.583339 481.59375 56.875 L 481.28125 57.34375 C 481.31771 57.526047 481.32552 57.690109 481.34375 57.84375 C 481.36198 57.997401 481.375 58.161463 481.375 58.3125 C 481.375 58.671879 481.23958 58.911462 480.9375 59.03125 C 480.75521 59.10417 480.45312 59.125004 480.03125 59.125 L 479.0625 59.125 L 479.0625 58.59375 C 479.06249 58.041671 478.94791 57.541672 478.71875 57.09375 C 478.51562 56.697923 478.20833 56.30209 477.78125 55.90625 L 477.34375 57.125 C 477.6927 57.510422 477.96353 57.885422 478.15625 58.25 C 478.39583 58.703129 478.49999 59.151045 478.5 59.5625 C 478.49999 60.041669 478.27603 60.559898 477.8125 61.15625 C 477.34895 61.752605 476.78124 62.265626 476.125 62.65625 C 475.40104 63.083333 474.72916 63.281249 474.0625 63.28125 C 473.76041 63.281249 473.40364 63.257812 473.03125 63.1875 C 472.65885 63.117187 472.3125 63.036458 471.96875 62.96875 L 471.84375 63.28125 C 472.21354 63.421874 472.5625 63.578124 472.9375 63.71875 C 473.38021 63.885416 473.77604 64.015624 474.09375 64.09375 C 474.51041 64.197915 474.89062 64.249999 475.25 64.25 C 475.64062 64.249999 476.14583 64.062499 476.75 63.6875 C 477.38541 63.296875 477.91666 62.822917 478.34375 62.28125 C 478.83333 61.666668 479.06249 61.072918 479.0625 60.5 L 480.03125 60.5 C 480.51042 60.500002 480.84375 60.445315 481.0625 60.375 C 481.28125 60.30469 481.5 60.187503 481.71875 60 C 481.97916 60.161461 482.21354 60.270836 482.40625 60.34375 C 482.66145 60.437502 482.9375 60.500002 483.21875 60.5 L 492.0625 60.5 L 492.59375 60.5 L 496.5 60.5 L 496.5 58.59375 C 496.5 57.666672 496.42187 56.994797 496.28125 56.59375 C 496.1875 56.328131 495.96875 55.973965 495.59375 55.5 z M 504.0625 56.15625 L 504.21875 57 C 503.9375 57.32813 503.625 57.500005 503.3125 57.5 C 503.05729 57.500005 502.86458 57.494797 502.71875 57.46875 C 502.57292 57.442714 502.45312 57.39063 502.34375 57.34375 C 502.52083 57.057297 502.73958 56.830735 503 56.65625 C 503.26041 56.481777 503.60937 56.317715 504.0625 56.15625 z M 536.5 56.15625 L 536.65625 57 C 536.375 57.32813 536.0625 57.500005 535.75 57.5 C 535.49479 57.500005 535.30208 57.494797 535.15625 57.46875 C 535.01042 57.442714 534.89062 57.39063 534.78125 57.34375 C 534.95833 57.057297 535.17708 56.830735 535.4375 56.65625 C 535.69791 56.481777 536.04687 56.317715 536.5 56.15625 z M 520.03125 57.3125 C 520.22916 57.572922 520.3802 57.817713 520.5 58.0625 C 520.64062 58.354171 520.74479 58.666671 520.8125 58.96875 L 520.75 59.0625 C 520.44791 59.026045 520.12239 58.911462 519.78125 58.75 C 519.4401 58.588546 519.1875 58.421879 519 58.21875 C 519.15625 57.958338 519.29166 57.76563 519.40625 57.65625 C 519.57812 57.48438 519.78125 57.375005 520.03125 57.3125 z M 489.75 57.71875 C 490.17186 57.718755 490.52603 57.794276 490.84375 57.9375 C 491.16145 58.080734 491.34374 58.276046 491.34375 58.53125 C 491.34374 58.734379 491.1979 58.901046 490.9375 59 C 490.67707 59.098962 490.2552 59.125004 489.6875 59.125 L 486.09375 59.125 C 486.67708 58.828129 487.2552 58.546879 487.84375 58.25 C 488.58332 57.901047 489.22916 57.718755 489.75 57.71875 z M 494.40625 61.71875 L 493.84375 62.875 L 495.09375 63.53125 L 495.71875 62.40625 L 494.40625 61.71875 z M 526.84375 61.71875 L 526.28125 62.875 L 527.53125 63.53125 L 528.15625 62.40625 L 526.84375 61.71875 z M 547.5 61.71875 L 546.9375 62.875 L 548.1875 63.53125 L 548.8125 62.40625 L 547.5 61.71875 z "
       transform="translate(0,-568)"
       id="text4492" />
    <path
       style="fill:none;stroke:#000000;stroke-width:6.38682795;stroke-linecap:round;stroke-linejoin:round;stroke-miterlimit:4;stroke-opacity:1;stroke-dasharray:none"
       d="m 436.94223,-322.42334 -130.95125,65.70132"
       id="path4532"
       inkscape:connector-curvature="0"
       sodipodi:nodetypes="cc" />
    <path
       style="fill:none;stroke:#000000;stroke-width:6.38682795;stroke-linecap:round;stroke-linejoin:miter;stroke-miterlimit:4;stroke-opacity:1;stroke-dasharray:none"
       d="m 305.99395,-256.89499 -9.47587,-49.64655"
       id="path4536"
       inkscape:connector-curvature="0"
       sodipodi:nodetypes="cc" />
    <path
       style="fill:none;stroke:#000000;stroke-width:6.38682795;stroke-linecap:round;stroke-linejoin:miter;stroke-miterlimit:4;stroke-opacity:1;stroke-dasharray:none"
       d="m 296.23713,-307.94901 16.75117,16.82244"
       id="path4538"
       inkscape:connector-curvature="0"
       sodipodi:nodetypes="cc" />
    <path
       style="fill:none;stroke:#000000;stroke-width:6.38682795;stroke-linecap:round;stroke-linejoin:miter;stroke-miterlimit:4;stroke-opacity:1;stroke-dasharray:none"
       d="m 296.2532,-307.97557 -9.68243,20.86314"
       id="path4540"
       inkscape:connector-curvature="0"
       sodipodi:nodetypes="cc" />
    <path
       sodipodi:type="arc"
       style="opacity:0.98999999;fill:#000000;fill-opacity:1;stroke:#000000;stroke-width:1.97099996;stroke-linecap:round;stroke-linejoin:round;stroke-miterlimit:4;stroke-opacity:1;stroke-dasharray:none"
       id="path3765-5"
       sodipodi:cx="14.042934"
       sodipodi:cy="11.170019"
       sodipodi:rx="1.2438533"
       sodipodi:ry="1.6297841"
       d="m 15.286788,11.170019 c 0,0.900105 -0.556892,1.629784 -1.243854,1.629784 -0.686961,0 -1.243853,-0.729679 -1.243853,-1.629784 0,-0.900105 0.556892,-1.629784 1.243853,-1.629784 0.686962,0 1.243854,0.729679 1.243854,1.629784 z"
       transform="matrix(10.031118,0,0,8.8950136,304.20139,-519.58185)" />
    <path
       style="fill:#000000;fill-opacity:1;stroke:#000000;stroke-width:4.12884045;stroke-linecap:butt;stroke-linejoin:round;stroke-miterlimit:4;stroke-opacity:1;stroke-dasharray:none"
       d="m 409.77214,-358.0842 68.95544,0.15694 c 0,0 0.16606,-10.59969 0.0155,-30.53212 -0.0748,-10.10148 -21.07705,-19.29251 -33.57726,-19.13381 -12.90816,0.16387 -35.19356,8.2239 -35.39472,18.02541 -0.54271,26.44638 0,31.48285 -4e-5,31.48287 z"
       id="path3767-5"
       inkscape:connector-curvature="0"
       sodipodi:nodetypes="ccssscc" />
    <path
       sodipodi:type="arc"
       style="opacity:0.98999999;fill:#000000;fill-opacity:1;stroke:#000000;stroke-width:1.97099996;stroke-linecap:round;stroke-linejoin:round;stroke-miterlimit:4;stroke-opacity:1;stroke-dasharray:none"
       id="path3765-5-5"
       sodipodi:cx="14.042934"
       sodipodi:cy="11.170019"
       sodipodi:rx="1.2438533"
       sodipodi:ry="1.6297841"
       d="m 15.286788,11.170019 c 0,0.900105 -0.556892,1.629784 -1.243854,1.629784 -0.686961,0 -1.243853,-0.729679 -1.243853,-1.629784 0,-0.900105 0.556892,-1.629784 1.243853,-1.629784 0.686962,0 1.243854,0.729679 1.243854,1.629784 z"
       transform="matrix(10.031118,0,0,8.8950136,17.858471,-519.77531)" />
    <path
       style="fill:#000000;fill-opacity:1;stroke:#000000;stroke-width:4.12884045;stroke-linecap:butt;stroke-linejoin:round;stroke-miterlimit:4;stroke-opacity:1;stroke-dasharray:none"
       d="m 123.42923,-358.27764 68.95542,0.15693 c 0,0 0.16606,-10.5997 0.0155,-30.53215 -0.0744,-10.1007 -21.07709,-19.29174 -33.57727,-19.13303 -12.90814,0.16388 -35.19358,8.2239 -35.39472,18.02542 -0.54272,26.44636 0,31.48285 -5e-5,31.48287 z"
       id="path3767-5-7"
       inkscape:connector-curvature="0"
       sodipodi:nodetypes="ccssscc" />
    <path
       style="font-size:18.42536354px;font-style:normal;font-variant:normal;font-weight:500;font-stretch:normal;line-height:125%;letter-spacing:0px;word-spacing:0px;fill:#ffffff;fill-opacity:1;stroke:none;font-family:Ubuntu;-inkscape-font-specification:Ubuntu Medium"
       d="M 427.28125 181.1875 L 426.25 183.15625 L 428.46875 184.34375 L 429.53125 182.375 L 427.28125 181.1875 z M 424.15625 182.4375 L 423.125 184.4375 L 425.34375 185.5625 L 426.375 183.59375 L 424.15625 182.4375 z M 443.28125 184.875 L 443.0625 187.53125 C 444.38411 187.94142 445.34114 188.76043 445.90625 190 C 446.36197 190.9935 446.59374 192.306 446.59375 193.9375 L 446.46875 193.9375 L 441.3125 193.9375 C 440.92968 193.93751 440.625 193.88673 440.40625 193.75 C 440.14192 193.58594 439.94401 193.3112 439.84375 192.9375 L 439.53125 192.9375 C 439.43099 193.27475 439.38021 193.59245 439.34375 193.875 C 439.30729 194.15756 439.28125 194.46615 439.28125 194.8125 C 439.28125 195.22266 439.49153 195.57422 439.90625 195.875 C 440.32096 196.17579 440.79297 196.3125 441.3125 196.3125 L 446.46875 196.3125 L 447.4375 196.3125 L 449.125 196.3125 C 449.96354 196.3125 450.55468 196.24805 450.9375 196.125 C 451.32031 196.00196 451.71093 195.79688 452.09375 195.46875 C 452.54947 195.75131 452.944 195.9349 453.28125 196.0625 C 453.72786 196.22657 454.19531 196.3125 454.6875 196.3125 L 471.125 196.3125 L 471.125 192.875 C 471.12498 191.67188 470.83331 190.72787 470.25 190.0625 C 469.62107 189.34246 468.70831 188.96876 467.46875 188.96875 C 466.66665 188.96876 465.92446 189.08465 465.25 189.3125 C 464.64842 189.51303 463.95701 189.8698 463.21875 190.34375 C 462.92707 190.52605 462.14712 191.07032 460.84375 192 C 460.04165 192.57423 459.08072 193.06381 457.96875 193.4375 C 456.93879 193.78386 456.04687 193.93751 455.28125 193.9375 C 454.47916 193.93751 453.77994 193.59506 453.1875 192.875 C 452.63151 192.20053 452.19401 191.23959 451.875 190 L 451.3125 190.8125 C 451.3763 191.13152 451.40559 191.41863 451.4375 191.6875 C 451.4694 191.95639 451.5 192.23569 451.5 192.5 C 451.5 193.12891 451.24739 193.54037 450.71875 193.75 C 450.39974 193.87761 449.86328 193.93751 449.125 193.9375 L 447.4375 193.9375 C 447.43749 191.73178 447.15364 189.96095 446.625 188.59375 C 445.96874 186.89845 444.85807 185.64975 443.28125 184.875 z M 436.375 187.5625 L 435.3125 189.78125 C 435.99609 190.51954 436.42057 191.07683 436.59375 191.46875 C 436.84895 192.03386 436.96874 192.86199 436.96875 193.9375 L 431.09375 193.9375 C 431.04949 192.48922 430.82364 191.18781 430.34375 190.0625 C 429.72394 188.60418 428.87889 187.87501 427.8125 187.875 C 427.00129 187.87501 426.27994 188.41147 425.6875 189.46875 C 425.15884 190.40756 424.90624 191.37631 424.90625 192.40625 C 424.90624 193.29037 425.20181 193.96876 425.8125 194.40625 C 426.31379 194.77084 426.97915 194.93751 427.78125 194.9375 C 428.13671 194.93751 428.49282 194.90821 428.84375 194.8125 C 429.19465 194.7168 429.52863 194.57032 429.875 194.40625 C 429.95702 194.61589 430.03058 194.82618 430.0625 195.03125 C 430.09439 195.23633 430.09373 195.56641 430.09375 196.03125 C 430.09373 197.28907 429.24868 198.29297 427.5625 199.03125 C 426.10416 199.66927 424.41015 200 422.46875 200 C 420.65494 200 419.27343 199.73828 418.34375 199.21875 C 417.34114 198.65365 416.84375 197.77865 416.84375 196.59375 C 416.84375 196.01954 416.92578 195.42318 417.0625 194.8125 C 417.17187 194.32943 417.34765 193.73699 417.59375 193.0625 C 417.77604 192.57032 417.98567 192.01303 418.25 191.375 L 417.6875 191.125 C 417.09505 192.21876 416.63151 193.31251 416.3125 194.40625 C 415.96614 195.59115 415.8125 196.73698 415.8125 197.8125 C 415.8125 199.37109 416.39062 200.51953 417.59375 201.3125 C 418.70573 202.04166 420.27994 202.40625 422.3125 202.40625 C 424.89192 202.40625 426.97264 202.0039 428.53125 201.15625 C 430.26301 200.20833 431.12498 198.83594 431.125 197.03125 L 431.125 196.3125 L 437.96875 196.3125 L 437.96875 193 C 437.96874 191.37761 437.83984 190.20183 437.59375 189.5 C 437.42968 189.03517 437.03124 188.39194 436.375 187.5625 z M 427.5 190.34375 C 427.8828 190.34376 428.18228 190.53256 428.4375 190.90625 C 428.53775 191.04298 428.73176 191.3724 428.96875 191.9375 C 428.65884 192.07423 428.39256 192.18165 428.1875 192.25 C 427.98241 192.31837 427.76822 192.34376 427.53125 192.34375 C 427.194 192.34376 426.88931 192.28907 426.625 192.125 C 426.36067 191.96095 426.21874 191.72006 426.21875 191.4375 C 426.21874 191.1185 426.32616 190.86589 426.53125 190.65625 C 426.73632 190.44662 427.06249 190.34376 427.5 190.34375 z M 466.125 191.46875 C 466.86326 191.46876 467.50649 191.59311 468.0625 191.84375 C 468.61847 192.09441 468.90623 192.45964 468.90625 192.90625 C 468.90623 193.26173 468.67446 193.51433 468.21875 193.6875 C 467.763 193.86068 467.02472 193.93751 466.03125 193.9375 L 459.75 193.9375 C 460.77082 193.41798 461.78254 192.89454 462.8125 192.375 C 464.10675 191.76433 465.21352 191.46876 466.125 191.46875 z M 435.65625 197.90625 L 434.625 199.84375 L 436.84375 201.03125 L 437.90625 199.0625 L 435.65625 197.90625 z M 432.53125 199.125 L 431.5 201.125 L 433.71875 202.28125 L 434.75 200.28125 L 432.53125 199.125 z "
       transform="translate(0,-568)"
       id="text4542" />
    <path
       style="font-size:35.04254913px;font-style:normal;font-variant:normal;font-weight:500;font-stretch:normal;line-height:125%;letter-spacing:0px;word-spacing:0px;fill:#ffffff;fill-opacity:1;stroke:none;font-family:Ubuntu;-inkscape-font-specification:Ubuntu Medium"
       d="M 158.78125 176.34375 C 156.46561 176.34378 154.59627 176.9754 153.1875 178.21875 C 151.77872 179.46214 150.94143 181.25532 150.65625 183.59375 L 153.8125 183.96875 C 154.08626 182.22349 154.68415 180.94633 155.5625 180.125 C 156.44084 179.30371 157.53193 178.87502 158.84375 178.875 C 160.20118 178.87502 161.34586 179.34316 162.28125 180.25 C 163.21662 181.15688 163.68749 182.20853 163.6875 183.40625 C 163.68749 184.06788 163.50688 184.65982 163.1875 185.21875 C 162.86809 185.77771 162.19155 186.52768 161.125 187.46875 C 160.05843 188.40985 159.31689 189.13451 158.90625 189.625 C 158.34729 190.29803 157.93845 190.9634 157.6875 191.625 C 157.34528 192.50335 157.18749 193.54086 157.1875 194.75 C 157.18749 194.95533 157.17608 195.27685 157.1875 195.6875 L 160.15625 195.6875 C 160.17905 194.45554 160.25795 193.5788 160.40625 193.03125 C 160.55453 192.48372 160.78575 191.98457 161.09375 191.5625 C 161.40173 191.14045 162.05866 190.48351 163.0625 189.59375 C 164.55681 188.27054 165.54916 187.14274 166.0625 186.21875 C 166.5758 185.29479 166.84373 184.2826 166.84375 183.1875 C 166.84373 181.29395 166.11634 179.6784 164.65625 178.34375 C 163.19613 177.00915 161.23376 176.34378 158.78125 176.34375 z M 157 198.34375 L 157 201.875 L 160.5 201.875 L 160.5 198.34375 L 157 198.34375 z "
       transform="translate(0,-568)"
       id="text4392" />
    <rect
       style="opacity:0.98999999;fill:#000000;fill-opacity:1;stroke:#000000;stroke-width:0;stroke-linecap:round;stroke-linejoin:round;stroke-miterlimit:4;stroke-opacity:1;stroke-dasharray:none"
       id="rect3775-6-5-2"
       width="20.965456"
       height="19.412464"
       x="407.93216"
       y="-350.29245"
       ry="2.8571582" />
    <text
       xml:space="preserve"
       style="font-size:17.46800804px;font-style:normal;font-variant:normal;font-weight:500;font-stretch:normal;line-height:125%;letter-spacing:0px;word-spacing:0px;fill:#ffffff;fill-opacity:1;stroke:none;font-family:Ubuntu;-inkscape-font-specification:Ubuntu Medium"
       x="414.87689"
       y="-334.21805"
       id="text3864-0-8"
       sodipodi:linespacing="125%"><tspan
         sodipodi:role="line"
         id="tspan3866-7-0"
         x="414.87689"
         y="-334.21805">?</tspan></text>
  </g>
</svg>
