<?xml version="1.0" encoding="UTF-8"?>
<svg id="Layer_1" xmlns="http://www.w3.org/2000/svg" version="1.1" viewBox="0 0 1000 1000">
  <!-- Generator: Adobe Illustrator 29.1.0, SVG Export Plug-In . SVG Version: 2.1.0 Build 142)  -->
  <defs>
    <style>
      .st0 {
        fill: #030302;
      }

      .st1 {
        fill: #fdfdfd;
      }
    </style>
  </defs>
  <g id="L_HAND_Outlines">
    <path id="Group_5" class="st0" d="M198.8,370.5c-.8.3-1.9.7-2.7,1-4.4,1.8-7.4,5-10,8.9-4.8,8.7-6.3,20.4-3.6,30,0,.3.2.6.3.8,1.3,5.8,4.6,6.7,4.6,6.7,3.4,2.3,6.5,2.7,10.6,2.6.4,0,.8,0,1.2,0,.5,2.9,1.6,5.1,3.4,7.6,2.3,2.9,5.1,5.1,8.8,5.6,4.3.1,6.8-.9,9.9-3.8.2-.2.4-.4.6-.6.8.6,1.6,1.2,2.4,1.8.3.2.7.5,1,.7,1.4,1,2.6,1.6,4.2,2.1,3.7.5,7.6.5,10.9-1.5.3-.2.6-.4.9-.6,3.4-2.4,5.8-5.8,7.9-9.3.2-.3.3-.6.5-.9.8-1.5,1.6-2.8,2-4.5,0-.3,0-.6.1-.8q1.2.3,2,1c3.2,2.6,6.3,3.8,10.4,3.9,6.1-.2,12.7-3.6,17-8.1,1.6-1.7,3.2-2.8,5.2-3.8.4-.2.8-.3,1.1-.5,0,0,12.4-4.8,10.9-6.4q-.8-.3-1.5-1.7c-.2-.6-.5-1.2-.7-1.8-2.6-6.6-5.9-13.8-12.6-17-5.6-2.3-11-1.9-16.7-.3q-.4-.5-.8-1.1c-1.4-1.7-3.1-2.8-4.8-4-.3-.2-.6-.4-.9-.7-4-2.8-7.5-3-12.3-2.6-2.6.5-4.8,1.5-7.1,2.9q-1.6.9-2.8.7t-2.2-1.7c-3.8-2.8-8.3-3.6-12.9-3.1-2.6.5-4.8,1.5-7.1,2.7-.4.2-.7.3-1.1.5q-.8-.3-1.7-.8c-.4-.2-.8-.4-1.2-.6q-.6-.3-1.2-.7-.6-.3-1.3-.7c-.3-.2-.6-.3-1-.5-4.8-2.5-9.6-1.3-9.6-1.3Z"/>
    <path id="Group_4" class="st1" d="M256.7,379.1q3.9,2.9,5.5,4.4c0,1.2-.4,1.7-1.3,2.5-.4.3-.7.6-1.1.9-4,3.5-6.6,7.5-9,12.1-.2.4-.4.7-.6,1.1-1,2.1-1.2,3.9-1.3,6.2-.3,6.9-3.6,14.4-8.5,19.4-.6.5-1.2,1-1.8,1.5-.2.2-.5.5-.7.7-1.7,1.4-3.1,1.7-5.4,1.6-2.2-.3-3.8-.8-5.4-2.4-.2-.4-.5-.7-.7-1.1-.2-.3-.5-.6-.7-.9-2.7-5.4-1.8-12.4,0-18,.3-.9.6-1.8.8-2.7,3-9.6,8.7-20.4,17.9-25.4,3.9-1.8,8.4-2.2,12.1.2Z"/>
    <path id="Group_3" class="st1" d="M233.4,381.7c-.7,1.2-1.5,2.2-2.4,3.3-4.4,5.6-7.4,12.2-9.2,19.1-.2.8-.5,1.7-.8,2.5-1.3,4.2-1.3,8.1-1,12.4.1,3.1-.3,4.7-2.4,7.1-1.6,1.5-2.7,2.3-4.9,2.7-2.5-.2-4.3-1.9-6-3.7-2.5-4-3-7.3-3-12,0-.9,0-1.9,0-2.8,0-5.2.8-10.1,2.6-15,.1-.3.2-.6.3-.9,1.8-5,4.5-9.4,8.6-12.8q.9-.7,1.8-2c3.7-4,10.3-3.7,15-1.6.6.4,1.1.7,1.5,1.1,0,0,.6,1.4-.2,2.5Z"/>
    <path id="Group_2" class="st1" d="M281.1,386.1c.3.1.6.2.9.3,1.1.7,2,1.6,2.9,2.6.2.2.4.4.6.6,1.9,2.1,3.1,4.4,4.4,6.9.2.4.4.8.6,1.2q1.5,2.9,1.5,4.4c-.3,0-.7.1-1,.2q-2.9.6-5.6,1.9t-2.8.9c-1.9.4-2.4,1.2-3.6,2.7-3.1,3.6-8.6,7.3-13.4,7.8-3.7.1-6.7-.3-9.5-2.8-1.9-2.1-2.6-4.4-2.5-7.2,1.2-6.1,6-13,11.1-16.5,5.1-3.3,10.4-5.4,16.4-3Z"/>
    <path id="Group_1" class="st1" d="M208.5,376.8q1.2.9,2.1,1.7c-.6,1.3-1.2,2.1-2.2,3.1-8.3,9.4-9.3,22-10,33.9-.7,0-1.3,0-2,0-.4,0-.7,0-1.1,0-2.4-.1-4-1.3-5.6-2.9-3.6-5.3-3.9-12.1-2.8-18.3.3-1.4.7-2.8,1.1-4.2.1-.4.2-.9.4-1.3,1.4-4.8,3.9-9.3,8.3-11.9,3.9-1.8,8-2.4,11.9-.2Z"/>
  </g>
  <g id="R_HAND_Outlines">
    <path id="Group_51" data-name="Group_5" class="st0" d="M737.3,431.8v.4c-.3,0-.6.1-.9.2-3.4.7-5.4,2.2-8,4.5-.4.3-.7.5-1.1.8-1.2,1-1.8,2-2.6,3.3-.2.4-.5.8-.7,1.3-.7,1.4-1.1,2.7-1.5,4.3-.5,0-1,0-1.5,0-5.9.2-10,.7-14.5,5-.5.7-1.1,1.4-1.6,2.2q-.8,1-1.7,1.6c-1.3,0-2.3-.2-3.5-.5-4.2-.9-9-1.2-12.8,1-.7.5-1.5,1.1-2.2,1.6-.3.2-.6.4-.9.6-3,2.2-4.8,6.3-5.4,9.9-.7,9.1,0,17.2,5.5,24.8,1.5,1.6,3,2.8,5,3.8,0,0,5.1,2.4,9.4,1.9,2.7-.6,4.8-1.3,7-3.1,2.4-2.7,3.3-5.1,3.4-8.7q0-.5,0-.9h.8c0,1.4.2,2.1.8,3.4.8,1,1.6,2,2.4,3.2,3.4,5.7,8.6,11.9,15,14.1,3.8,1.1,8.2,2.2,11.9.4,3.7-2.2,5.6-4.7,7-8.8q.1-.5.3-.9c.8,0,1.5,0,2.3,0,.3,0,.6,0,.9,0,1.2,0,2.3,0,3.5,0,3.1-.4,5.1-1.9,7-4.3.2-.3.4-.5.6-.7.3-.4.6-.8.9-1.2,2.8-5.1,1.9-12.3.6-17.7-.5-2-1-4.1-1.3-6.2-.4-2.8-1-5.4-1.9-8.1-.1-.3-.2-.6-.3-.9,2.1,1,4.3.9,6.5.5.3,0,.6-.1.9-.2,3.8-.6,5.4-2,7.7-5,2.6-3.9,3-8.3,2.3-12.8,0-.3-.1-.7-.2-1q-.3-1.7.7-2.6c.4-.2.9-.5,1.3-.7,1.2-.7,2.2-1.2,3.3-1.4,0,0,4.7-2.1,1.8-6.5l-.4-.8c-5-7.3-10.2-14.3-19.3-16.4-4.5-.7-9.2-.9-13.1,1.8-.4.4-.8.8-1.2,1.2-1.3,1.1-2.6,2.1-3.8,3.4-2.2,3.1-3.7,6.7-3.2,10.6q.1.6.3,1.2c-.6,3.7-5.5,3.4-5.5,3.4"/>
    <path id="Group_41" data-name="Group_4" class="st1" d="M738.1,438c.3,0,.6,0,.9,0,1.7,0,3.1.1,4.6,1,1.1,1.1,1.8,2.5,2.5,3.8.1.2.3.5.4.7,2.2,3.8,4,7.8,5.6,11.8.2.4.3.9.5,1.3,1.1,2.8,2,5.5,2.7,8.4.1.5.2.9.4,1.4,0,.4.2.8.3,1.2.4,1.5.8,2.9,1.3,4.4,1.6,4.7,2.5,11,.6,15.8q-.6.7-1.3,1.3c-.3.4-.6.8-1,1.3-1.6,1.7-2.8,1.9-5.1,2.3-3.5-.5-5.7-3.5-7.8-6.1-.3-.3-.6-.7-.8-1-3.3-4.1-5.6-8.7-8-13.3q-.2-.4-.4-.8c-3.5-6.6-5.1-14.1-5.9-21.5,0-.4,0-.9-.1-1.3-.2-2.6.6-4.6,2.2-6.7,2.6-2.4,4.7-3.9,8.3-3.9Z"/>
    <path id="Group_31" data-name="Group_3" class="st1" d="M717.3,451.5q.5,0,1,0c.3,0,.7,0,1,0,.4,0,.7,0,1.1,0,.9,0,1.7,0,2.6,0,0,.5.2,1,.3,1.5,2.7,14.2,7.9,27.4,17.7,38.3,1.1,1.8.7,3.9.5,5.9-.6,1.7-1.5,3.1-2.9,4.2-2.9,1.3-7.2.6-10.1-.5-7.4-3.7-11.8-11.4-15.2-18.6-.3-.7-.6-1.3-1-2-3.4-7-5.9-14.9-4.4-22.7,1.1-2.6,3.5-4.5,5.9-5.9,1.2-.4,2.3-.5,3.5-.5Z"/>
    <path id="Group_21" data-name="Group_2" class="st1" d="M768.8,418.8c4.1,3.2,7,6.9,9.7,11.3-.6.4-1.2.8-1.8,1.3-.3.2-.7.5-1,.7q-.9.6-1.7.6c-.2-.3-.4-.7-.5-1-.2-.4-.5-.9-.7-1.3-.2-.4-.5-.8-.7-1.3q-.5-1-1-1.5t-2.9,0-1,1.8c.1,1.3.5,1.9,1.3,3,3.1,4.9,3.8,9.9,2.5,15.5-.7,2.5-1.4,4.2-3.7,5.7-2.4.9-4.9.2-7.2-.8-6.4-3.6-10.1-12.1-12.1-18.9-.5-2-.5-3.8-.4-5.9,0-.3,0-.6,0-1,.2-3.5,1.8-6,4.3-8.4,5.2-4.3,11.6-3.5,17.1.2Z"/>
    <path id="Group_11" data-name="Group_1" class="st1" d="M699.7,459.7c1.7,1,2.1,2.3,2.6,4.1.5,2.3.7,4.5.9,6.8.2,1.4.6,2.7,1,4,.4,2.7.5,5.3.5,8,0,.4,0,.7,0,1.1,0,3.2-.7,5.7-3.1,8.1-2.7,1.6-5.3,1.7-8.4,1.3-1.5-.6-2.6-1.4-3.8-2.5-.3-.2-.5-.5-.8-.7-4.4-4.5-5.7-10.5-5.6-16.5,0-.4,0-.8,0-1.2,0-2.6.4-4.4,1.4-6.8.1-.3.3-.6.4-1,3-5.3,9.3-7,14.9-4.8Z"/>
  </g>
</svg>