<?xml version="1.0" encoding="UTF-8"?>
<svg xmlns="http://www.w3.org/2000/svg" version="1.1" viewBox="0 0 14400 14400">
  <defs>
    <style>
      .cls-1 {
        fill: #030302;
      }

      .cls-2 {
        fill: #fdfdfd;
      }
    </style>
  </defs>
  <!-- Generator: Adobe Illustrator 28.7.3, SVG Export Plug-In . SVG Version: 1.2.0 Build 164)  -->
  <g>
    <g id="Layer_1">
      <g id="L_HAND_Outlines">
        <path id="Group_5" class="cls-1" d="M6899.4,7070c-.8.2-2,.4-2.8.6-4.6,1.2-8,4-11.1,7.6-5.9,8-8.9,19.4-7.5,29.2,0,.3.1.6.2.9.5,5.9,3.7,7.2,3.7,7.2,3.1,2.8,6.1,3.6,10.1,4,.4,0,.8,0,1.2.1.2,3,.9,5.3,2.3,7.9,1.9,3.1,4.4,5.8,8,6.7,4.2.7,6.8,0,10.3-2.4.2-.2.5-.3.7-.5.7.7,1.4,1.4,2.1,2.1.3.3.6.6.9.8,1.2,1.1,2.4,2,3.9,2.6,3.6,1,7.5,1.5,11,0,.3-.2.6-.3.9-.5,3.7-1.9,6.5-4.9,9-8.2.2-.3.4-.6.6-.8,1-1.4,2-2.6,2.6-4.2,0-.3.1-.6.2-.8q1.2.5,1.8,1.2c2.8,3,5.8,4.5,9.8,5.2,6.1.6,13.1-1.9,17.9-5.8,1.8-1.5,3.5-2.3,5.7-3.1.4-.1.8-.2,1.2-.4,0,0,11.1-2.7,11.1-4.5,0-.9-.5-2-.7-2.4-.2-.6-.3-1.3-.4-1.9-1.7-6.8-4.1-14.5-10.3-18.5-5.2-3-10.6-3.3-16.5-2.5q-.3-.6-.7-1.2c-1.2-1.8-2.7-3.2-4.3-4.6-.3-.3-.6-.5-.9-.8-3.6-3.3-7-4-11.8-4.2-2.7.2-5,.9-7.4,1.9q-1.7.7-2.9.4t-2-1.9c-3.4-3.3-7.7-4.6-12.4-4.7-2.6.1-4.9.8-7.4,1.8-.4.1-.8.2-1.2.3q-.7-.4-1.6-1.1c-.4-.3-.7-.5-1.1-.8q-.6-.4-1.1-.8-.6-.4-1.2-.8c-.3-.2-.6-.4-.9-.6-4.5-3.1-9.4-2.5-9.4-2.5Z"/>
        <path id="Group_4" class="cls-2" d="M6955.7,7086.1q3.5,3.3,4.9,5.1c-.2,1.2-.6,1.6-1.6,2.3-.4.2-.8.5-1.2.7-4.4,2.9-7.5,6.6-10.5,10.8-.2.3-.5.7-.7,1-1.2,1.9-1.7,3.7-2.1,6-1.2,6.8-5.5,13.8-11,18.1-.6.4-1.3.8-2,1.2-.3.2-.5.4-.8.6-1.9,1.2-3.3,1.3-5.5.8-2.1-.6-3.7-1.3-5-3.1-.2-.4-.4-.8-.6-1.2-.2-.3-.4-.7-.6-1-1.9-5.7-.2-12.6,2.4-17.8.4-.9.8-1.7,1.2-2.6,4.2-9.1,11.3-19.1,21.1-22.9,4.1-1.2,8.6-1.1,12,1.8Z"/>
        <path id="Group_3" class="cls-2" d="M6932.2,7085.6c-.8,1.1-1.8,2-2.8,2.9-5.1,5-8.9,11.1-11.6,17.7-.3.8-.7,1.6-1.1,2.4-1.8,4-2.3,7.8-2.6,12.2-.3,3.1-.9,4.7-3.3,6.7-1.8,1.3-3,1.9-5.2,2.1-2.5-.5-4.1-2.4-5.5-4.4-2-4.3-2-7.7-1.4-12.3.1-.9.2-1.8.3-2.8.6-5.2,2.1-9.9,4.6-14.5.1-.3.3-.5.4-.8,2.4-4.7,5.7-8.8,10.2-11.6q.9-.6,2-1.7c4.2-3.5,10.7-2.4,15,.4.5.4,1,.9,1.4,1.3,0,0,.5,1.5-.5,2.5Z"/>
        <path id="Group_2" class="cls-2" d="M6979,7096.2c.3.2.6.3.8.5,1,.9,1.7,1.9,2.5,3,.2.2.3.4.5.7,1.6,2.3,2.5,4.7,3.5,7.4.2.4.3.8.5,1.3q1.1,3.1.9,4.5c-.3,0-.7,0-1,0q-3,.3-5.8,1.2t-2.9.5c-2,.2-2.5.9-3.9,2.2-3.5,3.2-9.5,6.2-14.3,6-3.7-.4-6.6-1.1-9.1-4.1-1.6-2.3-1.6-4.7-1.1-7.4,2-5.9,7.2-12.1,12.8-14.9,5.5-2.5,11.1-4,16.7-.9Z"/>
        <path id="Group_1" class="cls-2" d="M6908.2,7077.5q1.1,1.1,1.9,1.9c-.7,1.2-1.5,1.9-2.5,2.8-9.4,8.2-12.1,20.6-14.4,32.3-.7,0-1.3-.1-2-.2-.4,0-.7,0-1.1-.1-2.4-.5-3.8-1.8-5.2-3.6-2.9-5.7-2.3-12.6-.3-18.5.5-1.4,1-2.7,1.6-4,.2-.4.3-.8.5-1.2,2-4.5,5.1-8.7,9.8-10.7,4.1-1.3,8.3-1.3,11.8,1.4Z"/>
      </g>
      <g id="R_HAND_Outlines">
        <path id="Group_5-2" data-name="Group_5" class="cls-1" d="M7449.1,7114.3v.4c-.3,0-.6,0-.9,0-3.4.3-5.6,1.5-8.4,3.5-.4.2-.8.4-1.2.7-1.3.9-2,1.8-3,3-.3.4-.6.8-.9,1.2-.9,1.3-1.4,2.6-2,4.1-.5,0-1,0-1.5-.1-5.9-.5-10.1-.5-15,3.2-.6.6-1.3,1.3-1.9,1.9q-.9.9-1.9,1.4c-1.3,0-2.2-.5-3.4-.9-4-1.4-8.8-2.3-12.8-.6-.8.4-1.6.9-2.4,1.3-.3.2-.6.3-.9.5-3.2,1.8-5.5,5.7-6.6,9.2-1.8,8.9-2,17.1,2.4,25.3,1.3,1.8,2.7,3.2,4.5,4.4,0,0,4.7,3,9.1,3,2.8-.2,5-.7,7.3-2.3,2.7-2.4,3.9-4.7,4.4-8.2q0-.5.1-.9h.8c-.2,1.5,0,2.2.4,3.5.7,1.1,1.4,2.2,1.9,3.4,2.7,6,7.1,12.9,13.2,15.9,3.6,1.6,7.9,3.2,11.8,1.8,3.9-1.7,6.2-4,8-7.9q.2-.4.4-.9c.8.1,1.5.2,2.3.3.3,0,.6,0,.9.1,1.2.2,2.3.3,3.5.4,3.1,0,5.3-1.3,7.5-3.4.2-.2.4-.5.7-.7.4-.4.7-.7,1.1-1.1,3.4-4.7,3.4-11.9,2.7-17.5-.2-2.1-.5-4.2-.6-6.3,0-2.9-.3-5.5-.9-8.3,0-.3-.1-.6-.2-.9,1.9,1.3,4.1,1.4,6.4,1.3.3,0,.6,0,.9,0,3.8-.2,5.6-1.3,8.3-4,3-3.5,4-7.8,3.9-12.5,0-.3,0-.7,0-1q0-1.7,1.1-2.5c.5-.2.9-.4,1.4-.5,1.2-.6,2.3-.9,3.4-1,0,0,4.9-1.5,2.6-6.3l-.3-.9c-4.1-7.9-8.4-15.5-17.2-18.6-4.3-1.2-9.1-2-13.2.1-.4.4-.9.7-1.3,1-1.5.9-2.8,1.8-4.2,2.9-2.6,2.8-4.5,6.2-4.5,10.1q0,.6.1,1.2c-1,3.6-5.8,2.7-5.8,2.7"/>
        <path id="Group_4-2" data-name="Group_4" class="cls-2" d="M7449.1,7120.5c.3,0,.6,0,.9.1,1.7.2,3.1.5,4.5,1.5.9,1.2,1.4,2.7,2,4.1.1.2.2.5.3.8,1.7,4.1,3,8.2,4.1,12.4.1.5.2.9.4,1.4.7,2.9,1.3,5.7,1.6,8.7,0,.5.1,1,.2,1.5,0,.4,0,.8.1,1.2.2,1.5.4,3,.7,4.5,1,4.9,1.1,11.2-1.3,15.7q-.7.6-1.4,1.1c-.4.4-.7.8-1.1,1.2-1.8,1.5-3,1.6-5.3,1.6-3.4-.9-5.3-4.2-7-7-.2-.4-.5-.7-.7-1.1-2.7-4.4-4.5-9.3-6.3-14.1q-.2-.4-.3-.9c-2.6-6.9-3.3-14.6-3.2-22,0-.4,0-.9,0-1.3.2-2.6,1.1-4.5,3-6.4,2.9-2.1,5.2-3.3,8.8-2.8Z"/>
        <path id="Group_3-2" data-name="Group_3" class="cls-2" d="M7426.8,7131.4q.5,0,1,.1c.3,0,.7,0,1,.1.3,0,.7,0,1.1.1.9.1,1.7.2,2.6.3,0,.5,0,1,0,1.5.9,14.4,4.5,28.2,12.8,40.2.9,1.9.3,4-.2,6-.8,1.7-1.8,2.9-3.4,3.8-3,.9-7.2-.2-10-1.7-6.9-4.6-10.3-12.8-12.8-20.3-.2-.7-.5-1.4-.7-2.1-2.5-7.4-4-15.5-1.6-23.1,1.4-2.4,4-4,6.6-5.1,1.2-.2,2.3-.2,3.5,0Z"/>
        <path id="Group_2-2" data-name="Group_2" class="cls-2" d="M7481.9,7105.2c3.6,3.7,6.1,7.7,8.2,12.4-.7.3-1.3.7-2,1-.4.2-.7.4-1.1.6q-1,.4-1.8.3c-.1-.3-.3-.7-.4-1.1-.2-.5-.4-.9-.5-1.4-.2-.4-.4-.9-.5-1.4q-.4-1-.8-1.6t-2.9-.4-1.2,1.7c0,1.3.3,2,.9,3.1,2.4,5.2,2.5,10.3.6,15.7-1,2.4-1.9,4-4.4,5.2-2.5.6-4.9-.5-7-1.7-5.9-4.4-8.6-13.3-9.7-20.3-.2-2,0-3.9.3-5.9,0-.3,0-.6.1-.9.6-3.5,2.5-5.8,5.3-7.9,5.7-3.6,12-2.1,16.9,2.3Z"/>
        <path id="Group_1-2" data-name="Group_1" class="cls-2" d="M7408.3,7137.3c1.5,1.2,1.8,2.5,2.1,4.4.2,2.3.2,4.6,0,6.9,0,1.4.2,2.7.5,4.1,0,2.7-.1,5.4-.5,8,0,.4,0,.7-.1,1.1-.4,3.2-1.4,5.6-4,7.7-2.9,1.3-5.5,1-8.5.2-1.4-.8-2.4-1.7-3.4-3-.2-.3-.5-.5-.7-.8-3.8-5-4.3-11.1-3.6-17.1,0-.4,0-.8.1-1.2.3-2.5.9-4.3,2.2-6.5.2-.3.4-.6.5-.9,3.6-4.9,10.1-5.8,15.3-2.9Z"/>
      </g>
    </g>
  </g>
</svg>
