<?xml version="1.0" encoding="UTF-8"?>
<svg id="Layer_1" xmlns="http://www.w3.org/2000/svg" version="1.1" viewBox="0 0 115.2 97.4">
  <!-- Generator: Adobe Illustrator 29.3.0, SVG Export Plug-In . SVG Version: 2.1.0 Build 146)  -->
  <defs>
    <style>
      .st0 {
        fill: #030302;
      }

      .st1 {
        fill: #fdfdfd;
      }
    </style>
  </defs>
  <g id="R_HAND_Outlines">
    <path id="Group_51" class="st0" d="M66.9,20.7c-3.5,0-5.7.6-8.7,2.3-.4.2-.8.5-1.2.7-1.4.8-2.1,1.6-3.2,2.8-.3.4-.6.7-.9,1.2-.9,1.3-1.6,2.5-2.3,4l-1.5-.3c-5.8-.9-10-1.1-15.2,2.3-.6.6-1.3,1.2-2,1.9-.6.6-1.3,1-2,1.3-1.3-.2-2.2-.6-3.4-1.1-4-1.6-8.6-2.8-12.8-1.3-.8.4-1.7.8-2.5,1.2-.3.1-.7.3-1,.4-3.3,1.6-5.9,5.3-7.1,8.8-2.3,8.8-3.1,16.9.9,25.4,1.2,1.8,2.4,3.3,4.2,4.6,0,0,4.6,3.3,8.9,3.6,2.8-.1,5-.4,7.4-1.8,2.8-2.2,4.2-4.4,4.9-7.9l.2-.9h.8c.1,1.4.1,2.6.5,3.9.6,1.1.9,2,1.5,3.3,2.3,6.2,6.3,13.3,12.2,16.6,3.5,1.8,7.7,3.6,11.6,2.5,4-1.5,6.4-3.6,8.5-7.4.1-.3.3-.6.5-.8l2.3.4.9.2,3.4.6c3.1.2,5.4-.9,7.7-3,.3-.3.5-.4.7-.6.4-.3.7-.7,1.1-1,3.7-4.5,4.1-11.8,3.8-17.3-.1-2.1-.2-4.2-.2-6.3.1-2.8,0-5.5-.4-8.3,0-.3,0-.6-.1-.9,1.9,1.4,4.1,1.7,6.3,1.7.3,0,.6,0,.9,0,3.8,0,5.7-1,8.5-3.5,3.3-3.4,4.5-7.6,4.6-12.2,0-.3,0-.7,0-1,0-1.2.4-2,1.2-2.4.4-.1,1-.3,1.4-.5,1.3-.5,2.4-.8,3.5-.8,0,0,5-1.2,2.9-6.1l-.2-.9c-3.6-8.1-7.4-15.9-16-19.6-4.3-1.5-8.9-2.6-13.2-.6-.5.3-.9.6-1.4,1-1.5.8-2.9,1.6-4.4,2.7-2.7,2.7-4.9,5.9-5.1,9.8,0,.4,0,.8,0,1.2-1.3,3.5-6,2.3-6,2.3-.3,0-.8,0-.8,0Z"/>
    <path id="Group_41" class="st1" d="M67.5,26.1l.9.2c1.7.3,3,.7,4.3,1.8.9,1.3,1.3,2.8,1.8,4.2,0,.2.2.5.3.8,1.5,4.1,2.5,8.4,3.4,12.6.1.4.1.9.3,1.4.6,3,1,5.8,1.1,8.7,0,.5,0,.9.1,1.4,0,.4,0,.8,0,1.2.1,1.5.3,3,.5,4.6.7,4.9.5,11.3-2.3,15.6-.5.4-1,.7-1.5,1-.4.3-.7.7-1.2,1.1-1.9,1.4-3.1,1.4-5.4,1.3-3.4-1.1-5-4.5-6.6-7.4-.2-.3-.5-.8-.6-1.1-2.5-4.6-3.9-9.6-5.5-14.5,0-.3-.2-.6-.2-.9-2.2-7.1-2.5-14.8-1.9-22.2,0-.4.2-.9.1-1.3.3-2.6,1.4-4.4,3.4-6.2,3-1.9,5.3-3.1,8.8-2.4h.2Z"/>
    <path id="Group_31" class="st1" d="M47.6,36.1l2.6.5c0,.5,0,1,0,1.5,0,14.5,2.8,28.4,10.5,40.9.8,2,0,4-.6,5.9-.9,1.6-2,2.8-3.6,3.6-3.1.8-7.2-.7-9.8-2.3-6.6-5-9.5-13.3-11.6-21-.2-.7-.4-1.4-.6-2.1-2.1-7.5-3.1-15.7-.2-23.1,1.6-2.4,4.3-3.8,6.9-4.7,1.3-.2,2.4,0,3.5.1,0,0,2.6.8,3,.9Z"/>
    <path id="Group_21" class="st1" d="M101.2,12.7c3.5,3.9,5.6,8.1,7.5,12.9-.7.3-1.3.6-2,1-.3.1-.8.4-1.1.5-.7.3-1.3.4-1.8.3-.1-.3-.3-.8-.3-1.1-.1-.4-.3-1-.5-1.4s-.3-.9-.5-1.4c-.2-.7-.4-1.3-.7-1.7-.3-.4-1.2-.6-2.9-.5-1.6,0-2.1.6-1.3,1.6-.1,1.3.1,2,.7,3.2,2.2,5.4,1.9,10.4-.3,15.7-1.1,2.3-2.1,3.9-4.7,4.9-2.5.5-4.9-.7-6.9-2.1-5.6-4.7-7.7-13.7-8.5-20.8-.1-2.1.2-3.8.7-5.9l.2-1c.8-3.4,2.9-5.6,5.7-7.5,5.9-3.3,12-1.3,16.8,3.3h-.2Z"/>
    <path id="Group_11" class="st1" d="M25.8,40.5c1.5,1.3,1.6,2.6,1.8,4.5,0,2.4-.1,4.6-.3,6.9,0,1.4.1,2.8.3,4.1,0,2.7-.5,5.3-1,8l-.2,1.1c-.6,3.1-1.7,5.5-4.5,7.4-2.9,1.1-5.5.7-8.5-.2-1.4-.9-2.3-1.8-3.3-3.1-.3-.3-.4-.6-.7-.8-3.5-5.2-3.7-11.4-2.5-17.2l.2-1.2c.5-2.6,1.2-4.3,2.6-6.4.2-.3.4-.5.6-.9,3.9-4.7,10.4-5.2,15.5-2h0Z"/>
  </g>
</svg>