<?xml version="1.0" encoding="UTF-8"?>
<svg id="Layer_1" xmlns="http://www.w3.org/2000/svg" version="1.1" viewBox="0 0 121.4 72.5">
  <!-- Generator: Adobe Illustrator 29.3.0, SVG Export Plug-In . SVG Version: 2.1.0 Build 146)  -->
  <defs>
    <style>
      .st0 {
        fill: #030302;
      }

      .st1 {
        fill: #fdfdfd;
      }
    </style>
  </defs>
  <g id="L_HAND_Outlines">
    <path id="Group_5" class="st0" d="M24.8,2.2c-.8.2-2,.4-2.8.6-4.6,1.1-8.1,3.9-11.2,7.3C4.8,18,1.6,29.4,2.9,39.3c0,.3,0,.6.2.8.4,5.9,3.6,7.3,3.6,7.3,3,2.8,6,3.6,10.1,4.1l1.2.2c0,2.9.8,5.3,2.3,8,1.9,3.2,4.3,5.8,7.9,6.8,4.2.7,6.9,0,10.3-2.3.2-.2.5-.3.7-.5l2.1,2.1c.3.2.6.6.9.8,1.2,1.2,2.3,2,3.8,2.7,3.6,1,7.4,1.6,11,0,.3-.2.7-.3,1-.5,3.7-1.9,6.6-4.9,9.2-8,.2-.3.4-.5.6-.8,1-1.4,2-2.5,2.6-4.2,0-.3,0-.6.2-.8.8.3,1.4.7,1.8,1.3,2.8,3,5.7,4.7,9.7,5.4,6.1.7,13.1-1.7,18-5.5,1.8-1.4,3.6-2.3,5.7-3,.4,0,.8-.2,1.2-.3,0,0,13-2.9,11.7-4.7-.5-.3-.9-.9-1.2-1.9,0-.6-.3-1.3-.4-1.9-1.6-6.9-3.8-14.5-10-18.7-5.2-3.1-10.6-3.5-16.5-2.7-.2-.4-.4-.8-.6-1.2-1.1-1.9-2.7-3.2-4.2-4.7-.3-.2-.5-.5-.8-.8-3.5-3.4-7-4.1-11.8-4.4-2.6.1-5,.8-7.4,1.8-1.1.4-2.1.5-2.9.3s-1.4-.9-1.9-2c-3.4-3.3-7.7-4.8-12.3-4.9-2.6,0-5,.8-7.4,1.6-.4,0-.7.2-1.2.3-.5-.3-1-.6-1.6-1-.4-.3-.7-.5-1.1-.8-.4-.3-.7-.5-1.1-.9-.4-.3-.8-.6-1.2-.9-.3-.2-.5-.4-.9-.6-4.4-3.1-9.3-2.6-9.3-2.6h0Z"/>
    <path id="Group_4" class="st1" d="M80.8,19.2c2.3,2.3,3.9,4,4.8,5.2-.2,1.2-.6,1.6-1.7,2.3-.4.2-.8.5-1.2.7-4.5,2.9-7.6,6.5-10.7,10.7-.3.4-.5.6-.8,1-1.3,1.9-1.8,3.7-2.2,5.9-1.3,6.8-5.7,13.7-11.2,18-.7.4-1.3.8-2,1.2-.2.2-.6.4-.8.6-1.9,1.1-3.3,1.2-5.6.8-2.1-.6-3.6-1.3-5-3.2,0-.4-.4-.8-.5-1.2-.2-.3-.4-.7-.6-1-1.9-5.7,0-12.5,2.6-17.8.4-.8.9-1.7,1.2-2.6,4.4-9.1,11.6-18.9,21.4-22.5,4.1-1.2,8.6-1,11.9,2h.4Z"/>
    <path id="Group_3" class="st1" d="M57.4,18.3c-.9,1.1-1.8,2-2.9,2.9-5.2,4.9-9.1,11-11.9,17.6-.3.8-.7,1.6-1.2,2.4-1.9,4-2.5,7.8-2.8,12.1-.4,3.1-1,4.6-3.4,6.7-1.8,1.3-3,1.9-5.2,2-2.4-.6-4-2.5-5.4-4.5-1.9-4.3-1.9-7.7-1.2-12.3l.4-2.8c.8-5.1,2.3-9.9,4.8-14.5.1-.3.3-.6.4-.8,2.5-4.7,5.8-8.6,10.4-11.4.7-.4,1.4-.9,2.1-1.7,4.2-3.4,10.7-2.2,15.1.6.5.5,1,.9,1.3,1.3,0,0,.4,1.5-.6,2.4h.1Z"/>
    <path id="Group_2" class="st1" d="M104,29.6c.3.1.6.3.8.4,1,.9,1.7,1.9,2.5,3l.5.7c1.6,2.4,2.4,4.8,3.3,7.5,0,.4.3.8.4,1.3.7,2.1,1,3.6.8,4.6h-1c-2,0-3.9.5-5.8,1.1s-2.9.8-2.9.5c-1.9,0-2.5.8-4,2.1-3.6,3.1-9.6,6-14.4,5.8-3.7-.4-6.6-1.3-9-4.2-1.6-2.4-1.9-4.7-1.4-7.5,2.1-5.9,7.8-12,13.4-14.7,5.5-2.5,11.1-3.8,16.7-.6h0Z"/>
    <path id="Group_1" class="st1" d="M33.5,9.8c.7.7,1.3,1.4,1.8,2-.8,1.2-1.5,1.9-2.6,2.7-9.6,8.1-12.4,20.4-14.8,32.1l-2-.3-1.1-.2c-2.4-.4-3.8-1.9-5.1-3.7-2.8-5.8-2.1-12.5,0-18.5.5-1.3,1.1-2.7,1.7-4,.2-.4.3-.9.6-1.2,2.1-4.5,5.2-8.6,9.9-10.6,4.1-1.2,8.3-1.2,11.8,1.5h-.1v.2Z"/>
  </g>
</svg>