<?xml version="1.0" encoding="utf-8"?>
<!-- Generator: Adobe Illustrator 16.0.3, SVG Export Plug-In . SVG Version: 6.00 Build 0)  -->
<!DOCTYPE svg PUBLIC "-//W3C//DTD SVG 1.1//EN" "http://www.w3.org/Graphics/SVG/1.1/DTD/svg11.dtd">
<svg version="1.1" id="Layer_1" xmlns="http://www.w3.org/2000/svg" xmlns:xlink="http://www.w3.org/1999/xlink" x="0px" y="0px"
	 width="753.066px" height="225.339px" viewBox="0 0 753.066 225.339" enable-background="new 0 0 753.066 225.339"
	 xml:space="preserve">
<g>
	<g>
		<path fill="#F8991D" d="M753.066,180.266c0,24.886-20.172,45.073-45.062,45.073H45.072C20.185,225.339,0,205.152,0,180.266V45.074
			C0,20.187,20.185,0,45.072,0h662.933c24.89,0,45.062,20.187,45.062,45.074V180.266z"/>
	</g>
	<g>
		<path fill="#FFFFFF" d="M67.522,149.981V73.368h14.587v28.257c4.366-5.631,10.57-8.501,17.114-8.501
			c14.128,0,24.582,11.026,24.582,29.174c0,18.5-10.563,29.064-24.582,29.064c-6.661,0-12.748-2.992-17.114-8.5v7.12H67.522z
			 M94.632,138.378c8.501,0,14.128-6.435,14.128-16.081s-5.627-16.191-14.128-16.191c-4.707,0-10.111,2.745-12.522,6.435v19.634
			C84.521,135.743,89.925,138.378,94.632,138.378z"/>
		<path fill="#FFFFFF" d="M135.943,79.803c0-4.823,4.019-8.61,8.726-8.61c4.83,0,8.729,3.787,8.729,8.61s-3.9,8.729-8.729,8.729
			C139.962,88.532,135.943,84.626,135.943,79.803z M137.433,149.981V94.504h14.585v55.477H137.433z"/>
		<path fill="#FFFFFF" d="M171.978,136.194v-28.942h-9.183V94.504h9.183V79.336h14.705v15.167h11.258v12.748h-11.258V132.3
			c0,3.443,1.843,6.078,5.055,6.078c2.188,0,4.25-0.804,5.055-1.608l3.105,11.036c-2.188,1.944-6.091,3.556-12.175,3.556
			C177.499,151.361,171.978,146.072,171.978,136.194z"/>
		<path fill="#FFFFFF" d="M206.989,122.188c0-16.999,12.291-29.064,29.405-29.064c11.371,0,18.263,4.936,21.937,9.991l-9.53,8.961
			c-2.645-3.906-6.661-5.969-11.715-5.969c-8.848,0-15.052,6.435-15.052,16.082c0,9.646,6.204,16.19,15.052,16.19
			c5.055,0,9.07-2.294,11.715-5.969l9.53,8.839c-3.674,5.167-10.566,10.113-21.937,10.113
			C219.28,151.361,206.989,139.295,206.989,122.188z"/>
		<path fill="#FFFFFF" d="M266.91,122.188c0-15.74,11.027-29.064,29.29-29.064c18.379,0,29.405,13.324,29.405,29.064
			c0,15.85-11.026,29.173-29.405,29.173C277.937,151.361,266.91,138.038,266.91,122.188z M310.444,122.188
			c0-8.623-5.17-16.082-14.244-16.082s-14.128,7.458-14.128,16.082c0,8.72,5.055,16.19,14.128,16.19
			S310.444,130.908,310.444,122.188z"/>
		<path fill="#FFFFFF" d="M337.511,79.803c0-4.823,4.019-8.61,8.726-8.61c4.823,0,8.729,3.787,8.729,8.61s-3.906,8.729-8.729,8.729
			C341.53,88.532,337.511,84.626,337.511,79.803z M339.001,149.981V94.504h14.585v55.477H339.001z"/>
		<path fill="#FFFFFF" d="M408.131,149.981v-33.533c0-7.706-4.019-10.341-10.222-10.341c-5.744,0-10.226,3.211-12.639,6.544v37.33
			h-14.585V94.504h14.585v7.243c3.565-4.25,10.344-8.623,19.415-8.623c12.175,0,18.038,6.889,18.038,17.684v39.173H408.131z"/>
		<path fill="#FFFFFF" d="M468.247,122.188c0-15.74,11.039-29.064,29.295-29.064c18.379,0,29.405,13.324,29.405,29.064
			c0,15.85-11.026,29.173-29.405,29.173C479.286,151.361,468.247,138.038,468.247,122.188z M511.792,122.188
			c0-8.623-5.177-16.082-14.25-16.082s-14.128,7.458-14.128,16.082c0,8.72,5.055,16.19,14.128,16.19
			S511.792,130.908,511.792,122.188z"/>
		<path fill="#FFFFFF" d="M577.783,149.981v-33.533c0-7.706-4.006-10.341-10.209-10.341c-5.75,0-10.231,3.211-12.651,6.544v37.33
			h-14.579V94.504h14.579v7.243c3.568-4.25,10.356-8.623,19.418-8.623c12.185,0,18.034,6.889,18.034,17.684v39.173H577.783z"/>
		<path fill="#FFFFFF" d="M609.436,149.981V73.368h14.591v76.613H609.436z"/>
		<path fill="#FFFFFF" d="M641.354,158.604c1.271,0.56,3.224,0.901,4.595,0.901c3.784,0,6.322-1.026,7.693-4.006l2.075-4.713
			l-22.52-56.282h15.631l14.46,38.601l14.481-38.601h15.728l-26.071,64.551c-4.138,10.454-11.49,13.211-21.015,13.443
			c-1.733,0-5.399-0.341-7.242-0.805L641.354,158.604z"/>
	</g>
</g>
</svg>
