<?xml version="1.0" encoding="UTF-8"?><svg id="f" xmlns="http://www.w3.org/2000/svg" width="504.8281" height="574.1123" viewBox="0 0 504.8281 574.1123"><defs><style>.g{fill:#a79ccb;}.h{fill:#4d1c9c;}</style></defs><path class="g" d="M326.184,558.1689c92.5635-39.8604,164.7891-132.0257,174.5278-225.36,9.5972-91.967-.5366-216.0596-.9727-221.297l-1.4141-16.9578-16.3647-4.662c-.4717-.1343-47.5498-13.6025-81.687-28.1666-43.2319-18.4443-86.9502-43.7695-87.3838-44.0212L283.6513,.7047c-3.4292-1.9937-7.729,.4802-7.729,4.4467V38.9929c0,9.4116,5.2852,17.5844,13.0493,21.7186,6.5376,3.7672,48.7017,27.8014,91.9937,46.271,24.1289,10.2945,53.1055,19.7623,70.9326,25.2711,2.4009,36.7943,7.0059,127.1224-.124,195.4487-4.0449,38.7658-22.3691,79.4166-51.5957,114.4641-20.9941,25.1756-46.5283,46.2249-73.9941,61.2909v54.7116Z"/><path class="h" d="M253.1108,375.0973h-40.0781c-17.7061,0-32.0518-14.6677-31.5229-32.4909,.5093-17.1528,15.0332-30.5822,32.1934-30.5822h76.3301c44.4517,0,81.3354-35.4945,81.7666-79.9438,.4351-44.8842-35.9507-81.537-80.7363-81.537l-38.3892,.2248c-13.1719-.0342-23.8774-10.7604-23.8774-23.9403V5.5183c0-3.9528-4.2729-6.4284-7.7021-4.4622l-29.1372,16.7066c-.4419,.2534-44.6973,25.5538-88.2861,44.0577-34.3315,14.5737-80.9419,27.943-81.4062,28.0756l-16.4717,4.7018-1.3062,17.0797c-.4033,5.2768-9.7715,130.2956-.1841,222.1799,5.0439,48.3353,27.2837,98.156,62.623,140.2849,34.5679,41.2106,80.0234,73.2614,127.9922,90.249l25.9546,9.1874c3.3472,1.1849,6.8599-1.298,6.8599-4.8489v-27.5342c0-10.9318-7.1289-20.1962-16.9927-23.4002-39.5913-14.1556-77.2563-40.8689-106.1167-75.2745-29.0986-34.6889-47.3462-75.0935-51.3818-113.77-7.1309-68.3403-2.9829-159.4423-.7876-196.544,17.7012-5.4842,46.3369-14.8615,70.4438-25.0947,20.2632-8.6017,40.3535-18.4106,56.6953-26.8111v46.5267c0,40.3316,32.8125,73.1439,73.1445,73.1439l38.3916-.2248c17.6831,.0372,31.9976,14.7032,31.4556,32.515-.521,17.1432-15.04,30.5587-32.1909,30.5587h-77.3613c-44.7861,0-81.1719,36.6527-80.7368,81.5367,.4312,44.4491,37.3149,79.9435,81.7661,79.9435h39.0488c13.2007,0,23.9409,10.7402,23.9409,23.9066,0,0-.1069,77.173-.1069,93.2237v27.5331c0,3.5512,3.5137,6.0341,6.8608,4.8486l25.9541-9.1912c5.54-1.9619,11.0146-4.1234,16.4243-6.4529v-112.7495c-1.4907-39.0274-33.6875-70.3221-73.0732-70.3221Z"/></svg>