<?xml version="1.0" encoding="UTF-8"?>
<svg width="50px" height="50px" viewBox="0 0 50 50" version="1.1" xmlns="http://www.w3.org/2000/svg" xmlns:xlink="http://www.w3.org/1999/xlink">
    <!-- Generator: Sketch 49 (51002) - http://www.bohemiancoding.com/sketch -->
    <title>Number</title>
    <desc>Created with Sketch.</desc>
    <defs>
        <circle id="path-1" cx="25" cy="25" r="25"></circle>
    </defs>
    <g id="Getting-started" stroke="none" stroke-width="1" fill="none" fill-rule="evenodd">
        <g id="Bitcoin.org---Getting-Started--Desktop" transform="translate(-775.000000, -1124.000000)">
            <g id="//Content" transform="translate(0.000000, 473.000000)">
                <g id="How-to-use-btc" transform="translate(215.000000, 136.000000)">
                    <g id="3" transform="translate(0.000000, 515.000000)">
                        <g id="Number" transform="translate(560.000000, 0.000000)">
                            <g id="Oval">
                                <use fill="#FFFFFF" fill-rule="evenodd" xlink:href="#path-1"></use>
                                <circle stroke="#DADADA" stroke-width="1" cx="25" cy="25" r="24.5"></circle>
                            </g>
                            <path d="M20.704,19.008 C22.0533401,18.4799974 23.560325,18.216 25.225,18.216 C26.889675,18.216 28.1033295,18.5349968 28.866,19.173 C29.6286705,19.8110032 30.01,20.833993 30.01,22.242 C30.01,23.650007 29.445339,24.7279963 28.316,25.476 C29.0200035,25.8573352 29.5223318,26.2533313 29.823,26.664 C30.1236682,27.0746687 30.274,27.7273289 30.274,28.622 C30.274,30.1913412 29.8816706,31.3573295 29.097,32.12 C28.3123294,32.8826705 27.0546753,33.264 25.324,33.264 C24.0479936,33.264 22.706007,33.0733352 21.298,32.692 L20.594,32.516 L20.748,30.206 C22.3906749,30.4846681 23.7693278,30.624 24.884,30.624 C26.3946742,30.624 27.15,29.9786731 27.15,28.688 C27.15,28.1453306 26.9556686,27.7126683 26.567,27.39 C26.1783314,27.0673317 25.6686698,26.906 25.038,26.906 L22.112,26.906 L22.112,24.398 L25.038,24.398 C25.5220024,24.398 25.9509981,24.1926687 26.325,23.782 C26.6990019,23.3713313 26.886,22.9166692 26.886,22.418 C26.886,21.3766615 26.1600073,20.856 24.708,20.856 C23.6959949,20.856 22.6180057,20.9586656 21.474,21.164 L20.902,21.252 L20.704,19.008 Z" id="H3" fill="#13161F"></path>
                        </g>
                    </g>
                </g>
            </g>
        </g>
    </g>
</svg>