<?xml version="1.0" encoding="UTF-8"?>
<svg width="50px" height="50px" viewBox="0 0 50 50" version="1.1" xmlns="http://www.w3.org/2000/svg" xmlns:xlink="http://www.w3.org/1999/xlink">
    <!-- Generator: Sketch 49 (51002) - http://www.bohemiancoding.com/sketch -->
    <title>Number</title>
    <desc>Created with Sketch.</desc>
    <defs>
        <circle id="path-1" cx="25" cy="25" r="25"></circle>
    </defs>
    <g id="Getting-started" stroke="none" stroke-width="1" fill="none" fill-rule="evenodd">
        <g id="Bitcoin.org---Getting-Started--Desktop" transform="translate(-775.000000, -924.000000)">
            <g id="//Content" transform="translate(0.000000, 473.000000)">
                <g id="How-to-use-btc" transform="translate(215.000000, 136.000000)">
                    <g id="2" transform="translate(560.000000, 315.000000)">
                        <g id="Number">
                            <g id="Oval">
                                <use fill="#FFFFFF" fill-rule="evenodd" xlink:href="#path-1"></use>
                                <circle stroke="#DADADA" stroke-width="1" cx="25" cy="25" r="24.5"></circle>
                            </g>
                            <path d="M30.186,33 L20.77,33 L20.77,30.426 L23.872,27.28 C24.9720055,26.150661 25.7383312,25.2853363 26.171,24.684 C26.6036688,24.0826637 26.82,23.4410034 26.82,22.759 C26.82,22.0769966 26.6403351,21.5966681 26.281,21.318 C25.9216649,21.0393319 25.4120033,20.9 24.752,20.9 C23.7693284,20.9 22.6986725,20.9879991 21.54,21.164 L21.012,21.23 L20.858,18.876 C22.2953405,18.4359978 23.7839923,18.216 25.324,18.216 C28.4040154,18.216 29.944,19.6019861 29.944,22.374 C29.944,23.4593388 29.7093357,24.397996 29.24,25.19 C28.7706643,25.982004 27.9200062,26.942661 26.688,28.072 L24.158,30.36 L30.186,30.36 L30.186,33 Z" id="H3" fill="#13161F"></path>
                        </g>
                    </g>
                </g>
            </g>
        </g>
    </g>
</svg>