<svg xmlns="http://www.w3.org/2000/svg" xmlns:xlink="http://www.w3.org/1999/xlink" width="1674" height="837" viewBox="0 0 70 35"><path fill="#00993e" d="M0 0h70v35H0z"/><path id="a" fill="#fff" d="M0 5h70v5H0z"/><use xlink:href="#a" y="10" width="70" height="35"/><use xlink:href="#a" y="20" width="70" height="35"/><path fill="#c8312a" d="M0 0h26.6v15H0z"/><path d="M11.241 8.38s-.23.095-.072 1.925c.128 1.507.665 1.997.665 1.997l.234.933 2.223.009s.04-.578.127-.76c.211-.449 1.05-.962 1.409-1.736.386-.472.193-1.435.969-2.364.385-.462-.452-.267-.452-.267a2.189 2.189 0 00-.798.911c-.078.48-.438.882-.472.533 0 0-.13-.603-.522-1.776-.04-.348-.207-1.55-.243-2.468-.026-.597-.548-.633-.592-.027l-.063 2.403-.125-2.775c-.053-.785-.647-.669-.673-.018l-.026 2.89-.108-2.801c-.161-.535-.584-.218-.592.361l-.072 2.726s-.091-1.493-.112-2.123c-.02-.38-.463-.351-.505.19-.06.784-.155 1.424-.2 2.236z" fill="#fff"/><g fill="#fff"><path d="M12.624 3.263l.676-2.08.676 2.08-1.77-1.286h2.188zM17.88 4.093l-1.769-1.286h2.187l-1.77 1.286.677-2.08zM21.221 6.565l-1.77-1.286h2.188l-1.77 1.286.676-2.08zM23.156 10.056l-1.77-1.285h2.188l-1.77 1.285.677-2.08z"/><g><path d="M12.624 3.263l1.77-1.286h-2.188l1.77 1.286-.676-2.08zM8.72 4.093l1.769-1.286H8.302l1.77 1.286-.677-2.08zM5.379 6.565l1.77-1.286H4.96l1.77 1.286-.676-2.08zM3.444 10.056l1.77-1.285H3.025l1.77 1.285-.677-2.08z"/></g></g></svg>