<svg xmlns="http://www.w3.org/2000/svg" height="480" width="640"><g fill-rule="evenodd" stroke-width="1pt"><path fill="#0000bd" d="M0 0h214.399v479.984H0z"/><path fill="#cc1900" d="M425.6 0H640v479.984H425.6z"/><path fill="#fff600" d="M214.399 0H425.6v479.984H214.399z"/></g><g stroke-width="1pt"><path d="M398.54 290.22c47.823.818 44.515-29.149 61.974-32.126 17.458-2.977 33.928 12.489 33.302 29.972 1.873 20.814-29.714 20.963-31.637 38.298-1.923 17.336 15.378 22.628 33.302 19.982s30.646-20.363 39.804-28.689c-13.321 7.493-24.218 4.778-25.21-8.558.673-17.497 18.103-23.847 26.345-17.96 6.476-5.298 6.09-7.423 13.209-6.246 4.828 2.944 6.143 2.861 8.999 7.418 3.717-2.355 5.269-3.54 12.204-.597 4.306 1.767 7.181 4.961 9.841 9.808 3.146-2.486 8.086-3.413 13.762-.197 3.61 1.837 8.108 7.182 8.72 12.995 8.451 1.696 11.381 3.654 14.034 7.953 15.765 21.775-2.435 58.473-1.432 77.205 1.004 18.731 16.651 19.981 16.651 19.981-14.717-9.42-.201-15.9 6.745-16.55 22.252 2.292 18.508 35.135-5.18 29.366-18.978-5.18 38.921 3.281 37.525 62.637-1.396 61.021-32.815 49.01-32.815 49.01s26.838 10.109 21.646 30.09c-5.191 13.507-32.933 22.456-30.578-3.448-8.242 11.186-10.608 15.913-10.58 32.916-1.148 21.713.656 31.631 6.845 42.301 1.48-9.935 8.206-10.361 13.952-9.1 8.101.084 12.607 6.442 9.563 14.684 4.079-1.035 7.801 1.757 9.402 5.121 1.255 6.206 4.037 8.956-2.439 11.311 6.476 1.178 9.61 2.024 10.377 11.049.18 7.261-12.596 11.246-26.136 8.891 7.065 3.533 29.983 50.025 26.922 103.44-2.119 47.905-86.038 43.639-123.53 42.305-37.488-1.332-72.512.775-87.133 13.052 11.247 7.182-1.302 29.542-10.864 19.064 0 8.242-9.449 20.979-22.497 12.718.534 14.885-14.238 25.328-27.121 25.328s-27.655-10.443-27.121-25.328c-13.048 8.261-22.497-4.476-22.497-12.718-9.562 10.478-22.111-11.882-10.864-19.064-14.621-12.277-49.645-14.384-87.133-13.052-37.489 1.334-121.41 5.6-123.53-42.305-3.061-53.418 23.699-99.91 30.764-103.44-13.54 2.355-26.316-1.63-26.136-8.891.767-9.025 3.901-9.871 10.377-11.049-6.476-2.355-3.694-5.105-2.439-11.311 1.601-3.364 5.323-6.156 9.402-5.121-3.044-8.242 1.462-14.6 9.563-14.684 5.746-1.261 12.472-.835 13.952 9.1 6.189-10.67 7.993-20.588 6.845-42.301.028-17.003-2.338-21.73-10.58-32.916 2.355 25.904-25.387 16.955-30.578 3.448-5.192-19.981 21.646-30.09 21.646-30.09s-31.419 12.011-32.815-49.01c-1.396-59.356 56.503-67.817 37.525-62.637-23.688 5.769-27.432-27.074-5.18-29.366 6.946.65 21.462 7.13 6.745 16.55 0 0 15.647-1.25 16.651-19.981 1.003-18.732-17.197-55.43-1.432-77.205 2.653-4.299 5.583-6.257 14.034-7.953.612-5.813 5.11-11.158 8.72-12.995 5.676-3.216 10.616-2.289 13.762.197 2.66-4.847 5.535-8.041 9.841-9.808 6.935-2.943 8.487-1.758 12.204.597 2.856-4.557 4.171-4.474 8.999-7.418 7.119-1.177 6.733.948 13.209 6.246 8.242-5.887 25.672.463 26.345 17.96-.992 13.336-11.889 16.051-25.21 8.558 9.158 8.326 21.88 26.043 39.804 28.689s35.225-2.646 33.302-19.982c-1.923-17.335-33.51-17.484-31.637-38.298-.626-17.483 15.844-32.949 33.302-29.972 17.459 2.977 14.151 32.944 62.182 32.126z" fill-rule="evenodd" transform="matrix(.55826 0 0 .52733 97.622 -66.238)" stroke="#000" fill="#cba323"/><path d="M356.44 346.62c-.575 17.961-31.258 14.828-51.514 13.859-26.326-1.231-77.59-46.08-44.263-69.888M164.84 449.52c-16.484 17.662 28.691 13.497 9.419-9.419-7.87-8.82-41.21 18.839-41.21 49.452s10.597 44.742 16.484 45.919c5.887 1.178 15.307-3.532 15.307-8.241 0-5.887-4.71-15.307-11.774-14.13-11.775 0-5.888 10.597-.001 10.597" transform="matrix(.55826 0 0 .52733 97.622 -66.238)" stroke="#000" fill="none"/><path d="M163.39 451.39s-24.453 9.908-24.453 39.343c0 29.436 7.065 28.259 7.065 28.259" transform="matrix(.55826 0 0 .52733 97.622 -66.238)" stroke="#000" fill="none"/><path d="M166.02 430.68s24.726-3.533 23.549 18.838c-1.178 22.371-9.42 23.549-22.371 22.371-12.952-1.177-5.887-16.483-5.887-16.483M156.6 543.71s18.839-1.178 17.661-21.194c-1.177-20.016-15.306-21.194-23.548-20.016-8.242 1.177-10.74 5.803-8.242 12.88M150.71 567.26s3.936-8.158 16.887-8.158c12.952 0 18.982 30.386 17.805 63.354-1.178 32.968-33.515 61.37-40.58 59.015-7.064-2.355-10.597-3.533-4.71-8.242M172.39 643.31l-22.859 38.166" transform="matrix(.55826 0 0 .52733 97.622 -66.238)" stroke="#000" fill="none"/><path d="M141.29 667.34c0 .416 5.054-1.105 8.587 1.249 3.532 2.355 4.365 5.816 4.365 5.816" transform="matrix(.55826 0 0 .52733 97.048 -66.083)" stroke="#000" fill="none"/><path d="M144.82 650.86s4.517-1.819 10.404.536 5.695 7.662 5.695 7.662" transform="matrix(.50893 0 0 .37764 106.629 31.672)" stroke="#000" fill="none"/><path d="M171.78 731.95c12.251 6.364 24.282-25.181.671-26.726-16.888-.69-29.085 23.268-26.73 35.041 6.431 40.061 10.444 66.861 50.568 72.045 30.613 2.355 78.451-5.101 108.3-1.523 29.44 3.433 61.94 14.272 73.714 26.047 11.774 11.774 19.112 11.892 19.112 23.667 0 11.774-16.815 17.816-23.476 10.74" transform="matrix(.55826 0 0 .52733 97.02 -65.096)" stroke="#000" fill="none"/><path d="M369.84 876.92c4.305-2.914 14.556-20.425 4.722-30.815-15.194-15.401-26.165-21.479-33.658-23.977M347.55 863.28c5.828-3.532 6.684-15.298.594-24.274-6.091-8.975-21.941-16.165-53.073-18.799-23.583-1.982-87.844 8.444-111.39 1.379-33.059-12.721-53.845-34.149-48.773-87.391 1.521-20.621 11.917-34.465 32.278-37.105 22.858-.143 28.813 14.734 28.813 33.571 0 9.681-25.317 18.878-29.909 9.705-7.109-12.854-10.217-24.451 15.881-30.607" transform="matrix(.55826 0 0 .52733 97.02 -65.096)" stroke="#000" fill="none"/><path d="M337.41 844.59s9.765 5.685 7.41 10.395c-2.354 4.709-8.658 2.7-4.496-2.296" transform="matrix(.55826 0 0 .52733 97.02 -65.096)" stroke="#000" fill="none"/><path d="M238.95 291.4s-6.66 6.66-3.33 22.479 9.991 14.987 9.991 14.987M216.47 300.55c-.833 1.665-9.706 11.858-4.71 22.681 4.995 10.824 8.956 12.977 8.956 12.977M193.99 313.87s-7.195 10.622-8.567 29.555 7.789 45 7.533 54.698c-.581 20.609-24.012 30.839-24.012 30.839M159.85 543.66c1.665 0 34.135-29.972 34.135 76.597-2.498 61.61-38.298 67.438-38.298 67.438" transform="matrix(.55826 0 0 .52733 97.622 -66.238)" stroke="#000" fill="none"/><path d="M162.49 689.71c13.148-3.336 40.425 10.99 30.613 35.324" transform="matrix(.55826 0 0 .52733 98.568 -64.97)" stroke="#000" fill="none"/><path d="M167.78 681.47c8.439.785 15.319 6.904 18.458 15.343" transform="matrix(.55826 0 0 .52733 97.435 -65.9)" stroke="#000" fill="none"/><path d="M148.2 477.06s9.991 14.154 24.977 14.154 19.982-15.819 19.982-15.819" transform="matrix(.55826 0 0 .52733 97.622 -66.238)" stroke="#000" fill="none"/><path d="M146.53 484.55s9.158 16.652 24.977 17.484c15.819.833 21.647-10.823 21.647-10.823M179.84 509.52s11.657 4.996 11.657 19.15c0 14.153-10.824 10.823-10.824 10.823" transform="matrix(.55826 0 0 .52733 97.622 -66.238)" stroke="#000" fill="none"/><path d="M356.44 346.62c-.575 17.961-31.258 14.828-51.514 13.859-26.326-1.231-77.59-46.08-44.263-69.888M164.84 449.52c-16.484 17.662 28.691 13.497 9.419-9.419-7.87-8.82-41.21 18.839-41.21 49.452s10.597 44.742 16.484 45.919c5.887 1.178 15.307-3.532 15.307-8.241 0-5.887-4.71-15.307-11.774-14.13-11.775 0-5.888 10.597-.001 10.597" transform="matrix(-.55826 0 0 .52733 542.482 -66.238)" stroke="#000" fill="none"/><path d="M163.39 451.39s-24.453 9.908-24.453 39.343c0 29.436 7.065 28.259 7.065 28.259" transform="matrix(-.55826 0 0 .52733 542.482 -66.238)" stroke="#000" fill="none"/><path d="M166.02 430.68s24.726-3.533 23.549 18.838c-1.178 22.371-9.42 23.549-22.371 22.371-12.952-1.177-5.887-16.483-5.887-16.483M156.6 543.71s18.839-1.178 17.661-21.194c-1.177-20.016-15.306-21.194-23.548-20.016-8.242 1.177-10.74 5.803-8.242 12.88M150.71 567.26s3.936-8.158 16.887-8.158c12.952 0 18.982 30.386 17.805 63.354-1.178 32.968-33.515 61.37-40.58 59.015-7.064-2.355-10.597-3.533-4.71-8.242M172.39 643.31l-22.859 38.166" transform="matrix(-.55826 0 0 .52733 542.482 -66.238)" stroke="#000" fill="none"/><path d="M141.29 667.34c0 .416 5.054-1.105 8.587 1.249 3.532 2.355 4.365 5.816 4.365 5.816" transform="matrix(-.55826 0 0 .52733 543.056 -65.9)" stroke="#000" fill="none"/><path d="M144.82 650.86s4.517-1.819 10.404.536 5.695 7.662 5.695 7.662" transform="matrix(-.50893 0 0 .37764 533.475 31.672)" stroke="#000" fill="none"/><path d="M170.42 741.5c-2.354 0 15.451-19.877-.688-23.897-20.284-3.872-28.744 16.55-26.389 28.323 5.072 28.746 16.897 64.033 52.945 66.388 30.613 2.355 78.451-5.101 108.3-1.523 29.44 3.433 61.94 14.272 73.714 26.047 11.774 11.774 19.112 11.892 19.112 23.667 0 11.774-16.815 17.816-23.476 10.74" transform="matrix(-.55826 0 0 .52733 540.804 -65.096)" stroke="#000" fill="none"/><path d="M369.84 876.92c4.305-2.914 14.556-20.425 4.722-30.815-15.194-15.401-26.165-21.479-33.658-23.977M347.55 863.28c5.828-3.532 6.684-15.298.594-24.274-6.091-8.975-21.941-16.165-53.073-18.799-23.583-1.982-87.844 8.444-111.39 1.379-43.929-18.378-53.505-42.635-52.509-81.734 1.521-20.621 12.257-36.587 32.618-39.227 22.858-.143 26.774 11.906 26.774 30.744 0 9.68-9.013 25.716-21.334 23.362-12.322-3.188-21.92-25.013-1.106-36.669" transform="matrix(-.55826 0 0 .52733 540.804 -65.096)" stroke="#000" fill="none"/><path d="M337.41 844.59s9.765 5.685 7.41 10.395c-2.354 4.709-8.658 2.7-4.496-2.296" transform="matrix(-.55826 0 0 .52733 540.804 -65.096)" stroke="#000" fill="none"/><path d="M238.95 291.4s-6.66 6.66-3.33 22.479 9.991 14.987 9.991 14.987M216.47 300.55c-.833 1.665-9.706 11.858-4.71 22.681 4.995 10.824 8.956 12.977 8.956 12.977M193.99 313.87s-7.195 10.622-8.567 29.555 7.789 45 7.533 54.698c-.581 20.609-24.012 30.839-24.012 30.839M159.85 543.66c1.665 0 34.135-29.972 34.135 76.597-2.498 61.61-38.298 67.438-38.298 67.438" transform="matrix(-.55826 0 0 .52733 542.482 -66.238)" stroke="#000" fill="none"/><path d="M158.07 701.03c16.205-14.296 47.219 13.112 35.708 38.506" transform="matrix(-.55826 0 0 .52733 542.668 -68.692)" stroke="#000" fill="none"/><path d="M167.78 681.47c8.439.785 17.357 6.197 20.496 14.636" transform="matrix(-.55826 0 0 .52733 544.762 -64.589)" stroke="#000" fill="none"/><path d="M148.2 477.06s9.991 14.154 24.977 14.154 19.982-15.819 19.982-15.819" transform="matrix(-.55826 0 0 .52733 542.482 -66.238)" stroke="#000" fill="none"/><path d="M146.53 484.55s9.158 16.652 24.977 17.484c15.819.833 21.647-10.823 21.647-10.823M179.84 509.52s11.657 4.996 11.657 19.15c0 14.153-10.824 10.823-10.824 10.823" transform="matrix(-.55826 0 0 .52733 542.482 -66.238)" stroke="#000" fill="none"/><path d="M353.01 313.46c.416-.416-1.665-9.159 8.326-8.742 9.99.416 6.244 9.574 14.57 12.904 7.909 2.082 22.063 4.164 22.528 4.164s14.619-2.082 22.528-4.164c8.326-3.33 4.58-12.488 14.57-12.904 9.991-.417 7.91 8.326 8.326 8.742" transform="matrix(.55826 0 0 .52733 97.622 -66.238)" stroke="#000" fill="none"/><path d="M373.28 349.42c-.294-4.121-1.249-9.55-6.871-9.966-10.525-.345-18.856 20.605 4.444 20.753 17.055.111 17.198-32.355.804-32.831-23.549-.667-26.788 13.389-26.402 16.143 5.957-50.397-33.246-40.206-31.373-59.77.207-10.606 10.849-11.822 22.479-9.857 17.459 2.799 14.151 30.967 62.078 30.198 47.927.769 44.619-27.399 62.078-30.198 11.63-1.965 22.272-.749 22.479 9.857 1.873 19.564-37.33 9.373-31.373 59.77.386-2.754-2.853-16.81-26.402-16.143-16.394.476-16.251 32.942.804 32.831 23.3-.148 14.969-21.098 4.444-20.753-5.622.416-6.577 5.845-6.871 9.966" transform="matrix(.55826 0 0 .52733 97.622 -66.238)" stroke="#000" fill="none"/><path d="M409.35 355.013l.067.4-6.284 1.55-.066-.401.4-.099c.349-.086.616-.23.804-.435.136-.14.226-.34.268-.607.037-.19-.005-.653-.126-1.389l-1.594-9.666c-.124-.75-.234-1.212-.33-1.384-.096-.171-.256-.301-.48-.388-.22-.098-.496-.105-.833-.022l-.4.098-.065-.399 6.283-1.55.066.4-.4.099c-.347.086-.616.23-.804.435-.136.14-.228.343-.277.61-.036.189.007.653.128 1.39l1.594 9.665c.124.75.233 1.213.329 1.384.102.17.262.304.481.4.224.088.503.09.84.007l.4-.098zM400.082 342.7l.426 4.022-.322.051c-.29-.897-.573-1.53-.848-1.893a2.473 2.473 0 00-1.063-.824c-.242-.095-.647-.097-1.214-.007l-.904.143 1.216 11.465c.08.76.163 1.23.249 1.408.092.18.245.327.457.441.217.107.5.132.847.077l.402-.064.043.406-6.364 1.01-.043-.406.404-.064c.352-.056.628-.178.828-.366.143-.127.247-.32.311-.583.047-.187.03-.652-.048-1.397l-1.217-11.465-.878.14c-.818.13-1.391.435-1.716.919-.458.673-.697 1.57-.719 2.687l-.34.054-.426-4.022 10.919-1.732zM354.9 348.85l.404 6.136.352-.035c.54-.053.975-.195 1.304-.428.329-.23.596-.594.798-1.087.21-.494.324-1.145.344-1.953l.315-.031.495 7.502-.315.031c-.208-1.405-.581-2.308-1.121-2.705-.535-.406-1.125-.576-1.766-.513l-.352.035.302 4.572c.05.764.114 1.238.193 1.422.084.184.231.34.439.467.214.12.492.162.833.128l.406-.04.027.408-6.387.63-.027-.408.404-.04c.356-.035.635-.14.842-.315.15-.12.258-.306.325-.564.054-.184.057-.65.008-1.398l-.649-9.828c-.05-.763-.115-1.237-.194-1.423a.957.957 0 00-.437-.454c-.208-.13-.484-.176-.827-.142l-.404.04-.027-.406 10.307-1.017.282 4.285-.369.036c-.15-.997-.417-1.722-.796-2.173-.375-.45-.896-.743-1.564-.875-.367-.076-1.038-.064-2.011.032l-1.135.112zM331.466 349.083v4.055h-.325c-.193-.935-.407-1.607-.642-2.01a2.667 2.667 0 00-.967-.985c-.23-.132-.631-.198-1.203-.198h-.912v11.561c0 .766.032 1.245.099 1.436.072.192.208.362.407.509.204.14.481.21.831.21h.406v.409h-6.417v-.41h.407c.355 0 .642-.077.86-.232.155-.104.278-.279.37-.53.066-.177.098-.641.098-1.392v-11.561h-.885c-.826 0-1.426.213-1.799.641-.524.596-.856 1.447-.995 2.552h-.342v-4.055h11.01zM318.794 363.664v.41h-6.408v-.41h.406c.356 0 .642-.077.859-.232.156-.104.278-.28.361-.53.066-.177.1-.641.1-1.392v-9.86c0-.766-.034-1.245-.1-1.437a1.011 1.011 0 00-.406-.496c-.199-.15-.47-.223-.814-.223h-.406v-.407h6.408v.407h-.407c-.355 0-.642.078-.858.232-.157.104-.28.281-.372.532-.066.176-.098.641-.098 1.392v9.86c0 .766.032 1.245.098 1.435.073.193.209.362.408.51.205.14.48.209.822.209h.407zM302.683 349.083l6.047 9.294v-6.444c0-.898-.106-1.505-.317-1.822-.289-.428-.775-.634-1.455-.62v-.408h4.05v.407c-.519.082-.868.189-1.05.321-.174.126-.313.336-.415.63-.097.289-.145.785-.145 1.492v12.48h-.307l-8.288-12.48v9.528c0 .862.159 1.445.478 1.746.326.302.697.453 1.112.453h.29v.41h-4.348v-.41c.675-.007 1.144-.177 1.41-.507.265-.332.398-.896.398-1.692v-10.577l-.263-.398c-.259-.398-.487-.66-.686-.784-.2-.127-.486-.196-.86-.212v-.407h4.35zM297.582 348.099l-.013.407c-.449.066-.856.338-1.22.813-.266.357-.671 1.203-1.217 2.539l-4.6 11.231-.298-.015-3.802-12.116c-.457-1.461-.77-2.32-.935-2.58-.16-.257-.477-.432-.951-.523l.014-.407 5.87.293-.013.407-.199-.01c-.53-.026-.893.037-1.092.19-.142.104-.217.262-.224.475a1.89 1.89 0 00.057.479c.041.18.187.67.438 1.472l2.36 7.584 2.644-6.517c.315-.788.512-1.316.586-1.585.075-.27.117-.5.123-.69a1.169 1.169 0 00-.125-.593.95.95 0 00-.411-.408c-.255-.137-.597-.219-1.024-.24l.014-.407 4.018.2zM275.957 346.22l-.143 4.993-.37-.027c-.114-1.263-.494-2.298-1.143-3.105-.643-.814-1.36-1.251-2.155-1.31-.613-.044-1.111.124-1.491.502a1.959 1.959 0 00-.6 1.34c-.016.331.033.63.146.897.157.357.421.72.79 1.087.27.264.901.74 1.894 1.433 1.39.965 2.316 1.849 2.777 2.65.457.802.661 1.694.613 2.68-.06 1.25-.514 2.298-1.357 3.146-.838.838-1.87 1.213-3.098 1.124a4.08 4.08 0 01-1.084-.223c-.34-.121-.76-.331-1.265-.635-.282-.168-.515-.258-.702-.272-.157-.011-.325.05-.506.184-.183.134-.334.348-.458.643l-.333-.024.276-5.649.332.024c.188 1.607.637 2.859 1.349 3.751.717.888 1.511 1.362 2.383 1.425.674.05 1.221-.136 1.639-.555a2.22 2.22 0 00.681-1.523c.018-.354-.044-.7-.184-1.043a3.11 3.11 0 00-.649-.988c-.299-.325-.833-.755-1.604-1.29-1.08-.752-1.852-1.38-2.316-1.885a5.346 5.346 0 01-1.052-1.66c-.23-.601-.328-1.251-.294-1.95.058-1.192.466-2.18 1.223-2.966s1.678-1.14 2.767-1.06c.397.028.78.114 1.146.26.28.11.615.3 1.005.57.398.266.679.405.84.417a.426.426 0 00.378-.15c.097-.11.195-.388.294-.83l.271.019zM267.579 345.734l-.039.405c-.45.025-.872.259-1.267.698-.286.332-.742 1.138-1.367 2.42l-5.279 10.777-.296-.042-3.047-12.43c-.366-1.5-.625-2.386-.774-2.66-.144-.271-.449-.474-.916-.609l.039-.405 5.836.832-.038.405-.198-.028c-.527-.075-.894-.046-1.1.088-.149.09-.233.242-.253.454-.013.131-.003.292.027.482.03.183.147.686.347 1.508l1.889 7.78 3.035-6.255c.362-.758.591-1.266.683-1.527.091-.262.146-.488.164-.677a1.187 1.187 0 00-.089-.603.994.994 0 00-.385-.444c-.245-.16-.58-.273-1.005-.334l.038-.404 3.995.57zM253.654 344.494l-.476 4.014-.322-.057c-.081-.96-.215-1.662-.4-2.103a2.876 2.876 0 00-.84-1.144c-.211-.17-.6-.307-1.167-.407l-.904-.16-1.356 11.442c-.09.758-.114 1.237-.071 1.438.05.203.164.395.343.575.187.174.452.292.799.353l.403.072-.048.405-6.351-1.126.048-.405.401.07c.353.063.644.037.878-.078.166-.075.31-.227.428-.46.087-.163.175-.617.263-1.36l1.356-11.441-.878-.156c-.816-.145-1.434-.039-1.855.32-.589.497-1.015 1.281-1.283 2.35l-.34-.06.476-4.013 10.896 1.931zM224.544 353.9l-.079.398-6.228-1.845.079-.397.396.117c.344.102.638.11.878.021.173-.055.323-.191.454-.41.097-.154.22-.595.364-1.325l1.899-9.583c.147-.744.206-1.22.18-1.425-.027-.204-.127-.405-.3-.6-.165-.201-.414-.351-.747-.45l-.396-.117.079-.396 6.228 1.845-.079.396-.396-.117c-.344-.102-.638-.11-.878-.022-.173.056-.327.193-.462.41-.098.152-.221.595-.366 1.325l-1.898 9.582c-.148.745-.207 1.22-.179 1.424.032.208.131.412.296.612.173.195.426.342.76.44l.395.117zM220.118 338.239l-.085.394c-.451-.054-.895.106-1.336.473-.322.279-.866.999-1.633 2.16l-6.467 9.761-.288-.093-1.585-12.831c-.19-1.548-.343-2.47-.46-2.766-.111-.294-.39-.547-.837-.761l.085-.394 5.682 1.829-.085.394-.192-.062c-.513-.166-.88-.2-1.1-.103-.157.065-.258.2-.302.406a1.977 1.977 0 00-.029.483c.01.186.067.704.17 1.552l.974 8.028 3.725-5.67c.448-.688.732-1.152.852-1.394.121-.244.2-.459.24-.643.047-.215.041-.418-.018-.612a1.076 1.076 0 00-.33-.506c-.224-.201-.543-.37-.957-.503l.085-.394 3.89 1.252zM414.96 339.425c1.927-.395 3.573.048 4.936 1.325 1.369 1.276 2.17 3.017 2.404 5.224.2 1.886-.076 3.617-.825 5.19-.995 2.091-2.581 3.309-4.763 3.655-2.187.347-3.974-.292-5.361-1.915-1.098-1.281-1.75-2.905-1.958-4.871-.234-2.207.183-4.141 1.253-5.804 1.075-1.671 2.512-2.607 4.315-2.804zm.182.685c-1.11.176-1.883 1.004-2.315 2.486-.352 1.214-.414 2.888-.187 5.023.268 2.535.831 4.351 1.69 5.448.598.768 1.354 1.078 2.267.933.617-.097 1.112-.362 1.484-.792.477-.552.808-1.361.992-2.43.182-1.078.187-2.442.012-4.094-.209-1.964-.514-3.409-.916-4.334-.402-.931-.858-1.563-1.367-1.89a2.279 2.279 0 00-1.66-.35zM368.16 346.463c1.94-.28 3.565.26 4.876 1.616 1.317 1.356 2.047 3.142 2.194 5.36.125 1.896-.217 3.608-1.03 5.136-1.076 2.029-2.709 3.151-4.901 3.368-2.2.217-3.958-.527-5.28-2.23-1.043-1.346-1.63-3.006-1.761-4.982-.147-2.219.346-4.126 1.48-5.723 1.14-1.606 2.614-2.455 4.421-2.545zm.154.695c-1.117.11-1.92.891-2.411 2.346-.398 1.192-.528 2.86-.387 5.006.168 2.547.66 4.395 1.473 5.541.566.804 1.31 1.158 2.229 1.067.618-.06 1.123-.296 1.512-.704.498-.522.86-1.31 1.086-2.368.227-1.065.284-2.428.175-4.088-.13-1.974-.377-3.436-.743-4.384-.365-.953-.795-1.611-1.29-1.967a2.305 2.305 0 00-1.644-.45zM380.992 353.26l.442 4.164c.085.804.177 1.307.278 1.506.105.19.265.332.482.425.216.092.602.093 1.158.005l.043.406-6.22.987-.044-.406c.562-.09.935-.211 1.119-.366.19-.165.312-.356.367-.572.063-.217.05-.729-.035-1.533l-1.023-9.645c-.086-.804-.18-1.301-.286-1.492-.1-.2-.258-.347-.475-.438s-.602-.095-1.158-.006l-.043-.404 5.647-.896c1.47-.233 2.559-.28 3.268-.14.707.14 1.311.513 1.814 1.116.5.598.797 1.346.893 2.243.116 1.097-.11 2.053-.679 2.872-.365.518-.905.95-1.622 1.294l3.456 4.568c.451.589.767.951.944 1.087.27.187.567.266.892.237l.043.406-3.828.607-4.636-6.152-.797.127zm-.774-7.29l.691 6.511.511-.08c.83-.132 1.442-.323 1.834-.571.393-.255.68-.643.862-1.162.188-.527.24-1.181.157-1.963-.12-1.134-.428-1.935-.921-2.407-.487-.472-1.212-.633-2.175-.48l-.959.152zM427.5 345.093l.856 4.067c.165.785.306 1.27.426 1.453.123.174.297.29.521.35.224.059.607.002 1.15-.168l.083.396-6.075 1.91-.083-.397c.548-.172.906-.349 1.074-.53a1.2 1.2 0 00.307-.623c.04-.224-.023-.73-.188-1.516l-1.98-9.42c-.165-.785-.309-1.264-.433-1.437-.12-.185-.29-.306-.514-.364s-.608-.004-1.15.166l-.083-.394 5.514-1.733c1.436-.452 2.511-.661 3.227-.627.718.033 1.355.312 1.912.836.558.518.928 1.216 1.112 2.093.225 1.07.096 2.054-.388 2.952-.309.568-.802 1.078-1.479 1.526l3.887 4.018c.507.516.854.83 1.046.937.285.146.589.18.908.102l.084.396-3.738 1.175-5.217-5.413-.778.245zm-1.496-7.12l1.337 6.36.5-.157c.81-.255 1.398-.535 1.762-.84.365-.312.611-.74.74-1.282.132-.55.118-1.208-.043-1.972-.232-1.107-.616-1.857-1.153-2.25-.532-.396-1.268-.448-2.206-.153l-.937.295zM233.391 348.923l-.517 4.15c-.1.802-.125 1.317-.074 1.542.059.219.181.41.367.572.188.161.558.293 1.113.397l-.05.404-6.202-1.156.05-.405c.56.104.946.113 1.158.027a.964.964 0 00.483-.425c.108-.188.214-.683.314-1.485l1.199-9.615c.1-.802.12-1.311.063-1.53a1.06 1.06 0 00-.358-.582c-.186-.16-.558-.295-1.112-.398l.05-.403 5.63 1.05c1.466.274 2.523.597 3.17.971s1.146.937 1.491 1.687c.346.743.464 1.563.352 2.458-.136 1.093-.57 1.935-1.303 2.53-.468.374-1.085.606-1.852.694l2.287 5.56c.301.717.522 1.173.662 1.363.217.271.484.447.803.53l-.05.404-3.816-.712-3.062-7.48-.796-.148zm.907-7.267l-.81 6.491.51.095c.828.154 1.458.179 1.893.073.433-.112.797-.388 1.09-.825.299-.443.497-1.055.594-1.834.141-1.13.027-2.004-.34-2.624-.362-.619-1.022-1.019-1.981-1.198l-.956-.178zM339.358 359.737l-4.324.223-.465 1.485c-.153.493-.222.899-.211 1.216.014.42.162.722.446.907.168.109.57.177 1.21.202l.014.41-4.072.21-.014-.41c.437-.103.79-.343 1.061-.717.27-.384.593-1.156.97-2.32l3.968-12.172.17-.009 4.84 12.05c.462 1.142.833 1.857 1.115 2.144.212.218.505.337.88.353l.013.41-5.922.305-.014-.409.243-.013c.475-.024.806-.122.993-.294.129-.124.19-.297.182-.518a1.644 1.644 0 00-.068-.406 11.358 11.358 0 00-.3-.815l-.715-1.832zm-.335-.8l-2-5.064-1.702 5.255 3.702-.191z"/></g><g fill-rule="evenodd"><path fill="#fff600" d="M325.102 227.115h98.908v93.427h-98.908z"/><path fill="#cc1900" d="M339.232 133.688h14.13v93.427h-14.13zM367.491 133.688h14.13v93.427h-14.13zM395.75 133.688h14.13v93.427h-14.13z"/><path fill="#fff600" d="M325.102 133.688h14.13v93.427h-14.13zM353.362 133.688h14.129v93.427h-14.13zM381.621 133.688h14.129v93.427h-14.129zM409.88 133.688h14.13v93.427h-14.13z"/><path fill="#cc1900" d="M249.274 236.46h10.99v84.082h-10.99zM271.253 236.46h10.989v84.082h-10.99zM293.231 236.46h10.99v84.082h-10.99z"/><path fill="#fff600" d="M238.287 236.46h10.99v84.082h-10.99zM260.266 236.46h10.99v84.082h-10.99zM282.245 236.46h10.99v84.082h-10.99zM304.223 236.46h10.99v84.082h-10.99z"/><path fill="#cc1900" d="M227.295 236.46h10.99v84.082h-10.99z"/><path fill="#fff600" d="M216.308 236.46h10.99v84.082h-10.99z"/><path fill="#cc1900" d="M216.308 133.688h98.908v93.427h-98.908z"/><path d="M306.436 161.146c2.027-.544 2.324-3.242 2.634-5.465.62-4.446-3.147-8.586-8.41-9.241s-9.976 1.993-10.597 6.44l-4.098 1.564 5.709.71-6.158 2.511 7.627.95-61.476 51.345 3.364 3.696 61.476-51.345c1.623-1.356.449-3.222-1.343-4.754-2.114-1.807-1.572-2.164-1.295-4.153.405-2.898 3.184-4.135 6.342-3.742s5.418 2.877 5.046 5.544c-.186 1.334-.734 2.903-2.153 3.208-2.335 1.15 1.03 4.846 3.332 2.732z" fill="#fff600"/><path d="M194.88 361.42v336.61c0 35.434 16.978 53.15 50.934 53.15h118.85c33.957 0 33.957 35.433 33.957 35.433s0-35.433 33.956-35.433h118.85c33.957 0 50.935-17.716 50.935-53.15V361.42h-407.48zm17.716 17.717v177.16h177.17v-177.16h-177.17zm194.88 0v177.16h177.17v-177.16h-177.17zm-194.88 194.88v106.3c0 35.434 16.978 53.15 50.934 53.15h126.231v-159.45h-177.16zm372.05 0v106.3c0 35.434-16.977 53.15-50.934 53.15H407.481v-159.45h177.16z" stroke="#000" stroke-width="1pt" fill="#cba323" transform="matrix(.55826 0 0 .52733 97.622 -66.238)"/><path d="M265.756 143.034l-19.78 20.02 6.086 36.035h27.389l6.086-36.035-19.781-20.02z" fill="#fff"/><path d="M264.24 150.504l-15.216 14.948 6.086 29.896h9.13v-44.842zm3.043 0v44.842h9.13l6.086-29.896-15.216-14.948z" fill="#fff600"/><path d="M270.705 199.087h-4.945s2.473 7.74 4.945 7.74c9.89 0 29.722-11.289 29.672-7.74 0 7.74-4.945 3.87-4.945 7.74 0 3.869 9.89 0 9.89-3.87s0-7.74-4.945-7.74-19.324 7.791-24.726 7.74c-4.946 0-4.946-3.87-4.946-3.87zM260.813 199.087h4.945s-2.472 7.74-4.945 7.74c-9.89 0-29.722-11.289-29.672-7.74 0 7.74 4.946 3.87 4.946 7.74 0 3.869-9.89 0-9.89-3.87s0-7.74 4.944-7.74c4.946 0 19.324 7.791 24.727 7.74 4.945 0 4.945-3.87 4.945-3.87z" fill="#fffbff"/><path d="M70.866 574.02c0 35.433 28.704 36.668 17.717 53.149l-35.433 53.15H35.434l17.716-53.15c5.905-17.716 17.716-65.373 17.716-53.149z" transform="matrix(.20769 .03556 -.04452 .16587 400.283 156.016)" stroke="#fff600" stroke-width="5" fill="#cc1900"/><path d="M35.433 423.42c0 3.667 2.242 31.888 0 35.067-2.242 3.179-8.969-18.684-12.977-16.279-4.008 2.405-7.603 24.158-12.902 25.504-5.298 1.35-12.3-17.71-18.412-17.71-6.112 0-11.937 19.062-17.235 17.717-5.298-1.346-10.071-23.099-14.079-25.504-4.008-2.405-10.735 19.458-12.977 16.279-2.242-3.179 0-31.4 0-35.067 0-14.669 19.842-26.575 44.291-26.575s44.291 11.906 44.291 26.575z" transform="matrix(.16619 0 0 .0849 390.115 224.105)" stroke="#fff600" stroke-width="7.99" fill="#cc1900"/><path d="M354.018 239.22c2.18 1.005 2.003 2.681 1.261 3.01-.742.327-1.77-.816-3.95-1.821s-4.69-1.493-3.949-1.821 4.458-.373 6.638.632z" fill="#008d00"/><path d="M-70.866 414.57v53.15h53.15v-17.717h-35.433V414.57h-17.716z" transform="matrix(.11356 .14336 -.1795 .0907 443.015 228.556)" stroke="#fff600" stroke-width="5" fill="#cc1900"/><path d="M70.866 574.02c0 35.433 28.704 36.668 17.717 53.149l-35.433 53.15H35.434l17.716-53.15c5.905-17.716-17.716-35.433-70.866 0-12.224 0-70.866-8.963-70.866 0v53.15h-17.716v-53.15c0-6.941-35.433-53.149-35.433-70.866 0-12.224-53.15 0-53.15-17.716 0-8.859 35.433-17.717 35.433-35.433 0-17.717 35.433 0 53.15 0 0 17.716-17.717 35.433 17.716 35.433 24.449 0 177.17 0 177.17 17.716 0 17.717-17.717 5.493-17.717 17.717z" stroke="#fff600" stroke-width="5" fill="#cc1900" transform="matrix(.2124 0 0 .16964 384.88 156.03)"/><path d="M363.552 271.44c2.043-.012 2.779 1.506 2.427 2.089-.351.582-1.658.009-3.7.02s-4.053.603-3.701.02 2.932-2.119 4.974-2.13zM393.657 271.44c2.043-.012 2.778 1.506 2.427 2.089-.352.582-1.658.009-3.7.02s-4.053.603-3.702.02 2.932-2.119 4.975-2.13zM358.797 267.24c1.656-.954 3.358-.058 3.494.58.136.637-1.344.775-3 1.73s-2.865 2.367-3.001 1.73.85-3.085 2.507-4.04zM379.016 268.953c2.041-.055 2.828 1.447 2.496 2.037-.332.59-1.657.044-3.699.1s-4.03.689-3.699.099 2.86-2.181 4.902-2.236zM353.34 251.021l8.96-5.485 2.29 2.386-8.96 5.485z" fill="#008d00"/><path d="M357.06 254.91c0 .829-.51 1.502-1.142 1.502s-1.143-.673-1.143-1.503.512-1.503 1.143-1.503 1.143.673 1.143 1.503z" fill="#008d00"/><path d="M47.995 681.85c34.086.02 34.086 12.901 19.835 12.901-19.835 0-67.83 4.38-67.83 3.28 0-1.103-16.484-14.203-16.484-14.203-1.232-3.513 1.177 14.128-1.232 14.203-2.41.074-16.43-15.381-16.43-15.381s1.288 15.232 0 15.307c-1.287.074-17.66-9.42-17.66-9.42l-1.178 8.242-15.306 9.42 15.306 10.597v8.242l15.306-8.242 1.178 15.306 18.839-15.306s4.764 16.299 2.354 16.484c-2.41.185 16.484-16.484 16.484-16.484-1.178-1.05 54.051 0 87.405-1.05 33.355-1.048 32.747-51.937 17.717-53.15-15.032-1.213-58.305 3.33-58.305-.203" transform="matrix(.1104 0 0 .12676 390.87 165.343)" stroke="#fff600" stroke-width="5.055" fill="#cc1900"/><g><path d="M70.866 574.02c0 35.433 28.704 36.668 17.717 53.149l-35.433 53.15H35.434l17.716-53.15c5.905-17.716 17.716-65.373 17.716-53.149z" transform="matrix(.20769 .03556 -.04452 .16587 400.283 193.388)" stroke="#fff600" stroke-width="5" fill="#cc1900"/><path d="M35.433 423.42c0 3.667 2.242 31.888 0 35.067-2.242 3.179-8.969-18.684-12.977-16.279-4.008 2.405-7.603 24.158-12.902 25.504-5.298 1.35-12.3-17.71-18.412-17.71-6.112 0-11.937 19.062-17.235 17.717-5.298-1.346-10.071-23.099-14.079-25.504-4.008-2.405-10.735 19.458-12.977 16.279-2.242-3.179 0-31.4 0-35.067 0-14.669 19.842-26.575 44.291-26.575s44.291 11.906 44.291 26.575z" transform="matrix(.16619 0 0 .0849 390.115 261.477)" stroke="#fff600" stroke-width="7.99" fill="#cc1900"/><path d="M354.018 276.592c2.18 1.005 2.003 2.681 1.261 3.01-.742.327-1.77-.817-3.95-1.822s-4.69-1.492-3.949-1.82 4.458-.373 6.638.632z" fill="#008d00"/><path d="M-70.866 414.57v53.15h53.15v-17.717h-35.433V414.57h-17.716z" transform="matrix(.11356 .14336 -.1795 .0907 443.015 265.928)" stroke="#fff600" stroke-width="5" fill="#cc1900"/><path d="M70.866 574.02c0 35.433 28.704 36.668 17.717 53.149l-35.433 53.15H35.434l17.716-53.15c5.905-17.716-17.716-35.433-70.866 0-12.224 0-70.866-8.963-70.866 0v53.15h-17.716v-53.15c0-6.941-35.433-53.149-35.433-70.866 0-12.224-53.15 0-53.15-17.716 0-8.859 35.433-17.717 35.433-35.433 0-17.717 35.433 0 53.15 0 0 17.716-17.717 35.433 17.716 35.433 24.449 0 177.17 0 177.17 17.716 0 17.717-17.717 5.493-17.717 17.717z" stroke="#fff600" stroke-width="5" fill="#cc1900" transform="matrix(.2124 0 0 .16964 384.88 193.401)"/><path d="M363.552 308.811c2.043-.011 2.779 1.507 2.427 2.09-.351.582-1.658.009-3.7.02s-4.053.603-3.701.02 2.932-2.119 4.974-2.13zM393.657 308.811c2.043-.011 2.778 1.507 2.427 2.09-.352.582-1.658.009-3.7.02s-4.053.603-3.702.02 2.932-2.119 4.975-2.13zM358.797 304.612c1.656-.955 3.358-.058 3.494.58.136.637-1.344.775-3 1.73s-2.865 2.367-3.001 1.73.85-3.085 2.507-4.04zM379.016 306.325c2.041-.055 2.828 1.447 2.496 2.037-.332.59-1.657.044-3.699.1s-4.03.688-3.699.099 2.86-2.182 4.902-2.236zM353.34 288.393l8.96-5.485 2.29 2.386-8.96 5.485z" fill="#008d00"/><path d="M357.06 292.281c0 .83-.51 1.503-1.142 1.503s-1.143-.673-1.143-1.503.512-1.503 1.143-1.503 1.143.673 1.143 1.503z" fill="#008d00"/><path d="M47.995 681.85c34.086.02 34.086 12.901 19.835 12.901-19.835 0-67.83 4.38-67.83 3.28 0-1.103-16.484-14.203-16.484-14.203-1.232-3.513 1.177 14.128-1.232 14.203-2.41.074-16.43-15.381-16.43-15.381s1.288 15.232 0 15.307c-1.287.074-17.66-9.42-17.66-9.42l-1.178 8.242-15.306 9.42 15.306 10.597v8.242l15.306-8.242 1.178 15.306 18.839-15.306s4.764 16.299 2.354 16.484c-2.41.185 16.484-16.484 16.484-16.484-1.178-1.05 54.051 0 87.405-1.05 33.355-1.048 32.747-51.937 17.717-53.15-15.032-1.213-58.305 3.33-58.305-.203" transform="matrix(.1104 0 0 .12676 390.87 202.715)" stroke="#fff600" stroke-width="5.055" fill="#cc1900"/></g></g></svg>