<svg xmlns="http://www.w3.org/2000/svg" viewBox="0 0 512 512" height="480" width="640"><g fill-rule="evenodd" stroke-width="1pt"><path d="M-85.333 0h682.65v512h-682.65z"/><path fill="#090" d="M369.762 0h227.555v512H369.762z"/><path fill="#bf0000" d="M142.221 0h227.555v512H142.22z"/></g><path d="M398.352 265.182c-.109.579 1.454 1.433 1.826.99 1.682-2.015 3.883-5.97 4.334-8.364.133-.697-2.107-1.485-2.586-.913-1.575 1.886-3.1 5.773-3.574 8.287zM188.016 387.838c-1.675 5.917-26.38-5.577-29.138-11.532 14.136 7.49 29.476 5.924 29.138 11.532zM109.91 266.973c1.236 1.47 3.318.485 1.42-1.504-1.552-1.608-1.041-2.115-1.987-4.073-.936-2.188-.887-3.395-2.016-4.959-1-1.483-2.501.03-1.495 1.278 1.263 1.477.915 2.565 1.687 3.993 1.428 2.444 1.08 3.727 2.392 5.265zM143.134 307.086c3.974 1.954 6.991 6.836 7.19 10.812.336 4.576.996 8.44 3.051 11.691-3.271-.91-4.838-6.125-5.303-11.119-.471-5.17-3.256-7.411-4.938-11.384zM151.425 316.662c2.75 5.077 6.596 7.013 6.793 10.78.333 4.335.662 4.557 1.837 8.82-3.237-.863-4.052-1.145-4.926-7.632-.54-4.559-4.19-7.775-3.704-11.968z" fill-rule="evenodd" stroke="#000" stroke-width=".97315" fill="#fff"/><path stroke-linejoin="round" d="M215.673 343.95c4.208 3.446 6.938 7.382 8.211 12.467 1.327 4.738 3.194 8.515 5.932 12.774-4.46-3.042-7.265-7.18-8.668-12.167-1.232-4.9-2.686-8.563-5.475-13.075zM294.44 343.95c-4.302 3.466-7.093 7.425-8.394 12.54-1.357 4.766-3.265 8.566-6.064 12.85 4.56-3.06 7.427-7.223 8.861-12.239 1.26-4.93 2.745-8.614 5.596-13.152zM289.145 343.95c-4.611 3.621-8.958 7.732-10.26 12.848-1.356 4.765-2.176 8.412-5.285 13.154 4.87-3.06 6.804-7.682 8.238-12.698 1.26-4.928 4.146-8.612 7.308-13.305zM237.024 363.626c1.545 2.914 3.32 7.35 6.537 6.538.05-2.23-3.472-3.776-6.537-6.538zM241.83 364.619c6.25 2.561 11.645 1.929 12.317 5.856-5.861.633-8.005-1.775-12.316-5.856zM272.466 364.016c-1.567 2.746-3.366 6.928-6.627 6.163-.052-2.103 3.52-3.56 6.627-6.163zM268.086 364.852c-6.339 2.431-11.813 1.83-12.496 5.558 5.948.6 8.123-1.684 12.496-5.558z" fill-rule="evenodd" stroke="#000" stroke-width=".97315" fill="#fff"/><path d="M273.867 355.958c.124-.89-.482-1.666-1.21-1.9-1.419-.533-2.831-.967-4.237-1.368-1.599-.38-2.494.767-2.5 1.52-.007 1.254-.065 2.318 0 3.268.088 1.183.312 1.27 1.06 1.446 1.197.202 2.732.409 3.935 1.216.953.588 1.869.123 2.345-.91.308-.79.477-2.336.607-3.272zM256.642 355.958c-.11-.89.357-1.742 1.007-1.976 1.267-.533 2.529-.663 3.86-.609 1.478-.023 1.85.312 1.855 1.065.008 1.253.06 2.47 0 3.42-.078 1.183-.052 1.27-.72 1.446-1.07.202-2.893.256-3.968 1.064-.852.588-1.823.123-1.87-.987.022-.836-.048-2.487-.164-3.423zM235.739 355.724c-.125-.89.485-1.666 1.216-1.9 1.425-.533 2.844-.967 4.257-1.368 1.606-.379 2.505.767 2.51 1.52.008 1.254.067 2.319 0 3.268-.087 1.184-.313 1.271-1.064 1.446-1.203.203-2.744.41-3.953 1.217-.957.588-1.878.123-2.357-.91-.31-.791-.479-2.337-.609-3.273zM253.042 355.724c.11-.89-.359-1.742-1.012-1.975-1.273-.533-2.54-.664-3.878-.61-1.485-.023-1.859.312-1.864 1.065-.008 1.254-.059 2.47 0 3.42.078 1.183.052 1.27.724 1.446 1.074.202 2.907.257 3.987 1.065.855.587 1.83.122 1.877-.987-.02-.837.05-2.488.166-3.424zM185.469 238.518c-2.01-3.229-4.418 4.479-12.688 10.216-3.85 2.62-6.532 9.601-6.557 14.195-.127 3.155.35 6.302-.002 9.354-.222 1.93-2.234 6.216-.858 7.312 3.64 2.705 8.351 8.848 10.537 10.967 1.89 1.657 3.527-8.55 4.945-13.118 1.52-4.895.84-10.745 5.055-15.269 2.988-3.053 10.524-6.058 9.677-7.419l-10.11-16.238z" fill-rule="evenodd" stroke="#000" stroke-width=".97315" fill="#fff"/><path d="M185.469 238.518c-2.01-3.229-4.418 4.479-12.688 10.216-3.85 2.62-6.532 9.601-6.557 14.195-.127 3.155.35 6.302-.002 9.354-.222 1.93-2.234 6.216-.858 7.312 3.64 2.705 8.351 8.848 10.537 10.967 1.89 1.657 3.527-8.55 4.945-13.118 1.52-4.895.84-10.745 5.055-15.269 2.988-3.053 10.524-6.058 9.677-7.419l-10.11-16.238z" fill-rule="evenodd" fill="#fff"/><path d="M173.246 248.074c-.788 5.468 2.256 7.287 5.129 8.346 2.974 1.057 5.412 4.247 6.668 7.133M165.887 266.077c1.255 4.714 4.558 4.124 7.43 5.183 2.975 1.057 6.102 4.817 7.358 7.703" stroke="#000" stroke-width=".486575" fill="none"/><path d="M182.686 235.19l1.506-.967 28.922 48.71-1.504.967-28.924-48.71z" fill-rule="evenodd" stroke="#000" stroke-width=".97315" fill="#fff"/><path d="M182.686 235.19l1.506-.967 28.922 48.71-1.504.967-28.924-48.71z" fill-rule="evenodd" fill="#fff"/><path d="M185.8 233.263a3.333 3.333 0 11-6.667 0 3.333 3.333 0 016.667 0z" fill-rule="evenodd" stroke="#000" stroke-width=".97315" fill="#fff"/><path d="M185.8 233.263a3.333 3.333 0 11-6.667 0 3.333 3.333 0 016.667 0z" fill-rule="evenodd" fill="#fff"/><path d="M274.79 144.77c-1.033-1.659-2.27 2.301-6.519 5.249-1.978 1.346-3.356 4.933-3.369 7.293-.065 1.621.18 3.238-.001 4.806-.114.992-1.148 3.194-.441 3.757 1.87 1.39 4.291 4.546 5.414 5.635.971.851 1.812-4.393 2.541-6.74.781-2.515.431-5.521 2.597-7.845 1.535-1.569 5.407-3.113 4.972-3.812l-5.194-8.343z" fill-rule="evenodd" transform="matrix(-1.94529 0 0 2.01442 859.49 -52.133)" stroke="#000" stroke-width=".492" fill="#fff"/><path d="M324.944 239.495c2.009-3.342 4.415 4.635 12.68 10.574 3.849 2.711 6.53 9.937 6.555 14.691.126 3.265-.35 6.523.001 9.681.222 1.999 2.234 6.434.858 7.568-3.637 2.8-8.347 9.158-10.531 11.352-1.89 1.714-3.525-8.85-4.943-13.578-1.52-5.066-.839-11.121-5.052-15.803-2.986-3.16-10.518-6.27-9.672-7.679l10.104-16.806z" fill-rule="evenodd" fill="#fff"/><path d="M273.36 143.06l.774-.497 14.86 25.027-.773.497-14.861-25.027z" fill-rule="evenodd" transform="matrix(-1.94529 0 0 2.01442 859.49 -52.133)" stroke="#000" stroke-width=".492" fill="#fff"/><path d="M268.43 149.76c-.405 2.809 1.237 3.665 2.713 4.209 1.528.543 2.859 2.064 3.504 3.547" transform="matrix(-1.94529 0 0 2.01442 859.49 -52.133)" stroke="#000" stroke-width=".25" fill="none"/><path d="M267.35 151.26c.645 2.422 2.264 2.005 3.74 2.549 1.528.543 3.135 2.32 3.78 3.803" transform="matrix(-1.94529 0 0 2.01442 864.433 -36.44)" stroke="#000" stroke-width=".25" fill="none"/><path d="M327.725 236.05l-1.505-1-28.907 50.414 1.503 1.001 28.91-50.415z" fill-rule="evenodd" fill="#fff"/><path d="M274.96 142.07a1.713 1.713 0 11-3.425 0 1.713 1.713 0 013.425 0z" fill-rule="evenodd" transform="matrix(-1.94529 0 0 2.01442 859.49 -52.133)" stroke="#000" stroke-width=".492" fill="#fff"/><path d="M324.613 234.056c0 1.905 1.491 3.45 3.331 3.45 1.84 0 3.332-1.545 3.332-3.45s-1.492-3.45-3.332-3.45c-1.84 0-3.331 1.545-3.331 3.45z" fill-rule="evenodd" fill="#fff"/><g fill-rule="evenodd" fill="#fff"><path stroke="#000" stroke-width=".97315" d="M210.515 194.123h11.72v2.688h-11.72zM210.515 199.203h11.72v22.456h-11.72zM209.814 191.048l13.002.076c.508-4.409-3.893-9.171-6.462-9.123-2.54.123-6.64 4.816-6.54 9.047zM287.51 194.181h11.721v2.688h-11.72zM287.51 199.28h11.721v22.457h-11.72zM286.802 191.124l13.001.076c.508-4.409-3.892-9.171-6.461-9.122-2.54.122-6.641 4.815-6.54 9.046z"/><path d="M210.515 194.123h11.72v2.688h-11.72zM210.515 199.203h11.72v22.456h-11.72zM209.814 191.048l13.002.076c.508-4.409-3.893-9.171-6.462-9.123-2.54.123-6.64 4.816-6.54 9.047zM287.51 194.181h11.721v2.688h-11.72zM287.51 199.28h11.721v22.457h-11.72zM286.802 191.124l13.001.076c.508-4.409-3.892-9.171-6.461-9.122-2.54.122-6.641 4.815-6.54 9.046z"/></g><path fill-rule="evenodd" fill="#fff" d="M287.51 199.28h11.721v22.457h-11.72zM287.51 194.181h11.721v2.688h-11.72zM286.81 191.126l13.001.076c.508-4.409-3.892-9.171-6.462-9.123-2.54.123-6.64 4.815-6.54 9.047zM210.515 199.203h11.72v22.456h-11.72zM210.515 194.123h11.72v2.688h-11.72zM209.814 191.048l13.002.076c.508-4.409-3.893-9.171-6.462-9.123-2.54.123-6.64 4.816-6.54 9.047z"/><g fill-rule="evenodd" fill="#fff"><path d="M200.764 225.478l7.452 8.211 92.757.152 7.604-8.211-23.721-.304-11.557-8.06-37.256-.151-10.797 8.363h-24.482z" stroke="#000" stroke-width=".97315"/><path d="M200.764 225.478l7.452 8.211 92.757.152 7.604-8.211-23.721-.304-11.557-8.06-37.256-.151-10.797 8.363h-24.482z"/></g><path d="M238.736 212.808l32.03-.034c4.337-2.292 5.69-9.614 5.668-13.711-.06-12.102-8.525-17.906-17.02-18.216-1.273-.064-2.75-1.055-3.087-2.215-.837-2.627-.62-9.468-1.538-9.375-.815-.012-.576 6.697-1.302 9.161-.399 1.227-1.777 2.435-3.15 2.505-10.575.528-17.395 8.247-17.128 18.14.179 6.541.94 10.447 5.527 13.745z" stroke="#000" stroke-width=".97315" fill="none"/><path d="M238.736 212.808l32.03-.034c4.337-2.292 5.69-9.614 5.668-13.711-.06-12.102-8.525-17.906-17.02-18.216-1.273-.064-2.75-1.055-3.087-2.215-.837-2.627-.62-9.315-1.538-9.375-.661.064-.576 6.697-1.302 9.161-.399 1.227-1.777 2.435-3.15 2.505-10.575.528-17.395 8.247-17.128 18.14.179 6.541.94 10.447 5.527 13.745z" fill-rule="evenodd" fill="#fff"/><path d="M236.732 202.142c.807 3.988 2.728 3.377 2.586 1.446-.473-6.16.026-12.227 5.473-16.271 1.727-1.265-.202-2.433-1.672-1.824-4.632 1.948-7.446 10.88-6.387 16.649z" stroke="#000" stroke-width=".486575" fill="none"/><path d="M242.12 204.654c.808 3.988 4.107 3.815 3.5 1.218-1.236-4.973-1.04-12.226 3.343-15.358 1.73-1.26-.202-2.433-1.672-1.824-4.632 1.949-6.23 10.195-5.17 15.964z" stroke="#000" stroke-width=".486575" fill="none"/><path d="M301.46 125.42c.415 2.049 1.402 1.735 1.329.743-.243-3.165.013-6.282 2.812-8.36.887-.65-.104-1.25-.859-.937-2.38 1.001-3.826 5.59-3.282 8.554z" transform="matrix(-1.9484 0 0 1.9463 860.365 -41.811)" stroke="#000" stroke-width=".25" fill="none"/><path d="M302.08 125.07c.415 2.049 2.11 1.96 1.798.626-.635-2.555-.534-6.282 1.718-7.891.889-.647-.104-1.25-.859-.937-2.38 1.001-3.201 5.238-2.657 8.202z" transform="matrix(-1.9484 0 0 1.9463 856.18 -38.618)" stroke="#000" stroke-width=".25" fill="none"/><g fill-rule="evenodd" fill="#fff"><path d="M186.011 330.247h137.617L311.31 320.21H198.327l-12.316 10.037z" stroke="#000" stroke-width=".97315"/><path d="M186.011 330.247h137.617L311.31 320.21H198.327l-12.316 10.037z"/></g><g fill="#fff" fill-rule="evenodd"><g stroke="#000" stroke-width=".5"><path d="M209.892 239.939h13.077v18.095h-13.077zM210.651 268.374h12.622v3.802H210.65zM210.36 275.05h12.925v14.142h-12.926zM209.444 292.08h14.142v7.908h-14.142zM211.176 264.968h11.395l2.26-3.762h-15.699l2.044 3.762zM226.552 251.11l.107-9.89h7.85c-3.083 2.543-5.95 5.626-7.957 9.89zM299.441 239.939h-12.857v18.095h12.857zM299.227 268.374H286.82v3.802h12.407zM299.46 275.05h-12.635v14.142h12.636zM300.278 292.08h-13.902v7.908h13.902z" stroke-width=".97315"/><path d="M288.44 157.7h5.855l1.161-1.933h-8.066l1.05 1.933z" transform="matrix(-1.91345 0 0 1.9463 850.108 -41.963)"/><path d="M296.23 150.58l.055-5.082h4.033c-1.584 1.307-3.057 2.891-4.088 5.082z" transform="matrix(-1.91345 0 0 1.9463 849.894 -41.963)"/></g><path d="M209.892 239.939h13.077v18.095h-13.077zM210.651 268.374h12.622v3.802H210.65zM210.36 275.05h12.925v14.142h-12.926zM209.444 292.08h14.142v7.908h-14.142zM211.176 264.968h11.395l2.26-3.762h-15.699l2.044 3.762zM226.552 251.11l.107-9.89h7.85c-3.083 2.543-5.95 5.626-7.957 9.89zM299.441 239.939h-12.857v18.095h12.857zM299.227 268.374H286.82v3.802h12.407zM299.46 275.05h-12.635v14.142h12.636zM300.278 292.08h-13.902v7.908h13.902zM298.194 264.968H286.99l-2.221-3.762h15.434l-2.01 3.762zM283.074 251.11l-.106-9.89h-7.716c3.03 2.543 5.849 5.626 7.822 9.89z"/></g><path d="M211.916 255.159c.078 2.116 2.474 1.172 2.474.107 0-3.264.043-6.793-.088-9.103-.015-1.703 4.058-1.277 4.035-.228.016 2.756.047 6.536.062 9.761-.029 1.57 2.632 1.435 2.595 0a1324.67 1324.67 0 010-11.489c.023-3.414-8.963-3.34-9.033-.076.004 2.68-.049 7.478-.045 11.028zM288.86 255.54c.077 2.115 2.473 1.17 2.473.106 0-3.264.043-6.792-.087-9.103-.016-1.703 4.058-1.276 4.034-.227.016 2.756.047 6.535.062 9.76-.029 1.57 2.554 1.435 2.519 0-.016-3.678.058-8.838.076-11.489.023-3.414-8.963-3.34-9.033-.076.004 2.68-.049 7.478-.045 11.028zM211.95 276.724h9.276v11.557h-9.276z" stroke="#000" stroke-width=".486575" fill="none"/><path fill-rule="evenodd" d="M217.886 281.512h3.27v1.901h-3.27zM212.183 281.512h3.194v1.901h-3.194z"/><path fill-rule="evenodd" d="M215.375 276.88h2.509v4.714h-2.509zM215.375 283.341h2.509v5.018h-2.509z"/><path stroke="#000" stroke-width=".486575" fill="none" d="M288.589 276.648h9.276v11.557h-9.276z"/><path fill-rule="evenodd" d="M294.525 281.436h3.27v1.901h-3.27zM288.822 281.436h3.194v1.901h-3.194z"/><path fill-rule="evenodd" d="M292.014 276.804h2.51v4.714h-2.51zM292.014 283.265h2.51v5.018h-2.51z"/><path fill-rule="evenodd" stroke="#000" stroke-width=".97315" fill="#fff" d="M280.154 277.327h1.596v11.482h-1.596z"/><path d="M249.13 292.547l2.508 7.527h5.701l-4.56-7.529-3.65.002zm-3.192 7.527l1.444 7.45 6.69.076-2.434-7.528-5.7.002zm11.327.076l4.638 7.374h9.504l-7.45-7.452-6.692.078zm-56.112 16.878c5.043-4.689 8.262-8.692 8.288-14.445h12.316c.025 3.219 1.19 5.144 2.966 5.017l12.47-.076-.076-7.374h-9.048l-.002-40.223c-.33-14.217 17.285-22.505 24.484-22.429l-42.807-.076v-1.292h90.022l.076 1.292-43.414.076c12.875.026 25.292 12.217 25.395 22.507v11.404h-1.673l-.076-11.252c0-11.253-14.173-21.771-25.547-21.442-9.835.282-25.09 9.657-24.938 21.366v3.498l23.342.152-.228 4.028 3.665 2.34 7.31 2.33-.107 6.043 5.236 1.543.044 6.038 6.281 2.695v6.25l3.984 2.454-.183 6.347 5.4 3.801h-12.774l7.983 8.897h-11.784L261.9 307.6h-7.754l3.498 8.819-8.286-.076-1.98-8.743h-10.11l.076 9.426-36.192.002zm36.116-24.407v7.45h8.669l-1.752-7.45h-6.917z" fill-rule="evenodd" stroke="#000" stroke-width=".97315" fill="#fff"/><path d="M249.13 292.547l2.508 7.527h5.701l-4.56-7.529-3.65.002zm-3.192 7.527l1.444 7.45 6.69.076-2.434-7.528-5.7.002zm11.327.076l4.638 7.374h9.504l-7.45-7.452-6.692.078zm-56.112 16.878c5.043-4.689 8.262-8.692 8.288-14.445h12.316c.025 3.219 1.19 5.144 2.966 5.017l12.47-.076-.076-7.374h-9.048l-.002-40.223c-.33-14.217 17.285-22.505 24.484-22.429l-42.807-.076v-1.292h90.022l.076 1.292-43.414.076c12.875.026 25.292 12.217 25.395 22.507v11.404h-1.673l-.076-11.252c0-11.253-14.173-21.771-25.547-21.442-9.835.282-25.09 9.657-24.938 21.366v3.498l23.342.152-.228 4.028 3.665 2.34 7.31 2.33-.107 6.043 5.236 1.543.044 6.038 6.281 2.695v6.25l3.984 2.454-.183 6.347 5.4 3.801h-12.774l7.983 8.897h-11.784L261.9 307.6h-7.754l3.498 8.819-8.286-.076-1.98-8.743h-10.11l.076 9.426-36.192.002zm36.116-24.407v7.45h8.669l-1.752-7.45h-6.917z" fill-rule="evenodd" fill="#fff"/><path stroke="#000" stroke-width=".48268239999999996" fill="none" d="M237.724 279.468h5.4v12.392h-5.4z"/><path d="M298.05 171.73h2.707l-.017-4.594c-.035-1.997 1.793-4.01 2.668-4.077.97-.036 2.4 1.885 2.448 3.92l.039 4.766 2.872-.006V159.91l-10.717.056v11.764z" transform="matrix(1.9463 0 0 1.9848 -350 -48.13)" stroke="#000" stroke-width=".25" fill="none"/><path stroke="#000" stroke-width=".4807361" fill="none" d="M271.784 298.172h6.54v5.094h-6.54zM267.911 289.414h6.54v5.093h-6.54zM261.605 280.675h6.54v5.093h-6.54zM256.195 273.299h6.54v5.093h-6.54z"/><path d="M251.874 292.762l6.69.227 11.936 10.569v-6.234l-4.029-2.889v-4.943l-5.854-3.344v-5.323l-5.703-1.9v-7.224l-2.89-2.357-.15 23.418z" stroke="#000" stroke-width=".486575" fill="none"/><path fill-rule="evenodd" fill="#fff" d="M280.154 277.327h1.596v11.482h-1.596z"/><g stroke-linejoin="round" fill-rule="evenodd" stroke="#000" stroke-width=".5" fill="#fff"><path d="M163.755 161.05c.58 9.069-2.235 14.048-7.038 13.29-1.324-5.03 1.687-8.406 7.038-13.29zM153.196 181.136c-4.27-2.172-1.19-18.756.45-25.708 1.212 8.955 3.24 21.683-.45 25.708z" stroke-width=".97315"/><path d="M154.723 181.93c7.178 2.497 12.861-5.233 14.782-14.186-5.924 8.176-15.566 8.186-14.782 14.186zM149.276 190.29c-5.613-1.483-2.232-19.078-1.212-26.116 1.234 7.27 5.103 23.708 1.212 26.116zM151.193 189.751c.314-6.068 6.363-4.315 10.538-7.554-.682 3.033-3.249 8.407-10.538 7.554zM144.323 197.878c-5.562-1.5-2.219-20.436-2.534-28.233 1.631 6.736 6.795 26.407 2.534 28.233zM146.93 197.05c4.557 1.481 10.593-1.48 11.068-6.905-3.924 2.662-10.19.626-11.067 6.905z" stroke-width=".97315"/><path d="M140.168 206.236c-5.32.425-2.939-15.702-2.935-30.722 1.954 14.039 7.277 26.89 2.935 30.722z" stroke-width=".97315"/><path d="M142.017 205.509c3.593 1.802 10.03-1.078 11.866-7.147-6.49 2.822-10.83.064-11.866 7.147z" stroke-width=".97315"/></g><g fill-rule="evenodd" fill="#fff"><path d="M163.755 161.05c.58 9.069-2.235 14.048-7.038 13.29-1.324-5.03 1.687-8.406 7.038-13.29zM153.196 181.136c-4.27-2.172-1.19-18.756.45-25.708 1.212 8.955 3.24 21.683-.45 25.708z"/><path d="M154.723 181.93c7.178 2.497 12.861-5.233 14.782-14.186-5.924 8.176-15.566 8.186-14.782 14.186zM149.276 190.29c-5.613-1.483-2.232-19.078-1.212-26.116 1.234 7.27 5.103 23.708 1.212 26.116zM151.193 189.751c.314-6.068 6.363-4.315 10.538-7.554-.682 3.033-3.249 8.407-10.538 7.554zM144.323 197.878c-5.562-1.5-2.219-20.436-2.534-28.233 1.631 6.736 6.795 26.407 2.534 28.233zM146.93 197.05c4.557 1.481 10.593-1.48 11.068-6.905-3.924 2.662-10.19.626-11.067 6.905z"/><path d="M140.168 206.236c-5.32.425-2.939-15.702-2.935-30.722 1.954 14.039 7.277 26.89 2.935 30.722z"/><path d="M142.017 205.509c3.593 1.802 10.03-1.078 11.866-7.147-6.49 2.822-10.83.064-11.866 7.147z"/></g><g stroke-linejoin="round" fill-rule="evenodd" stroke="#000" stroke-width=".5" fill="#fff"><path d="M183.773 169.444c-.946 7.867-4.161 12.445-8.965 11.687-1.323-5.03 2.571-8.246 8.965-11.687zM171.063 189.647c7.98 1.132 10.855-4.993 16.227-12.823-7.529 5.448-16.53 6.58-16.227 12.823z" stroke-width=".97315"/><path d="M168.806 188.732c-4.35-5.22-.146-11.775 3.178-17.363-.714 8.312 2.118 12.937-3.178 17.363zM166.879 197.354c-.49-5.105 8.207-6.24 12.14-9.078-1.323 2.95-3.327 10.894-12.14 9.078z" stroke-width=".97315"/><path d="M165.05 197.47c-6.015-.68-3.518-10.893.793-16.568-1.815 7.832 3.177 13.277-.794 16.569z" stroke-width=".97315"/><path d="M160.514 205.976c-6.845-3.026-2.458-11.612.115-16.68-1.097 6.657 4.387 11.725-.115 16.68z" stroke-width=".97315"/><path d="M161.877 205.178c3.593 4.69 10.592-1.4 12.028-8.511-6.09 5.07-10.59 4.237-12.028 8.511z" stroke-width=".97315"/></g><g fill-rule="evenodd" fill="#fff"><path d="M183.773 169.444c-.946 7.867-4.161 12.445-8.965 11.687-1.323-5.03 2.571-8.246 8.965-11.687zM171.063 189.647c7.98 1.132 10.855-4.993 16.227-12.823-7.529 5.448-16.53 6.58-16.227 12.823z"/><path d="M168.806 188.732c-4.35-5.22-.146-11.775 3.178-17.363-.714 8.312 2.118 12.937-3.178 17.363zM166.879 197.354c-.49-5.105 8.207-6.24 12.14-9.078-1.323 2.95-3.327 10.894-12.14 9.078z"/><path d="M165.05 197.47c-6.015-.68-3.518-10.893.793-16.568-1.815 7.832 3.177 13.277-.794 16.569z"/><path d="M160.514 205.976c-6.845-3.026-2.458-11.612.115-16.68-1.097 6.657 4.387 11.725-.115 16.68z"/><path d="M161.877 205.178c3.593 4.69 10.592-1.4 12.028-8.511-6.09 5.07-10.59 4.237-12.028 8.511z"/></g><g stroke-linejoin="round" fill-rule="evenodd" stroke="#000" stroke-width=".5" fill="#fff"><path d="M326.65 170.222c.91 4.088 1.137 12.145 8.399 10.555 1.059-7.49-5.031-7.83-8.398-10.555z" stroke-width=".97315"/><path d="M339.01 189.53c-.263-7.717-8.585-6.016-15.771-12.37 1.968 6.694 8.926 14.865 15.77 12.37z" stroke-width=".97315"/><path d="M340.722 188.615c4.88-3.367 1.135-10.705-3.404-17.135 1.703 6.999-2.041 13.427 3.404 17.135zM342.863 197.354c-7.867.605-9.266-3.328-12.368-8.396 5.371 3.48 12.557 1.286 12.368 8.396zM344.81 197.587c-3.747-3.065.907-9.645-.682-16.226 2.951 4.16 7.49 14.109.682 16.226z" stroke-width=".97315"/><path d="M348.099 205.742c-7.867 1.853-10.401-2.306-12.369-9.303 6.392 5.862 9.948 3.1 12.369 9.303z" stroke-width=".97315"/><path d="M349.228 205.645c5.484-.076 3.026-10.93.226-15.886.757 5.978-4.047 12.86-.226 15.886z" stroke-width=".97315"/></g><g fill-rule="evenodd" fill="#fff"><path d="M326.65 170.222c.91 4.088 1.137 12.145 8.399 10.555 1.059-7.49-5.031-7.83-8.398-10.555z"/><path d="M339.01 189.53c-.263-7.717-8.585-6.016-15.771-12.37 1.968 6.694 8.926 14.865 15.77 12.37z"/><path d="M340.722 188.615c4.88-3.367 1.135-10.705-3.404-17.135 1.703 6.999-2.041 13.427 3.404 17.135zM342.863 197.354c-7.867.605-9.266-3.328-12.368-8.396 5.371 3.48 12.557 1.286 12.368 8.396zM344.81 197.587c-3.747-3.065.907-9.645-.682-16.226 2.951 4.16 7.49 14.109.682 16.226z"/><path d="M348.099 205.742c-7.867 1.853-10.401-2.306-12.369-9.303 6.392 5.862 9.948 3.1 12.369 9.303z"/><path d="M349.228 205.645c5.484-.076 3.026-10.93.226-15.886.757 5.978-4.047 12.86-.226 15.886z"/></g><g stroke-linejoin="round" fill-rule="evenodd" stroke="#000" stroke-width=".5" fill="#fff"><path d="M345.873 161.1c.984 4.543-.917 13.513 6.344 13.443 3.037-5.132-3.435-9.959-6.344-13.443z" stroke-width=".97315"/><path d="M356.777 181.365c4.576-3.138.452-13.441-.971-25.041-1.11 10.344-3.562 21.639.971 25.04z" stroke-width=".97315"/><path d="M354.32 182.158c.573-5.664-8.356-6.927-14.478-14.422 1.587 6.01 6.112 14.79 14.477 14.422zM360.422 190.989c-4.811-4.358.905-16.869 1.143-26.567.745 8.949 4.677 24.98-1.143 26.567zM357.688 189.732c-7.032.452-8.887-4.698-9.708-7.637 3.776 2.72 9.745 1.438 9.708 7.637zM364.752 197.486c5.407-.228 3.406-20.738 2.657-27.214-.535 6.89-6.174 24.72-2.657 27.214zM362.373 197.123c-4.673.713-9.412-2.002-10.695-6.642 4.035 1.755 10.707.364 10.695 6.642z" stroke-width=".97315"/><path d="M369.094 206.01c5.788 2.357 3.711-24.387 2.962-30.559-.535 7.879-7.39 27.23-2.962 30.56z" stroke-width=".97315"/><path d="M367.737 206.006c-5.815.864-10.097-2.686-11.761-7.554 5.936 2.213 10.556 1.427 11.761 7.554z" stroke-width=".97315"/></g><g fill-rule="evenodd" fill="#fff"><path d="M363.553 237.72c.716-6.985-4.635-19.687-.837-26.458.517-.93-1.137-3.4-2.206-1.901-1.67 2.392-3.386 9.208-4.104 6.691-.761-2.736-.878-7.577-3.346-8.517-1.575-.55-3.801-.91-3.194 1.522.603 2.34 1.954 5.57.458 5.779-.869.126-3.37-3.185-5.475-4.714-1.698-1.365-4.23.77-1.748 2.812 8.065 6.577 15.88 9.537 20.452 24.786z" stroke="#000" stroke-width=".97315"/><path d="M363.553 237.72c.716-6.985-4.635-19.687-.837-26.458.517-.93-1.137-3.4-2.206-1.901-1.67 2.392-3.386 9.208-4.104 6.691-.761-2.736-.878-7.577-3.346-8.517-1.575-.55-3.801-.91-3.194 1.522.603 2.34 1.954 5.57.458 5.779-.869.126-3.37-3.185-5.475-4.714-1.698-1.365-4.23.77-1.748 2.812 8.065 6.577 15.88 9.537 20.452 24.786z"/></g><g fill-rule="evenodd" fill="#fff"><path d="M345.873 161.1c.984 4.543-.917 13.513 6.344 13.443 3.037-5.132-3.435-9.959-6.344-13.443z"/><path d="M356.777 181.365c4.576-3.138.452-13.441-.971-25.041-1.11 10.344-3.562 21.639.971 25.04z"/><path d="M354.32 182.158c.573-5.664-8.356-6.927-14.478-14.422 1.587 6.01 6.112 14.79 14.477 14.422zM360.422 190.989c-4.811-4.358.905-16.869 1.143-26.567.745 8.949 4.677 24.98-1.143 26.567zM357.688 189.732c-7.032.452-8.887-4.698-9.708-7.637 3.776 2.72 9.745 1.438 9.708 7.637zM364.752 197.486c5.407-.228 3.406-20.738 2.657-27.214-.535 6.89-6.174 24.72-2.657 27.214zM362.373 197.123c-4.673.713-9.412-2.002-10.695-6.642 4.035 1.755 10.707.364 10.695 6.642z"/><path d="M369.094 206.01c5.788 2.357 3.711-24.387 2.962-30.559-.535 7.879-7.39 27.23-2.962 30.56z"/><path d="M367.737 206.006c-5.815.864-10.097-2.686-11.761-7.554 5.936 2.213 10.556 1.427 11.761 7.554z"/></g><g fill-rule="evenodd" fill="#fff"><path d="M244.38 141.09c-1.017-1.062-.723-1.468.781-1.485 1.193-.075 3.557.731 4.454.078.822-.597.495-3.129.86-4.297.159-.651.615-1.673 1.64-.078 3.032 4.859 6.819 10.692 8.438 16.407.885 3.203.443 8.359-2.969 11.094l-2.422-7.032c-1.151-3.343-7.347-11.365-10.782-14.687z" transform="matrix(-1.93702 0 0 1.9463 857.173 -41.533)" stroke="#000" stroke-width=".501"/><path d="M383.805 233.07c1.97-2.067 1.4-2.857-1.513-2.89-2.31-.146-6.89 1.423-8.627.152-1.592-1.162-.959-6.09-1.666-8.363-.308-1.267-1.191-3.256-3.177-.152-5.873 9.457-13.208 20.81-16.344 31.933-1.715 6.234-.858 16.269 5.75 21.592l4.692-13.686c2.23-6.507 14.231-22.12 20.885-28.586z"/></g><g stroke-linejoin="round" fill-rule="evenodd" stroke="#000" stroke-width=".5" fill="#fff"><path d="M390.38 216.058c-2.647 8.511-4.238 15.487-.417 16.308 4.083-.709 2.308-8.932.417-16.308zM390.108 239.947c4.354 2.312 9.046-8.786 8.071-17.527-2.193 7.492-9.578 12.118-8.071 17.527zM388.494 239.719c.675-6.051-1.81-5.891-5.067-11.674.345 6.532 1.972 12.009 5.067 11.674z" stroke-width=".97315"/><path d="M389.933 248.592c5.081 1.443 10.905-10.656 10.687-19.597-2.116 9.897-13.146 13.852-10.687 19.597z" stroke-width=".97315"/><path d="M388.273 248.366c2.037-4.689-2.12-4.116-4.878-12.519-.913 8.696.413 12.665 4.878 12.519zM389.746 257.49c6.594 1.134 9.994-13.425 13.27-20.396-6.485 9.14-14.255 14.23-13.27 20.395z" stroke-width=".97315"/><path d="M388.213 256.99c1.927-5.368-3.521-5.068-6.39-13.09.456 10.175 1.777 13.845 6.39 13.09zM390.114 266.237c4.169.301 11.666-11.342 11.827-18.533-3.561 7.92-14.74 13.167-11.827 18.533z" stroke-width=".97315"/><path d="M387.011 264.895c1.734-5.6-3.108-5.636-5.257-11.909-.152 9.457 1.324 12.665 5.257 11.91zM387.169 274.985c7.353 1.287 9.235-8.406 13.573-18.266-4.28 7.848-13.949 12.252-13.573 18.266z" stroke-width=".97315"/><path d="M386.648 273.637c2.384-5.064-3.14-5.068-6.086-12.635-.152 10.706 1.701 13.846 6.086 12.635z" stroke-width=".97315"/></g><g fill-rule="evenodd" fill="#fff"><path d="M390.38 216.058c-2.647 8.511-4.238 15.487-.417 16.308 4.083-.709 2.308-8.932.417-16.308zM390.108 239.947c4.354 2.312 9.046-8.786 8.071-17.527-2.193 7.492-9.578 12.118-8.071 17.527zM388.494 239.719c.675-6.051-1.81-5.891-5.067-11.674.345 6.532 1.972 12.009 5.067 11.674z"/><path d="M389.933 248.592c5.081 1.443 10.905-10.656 10.687-19.597-2.116 9.897-13.146 13.852-10.687 19.597z"/><path d="M388.273 248.366c2.037-4.689-2.12-4.116-4.878-12.519-.913 8.696.413 12.665 4.878 12.519zM389.746 257.49c6.594 1.134 9.994-13.425 13.27-20.396-6.485 9.14-14.255 14.23-13.27 20.395z"/><path d="M388.213 256.99c1.927-5.368-3.521-5.068-6.39-13.09.456 10.175 1.777 13.845 6.39 13.09zM390.114 266.237c4.169.301 11.666-11.342 11.827-18.533-3.561 7.92-14.74 13.167-11.827 18.533z"/><path d="M387.011 264.895c1.734-5.6-3.108-5.636-5.257-11.909-.152 9.457 1.324 12.665 5.257 11.91zM387.169 274.985c7.353 1.287 9.235-8.406 13.573-18.266-4.28 7.848-13.949 12.252-13.573 18.266z"/><path d="M386.648 273.637c2.384-5.064-3.14-5.068-6.086-12.635-.152 10.706 1.701 13.846 6.086 12.635z"/></g><g fill-rule="evenodd" fill="#fff"><path d="M256.81 166.87c3.334.016 3.985-4.687 3.985-5.937-1.641.312-4.611 3.281-3.985 5.937z" transform="matrix(-1.93707 0 0 1.9463 857.387 -41.811)" stroke="#000" stroke-width=".501"/><path d="M359.927 282.968c-6.458.031-7.72-9.122-7.72-11.555 3.18.607 8.933 6.386 7.72 11.555z"/></g><g stroke-linejoin="round" fill-rule="evenodd" stroke="#000" stroke-width=".5" fill="#fff"><path d="M372.836 241.38c-2.647 8.51-3.705 12.596-.113 15.319 4.691-2.61 2.005-7.943.113-15.32zM371.357 263.625c1.968-6.278-2.875-7.79-5.446-14.865-.264 9.344 1.06 16.189 5.446 14.865z" stroke-width=".97315"/><path d="M373.288 264.98c3.443 1.324 7.679-6.655 5.335-14.637-2.42 7.187-8.361 8.925-5.335 14.638zM369.653 272.135c3.33-5.144-1.968-5.409-4.65-12.594-.151 9.457.717 13.35 4.65 12.594z" stroke-width=".97315"/><path d="M369.66 280.986c2.536-5.823-2.987-5.068-6.238-12.253-.152 10.706 1.625 13.009 6.238 12.253zM372.157 272.473c2.877.074 8.472-4.956 6.81-11.234-2.421 5.259-9.268 4.727-6.81 11.234z" stroke-width=".97315"/><path d="M371.36 280.068c4.692.983 8.246-6.2 7.718-11.12-3.67 4.579-8.704 4.954-7.719 11.12z" stroke-width=".97315"/></g><g fill-rule="evenodd" fill="#fff"><path d="M372.836 241.38c-2.647 8.51-3.705 12.596-.113 15.319 4.691-2.61 2.005-7.943.113-15.32zM371.357 263.625c1.968-6.278-2.875-7.79-5.446-14.865-.264 9.344 1.06 16.189 5.446 14.865z"/><path d="M373.288 264.98c3.443 1.324 7.679-6.655 5.335-14.637-2.42 7.187-8.361 8.925-5.335 14.638zM369.653 272.135c3.33-5.144-1.968-5.409-4.65-12.594-.151 9.457.717 13.35 4.65 12.594z"/><path d="M369.66 280.986c2.536-5.823-2.987-5.068-6.238-12.253-.152 10.706 1.625 13.009 6.238 12.253zM372.157 272.473c2.877.074 8.472-4.956 6.81-11.234-2.421 5.259-9.268 4.727-6.81 11.234z"/><path d="M371.36 280.068c4.692.983 8.246-6.2 7.718-11.12-3.67 4.579-8.704 4.954-7.719 11.12z"/></g><g fill-rule="evenodd" fill="#fff"><path d="M235.63 159.06c-.297-.385-1.15.01-.937.938.198 1.256 2.05 7.704 5.233 9.922 2.27 1.636 14.201 4.271 19.61 5.39 2.977.599 5.47 2.084 7.423 4.454-.808-3.099-1.457-5.395-2.5-8.203-1.014-2.468-3.701-5.168-6.484-5.313-5.169-.186-11.859-.626-16.72-2.735-2.509-1.048-4.011-2.464-5.625-4.453z" transform="matrix(-1.93702 0 0 1.9463 857.173 -41.533)" stroke="#000" stroke-width=".501"/><path d="M400.754 268.045c.575-.749 2.228.02 1.815 1.826-.384 2.445-3.97 14.994-10.136 19.311-4.397 3.184-27.508 8.313-37.985 10.49-5.767 1.167-10.596 4.057-14.379 8.67 1.565-6.032 2.822-10.5 4.843-15.966 1.964-4.803 7.169-10.058 12.56-10.34 10.012-.363 22.97-1.219 32.386-5.324 4.86-2.04 7.77-4.795 10.896-8.667z"/></g><g stroke-linejoin="round" fill-rule="evenodd" stroke="#000" stroke-width=".5" fill="#fff"><path d="M386.598 297.655c1.057-4.228-.29-5.588.865-12.208-6.345 8.51-3.96 12.542-.865 12.208z" stroke-width=".97315"/><path d="M387.297 298.704c4.202 1.171 15.129-8.405 15.448-15.55-2.954 5.135-17.713 10.674-15.448 15.55zM380.428 305.015c2.874-1.57 2.063-8.22-.543-10.465-.534 6.491-4.453 10.308.543 10.465z" stroke-width=".97315"/><path d="M383.394 306.83c5.082 1.593 10.83-7.615 15.021-11.614-4.778 4.118-19.227 6.096-15.021 11.613zM376.403 311.403c3.557-2.331.237-6.93-.012-16.016-3.574 6.567-4.301 15.553.012 16.016z" stroke-width=".97315"/><path d="M377.083 313.739c1.814 2.43 15.24-5.942 18.595-12.147-11.468 8.529-21.585 7.39-18.595 12.147zM375.742 321.318c3.295-2.402-2.836-8.718-4.109-17.196.076 10.327-1.339 18.179 4.109 17.196z" stroke-width=".97315"/><path d="M379.324 318.468c1.652 2.657 11.896-4.375 16.312-12.03-6.79 5.946-18.21 7.538-16.312 12.03zM368.856 330.037c3.711-.658 3.201-10.045.37-17.688-3.194 9.23-4.608 18.595-.37 17.688z" stroke-width=".97315"/><path d="M378.16 324.92c1.28 1.518 16.38-9.062 16.162-13.363-4.778 6.855-20.747 8.225-16.162 13.363zM360.636 338.803c5.12-2.1 2.713-10.391 3.721-19.327-4.03 8.732-8.791 17.496-3.721 19.327z" stroke-width=".97315"/><path d="M370.218 331.63c.815 2.808 13.112-2.4 19.048-10.968-7.17 5.566-21.096 6.323-19.048 10.967z" stroke-width=".97315"/><path d="M362.277 340.125c2.649 4.406 17.9-3.663 20.115-11.234-4.93 6.55-21.964 5.562-20.115 11.234z" stroke-width=".97315"/><path d="M369.272 343.56c2.8.302 9.309-5.031 11.142-7.812-5.234 2.596-12.308 6.171-11.142 7.812z" stroke-width=".97315"/></g><g stroke-linejoin="round" fill-rule="evenodd" stroke="#000" stroke-width=".5" fill="#fff"><path d="M346.304 310.784c3.332.483 7.69-5.634 4.78-11.833-1.446 6.187-11.144 10.689-4.78 11.833zM353.439 307.133c2.573 1.442 9.081-5.485 8.254-10.018-3.637 5.793-10.94 7.464-8.254 10.018z" stroke-width=".97315"/><path d="M345.837 317.308c2.5 2.431 14.784-10.048 18.443-15.72-10.63 9.06-21.508 11.343-18.443 15.72zM342.9 324.784c1.956 2.96 10.146-5.971 15.324-13.398-6.563 6.477-17.679 9.44-15.324 13.398z" stroke-width=".97315"/><path d="M343.735 317.668c2.003-5.29-1.315-6.132-2.816-12.709-2.964 3.636-2.631 13.692 2.816 12.71zM340.465 324.967c3.98-1.11-2.456-7.88-3.805-12.71-.607 8.884-.502 13.313 3.805 12.71zM336.579 331.349c3.674-1.337-2.077-4.689-2.665-12.102-1.825 2.725-2.783 13.085 2.665 12.102z" stroke-width=".97315"/><path d="M331.086 332.914c2.342-1.267 1.378-7.31-2.217-8.109-.836 4.742-.727 8.179 2.217 8.109z" stroke-width=".97315"/></g><g fill-rule="evenodd" fill="#fff"><path d="M346.304 310.784c3.332.483 7.69-5.634 4.78-11.833-1.446 6.187-11.144 10.689-4.78 11.833zM353.439 307.133c2.573 1.442 9.081-5.485 8.254-10.018-3.637 5.793-10.94 7.464-8.254 10.018z"/><path d="M345.837 317.308c2.5 2.431 14.784-10.048 18.443-15.72-10.63 9.06-21.508 11.343-18.443 15.72zM342.9 324.784c1.956 2.96 10.146-5.971 15.324-13.398-6.563 6.477-17.679 9.44-15.324 13.398z"/><path d="M343.735 317.668c2.003-5.29-1.315-6.132-2.816-12.709-2.964 3.636-2.631 13.692 2.816 12.71zM340.465 324.967c3.98-1.11-2.456-7.88-3.805-12.71-.607 8.884-.502 13.313 3.805 12.71zM336.579 331.349c3.674-1.337-2.077-4.689-2.665-12.102-1.825 2.725-2.783 13.085 2.665 12.102z"/><path d="M331.086 332.914c2.342-1.267 1.378-7.31-2.217-8.109-.836 4.742-.727 8.179 2.217 8.109z"/></g><g fill-rule="evenodd" fill="#fff"><path d="M386.598 297.655c1.057-4.228-.29-5.588.865-12.208-6.345 8.51-3.96 12.542-.865 12.208z"/><path d="M387.297 298.704c4.202 1.171 15.129-8.405 15.448-15.55-2.954 5.135-17.713 10.674-15.448 15.55zM380.428 305.015c2.874-1.57 2.063-8.22-.543-10.465-.534 6.491-4.453 10.308.543 10.465z"/><path d="M383.394 306.83c5.082 1.593 10.83-7.615 15.021-11.614-4.778 4.118-19.227 6.096-15.021 11.613zM376.403 311.403c3.557-2.331.237-6.93-.012-16.016-3.574 6.567-4.301 15.553.012 16.016z"/><path d="M377.083 313.739c1.814 2.43 15.24-5.942 18.595-12.147-11.468 8.529-21.585 7.39-18.595 12.147zM375.742 321.318c3.295-2.402-2.836-8.718-4.109-17.196.076 10.327-1.339 18.179 4.109 17.196z"/><path d="M379.324 318.468c1.652 2.657 11.896-4.375 16.312-12.03-6.79 5.946-18.21 7.538-16.312 12.03zM368.856 330.037c3.711-.658 3.201-10.045.37-17.688-3.194 9.23-4.608 18.595-.37 17.688z"/><path d="M378.16 324.92c1.28 1.518 16.38-9.062 16.162-13.363-4.778 6.855-20.747 8.225-16.162 13.363zM360.636 338.803c5.12-2.1 2.713-10.391 3.721-19.327-4.03 8.732-8.791 17.496-3.721 19.327z"/><path d="M370.218 331.63c.815 2.808 13.112-2.4 19.048-10.968-7.17 5.566-21.096 6.323-19.048 10.967z"/><path d="M362.277 340.125c2.649 4.406 17.9-3.663 20.115-11.234-4.93 6.55-21.964 5.562-20.115 11.234z"/><path d="M369.272 343.56c2.8.302 9.309-5.031 11.142-7.812-5.234 2.596-12.308 6.171-11.142 7.812z"/></g><g fill-rule="evenodd" fill="#fff"><path d="M235.83 159.52c-.377-.307-.876-.76-.704.176 1.409 7.41 1.855 9.483 8.349 12.044 6.602 2.508 8.968 1.631 14.589 1.533 3.034-.111 6.567 1.404 8.671 3.618.98 1.03 1.687 1.441 1.294.128-.394-1.312-.777-3.015-1.396-4.379-1.348-3.002-4.834-5.866-8.321-7.011-4.879-1.717-10.139-.854-15.164-2.164-2.621-.724-5.138-2.183-7.318-3.945z" transform="matrix(-1.70548 -.92274 -.91834 1.71366 926.17 287.993)" stroke="#000" stroke-width=".501"/><path d="M377.471 343.746c.925-.178 2.192-.494 1.04.951-9.209 11.398-11.873 14.54-25.3 12.936-13.563-1.795-16.793-5.48-26.29-10.835-5.072-2.99-12.489-3.654-18.11-1.801-2.618.86-4.2.912-2.325-.975 1.877-1.885 4.094-4.45 6.402-6.216 5.056-3.9 13.632-5.592 20.63-4.336 9.898 1.56 18.076 7.892 27.85 10.284 5.134 1.178 10.767 1 16.103-.008z"/></g><g fill-rule="evenodd" fill="#fff"><path d="M287.66 208.42c.884.11 1.444 1.822 1.879.663.738-1.877.221-3.37-.608-3.205-.979.261-2.635 2.456-1.271 2.542z" transform="matrix(-1.9235 0 0 1.9463 853.242 -41.856)" stroke="#000" stroke-width=".503"/><path d="M299.92 363.792c-1.701.214-2.778 3.546-3.615 1.29-1.42-3.653-.425-6.558 1.17-6.237 1.883.508 5.068 4.78 2.444 4.947z"/></g><g stroke-linejoin="round" fill-rule="evenodd" stroke="#000" stroke-width=".5" fill="#fff"><path d="M318.535 348.932c4.813 1.252 6.063-4.296 6.535-8.327-4.34.935-8.887 3.45-6.535 8.327zM316.6 353.86c.848 3.838 10.264-.118 12.094-5.493-6.694 3.906-13.298-.35-12.094 5.493z" stroke-width=".97315"/><path d="M313.233 353.672c4.301.712 1.907-6.028 1.659-12.676-2.409 5.42-5.847 12.099-1.659 12.676z" stroke-width=".973145"/><path d="M307.8 360.04c4.684.586 1.713-8.446.44-14.516-1.538 5.626-4.924 14.022-.44 14.516z" stroke-width=".973155"/><path d="M310.587 360.24c.569 5.11 10.252-.611 15.886-3.751-7.442 1.153-16.722-1.262-15.886 3.752zM305.264 367.387c.569 5.11 10.251-.611 15.886-3.752-7.443 1.154-16.722-1.261-15.886 3.752z" stroke-width=".973155"/><path d="M302.79 367.182c4.454.13 1.18-9.587-.093-15.656-1.538 5.625-4.469 15.466.092 15.656zM298.947 373.396c.57 5.11 9.417.073 14.899-3.448-7.519 1.61-15.735-1.566-14.899 3.448z" stroke-width=".973155"/></g><g fill-rule="evenodd" fill="#fff"><path d="M318.535 348.932c4.813 1.252 6.063-4.296 6.535-8.327-4.34.935-8.887 3.45-6.535 8.327zM316.6 353.86c.848 3.838 10.264-.118 12.094-5.493-6.694 3.906-13.298-.35-12.094 5.493z"/><path d="M313.233 353.672c4.301.712 1.907-6.028 1.659-12.676-2.409 5.42-5.847 12.099-1.659 12.676zM307.8 360.04c4.684.586 1.713-8.446.44-14.516-1.538 5.626-4.924 14.022-.44 14.516z"/><path d="M310.587 360.24c.569 5.11 10.252-.611 15.886-3.751-7.442 1.153-16.722-1.262-15.886 3.752zM305.264 367.387c.569 5.11 10.251-.611 15.886-3.752-7.443 1.154-16.722-1.261-15.886 3.752z"/><path d="M302.79 367.182c4.454.13 1.18-9.587-.093-15.656-1.538 5.625-4.469 15.466.092 15.656zM298.947 373.396c.57 5.11 9.417.073 14.899-3.448-7.519 1.61-15.735-1.566-14.899 3.448z"/></g><g stroke-linejoin="round" fill-rule="evenodd" stroke="#000" stroke-width=".5" fill="#fff"><path d="M348.73 364.831c2.648 4.405 12.425-3.207 17.758-7.13-7.667 2.37-19.607 1.459-17.759 7.13z" stroke-width=".97315"/><path d="M338.75 369.407c.953 5.052 17.448.883 19.799-2.862-7.584 3.213-20.704-1.502-19.8 2.862z" stroke-width=".97315"/><path d="M330.983 373.261c.497 2.77 13.116 1.72 19.496-.43-6.9.859-20.78-4.01-19.496.43z" stroke-width=".97315"/><path d="M324.395 376.559c.041 2.543 14.712 4 19.648-.124-9.864 1.464-20.628-5.989-19.648.124z" stroke-width=".97315"/><path d="M312.79 378.94c-.568 3.531 15.395 2.783 20.407 1.014-8.57-.662-19.638-6.215-20.407-1.015z" stroke-width=".97315"/><path d="M312.559 375.724c3.598 3.301 12.85-11.443 15.862-17.938-7.12 7.423-19.967 15.052-15.862 17.938z" stroke-width=".97315"/><path d="M323.044 373.221c4.283 2.845 8.214-7.564 10.388-15.202-4.078 6.587-14.49 10.871-10.388 15.202z" stroke-width=".97315"/><path d="M331.335 370.387c4.283 2.845 6.695-6.576 7.729-12.466-2.937 5.068-11.831 8.136-7.729 12.466z" stroke-width=".97315"/><path d="M339.35 365.37c4.283 2.845 9.66-5.055 8.413-12.844-1.644 8.032-12.515 8.513-8.413 12.844zM323.093 387.544c2.11 5.372 24.295-4.696 28.015-11.413-7.127 6.024-30.08 5.205-28.015 11.413z" stroke-width=".97315"/></g><g fill-rule="evenodd" fill="#fff"><path d="M348.73 364.831c2.648 4.405 12.425-3.207 17.758-7.13-7.667 2.37-19.607 1.459-17.759 7.13z"/><path d="M338.75 369.407c.953 5.052 17.448.883 19.799-2.862-7.584 3.213-20.704-1.502-19.8 2.862z"/><path d="M330.983 373.261c.497 2.77 13.116 1.72 19.496-.43-6.9.859-20.78-4.01-19.496.43z"/><path d="M324.395 376.559c.041 2.543 14.712 4 19.648-.124-9.864 1.464-20.628-5.989-19.648.124z"/><path d="M312.79 378.94c-.568 3.531 15.395 2.783 20.407 1.014-8.57-.662-19.638-6.215-20.407-1.015z"/><path d="M312.559 375.724c3.598 3.301 12.85-11.443 15.862-17.938-7.12 7.423-19.967 15.052-15.862 17.938z"/><path d="M323.044 373.221c4.283 2.845 8.214-7.564 10.388-15.202-4.078 6.587-14.49 10.871-10.388 15.202z"/><path d="M331.335 370.387c4.283 2.845 6.695-6.576 7.729-12.466-2.937 5.068-11.831 8.136-7.729 12.466z"/><path d="M339.35 365.37c4.283 2.845 9.66-5.055 8.413-12.844-1.644 8.032-12.515 8.513-8.413 12.844zM323.093 387.544c2.11 5.372 24.295-4.696 28.015-11.413-7.127 6.024-30.08 5.205-28.015 11.413z"/></g><g fill-rule="evenodd" fill="#fff"><path d="M366.62 143.7c.368-3.589-2.381-10.115-.43-13.594.266-.478-.584-1.747-1.133-.977-.858 1.229-1.74 4.731-2.109 3.438-.391-1.406-.451-3.893-1.719-4.376-.809-.283-1.953-.468-1.641.782.31 1.202 1.004 2.862.235 2.969-.446.065-1.731-1.636-2.813-2.422-.872-.701-2.173.396-.898 1.445 4.144 3.379 8.159 4.9 10.508 12.735z" transform="matrix(-1.91103 0 0 1.9463 846.858 -41.507)" stroke="#000" stroke-width=".5"/><path d="M146.235 238.176c-.703-6.985 4.55-19.686.822-26.458-.509-.93 1.116-3.4 2.165-1.901 1.64 2.392 3.325 9.208 4.03 6.691.747-2.736.862-7.577 3.285-8.517 1.546-.55 3.732-.91 3.136 1.522-.592 2.34-1.919 5.57-.449 5.779.852.126 3.308-3.184 5.376-4.714 1.666-1.365 4.152.77 1.716 2.812-7.92 6.577-15.592 9.537-20.081 24.786z"/></g><g fill-rule="evenodd" fill="#fff"><path d="M132.01 343.318c-.929-.178-2.202-.494-1.044.951 9.252 11.398 11.93 14.539 25.421 12.935 13.628-1.794 16.873-5.48 26.415-10.834 5.097-2.99 12.55-3.654 18.198-1.802 2.63.861 4.22.913 2.335-.974-1.885-1.885-4.113-4.45-6.433-6.216-5.08-3.9-13.696-5.592-20.728-4.337-9.945 1.56-18.163 7.893-27.983 10.285-5.16 1.177-10.82 1-16.18-.008z" stroke="#000" stroke-width=".97315"/><path d="M132.01 343.318c-.929-.178-2.202-.494-1.044.951 9.252 11.398 11.93 14.539 25.421 12.935 13.628-1.794 16.873-5.48 26.415-10.834 5.097-2.99 12.55-3.654 18.198-1.802 2.63.861 4.22.913 2.335-.974-1.885-1.885-4.113-4.45-6.433-6.216-5.08-3.9-13.696-5.592-20.728-4.337-9.945 1.56-18.163 7.893-27.983 10.285-5.16 1.177-10.82 1-16.18-.008z"/></g><g fill-rule="evenodd" fill="#fff"><path d="M209.873 363.685c1.72.214 2.81 3.546 3.657 1.29 1.436-3.653.43-6.559-1.184-6.238-1.905.508-5.128 4.78-2.473 4.948z" stroke="#000" stroke-width=".97315"/><path d="M209.873 363.685c1.72.214 2.81 3.546 3.657 1.29 1.436-3.653.43-6.559-1.184-6.238-1.905.508-5.128 4.78-2.473 4.948z"/></g><g fill-rule="evenodd" stroke="#000" stroke-width=".5" fill="#fff"><path d="M206.038 366.789c4.615 1.05 4.551-10.066-.162-14.778 2.075 7.14-3.468 13.667.162 14.778z" stroke-width=".97315"/><path d="M204.247 366.692c.304 5.283-12.966-.69-16.377-4.8 7.84 3.331 15.99.574 16.377 4.8z" stroke-width=".973145"/><path d="M198.43 359.137c.475 5.118-11.508.618-15.05-3.38 7.87 2.543 14.527-.832 15.05 3.38zM200.639 359.871c4.615 1.05 3.867-10.446-.618-14.397 2.152 7.672-3.012 13.287.618 14.397zM195.778 352.867c4.615 1.05 1.967-8.849-1.454-12.802.556 7.217-1.719 12.223 1.454 12.802zM193.344 352.837c.475 5.27-8.847 1.224-12.465-3.761 7.792 2.543 11.941-.45 12.465 3.761zM190.796 348.833c3.023-2.174-.184-7.923-5.939-7.567.563 3.472 2.551 9.58 5.939 7.567z" stroke-width=".97315"/><path d="M213.518 372.675c.305 5.283-12.968 2.656-17.137-2.974 8.372 1.582 16.75-1.252 17.137 2.974z" stroke-width=".973145"/></g><g fill-rule="evenodd" fill="#fff"><g stroke="#000" stroke-width=".5"><path d="M125.637 232.64c-1.98-2.067-1.407-2.857 1.52-2.89 2.322-.146 6.923 1.423 8.669.152 1.6-1.162.963-6.09 1.673-8.363.31-1.267 1.197-3.257 3.192-.152 5.902 9.457 13.272 20.81 16.423 31.933 1.723 6.234.102 15.965-5.626 22.505.202-5.576-1.877-9.327-4.41-13.99-3.13-6.13-14.756-22.73-21.441-29.195z" stroke-width=".97315"/><path d="M149.966 282.368c6.489.031 7.604-8.667 7.604-11.1-3.194.608-8.82 5.93-7.604 11.1z" stroke-width=".97315"/></g><path d="M125.637 232.64c-1.98-2.067-1.407-2.857 1.52-2.89 2.322-.146 6.923 1.423 8.669.152 1.6-1.162.963-6.09 1.673-8.363.31-1.267 1.197-3.257 3.192-.152 5.902 9.457 13.272 20.81 16.423 31.933 1.723 6.234.102 15.965-5.626 22.505.202-5.576-1.877-9.327-4.41-13.99-3.13-6.13-14.756-22.73-21.441-29.195z"/><path d="M149.966 282.368c6.489.031 7.604-8.667 7.604-11.1-3.194.608-8.82 5.93-7.604 11.1z"/></g><g fill-rule="evenodd" fill="#fff"><path d="M206.038 366.789c4.615 1.05 4.551-10.066-.162-14.778 2.075 7.14-3.468 13.667.162 14.778zM204.247 366.692c.304 5.283-12.966-.69-16.377-4.8 7.84 3.331 15.99.574 16.377 4.8zM198.43 359.137c.475 5.118-11.508.618-15.05-3.38 7.87 2.543 14.527-.832 15.05 3.38zM200.639 359.871c4.615 1.05 3.867-10.446-.618-14.397 2.152 7.672-3.012 13.287.618 14.397zM195.778 352.867c4.615 1.05 1.967-8.849-1.454-12.802.556 7.217-1.719 12.223 1.454 12.802zM193.344 352.837c.475 5.27-8.847 1.224-12.465-3.761 7.792 2.543 11.941-.45 12.465 3.761zM190.796 348.833c3.023-2.174-.184-7.923-5.939-7.567.563 3.472 2.551 9.58 5.939 7.567zM213.518 372.675c.305 5.283-12.968 2.656-17.137-2.974 8.372 1.582 16.75-1.252 17.137 2.974z"/></g><g stroke-linejoin="round" fill-rule="evenodd" stroke="#000" stroke-width=".5" fill="#fff"><path d="M160.805 363.224c.476 5.27-14.015-.525-17.633-5.51 7.793 2.542 17.11 1.299 17.633 5.51zM169.683 365.478c3.023-2.174-3.15-7.772-8.067-9.088.563 3.472 4.68 11.1 8.067 9.088zM170.616 369.127c.323 4.738-15.539 2.14-19.688-2.239 13.648 2.467 19.24-1.82 19.688 2.239z" stroke-width=".97315"/><path d="M178.036 372.292c1.76 4.401-13.464 3.327-18.809.768 8.637-.075 17.599-3.834 18.81-.768z" stroke-width=".973145"/><path d="M185.153 375.499c1.685 3.944-12.4 3.859-19.264 1.678 9.093-.074 17.597-5.581 19.264-1.678zM195.4 377.62c2.494 4.667-12.363 5.121-17.183 2.823 8.59-1.181 15.057-6.497 17.182-2.823z" stroke-width=".973145"/><path d="M177.993 369.627c-4.727 2.98-4.473-5.807-8.233-11.893 5.907 5.38 11.436 9.05 8.233 11.893zM186.385 372.78c-3.964 3.512-7.134-8.547-10.743-15.313 5.834 6.442 14.402 12.396 10.743 15.313zM197.451 376.15c-3.358 3.892-13.066-11.433-16.597-19.419 5.376 6.216 19.267 16.121 16.597 19.42z" stroke-width=".97315"/></g><g fill-rule="evenodd" fill="#fff"><path d="M160.805 363.224c.476 5.27-14.015-.525-17.633-5.51 7.793 2.542 17.11 1.299 17.633 5.51zM169.683 365.478c3.023-2.174-3.15-7.772-8.067-9.088.563 3.472 4.68 11.1 8.067 9.088zM170.616 369.127c.323 4.738-15.539 2.14-19.688-2.239 13.648 2.467 19.24-1.82 19.688 2.239z"/><path d="M178.036 372.292c1.76 4.401-13.464 3.327-18.809.768 8.637-.075 17.599-3.834 18.81-.768z"/><path d="M185.153 375.499c1.685 3.944-12.4 3.859-19.264 1.678 9.093-.074 17.597-5.581 19.264-1.678zM195.4 377.62c2.494 4.667-12.363 5.121-17.183 2.823 8.59-1.181 15.057-6.497 17.182-2.823zM177.993 369.627c-4.727 2.98-4.473-5.807-8.233-11.893 5.907 5.38 11.436 9.05 8.233 11.893z"/><path d="M186.385 372.78c-3.964 3.512-7.134-8.547-10.743-15.313 5.834 6.442 14.402 12.396 10.743 15.313zM197.451 376.15c-3.358 3.892-13.066-11.433-16.597-19.419 5.376 6.216 19.267 16.121 16.597 19.42z"/></g><path d="M188.016 387.838c-1.675 5.917-26.38-5.577-29.138-11.532 14.136 7.49 29.476 5.924 29.138 11.532z" fill-rule="evenodd" fill="#fff"/><g fill-rule="evenodd" fill="#fff"><path d="M108.607 267.615c-.578-.749-2.239.02-1.824 1.826.385 2.445 3.99 14.994 10.185 19.311 4.418 3.184 27.64 8.313 38.167 10.49 5.794 1.167 10.646 4.057 14.447 8.67-1.572-6.032-2.835-10.5-4.865-15.966-1.974-4.803-7.204-10.058-12.62-10.34-10.06-.363-23.081-1.22-32.542-5.324-4.884-2.04-7.807-4.795-10.948-8.667z" stroke="#000" stroke-width=".97315"/><path d="M108.607 267.615c-.578-.749-2.239.02-1.824 1.826.385 2.445 3.99 14.994 10.185 19.311 4.418 3.184 27.64 8.313 38.167 10.49 5.794 1.167 10.646 4.057 14.447 8.67-1.572-6.032-2.835-10.5-4.865-15.966-1.974-4.803-7.204-10.058-12.62-10.34-10.06-.363-23.081-1.22-32.542-5.324-4.884-2.04-7.807-4.795-10.948-8.667z"/></g><g stroke-linejoin="round" fill-rule="evenodd" stroke="#000" stroke-width=".5" fill="#fff"><path d="M166.28 317.26c3.172 2.336 6.673-6.034 2.644-13.99-.127 7.658-6.214 10.23-2.644 13.99z" stroke-width=".973155"/><path d="M169.328 324.955c4.387 1.347 5.761-6.414 2.872-12.622.482 6.67-6.897 10.687-2.872 12.622z" stroke-width=".973155"/><path d="M172.661 331.114c4.237 2.11 5.84-5.732 2.796-11.554.332 7.428-6.061 9.618-2.796 11.554z" stroke-width=".973155"/><path d="M170.907 331.586c-1.678 5.018-11.415-4.327-13.056-9.409 6.043 6.004 14.266 5.341 13.056 9.409z" stroke-width=".973145"/><path d="M166.502 323.904c-1.908 5.018-14.152-7.901-16.858-14.122 6.043 6.004 18.221 10.586 16.858 14.122z" stroke-width=".973145"/><path d="M164.064 316.385c-1.907 5.703-15.217-9.497-18.987-14.883 6.349 5.928 20.425 10.74 18.987 14.883z" stroke-width=".973145"/><path d="M163.654 310.74c4.687-.911-.266-4.814-6.01-11.158-.269 6.68.827 11.35 6.01 11.158zM155.739 306.957c2.024-2.204-1.94-3.142-6.848-8.65-.724 3.714 4.553 10.514 6.848 8.65z" stroke-width=".97315"/><path d="M178.44 331.732c2.564 1.5 4.319-3.755 1.123-8.513-.731 5.147-3.476 6.577-1.124 8.513z" stroke-width=".973155"/></g><g fill-rule="evenodd" fill="#fff"><path d="M166.28 317.26c3.172 2.336 6.673-6.034 2.644-13.99-.127 7.658-6.214 10.23-2.644 13.99z"/><path d="M169.328 324.955c4.387 1.347 5.761-6.414 2.872-12.622.482 6.67-6.897 10.687-2.872 12.622z"/><path d="M172.661 331.114c4.237 2.11 5.84-5.732 2.796-11.554.332 7.428-6.061 9.618-2.796 11.554z"/><path d="M170.907 331.586c-1.678 5.018-11.415-4.327-13.056-9.409 6.043 6.004 14.266 5.341 13.056 9.409z"/><path d="M166.502 323.904c-1.908 5.018-14.152-7.901-16.858-14.122 6.043 6.004 18.221 10.586 16.858 14.122z"/><path d="M164.064 316.385c-1.907 5.703-15.217-9.497-18.987-14.883 6.349 5.928 20.425 10.74 18.987 14.883zM163.654 310.74c4.687-.911-.266-4.814-6.01-11.158-.269 6.68.827 11.35 6.01 11.158z"/><path d="M155.739 306.957c2.024-2.204-1.94-3.142-6.848-8.65-.724 3.714 4.553 10.514 6.848 8.65zM178.44 331.732c2.564 1.5 4.319-3.755 1.123-8.513-.731 5.147-3.476 6.577-1.124 8.513z"/></g><g stroke-linejoin="round" fill-rule="evenodd" stroke="#000" stroke-width=".5" fill="#fff"><path d="M122.717 298.56c-5.446 3.265-14.095-9.762-16.402-15.121 4.778 6.15 17.43 11.77 16.402 15.121z" stroke-width=".973145"/><path d="M127.361 306.143c-3.013 3.341-12.498-5.732-15.794-10.331 5.084 4.402 17.127 4.926 15.794 10.331z" stroke-width=".973145"/><path d="M132.526 312.956c-.994 4.564-14.836-5.694-18.072-10.55 5.968 5.624 18.979 5.116 18.072 10.55z" stroke-width=".973145"/><path d="M130.391 317.91c-2.135 4.108-13.393-6.072-16.096-11.383 6.879 6.002 17.838 7.319 16.096 11.383z" stroke-width=".973145"/><path d="M124.618 297.884c3.552-3.746 2.04-5.501-.55-11.404-1.416 6.062-3.551 8.48.55 11.404zM129.332 304.951c6.443.284.062-7.556-1.461-14.14.56 7.504-1.651 13.42 1.461 14.14z" stroke-width=".973155"/><path d="M133.429 311.198c4.464-1.01 3.176-7.327-.246-14.978.711 8.266-3.78 13.042.246 14.978z" stroke-width=".973155"/><path d="M131.916 323.693c-1.679 5.019-14.38-6.607-16.4-11.006 6.423 5.396 17.535 7.243 16.4 11.006z" stroke-width=".973145"/><path d="M139.515 331.519c-1.906 5.02-15.216-5.16-19.288-10.7 8.02 6.308 20.272 5.723 19.288 10.7z" stroke-width=".973145"/><path d="M147.264 339.423c-2.134 6.995-16.052-4.172-20.201-9.636 8.856 6.763 21.335 4.657 20.201 9.636z" stroke-width=".973145"/><path d="M134.187 321.46c3.78 1.956 5.307-8.771 3.175-16.346.028 8.266-7.582 14.411-3.175 16.346z" stroke-width=".973155"/><path d="M140.66 329.965c4.542 1.349 3.102-10.215-.779-17.715-.503 7.431-3.855 14.488.779 17.715zM148.724 337.953c5.074.284 1.583-9.913-2.602-15.662.712 7.505-1.65 14.791 2.602 15.662z" stroke-width=".973155"/><path d="M139.82 342.307c-1.526 2.584-5.257-2.196-11.383-5.684 5.51 1.44 12.06 3.289 11.382 5.684z" stroke-width=".973145"/></g><g fill-rule="evenodd" fill="#fff"><path d="M122.717 298.56c-5.446 3.265-14.095-9.762-16.402-15.121 4.778 6.15 17.43 11.77 16.402 15.121z"/><path d="M127.361 306.143c-3.013 3.341-12.498-5.732-15.794-10.331 5.084 4.402 17.127 4.926 15.794 10.331z"/><path d="M132.526 312.956c-.994 4.564-14.836-5.694-18.072-10.55 5.968 5.624 18.979 5.116 18.072 10.55z"/><path d="M130.391 317.91c-2.135 4.108-13.393-6.072-16.096-11.383 6.879 6.002 17.838 7.319 16.096 11.383zM124.618 297.884c3.552-3.746 2.04-5.501-.55-11.404-1.416 6.062-3.551 8.48.55 11.404zM129.332 304.951c6.443.284.062-7.556-1.461-14.14.56 7.504-1.651 13.42 1.461 14.14z"/><path d="M133.429 311.198c4.464-1.01 3.176-7.327-.246-14.978.711 8.266-3.78 13.042.246 14.978zM131.916 323.693c-1.679 5.019-14.38-6.607-16.4-11.006 6.423 5.396 17.535 7.243 16.4 11.006z"/><path d="M139.515 331.519c-1.906 5.02-15.216-5.16-19.288-10.7 8.02 6.308 20.272 5.723 19.288 10.7z"/><path d="M147.264 339.423c-2.134 6.995-16.052-4.172-20.201-9.636 8.856 6.763 21.335 4.657 20.201 9.636zM134.187 321.46c3.78 1.956 5.307-8.771 3.175-16.346.028 8.266-7.582 14.411-3.175 16.346z"/><path d="M140.66 329.965c4.542 1.349 3.102-10.215-.779-17.715-.503 7.431-3.855 14.488.779 17.715zM148.724 337.953c5.074.284 1.583-9.913-2.602-15.662.712 7.505-1.65 14.791 2.602 15.662zM139.82 342.307c-1.526 2.584-5.257-2.196-11.383-5.684 5.51 1.44 12.06 3.289 11.382 5.684z"/></g><g stroke-linejoin="round" fill-rule="evenodd" stroke="#000" stroke-width=".5" fill="#fff"><path d="M136.905 256.366c4.735-3.504 1.123-10.057 0-16.289-1.524 5.911-5.535 13.667 0 16.289zM136.75 265.124c-7.115-.854-6.044-10.055-6.258-15.886 2.139 7.916 7.97 9.253 6.257 15.886zM137.878 263.917c6.018-.348 5.699-7.195 6.02-14.122-3.05 6.366-6.662 7.355-6.02 14.122z" stroke-width=".97315"/><path d="M137.645 272.423c-4.681.373-7.114-4.226-8.185-11.394 4.44 6.606 8.478 4.547 8.185 11.394zM139.318 271.858c6.018.775 5.057-6.232 4.815-11.395-1.845 4.922-6.74 6.473-4.815 11.395z" stroke-width=".97315"/><path d="M129.937 268.9c.48 4.574 3.371 12.437 8.025 10.671 1.925-5.617-4.093-6.74-8.025-10.671z" stroke-width=".97315"/><path d="M139.396 280.052c-2.086-4.011 4.734-6.02 6.178-11.234.829 7.462.134 12.357-6.178 11.234z" stroke-width=".97315"/></g><g fill-rule="evenodd" fill="#fff"><path d="M136.905 256.366c4.735-3.504 1.123-10.057 0-16.289-1.524 5.911-5.535 13.667 0 16.289zM136.75 265.124c-7.115-.854-6.044-10.055-6.258-15.886 2.139 7.916 7.97 9.253 6.257 15.886zM137.878 263.917c6.018-.348 5.699-7.195 6.02-14.122-3.05 6.366-6.662 7.355-6.02 14.122z"/><path d="M137.645 272.423c-4.681.373-7.114-4.226-8.185-11.394 4.44 6.606 8.478 4.547 8.185 11.394zM139.318 271.858c6.018.775 5.057-6.232 4.815-11.395-1.845 4.922-6.74 6.473-4.815 11.395z"/><path d="M129.937 268.9c.48 4.574 3.371 12.437 8.025 10.671 1.925-5.617-4.093-6.74-8.025-10.671z"/><path d="M139.396 280.052c-2.086-4.011 4.734-6.02 6.178-11.234.829 7.462.134 12.357-6.178 11.234z"/></g><g stroke-linejoin="round" fill-rule="evenodd" stroke="#000" stroke-width=".5" fill="#fff"><path d="M119.984 232.498c3.746-4.034.437-10.436-.686-16.668-1.523 5.911-4.165 13.743.686 16.668zM119.863 240.015c-6.58.667-8.173-12.715-8.842-18.47 2.139 7.915 9.718 11.533 8.842 18.47zM121.233 239.894c4.65-2.402 3.57-7.575 5.031-11.462-3.125 4.77-5.977 5.454-5.03 11.462z" stroke-width=".97315"/><path d="M119.933 248.653c-6.884.59-10.985-14.237-11.199-20.068 2.139 7.916 12 12.219 11.199 20.068zM121.241 248.428c6.473-1.49 5.699-5.676 4.728-12.45-2.061 6.823-5.674 5.377-4.728 12.45z" stroke-width=".97315"/><path d="M119.843 257.21c-7.569 1.284-7.037-10.69-13.048-19.376 5.199 6.452 14.559 14.582 13.048 19.375zM121.552 256.8c5.715.166 6.273-8.436 5.956-11.926-1.314 3.476-8.032 6.777-5.956 11.927z" stroke-width=".97315"/><path d="M108.022 247.992c2.837 9.212 6.868 18.443 11.825 17.742 2.38-5.237-4.702-5.905-11.825-17.742z" stroke-width=".97315"/><path d="M121.63 264.391c-2.086-4.011 4.734-6.02 6.178-11.234.829 7.462.134 12.357-6.178 11.234zM109.98 258.518c4.052 8.299 5.88 17.836 11.444 16.45 2.077-6.454-6.145-7.805-11.444-16.45z" stroke-width=".97315"/><path d="M122.56 273.4c-2.39-4.392 4.43-5.945 6.102-11.996.905 7.92.059 13.574-6.102 11.995z" stroke-width=".97315"/></g><g fill-rule="evenodd" fill="#fff"><path d="M119.984 232.498c3.746-4.034.437-10.436-.686-16.668-1.523 5.911-4.165 13.743.686 16.668zM119.863 240.015c-6.58.667-8.173-12.715-8.842-18.47 2.139 7.915 9.718 11.533 8.842 18.47zM121.233 239.894c4.65-2.402 3.57-7.575 5.031-11.462-3.125 4.77-5.977 5.454-5.03 11.462z"/><path d="M119.933 248.653c-6.884.59-10.985-14.237-11.199-20.068 2.139 7.916 12 12.219 11.199 20.068zM121.241 248.428c6.473-1.49 5.699-5.676 4.728-12.45-2.061 6.823-5.674 5.377-4.728 12.45z"/><path d="M119.843 257.21c-7.569 1.284-7.037-10.69-13.048-19.376 5.199 6.452 14.559 14.582 13.048 19.375zM121.552 256.8c5.715.166 6.273-8.436 5.956-11.926-1.314 3.476-8.032 6.777-5.956 11.927z"/><path d="M108.022 247.992c2.837 9.212 6.868 18.443 11.825 17.742 2.38-5.237-4.702-5.905-11.825-17.742z"/><path d="M121.63 264.391c-2.086-4.011 4.734-6.02 6.178-11.234.829 7.462.134 12.357-6.178 11.234zM109.98 258.518c4.052 8.299 5.88 17.836 11.444 16.45 2.077-6.454-6.145-7.805-11.444-16.45z"/><path d="M122.56 273.4c-2.39-4.392 4.43-5.945 6.102-11.996.905 7.92.059 13.574-6.102 11.995z"/></g><path d="M134.24 217.226c3.993 1.08 8.182-3.404 6.73-10.115-4.564 1.136-6.659 5.28-6.73 10.115zM121.452 213.859c.349 1.887 2.645 2.059 1.978-.608-.557-2.164-.652-3.791 0-5.55.893-2.206.595-5.96-.076-7.527-.678-1.654-2.922-.685-1.978.61 1.04 1.5 1.094 4.622.38 6.08-.94 2.152-.685 5.01-.304 6.995z" fill-rule="evenodd" stroke="#000" stroke-width=".97315" fill="#fff"/><path d="M134.24 217.226c3.993 1.08 8.182-3.404 6.73-10.115-4.564 1.136-6.659 5.28-6.73 10.115zM121.452 213.859c.349 1.887 2.645 2.059 1.978-.608-.557-2.164-.652-3.791 0-5.55.893-2.206.595-5.96-.076-7.527-.678-1.654-2.922-.685-1.978.61 1.04 1.5 1.094 4.622.38 6.08-.94 2.152-.685 5.01-.304 6.995z" fill-rule="evenodd" fill="#fff"/><path d="M135.271 206.677c-.379 2.948-2.874 3.216-2.149-.949.605-3.38.709-5.921 0-8.67-.97-3.444-.647-9.307.083-11.754.736-2.584 3.174-1.07 2.149.951-1.13 2.344-1.19 7.22-.413 9.497 1.022 3.362.745 7.824.33 10.925zM153.858 236.144c-1.543 2.27-4.002.952-2.609-2.692 1.177-2.523 1.303-5.65 2.614-7.494 1.833-2.797 4.938-5.128 6.7-6.82 1.82-1.801 3.333-.065 1.663 1.48-2.028 2.028-4.228 4.553-5.45 6.466-2.28 3.716-1.276 6.68-2.918 9.06z" fill-rule="evenodd" stroke="#000" stroke-width=".97315" fill="#fff"/><g fill-rule="evenodd" fill="#fff"><path d="M242.54 131.62c.179.97 1.484.926 1.141-.444-.286-1.112-.933-2.181-.598-3.085.459-1.133.571-3.079.226-3.884-.348-.85-1.47-.28-.985.385.534.771.114 2.925-.253 3.674-.483 1.106.273 2.334.469 3.354z" transform="matrix(-2.45312 -.97872 -1.13798 2.52065 903.448 145.415)" stroke="#000" stroke-width=".36"/><path d="M158.688 239.805c-1.543 2.27-4.694.882-2.293-2.235 1.967-2.524 4.77-4.585 4.977-7.191.163-3.306 2.103-8.32 3.866-10.012 1.82-1.802 3.924.733 1.978 1.935-2.187 1.42-3.608 7.261-3.56 9.508-.074 3.26-3.326 5.616-4.968 7.995z"/></g><path d="M153.858 236.144c-1.543 2.27-4.002.952-2.609-2.692 1.177-2.523 1.303-5.65 2.614-7.494 1.833-2.797 4.938-5.128 6.7-6.82 1.82-1.801 3.333-.065 1.663 1.48-2.028 2.028-4.228 4.553-5.45 6.466-2.28 3.716-1.276 6.68-2.918 9.06z" fill-rule="evenodd" fill="#fff"/><g fill-rule="evenodd" fill="#fff"><path d="M242.23 131.78c-.094.784 1.231.974 1.172-.163-.06-1.187-1.824-2.273-.742-4.08.569-.884.579-2.504.234-3.365-.303-.854-1.579-.296-1.094.369.534.771-.1 2.25-.508 2.994-1.225 2.166 1.01 3.221.938 4.245z" transform="matrix(1.9463 0 0 4.087 -343.233 -314.153)" stroke="#000" stroke-width=".345"/><path d="M128.219 224.436c-.183 3.205 2.396 3.981 2.281-.666-.117-4.851-3.55-9.29-1.444-16.675 1.107-3.613 1.127-10.234.455-13.753-.59-3.49-3.073-1.21-2.129 1.508 1.04 3.151-.195 9.196-.989 12.237-2.384 8.852 1.966 13.164 1.826 17.35z"/></g><path d="M135.271 206.677c-.379 2.948-2.874 3.216-2.149-.949.605-3.38.709-5.921 0-8.67-.97-3.444-.647-9.307.083-11.754.736-2.584 3.174-1.07 2.149.951-1.13 2.344-1.19 7.22-.413 9.497 1.022 3.362.745 7.824.33 10.925zM109.91 266.973c1.236 1.47 3.318.485 1.42-1.504-1.552-1.608-1.041-2.115-1.987-4.073-.936-2.188-.887-3.395-2.016-4.959-1-1.483-2.501.03-1.495 1.278 1.263 1.477.915 2.565 1.687 3.993 1.428 2.444 1.08 3.727 2.392 5.265zM143.134 307.086c3.974 1.954 6.991 6.836 7.19 10.812.336 4.576.996 8.44 3.051 11.691-3.271-.91-4.838-6.125-5.303-11.119-.471-5.17-3.256-7.411-4.938-11.384zM151.425 316.662c2.75 5.077 6.596 7.013 6.793 10.78.333 4.335.662 4.557 1.837 8.82-3.237-.863-4.052-1.145-4.926-7.632-.54-4.559-4.19-7.775-3.704-11.968z" fill-rule="evenodd" fill="#fff"/><path d="M301.504 401.657c.076 1.925.306 3.472 1.447 5.018-6.641-2.661-16.017-1.236-22.43 1.75-2.86 1.366-6.321-1.562-2.966-4.335 4.773-3.867 15.814-1.674 23.95-2.433zm-93.687-.101c.094 1.814-.116 3.476-.784 5.06 7.219-2.99 14.969-.506 22.262 2.435 5.013 2.073 5.418-1.516 4.533-2.758-1.522-2.203-4.467-4.622-8.192-4.675-2.48-.035-12.026-.12-17.819-.062zm6.094-35.26c-2.014-.867-4.354-.032-6.452 2.177-7.05 6.907-15.321 13.637-21.997 18.873-2.491 2.164-5.037 6.047 5.59 9.928.385.146 8.132 3.017 13.04 3.2 2.005-.057 1.999 2.937 1.627 3.735-.846 1.594-.233 2.203-1.944 3.737-1.783 1.504.19 3.452 1.592 2.129 5.983-5.195 15.685-1.87 25.035 1.17 2.21.61 6.252.44 6.217-2.609.039-3.32 2.444-5.667 3.916-5.753 3.816.662 22.676.872 28.486.166 3.386-.44 3.59 4.64 5.403 6.642 1.25 1.328 6.058 1.68 9.356.224 6.518-3.028 16.45-3.028 20.498-.134 1.664 1.267 2.978.24 2.032-1.047-1.219-1.76-1.191-2.575-1.797-3.965-1.52-3.093-.307-3.85 1.287-4.073 18.01-2.322 23.756-8.467 18.25-13.477-7.11-6.236-15.025-12.505-21.845-19.873-1.849-1.954-3.071-2.739-6.919-1.139-11.765 5.358-26.7 9.264-41.314 9.55-13.599.117-32.297-6.173-40.06-9.46z" fill-rule="evenodd" fill-opacity=".185" stroke="#000" stroke-width=".97315"/><path d="M301.504 401.657c.076 1.925.306 3.472 1.447 5.018-6.641-2.661-16.017-1.236-22.43 1.75-2.86 1.366-6.321-1.562-2.966-4.335 4.773-3.867 15.814-1.674 23.95-2.433zm-93.687-.101c.094 1.814-.116 3.476-.784 5.06 7.219-2.99 14.969-.506 22.262 2.435 5.013 2.073 5.418-1.516 4.533-2.758-1.522-2.203-4.467-4.622-8.192-4.675-2.48-.035-12.026-.12-17.819-.062zm6.094-35.26c-2.014-.867-4.354-.032-6.452 2.177-7.05 6.907-15.321 13.637-21.997 18.873-2.491 2.164-5.037 6.047 5.59 9.928.385.146 8.132 3.017 13.04 3.2 2.005-.057 1.999 2.937 1.627 3.735-.846 1.594-.233 2.203-1.944 3.737-1.783 1.504.19 3.452 1.592 2.129 5.983-5.195 15.685-1.87 25.035 1.17 2.21.61 6.252.44 6.217-2.609.039-3.32 2.444-5.667 3.916-5.753 3.816.662 22.676.872 28.486.166 3.386-.44 3.59 4.64 5.403 6.642 1.25 1.328 6.058 1.68 9.356.224 6.518-3.028 16.45-3.028 20.498-.134 1.664 1.267 2.978.24 2.032-1.047-1.219-1.76-1.191-2.575-1.797-3.965-1.52-3.093-.307-3.85 1.287-4.073 18.01-2.322 23.756-8.467 18.25-13.477-7.11-6.236-15.025-12.505-21.845-19.873-1.849-1.954-3.071-2.739-6.919-1.139-11.765 5.358-26.7 9.264-41.314 9.55-13.599.117-32.297-6.173-40.06-9.46z" fill-rule="evenodd" fill="#fff"/><g fill-rule="evenodd" fill="#fff"><path d="M338.583 332.01c.816 2.81 12.048-2.323 17.757-13.551-7.476 8.15-19.576 8.07-17.757 13.552z" stroke="#000" stroke-width=".97315"/><path d="M338.583 332.01c.816 2.81 12.048-2.323 17.757-13.551-7.476 8.15-19.576 8.07-17.757 13.552z"/></g><g fill-rule="evenodd" fill="#fff"><path d="M253.45 178.87c1.695 2.578 3.958 4.444 4.06 6.487.173 2.351.344 2.471.954 4.783-1.681-.468-2.104-.621-2.558-4.139-.28-2.472-2.708-4.857-2.456-7.131z" transform="matrix(-2.01753 0 0 1.844 868.637 -14.906)" stroke="#000" stroke-width=".505"/><path d="M357.293 314.931c-3.42 4.754-7.986 8.195-8.192 11.962-.349 4.335-.694 4.557-1.924 8.82 3.391-.863 4.245-1.145 5.16-7.632.566-4.559 5.464-8.957 4.956-13.15z"/></g><g fill-rule="evenodd" fill="#fff"><path d="M254.38 180.28c2.042 1.004 2.506 2.667 2.587 4.726.04 2.384.617 4.226 1.673 5.897-2.103.305-2.486-3.147-2.725-5.713-.242-2.656-.671-2.869-1.535-4.91z" transform="matrix(-2.039 0 0 1.9463 881.502 -42.498)" stroke="#000" stroke-width=".489"/><path d="M362.835 308.381c-4.163 1.954-5.11 5.191-5.274 9.199-.082 4.64-1.258 8.225-3.412 11.477 4.288.594 5.07-6.125 5.557-11.12.493-5.169 1.368-5.583 3.13-9.556z"/></g><g fill-rule="evenodd" fill="#fff"><path d="M242.23 131.44c.179.97 1.359 1.058 1.016-.312-.286-1.112-.335-1.948 0-2.852.459-1.133.306-3.062-.039-3.867-.348-.85-1.501-.352-1.016.313.534.771.562 2.375.195 3.124-.483 1.106-.352 2.574-.156 3.594z" transform="matrix(2.0818 0 0 3.0397 -129.796 -193.086)" stroke="#000" stroke-width=".387"/><path d="M374.47 206.457c.372 2.948 2.829 3.216 2.115-.949-.596-3.38-.698-5.921 0-8.669.955-3.444.637-9.308-.081-11.755-.725-2.583-3.125-1.07-2.115.952 1.111 2.343 1.17 7.22.405 9.496-1.005 3.362-.732 7.824-.324 10.925z"/></g><g fill-rule="evenodd" fill="#fff"><path d="M242.23 131.78c-.094.784 1.231.974 1.172-.163-.06-1.187-1.824-2.273-.742-4.08.569-.884.579-2.504.234-3.365-.303-.854-1.579-.296-1.094.369.534.771-.1 2.25-.508 2.994-1.225 2.166 1.01 3.221.938 4.245z" transform="matrix(-1.91572 0 0 4.08704 845.476 -314.367)" stroke="#000" stroke-width=".348"/><path d="M381.43 224.222c.18 3.204-2.358 3.981-2.245-.666.115-4.851 3.494-9.29 1.421-16.675-1.09-3.613-1.109-10.234-.448-13.753.58-3.49 3.025-1.21 2.096 1.508-1.023 3.151.191 9.196.973 12.237 2.347 8.852-1.935 13.164-1.797 17.35z"/></g><g fill-rule="evenodd" fill="#fff"><path d="M242.23 131.44c.179.97 1.359 1.058 1.016-.312-.286-1.112-.335-1.948 0-2.852.459-1.133.306-3.062-.039-3.867-.348-.85-1.501-.352-1.016.313.534.771.562 2.375.195 3.124-.483 1.106-.352 2.574-.156 3.594z" transform="matrix(-1.91572 0 0 1.9463 852.132 -42.178)" stroke="#000" stroke-width=".504"/><path d="M388.086 213.644c-.342 1.887-2.603 2.059-1.946-.608.548-2.164.642-3.791 0-5.55-.88-2.206-.586-5.96.075-7.527.666-1.654 2.875-.685 1.946.61-1.023 1.5-1.076 4.622-.373 6.08.925 2.152.674 5.01.298 6.995z"/></g><g fill-rule="evenodd" fill="#fff"><path d="M374.235 217.334c-3.323 1.41-7.618-8.035-4.444-9.807 2.461-.619 8.096 8.01 4.444 9.807z" stroke="#000" stroke-width=".973145"/><path d="M374.235 217.334c-3.323 1.41-7.618-8.035-4.444-9.807 2.461-.619 8.096 8.01 4.444 9.807z"/></g><g fill-rule="evenodd" fill="#fff"><path d="M242.22 131.74c.179.97 1.234.857 1.321-.555-.013-1.006.431-2.074.266-2.87-.197-1.186-.906-2.386-1.251-3.191-.348-.85-1.141-.469-.805.274.384.954.75 2.098.874 2.905.208 1.555-.601 2.417-.405 3.437z" transform="matrix(2.3669 -.97872 1.09806 2.52065 -362.399 141.044)" stroke="#000" stroke-width=".367"/><path d="M355.57 236.05c1.488 2.27 3.861.952 2.517-2.692-1.136-2.523-1.258-5.65-2.522-7.495-1.769-2.796-4.765-5.127-6.465-6.819-1.757-1.802-3.216-.065-1.605 1.479 1.957 2.029 4.08 4.554 5.259 6.467 2.2 3.716 1.231 6.68 2.815 9.06z"/></g><g fill-rule="evenodd" fill="#fff"><path d="M242.54 131.62c.179.97 1.484.926 1.141-.444-.286-1.112-.933-2.181-.598-3.085.459-1.133.571-3.079.226-3.884-.348-.85-1.47-.28-.985.385.534.771.114 2.925-.253 3.674-.483 1.106.273 2.334.469 3.354z" transform="matrix(2.3669 -.97872 1.09806 2.52065 -367.113 144.086)" stroke="#000" stroke-width=".367"/><path d="M351.481 238.476c1.49 2.27 4.53.882 2.213-2.236-1.898-2.523-4.603-4.584-4.803-7.19-.157-3.306-2.029-8.32-3.73-10.012-1.757-1.802-3.786.733-1.908 1.934 2.11 1.421 3.482 7.262 3.435 9.509.072 3.26 3.21 5.616 4.793 7.995z"/></g><path stroke-linejoin="round" d="M220.83 343.95c4.512 3.6 8.765 7.687 10.037 12.773 1.328 4.737 2.13 8.363 5.172 13.077-4.765-3.042-6.657-7.637-8.06-12.624-1.232-4.899-4.056-8.562-7.149-13.227z" fill-rule="evenodd" stroke="#000" stroke-width=".97315" fill="#fff"/><path d="M220.83 343.95c4.512 3.6 8.765 7.687 10.037 12.773 1.328 4.737 2.13 8.363 5.172 13.077-4.765-3.042-6.657-7.637-8.06-12.624-1.232-4.899-4.056-8.562-7.149-13.227zM215.673 343.95c4.208 3.446 6.938 7.382 8.211 12.467 1.327 4.738 3.194 8.515 5.932 12.774-4.46-3.042-7.265-7.18-8.668-12.167-1.232-4.9-2.686-8.563-5.475-13.075zM294.44 343.95c-4.302 3.466-7.093 7.425-8.394 12.54-1.357 4.766-3.265 8.566-6.064 12.85 4.56-3.06 7.427-7.223 8.861-12.239 1.26-4.93 2.745-8.614 5.596-13.152zM289.145 343.95c-4.611 3.621-8.958 7.732-10.26 12.848-1.356 4.765-2.176 8.412-5.285 13.154 4.87-3.06 6.804-7.682 8.238-12.698 1.26-4.928 4.146-8.612 7.308-13.305zM273.867 355.958c.124-.89-.482-1.666-1.21-1.9-1.419-.533-2.831-.967-4.237-1.368-1.599-.38-2.494.767-2.5 1.52-.007 1.254-.065 2.318 0 3.268.088 1.183.312 1.27 1.06 1.446 1.197.202 2.732.409 3.935 1.216.953.588 1.869.123 2.345-.91.308-.79.477-2.336.607-3.272zM256.642 355.958c-.11-.89.357-1.742 1.007-1.976 1.267-.533 2.529-.663 3.86-.609 1.478-.023 1.85.312 1.855 1.065.008 1.253.06 2.47 0 3.42-.078 1.183-.052 1.27-.72 1.446-1.07.202-2.893.256-3.968 1.064-.852.588-1.823.123-1.87-.987.022-.836-.048-2.487-.164-3.423zM235.739 355.724c-.125-.89.485-1.666 1.216-1.9 1.425-.533 2.844-.967 4.257-1.368 1.606-.379 2.505.767 2.51 1.52.008 1.254.067 2.319 0 3.268-.087 1.184-.313 1.271-1.064 1.446-1.203.203-2.744.41-3.953 1.217-.957.588-1.878.123-2.357-.91-.31-.791-.479-2.337-.609-3.273zM253.042 355.724c.11-.89-.359-1.742-1.012-1.975-1.273-.533-2.54-.664-3.878-.61-1.485-.023-1.859.312-1.864 1.065-.008 1.254-.059 2.47 0 3.42.078 1.183.052 1.27.724 1.446 1.074.202 2.907.257 3.987 1.065.855.587 1.83.122 1.877-.987-.02-.837.05-2.488.166-3.424zM237.024 363.626c1.545 2.914 3.32 7.35 6.537 6.538.05-2.23-3.472-3.776-6.537-6.538zM241.83 364.619c6.25 2.561 11.645 1.929 12.317 5.856-5.861.633-8.005-1.775-12.316-5.856zM272.466 364.016c-1.567 2.746-3.366 6.928-6.627 6.163-.052-2.103 3.52-3.56 6.627-6.163zM268.086 364.852c-6.339 2.431-11.813 1.83-12.496 5.558 5.948.6 8.123-1.684 12.496-5.558z" fill-rule="evenodd" fill="#fff"/><path d="M286.79 302.57l13.61.003c.052 5.144 3.066 10.67 7.3 13.836h-26.08c4.08-3.7 5.196-8.085 5.17-13.838z" fill-opacity=".534" fill-rule="evenodd" stroke="#000" stroke-width=".97315" fill="#fff"/><path d="M286.79 302.57l13.61.003c.052 5.144 3.066 10.67 7.3 13.836h-26.08c4.08-3.7 5.196-8.085 5.17-13.838z" fill-rule="evenodd" fill="#fff"/><path d="M189.69 385.756c-.75.572-.7 2.289.759 2.888 13.594 4.877 26.718 13.89 64.477 13.535 38.12-.36 51.516-9.156 63.716-13.23 1.625-.618 3.155-1.878 1.064-3.649-6.855-5.603-14.264-10.107-19.161-17.032-.868-1.245-3.24-.539-4.714 0-14.55 5.111-27.994 8.692-41.97 8.667-13.647-.025-27.873-3.784-40.678-9.046-1.226-.524-3.234.066-4.182.986-5.942 5.92-12.404 11.663-19.311 16.88z" stroke="#000" stroke-width=".486575" fill="none"/><path d="M208.004 376.394c-1.637-1.055-2.374.317-1.216 1.75 1.502 1.648 3.933 2.64 6.461 3.345 1.476.411 4.522-.107 6.085.076 1.216.152 1.903 2.606 4.106 2.51 2.223-.096 3.65-6.007 3.726-8.973.1-1.966-2.616-.71-2.357.078.712 1.954-.592 6.313-1.978 6.31-1.02-.063-2.114-2.177-3.65-2.433-1.2-.199-3.022.14-4.258.151-3.614.035-5.171-1.767-6.919-2.814z" fill-rule="evenodd"/><path d="M211.06 374.798c1.929.963 3.614-.76 4.716.457 2.814 3.194 6.434-1.53 2.205-1.368-1.71.066-1.977-1.294-4.944-.99-1.578.202-2.9 1.364-1.977 1.901zM211.508 388.792c-1.524-.666-2.036.782-1.141 1.674 1.257 1.148 6.48 1.605 7.756.685 2.112-1.602.568-5.81-.38-6.997-.591-.722-2.374-.777-1.673 1.142.29.89 1.586 3.103.531 4.105-.965.923-3.636-.002-5.093-.609zM223.224 390.077c.335-.859-.568-2.338-2.13-.61-1.291 1.363-.244 7.106 3.878 8.136 4.029.989 7.048-.46 7.602-2.66.384-1.466-1.823-2.74-.683-4.032.952-1.01 2.79.012 3.574-1.595.459-.902.496-2.749-1.978-3.955-1.072-.54-2.93.69-2.89 1.598.058 1.247 1.99.434 1.292 1.52-.51.827-2.793.482-3.495 2.432-.42 1.24 2.584 3.53.988 4.107-1.424.493-3.281.812-5.17-.228-1.169-.618-1.665-3.18-.988-4.713zM208.705 382.175c-.958.14-2.28.836-2.355 1.977-.059.915.695 2.499 1.977 1.442 1.324-1.027.308-1.514.608-1.14.66.66-.308.714-1.52 2.359-.845 1.247-2.65 1.047-3.574.607-1.596-.823-.998-1.35-2.738-2.13-1.738-.854-2.791 1.15-1.14 2.054 1.823 1.045 4.81 3.133 7.755 1.598 1.75-.989 3.801-1.89 3.725-4.107-.099-1.44-.74-2.94-2.738-2.66zM303.276 381.415c-1.345-.961-.522-2.705 1.446-2.053 1.674.62 4.453 2.59 4.636 5.171.208 2.823-4.34 4.888-6.08 4.792-2.98-.241-2.449-2.604-.23-2.435 1.72.125 3.834-.488 3.955-2.28.101-1.556-2.758-2.46-3.727-3.195zM293.466 374.506c-1.738-1.753 1.9-3.65 2.964-1.52 1.404 2.707 3.074 5.372 4.335 8.363 1.004 2.455-.313 2.787-1.14 1.444-1.384-2.335-3.48-5.46-6.159-8.287zM284.96 379.742c1.871-.814 1.825 1.52 1.141 1.977-1.235.687-2.89-1.14-1.14-1.977zM290.508 377.698c1.87-.813 1.824 1.52 1.14 1.977-1.236.688-2.89-1.14-1.14-1.977z" fill-rule="evenodd"/><path d="M232.489 380.968c-2.807-1.793.57-4.467 2.508-2.433 2.778 2.836 5.433 9.05 7.529 11.405 1.993 2.314.387-6.275.988-8.82.411-1.415 1.517-1.217 1.52.151.01 3.5-.529 10.62.38 11.178 1.701.967 1.394 2.546 2.812 2.281 1.522-.362 1.295-.76 2.663-.837 1.357 0 1.403 1.36 2.966 1.14.997-.13 1.296-1.259 2.507-1.294 1.104-.093.629 2.344-.074 2.739-1.146.644-4.716-.7-5.779-.607-1.265.033-3.542 1.206-4.943.683-1.71-.611-1.331-2.78-2.509-2.433-1.333.307-1.082 2.734-4.256 3.497-1.487.34-1.988-.996-1.217-1.901 1.38-1.475 4.16-2.653 3.725-4.029-1.286-3.834-5.173-8.453-8.82-10.72zM256.895 381.493c1.35 4.438 1.283 10.34 2.054 14.372.38 1.586 1.897.173 1.75-1.065-.598-4.33-.86-9.646-1.978-13.762-.463-1.425-2.342-1.148-1.826.455zM260.632 382.642c-.356-1.851 1.415-2.024 1.674-.915.913 3.571.796 11.744 2.585 12.014 3.086.353 7.415-.286 11.253-1.064 1.888-.376 2.275-1.742 2.205-2.283-.362-2.196 1.688-2.022 2.205.305.279 1.215-.272 3.393-2.584 3.877-4.518.872-10.736 2.217-14.296 1.445-3.118-.66-2.102-8.71-3.042-13.38z" fill-rule="evenodd"/><path d="M265.654 385.834c.077-2.342 1.835-2.686 1.823-.686.049 4.79 5.656 3.547 6.845 1.75.878-1.401.236-2.004-.609-3.573-1.05-2.03 1.174-2.602 2.13-.837.714 1.263 1.21 5.29-.076 6.312-1.781 1.41-6.594 2.104-8.67.531-1.1-.759-1.529-2.215-1.443-3.497zM263.22 379.586c.25 1.5 4.333.989 4.181-.152-.14-.98-4.408-.76-4.18.152zM268.534 380.812c.16 1.512 2.803 1.067 2.66-.076-.14-1.208-2.812-1.446-2.66.076zM276.514 378.983c-1.341-1.853 1.269-1.97 2.13-.608 2.226 3.329 3.693 8.694 5.854 12.317.918 1.67 2.069.177 2.205-.228.144-.43-.699-1.09-.76-2.585-.106-1.162 2.27-2.606 3.954-1.52 1.574 1.06.286 2 1.064 2.585.742.556 2.614.206 2.89-.152.832-1.306-.301-.541-1.445-1.294-1.324-.948-.53-5.055 2.205-3.346 1.627.942 2.106 3.953 1.52 5.627-.518 1.55-3.24 2.078-4.714 1.75-1.66-.507-3.001-2.503-2.66-1.978.82 1.349-.203 2.68-.99 3.194-1.94 1.218-3.297 1.857-4.713-.152-2.511-3.76-3.893-10.103-6.54-13.61z" fill-rule="evenodd"/><path d="M205.65 121.273c-.112-2.246 3.37-2.418 2.971.671-.51 3.849 7.264 13.591 7.908 19.6.432 4.028-2.367 7.554-5.138 9.749-3.398 2.632-8.624 2.27-11.069.76-1.479-1.19-2.828-5.268-1.72-6.882.39-.543 2.162 5.985 6.062 5.96 5.308-.035 9.607-4.022 9.765-7.578.272-6.193-8.682-15.982-8.78-22.28zM221.2 136.57c.878-.626 2.28 2.112 1.29 2.797-.823.548-2.43-2.036-1.29-2.796zM223.536 131.024c-.444.215-1.326-.09-1.063-.467 1.242-1.774 3.889-4.444 5.808-5.377.59-.286 1.621.755 1.265 1.265-1.148 1.64-3.943 3.576-6.01 4.579zM244.07 114.733c.492-1.027 3.448-2.19 4.201-2.884.697-.714 1.03.603.732 1.225-.492 1.027-3.044 2.762-4.163 2.809-.602.025-1.069-.529-.77-1.15zM251.076 115.064c.64-1.804 2.705-4.539 4.126-5.44.73-.46 2.04-.098 1.794.594-.543 1.53-3.069 4.205-4.768 5.465-.516.46-1.3-.2-1.152-.619zM245.062 119.58c-.428.214-.197 1.126.216 1.264.878.292 2.475.35 3.2-.05 1.05-.648.572-4.634-.835-2.505-.944 1.314-1.633.892-2.581 1.29zM233.19 128.727c-2.147-1.672.577-4.014 2.821-2.378 4.372 3.297-6.522 15.93-12.448 21.835-1.084 1.157-2.036-1.756-.646-3.01 4.249-3.605 8.227-7.91 10.992-12.359.534-.856 1.044-2.702-.72-4.088zM258.063 117.867c.267-1.6-2.589.033-2.641-2.088-.027-1.122 3.12-1.91 4.436-.619 2.222 2.255.56 6.059-3.136 6.298-3.08.136-8.221 4.374-7.439 5.265.89 1.1 8.88 1.827 13.525 1.1 2.877-.404 2.273 2.169-.673 2.517-2.848.328-5.168.024-7.828.86-3.132.895-4.498 5.099-6.238 6.667-.388.273-1.433-1.378-1.036-1.998 1.254-1.96 3.253-4.961 5.452-5.82 1.388-.562-3.826-.74-5.49-1.214-1.32-.398-.937-2.075-.43-3.01.67-1.46 5.585-6.38 7.567-6.3 1.86.078 3.746-.464 3.931-1.658zM266.354 118.295c.925-.815 1.398-2.18 2.367-3.01.531-.533 1.38.105 1.238 1.39-.119 1.011-1.477 1.883-2.39 2.643-.744.557-1.608-.645-1.215-1.023zM276.884 114.539c1.376-.152 1.718 2.504.214 2.934-.913.305-1.71-2.777-.214-2.934zM273.42 122.752c-.022 2.287 1.107 2.077 3.261 1.999 2.09-.079 3.93.054 3.922-2.012-.01-2.14-1.185-4.014-1.53-2.557-.303 1.369-.545 3.61-1.34 2.633-.752-.839-.454-1.023-1.746.354-.717.76-.798-.368-1.229-1.075-.3-.42-1.337.338-1.339.658zM258.394 134.43c-.514 3.027-.043 7.264 1.506 7.312 1.916.062 5.878-6.617 7.754-10.082 1.125-1.933 3.058-2.271 2.252-.254-1.22 3.113-1.111 9.772-.039 11.728.576 1.054 4.83-.966 5.516-2.467 1.25-2.729.234-7.758.672-10.83.212-2.016 2.057-2.437 1.96-.568-.183 3.344-.5 9.474-.265 12.258.14 1.6 4.716 3.962 5.451-.884.388-3.05 1.958-6.059-.075-9.439-1.262-2.113 1.85-1.848 3.528 1.039 1.174 1.964-.989 5.215-.913 7.729.195 3.866-2.812 6.062-4.994 6.108-1.95.04-3.221-2.356-4.819-2.39-1.773-.113-3.595 2.759-5.06 2.657-5.68-.388-2.673-8.69-4.403-8.791-1.925-.113-4.194 8.136-6.565 7.842-2.337-.28-4.756-6.723-3.783-9.45.88-2.536 2.538-3.13 2.277-1.518z" fill-rule="evenodd" stroke="#000" stroke-width=".97315" fill="#fff"/><path d="M285.895 121.331c-2.771-1.69.175-6.086 1.53-4.542 2.616 3.133 5.253 10.569 7.096 11.183 1.168.39 1.113-5.496 1.937-8.172.531-1.977 2.921-1.331 2.464 1.201-.156.846-3.122 10.462-2.894 10.842 2.055 4.109 4.089 8.279 5.375 12.689.532 1.9-1.751.62-2.024.225-1.458-2.179-4.01-10.511-4.01-10.131-1.173 5.862-1.45 7.592-2.695 12.573-.38 1.597-2.729 1.306-2.2-1.505.51-2.31 3.87-13.674 3.681-14.003-2.64-4.662-5.056-8.35-8.26-10.36z" fill-rule="evenodd" stroke="#000" stroke-width=".97315" fill="#fff"/><path d="M290.897 148.366c-.773-.088-1.971 1.718 1.876 2.428 5.142.93 10.771-.801 12.496-5.843 1.975-6.006 3.281-11.692 4.313-13.838 1.288-2.5 2.937-2.298 1.72-5.948-.858-2.626-2.46-1.834-2.797-.43-.899 3.829-4.31 16.214-5.375 18.495-2.009 4.162-6.057 5.809-12.233 5.136z" fill-rule="evenodd" stroke="#000" stroke-width=".97315" fill="#fff"/><path d="M301.193 128.61c-.55-1.181-1.835-.266-1.606 1.026.137 1.168 1.084 1.803 2.036 1.77 1.127-.039 3.511.038 3.517-1.833.004-1.315-1.03-2.413-1.796-.962-.734 1.313-1.678 1.175-2.15 0zM302.478 123.667c-.395.274-.041 1.736.43 1.72 1.68-.056 4.06-.592 5.335-1.479.373-.26.218-1.143-.314-1.125-1.62.054-4.196.011-5.451.884zM316.744 127.345c1.216-1.9 4.572-2.094 3.365.62-.854 1.87-9.208 18.01-10.348 20.062-1.244 2.308-2.262 1.165-1.378-.632 1.189-2.313 7.98-19.488 8.361-20.05z" fill-rule="evenodd" stroke="#000" stroke-width=".97315" fill="#fff"/><path d="M304.17 151.382c-.355-1.284-2.348-3.184-2.124.252.397 6.238 8.966 4.266 11.56 2.05 2.356-2.088.312 7.041 3.442 8.018 1.724.553 4.97-1.8 6.566-3.871 4.426-5.743 7.243-13.975 11.5-19.646 1.607-2.217-.88-3.8-1.887-2.035-3.702 6.207-8.299 18.874-13.32 22.164-4.093 2.62-2.88-3.373-3.023-5.173-.179-1.321-1.789-3.264-3.935-1.48-1.5 1.172-3.833 2.126-5.944 1.935-1.225-.068-2.258-.047-2.834-2.213z" fill-rule="evenodd" stroke="#000" stroke-width=".97315" fill="#fff"/><path d="M319.469 139.802c.045-.352-1.812-.512-1.72 1.29.064 1.334 1.66 1.697 1.934 1.506 2.51-1.826-.533-.916-.214-2.796zM315.81 147.1c-.495.116-.948 1.694.216 1.784 1.064.076 5.235-.372 6.388-.304.745-.028 1.03-1.453-.569-1.378-1.938.098-4.486-.388-6.035-.102zM343.428 145.251c1.71-6.41 5.854.99 2.205 4.639-5.635 5.518-7.332 16.054-16.271 17.64-2.41.518-6.65-1.084-7.908-1.977-.49-.349.317-2.638 1.824-1.52 2.178 1.7 6.676 2.084 9.05.151 5.08-4.986 9.216-11.59 11.1-18.933zM250.55 159.498c-.403.464-1.635.388-1.746 1.038-.484 2.411 0 3.633-.53 5.955-.509 2.223-2.052 2.307-1.947.495.14-2.35 2.077-5.666.708-5.894-.91-.214-1.613-1.432-.671-2.034 1.779-1.233 2.734-1.045 3.957-.673.426.13.535.757.23 1.113z" fill-rule="evenodd" stroke="#000" stroke-width=".97315" fill="#fff"/><path d="M249.305 156.345c-2.36 2.063-4.547 2.906-6.717 5.514-.887 1.069-.862 2.558-1.392 3.92-.53 1.446-2.24 1.73-2.77 1.429-.885-.582-.756-3.264-1.745-1.82-.839 1.33-1.38 3.16-2.62 3.137-1.12-.023-3.236-2.316-2.164-2.427 3.669-.375 3.624-3.312 4.998-3.505 1.542-.206 1.643 2.425 2.595 1.898.747-.384 1.1-3.45 1.91-4.276 2.488-2.542 4.456-3.885 6.994-5.754 1.284-1.023 2.201.824.91 1.884zM257.907 164.247c-1.888.382-1.566 2.809-1.012 3.11.915.427 2.33.606 2.86-2.185.247-1.147.47 5.699 2.983 3.061 1.446-1.598 5.03.29 6.53-1.72 1.074-1.34 1.405-2.273.568-4.25-.243-.602-1.714-.306-1.63 1.153.073 1.23-.873 2.748-2.103 2.49-.597-.11.337-3.01-.263-3.796-.33-.432-.833-.385-1.161.063-.462.626.463 3.406-1.053 3.772-1.914.441-.911-1.86-1.721-2.28-2.604-1.313-2.855.341-3.998.582zM272.64 159.576c1.385-.389.953-.391 3.13-2.174.85-.642 1.016 1.238.927 1.982-.158 1.263-1.658.371-2.123 1.483-.682 1.444-.405 4.803-.633 6.171-.156.703-1.283.643-1.39.088-.323-1.668.228-3.301.175-5.387-.017-.709-1.031-1.82-.085-2.163zM266.14 152.063c-.335 1.51-.31 2.754-.31 3.79.077.836 1.606.297 1.6.19-.075-1.326.226-3.159-.165-3.67-.212-.276-1.047-.594-1.125-.31z" fill-rule="evenodd" stroke="#000" stroke-width=".97315" fill="#fff"/><path d="M205.65 121.273c-.112-2.246 3.37-2.418 2.971.671-.51 3.849 7.264 13.591 7.908 19.6.432 4.028-2.367 7.554-5.138 9.749-3.398 2.632-8.624 2.27-11.069.76-1.479-1.19-2.828-5.268-1.72-6.882.39-.543 2.162 5.985 6.062 5.96 5.308-.035 9.607-4.022 9.765-7.578.272-6.193-8.682-15.982-8.78-22.28z" fill-rule="evenodd" fill="#fff"/><path d="M214.894 119.969c.662.032 2.476 2.382 2.357 3.117-.082.347-1.94-.051-2.509-.532-.42-.356-.25-2.604.152-2.585zm-8.747 17.028c-1.658.905.263 2.69 1.505 1.936 4.661-3.018 11.656-6.189 13.118-12.167.469-2.025 2.351-5.13 4.138-5.822 1.726-.67 4.233 3.124 5.87.14.96-1.707 4.323 1.119 5.134-.707.989-2.205.518-3.419.559-5.53-.072-1.384-1.13-1.797-1.896.443-.399 1.014.07 2.038-.255 2.567-.247.403-1.018.792-1.465.456-.413-.309-.127-1.173-1.116-1.555-.383-.192-.998-.352-1.265.139-1.173 2.093-1.823 4.045-3.466 1.82-1.464-1.915-2.205-5.227-3.278-.695-.385 1.6-2.816 3.921-4.25 3.921-1.791 0-1.341-4.714-5.275-3.997-2.022.432-1.882 4.3-1.58 5.73.496 1.988 6.405.56 6.111 1.86-1.01 4.515-7.277 8.807-12.589 11.461z" fill-rule="evenodd" stroke="#000" stroke-width=".97315" fill="#fff"/><g stroke-linejoin="round" fill-rule="evenodd" stroke="#000" stroke-width=".5" fill="#fff"><path d="M169.156 158.506c-.251.755.753 2.806 1.795 2.958 1.021.076 1.543-2.215 1.214-2.958-.243-.547-2.83-.535-3.009 0zM174.567 166.466c-.656-.706-2.589 1.19-1.026 2.53.878.71 4.093 1.742 4.973.242 1.191-1.931-1.174-8.942-.127-9.868.818-.724 4.607 4.683 6.478 5.072 4.394.61 3.34-7.524 8.075-6.972 3.227.43 3.581-3.602 3.131-6.12-.36-2.416-4.272-5.904-6.07-7.464-2.367-1.97-3.422 1.452-1.937 2.58 1.912 1.531 5.273 4.623 5.808 6.668.253.965-2.335 2.884-3.29 2.365-2.2-1.201-4.248-6.35-6.173-7.527-.656-.4-2.27.504-1.493 2.111.874 1.722 4.734 4.388 4.96 6.225.204 1.676-1.721 5.3-2.984 5.3-1.39 0-4.932-4.379-6.038-6.44-.552-.987-2.467-.892-2.668.47-.317 2.046.296 6.375.784 9.057.388 2.54-1.43 2.668-2.403 1.771zM167.93 152.501c-.553.625 1.29 1.848 1.656 1.53.71-.615 3.469-3.759 2.937-4.858-.473-.98-4.266-3.126-4.883-2.063-1.145 1.839 3.575 2.663 2.836 3.202-.364.209-1.662 1.105-2.546 2.19zM174.742 138.722s1.185 4.055 2.15 2.365c.781-1.17-2.15-2.365-2.15-2.365zM176.669 145.174c-.434.237-1.657 1.205-.86 1.72 1.259.745 4.684 1.335 3.945-1.101-.45-1.435 5.165.04 3.797-3.845-.358-1.075-2.052-2.627-2.885-2.846-.529-.14-2.327.847-1.202 1.39.821.426 3.299 1.881 2.378 2.835-1.045.997-1.773-.448-3.073-.215-.654.124-.228 1.985-.596 2.492-.206.282-1.15-.623-1.504-.43zM185.583 129.753c-.709.354-1.978 2.275-2.024 3.163-.026.474.494 1.125.899.923.743-.371 1.892-2.19 1.934-3.024.028-.527-.37-1.281-.81-1.062zM190.215 129.26c-1.368-1.672 1.452-4.155 2.721-.807.767 2.1 8.941 12.857 10.613 16.507 1.183 2.47-.043 3.49-1.506 1.72-4.14-5.282-7.536-11.865-11.828-17.42zM198.604 129.475c1.457-1.58 4.433-4.805 3.631-6.604-.615-1.547-2.423-1.393-2.732-1.036-1.77 2.111 1.257 1.581.821 2.303-.901 1.691-1.798 2.623-2.263 4.249-.11.38.28 1.372.543 1.088z" stroke-width=".97315"/></g><g fill-rule="evenodd" fill="#fff"><path d="M169.156 158.506c-.251.755.753 2.806 1.795 2.958 1.021.076 1.543-2.215 1.214-2.958-.243-.547-2.83-.535-3.009 0zM174.567 166.466c-.656-.706-2.589 1.19-1.026 2.53.878.71 4.093 1.742 4.973.242 1.191-1.931-1.174-8.942-.127-9.868.818-.724 4.607 4.683 6.478 5.072 4.394.61 3.34-7.524 8.075-6.972 3.227.43 3.581-3.602 3.131-6.12-.36-2.416-4.272-5.904-6.07-7.464-2.367-1.97-3.422 1.452-1.937 2.58 1.912 1.531 5.273 4.623 5.808 6.668.253.965-2.335 2.884-3.29 2.365-2.2-1.201-4.248-6.35-6.173-7.527-.656-.4-2.27.504-1.493 2.111.874 1.722 4.734 4.388 4.96 6.225.204 1.676-1.721 5.3-2.984 5.3-1.39 0-4.932-4.379-6.038-6.44-.552-.987-2.467-.892-2.668.47-.317 2.046.296 6.375.784 9.057.388 2.54-1.43 2.668-2.403 1.771zM167.93 152.501c-.553.625 1.29 1.848 1.656 1.53.71-.615 3.469-3.759 2.937-4.858-.473-.98-4.266-3.126-4.883-2.063-1.145 1.839 3.575 2.663 2.836 3.202-.364.209-1.662 1.105-2.546 2.19zM174.742 138.722s1.185 4.055 2.15 2.365c.781-1.17-2.15-2.365-2.15-2.365zM176.669 145.174c-.434.237-1.657 1.205-.86 1.72 1.259.745 4.684 1.335 3.945-1.101-.45-1.435 5.165.04 3.797-3.845-.358-1.075-2.052-2.627-2.885-2.846-.529-.14-2.327.847-1.202 1.39.821.426 3.299 1.881 2.378 2.835-1.045.997-1.773-.448-3.073-.215-.654.124-.228 1.985-.596 2.492-.206.282-1.15-.623-1.504-.43zM185.583 129.753c-.709.354-1.978 2.275-2.024 3.163-.026.474.494 1.125.899.923.743-.371 1.892-2.19 1.934-3.024.028-.527-.37-1.281-.81-1.062zM190.215 129.26c-1.368-1.672 1.452-4.155 2.721-.807.767 2.1 8.941 12.857 10.613 16.507 1.183 2.47-.043 3.49-1.506 1.72-4.14-5.282-7.536-11.865-11.828-17.42zM198.604 129.475c1.457-1.58 4.433-4.805 3.631-6.604-.615-1.547-2.423-1.393-2.732-1.036-1.77 2.111 1.257 1.581.821 2.303-.901 1.691-1.798 2.623-2.263 4.249-.11.38.28 1.372.543 1.088z"/></g><path d="M304.17 151.382c-.355-1.284-2.348-3.184-2.124.252.397 6.238 8.966 4.266 11.56 2.05 2.356-2.088.312 7.041 3.442 8.018 1.724.553 4.97-1.8 6.566-3.871 4.426-5.743 7.243-13.975 11.5-19.646 1.607-2.217-.88-3.8-1.887-2.035-3.702 6.207-8.299 18.874-13.32 22.164-4.093 2.62-2.88-3.373-3.023-5.173-.179-1.321-1.789-3.264-3.935-1.48-1.5 1.172-3.833 2.126-5.944 1.935-1.225-.068-2.258-.047-2.834-2.213zM221.2 136.57c.878-.626 2.28 2.112 1.29 2.797-.823.548-2.43-2.036-1.29-2.796z" fill-rule="evenodd" fill="#fff"/><path d="M325.327 134.76c-1.047-.847 1.03-4.958 2.435-3.345 3.858 4.464 5.65 18.958 6.765 29.806 0 0-1.734 1.446-1.747 1.216 0-5.778-2.322-23.456-7.453-27.676z" fill-rule="evenodd" stroke="#000" stroke-width=".97315" fill="#fff"/><path d="M223.536 131.024c-.444.215-1.326-.09-1.063-.467 1.242-1.774 3.889-4.444 5.808-5.377.59-.286 1.621.755 1.265 1.265-1.148 1.64-3.943 3.576-6.01 4.579zM325.327 134.76c-1.047-.847 1.03-4.958 2.435-3.345 3.858 4.464 5.65 18.958 6.765 29.806 0 0-1.734 1.446-1.747 1.216 0-5.778-2.322-23.456-7.453-27.676z" fill-rule="evenodd" fill="#fff"/><path d="M327.702 160.082c.696-1.94 9.96-17.49 11.177-20.91.623-1.65 3.282 2.829.685 5.245-2.28 2.053-9.011 13.09-10.266 16.957-.578 1.746-2.332.915-1.596-1.292z" fill-rule="evenodd" stroke="#000" stroke-width=".97315" fill="#fff"/><path d="M258.063 117.867c.267-1.6-2.589.033-2.641-2.088-.027-1.122 3.12-1.91 4.436-.619 2.222 2.255.56 6.059-3.136 6.298-3.08.136-8.221 4.374-7.439 5.265.89 1.1 8.88 1.827 13.525 1.1 2.877-.404 2.273 2.169-.673 2.517-2.848.328-5.168.024-7.828.86-3.132.895-4.498 5.099-6.238 6.667-.388.273-1.433-1.378-1.036-1.998 1.254-1.96 3.253-4.961 5.452-5.82 1.388-.562-3.826-.74-5.49-1.214-1.32-.398-.937-2.075-.43-3.01.67-1.46 5.585-6.38 7.567-6.3 1.86.078 3.746-.464 3.931-1.658zM233.19 128.727c-2.147-1.672.577-4.014 2.821-2.378 4.372 3.297-6.522 15.93-12.448 21.835-1.084 1.157-2.036-1.756-.646-3.01 4.249-3.605 8.227-7.91 10.992-12.359.534-.856 1.044-2.702-.72-4.088z" fill-rule="evenodd" fill="#fff"/><path d="M238.834 120.65c-1.248-2.868 1.872-3.93 2.34-1.885 2.167 9.421 7.358 16.554 11.309 22.96 1.19 2.003.236 3.197-2.657 1.354-2.002-1.374-4.036-6.38-5.021-6.578-1.783-.332-6.05 8.134-14.776 5.718-2.258-.631-2.108-7.345-2.151-10.31-.095-1.39 1.44-1.758 1.493.139.08 2.734-.004 8.413 3.493 8.604 2.852.16 9.167-3.872 10.499-7.023 1.185-3.24-3.18-9.68-4.53-12.98z" fill-rule="evenodd" stroke="#000" stroke-width=".97315" fill="#fff"/><path d="M214.894 119.969c.662.032 2.476 2.382 2.357 3.117-.082.347-1.94-.051-2.509-.532-.42-.356-.25-2.604.152-2.585zm-8.747 17.028c-1.658.905.263 2.69 1.505 1.936 4.661-3.018 11.656-6.189 13.118-12.167.469-2.025 2.351-5.13 4.138-5.822 1.726-.67 4.233 3.124 5.87.14.96-1.707 4.323 1.119 5.134-.707.989-2.205.518-3.419.559-5.53-.072-1.384-1.13-1.797-1.896.443-.399 1.014.07 2.038-.255 2.567-.247.403-1.018.792-1.465.456-.413-.309-.127-1.173-1.116-1.555-.383-.192-.998-.352-1.265.139-1.173 2.093-1.823 4.045-3.466 1.82-1.464-1.915-2.205-5.227-3.278-.695-.385 1.6-2.816 3.921-4.25 3.921-1.791 0-1.341-4.714-5.275-3.997-2.022.432-1.882 4.3-1.58 5.73.496 1.988 6.405.56 6.111 1.86-1.01 4.515-7.277 8.807-12.589 11.461zM238.834 120.65c-1.248-2.868 1.872-3.93 2.34-1.885 2.167 9.421 7.358 16.554 11.309 22.96 1.19 2.003.236 3.197-2.657 1.354-2.002-1.374-4.036-6.38-5.021-6.578-1.783-.332-6.05 8.134-14.776 5.718-2.258-.631-2.108-7.345-2.151-10.31-.095-1.39 1.44-1.758 1.493.139.08 2.734-.004 8.413 3.493 8.604 2.852.16 9.167-3.872 10.499-7.023 1.185-3.24-3.18-9.68-4.53-12.98zM244.07 114.733c.492-1.027 3.448-2.19 4.201-2.884.697-.714 1.03.603.732 1.225-.492 1.027-3.044 2.762-4.163 2.809-.602.025-1.069-.529-.77-1.15zM251.076 115.064c.64-1.804 2.705-4.539 4.126-5.44.73-.46 2.04-.098 1.794.594-.543 1.53-3.069 4.205-4.768 5.465-.516.46-1.3-.2-1.152-.619zM245.062 119.58c-.428.214-.197 1.126.216 1.264.878.292 2.475.35 3.2-.05 1.05-.648.572-4.634-.835-2.505-.944 1.314-1.633.892-2.581 1.29zM266.354 118.295c.925-.815 1.398-2.18 2.367-3.01.531-.533 1.38.105 1.238 1.39-.119 1.011-1.477 1.883-2.39 2.643-.744.557-1.608-.645-1.215-1.023zM276.884 114.539c1.376-.152 1.718 2.504.214 2.934-.913.305-1.71-2.777-.214-2.934zM273.42 122.752c-.022 2.287 1.107 2.077 3.261 1.999 2.09-.079 3.93.054 3.922-2.012-.01-2.14-1.185-4.014-1.53-2.557-.303 1.369-.545 3.61-1.34 2.633-.752-.839-.454-1.023-1.746.354-.717.76-.798-.368-1.229-1.075-.3-.42-1.337.338-1.339.658zM258.394 134.43c-.514 3.027-.043 7.264 1.506 7.312 1.916.062 5.878-6.617 7.754-10.082 1.125-1.933 3.058-2.271 2.252-.254-1.22 3.113-1.111 9.772-.039 11.728.576 1.054 4.83-.966 5.516-2.467 1.25-2.729.234-7.758.672-10.83.212-2.016 2.057-2.437 1.96-.568-.183 3.344-.5 9.474-.265 12.258.14 1.6 4.716 3.962 5.451-.884.388-3.05 1.958-6.059-.075-9.439-1.262-2.113 1.85-1.848 3.528 1.039 1.174 1.964-.989 5.215-.913 7.729.195 3.866-2.812 6.062-4.994 6.108-1.95.04-3.221-2.356-4.819-2.39-1.773-.113-3.595 2.759-5.06 2.657-5.68-.388-2.673-8.69-4.403-8.791-1.925-.113-4.194 8.136-6.565 7.842-2.337-.28-4.756-6.723-3.783-9.45.88-2.536 2.538-3.13 2.277-1.518z" fill-rule="evenodd" fill="#fff"/><path d="M285.895 121.331c-2.771-1.69.175-6.086 1.53-4.542 2.616 3.133 5.253 10.569 7.096 11.183 1.168.39 1.113-5.496 1.937-8.172.531-1.977 2.921-1.331 2.464 1.201-.156.846-3.122 10.462-2.894 10.842 2.055 4.109 4.089 8.279 5.375 12.689.532 1.9-1.751.62-2.024.225-1.458-2.179-4.01-10.511-4.01-10.131-1.173 5.862-1.45 7.592-2.695 12.573-.38 1.597-2.729 1.306-2.2-1.505.51-2.31 3.87-13.674 3.681-14.003-2.64-4.662-5.056-8.35-8.26-10.36z" fill-rule="evenodd" fill="#fff"/><path d="M290.897 148.366c-.773-.088-1.971 1.718 1.876 2.428 5.142.93 10.771-.801 12.496-5.843 1.975-6.006 3.281-11.692 4.313-13.838 1.288-2.5 2.937-2.298 1.72-5.948-.858-2.626-2.46-1.834-2.797-.43-.899 3.829-4.31 16.214-5.375 18.495-2.009 4.162-6.057 5.809-12.233 5.136z" fill-rule="evenodd" fill="#fff"/><path d="M301.193 128.61c-.55-1.181-1.835-.266-1.606 1.026.137 1.168 1.084 1.803 2.036 1.77 1.127-.039 3.511.038 3.517-1.833.004-1.315-1.03-2.413-1.796-.962-.734 1.313-1.678 1.175-2.15 0zM302.478 123.667c-.395.274-.041 1.736.43 1.72 1.68-.056 4.06-.592 5.335-1.479.373-.26.218-1.143-.314-1.125-1.62.054-4.196.011-5.451.884zM316.744 127.345c1.216-1.9 4.572-2.094 3.365.62-.854 1.87-9.208 18.01-10.348 20.062-1.244 2.308-2.262 1.165-1.378-.632 1.189-2.313 7.98-19.488 8.361-20.05zM319.469 139.802c.045-.352-1.812-.512-1.72 1.29.064 1.334 1.66 1.697 1.934 1.506 2.51-1.826-.533-.916-.214-2.796z" fill-rule="evenodd" fill="#fff"/><path d="M327.702 160.082c.696-1.94 9.96-17.49 11.177-20.91.623-1.65 3.282 2.829.685 5.245-2.28 2.053-9.011 13.09-10.266 16.957-.578 1.746-2.332.915-1.596-1.292z" fill-rule="evenodd" stroke="#000" stroke-width=".97315" fill="#fff"/><path d="M315.81 147.1c-.495.116-.948 1.694.216 1.784 1.064.076 5.235-.372 6.388-.304.745-.028 1.03-1.453-.569-1.378-1.938.098-4.486-.388-6.035-.102zM327.702 160.082c.696-1.94 9.96-17.49 11.177-20.91.623-1.65 3.282 2.829.685 5.245-2.28 2.053-9.011 13.09-10.266 16.957-.578 1.746-2.332.915-1.596-1.292z" fill-rule="evenodd" fill="#fff"/><path d="M343.428 145.251c1.71-6.41 5.854.99 2.205 4.639-5.635 5.518-7.332 16.054-16.271 17.64-2.41.518-6.65-1.084-7.908-1.977-.49-.349.317-2.638 1.824-1.52 2.178 1.7 6.676 2.084 9.05.151 5.08-4.986 9.216-11.59 11.1-18.933z" fill-rule="evenodd" stroke="#000" stroke-width=".97315" fill="#fff"/><path d="M343.428 145.251c1.71-6.41 5.854.99 2.205 4.639-5.635 5.518-7.332 16.054-16.271 17.64-2.41.518-6.65-1.084-7.908-1.977-.49-.349.317-2.638 1.824-1.52 2.178 1.7 6.676 2.084 9.05.151 5.08-4.986 9.216-11.59 11.1-18.933zM257.907 164.247c-1.888.382-1.566 2.809-1.012 3.11.915.427 2.33.606 2.86-2.185.247-1.147.47 5.699 2.983 3.061 1.446-1.598 5.03.29 6.53-1.72 1.074-1.34 1.405-2.273.568-4.25-.243-.602-1.714-.306-1.63 1.153.073 1.23-.873 2.748-2.103 2.49-.597-.11.337-3.01-.263-3.796-.33-.432-.833-.385-1.161.063-.462.626.463 3.406-1.053 3.772-1.914.441-.911-1.86-1.721-2.28-2.604-1.313-2.855.341-3.998.582zM272.64 159.576c1.385-.389.953-.391 3.13-2.174.85-.642 1.016 1.238.927 1.982-.158 1.263-1.658.371-2.123 1.483-.682 1.444-.405 4.803-.633 6.171-.156.703-1.283.643-1.39.088-.323-1.668.228-3.301.175-5.387-.017-.709-1.031-1.82-.085-2.163zM266.14 152.063c-.335 1.51-.31 2.754-.31 3.79.077.836 1.606.297 1.6.19-.075-1.326.226-3.159-.165-3.67-.212-.276-1.047-.594-1.125-.31zM249.305 156.345c-2.36 2.063-4.547 2.906-6.717 5.514-.887 1.069-.862 2.558-1.392 3.92-.53 1.446-2.24 1.73-2.77 1.429-.885-.582-.756-3.264-1.745-1.82-.839 1.33-1.38 3.16-2.62 3.137-1.12-.023-3.236-2.316-2.164-2.427 3.669-.375 3.624-3.312 4.998-3.505 1.542-.206 1.643 2.425 2.595 1.898.747-.384 1.1-3.45 1.91-4.276 2.488-2.542 4.456-3.885 6.994-5.754 1.284-1.023 2.201.824.91 1.884z" fill-rule="evenodd" fill="#fff"/><path d="M250.55 159.498c-.403.464-1.635.388-1.746 1.038-.484 2.411 0 3.633-.53 5.955-.509 2.223-2.052 2.307-1.947.495.14-2.35 2.077-5.666.708-5.894-.91-.214-1.613-1.432-.671-2.034 1.779-1.233 2.734-1.045 3.957-.673.426.13.535.757.23 1.113z" fill-rule="evenodd" fill="#fff"/><g fill-rule="evenodd" stroke="#000" stroke-width=".5" fill="#fff"><path d="M238.133 347.453c.815 1.812 2.007 1.732 1.828-.002-.347-2.221-1.018-5.29-1.398-7.957-.216-2.258-2.55-1.822-1.935.537.779 2.546.615 5.339 1.505 7.422zM245.12 347.57c-.01.918 1.413.834 1.4.108-.148-2.31-.324-5.432.32-6.559.503-.88 2.529-.259 4.409-.43.75-.11.594-2.172-.967-2.042-1.841.166-6.696-.432-6.99 1.289-.422 3.095 1.914-.185 1.828 7.633zM259.211 338.636c1.178.848 1.014 1.952-.43 1.611-1.72-.43-2.88-.292-2.857.652.025.929.751 1.11 1.808 2.14 1.012 1.06-.62.887-1.872 3.059-1.067 1.798 1.11 2.036 3.674 1.355.654-.187 1.513.938-.107 1.862-1.14.61-4.318 1.355-5.109-.952-1.5-3.99 2.513-4.542.822-5.605-.923-.557-1.256-1.395-1.088-2.509.358-2.569 4.184-2.228 5.16-1.613zM264.505 347.433c1.548-2.824 2.614-4.94 3.046-7.337.376-2.165 1.931-2.373 2.258-.538.42 2.437 1.816 4.852 3.51 7.065.992 1.373-1.005 2.581-1.79 1.513-1.438-1.826-1.498-4.37-2.347-4.352-.979.02-2.09 2.836-3.135 4.914-.304.604-2.159-.002-1.542-1.265z" stroke-width=".97315"/></g><g fill-rule="evenodd" fill="#fff"><path d="M238.133 347.453c.815 1.812 2.007 1.732 1.828-.002-.347-2.221-1.018-5.29-1.398-7.957-.216-2.258-2.55-1.822-1.935.537.779 2.546.615 5.339 1.505 7.422zM245.12 347.57c-.01.918 1.413.834 1.4.108-.148-2.31-.324-5.432.32-6.559.503-.88 2.529-.259 4.409-.43.75-.11.594-2.172-.967-2.042-1.841.166-6.696-.432-6.99 1.289-.422 3.095 1.914-.185 1.828 7.633zM259.211 338.636c1.178.848 1.014 1.952-.43 1.611-1.72-.43-2.88-.292-2.857.652.025.929.751 1.11 1.808 2.14 1.012 1.06-.62.887-1.872 3.059-1.067 1.798 1.11 2.036 3.674 1.355.654-.187 1.513.938-.107 1.862-1.14.61-4.318 1.355-5.109-.952-1.5-3.99 2.513-4.542.822-5.605-.923-.557-1.256-1.395-1.088-2.509.358-2.569 4.184-2.228 5.16-1.613zM264.505 347.433c1.548-2.824 2.614-4.94 3.046-7.337.376-2.165 1.931-2.373 2.258-.538.42 2.437 1.816 4.852 3.51 7.065.992 1.373-1.005 2.581-1.79 1.513-1.438-1.826-1.498-4.37-2.347-4.352-.979.02-2.09 2.836-3.135 4.914-.304.604-2.159-.002-1.542-1.265z"/></g><path d="M398.352 265.182c-.109.579 1.454 1.433 1.826.99 1.682-2.015 3.883-5.97 4.334-8.364.133-.697-2.107-1.485-2.586-.913-1.575 1.886-3.1 5.773-3.574 8.287z" fill-rule="evenodd" fill="#fff"/></svg>