<svg xmlns="http://www.w3.org/2000/svg" height="480" width="640"><defs><clipPath id="a" clipPathUnits="userSpaceOnUse"><path fill-opacity=".67" d="M-79.698 0h682.67v512h-682.67z"/></clipPath></defs><g clip-path="url(#a)" fill-rule="evenodd" transform="translate(74.717) scale(.9375)"><path fill="#fff" d="M-120 0h763.27v511.49H-120z"/><path d="M-118.31.617h760.88v216.09h-760.88z"/><path fill="#0061ff" d="M21.299 203.23h505.01v113.82H21.299z"/><path d="M642.75 1.753v510.25H262.03L642.75 1.753z" fill="#e20000"/><path d="M-118.69 1.753v510.25h380.72L-118.69 1.753z" fill="#e20000"/><path d="M440.37 203.34l-76.31-19.363 64.921-48.976-79.727 11.39 41.003-69.476-70.616 41.003 12.528-80.867-47.836 63.782L264.97 26.8l-21.64 76.311-47.837-64.921 13.667 83.145-70.615-43.282 41.003 69.476-77.449-12.528 63.782 47.837-79.728 20.501h354.22z" fill="#ffd600"/></g></svg>