<svg xmlns="http://www.w3.org/2000/svg" height="480" width="640"><path fill-rule="evenodd" fill="#de2110" d="M0 0h640v480H0z"/><path d="M229.27 120.15c7.43-.725 8.94-.628 14.397.784-7.008 3.206-15.293 1.604-20.432-2.95-7.766-7.051-26.26-19.243-19.647-8.855 34.312 38.023 63.863 12.315 81.834 34.21 6.122 7.456 11.527 17.466 8.307 27.298-1.101 3.366-5.08 11.282-9.89 9.27-6.298-2.635 1.194-23.331-3.391-30.065-10.41-15.29-29.271-11.2-44.747-12.851-4.49 12.176-15.306 10.34-25.25 4.199-12.695-7.84-12.313-27.12-23.658-33.488-11.823-6.636-9.896 15.588-7.992 20.869 8.253 22.88 32.553 31.434 54.795 27.366-16.462 25.489-42.552-16.5-55.476-6.216-8.2 6.525 6.284 18.397 11.302 21.12 13.882 7.536 30.563 3.75 44.174-2.274-7.771 8.44-22.072 13.62-33.68 11.907-5.996-.885-18.008-8.42-23.47-3.398-8.432 7.752 12.154 16.947 17.154 18.034 16.853 3.666 28.79-5.227 42.101-13.914-8.359 8.354-17.283 19.794-29.47 22.295-7.602 1.56-24.378-6.198-29.29 1.855-5.873 9.63 9.7 15.722 16.66 15.12 16.486-1.425 31.794-14.691 44.205-24.535-8.53 12.1-21.695 24.904-35.786 30.37-7.396 2.87-20.112-1.57-25.68 4.874-8.578 9.926 10.308 15.785 17.26 14.095 20.291-4.936 31.115-27.138 50.521-34.603-13.163 12.124-27.107 30.906-42.29 39.893-7.545 4.467-19.848-1.007-25.815 5.582-13.486 14.893 20.301 18.076 29.847 10.186 15.988-13.213 23.652-32.155 42.467-43.032-12.548 17.066-28.44 42.55-44.402 56.325-7.598 6.558-24.28.804-29.093 8.096-9.666 14.645 21.51 17.16 29.281 11.984 25.513-16.988 26.907-56.363 58.95-65.88-9.079 19.447-18.139 45.77-39.996 52.626 3.28 9.88 14.874 10.742 22.326 3.541 12.788-12.355 10.148-40.48 32.405-41.432l-16.05 22.499c.852 9.19 17.324-3.136 22.365-11.974h2.106c-8.77 20.92-24.25 32.601-44.206 42.101.391 12.472-7.953 18.897-18.946 23.156-5.916-10.875-21.678-18.964-29.471-6.315 6.184.833 11.71 1.995 12.63 8.42-9.807-3.54-17.547-5.218-21.051 6.315 11.49-1.886 15.415-1.467 17.367 3.554-7.854 9.045-6.573 22.804 7.894 24.14-4.036-2.915-6.756-4.845-4.539-8.748 3.208-4.26 7.006.05 8.867-2.488 3.473-5.07.345-3.299 4.774-1.26 3.629 2.599 9.532-8.272 17.935 10.063 10.106-7.271.383-18.762-3.882-27.366l31.576-6.315 35.786-33.681 2.105 2.105c-11.567 18.2-28.214 33.826-50.52 35.786 7.466 13.542 22.115 6.56 33.68 2.105-5.029 9.812-18.085 9.866-22.467 17.986-8.986 16.653 28.56-.514 30.888-1.145-3 10.567-14.826 12.685-17.899 21.642-2.387 6.955 7.357 7.643 11.496 5.624 7.987-3.898 13.207-14.48 19.034-20.952-2.728 12.63 2.44 22.63-11.47 37.234l21.34 26.246 24.36-26.277c-13.448-11.635-5.19-25.242-7.783-37.86 5.696 6.68 7.635 17.643 15.729 21.608 3.774 1.849 11.565 1.908 10.618-4.309-1.341-8.8-14.272-13.323-17.007-22.958 2.694.89 39.09 17.96 30.719 1.146-3.968-7.968-17.396-8.42-22.3-17.986 11.699 4.504 23.708 10.184 33.682 0-18.54-6.442-46.116-17.413-48.416-39.996l36.386 31.33 30.976 10.772v2.105c-7.549 7.864-11.92 13.35-5.659 22.958l7.699 2.305c-4.935-5.44-3.289-8.248 0-10.397 5.57-2.655 8.92 2.498 11.077-2.82.978-2.58 1.322-3.794 1.818-.643.55 5.58 8.282 1.288 10.984 2.016 4.23 4.166-2.063 8.332-2.764 11.841 11.961-4.19 14.222-11.529 10.525-23.156.79-4.408 3.554-6.513 6.316-6.315 3.136.373 5.614 1.404 8.42 2.105-4.107-10.727-11.355-10.32-21.051-6.315.878-6.425 4.056-9.561 10.525-8.42-4.86-14.586-22.438-2.878-27.366 6.315-11.447-3.797-22.406-9.999-18.946-23.156-19.343-9.207-37.348-20.613-44.206-42.1h2.105c5.041 8.836 21.185 14.913 20.063 6.71l-13.748-17.236c29.606 1.271 17.813 55.089 54.732 44.206v-4.21c-21.244-11.833-29.972-33.262-39.996-54.732 31.51 9.361 32.553 48.444 57.032 65.512 7.829 5.458 40.779 3.995 31.092-11.616-4.358-7.023-21.735-1.954-29.098-8.096-15.99-13.338-32.073-39.273-44.29-56.325 19.337 12.289 28.593 37.04 48.418 46.968 8.372 4.193 28.216 3.568 25.368-10.88-2.025-10.28-18.514-4.548-25.34-7.474-15.313-6.566-31.962-29.497-44.237-41.244 18.379 8.072 29.277 28.635 48.416 34.41 7.043 2.127 25.233-1.041 20.194-12.45-3.58-8.104-19.611-3.735-26.51-6.219-15.166-5.461-26.822-19.41-37.89-30.478 14.855 8.545 28.292 23 46.31 24.535 6.958.593 25.009-7.663 15.53-16.469-6.166-5.727-18.632.664-26.054-.178-11.957-1.358-22.011-11.901-29.471-20.518 17.388 10.682 71.357 15.232 61.9-7.105-6.563-5.461-13.735 4.05-26.645 4.41-13.527.03-26.943-3.179-38.017-11.712 14.104 4.762 30.29 9.815 44.83 3.003 5.17-2.422 23.679-17.756 11.718-23.02-9.326-4.103-18.937 9.111-26.421 12.454-9.275 4.143-20.097 1.123-29.471-1.186v-2.105c19.226-1.02 38.316-2.114 50.966-19.03 4.153-5.556 14.98-28.308 2.886-32.014-4.827-1.48-8.568 3.34-10.578 6.961-5.907 10.647-32.247 52.933-43.274 23.032-15.508 1.655-34.294-2.425-44.75 12.851-4.639 6.78 2.527 27.582-3.734 30.065-17.69 7.017-5.875-31.642-1.587-36.569 19.063-21.914 70.61-3.047 79.542-33.713.97-8.132-10.62 6.42-16.076 9.948-5.91 3.642-13.416 3.88-19.71 2.683 6.677-3.498 12.04-2.39 16.25-3.092-3.952-6.943-13.014-6.062-15.33-9.908-3.023-5.458-15.079-7.049-21.928-5.967-13.028 2.879-18.04 6.764-42.143.021l10.525 12.63-15.085 6.304 6.665 4.221-12.63 8.42c2.105.702 7.117.706 6.78 2.687l-10.176 17.306c-2.111-3.628-9.056-13.126-10.035-16.77-.49-1.627 2.446-2.387 6.419-3.106l-11.934-8.536 7.713-4.507-16.133-6.019 8.42-12.63c-13.424 8.955-24.947-3.561-40.49.1-6.626 1.506-11.977 8.884-18.216 7.653-5.263-.9-11.397 2.229-15.087 9.088z"/><path d="M132.34 331.3c.651.313 1.848.156 2.03.86-1.224.442-2.682.494-3.906.39.573-1.302 1.225-.807 1.876-1.25zM188.2 331.53c-.65.313-1.847.156-2.029.86 1.224.442 2.682.494 3.905.39-.572-1.302-1.225-.807-1.876-1.25z" fill-rule="evenodd" fill="#de2110"/></svg>