<svg width="42" height="41" xmlns="http://www.w3.org/2000/svg"><g fill="#DADADA" fill-rule="nonzero" opacity=".5"><path d="M2 11.582V12c.253-.342.531-.674.829-1L2 11.582zM14.208 11l-.208.22.28.234.283-.234zM2.962 9.264L2.939 9.1 2.925 9c-.329.326-.638.658-.925 1l.31-.237.652-.499zM10 5.362V5h-.601l-.032.174H9v.504h.827zM41.073 16l-.073.085.164.308-.091-.393z"/><path d="M14 11.765l.433-.081.346-.223V11h-.778l-.001.765zM40.689 12.958a17.695 17.695 0 00-.543-.958l-.146.14V13l.449-.051.24.009zM9.986 6.505s.031-.505 0-.505-.399.086-.399.086L9 6.317l.158.26.828-.072zM36.577 9L37 8.315A22.51 22.51 0 0035.933 7l-.004 1.14-.929.51.092.334L36.577 9zM12 8.125L11.524 8 11 8.275l.323.725.514-.177zM14 9v.548l.476-.114zM12.416 9l-.348.274-.068.333.273.143H13v-.476h-.106V9zM12 11.84l.293.16.707-1h-.552l-.385.421z"/><path d="M14 11v.417l.202.29h.736v-.447l-.881-.26zM13.432 12.246l-.324.029-.108.505h.688l.312-.332V12l-.5.073z"/><path d="M39.345 13.115l-.547-.588-.104-.945-.56.3-.301 1.157-.809-.844-.033-.797-.78-.659-.289-.28h-.906l.287.792 1.09.595.188.198-.235.116.01.626-.532.217-.452-.098-.284-.394.736.04.2-.263-1.634-1.08-.124-.46-.665.587-.672-.135-1.024 1.305-.203.51-.656.06-.969.005-.579-.265-.17-1.128.207-.537.987-.211 1.075.211.132-.583-.459-.106.159-.907 1.08-.167.758-1.047.78-.13.706.103h.26l-.143-.983-.856.339-.302-.735-.498-.07-.094-.505.406-.433.965-.37.247-.435A21.05 21.05 0 0024.895.375l-.252-.044c-.385-.068-.776-.114-1.169-.161-.837-.1-1.684-.17-2.55-.17-4.591 0-8.839 1.46-12.294 3.926h.178l.876-.008.471.255.886.187.069.342 1.41.05-.192-.442-1.252-.034.295-.273-.103-.323h-1.13l1.233-.904h1.183l.556.75.923.051.556-.528.417.204-.765.732-1.01.018c.054 0 .09.715.09.715l1.285-.034.139-.34.887-.052.104-.51-.521-.086.173-.46.399-.12 1.391.067-.766.683.123.528.8.12-.052-.954.765-.392 1.357-.154 1.966.853V4.6l.624.152-.313.58h-.885l-.264.663-2.028-.467 1.594-.832-.607-.505-1.374.17-.122.122-.005-.002-.018.026-.396.402-.653.055.052.32.23.091-.01.106-.532.074-.04.303-.508.026-.092-.6-.914.271-1.865 1.07.208.753.521.333 1.044.141v1.163l.48-.077.445-.907 1.11-.345V6.293l.618-.456 1.49.345-.105.92h.4l1.096-.528.053 1.209.8.477-.034.717-.766.255.053.237.92.412-.016.493-.269.022c0-.008-.002-.014-.002-.014l-1.164-.35-.05-.367.34-.229v-.333l-.365-.09-.09.308-.643.096-.063-.02v.031l-.222.033-.18-.358-.21-.09h-.456l-.207.167v.37l.39.129.387.052-.087.038-.353.382-.154-.192-.34-.087-.927.854.122.098-1.37.74-1.287 1.313-.088.583-1.29.83-.638.631.07 1.261-.886-.405.006-.737H9.07l-1.279.635-.554 1.002-.22.794.36.772 1.005.12 1.6-1.05.14.52-.488.905 1.22.202.121 1.843.154.026.014.001 1.502.25 1.06-1.2 1.288.256.45.616 1.236-.071.034-.357.68.322.764 1.174 1.321.019.488.835.07 1.02 1.46.546 1.843.018.54.867.816.257-.155.717-.897 1.114-.261 2.467-.81.627-1.197-.036-.402.683.298 1.277-1.305 1.636-.418.751-1.244.585-.816.123-.035.34.575.162-.072.365-.513.484.313.386.618.018-.035.467-.165.462-.051.373.914.756-.123.39-1.245-.02-1.24-1.061-.964-1.662.135-1.605-.731-.953.295-1.618-.433-.12v-3.51s-1.218-.903-1.287-.903c-.07 0-.644-.153-.644-.153l-.121-.665-1.584-1.94.157-.699.053-1.141 1.095-.751-.156-1.278-1.6-.118-1.253-1.398-.886-.238-.574-.103.069-.51-.731-.102v.29l-1.826-.444-.736-1.101.255-.452-.302-.004-.088-.287.214-.106-.936-1.338-.2-1.21h-.47l.158 1.175.8 1.21-.088.477-.679-.102-.833-1.393v-1.622l-.87-.41v-1.168A19.993 19.993 0 00.512 16l.05-.01.287-.057.17.8.358.567.238.268.433.166-.408.475-.789.075H.255l.067-.69.494-.1-.041-.325-.41-.254-.033-.023A20.124 20.124 0 000 20.5c0 .036.003.072.003.109C.063 31.86 9.425 41 20.926 41a21.06 21.06 0 0016.23-7.578h-.69v-1.363l-.8-1.053v-1.64l-.61-.595-.052-.682.772-1.449-1.467-2.538.173-1.722-1.32-.133-.488-.477h-.888l-.451.41h-1.563l-.054.135h-.87l-2-2.232.017-1.739.33-.12.124-.664h-.47l-.193-.699 2.313-1.635v-1.158l1.134-.616.457.046h.932l.73-.385 2.348-.18v1.176l1.853.462.364.255h.341v-.64l1.07-.101 1.016.74h1.67l.116-.104a19.903 19.903 0 00-.566-1.625l-1.089.019z"/></g></svg>