<svg xmlns="http://www.w3.org/2000/svg" height="480" width="640"><g fill-rule="evenodd" stroke-width="1pt"><path fill="red" d="M0 0h640v243.574H0z"/><path d="M0 236.428h640v243.574H0z"/></g><path d="M228.67 148.173c165.22 43.304 58.989 255.64-71.216 167.26l-8.817 13.545c76.628 54.658 152.57 10.66 173.9-46.358 22.297-58.788-7.521-141.48-92.511-150.03l-1.355 15.576z" fill-rule="evenodd" fill="#ffec00"/><path fill-rule="evenodd" fill="#ffec00" d="M169.955 330.827l21.73 10.125-10.142 21.696-21.729-10.125zM318.94 231.347h23.979v23.942H318.94zM307.256 192.455l22.342-8.694 8.707 22.308-22.342 8.694zM281.362 163.267l17.035-16.85 16.877 17.009-17.035 16.85zM255.078 123.48l22.434 8.455-8.468 22.4-22.434-8.455zM316.1 270.01l22.265 8.888-8.902 22.231-22.265-8.888zM246.224 340.061l22.059-9.389 9.403 22.025-22.058 9.389zM206.72 342.829h23.979v23.942H206.72zM248.01 226.893l-20.351-15.006-20.244 14.469 8.034-22.918-20.347-14.957 24.447-.171 8.568-22.551 7.782 22.703 24.702-.242-19.587 15.232 6.996 23.441z"/><path d="M336.03 346.376c-1.211.418-6.229 12.389-9.675 18.248 1.797.509 2.559.596 3.625 1.025 13.655 4.8 20.384 9.18 26.186 17.505 2.888 2.791 7.032 2.931 10.198.697 0 0 2.795-1.115 6.429-5.022 2.969-4.52 2.195-8.11-1.383-11.16-10.944-7.95-22.9-13.901-35.38-21.294z" fill-rule="evenodd" fill="#fe0"/><path d="M365.247 372.842c0 2.388-1.94 4.324-4.331 4.324s-4.332-1.936-4.332-4.324 1.94-4.325 4.332-4.325 4.331 1.936 4.331 4.325zM343.87 359.17c0 2.388-1.94 4.324-4.331 4.324s-4.332-1.936-4.332-4.324 1.94-4.325 4.332-4.325 4.331 1.936 4.331 4.325zM354.768 366.145c0 2.389-1.94 4.325-4.331 4.325s-4.332-1.936-4.332-4.325 1.94-4.324 4.332-4.324 4.331 1.936 4.331 4.324z" fill-rule="evenodd"/><path d="M324.47 363.667c-42.57-24.273-87.31-50.521-129.88-74.796-18.751-11.636-19.683-33.385-7.17-49.876 1.302-2.337 2.836-1.758 3.514-.524 1.463 8.029 5.969 16.324 11.37 21.495 44.693 28.383 87.732 55.804 131.71 85.613-3.448 5.768-6.104 12.322-9.55 18.087z" fill-rule="evenodd" fill="#fe0"/><path fill-rule="evenodd" fill="#ffec00" d="M297.174 305.457l17.851 15.986-16.01 17.824-17.852-15.986z"/><path d="M331.54 348.82L206.58 273.3M316.11 331.393l-42.24-27.28M292.08 346.8l-42.75-24.755" stroke="#000" stroke-width="3.05" fill="none"/></svg>