<svg xmlns="http://www.w3.org/2000/svg" viewBox="0 0 512 512" height="480" width="640"><path fill-rule="evenodd" fill="#3a7dce" d="M-85.333 0h682.67v512h-682.67z"/><path d="M111.82 240.35c-3.08-6.299-3.08-6.299-3.08-12.596-1.54 0-1.828.296-2.719.048-.89-.245-1.227 5.808-4.114 4.626-.481-.59 2.07-4.968-.698-6.788-.89-.593.217-4.184-.169-5.76 0 0-3.512 1.87-6.159-4.722-1.3-1.723-3.08 1.574-3.08 1.574s.77 2.017-.625 2.51c-1.973-1.477-3.418-.703-5.92-2.732-2.502-2.03.53-4.354-4.235-6.076 3.08-7.873 3.08-6.299 10.78-9.447-4.62-3.15-4.62-3.15-7.699-7.874-4.62-1.574-6.16-3.148-10.78-6.297-6.16-7.874-9.24-23.618-9.24-34.64 3.899-3.691 9.24 12.596 16.94 17.319l10.78 4.724c6.16 3.149 7.7 6.297 12.32 9.447l13.86 4.724c6.16 4.723 9.24 11.022 13.86 12.596 5.005 0 5.97-2.948 7.574-3.131 9.053-.475 13.674-1.667 15.478-4.447 1.828-2.214 6.207 1.279 18.527-3.444l-1.54-6.299s3.273-2.755 7.7-1.574c-.12-2.879-.41-10.554 3.952-14.017-2.649-2.841-.872-4.877-.872-4.877s2.455-2.412 2.743-3.691c-1.298-6.938 1.127-7.045 1.67-9.087.544-2.04-2.094-1.341-1.35-4.155.742-2.814 5.203-3.482 5.8-5.8.6-2.319-1.271-3.482-1.163-4.035.962-2.214.145-7.43 0-9.447 8.277-2.264 10.973-9.152 13.86-6.298 1.54-9.448 3.08-12.596 12.32-12.596 1.3-2.903-3.37-5.364-1.54-6.298 3.08-.394 5.437-.197 9.048 4.576 1.14 1.512 1.347-2.215 2.502-2.608 1.154-.394 3.919-.4 4.33-2.264.434-1.919 1.06-4.428 2.6-7.577 1.299-2.559 2.31.984 3.464 6.003 6.497.246 21.175 1.722 27.334 3.444 4.62 1.23 7.7-1.23 12.127-1.722 3.272 3.346 6.352.836 8.085 7.971 2.445 3.85 6.448.345 7.315 1.476 5.15 14.515 22.859 4.724 24.206 4.97 2.26 0 5.023 6.49 6.803 6.329 2.894-.498 2.075-2.516 4.601-1.704-.674 5.462 4.958 11.76 4.958 15.844 0 0 1.37.69 2.64-.523 1.27-1.21 2.437-4.323 3.567-4.25 2.695.394 3.787.748 6.893 1.303 8.35 2.917 12.603 3.575 15.846 5.07 1.509 2.823 2.97 4.268 6.029 3.74 2.527 1.736.684 4.01 2.176 4.157 3.08-1.575 4.09-3.297 7.17-1.722 3.08 1.574 6.16 4.724 7.7 7.873 0 1.574-1.54 7.872 0 17.319.77 3.15 1.143 5.646 4.451 11.047-.879 5.548 4.163 14.884 4.163 17.246 0 3.148-2.455 4.773-3.995 7.921 6.16 4.724 0 12.596-3.079 17.32 23.099 4.724 12.32 14.171 30.799 9.447-4.62 11.022-2.984 10.137 1.636 21.16-9.24 6.298-.192 8.216-6.351 16.088-.385.493 3.656 6.84 9.335 6.84-1.54 12.596-6.16 7.873-4.62 26.767-12.127-.245-7.22 14.122-15.4 12.596.481 9.005 4.668 9.792 3.08 18.894-6.16 1.575-6.16 1.575-9.24 6.299l-4.62-1.575c-1.54 7.873-4.619 9.447 0 17.32 0 0-5.967.197-7.7 0-.144 2.707 2.648 3.445 3.081 6.298-.24 1.132-8.76 6.101-15.4 6.299-1.732 3.887 4.62 8.02 4.235 9.988-7.22 1.427-10.395 10.48-10.395 10.48s3.705 1.526 3.08 3.15c-1.972-1.477-3.08-1.575-6.16-1.575-1.54.394-5.293-.096-8.892 6.114-3.95 1.332-5.814.85-8.81 4.901-1.327-3.859-3.235.037-5.568 1.534-2.331 1.5-5.471 5.226-5.893 5.067.097-1.083 1.444-5.02 1.444-5.02l-7.7 1.575-.948.097c-.606.061-.444-4.596-1.903-4.427-1.459.17-5.634 5.857-7.057 6.035-1.42.178-1.87-1.81-3.095-1.636-1.224.173-3.611 5.999-4.478 6.153-.867.155-4.306-3.54-7.253-3.025-15.16 5.463-17.567-10.775-19.924-1.622-3.176-1.723-2.626-.724-5.853.141-2.06.543-2.247-2.783-4.078-2.732-3.664.106-3.471 3.649-5.469 2.59-1.635-7.38-11.502-6.053-12.464-9.201-.782-3.284 4.275-3.269 5.91-5.494 1.251-3.21-1.306-4.43 3.769-7.527 6.614-4.574 2.812-6.299 3.971-9.736 2.074-4.964 2.086-6.175.354-10.554 0 0-5.15-14.171-6.16-14.171-3.08-.885-3.08 5.215-7.604 6.889-9.24 3.148-25.552-7.972-28.392-7.972-2.597.05-14.632 2.914-14.178-3.222-1.799 5.966-8.416 1.402-8.824 1.402-6.16 0-3.802 4.871-7.941 4.674-1.878-.64-20.837-1.771-20.837-1.771v3.15l-12.32-6.3-10.78-3.148c-9.24-3.15-4.62-11.022-20.02-6.299v-9.447h-7.699c3.08-18.895 0-9.447-1.54-26.767l-6.16 1.575c-6.16-8.513 8.565-6.89-4.62-12.596 0 0 .24-9.399-3.08-6.299-.674.394 1.54 4.724 1.54 4.724-12.32-1.574-15.4-4.724-15.4-17.32 0 0 10.154 1.477 9.24 0-1.444-2.361-3.32-17.713-2.984-18.747-.144-2.067 9.433-7.282 7.58-12.253 1.179-.443 4.643-.49 4.643-.49" fill="#fff"/><path stroke-linejoin="round" d="M527.55 303.26c-.493 1.108-.405 2.215.104 3.005.914-1.371.142-2.003-.104-3.005z" stroke="#fff" stroke-linecap="round" stroke-width="2.249" fill="none"/><path stroke-linejoin="round" d="M131.51 178.94s-2.583-.316-2.003 1.95c.844-1.74 1.95-1.844 2.003-1.95zM132.09 173.67c-1.423.053-3.163-.21-2.583 2.055.844-1.739 2.53-1.95 2.583-2.055zM141.81 203.87s2.214-.158 1.634 2.108c-.844-1.74-1.58-2.002-1.634-2.108z" stroke="#fff" stroke-width="2.108" fill="none"/></svg>