<svg xmlns="http://www.w3.org/2000/svg" height="480" width="640"><defs><clipPath id="a" clipPathUnits="userSpaceOnUse"><path fill-opacity=".67" d="M0 0h640v480H0z"/></clipPath></defs><g clip-path="url(#a)"><path fill="#006" d="M-374-16H650v512H-374z"/><path d="M-374 240L650 496V-16L-374 240z" fill-rule="evenodd" fill="#bd1021"/><path d="M650 11.429v457.14l-914.29-228.57L650 11.429z" fill-rule="evenodd" fill="#fff"/><g stroke="#000"><path stroke-linejoin="round" d="M478 297.4s-6.392-5.231 1.163-13.658c-4.068-3.486-.29-10.17-.29-10.17s-6.975-2.615.29-13.366c-5.23-3.487-2.906-11.333-2.906-11.333s-17.144-6.393-.87-12.494c-13.368 5.81-25.863-7.847-25.863-7.847l-19.468.582c-3.302-16.172-28.97-2.127-9.888-48.52-4.94-.872-10.461-2.324-15.982 1.744-5.522 4.067-21.212 12.784-30.51 4.067s6.1-21.212 6.392-21.502c.29-.29 20.63-10.751 23.536-17.725-.29-5.231-6.682-9.298-.872-20.631 6.683-10.752 47.651-20.922 66.26-24.409 9.007-4.068 13.076-11.914 13.076-11.914l2.034 7.555s41.262-12.204 43.296-18.015.872 5.23.872 5.23c16.272-1.453 36.903-15.4 39.809-9.008 13.657-2.615 39.81-14.238 39.81-14.238s9.007-.29 2.614 9.59c4.068 6.392-1.162 11.913-1.452 11.913-.292 0 1.742 6.393-3.488 9.88 1.745 5.52-3.197 9.88-3.197 9.88s2.326 6.683-6.973 10.17c.872 5.811-5.23 6.974-5.23 6.974s.872 6.102-3.196 8.717c0 4.65-4.65 6.974-4.65 6.974s2.906 1.743-1.163 4.649c-4.067 2.906-46.2 28.767-46.2 28.477 0-.29 30.8 5.52 32.834 6.683s25.281 16.564 25.281 16.564l-23.538 29.057s-26.151-2.905-27.313-1.452 5.52 2.034 6.973 4.358c1.454 2.324 3.778 7.847 8.427 7.265 4.65-.582-8.717 8.427-17.434 9.299 0 3.196 11.041 3.486 13.947.872 2.906-2.616-6.974 7.554-8.137 9.007s13.077-2.034 13.077-2.034-2.325 9.589-14.82 12.495c4.94 8.136 2.906 13.367 2.615 13.367s-8.136-8.137-15.691-6.684c2.034 7.846 8.137 15.11 9.88 16.273 1.743 1.162-13.657.87-15.69-3.488s-3.78 10.461 1.742 15.111c-6.392.29-11.914-3.488-11.914-3.488s-3.776 8.717-1.162 13.077c2.616 4.359-9.007-8.718-9.007-8.718l-22.084 9.299-4.94-8.427z" fill-rule="evenodd" stroke-width="1.760875" fill="#9c3900"/><path d="M307.325 280.1c.518 0 32.082-.518 46.572-8.797 7.244 11.384 17.076 19.146 17.076 19.146l4.658-16.558s11.384.517 12.418 3.105c-1.552 3.103-2.07 7.243-2.07 7.243s7.762.519 8.28 1.553c.517 1.035-2.07 9.831-2.07 9.831l33.117 7.762s2.587-12.936 5.175-11.384c2.587 1.553 13.971 17.594 30.012 18.629s17.076-13.455 17.076-13.455l3.622 2.071s6.727-14.488 7.762-14.488 2.588 2.07 11.384 2.07c2.587 3.104 3.623 10.347 3.623 10.347s-9.833 9.833-6.728 17.595 3.623 5.691 3.623 5.691l71.408 17.076s3.624 5.693-2.586 8.798c0 .517-71.927-16.56-71.927-16.56s-6.728 7.762-11.902 6.21-1.552 3.105-1.552 3.105l77.618 6.21s5.692 7.244 1.552 9.314c-5.174.517-83.827-5.174-83.827-5.174s-4.658 9.83-9.832 1.552c-3.621 5.691-7.762-1.552-7.762-1.552s-6.726 5.174-7.762-.519c-5.692 4.14-9.314-2.586-9.314-2.586l-33.117-2.071-2.07 3.105s5.692 1.552-3.105 5.175c-8.796 3.622 52.78 2.07 54.333 2.587 1.552.518-4.14 5.175-4.14 5.175s31.566 2.07 37.257-4.657c5.692-6.728-2.07 8.796-2.07 8.796s24.839-1.034 24.839-2.07-.519 7.763-17.594 6.727c10.349 6.728 23.285 10.867 23.285 10.867s-12.936 3.105-27.942-.517c2.586 6.727 13.972 12.936 13.972 12.936s-8.28 7.245-26.91-10.35c5.176 9.315 1.036 12.938.519 11.902-.518-1.035-9.314-13.971-30.012-18.628 12.936 8.279 7.243 11.902 7.243 11.902s-6.726-11.902-17.593 0c-4.14-10.867-20.181-17.076-39.844-18.112-6.21-7.243-9.831-5.174-24.32-9.314-8.279-9.313-20.18-19.663-20.18-19.663s.517-13.971 14.488-12.419c1.552 4.657 1.552 3.105 1.552 3.105s15.524-5.693 20.181 2.07c6.727-11.903 16.041-1.78 17.594 2.359 4.458.654 26.907 1.262 26.907 1.262s-2.588-4.657-1.035-4.139c1.552.517 13.971-4.657 13.454-6.21-.518-1.552-1.035-6.726 1.034-6.209 2.071.517-17.593-2.588-28.46 5.693-3.622-3.623-1.035-13.455-1.035-13.455l-32.081-6.726-1.553 8.279s-9.314 1.552-8.796-.517c.517-2.071-2.07 7.243-2.07 7.243s-12.42-3.105-12.42-3.622 3.623-18.628 3.623-18.111c0 .518-10.35 1.035-24.838 11.902-4.14-12.936-36.74-30.012-36.74-30.53z" fill-rule="evenodd" stroke-width="1.4087pt" fill="#ffc221"/><path d="M385.98 284.763l-6.727 30.013M392.188 296.146l-2.07 9.831M425.307 303.908l-3.105 9.314M482.748 367.031c-.517 0-16.558 2.07-18.629 1.553-2.069-.517 25.356 8.279 25.356 11.9M453.771 370.666s-16.042-10.348-18.629-9.314c-2.587 1.035 16.041-.517 17.594-2.07M420.65 358.762s-16.558.517-18.11-1.035 16.04 11.384 19.145 10.35M388.567 351.508c-.518 0-11.385-4.14-16.041-5.176 4.14 4.14 7.244 9.833 17.593 11.902M392.707 344.788c-.518-1.035-20.698-7.245-20.698-10.35 4.657 1.553 11.384 3.622 17.593 2.07M499.822 320.981l-2.07 9.313" stroke-width="1.4087pt" fill="none"/><path d="M347.688 237.67s-21.734 18.628 0 29.494c1.034-7.244 2.587-8.278 2.587-8.278s18.11 6.726 28.977-9.315c-4.657-6.726-12.937-4.139-12.937-4.139s-17.076 0-18.628-7.761z" fill-rule="evenodd" stroke-width="1.4087pt" fill="#ffc221"/><path d="M365.8 245.954l-15.006 12.936M412.016 335.8s3.459 3.814.354 8.471M484.819 339.618l-5.691.519M438.247 336.505l10.349 1.552M466.083 309.895s.29 10.46-8.427 10.17c-8.717-.291-5.812.29-5.812.29" stroke-width="1.4087pt" fill="none"/><path d="M472.774 308.148s3.487 1.162 2.616 3.778c-.872 2.614.871 10.17-9.298 17.434-10.753 2.324-9.59-9.007-9.59-9.007" stroke-width="1.4087pt" fill="none"/><path d="M476.55 311.346s6.392-3.777 7.264 2.325c.871 6.101-5.23 17.434-9.589 19.178-4.36 1.743-9.298-.291-8.718-3.196M484.396 313.966s5.813-4.65 7.555 1.452c1.744 6.103-4.649 19.76-7.265 20.05M492.524 315.417s2.907-1.453 4.94.29M483.227 336.336c-1.162.29-6.102.58-7.845-3.196M457.082 326.165c-.29 0-6.102.292-6.102.292M479.452 349.127l-.58-9.59-2.325-3.195-4.068 4.068s-.582 9.589-2.325 10.46M472.479 340.111c-.29-.58-3.197-6.1-3.197-6.1l-4.94 6.1s-.58 8.719-2.324 9.59M464.336 339.815c0-.29-2.034-5.81-2.034-5.81s-5.81 3.196-6.392 5.52c-.58 2.325-.872 8.717-2.325 9.299M455.912 338.364s.582-5.23-1.162-5.23c-1.742 0-9.589 7.265-9.88 13.657" stroke-width="1.4087pt" fill="none"/><path stroke-linejoin="round" d="M348.402 237.825s2.905-2.906 3.777-6.392c.872-3.487-1.162-7.265 2.325-10.461 3.487-3.197 49.397-22.665 53.176-26.443 3.777-3.777 10.75-11.913 11.623-13.657.871-1.743 3.487 8.717-4.359 13.367 8.427-2.325 13.948-4.94 17.434-3.778-3.487 4.94-12.785 13.077-17.144 13.077 10.17-3.778 19.469-6.975 22.084-4.94 2.615 2.034-12.495 12.204-18.597 12.785 10.17-2.615 23.828-6.683 25.57-2.325-5.52 1.744-3.778 3.195-15.11 9.59-1.452 1.163-8.716 1.452-8.716 1.452 8.717-.872 20.63-4.359 21.792 2.034-6.973 2.615-9.588 6.102-15.4 7.555-5.811 1.454-19.178 4.068-27.315 7.265-8.136 3.196-20.05 12.495-20.05 12.495s-25.86.872-25.86.58c0-.29-4.94-11.913-5.23-12.204z" fill-rule="evenodd" stroke-width="1.4087pt" fill="#fff"/><path d="M360.605 235.797s.29-5.81 2.906-7.845c2.615-2.034 15.692-6.975 18.598-11.333 2.905-4.359-4.359 7.555-3.197 10.751M365.836 227.077s6.393 2.326 4.94 7.265" stroke-width="1.4087pt" fill="none"/><path d="M373.39 230.422a4.795 4.795 0 11-9.588 0 4.795 4.795 0 019.589 0z" stroke-width="1.22334pt" fill="none"/><path d="M570.116 220.104l50.27 9.59s5.521-6.394 2.615-9.88c7.555-1.743 5.52-11.623 5.52-11.623s8.718-3.777 1.453-12.496c4.942-4.94-1.162-8.717-1.162-8.717s2.034-8.717-4.359-9.589c1.744-6.973-11.041-9.298-11.041-9.298s-26.443 7.264-45.04 7.846c6.102 6.102-2.325 9.88-2.325 9.88s4.94 3.486 3.487 6.392c-1.453 2.906.872 6.102-5.52 8.137 8.426 3.778-.873 10.169-.873 10.169s9.299 6.393 6.975 9.589z" fill-rule="evenodd" stroke-width="1.4087pt" fill="#fff"/><path d="M565.171 209.356s44.459 5.23 46.493 5.23 9.88 2.616 11.333 5.23M567.495 206.735l61.893 1.453M567.791 205.285s58.697-3.487 62.765-9.59M569.524 192.5s58.988-6.394 59.57-5.522M567.495 185.234s57.244-9.007 57.825-7.555M404.193 148.332s18.016 19.76 16.272 33.126" stroke-width="1.4087pt" fill="none"/><path d="M419.303 170.997s5.811 8.426 8.136 9.298 22.666 2.034 23.828 10.752c1.162 5.52-4.358 3.777-3.486 7.845 1.452 5.23 15.11 11.913 29.929 4.068M464.055 207.031s12.203 18.016 30.219-1.452M484.974 213.427s14.82 7.845 27.023-12.495M496.3 215.16s7.264 6.102 22.376-2.033M539.603 204.989s22.375 4.648 23.828 6.102M548.027 200.058c.29 0 15.692.582 15.692.582M538.434 191.337s26.733-1.743 30.22 3.778M526.812 182.91s37.486 1.453 39.228 3.487M535.236 221.26s6.393-1.743 7.265-.871M520.713 236.952s8.426 7.265 19.179 4.068M525.361 249.166s9.59 4.358 20.922 1.742M528.559 256.42s9.589 6.393 15.982 5.23M524.206 260.21s6.683 4.94 6.973 7.555M514.909 266.014s2.034 10.46 9.299 14.237M509.964 270.662s-3.196 13.658 4.94 22.084M501.54 281.41c0 .29-.58 6.393-.29 6.975M449.235 228.528l15.692-.872s5.81-2.324 1.742-6.101M468.703 225.049c.292 0 14.82 1.162 18.598 5.52 3.777 4.359 8.427 13.076 11.041 14.53 2.616 1.452 3.197-.582 3.197-.582M495.145 242.192s-7.845 13.368-1.743 17.436M490.778 257.012s-6.973 9.299-1.453 13.948M487.876 269.789s-5.521 9.009 1.163 15.11M485.439 245.897c-.375.375-6.75 4.874-9 3.75M478.691 260.14s2.624 2.624 4.874 2.249M479 273.776l4.189 2.872M479.564 284.214l3.624 2.186M413.933 141.701s7.64 3.973 13.75 0c6.112-3.972 35.446-18.944 43.085-21.39 7.638-2.444 11.917-16.5 13.445-22.61M478.41 114.2l42.779-12.527s7.028-5.806 7.333-16.5M525.46 96.784s42.778-4.278 42.778-20.167M561.523 87.616s44.917-12.223 49.196-16.806" stroke-width="1.4087pt" fill="none"/><path d="M436.233 151.48s27.195-14.057 31.473-15.584c4.277-1.528 14.055-13.75-.611-13.75" stroke-width="1.4087pt" fill="none"/><path d="M449.376 156.979c.306 0 22.305-14.362 29.639-16.195 3.973-5.5 1.834-11.305-4.888-10.083" stroke-width="1.4087pt" fill="none"/><path d="M480.846 137.118c.612-.306 11.918-.612 7.945 8.25-5.803 4.278-30.861 16.806-30.861 16.806M475.042 127.645l47.67-15.89s3.973-8.25-1.832-9.472M560.607 87.921c0 .306 6.112 3.667 2.445 9.167-6.722 3.973-38.5 11.612-38.5 11.612M608.883 83.033l-44.918 12.528M605.516 93.117l-39.11 11.917M602.164 102.895l-34.53 10.389M595.74 112.672c-.917 0-25.667 7.64-25.667 7.64M590.246 120.312l-15.89 6.417M586.273 128.867c-.61 0-13.75 5.805-13.75 5.805M582.3 135.895L570.08 141.7M561.213 149.035s1.528.611 1.222 2.445M530.348 165.84s5.195 1.834.306 6.723c-2.444 3.361-9.472 2.445-13.75 8.556M563.664 97.395s6.418 1.528 1.528 9.778c-12.834 4.889-38.807 12.833-38.807 12.833s-1.221 2.14-4.582 3.973c-3.361 1.833-40.334 12.222-40.334 12.222M565.805 106.867s7.028 3.056 0 8.25c-7.945 4.584-35.751 13.14-35.751 13.14s-.306 2.444-1.527 3.36c-1.223.917-37.89 13.14-37.89 13.14" stroke-width="1.4087pt" fill="none"/><path d="M567.636 115.116s7.334 2.14.917 8.25c-7.639 4.584-32.084 12.834-32.084 12.834s-2.444 3.056-6.417 4.278c-3.972 1.222-29.333 11.611-29.333 11.611M569.468 123.367c2.14.917 7.945 1.834.917 7.334-8.25 3.666-28.417 11.611-28.417 11.611l-1.834 3.361-32.083 13.75M571.299 131.618s3.055 3.667-3.667 7.945c-7.334 3.972-23.222 10.083-23.222 10.083M567.636 140.173s3.361 2.139-.915 5.195c-4.89 2.444-24.14 12.528-24.14 12.528l-12.529 8.25" stroke-width="1.4087pt" fill="none"/><path d="M523.629 112.061c0 .306 5.195 4.583 3.36 9.472 4.585 3.362 3.668 7.028 3.668 7.028s6.416 3.667 5.5 8.862c6.417 1.528 6.111 5.194 6.111 5.194l-2.14 3.361s6.417-.305.918 7.945c3.36 1.833 1.834 3.972 1.834 3.972M541.04 154.229c-.917 0-22.305 7.945-27.806 12.834" stroke-width="1.4087pt" fill="none"/><path d="M489.411 144.757s6.417-.306 5.501 6.722c7.334-2.444 5.805 4.584 5.805 4.584s8.555-3.362 7.028 7.333c5.5-1.222 4.583 4.278 4.583 4.278s4.89-.306 4.89 2.444c3.36-3.055 7.028-1.527 7.028-1.527s2.444-3.362 5.805-2.445M495.215 151.174c0 .61-28.723 16.5-28.723 16.5M500.709 156.367l-21.695 13.445M508.048 163.09c0 .305-18.945 11.306-18.945 11.306M512.33 167.368s-13.444 11-16.5 10.39M516.909 170.73s-7.64 5.805-14.056 8.555M524.854 168.285s2.444 3.056-12.833 11" stroke-width="1.4087pt" fill="none"/></g></g></svg>