<svg xmlns="http://www.w3.org/2000/svg" height="480" width="640" version="1"><g stroke-width="1pt"><path fill="#006" d="M0 0h640v480H0z"/><path d="M0 0v27.95L307.037 250h38.647v-27.95L38.647 0H0zm345.684 0v27.95L38.647 249.999H0v-27.95L307.037 0h38.647z" fill="#fff"/><path d="M144.035 0v249.999h57.614V0h-57.614zM0 83.333v83.333h345.684V83.333H0z" fill="#fff"/><path d="M0 100v50h345.684v-50H0zM155.558 0v249.999h34.568V0h-34.568zM0 249.999l115.228-83.333h25.765L25.765 249.999H0zM0 0l115.228 83.333H89.463L0 18.634V0zm204.691 83.333L319.919 0h25.765L230.456 83.333h-25.765zm140.993 166.666l-115.228-83.333h25.765l89.463 64.7v18.633z" fill="#c00"/><g fill-rule="evenodd" fill="#fff"><path d="M299.762 392.523l-43.653 3.795 6.014 43.406-30.187-31.764-30.186 31.764 6.014-43.406-43.653-3.795 37.678-22.364-24.243-36.494 40.97 15.514 13.42-41.712 13.42 41.712 40.97-15.514-24.242 36.494zM486.528 432.528l-10.537-15.854 17.808 6.742 5.825-18.125 5.825 18.125 17.808-6.742-10.537 15.854 16.369 9.718-18.964 1.65 2.616 18.851-13.117-13.794-13.117 13.794 2.616-18.85-18.964-1.651zM486.528 150.433l-10.537-15.856 17.808 6.742 5.825-18.121 5.825 18.121 17.808-6.742-10.537 15.856 16.369 9.717-18.964 1.65 2.616 18.851-13.117-13.794-13.117 13.794 2.616-18.85-18.964-1.651zM380.742 265.033l-10.537-15.853 17.808 6.742 5.825-18.125 5.825 18.125 17.808-6.742-10.537 15.853 16.369 9.719-18.964 1.65 2.616 18.85-13.117-13.794-13.117 13.795 2.616-18.851-18.964-1.65zM580.586 236.824l-10.558-15.854 17.822 6.742 5.782-18.125 5.854 18.125 17.772-6.742-10.508 15.854 16.362 9.718-18.971 1.65 2.609 18.851-13.118-13.794-13.117 13.794 2.61-18.85-18.936-1.651zM541.938 319.936l-10.367 6.425 2.913-11.841-9.316-7.863 12.165-.896 4.605-11.291 4.606 11.29 12.165.897-9.316 7.863 2.912 11.841z"/></g></g></svg>