<svg xmlns="http://www.w3.org/2000/svg" height="480" width="640" version="1.0"><g stroke-width="1pt"><g fill-rule="evenodd"><path fill="#c33" d="M0 160h639.996v160H0z"/><path fill="#09c" d="M0 0h639.996v160H0z"/><path fill="#093" d="M0 320h639.996v160H0z"/></g><path d="M434.468 239.33c.056 69.89-56.62 126.612-126.51 126.612-69.89.113-126.655-56.525-126.711-126.415-.169-69.89 56.412-126.696 126.302-126.809 69.89-.222 126.747 56.318 126.915 126.208v.404z" fill="#fff"/><path d="M441.502 239.33c.046 57.465-46.555 104.103-104.02 104.103-57.465.092-104.14-46.472-104.186-103.937-.138-57.465 46.389-104.178 103.854-104.27 57.465-.182 104.214 46.307 104.352 103.772v.332z" fill="#c33"/><path fill-rule="evenodd" fill="#fff" d="M448.536 168.99l13.463 37.843 36.281-17.247-17.247 36.28 37.843 13.464-37.843 13.463 17.247 36.281L462 271.827l-13.464 37.843-13.463-37.843-36.281 17.247 17.247-36.28-37.843-13.464 37.843-13.463-17.247-36.281 36.28 17.247z"/></g></svg>