<svg xmlns="http://www.w3.org/2000/svg" height="480" viewBox="0 0 512 512" width="640" version="1.0"><defs><clipPath id="a" clipPathUnits="userSpaceOnUse"><path fill-opacity=".67" d="M-85.333 0h682.67v512h-682.67z"/></clipPath></defs><g fill-rule="evenodd" clip-path="url(#a)"><path fill="#009" d="M-85.333 0h682.67v512h-682.67z"/><path d="M-85.333 0l682.67 512V0h-682.67z" fill="#fc0"/><path fill="#fff" d="M-21.46 75.087L-45.857 57.36l-24.397 17.726 9.319-28.68-24.397-17.726h30.155L-45.857 0l9.319 28.68h30.155L-30.78 46.406zM30.093 111.977L5.696 129.703l9.319-28.68-24.397-17.726h30.155l9.32-28.68 9.319 28.68h30.155L45.17 101.022l9.32 28.68zM81.639 184.313l9.319-28.68-24.397-17.726h30.155l9.32-28.68 9.319 28.68h30.155l-24.397 17.725 9.32 28.68-24.397-17.725zM166.906 210.252l-24.397-17.725h30.155l9.32-28.68 9.319 28.68h30.155l-24.397 17.725 9.32 28.68-24.397-17.725-24.397 17.726zM218.458 247.137h30.155l9.32-28.68 9.319 28.68h30.155l-24.397 17.725 9.32 28.68-24.397-17.725-24.397 17.726 9.319-28.68zM324.563 301.747l9.32-28.68 9.319 28.68h30.155l-24.397 17.725 9.32 28.68-24.397-17.725-24.397 17.726 9.319-28.68-24.397-17.726zM409.823 327.687l9.319 28.68h30.155L424.9 374.092l9.32 28.68-24.397-17.725-24.397 17.726 9.319-28.68-24.397-17.726h30.155zM485.773 382.297l9.319 28.68h30.155l-24.397 17.725 9.32 28.68-24.397-17.725-24.397 17.726 9.319-28.68-24.397-17.726h30.155zM571.042 465.597h30.155L576.8 483.322l9.32 28.68-24.397-17.725-24.397 17.726 9.319-28.68-24.397-17.726h30.155l9.32-28.68z"/></g></svg>