<svg xmlns="http://www.w3.org/2000/svg" height="480" width="640"><g fill-rule="evenodd"><g stroke-width="1pt"><path fill="#00009d" d="M0 0h213.337v480H0zM426.662 0H640v480H426.662z"/><path fill="#ffd400" d="M213.337 0h213.338v480H213.337z"/></g><path d="M320.308 387.582c11.615.811 5.198-.527 16.813.284l.81-68.884h44.574c-.264-82.27 31.692-151.61 69.823-210.388 2.292-2.949.794-4.217-1.75-3.565-28.778 4.495-58.385 19.604-78.666 40.577-2.366 2.905.34 3.357 1.678 3.185 11.106-3.33 8.918 9.109 8.113 14.1-11.384 36.369-21.32 71.609-24.967 113.457-.004 2.91-.462 5.027-1.842 5.168-5.133.27-10.153.196-15.342.182-1.892.017-2.305-2.073-2.43-4.051.27-42.142-.106-84.283.164-126.424.13-2.781 10.2-14.07 11.838-14.114 5.157-.133 7.33-.006 13.098-.103 1.503-.012 1.825-4.64.106-4.864-3.511 0-10.027-.321-13.538-.321-1.663.064-25.225-17.905-25.279-21.598-.27-5.672-.11-11.238-.38-16.91.309-1.396-6.579-1.717-6.484.107v15.769c-1.18 7.513 3.39 255.424 3.66 278.387z"/><path d="M319.695 387.582c-11.616.811-5.198-.527-16.814.284l-.81-68.884h-44.573c.264-82.27-31.692-151.61-69.823-210.388-2.292-2.949-.794-4.217 1.749-3.565 28.778 4.495 58.385 19.604 78.667 40.577 2.366 2.905-.34 3.357-1.678 3.185-11.107-3.33-8.918 9.109-8.113 14.1 11.384 36.369 21.319 71.609 24.966 113.457.005 2.91.463 5.027 1.843 5.168 5.132.27 10.152.196 15.342.182 1.892.017 2.305-2.073 2.43-4.051-.27-42.142.105-84.283-.165-126.424-.13-2.781-10.199-14.07-11.837-14.114-5.157-.133-7.331-.006-13.098-.103-1.503-.012-1.825-4.64-.107-4.864 3.512 0 10.027-.321 13.539-.321 1.663.064 25.224-17.905 25.278-21.598.27-5.672.111-11.238.38-16.91-.308-1.396 6.58-1.717 6.484.107v15.769c1.18 7.513-3.39 255.424-3.66 278.387z"/></g></svg>