<svg xmlns="http://www.w3.org/2000/svg" xmlns:xlink="http://www.w3.org/1999/xlink" height="1152.178" width="1627.322" version="1.0"><defs><linearGradient id="b"><stop offset="0" stop-color="#fff" stop-opacity=".314"/><stop offset=".19" stop-color="#fff" stop-opacity=".251"/><stop offset=".6" stop-color="#6b6b6b" stop-opacity=".125"/><stop offset="1" stop-opacity=".125"/></linearGradient><linearGradient id="a"><stop offset="0" stop-color="#fd0000"/><stop offset=".5" stop-color="#e77275" stop-opacity=".659"/><stop offset="1" stop-opacity=".323"/></linearGradient><radialGradient xlink:href="#b" id="c" gradientUnits="userSpaceOnUse" gradientTransform="matrix(1.35322 0 0 1.34893 -591.29 -405.034)" cx="565.077" cy="446.195" fx="565.077" fy="446.195" r="300"/></defs><path fill="#fff" fill-rule="evenodd" d="M0-7.44h1640.791v1174.71H.001z"/><g fill="#fcef3c" fill-opacity=".941" fill-rule="evenodd" stroke="#000"><path d="M1343.577 731.348c.974 110.096 1.948 113.993 1.948 113.993-48.228 47.254-53.948 64.563-68.2 79.893-18.513-26.793-47.254-16.076-47.254-16.076-5.846-25.332-36.537-47.253-36.537-47.253 42.87-3.41 116.916-25.332 122.762-34.101 19.415-29.122-7.307-117.403-7.307-117.403l34.588 20.947z" stroke-width="4.18916"/><path d="M1237.83 903.796l47.536-36.514-56.492 33.758" stroke-width="2.09458"/></g><path d="M1308.387 679.134s-59.561-24.315-120.6 18.516c-5.83 1.706-10.096 1.205-14.731.398-11.803-12.652-38.566-49.847-59.234-45.024-1.524-31.428 2.067-157.077 2.067-157.077 8.956-.344 12.056 17.223 12.056 17.223-5.167 35.825 15.501 253.528 100.24 109.54l59.937 6.201 20.265 50.223z" fill="#fcef3c" fill-opacity=".941" fill-rule="evenodd" stroke="#000" stroke-width="4.189"/><g stroke="#000"><path d="M1341.002 175.544c-51.15 18.511-51.79 28.294-102.45 73.11-40.433 16.076-100.653 55.504-104.063 64.273l3.277 12.804c-7.794 4.872-15.156-13.09-15.156-13.09 7.794-44.33 150.167-177.863 150.167-177.863l62.714 13.208 5.511 27.558z" fill="#fcef3c" fill-rule="evenodd" stroke-width="4.18916"/><path d="M1292.912 155.704l-160.272 147.12-3.41 10.717M1257.837 210.265c-16.076 28.255-45.792 38.485-45.792 38.485" fill="none" stroke-width="2.09458"/></g><g fill="#fcef3c" fill-opacity=".941" fill-rule="evenodd" stroke="#000"><path d="M282.124 731.348c-.974 110.096-1.949 113.993-1.949 113.993 48.228 47.254 53.949 64.563 68.202 79.893 18.511-26.793 47.253-16.076 47.253-16.076 5.846-25.332 36.536-47.253 36.536-47.253-42.869-3.41-116.916-25.332-122.762-34.101-19.414-29.122 7.308-117.403 7.308-117.403l-34.588 20.947z" stroke-width="4.18916"/><path d="M387.87 903.796l-47.536-36.514 56.493 33.758" stroke-width="2.09458"/></g><path d="M317.314 679.134s59.561-24.315 120.6 18.516c5.83 1.706 10.096 1.205 14.731.398 11.803-12.652 38.566-49.847 59.234-45.024 1.523-31.428-2.067-157.077-2.067-157.077-8.956-.344-12.056 17.223-12.056 17.223 5.167 35.825-15.501 253.528-100.24 109.54l-59.937 6.201-20.265 50.223z" fill="#fcef3c" fill-opacity=".941" fill-rule="evenodd" stroke="#000" stroke-width="4.189"/><g stroke="#000"><path d="M284.698 175.544c51.15 18.511 51.789 28.294 102.449 73.11 40.433 16.076 100.654 55.504 104.064 64.273l-3.278 12.804c7.795 4.872 15.157-13.09 15.157-13.09-7.795-44.33-150.168-177.863-150.168-177.863l-62.713 13.208-5.511 27.558z" fill="#fcef3c" fill-rule="evenodd" stroke-width="4.18916"/><path d="M332.787 155.704l160.273 147.12 3.41 10.717M367.862 210.265c16.076 28.255 45.792 38.485 45.792 38.485" fill="none" stroke-width="2.09458"/></g><path d="M812.85 978.038s298.5-112.32 298.5-397.772V321.715h-597v258.551c0 285.452 298.5 397.772 298.5 397.772z" fill="#2b5df2" fill-rule="evenodd"/><path d="M514.35 532.07v48.187c0 30.922 3.504 59.814 9.75 86.75h577.5c6.247-26.936 9.75-55.828 9.75-86.75V532.07h-597z" fill="#e20909" fill-rule="evenodd" stroke="#000" stroke-width="3"/><path fill="none" d="M512.85 319.538h600v660h-600z"/><path d="M615.879 449.393c.27-11.717 3.168-22.608 8.565-32.929 14.131-29.728 57.291-29.018 47.777 7.34-3.506 13.398-15.415 21.273-29.564 22.623 1.021-3.53 6.638-16.01 2.104-18.451-7.251.274-16.255 12.805-18.42 18.78-.313.858-.225 1.85-.574 2.693" fill="#fcef3c" fill-rule="evenodd" stroke="#000" stroke-width="1.13478"/><g fill="#fcef3c" stroke="#000" stroke-width="6"><path d="M597.904 450.168c-.27-11.718-3.168-22.608-8.565-32.929-14.13-29.728-57.291-29.018-47.777 7.34 3.506 13.398 15.416 21.272 29.564 22.623-1.02-3.53-6.638-16.01-2.104-18.452 7.251.274 16.255 12.805 18.42 18.781.313.858.225 1.85.574 2.693" fill-rule="evenodd" stroke-width="1.13478"/><path d="M606.056 336.643c-14.887 16.047-24.882 34.603-20.573 56.366 2.377 12.007 8.14 23.127 12.204 34.694 2.542 7.257 3.191 14.837 2.89 22.465h12.63c-.604-7.684.72-15.13 2.89-22.465 3.873-11.639 9.765-22.678 12.206-34.694 4.563-22.464-6.148-39.407-20.509-56.295l-.878-1.12-.86 1.049z" stroke-width="1.13478"/><path d="M594.277 459.063c-2.64 7.4-13.407 20.954-19.125 24.817-1.484 1.002 7.09-.577 10.928-1.419 5.034-1.103 11.578-6.467 11.424-4.574-.014 8.67 2.423 23.135 8.777 29.782l.602.64.621-.64c6.35-7.409 8.745-20.434 8.777-29.782-.153-1.893 6.39 3.47 11.425 4.574 3.838.842 12.411 2.42 10.928 1.419-5.719-3.863-16.48-17.417-19.12-24.817h-25.237z" fill-rule="evenodd" stroke-width="1.13478"/><path d="M576.879 449.791H637v9.74h-60.122z" stroke-width="1.13478"/></g><path d="M821.838 449.393c.269-11.717 3.168-22.608 8.565-32.929 14.13-29.728 57.291-29.018 47.777 7.34-3.506 13.398-15.416 21.273-29.564 22.623 1.02-3.53 6.638-16.01 2.104-18.451-7.251.274-16.255 12.805-18.42 18.78-.313.858-.225 1.85-.574 2.693" fill="#fcef3c" fill-rule="evenodd" stroke="#000" stroke-width="1.13478"/><g fill="#fcef3c" stroke="#000" stroke-width="6"><path d="M803.863 450.168c-.27-11.718-3.168-22.608-8.565-32.929-14.131-29.728-57.292-29.018-47.777 7.34 3.506 13.398 15.415 21.272 29.564 22.623-1.021-3.53-6.638-16.01-2.104-18.452 7.251.274 16.255 12.805 18.42 18.781.312.858.225 1.85.574 2.693" fill-rule="evenodd" stroke-width="1.13478"/><path d="M812.015 336.643c-14.887 16.047-24.883 34.603-20.574 56.366 2.378 12.007 8.14 23.127 12.205 34.694 2.541 7.257 3.191 14.837 2.89 22.465h12.63c-.604-7.684.72-15.13 2.89-22.465 3.873-11.639 9.765-22.678 12.205-34.694 4.564-22.464-6.148-39.407-20.508-56.295l-.878-1.12-.86 1.049z" stroke-width="1.13478"/><path d="M800.236 459.063c-2.64 7.4-13.407 20.954-19.126 24.817-1.483 1.002 7.09-.577 10.928-1.419 5.035-1.103 11.578-6.467 11.425-4.574-.014 8.67 2.423 23.135 8.777 29.782l.602.64.621-.64c6.35-7.409 8.745-20.434 8.777-29.782-.154-1.893 6.39 3.47 11.424 4.574 3.839.842 12.412 2.42 10.929 1.419-5.72-3.863-16.48-17.417-19.12-24.817h-25.237z" fill-rule="evenodd" stroke-width="1.13478"/><path d="M782.837 449.791h60.122v9.74h-60.122z" stroke-width="1.13478"/></g><path d="M1027.796 449.393c.27-11.717 3.168-22.608 8.566-32.929 14.13-29.728 57.29-29.018 47.777 7.34-3.506 13.398-15.416 21.273-29.565 22.623 1.022-3.53 6.639-16.01 2.104-18.451-7.25.274-16.254 12.805-18.42 18.78-.312.858-.225 1.85-.574 2.693" fill="#fcef3c" fill-rule="evenodd" stroke="#000" stroke-width="1.13478"/><g fill="#fcef3c" stroke="#000" stroke-width="6"><path d="M1009.822 450.168c-.27-11.718-3.168-22.608-8.566-32.929-14.13-29.728-57.29-29.018-47.777 7.34 3.506 13.398 15.416 21.272 29.565 22.623-1.021-3.53-6.639-16.01-2.104-18.452 7.25.274 16.254 12.805 18.42 18.781.312.858.225 1.85.574 2.693" fill-rule="evenodd" stroke-width="1.13478"/><path d="M1017.974 336.643c-14.887 16.047-24.883 34.603-20.574 56.366 2.377 12.007 8.14 23.127 12.205 34.694 2.541 7.257 3.19 14.837 2.89 22.465h12.63c-.604-7.684.72-15.13 2.89-22.465 3.873-11.639 9.764-22.678 12.205-34.694 4.563-22.464-6.148-39.407-20.509-56.295l-.877-1.12-.86 1.049z" stroke-width="1.13478"/><path d="M1006.195 459.063c-2.64 7.4-13.407 20.954-19.126 24.817-1.483 1.002 7.09-.577 10.928-1.419 5.034-1.103 11.578-6.467 11.425-4.574-.015 8.67 2.423 23.135 8.776 29.782l.602.64.622-.64c6.35-7.409 8.745-20.434 8.777-29.782-.154-1.893 6.39 3.47 11.424 4.574 3.839.842 12.411 2.42 10.928 1.419-5.718-3.863-16.479-17.417-19.12-24.817h-25.236z" fill-rule="evenodd" stroke-width="1.13478"/><path d="M988.796 449.791h60.122v9.74h-60.122z" stroke-width="1.13478"/></g><path d="M756.385 623.738l54.449-22.183-22.183 54.449 24.2-16.133 24.2 16.133-22.184-54.45 54.45 22.184-16.134-24.2 16.133-24.2-54.449 22.184 22.183-54.45-24.2 16.134-24.199-16.133 22.183 54.449-54.449-22.183 16.133 24.2-16.133 24.199z" fill="#fff" stroke="#000" stroke-width="3"/><g fill="#fcef3c" stroke="#000" stroke-width="5.839"><path d="M343.883-131.545c43.2 3.116 45.787-50.913 46.046-51.172.792-.788-8.022 54.331 36.623 59.014 42.6 4.411 47.316-49.453 47.586-49.7.822-.757-10.199 53.948 31.85 60.034 41.745 7.927 48.996-47.434 49.28-47.674.854-.72-12.453 53.493 30.97 61.558 41.127 8.994 52.043-43.963 52.352-44.306l-21.147 79.14c.318.022-142.452-41.386-311.886-41.386-167.536 0-317.898 41.734-317.602 41.885l-20.51-79.768.079-.46c.297.215 11.213 53.171 52.34 44.178 43.423-8.066 30.116-62.28 30.97-61.559.284.24 7.535 55.602 49.28 47.675 42.049-6.087 31.028-60.791 31.85-60.035.27.248 4.986 54.112 47.586 49.7 44.645-4.682 35.831-59.802 36.622-59.014.26.26 2.847 54.288 46.047 51.172 45.344-.519 42.263-56.261 42.969-55.395.232.284-2.768 54.296 38.56 55.984M1.543 1.05s139.534-39.702 298.56-39.702c160.828 0 299.485 39.28 299.146 39.31 4.44-3.475 4.44-3.475 3.422-9.503-.061.342-140.396-39.408-303.108-39.408C138.673-48.253-2.494-8.19-2.362-8.45c-.823 6.111-.873 5.997 3.905 9.5z" fill-rule="evenodd" transform="matrix(.28619 0 0 .28108 594.847 761.051)"/><path d="M-9.91-55.903s145.37-41.45 311.267-41.45c167.777 0 312.62 41.008 312.267 41.04 4.631-3.628 4.631-3.628 3.57-9.921-.064.357-146.657-41.143-316.4-41.143-167.841 0-314.914 41.827-314.776 41.555-.86 6.38-.912 6.261 4.073 9.92z" fill-rule="evenodd" transform="matrix(.28619 0 0 .28108 594.847 761.051)"/><path d="M296.844-97.344C131.135-97.344-9.524-56-9.844-55.906l7.156 46.968 1.75.126C6.58-10.774 143.364-48.25 299.567-48.25c154.45 0 288.042 35.75 301.745 39.094l1.407-.25L613.53-56.25l-.187-.125c-2.73-.869-150.476-40.969-316.5-40.969z" fill-rule="evenodd" transform="matrix(.28619 0 0 .28108 594.847 761.051)"/><g fill-rule="evenodd"><path d="M301.344-97.344c-29.155 0-40.434.022-67.643 2.132-2.513.73-11.747 4.788-10.188 25.063 1.802 23.424 13.532 23.437 13.532 23.437l.593.25c25.436-1.894 34.783-1.788 61.924-1.788 22.772 0 39.989.787 61.56 2.125l2.281-1.125s10.787.054 11.688-24.272C375.991-95.848 363.403-95 363.403-95l-.78-.281c-21.511-1.293-38.633-2.063-61.28-2.063z" transform="matrix(.28619 0 0 .28108 594.847 761.051)"/><path d="M300.988-92.155c-26.096 0-36.191.017-60.546 1.667-2.25.57-10.514 3.743-9.119 19.594 1.613 18.313 12.112 18.323 12.112 18.323l.532.195c22.766-1.48 31.133-1.398 55.427-1.398 20.382 0 35.793.615 55.1 1.661l2.043-.88s9.655.043 10.461-18.975c.806-19.017-10.461-18.355-10.461-18.355l-.7-.22c-19.253-1.01-34.578-1.612-54.849-1.612z" transform="matrix(.28619 0 0 .28108 594.847 761.051)"/></g><path d="M47.375-69.844C11.661-62.2-9.72-55.943-9.844-55.906l7.156 46.968.594.032c21.08-5.923 37.364-9.717 57.782-14.125l1.843-1.657s10.159-2.797 4.563-25.906c-3.983-16.445-10.997-19.09-14.719-19.25z" fill-rule="evenodd" transform="matrix(.28619 0 0 .28108 594.847 761.051)"/><path d="M41.375-63.656c-1.044.055-1.688.281-1.688.281h-.718C21.883-59.515 8.024-56.23-9.156-51.469l5.687 37.344c18.71-5.252 33.213-8.717 51.344-12.781l1.688-1.375s9.091-2.501 4.812-20.594c-3.21-13.57-9.87-14.948-13-14.781zM555.094-69.844c-3.764.238-10.611 3.032-14.532 19.219-5.596 23.108 4.563 25.906 4.563 25.906l1.844 1.657c19.752 4.265 35.68 7.964 55.781 13.562l7.875-34.219 1.875-12.218c-.12-.036-19.941-5.817-53.063-13.032-1.438-.298-2.856-.572-4.343-.875z" fill-rule="evenodd" transform="matrix(.28619 0 0 .28108 594.847 761.051)"/><path d="M560.656-63.688c-3.323.064-9.366 2.06-12.375 14.782-4.279 18.093 4.813 20.594 4.813 20.593l1.687 1.375c17.408 3.902 31.504 7.28 49.157 12.188l6.656-28.813 1.218-7.937c-17.18-4.762-31.04-8.047-48.125-11.906h-.718s-.644-.226-1.688-.282c-.195-.01-.403-.004-.625 0z" fill-rule="evenodd" transform="matrix(.28619 0 0 .28108 594.847 761.051)"/><path transform="matrix(.28619 0 0 .28108 657.565 809.758)" d="M-61.158-234.44a15.29 15.29 0 11-30.58 0 15.29 15.29 0 1130.58 0z"/><path transform="matrix(.28619 0 0 .28108 747.996 809.757)" d="M-61.158-234.44a15.29 15.29 0 11-30.58 0 15.29 15.29 0 1130.58 0z"/><path transform="matrix(.65326 0 0 .642 635.086 866.958)" d="M-61.158-234.44a15.29 15.29 0 11-30.58 0 15.29 15.29 0 1130.58 0z" stroke-width="2.557"/><path transform="matrix(.65326 0 0 .642 658.135 860.917)" d="M-61.158-234.44a15.29 15.29 0 11-30.58 0 15.29 15.29 0 1130.58 0z" stroke-width="2.557"/><path transform="matrix(.65326 0 0 .642 681.953 857.142)" d="M-61.158-234.44a15.29 15.29 0 11-30.58 0 15.29 15.29 0 1130.58 0z" stroke-width="2.557"/><path transform="matrix(.65326 0 0 .642 706.539 854.121)" d="M-61.158-234.44a15.29 15.29 0 11-30.58 0 15.29 15.29 0 1130.58 0z" stroke-width="2.557"/><path transform="matrix(.65326 0 0 .642 731.893 852.774)" d="M-61.158-234.44a15.29 15.29 0 11-30.58 0 15.29 15.29 0 1130.58 0z" stroke-width="2.557"/><path transform="matrix(.65326 0 0 .642 756.479 854.121)" d="M-61.158-234.44a15.29 15.29 0 11-30.58 0 15.29 15.29 0 1130.58 0z" stroke-width="2.557"/><path transform="matrix(.65326 0 0 .642 781.065 857.142)" d="M-61.158-234.44a15.29 15.29 0 11-30.58 0 15.29 15.29 0 1130.58 0z" stroke-width="2.557"/><path transform="matrix(.65326 0 0 .642 804.882 860.917)" d="M-61.158-234.44a15.29 15.29 0 11-30.58 0 15.29 15.29 0 1130.58 0z" stroke-width="2.557"/><path transform="matrix(.65326 0 0 .642 828.7 866.958)" d="M-61.158-234.44a15.29 15.29 0 11-30.58 0 15.29 15.29 0 1130.58 0z" stroke-width="2.557"/><g><path d="M343.883-131.545c43.2 3.116 45.787-50.913 46.046-51.172.792-.788-8.022 54.331 36.623 59.014 42.6 4.411 47.316-49.453 47.586-49.7.822-.757-10.199 53.948 31.85 60.034 41.745 7.927 48.996-47.434 49.28-47.674.854-.72-12.453 53.493 30.97 61.558 41.127 8.994 52.043-43.963 52.352-44.306l-21.147 79.14c.318.022-142.452-41.386-311.886-41.386-167.536 0-317.898 41.734-317.602 41.885l-20.51-79.768.079-.46c.297.215 11.213 53.171 52.34 44.178 43.423-8.066 30.116-62.28 30.97-61.559.284.24 7.535 55.602 49.28 47.675 42.049-6.087 31.028-60.791 31.85-60.035.27.248 4.986 54.112 47.586 49.7 44.645-4.682 35.831-59.802 36.622-59.014.26.26 2.847 54.288 46.047 51.172 45.344-.519 42.263-56.261 42.969-55.395.232.284-2.768 54.296 38.56 55.984M1.543 1.05s139.534-39.702 298.56-39.702c160.828 0 299.485 39.28 299.146 39.31 4.44-3.475 4.44-3.475 3.422-9.503-.061.342-140.396-39.408-303.108-39.408C138.673-48.253-2.494-8.19-2.362-8.45c-.823 6.111-.873 5.997 3.905 9.5z" fill-rule="evenodd" transform="matrix(.28619 0 0 .28108 856.644 761.051)"/><path d="M-9.91-55.903s145.37-41.45 311.267-41.45c167.777 0 312.62 41.008 312.267 41.04 4.631-3.628 4.631-3.628 3.57-9.921-.064.357-146.657-41.143-316.4-41.143-167.841 0-314.914 41.827-314.776 41.555-.86 6.38-.912 6.261 4.073 9.92z" fill-rule="evenodd" transform="matrix(.28619 0 0 .28108 856.644 761.051)"/><path d="M296.844-97.344C131.135-97.344-9.524-56-9.844-55.906l7.156 46.968 1.75.126C6.58-10.774 143.364-48.25 299.567-48.25c154.45 0 288.042 35.75 301.745 39.094l1.407-.25L613.53-56.25l-.187-.125c-2.73-.869-150.476-40.969-316.5-40.969z" fill-rule="evenodd" transform="matrix(.28619 0 0 .28108 856.644 761.051)"/><g fill-rule="evenodd"><path d="M301.344-97.344c-29.155 0-40.434.022-67.643 2.132-2.513.73-11.747 4.788-10.188 25.063 1.802 23.424 13.532 23.437 13.532 23.437l.593.25c25.436-1.894 34.783-1.788 61.924-1.788 22.772 0 39.989.787 61.56 2.125l2.281-1.125s10.787.054 11.688-24.272C375.991-95.848 363.403-95 363.403-95l-.78-.281c-21.511-1.293-38.633-2.063-61.28-2.063z" transform="matrix(.28619 0 0 .28108 856.644 761.051)"/><path d="M300.988-92.155c-26.096 0-36.191.017-60.546 1.667-2.25.57-10.514 3.743-9.119 19.594 1.613 18.313 12.112 18.323 12.112 18.323l.532.195c22.766-1.48 31.133-1.398 55.427-1.398 20.382 0 35.793.615 55.1 1.661l2.043-.88s9.655.043 10.461-18.975c.806-19.017-10.461-18.355-10.461-18.355l-.7-.22c-19.253-1.01-34.578-1.612-54.849-1.612z" transform="matrix(.28619 0 0 .28108 856.644 761.051)"/></g><path d="M47.375-69.844C11.661-62.2-9.72-55.943-9.844-55.906l7.156 46.968.594.032c21.08-5.923 37.364-9.717 57.782-14.125l1.843-1.657s10.159-2.797 4.563-25.906c-3.983-16.445-10.997-19.09-14.719-19.25z" fill-rule="evenodd" transform="matrix(.28619 0 0 .28108 856.644 761.051)"/><path d="M41.375-63.656c-1.044.055-1.688.281-1.688.281h-.718C21.883-59.515 8.024-56.23-9.156-51.469l5.687 37.344c18.71-5.252 33.213-8.717 51.344-12.781l1.688-1.375s9.091-2.501 4.812-20.594c-3.21-13.57-9.87-14.948-13-14.781zM555.094-69.844c-3.764.238-10.611 3.032-14.532 19.219-5.596 23.108 4.563 25.906 4.563 25.906l1.844 1.657c19.752 4.265 35.68 7.964 55.781 13.562l7.875-34.219 1.875-12.218c-.12-.036-19.941-5.817-53.063-13.032-1.438-.298-2.856-.572-4.343-.875z" fill-rule="evenodd" transform="matrix(.28619 0 0 .28108 856.644 761.051)"/><path d="M560.656-63.688c-3.323.064-9.366 2.06-12.375 14.782-4.279 18.093 4.813 20.594 4.813 20.593l1.687 1.375c17.408 3.902 31.504 7.28 49.157 12.188l6.656-28.813 1.218-7.937c-17.18-4.762-31.04-8.047-48.125-11.906h-.718s-.644-.226-1.688-.282c-.195-.01-.403-.004-.625 0z" fill-rule="evenodd" transform="matrix(.28619 0 0 .28108 856.644 761.051)"/><path d="M-61.158-234.44a15.29 15.29 0 11-30.58 0 15.29 15.29 0 1130.58 0z" transform="matrix(.28619 0 0 .28108 919.362 809.758)"/><path d="M-61.158-234.44a15.29 15.29 0 11-30.58 0 15.29 15.29 0 1130.58 0z" transform="matrix(.28619 0 0 .28108 1009.792 809.757)"/><path d="M-61.158-234.44a15.29 15.29 0 11-30.58 0 15.29 15.29 0 1130.58 0z" transform="matrix(.65326 0 0 .642 896.883 866.958)" stroke-width="2.557"/><path d="M-61.158-234.44a15.29 15.29 0 11-30.58 0 15.29 15.29 0 1130.58 0z" transform="matrix(.65326 0 0 .642 919.932 860.917)" stroke-width="2.557"/><path d="M-61.158-234.44a15.29 15.29 0 11-30.58 0 15.29 15.29 0 1130.58 0z" transform="matrix(.65326 0 0 .642 943.75 857.142)" stroke-width="2.557"/><path d="M-61.158-234.44a15.29 15.29 0 11-30.58 0 15.29 15.29 0 1130.58 0z" transform="matrix(.65326 0 0 .642 968.335 854.121)" stroke-width="2.557"/><path d="M-61.158-234.44a15.29 15.29 0 11-30.58 0 15.29 15.29 0 1130.58 0z" transform="matrix(.65326 0 0 .642 993.69 852.774)" stroke-width="2.557"/><path d="M-61.158-234.44a15.29 15.29 0 11-30.58 0 15.29 15.29 0 1130.58 0z" transform="matrix(.65326 0 0 .642 1018.275 854.121)" stroke-width="2.557"/><path d="M-61.158-234.44a15.29 15.29 0 11-30.58 0 15.29 15.29 0 1130.58 0z" transform="matrix(.65326 0 0 .642 1042.861 857.142)" stroke-width="2.557"/><path d="M-61.158-234.44a15.29 15.29 0 11-30.58 0 15.29 15.29 0 1130.58 0z" transform="matrix(.65326 0 0 .642 1066.679 860.917)" stroke-width="2.557"/><path d="M-61.158-234.44a15.29 15.29 0 11-30.58 0 15.29 15.29 0 1130.58 0z" transform="matrix(.65326 0 0 .642 1090.496 866.958)" stroke-width="2.557"/></g><g><path d="M343.883-131.545c43.2 3.116 45.787-50.913 46.046-51.172.792-.788-8.022 54.331 36.623 59.014 42.6 4.411 47.316-49.453 47.586-49.7.822-.757-10.199 53.948 31.85 60.034 41.745 7.927 48.996-47.434 49.28-47.674.854-.72-12.453 53.493 30.97 61.558 41.127 8.994 52.043-43.963 52.352-44.306l-21.147 79.14c.318.022-142.452-41.386-311.886-41.386-167.536 0-317.898 41.734-317.602 41.885l-20.51-79.768.079-.46c.297.215 11.213 53.171 52.34 44.178 43.423-8.066 30.116-62.28 30.97-61.559.284.24 7.535 55.602 49.28 47.675 42.049-6.087 31.028-60.791 31.85-60.035.27.248 4.986 54.112 47.586 49.7 44.645-4.682 35.831-59.802 36.622-59.014.26.26 2.847 54.288 46.047 51.172 45.344-.519 42.263-56.261 42.969-55.395.232.284-2.768 54.296 38.56 55.984M1.543 1.05s139.534-39.702 298.56-39.702c160.828 0 299.485 39.28 299.146 39.31 4.44-3.475 4.44-3.475 3.422-9.503-.061.342-140.396-39.408-303.108-39.408C138.673-48.253-2.494-8.19-2.362-8.45c-.823 6.111-.873 5.997 3.905 9.5z" fill-rule="evenodd" transform="matrix(.28619 0 0 .28108 725.745 898.357)"/><path d="M-9.91-55.903s145.37-41.45 311.267-41.45c167.777 0 312.62 41.008 312.267 41.04 4.631-3.628 4.631-3.628 3.57-9.921-.064.357-146.657-41.143-316.4-41.143-167.841 0-314.914 41.827-314.776 41.555-.86 6.38-.912 6.261 4.073 9.92z" fill-rule="evenodd" transform="matrix(.28619 0 0 .28108 725.745 898.357)"/><path d="M296.844-97.344C131.135-97.344-9.524-56-9.844-55.906l7.156 46.968 1.75.126C6.58-10.774 143.364-48.25 299.567-48.25c154.45 0 288.042 35.75 301.745 39.094l1.407-.25L613.53-56.25l-.187-.125c-2.73-.869-150.476-40.969-316.5-40.969z" fill-rule="evenodd" transform="matrix(.28619 0 0 .28108 725.745 898.357)"/><g fill-rule="evenodd"><path d="M301.344-97.344c-29.155 0-40.434.022-67.643 2.132-2.513.73-11.747 4.788-10.188 25.063 1.802 23.424 13.532 23.437 13.532 23.437l.593.25c25.436-1.894 34.783-1.788 61.924-1.788 22.772 0 39.989.787 61.56 2.125l2.281-1.125s10.787.054 11.688-24.272C375.991-95.848 363.403-95 363.403-95l-.78-.281c-21.511-1.293-38.633-2.063-61.28-2.063z" transform="matrix(.28619 0 0 .28108 725.745 898.357)"/><path d="M300.988-92.155c-26.096 0-36.191.017-60.546 1.667-2.25.57-10.514 3.743-9.119 19.594 1.613 18.313 12.112 18.323 12.112 18.323l.532.195c22.766-1.48 31.133-1.398 55.427-1.398 20.382 0 35.793.615 55.1 1.661l2.043-.88s9.655.043 10.461-18.975c.806-19.017-10.461-18.355-10.461-18.355l-.7-.22c-19.253-1.01-34.578-1.612-54.849-1.612z" transform="matrix(.28619 0 0 .28108 725.745 898.357)"/></g><path d="M47.375-69.844C11.661-62.2-9.72-55.943-9.844-55.906l7.156 46.968.594.032c21.08-5.923 37.364-9.717 57.782-14.125l1.843-1.657s10.159-2.797 4.563-25.906c-3.983-16.445-10.997-19.09-14.719-19.25z" fill-rule="evenodd" transform="matrix(.28619 0 0 .28108 725.745 898.357)"/><path d="M41.375-63.656c-1.044.055-1.688.281-1.688.281h-.718C21.883-59.515 8.024-56.23-9.156-51.469l5.687 37.344c18.71-5.252 33.213-8.717 51.344-12.781l1.688-1.375s9.091-2.501 4.812-20.594c-3.21-13.57-9.87-14.948-13-14.781zM555.094-69.844c-3.764.238-10.611 3.032-14.532 19.219-5.596 23.108 4.563 25.906 4.563 25.906l1.844 1.657c19.752 4.265 35.68 7.964 55.781 13.562l7.875-34.219 1.875-12.218c-.12-.036-19.941-5.817-53.063-13.032-1.438-.298-2.856-.572-4.343-.875z" fill-rule="evenodd" transform="matrix(.28619 0 0 .28108 725.745 898.357)"/><path d="M560.656-63.688c-3.323.064-9.366 2.06-12.375 14.782-4.279 18.093 4.813 20.594 4.813 20.593l1.687 1.375c17.408 3.902 31.504 7.28 49.157 12.188l6.656-28.813 1.218-7.937c-17.18-4.762-31.04-8.047-48.125-11.906h-.718s-.644-.226-1.688-.282c-.195-.01-.403-.004-.625 0z" fill-rule="evenodd" transform="matrix(.28619 0 0 .28108 725.745 898.357)"/><path transform="matrix(.28619 0 0 .28108 788.464 947.063)" d="M-61.158-234.44a15.29 15.29 0 11-30.58 0 15.29 15.29 0 1130.58 0z"/><path transform="matrix(.28619 0 0 .28108 878.894 947.063)" d="M-61.158-234.44a15.29 15.29 0 11-30.58 0 15.29 15.29 0 1130.58 0z"/><path transform="matrix(.65326 0 0 .642 765.984 1004.263)" d="M-61.158-234.44a15.29 15.29 0 11-30.58 0 15.29 15.29 0 1130.58 0z" stroke-width="2.557"/><path transform="matrix(.65326 0 0 .642 789.034 998.223)" d="M-61.158-234.44a15.29 15.29 0 11-30.58 0 15.29 15.29 0 1130.58 0z" stroke-width="2.557"/><path transform="matrix(.65326 0 0 .642 812.851 994.447)" d="M-61.158-234.44a15.29 15.29 0 11-30.58 0 15.29 15.29 0 1130.58 0z" stroke-width="2.557"/><path transform="matrix(.65326 0 0 .642 837.437 991.427)" d="M-61.158-234.44a15.29 15.29 0 11-30.58 0 15.29 15.29 0 1130.58 0z" stroke-width="2.557"/><path transform="matrix(.65326 0 0 .642 862.791 990.08)" d="M-61.158-234.44a15.29 15.29 0 11-30.58 0 15.29 15.29 0 1130.58 0z" stroke-width="2.557"/><path transform="matrix(.65326 0 0 .642 887.377 991.427)" d="M-61.158-234.44a15.29 15.29 0 11-30.58 0 15.29 15.29 0 1130.58 0z" stroke-width="2.557"/><path transform="matrix(.65326 0 0 .642 911.963 994.447)" d="M-61.158-234.44a15.29 15.29 0 11-30.58 0 15.29 15.29 0 1130.58 0z" stroke-width="2.557"/><path transform="matrix(.65326 0 0 .642 935.78 998.223)" d="M-61.158-234.44a15.29 15.29 0 11-30.58 0 15.29 15.29 0 1130.58 0z" stroke-width="2.557"/><path transform="matrix(.65326 0 0 .642 959.598 1004.263)" d="M-61.158-234.44a15.29 15.29 0 11-30.58 0 15.29 15.29 0 1130.58 0z" stroke-width="2.557"/></g></g><path d="M1052.903 274.5c.063 13.261-106.605 24.005-238.249 24.012-131.653.007-238.427-10.73-238.497-23.984v-.028c-.063-13.247 106.605-23.998 238.249-24.005 131.654-.007 238.434 10.73 238.497 23.984v.021z" fill="#eabe4e" stroke="#010101" stroke-width="1.0190237999999998"/><path d="M817.54 232.114c-143.728 0-260.342 18.949-260.342 42.351 0 23.403 116.61 42.456 260.342 42.456 143.72 0 260.341-19.053 260.341-42.456 0-23.402-116.62-42.35-260.341-42.35zm0 18.392c131.58 0 238.343 10.715 238.343 23.963 0 13.247-106.76 24.075-238.343 24.075-131.58 0-238.343-10.828-238.343-24.075 0-13.251 106.759-23.963 238.343-23.963z" fill="#c7af67" stroke="#010101" stroke-width="1.0190237999999998"/><path d="M691.916 249.953c-6.807.325-12.064.822-18.493 1.204.235 10.674.434 22.24.872 40.705 8.551.511 15.317 1.247 24.516 1.646l-6.895-43.555zM792.477 247.547c-10.057 0-18.608.427-28.343.546l-29.983 46.294c19.155.497 37.627 1.205 58.326 1.205 35.463 0 68.454-1.016 98.706-2.413l1.313-43.23c-30.63-1.44-63.978-2.402-100.019-2.402zM911.756 251.157l5.914 40.27c8.254-.531 16.658-1.015 24.184-1.638l-15.65-37.648c-4.783-.333-9.413-.686-14.448-.984z" fill="#faf399"/><path d="M1052.903 274.5c.063 13.261-106.605 24.005-238.249 24.012-131.653.007-238.427-10.73-238.497-23.984v-.028c-.063-13.247 106.605-23.998 238.249-24.005 131.654-.007 238.434 10.73 238.497 23.984v.021z" fill="none" stroke="#010101" stroke-width="1.0190237999999998"/><path d="M813.93 157.813c-106.196 0-199.701 16.5-258.041 41.689l15.758 58.767h5.36c39.06-15.373 131.973-26.151 240.536-26.151 108.189 0 200.696 10.757 239.982 26.046l15.65-58.22c-58.224-25.466-152.377-42.131-259.246-42.131z" fill="#e9cb53" stroke="#010101" stroke-width="1.0190237999999998" stroke-linejoin="bevel"/><g fill="none" stroke="#010101" stroke-width=".291"><path d="M577.992 190.88l3.064 11.416M584.757 214.77l3.88 14.473M592.868 244.525l2.122 7.907M598.733 198.084l3.03 11.31M606.399 225.583l3.792 14.169M623.533 181.405l2.206 8.253M628.488 202.594l4.104 15.317M636.153 234.152l1.874 6.993M650.577 185.915l2.255 11.276M656.443 213.415l2.703 15.33M674.022 168.784l1.8 11.72M678.532 193.129l2.255 15.779M683.942 225.583l.9 9.021M719.111 163.377l.9 11.714M720.911 187.718l1.8 16.68M724.066 221.08l.9 10.369M699.27 177.35l1.807 13.075M702.877 207.56l1.8 14.424M767.345 161.122v10.37M766.445 185.015v16.68M767.8 217.925v12.624M750.214 202.594v15.786M750.214 173.295v12.624" stroke-width="1.0190237999999998"/><g><path d="M1045.967 190.88l-3.064 11.416M1039.202 214.77l-3.88 14.473M1031.088 244.525l-2.122 7.907M1025.226 198.084l-3.029 11.31M1017.56 225.583l-3.792 14.169M1000.426 181.405l-2.206 8.253M995.468 202.594l-4.104 15.317M987.802 234.152l-1.873 6.993M973.379 185.915l-2.256 11.276M967.516 213.415l-2.703 15.33M949.934 168.784l-1.8 11.72M945.424 193.129l-2.256 15.779M940.013 225.583l-.9 9.021M904.848 163.377l-.9 11.714M903.048 187.718l-1.8 16.68M899.89 221.08l-.9 10.369M924.69 177.35l-1.8 13.075M921.08 207.56l-1.8 14.424M856.61 161.122v10.37M857.514 185.015v16.68M856.16 217.925v12.624M873.745 202.594v15.786M873.745 173.295v12.624" stroke-width="1.0190237999999998"/></g><path d="M810.179 159.764v10.82M810.624 184.115v17.134M810.624 217.473v12.624M791.69 201.246v15.772M792.145 171.04v13.975M826.403 171.04v12.168M826.403 201.694v15.324" stroke-width="1.0190237999999998"/></g><path d="M813.93 67.694c-106.196 0-199.701 16.5-258.041 41.69l15.758 58.773h5.36c39.06-15.373 131.973-26.162 240.536-26.162 108.189 0 200.696 10.758 239.982 26.047l15.65-58.221c-58.224-25.455-152.377-42.127-259.246-42.127z" fill="#e9cb53" stroke="#010101" stroke-width="1.0190237999999998" stroke-linejoin="bevel"/><g stroke="#010101" stroke-width=".291"><path d="M596.138 77.103l3.257 15.601.746 3.554c1.036 4.959 6.082 7.97 11.269 6.836 5.175-1.135 8.586-6.006 7.553-10.957l-.746-3.562-3.257-15.586-18.822 4.114z" fill="#e9cb53" stroke-width="1.0190237999999998"/><path d="M596.09 76.907l7.41-11.664 11.429 7.588-18.84 4.076z" fill="#ae1f23" stroke-linejoin="bevel" stroke-width="1.0190237999999998"/><path d="M609.865 86.366c.942 4.482.858 8.31-.178 8.537-1.037.228-2.63-3.232-3.569-7.721-.942-4.49-.858-8.31.179-8.538 1.037-.227 2.633 3.225 3.568 7.722z" fill="#0b070a" stroke-linejoin="bevel" stroke-width="1.0190237999999998"/></g><g stroke="#010101" stroke-width=".291"><path d="M869.542 53.305v20.027c0 5.176 4.233 9.304 9.409 9.304 5.176 0 9.41-4.128 9.41-9.304V53.305h-18.82z" fill="#e9cb53" stroke-width="1.0190237999999998"/><path d="M869.542 53.092l9.409-10.044 9.416 10.093-18.825-.05z" fill="#ae1f23" stroke-linejoin="bevel" stroke-width="1.0190237999999998"/><path d="M880.82 65.569c0 4.695-.836 8.502-1.873 8.502-1.036 0-1.873-3.807-1.873-8.502 0-4.696.837-8.503 1.873-8.503 1.037 0 1.874 3.807 1.874 8.503z" fill="#0b070a" stroke-linejoin="bevel" stroke-width="1.0190237999999998"/></g><g stroke="#010101" stroke-width=".291"><path d="M1031.153 77.103l-3.256 15.601-.746 3.554c-1.037 4.959-6.093 7.97-11.269 6.836-5.183-1.135-8.586-6.006-7.553-10.957l.738-3.562 3.264-15.586 18.822 4.114z" fill="#e9cb53" stroke-width="1.0190237999999998"/><path d="M1031.195 76.907l-7.402-11.664-11.43 7.588 18.832 4.076z" fill="#ae1f23" stroke-linejoin="bevel" stroke-width="1.0190237999999998"/><path d="M1017.416 86.366c-.935 4.482-.858 8.31.178 8.537 1.037.228 2.637-3.232 3.576-7.721.935-4.49.858-8.31-.179-8.538-1.036-.227-2.637 3.225-3.575 7.722z" fill="#0b070a" stroke-linejoin="bevel" stroke-width="1.0190237999999998"/></g><path d="M814.255 141.95c-152.84 0-276.968 23.3-276.968 51.98 0 7.291 8.17 14.267 22.65 20.567l-4.048-14.991c58.34-25.189 151.848-41.69 258.04-41.69 106.869 0 201.022 16.666 259.243 42.13l-3.831 14.225c14.014-6.212 21.777-13.076 21.777-20.24 0-28.68-124.023-51.981-276.863-51.981z" fill="#c7af67" stroke="#010101" stroke-width="1.0190237999999998" stroke-linejoin="bevel"/><g fill="none" stroke="#010101" stroke-width=".291" stroke-linejoin="bevel"><path d="M1071.126 213.205c-58.214-25.466-152.367-42.13-259.242-42.13-106.185 0-199.7 16.5-258.034 41.688" stroke-width="1.0190237999999998"/><path d="M1065.73 224.35c-58.532-24.246-150.07-40.053-253.88-40.053-101.686 0-191.37 15.226-250.05 38.629" stroke-width="1.0190237999999998"/><path d="M1061.787 239.121c-58.659-23.353-148.375-38.52-249.938-38.52-99.45 0-187.385 14.565-246.113 37.095" stroke-width="1.0190237999999998"/><path d="M1057.851 254.008c-58.718-22.478-146.687-36.99-246.002-36.99-97.238 0-183.47 13.885-242.17 35.564" stroke-width="1.0190237999999998"/></g><g stroke="#010101" stroke-width=".291"><path d="M597.42 192.786c-10.667 2.787-18.29 12.368-19.537 22.684l4.724 38.622 7.568-1.986-3.232-26.712-.505-4.15.021-.006c.603-8.268 5.446-15.695 12.288-17.488 6.843-1.793 13.02 2.745 15.524 10.211l.02-.007.498 4.157 3.232 26.704 7.928-2.07-4.675-38.635-.09.028c-3.587-9.059-13.098-14.136-23.764-11.352z" fill="#e9cb53" stroke-width="1.0190237999999998"/><path d="M598.691 203.736c-6.842 1.793-11.587 9.181-12.183 17.46l-.063.014.498 4.15 3.298 27.243 27.84-7.29-3.3-27.237-.496-4.15h0c-2.497-7.459-8.751-11.983-15.594-10.19z" fill="#191f11" stroke-width="1.0190237999999998"/><path d="M579.183 222.428l7.637-2M614.057 213.303l8.303-2.171M580.828 236.05l7.645-2M615.703 226.925l8.303-2.178M590.584 209.913l-8.653-5.519M607.967 205.276l6.864-9.622" fill="#e9cb53" stroke-width="1.0190237999999998"/></g><g stroke="#010101" stroke-width=".291"><path d="M812.049 172.174c-10.702 0-19.246 7.56-21.673 17.516l.05 39.724h7.588V197.674h.02c1.563-8.086 7.148-14.224 14.015-14.224 6.867 0 12.34 6.142 13.892 14.224h.02V229.414h7.957V189.69h-.098c-2.417-9.96-11.077-17.516-21.771-17.516z" fill="#e9cb53" stroke-width="1.0190237999999998"/><path d="M811.993 183.418c-6.864 0-12.347 6.142-13.899 14.225h-.07V229.922h27.941v-32.28h0c-1.555-8.089-7.109-14.224-13.972-14.224z" fill="#191f11" stroke-width="1.0190237999999998"/><path d="M790.825 196.963h7.665M825.815 196.963h8.33M790.825 210.97h7.665M825.815 210.97h8.33M803.386 187.47l-7.764-7.764M820.835 187.375l7.809-7.802" fill="#e9cb53" stroke-width="1.0190237999999998"/></g><g fill="none" stroke="#010101" stroke-width=".291"><path d="M577.992 101.157l3.064 11.416M584.757 125.05l3.88 14.473M592.868 154.805l2.122 7.907M598.733 108.371l3.03 11.304M606.399 135.87l3.792 14.162M623.533 91.685l2.206 8.254M628.488 112.874l4.104 15.317M636.153 144.436l1.874 6.986M650.577 96.195l2.255 11.276M656.443 123.695l2.703 15.33M674.022 79.061l1.8 11.728M678.532 103.413l2.255 15.772M683.942 135.87l.9 9.014M719.111 73.658l.9 11.713M720.911 97.995l1.8 16.686M724.066 131.36l.9 10.376M699.266 87.63l1.807 13.076M702.877 117.836l1.8 14.424M767.345 71.403V81.77M766.445 95.295v16.686M767.8 128.205v12.624M750.214 112.874v15.787M750.214 83.571v12.624" stroke-width="1.0190237999999998"/><g><path d="M1045.967 101.157l-3.064 11.416M1039.202 125.05l-3.88 14.473M1031.088 154.805l-2.122 7.907M1025.226 108.371l-3.029 11.304M1017.56 135.87l-3.792 14.162M1000.426 91.685l-2.206 8.254M995.468 112.874l-4.104 15.317M987.802 144.436l-1.873 6.986M973.379 96.195l-2.256 11.276M967.516 123.695l-2.703 15.33M949.934 79.061l-1.8 11.728M945.424 103.413l-2.256 15.772M940.013 135.87l-.9 9.014M904.848 73.658l-.9 11.713M903.048 97.995l-1.8 16.686M899.89 131.36l-.9 10.376M924.69 87.63l-1.8 13.076M921.08 117.836l-1.8 14.424M856.61 71.403V81.77M857.514 95.295v16.686M856.16 128.205v12.624M873.745 112.874v15.787M873.745 83.571v12.624" stroke-width="1.0190237999999998"/></g><path d="M810.179 70.047v10.814M810.624 94.392v17.134M810.624 127.75v12.624M791.69 111.526v15.78M792.145 81.316v13.976M826.403 81.316v12.176M826.403 111.981v15.324" stroke-width="1.0190237999999998"/></g><g fill="none" stroke="#010101" stroke-width=".291" stroke-linejoin="bevel"><path d="M1071.126 123.037c-58.214-25.465-152.367-42.13-259.242-42.13-106.185 0-199.7 16.5-258.034 41.695" stroke-width="1.0190237999999998"/><path d="M1065.73 134.176c-58.532-24.24-150.07-40.054-253.88-40.054-101.686 0-191.37 15.233-250.05 38.636" stroke-width="1.0190237999999998"/><path d="M1061.787 148.953c-58.659-23.36-148.375-38.52-249.938-38.52-99.45 0-187.385 14.565-246.113 37.095" stroke-width="1.0190237999999998"/><path d="M1057.851 163.833c-58.718-22.464-146.687-36.99-246.002-36.99-97.238 0-183.47 13.899-242.17 35.571" stroke-width="1.0190237999999998"/></g><g stroke="#010101" stroke-width=".291"><path d="M977.296 16.991l6.856 14.873-4.696-.652-9.132 82.997-.113-.014c-.171 1.015 3.807 31.614 11.707 38.677l-.144 1.26-15.656-2.177-69.455-9.658-15.656-2.179.126-1.162c9.269-4.63 19.792-33.358 19.848-34.395l-.112-.014 9.118-82.884-4.475-.623 9.928-12.652 6.863 14.879-4.703-.652-1.218 10.965 13.198 1.834 1.212-10.855-4.588-.637 9.928-12.652 6.856 14.879-4.695-.652-1.22 10.965 13.2 1.827 1.204-10.855-4.696-.651 10.04-12.631 6.856 14.872-4.587-.638-1.219 10.972 13.198 1.827 1.212-10.855-4.92-.686 9.935-12.653z" fill="#e9cb53" stroke-width="1.0190237999999998"/><path d="M940.908 56.3c2.567.36 4.311 3.417 4.49 7.146h.02l-.213 1.93-1.411 12.638-10.453-1.453 1.411-12.645.214-1.923h0c.984-3.568 3.369-6.047 5.942-5.694zM958.487 58.743c2.567.361 4.311 3.411 4.49 7.14l.02.008-.213 1.922-1.411 12.645-10.453-1.453 1.411-12.645.214-1.923h0c.987-3.571 3.376-6.047 5.942-5.694zM923.33 53.858c2.566.354 4.31 3.411 4.482 7.14l.028.008-.214 1.922-1.411 12.645-10.453-1.46 1.404-12.638.22-1.93h-.006c.99-3.564 3.375-6.04 5.95-5.687z" fill="#191f11" stroke-width="1.0190237999999998"/><path d="M976.592 54.135l-69.332-9.637M975.394 67.291l-69.332-9.637M973.846 81.162l-69.332-9.644M971.833 94.451l-68.282-9.49M971.132 107.937l-69.07-9.61M971.388 124.816L897.85 114.59M973.934 135.482l-81.154-11.29M977.296 146.005l-90.606-12.603" fill="none" stroke-width="1.0190237999999998"/><path d="M345.425 394.562c-3.055.001-5.495 2.157-6.188 5.002l.015 11.343h2.166l.002-7.844-.001-1.219.006.001c.445-2.309 2.04-4.062 3.999-4.063 1.962-.001 3.525 1.752 3.97 4.062l.004.001.001 1.219v7.844l2.271-.001v-11.341l-.028-.002c-.691-2.846-3.162-5.001-6.217-5.002z" fill="#e9cb53" transform="matrix(-3.57898 -.49762 -.3759 3.37402 2322.342 -1068.667)"/><path d="M345.409 397.776c-1.96-.001-3.524 1.75-3.969 4.06l-.02.001.001 1.217v7.999h7.977v-7.997l.001-1.219h0c-.443-2.311-2.029-4.062-3.99-4.061z" fill="#191f11" transform="matrix(-3.57898 -.49762 -.3759 3.37402 2322.342 -1068.667)"/><path d="M339.363 401.643l2.19-.001M349.358 401.641l2.378.002M339.364 405.64l2.189.001M349.357 405.643l2.378-.002M342.951 398.931l-2.218-2.219M347.935 398.905l2.229-2.229" fill="#e9cb53" transform="matrix(-3.57898 -.49762 -.3759 3.37402 2322.342 -1068.667)"/><path d="M959.755 52.045l-1.46 13.117M928.305 75.829l-1.355 12.134M953.252 79.303l-1.376 12.375M913.237 86.558l-1.51 13.622M904.65 115.788l-1.127 10.148M963.012 123.397l-1.19 10.653M967.315 144.615l-.745 6.681M895.82 135.177l-.747 6.689M938.482 49.086l-1.24 11.139M947.425 38.258L946.126 49.9M921.897 35.215l-1.163 10.397M970.012 41.406l-1.24 11.132M978.413 42.569l-69.595-9.672" fill="none" stroke-width="1.0190237999999998"/></g><g stroke="#010101" stroke-width=".291"><path d="M782.599.764l-8.212 14.224h4.594l-.105 86.127h.105c.056 1.065-7.063 31.769-15.432 37.862v1.313H862.146v-1.205c-8.433-6.047-15.482-36.912-15.433-37.966h.112l.105-86.018h4.385L843.103.768l-8.205 14.224h4.595v11.38h-12.915V15.098h4.49L822.855.764l-8.205 14.224h4.594V26.37h-12.914V15.094h4.594L802.608.76l-8.205 14.224h4.49v11.38h-12.915V15.09h4.815L782.599.764z" fill="#e9cb53" stroke-width="1.0190237999999998"/><path d="M813.432 46.116c-2.51 0-4.517 2.871-5.091 6.66h-.021v15.118h10.225V52.776h.007c-.574-3.789-2.602-6.66-5.12-6.66zM796.235 46.116c-2.518 0-4.524 2.871-5.092 6.66h-.028v15.118h10.232V52.776h0c-.567-3.789-2.601-6.66-5.112-6.66zM830.637 46.116c-2.511 0-4.525 2.871-5.092 6.66h-.021v15.118h10.225V52.776h0c-.567-3.789-2.602-6.66-5.112-6.66z" fill="#191f11" stroke-width="1.0190237999999998"/><path d="M779.28 38.825h67.843M779.023 52.44h67.837M779.023 66.836h67.837M779.542 80.707h66.807M778.768 94.591h67.581M776.712 111.803h71.948M773.12 122.34h79.403M768.75 132.618h88.647" fill="none" stroke-width="1.0190237999999998"/><path d="M812.78 81.728c-10.701 0-19.246 7.553-21.672 17.509l.059 39.717h7.588v-31.726h.014c1.562-8.086 7.148-14.225 14.015-14.225 6.867 0 12.34 6.136 13.891 14.225h.021v31.726h7.956V99.237h-.098c-2.423-9.963-11.072-17.51-21.774-17.51z" fill="#e9cb53" stroke-width="1.0190237999999998"/><path d="M812.724 92.975c-6.863 0-12.347 6.136-13.899 14.218h-.063v32.272h27.934v-32.272h.007c-1.561-8.09-7.115-14.218-13.979-14.218z" fill="#191f11" stroke-width="1.0190237999999998"/><path d="M791.556 106.513h7.665M826.553 106.513h8.324M791.556 120.517h7.665M826.553 120.517h8.324M804.113 97.016l-7.763-7.756M821.566 96.932l7.81-7.809" fill="#e9cb53" stroke-width="1.0190237999999998"/><path d="M795.724 39.08v13.623M823.482 67.866v12.589M799.064 67.866v12.84M836.842 80.97v14.133M841.982 112.065v10.53M784.931 111.547v11.048M778.516 132.618v6.937M848.408 133.132v6.937M816.545 39.08v11.567M809.093 26.748v12.077M834.02 27.266v10.792M786.99 26.748v11.566M778.768 26.748h68.092" fill="none" stroke-width="1.0190237999999998"/></g><g stroke="#010101" stroke-width=".291"><path d="M648.417 16.998l-6.864 14.866 4.703-.652 9.133 82.997.112-.014c.171 1.022-3.807 31.614-11.707 38.677l.144 1.26 15.656-2.177 69.455-9.651 15.657-2.186-.126-1.155c-9.27-4.63-19.792-33.365-19.848-34.402l.112-.014-9.12-82.884 4.476-.623-9.927-12.652-6.864 14.879 4.703-.652 1.219 10.965-13.199 1.834-1.211-10.855 4.587-.637-9.928-12.652-6.863 14.879 4.703-.652 1.218 10.965L675.44 38.3l-1.212-10.863 4.703-.651-10.04-12.631-6.856 14.88 4.58-.638 1.226 10.964-13.198 1.828-1.212-10.856 4.92-.686-9.934-12.649z" fill="#e9cb53" stroke-width="1.0190237999999998"/><path d="M684.8 56.306c-2.566.354-4.31 3.411-4.489 7.14h-.02l.213 1.93 1.41 12.638 10.454-1.446-1.411-12.645-.214-1.923h0c-.984-3.575-3.376-6.054-5.943-5.694zM667.221 58.75c-2.566.354-4.31 3.404-4.489 7.134l-.02.007.213 1.922 1.41 12.645 10.454-1.453-1.411-12.638-.214-1.93h0c-.984-3.571-3.376-6.047-5.943-5.686zM702.38 53.858c-2.567.354-4.311 3.411-4.49 7.14l-.02.008.213 1.922 1.411 12.645 10.453-1.46-1.411-12.638-.214-1.93h0c-.984-3.564-3.369-6.04-5.943-5.687z" fill="#191f11" stroke-width="1.0190237999999998"/><path d="M649.117 54.135l69.332-9.637M650.315 67.291l69.332-9.637M651.862 81.162l69.333-9.644M653.876 94.458l68.282-9.496M654.576 107.937l69.07-9.602M654.32 124.816l73.539-10.226M651.775 135.482l81.154-11.29M648.417 146.005l90.605-12.603" fill="none" stroke-width="1.0190237999999998"/><path d="M317.462 390.44c-3.053-.001-5.493 2.158-6.186 5l.015 11.343h2.166v-7.844l.001-1.219.006.001c.445-2.309 2.04-4.062 3.999-4.064 1.961.001 3.525 1.754 3.968 4.064l.006-.001.001 1.219v7.844l2.271.001-.001-11.343h-.026c-.693-2.845-3.163-5.002-6.22-5.001z" fill="#e9cb53" transform="matrix(3.57898 -.49762 .3759 3.37402 -595.01 -1068.665)"/><path d="M317.448 393.651c-1.96.001-3.525 1.752-3.969 4.06l-.02.001.001 1.219v7.999h7.977v-7.999l-.001-1.219h.002c-.443-2.31-2.029-4.062-3.99-4.061z" fill="#191f11" transform="matrix(3.57898 -.49762 .3759 3.37402 -595.01 -1068.665)"/><path d="M311.402 397.518l2.19-.001M321.395 397.516l2.379.002M311.402 401.518l2.189.001M321.394 401.518h2.38M314.99 394.806l-2.218-2.219M319.974 394.78l2.229-2.229" fill="#e9cb53" transform="matrix(3.57898 -.49762 .3759 3.37402 -595.01 -1068.665)"/><path d="M665.95 52.045l1.46 13.124M697.403 75.829l1.356 12.14M672.453 79.303l1.376 12.382M712.465 86.565l1.516 13.615M721.058 115.788l1.128 10.148M662.697 123.397l1.184 10.653M658.393 144.615l.746 6.688M729.89 135.184l.746 6.682M687.227 49.086l1.24 11.139M678.284 38.265l1.299 11.636M703.812 35.215l1.155 10.404M655.697 41.406l1.24 11.132M647.293 42.569l69.594-9.672" fill="none" stroke-width="1.0190237999999998"/></g><g stroke="#010101" stroke-width=".291"><path d="M736.305 53.305v20.027c0 5.176 4.234 9.304 9.416 9.304 5.176 0 9.41-4.128 9.41-9.304V53.305h-18.826z" fill="#e9cb53" stroke-width="1.0190237999999998"/><path d="M736.305 53.092l9.416-10.044 9.41 10.093-18.826-.05z" fill="#ae1f23" stroke-linejoin="bevel" stroke-width="1.0190237999999998"/><path d="M747.595 66.724c0 4.696-.837 8.502-1.874 8.502-1.043 0-1.88-3.806-1.88-8.502 0-4.696.837-8.495 1.88-8.495 1.037-.004 1.874 3.8 1.874 8.495z" fill="#0b070a" stroke-linejoin="bevel" stroke-width="1.0190237999999998"/></g><g stroke="#010101" stroke-width=".291"><path d="M1132.744 57.717l.084 15.006-3.75-1.341-39.938 76.416-.091-.035c-.54.935-9 30.238-5.008 38.068l-.61 1.17-12.5-4.455-55.483-19.75-12.502-4.447.56-1.072c9.694-2.913 29.797-28.238 30.246-29.187l-.091-.035 39.896-76.326-3.576-1.267 13.367-10.334.084 15.005-3.75-1.334-5.292 10.092 10.537 3.75 5.242-9.997-3.66-1.306 13.36-10.327.084 15.005-3.75-1.341-5.291 10.092 10.544 3.758 5.242-9.998-3.75-1.334 13.453-10.296.084 14.999-3.66-1.306-5.29 10.092 10.537 3.757 5.242-9.997-3.93-1.405 13.36-10.32z" fill="#e9cb53" stroke-width="1.0190237999999998"/><path d="M1074.786 175.844l-3.218 6.156" fill="none" stroke-width="1.0190237999999998"/><path d="M1086.485 88.975c2.056.731 2.354 3.866 1.065 7.388l.014.007-.921 1.765-6.1 11.644-8.355-2.98 6.1-11.63.928-1.772h0c2.23-3.193 5.22-5.15 7.27-4.422zM1100.535 93.975c2.048.732 2.353 3.866 1.057 7.382l.021.014-.928 1.772-6.1 11.63-8.355-2.963 6.1-11.644.928-1.772h0c2.227-3.193 5.221-5.15 7.277-4.419zM1072.447 83.985c2.048.724 2.353 3.858 1.064 7.381l.014.007-.928 1.772-6.1 11.637-8.345-2.973 6.1-11.637.928-1.772h0c2.217-3.197 5.218-5.154 7.267-4.415z" fill="#191f11" stroke-width="1.0190237999999998"/><path d="M1111.639 104.59l-55.385-19.716M1104.947 117.357l-55.378-19.715M1098.08 129.511l-54.548-19.417M1092.26 142.048l-55.171-19.642M1085.936 157.911l-58.74-20.906M1083.971 168.3l-64.815-23.076M1082.756 178.68l-72.368-25.755" fill="none" stroke-width="1.0190237999999998"/><path d="M349.502 397.919c-3.054 0-5.492 2.156-6.185 4.999l.014 11.345 2.167-.002.001-7.843v-1.219l.005-.001c.443-2.307 2.04-4.062 4-4.062 1.962.001 3.526 1.753 3.97 4.063l.005-.001v1.219l-.002 7.845h2.272v-11.345h-.027c-.693-2.842-3.164-4.999-6.22-4.998z" fill="#e9cb53" transform="matrix(-2.85874 -1.01747 -1.62778 3.10588 2717.331 -759.523)"/><path d="M349.489 401.13c-1.962-.001-3.527 1.751-3.971 4.06l-.018.001-.001 1.217-.001 8 7.977.001.001-8 .002-1.219h0c-.444-2.309-2.028-4.061-3.989-4.06z" fill="#191f11" transform="matrix(-2.85874 -1.01747 -1.62778 3.10588 2717.331 -759.523)"/><path d="M343.443 404.997h2.188M353.435 404.996l2.381.001M343.442 408.997l2.19.001M353.437 408.997l2.379.001M347.03 402.286l-2.218-2.217M352.013 402.261l2.23-2.231" fill="#e9cb53" transform="matrix(-2.85874 -1.01747 -1.62778 3.10588 2717.331 -759.523)"/><path d="M1104.215 87.882l-6.331 12.085M1068.178 105.349l-5.852 11.17M1088.11 112.44l-5.977 11.395M1051.18 113.088l-6.573 12.536M1032.53 139.17l-4.892 9.346M1079.338 155.295l-5.133 9.802M1017.49 155.996l-3.219 6.149M1087.224 81.841l-5.375 10.254M1099.04 73.062l-5.618 10.709M1078.452 66.276l-5.021 9.574M1117.08 79.488l-5.375 10.253M1123.794 81.87l-55.599-19.786M1117.76 92.438l-55.385-19.715" fill="none" stroke-width="1.0190237999999998"/></g><g stroke="#010101" stroke-width=".291"><path d="M492.965 57.717l-.091 15.006 3.757-1.341 39.938 76.416.091-.035c.54.935 9 30.238 5 38.068l.617 1.17 12.501-4.455 55.476-19.75 12.508-4.447-.56-1.072c-9.693-2.913-29.797-28.238-30.245-29.187l.084-.035-39.889-76.326 3.575-1.267-13.366-10.334-.084 15.005 3.75-1.334 5.292 10.092-10.537 3.75-5.242-9.997 3.659-1.306-13.36-10.327-.09 15.005 3.75-1.341 5.291 10.092-10.537 3.758-5.242-9.998 3.75-1.334-13.453-10.296-.085 14.999 3.66-1.306 5.291 10.092-10.537 3.757-5.242-9.997 3.929-1.405-13.36-10.32z" fill="#e9cb53" stroke-width="1.0190237999999998"/><path d="M539.213 88.975c-2.049.731-2.353 3.866-1.058 7.388l-.02.007.927 1.765 6.1 11.644 8.356-2.98-6.1-11.63-.928-1.772h0c-2.227-3.193-5.218-5.15-7.277-4.422zM525.174 93.975c-2.048.732-2.353 3.866-1.057 7.382l-.021.014.928 1.772 6.1 11.63 8.355-2.963-6.1-11.644-.928-1.772h0c-2.227-3.193-5.221-5.15-7.277-4.419zM553.262 83.985c-2.055.724-2.353 3.858-1.064 7.381l-.014.007.928 1.772 6.1 11.637 8.345-2.973-6.1-11.637-.929-1.772h0c-2.223-3.197-5.217-5.154-7.266-4.415z" fill="#191f11" stroke-width="1.0190237999999998"/><path d="M507.949 92.438l55.384-19.715M514.07 104.593l55.385-19.716M520.762 117.357l55.377-19.715M527.629 129.511l54.548-19.417M533.449 142.048l55.17-19.642M539.773 157.911l58.74-20.906M541.73 168.3l64.823-23.076M542.946 178.684l72.375-25.756" fill="none" stroke-width="1.0190237999999998"/><path d="M319.542 388.105c-3.053 0-5.494 2.155-6.185 4.999l.014 11.345 2.167-.002.001-7.843v-1.219l.005-.001c.443-2.307 2.04-4.062 4-4.062 1.962.001 3.524 1.753 3.97 4.063l.005-.001v1.219l-.002 7.845h2.272v-11.345h-.027c-.693-2.843-3.164-4.999-6.22-4.998z" fill="#e9cb53" transform="matrix(2.85874 -1.01747 1.62778 3.10588 -990 -759.523)"/><path d="M319.527 391.315c-1.96 0-3.525 1.752-3.969 4.061h-.02l.001 1.217-.001 8 7.977.001.001-8v-1.219l.002.001c-.443-2.31-2.028-4.062-3.991-4.061z" fill="#191f11" transform="matrix(2.85874 -1.01747 1.62778 3.10588 -990 -759.523)"/><path d="M313.483 395.182h2.188M323.475 395.181l2.379.001M313.482 399.182h2.188M323.475 399.182l2.381.001M317.068 392.471l-2.216-2.217M322.053 392.446l2.23-2.231" fill="#e9cb53" transform="matrix(2.85874 -1.01747 1.62778 3.10588 -990 -759.523)"/><path d="M521.494 87.882l6.331 12.085M557.53 105.349l5.852 11.17M537.599 112.44l5.977 11.395M574.529 113.088l6.566 12.536M593.18 139.17l4.891 9.346M546.37 155.295l5.134 9.802M550.916 175.847l3.225 6.156M608.212 155.996l3.226 6.149M538.485 81.841l5.375 10.254M526.67 73.062l5.616 10.709M547.257 66.276l5.021 9.574M508.628 79.488l5.375 10.253M501.912 81.87l55.598-19.786" fill="none" stroke-width="1.0190237999999998"/></g><g stroke="#010101" stroke-width=".291"><path d="M932.574 176.485c10.695 1.078 18.602 9.43 20.181 19.543l-3.418 39.378-7.588-.767 2.325-27.23.36-4.234h-.02c-.865-8.17-5.936-14.826-12.8-15.516-6.863-.693-12.862 4.836-15.103 12.694h-.014l-.36 4.227-2.326 27.23-7.956-.802 3.37-39.378.09.007c3.264-9.63 12.558-16.238 23.26-15.152z" fill="#e9cb53" stroke-width="1.0190237999999998"/><path d="M931.674 187.63c6.864.694 11.83 7.334 12.701 15.503l.063.014-.36 4.227-2.375 27.77-27.934-2.823 2.368-27.77.36-4.226v-.007c2.234-7.865 8.314-13.38 15.177-12.687z" fill="#191f11" stroke-width="1.0190237999999998"/><path d="M951.7 203.196l-7.665-.773M916.704 199.66l-8.33-.837M950.51 217.088l-7.665-.78M915.513 213.544l-8.323-.837M939.942 192.509l8.418-6.906M922.5 190.667l-7.148-8.53" fill="#e9cb53" stroke-width="1.0190237999999998"/></g><g stroke="#010101" stroke-width=".291"><path d="M1031.847 192.786c10.66 2.787 18.29 12.368 19.536 22.684l-4.724 38.622-7.567-1.986 3.232-26.712.504-4.15-.02-.006c-.603-8.268-5.446-15.695-12.288-17.488-6.843-1.793-13.02 2.745-15.524 10.211l-.021-.007-.504 4.157-3.225 26.704-7.928-2.07 4.674-38.635.091.028c3.59-9.059 13.1-14.136 23.764-11.352z" fill="#e9cb53" stroke-width="1.0190237999999998"/><path d="M1030.58 203.736c6.842 1.793 11.58 9.181 12.182 17.46l.063.014-.504 4.15-3.292 27.243-27.84-7.29 3.292-27.237.505-4.15h-.007c2.5-7.459 8.758-11.983 15.6-10.19z" fill="#191f11" stroke-width="1.0190237999999998"/><path d="M1050.088 222.428l-7.645-2M1015.203 213.303l-8.296-2.171M1048.435 236.05l-7.638-2M1013.56 226.925l-8.302-2.178M1038.682 209.913l8.653-5.519M1021.296 205.276l-6.857-9.622" fill="#e9cb53" stroke-width="1.0190237999999998"/></g><g stroke="#010101" stroke-width=".291"><path d="M696.686 176.485c-10.695 1.078-18.602 9.43-20.181 19.543l3.417 39.378 7.589-.767-2.325-27.23-.361-4.234h.021c.872-8.17 5.936-14.826 12.8-15.516 6.863-.693 12.861 4.836 15.102 12.694h.014l.361 4.227 2.332 27.23 7.95-.802-3.37-39.378-.09.007c-3.26-9.63-12.558-16.238-23.26-15.152z" fill="#e9cb53" stroke-width="1.0190237999999998"/><path d="M697.586 187.63c-6.864.694-11.83 7.334-12.695 15.503l-.07.014.361 4.227 2.374 27.77 27.934-2.823-2.367-27.77-.36-4.226.006-.007c-2.24-7.865-8.316-13.38-15.183-12.687z" fill="#191f11" stroke-width="1.0190237999999998"/><path d="M677.57 203.196l7.665-.773M712.556 199.66l8.33-.837M678.753 217.088l7.665-.78M713.75 213.544l8.33-.837M689.325 192.509l-8.426-6.906M706.77 190.667l7.14-8.53" fill="#e9cb53" stroke-width="1.0190237999999998"/></g><g stroke="#000" stroke-width="5.388"><path d="M434.574 1144.455c3.315-.01 9.492.79 13.728 1.777 9.82 2.29 18.393 2.299 25.722.027 5.375-1.666 22.064-10.227 27.744-14.477 2.255-1.687 3.46-2.107 2.371-3.42-2.292-2.761-12.442-8.023-16.878-8.549-3.496-.414-6.57 3.432-12.96 5.621-4.422 1.516-15.313 4.002-24.203 5.526-19.104 3.275-24.754 5.515-31.698 12.57-2.568 2.608-4.668 5.015-4.668 5.35 0 .335 3.333-.52 7.408-1.899 5.148-1.742 9.246-2.512 13.434-2.526z" fill="#fff"/><path d="M508.836 1126.83c5.091-3.008 15.627-20.977 12.884-22.673-1.551-.958-16.921-3.824-30.416-5.63-7.267-.972-15.257-1.249-24.028-.914-17.68.674-26.118 6.52-28.89 11.878-4.924 9.524 4.354 12.258 35.063 10.335 14.734-.923 20.219.156 26.65 5.243 4.476 3.541 5.406 3.728 8.737 1.76z" fill="#e20909"/><path d="M605.43 1115.32c1.968-.825 4.476-2.342 5.573-3.372 1.847-1.736 1.898-2.058.685-4.403-.719-1.39-1.308-3.6-1.308-4.908 0-3.18-4.928-8.02-9.47-9.301-6.654-1.877-16.084-2.067-31.048-.624-24.894 2.4-31.78 1.784-35.24-3.155-.805-1.15-1.46-3.516-1.456-5.258.01-3.271 3.004-10.594 6.14-15.013 2.307-3.252 4.283-12.37 5.598-25.837.924-9.465.82-27.776-.162-28.672-.54-.493-27.583-3.084-47.95-4.595-20.807-1.544-34.257-1.669-43.032-.4-7.272 1.05-8.807 1.988-7.77 4.747 4.49 11.942 5.59 45.484 2.07 63.058-1.094 5.459-3.002 12.904-4.24 16.545-1.239 3.64-4.076 11.588-4.076 11.929 0 .34 4.551-4.833 7.885-5.767 12.58-3.523 32.905-3.642 53.85-.315 4.83.768 22.318 4.402 38.862 8.077 26.684 5.927 34.235 7.439 44.448 8.9 5.394.772 17.11-.157 20.64-1.636z" fill="#fff"/><path d="M617.034 1104.758c3.836-10.35 5.932-30.004 4.38-37.091l-.786-3.588-9.838.26c-24.68.65-52.361 2.847-65.821 7.37-9.327 3.134-9.69 6.15-10.777 9.938-2.654 9.255 4.48 14.589 34.032 11.632 16.614-1.662 27.48-2.293 34.746.426 6.16 2.305 7.095 12.479 7.095 16.88 0 4.068 5.282-1.276 6.969-5.827z" fill="#e20909"/><path d="M415.196 1094.408c5.411-2.137 7.398-2.436 16.184-2.432l12.36.004 3.58-14.281-10.37 1.813c-11.83 2.038-19.492 6.064-25.504 13.402-1.772 2.162-3.041 3.932-2.82 3.932.221 0 3.178-1.097 6.57-2.438z" fill="#fff"/></g><g stroke="#000" stroke-width="5.388"><path d="M1212.733 1149.11c0-.394-2.122-2.872-4.715-5.508-7.056-7.174-12.599-9.388-31.53-12.598-8.822-1.496-19.578-3.935-23.902-5.42-8.597-2.95-13.744-6.37-18.865-4.543-3.64 1.299-12.517 6.294-12.517 7.546 0 1.02 15.192 10.421 21.955 13.835 11.799 5.954 21.348 6.994 35.003 3.81 12.745-2.972 20.933-2.138 34.346 3.498.124.051.225-.228.225-.62z" fill="#fff"/><path d="M1126.132 1125.139c6.785-5.18 12.135-6.237 26.883-5.313 24.73 1.549 35.595-.015 36.2-5.21.349-2.983-1.928-7.512-4.455-8.864-8.267-4.425-29.61-6.499-46.231-4.493-9.424 1.137-28.322 4.34-30.467 5.162-1.792.688-1.624 2.142.993 8.598 2.367 5.838 4.699 9.057 8.477 11.703 3.067 2.149 3.916 1.992 8.6-1.583z" fill="#e20909"/><path d="M1052.45 1117.93c3.951-.707 19.248-3.685 33.674-6.937 14.426-3.252 30.675-6.717 36.426-7.7 22.046-3.77 43.125-3.82 56.285-.133 6.059 1.697 8.913 5.626 7.272 2.56-1.59-2.97-7.562-26.237-8.87-35.364-2.335-16.287-1.1-41.33 2.652-53.797.98-3.254.998-4.247.093-4.997-1.629-1.352-12.964-2.655-23.37-2.686-17.798-.053-77.455 4.883-78.576 6.596-.987 1.509-1.08 19.918.005 29.858 1.322 12.106 2.144 19.559 6.81 28.477 4.381 8.378 5.868 11.626 5.168 14.969-1.237 5.902-3.052 4.253-27.946 1.852-15.011-1.447-31.642-1.536-37.924.29-4.743 1.38-9.627 6.903-9.634 9.881-.003 1.307-1.398 5.372-2.145 6.804-1.238 2.375 1.126 2.239 2.573 3.837 1.998 2.208 5.501 4.033 9.867 5.139 4.237 1.074 18.143 3.048 27.64 1.35z" fill="#fff"/><path d="M1013.534 1107.199c0-4.401 3.279-14.315 9.44-16.62 7.266-2.719 16.568-3.13 33.183-1.468 24.456 2.447 32.607 4.147 33.764-.463 1.414-5.633-2.673-14.474-15.165-18.598-13.771-4.546-38.322-8.725-59.245-9.348l-9.624.503-.841 6.009c-1.095 4.092-.174 18.258 1.642 25.267 2.878 11.105 6.846 21.109 6.846 14.718z" fill="#e20909"/><path d="M1215.363 1093.36c-4.646-6.284-12.962-11.208-22.256-13.178-11.619-2.462-15.13-2.97-12.618 5.982l2.194 6.337 12.38-.523c8.695-.001 10.818.309 15.874 2.32 3.21 1.278 5.973 2.203 6.14 2.057.167-.147-.604-1.494-1.714-2.995z" fill="#fff"/></g><path d="M869.925 1074.796c12.1-1.206 32.506-3.584 45.346-5.284 96.98-12.841 125.605-12.354 163.478 1.369 2.611.946 4.94 1.72 5.175 1.72.235 0-.19-1.478-.944-3.284-2.413-5.774-4.11-14.791-5.167-27.466-1.216-14.573.044-35.175 3.033-49.615 2.634-12.723 2.677-12.3-1.457-14.367-39.712-1.774-82.47 7.756-123.71 10.729-86.134 5.705-173.568 5.702-261.75-.01-28.814-1.865-53.161-4.18-90.754-8.625-19.008-2.385-46.515-8.544-59.658.046-.288.908.623 3.941.876 6.939 1.903 22.576 2.807 52.013-2.098 72.953-1.02 4.354-7.842 18.26-6.839 16.896 2.227-3.028 7.432-4.46 8.429-4.993 34.92-8.815 45.555-8.369 81.308-7.46 36.802 1.348 56.144-.314 104.654 5.551 27.807 3.363 64.898 6.833 80.365 7.519 13.814.612 37.892-.443 59.713-2.618z" fill="#fff" stroke="#000" stroke-width="5.388"/><g font-size="48" font-family="Times New Roman"><path d="M596.409 996.377c6.212 0 11.595 2.359 16.148 7.077 4.553 4.718 6.83 10.607 6.83 17.666 0 7.271-2.294 13.307-6.883 18.107-4.589 4.8-10.142 7.201-16.66 7.201-6.59 0-12.125-2.341-16.608-7.024-4.482-4.683-6.724-10.742-6.724-18.178 0-7.6 2.589-13.801 7.766-18.602 4.494-4.165 9.871-6.247 16.13-6.247z"/><path d="M595.738 998.953c-4.283 0-7.718 1.589-10.307 4.766-3.224 3.953-4.836 9.742-4.836 17.366 0 7.812 1.671 13.824 5.013 18.037 2.564 3.2 5.953 4.8 10.165 4.8 4.495 0 8.207-1.753 11.136-5.26 2.93-3.505 4.395-9.035 4.395-16.589 0-8.189-1.612-14.295-4.836-18.32-2.588-3.2-6.165-4.8-10.73-4.8z" fill="#fff"/></g><path d="M667.046 1006.777v-1.306h16.943v1.306h-1.8c-1.883 0-3.33.788-4.342 2.365-.494.73-.741 2.424-.741 5.083v19.413c0 4.8-.477 8.524-1.43 11.172-.953 2.647-2.824 4.918-5.612 6.812-2.789 1.894-6.583 2.841-11.384 2.841-5.224 0-9.189-.906-11.895-2.717-2.706-1.812-4.624-4.248-5.753-7.307-.753-2.094-1.13-6.024-1.13-11.79v-18.707c0-2.941-.406-4.87-1.217-5.789-.812-.917-2.124-1.376-3.936-1.376h-1.8v-1.306h20.684v1.306h-1.835c-1.977 0-3.389.624-4.236 1.87-.588.848-.883 2.613-.883 5.295v20.86c0 1.86.171 3.99.512 6.39.341 2.4.96 4.27 1.853 5.612.895 1.341 2.183 2.447 3.865 3.318 1.683.87 3.748 1.306 6.195 1.306 3.13 0 5.93-.683 8.4-2.047 2.472-1.365 4.16-3.112 5.066-5.242.906-2.13 1.359-5.736 1.359-10.819v-19.378c0-2.988-.33-4.859-.988-5.612-.918-1.035-2.283-1.553-4.095-1.553h-1.8z" font-size="48" font-family="Times New Roman"/><g font-size="48" font-family="Times New Roman"><path d="M728.082 1039.309h-18.53l-3.248 7.554c-.8 1.859-1.2 3.247-1.2 4.165 0 .73.347 1.37 1.04 1.923.695.553 2.195.912 4.501 1.077v1.306h-15.072v-1.306c2-.353 3.295-.812 3.883-1.377 1.2-1.13 2.53-3.424 3.989-6.883l16.836-39.391h1.236l16.66 39.815c1.341 3.2 2.56 5.277 3.653 6.23 1.095.953 2.618 1.488 4.571 1.606v1.306h-18.884v-1.306c1.906-.094 3.195-.412 3.865-.953.671-.541 1.006-1.2 1.006-1.977 0-1.035-.47-2.67-1.412-4.906l-2.894-6.883z"/><path d="M727.094 1036.697l-8.119-19.343-8.33 19.343h16.449z" fill="#fff"/></g><path d="M757.44 1011.47h12.989l29.261 35.898v-27.602c0-2.942-.33-4.777-.988-5.507-.871-.988-2.248-1.482-4.13-1.482h-1.66v-1.306h16.661v1.306h-1.694c-2.024 0-3.46.612-4.306 1.835-.518.753-.777 2.471-.777 5.154v40.344h-1.27l-31.556-38.544v29.473c0 2.942.317 4.777.953 5.506.894.989 2.27 1.483 4.13 1.483h1.694v1.306h-16.66v-1.306h1.658c2.048 0 3.495-.612 4.342-1.836.518-.753.777-2.47.777-5.153v-33.285c-1.389-1.624-2.442-2.695-3.16-3.212-.717-.518-1.77-1-3.159-1.447-.682-.212-1.717-.318-3.106-.318v-1.306z" font-size="48" font-family="Times New Roman"/><g font-size="48" font-family="Times New Roman"><path d="M853.12 1043.309h-18.531l-3.248 7.554c-.8 1.859-1.2 3.247-1.2 4.165 0 .73.347 1.37 1.042 1.923.694.553 2.194.912 4.5 1.077v1.306h-15.072v-1.306c2-.353 3.294-.812 3.883-1.377 1.2-1.13 2.53-3.424 3.988-6.883l16.837-39.391h1.236l16.66 39.815c1.341 3.2 2.559 5.277 3.653 6.23 1.094.953 2.618 1.488 4.571 1.606v1.306h-18.884v-1.306c1.906-.094 3.194-.412 3.865-.953.67-.541 1.006-1.2 1.006-1.977 0-1.035-.47-2.67-1.412-4.906l-2.894-6.883z"/><path d="M852.132 1040.697l-8.119-19.343-8.33 19.343h16.449z" fill="#fff"/></g><path d="M927.957 1042.097l1.165.248-4.095 12.989h-37.062v-1.306h1.8c2.024 0 3.471-.659 4.342-1.977.494-.753.741-2.494.741-5.224v-30.885c0-2.988-.329-4.859-.988-5.612-.918-1.035-2.283-1.553-4.094-1.553h-1.8v-1.306h21.672v1.306c-2.542-.024-4.324.212-5.348.706-1.023.494-1.723 1.118-2.1 1.87-.376.754-.565 2.554-.565 5.401v30.073c0 1.953.189 3.295.565 4.024.283.494.718.86 1.306 1.094.588.236 2.424.353 5.507.353h3.494c3.67 0 6.248-.27 7.73-.811 1.482-.542 2.836-1.5 4.06-2.877 1.223-1.377 2.446-3.548 3.67-6.513z" font-size="48" font-family="Times New Roman"/><g font-size="48" font-family="Times New Roman"><path d="M978.157 1033.309h-18.531l-3.248 7.554c-.8 1.859-1.2 3.247-1.2 4.165 0 .73.347 1.37 1.042 1.923.694.553 2.194.912 4.5 1.077v1.306h-15.072v-1.306c2-.353 3.294-.812 3.883-1.377 1.2-1.13 2.53-3.424 3.988-6.883l16.837-39.391h1.235l16.66 39.815c1.342 3.2 2.56 5.277 3.654 6.23 1.094.953 2.618 1.488 4.571 1.606v1.306h-18.884v-1.306c1.906-.094 3.194-.412 3.865-.953.67-.541 1.006-1.2 1.006-1.977 0-1.035-.47-2.67-1.412-4.906l-2.894-6.883z"/><path d="M977.168 1030.697l-8.118-19.343-8.33 19.343h16.448z" fill="#fff"/></g><g font-size="48" font-family="Times New Roman"><path d="M1034.04 996.377c6.212 0 11.595 2.359 16.148 7.077 4.554 4.718 6.83 10.607 6.83 17.666 0 7.271-2.294 13.307-6.883 18.107-4.588 4.8-10.142 7.201-16.66 7.201-6.589 0-12.125-2.341-16.607-7.024-4.483-4.683-6.724-10.742-6.724-18.178 0-7.6 2.588-13.801 7.765-18.602 4.494-4.165 9.871-6.247 16.13-6.247z"/><path d="M1033.37 998.953c-4.284 0-7.72 1.589-10.308 4.766-3.223 3.953-4.835 9.742-4.835 17.366 0 7.812 1.67 13.824 5.012 18.037 2.565 3.2 5.953 4.8 10.165 4.8 4.495 0 8.207-1.753 11.137-5.26 2.93-3.505 4.394-9.035 4.394-16.589 0-8.189-1.612-14.295-4.836-18.32-2.588-3.2-6.165-4.8-10.73-4.8z" fill="#fff"/></g><g stroke="#000"><g fill="#fff" fill-rule="evenodd"><path d="M303.124 117.959c-.69-53.048 62.004-88.184 62.004-93.007-6.2-37.811-95.762 52.36-100.584 64.071-5.539 17.091 6.889 37.892 6.889 37.892M320.347 48.376c-18.601 15.157-33.758 64.76-33.758 64.76" stroke-width="4.18916"/></g><g fill="#fff" fill-rule="evenodd"><path d="M274.189 117.27c-7.579-50.982 31.002-95.073 28.246-96.451-23.706-11.853-54.426 50.98-63.382 71.649l11.712 70.271M261.788 75.245c-9.645 24.801.689 58.559.689 58.559" stroke-width="4.18916"/></g><g fill="#fff" fill-rule="evenodd"><path d="M254.21 144.138c-12.401-12.4-.69-101.273-4.134-101.273-26.18 0-39.958 85.428-34.447 103.34 17.878 58.102 32.38 68.204 32.38 68.204M230.786 113.825c-2.067 26.18 18.601 58.56 18.601 58.56" stroke-width="4.18916"/></g><g fill="#fff" fill-rule="evenodd"><path d="M248.01 209.587c-33.07-31.002-38.806-114.188-43.404-122.63-35.38 6.889-17.223 95.072-17.223 95.072.689 6.89 46.847 62.004 46.847 62.004M200.473 142.071c-11.712 23.424 41.336 93.006 41.336 93.006" stroke-width="4.18916"/></g><path d="M289.345 406.622s-8.956-119.875 6.2-137.787l-44.78-66.138-57.87 115.052 52.358 95.762 44.092-6.89z" fill="#fff" fill-rule="evenodd" stroke-width="4.18916"/><path d="M251.454 284.68c-5.512 15.846 9.645 31.692 9.645 31.692M239.742 293.637c-5.512 15.845 19.979 42.025 19.979 42.025M234.92 320.505c-5.512 15.846 22.734 28.935 22.734 28.935M247.32 360.463c1.378 11.712 22.046 8.956 22.046 8.956" fill="none" stroke-width="4.18916"/></g><path d="M247.19 667.85c19.634 25.145 29.229 81.84 29.229 81.84l5.846-18.511c2.755 1.722 4.43 16.076 8.281 16.076 1.722 0 1.42-14.801 5.359-15.59 1.722-.344.58 20.461 4.384 20.461 3.1 0 3.351-14.816 4.384-14.127 2.432 1.621 2.915 19.666 4.872 10.23-2.756-96.795 186.989-176.002 183.168-284.496 4.823-112.296-115.941-154.913-189.988-249.42 0 0-20.807-61.975 17.537-34.588 31.002-4.823 28.255-35.562 28.255-35.562h17.05c7.579-66.138-58.945-50.664-58.945-50.664-61.66 0-67.227 63.817-67.227 63.817C223.55 240.333 331.122 339.2 331.122 339.2c15.846 34.447-.142 93.843-.142 93.843L181.27 574.092" fill="#fff" fill-rule="evenodd" stroke="#000" stroke-width="4.189"/><g stroke="#000"><path d="M183.001 572.979c-8.267 9.99-50.744 60.32-61.078 77.888-14.632 16.129 13.813 11.594 13.813 11.594s-42.06 44.46-62.491 57.467c6.273 18.818 46.61-8.434 46.61-8.434s-39.268 24.112-37.202 28.935c11.988 9.14 46.848-16.535 46.848-16.535s-8.328 11.712-1.378 15.846c11.712 0 38.58-21.357 38.58-21.357s-5.511 12.4.69 14.468c11.2-7.06 81.294-65.45 81.294-65.45" fill="#fff" fill-rule="evenodd" stroke-width="4.18916"/><path d="M140.18 660.857c-4.479 7.234 16.19 9.154 21.7.689 0 11.712 15.968 12.158 21.702 6.545 2.412 7.578 13.567 5.644 20.668-1.378 1.206 3.272 11.315 10.286 15.047 8.94 7.302-2.634 35.825-42.996 42.025-46.44M111.172 717.081s32.761-31.905 54.196-48.955M122.376 728.773s43.096-39.828 64.53-56.878M163.784 720.978s28.628-29.494 50.063-46.544M135.285 661.622s32.013-38.155 53.448-55.205M160.268 662.635s26.905-30.872 57.64-52.745M184.797 667.242s12.678-24.317 51.336-54.113M204.431 666.897s14.711-25.507 41.313-44.624M202.756 670.315c-21.922 22.409-39.459 37.51-39.459 37.51M171.091 672.263c-21.921 22.41-44.33 40.434-44.33 40.434M149.657 665.93c-21.922 22.41-27.768 24.358-27.768 24.358" fill="none" stroke-width="4.18916"/><path d="M171.18 589.236c-4.478 7.234 5.65 24.753 27.237 14.339-6.82 18.045 3.301 13.133 17.317 6.545-3.921 15.373 13.567 5.644 20.668-1.378 1.206 3.272 1.571 11.26 8.227 11.863 7.73.7 15.851-21.561 22.052-25.006M197.707 603.895l39.15-35.882M176.878 605.785l19.058-29.003M215.304 609.884l23.501-25.795M235.68 609.338l12.381-13.557M263.163 563.142c-31.178 38.972 13.64 7.794 13.64 7.794M222.99 581.713s-18.285 3.35 2.662-21.981M210.063 543.169s-20.947 27.767-6.82 23.383M258.291 541.22l-5.846 9.256M197.885 613.318c-4.872 5.359-16.076 13.64-16.076 13.64M218.832 618.677c-10.717 8.282-19.973 17.05-19.973 17.05M252.933 626.959c-21.922 22.408-17.05 16.563-17.05 16.563M241.241 617.703c-10.717 8.281-17.05 14.614-17.05 14.614" fill="none" stroke-width="4.18916"/></g><g stroke="#000"><g fill="#fff" fill-rule="evenodd"><path d="M207.116 471.096c-17.05 33.126-38.81 87.748-15.101 112.044 7.794 2.436 28.59-77.82 44.818-85.251 2.435-8.282 13.153-44.818 13.153-44.818M233.54 467.248c8.94 0-17.892 17.913-27.557 42.714" stroke-width="4.18916"/></g><path d="M240.73 473.531c-13.153 61.868-.974 75.021 4.384 75.509 7.795-3.898 21.435-60.407 37.024-63.817" fill="#fff" fill-rule="evenodd" stroke-width="4.18916"/><g fill="#fff" fill-rule="evenodd"><path d="M173.99 187.087c-54.56-51.15-61.868-109.609-67.714-110.096-25.748-2.145 8.77 103.763 8.77 103.763l65.277 52.125M165.336 199.942s-26.18-19.98-39.958-46.848" stroke-width="4.18916"/></g><g fill="#fff" fill-rule="evenodd"><path d="M173.99 224.11c-80.867-44.817-90.61-117.89-97.43-115.454-24.899 9.832 6.82 76.97 6.82 76.97 4.385 18.511 68.689 76.482 68.689 76.482M158.447 245.411S124 219.921 96.443 177.896" stroke-width="4.18916"/></g><g fill="#fff" fill-rule="evenodd"><path d="M149.146 256.75c-96.943-53.587-98.892-114.968-109.61-111.07-23.02 62.4 61.382 121.3 120.814 165.63M154.313 283.303s-44.091-15.846-71.649-57.87" stroke-width="4.18916"/></g><g fill="#fff" fill-rule="evenodd"><path d="M158.401 309.849C74.125 283.056 33.437 204.514 22.974 208.522c-24.358 9.256 26.793 75.02 26.793 75.02 41.408 38.486 109.609 66.74 109.609 66.74M160.514 321.883s-58.56-11.023-90.25-43.403" stroke-width="4.18916"/></g><g fill="#fff" fill-rule="evenodd"><path d="M158.889 345.41c-134.94-43.355-140.3-85.738-152.965-82.327C-18.108 281.356 59.023 342 59.023 342c9.743 14.614 108.147 41.408 108.147 41.408M169.47 352.196s-68.205 1.378-97.14-22.046" stroke-width="4.18916"/></g><g fill="#fff" fill-rule="evenodd"><path d="M165.222 382.921C36.127 355.641 17.128 317.643 6.898 320.08c-16.135 21.936 61.868 69.663 61.868 69.663 48.228 27.767 113.506 31.664 113.506 31.664M179.804 398.355s-45.47 1.378-74.405-14.468" stroke-width="4.18916"/></g><g fill="#fff" fill-rule="evenodd"><path d="M161.324 467.686c-36.049 33.126-56.508 94.97-37.997 98.891 10.23.487 37.997-72.098 78.43-82.328l25.82-22.41M212.873 458.292c8.94 0-46.828 17.223-56.493 42.025" stroke-width="4.18916"/></g><g fill="#fff" fill-rule="evenodd"><path d="M142.326 437.482c-52.613 39.46-69.448 86.135-61.869 88.662 11.692 3.897 58.473-44.735 75.509-47.741 8.281-1.462 57.483-27.768 57.483-27.768M174.292 442.447c8.94 0-36.493 15.845-46.158 40.647" stroke-width="4.18916"/></g><g fill="#fff" fill-rule="evenodd"><path d="M179.836 420.432c-57.484 6.82-158.324-54.56-160.272-49.202-25.026 29.32 83.302 78.431 107.173 75.995l84.764 5.359M202.539 436.935s-69.583.689-101.274-13.779" stroke-width="4.18916"/></g><path d="M360.305 427.29s0-32.38-15.846-33.758c0 0-35.824-2.756-75.783 4.134-91.392-54.564-19.796-124.644-32.38-148.81-4.133-37.202-65.448-93.006-65.448-93.006-6.2 5.511 1.248 40.238-3.445 37.891-12.4-6.2-4.753 21.098-8.267 28.247-11.712-4.134-11.113 13.594-8.267 26.868-9.645 1.378-6.2 17.912-4.134 29.624-18.914-10.398 5.726 29.498-.689 28.247-28.935-4.134 4.134 27.557 4.134 27.557-16.535 6.2-8.81 18.497 2.755 23.424-14.467 10.334.348 26.83 5.512 27.557-13.09 6.89 1.476 16.847 8.956 24.113-11.712 11.023 9.645 15.731 19.98 19.979-8.268 13.09 1.457 15.918 10.333 19.979-5.511 10.334 8.05 9.564 16.535 8.267-10.334 11.023 6.889 15.846 13.778 14.468 0 0 3.67 14.297 15.846 8.956-3.445 11.023 21.357 9.645 21.357 9.645 0 11.023 36.513 6.89 36.513 6.89" fill="#fff" fill-rule="evenodd" stroke-width="4.18916"/><path d="M217.834 231.905s1.758 13.344 8.281 31.665c-10.23 10.23-12.178 25.819-12.178 25.819M182.533 240.17s7.579 19.98 16.535 19.98" fill="none" stroke-width="4.18916"/><g fill="none"><path d="M168.781 193.052s9.645 33.758 18.601 33.758M160.514 219.232s2.755 22.046 11.712 22.046M150.869 247.478s7.578 19.98 16.534 19.98M146.046 276.413s8.267 17.913 17.223 17.913M146.735 305.349s13.779 22.046 22.735 22.046" stroke-width="4.18916"/><g><path d="M149.49 334.973s14.468 12.4 23.425 12.4M152.935 358.397s14.468 12.4 23.424 12.4M156.38 383.887s21.357 10.334 30.313 10.334M166.025 408s24.113 2.067 33.07 2.067M185.684 427.777s20.216-.856 29.172-.856M197.376 447.263s17.293-4.753 28.197-.856" stroke-width="4.18916"/></g><g><path d="M213.452 458.468s17.292-4.754 28.197-.856M226.118 471.62s16.805-2.317 28.684-7.188M243.168 480.39s7.062 2.066 18.942-2.805M263.628 489.158s6.088-.369 17.968-5.24" stroke-width="4.18916"/></g></g><g fill="none"><path d="M182.533 240.17s7.579 19.98 16.535 19.98M178.15 265.016s7.577 19.979 16.533 19.979M169.868 285.963s9.526 13.159 18.483 13.159M173.278 312.27s9.526 13.158 18.483 13.158M180.098 340.037s10.5 2.441 19.457 2.441M186.43 359.523s2.22.493 11.176.493M197.148 222.146s-1.19 11.21 7.766 11.21M207.589 400.813s11.198-1.303 9.229-10.04M191.026 385.224s19.48-5.688 17.51-14.425M231.946 423.222s3.404-22.738 1.435-31.475M258.74 441.246s-3.417-30.045-10.258-33.91M288.456 448.554c-7.308-25.332-17.057-36.866-23.898-39.27M317.198 447.092c-7.308-25.332-26.8-34.917-33.64-37.32M351.298 448.066c-7.307-25.331-26.8-34.916-33.64-37.32M327.443 481.813c-26.307 9.743-38.485 33.613-38.485 33.613" stroke-width="4.18916"/></g></g><path d="M349.322 144.467c-14.127-26.793-28.742-23.87-28.742-23.87-7.307 0-9.743 4.871-18.025 4.871-10.23 0-7.794-10.717-7.794-10.717" fill="none" stroke="#000" stroke-width="4.189"/><path d="M326.426 121.084c-2.923 12.666-12.228 15.126-12.228 15.126s2.017 12.086 9.792 12.641c14.276 2.558 18.938-10.284 12.179-21.434-2.436-2.923-9.743-6.333-9.743-6.333z" fill-rule="evenodd"/><path d="M335.281 135.704a6.46 2.951-19.058 11-12.25 4.096 6.46 2.951-19.058 1112.25-4.096z" fill="#fff"/><g><path d="M292.066 160.662c-6.889 0-8.956 4.134-8.956 4.134M269.331 201.31c-2.922 8.28 6.284 19.658 4.823 17.222M269.785 134.53c-6.82 0-7.308 13.153-7.308 13.153M306.808 248.523l9.743 12.666M311.68 285.547l10.23 11.691M354.549 325.006l12.178 13.153" fill="none" stroke="#000" stroke-width="4.18916"/><path d="M417.214 371.452s5.786 15.993 9.92 17.37c0 0 4.694 1.58 7.794-.487 2.823-1.882 0-5.845 0-5.845-3.789-5.512-17.714-11.038-17.714-11.038zM392.56 379.474s-.952 16.98 2.31 19.87c0 0 3.698 3.294 7.36 2.61 3.335-.625 2.294-5.378 2.294-5.378-1.323-6.556-11.964-17.102-11.964-17.102zM409.438 439.41s-.951 16.981 2.31 19.87c0 0 3.699 3.295 7.361 2.61 3.335-.623 2.294-5.377 2.294-5.377-1.323-6.556-11.965-17.102-11.965-17.102z" fill-rule="evenodd"/><path d="M444.665 427.968s9.748 8.64 10.334 12.746c.345 2.411-5.167 15.156-5.167 15.156-2.411 0-.344-16.534-.344-16.534s-7.579-9.645-4.823-11.368z" fill-rule="evenodd" stroke="#000" stroke-width="4.18916"/><path d="M359.024 506.228c-3.1 0-5.833 9.358-3.797 13.21 0 0 2.302 4.386 5.97 5.034 3.342.59 4.04-4.226 4.04-4.226 1.07-6.602-.003-14.018-6.213-14.018zM389.337 540.33s-6.867 15.56-4.83 19.411c0 0 2.301 4.386 5.97 5.034 3.341.59 4.04-4.226 4.04-4.226 1.069-6.602-5.18-20.219-5.18-20.219zM369.332 580.52c-10.205 3.364-12.346 15.456-11.591 19.747 0 0 .844 4.88 4.137 6.624 2.998 1.587 5.142-2.782 5.142-2.782 3.044-5.955 9.545-18.077 2.312-23.588z" fill-rule="evenodd"/><path d="M338.901 625.998s2.353 12.81.285 16.406c-1.215 2.111-7.21 5.652-7.21 5.652-1.898-1.486 3.718-10.134 3.718-10.134s-.025-12.266 3.207-11.924zM293.431 634.954s4.076 16.6 2.007 20.195c-1.214 2.111-5.142.485-5.142.485-1.899-1.486-.072-8.756-.072-8.756s-.024-12.266 3.207-11.924zM332.012 573.983s1.664 11.088-.405 14.684c-1.214 2.111-5.142.485-5.142.485-1.899-1.486-.072-8.756-.072-8.756s2.387-6.754 5.619-6.413z" fill-rule="evenodd" stroke="#000" stroke-width="4.18916"/><path d="M314.226 520.428c-6.88 4.645-6.903 8.69-6.947 13.047 0 0-.065 4.952 2.853 7.27 2.657 2.109 11.765-1.793 11.765-1.793 4.084-5.297-7.327-5.434-7.671-18.524zM387.942 453.946c-6.88 4.645-6.903 3.867-6.948 13.046 0 0 2.347 7.364 5.265 9.681 2.657 2.11 5.565-4.548 5.565-4.548 4.084-5.296 1.973-16.456-3.882-18.179zM438.596 490.727c-3.1 0-5.834 9.358-3.797 13.21 0 0 2.301 4.386 5.97 5.034 3.342.59 4.04-4.226 4.04-4.226 1.069-6.602-.003-14.018-6.213-14.018zM417.239 517.25c-4.43 14.318-9.623 18.66-7.587 22.512 0 0 5.058 1.285 8.727 1.933 3.341.59 4.04-4.225 4.04-4.225 1.069-6.603-4.147-4.718-5.18-20.22zM296.669 684.037c-3.1 0-5.834 9.36-3.798 13.211 0 0 2.302 4.386 5.972 5.034 3.34.59 4.039-4.226 4.039-4.226 1.069-6.602-.003-14.019-6.213-14.019z" fill-rule="evenodd"/></g><g stroke="#000"><g fill="#fff" fill-rule="evenodd"><path d="M1322.578 117.959c.689-53.048-62.004-88.184-62.004-93.007 6.2-37.811 95.762 52.36 100.584 64.071 5.539 17.091-6.89 37.892-6.89 37.892M1305.354 48.376c18.602 15.157 33.758 64.76 33.758 64.76" stroke-width="4.18916"/></g><g fill="#fff" fill-rule="evenodd"><path d="M1351.513 117.27c7.578-50.982-31.002-95.073-28.246-96.451 23.705-11.853 54.425 50.98 63.382 71.649l-11.712 70.271M1363.914 75.245c9.645 24.801-.69 58.559-.69 58.559" stroke-width="4.18916"/></g><g fill="#fff" fill-rule="evenodd"><path d="M1371.492 144.138c12.4-12.4.689-101.273 4.134-101.273 26.18 0 39.958 85.428 34.446 103.34-17.877 58.102-32.38 68.204-32.38 68.204M1394.916 113.825c2.067 26.18-18.601 58.56-18.601 58.56" stroke-width="4.18916"/></g><g fill="#fff" fill-rule="evenodd"><path d="M1377.692 209.587c33.07-31.002 38.806-114.188 43.403-122.63 35.38 6.889 17.224 95.072 17.224 95.072-.69 6.89-46.848 62.004-46.848 62.004M1425.229 142.071c11.712 23.424-41.336 93.006-41.336 93.006" stroke-width="4.18916"/></g><path d="M1336.356 406.622s8.957-119.875-6.2-137.787l44.78-66.138 57.871 115.052-52.359 95.762-44.092-6.89z" fill="#fff" fill-rule="evenodd" stroke-width="4.18916"/><path d="M1374.248 284.68c5.511 15.846-9.645 31.692-9.645 31.692M1385.96 293.637c5.511 15.845-19.98 42.025-19.98 42.025M1390.782 320.505c5.512 15.846-22.735 28.935-22.735 28.935M1378.381 360.463c-1.378 11.712-22.045 8.956-22.045 8.956" fill="none" stroke-width="4.18916"/></g><path d="M1378.511 667.85c-19.635 25.145-29.229 81.84-29.229 81.84l-5.846-18.511c-2.756 1.722-4.43 16.076-8.281 16.076-1.723 0-1.42-14.801-5.359-15.59-1.722-.344-.58 20.461-4.384 20.461-3.1 0-3.351-14.816-4.385-14.127-2.432 1.621-2.914 19.666-4.871 10.23 2.756-96.795-186.989-176.002-183.169-284.496-4.822-112.296 115.942-154.913 189.989-249.42 0 0 20.807-61.975-17.538-34.588-31.002-4.823-28.254-35.562-28.254-35.562h-17.05c-7.579-66.138 58.945-50.664 58.945-50.664 61.66 0 67.226 63.817 67.226 63.817 15.846 83.017-91.726 181.884-91.726 181.884-15.846 34.447.142 93.843.142 93.843l149.71 141.049" fill="#fff" fill-rule="evenodd" stroke="#000" stroke-width="4.189"/><g stroke="#000"><path d="M1442.7 572.979c8.266 9.99 50.744 60.32 61.078 77.888 14.631 16.129-13.813 11.594-13.813 11.594s42.06 44.46 62.49 57.467c-6.272 18.818-46.61-8.434-46.61-8.434s39.269 24.112 37.202 28.935c-11.987 9.14-46.847-16.535-46.847-16.535s8.327 11.712 1.377 15.846c-11.711 0-38.58-21.357-38.58-21.357s5.512 12.4-.689 14.468c-11.2-7.06-81.294-65.45-81.294-65.45" fill="#fff" fill-rule="evenodd" stroke-width="4.18916"/><path d="M1485.521 660.857c4.478 7.234-16.19 9.154-21.701.689 0 11.712-15.967 12.158-21.702 6.545-2.411 7.578-13.566 5.644-20.668-1.378-1.205 3.272-11.314 10.286-15.047 8.94-7.3-2.634-35.824-42.996-42.025-46.44M1514.529 717.081s-32.762-31.905-54.196-48.955M1503.324 728.773s-43.095-39.828-64.53-56.878M1461.916 720.978s-28.627-29.494-50.062-46.544M1490.416 661.622s-32.014-38.155-53.448-55.205M1465.433 662.635s-26.906-30.872-57.641-52.745M1440.904 667.242s-12.679-24.317-51.337-54.113M1421.27 666.897s-14.711-25.507-41.313-44.624M1422.944 670.315c21.922 22.409 39.46 37.51 39.46 37.51M1454.61 672.263c21.92 22.41 44.33 40.434 44.33 40.434M1476.044 665.93c21.922 22.41 27.767 24.358 27.767 24.358" fill="none" stroke-width="4.18916"/><path d="M1454.52 589.236c4.479 7.234-5.65 24.753-27.237 14.339 6.82 18.045-3.3 13.133-17.317 6.545 3.922 15.373-13.566 5.644-20.668-1.378-1.205 3.272-1.57 11.26-8.226 11.863-7.73.7-15.852-21.561-22.052-25.006M1427.993 603.895l-39.15-35.882M1448.822 605.785l-19.058-29.003M1410.397 609.884l-23.502-25.795M1390.02 609.338l-12.38-13.557M1362.538 563.142c31.177 38.972-13.64 7.794-13.64 7.794M1402.71 581.713s18.286 3.35-2.662-21.981M1415.637 543.169s20.948 27.767 6.82 23.383M1367.41 541.22l5.845 9.256M1427.816 613.318c4.871 5.359 16.076 13.64 16.076 13.64M1406.868 618.677c10.718 8.282 19.974 17.05 19.974 17.05M1372.768 626.959c21.922 22.408 17.05 16.563 17.05 16.563M1384.46 617.703c10.717 8.281 17.05 14.614 17.05 14.614" fill="none" stroke-width="4.18916"/></g><g stroke="#000"><g fill="#fff" fill-rule="evenodd"><path d="M1418.584 471.096c17.05 33.126 38.81 87.748 15.102 112.044-7.795 2.436-28.591-77.82-44.818-85.251-2.436-8.282-13.153-44.818-13.153-44.818M1392.16 467.248c-8.94 0 17.892 17.913 27.557 42.714" stroke-width="4.18916"/></g><path d="M1384.97 473.531c13.154 61.868.975 75.021-4.384 75.509-7.794-3.898-21.434-60.407-37.023-63.817" fill="#fff" fill-rule="evenodd" stroke-width="4.18916"/><g fill="#fff" fill-rule="evenodd"><path d="M1451.71 187.087c54.561-51.15 61.868-109.609 67.714-110.096 25.748-2.145-8.769 103.763-8.769 103.763l-65.278 52.125M1460.364 199.942s26.18-19.98 39.958-46.848" stroke-width="4.18916"/></g><g fill="#fff" fill-rule="evenodd"><path d="M1451.71 224.11c80.867-44.817 90.61-117.89 97.43-115.454 24.9 9.832-6.82 76.97-6.82 76.97-4.384 18.511-68.688 76.482-68.688 76.482M1467.254 245.411s34.446-25.49 62.004-67.515" stroke-width="4.18916"/></g><g fill="#fff" fill-rule="evenodd"><path d="M1476.555 256.75c96.943-53.587 98.891-114.968 109.609-111.07 23.02 62.4-61.381 121.3-120.813 165.63M1471.387 283.303s44.092-15.846 71.65-57.87" stroke-width="4.18916"/></g><g fill="#fff" fill-rule="evenodd"><path d="M1467.3 309.849c84.276-26.793 124.964-105.335 135.427-101.327 24.357 9.256-26.793 75.02-26.793 75.02-41.408 38.486-109.61 66.74-109.61 66.74M1465.187 321.883s58.56-11.023 90.25-43.403" stroke-width="4.18916"/></g><g fill="#fff" fill-rule="evenodd"><path d="M1466.812 345.41c134.94-43.355 140.3-85.738 152.965-82.327 24.031 18.273-53.1 78.918-53.1 78.918-9.742 14.614-108.147 41.408-108.147 41.408M1456.23 352.196s68.205 1.378 97.14-22.046" stroke-width="4.18916"/></g><g fill="#fff" fill-rule="evenodd"><path d="M1460.479 382.921c129.095-27.28 148.094-65.278 158.324-62.842 16.134 21.936-61.868 69.663-61.868 69.663-48.228 27.767-113.506 31.664-113.506 31.664M1445.897 398.355s45.47 1.378 74.405-14.468" stroke-width="4.18916"/></g><g fill="#fff" fill-rule="evenodd"><path d="M1464.376 467.686c36.05 33.126 56.509 94.97 37.998 98.891-10.23.487-37.998-72.098-78.431-82.328l-25.82-22.41M1412.828 458.292c-8.94 0 46.828 17.223 56.492 42.025" stroke-width="4.18916"/></g><g fill="#fff" fill-rule="evenodd"><path d="M1483.375 437.482c52.612 39.46 69.448 86.135 61.868 88.662-11.691 3.897-58.472-44.735-75.508-47.741-8.282-1.462-57.484-27.768-57.484-27.768M1451.408 442.447c-8.94 0 36.494 15.845 46.159 40.647" stroke-width="4.18916"/></g><g fill="#fff" fill-rule="evenodd"><path d="M1445.865 420.432c57.483 6.82 158.323-54.56 160.272-49.202 25.025 29.32-83.303 78.431-107.173 75.995l-84.764 5.359M1423.162 436.935s69.582.689 101.273-13.779" stroke-width="4.18916"/></g><path d="M1265.396 427.29s0-32.38 15.845-33.758c0 0 35.825-2.756 75.783 4.134 91.393-54.564 19.797-124.644 32.38-148.81 4.134-37.202 65.449-93.006 65.449-93.006 6.2 5.511-1.248 40.238 3.445 37.891 12.4-6.2 4.753 21.098 8.267 28.247 11.712-4.134 11.112 13.594 8.267 26.868 9.645 1.378 6.2 17.912 4.134 29.624 18.913-10.398-5.726 29.498.688 28.247 28.936-4.134-4.133 27.557-4.133 27.557 16.534 6.2 8.81 18.497-2.756 23.424 14.468 10.334-.347 26.83-5.511 27.557 13.09 6.89-1.476 16.847-8.956 24.113 11.711 11.023-9.646 15.731-19.98 19.979 8.268 13.09-1.457 15.918-10.334 19.979 5.512 10.334-8.05 9.564-16.534 8.267 10.334 11.023-6.89 15.846-13.779 14.468 0 0-3.67 14.297-15.845 8.956 3.444 11.023-21.357 9.645-21.357 9.645 0 11.023-36.514 6.89-36.514 6.89" fill="#fff" fill-rule="evenodd" stroke-width="4.18916"/><path d="M1407.867 231.905s-1.758 13.344-8.282 31.665c10.23 10.23 12.179 25.819 12.179 25.819M1443.167 240.17s-7.578 19.98-16.534 19.98" fill="none" stroke-width="4.18916"/><g fill="none"><path d="M1456.92 193.052s-9.645 33.758-18.602 33.758M1465.187 219.232s-2.756 22.046-11.712 22.046M1474.832 247.478s-7.578 19.98-16.534 19.98M1479.654 276.413s-8.267 17.913-17.223 17.913M1478.966 305.349s-13.78 22.046-22.735 22.046" stroke-width="4.18916"/><g><path d="M1476.21 334.973s-14.468 12.4-23.424 12.4M1472.765 358.397s-14.467 12.4-23.424 12.4M1469.32 383.887s-21.357 10.334-30.313 10.334M1459.675 408s-24.112 2.067-33.068 2.067M1440.016 427.777s-20.215-.856-29.171-.856M1428.325 447.263s-17.293-4.753-28.198-.856" stroke-width="4.18916"/></g><g><path d="M1412.249 458.468s-17.293-4.754-28.198-.856M1399.583 471.62s-16.806-2.317-28.685-7.188M1382.533 480.39s-7.063 2.066-18.942-2.805M1362.072 489.158s-6.088-.369-17.967-5.24" stroke-width="4.18916"/></g></g><g fill="none"><path d="M1443.167 240.17s-7.578 19.98-16.534 19.98M1447.552 265.016s-7.579 19.979-16.535 19.979M1455.833 285.963s-9.527 13.159-18.483 13.159M1452.423 312.27s-9.527 13.158-18.483 13.158M1445.603 340.037s-10.501 2.441-19.457 2.441M1439.27 359.523s-2.22.493-11.176.493M1428.553 222.146s1.19 11.21-7.766 11.21M1418.112 400.813s-11.198-1.303-9.229-10.04M1434.675 385.224s-19.48-5.688-17.51-14.425M1393.754 423.222s-3.403-22.738-1.434-31.475M1366.961 441.246s3.417-30.045 10.257-33.91M1337.245 448.554c7.307-25.332 17.057-36.866 23.897-39.27M1308.503 447.092c7.307-25.332 26.8-34.917 33.64-37.32M1274.403 448.066c7.307-25.331 26.8-34.916 33.64-37.32M1298.258 481.813c26.306 9.743 38.485 33.613 38.485 33.613" stroke-width="4.18916"/></g></g><path d="M1276.379 144.467c14.127-26.793 28.742-23.87 28.742-23.87 7.307 0 9.743 4.871 18.024 4.871 10.23 0 7.795-10.717 7.795-10.717" fill="none" stroke="#000" stroke-width="4.189"/><path d="M1299.275 121.084c2.923 12.666 12.228 15.126 12.228 15.126s-2.018 12.086-9.792 12.641c-14.276 2.558-18.938-10.284-12.179-21.434 2.436-2.923 9.743-6.333 9.743-6.333z" fill-rule="evenodd"/><path d="M1290.42 135.704a2.951 6.46-70.942 1012.25 4.096 2.951 6.46-70.942 10-12.25-4.096z" fill="#fff"/><g><path d="M1333.634 160.662c6.89 0 8.956 4.134 8.956 4.134M1356.37 201.31c2.922 8.28-6.285 19.658-4.823 17.222M1355.916 134.53c6.82 0 7.307 13.153 7.307 13.153M1318.893 248.523l-9.743 12.666M1314.021 285.547l-10.23 11.691M1271.152 325.006l-12.179 13.153" fill="none" stroke="#000" stroke-width="4.18916"/><path d="M1208.487 371.452s-5.787 15.993-9.92 17.37c0 0-4.695 1.58-7.795-.487-2.823-1.882 0-5.845 0-5.845 3.79-5.512 17.715-11.038 17.715-11.038zM1233.141 379.474s.951 16.98-2.31 19.87c0 0-3.698 3.294-7.36 2.61-3.336-.625-2.294-5.378-2.294-5.378 1.323-6.556 11.964-17.102 11.964-17.102zM1216.262 439.41s.952 16.981-2.31 19.87c0 0-3.698 3.295-7.36 2.61-3.335-.623-2.294-5.377-2.294-5.377 1.323-6.556 11.964-17.102 11.964-17.102z" fill-rule="evenodd"/><path d="M1181.035 427.968s-9.747 8.64-10.334 12.746c-.344 2.411 5.167 15.156 5.167 15.156 2.412 0 .345-16.534.345-16.534s7.578-9.645 4.822-11.368z" fill-rule="evenodd" stroke="#000" stroke-width="4.18916"/><path d="M1266.676 506.228c3.1 0 5.834 9.358 3.798 13.21 0 0-2.302 4.386-5.971 5.034-3.341.59-4.04-4.226-4.04-4.226-1.068-6.602.004-14.018 6.213-14.018zM1236.363 540.33s6.867 15.56 4.831 19.411c0 0-2.302 4.386-5.97 5.034-3.342.59-4.04-4.226-4.04-4.226-1.07-6.602 5.18-20.219 5.18-20.219zM1256.369 580.52c10.205 3.364 12.346 15.456 11.59 19.747 0 0-.843 4.88-4.136 6.624-2.999 1.587-5.142-2.782-5.142-2.782-3.045-5.955-9.546-18.077-2.312-23.588z" fill-rule="evenodd"/><path d="M1286.8 625.998s-2.353 12.81-.285 16.406c1.215 2.111 7.209 5.652 7.209 5.652 1.899-1.486-3.717-10.134-3.717-10.134s.024-12.266-3.207-11.924zM1332.27 634.954s-4.076 16.6-2.008 20.195c1.215 2.111 5.142.485 5.142.485 1.9-1.486.072-8.756.072-8.756s.025-12.266-3.207-11.924zM1293.689 573.983s-1.664 11.088.404 14.684c1.215 2.111 5.142.485 5.142.485 1.9-1.486.072-8.756.072-8.756s-2.386-6.754-5.618-6.413z" fill-rule="evenodd" stroke="#000" stroke-width="4.18916"/><path d="M1311.475 520.428c6.88 4.645 6.903 8.69 6.947 13.047 0 0 .064 4.952-2.854 7.27-2.656 2.109-11.764-1.793-11.764-1.793-4.084-5.297 7.327-5.434 7.671-18.524zM1237.76 453.946c6.88 4.645 6.902 3.867 6.946 13.046 0 0-2.347 7.364-5.265 9.681-2.656 2.11-5.564-4.548-5.564-4.548-4.084-5.296-1.974-16.456 3.882-18.179zM1187.105 490.727c3.1 0 5.833 9.358 3.797 13.21 0 0-2.302 4.386-5.971 5.034-3.341.59-4.04-4.226-4.04-4.226-1.068-6.602.004-14.018 6.214-14.018zM1208.462 517.25c4.43 14.318 9.622 18.66 7.586 22.512 0 0-5.057 1.285-8.727 1.933-3.34.59-4.039-4.225-4.039-4.225-1.069-6.603 4.146-4.718 5.18-20.22zM1329.032 684.037c3.1 0 5.833 9.36 3.797 13.211 0 0-2.302 4.386-5.971 5.034-3.34.59-4.04-4.226-4.04-4.226-1.068-6.602.004-14.019 6.214-14.019z" fill-rule="evenodd"/></g><g><path d="M300 658.5s298.5-112.32 298.5-397.772V2.176H1.5v258.552C1.5 546.18 300 658.5 300 658.5z" fill="url(#c)" fill-rule="evenodd" transform="translate(513.661 319.287)"/></g><g><path d="M813.661 977.787s-298.5-112.32-298.5-397.772V321.464h597v258.551c0 285.452-298.5 397.772-298.5 397.772z" fill="none" stroke="#000" stroke-width="3"/></g></svg>