<svg xmlns="http://www.w3.org/2000/svg" height="480" width="640" version="1"><path fill="#c00" d="M0 0h640v480H0z"/><g stroke-width="1pt"><path fill="#006" d="M0 0h512v256H0z"/><path fill="#fff" d="M0 0v28.622L454.757 256h57.241v-28.62L57.241 0H0zm511.998 0v28.62L57.241 256H0v-28.62L454.757 0h57.241z"/><path fill="#fff" d="M213.333 0v255.999h85.333V0h-85.333zM0 85.333v85.333h511.998V85.333H0z"/><path fill="#c00" d="M0 102.4v51.2h511.998v-51.2H0zM230.4 0v255.999h51.199V0h-51.2zM0 255.999l170.666-85.333h38.16L38.162 255.999H0zM0 0l170.666 85.333h-38.16L0 19.081V0zm303.171 85.333L473.837 0h38.161L341.332 85.333h-38.16zm208.827 170.666l-170.666-85.333h38.16l132.506 66.253v19.08z"/></g><path d="M481.688 463.152c3.368.464 128.206-32.03 127.974-82.726V132.242H353.706v248.184c-.232 50.695 127.974 82.726 127.974 82.726z" fill-rule="evenodd" fill="#fff"/><path d="M-903.54 822.05c1.22 325.7-655.51 534.47-673.23 531.49 0 0-674.45-205.79-673.23-531.49 7.16-10.536 9.96-14.595 10.43-27.844 2.29-6.875 1.64-15.152 1.64-23.02v-23.021c-1.73-5.202-1.64-13.795-1.64-21.376-.22-5.804-1.64-15.454-1.64-16.443 1.28 9.471 3.02 14.092 6.57 1.644 2.51-6.278 3.92-11.441 6.58-19.732.29-8.094 1.64-14.587 1.64-23.02 0-7.972.38-15.559 1.65-21.377 2.53-2.073 4.74-5.722 8.22-3.288-.31 8.369-2.27 12.789-3.29 21.376v46.041c.16 5.439.91 9.983 3.29 13.155.29-8.095 1.64-14.587 1.64-23.021 1.9-5.689 3.07-13.139 6.58-18.088 1.99-7.394 5.22-13.502 8.22-21.376 2.51-7.807 5.04-13.192 6.58-19.732 3.63-4.077 7.64-11.014 11.51-14.799 8.45-5.43 5.95 2.76 3.29 9.866v23.021c5.8 1.657 2.09-2.335 6.58-6.577 1.58-6.083 5.31-14.346 8.22-19.732 2.92-4.739 6.7-9.218 9.86-14.799 3.42-2.102 12.53-8.07 13.16-8.222-3.65 3.824-6.79 9.365-9.87 14.799-1.26 5.818-1.64 13.405-1.64 21.376.6 15.793 3.82 3.08 6.58-3.288 3.35-2.744 1.82-4.597 8.22-4.933 9.69-6.53 6.58.646 4.93 8.221-1.31 7.351-1.64 14.841-1.64 23.021 0 8.924 1.54 12.746 1.64 21.376 0 7.582-.09 16.175 1.65 21.376 1.17 8.881 3.58 12.586 6.57 19.732 2.51 7.252 5.42 11.873 8.22 18.088 6.44 7.893 3.29.717 3.29-8.222v-46.041c3.02-5.157 3.89-11.445 8.22-16.443 1.65-6.019 4.65-10.675 8.23-14.799 2.45-3.909 6.16-8.807 8.22-13.155v23.021c0 8.179.33 15.67 1.64 23.02 2.26 7.619 3.93 12.286 4.94 19.732 4.29 2.78 5.91 6.903 9.86 9.866 1.99-7.598 3.29-14.388 3.29-23.02v-23.021c1.37-7.684 2.92-14.073 4.93-19.732 2.22-6.977 3.68 1.805 4.94 4.933 2.84 6.012 5.79 9.158 9.86 16.443 4.83 3.451 6.08 8.786 9.87 13.155.87 4.034 1.29 13.115 3.29 16.443 1.77-8.002 4.74-12.822 6.57-21.376 4.93-4.831 7.83-8.229 13.16-11.51 8.36-1.611 12.2-3.916 19.73-4.933 10.41 0 8.54 1.064 1.64 6.577-2.61 4.246-6.36 10.867-9.86 14.799-1.02 7.514-2.97 11.212-3.29 19.732.6 8.429 3.02 15.088 4.93 21.376 4.12-4.611 8.7-14.515 11.51-19.732 4.41-5.036 6.44-12.481 9.87-16.443 3.54-4.289 8.13-7 14.8-8.222 4.08-3.065 8.89-3.288 16.44-3.288 15.09 4.827 31.93 3.435 47.69 4.933 12.19 0 19.9-2.238 31.24-4.933 12.34-2.539 25.39-2.794 37.82-4.933 12.52 0 26.39-1.114 37.82 1.644h32.88c11.89 0 23.53-.245 34.53-1.644 13.27 0 26.77.605 39.47-1.645 14.64 0 28.33-1.158 42.75-1.644 19.75 0 38.05-2.356 57.55-3.288 14.92-.634 26.89-5.416 41.11-8.222 9.53-2.169 20.71-1.644 31.24-1.644 12.48 0 22.46 2.218 34.53 3.288 10.27 0 19.68.851 29.6 1.645H-1349.99c12.08 0 23.18.743 34.53 1.644 10.31 0 19.66.83 29.6 1.644h26.31c7.22.86 16.21 1.021 23.02 3.289 9.55 0 17.27 1.321 26.31 1.644 8.51.516 15.72 1.644 24.66 1.644 8.26.295 15.31 1.911 23.02 3.289 6.98.943 12.59 2.733 18.09 4.933 4.64 2.197 12.24 5.279 16.44 8.222 9.13 0 13.09-1.725 19.74-3.289 4.58-3.537 9.64-3.654 9.86-6.577-5.07 4.519-9.44 5.577-11.51 13.154-1.03 2.565-4.34 12.035 0 9.866 6.04-3.525 10.35-7.542 13.16-13.154 4.7-6.623 6.86-10.678 11.51-16.444 3.44-6.616 9.21-10.764 13.15-14.798 4.6-6.759 7.28-10.169 3.29 1.644-1.41 7.913-2.72 14.015-3.29 21.376-.94 6.975-2.73 12.587-4.93 18.088 0 5.08-.42 10.399 1.64 13.154 7.59-2.167 15-6.207 19.73-9.866 6.51-1.774 11.97-5.252 18.09-9.866 8.1-2.025 13.33-2.289 14.8-4.933-4.43 4.523-8.65 8.448-13.15 11.511-2.19 4.612-5.98 7.345-4.94 11.51 5.11-1.111 14.94-1.69 19.73-3.289 7.71-2.667 11.16-4.304 19.74-6.577 14.765.192 2.498 2.24-4.94 6.577-4.46 3.036-9.07 7.542-14.8 11.511-3.67 6.82-6.16 12.168-9.86 16.443-1.93 7.157-4.59 12.247-8.22 16.443-1.46 6.188-3.54 11.659-4.94 18.088-1.42 10.552-5.32 13.111 6.58 8.221 5.1-5.562 10.03-10.196 13.16-14.799 3.03-4.728 7.17-10.545 11.51-14.799 2.26-6.386 5.81-8.91 9.86-16.443 3.661-3.837 8.797-9.617 13.157-14.799 3.764-3.59 8.946-7.383 14.798-9.866 9.013-3.004 7.87-8.779 4.933 1.645-3.466 4.196-5.575 9.794-6.577 16.443-3.571 14.821.355 9.164 6.577 4.933 5.341-4.412 3.347-7.48 11.511-9.866 1.801-1.517 10.546-6.293 8.221-1.644-1.116 7.408-3.903 10.798-6.577 16.443-3.615 6.524-6.483 11.714-8.222 18.087-2.909 3.88-5.027 8.337 0 6.578 8.471-1.883 11.08-4.921 16.444-8.222 3.201-7.303 6.352-9.631 9.866-14.799-2.013 8.052-4.9 13.579-6.578 19.732-3.786 4.369-5.751 9.307-8.221 16.443-3.603 7.016-4.821 10.371-4.933 19.732-2.215 7.477-5.063 12.895-1.645 19.732 5.209-5.417 9.865-8.835 13.155-16.443 3.386-4.099 5.154-10.395 6.577-16.443 1.567-6.658 3.942-10.753 4.933-18.088 2.292-6.875 1.645-15.153 1.645-23.021v-23.02c-.094-7.859-2.588-14.365 0-19.732 5.006 5.109 6.258 9.691 9.866 16.443 2.11 8.442 5.844 13.214 6.577 21.376 3.342 4.915 3.839 10.934 6.577 18.088.577 8.072 2.097 15.085 0 21.376-.496 5.291-3.066 9.066 0 13.155 5.308-4.385 5.538-10.919 6.577 3.289 0 7.198.252 14.07.836 21.266z" fill-rule="evenodd" fill-opacity=".996" transform="matrix(.19009 0 0 .15565 781.422 252.48)" stroke="#002b00" stroke-width="11.125" fill="#007a0f"/><path d="M-2178.7 685.68c-.62 4.245-1.64 17.061-1.64 26.309 0 8.38.75 14.816 1.64 21.376.55 5.919 1.88 6.805 0 11.51M-2154.1 672.52c.63 4.245 1.65 17.062 1.65 26.309 0 8.736-1.08 14.023-1.65 21.377-.29 8.079-1.64 12.433-1.64 21.376v6.577M-2172.2 759.67c1.55 0 .93 4.205 1.64 9.866.95 6.998 2.51 12.974 4.93 18.088.35 9.411 2.15 11.425 8.23 14.799 5.87 5.788 8.03 9.685 11.51 14.799 4.19.741 4.91 1.85 6.57 4.933M-2229.7 809h1.64c8.48 1.413 20.16 1.238 26.31 3.289 6.33 1.469 13.95 4.538 18.09 8.221 6.65 7.382 9.26 12.74 18.08 16.444 7.4 4.315 14.86 5.888 23.03 8.221 7.59 3.202 12.6 5.624 18.08 8.222 7.81 3.994 14.04 8.476 23.02 9.866h23.02c7.7 0 12.64.26 16.45-3.289l-16.45 3.289c7.7 0 12.64.26 16.45-3.289M-2200.1 927.39H-2147.48c3.39 7.075 6.48 9.284 13.16 11.51 5.33 3.905 12.28 6.004 19.73 6.577h3.29M-2185.3 955.35c4.47-.919 17.27-4.287 26.31-4.933 9.62 0 14.8 2.073 19.73 6.577 5.04 3.425 7.99 6.602 14.8 9.866 7.27 2.511 14.62 3.289 23.02 3.289.78 2.319.48 1.644 3.29 1.644M-2163.9 988.23h29.6c5.9 2.794 10.77 3.151 13.15 9.865 6.82 5.741 9.83 9.501 19.73 9.871 3.81 1.97 11.83 1.64 18.09 1.64M-2085 1045.8h29.59c9.66.98 16.51.28 21.38 6.58 5.42 7.8 9.97 6.08 16.44 9.87 5.7 0 9.45 1.18 14.8 1.64M-2014.3 1091.8c4.25.62 17.06 1.64 26.31 1.64 9.08 1.23 9.76 3.39 14.8 9.87 2.74 9.6 7.48 8.92 18.09 9.86 7.2 0 12.97-.53 18.09-1.64M-2149.1 762.96c.55.548 1.09 1.096 1.64 1.644-3.73-3.731-1.93-2.363 1.65 6.578.62 8.063 2.05 12.855 4.93 19.732 3.91 5.609 7.18 10.979 9.87 16.443 2.92 6.68 6.81 11.845 11.51 16.443.69 2.087 1.2 2.593 3.28 3.289M-2114.6 769.54c.84 0 5.23 5.086 8.22 9.866 5.7 4.074 10.23 9.203 14.8 14.799 5.13 3.386 11.11 7.55 18.09 11.51 7.98 2.764 10.74 5.003 18.08 8.222 3.87 3.348 10.82 5.812 16.45 8.222 2.42 0 1.25-.388 3.29 1.644M-2076.8 753.1c-1.8 0 0 4.239 0 9.866 2.75 6.088 7.01 12.119 11.51 18.088 5.21 3.442 10.49 10.505 14.8 16.443 2.65 4.223 5.7 7.31 11.51 9.866M-2037.3 739.94c.06 5.876 1.62 16.938 3.29 26.31 2.86 6.823 4.98 11.276 6.58 18.087 1.03 6.853 3.62 12.832 8.22 18.088 3.77 4.78 10.23 9.499 16.44 11.51 6.35 2.719 10.81 4.826 19.73 4.933 6.56-.886 13-1.644 21.38-1.644h13.16" transform="matrix(.19009 0 0 .15565 781.422 252.48)" stroke="#002b00" stroke-width="11.125" fill="none"/><path d="M-1999.5 753.1c.14 5.279-1.4 10.768 4.93 14.799 2.13 6.659 6.84 14.364 11.51 21.376 4.17 5.286 9.96 9.137 18.09 9.866 5.77 1.339 14.5 2.639 21.38 4.933 6.24 4.06 12.78 10.903 21.37 13.155l-21.37-13.155c6.24 4.06 12.78 10.903 21.37 13.155M-1984.7 753.1c4.35 5.551 16.15 17.799 24.67 26.309 5.88 4.862 11.94 8.736 18.08 11.511 7.52 1.163 15.81 4.454 21.38 6.577 3.59 1.537 4.61 3.012 9.86 3.289M-1961.7 733.36l1.65 1.645c-4.68-4.672-2.25-2.142 8.22 6.577 6.14 4.954 8.58 6.281 9.86 14.799 3.02 2.854 3.99 7.924 8.22 4.933-.52-9.732-5.03-13.119 3.29-8.222 3.03 6.332 6.75 11.464 11.51 14.799 3 3.173 6.52 4.743 13.16 4.933M-1790.7 955.35c4.13.516 21.43.566 29.6 3.289 7.35 1.312 14.84 1.644 23.02 1.644 8.32-.308 13.02-2.784 21.38 0 9.59.738 10.67 3.031 18.08 9.866 6.11 4.141 8.73 8.81 13.16 16.443 1.94 1.254 14.26 8.828 4.93 3.289M-1798.9 915.88c5.51 2.905 18.24 10.319 24.66 14.799 8.63 1.917 11.11 4.661 19.74 6.577 8.8-.104 14.34-2.338 21.37-3.288 5.52-1.84 14.39-2.331 21.38 0 7.45 2.581 12.13 4.848 18.09 8.221 3.26 4.078 13.55 11.503 3.28 3.289-2.74-3.837-3.83-4.385-8.22-6.577M-1764.4 912.6c6.03.172 21.04 2.167 31.24 3.288 6.88 2.293 15.55 2.755 23.02 3.289 8.66 1.546 15.09 2.11 21.38 6.577 4.43 2.981 10.56 8.747 14.8 13.155 9.3 4.031 3.64 2.989-3.29-3.289M-1739.7 897.8c6.48 0 16.65 1.448 26.31 3.288 3.82 4.619 9.98 5.905 18.09 8.222 5.73 1.4 9.92 4.725 16.44 8.222M-1616.4 1021.1l1.64-1.64c-3.62 3.62-2.4 1.79 6.58 0 9.97-2.69 19.28-3.77 29.6-1.65 8.04 0 15.89.14 23.02-1.64 3.3-2.48 7.45-1.31 9.86-4.94 4.74-.83 4.58-4.61 4.94 0M-1611.4 1047.4c8.69-.44 26.41-1.55 36.18-8.22 6.37-1.94 12.67-5.53 19.73-6.58 8.38 0 15.17-1.08 23.02-1.64 9.47-.51 17.94-1.65 27.95-1.65h24.67c8.29 0 15.43.74 23.02 1.65 6.47 1.13 14.19 4.91 18.09 8.22 5.84 1.27 12.44 1.88 18.08 0M-1442.1 1193.8c.55-.54 1.09-1.09 1.64-1.64-3.38 3.38-2.34 1.99 4.93-1.64 9.8 0 18.97-.48 27.96-1.65 8.59.28 17.5 1.19 23.02 4.93 7.66 2.47 15.09 3.36 21.37 6.58 8.01 2.96 13.02 4.97 21.38 6.58 4.48 2.24 15.13 1.73 21.38 3.29 8.04 0 15.89.13 23.02-1.65 8.55-1.83 13.37-4.8 21.37-6.57 5.35-5.16 12-8.15 19.74-9.87 3.18-3.85 7.65-8.33 11.51-11.51l-11.51 11.51c3.18-3.85 7.65-8.33 11.51-11.51M-1220.1 787.63c6.1-.419 18.58-2.761 26.31-6.577 6.46-1.821 14.22-5.025 18.09-8.222 6.51-1.777 10.7-4.02 18.09-6.577 6.89-4.925 14.68-9.035 18.08-13.155 9.14-4.185 11.31-6.836 14.8-14.799 1.86-2.481.95-4.152 3.29-4.933M-1083.6 733.36c-.84 0-5.23 5.086-8.22 9.866-5.65 5.273-11.05 12.922-14.8 19.732-4.39 2.986-8.99 7.951-14.8 11.51-7.43 6.356-13 10.315-21.38 14.799-6.2 4.134-11.79 6.457-19.73 8.222-7.7 2.667-11.15 4.304-19.73 6.577M-1049.1 738.3c-.55.548-1.1 1.096-1.64 1.644 4.12-4.126 2.12-2.248-4.94 6.578-5.63 5.145-11.9 12.179-14.8 16.443-4.66 3.108-12.7 11.297-18.08 14.799-7.3 6.078-14.09 8.026-19.73 13.155-8.1 3.121-13.17 6.542-21.38 9.866-4.69 2.222-11.82 3.87-16.44 6.577h-4.94M-1059 797.49c-.54.548-1.09 1.096-1.64 1.644 3.9-3.904 2.04-2.309-3.29 6.577-5.89 4.086-8.52 7.957-14.8 11.511 0 2.192.55 1.644-1.64 1.644M-988.24 769.54c0 .482-3.036 4.807-4.933 9.866-4.54 4.633-6.777 11.236-11.508 16.444-3.62 7.555-6.47 9.195-13.16 16.443-4.38 2.814-11.43 7.306-14.8 11.51-6.74 2.956-11 6.373-18.08 8.222M-1044.2 845.18c6.05-2.192 16.37-7.738 23.02-11.51 5.59-3.013 12.12-7.204 16.45-9.866 2.19-6.174 7.129-9.368 14.797-13.155 3.301-4.854 8.089-7.802 13.154-13.154 5.008-2.754 6.664-6.426 9.866-9.866M-1047.4 853.4c6.91-.059 19.93-.149 27.95-4.933 8.64-2.708 11.64-6.043 19.731-8.222 4.512-3.159 11.571-6.276 16.443-9.866l-16.443 9.866c4.512-3.159 11.571-6.276 16.443-9.866M-919.18 812.29c-3.606 5.99-11.343 19.205-19.732 24.665-3.205 3.879-11.489 7.529-16.444 11.51-5.166 2.447-12.761 5.717-19.732 9.866-7.788 1.669-13.168 3.716-19.731 6.577M-1050.7 897.8c5.66-2.389 16.06-8.195 24.66-11.511 4.1-2.047 8.2-1.644 13.16-1.644M-1012.9 907.66c.57 0 4.97-4.13 9.86-6.578 6.454-4.053 13.696-8.155 19.734-11.51 6.845-1.786 14.331-6.823 23.02-8.222 4.438 2.219 14.728 2.814 21.377 3.289h9.866M-991.53 920.82c7.102-.182 17.88-.319 24.665-4.933 5.422-.929 10.272-2.506 13.155-4.933M-1108.3 998.1c1.36.072 9.17 1.584 13.15 3.291 5.72 2.86 8.51 6.15 14.8 9.86 5.45 4.78 12.54 6.27 21.37 6.58h23.03c9.67-.55 14.08-2.96 23.02-3.29 7.71 0 13.062-1.08 18.084-3.29M-1126.4 1017.8c6.77.18 10.95 1.22 18.09 4.93 8.07 7.02 13.64 11.21 23.02 13.16 7.35.56 12.64 1.64 21.37 1.64 8.05 0 15.9-.13 23.02 1.65 6.36.18 8.03 1.64 14.8 1.64" transform="matrix(.19009 0 0 .15565 781.422 252.48)" stroke="#002b00" stroke-width="11.125" fill="none"/><path d="M74.995 82.955c-1.044 0-2.29.08-2.907-.29-1.18-.217-1.99-.696-2.616-1.454-1.078-.748-1.423-1.441-2.325-2.325-.29-1.064-.822-1.887-1.454-2.616.02-1.647.31-2.236.872-3.198 1.375-.476 1.918-.86 3.488-1.163.757-.514 1.958-1.025 2.907-1.453-.436-.738-.894-1.183 0-2.035.736-.701 1.575-1.255 2.907-1.453 1.48.134 1.822.696 2.616 1.453 1.423 0 2.81-.024 4.07.29 1.171.32 1.909.722 3.197 1.454 1.18.394 1.727.784 2.326 2.035.935.91.316 1.513.29 2.907-.162 1.92-.79 1.79-1.744 2.616 1.316.673 2.317.818 3.779.872h8.139c1.364-.372 1.547-.817 2.034-2.035.368-.919.881-2.116 1.163-3.197.644-.744.98-1.694 1.744-2.326.524-1.095 1.197-1.946 2.035-2.616.818-1.186 1.522-1.705 2.616-2.325.903-1.059 1.703-1.403 0-1.454-1.389.244-1.977.92-3.488 1.163-.292-.73-.235-1.669.29-2.325.383-1.445 1.13-2.247 1.454-3.489.678-.782.905-1.844 1.453-3.197-.097-1.267-.339-2.374-.58-3.488-.407-1.014-.583-1.907-.583-3.488.292-1.238.568-1.984 1.454-2.616.537-.966 1.133-1.464 2.325-2.035.583-.817 1.396-1.28 2.326-1.744.653-.79 1.42-1.24 2.034-2.325.362-1.02.71-1.997.872-3.198.407-.813.538-2.54.582-3.779-.019-1.543-.195-2.378-.872-3.197-.36-.903-.642-2.141-1.163-2.907 0-1.581.176-2.474.581-3.488.31-1.549.291-1.947.291-1.163v-.29c1.662.978 2.116 1.38 4.07 1.453.815 0 1.34-.082 2.034-.29 1.652.178 2.271.184 2.326-1.745.258-1.035.49.355.581.872.643 1.286.694.469 1.453-.29.477-1.429 1.011-.6 2.035-.291.116-.349.493-.493.872-.872.218 1.09.54 1.999 1.454 2.325 1.467-.268 1.544-.851 1.744-2.325 1.04-.215 1.121-.544 1.162.872.767.158 1.378.492 2.035 0 .258-.646.555-1.207.872-1.744.378 1.702.513 1.967 2.326 2.035.586-.555.837-.872.872-2.035.658.797 1.49 1.326 2.906 1.453 1.171.11 1.016.543 2.326.582.332.702.483 1.955 1.162 2.616 1 .642 2.352.868 2.907.581 0-.809-.109-1.635.291-2.035 1.138-.38 2.128-.088 3.197.291 1.474.402 1.454.752 1.454 2.616-.1 1.404-.272 2.762-.872 3.488-.236 1.086-.265 2.593-.872 3.779-.502 1.624.431 1.713.581 3.488.234.982-.273 2.281-.29 3.779.02 1.612-.007 2.411 1.162 2.907.671.988 1.494 1.477 2.325 2.325.986 1.129 1.43 1.632 2.035 2.616 1.053 1.206 1.206 1.717 2.035 2.907.485.97.936 1.673 1.453 2.907.35 1.048.235 2.41 0 3.488-.93.734-1.396 1.592-1.453 3.197-.41.82-.499 2.416-.58 3.488.283 1.21.874 2.006 1.452 2.907.606.757 1.603 1.543 2.325 2.035.636.733 1.08 1.628 1.744 2.325.383 1.259.852 1.824.872 3.488.243 1.114.484 2.221.582 3.489.676.638.594.872 2.035.872.894.523 1.992.581 3.488.581 1.3.1 2.234.29 3.778.29 1.184 0 2.42-.006 3.198-.29.607-.952.951-2.58 1.453-3.488.098-1.267.34-2.375.582-3.488.685-.719 1.191-1.462 2.034-2.035 1.202-.617 1.964-.816 3.49-.872 1.407.399 2.374.777 3.196-.29 1.128-.309 1.833-.582 3.488-.582 1.722-.43 2.18-.198 2.907.872.238 1.094.47 2.35.872 3.197.661.45 1.693 1.181 2.325 1.744.408.861.582 1.474.582 2.907.523.873.122 1.891 0 2.907-.684.717-1.21 1.517-2.035 2.325-.354.432-.776.753-1.453.872l.581.582-10.17 10.172-106.09-.872-4.945-12.208z" fill-rule="evenodd" fill-opacity=".996" transform="matrix(1.45234 0 0 1.39886 292.484 115.164)" stroke="#2b2b2b" stroke-width="1pt" fill="#d40f0f"/><path d="M129.93 29.47l.29.29c-.73-.73-.373-.393.872 1.163v4.07c0 1.655.274 2.36.582 3.488.397.325.474.837.872 1.163M138.65 29.761v.29c0-.855.05-.373-.872 1.163-.586 1.345-.581 2.153-.291 3.489.307.92.291 2.438.291 3.778-.155.466-.136.116-.291.582M144.76 37.318h-.291c.856 0 .374-.05-1.162.872-1.293.813-1.789 1.241-3.198 1.454-.947.928-1.503 1.142-3.197 1.162-.137.41-.085.29-.582.29M137.78 42.551v.29c.383-.143 1.727-.514 2.325-.58.728-.602 1.907-.839 2.616-1.454 1.116-.144.758-.544 2.035-.582l-2.035.582c1.116-.144.758-.544 2.035-.582M142.14 43.713c.496 0 2.54.085 3.488.29h1.453M108.42 50.399h.291c-.785 0-.382.018 1.163-.29 1.301-.1 2.38-.332 3.779-.582 1.553-.389 2.17-.392 3.197-1.454 1.164-.776 1.548-1.454 1.744-2.906.202-.929.326-2.03.872-2.616M121.21 46.33v1.453c0 1.496.058 2.594.582 3.488.597 1.249.973 1.795 2.034 2.326l2.907 1.163h.872M128.48 53.306h1.454c2.154 0 4.021.232 6.104.29h4.069c1.431-.05 2.579-.29 4.07-.29h2.906M121.79 43.423h1.453c1.203-.401 2.817-.357 4.069-.581.517.278.875.624 1.454.872M122.96 39.353h.291c-.784 0-.387-.02 1.163.29.718.623 1.426.984 2.616 1.163M123.83 36.446h.291c-.784 0-.387-.02 1.163.29.748.764 1.947 1.478 2.616 2.326.636.376 1.017.83 1.744 1.163M115.69 53.887v.29c0-.855-.049-.373.872 1.163.097 1.356.211 2.918.872 3.78.192 1.413.234 1.799-.29 2.906-.452 1.016-1.033 2.319-1.744 2.907-.581.853-1.443 1.206-2.035 2.034-.758.531-1.529 1.583-2.035 2.326-1.113 1.24-1.359 1.96-2.325 2.616-.374 1.12-.909 1.664-1.454 2.907-.872 1.028-1.513 2.024-2.034 3.197-.408.951-.465 2.557-.872 3.779v.872M112.49 80.048v-1.453c0-1.466.131-2.728.291-4.07.445-1.039.877-2.202 1.162-3.488.598-.88.852-1.78 1.454-2.907.31-1.136.889-2.017 1.744-2.616.364-1.092.827-1.734 1.453-2.907.457-.93 1.373-2.07 1.744-3.488.444-.527.606-1.393.872-2.325M123.83 58.247v.29c0-.812.036-.38-.581 1.163-.447 1.246-1.14 2.286-1.453 3.488-.605 1.302-1.014 2.702-1.454 4.07-.232 1.3-.29 2.623-.29 4.07v4.069c0 1.487-.274 2.603-.291 4.07-.371.74-.51 1.524-.291 1.743M127.03 59.41c-.275 0-.166.743-.291 1.744-.105 1.37-.291 2.417-.291 4.07-.295 1.378-.704 2.54-.872 3.778-.409 1.382-.813 2.142-.872 3.78.595.874 1.348 1.5 1.744 2.906.47.957 1.018 1.938 1.454 3.197 0 1.578.272 2.254.29 3.78 0 .716-.056 1.165.291 1.743M132.84 61.445v.29c0-.812.036-.38-.581 1.163-.92 1.246-1.503 2.334-2.035 3.198-.442 1.376-.943 2.689-.581 4.07.095 1.331.345 2.91.872 3.778.053 1.428.291 2.198.291 3.779.1 1.3.29 2.235.29 3.779 0 1.183-.006 2.42-.29 3.197-.547.234-.407.498-1.163.582M129.06 54.468c-.366 0 .169.778.29 1.744.402.67.291 2.09.291 3.198M134.29 55.34h.29c-.911 0-.366-.06 1.163 1.163.217.999.436 2.121.581 3.197M140.4 54.468v1.453c.299 1.395.581 2.483.581 4.07l-.581-4.07c.299 1.395.581 2.483.581 4.07M143.88 54.759h.291c-.856 0-.374-.05 1.162.872v.872M142.14 61.735h-.291c.911 0 .352-.076-.872 1.453-.459.919-1.003 1.666-1.453 2.616-.533.987-.737 1.488-.872 2.617M137.2 62.317c-.168 0-.508.908-1.162 1.453-.259 1.19-.563 1.956-.582 3.488 0 1.885.351 2.204 1.163 3.489.682.787 1.055 1.506 1.163 2.906v8.14c-.201 1.335-.573 1.987-1.454 2.615-1.115.727-1.256.185-2.034-.872-.272-.897-.653-1.315-.872-2.325M144.76 61.735v.29c0-.784.019-.385-.291 1.163-.529 1.31-1.299 2.583-1.744 3.488-.405 1.014-.581 1.907-.581 3.489.244 1.364.529 2.61.581 4.07 0 1.594-.395 2.53-.581 3.778-.57 1.081-1.069 2.44-1.744 3.197-.155.465-.136.117-.291.582M148.24 58.538v.29c0-.812.036-.38-.581 1.163-.103 1.447-.419 2.574-.582 3.78-.384.897-1.056 2.595-1.453 3.487-.601.978-.872 1.447-.872 3.198.601 1.03 1.523 1.944 2.616 2.325.447.944.641 2 1.163 3.198.102 1.432.415 2.669.581 4.07v1.162M151.44 60.863l-.291.29c.64-.64.317-.424 0 1.163 0 1.483-.192 2.683-.291 4.07-.518 1.037-.995 2.247-1.162 3.488.252 1.381.907 1.687 2.034 2.325.676.645 1.656 1.2 2.616 1.744 1.086.634 1.831 1.351 2.617 2.326.866 1.074 1.409 1.31 2.034 2.616.167 1.235.555 2.402.291 3.488 0 .388.097.29-.291.29M153.48 54.178h.291c-.911 0-.35-.074.872 1.453.315 1.26.291 2.648.291 4.07.556.818.773 1.907.872 3.197.306.92.29 2.439.29 3.78-.097 1.133-.459 1.834 0 2.906 1.263.764 2.139 1.608 2.907 2.325 1.069.535 1.492 1.002 2.326 2.035.529.934 1.14 1.92 1.744 2.616.232 1.3.29 2.624.29 4.07 0 1.707.053 2.545-.872 3.488-.44 0-.927.078-.29.29M149.41 42.26v1.453c.205 1.38.858 2.296 1.744 3.198a7.699 7.699 0 002.035 2.035c1.122.38 1.53.58 2.906.58M152.9 50.98h.291c-.785 0-.388-.02 1.162.29.983.492 1.475 1.166 2.326 1.745.246.903.598 2.365 1.163 3.197.207 1.162.38 2.251.872 2.907M127.9 44.295v1.453c.835.725 1.55.872 3.197.872 1.3.1 2.235.291 3.779.291h4.07c1.553 0 1.869.023 2.325-1.453.596-.81-.194-1.089-.581-1.744l.581 1.744c.596-.81-.194-1.089-.581-1.744M166.56 84.699h.291c-.912 0-.367-.06 1.162 1.163.18.87.548 1.327.872 2.034" transform="matrix(1.45234 0 0 1.39886 292.484 115.164)" stroke="#2b2b2b" stroke-width="1pt" fill="none"/><path d="M83.424 73.072h-.29c.855 0 .373-.05-1.163.872-.856.599-1.435 1.48-1.744 2.616-1.015.676-.442 1.125.871 1.163 1.74-.021 2.195-.195 3.198-1.163.705-.528 1.15-1.377.581-2.325l-.58 2.325c.704-.529 1.15-1.378-.873-3.488z" fill-rule="evenodd" transform="matrix(1.45234 0 0 1.39886 292.484 115.164)" stroke="#000" stroke-width="1pt"/><path d="M171.21 85.571v.29c0-.784-.019-.385.29 1.163.155.36.263.66.582.872M174.12 85.28v1.453c.509.69.963 1.508 1.454 2.035M177.02 86.152v.29c0-.855-.05-.373.872 1.163.123.37.213.459.582.582M86.912 84.99v1.453c-.217 1.084-.898 1.828-1.453 2.326l1.453-2.326c-.217 1.084-.898 1.828-1.453 2.326M90.11 85.862v1.453c-.418.597-.657.947-1.163 1.163M92.726 85.28v1.453c-.071.713-.389 1.101-.581 1.744M96.505 84.699h.29c-.077.193 0 1.298 0 2.035-.314.583-.775.69-1.162 1.162" transform="matrix(1.45234 0 0 1.39886 292.484 115.164)" stroke="#2b2b2b" stroke-width="1pt" fill="none"/><path d="M461.77 151.51h-.422c.147.379.591 2.276.844 2.846 1.167.803 1.78 2.074 2.533 3.252 1.051-1.168 1.266-2.167 1.266-4.472-.56-1.562-2.264-1.405-4.222-1.627zM511.163 153.136c-.123 0-1.234.75-2.533 1.22-.313 2.23-.174 2.472.844 4.066 2.016-.15 2.061-.586 2.533-2.44.933-1.198.278-.925-.844-2.846z" fill-rule="evenodd" fill="#2b2b2b"/><path d="M144.18 31.505h-1.163c-1.55-.277-2.404-.367-3.488.581-.334 1.248-.515 2.257.291 2.907.989.242 1.575.646 2.616.872.561-.911 1.018-1.574 1.744-2.616.671-.224.192-.72 0-1.744v1.744c.671-.224.192-.72 0-1.744M129.35 31.505l-.29-.29c.659.659.419.341-1.163-.291-1.34 0-2.859-.016-3.779.29-.365.73.441 1.278 1.163 1.744a7.695 7.695 0 012.034 2.035c.808.594.984 1.426 2.035 1.744.47-.992.877-1.712 1.163-3.197-.183-.548-.664-1.148-1.163-2.035z" transform="matrix(1.45234 0 0 1.39886 292.484 115.164)" stroke="#2b2b2b" stroke-width="1pt" fill="none"/><path d="M78.192 71.618c-.336 0-2.424-.019-3.197.29-.803 1.249-.635 1.936.29 2.617.243 1.61.778 1.678 2.616 1.744.772.579 1.506.37 1.744-.582.498-.828.257-1.737-.29-2.325 0-.911.06-.215-1.163-1.744zM72.088 77.141h-.29c.812 0 .326-.09-.291 1.453 0 .899-.075 1.839.29 2.326 1.044 0 2.29.08 2.907-.29.48-1.28.553-2.239-.581-2.617-.385-.576-.99-.568-2.035-.872zM83.134 80.629h-1.453c-.614.53-1.366 1.17-1.744 2.035 1.216.332 1.575.994 2.325 1.744 1.896-.023 2.163-.113 2.325-2.035 0-1.135.043-.447-1.453-1.744zM182.25 82.083h-1.453c-1.363.44-1.622.911-1.744 2.616.853.515 1.938 1.115 3.197 1.454.91.532 2.122.746 3.489.29.566-.92 1.031-1.17 1.162-2.616-.996-.303-2.545-.9-3.197-1.453l3.197 1.453c-.996-.303-2.545-.9-4.651-1.744zM185.16 75.107h-.291c.912 0 .352-.076-.872 1.453-.308 1.42-.059 1.957.582 3.198 1.287.634 1.416 1.609 2.616 2.035.558.558.291-.752.291-1.454.247-1.538.753-1.95.872-3.488-.267-1.089-.616-1.684-1.744-2.035l1.744 2.035c-.267-1.089-.616-1.684-3.198-1.744zM191.85 75.979h-.291c.911 0 .351-.076-.872 1.453-.562.927-.581 2.329-.581 3.78.48 1.295 1.187.495 1.744-.291.985-.67 1.391-.94 1.453-2.617 0-1.372.016-.758-1.453-2.325zM195.92 80.048h-.29c.784 0 .387-.02-1.163.29-.965 1.106-1.697 1.676-2.035 3.198 1.363.296 2.249.092 3.779-.29.624-1.363.692-1.098-.291-3.198z" fill-rule="evenodd" transform="matrix(1.45234 0 0 1.39886 292.484 115.164)" stroke="#000" stroke-width="1pt"/><path d="M477.714 160.033H476.727c-.388.492-.17 1.018.198 1.5.203.645.119.892.789 1.126.478.543 1.135.818 1.974.938 1.36-.117.839-.448.591-1.313-.459-.503-.445-1.032-1.185-1.313-.213-.306-.833-.586-1.38-.938zM498.348 160.14c-.166.038-1.079.456-1.477.69-.678.878-.927 1.161-.635 2.072.7.305 1.491.555 2.535.69 1.034-.217.999-.761 1.057-1.842-.224-.57-.75-.919-1.48-1.61zM475.53 182.397v2.329c.533 2.255.592 3.02 3.276 3.263h19.651c2.059-.192 1.872-.652 1.872-2.796.308-.478-.236-1.969-.936-2.796-1.85.654-2.307 2.349-4.679 2.796-2.696 0-3.963.029-5.147-1.398-1.345-.867-1.48-2.585-2.807-.933-1.51.909-2.921 1.398-5.615 1.398-2.859 0-2.901-.314-5.615-1.863z" fill-rule="evenodd"/><path d="M42.73-676.01h.29c-.91 0-.367-.062 1.163 1.163.123.696.291.847.291 1.744" transform="matrix(1.6097 0 0 1.60335 413.02 1254.833)" stroke="#2b2b2b" stroke-width="1.109" fill="none"/><path d="M481.103 174.016h-1.215c.352.447.616 2.798 1.215 3.713 6.072 0 3.23-.52 0-3.713zM490.216 175.102h-.293c.82 0 .383-.045-1.174.722-.562.977-1.39 1.449-.293 2.53 1.217.084 1.831.36 3.227.36v-2.529 2.529c0-.843 0-1.686-1.467-3.612z" fill-rule="evenodd"/><path d="M48.834-675.72h-.29c.784 0 .387-.02-1.163.29a7.043 7.043 0 01-1.163 1.454" transform="matrix(1.6097 0 0 1.60335 412.88 1254.833)" stroke="#2b2b2b" stroke-width="1.109" fill="none"/><g stroke="#2b2b2b" stroke-width="1pt"><path d="M81.971 123.07c-.638 0-3.023.044-4.36-.29-1.635.06-1.956.533-3.198.872-1.428-.053-2.198-.291-3.778-.291-1.137-.613-1.932-1.105-3.489-1.163-1.16-.156-2.297-.29-3.778-.29-1.695.02-2.308.525-3.489 1.162-.54.796-1.235 1.542-2.034 2.326-.64.94-1.2 1.342-2.326 2.325-.617.907-1.26 1.361-1.744 2.907 0 1.34-.016 2.859.291 3.779.19 1.409.536 2.117.581 3.778 0 1.527-.1 2.769-.581 4.07-.32 1.443-.873 2.345-1.453 3.779-.305.915-.491 2.511-.582 3.779.214 1.214.8 2.39 1.163 3.778.351 1.406.636 2.617 1.163 3.488.338 1.121.843 1.017.872 2.616 0 1.578.272 2.254.29 3.779.434.868.641 2.289.872 3.488.692.84.865 1.729 2.035 2.326.25-1.399.481-2.477.581-3.779.168-.94.22-2.595.582-3.197.317 1.163.845 1.743 1.163 2.906.555.673 1.034 1.98 1.453 2.907.597.163.581-.055.581-1.163.342-1.026.535-2.213.872-3.488v-1.162c.72.828 1.211 1.966 1.744 2.906.547.804 1.107 1.63 2.035 2.326 1.398.329 1.163.002 1.163-1.454v-4.069c.06 1.635.533 1.956.872 3.197.682.682 1.005 1.269 2.325 1.454.575-.933 1.174-1.425 1.744-2.616 0-1.603.126-2.526.582-3.488.865-1.074 1.252-1.46 2.325-2.326 1.133-1.01 2.21-2.012 3.488-2.616.715-1.031 1.562-1.705 2.616-2.616a14.091 14.091 0 002.907-3.779c.847-.847 1.622-2.283 2.035-3.779.774-1.214 1.026-2.623 1.163-4.36.62-1.418 1.156-2.802 1.453-4.36 0-1.563-.125-2.846-.29-4.069-.72-1.21-1.198-2.684-1.745-3.489-.343-1.076-1.164-2.38-1.453-3.488-.746-1.395-.672-1.87-2.616-2.034-.914 0-.784-.113-2.035-.582z" fill-rule="evenodd" fill-opacity=".996" transform="matrix(1.39372 0 0 1.43614 301.245 111.569)" fill="#d40f0f"/><path d="M55.519 129.46v.291c0-.785-.019-.386.29 1.162.157 1.16.291 2.298.291 3.779 0 1.482.134 2.619.291 3.779.145 1.206.403 1.857 1.453 2.616M58.426 136.44c.205 0 .313.895.872 1.454.294 1.078.82 2.19 1.453 3.488.287 1.485.693 2.205 1.163 3.197.273.682.377 1.567.872 2.035v-8.139c-.266-1.488-.57-2.419-.872-3.779v-1.744M63.949 137.31c.054.6.448 2.522.872 3.489.388 1.018.852 2.212 1.453 2.906.123.696.417 1.044.872 1.744 1.004-.809 1.76-1.455 2.035-2.906.44-1.027.773-2.192.872-3.489.104-1.446.419-2.573.582-3.778 0-1.524-.002-2.636-.582-3.488l.582 3.488c0-1.524-.002-2.636-.582-3.488M71.506 139.35v.291c0-.785-.019-.386.29 1.163.21.962.291 2.156.291 3.488-.315.21-.434.82-.581 1.162M74.123 134.99V136.443c0 1.271.12 2.957-.29 3.779 0 1.482-.135 2.619-.291 3.779.383 1.918.707-.112.872-.872.349-.916.716-2.434 1.162-3.198.181-1.517.527-2.299.582-3.778.294-1.178.29-2.443.29-3.779M78.192 128.88c.101 0 .879.73 1.744 1.163.202 1.34.685 1.809.872 3.197v1.453M77.901 126.85c.373.156 1.729 1.101 2.325 1.453.798.08 1.08.116 1.163.872M77.611 125.1h1.453c.697.077.635.291 1.454.291" transform="matrix(1.39372 0 0 1.43614 301.245 111.569)" fill="none"/></g><g fill-opacity=".996" fill-rule="evenodd" stroke="#2b2b2b" stroke-width="1pt" fill="#d30f0f"><path d="M186.32 126.27h-1.454c-1.3.238-1.723.858-2.325 1.744l2.325-1.744c-1.3.238-1.723.858-2.325 1.744M186.9 124.52l-.29-.291c.64.64.424.317-1.163 0-.972-.201-1.063-.201-2.035 0" transform="matrix(1.39372 0 0 1.43614 301.007 112.554)"/><path d="M184.29 122.49h1.454c1.759.141 3.182.56 4.941.581 1.466 0 2.728-.131 4.069-.29.823-.412 2.509-.291 3.779-.291 1.655 0 2.413.177 3.779.581.994.259 2.576.772 3.488 1.163.958.453 1.866.78 2.907 1.453 1.113.755 1.392 1.239 1.453 2.907a89.624 89.624 0 01-.581 3.779c.102 1.433.415 2.669.581 4.069.315 1.26.291 2.648.291 4.07-.223 1.077-.694.997-1.163 2.035.819.54 1.822 1.584 2.326 2.325.243 1.364.529 2.611.581 4.069 0 1.631-.038 2.532-.581 3.779-.379 1.406-.832 1.999-1.163 3.488-.249 1.145-.729 2.315-1.163 3.198-.481.707-.812 2.278-1.162 3.197-.182 1.384-.627 2.701-1.163 3.488-.296 1.085-.443 1.898-1.453 2.326-.865-.216-.582-.776-.582-1.744.207-1.159.326-2.016 0-2.907-.951-.224-1.015.454-1.453 1.744-.617.663-.654 1.518-1.454 2.035-.992 1.201-1.342.777-2.034-.872 0-1.545-.191-2.479-.291-3.779-.156-1.876-.337 1.047-.581 1.453-.329 1.48-.835 1.993-1.163 3.198-1.195.437-1.654.426-1.744-1.163.232-1.299.291-2.623.291-4.069-.73-.842-.783-.179-1.163.581-.064 1.721-.497 1.928-1.163 2.907-.971.574-.747.582-1.163-.872-.462-1.102-.803-1.518-1.744-2.035-.835-.724-1.549-.872-3.197-.872-1.519-.056-2.259-.552-3.488-.872-1.16-.332-2.288-.587-2.907-1.163-.552-.812-1.348-1.857-2.035-3.197-.749-1.368-1.105-2.227-1.162-3.779-.25-1.396-.414-2.935-.582-4.36-.329-1.977-.816-4.129-1.162-6.104-.501-1.557-.988-2.929-1.163-4.651-.578-1.277-.896-2.666-1.163-4.07 0-1.34-.016-2.859.291-3.778.554-1.075 1.189-1.801 1.744-2.617.818-1.014 1.358-1.754 2.616-2.616.649-.775 1.93-1.303 2.907-1.744.657-.281 1.104-.366 2.325-.581z" transform="matrix(1.39372 0 0 1.43614 301.007 112.554)"/><path d="M187.2 129.46v.291c0-.856.083-.341-1.453.581-.794.756-1.504 1.015-2.326 2.035-.186.435-.557.791 0 1.163M186.9 132.66v.29c0-.784-.019-.386.291 1.163.051 1.377.291 2 .291 3.488-.535.891-.221 2.137.29 3.198.456 1.269 1.035 2.151 1.454 3.197.62.207.29-.223.29-1.163-.376-1.129-.224-2.592 0-4.069v-3.488M194.75 132.08h-.29c.812 0 .326-.089-.291 1.454v4.069c-.306.92-.291 2.439-.291 3.779-.309 1.425-.515 1.846 1.163 2.325.438.677 1.016 1.068 1.454 1.744.552-1.363 1.137-2.596 1.453-4.069.465-.84.654-2.561.872-3.779.479-.582 1.085-1.656 1.453-2.325M202.31 132.37v.291c0-.785-.019-.386.291 1.162.022 1.271.29 2.194.29 3.488-.572.843-.653 2.029-1.162 3.198-.509 1.379-.853 2.446-.872 4.069 0 .976-.26 2.032.581 1.454a23.027 23.027 0 001.453-4.07c.639-1.262.993-2.224 1.454-3.197.152-1.278.18-2.867.581-4.07l-.581 4.07c.152-1.278.18-2.867.581-4.07M209.29 130.34l-.29.291c.573-.573.324-.424 0 .872 0 1.336.15 3.187-.291 4.069-.206 1.73-.456 2.275-1.453 3.488-.202.505-.58 1.259-.872 1.454M192.72 140.22v.291c0-.785.019-.386-.291 1.163-.555.64-1.384 1.872-1.744 2.906-.239.08-.79.291-.291.291M191.85 143.42h.29c-.812 0-.327-.091.291 1.453.233.932.639.812.872 1.744" transform="matrix(1.39372 0 0 1.43614 301.007 112.554)"/></g><path d="M77.32 201.26c-.275 0-.166.743-.29 1.744v4.07c.188 1.439.683 2.802 1.453 3.488.463.463 1.443 1.204 2.034 1.744 0-1.544.191-2.479.291-3.779.487-.831.637-2.133 1.163-2.907.128-1.667.73-1.681 1.163-3.197.497-.723-.534-.786-1.454-.872-1.085-.255-2.104-.617-2.907-1.163l2.907 1.163c-1.085-.255-2.104-.617-4.36-.291zM92.435 200.68h-.29c.855 0 .34-.084-.582 1.453 0 1.41.067 2.751.29 3.779.6.726.813 1.919 1.163 2.907.52.32.844-.467 1.163-1.163.589-1.454 1.25-2.135 1.454-3.488.319-1.171.867-1.652 1.162-2.907-.617-1.29-.944-1.849-2.616-2.034-.73.73-.18.202-1.744 1.453zM168.59 200.39h.29c-.157.421-.29 1.73-.29 2.616-.217 1.216-.45 2.289 0 3.489.834.367 1.373.644 1.744 1.453.679.572.829.87.872-.581.63-1.388.928-1.736 1.744-2.907.577-.987.801-1.656.581-3.198-.751-1.522-1.176-1.701-2.907-2.034-1.823 0-1.797 1.361-2.325 2.616M182.84 202.13h-.291c.233.608.581 1.864.581 2.907.232 1.299.291 2.624.291 4.07-.173 1.155-.465 1.162.872 1.162.544-1.295.973-2.269 1.744-2.906.372-1.222.815-1.956.872-3.489 0-1.2.09-2.727-.29-3.488-2.109 0-2.041.291-3.779 1.744zM195.63 195.74h-.291c.812 0 .38-.035-1.163.582-.72.943-1.826 1.415-1.453 2.907 1.453.49 2.267.848 2.907 1.744.925.508 1.596.891 2.034 1.744.531.353.84.906 1.163 1.453-.174-1.463-.479-2.444-.581-3.779-.02-1.646-.31-2.235-.872-3.197-.118-1.055-.425-.815-1.744-1.454zM197.66 189.92h-.29c.855 0 .373-.05-1.163.872-.651 1.176-.667 2.169-.291 3.197 1.424.212 1.995.83 2.616 1.744.867.867 1.468 1.452 2.326 2.035-.622-1.059-1.178-2.025-1.454-3.197a10.749 10.749 0 00-.581-3.198l.581 3.198c-.048-1.293-.259-2.233-1.744-4.651zM69.472 195.74c-.098 0-.931.537-1.453 1.163-1.414.78-2.175 1.229-2.326 2.907-.05 1.377-.29 2-.29 3.488.411.412.074 1.669.58 1.163.887-.975 1.343-1.861 2.326-2.616.659-.628 1.88-1.288 2.907-1.744 1.626-.473 1.5-.313.581-1.744-.517-.876-1.199-1.351-2.325-2.617zM67.437 190.22h-.29c.855 0 .373-.05-1.163.872-.728.909-1.626 1.173-2.035 2.325-.677.819-.854 1.654-.872 3.197.027.941.181 1.826.581 2.326.388-1.094.861-1.739 2.035-2.326.722-.467.919-1.093 1.744-1.453.599-.256 1.26-.101 1.453-.872-.19-1.782-.728-2.304-1.453-4.069z" fill-rule="evenodd" fill-opacity=".996" transform="matrix(1.39372 0 0 1.43614 301.007 110.048)" stroke="#000" stroke-width="1pt" fill="#000f0f"/><path d="M89.819 181.2v.29c0-.855.05-.374-.872 1.163-1.014.405-1.907.581-3.488.581-.88.661-1.457.457-2.035 1.744-.779.817-1.136 1.269-2.325 1.745-1.34 0-2.86.015-3.78-.291-.975-.527-2.37-.92-3.487-1.163-1.578.019-2.367.391-3.488.872-1.201.283-1.955.653-2.617 1.454-.781.312-.781.779-.872 1.744.415.691.037 1.069.872 1.162.465.569.582.589.582 1.744.312 1.249.27 2.821.581 4.07.67 1.595 1.176 1.722 2.326 2.616.997.472 1.71.929 2.906 1.453 1.07.55 2.358.627 3.488.872.93 1.097 1.525 1.532 2.907 2.035 1.426-.215 1.649-.82 2.907-1.163.491-.491 1.255-.089 1.744-.872.427-.823.616-2.682 1.163-3.488.638-1.294 1.512-1.95 2.907-2.325.765-.574 1.649-.645 2.616-.291-.064 1.726-.616 1.797-.872 3.198-.499.922-.818 1.737-.291 2.616 1.215.405 2.679.29 4.07.29 1.876-.316 2.012-.745 2.034-2.616-.277-1.177-.697-1.901-.872-3.197 0-.898-.074-1.839.29-2.326.608.223 2.01.359 2.617.582.497.994.92 1.252 2.035.872.353-.55.893-.953 1.163-1.454.294.8.865 1.516 1.453 1.163.613-1.28 1.039-1.684 2.325-2.035 1.23-.267 2.04-.629 2.907-1.162.88-.542 1.427-1.245 2.326-1.744.616-.962 1.24-1.601 1.453-3.198 0-1.711-.346-2.841-.581-4.36-.648-1.017-.967-2.114-2.035-2.907-.847-.508-2.038-.124-3.198 0-1.3-.1-2.234-.29-3.778-.29-1.491 0-2.64.239-4.07.29h-4.07c-1.686 0-2.57.236-3.778.872-.856 0-.241-.083-1.163 1.454zM157.55 191.67c.499.125 1.824.771 2.907.872 1.127.059.872.365.872 1.453.417.239.822.911 1.453 1.163.232-.43.702-1.099 1.163-1.453.269.627.575 1.305 1.453 1.744.737-1.398.674-1.721 2.616-1.744 1.222 1.159.858 2.235 0 3.197-.428 1.239-.61 2.314-.872 3.779.569.705 1.325.581 2.616.581.872-.522 2.009-.274 2.616.291 1.745-.087 1.681-.317 1.744-2.035v-4.069c.643-.643 1.335-.816 2.035-.291.726.6 1.075 1.992 1.744 2.907.099 1.278.257 2.453.872 3.197.656 1.369.87 1.68 2.616 1.744 1.522-.018 2.365-.228 3.779-.581 1.301-.238 1.724-.859 2.326-1.744 1.439-.387 1.842-.811 3.488-.872 1.497-.333 1.958-.87 2.906-1.453.626-.723.904-1.807 1.454-2.617.435-1.086.963-1.585 1.163-2.906.119-1.548.746-1.911 1.162-3.198.258-1.029-.256-1.678-1.162-2.325-.746-.647-1.834-.805-2.907-1.163h-8.139c-1.483 0-2.683-.191-4.07-.291-1.172-.676-1.724-1.124-2.616-2.034-1.261-.188-2.458-.898-3.488-1.454-.821-1.018-1.632-1.195-2.325-2.034-1.183-.502-1.789-1.153-3.198-1.744-1.199-.641-1.873-.971-3.488-1.163-1.387-.099-2.587-.291-4.069-.291-1.675 0-2.583.491-3.779.872-1.009 1.066-1.767 1.154-2.035 2.616-.411.823-.291 2.508-.291 3.779.292 1.363.874 2.669 1.163 3.779.115 1.224.291 1.869.291 3.488z" fill-rule="evenodd" fill-opacity=".996" transform="matrix(1.39372 0 0 1.43614 301.007 110.048)" stroke="#2b2b2b" stroke-width="1pt" fill="#d40f0f"/><path d="M82.843 189.92c-.633-.093-2.847-.291-4.36-.291-1.166.254-2.077.529-3.488.582-1.07.251-2.182.564-2.907 1.162-.976.092-1.281.403-2.325.582M83.134 192.54h-.29c.855 0 .373-.05-1.163.872-1.154 1.008-1.958 1.514-2.616 2.907-.79.657-1.01 1.241-2.035 1.453-.608.646-1.217 1.217-1.744 1.744M181.09 193.41h.29c-.812 0-.38-.036 1.163.581 1.216 1.062 1.267 1.595 2.907 1.744 1.532.558 1.696.89 2.325 2.326.212.493.291.915.291 1.744M181.67 189.63c.468.18 2.119 1.062 3.197 1.163 1.16.157 2.298.291 3.779.291 1.369.185 2.076.618 3.488 1.162h2.326" transform="matrix(1.39372 0 0 1.43614 301.007 110.048)" stroke="#2b2b2b" stroke-width="1pt" fill="none"/><g><path d="M480.254 243.061c-.214 4.672-1.547 7.425-6.033 7.425-3.016 0-6.088-2.19-6.032-4.95.057-2.76 3.842-2.928 6.445-2.701.924-2.249-3.429-4.723-15.493-4.723-11.945-.13-21.225 10.236-36.9 9.9-15.677-.337-22.635-15.93-19.654-19.8-1.168 3.445-3.8 5.585-4.968 9.03-1.168 3.445 4.184 8.244 3.016 11.689-1.168 3.444-8.856 5.536-10.024 8.98s-.872 8.196-2.04 11.64c0-2.474 5.346-8.343 12.498-8.343 6.032 0 25.954-3.776 27.145 37.125 0 32.203-23.93 33.474-31.582 31.189-.018 3.882 2.654 15.95 14.884 28.301 13.133 12.375 28.303 14.103 31.28 13.931-1.4-3.445-7.152-7.425-1.717-7.47 3.614.045 4.759 6.433 4.759 6.433s5.88-3.665 7.838-1.838c1.891 2.875-5.967 5.35-5.967 5.35s3.989 7.791 9.048 12.375c6.033 6.54 14.768 8.716 18.097 8.804 1.618.043 4.745 1.09 4.633 3.572-.224 4.942-.217 7.33-3.136 7.424h21.701c-2.919-.095-2.912-2.482-3.136-7.424-.112-2.483 3.016-3.529 4.633-3.572 3.329-.088 12.065-2.263 18.097-8.804 5.06-4.584 9.049-12.375 9.049-12.375s-7.859-2.475-5.968-5.35c1.959-1.827 7.838 1.838 7.838 1.838s1.146-6.388 4.76-6.433c5.434.045-.318 4.025-1.718 7.47 2.978.172 18.148-1.556 31.283-13.93 12.228-12.351 14.901-24.42 14.882-28.302-7.652 2.285-31.583 1.014-31.583-31.19 1.19-40.9 21.113-37.124 27.145-37.124 7.152 0 12.5 5.869 12.5 8.344 0 .617.689-3.515-.625-7.275-1.315-3.76-7.884-6.469-9.636-11.79-1.752-5.322 1.314-13.257 0-17.326-1.315-4.068-3.756-4.95-3.756-4.95 2.98 3.87-3.978 19.463-19.655 19.8-15.676.336-24.956-10.03-36.9-9.9-12.065 0-16.417 2.475-15.494 4.723 2.603-.227 6.39-.058 6.446 2.702.056 2.76-3.017 4.95-6.033 4.95-4.485 0-5.818-2.754-6.032-7.425h-13.892z" fill-rule="evenodd" fill="#0068bd"/><g stroke="#000"><path d="M215.15 278.72c0 230.52-140.57 239.62-185.51 223.26-.11 27.793 15.589 114.18 87.422 202.59 77.143 88.58 166.25 100.95 183.74 99.72-8.221-24.66-42.01-53.15-10.087-53.47 21.226.32 27.953 46.05 27.953 46.05s34.536-26.24 46.041-13.16c11.109 20.58-35.051 38.3-35.051 38.3s23.432 55.77 53.15 88.58c35.434 46.82 86.746 62.39 106.3 63.02 9.501.31 27.872 7.8 27.211 25.57-1.315 35.376-1.273 52.466-18.419 53.146h127.47c-17.146-.68-17.104-17.77-18.419-53.146-.661-17.77 17.71-25.26 27.211-25.57 19.554-.63 70.866-16.2 106.3-63.02 29.718-32.81 53.15-88.58 53.15-88.58s-46.16-17.72-35.051-38.3c11.505-13.08 46.041 13.16 46.041 13.16s6.727-45.73 27.953-46.05c31.923.32-1.866 28.81-10.087 53.47 17.494 1.23 106.6-11.14 183.75-99.72 71.83-88.41 87.53-174.8 87.42-202.59-44.95 16.356-176.21 16.558-176.21-213.96-2.107-9.149-2.776-27.288-4.275-35.824-1.499-8.535-35.472 26.766-38.855 26.587-11.423-.359-46.732-32.686-71.856-37.071-11.852-1.893-50.628 33.305-60.175 33.994-12.495.726-28.51-35.973-55.13-32.205-19.595 3.103-35.643 36.54-40.445 31.758-12.349-12.298-25.95-20.022-41.7-22.942-23.548-2.04-36.935 16.411-49.59 31.592-.443-12.395-17.165-24.791-36.213-23.234-13.7-139.99-122.91-282.93-131.79-287.41-6.593-2.637-4.078 13.602-6.117 20.403l-49.858-13.684c-3.181 8.084-1.712 16.169-9.545 24.254-19.861-14.947-30.421-43.847-45.631-44.842-5.423 17.81-1.544 54.223-2.316 81.335l-37.724-25.095-3.031 26.541c-1.214 10.631-51.204-28.6-61.016-28.856-9.811-.255-21.479 27.453-30.295 27.304-8.817-.15 56.995 42.98 73.293 238.09z" fill-rule="evenodd" stroke-width="1.25" fill="#e8e1cb" transform="matrix(.17024 0 0 .1397 391.585 259.396)"/><path d="M199.99 175.68s23.255-32.556 51.16-27.905c27.905 4.65 58.135 106.97 58.135 106.97M279.05 40.803c0 4.65 18.603 79.065 34.881 102.32 16.278 23.254 53.485 41.857 72.088 69.762 18.604 27.906 27.905 104.64 27.905 104.64M320.91 5.922s6.977 37.207 18.604 65.112 39.532 37.206 53.484 60.46c13.953 23.255 23.255 69.763 23.255 69.763M211.61 336.13s32.555-4.651 60.46 32.556c27.906 37.207 32.556 86.04 32.556 86.04M813.9 284.97s20.929-2.326 34.881 13.952c13.953 16.278 11.627 27.905 9.302 27.905M811.57 308.23s18.603 0 25.579 4.651c6.977 4.651 9.302 27.905 9.302 27.905" stroke-width="1pt" fill="none" transform="matrix(.17024 0 0 .1397 391.585 259.396)"/><path d="M799.95 331.48c2.325 0 16.278-13.952 25.579-9.302 9.302 4.651 11.627 30.231 11.627 30.231M788.32 343.11s16.278-2.325 25.58 4.651 6.976 18.603 6.976 18.603M741.81 343.11c2.325 0 30.23 9.302 41.858 20.929 11.627 11.627 9.301 37.207 9.301 37.207M874.36 357.06s6.976-4.651 23.254 9.301c16.278 13.953 18.604 30.231 18.604 30.231M872.03 382.64s18.603 2.326 27.905 9.302c9.301 6.976 23.254 23.254 23.254 23.254M865.06 412.87s23.255-9.302 32.556-4.651c9.302 4.651 25.58 18.603 25.58 18.603" stroke-width="1pt" fill="none" transform="matrix(.17024 0 0 .1397 391.585 259.396)"/></g><g stroke-width="1pt"><path d="M-301.18-134.65v442.91h17.716v-442.91l-8.858-35.433-8.858 35.433z" fill-rule="evenodd" transform="matrix(.09275 -.03349 .03965 .07394 487.065 299.89)" stroke="#000" fill="#b03f00"/><path d="M-301.18-134.65v407.48h17.716v-407.48l-8.858-35.433-8.858 35.433z" fill-rule="evenodd" transform="matrix(.09275 -.03349 .03965 .07394 513.357 290.397)" stroke="#000" fill="#b03f00"/><g stroke="#000" fill="none"><path d="M-283.46-99.213l17.717 336.61" transform="matrix(.09275 -.03349 .0472 .08802 514.106 291.794)"/><path d="M-318.9-99.212l53.151 336.61" transform="matrix(.09275 -.03349 .0472 .08802 517.393 290.607)"/><path d="M-354.33-99.212l88.584 336.61" transform="matrix(.09275 -.03349 .0472 .08802 520.68 289.42)"/><path d="M-389.76-99.212l124.01 336.61" transform="matrix(.09275 -.03349 .0472 .08802 523.966 288.234)"/><path d="M-283.46-99.213l17.717 336.61" transform="matrix(-.09275 .03349 .0472 .08802 459.878 311.373)"/><path d="M-318.9-99.212l53.151 336.61" transform="matrix(-.09275 .03349 .0472 .08802 456.59 312.56)"/><path d="M-354.33-99.212l88.584 336.61" transform="matrix(-.09275 .03349 .0472 .08802 453.305 313.747)"/><path d="M-389.76-99.212l124.01 336.61" transform="matrix(-.09275 .03349 .0472 .08802 450.018 314.933)"/><path d="M-407.48-99.212l177.16 354.33" transform="matrix(-.09275 .03349 .0472 .08802 448.375 315.527)"/><path d="M-407.48-99.212l177.16 354.33" transform="matrix(.09275 -.03349 .0472 .08802 525.61 287.64)"/><path d="M-407.48 184.25h301.18M-124.02 148.82h-265.75M-372.05 113.39h230.32M-159.45 77.953h-194.88M-336.61 42.52c0 .581 159.45 0 159.45 0M-194.88 7.087H-318.9M-301.18-28.346c.581 0 89.343.034 88.583 0M-283.46-63.78h53.15" transform="matrix(.09275 -.03349 .0472 .08802 510.82 292.98)"/><path d="M-283.46-99.213l17.717 336.61" transform="matrix(.09275 -.03349 .0472 .08802 488.65 302.846)"/><path d="M-318.9-99.212l53.151 336.61" transform="matrix(.09275 -.03349 .0472 .08802 491.936 301.66)"/><path d="M-354.33-99.212l88.584 336.61" transform="matrix(.09275 -.03349 .0472 .08802 495.223 300.473)"/><path d="M-389.76-99.212l124.01 336.61" transform="matrix(.09275 -.03349 .0472 .08802 498.51 299.286)"/><path d="M-283.46-99.213l17.717 336.61" transform="matrix(-.09275 .03349 .0472 .08802 434.421 322.426)"/><path d="M-318.9-99.212l53.151 336.61" transform="matrix(-.09275 .03349 .0472 .08802 431.135 323.612)"/><path d="M-354.33-99.212l88.584 336.61" transform="matrix(-.09275 .03349 .0472 .08802 427.849 324.799)"/><path d="M-389.76-99.212l124.01 336.61" transform="matrix(-.09275 .03349 .0472 .08802 424.561 325.986)"/><path d="M-407.48-99.212l177.16 354.33" transform="matrix(-.09275 .03349 .0472 .08802 422.919 326.579)"/><path d="M-407.48-99.212l177.16 354.33" transform="matrix(.09275 -.03349 .0472 .08802 500.152 298.693)"/><path d="M-407.48 184.25h301.18M-124.02 148.82h-265.75M-372.05 113.39h230.32M-159.45 77.953h-194.88M-336.61 42.52c0 .581 159.45 0 159.45 0M-194.88 7.087H-318.9M-301.18-28.346c.581 0 89.343.034 88.583 0M-283.46-63.78h53.15" transform="matrix(.09275 -.03349 .0472 .08802 485.364 304.033)"/></g><g fill-rule="evenodd" stroke="#000" fill="#b03f00"><path d="M-407.48 237.4h372.05v53.149l17.717 17.717H-35.43v35.433h17.717l-17.717 17.716 53.15 70.866-106.3 212.6h-566.93v-283.46h88.583v-70.866h53.149l106.3-53.149zM-566.93 361.42h531.5" transform="matrix(.09275 -.03349 .03965 .07394 510.07 291.583)"/><path d="M-566.93 361.42h531.5" transform="matrix(.09275 -.03349 .03965 .07394 509.368 290.273)"/><path d="M-566.93 361.42h531.5" transform="matrix(.09275 -.03349 .03965 .07394 507.963 287.653)"/><path d="M-566.93 361.42h531.5" transform="matrix(.08348 -.03014 .03965 .07394 506.932 286.462)"/><path d="M-35.433 361.42l-141.73 283.46M-407.48 272.84h230.32M-442.91 255.12c34.35 1.539 407.48 0 407.48 0M-53.15 255.12l-17.716 35.433M-70.866 308.27l-17.717 35.433M-230.32 308.27l-17.716 35.433M-212.6 308.27l-17.717 35.433M-53.15 396.85h-88.582l17.716-35.433" transform="matrix(.09275 -.03349 .03965 .07394 510.07 291.583)"/><path d="M-70.866 432.28h-88.583l18.761-36.853-1.044 1.42M-88.583 467.72h-88.582l17.716-35.434" transform="matrix(.09275 -.03349 .03965 .07394 510.07 291.583)"/><path d="M-106.3 503.15h-88.583l17.717-35.433" transform="matrix(.09275 -.03349 .03965 .07394 510.07 291.583)"/><path d="M-124.02 538.58h-88.582l17.716-35.433" transform="matrix(.09275 -.03349 .03965 .07394 510.07 291.583)"/><path d="M-124.02 538.58h-88.582l17.716-35.433" transform="matrix(.09275 -.03349 .03965 .07394 509.832 294.796)"/><path d="M-53.15 396.85l70.866 35.433M-88.583 467.72l70.866 35.433M-160.45 433.8l-495.32-1.16M-175.57 468.68c-1.162 1.162-480.2-2.326-480.2-2.326M-212.6 538.58c-35.433 0-442.91 0-442.01 1.023" transform="matrix(.09275 -.03349 .03965 .07394 510.07 291.583)"/><path d="M-212.6 539.61s-442.91-1.023-442.01 0" transform="matrix(.08923 -.03222 .03965 .07394 509.041 294.992)"/><path d="M-124.02 538.58h-88.582l17.716-35.433" transform="matrix(.09275 -.03349 .03965 .07394 509.593 298.01)"/><path d="M-124.02 538.58h-88.582l17.716-35.433" transform="matrix(.09275 -.03349 .03965 .07394 509.355 301.223)"/><path d="M-442.91 379.13l-17.717 17.716v35.433h70.866l17.717-17.716" transform="matrix(.09275 -.03349 .02643 .0493 510.151 302.708)"/><path d="M-442.91 379.13l-17.717 17.716v35.433h70.866l17.717-17.716" transform="matrix(.09275 -.03349 .02643 .0493 521.654 298.554)"/><path d="M-442.91 379.13l-17.717 17.716v35.433h70.866l17.717-17.716" transform="matrix(.09275 -.03349 .02643 .0493 514.366 310.567)"/><path d="M-442.91 379.13l-17.717 17.716v35.433h70.866l17.717-17.716" transform="matrix(.09275 -.03349 .02643 .0493 525.869 306.414)"/></g><path fill-rule="evenodd" d="M479.09 336.229l6.573-2.374.937 1.747-6.574 2.373zM490.592 332.075l6.574-2.373.936 1.747-6.573 2.373zM483.304 344.088l6.573-2.373.937 1.747-6.573 2.373zM494.807 339.935l6.573-2.373.936 1.747-6.573 2.373z"/><path fill-rule="evenodd" stroke="#000" fill="#b03f00" d="M-301.18-99.213h88.583v17.717h-88.583zM-584.65-99.213h88.583v17.717h-88.583z" transform="matrix(.09275 -.03349 .03965 .07394 510.07 291.583)"/><g stroke="#000" fill="none"><path d="M-407.48 237.4v-17.717h372.05V237.4M-389.76 219.68v17.717" transform="matrix(.09275 -.03349 .03965 .07394 510.07 291.583)"/><path d="M-389.76 219.68v17.717" transform="matrix(.09275 -.03349 .03965 .07394 511.714 290.99)"/><path d="M-389.76 219.68v17.717" transform="matrix(.09275 -.03349 .03965 .07394 513.357 290.397)"/><path d="M-389.76 219.68v17.717" transform="matrix(.09275 -.03349 .03965 .07394 515 289.803)"/><path d="M-389.76 219.68v17.717" transform="matrix(.09275 -.03349 .03965 .07394 516.644 289.21)"/><path d="M-389.76 219.68v17.717" transform="matrix(.09275 -.03349 .03965 .07394 518.287 288.617)"/><path d="M-389.76 219.68v17.717" transform="matrix(.09275 -.03349 .03965 .07394 519.93 288.023)"/><path d="M-389.76 219.68v17.717" transform="matrix(.09275 -.03349 .03965 .07394 521.574 287.43)"/><path d="M-389.76 219.68v17.717" transform="matrix(.09275 -.03349 .03965 .07394 523.217 286.837)"/><path d="M-389.76 219.68v17.717" transform="matrix(.09275 -.03349 .03965 .07394 524.86 286.243)"/><path d="M-389.76 219.68v17.717" transform="matrix(.09275 -.03349 .03965 .07394 526.504 285.65)"/><path d="M-389.76 219.68v17.717" transform="matrix(.09275 -.03349 .03965 .07394 528.146 285.057)"/><path d="M-389.76 219.68v17.717" transform="matrix(.09275 -.03349 .03965 .07394 529.79 284.464)"/><path d="M-389.76 219.68v17.717" transform="matrix(.09275 -.03349 .03965 .07394 531.434 283.87)"/><path d="M-389.76 219.68v17.717" transform="matrix(.09275 -.03349 .03965 .07394 533.076 283.277)"/><path d="M-389.76 219.68v17.717" transform="matrix(.09275 -.03349 .03965 .07394 534.72 282.684)"/><path d="M-389.76 219.68v17.717" transform="matrix(.09275 -.03349 .03965 .07394 536.363 282.09)"/><path d="M-389.76 219.68v17.717" transform="matrix(.09275 -.03349 .03965 .07394 538.006 281.497)"/><path d="M-389.76 219.68v17.717" transform="matrix(.09275 -.03349 .03965 .07394 539.65 280.903)"/><path d="M-389.76 219.68v17.717" transform="matrix(.09275 -.03349 .03965 .07394 541.292 280.31)"/></g></g><g stroke="#000"><path d="M32.92 551.31c-.11 27.793 12.3 64.848 84.133 153.26 77.143 88.58 166.25 100.95 183.74 99.72-8.221-24.66-42.01-53.15-10.087-53.47 21.226.32 27.953 46.05 27.953 46.05s34.536-26.24 46.041-13.16c11.109 20.58-35.051 38.3-35.051 38.3s23.432 55.77 53.15 88.58c35.434 46.82 86.746 62.39 106.3 63.02 9.501.31 27.872 7.8 27.211 25.57-1.315 35.376-1.273 52.466-18.419 53.146h127.47c-17.146-.68-17.104-17.77-18.419-53.146-.661-17.77 17.71-25.26 27.211-25.57 19.554-.63 70.866-16.2 106.3-63.02 29.718-32.81 53.15-88.58 53.15-88.58s-46.16-17.72-35.051-38.3c11.505-13.08 46.041 13.16 46.041 13.16s6.727-45.73 27.953-46.05c31.923.32-1.866 28.81-10.087 53.47 17.494 1.23 106.6-11.14 183.75-99.72 71.83-88.41 87.53-151.78 87.42-179.57-2.81 1.021-59.78-13.779-69.48-4.288-12.98-10.24-38.09-20.589-57.601-20.965-22.8-.377-43.289 9.219-50.318 25.712-13.606-19.682-53.266-29.558-61.641-28.272-27.333 4.704-44.374 41.317-35.418 87.337-20.641-19.754-27.998-21.696-51.111-21.76-50.423-.121-55.381 89.819-129.14 89.282-58.401-.444-83.079-31.417-100.29-53.799 22.249-19.092 20.85-26.544 6.129-45.765-16.689-18.061-42.762-16.443-60.658 1.805-17.897-17.717-18.059-28.043-35.776-53.15-17.315-24.538-29.608-26.967-61-26.84-31.391.128-55.464 1.804-67.577 34.691-15.402 8.593-37.213 26.565-54.089 23.02-10.298-28.042-43.228-60.617-70.99-61s-72.792 56.438-82.747 82.923c-17.683-37.06-36.276-42.13-51.789-42.9-15.512-.77-21.083 24.88-27.181 40.31z" fill-rule="evenodd" stroke-width="1.25" fill="#00c8ff" transform="matrix(.17024 0 0 .1397 391.585 259.396)"/><path d="M167.72 490s16.443 9.866 36.175 39.464 3.289 42.752 3.289 42.752" stroke-width="1pt" fill="none" transform="matrix(.17024 0 0 .1397 391.585 259.396)"/><path d="M184.16 506.45s32.886 3.289 46.041 26.31c13.155 23.02 6.577 49.329 6.577 49.329M220.34 631.42s23.021-55.907 65.773-32.887c42.752 23.021 39.464 59.196 36.175 59.196h-3.289v3.289M263.09 687.32s23.021-9.866 49.33 0 9.866 32.886 9.866 32.886" stroke-width="1pt" fill="none" transform="matrix(.17024 0 0 .1397 391.585 259.396)"/><path d="M259.8 700.48s26.309-6.577 42.752 3.289 3.289 26.309 3.289 26.309M200.61 710.34s3.289 26.309 19.732 42.753c16.443 16.443 46.041 23.02 46.041 23.02M361.75 723.5c32.886 16.443 39.463 46.041 39.463 46.041M374.9 710.34c49.33 0 46.041 29.598 46.041 29.598M302.56 552.49s29.598-23.02 69.062 0c39.463 23.021 16.443 52.619 16.443 52.619M322.29 513.02s39.464-26.309 72.35 0c32.887 26.309 23.021 46.041 23.021 46.041M437.39 529.47l19.731 32.886c9.866 16.444 26.31 13.155 26.31 13.155M526.18 647.86s23.02 32.887 75.639 39.464c52.618 6.577 98.659-13.155 98.659-13.155M526.18 690.61s29.598 29.598 69.061 29.598c39.464 0 95.371-16.443 95.371-16.443M526.18 720.21s16.443 26.309 75.639 26.309c59.195 0 85.504-13.154 85.504-13.154M522.89 759.67s6.578 13.155 36.175 19.732c29.598 6.577 59.196-9.866 59.196-9.866M618.26 785.98s19.732 26.309 46.041 26.309 0-39.463 19.732-46.041c19.732-6.577 49.329 0 49.329 0" stroke-width="1pt" fill="none" transform="matrix(.17024 0 0 .1397 391.585 259.396)"/><path d="M605.11 825.45s19.732 26.309 49.33 19.732c29.598-6.578 65.773-55.907 65.773-55.907l23.02-16.443M388.06 887.93s3.288-16.443 39.464-9.866c36.175 6.577 0 55.907 39.463 55.907 39.464 0 75.639-23.02 98.66-26.309 23.02-3.289 65.772 23.02 88.793 29.598 23.02 6.577 65.773-26.309 65.773-26.309M568.94 956.99c3.289 0 13.155-6.578 36.175-3.289 23.021 3.289 49.33 3.289 49.33 3.289M559.07 989.88s16.444-6.577 29.598-6.577c13.155 0 9.866 19.729 9.866 19.729M483.43 624.84c-3.289 0 16.443 0 26.309 3.288 9.866 3.289 13.154 26.309 13.154 26.309M480.14 647.86s13.154-6.577 26.309 0 6.577 29.598 6.577 29.598M470.28 674.17c0-3.288 19.732-9.866 26.309-6.577s6.577 32.886 6.577 32.886M463.7 710.34s16.443-13.154 26.309-13.154 6.577 23.02 6.577 23.02M460.41 739.94l23.021-13.154 9.865 19.731M746.52 588.66s13.155-3.289 32.886 0c19.732 3.288 26.31 26.309 26.31 26.309M753.1 614.97c0-3.289 19.732-3.289 26.309 0 6.578 3.288 16.444 19.732 16.444 19.732M789.27 684.03c-3.288 0 3.289 13.155 6.578 29.598 3.288 16.443-13.155 32.886-13.155 32.886M855.05 670.88c-3.288 0 19.732 23.02 23.021 42.752 3.288 19.732-16.444 39.464-16.444 39.464" stroke-width="1pt" fill="none" transform="matrix(.17024 0 0 .1397 391.585 259.396)"/><path d="M871.49 661.01s23.021 32.886 23.021 49.329c0 16.444-16.443 42.753-16.443 42.753M894.51 637.99s9.866 13.155 13.154 29.598c3.289 16.443-6.577 42.752-6.577 42.752M924.11 677.46s16.443 19.732 9.866 36.175c-6.578 16.443-19.732 29.598-19.732 29.598M950.42 687.32c-3.289 3.288 6.577 23.02 3.288 32.886-3.288 9.866-19.731 26.309-19.731 26.309M957 634.7c0 3.288 23.021 23.02 23.021 46.041 0 23.02-13.155 46.041-13.155 46.041" stroke-width="1pt" fill="none" transform="matrix(.17024 0 0 .1397 391.585 259.396)"/><path d="M920.82 598.53s16.443 3.289 19.732 19.732c3.289 16.444-9.866 32.887-9.866 32.887M927.4 568.93s26.309 29.597 32.887 39.463c6.577 9.866-3.289 32.887-3.289 32.887" transform="matrix(.17024 0 0 .1397 382.207 253.998)" stroke-width="1pt" fill="none"/><path d="M920.82 565.64c3.289 3.289 32.886 3.289 46.041 19.732s6.577 46.041 6.577 46.041" transform="matrix(.17024 0 0 .1397 382.207 253.998)" stroke-width="1pt" fill="none"/></g><path d="M503.45 7.085c5.813-4.651 24.417-15.115 59.298-13.953 34.881 1.162 59.299 17.44 59.299 17.44l-2.326-45.345S596.467-46.4 565.074-46.4s-58.136 6.976-58.136 6.976L503.45 7.085z" fill-rule="evenodd" stroke="#000" stroke-width="1pt" fill="#ffd400" transform="matrix(.17024 0 0 .15072 391.585 247.794)"/><g fill-rule="evenodd" stroke="#000" stroke-width="1.25" fill="#ffd400"><path d="M148.7 515.65c0 17.668 2.547 28.856 20.264 28.856 17.716 0 24.239-17.836 24.664-30.5.538-15.992 3.489-40.366 38.921-40.366 17.717 0 128.01-11.771 131.3 248.03 3.288 259.8-184.24 206.72-184.24 206.72s-20.175 88.581 90.067 232.5c84.663 104.07 205.54 106.88 205.54 106.88s18.724 41.77 56.289 95.64c54.318 77.9 124.02 61 124.02 78.72 0 17.71-17.545 9.92-17.717 25.93.172 19.42 9.363 27.9 26.509 27.22s17.104-17.77 18.419-53.15c.661-17.77-17.71-25.26-27.211-25.57-19.554-.63-70.866-16.2-106.3-63.02-29.718-32.81-53.15-88.58-53.15-88.58s46.16-17.72 35.051-38.3c-11.505-13.08-46.041 13.16-46.041 13.16s-6.727-45.73-27.953-46.05c-31.923.32 1.866 28.81 10.087 53.47-17.494 1.23-106.6-11.14-183.74-99.72-71.832-88.41-87.531-174.8-87.421-202.59 44.945 16.356 185.51 7.256 185.51-223.26-7.02-292.78-124.04-265.75-159.47-265.75-42.01 0-73.414 42.01-73.414 59.727z" transform="matrix(.17024 0 0 .1397 363.255 197.516)"/><path d="M148.7 515.65c0 17.668 2.547 28.856 20.264 28.856 17.716 0 24.239-17.836 24.664-30.5.538-15.992 3.489-40.366 38.921-40.366 17.717 0 128.01-11.771 131.3 248.03 3.288 259.8-184.24 206.72-184.24 206.72s-20.175 88.581 90.067 232.5c84.663 104.07 205.54 106.88 205.54 106.88s18.724 41.77 56.289 95.64c54.318 77.9 124.02 61 124.02 78.72 0 17.71-17.545 9.92-17.717 25.93.172 19.42 9.363 27.9 26.509 27.22s17.104-17.77 18.419-53.15c.661-17.77-17.71-25.26-27.211-25.57-19.554-.63-70.866-16.2-106.3-63.02-29.718-32.81-53.15-88.58-53.15-88.58s46.16-17.72 35.051-38.3c-11.505-13.08-46.041 13.16-46.041 13.16s-6.727-45.73-27.953-46.05c-31.923.32 1.866 28.81 10.087 53.47-17.494 1.23-106.6-11.14-183.74-99.72-71.832-88.41-87.531-174.8-87.421-202.59 44.945 16.356 185.51 7.256 185.51-223.26-7.02-292.78-124.04-265.75-159.47-265.75-42.01 0-73.414 42.01-73.414 59.727z" transform="matrix(-.17024 0 0 .1397 611.15 197.516)"/><path d="M238.56-187.8c26.42 0 22.65 26.716 17.717 42.978-4.933 16.261-35.433 27.888-63.117 10.172 7.642 26.836 27.684 106.3 109.4 108.34 95.371-2.037 103.64-71.797 209.37-72.35 105.73-.553 124.84 15.498 123.44 52.597-1.257 33.442-9.085 53.15-35.434 53.15-17.716 0-35.764-15.68-35.433-35.433.332-19.753 22.568-20.962 37.859-19.34 5.425-16.094-20.142-33.81-91.008-33.81-70.164-.924-124.67 73.274-216.75 70.866-92.082-2.407-132.95-114.04-115.45-141.73 18.525-33.809 31.256-35.433 59.401-35.433z" transform="matrix(-.17024 0 0 .1397 602.314 249.497)"/><path d="M238.56-187.8c26.42 0 22.65 26.716 17.717 42.978-4.933 16.261-35.433 27.888-63.117 10.172 7.642 26.836 27.684 106.3 109.4 108.34 95.371-2.037 103.64-71.797 209.37-72.35 105.73-.553 124.84 15.498 123.44 52.597-1.257 33.442-9.085 53.15-35.434 53.15-17.716 0-35.764-15.68-35.433-35.433.332-19.753 22.568-20.962 37.859-19.34 5.425-16.094-20.142-33.81-91.008-33.81-70.164-.924-124.67 73.274-216.75 70.866-92.082-2.407-132.95-114.04-115.45-141.73 18.525-33.809 31.256-35.433 59.401-35.433z" transform="matrix(.17024 0 0 .1397 372.086 249.497)"/></g></g><path d="M-1576.8 1353.5c17.72 2.98 674.45-205.79 673.23-531.49v-1594.5h-1346.5v1594.5c-1.22 325.7 673.23 531.49 673.23 531.49z" transform="matrix(.19009 0 0 .15565 781.422 252.48)" stroke="#000" stroke-width="11.125" fill="none"/></svg>