<svg xmlns="http://www.w3.org/2000/svg" height="480" width="640"><defs><clipPath id="a" clipPathUnits="userSpaceOnUse"><path fill-opacity=".67" d="M0 0h640v480H0z"/></clipPath></defs><g fill-rule="evenodd" clip-path="url(#a)"><g stroke-width="1pt"><path d="M-160.218 33.142l.118 114.17L799.905 346.66V233.313L-160.216 33.142z" fill="#fff"/><path d="M-160.1 246.65V480h960.005v-33.325L-160.1 246.648zM799.905 233.344V-.006H-160.1v33.325l960.005 200.026z" fill="#fdd114"/><path d="M-160.1 146.713v100.004l960.314 199.959-.31-100.014L-160.1 146.713z"/></g><path transform="matrix(1.1378 0 0 1.13791 1.618 -513.141)" stroke="#000" stroke-width="1.562" fill="#cf1126" d="M274.57 617.61h9.539v25.46h-9.539z"/><path d="M415.12 645.68c-.241-33.566 1.125-65.845 3.766-75.002s6.556-11.06 11.416-15.608c-11.512-1.043-24.218 8.647-30.06 21.408-3.707-14.398-10.639-24.156-16.739-29.056-6.099 4.9-13.292 14.808-16.568 29.183-6.01-10.712-16.555-22.588-29.028-21.254 4.434 4.62 8.481 6.332 11.178 15.285s4.044 41.016 3.075 74.6" transform="matrix(.51847 0 0 .59252 120.52 -116.466)" stroke="#000" stroke-width="3.207" fill="#cf1126"/><path d="M414.44 641.96c-.241-33.565 1.37-62.22 3.677-71.327 2.309-9.106 5.993-10.806 11.258-14.746-11.512-1.043-22.481 1.756-28.902 17.355-3.592-14.5-10.639-21.623-16.739-26.523-6.099 4.9-13.292 12.274-16.568 26.649-7.053-15.474-16.903-18.94-29.376-17.606 5.186 4.316 9.262 5.927 11.8 14.855s2.859 37.315 1.89 70.899" transform="matrix(.56537 0 0 .7111 102.409 -140.621)" stroke="#000" stroke-width="2.804" fill="#cf1126"/><path d="M417.5 590.83c-.312-7.812.76-18.303 2.535-22.357 1.776-4.055 4.254-7.016 6.754-10.453-10.722-1.546-21.625-.757-27.414 14.968-3.75-14.375-9.375-21.875-15.475-26.775-6.099 4.9-11.396 12.4-15.146 26.775-5.789-15.725-16.745-16.678-27.796-14.968 2.5 3.437 5.074 6.398 6.945 10.453 1.871 4.054 3.039 14.545 2.726 22.357" transform="matrix(.71104 0 0 .7111 46.45 -91.042)" stroke="#000" stroke-width="2.5" fill="#cf1126"/><path d="M378.95 610.77v32.211h11.369V610.77H378.95z" transform="matrix(.71104 0 0 .7111 45.954 -300.978)" stroke="#000" stroke-width="2.5" fill="#cf1126"/><path opacity=".99" stroke-linejoin="bevel" d="M457.89 1168.7c2.813 1.88 14.035 3.85 34.376.31 35.513-6.22 35.216-41.25 90.529-25-2.5-5-11.25-20.31-32.813-20.93 2.188-7.19 3.75-17.81-.312-24.38-4.167 9.27-10.618 13.58-15.296 16.61-1.441-.78-9.8-7.61-10.706-17.9-1.256-20.4-11.211-24-12.268-23.46-6.39-.18-44.87 60.65-127.27 61.05-81.189.39-121.82-60.51-126.41-61.05-1.057-.54-11.012 3.06-12.268 23.46-.906 10.29-9.363 16.82-10.784 17.73-4.658-2.9-11.051-7.17-15.218-16.44-4.062 6.57-2.5 17.19-.312 24.38-21.563.62-30.313 15.93-32.813 20.93 55.313-16.25 55.424 18.78 90.937 25 20.341 3.54 30.886 1.88 33.699.01" transform="matrix(.71104 0 0 .7111 45.954 -415.196)" stroke="#000" stroke-width="2.5" fill="#cf1126"/><path opacity=".99" stroke-linejoin="bevel" d="M286.28 1151.2c-19.265-.77-56.848-30.07-51.514-36.1 1.693-1.71 9.973.05 24.308 10.08 21.275 14.5 39.529 60.22 124.88 59.87 86.98-.35 104.83-45.37 126.1-59.87 14.335-10.03 23.279-11.63 24.288-9.67 5.12 5.78-32.499 35.01-51.764 35.78" transform="matrix(.71104 0 0 .7111 45.954 -415.196)" stroke="#000" stroke-width="2.5" fill="#cf1126"/><path d="M259.2 399.54c-76.11 80.185-35.168 264.36 123.02 267.02 159.04 1.782 205.43-184.26 126.41-267.37m-234.02 3.103c-40.49 68.178 1.604 187.64 109.88 187.64 109.17 0 149.18-120.33 109.08-188.05" transform="matrix(.71104 0 0 .7111 46.45 -91.042)" stroke="#000" stroke-width="2.5" fill="#cf1126"/><path d="M339.548 399.678c3.935.874 7.525 4.937 6.08 9.113-1.606 4.978-7.532 6.188-9.772 5.825-2.41-1.446-.965-3.533 6.424-4.337 4.817-1.767.43-5.025-3.212-6.585-1.98-.849-1.367-4.426.48-4.016zM327.345 398.395c1.829-2.082 3.316 4.298 3.722 8.721.533 4.319.589 9.646-1.152 9.91-1.062.178-.17-4.959-1.268-9.672-1.432-5.457-2.05-8.044-1.302-8.96z" stroke="#cf1126" stroke-width=".26635400000000004" fill="#fdd114"/><path d="M323.143 406.264c4.594 4.452-3.187 17.347-20.211 11.726-.964-1.767 6.76-.02 12.205-.964 10.361-1.636 5.916-12.737 8.006-10.762z" stroke="#cb4f46" stroke-width=".26635400000000004" fill="#fdd114"/><path d="M314.814 397.426c1.83-2.081.764 4.507 1.145 8.934.373 4.159-.092 9.22-2.065 8.565-1.07-.515.683-5.186-.414-9.577-1.176-5.519-.055-6.525 1.334-7.922zM303.13 395.658c3.249-.02 2.378.891 2.147 9.569-.254 9.724-8.466 10.812-10.418 8.144-1.64-2.093-1.039-2.723-8.378-2.022-1.642-.827-1.579-2.586-6.94-2.136-1.387.256-1.341-2.374-3.842-3.945-4.361-2.606-5.813 1.921-14.128-2.87-.52-.29-3.894-2.428-3.277-6.655.642-5.34-4.228.653-9.58-1.678-1.036-.462-4.173-1.767-6.94-4.196-3.907-3.36.184-4.04 5.462-.614 3.26 2.067 8.047-2.689 8.176-7.448.292-5.037-2.214-6.361 1.67-6.237 2.166.065 1.651 8.801-2.03 12.668-4.925 5.323-1.601 4.297.158 4.03 1.834-.46 10.178-10.799 11.57-9.912 2.166 1.473-6.506 8.083-4.564 14.34.928 2.79 6.097 5.461 10.353 5.894 5.004.833 5.018-5.962 7.046-4.675 2.807 1.842-5.363 5.31 3.215 7.838 1.894.568 2.989-4.257 4.11-4.047 2.691.44-1.76 5.634 3.053 6.46 3.355.558 2.436-4.851 4.516-4.522 2.407-.154.148 8.653 6.82 7.755 2.813-.368-1.587-15.721 1.802-15.74z" stroke="#cf1126" stroke-width=".26635400000000004" fill="#fdd114"/><path d="M242.656 384.23c1.932-.413 5.244-2.208 5.382-5.106.276-3.173-4.14-4.278-9.383-3.45-2.76.415-7.45-1.38-10.21-3.726-2.76-3.45-2.76-7.311-6.07-5.656-2.484 1.103 3.449 7.45 6.346 8.969 2.898 1.518 7.59 1.38 7.865 3.587.276 2.208-1.104 5.657 6.07 5.381zM360.07 399.036c-1.066.516-1.93 10.158 4.09 10.366 7.564.27 11.367-3.565 13.262-4.928 3.146-2.392 8.817-7.171 6.192-11.293-1.313-1.496-2.039 2.753-3.553 5.24-2.06 3.647-9.115 7.974-14.519 7.384-6.619-.407-4.125-7.114-5.472-6.769z" stroke="#cf1126" stroke-width=".26635400000000004" fill="#fdd114"/><path d="M375.615 394.569c-1.539-1.164 3.422-3.068 3.935-4.868.515-1.8-2.191-3.497-.687-5.47 1.578-2.596 1.664 4.896 3.669 5.111 5.552.579 1.588 4.165-.506 3.472-2.37-.707-5.482 2.63-6.41 1.755zM371.317 383.225c-.357 2.5 1.161 3.126 1.61 1.697.534-2.68-.985-3.931-1.61-1.697z" stroke="#cf1126" stroke-width=".26635400000000004" fill="#fdd114"/><path d="M375.337 380.634c-.894.07-1.018 3.173.145 3.259 1.256.1.676 2.217 1.73 2.189 1.254-.033 1.35-3.552-.069-3.585-1.32-.033-1.008-1.849-1.806-1.863zM385.386 380.04c-1.062 1.344-3.078-5.178 3.704-6.111 3.224.284 5.974 5.594 5.69 10.714-.108 1.894-.19 6.164-1.232 8.25-.855 1.992-3.983 8.536-5.5 7.967-1.517-.57.397-3.31 2.94-7.113 2.055-3.114 2.845-11.759 1.801-13.276s-2.093 3.794-4.267 4.932c-1.808.948-3.697-1.795-3.982-3.122-.225-1.574 1.209-2.542 2.18-.672.775 1.406 3.156-1.383 3.1-3.376.063-3.223-2.074-.667-4.434 1.807zM399.999 365.488c-.854 1.233-3.792 3.983-4.361 5.121s-.665 3.128.283 5.026c.95 1.896 2.94 4.93 2.56 7.68-.38 2.75-2.275 8.439-1.232 7.966 1.043-.475 3.603-6.07 3.034-10.337-.569-4.267-2.56-6.637-2.181-8.06.378-1.421 2.749-4.076 3.224-5.878.474-1.803-.285-6.638-.948-7.017s-3.034.474-2.276 2.086c.759 1.612 2.37.663 1.897 3.413z" stroke="#cf1126" stroke-width=".26635400000000004" fill="#fdd114"/><path d="M403.897 367.691c-1.065.97-.535 6.252.929 4.366 1.33-1.838-.077-5.229-.929-4.366z" stroke="#cf1126" stroke-width=".25061490000000003" fill="#fdd114"/><path d="M376.027 406.918c-.499 2.312 1.778 3.044 2.404 1.723.748-2.477-1.53-3.787-2.404-1.723z" stroke="#cf1126" stroke-width=".302675" fill="#fdd114"/><path d="M379.514 404.957c-.74 1.897 2.56 2.063 3.488.979 1.109-2.033-2.193-2.673-3.488-.98z" stroke="#cf1126" stroke-width=".33415320000000004" fill="#fdd114"/><path d="M242.244 377.607c-1.765-.79-1.655 2.76-.826 3.725.826.966 5.64-1.51.826-3.725z" stroke="#cf1126" stroke-width=".26635400000000004" fill="#cf1126"/><path d="M385.65 680.28c-24.945 4.993-42.073 19.615-34.043 24.588 4.917 3.278 28.013-5.728 32.886-13.373 8.861 13.523 32.9 18.624 38.706 15.592" transform="matrix(.71104 0 0 .7111 45.954 -300.978)" stroke="#000" stroke-linecap="round" stroke-width="2.5" fill="#cf1126"/><path d="M228.173 177.083c2.944 4.55 18.196 15.521 29.166 16.324 10.972.803 35.856 5.887 40.673 3.746 4.816-2.14 18.463-11.507 21.941-9.901 3.48 1.606 23.815 12.845 31.307 12.577 7.493-.267 55.925-13.915 57.53-16.59 1.606-2.677-9.633-9.635-16.857-9.635-7.225 0-163.76 3.747-163.76 3.48z" fill="#cf1126"/><path d="M316.2 703.33c.124 3.846 3.081 6.627 10.173 6.7 11.91.248 32.057-5.385 44.091-18.907" transform="matrix(.71104 0 0 .7111 45.954 -300.978)" stroke="#000" stroke-linecap="round" stroke-width="2.5" fill="#cf1126"/><path d="M280.47 697.62c-.62 3.226 4.715 7.444 15.136 7.568s46.772-4.342 58.434-16.5" transform="matrix(.71104 0 0 .7111 45.954 -300.978)" stroke="#000" stroke-linecap="round" stroke-width="2.5" fill="#cf1126"/><path d="M255.86 687.85c-5.583 7.195 12.204 9.774 22.873 9.649 10.67-.124 38.206-.266 50.539-9.446" transform="matrix(.71104 0 0 .7111 45.954 -300.978)" stroke="#000" stroke-linecap="round" stroke-width="2.5" fill="#cf1126"/><path d="M236.37 675.78c-5.335 7.072 12.591 13.283 34.426 12.787 20.098-.496 40.569-7.444 40.569-7.444M452.48 703.33c-.124 3.846-3.081 6.627-10.173 6.7-11.91.248-32.057-5.385-44.091-18.907" transform="matrix(.71104 0 0 .7111 45.954 -300.978)" stroke="#000" stroke-linecap="round" stroke-width="2.5" fill="#cf1126"/><path d="M488.21 697.62c.62 3.226-4.715 7.444-15.136 7.568s-46.772-4.342-58.434-16.5" transform="matrix(.71104 0 0 .7111 45.954 -300.978)" stroke="#000" stroke-linecap="round" stroke-width="2.5" fill="#cf1126"/><path d="M512.66 688c5.583 7.196-12.048 9.618-22.717 9.493-10.67-.124-38.206-.266-50.539-9.446" transform="matrix(.71104 0 0 .7111 45.954 -300.978)" stroke="#000" stroke-linecap="round" stroke-width="2.5" fill="#cf1126"/><path d="M532.37 675.66c5.335 7.072-12.651 13.404-34.486 12.908-20.098-.496-40.569-7.444-40.569-7.444" transform="matrix(.71104 0 0 .7111 45.954 -300.978)" stroke="#000" stroke-linecap="round" stroke-width="2.5" fill="#cf1126"/><path d="M279.21 675.12c-27.735 4.005-40.51 1.964-46.045-.682-6.915-3.043-18.757-12.309-1.265-12.646 11.59-.226 17.431.659 30.607.59 33.705-.422 82.36-27.036 97.11-27.145 13.701-.101 17.336 6.233 25.147 6.362 7.998.093 10.587-6.463 24.288-6.362 14.75.109 63.405 26.723 97.11 27.145 13.176.069 19.017-.816 30.607-.59 17.492.337 5.65 9.603-1.265 12.646-5.535 2.646-18.31 4.687-46.045.682" transform="matrix(.71104 0 0 .7111 45.954 -300.978)" stroke="#000" stroke-linecap="round" stroke-width="2.5" fill="#cf1126"/><path d="M383.55 280.29c-13.048.655-31.007-1.574-36.774 12.977-8.783 16.647-6.306 35.518-2.36 35.916 7.065.779 7.737-18.847 10.749-18.876 3.149-.036 3.146 17.041 9.307 16.91 4.588-.131 7.472-17.172 8.914-17.041s4.457 16.385 10.26 16.385c6.197 0 8.818-16.254 10.26-16.385s4.326 16.91 8.914 17.041c6.161.131 6.158-16.946 9.307-16.91 3.012.029 4.339 19.524 11.404 18.745 3.946-.398 5.899-19.138-2.884-35.785-5.767-14.551-24.119-12.322-37.097-12.977z" transform="matrix(.71104 0 0 .7111 46.45 -91.042)" stroke="#000" stroke-width="2.5" fill="#cf1126"/><path d="M352.22 286.25c3.504 5.887 30.835 5.747 32.377 5.747s25.369.28 30.975-5.466M378.62 224.86v58.032s.314 3.24 5.124 3.345 5.541-2.718 5.541-3.137l-.209-58.345" transform="matrix(.71104 0 0 .7111 46.45 -91.042)" stroke="#000" stroke-width="2.5" fill="#cf1126"/><path d="M384.25 231.59c21.864-1.121 28.383 11.774 34.55 14.577s8.97 3.924 17.38 3.363c8.409-.56-14.577 14.017-14.577 14.577l8.41 15.137c-7.849 1.121-22.713-6.125-28.592-10.091-6.65-3.927-14.016-1.682-16.819-2.243l-.352-35.32z" transform="matrix(.71104 0 0 .7111 46.45 -91.042)" stroke="#000" stroke-width="2.5" fill="#cf1126"/><path d="M313.4 264.67c0 4.333-3.893 7.849-8.689 7.849-4.797 0-8.69-3.516-8.69-7.849 0-4.332 3.893-7.848 8.69-7.848 4.796 0 8.689 3.516 8.689 7.848z" transform="matrix(1.03216 0 0 1.09206 4.814 -227.949)" stroke="#000" stroke-width="1.674" fill="#cf1126"/><g stroke="#cf1126" stroke-width=".375" fill="#fdd114"><path d="M249.32 508.25c-1.666 2.331-3.103-3.799-8.827.499-3.228 2.759-4.521 6.987-4.498 15.822.02 7.491 4.331 12.492 6.83 11.992 3.83-.5 1.831-9.66 5.995-11.325 5.996-2.832 14.49 1.498 15.989 6.994s-2.832 11.492-7.495 10.826c-2.665-.999 1.499-4.829 1.832-6.495.333-1.665.832-7.162-3.165-8.66-3.997-1.499-3.33 3.997-3.497 5.496-.166 1.499-2.998 6.162-6.162 5.995-3.164-.166-8.193-.149-13.158-5.495-2.632-2.743-5.829-10.16-2.997-19.487 2.831-9.326 7.661-10.159 10.326-10.326 2.664-.166 9.493 1.499 8.827 4.164zM242.49 547.06c-2.779-1.485 1.045-6.896-6.162-4.996-2.9.808 4.33 9.16 7.494 9.494 3.498-.334 2.523-2.604-1.332-4.498zM250.15 551.56c1.498 6.828 2.917 6.249 3.164 9.659.124 4.356-7.329 2.498-8.328 4.496-.999 1.999-2.331 7.162 2.498 7.495 4.83.333 11.762-1.523 13.157 1.832 3.761 9.443 11.782 8.074 15.522 6.605 4.23-1.693 14.185-10.664 16.455-11.435 3.38-1.238-3.164-3.664-6.994-.333-.999 1-9.327 9.494-13.657 9.66-3.163.352-8.063-7.666-7.828-10.492.333-1.999 7.62-.35 8.661-4.497.775-2.963.832-6.163-1.499-6.329-2.332-.167-13.324 1.332-13.657-.333-1.999-4.83 1.999-6.828.5-8.161-1.666-.666-7.828-1.665-7.994 1.833zM287.18 578.04c-3.524 3.691-12.801 9.6-12.801 13.774 0 2.366 2.589 6.075 4.73 6.957 3.196 1.259 8.098.944 11.827-1.948 4.217-3.426 6.114-6.899 4.314-7.513-6.378-1.823-6.539 6.968-9.601 7.235-2.925.243-7.374-4.453-1.53-10.297 5.843-5.843 13.914-11.687 13.635-13.357-.278-1.669-8.045 2.6-10.574 5.149z" transform="matrix(.71104 0 0 .7111 45.954 -95.367)"/><path d="M259.35 585.69c-.261 2.351 5.983 2.365 7.096.278.834-1.53-6.818-2.643-7.096-.278z" transform="matrix(.71104 0 0 .7111 54.957 -83.4)"/><path d="M273.84 583.06c-3.524 3.691.417 7.887 3.109 11.326 1.491 1.837 4.915 3.627 7.056 4.509 3.196 1.259 9.566.822 13.295-2.07 4.217-3.426 4.55-9.443 1.989-9.471-6.619-.074-2.011 8.804-5.073 9.071-2.925.243-11.126-1.606-15.115-10.053-2.279-4.979 4.202-5.931 3.232-8.094-.988-2.324-5.964 2.233-8.493 4.782z" transform="matrix(.71104 0 0 .7111 59.606 -80.427)"/><path d="M259.35 585.69c-.261 2.351 5.983 2.365 7.096.278.834-1.53-6.818-2.643-7.096-.278z" transform="matrix(.53047 -.47352 .47348 .53051 -148.353 146.045)"/><path d="M319.56 621.31c-.19 2.708.612 6.364-2.57 6.487-3.182.122-7.221-4.162-10.403-4.039-3.182.122-4.529 2.57-4.162 3.917.367 1.346 5.875 2.937 15.299 2.325s7.343 5.14 13.952 4.65c6.609-.489 7.588-2.692 7.099-4.16-.49-1.469-6.119-.49-8.2-.857-2.081-.368-5.752-3.672-6.242-6.487-.489-2.815-.489-7.667 1.958-7.71 4.529-.079 2.437 4.115 2.61 5.587.153 1.303 1.634 2.654 3.632.287 2.653-3.141 1.224-8.078-1.346-9.791s-11.148 3.2-11.627 9.791zM342.93 621.8c-.482 4.853-3.955 5.206-3.549 6.976.502 2.034 1.759 2.672 2.57 7.71.459 2.484 3.549 3.537 7.466 3.305 3.201-.088 5.389-4.424 7.465-4.284 2.935.157.49 6.801 7.344 6.732 5.507-.052 6.854-4.774 8.812-4.896 1.958-.123 1.713 5.507 6.242 5.507 4.528 0 6.486-5.14 8.567-5.262 2.203.122 2.203 5.507 8.934 5.14 6.732-.368 11.75-1.346 13.341-2.692 1.591-1.347 2.325-5.753 4.528-5.998 2.203-.244 5.63 4.161 8.69 4.161s9.423-7.709 11.381-7.832c1.959-.122 3.55 4.773 7.956 4.773 6.854-.122 7.655-9.033 10.847-9.454 5.754-.56 5.981-2.907 6.287-3.519.612-1.714-.044-9.749-1.351-13.418-.635-1.936-7.95-18.281-11.254-18.648-3.305-.367-2.326 4.406-.368 7.221 1.959 2.815 11.994 15.91 10.648 19.704-1.346 3.795-8.445-1.591-14.075-1.591-7.833 0-12.592 15.836-18.114 16.4-2.425.26-5.017-2.08-4.16-3.794 1.591-2.447 3.426-8.322-2.693-7.465-6.119.856-12.361 3.671-11.382 6.976.979 3.304 4.651 6.609.612 7.955s-11.015 1.714-14.442.612c-3.427-1.101-1.347-8.812-3.427-8.812-2.325 0-2.447 9.057-5.752 9.302-3.304.244-6.242-1.102-6.976-3.672-.735-2.57 1.224-5.752-.979-6.119-2.203-.368-4.407 10.158-7.711 9.913s-3.427-.979-5.385-3.06c-1.958-2.08 1.713-9.179-1.591-9.791-3.305-.612-6.61 10.526-8.812 10.404-2.204-.123-5.508-.245-6.487-2.448-.49-1.102-.353-7.993-.243-10.787-.061-1.322-3.182-.741-2.939.751zM454.18 591.81c6.031 9.131 11.463 21.479 14.809 22.152 2.228.327-6.977-16.521-10.036-20.316-2.57-3.916-9.961-9.795-4.773-1.836z" transform="matrix(.71104 0 0 .7111 45.954 -95.367)"/><path d="M342.16 613.74c-1.144 2.287-.735 4.493 1.225 4.166s4.492-4.166 3.839-4.901-3.512-1.388-5.064.735z" transform="matrix(.55975 0 0 .68887 97.875 -81.501)"/><path d="M471.9 595.86c-.021 4.951 3.485 10.551 10.009 10.198 6.525-.352 13.679-7.568 14.208-14.974s-8.612-12.843-10.904-11.256c-2.293 1.587.86 7.11 6.716 7.451 2.508.152 1.689 5.056-3.116 8.936-5.035 3.98-12.489 3.904-14.312 1.158-1.41-3.88-2.694-3.907-2.601-1.513z" transform="matrix(.71104 0 0 .7111 45.954 -95.367)"/><path d="M475.83 580.86c-.954 1.961 1.035 6.481 3.192 6.281 2.187-.214-2.492-7.579-3.192-6.281zM494.98 577.35c1.27 2.937 2.78 7.414 5.457 7.414 2.678 0 4.84.721 4.84 2.986s-6.98 9.806-7.208 12.357c-.389 4.348 2.78 4.119 4.325 1.75 1.544-2.368 5.721-13.507 6.59-16.579.378-2.428 3.38-6.992 3.501-11.742-.192-5.352 4.736-1.026 7.105-.82 2.17.095 4.531-3.913 4.84-6.796.309-2.884-2.266-3.398-2.266-5.972 0-1.442 2.754-6.076 2.883-9.165.307-2.732-5.354-10.606-7.722-10.503-1.957.103-.309 2.986.824 4.222 1.132 1.236 4.015 3.81 2.986 6.075-1.854 4.428-10.916 5.561-11.327 10.298-.412 3.398.411 14.107-2.369 14.107s-5.056-6.69-9.37-6.694c-4.838-.129-4.092 6.825-3.089 9.062zM502.09 536.68c.133 1.907 4.119 10.194 6.487 10.194 3.398 0-1.545-3.912-1.236-5.354s5.177-3.614 3.192-4.119c-3.55-1.087-8.619-3.242-8.443-.721zM501.78 525.97c.721 2.677 11.738 6.693 16.475 8.032s10.503 7.002 12.666 5.148c2.162-1.853-14.519-8.443-16.99-9.37s-12.666-6.487-12.151-3.81zM535.04 543.27c4.119.102 1.853-8.033.823-9.989-1.029-1.957-2.574 3.707-2.368 5.355.206 1.647.309 4.531 1.545 4.634zM511.05 502.8c-.035 1.843 11.379.535 16.682 1.956 2.288.641 10.091 4.839 11.532 3.81 1.648-2.163-10.606-6.796-17.608-6.796-2.267.034-10.566-1.143-10.606 1.03zM508.06 508.05c-2.043 2.187 6.884 4.633 14.828 4.942 7.913.309 13.041 5.063 12.357 8.547-1.133 5.87-11.018 2.059-9.782 5.252.72 2.471 5.067 1.564 5.56 4.222.341 2.678 3.131 3.149 2.982-.152-.016-2.627 6.131-6.954 5.977-8.189-.309-2.471-4.016-11.121-13.49-12.048-9.473-.926-15.824-5.491-18.432-2.574z" transform="matrix(.71104 0 0 .7111 45.954 -95.367)"/></g><path d="M227.171 306.975c-.903-.522-4.122 2.371-2.967 3.017 2.191 1.24 4.34-2.25 2.967-3.017zM234.084 303.536c-1.563-.195-2.318 3.124-1.01 3.321 3.322.459 3.977-2.962 1.01-3.32zM402.59 312.847c-.74-.004-3.076 1.025-2.27 2.636.806 1.61 3.117 1.65 4.174.733.942-.892.729-3.354-1.904-3.37zM411.742 305.812c.237 1.772 1.532 1.485 2.562 1.098 1.172-.512 1.514-2.061.367-2.635-1.196-.598-3.17.273-2.929 1.537zM358.835 347.23c-1.578 3.485-.22 6.893 2.297 6.237s5.032-5.471 3.173-7.003-4.423-1.548-5.47.766z" stroke="#cf1126" stroke-width=".0883811" fill="#cf1126"/><g fill="#cf1126"><path d="M146.545 202.669c-5.87-.534-19.21-3.203-19.745-.534-.533 2.668 7.205 33.89 11.207 37.891 4.002 4.003 22.68 12.542 24.548 11.475 1.867-1.068-3.736-20.547-5.87-24.016-2.135-3.47-8.539-16.01-8.005-16.544.533-.533-2.402-8.272-2.135-8.272z"/><path d="M124.24 411.54c2.012-10.563 14.294 2.08 13.078 15.841-.599 4.669 2.012 9.812 4.527 12.327" transform="matrix(.71104 0 0 .7111 46.457 -91.039)" stroke="#000" stroke-width="2.5"/><path d="M134.8 412.04l-.461.614c6.16-10.424 12.116 4.416 13.036 21.518M113.62 410.41c-.356-8.536 13.509-10.988 12.651 19.87 6.045 3.912 13.16 18.85 13.515 24.186 4.537 1.067 12.093 6.646 13.933 11.27" transform="matrix(.71104 0 0 .7111 46.457 -91.039)" stroke="#000" stroke-width="2.5"/><path d="M147.62 581.4c.648-23.495 1.018-73.806-1.442-79.264-4.326-10.103-26.09-21.818-32.722-37.702-6.639-16.804-12.299-55.134-9.604-59.754 3.529-6.659 15.295 8.181 12.094 24.542 14.228 16.717 11.237 26.675 13.871 28.81 8.774 6.757 22.171 11.382 24.541 17.428 4.877 10.817-1.066-15.295-4.979-20.63-3.912-5.335-10.67-17.072-6.046-19.917 4.623-2.846 12.804 4.624 13.871 6.758s12.093 14.227 15.294 17.072c5.691 4.268 20.064 13.809 19.778 21.988-.015 13.222 1.159 100.21 1.159 100.21M144.97 612.37s-.09 9.457-.089 9.635c4.104 4.996 21.234 5.552 25.068 5.531 3.752-.11 19.87.178 23.617-5.977.089-.178.232-8.033.232-10.192" transform="matrix(.71104 0 0 .7111 46.457 -91.039)" stroke="#000" stroke-width="2.5"/><path d="M144.2 585.22c-4.745 1.055-5.985 6.852-2.637 11.073 2.715 3.424 13.973 7.381 26.891 7.646 12.917.262 30.054-4.219 30.844-11.337.264-7.118-6.421-6.684-5.63-6.42" transform="matrix(.71104 0 0 .7111 46.457 -81.667)" stroke="#000" stroke-width="2.5"/><path d="M144.2 585.31c-4.745 1.055-5.632 7.03-2.284 11.251 2.715 3.424 14.147 8.172 27.065 8.436 12.917.263 29.263-5.009 30.053-12.127.264-7.118-4.652-6.505-5.009-6.327" transform="matrix(.71104 0 0 .7111 46.457 -91.039)" stroke="#000" stroke-width="2.5"/><path d="M171.09 592.6c17.135.264 28.208-8.172 28.208-12.653 0-4.482-5.536-4.746-8.964-3.428-3.427 1.318-8.699 4.665-19.771 4.745-11.334.345-21.354-7.908-24.781-7.645-3.427.264-6.112 3.98-5.009 7.909 1.357 3.897 13.445 11.599 30.317 11.072z" transform="matrix(.71104 0 0 .7111 46.457 -91.039)" stroke="#000" stroke-width="2.5"/></g><g fill="#cf1126"><path d="M493.456 202.669c5.87-.534 19.211-3.203 19.745-.534.534 2.668-7.204 33.89-11.206 37.891-4.002 4.003-22.68 12.542-24.548 11.475-1.867-1.068 3.736-20.547 5.87-24.016 2.135-3.47 8.539-16.01 8.005-16.544-.533-.533 2.402-8.272 2.134-8.272z"/><path d="M124.24 411.54c2.012-10.563 14.294 2.08 13.078 15.841-.599 4.669 2.012 9.812 4.527 12.327" transform="matrix(-.71104 0 0 .7111 593.55 -91.039)" stroke="#000" stroke-width="2.5"/><path d="M134.8 412.04l-.461.614c6.16-10.424 12.116 4.416 13.036 21.518M113.62 410.41c-.356-8.536 13.509-10.988 12.651 19.87 6.045 3.912 13.16 18.85 13.515 24.186 4.537 1.067 12.093 6.646 13.933 11.27" transform="matrix(-.71104 0 0 .7111 593.55 -91.039)" stroke="#000" stroke-width="2.5"/><path d="M147.62 581.4c.648-23.495 1.018-73.806-1.442-79.264-4.326-10.103-26.09-21.818-32.722-37.702-6.639-16.804-12.299-55.134-9.604-59.754 3.529-6.659 15.295 8.181 12.094 24.542 14.228 16.717 11.237 26.675 13.871 28.81 8.774 6.757 22.171 11.382 24.541 17.428 4.877 10.817-1.066-15.295-4.979-20.63-3.912-5.335-10.67-17.072-6.046-19.917 4.623-2.846 12.804 4.624 13.871 6.758s12.093 14.227 15.294 17.072c5.691 4.268 20.064 13.809 19.778 21.988-.015 13.222 1.159 100.21 1.159 100.21M144.97 612.37s-.09 9.457-.089 9.635c4.104 4.996 21.234 5.552 25.068 5.531 3.752-.11 19.87.178 23.617-5.977.089-.178.232-8.033.232-10.192" transform="matrix(-.71104 0 0 .7111 593.55 -91.039)" stroke="#000" stroke-width="2.5"/><path d="M144.2 585.22c-4.745 1.055-5.985 6.852-2.637 11.073 2.715 3.424 13.973 7.381 26.891 7.646 12.917.262 30.054-4.219 30.844-11.337.264-7.118-6.421-6.684-5.63-6.42" transform="matrix(-.71104 0 0 .7111 593.55 -81.667)" stroke="#000" stroke-width="2.5"/><path d="M144.2 585.31c-4.745 1.055-5.632 7.03-2.284 11.251 2.715 3.424 14.147 8.172 27.065 8.436 12.917.263 29.263-5.009 30.053-12.127.264-7.118-4.652-6.505-5.009-6.327" transform="matrix(-.71104 0 0 .7111 593.55 -91.039)" stroke="#000" stroke-width="2.5"/><path d="M171.09 592.6c17.135.264 28.208-8.172 28.208-12.653 0-4.482-5.536-4.746-8.964-3.428-3.427 1.318-8.699 4.665-19.771 4.745-11.334.345-21.354-7.908-24.781-7.645-3.427.264-6.112 3.98-5.009 7.909 1.357 3.897 13.445 11.599 30.317 11.072z" transform="matrix(-.71104 0 0 .7111 593.55 -91.039)" stroke="#000" stroke-width="2.5"/></g></g></svg>