<svg xmlns="http://www.w3.org/2000/svg" height="480" width="640" version="1"><g stroke-width="1pt"><path fill-rule="evenodd" fill="#229e45" d="M0 0h640v480H0z"/><path d="M321.406 435.935l301.483-195.67-303.307-196.2-302.473 196.67 304.297 195.2z" fill-rule="evenodd" fill="#f8e509"/><path d="M452.771 240.005c0 70.328-57.104 127.34-127.545 127.34-70.442 0-127.544-57.012-127.544-127.34s57.104-127.34 127.544-127.34c70.442 0 127.545 57.012 127.545 127.34z" fill-rule="evenodd" fill="#2b49a3"/><path fill="#ffffef" fill-rule="evenodd" d="M283.299 316.274l-3.94-2.274-4.094 2.025.917-4.549-3.162-3.333 4.521-.53 2.123-4.08 1.894 4.22 4.46.81-3.345 3.131zM368.771 337.917l-3.94-2.274-4.093 2.025.916-4.549-3.161-3.333 4.52-.53 2.123-4.08 1.894 4.22 4.46.81-3.345 3.131zM331.93 303.343l-3.404-1.964-3.536 1.749.792-3.93-2.731-2.88 3.905-.457 1.834-3.524 1.636 3.645 3.853.7-2.89 2.705zM418.254 290.911l-3.342-1.929-3.472 1.718.777-3.858-2.681-2.827 3.834-.45 1.8-3.46 1.607 3.58 3.783.686-2.837 2.656zM330.37 265.03l-3.94-2.273-4.093 2.025.916-4.549-3.162-3.333 4.521-.53 2.123-4.08 1.894 4.22 4.46.81-3.345 3.131zM225.13 225.52l-3.941-2.274-4.093 2.025.916-4.549-3.161-3.333 4.52-.53 2.123-4.08 1.894 4.22 4.46.81-3.345 3.131zM237.786 278.08l-3.94-2.275-4.094 2.025.916-4.548-3.161-3.334 4.52-.53 2.124-4.079 1.893 4.22 4.46.81-3.345 3.13zM369.114 206.171l-3.48-2.008-3.616 1.788.81-4.018-2.794-2.944 3.994-.468 1.875-3.604 1.673 3.728 3.94.715-2.955 2.766zM361.896 240.366l-2.741-1.582-2.848 1.408.638-3.164-2.2-2.32 3.146-.368 1.476-2.838 1.318 2.936 3.103.563-2.327 2.179zM219.263 287.603l-2.63-1.518-2.734 1.352.612-3.037-2.11-2.225 3.018-.354 1.417-2.724 1.264 2.818 2.978.54-2.233 2.09zM418.984 299.71l-2.144-1.135-2.227 1.011.499-2.272-1.72-1.665 2.46-.264 1.155-2.038 1.03 2.108 2.426.404-1.82 1.564z"/><path fill="#ffffef" fill-rule="evenodd" d="M219.263 287.603l-2.63-1.518-2.734 1.352.612-3.037-2.11-2.225 3.018-.354 1.417-2.724 1.264 2.818 2.978.54-2.233 2.09z"/><path fill="#ffffef" fill-rule="evenodd" d="M219.263 287.603l-2.63-1.518-2.734 1.352.612-3.037-2.11-2.225 3.018-.354 1.417-2.724 1.264 2.818 2.978.54-2.233 2.09zM261.143 287.594l-2.63-1.519-2.733 1.352.611-3.037-2.11-2.225 3.018-.354 1.417-2.723 1.265 2.817 2.977.54-2.233 2.091zM255.94 301.525l-2.631-1.518-2.733 1.352.612-3.037-2.111-2.225 3.018-.354 1.417-2.724 1.265 2.818 2.977.54-2.233 2.09zM342.902 276.164l-2.63-1.519-2.733 1.352.611-3.036-2.11-2.226 3.018-.353 1.417-2.724 1.265 2.817 2.977.54-2.233 2.091zM317.384 276.154l-2.631-1.518-2.733 1.352.612-3.037-2.11-2.226 3.018-.353 1.417-2.724 1.264 2.817 2.978.541-2.233 2.09zM248.167 267.258l-1.648-.952-1.713.847.384-1.902-1.323-1.395 1.891-.222.888-1.706.793 1.765 1.865.339-1.399 1.31zM415.74 310.728l-2.63-1.518-2.733 1.351.612-3.036-2.11-2.226 3.018-.353 1.417-2.724 1.264 2.817 2.978.541-2.233 2.09zM394.491 313.512l-2.18-1.26-2.263 1.122.507-2.522-1.748-1.848 2.5-.294 1.174-2.262 1.047 2.34 2.466.449-1.85 1.736zM404.516 313.27l-2.03-1.173-2.108 1.044.472-2.345-1.629-1.718 2.329-.274 1.093-2.103.976 2.176 2.297.417-1.723 1.615zM433.302 288.15l-1.955-1.129-2.03 1.005.454-2.257-1.568-1.654 2.243-.262 1.053-2.024.94 2.093 2.212.402-1.66 1.553zM394.239 327.689l-2.553-1.394-2.652 1.241.594-2.787-2.049-2.042 2.93-.325 1.375-2.5 1.227 2.586 2.89.496-2.168 1.919zM394.383 339.129l-2.329-1.394-2.419 1.24.542-2.786-1.869-2.043 2.672-.324 1.255-2.5 1.119 2.586 2.636.496-1.977 1.918zM375.084 313.266l-1.955-1.129-2.03 1.005.454-2.257-1.568-1.653 2.242-.263 1.054-2.024.94 2.093 2.212.402-1.66 1.554zM356.992 313.266l-1.954-1.129-2.031 1.005.455-2.257-1.569-1.653 2.243-.263 1.053-2.024.94 2.093 2.212.402-1.66 1.554zM326.273 286.403l-1.955-1.128-2.03 1.004.454-2.256-1.568-1.654 2.243-.263 1.053-2.024.94 2.094 2.212.402-1.66 1.553zM329.696 341.153l-1.656-.956-1.72.851.386-1.911-1.329-1.4 1.9-.223.892-1.715.796 1.773 1.874.34-1.406 1.316zM283.299 252.597l-3.94-2.274-4.094 2.025.917-4.548-3.162-3.334 4.521-.53 2.123-4.079 1.894 4.22 4.46.81-3.345 3.13z"/><path d="M444.368 285.817c1.944-5.083 4.451-12.75 5.783-19.786-67.743-59.51-143.26-89.994-238.682-83.722-3.421 6.56-6.16 13.424-8.468 20.854 113.062-10.786 195.935 39.27 241.37 82.654z" fill-rule="evenodd" fill="#fff"/><path d="M413.914 252.361l2.42 1.322c-.379.858-.48 1.609-.309 2.249.18.646.624 1.209 1.334 1.69.752.513 1.425.738 2.017.678.599-.06 1.045-.306 1.335-.734a1.27 1.27 0 00.224-.863c-.027-.301-.192-.66-.495-1.075-.21-.28-.72-.873-1.53-1.777-1.04-1.16-1.66-2.14-1.86-2.937-.279-1.122-.11-2.141.51-3.06.4-.591.936-1.031 1.612-1.318.686-.289 1.433-.355 2.24-.198.811.157 1.664.539 2.55 1.143 1.453.986 2.33 2.047 2.629 3.183.306 1.138.118 2.253-.564 3.345l-2.404-1.483c.301-.665.375-1.24.218-1.723-.148-.485-.55-.95-1.21-1.397-.677-.46-1.303-.682-1.875-.663-.37.011-.654.168-.856.468-.186.276-.228.59-.13.942.13.449.668 1.193 1.625 2.234.953 1.04 1.604 1.889 1.95 2.547.355.657.516 1.34.482 2.05-.023.706-.284 1.427-.778 2.16a4.104 4.104 0 01-1.811 1.493c-.76.331-1.571.412-2.437.239-.862-.176-1.795-.606-2.8-1.29-1.461-.99-2.358-2.092-2.686-3.3-.322-1.212-.125-2.522.6-3.924zM402.436 244.827l2.472 1.22c-.345.872-.417 1.628-.22 2.26.208.637.672 1.183 1.4 1.635.775.482 1.455.68 2.043.596.6-.086 1.036-.346 1.305-.786.174-.28.236-.573.19-.871-.038-.301-.218-.654-.54-1.057-.219-.272-.749-.841-1.597-1.713-1.086-1.118-1.745-2.072-1.977-2.86-.323-1.11-.194-2.134.385-3.078a3.625 3.625 0 011.559-1.38c.675-.316 1.42-.413 2.231-.29.818.127 1.685.473 2.595 1.04 1.492.926 2.408 1.952 2.753 3.074.351 1.126.21 2.247-.427 3.365l-2.464-1.385c.275-.676.327-1.252.15-1.728-.168-.48-.59-.93-1.264-1.349-.697-.433-1.331-.628-1.9-.586-.37.025-.647.195-.838.504-.172.282-.204.594-.09.944.145.443.714 1.165 1.71 2.168.994.999 1.68 1.822 2.052 2.465.381.641.568 1.318.563 2.027.007.708-.227 1.437-.689 2.193a4.165 4.165 0 01-1.751 1.565c-.746.361-1.556.474-2.427.336-.865-.141-1.815-.536-2.848-1.175-1.498-.934-2.438-1.997-2.815-3.191-.374-1.2-.229-2.514.438-3.943zM388.23 241.02l7.276-11.966 8.837 5.416-1.231 2.026-6.428-3.942-1.616 2.652 5.983 3.668-1.226 2.015-5.984-3.666-1.978 3.256 6.657 4.08-1.228 2.018-9.063-5.557zM367.538 224.027l1.079-2.1 5.401 2.796-2.546 4.962c-.79.238-1.781.296-2.982.17a9.345 9.345 0 01-3.317-.986c-1.299-.672-2.29-1.527-2.976-2.571a5.921 5.921 0 01-.974-3.471c.039-1.273.363-2.506.977-3.702.664-1.298 1.53-2.309 2.591-3.04 1.056-.727 2.248-1.09 3.568-1.09 1.009-.002 2.105.306 3.29.916 1.543.8 2.578 1.746 3.105 2.845.539 1.096.638 2.28.298 3.555l-2.728-.821c.139-.702.057-1.356-.25-1.957-.296-.606-.806-1.095-1.527-1.47-1.097-.567-2.146-.67-3.155-.305-1 .363-1.851 1.23-2.554 2.601-.761 1.48-1.005 2.76-.731 3.841.278 1.073.945 1.886 2.009 2.437.524.27 1.1.44 1.73.507a6.135 6.135 0 001.753-.05l.811-1.582-2.872-1.485zM277.296 201.648l2.034-13.867 4.172.618 1.123 9.827 3.86-9.093 4.188.618-2.033 13.87-2.591-.383 1.602-10.918-4.344 10.512-2.685-.398-1.134-11.32-1.6 10.915-2.592-.381zM263.188 200.01l1.305-13.96 10.307.974-.217 2.361-7.503-.707-.29 3.095 6.978.657-.22 2.352-6.98-.658-.353 3.799 7.764.73-.218 2.355-10.573-.998z" fill="#309e3a"/><g stroke-opacity=".502"><path d="M216.5 191.279c.039-1.428.284-2.62.736-3.578a6.646 6.646 0 011.346-1.885c.566-.552 1.181-.956 1.844-1.211.88-.346 1.888-.504 3.023-.474 2.057.058 3.683.743 4.878 2.056 1.205 1.315 1.775 3.114 1.714 5.395-.062 2.26-.722 4.017-1.983 5.264-1.259 1.241-2.914 1.834-4.963 1.777-2.077-.056-3.708-.736-4.899-2.037-1.191-1.308-1.756-3.078-1.695-5.307z" fill="#309e3a"/><path d="M219.414 191.252c-.043 1.586.289 2.801.997 3.643.707.837 1.624 1.27 2.747 1.3 1.122.03 2.055-.35 2.794-1.138.745-.797 1.14-2.007 1.184-3.633.043-1.605-.277-2.813-.959-3.622-.677-.81-1.596-1.23-2.758-1.262-1.16-.03-2.108.345-2.842 1.128-.733.777-1.12 1.972-1.163 3.584z" fill="#f7ffff"/></g><g stroke-opacity=".502"><path d="M233.052 198.511l.163-14.018 5.933.07c1.494.018 2.574.157 3.244.421.677.256 1.214.71 1.613 1.358s.593 1.386.584 2.216c-.012 1.052-.331 1.918-.955 2.598-.623.675-1.55 1.095-2.777 1.26.605.363 1.104.761 1.491 1.193.396.43.922 1.196 1.584 2.294l1.673 2.754-3.372-.04-2.002-3.074c-.71-1.098-1.199-1.788-1.461-2.072-.265-.29-.545-.488-.842-.594-.297-.11-.77-.171-1.418-.177l-.57-.008-.068 5.852-2.82-.033z" fill="#309e3a"/><path d="M235.976 190.455l2.086.024c1.353.017 2.198-.03 2.536-.14.337-.113.603-.306.796-.585s.293-.627.299-1.048c.005-.472-.117-.853-.369-1.142-.243-.296-.594-.486-1.05-.567-.229-.034-.915-.059-2.057-.072l-2.2-.026-.041 3.556z" fill="#fff"/></g><g stroke-opacity=".502"><path d="M249.003 185.188l5.147.261c1.16.06 2.04.194 2.639.404.805.283 1.485.749 2.037 1.396.553.647.958 1.427 1.218 2.34.259.908.356 2.016.29 3.327-.058 1.153-.252 2.138-.579 2.959-.401 1-.939 1.798-1.62 2.397-.51.453-1.189.791-2.033 1.016-.632.166-1.468.222-2.509.17l-5.296-.27.706-14z" fill="#309e3a"/><path d="M251.706 187.685l-.468 9.274 2.103.106c.785.042 1.356.025 1.708-.046.462-.092.85-.267 1.162-.525.32-.259.588-.695.809-1.31.223-.62.361-1.47.416-2.553s0-1.919-.16-2.508c-.16-.59-.404-1.053-.731-1.397-.326-.342-.748-.583-1.269-.724-.389-.11-1.157-.193-2.306-.251l-1.264-.066z" fill="#fff"/></g><g stroke-opacity=".502"><path d="M317.63 210.22l3.26-13.631 4.4 1.06c1.666.403 2.737.733 3.21.992.729.391 1.274.995 1.634 1.809.361.809.411 1.755.152 2.84-.2.836-.518 1.504-.958 2.001-.438.498-.932.853-1.479 1.07a4.07 4.07 0 01-1.572.3c-.684-.029-1.648-.192-2.889-.491l-1.786-.432-1.23 5.142-2.743-.66z" fill="#309e3a"/><path d="M323.086 199.552l-.926 3.868 1.5.362c1.082.26 1.82.364 2.218.308.4-.055.736-.21 1.013-.464.282-.253.472-.58.567-.984.119-.496.073-.94-.14-1.331a1.956 1.956 0 00-.957-.87c-.313-.142-.962-.331-1.95-.569l-1.325-.32z" fill="#fff"/></g><g stroke-opacity=".502"><path d="M330.606 214.106l4.64-13.219 5.598 1.98c1.408.497 2.387.979 2.937 1.444.559.462.922 1.063 1.092 1.806s.119 1.505-.156 2.286c-.348.992-.928 1.71-1.736 2.153-.807.438-1.818.537-3.033.298.457.54.802 1.076 1.03 1.61.238.536.491 1.431.765 2.683l.704 3.149-3.18-1.125-.913-3.557c-.322-1.27-.562-2.08-.72-2.435-.158-.359-.36-.637-.607-.833-.246-.202-.673-.41-1.286-.627l-.537-.191-1.938 5.52-2.66-.942z" fill="#309e3a"/><path d="M335.938 207.426l1.967.695c1.276.451 2.09.68 2.445.682.355.005.67-.093.943-.295.272-.2.478-.5.616-.896.156-.445.163-.845.018-1.2-.135-.36-.408-.65-.813-.876-.206-.106-.847-.35-1.924-.731l-2.075-.735-1.177 3.356z" fill="#fff"/></g><g stroke-opacity=".502"><path d="M347.01 213.6c.424-1.363.982-2.444 1.673-3.241a6.606 6.606 0 011.808-1.449 5.463 5.463 0 012.101-.665c.941-.093 1.953.03 3.038.37 1.965.614 3.344 1.717 4.14 3.308.803 1.593.867 3.48.19 5.658-.67 2.161-1.781 3.67-3.33 4.527-1.548.852-3.302.97-5.26.357-1.982-.619-3.37-1.718-4.164-3.294-.793-1.584-.858-3.44-.196-5.57z" fill="#309e3a"/><path d="M349.826 214.385c-.471 1.514-.48 2.773-.026 3.778.455.996 1.22 1.663 2.293 2 1.073.334 2.07.223 2.996-.336.933-.562 1.641-1.62 2.123-3.172.476-1.535.495-2.783.056-3.75-.432-.962-1.204-1.618-2.313-1.964-1.11-.348-2.123-.244-3.04.311-.915.548-1.611 1.592-2.09 3.133z" fill="#fff"/></g><g stroke-opacity=".502"><path d="M374.305 233.12l6.415-12.451 5.27 2.737c1.326.69 2.229 1.3 2.711 1.839.488.533.767 1.18.834 1.94s-.092 1.506-.47 2.243c-.481.934-1.153 1.564-2.017 1.892-.859.322-1.872.279-3.043-.128.378.598.645 1.18.799 1.74.16.564.289 1.484.388 2.763l.262 3.215-2.993-1.555-.416-3.648c-.145-1.304-.27-2.14-.378-2.512-.105-.377-.269-.682-.487-.91-.214-.233-.61-.5-1.186-.798l-.507-.264-2.677 5.197-2.505-1.3z" fill="#309e3a"/><path d="M380.503 227.226l1.853.962c1.201.625 1.977.962 2.329 1.016.35.054.676-.001.974-.162.297-.161.541-.428.734-.803.216-.418.276-.813.184-1.185-.087-.374-.315-.702-.685-.98-.19-.134-.791-.465-1.808-.993l-1.952-1.014-1.629 3.159z" fill="#fff"/></g><g stroke-opacity=".502"><path d="M426.107 258.704c.797-1.183 1.642-2.056 2.536-2.619a6.614 6.614 0 012.146-.863c.775-.159 1.508-.168 2.202-.028.928.184 1.863.596 2.804 1.235 1.704 1.157 2.708 2.613 3.014 4.367.31 1.758-.172 3.58-1.447 5.472-1.263 1.873-2.758 2.998-4.488 3.37-1.728.365-3.44-.028-5.14-1.182-1.718-1.168-2.732-2.622-3.04-4.362-.303-1.746.168-3.543 1.413-5.39z" fill="#309e3a"/><path d="M428.578 260.254c-.886 1.316-1.256 2.518-1.112 3.61.151 1.087.691 1.945 1.62 2.578.932.632 1.92.815 2.967.549 1.055-.27 2.037-1.076 2.944-2.424.896-1.33 1.273-2.52 1.13-3.572-.138-1.047-.688-1.898-1.65-2.552s-1.962-.849-2.999-.583c-1.034.26-2 1.06-2.9 2.394z" fill="#fff"/></g><path d="M301.824 204.523l2.248-9.841 7.268 1.676-.378 1.662-5.287-1.217-.504 2.181 4.925 1.135-.382 1.656-4.918-1.132-.614 2.677 5.475 1.261-.378 1.66-7.455-1.718z" fill="#309e3a"/></g></svg>