<svg xmlns="http://www.w3.org/2000/svg" height="480" width="640"><path d="M0 0v480L640 0H0z" fill-rule="evenodd" fill="#ffca00"/><path d="M0 480h640V0L0 480z" fill-rule="evenodd" fill="#ff6500"/><g stroke="#000"><path stroke-linejoin="round" d="M222.393 340.58s-18.31-.63-25.887 8.629c-7.576 9.26-36.75 35.225-39.145 37.045-1.086.728-24.416 5.47-24.416 5.47 11.455-11.434 24.267-15.611 34.777-35.636-5.245 10.048-9.256 14.446-15.39 19.972-5.333-2.482-19.168 8.28-30.751 13.349.21-.422 12.702-10.52 19.474-23.408-3.858 3.367-12.669 11.834-16.528 15.2-9.175.875-13.332 11.042-16.837 12.417-21.492 6.986-15.125 2.731-19.995 7.367-1.964 3.844-6.161 6.91-8.72 7.163-20.165 1.995-20.748 8.618-31.059 12.411-6.588 1.926-10.774.064-14.522-2.527 5.051-1.822 11.34-1.388 15.154-5.47 0 0 18.468-22.004 35.357-24.414 9.682-1.685 11.155-7.367 11.155-7.367s-28.623 7.997-33.463 12.207c-4.55 1.295-12.3 2.413-19.153 1.684 12.664-4.66 20.5-11.062 23.994-14.943 2.002-2.223 13.89-2.315 13.89-2.315s19.995-8.631 20.416-8.631 15.154-8.628 15.154-8.628-17.68 4.63-18.1 4.63-20.651.84-20.651.63c5.389-6.897 24.81-7.377 27.596-9.049 6.503-6.503 26.73-4 27.572-4.842.841-.84-21.258-7.577-30.518-5.682-9.26 1.894-23.362-9.68-23.362-9.68s19.363-2.949 25.677-.212 29.045 8.63 30.309 7.576c1.262-1.051 26.192-9.891 29.044-6.734-2.455-5.25-5.555-5.11-5.473-9.682 4.63.212 9.261.421 13.892.633 0 0 7.155-9.473 6.943-9.892-6.495-2.381-7.963-8.97-7.963-8.97 8.326 1.388 11.121.34 11.121.551 0 .21 7.367-8.21 7.367-8.21l5.052-7.997 3.788-17.259c-7.653 4.138-22.31-.209-22.098-.42 15.931-5.588 20.75-13.684 27.99-14.102-3.102-15.725 6.103-21.047 6.103-20.835 0 .209 6.316-13.683 6.316-13.683s-6.747-2.27-19.365 0c11.958-14.193 30.941-9.049 30.941-9.049 3.916-12.585 15.996-7.998 15.996-8.419-3.076-6.853 6.154-10.33 12.151-10.124-.86-5.107-6.334-10.5-8.437-14.779 10.03 6.447 20.477 3.944 25.752 13.327l9.47 1.053s10.522 1.894 10.734 1.894c.21 0 10.944 1.052 10.944 1.052 1.883-5.334-4.763-4.654-3.158-17.679 12.82 6.369 11.937 19.03 22.099 26.238 8.01-.552 10.43 2.253 14.384 5.896 4.615-.979 10.252 1.068 13.188 5.75-.14-4.963 1.287-11.967 7.579-3.158l11.574-.42s-15.206-22.152-28.624-9.681c3.923-13.538 17.68-12.207 17.68-12.207s-3.576-6.198-3.367-13.05c-7.343-2.936-9.682-15.364-9.891-15.153-.212.21-12.51 2.437-18.102 17.048-10.488-11.399 3.722-25.555 4.56-28.073 1.443-5.392 2.887-10.784 4.333-16.176-1.134-5.313-.694-7.948 4.157-12.158-3.235-3.349-1.746-6.54 2.103-8.63-1.3-2.289-.238-4.58.352-6.87l51.42-2.938 11.581 15.912 1.894 8.63-4.42 11.365 13.26 15.785 4.84 5.051 10.101 5.894s9.474 3.998 9.683 4.21c.212.21 11.364 2.946 11.786 3.156.42.21 9.26 5.262 10.734 5.683s28.623 0 28.623 0l15.156-1.263-.212 24.835-7.998 1.894c-3.446 2.962-4.445 4.693-10.34 8.886-8.161 2.286-14.074 1.849-14.283 1.849-.212 0-8.21-2.106-8.419-2.316-.212-.209-9.052-2.946-9.052-2.946l-13.89-3.368c-5.713-.898-7.997 2.947-8.418 3.578-.421.632-2.736 27.993-2.736 27.993s-4.843 12.417-4.843 12.629c0 .209-4.488 8.3-7.998 11.155-.651 3.346-1.176 6.914-9.258 12.838-1.714 5.353-.326 10.514 5.47 11.576 2.806 1.123 5.614 2.244 8.419 3.367 4.21.983 8.419 1.963 12.628 2.946l13.892 2.948-9.892 21.678-24.414-4s-16.207-4.21-16.416-4.21c-.212 0-17.892-9.47-17.892-9.47s-5.683-12.838-5.683-13.05c0-.209-5.051-10.734-4.84-11.364.21-.63.21-6.734.21-6.946 0-.21-17.047-3.576-17.047-3.576l-17.89-1.895-19.574-5.263-14.943-4.42-9.683-3.366-10.734-.842s-14.101 2.103-14.101 2.315c0 .21-12.416 3.576-12.416 3.788 0 .21-7.998 18.732-7.998 18.732l-3.788 14.31 5.891 10.946 2.106 30.518-5.473 11.365 3.789 8.418 7.576 12.42 4.421 8.628-27.58 8.742-3.57-14.215s-9.471-23.36-9.259-23.572c.21-.21.419-7.789.419-7.998z" fill-rule="evenodd" stroke-linecap="round" stroke-width=".9934124999999999" fill="#fff"/><path stroke-linejoin="round" d="M250.288 306.99c5.733 1.72 5.84-9.547 10.414-13.746 3.632-15.193 23.278-14.663 29.506-4.47-20.83-1.568-12.814 10.136-19.222 15.201 16.385-7.74 31.471-6.395 34.87 4.47-6.586 12.519-12.74 24.172-19.325 36.69-10.493 5.24-15.22-1.93-26.724-8.523l-8.046-1.343c-.296-9.09-1.173-19.187-1.473-28.28zM263.11 377.456s28.028-.877 28.128 12.612c2.562 7.752 10.679 7.156-1.75 27.625.497-26.33-16.39-26.97-28.235-26.361 14.774 2.069 17.405 24.18 10.925 32.629-16.734-.599-30.732-4.233-47.467-4.832-5.846-6.461-12.758-21.574 9.786-32.285 9.54-3.13 19.076-6.26 28.613-9.388zM450.72 302.804l8.045-3.128s24.732-30.041 43.813-13.413c-13.097 1.971-23.768 17.786-23.768 17.786 7.1-5.287 33.771-3.618 30.9 19.792-28.555 8.453-29.36 23.431-27.697 41.257-19.007-.32-39.977-10.157-40.857-40.69 2.533-7.301 7.03-14.303 9.563-21.604zM553.028 175.584c0 10.345-8.387 18.732-18.732 18.732s-18.732-8.387-18.732-18.732 8.387-18.732 18.732-18.732 18.732 8.387 18.732 18.732z" fill-rule="evenodd" stroke-linecap="round" stroke-width=".9934124999999999" fill="#fff"/><path stroke-linejoin="round" d="M508.125 209.678c6.896 5.317 15.106 7.259 30.25 9.012 7.977-4.683 22.7-4.493 23.834-14.896 7.953-2.839 9.72-12.427 3.142-15.078-.28-2.813.167-13.73-12.061-13.982 1.642 4.06 3.107 15.2 3.107 15.2-6.373-.75-10.729 10.283-10.729 9.836 0-.223 3.513-17.49-13.505-18.015 5.855 9.787-1.695 17.568-1.695 17.568-1.79-2.235-1.799-6.158-5.086-7.362-8.451-3.557-10.059-13.864-9.699-19.39-4.432 3.742-7.735 7.485-7.57 12.446.065 8.158-.335 16.034.012 24.66z" fill-rule="evenodd" stroke-linecap="round" stroke-width=".9934124999999999" fill="#fff"/><path d="M533 110.03c14.414-2.008 27.32-5.774 35.816-12.097 2.742-2.042 25.88 1.828 37.792-5.287-18.056-1.04-30.017-3.608-33.233-2.544-10.114 2.952-33.675 9.496-35.521 8.663-.162 1.67-3.028 8.942-4.854 11.264z" fill-rule="evenodd" stroke-linecap="round" stroke-width=".9934124999999999" fill="#fff"/><path stroke-linejoin="round" d="M537.901 98.633c10.31-2.413 12.67-7.418 18.761-11.073 9.322-3.729 14.501-3.865 23.797-13.474-24.173 3.293-26.886 4.142-26.886 4.142-5.012 3.05-11.91 7.732-17.335 14.837 1.642 1.747 1.544 3.549 1.663 5.568z" fill-rule="evenodd" stroke-linecap="round" stroke-width=".9934124999999999" fill="#fff"/><path stroke-linejoin="round" d="M536.18 93c0-.099 9.433-10.585 9.515-15.072.413-1.507 4.816-3.995 6.472-9.89 1.075-16.077 2.57-16.429 2.57-16.429 7.573-4.254 5.96-13.475 9.478-20.38 0 0-11.116 12.413-17.325 19.218-1.656 3.576-2.09 12.745-2.191 12.745-1.754 4.14-6.281 4.679-9.757 11.55-1.957 5.212-.326 9.983-3.277 16.767 2.014.036 3.1.531 4.514 1.492zM515.372 340.39c0 13.95-11.307 25.257-25.256 25.257s-25.256-11.308-25.256-25.256 11.307-25.257 25.256-25.257 25.256 11.308 25.256 25.257z" fill-rule="evenodd" stroke-linecap="round" stroke-width=".9934124999999999" fill="#fff"/><path stroke-linejoin="round" d="M270.791 425.804c0 12.67-10.27 22.94-22.94 22.94s-22.94-10.27-22.94-22.94 10.27-22.94 22.94-22.94 22.94 10.27 22.94 22.94z" fill-rule="evenodd" stroke-linecap="round" stroke-width=".9933277199999999" fill="#fff"/><path stroke-linejoin="round" d="M312.25 325.64c0 10.926-8.857 19.784-19.783 19.784s-19.784-8.858-19.784-19.784 8.857-19.784 19.784-19.784 19.784 8.857 19.784 19.784zM221.89 348.634c-7.158.42-14.443 2.903-14.23 3.115.208.21 7.788 4.21 6.733 5.473-1.052 1.261-11.216 12.578-10.583 12.578 7.632 2.199 17.741-2.477 17.741-2.477s-4.125 6.641-4.808 8.679c6.803-3.664 13.184 1.123 14.732-2.54l-9.585-24.828zM372.094 282.91c-4.326 2.665-18.875-.332-18.875-.332 4.286 4.44 7.002 7.609 16.888 8.61-7.062 3.203-11.661 7.749-19.924 10.498 12.925 5.529 21.58-3.544 21.58-3.213s2.509 5.918.543 13.876c5.113-1.346 6.315-6.562 10.138-5.47-3.2-7.617-7.147-16.353-10.35-23.97zM453.157 216.21c-.366 2.401-.832 6.703-10.684 11.692 6.445 2.797 17.219-3.312 17.219-2.98s-8.758 15.602 6.291 22.185c-.4-11.785 1.656-21.192 1.656-21.192s5.534 7.61 9.603 16.557c6.501-6.989-2.318-20.2-2.318-20.2-7.176-1.656-14.837-4.406-21.767-6.061zM462.428 146.976s19.485 13.242 19.57 15.014c.081 1.77-1.773 9.109-8.096 12.398 15.179 1.771 16.782-7.76 16.782-7.76s-3.12 10.796-.591 14.001c8.35-5.145 8.098-13.326 8.098-13.326s5.566 8.434 4.302 12.989c1.77-.928 11.386-10.965 2.697-15.857 2.024-6.578 2.784-10.711-4.554-13.663-.786-3.964 1.293-5.23 1.94-7.844 0 0-7.254-2.193-8.096 4.048-.676 1.265-23.318-13.31-23.57-13.394-.076.383-8.482 13.479-8.482 13.394z" fill-rule="evenodd" stroke-linecap="round" stroke-width=".9934124999999999" fill="#fff"/><path stroke-linejoin="round" d="M467.647 139s18.043 9.58 19.225 11.857" fill-rule="evenodd" fill-opacity=".3" stroke-linecap="round" stroke-width=".9934124999999999" fill="#fff"/><path stroke-linejoin="round" d="M530.722 91.472c-2.392 0-11.92-2.98-18.212 1.656-2.875-4.618-5.96-8.237-15.074-6.292.082-4.125-1.552-3.595-3.732-4.892-2.297-5.004-5.974-7.22-13.079-4.048-6.188-6.366-16.189-6.646-23.211-1.72-10.615-3.15-24.666.523-50.953.229-1.817-.058-10.885 3.195-5.214 10.763-10.917-6.75-15.491 5.665-4.635 7.616 2.649 2.649 5.629 8.278 5.629 8.278s-18.978-13.57-29.405 1.606c-3.38 15.35 12.912 4.36 21.015 10.15 4.856 4.304 9.495 8.775 14.35 13.08 8.059-1.656 14.944-1.707 23-2.128-7.285 2.097-13.397 1.355-20.682 3.452 1.754 2.413 4.679 3.222 11 2.98l-13.447 4.698c8.236 6.372 18.63 2.187 26.56 3.311-5.029 7.534-15.365 15.5-28.418 11.86 5.62 8.95 16.793 7.806 28.182-3.806 9.534 1.661 15.714 2.83 27.892-1.29.588-.77 9.555-14.115 9.174-15.258 1.632.49 26.31 9.332 27.802 12.075.188-3.403 4.914-6.903-23.842-14.901-5.42-4.409 13.908-9.934 13.908-9.934l-.331 7.947c5.438-3.318 5.727-4.645 6.954-6.623 1.987-1.324 6.291 2.65 6.291 2.65l.241 7.003c2.395-.87 3.733-1.043 5.389-3.361s4.832 2.767 4.832 2.767c4.948.49 13.311-1.847 17.468-8.766-1.881-7.027-.988-8.985 2.752-10.388 6.136-9.997 7.542-18.66-2.204-18.714z" fill-rule="evenodd" stroke-linecap="round" stroke-width=".9934124999999999" fill="#fff"/><path stroke-linejoin="round" d="M494.456 147.146s-3.038 3.795-2.448 11.133" fill-rule="evenodd" fill-opacity=".3" stroke-linecap="round" stroke-width=".9934124999999999" fill="#fff"/><path stroke-linejoin="round" d="M406.638 139.705s7.778 11.852 10.433 12.593c2.654.74 20.988 19.384 21.976 20.186 1.174.494 11.42.247 11.42.247-7.53-6.502-13.828-13.375-20.742-20.063 0 0-10.617-5.247-10.678-5.37s-5.68-7.655-5.68-7.655c-1.79-.576-3.703-1.461-5.37-2.84l-1.359 2.902z" fill-rule="evenodd" stroke-linecap="round" stroke-width=".9934124999999999" fill="#fff"/><path stroke-linejoin="round" d="M481.979 162.074c3.457-.844 8.265 2.024 8.601 4.47 1.857-1.097 5.99-1.097 7.508.337.675-1.012 3.711-3.711 6.832-2.53M494.562 147.146s2.527 2.024 5.902 1.012" fill-rule="evenodd" fill-opacity=".3" stroke-linecap="round" stroke-width=".9934124999999999" fill="#fff"/><path stroke-linejoin="round" d="M535.808 156.746c4.186-.597 38.452-20.619 46.815 4.682-2.887-21.416-18.625-21.018-18.625-21.018s-.697-10.26-15.14-8.566c9.465 6.973 1.494 12.55.797 13.547-2.458-6.608-3.52-10.027-11.057-12.95 3.023 11.622-3.32 13.182-4.98 18.727-3.351-2.39-5.91-6.773-7.868-10.06-2.657 7.703-.331 12.318 2.689 16.335a24.26 24.26 0 017.37-.697z" fill-rule="evenodd" stroke-linecap="round" stroke-width=".9934124999999999" fill="#fff"/><path stroke-linejoin="round" d="M530.245 120.66c1.32 2.417 6.88 9.362-2.877 22.604-3.078-4.282-4.734-6.914-4.734-6.914s-8.315 5.41-7.367 23.984c-3.112-7.459-7.735-16.866 1.857-30.997-6.924 11.145-9.179 12.378-14.477 12.223 8.112-5.785 9.89-12.046 10.045-12.046 1.481.497 10.634.024 17.553-8.855z" fill-rule="evenodd" stroke-linecap="round" stroke-width=".9934124999999999" fill="#fff"/><path d="M524.02 90.521c1.82 6.789-3.182 11.494-7.028 15.12 8.35 16.367-18.454 15.049-8.787-.22" fill-rule="evenodd" stroke-linecap="round" stroke-width=".9934124999999999" fill="#fff"/><path d="M497.873 107.838s-1.976 2.527-.328 6.042M486.509 108.01c2.395.59 4.387 3.686.516 6.009-1.55.921-9.327-2.691-13.343 4.902" fill-rule="evenodd" fill-opacity=".3" stroke-linecap="round" stroke-width=".9934124999999999" fill="#fff"/><path d="M413.314 92.784c-3.144-.258-4.689 1.34-.927 5M416.308 82.01c-3.661-1.598-5.36 2.216-.98 5.257M426.824 82.32c-3.194-2.887-5.979 2.32-.874 4.278M442.746 82.32c-3.349-2.835-4.485 1.288-3.452 2.68" fill-rule="evenodd" stroke-linecap="round" stroke-width=".9934124999999999" fill="#fff"/><path d="M462.508 125.58c0 8.595-6.968 15.563-15.564 15.563s-15.563-6.968-15.563-15.564 6.968-15.563 15.563-15.563 15.564 6.968 15.564 15.563z" fill-rule="evenodd" fill-opacity=".3" stroke-linecap="round" stroke-width=".9934124999999999" fill="#fff"/><path stroke-linejoin="round" d="M461.607 130.684c-.424-.9-9.987-10.366-13.007-9.078-2.472.107-10.035 16.604-9.704 17.267 7.829 5.52 19.895.65 22.703-8.188z" fill-rule="evenodd" fill-opacity=".3" stroke-linecap="round" stroke-width=".9934124999999999" fill="#fff"/><path stroke-linejoin="round" d="M456.52 125.71c-1.178-.764-2.081-1.458-3.122.069s-6.732 15.34-6.732 15.34M474.243 94.508c-10.41-5.83-29.733 2.813-16.89 8.852-10.968-3.332-10.483 6.108-10.483 6.108M451.938 84.73c4.127-6.13 9.825-8.228 13.555-.544 4.967 6.623 14.306 1.67 14.306 1.67" fill-rule="evenodd" fill-opacity=".3" stroke-linecap="round" stroke-width=".9934124999999999" fill="#fff"/><path d="M423.593 89.817s-4.636 2.152-.329 5.463M447.117 87.003s-4.472.663-2.983 5.464" fill-rule="evenodd" stroke-linecap="round" stroke-width=".9934124999999999" fill="#fff"/><path d="M442.136 95.28c-.164 0-4.636.165-3.144 4.966M436.997 103.393c-.167.166-5.63-2.318-2.816 4.636" fill-rule="evenodd" fill-opacity=".3" stroke-linecap="round" stroke-width=".9934124999999999" fill="#fff"/><path stroke-linejoin="round" d="M457.607 76.237c-19.42-11.836-40.01-35.675-68.267-26.589 28.674 5.085 46.179 21.005 46.762 25.923 10.585-.833 13.502-.583 21.505.667z" fill-rule="evenodd" stroke-linecap="round" stroke-width=".9934124999999999" fill="#fff"/><path stroke-linejoin="round" d="M429.341 75.74c-2.583-3.168-12.337-20.756-32.173-20.422 15.169 7.752 24.255 18.338 25.09 21.005 2.831-.167 4.831-.417 7.083-.584z" fill-rule="evenodd" stroke-linecap="round" stroke-width=".9934124999999999" fill="#fff"/><path d="M412.334 76.489s2.252-16.504 5.502-18.504-10.835-4.502-10.668 10.002c-11.839-9.669-23.005-8.002-24.84-7.335-1.834.667-27.84-.584-30.923 5.251 19.171-.416 24.67.834 26.422 2.75 11.754-3 18.422-1.25 26.258 8.086 3.584-.667 8.249 0 8.249-.25z" fill-rule="evenodd" stroke-linecap="round" stroke-width=".9934124999999999" fill="#fff"/><path stroke-linejoin="round" d="M393.843 85.157c-4.75-4.668-8.702-7.57-22.962-8.764-2.082-.265-7.574-1.425-10.962-2.572 9.068-6.281 36.592 2.584 39.675 6.668-.916 2.834.202 4.731 1.701 6.565-2.543-1.52-4.776-2.134-7.452-1.897z" fill-rule="evenodd" stroke-linecap="round" stroke-width=".9934124999999999" fill="#fff"/><path d="M403.671 77.008s-7.1-6.5-12.562-6.39c3.169 1.911 6.774 7.373 8.957 9.34 1.531-1.748 1.147-1.639 3.605-2.95z" fill-rule="evenodd" stroke-linecap="round" stroke-width=".9934124999999999" fill="#fff"/><path stroke-linejoin="round" d="M389.234 70.944c-.273.11-11.96 7.32 1.202 16.932-.874 6.172 6.443 7.046 6.443 7.046s5.41 8.193 5.41 8.139c-11.625-7.736-21.426-5.854-25.04-2.686-7.046-10.323-18.983-12.007-23.352-13.263-5.462-1.202-20.594-2.458-21.63 11.251-14.53-14.255 8.467-20.372 12.398-19.936 3.932-.71 25.999 3.55 27.418 6.336-1.255-13.054 10.597-19.99 17.15-13.819zM432.732 118.443s-38.783-7.229-51.432 1.39c-12.65 8.618-14.316 21.407-32.666 23.353-18.348 1.946-20.295 5.421-27.106 14.874 10.149-3.197 32.112-10.148 47.263-7.09 6.254-7.012 9.73-10.286 9.173-10.425 4.726-15.569 37.67-21.546 53.24-15.986.278-3.892 1.947-5.699 1.528-6.116zM374.08 112.604l-57.967 1.668c-5.282 1.668-11.674 5.978-12.65 7.228-.971 1.252 2.504-13.622 10.15-12.927 9.867.973 36.835-.139 36.835-.139 8.202-3.058 17.1-6.117 22.52-4.031-1.947 4.865 1.113 8.201 1.113 8.201z" fill-rule="evenodd" stroke-linecap="round" stroke-width=".9934124999999999" fill="#fff"/><path d="M479.833 95.626s-16.024-4.872-11.82 11.567c6.453 8.193 15.73-3.963 15.6-5.189" fill-rule="evenodd" fill-opacity=".3" stroke-linecap="round" stroke-width=".9934124999999999" fill="#fff"/><path stroke-linejoin="round" d="M436.15 114.191c-3.54-5.8-25.655-13.663-33.226-11.009 12.141 5.701 29.49 11.451 30.52 14.597 1.426-2.556 2.607-3.539 2.705-3.588z" fill-rule="evenodd" fill-opacity=".3" stroke-linecap="round" stroke-width=".9934124999999999" fill="#fff"/><path d="M510.642 94.11s-13.367 3.653-18.334.673-17.286-7.395-11.852-16.91" fill-rule="evenodd" fill-opacity=".3" stroke-linecap="round" stroke-width=".9934124999999999" fill="#fff"/><path stroke-linejoin="round" d="M375.194 97.992s-33.917-.841-39.522 9.32c22.072-5.116 38.33-4.415 38.33-4.415l3.083-2.803-1.891-2.102z" fill-rule="evenodd" stroke-linecap="round" stroke-width=".9934124999999999" fill="#fff"/><path d="M437.05 90.084s-7.839.238-4.037 5.702" fill-rule="evenodd" stroke-linecap="round" stroke-width=".9934124999999999" fill="#fff"/><path stroke-linejoin="round" d="M508.284 191.479s11.344-.376 12.658-1.876M556.365 190.072s4.78 3.375 9-1.406M534.43 190.822s3.188 6 11.344 3.374M516.258 203.572s-2.437 6.093 9.563 5.53c3.095 1.876.935 7.875.935 7.875M532.285 174.977s6.75-.375 7.969 2.625M534.802 166.447s2.252.188 3.001 2.906c.75 2.719 3.468 1.313 5.063.094M503.754 340.236c-5.891-5.59-18.58-5.74-12.538 8.16 2.114-6.348 6.043-8.764 12.538-8.16zM501.344 348.528c-1.661-1.208-2.57 1.208-2.117 1.66M505.556 307.732s-9.065-1.057-5.439 9.518M478.667 283.89s-1.21 10.726 7.251 11.934M466.296 350.038c0-.151-7.854-3.476-10.273 7.25M458.879 299.89s0 9.063 4.08 12.387M455.567 322.408c-.15 0-13.142 5.136-13.142 11.934M245.706 426.597c0-.151 8.35-8.806 10.172.911-.154 3.643-1.976 7.137-1.976 7.137M253.123 428.716s-4.707-.305-5.314 2.58M273.627 402.596c0-.151-10.63-3.34-12.149 4.858M218.976 408.238s8.806-5.163 13.664.456M291.35 390.357c0-.151-8.146-.056-9.36 5.41" fill-rule="evenodd" stroke-linecap="round" stroke-width=".9934124999999999" fill="#fff"/><path stroke-linejoin="round" d="M409.34 155.946c-.966.955-.837 1.008-1.835 1.243-.97.358-1.926.41-3.068.41-.784-.262-1.682-.865-2.453-1.636-.729-.872-1.089-1.554-1.43-2.454 0-.63-.268-1.556-.43-1.935.323.646.93 1.676 1.248 2.344.347 1.087.691 2.346 1.02 3.476.273 1.267.41 2.458.41 3.884-.206 1.564-.627 2.95-1.226 3.885-.845.45-1.317.682-2.453.817-1.232 0-1.627-.215-2.66-.613-.477-.62-1.462-1.678-2.042-2.453-.297-1.148-.546-2.065-.615-3.271-.498-.717-.734-1.35-1.226-2.045-.223-.818-.594-1.226-.819-2.044-.254-.642-.819-1.307-1.097-1.896" stroke-linecap="round" stroke-width=".9934124999999999" fill="none"/><path stroke-linejoin="round" d="M261.415 391.284s-5.924 4.679-4.936 8.729M293.548 320.606s-9.52 2.31-4.76 10.676M293.416 324.95s-2.021 6.78 1.298 9.233M298.74 325.375c.146.434-1.298 7.213-3.316 8.368M287.932 299.254s-.432 5.77 2.164 6.782M270.607 282.088s-2.307 6.782 6.347 9.09M254.739 304.447c0 .288 2.307 10.962 6.925 10.673M272.62 325.507s-11.828-6.636-12.983 10.819" fill-rule="evenodd" stroke-linecap="round" stroke-width=".9934124999999999" fill="#fff"/><path d="M477.396 96.993c1.157-1.097 5.181-2.408 6.278 3.656 1.097 6.064-7.07 5.347-7.134 4.38-2.193-.904-2.305-5.649.856-8.036zM494.615 83.024s-10.485-1.278-9.516 7.495c6.128 5.42 10.788.061 11.818-2.907.514-2.128.344-3.942-2.302-4.588z" fill-rule="evenodd" stroke-linecap="round" stroke-width=".9934124999999999"/><path stroke-linejoin="round" d="M350.371 113.367s1.261 9.448-6.296 7.243c-7.558-2.204 11.65 4.724-3.15 7.558-3.07 4.3-2.52 5.039-2.52 5.039s8.07-.814 3.052 9.806c-1.891 5.668 2.837-12.398 17.972-3.171-6.928-6.763-1.942-6.674 7.634-6.32-13.282-2.17-12.596-14.487 6.928-8.503-.027-1.836-3.603-7.32 2.834-10.392 12.597-3.464-26.138-.63-26.454-1.26z" stroke-linecap="round" stroke-width=".9934124999999999" fill="none"/><path stroke-linejoin="round" d="M347.325 120.997c2.05.977 10.165 16.422 15.736-7.918-2.443-.587-12.61.293-12.61.293.228 3.714-.424 6.158-3.126 7.625z" stroke-width=".9934124999999999" fill="none"/><path stroke-linejoin="round" d="M344.596 127.254c-.463 1.123-1.16 2.984-1.515 4.142 0 .781.003 1.624.138 2.209.106.966.416 1.66.826 2.485.392.555.453.694 1.105.829.527.303 2.747.31 3.452.414h2.347c1.105 0 2.082.01 3.038-.414.679-.194 1.22-.379 1.518-.967.676-.337.657-.676 1.105-1.38.193-.39.588-1.074.83-1.52.317-.489.413-.61.413-1.242.196-.39.14-1.191.14-1.795-.027-.87-.143-1.666-.278-2.485-.133-.443-.345-.725-.689-.553-1.412.557-2.962-.552-4.56-.552-1.522-.228-2.351-.622-3.864-.828-.63 0-3.566.928-4.006 1.657zM490.906 186.424h.204c-.601 0-.262-.035.819.613.723.258 1.414.52 2.042.818.371.542.776 1.163 1.23 1.636.243.611.558 1.574.815 2.248 0 .945.112 1.625-.408 2.045-.37.941-.932 1.03-1.43 1.635-.737.246-1.314.583-2.25 1.023-.987.266-1.406.585-2.452.817-1.09.493-1.807.581-3.068.614-.75 0-3.796-.169-4.546-.169.999-.035 4.196-.076 4.954-.24 1.123 0 1.756.118 2.453.613.92.318 1.441.597 2.25.818.558.223 1.67.323 2.248.613.326.544.943.832.615 1.431-.43.52-1.24.813-2.045 1.023-.535.364-4.591 1.07-5.129 1.434-1.928.165 3.873-.46 4.517-.617 1.17-.014 1.9-.148 2.86 0 .872.132 1.664.522 2.454.818.522.694 1.139 1.029 1.634 1.84.628.517.806.865.819 2.044-.257.513.222 1.963.154 2.734l-.898 2.69" stroke-width=".9934124999999999" fill="none"/><path stroke-linejoin="round" d="M474.35 186.628h.203c-.553 0-.27-.013.819.205.689.482 1.9.667 3.065 1.022.652.308 1.258.664 1.841 1.022.599.3 1.378.844 1.839 1.431.837.279 1.011.781 1.637 1.227.217.986.484 1.508.612 2.453-.083 1.089-.448 1.304-.816 2.044-.602.408-.97.945-1.841 1.227-.814.326-1.842.594-3.068.818-1.735.33-3.417.697-5.11.818-.843 0-1.05.18-1.841.204 1.025.012 2.381.089 3.067.409 1.28.013 2.737.113 3.68.409 1.862.23 3.648.54 5.52.613.377.611.681.935.82 1.84-.496.363-.84 1.042-1.227 1.431-.612.376-1.219.764-2.25 1.022-1.13.404-2.389.41-3.679.41h-6.543c-.199-.08-1.635-.205-.819-.205.848.391 2.54.801 3.68 1.022.781.228 1.224.648 1.637 1.227.495.374 1.248 1.06 1.634 1.43.32.535.411.873.411 1.84-.098 1.254-.506 1.269-1.433 2.045-.988.647-1.762.78-2.861 1.022h-3.068c-.821-.22-5.558-3.004-6.164-3.188.84.299 5.359 3.303 5.756 4.21.215.647.204 1.716.204 2.658-.037.993-.159 1.7-.612 2.248-.042.795-.257.615-1.022.615l1.022-.615c-.042.795-.257.615-1.022.615M484.575 202.78h1.022c.673.457.668 1.032 1.638 1.226.741.283 1.483.678 2.042 1.022.3.504.41.726.41 1.636 0 1 .231 2.356-.203 2.862-.355.415-1.643.403-2.25.614-.876.303-1.626.765-2.378.913-.951.187-2.49.087-3.142.518-.914.07-1.571.204-2.657.204-.63 0-1.052-.042-1.43-.204.919.32 2.407.688 3.472 1.226.975.275 1.508.71 2.25 1.227.797.59 1.26.909 1.433 1.84.407.6.407 1.382.407 2.452-.225.676-.373 1.65-.614 2.25-.445.659-.98.783-1.635 1.226-.476.053-.341.153-.818.206" stroke-width=".9934124999999999" fill="none"/><path stroke-linejoin="round" d="M466.376 186.424c.339.141 1.382.65 2.045 1.022 1.202.29 1.992.786 2.86 1.022.454.559.984.791 1.227 1.636.71.926.882 1.412 1.023 2.453-.088 1.144-.27 1.375-1.227 1.636-.712.237-1.53.374-2.453.409-.845.114-1.61.294-2.453.409-.577.289-1.764.204-2.657.204-.882.068-2.32.26-3.354.26 1.15.043 2.875.149 4.17.149 1.248.133 2.477.199 3.068.818.9.34 1.409 1.072 2.249 1.43.405.6.88.945 1.226 1.636-.283.795-.728 1.06-1.637 1.227-.577.289-1.762.204-2.657.204-.622-.312-1.91-.204-2.861-.204h-2.249c.842.289 2.201.617 3.272.818.755.431 1.925.792 2.453 1.226.33.512.877.795 1.226 1.431.458.371.549 1.06.204 1.636-.085 1.018-.37 1.528-.818 2.044a33.39 33.39 0 01-2.25 1.432c-1.443.627-2.815.805-4.498.817-1.11 0-1.653-.167-2.657-.204-.911-.314-2.063-.44-2.86-.613-.875-.239-2.054-2.085-3.203-2.127.784.101 1.716 1.972 1.976 2.535.288.579.204 1.764.204 2.658-.32.548-.395 1.591-.615 2.249-.04.71-.114 1.652-.408 2.044l.408-2.044c-.04.71-.114 1.652-.408 2.044" stroke-width=".9934124999999999" fill="none"/><path stroke-linejoin="round" d="M454.958 181.332c0 .082.71.455 1.19 1.003.466.733.956 1.566 1.43 2.249.323.93.612 1.373.818 2.249.382.626.549 1.605.615 2.453-.037.954-.12 1.808-.615 2.453-.24.828-.651 1.155-1.43 1.431-.678.321-1.327.41-2.453.41-.75 0-2.398-.113-3.147-.113 1.295 0 3.489.113 4.781.113 1.423.09 2.366.21 3.068.817.893.252 1.61.701 2.045 1.227.694.512 1.351.633 1.635 1.43.214.648.204 1.716.204 2.659-.106 1.172-.443 1.198-1.43 1.43h-2.862c-.63-.209-1.807-.307-2.66-.408-.694-.094-1.48-.714-2.082-.913.535.508.435 1.7.448 2.753.156.723.204 1.666.204 2.658-.085 1.09-.347 1.381-1.023 1.84-1.086.236-2.686.204-4.087.204-1.145-.054-2.09-.205-3.272-.205-1.417 0-2.678-.157-3.987-.307.498.332.488 1.078.512 1.943.368.614.084 1.33 0 2.045-.07.887-.236 1.488-.615 2.044-.204 0-.352 1.12-.556 1.12" stroke-width=".9934124999999999" fill="none"/><path stroke-linejoin="round" d="M445.103 178.657c0 .068-.053-.043 1.023.818.622.499.932 1.127 1.43 1.84.18.77.44 1.45.612 2.249 0 1.19-.143 1.666-.612 2.453-.781.52-1.716.928-2.86 1.022-.679.226-1.633.346-2.456.409-.583.194-.512.313-1.32.409 1.309-.046 1.375-.205 2.753-.205.893 0 2.08-.084 2.657.205.916.124 1.576.252 2.045.818.842.23 1.208.6 1.634 1.226.628.426.996.791 1.227 1.636 0 1.112-.125 1.74-.408 2.453-.358.711-.694 1.125-1.43 1.636-.528.454-1.29.566-2.046.817h-2.863c-.753 0 2.463.077 3.886.205.84.154 1.364.496 2.042.818.602.407 1.383.467 1.842 1.022.747.265 1.096.806 1.84 1.227.178.414.093.309.409.204" stroke-width=".9934124999999999" fill="none"/><path stroke-linejoin="round" d="M436.653 175.155c1.004.496 1.555 2.255 1.711 3.297.283 1.036-.082 1.798-.408 2.862-.99.914-1.105 1.208-2.453 1.431-1.16.348-2.424.262-3.476.614-.699.288-1.353.552-2.249.818h-2.863c-.883.519.704.079 1.022 0 1.592 0 3.232.02 4.702-.205h5.929c1.046.158 1.197.515 1.637 1.431.435.527.575 1.424.612 2.453-.042 1.174-.23 1.52-.816 2.454-.588.728-1.1 1.046-1.841 1.635-.956.41-2.363.665-3.68.818-1.573 0-3.263-.092-4.702.204-1.086 0-5.422.291-5.044.67.716-.573 3.897-.465 5.044-.465 1.56-.32 2.949-.587 4.498-.613.978-.292 2.167-.396 3.27-.41 1.075.014 1.904.16 2.455.614.633.527 1.447 1.16 1.839 1.636.784.277 1.017.805 1.634 1.226.183.837.397 1.376.41 2.453-.254.719-.479 1.467-.818 2.045-.948.678-1.968 1.421-3.272 1.84-1.13.439-2.058.573-3.268.613-1.044 0-1.844.094-2.66.205-.75 0-6.88.112-7.63.112 1.844-.336 7.834-.112 9.063-.112 1.34 0 2.567.162 3.884.204.649.308 1.35.556 1.838 1.022.691.277 1.282 1.47 1.295 2.71" stroke-width=".9934124999999999" fill="none"/><path stroke-linejoin="round" d="M427.328 170.275c.18.364.906 1.801 1.226 2.658.22.886.204 1.862.204 2.862 0 1.279-.288 1.83-.818 2.862-1.116.749-1.98 1.471-3.272 1.84-1.08.194-1.966.127-3.065 0-.726-.29-1.33-.534-1.841-1.022-.776 0 .45.17.819.204.612.417 1.525.66 2.453 1.023 1.176.475 1.62.849 2.453 1.84.747.603.937.727 1.022 1.84.52.585.448 1.381.204 2.044-.63.42-1.311 1.098-1.838 1.636-.922.385-1.256.598-2.453.613-1.113-.04-1.688-.334-2.66-.41-.421-.393-.236-.305.41 0 .663.37 1.813 1.085 2.25 1.637.704.48.906.995 1.226 2.044.392 1.054.697 1.693 1.227 2.249.037 1.004.204 1.546.204 2.657-.286.713-.477 1.389-1.023 1.84-.228.838-.742 1.175-1.022 2.045-.803.473-1.83 1.454-2.453 2.044-.835.278-2.861.487-4.099.502" stroke-width=".9934124999999999" fill="none"/><path stroke-linejoin="round" d="M436.52 300.5c.302.71.639 1.494.816 2.249.09.741.204 1.314.204 2.249-.323.617-.395 1.353-.816 1.84-.267.75-.845 1.031-1.43 1.431-.79.34-1.346.6-2.456.615-1.076 0-2.032-.066-2.861-.207-.906-.424-2.983-1.16-2.355-.715.79.254 1.91.816 2.559 1.126.856.57 1.502.898 2.249 1.838.652.45.906.822 1.023 1.638-.811.28-1.94.688-3.068.815-.99 0-1.934-.045-2.657-.203-.662-.316-1.224-.626-2.045-.82l2.045.82c-.662-.316-1.224-.626-2.045-.82l-2.782-1.13c.549.524 3.656 1.814 4.008 2.564.289.718.472 1.592.615 2.657-.01 1.213-.117 2.596-.408 3.476-.233.847-.607 1.226-1.023 1.838h-.41M433.66 312.765h.203c-.57 0-.267-.027.819.408 1.136.712 1.417 1.007 2.249 2.249.392.866.707 1.123.818 2.045.345.578.133 1.425 0 2.045-.543.445-.834 1.023-1.433 1.43-.402.594-.924.95-1.43 1.431-.7.151-.986.36-1.839.408" stroke-linecap="round" stroke-width=".9934124999999999" fill="none"/><path stroke-linejoin="round" d="M436.732 307.043v.204c0-.602-.034-.262.612.818.845.586 1.012 1.203 1.227 2.453.24.965.174 1.855 0 2.658-.63.368-1.457.993-2.353 1.128" stroke-width=".9934124999999999" fill="none"/><path stroke-linejoin="round" d="M446.534 311.758h-.204c.55 0 .27-.013-.819.204-.853.286-1.883.204-2.86.204-.758-.267-1.458-.41-2.25-.816-.675-.14-.781-.384-1.637-.41M442.242 320.13h-.204c.554 0 .273.013-.816-.205-.882-.572-2.363-1.573-3.179-1.843" fill-rule="evenodd" stroke-width=".9934124999999999" fill="#fff"/><path stroke-linejoin="round" d="M507.887 192.578c-.355.106-3.566.322-4.509.389h-2.86c-.997-.222-1.977-.396-3.068-.409-.816 0-.57-.504-1.389-.504" fill-rule="evenodd" stroke-linecap="round" stroke-width=".9934124999999999" fill="#fff"/><path stroke-linejoin="round" d="M505 200.734c-.07 0 2.831-.224 2.765-.224.34 0-3.653.224-3.992.224-.914.164-1.847.205-2.864.205-.638.121-2.095.128-2.657.409h-2.86c-.618-.033-.613-.172-1.227-.205" fill-rule="evenodd" stroke-width=".9934124999999999" fill="#fff"/><path stroke-linejoin="round" d="M425.473 297.427c.136.336 1.023 1.928 1.023 2.869-.013 1.075-.135 1.494-.612 2.045-.792.426-1.475.802-2.66.818h-3.68c-1.11 0-6.339-1.197-6.662-1.44.957.129 4.416 1.44 5.64 1.44 1.115.04 1.735.278 2.864.612 1.086.331 1.807.617 2.657.819.585.342 1.54.4 2.045.818.946.334.827.795 1.227 1.839-.08 1.036-.318 1.523-1.023 2.045-.45.554-1.293 1.044-2.25 1.43-.971.45-2.084.615-3.475.615h-2.86c-.676-.225-1.651-.373-2.25-.615l2.25.615c-.676-.225-1.651-.373-2.25-.615h-.206c.781.313.924.877 1.229 1.635.071.956.204 1.717.204 2.864-.194.82-.504 1.38-.819 2.045-.36.8-.689 1.353-1.226 2.042-.18.408-.414.742-.615.41" stroke-linecap="round" stroke-width=".9934124999999999" fill="none"/><path stroke-linejoin="round" d="M414.639 293.135c0 .069-.027-.064.408 1.023.423.51.572 1.348.818 2.045 0 .99-.048 1.934-.204 2.657-.41.667-.702 1.065-1.43 1.43-.48.578-1.047.742-2.045.819-.589.294-1.656.199-2.25 0-.752-.178-1.533-.397-2.045-.819-.845-.198-1.375-.458-1.838-1.022-.755-.188-.604-.612-.207 0 .625.516.652 1.073 1.023 2.045.013 1.073.204 1.547.204 2.657.188.86.312 1.626-.204 2.249-.278.784-.805 1.017-1.227 1.637-1.094.236-2.032.408-3.271.408-.63-.466-1.995-.885-2.453-1.43a6.511 6.511 0 01-1.839-1.227c-.567-.27-2.755-2.061-3.08-2.567.505.482 2.881 2.382 3.284 2.975.551.376 1.068.864 1.43 1.227.554.394.983 1.12 1.638 1.637.453.802.773 1.08.816 2.246v2.864c-.014 1.28-.199 1.451-.816 2.249-.127.381-.284.026-.41.408" stroke-width=".9934124999999999" fill="none"/><path stroke-linejoin="round" d="M406.877 307.043v.204c0-.641-.043-.257.818.818.708.382 1.52.824 2.25 1.023.527.456 1.364.45 1.944 1.02.932.124 2.01.575 3.07.614" fill-rule="evenodd" stroke-linecap="round" stroke-width=".9934124999999999" fill="#fff"/><path stroke-linejoin="round" d="M406.162 287.81c.312.297 1.75 2.101 1.944 3.073-.013 1.2-.132 1.555-.816 2.045-.678.321-1.327.408-2.453.408-1.094-.24-1.767-.93-2.864-1.43-.58-.567-1.311-.771-1.838-1.227-1.028-.35-1.206-.567-.207.204.986.535 1.82 1.041 2.453 1.43.867.605 1.158.7 1.637 1.842.23 1.17.533 2.223.612 3.476.453.665.52 1.417 0 2.045-.503.296-.723.408-1.634.408a17.503 17.503 0 00-1.635-1.227c-.402-.294-.95-.858-1.226-1.226-.543-.483-1.24-.848-1.637-1.43-.877-.385-1.28-.796-2.045-1.227-.705-1.084-.032-.056.41.408.504.805.885 1.684 1.227 2.453v3.067a7.134 7.134 0 01-.41 2.25c-1.042 0-1.842-.096-2.658-.207-.612-.244-1.581-.533-2.249-.816-.954-.53-1.552-1.023-1.839-1.841-.487-.557-.908-1.373-1.226-1.839-.405-.514-.564-.752-1.023-1.022.498.532.962 1.584 1.839 2.249.612.922 1.134 1.208 1.433 2.249.45.546.517 1.544.612 2.453 0 .893.085 2.08-.204 2.657-.13.962-.424 1.407-.819 2.045a18.21 18.21 0 01-1.022 1.838c-.273 0-.204-.066-.204.204" stroke-linecap="round" stroke-width=".9934124999999999" fill="none"/><path stroke-linejoin="round" d="M410.347 284.552v.204c0-.273-.765 1.746-1.634 2.25-1.03.198-1.502.407-2.657.407h-3.068c-.734-.254-1.643-.535-2.453-.816-.673-.59-1.314-.795-2.045-1.433-.607-.593-.792-.933-1.529-1.733-.302-.394-.082-.029.917.71.908.84 1.163 1.065 1.43 2.045.289.58.204 1.765.204 2.658-.042 1.155-.14 1.528-1.022 1.84-.625.366-1.402.409-2.453.409-.525-.453-1.367-.763-2.045-1.43-.591-.39-1.283-1.307-1.839-1.84-.32-.495-1.762-2.246-2.257-2.564.533.36 2.241 2.35 2.869 2.769.427.75.94 1.12 1.433 1.634.424.718.692 1.401 1.227 1.841.114.843.294 1.608.408 2.453-.04 1.09-.22 1.55-.819 2.045-.792.777-.993.808-1.838.408-.702-.487-1.45-.914-2.045-1.43-.763-.21-1.402-.493-1.842-1.023-.744-.262-1.269-.84-1.838-1.226a4.59 4.59 0 00-1.43-1.637l1.43 1.637a4.59 4.59 0 00-1.43-1.637l-3.503-4.324c.461.535 4.464 5.01 4.729 5.757.617.493.97 1.221 1.226 2.249.088.826.204 1.547.204 2.453-.543.57-.72.977-1.637 1.226h-2.86c-1.132-.042-1.484-.278-2.454-.614-.829-.48-1.19-.774-1.634-1.43-.599-.409-.946-.883-1.637-1.227-.276-.413-.591-.527-.819-1.023-.37-.159-.31-.41-.612-.614" stroke-width=".9934124999999999" fill="none"/><path stroke-linejoin="round" d="M412.096 280.764c-.067 0-1.476.116-2.565-.1-1.39-.088-2.927-.197-3.682-.82-1.08-.373-1.295-.86-1.839-1.43-.598-.72-1.359-1.444-1.84-2.456-.393-.898-.6-1.671-.613-2.86v-3.272c0-.567.387-3.725.106-4.006-.013 1.12-.516 4.241-.516 5.436 0 1.044-.093 1.844-.204 2.66-.477.763-.975 1.63-1.839 2.453-1.19 1.025-2.209 1.751-3.68 2.045-1.165.344-1.44.217-2.044-.819-.747-.559-1.129-1.475-1.227-2.657-.307-1.152-.164-2.323 0-3.475 0-1.023-.103-2.766-.103-3.788 0-.477.103 1.353.103 1.539 0 1.205.008 1.91-.615 2.86-.471 1.047-1.16 1.82-1.838 2.658-.694.718-1.314 1.012-2.25 1.226-.985 0-1.835.01-2.452-.408-.755-1.051-2.1-2.198-2.66-3.475V263.99c.337.715.41 3.338.41 4.405-.081 1.054-.516 1.603-.818 2.657-.75.715-1.263 1.335-2.249 2.045-1.094.56-2.034.983-3.272 1.227-1.324-.016-1.306-.12-1.838-1.227-.652-.728-.917-1.64-1.023-2.657a20.323 20.323 0 01-.614-2.863c-.201-.811-.199-2.65-.408-3.275v2.252c.12.925.395 1.727.408 2.864 0 1.006-.069 1.812-.408 2.453-.109.816-.36 3.11-.403 3.067" stroke-linecap="round" stroke-width=".9934124999999999" fill="none"/><path stroke-linejoin="round" d="M397.075 277.797c.088.442.408 1.804.408 2.863 0 1.2-.053 1.56-.612 2.454-.596.858-.954.815-2.249.815-1.118 0-1.878-.124-2.453-.611-.758-.27-1.144-.721-1.637-1.431-.56-.678-1.216-1.756-1.635-2.25-.204-.749-.614-2.632-.922-3.279-.214-.972.549 1.661.922 2.257.52.946 1.057 1.818 1.43 2.657.15.679.205 1.516.205 2.453-.41.578-.843 1.073-1.227 1.638a7.564 7.564 0 01-2.453.408c-.895-.136-1.414-.45-2.042-.819-.758-.252-1.166-.683-1.841-1.023-.384-.582-1.235-1.467-1.635-2.249-.498-.699-.654-1.782-1.022-2.453-.14-.977-.27-2.005-.615-2.657-.132-1.033-.331-1.764-1.023-2.249-.058-.532-.243-.434-.408-.818M381.737 282.724c.066.445.3 2.058.408 2.864-.013 1.173-.262 1.51-.612 2.249-.398.583-.692 1.2-.819 2.042-.54.448-.832 1.026-1.43 1.433-.318.475-.636.408-1.43.408-.274.085-1.447-.074-2.046-.204M380.518 280.472c-.222 1.039-.633 1.905-1.022 2.864a16.516 16.516 0 00-1.43 1.839c-.713.286-1.341.41-2.454.41-.559-.381-1.285-.68-1.841-1.022-.302-.13-.72-.281-1.023-.411M407.486 137.357v.205c0-.51.03-.266-.41.613-.872.99-1.31 1.297-2.454 1.636-1.226.691-3.02.92-4.702 1.022-1.385.235-2.898.212-4.291.409-.453-.654-1.365-1.223-1.841-1.84-.483-.556-.724-1.12-1.227-1.84-.336-1.007-.954-1.822-1.226-2.862-.34-.982-.575-2.06-.82-3.067-.118-.898-.333-1.497-.407-2.453-.734-.21-.061.26.204.817.572.857.744 1.787.819 3.067.148 1.05.204 2.122.204 3.271 0 1.183-.106 1.901-.408 2.658-.708.72-1.18.87-2.25 1.022-1.231.314-2.72.204-4.09.204-.975-.131-1.306-.47-2.249-.613-.487-.436-1.311-.902-1.838-1.226-.371-.451-.81-.628-1.023-1.023" stroke-width=".9934124999999999" fill="none"/><path stroke-linejoin="round" d="M391.141 138.618c0 .069.617.921.617.99 0-.572-.023-.269.411.817.403 1.21.164 1.717-.615 2.658-.831.912-1.782 1.7-2.657 2.453-.927.426-1.69.997-2.86 1.227-1.354.17-2.793.238-3.887 0-.787-.447-1.759-1.158-2.249-1.84-.59-.579-.9-1.154-1.227-1.84-.182-.674-.418-1.561-.815-2.044-.056-.587.018.16.13 1.048.248.742.013.28.074 1.2v2.863c-.387 1.299-.92 2.947-1.227 4.089-.427.626-.792.996-1.637 1.226-.933.555-1.839 1.09-2.861 1.431-.56.46-1.383.41-2.453.41-.904-.362-1.089-.572-1.841-1.432-.525-.412-.647-.667-1.023-1.022M363.14 150.444v.204c0-.64.043-.257-.818.818-.39.637-.91 1.213-1.635 1.84-.469.846-1.48 1.794-1.841 2.658-.869.442-2.154.74-3.269 1.022-1.174.121-2.36.26-3.476.41-1.637.1-3.224.203-4.908.203-.978-.011-1.974-.181-2.657-.408-.655-.542-.782-1.038-.816-2.25-.292-.87-.189-1.732-.615-2.248-.085-.477-.31-.773-.612-1.022" stroke-width=".9934124999999999" fill="none"/><path stroke-linejoin="round" d="M404.016 145.946v.204c0-.571.024-.266-.408.818-.47.75-1.163 1.622-1.637 2.249-.713.634-1.74 1.629-2.453 2.249-1.208 1.007-2.18 1.365-3.68 1.635-1.335.173-2.262-.182-3.476-.818-.959-1.007-1.096-1.305-1.634-2.453-.098-1-.18-1.813-.615-2.658-.18-.763-.434-1.48-.818-2.044.045-.702.328.423.41.818.223.558.323 1.67.612 2.249v2.862c.281 1.119.127 1.935 0 2.862-.347 1.17-.535 2.164-1.226 2.658-.798.279-1.924.409-3.065.409-1.396 0-2.933-.05-3.887-.614-.654-.445-1.202-1.07-2.042-2.044-.686-.89-1.19-1.354-1.433-2.249-.482-.725-.776-1.527-1.227-2.044-.108-.87.072-.115.41.204.268.565.727 1.587 1.02 2.249.382.739.804 1.426 1.023 2.453.543.663.933 1.44 1.023 2.454.286.629.204 1.911.204 2.862-.18.988-.405 1.276-1.43 1.43-.84.205-1.903-.122-2.862-.612-.712-.356-1.125-.695-1.637-1.432-.837-.675-1.343-1.35-2.042-2.248-.474-.498-.943-.998-1.433-1.636-.562-.691-1.126-1.19-1.43-2.249-.319-.3-.502-.722-.82-1.022.493.567.737 1.076 1.023 2.044.307 1.122.599 1.664.615 2.863v2.862c-.196.98-.67.891-1.637 1.022-1.121 0-2.072.074-2.658-.409-.895-.121-1.51-.355-2.045-.818-.85-.222-1.396-.698-2.042-1.022-.323-.475-1.007-1.374-1.43-1.84-.284-.873-.822-1.24-1.23-1.84-.289-.29-.307-.917-.408-.818.398.47.755 1.479 1.023 2.045.164.914.204 1.845.204 2.862-.228 1.068-.612 1.598-.819 2.658-.45.86-.842 1.946-1.226 2.657-.745.507-1.333 1.059-2.247 1.431-1.208.544-2.429.776-3.886.818-.98.327-1.799.116-2.657 0-.665-.315-1.425-.633-1.841-1.226-.527-.242-.692-.508-1.023-1.227-.741-.557-1.012-1.385-1.43-2.453-.297-.859-.625-1.62-.816-2.454-.35-.797-.567-1.797-1.023-2.453-.053-.476-.15-.342-.204-.818" stroke-width=".9934124999999999" fill="none"/><path stroke-linejoin="round" d="M395.009 163.732v.204c0-.551.013-.273-.204.818-.673 1.046-1.46 1.932-2.453 2.249-.588.294-1.653.198-2.25 0-.927-.476-1.554-1.058-2.248-1.84-.54-.99-1.465-1.888-2.046-2.862-.513-.775-.882-1.332-1.02-2.249-.442-.52-.76-1.597-1.022-2.249-.06-.642-.053-.285-.244-.758.265.962.61 1.412.856 2.598.405 1.252.75 1.908.41 3.271-.166 1.244-.373 2.297-.818 3.476-.27 1.2-.649 2.101-1.023 2.862-.188.799-.54 1.505-1.022 2.044-.464.51-1.248.645-2.045.818h-2.861c-.872-.117-1.688-.405-2.657-.613-.951-.508-1.142-.745-1.841-1.431-.546-.677-1.073-1.165-1.43-2.045-.523-.355-1.265-.898-1.638-1.43-.625-.616-1.017-1.06-1.43-2.045-.191-.88-.395-1.502-.409-2.658-.031-.616.287.985.612 2.044.297.69.517 1.779.819 2.658v3.271c0 1 .019 1.976-.204 2.862-.138.921-.485 1.343-.819 2.045-.582.36-1.21.804-2.042 1.022-.694.48-2.064.815-3.068 1.022-1.014.266-1.91.409-3.067.409-1.177 0-1.73.013-2.25-.613-.49-.541-1.305-1.625-1.838-2.045-.283-.796-.697-1.116-1.43-1.84-.294-.814-.76-1.813-1.227-2.453-.156-.994-.63-1.848-.819-2.658-.13-.302-.28-.72-.407-1.022" stroke-width=".9934124999999999" fill="none"/><path stroke-linejoin="round" d="M416.81 162.04c.04.28-.187 1.299-.336 1.895-.447 1.217-1.133 2.257-2.045 3.067-.982.591-1.372.939-2.453 1.022-.498.373-1.086.16-1.433-.205-1.054-.39-1.68-1.02-2.657-1.43-.92-.59-1.401-.942-2.249-1.432-.477-.701-1.08-1.491-1.634-2.044-.133-.222-1.307-2.179-1.081-1.566.434.642 1.5 1.884 1.9 2.793.492.68 1.067 2.022 1.634 2.657.566.718 1.292 1.516 2.045 2.453.458 1.133.935 1.946 1.022 3.067.318.618.408 1.698.408 2.658 0 1.112-.167 1.653-.204 2.658-.267.665-.527 1.427-.818 2.044-1.235 0-2.226-.206-3.068-.613-.662-.465-1.06-1.126-1.635-2.045-.402-1.128-1.094-1.916-1.634-3.066-.678-1.14-1.224-2.885-1.841-3.885-.14-.992-.533-1.88-.612-3.066-.223-.371-.289-.483-.41-.89.13.954.203 1.717.203 2.934 0 1.25.072 2.36-.408 3.067-.365 1.097-.953 1.818-1.634 2.658-.83.522-1.563 1.222-2.66 1.635-1.216.422-2.159.613-3.475.613-1.317-.271-2.607-.4-3.828-.725-1.288-.116-2.204-.196-2.713-.91-.755-.848-1.608-1.785-2.25-2.862-.595-.391-.394-.445-.778-.87.434.676.366.598.575 1.687.387.802.408 1.478.408 2.454-.485.82-.991 1.693-1.635 2.453-.667.816-1.012 1.073-2.045 1.431h-3.067c-.991 0-1.934-.047-2.658-.204-.882-.192-1.91-.597-2.86-1.022-.446-.358-3.227-2.662-3.566-3.113" stroke-linecap="round" stroke-width=".9934124999999999" fill="none"/><path stroke-linejoin="round" d="M366.796 175.793H367c-.641 0-.246-.053.614 1.022.618 1.244 1.018 2.35 1.635 3.476.151 1.261.384 2.302.41 3.68 0 1.45.11 2.813-.41 4.089-1.356 1.317-1.886 1.895-3.68 2.044-1.767.36-2.159.03-2.86-1.635-.512-1.046-.901-2.21-1.431-3.272-.273-.779-1.062-1.847-1.637-2.862-.313-.634-.753-1.585-1.227-2.453-.363-.95-.577-1.915-1.022-2.453-.154-1.503-.287-.656.204 0-.128 1.295.715 4.95-.273 5.443-.676.32-1.383.129-2.512.129" stroke-width=".9934124999999999" fill="none"/><path stroke-linejoin="round" d="M419.857 165.009c0 .068.112 1.313.112 1.381 0-.619-.011-.272.206 1.022.074 1.356.398 2.72.816 3.68v2.863c-.32 1.08-.493 1.578-1.226 2.453-.43.632-.673.818-1.635.818-.657.328-2.08.204-3.068.204-1.094-.301-2.498-.389-3.268-1.022-.676-.519-1.322-.83-1.714-1.467.286.095.204.582.204.26M405.049 178.86v.41-.41.41-.41c-.178 1.924-.713 2.779-1.841 4.294-.758.89-1.505 1.683-2.657 2.25-1.627.847-3.256 1.093-5.11 1.226-1.4 0-1.947.055-2.66-.818-.893-.714-1.854-1.711-2.25-2.862-.746-.908-1.14-2.092-1.634-3.067-.23-1.163-.657-2.176-1.022-3.271-.247-.96.196.659.204 1.431 0 1.617-.257 2.876-.612 4.293-.435 1.292-.845 2.216-1.637 3.272-.8 1.268-1.783 1.739-3.065 2.657-1.955.435-3.722.391-5.725.205-1.288-.395-2.22-.68-3.272-1.431-.964-.302-2.17-.884-2.657-1.431-.996-.407-.649-.175-1.295-.499.148.939-.774 4.185-.954 5.2-.315 1.107-.448 1.72-1.226 2.25-.819.742-1.574 2.444-2.692 2.905-.842.183-1.889.773-2.954.857-.739.334-1.568.227-2.267.425" stroke-linecap="round" stroke-width=".9934124999999999" fill="none"/><path stroke-linejoin="round" d="M419.142 177.838c.074.453.408 2.154.408 3.271v3.476c-.064 1.152-.28 2.12-.408 3.066-.28.984-.71 1.428-1.43 2.045-1.079.561-1.783.986-2.864 1.226-1.282 0-1.643-.206-2.657-.817-1.227-.969-2.072-1.742-3.068-2.862-.842-.906-1.401-1.62-2.045-2.25-.14-1.072-.495-1.79-.816-2.862-.37-.518-.612-1.162-1.022-1.635.376.752.876 1.164 1.43 2.249.639 1.11.986 2.33 1.43 3.475.36.941.83 1.96 1.434 2.454.429 1.022.707 1.393 1.02 2.453.095 1.237.206 2.37.206 3.68-.41 1.185-.86 1.995-1.84 2.658-1.312.78-2.472 1.008-4.088 1.226-1.738-.01-3.375-.095-4.702-.613-.562-.688-1.855-1.795-2.66-2.658-.678-1.121-1.343-2.155-2.043-3.271-.36-.943-.696-1.756-.818-2.658-.22-.657-.294-1.7-.615-2.248-.28-1.527-.204.844-.204 1.43v3.68c-.429 1.763-1.465 3.228-2.657 4.703-1.462 1.172-2.652 2.095-4.498 2.248-1.793 0-3.054.052-4.498-.817-.673-.8-1.698-1.855-2.453-2.862-.689-1.165-1.253-1.933-1.635-3.067-.153-.709-.251-1.78-.41-2.658 0-.83-.085-.147-.149-.83 0 .953-.055.898-.055 1.852.15 1.348.204 2.685.204 4.09-.48 1.564-.506 2.186-2.247 2.248-1.242-.089-1.605-.324-2.455-1.022-.98-.578-2.085-1.392-2.862-2.044-.792-.74-1.136-1.12-1.857-1.709" stroke-linecap="round" stroke-width=".9934124999999999" fill="none"/><path stroke-linejoin="round" d="M410.956 193.58h.204c-.601 0-.262-.036.819.613.381.574 1.113 1.464 1.634 2.248.538.744 1.155 2.096 1.635 2.658.41.72.805 1.242 1.022 2.044 0 1.246.165 2.287.207 3.476 0 1.252-.193 1.79-.614 2.658-.655.432-1.606 1.05-2.658 1.43-1.06.139-2.119.205-3.271.205-1.1 0-2.061-.085-3.068-.204-.697-.315-1.804-.76-2.453-1.227-.742-.656-1.531-1.776-2.249-2.658-.456-.73-.63-1.453-.816-2.248-.26-1.013-.381-2.104-.818-2.863-.149-.684-.332-1.512-.408-.204-.273.542-.207 1.605-.207 2.453-.228 1.076-.498 2.11-1.02 3.067-.779.72-1.303 1.67-2.456 2.044-1.359.86-2.922 1.04-4.495 1.227-1.21 0-2.607.153-3.682-.205-.687-.326-1.34-.68-2.247-1.226a9.301 9.301 0 01-2.456-2.249c-.763-.96-.763-1.63-1.226-2.862-.066-1.16-.331-1.85-.408-2.862-.154-.284-.382-.79-.612-1.023 0 1.436.19 2.613.612 3.885.069.975.204 1.82.204 2.862-.037 1.023-.241 1.697-.612 2.453-.74.544-1.07.872-2.045 1.227-.97.182-1.99.204-3.068.204-.908-.245-1.605-.789-2.453-1.022-.49-.595-1.036-.85-1.634-1.84-.679-1.026-.819-1.18-.819-2.453.188-1.103.41-2.058.41-3.271 0-1.147.027-1.78.409-2.658.047-.848.092-.492.092-1.464" stroke-width=".9934124999999999" fill="none"/><path stroke-linejoin="round" d="M371.511 204.21h-.204c.602 0 .239-.058-.408 1.022-.5.945-.75 1.902-1.226 2.454-.23.844-.602 1.21-1.227 1.635-.267.75-.845 1.032-1.433 1.431-.628.298-1.32.56-2.042.818l2.042-.818c-.628.298-1.32.56-2.042.818" stroke-width=".9934124999999999" fill="none"/><path stroke-linejoin="round" d="M435.91 216.274c-.068 0 1.156-.616 1.087-.616.601 0-1.028.581-2.109 1.23-.617.309-1.926.204-2.86.204-.82-.189-2.154-.495-2.66-1.022-.279-1.105-.684-2.182-1.02-3.272-.329-.95-.493-2.037-.615-3.066-.291-.986-.493-1.812-.818-2.862a52.17 52.17 0 01-1.02-3.476c-.302-1.014-.54-1.889-.615-2.862-.432-.35-.477-1.006-.615-1.635" stroke-linecap="round" stroke-width=".9934124999999999" fill="none"/><path stroke-linejoin="round" d="M428.546 214.025c-.148 0-.484.97-.818 1.636-1.335 1.565-2.853 2.81-4.294 4.09-1.272.598-2.255 1.48-3.68 1.634-.59-.535-.821-1.974-1.023-3.068-.574-1.932-.868-3.902-1.43-5.723-.509-.917-1.01-2.028-1.227-2.862-.35-.737-.474-1.591-.611-2.25.161 1.594.919 3.088 1.226 4.703.25 1.352.408 2.667.408 4.089v3.476c-.23 1.267-.623 2.461-1.43 3.27-.21.129-1.036-.44-1.842-.817-1.168-.635-2.527-1.364-3.271-1.84-.782-1.132-1.984-2.415-2.861-3.68-.374-1.274-.655-2.342-.819-3.68-.27-1.179-.601-2.84-1.022-3.68-.056-.672-.345-.718-.668-1.075-.196 1.326-.72 2.115-1.17 3.324-.525.55-1.167 1.127-2.046 1.84-1.277 1.16-2.702 2.358-4.088 3.27-1.295.821-2.36 1.148-3.886 1.227-1.457-.045-2.042-.174-3.065-1.022-1.687-1.05-2.816-2.543-4.294-4.089-1.102-1.21-1.52-1.65-1.634-3.27-.07-.888-.242-1.513-.411-2.454 0 .273-.066.204.207.204" stroke-width=".9934124999999999" fill="none"/><path stroke-linejoin="round" d="M390.108 216.682c-.061.416-.244 2.313-.408 3.068-.23.845-.54 1.253-1.227 1.634-.498.421-1.464.684-2.045 1.023-1.057.1-1.976.289-2.863.408H380.5c-1.068 0-1.767.018-2.25-.612-.609-.5-1.242-1.542-1.634-2.25-.342-1.157-.421-1.872-.207-2.862 0-1.415.18-2.675.207-4.089 0-1.022-.103-3.177-.103-4.2" stroke-linecap="round" stroke-width=".9934124999999999" fill="none"/><path stroke-linejoin="round" d="M376.836 220.364v.204c0-.55.013-.27-.204.819-.276.824-.683 1.115-1.227 1.634-1.03.226-1.337-.031-2.455-.408-.716-.577-.898-1.078-1.43-1.634a3.35 3.35 0 00-1.227-1.637c0-.44-.101-.305-.204-.612" stroke-width=".9934124999999999" fill="none"/><path stroke-linejoin="round" d="M370.399 218.616c0 .066.095.781.508 1.33.41.898.88 1.785 1.227 2.86v3.272c-.1 1.24-.281 2.66-.819 3.476-.455.652-1.6 1.17-2.657 1.635-1.046.519-2.233.574-3.475.614-1.465-.323-2.695-.834-4.09-1.634-1.235-.63-2.475-1.407-3.68-2.045-.564-.49-1.1-.737-1.635-1.431-.593-.434-1.08-1.054-1.637-1.433-.392-.575-1.105-.988-1.634-1.635-.514-.368-.872-.911-1.227-1.43" stroke-width=".9934124999999999" fill="none"/><path stroke-linejoin="round" d="M433.977 230.219c0 .12-1.936 1.674-2.572 1.992-.795.583-2.135 1.131-3.272 1.637-1.595.488-2.84.816-4.495.816-.467-.683-1.728-1.528-2.453-2.453a36.312 36.312 0 00-1.638-2.861 62.638 62.638 0 00-1.226-3.476c-.358-1.057-.68-1.669-.819-2.863-.336-.466-.609-1.868-.715-1.23.673.687.758 1.813 1.126 2.867 0 1.277.172 2.416.204 3.68-.291.818-.379 1.38-1.023 1.84-.45.52-.763.613-1.634.613-.601.36-1.174.015-2.045 0-1.07-.316-1.365-.528-1.841-1.227-.602-.421-1.018-1.242-1.839-1.841-.52-.962-.821-1.32-1.226-2.247a11.879 11.879 0 01-.615-2.66c0-1.075-.167-2.013-.204-3.064 0-.737.056-2.436-.204-2.87-.154 1.246-.41 2.69-.41 4.096-.18.965-.236 2.098-.409 3.065-.45 1.036-1.09 2.114-2.045 3.068-1.282.726-2.41 1.012-3.883 1.226-1.55 0-2.967-.188-4.498-.203-.94-.536-1.992-1.261-3.065-2.046-1.002-.906-2.276-2.045-3.068-2.657-.252-.712-.755-1.141-1.227-1.637-.291-.54-.415-.469.204-.204.533.533 1.402 1.274 1.842 2.045.336.652.818 2.072 1.226 2.657 0 1.11.19 1.585.204 2.657-.193 1.055-.824 1.312-2.045 1.638-1.166 0-2.244-.117-3.065-.408-.98-.411-1.714-.718-2.25-1.23-.524-.355-1.263-.898-1.636-1.43-.774-.816-1.598-1.68-2.25-2.453-.413-.453-1.03-1.595-1.43-2.045.199.3.342.352.615.818.73.92 1.144 1.497 1.634 2.25.39 1.009.734 1.493.819 2.656 0 .991-.048 1.937-.204 2.66-.233.853-.61 1.346-1.433 1.635-.618.31-1.926.204-2.861.204-.687-.3-1.913-.827-2.657-1.023-.475-.577-1.455-1.277-2.046-2.042-.519-.668-.82-1.354-1.43-1.842.527.435.853 1.206 1.43 1.842.316.643.782 1.64 1.023 2.453.408.903.564 1.891.819 2.86a22.36 22.36 0 01-.207 3.068c0 1.07 0 1.852-.408 2.453-.252.917-.72 1.34-1.635 2.043-.98.19-1.388.397-2.453.41-.413-.5-1.014-1.049-1.637-1.637-.278-.588-.694-1.502-1.022-2.042-.403-.657-.824-1.004-1.227-1.841a8.833 8.833 0 01-1.838-2.657c-.517-.774-1.039-3.012-1.227-3.876-.28-.188.331.525.408 1.83 0 1.09-.063 2.075-.204 3.068.032 1.198.204 2.265.204 3.476-.111.813-.24 1.7-.614 2.249-.504.885-1.473 1.61-2.657 2.042-.446-.622-.97-.815-1.839-1.022-.85-.435-1.46-.639-2.453-1.02-.94-.683-1.34-.816-2.045-1.841-.668-.63-1.285-1.661-1.637-2.453-.157-.723-.204-1.666-.204-2.657.013-1.285.198-2.098.614-3.068.228-.832.766-1.401 1.43-1.838.581-.58 1.198-1.073 2.046-1.23.103-.588.572-.566 0-.612v.612c.103-.588.572-.566 0-.612" stroke-linecap="round" stroke-width=".9934124999999999" fill="none"/><path stroke-linejoin="round" d="M432.229 245.292c0 .122-.594.501-1.227.819-1.298.413-2.744.098-4.09 0-1.327-.331-2.286-.405-2.861-1.227-.665-.476-1.688-1.53-2.25-2.249-.301-.636-.495-1.377-.611-2.249-.133-1.062-.225-2.228-.41-3.271v-3.27c0-1.11-.191-1.586-.205-2.66.09-.087.154.515.408 1.023 0 1.28-.045 2.506-.204 3.68-.111 1.15-.511 1.891-.818 2.66-.596.739-.93.977-1.839 1.226-.667.398-1.833.575-2.863.612-1.259-.071-1.969-.334-2.658-1.022-1.004-.798-1.647-1.672-2.249-2.861-.352-1.147-.612-2.178-.612-3.476-.14-.909-.074-2.599-.41-3.272-.03-.596.172-1.851-.098-2.148.138 1.052-.096 2.993.098 4.193 0 1.346-.037 2.644-.204 3.884-.549 1.245-.805 1.915-1.839 2.453-.622.623-1.414.93-2.453 1.227-1.573 0-3.205.116-4.702-.204-.742-.202-1.438-.607-2.249-.819-.559-.471-1.396-.76-2.045-1.43-.752-.824-1.3-1.598-1.635-2.657-.996-1.28-1.732-2.507-2.249-3.884" stroke-linecap="round" stroke-width=".9934124999999999" fill="none"/><path stroke-linejoin="round" d="M427.513 256.763h-.204c.551 0 .27-.013-.818.204-1.065.355-2.032.106-3.068-.204-.691-.305-1.412-.784-1.838-1.227-.713-.874-.991-1.107-1.43-2.249-.345-1.406-.412-2.58-.412-4.087.016-1.192.329-1.958.615-3.068.363-1.123.856-2.92.856-4.167-.045 1.354-.78 3.41-.856 4.782v3.269c-.328.982-.328 1.888-.819 2.66-.657.932-1.247 1.25-2.453 1.43-1.194-.109-1.205-.456-1.84-1.43-1.082-1.304-1.686-3.052-2.043-4.703v-3.271c0-1.367.103-2.597.204-3.884.085-.845.148-.964.148.13.077 1.576.26 2.752.26 4.366-.292 1.197-.76 2.2-1.227 3.067-.874.12-1.563.395-2.657.408-1.089 0-1.926-.048-2.657-.408-.511-.858-1.526-2.003-2.045-3.067-.238-1.121-.57-2.061-.615-3.27-.254-.51-.32-1.61-.408-2.249.218 1.277.204 2.692.204 4.088-.01 1.3-.047 2.572-.611 3.272-.565.76-1.293.8-2.25 1.022-1.038 0-2.156.098-3.067-.204-1.023 0-2.194-.063-2.861-.41-.927-.406-1.264-.705-2.045-1.227-.419-.62-1.23-1.415-1.635-2.453 0-1.083.138-1.976.612-2.657.193-.887.384-1.436.819-2.25.413-.985.802-1.419 1.226-2.044.366-.196-.999.919-1.637 2.045-.911.882-1.674 1.711-2.453 2.453-1.036.654-1.576 1.134-2.861 1.226-1.277 0-1.801-.225-2.657-.611-.554-.607-1.097-.713-1.227-1.638-.373-.919-.54-2.288-.818-3.065-.013-1.152-.196-2.15-.408-3.271-.111-.816-.204-2.427-.204-1.632 0 1.767-.085 2.803.204 4.493v3.475c0 1.076-.149 1.72-.41 2.453-.946.13-1.312.395-2.454.411-1.012-.27-1.552-.487-2.249-.819-.482-.458-.887-1.043-1.43-1.43l1.43 1.43c-.482-.458-1.711-1.557-2.254-1.944" stroke-width=".9934124999999999" fill="none"/><path stroke-linejoin="round" d="M420.467 268.525c-1.77 0-4.056-.927-5.828-.927-1.1-.273-2.353-.368-2.861-1.023-.437-.678-.76-1.51-1.023-2.657 0-1.449.111-2.278.816-3.475.535-1.057 1.396-1.897 1.841-2.658a14.43 14.43 0 001.635-2.657c.41-.64.397-.712.871-1.393.62-.109-1.897 1.372-3.732 2.62-1.418.633-2.62.805-4.295.816-1.26-.276-3.057-.684-4.087-1.02-.819-.72-.819-1.854-.819-3.272v-3.68c0-.78.035-.87-.148-1.371-.085 1.162-.318 1.655-.466 2.802-.109 1.338-.334 2.477-.816 3.68-.53 1.004-1.182 2.358-1.841 3.068-.644.826-1.508 1.284-2.25 1.838-1.377.244-2.524.098-3.883-.204-1.457-.49-1.735-1.06-2.25-2.453-.447-1.526-.407-3.208-.407-4.906.045-1.264.318-2.445.612-3.68v-3.475c0-.342.392-1.187.392-1.526" stroke-linecap="round" stroke-width=".9934124999999999" fill="none"/><path stroke-linejoin="round" d="M411.99 267.386c-.498.066-2.17.39-3.272.41-.8.265-2.162.204-3.272.204-1.19-.28-1.775-.291-2.249-1.022-.728-.506-1.01-1.004-1.634-1.43-.302-.605-.641-1.278-1.023-1.842-.103-1.155-.395-2.063-.408-3.271 0-1.07-.002-1.852-.41-2.453v-.408" stroke-linecap="round" stroke-width=".9934124999999999" fill="none"/><path stroke-linejoin="round" d="M399.724 257.982v3.271c0 1.073-.161 1.918-.408 2.861-.114.962-.381 2.03-.818 2.66-.488.935-1.174 1.248-2.045 1.634-.994.135-1.264.165-2.043-.204-.712-.193-1.634-.678-2.249-1.226-1.068-.443-1.936-.967-2.657-1.637-.895-.628-1.513-1.27-2.045-1.839-.413-.826-.692-2.018-1.023-2.657 0-1.128.088-1.777.408-2.453.326-.654.753-1.139 1.227-1.637.495-.472 1.748-1.385 2.46-1.637" stroke-linecap="round" stroke-width=".9934124999999999" fill="none"/><path stroke-linejoin="round" d="M386.426 261.054h-.204c.694 0 .262-.04-1.023.816-.906.697-1.526 1.03-2.453 1.434-1.311.307-2.143.408-3.68.408-1.343 0-2.664.013-3.886-.204-.887 0-1.854-.006-2.453-.204-.222-.67-.598-1.351-1.022-1.842-.157-.723-.204-1.666-.204-2.657.365-.582.649-1.796 1.022-2.249.52-.935.864-1.247 1.635-1.84.72-.502 1.285-.745 1.84-1.227.851-.284 1.185-.639 2.046-1.43.821-.745 1.15-1.267 1.838-1.84.459-.436 1.07-1.017 1.638-1.433.27-.853.739-1.433.816-2.453v-3.883" stroke-width=".9934124999999999" fill="none"/><path stroke-linejoin="round" d="M363.829 273.214c-.241-.122-.882-1.3-1.529-1.947-1.427-1.436-2.633-2.114-2.657-4.088.459-.68 1.264-1.213 2.25-1.634.556-.546 1.16-.986 1.84-1.227.774-.17 1.807-.206 2.862-.206 1.112 0 1.653-.167 2.657-.204 1.072-.014 1.55-.204 2.66-.204.375-.38.8-.204-.207-.204-.726.33-1.547.408-2.657.408-.904-.393-1.447-.594-2.453-.816-.544-.472-1.206-.628-1.635-1.23-.911-.51-1.192-.966-1.433-2.042-.133-.996-.167-1.436.41-2.25.3-1.149.867-1.832 1.431-2.656.676-.692.985-.819 2.25-.819h3.067c.726.13 1.544.207 2.246.408-.972-.278-1.95-1.29-2.86-2.249-.872-.946-.917-1.248-1.431-2.249-.34-1.28-.771-2.01-.819-3.269v-3.068c.196-1.102.469-1.55.819-2.249" stroke-linecap="round" stroke-width=".9934124999999999" fill="none"/><path stroke-linejoin="round" d="M360.465 244.074c-.12.243-1.007 1.565-1.227 2.045-.262.734-.41 1.38-.41 2.453-.18.882.007 1.338.206 2.249.596.408 1.084.84 1.635 1.634.887.427 1.181.838 1.634 1.638.556.376 1.388 1.269 1.74 1.84-1.009-.073-2.164-.892-3.17-1.228-.586-.273-1.826-.642-2.454-1.02h-3.475c-1.089.082-1.304.445-2.045.816-.421.66-.737 1.218-.816 2.249-.228.683-.228 1.77 0 2.453.46.495 1.054 1.245 1.634 1.637.758.43 1.351.808 2.25 1.43.95.562 2.156 1.105 2.86 1.635.69.188 1.505.45 2.046.818.498.088 1.128.204.203.204-.548-.32-1.589-.394-2.249-.611-.967-.162-1.907-.499-3.065-.615-1.072 0-1.427-.024-1.84.615-.833.24-1.076.739-1.635 1.226-.366.77-.58 1.256-.615 2.453.22.821.432 1.232.615 1.839.15.355.535 1.099.818 1.332l-.818-1.332" stroke-width=".9934124999999999" fill="none"/><path stroke-linejoin="round" d="M351.67 223.013c-.549.14-2.403.713-3.476 1.023-.729.244-1.24.654-1.839 1.023-.593.402-.95.927-1.43 1.43-.244.731-.654 1.24-1.023 1.841-.32.676-.537 1.272-.614 2.25.016 1.374.477 1.904 1.022 3.27.702 1.19 1.259 2.581 2.25 3.27.84.516 1.496.898 2.452 1.433.652.178 1.648.646 2.25 1.023 1 .132 1.658.415 2.249.815h-1.635c-.956.038-1.799.17-2.456.615-.699.28-1.004.837-1.634 1.227-.23.847-.586 1.208-.819 2.249-.339.678-.156 1.78 0 2.657.427.614.811 2.058 1.227 2.657.44 1.504.856 2.72 1.841 3.886.175.506 1.428 1.287 1.846 1.534-.63-.43-2.198-1.99-3.072-2.763-.517-.654-1.158-1.107-2.046-1.43-1.08-.414-2.09-.734-3.271-.817-1.113 0-1.74.122-2.453.408-.522.453-1.19.69-1.635 1.227-.583.416-.885 1.083-1.226 1.841.04 1.1.283 1.65.818 2.453.477.715.827 1.224 1.43 1.635.61.704 1.283 1.118 2.25 1.634.805.575 1.531.705 2.453 1.227.909.291 1.658.712 2.86 1.226 1.026.562 3.77 2.554 4.613 2.874.18.27-2.723-1.737-3.59-2.26-1.04-.23-1.4-.585-2.249-.818-1.062-.49-1.624-.882-2.657-1.022-.89-.408-2.055-.641-2.863-.816-1.23 0-2.226-.196-3.476-.204-.882 0-.954.02-1.226.612-.687.53-1.076 1.136-1.635 1.84-.384.679-.826 1.28-1.227 1.84-.296.693-.63 1.562-.818 2.248-.18.837-.395 1.375-.408 2.453" stroke-width=".9934124999999999" fill="none"/><path stroke-linejoin="round" d="M334.106 261.85c0-.067.207.275.207.206 0 .575-.18-.143-.615-1.227-.675-.802-1.534-1.984-2.453-2.863-1.306-.93-2.66-1.873-4.09-2.453-1.243-.589-2.56-1.222-3.884-1.635-1.192-.23-2.424-.204-3.68-.204-1.234.013-1.414.334-2.249.612-.479.54-.924 1.089-1.226 1.841-.241.599-.39 1.574-.612 2.25 0 1.043-.193 1.83-.207 2.86 0 .837.2 2.228-.304 2.562.212-.895.413-2.617.715-3.788-.016-1.232-.384-1.587-.819-2.657-.876-.983-1.698-2.022-2.453-2.864-.707-.898-1.605-1.955-2.453-2.657-.707-.432-1.404-.922-2.045-1.227-1.038-.42-1.523-.776-2.657-.818-.485.463-1.052.866-1.637 1.226-.601.411-.972.875-1.227 1.638-.373.548-.498 1.494-.611 2.453-.329.94-.408 1.56-.408 2.657-.263.347-.358.869-.411 1.43.122-.914.395-1.724.41-2.86-.161-1.058-.572-2.091-.818-3.476-.037-1.41-.305-2.268-.819-3.068-.882-.787-1.692-1.929-2.86-2.657-1.02-.49-1.828-.803-3.068-.819-1.11.013-1.664.276-2.453.615-.286.712-.408 1.34-.408 2.453.013 1.158.217 1.57.612 2.249.122.903.524 1.587.614 2.657.281.472.204 1.47.204 2.25-.095-1.103-.765-1.892-1.022-2.862-.255-1.173-.57-2.159-.819-3.068-.448-1.2-1.128-2.254-1.838-3.475-.72-.58-1.102-1.176-2.045-1.841-.925-.803-1.624-1.277-2.658-1.43h-2.863c-.837.333-1.086.65-1.635 1.226-.254.975-.744 1.759-1.022 2.453 0 1.017.042 1.95.204 2.863.485.506.808 1.052 1.022 1.839.345.588.819 2.604.819 3.587-.313-.837-1.102-3.571-1.43-4.61-.3-.831-.777-1.84-1.227-2.657-.323-1.17-.795-1.78-1.433-2.657-.52-.8-1.343-1.496-2.25-2.045-.876-.734-1.245-.977-2.453-1.022-1.051.312-1.253.667-2.249.818-.384.347-1.067.602-1.43 1.023-.194.821-.503 1.38-.819 2.045-.156.723-.204 1.666-.204 2.657.363.535.79 1.322 1.023 2.045.628.689.893 1.393 1.43 2.25.302.902 1.667 3.048 2.05 3.687-.121.121-1.197-1.558-1.639-2.053-.797-1.102-1.192-1.78-1.637-3.068-.527-.689-1.152-1.645-1.635-2.043a11.009 11.009 0 00-2.657-2.249c-.914-.643-1.401-.614-2.66-.614-1.29-.268-2.217.008-3.064.408-.61.62-1.897 1.626-2.453 2.045-.615.781-.917 1.3-1.434 1.841-.272.683-.495 1.38-.612 2.25.088 1.13.533 1.382 1.023 2.452.543.419 1.351 1.5 1.838 1.839.393.484 2.91 2.765 2.05 2.765-.37-.545-1.62-1.857-2.254-2.355-.598-.73-1.34-1.364-1.838-1.84-.84-.364-1.518-.692-2.453-.82-1.182-.235-1.929-.37-3.068-.407-1.033.092-1.594.604-2.249 1.022-.368.601-.779 1.11-1.022 1.841-.461.557-.408 1.383-.408 2.453.365.538.747 1.325 1.022 2.043.623.598 1.076 1.57 1.839 2.249.81.68 1.518 1.01 2.453 1.226 1.006.037 1.547.204 2.66.204.707.045-.342.18-.615.411" stroke-width=".9934124999999999" fill="none"/><path stroke-linejoin="round" d="M247.825 264.737l-.204-.204c.511.511.28.265-.819-.615-1.245-.585-2.61-.77-4.087-.816-1.126.289-2.35.594-3.476.816-.654.668-1.078.949-1.841 1.841-.31.776-.477 1.367-.204 2.453.551 1.129.784 1.529 1.634 2.453.594.403 1.084.721 1.842 1.023 1.547.233 3.065.76 4.702.819 1.181 0 4.116.376 5.23.41 1.382 0-3.5-.206-4.004-.206-1.48 0-2.932.01-4.294.203-1.303.265-2.551.562-3.68 1.227-.932.53-.818.983-.818 2.25.294.728.649 1.23 1.022 1.838.639.59 1.171 1.15 2.046 1.433 1.07.588 2.182 1.126 3.475 1.226.848.286 4.448-.029 3.19-.1-.655.553-5.068.67-6.257.916-1.261.533-2.612 1.28-3.68 1.637-.23.885-.405 1.529-.204 2.453.44.718.79 1.373 1.43 2.046.512.508.8.792 1.638 1.02.874.429 2.304.667 3.475 1.022.909 0 .925-.135 1.43-.408M339.219 251.65c0-.069-.408-.678-.819-1.226-1.08-1.267-2.909-2.663-4.294-3.887-1.489-.6-2.58-1.321-4.088-1.43-1.268 0-1.676.01-2.045 1.022-.445.538-.63 1.283-.818 2.25-.421 1.009-.408 1.957-.408 3.271-.307.612-.26 1.727-.612 2.25-.03.542-.133.89-.207.815-.339-.68.217-2.087.41-3.065 0-1.242.165-2.28.205-3.475-.477-1.863-.644-2.337-2.045-3.884-1.388-1.46-2.382-2.34-4.088-3.476-.895-.23-2.071-.601-3.271-.614-.74.4-1.74 1.046-2.454 1.634-.717.972-1.006 1.592-1.022 2.864.148 1.123.49 1.844 1.022 2.861.284.72.6 1.642.819 2.66.374.956.527 2.344 1.02 3.065.138 1.091.13.702-.204 0-.106-1.386-.546-2.673-1.023-3.68-.397-1.491-.837-2.037-1.634-3.272-.79-1.226-1.137-1.721-2.453-1.838a4.8 4.8 0 00-2.864 0c-.755.419-.977.67-1.02 1.838-.233.697-.31 2.382-.31 3.378 0 .302 1.039-4.244.718-5.42-.765-1.412-1.626-2.514-2.863-3.682-1.206-1.447-2.297-2.774-3.884-3.68-1.11-.328-1.722.16-2.453.819-.954.635-1.696 1.539-2.045 2.249-.23.85-.533 1.34-1.023 2.249-.768.959-1.396 4.469-1.531 3.796-.164-1.1.236-3.926.511-5.023.114-1.406.239-2.625-.206-3.68-.848-1.122-1.59-1.949-2.657-2.452-.71-.777-1.245-.819-2.453-.819-.91.289-2.096.975-3.068 1.635-.596.559-.853.943-1.02 1.637-.368.636-.657 1.952-.819 2.657-.211.877-.598 1.698-.614 2.86-.424 1.389-.204-.945-.204-1.634-.326-.983-.164-2.32-.612-3.067-.554-1.026-.81-1.264-1.841-2.043-1.047-.474-1.58-.818-2.861-.818-.572.4-1.261.657-1.841 1.226-.65.832-1.2 1.658-1.839 2.657-.222.888-.206 1.863-.206 2.864.023.832.172 1.32.206.204v-3.272c-.222-1.144-.424-1.674-1.433-2.045-.71-.384-1.669-.408-2.861-.408-.832.294-1.078.65-1.227 1.635-.508.715-.614.953-.614 2.045-.289.577-.204 1.764-.204 2.657-.326.437-.371 1.32-.408 0-.069-1.025-.331-2.138-.615-2.861-.68-.53-1.618-1.123-2.249-1.43-.998 0-1.976-.02-2.86.203-.79.403-.788 1.025-1.431 1.635-.207.88-.535 1.224-.615 2.249-.185.86-.122 1.555 0 2.453.228.641.57 1.42.41 1.841a34.563 34.563 0 01-2.044-2.657c-.758-.612-.967-.877-2.045-1.023-.88-.068-1.423-.206-2.454-.206-.495.432-1.102.863-1.634 1.229-.48.705-.874.856-1.023 1.838-.31.618-.209 1.831 0 2.454.498.323.665.733 1.227 1.022.424.527 1.062 1.039 1.43 1.635.244.49.332.243-.408.206-.64-.768-1.475-1.06-2.66-1.637-1.273-.228-2.187-.018-3.475.204-.58.84-.977 1.627-1.02 2.864.04 1.088.731 2.683 1.33 3.179" stroke-width=".9934124999999999" fill="none"/><path stroke-linejoin="round" d="M346.769 237.319h-1.023c-1.618-.151-3.073-.395-4.702-.411-1.5 0-2.65.016-3.884.615-1.2.418-1.435.866-2.249 1.634-.522.975-1.147 1.783-1.43 2.864-.368.908-.776 1.722-.819 2.86.262 1.566 0-1.125 0-1.84.326-1.844.207-3.627-.204-5.518a22.233 22.233 0 00-1.43-3.68c-.459-.813-.983-1.513-2.045-1.841-.737-.212-1.932-.241-2.657 0-.517.363-1.37 1.34-1.842 2.045a33.135 33.135 0 00-1.634 2.453c-.509.853-.911 1.923-1.227 2.657-.103.593-.251 1.245-.41 1.637-.408-.818-.9-1.091-2.043-1.637-1.062-.909-2.251-1.738-3.271-2.25-.816-.505-1.982-1.234-2.864-1.634-.628-.437-1.695-.704-2.657-.818-.993 0-2.4-.127-3.065.204-.795.283-1.078.726-1.433 1.433-.36.585-2.122 2.625-2.053 2.461 0-1.14 1.004-3.441.622-4.506-.543-1.078-.99-1.592-1.226-2.453-.644-.713-.877-1.484-1.635-2.045-.278-.782-.805-1.015-1.226-1.635-.909-.387-1.017-.773-2.25-.818-1.017 0-1.96.164-2.659.408-.76.209-1.399.49-1.838 1.022-.92.44-1.087.821-1.842 1.43-.524.369-1.17 1.164-1.43 1.842-.596.726-.085.93 0 2.045" stroke-width=".9934124999999999" fill="none"/><path stroke-linejoin="round" d="M343.298 227.94v-.206c0 .604.037.265-.612-.816-.413-.67-.845-1.2-1.637-2.045-.707-.83-1.19-.819-2.453-.819-.893 0-2.08-.084-2.657.204-.797.305-1.263 1.076-1.84 1.842-.647.898-1.291 1.547-1.635 2.249-.411.977-.79 1.396-1.023 2.249-.517.387-.493.8-1.227 1.022-.368-.667-1.043-1.065-1.43-1.637-.914-.315-2.127-1.208-3.068-1.838-.998-.665-1.912-1.039-2.86-1.637-.912-.316-1.487-.408-2.658-.408-1.285.058-1.88.355-2.863 1.022-.893.421-1.51 1.054-2.25 1.635-.72.5-3.671 4.837-4.41 5.446-.755.71 2.564-3.293 3.184-4.424.477-1.208.818-1.942.818-3.271-.233-1.672-.384-3.211-1.637-4.292-.98-.384-2.14-.604-3.475-.615-.935.128-1.412.414-2.453.615-.784.419-1.566.628-2.25 1.227-.654.402-1 .823-1.838 1.226-.408.599-1.014.848-1.43 1.43-.302.13-1.412 1.24-1.542 1.542" stroke-width=".9934124999999999" fill="none"/><path stroke-linejoin="round" d="M336.543 223.225h-.204c.602 0 .265.035-.816-.614-.561-.382-1.086-.87-1.637-1.43-1.15-.292-2.066-.83-3.272-1.023-1.022-.419-2.172-.816-3.065-1.023-.882 0-1.867-.005-2.453.204-.408.599-.882.946-1.226 1.637-.273.575-.464 1.52-.819 2.043-.024.818-.431 2.238-.924 2.567.455-.806 1.287-3 1.536-4.406-.315-1.5-.911-2.882-1.634-4.293-.798-.971-1.717-1.922-2.657-2.863-.946-.236-2.003-.204-3.068-.204-1.245 0-1.648.015-2.249.818-.583.46-1.097 1.27-1.635 1.635-.585.782-1.13 1.116-1.43 2.25a8.966 8.966 0 00-.819 2.25l.819-2.25a8.966 8.966 0 00-.819 2.25v.203c.255-.853.798-1.666.819-2.863 0-1.058.045-2.319-.204-3.067-.326-.808-.652-1.306-1.433-1.84-.954-.942-1.74-1.577-2.861-2.044-.914-.467-1.86-.538-2.864-.204-.999.42-1.396.781-1.838 1.43-.883.313-.98.687-1.023 1.84-.037 1.11-.185 2.008 0 2.863.138 1.168.474 1.906.819 2.863.445.688.961 1.096 1.226 1.838.273 0 1.235 1.478 1.235 1.751" stroke-width=".9934124999999999" fill="none"/><path stroke-linejoin="round" d="M335.537 222.404c0-.458-.414-2.808-.414-3.886 0-1.11-.19-1.586-.204-2.659 0-.743.196-2.36-.304-2.05.037 1.004.1 2.37.1 3.481-.291.818-.379 1.379-1.022 1.84-.663.442-1.696.408-2.861.408-.978-.106-2.212-.17-2.864-.612-1.049-.225-1.7-.535-2.453-1.022-.7-.398-1.28-.846-1.841-1.227-.236-.872-.662-1.094-.816-2.25-.464-1.066.615-3.587.32-3.879-.079 1.045-3.92 2.672-5.022 3.062-1.12.38-2.021.41-3.272.41-.832 0-1.7-.005-2.249-.205-.872-.636-1.311-1.045-2.045-1.636-.956-.732-1.677-1.136-2.657-2.044-.85-.807-1.298-1.548-1.839-2.25-.35-.757-.97-2.008-1.433-2.657-.108-.816-.204-1.616-.204-2.658v2.862c-.408.9-1.067 1.83-1.838 2.658-1.12.514-2 1.066-3.272 1.227-.707-.393-1.616-.723-2.249-1.022-1.065-.158-1.441-.48-2.045-1.227-.7-1.128-1.32-1.934-1.43-3.27-.313-.559.108-1.049.203-1.841 0-.44.101-.304.204-.613M273.6 197.87c-.063 1.234-1.851 2.754-2.256 3.685-.332 1.051-1.034 1.67-1.436 2.452-.973.551-1.773.775-2.864 1.227-1.497.053-2.707.363-4.292.408-1.282 0-3.163.358-3.78-.408-.86-.932-2.466-2.175-3.17-3.067-.703-.68.513-2.414.325-2.762M228.01 217.977c-.424 1.274-.885 5.449-2.461 7.904-.713.93-1.683 1.285-2.658 1.635-1.16.302-2.068.7-3.475.818-.986.377-1.531.406-2.453.204-.572-.116.069-1.218-.504-1.335.76.379.085 1.987.708 2.973.08 1.046.368 1.337.408 2.453 0 1.205-.045 2.323-.204 3.475-.106 1.052-.289 1.976-.408 2.861-.617.927.01.14-.81.607-.843.254-1.768.675-2.862.816a26.46 26.46 0 01-2.66.511c-1.115.662-.63.52 0 1.43.737.594.983.806 1.227 1.945.291.575-.31 2.996-.824 3.892-.09 1.062-.49 1.809-.614 2.86-.34 1.195-.49 2.501-.82 3.68-.203.782-.611 1.7-.815 2.66-.363.652-1.274 1.799-1.637 2.453-.58.358-2.01 1.123-2.662 1.436-.175.675 1.194.598 1.64 1.221.662.662.982 1.105 1.226 2.25.172 1.136.418 1.819.614 2.656-.13.888-.45 2.005-1.022 2.657-.313 1.176-.747 1.786-1.43 2.25-.658.611-1.55 1.093-2.454 1.226-.63.44-1.695.704-2.657.818-.339.286-2.029 1.574-2.463 1.749M300.78 217.09c-.23 0-1.488-.065-2.045-.205-.977-.57-2.055-.408-3.271-.408-1.079.205-1.791.384-2.247 1.022-.482.907-.803 1.587-.818 2.862.013 1.15.368 1.99.612 2.863.431.52.479 1.402.818 2.043 0 .41.514 1.952.514 2.36-.44-.985-1.351-3.5-1.74-4.813-.22-1.463-.38-2.136-1.431-2.861-1.385-1.129-2.087-1.742-3.68-2.045-1.107.178-1.963.906-2.863 1.43-.588.689-1.696 1.325-2.453 1.841-1.012.88-1.696 1.51-2.045 2.861 0 1.044.095 1.844.206 2.66.162.747.374 1.573.612 2.246.273 1.192.527 2.263.615 3.476.206.21.204 1.242.204 1.022-.49-.67-.758-1.56-1.023-2.453-.315-.895-.742-1.756-1.226-2.657-.935-.816-1.171-.887-2.453-1.226-.991 0-1.934.048-2.657.204-.45.37-1.187.723-1.638 1.226-.556.708-1.139 1.346-1.43 2.453 0 1.044.095 1.844.204 2.657v2.456-2.456 2.456" stroke-width=".9934124999999999" fill="none"/><path stroke-linejoin="round" d="M299.35 208.3h-.204c.57 0 .267.025-.819-.409-.543-.37-1.46-.475-2.045-.818-1.181-.043-2.116-.204-3.475-.204-1.198.108-1.444.6-1.635 1.84-.286.855-.204 1.884-.204 2.862-.071 1.088-.286 2.017-.41 3.067-.12.552.14 3.933-.099 4.413-.177-1.196-.935-4.503-1.332-5.435-.7-1.54-1.579-2.695-2.861-4.09-.946-.82-1.439-.615-2.66 0-1.176.152-1.42.415-2.042.819-.617.45-1.248 1.051-1.637 1.84-.652.515-1.028 1.203-1.227 2.044.069.898.34 1.732.615 2.453.19.37 2.069 4.292 2.26 4.62.214.355-1.783-3.206-2.464-3.802-.702-.686-1.388-.613-2.66-.613-1.63.203-2.98.446-4.292 1.226-.699.675-.943 1.277-1.433 1.841-.114.848-.336 1.64-.408 2.657.154 1.012.477 1.436 1.023 2.25.185.423 1.523 2.267 1.642 2.767-.786-.434-3.12-1.745-4.3-1.745-1.197.159-1.642.532-2.248 1.43-.427 1.052-.41 2.064-.41 3.272-.035 1.006-.205 1.812-.205 2.86 0 .411.413 4.939.413 5.347-.18-.763-.845-5.598-1.229-6.162-.426-.99-1.136-2.228-2.045-2.864-.654-.392-1.38-.153-2.045.204-.275.562-.964 1.67-1.43 2.25-.273 1.024-.6 1.303-.615 2.452.114.845 1.531 4.597 1.645 5.439 0 .302-1.37-3.436-1.441-3.598-.344-.826-.986-2.084-1.43-3.067-.708-.48-1.052-.964-1.84-1.43a11.851 11.851 0 00-2.044-1.227c-1.007-.286-1.902-.408-3.068-.408-.816.4-1.234.702-1.838 1.634-.286 1.03-.41 1.873-.41 3.068v3.065c.222.813.553 1.407 1.226 2.045.429.63 1.899 2.586 2.463 3.282.83.83-1.38-2.026-1.849-2.26-.84-.447-1.274-.685-2.249-.818-.577-.289-1.764-.204-2.657-.204-.97.334-2.355.54-3.068 1.023-1.144.429-2.119.49-2.453 1.43.043 1.232.281 1.9.615 2.864.506.935.837 1.642 1.43 2.246.408.602.872.975 1.635 1.23.363.532 2.347 1.607 2.872 2.251-.634-.381-2.69-.644-3.484-.413-.562.381-1.372 1.01-2.25 1.634-.887.702-.818 1.19-.818 2.456.074.975.294 1.571.615 2.247.331.702.652 1.202 1.022 2.045-.14.31 4.838 3.536 4.838 3.81M293.628 205.847h-.204c.601 0 .262-.035-.819.613-.924.309-1.825.462-2.657.205a31.032 31.032 0 00-3.68-.205c-.41-.307-.927-.162-1.226-.613-.832-.366-1.232-.607-1.433-1.43-.472-.788-.914-1.96-1.227-2.863-.445-.834-.779-1.44-1.226-2.453 0 1.25.212 2.337.41 3.475v3.067c-.51.967-.476 1.46-1.637 1.635-1.014 0-1.96-.165-2.657-.408-1.602-.389-3.324-.783-4.906-1.023-.67-.957-1.425-1.276-2.649-2.444" stroke-width=".9934124999999999" fill="none"/><path stroke-linejoin="round" d="M271.958 205.029c-1.012.276-1.981.115-2.657.817-.456.685-1.049.94-1.226 1.84-.631 1.225-.819 2.819-.819 4.498.233 1.178.927 2.294 1.637 3.067.368.6 1.25 1.872 1.844 2.764.596 1.175-.466-.354-1.232-.72-.99-1.13-2.244-2.216-3.68-2.453-1.565-.38-2.81-.522-4.291 0-1.044.514-1.269.998-1.433 2.249-.289.578-.204 1.763-.204 2.658.013 1.129.204 2.128.204 3.27.296.919.175 2.13.41 3.067.371.514.668 2.755.92 3.184-.257-1.274-.859-4.575-1.534-5.637-.498-.731-1.248-1.205-2.045-1.634a9.239 9.239 0 00-2.453-.615c-.996-.25-2.106-.252-2.861 0-1.198.424-1.603.739-2.046 1.634-.174.803-.476 1.762-.818 2.66-.069.914.003 3.94.003 5.025M258.872 205.233c0-.291-2.228.892-2.454 1.635-1.128.712-1.552 1.46-2.961 1.536-1.386.22-2.575.72-4.088.72h-5.317" stroke-width=".9934124999999999" fill="none"/><path stroke-linejoin="round" d="M252.116 208.708v.205c0-.602.035-.262-.614.818-.84 1.095-1.118 1.623-.819 3.066 0 1.183.167 2.132.207 3.271.59 1.404 1.35 3.347 1.838 4.497.506.922.342.437-.612.41-.993-.38-1.9-.41-3.067-.41-1.084 0-2.09.032-3.068.207-.768.511-1.523.837-2.453 1.226-.575.443-1.587.874-2.042 1.43-.218.647-.207 1.715-.207 2.658.114.837.286 1.483.614 2.045.604.911 1.174 1.526 2.046 2.453.463.442 1.21.917 1.838 1.43.633.191 2.05 1.026 2.461 1.436-.734-.503-3.433-2.246-4.3-3.07-1.92-.85-3.96-1.566-6.135-1.841-1.295.048-2.24.691-3.065 1.43-.553.795-.832 1.243-1.637 1.638-.633.776-1.28.651-1.43 1.838-.31.93-.03 1.597.204 2.66.386.977.805 2.08 1.226 2.86.62.607 1.004 1.095 1.637 1.842.766.667 1.23 1.144 2.045 1.43.493.472 1.85.973 2.562 1.227-.495.43-2.146.728-2.768 1.022-.901.763-1.524 1.293-2.043 1.839-.111.816-.206 1.616-.206 2.66-.048.847-.204 1.274-.204 2.246.416.593.975 1.703 1.637 2.25.567.653 1.263.918 1.838 1.432.408.173.66.416 1.023.612l-1.023-.612c.408.173 2.204.52 2.567.716" stroke-width=".9934124999999999" fill="none"/><path stroke-linejoin="round" d="M243.719 208.912c-.096 0-.681.682-1.227 1.227-.863.836-.932 1.39-1.43 2.658 0 1.262.008 2.107.818 2.862.488.883 1.245 1.678 1.839 2.453.707.686 1.017 1.242 1.433 2.045-.408-.6-1.216-1.259-1.841-2.25-.692-.496-1.357-1.398-2.25-2.044-1.215-.44-1.748-.581-2.86-.409-.943.629-1.932 1.08-2.66 1.84-.837.711-1.608.918-2.043 1.84-.656.469-.776.933-.818 2.045 0 1.306.289 1.868.614 3.065.554.962 1.034 1.87 1.431 2.456.32.262 1.378 1.703 1.54 1.539-.565-.34-1.837-1.558-2.767-1.746-.77.353-2.376.207-3.475.207-1.21 0-1.942.005-2.864.408-.821.312-1.775.736-2.657 1.43-1.1.38-1.727.798-1.838 2.045.18.994.62 1.166 1.43 2.046.896.943 1.722 1.941 2.861 2.657.509.736 1.775 1.669 2.25 2.249.58.265 3.6.201 2.47.201-.897.233-4.815.914-5.538 1.433-.906.866-1.11 1.661-1.227 3.068.074 1.269.408 2.31.615 3.475.516 1.057.67 1.86 1.226 2.658.44.678 1.492 1.68 2.045 2.045.882.357 2.239 1.025 3.272 1.43.546.199 1.468.416 2.246.612h-3.68c-.956.254-1.692.36-2.248.819-.845.283-1.047.741-1.635 1.226 0 1.12.12 1.757.615 2.453.132.896.633 1.765 1.226 2.25.48.76 1.206 1.422 1.839 1.84.824.718 1.19.885 2.045 1.227.927.125 1.746.477 2.657.612.464.384 1.664.615 2.25 1.022l-2.25-1.022c.464.384 1.664.615 2.25 1.022l1.027.31c-.954.146-2.413.189-3.481.713-1.457.448-2.898.742-3.476 1.635-.919.46-1.004.892-1.226 1.84-.085 1.185-.133 1.609.204 2.454a6.11 6.11 0 001.637 1.637c.604.506 1.772 1.47 2.657 1.838 1.017.588 1.725.883 2.453 1.227-.975.161-1.99.204-3.068.204-.665.39-1.192.405-1.634 1.022-.684.498-1.131.978-1.227 2.046-.296.884-.1 1.494.408 2.453.636.48 1.336 1.144 2.045 1.634.737.344 1.892.782 2.861 1.023.332.132 1.508.204.411.204-.524.27-1.619.206-2.453.206-1.07.096-1.486.488-2.25 1.023-.653.651-.977.792-1.022 2.042 0 1.16.104 1.661.612 2.25.538 1.128 1.03 1.48 1.841 2.044.69.419 1.802.58 2.861.612 1.259 0 2.485-.029 3.68.207.517 0 4.546.673 4.623.617" stroke-width=".9934124999999999" fill="none"/><path stroke-linejoin="round" d="M224.91 241.213c0 .06-.376.596-.612 1.226-1.02.771-1.038 1.452-2.249 1.635-.86.188-1.555.122-2.453 0-.366-.512-1.078-1.055-1.634-1.43-.464-.668-1.222-2.03-1.744-2.46M226.659 248.365c-.05.31-.991 2.014-1.126 2.66-.777.779-1.916 1.976-3.068 2.66-.866.204-1.502.508-2.657.612-.97.312-2.17.204-3.272.204-.895-.207-1.534-.58-2.453-1.023-.394-.487-2.821-2.52-3.486-2.972" stroke-width=".9934124999999999" fill="none"/><path stroke-linejoin="round" d="M225.546 251.094c0 .312-.458 4.707-1.025 6.678-.496.874-1.224 1.873-1.839 2.861-.657 1.102-1.04 1.704-2.249 2.25-1.359.51-2.707.614-4.294.614-1.015-.244-2.284-.885-3.476-1.227-.739-.503-1.719-1.104-2.453-1.637-.742-.612-1.626-1.168-2.048-2.045" stroke-width=".9934124999999999" fill="none"/><path stroke-linejoin="round" d="M229.414 269.028h-.204c.553 0 .27-.013-.819.204-1.383.204-2.257.08-3.476-.41-.882-.308-1.933-1.108-2.86-1.839-.851-.821-1.627-1.59-2.25-2.045a2.472 2.472 0 00-.818-1.634c0 1.03.092 1.918.206 2.86 0 1.153-.15 2.054-.41 3.068-.323 1.137-.774 1.558-1.635 2.453-1.224.255-2.307.408-3.68.408-1.475-.01-2.744-.249-4.09-.408-.739-.336-1.409-.683-2.045-1.022M229.122 269.214c-.731 2.283-3.306 3.467-3.79 4.095-1.158.281-2.146.602-3.476.615-1.195 0-1.328-.05-2.045-.615-1.185-.395-1.56-.718-2.046-1.43 0-.273.07-.204-.204-.204M231.665 281.294l-.204.204c.464-.464.241-.294-.204.818-.635 1.195-1.478 1.39-2.657 1.839-1.08-.162-1.502-.557-2.66-1.227-1.078-.604-1.894-1.64-2.656-2.657-.618-1.372-1.023-2.527-1.023-4.088-.283-.64-.381-1.425-.819-1.84v4.294c-.317.956-.36 1.703-.612 2.657-.17 1.245-.426 2.153-.818 3.067-.752 1.044-1.92 1.304-3.476 1.43-1.247.268-2.71.205-4.087.205-1.073-.127-1.717-.334-2.657-.612-1.084-.615-1.378-.803-2.25-1.841-.956-1.081-2.095-2.448-2.66-3.476-.322-1.144-.879-4.593-1.125-5.844 0-1.208.114 2.808.106 3.391-.297 1.83-.41 3.592-.41 5.52v3.27c-.213 1.353-.382 2.047-1.227 2.863-.59.663-1.698 1.487-2.25 1.839-.436.532-1.006.93-1.838 1.226-.898.493-1.756.697-2.66.819-.492.087-.837.39-1.226 0" stroke-width=".9934124999999999" fill="none"/><path stroke-linejoin="round" d="M232.301 290.062c-.485.705-1.412 2.286-2.254 2.461-.896.472-2.286.408-3.68.408-.983-.225-2.016-.172-2.453-.818-1.584-1.063-3.036-2.279-4.294-3.68a14.359 14.359 0 01-1.433-2.25c-.472-.16.058.472.206.82.745 1.093 1.235 2.196 1.43 3.475.263.978.263 2.28 0 3.065-.24 1.086-.56 1.857-1.43 2.66-.418.519-1.1.408-2.045.408-1.322-.167-2.379-.718-3.68-1.227-1.417-.837-2.01-1.08-2.656-2.453-.268-1.552-.427-3.176-.615-4.702-.027-.559-.04-2.813-.305-3.078-.291.76-.747 3.595-1.126 4.508-.24 1.314-.376 1.725-1.634 1.842-.668.325-1.59 0-2.66 0-.739-.252-1.216-.43-1.634-.819-.188-.347-.427-.469-.615-.819M234.95 292.526h-.204c.602 0 .239-.058-.41 1.02-.485.728-.636 1.624-.816 2.455.084 1.108.368 1.383.816 2.043 1.192.72 1.39 1.022 2.863 1.226 1.6.305 6.504-.106 8.101.202 1.256.18-3.547.924-4.013 1.025-.79.424-1.65.556-2.453 1.226-1.105.853-1.937 1.555-2.657 2.046-.207.789-.408 1.565-.408 2.657.278.696.651 1.327 1.022 2.045.755.794.988 1.253 2.043 1.637 1.621.058 3.221.19 4.906.204 1.637-.424 4.593-1.158 5.63-1.74.299 0-1.172.442-1.336.513-.686.342-1.364.867-2.249 1.635-.842.421-1.123.898-1.634 1.634-.533.684-.748 1.288-1.227 1.841-.143 1.052-.148 1.357.408 2.25.75 1.035.935 1.467 2.045 1.634a11.68 11.68 0 001.839 1.433c.49.223 3.515.244 3.29.61-.996.071-4.684.386-5.333.82-.834.295-1.078.65-1.226 1.635.042 1.168.26 1.45.815 2.25a4.327 4.327 0 001.638 1.43c.498.477 4.055 1.192 4.72 1.743.859.3-2.983-.31-3.698-.31-.58.289-1.764.204-2.66.204-.362.588-.831 1.144-1.226 1.838-.368.615-.085 1.33 0 2.045.535.575 1.274 1.8 1.637 2.454.673.458.835.86 1.839 1.226.413.453 4.153 1.889 4.829 1.952M243.321 332.183v.206c0-.604.059-.24-1.022.408-.498.618-1.272 1.306-1.635 1.839-.19.92.035 1.377.408 2.249.546.44 1.27 1.322 1.637 2.045.951.869 1.598 1.388 2.043 2.045.617.186 2.842 1.137 3.491 1.54-1.155-.017-4.016-1.055-5.126-1.132-1.356 0-1.97.154-2.863.615-.369.598-.777 1.11-1.02 1.838-.255.718-.5 1.404-.615 2.25-.283.879.01 1.36.408 2.044.713.575 1.015.951 1.841 1.227.591.527 1.298.803 2.453.818.509.255 2.668.101 3.283.101-.708.461-2.885.906-3.69 1.126-.642.329-1.428.567-1.842 1.023-.442.691-.776 1.112-.818 2.246.341.856.86 1.648 1.84 2.456.91 1.025 1 1.229 2.25 1.634 1.06.49 5.412.048 6.57.098-1.026.154-5.516 1.404-6.57 2.151-.745.53-.784 1.129 0 1.839.503.898 1.08 1.361 2.045 1.637 1.11 0 1.584-.19 2.657-.204.943.111 4.405-.106 5.436-.106-.792.448-4.874.993-6.05 1.129-1.023.352-1.444.384-1.635 1.43 0 .943-.111 1.624.408 2.045.53.935.842 1.007 2.045 1.02.593.358 1.404.045 2.25 0H258.574M256.99 379.178c.618 0-6.32-8.867-9.157-7.929-1.306.223-2.154.241-2.657 1.227-.734.73-1.463 1.968-1.841 3.065-.098 1.107-.268 1.994 0 3.067.188.808.665 1.664.818 2.657.225.44.5 1.396.204 1.841-.146-.699-.352-1.133-.614-2.045-.242-1.555-.385-3.221-.612-4.702-.639-.482-1.402-1.242-2.25-1.84-1.152-.165-2.156-.197-3.067 0-.755.661-1.039 1.183-1.839 1.636-.657.217-2.336.363-3.274.408" stroke-width=".9934124999999999" fill="none"/><path stroke-linejoin="round" d="M218.79 294.99c.07 0-.042-.056.82 1.022.5.374.67.736 1.43 1.227.874.662 1.804 1.022 3.067 1.226 1.248.419 2.578.599 3.884.816 1.126 0 2.262.019 3.272-.204 1.17 0 1.775-.167 2.86-.204l.825-.31M235.771 306.434v.206c0-.553-.013-.27.204.816 0 1.232-.19 1.563-.614 2.25-.893.646-1.892.85-3.065 1.226-1.505-.066-2.806-.334-4.09-.816-.991-.821-1.407-1.386-2.046-2.66-.664-2.024-1.205-3.581-1.226-5.725 0-1.181.032-2.082-.612-2.657-.313-.31-.344.533-.615 1.023-.09 1.23-.622 1.952-1.226 3.068-.745.717-1.616 1.55-2.657 2.249-1.076.238-1.452.42-2.453.204a53.676 53.676 0 00-2.045-2.25c-.25-.956-.96-2.113-1.43-3.271-.44-1.1-.936-2.04-1.023-3.272-.411-1.13-.329-.975-.612.204-.6 1.296-.774 2.146-1.434 3.272-.855.665-1.64 1.253-2.86 1.637-1.428.215-2.36.109-3.68-.207-.996-.357-1.476-.797-2.045-1.634-.633-.623-.888-1.057-1.023-2.045-.416-.678-.866-2.146-1.226-3.065-.406-.493-.697-1.441-.819-2.25-.283-.232-.46-.667-.612-1.022" stroke-width=".9934124999999999" fill="none"/><path stroke-linejoin="round" d="M242.818 310.301c-.03.395-.453 3.116-.922 3.897-.556 1.168-.765 1.59-2.045 1.635-1.269-.204-2.26-.843-3.272-1.635-.845-1.068-1.68-1.873-2.246-3.065-.615-.506-.548-.797-.408 0 .652.668.596.646.612 1.839v3.067a7.515 7.515 0 01-.41 2.453c-.387 1.081-.835 1.619-1.84 2.453-1.165.26-1.358-.164-2.248-.818-1.092-.443-1.518-.843-2.25-1.43-.58-.58-1.178-1.288-1.636-2.046-.11-.816-.204-1.616-.204-2.657 0-1.022.823-3.486.823-4.509-.156-1.25-.99 1.06-1.64 1.852-.527 1.01-1.197 1.796-1.84 2.25-.859.797-2.189 1.16-3.476 1.43-1.21 0-2.186-.186-3.272-.411-.712-.985-.961-1.54-1.43-2.453 0-1.274.185-2.146.408-3.269.214-1.065.5-2.895.514-3.995 0-1.11-.191 1.208-.514 1.746-.268 1.21-.549 1.274-1.43 2.042-1.06.143-2.115.207-3.272.207-1.24 0-2.369.109-3.476.408-.763-.268-1.166-1.343-1.635-2.25-.264-.794-.4-1.549-.408-2.656 0-1.055-.243-1.674-.41-2.453-.466 1.038-.888 1.12-2.043 1.226-.672 0-1.47.074-1.84-.206-.4-.655-.939-1.259-1.227-1.839l1.226 1.839c-.4-.655-1.865-2.7-2.153-3.28" stroke-width=".9934124999999999" fill="none"/><path stroke-linejoin="round" d="M244.354 318.09c0 .196-.108 1.303-.203 1.84-.369.846-.49 1.611-.615 2.658a7.494 7.494 0 01-.408 2.453c-.474.649-1.038 1.006-1.635 1.43-1.382 0-1.79-.127-2.863-.816a38.313 38.313 0 00-2.453-1.84c-.586-.986-1.195-1.757-1.841-2.658l-.721-.72c-.416-.87.461.482.72 1.539.31 1.078.411 2.029.411 3.269-.037 1.306-.273 2.395-.41 3.682-.554 1.094-.575 1.333-1.839 1.43-1.335 0-2.61-.018-3.883-.203-1.259-.194-2.205-.54-3.272-1.227-.273-.713-.41-1.613-.41-2.66.015-1.245.304-2.291.41-3.475.437-1.192.604-1.947 1.022-3.065.334-.448.528-.933.612-1.637-.182 1.269-.858 2.164-1.226 3.271-.65 1.219-1.674 2.47-2.25 3.68-.778.747-1.059 1.044-1.838 1.43-.922-.137-1.343-.484-2.045-.816-.4-.588-.877-.93-1.226-1.84-.647-.912-.806-1.32-.819-2.658 0-.824.066-2.249 0-2.453-.085-.26-1.075-3.825-1.335-3.91M216.142 314.805c-.318.204-1.659.588-2.657.612h-3.68c-1.195-.109-1.084-.56-1.433-1.43a10.824 10.824 0 01-.612-3.069c-.178-.988-.694-1.083-.821-1.936-.588.381-.618-.117-1.632.098-1.407.215-2.535.514-3.886.816-1.264.175-2.406.395-3.68.41-1.19 0-2.122.114-2.657-.614-.342-.686-.397-1.637-.408-2.657 0-1.15.127-2.262.408-3.068.418-.776.959-1.602 1.634-2.249a5.452 5.452 0 011.434-1.43c.42-.62.948-.853 1.226-1.635.49-.405.737-1.033 1.023-1.637" stroke-width=".9934124999999999" fill="none"/><path stroke-linejoin="round" d="M188.511 302.248c.366.085 3.084.689 3.69 1.128 1.005.56 1.397 1.195 2.043 1.839.323.683.538 1.306.819 2.25.156.778.204 1.816.204 2.863-.382.628-.742 1.674-1.023 2.453-.421.622-.797 1.03-1.634 1.43-.986.758-2.69 1.441-4.09 2.045-.944.112-1.831.204-2.862.204-1.022 0-2.148.618-3.17.618-.989 0-2.403-.128-3.066.204-.302 0-.156.047-.41-.204M217.572 322.99c-.082 0-.644.657-1.226 1.02-.483.816-.684 1.293-1.227 2.25-.352.956-.538 1.692-.612 2.66v2.86c.01 1.073.204 1.547.204 2.657v5.724-2.86 2.86M220.01 325.851c0 .411-.247 3.778-.003 4.51.066 1.239.416 1.933.818 2.86.639.496 1.486 1.632 2.25 2.453.614.618 1.236 1.002 2.248 1.227 1.185.236 2.125.41 3.065.206.771-.336 1.945-.996 2.864-1.433.419-.911 1.025-1.939 1.43-3.065.35-1.078.377-2.193.409-1.84.434.352 1.247 1.324 1.637 1.84.866.522 1.716 1.137 2.453 2.043.765.853 2.002.57 3.173.61" stroke-width=".9934124999999999" fill="none"/><path stroke-linejoin="round" d="M222.473 340.766c0-.069 2.408 3.086 3.277 3.086.946.236 2.016.374 3.068.41 1.255-.015 2.22-.328 3.271-.818.85-.9.612-2.241.612-3.68v-3.067c-.024-.837-.28-1.494-.408-2.25.188 1.328.827 2.433 1.227 3.68.455.986 1.886 4.597 3.269 4.809.627.76 1.229.368 1.84-.514 1.108-.726 1.392-4.13 1.842-4.703 0-.574.148-.532.204-1.022" stroke-linecap="round" stroke-width=".9934124999999999" fill="none"/><path stroke-linejoin="round" d="M222.05 348.528c0 .069 1.589 1.406 2.67 2.055 1.117.843 1.295 1.023 2.66 1.023.924-.175 1.294-.887 2.042-1.637 1.043-1.017 1.284-1.83 1.022-3.27-.04-1.114-.344-2.895-.612-2.45.472.618.911 1.518 1.227 2.04.42.623.72 1.06 1.634 1.227.538.455 1.314.747 2.25.818.495.371 1.13.244 1.43-.204.689-.31 1.202-.62 1.637-1.022.196-.65.538-1.05.816-1.635" stroke-width=".9934124999999999" fill="none"/><path stroke-linejoin="round" d="M237.6 347.733v.204c0-.551-.014-.273.203.816.07 1.184.207 2.223.207 3.476-.297 1.226-.49 2.11-1.227 2.863-.694.347-1.92.188-2.863 0-1.235-.556-4.461-2.869-4.906-3.883-.302-.175 2.667 2.069 3.067 2.657.461.71.8 1.237 1.02 2.045.199.593.342 1.9.207 2.246-.17 1.116-.56 1.084-1.433 1.433-.885.22-1.86.204-2.861.204-.912-.124-1.423-.418-2.25-.614l-.31-.207" stroke-linecap="round" stroke-width=".9934124999999999" fill="none"/><path stroke-linejoin="round" d="M241.493 356.713v1.023c-.238.943-.347 1.788-.614 2.453-.201 1.152-.697 1.203-1.43 1.841-.907.225-1.937.241-2.658 0-1.292-.773-1.965-1.187-2.863-2.249-.898-.898.384.514.818 1.227.708.625 1.126 1.07 1.227 2.249.243 1.221.291 1.738-.41 2.453-.507.726-1.272 1.094-2.454 1.43h-2.861c-1.08-.24-.975-.556-1.43-1.226M244.46 362.86c.05.389-.015 2.113-.103 3.067-.792 1.317-.79 1.375-2.249 1.841-1.179.16-2.395.204-3.68.204-.863-.302-1.494-.882-2.045-1.841-.805-.604-.254.238 0 .819.427 1.107.787 1.827 1.023 3.067.071.845.52 1.105-.408 1.227-1.033.291-2.114.408-3.272.408-.892-.122-1.896-.096-2.662-.305" stroke-width=".9934124999999999" fill="none"/><path stroke-linejoin="round" d="M237.387 369.72c.075.353.467 1.044 1.026 1.534.408.85.953 1.198 1.634 1.635.72.408 1.242.803 2.045 1.022 1.134 0 1.627-.214 2.453-.408 1.232-.42 1.272-.635 1.841-1.433.392-.638.686-1.08.816-2.042.294-.588.199-1.656 0-2.25-.082-1.08-.537-1.448-.816-2.248-.291-.098-.384-.819-.617-1.129M209.386 315.626c-.069.069-.135.138-.204.204.485-.485.286-.252-.818.41-.996.268-1.402.583-1.839 1.227-.932.514-1.579.972-1.84 2.045v2.861c-.223.745-.205 2.014-.205 3.068 0 1.11-.13 2.032-.204 3.065.143.667.54 1.624.31 2.254-.077-.893-.514-2.093-.514-3.07-.373-.543-.784-1.754-1.226-2.25-.591-.51-1.195-.736-2.25-1.022-1.088-.363-1.809-.225-2.452.408-.47.49-1.036 1.301-1.434 2.25-.222 1.123-.572 1.745-.612 2.86-.23 1.073-.407 1.722-.203 2.66v3.065c0 .954.206 2.22.206 3.174-.13 1.512-.49-.236-.821-.72-.22-1.026-.442-1.86-1.023-2.454-.514-.62-1.364-.816-2.453-.816-1.043 0-1.626-.244-1.838.612-.302.604-.355 1.976-.41 2.864V344.043c-.176-1.086-.6-1.579-1.227-2.453-.713-.821-1.282-1.039-2.657-1.227-1.336-.323-1.995-.198-3.068.41-1.028 1.005-1.706 1.347-1.839 2.454-.415.5-.503 1.438-.614 2.249v3.065c0 .57-.843-.62-1.43-1.43-.687-.944-1.095-1.185-2.25-1.227-.784.403-2.344.999-3.065 1.634-.522.422-.41 1.102-.41 2.046v2.863c-.056.71-1.118.71-1.635.204-.757-.373-1.754-.887-2.657-1.022-.779-.369-1.428-.453-2.045-.204-.318 1.033-.615 1.849-.615 3.065-.312.84-.408 1.454-.408 2.453" stroke-width=".9934124999999999" fill="none"/><path stroke-linejoin="round" d="M214.5 322.381c-.07 0 2.744-.927 2.675-.927.572 0-2.612.9-3.698 1.335-.827.302-1.72 1.197-2.453 2.045-1.683 1.502-3.72 3.765-5.317 5.52-1.478 1.484-2.53 2.499-3.476 4.088-2.042 1.62-3.555 3.171-5.314 5.113-1.878 1.404-3.733 2.753-5.52 4.292-1.791.895-3.373 1.698-5.317 2.453-1.738.58-3.238 1.35-4.907 2.045-.887.691-1.396.99-2.453 1.43-1.61.925-3.451 1.635-4.702 2.454-.612.415-1.036.97-2.045 1.433-.644.752-1.489 1.06-2.453 1.634a89.142 89.142 0 01-3.68 1.227c-1.417.485-2.296.89-3.68 1.43-3.758 1.317-7.602 2.827-11.448 3.476-1.102.403-2.213.736-3.27.818-1.553.562-3.48.589-5.112.819-1.047.276-2.361.61-3.271.816-1.052.289-2.08.535-2.862.819-1.05.121-2.226.42-3.067.614-.996.294-1.419.59-2.249.816-.466.405-2.405 1.958-2.871 2.36M185.068 316.845c.119.392.41 1.629.41 2.66-.167.974-.365 2.193-.818 2.86-.366.917-1.54 1.78-2.25 2.453-.82.18-1.554.347-2.452.615-1.055.077-3.444 2.384-4.61 2.469-.68.135-1.523.201-2.456.201-.291-.307-.389-.132-.816-.302.687.49.477.657.612 1.733 0 1.091.763 2.177.62 3.17-.251 1.209-1.295 2.676-2.14 3.153-1.033.641-1.942 1.036-3.068 1.433-1.007.035-1.814.204-2.86.204-.682 0-1.22-.037-1.638-.204M195.902 310.513V311.74c.268 1.34.464 2.275 1.431 3.271.683.917 1.775 1.635 2.861 2.25h3.068c.736-.128 2.376.127 3.179.103M198.34 317.268c-.07.067.48-.174.413-.106.511-.514-.34.045-1.436.922-1.232 1.047-1.762 1.508-2.045 3.068.016 1.174.265 1.51.615 2.249.257.911.755 1.754 1.43 2.25.273 0 .204.068.204-.205M184.962 322.17c0 .097.959.5 1.332 1.022 1.044.665 2.371 1.849 3.68 2.657 1.274.424 2.458.119 3.68-.408.813-.215 1.414-.509 2.044-1.227l.207-.206" stroke-width=".9934124999999999" fill="none"/><path stroke-linejoin="round" d="M188.75 325.454c-.538.951-1.351 1.52-1.433 2.657 0 1.047.137 1.945.41 2.657.382.707.83 1.82 1.43 2.453.374.612.758 1.129 1.227 1.43-.363-1.003-1.282-1.782-2.249-2.656-.376-.43-.818-.612-1.226-.204-1.05.074-1.762.336-2.453.614-1.15.4-2.114.933-2.861 1.43-.75.774-.819 1.2-.819 2.454-.098 1.298-.204 2.546-.204 3.883.315.26.379.453.408 1.023-.222-.858-.675-2.193-1.226-2.861-.49-.686-.846-.805-2.046-.819-1.038.191-1 .702-1.634 1.227-.62.898-1.05 1.181-1.43 2.25-.499 1.165-.615 2.15-.615 3.475.273 0 .614 2.127.614 1.854" stroke-width=".9934124999999999" fill="none"/><path stroke-linejoin="round" d="M179.531 325.454v.204c0-.546.04-.26-.615.612-.283.962-.408 1.494-.408 2.66.154 1.179.591 1.796.819 2.86.8.954 1.118 1.397 2.042 1.842.281.28.644.379.82.204M173.809 332.792h-.204c.053.135 0 .911 0 1.43 0 .978-.082 2.009.204 2.864.204.832 1.356 1.147 1.846 1.637M163.186 337.905c0 .069.41-.48.41-.413 0-.57-.386.35-.818 1.435-.964 1.147-1.671 2.05-2.864 3.272-1.255.392-2.05 1.152-3.271 2.045-1.333.755-2.631 1.192-3.884 1.839-1.368.574-2.954.99-4.497 1.43-1.373.506-2.97.88-4.498 1.023-1.038.357-2.185.609-3.271.818-1.273.443-2.674.972-3.885 1.43-.942.327-1.464.515-2.249 1.023-1.23.424-2.429 1.243-3.68 1.841-.448.54-1.671 1.288-2.453 2.043-1.275.683-2.577 1.844-3.884 2.453-1.507.962-3.013 1.754-4.702 2.25-1.348.64-2.67 1.117-3.885 1.84-.919.625-1.861 1.523-2.862 2.25-.623.916-1.409 1.6-2.249 2.248-.662 1.224-1.744 2.165-2.657 3.065-.545.371-1.176.962-1.636 1.434-.628.646-1.231 1.223-1.84 1.634-.6.744-.938.999-1.84 1.43-.562.578-1.259.745 0 .82 1.169-.374 2.594-.377 3.884-.409 1.27-.275 2.746-.418 4.09-.614 1.14-.146 2.486-.371 3.883-.408 1.488.249 3.678-.4 5.316-1.023a290.488 290.488 0 013.885-2.249c.746-.52 1.392-.752 2.248-1.227.742-.2 1.438-.606 2.25-.818M168.696 336.474c0 .252.085 1.465.204 2.045.395 1.264.92 2.234 1.839 3.065.712.419 2.185.308 3.377.308M164.405 337.507c-.162 0-.101.483-.408 1.023 0 1.054.143 2.133.408 2.861 1.353.633 2.286.943 3.883 1.023.975-.075 1.523-.324 2.25-.612.638-.133-.215.492-.82 1.02-.855.858-1.242 1.584-.815 2.863.429.896 3.743 2.019 4.313 2.562" stroke-width=".9934124999999999" fill="none"/><path stroke-linejoin="round" d="M160.113 341.799c-.207.954-.236 1.505.41 2.246.557.461 1.384.411 2.454.411 1.822-.098 3.486-.41 5.314-.41.86 0-.707.116-1.023.206-1.028.36-1.557.474-2.249 1.02-1.091.448-1.64.959-2.657 1.841-.41.61-.59 1.402-.204 2.045.403.594.912 1.02 1.635 1.43.765.594.948.923 2.045 1.023h.408" stroke-width=".9934124999999999" fill="none"/><path stroke-linejoin="round" d="M157.358 343.653c-.095.387-.514 1.02-.514 2.04.085 1.089.35 1.38 1.023 1.839.559.46 1.385.41 2.453.41h1.226c-.583.342-1.5.448-2.042.816-.644.44-.96.845-1.227 1.841-.016 1.142-.196 1.56 0 2.657.445.835.694 1.45 1.227 2.25.4.588 2.432 1.782 3.181 2.047M151.734 346.912c-.187.86-.121 1.555 0 2.453.483.54.849 1.24 1.431 1.634.576.477 2.4.188 3.483.202.86.024 1.338.204.204.204-.546.522-2.17 1.163-2.46 2.254-.294.588-.199 1.653 0 2.25.08 1.04.386 1.414.613 2.246.549.574.8.892 1.635 1.229l-1.635-1.23c.549.575.8.893 1.635 1.23v.204c-.109-.255-.183-.464-.408-.615" stroke-linecap="round" stroke-width=".9934124999999999" fill="none"/><path stroke-linejoin="round" d="M145.093 348.448c-.49.729-.77.98-.514 1.94.535.746 1.094 1.536 1.84 2.045 1.187 1.078 7.619-.456 8.534-.318.278.28-7.793 1.592-8.33 3.383-.221.73-.303 1.952 0 2.863.015 1.174.264 1.51.614 2.25.282.593.489.995 1.227 1.226-.273 0-.205.066-.205-.207" stroke-linecap="round" stroke-width=".9934124999999999" fill="none"/><path stroke-linejoin="round" d="M137.22 350.991c-.289.896.057 1.304.408 2.046.49.733 1.338 1.68 2.045 2.145.413.239 7.118-.312 6.995-.312-.752.262-6.887 1.843-8.017 2.46-.423.822-.41 1.519-.41 2.658.083 1.073.159 1.534 1.023 1.84.577.287 1.699.35 2.453.409l1.442.31" stroke-linecap="round" stroke-width=".9934124999999999" fill="none"/><path stroke-linejoin="round" d="M131.498 353.35c0 .224-.334 1.204-.208 1.938.287.67.137 1.113.613 1.43.174.986.459 1.649 1.432 1.842 1.07 0 1.895.05 2.453-.41.842-.369 1.343-.69 2.044-1.02l-2.044 1.02c.842-.369 1.343-.69 2.044-1.02l3.81-1.134c-.63.458-4.675 2.103-5.445 2.36-.576.548-1.044.638-1.227 1.634-.121.898-.187 1.593 0 2.453.528.504.972.949 1.431 1.431" stroke-linecap="round" stroke-width=".9934124999999999" fill="none"/><path stroke-linejoin="round" d="M127.2 356.104c-.105.236-.613 1.147-.613 2.043.1 1.096.428 1.282 1.023 2.045h2.862c.796.143 3.106-.827 3.998-.827-.897.196-3.135 1.404-3.59 2.053-.55.22-.55.549-.613 1.227-.316.53-.195 1.51 0 2.045.386.567.842 1.068 1.227 1.634" stroke-width=".9934124999999999" fill="none"/><path stroke-linejoin="round" d="M122.09 358.965c0 .302.077 1.63.205 2.25.791.611 1.286 1.017 2.249 1.634 1.004.04 5.15-1.852 6.262-1.852.792 0-4.013 2.175-4.218 2.262-.412.67-.735.978-.818 2.046-.372.62-.113 1.552 0 2.246.328.506.66.755 1.227 1.022-.272 0-.204.07-.204-.203" stroke-width=".9934124999999999" fill="none"/><path stroke-linejoin="round" d="M116.774 361.64c0 .07.013-.065-.205 1.023-.4.535-.05 1.036.41 1.434.586.789 1.526.98 2.452 1.226.914.162 1.846.204 2.863.204.773 0 3.703-1.923 4.107-2.265-.677.273-3.98 2.403-4.925 2.673-1.145.525-1.452.964-1.84 2.045.043 1.166.363 1.447.818 2.25.413.765 2.185-.062 2.871.394" stroke-width=".9934124999999999" fill="none"/><path stroke-linejoin="round" d="M112.89 364.9v.203c0-.601.035-.262-.613.819-.207.95-.27 1.483.409 2.045.501.739.852 1.078 1.84 1.226.32.138 5.326-2.678 5.862-2.678-.806.551-6.443 3.802-6.884 4.723-.387.8-.41 1.476-.41 2.454M107.576 370.224c0 1.07-.051 1.894.41 2.453.112.935 2.08.999 2.772 1.327" stroke-width=".9934124999999999" fill="none"/></g></svg>