<svg xmlns="http://www.w3.org/2000/svg" height="480" width="640"><defs><clipPath id="a" clipPathUnits="userSpaceOnUse"><path fill-opacity=".67" d="M0 0h682.6v512H0z"/></clipPath></defs><g fill-rule="evenodd" clip-path="url(#a)" transform="matrix(.93759 0 0 .9375 0 0)"><path fill="#b20000" d="M.001 0h1024v340.11H.001z"/><path fill="#429f00" d="M.001 340.11h1024V512H.001z"/><path fill="#fff" d="M.001 0h113.37v512H.001z"/><g stroke-width="1pt" fill="#b20000"><path d="M5.394 8.682h5.398v8.679H5.394zM21.59 8.682h16.196v8.679H21.59zM26.983 0h5.398V8.68h-5.398zM53.981 0h5.398V8.68h-5.398zM75.57 8.682h16.197v8.679H75.57zM80.98 0h5.398V8.68H80.98z"/><path d="M16.196 17.36h10.798v8.68H16.196zM32.392 17.36H43.19v8.68H32.392zM70.177 17.36h10.798v8.68H70.177zM86.373 17.36h10.798v8.68H86.373zM10.787 26.04h10.798v8.678H10.787zM37.786 26.04h10.797v8.678H37.786zM64.784 26.04H75.58v8.678H64.784zM91.767 26.04h10.797v8.678H91.767zM102.569 8.682h5.398v8.679h-5.398zM5.394 34.718h10.798v8.678H5.394zM43.18 34.718h10.797v8.678H43.179zM97.175 34.718h10.798v8.678H97.175zM10.787 60.75h10.798v8.679H10.787zM16.196 69.429h10.798v8.678H16.196zM37.786 60.75h10.797v8.679H37.786zM32.392 69.429H43.19v8.678H32.392zM21.59 78.107h16.196v8.678H21.59z"/><path d="M26.983 86.784h5.398v8.679h-5.398zM64.784 60.752H75.58v8.678H64.784z"/><path d="M70.177 69.429h10.798v8.678H70.177zM91.767 60.75h10.797v8.679H91.767zM86.373 69.429h10.798v8.678H86.373zM75.57 78.107h16.197v8.678H75.57z"/><path d="M80.98 86.784h5.398v8.679H80.98zM53.981 78.107h5.398v8.678h-5.398zM0 78.107h5.398v8.678H0zM107.963 78.107h5.398v8.678h-5.398zM26.983 121.497h5.398v8.678h-5.398z"/><path d="M21.59 130.174h16.196v8.678H21.59zM16.196 138.852H43.19v8.678H16.196zM80.98 121.497h5.398v8.678H80.98z"/><path d="M75.57 130.174h16.197v8.678H75.57zM70.177 138.852h26.994v8.678H70.177zM75.57 182.242h26.994v8.678H75.571zM64.784 147.53h37.79v8.679h-37.79zM10.787 147.53h37.79v8.679h-37.79zM16.196 190.92h16.196v8.678H16.196zM10.787 182.242h26.994v8.678H10.787zM86.373 164.886h26.994v8.678H86.373zM80.98 190.92h16.195v8.678H80.98z"/><path d="M21.59 199.597h5.398v8.679H21.59zM86.373 199.597h5.398v8.679h-5.398zM0 164.886h26.994v8.678H0zM48.588 182.242h16.196v8.678H48.588zM53.981 190.92h5.398v8.678h-5.398zM37.786 164.886h37.79v8.678h-37.79zM59.375 34.718h10.798v8.678H59.375z"/><path d="M48.588 43.395h16.196v8.678H48.588z"/><path d="M43.18 52.073h10.797v8.679H43.179zM59.375 52.073h10.798v8.679H59.375zM0 43.395h10.798v8.678H0z"/><path d="M5.394 52.073h10.798v8.679H5.394zM102.569 43.395h10.798v8.678h-10.798z"/><path d="M97.175 52.073h10.798v8.679H97.175zM0 130.174h5.398v8.678H0zM107.963 130.174h5.398v8.678h-5.398zM48.588 199.597h16.196v8.679H48.588zM43.18 208.276h10.797v8.678H43.179zM59.375 208.276h10.798v8.678H59.375zM37.786 216.954h10.797v8.678H37.786zM64.784 216.954H75.58v8.678H64.784z"/><path d="M32.392 225.631H43.19v8.678H32.392zM70.177 225.631h10.798v8.678H70.177zM26.983 234.31h10.798v8.678H26.983zM75.57 234.31H86.37v8.678H75.57z"/><path d="M16.196 242.987h16.196v8.678H16.196zM80.98 242.987h16.195v8.678H80.98z"/><path d="M91.767 234.31h10.797v8.678H91.767zM97.175 225.631h10.798v8.678H97.175z"/><path d="M102.569 216.954h10.798v8.678h-10.798zM10.787 234.31h10.798v8.678H10.787zM5.394 225.631h10.798v8.678H5.394z"/><path d="M0 216.954h10.798v8.678H0zM21.59 251.665h5.398v8.678H21.59zM86.373 251.665h5.398v8.678h-5.398zM53.981 225.631h5.398v8.678h-5.398zM37.786 251.665h5.398v8.678h-5.398zM70.177 251.665h5.398v8.678h-5.398zM53.981 251.665h5.398v8.678h-5.398zM0 251.665h5.398v8.678H0zM107.963 251.665h5.398v8.678h-5.398zM53.981 130.174h5.398v8.678h-5.398zM26.983 43.395h5.398v8.678h-5.398zM80.98 43.395h5.398v8.678H80.98zM48.588 104.141h16.196v8.678H48.588z"/><path d="M37.786 112.818H53.98v8.679H37.786zM43.18 121.497h5.397v8.678H43.18z"/><path d="M32.392 104.141H43.19v8.678H32.392zM37.786 95.463H53.98v8.678H37.786z"/><path d="M43.18 86.784h5.397v8.679H43.18zM59.375 95.463H75.57v8.678H59.375z"/><path d="M64.784 86.784h5.398v8.679h-5.398zM70.177 104.141h10.798v8.678H70.177z"/><path d="M59.375 112.818H75.57v8.679H59.375zM64.784 121.497h5.398v8.678h-5.398zM86.373 104.141h10.798v8.678H86.373zM91.767 95.463h16.196v8.678H91.767zM102.569 104.141h10.798v8.678h-10.798z"/><path d="M91.767 112.818h16.196v8.679H91.767zM97.175 121.497h5.399v8.678h-5.399zM97.175 86.784h5.399v8.679h-5.399zM0 104.141h10.798v8.678H0zM5.394 95.463H21.59v8.678H5.394zM16.196 104.141h10.798v8.678H16.196z"/><path d="M5.394 112.818H21.59v8.679H5.394zM10.787 121.497h5.398v8.678h-5.398zM10.787 86.784h5.398v8.679h-5.398zM5.394 156.208h21.594v8.678H5.394zM32.392 156.208h21.594v8.678H32.392zM59.375 156.208h21.594v8.678H59.375zM86.373 156.208h21.594v8.678H86.373zM43.18 173.563h26.993v8.679H43.179zM5.394 173.563h26.993v8.679H5.394zM80.98 173.563h26.993v8.679H80.98zM107.963 208.276h5.398v8.678h-5.398zM0 208.276h5.398v8.678H0zM5.394 503.327h5.398v-8.678H5.394zM21.59 503.327h16.196v-8.678H21.59z"/><path d="M26.983 511.997h5.398v-8.678h-5.398zM53.981 511.997h5.398v-8.678h-5.398zM75.57 503.327h16.197v-8.678H75.57z"/><path d="M80.98 511.997h5.398v-8.678H80.98zM16.196 494.645h10.798v-8.678H16.196zM32.392 494.645H43.19v-8.678H32.392zM70.177 494.645h10.798v-8.678H70.177zM86.373 494.645h10.798v-8.678H86.373zM37.786 485.963h10.797v-8.678H37.786zM64.784 485.963H75.58v-8.678H64.784zM91.767 485.963h10.797v-8.678H91.767zM102.569 503.327h5.398v-8.678h-5.398zM5.394 477.293h10.798v-8.678H5.394z"/><path d="M43.18 477.293h10.797v-8.678H43.179zM97.175 477.293h10.798v-8.678H97.175zM10.787 451.26h10.798v-8.68H10.787zM16.196 442.577h10.798V433.9H16.196zM37.786 451.26h10.797v-8.68H37.786zM32.392 442.577H43.19V433.9H32.392zM21.59 433.895h16.196v-8.678H21.59z"/><path d="M26.983 425.225h5.398v-8.678h-5.398zM64.784 451.26H75.58v-8.68H64.784zM70.177 442.577h10.798V433.9H70.177zM91.767 451.26h10.797v-8.68H91.767zM86.373 442.577h10.798V433.9H86.373zM75.57 433.895h16.197v-8.678H75.57z"/><path d="M80.98 425.225h5.398v-8.678H80.98zM53.981 433.895h5.398v-8.678h-5.398zM0 433.895h5.398v-8.678H0zM107.963 433.895h5.398v-8.678h-5.398zM26.983 390.51h5.398v-8.679h-5.398z"/><path d="M21.59 381.84h16.196v-8.679H21.59zM16.196 373.158H43.19v-8.679H16.196zM80.98 390.51h5.398v-8.679H80.98z"/><path d="M75.57 381.84h16.197v-8.679H75.57zM70.177 373.158h26.994v-8.679H70.177zM75.57 329.772h26.994v-8.679H75.571zM64.784 364.475h37.79v-8.678h-37.79zM10.787 364.475h37.79v-8.678h-37.79zM16.196 321.09h16.196v-8.682H16.196zM10.787 329.772h26.994v-8.679H10.787zM86.373 347.124h26.994v-8.679H86.373zM80.98 321.09h16.195v-8.679H80.98zM0 347.124h26.994v-8.679H0zM48.588 329.772h16.196v-8.679H48.588zM53.981 321.09h5.398v-8.679h-5.398zM37.786 347.124h37.79v-8.679h-37.79zM59.375 477.293h10.798v-8.678H59.375zM48.588 468.611h16.196v-8.678H48.588zM43.18 459.93h10.797v-8.68H43.179zM59.375 459.93h10.798v-8.68H59.375zM0 468.611h10.798v-8.678H0zM5.394 459.93h10.798v-8.68H5.394zM102.569 468.611h10.798v-8.678h-10.798zM97.175 459.93h10.798v-8.68H97.175zM0 381.84h5.398v-8.679H0zM107.963 381.84h5.398v-8.679h-5.398zM43.18 303.738h10.797v-8.679H43.179zM59.375 303.738h10.798v-8.679H59.375zM37.786 295.056h10.797v-8.679H37.786zM64.784 295.056H75.58v-8.679H64.784zM32.392 286.374H43.19v-8.679H32.392zM70.177 286.374h10.798v-8.679H70.177z"/><path d="M26.983 277.704h10.798v-8.679H26.983zM75.57 277.704H86.37v-8.679H75.57zM16.196 269.022h16.196v-8.679H16.196zM80.98 269.022h16.195v-8.679H80.98zM91.767 277.704h10.797v-8.679H91.767z"/><path d="M97.175 286.374h10.798v-8.679H97.175zM102.569 295.056h10.798v-8.679h-10.798zM10.787 277.704h10.798v-8.679H10.787z"/><path d="M5.394 286.374h10.798v-8.679H5.394zM0 295.056h10.798v-8.679H0zM21.59 260.343h5.398v-8.678H21.59zM53.981 286.374h5.398v-8.679h-5.398zM53.981 381.84h5.398v-8.679h-5.398zM26.983 468.611h5.398v-8.678h-5.398zM80.98 468.611h5.398v-8.678H80.98zM48.588 407.873h16.196v-8.678H48.588zM37.786 399.191H53.98v-8.678H37.786zM43.18 390.51h5.397v-8.679H43.18zM32.392 407.873H43.19v-8.678H32.392z"/><path d="M37.786 416.543H53.98v-8.678H37.786zM43.18 425.225h5.397v-8.678H43.18zM59.375 416.543H75.57v-8.678H59.375zM64.784 425.225h5.398v-8.678h-5.398z"/><path d="M70.177 407.873h10.798v-8.678H70.177zM59.375 399.191H75.57v-8.678H59.375zM64.784 390.51h5.398v-8.679h-5.398zM86.373 407.873h10.798v-8.678H86.373z"/><path d="M91.767 416.543h16.196v-8.678H91.767z"/><path d="M102.569 407.873h10.798v-8.678h-10.798zM91.767 399.191h16.196v-8.678H91.767zM97.175 390.51h5.399v-8.679h-5.399zM97.175 425.225h5.399v-8.678h-5.399zM0 407.873h10.798v-8.678H0z"/><path d="M5.394 416.543H21.59v-8.678H5.394z"/><path d="M16.196 407.873h10.798v-8.678H16.196zM5.394 399.191H21.59v-8.678H5.394zM10.787 390.51h5.398v-8.679h-5.398zM10.787 425.225h5.398v-8.678h-5.398zM5.394 355.806h21.594v-8.679H5.394zM32.392 355.806h21.594v-8.679H32.392zM59.375 355.806h21.594v-8.679H59.375zM86.373 355.806h21.594v-8.679H86.373zM43.18 338.442h26.993v-8.679H43.179zM5.394 338.442h26.993v-8.679H5.394zM80.98 338.442h26.993v-8.679H80.98zM107.963 303.738h5.398v-8.679h-5.398zM0 303.738h5.398v-8.679H0zM48.588 260.343h5.398v8.679h-5.398zM59.375 260.343h5.398v8.679h-5.398zM59.375 242.987h5.398v8.678h-5.398zM48.588 242.987h5.398v8.678h-5.398zM10.787 477.293h10.798v8.679H10.787zM86.373 312.408h5.398v-8.679h-5.398zM21.59 312.408h5.398v-8.679H21.59zM48.585 303.734H64.78v8.677H48.585z"/></g></g></svg>