<svg xmlns="http://www.w3.org/2000/svg" height="480" width="640"><defs><clipPath id="a" clipPathUnits="userSpaceOnUse"><path fill-opacity=".67" d="M0 0h640v480H0z"/></clipPath></defs><g clip-path="url(#a)"><path fill-rule="evenodd" fill="#c60000" d="M-40 0h720v480H-40z"/><path fill-rule="evenodd" fill="#003bb2" d="M-40 68.571h720v342.86H-40z"/><path d="M457.137 239.998c0 75.743-61.403 137.143-137.142 137.143-75.743 0-137.142-61.403-137.142-137.143 0-75.743 61.402-137.142 137.142-137.142 75.743 0 137.142 61.403 137.142 137.142z" fill-rule="evenodd" fill="#fff"/><g stroke="#000" fill-rule="evenodd"><path d="M0 318.04c6.927 1.019 14.391 1.206 23.312 0 7.405 1.994 12.863 5.647 18.317 8.326 3.057 5.665 7.339 13.999 11.656 18.316 1.874 6.872 4.641 9.755 8.326 16.652.918 6.795 3.182 13.617 0 19.981-3.796 4.745-9.758 7.515-14.986 9.991-6.902 3.688-10.937 5.046-19.982 6.661-7.444 1.329-15.03 1.665-23.312 1.665-8.013-1.431-14.192-2.757-21.647-3.33-7.414-1.324-15.898-2.007-23.312-3.331-4.813-2.815-11.026-5.126-16.651-6.66-3.907-3.725-9.56-7.953-14.986-11.656-4.19-7.502-8.004-10.206-11.656-16.652-3.316-4.876-4.89-11.169-4.996-19.981 2.625-5.344 6.961-10.53 9.991-14.986 5.197-3.433 11.072-7.989 18.316-11.656 9.784-.346 13.604-3.214 23.312-3.331h24.977c5.652.566 8.442 5.584 13.321 9.991z" transform="matrix(.19914 0 0 .17035 345.244 141.57)" stroke-width="3.75" fill="#030"/><path d="M273.08 659.39c-6.66-38.298-16.652-133.21-16.652-174.84 1.665-31.639 121.56-139.87 124.89-151.53 3.33-11.656 64.94-99.909 74.931-126.55-24.977 18.316-66.606 98.243-74.931 106.57-8.326 8.326 18.316-83.257 9.991-111.56-8.326 33.303-21.647 118.22-31.638 126.55-4.995 4.996-91.583 104.9-101.57 101.57-9.991-3.33-36.633-19.981-31.637-29.972 4.995-9.991 71.601-71.601 74.931-93.248s8.326-73.266 14.986-78.261c6.661-4.996 16.652-29.973 24.977-49.955-21.646 9.991-24.977 39.964-33.302 41.629-8.326 1.665-28.308-33.303-28.308-33.303s13.321 38.298 14.986 46.624c1.666 8.326-6.66 63.275-11.656 69.936-4.995 6.661-41.628 53.284-48.289 54.949-6.66 1.666-24.977-76.596-24.977-91.582s13.321-73.266 0-76.597c-8.326 0-9.991 68.271-14.986 68.271-4.996 0-16.652-68.27-16.652-68.27s-6.659 31.637-3.33 53.283c-9.991 1.666-36.633-39.962-36.633-39.962s49.954 86.587 59.946 89.917c9.99 4.995 19.981 68.271 18.316 71.601s-49.954-16.651-59.945-23.312c-9.991-6.66-29.973-79.927-29.973-79.927s9.991 71.601-1.665 61.611c-11.656-9.991-29.972-18.317-39.963-33.303-9.99-14.986-4.995-76.597-4.995-76.597s-16.651 54.95-23.312 54.95c-6.661 0-28.307-73.266-28.307-73.266s3.33 79.927 13.32 84.922c9.991 4.995 159.85 104.9 161.52 114.9 1.666 9.99 19.983 48.288 29.974 59.944-1.666 21.647 6.66 161.52 9.99 194.82l29.973 9.991z" transform="matrix(.19914 0 0 .17035 278.923 126.253)" stroke-width="1pt" fill="#520900"/><path d="M-338.02 133.21c1.849 6.416 2.528 12.146 11.656 14.986 5.054 1.925 15.007 4.529 19.982 6.661 5.242 2.483 11.14 5.593 18.316 6.66 5.394 1.798 14.58 3.65 21.647 4.996 7.443 1.329 15.029 1.665 23.312 1.665 9.557-1.707 13.811-3.429 19.981-8.326 1.851-6.786 4.343-9.832 4.996-18.317.567-7.944 1.665-14.819 1.665-23.311-1.541-4.623-1.789-15.359-3.33-19.982-5.577-5.466-7.051-8.649-16.652-11.656-7.476-3.382-14.307-3.33-23.312-3.33-6.961 2.32-15.344 1.665-23.312 1.665h-23.311c-6.973 1.516-12.292 2.762-18.317 6.66-8.133 3.673-9.338 6.317-13.321 14.987-2.934 8.8-3.036 15.415 0 26.642z" transform="matrix(.19914 0 0 .17035 343.254 135.897)" stroke-width="3.75" fill="#030"/><path d="M-329.7 191.49c0-2.781-6.02 2.689-8.326 4.995-5.392 3.774-7.647 8.815-8.326 18.317-2.502 5.189 0 13.714 0 21.646 0 9.181.062 15.585 4.996 19.982 5.598 3.445 8.289 4.995 18.316 4.995h46.624c5.896-1.965 13.091-2.953 19.982-4.995 7.705-4.085 13.071-4.517 21.646-6.661 4.883-4.237 11.635-8.599 19.982-9.99 9.547-.455 15.257-3.788 21.647-8.326 8.216-2.054 15.635-6.365 21.647-9.991 4.837-3.289 8.309-7.415 11.656-13.321 3.396-7.925 4.482-12.895-1.665-21.647-12.143-4.415-6.108-9.191-14.987-13.321-4.062-2.453-13.524-5.673-18.316-8.326-8.293.615-14.192 2.679-23.312 3.331-4.71 2.355-14.368 1.665-21.647 1.665h-26.642c-7.968 0-16.35-.656-23.312 1.665-6.667 1.818-9.985 4.842-16.651 6.66-4.393 2.987-11.507 5.411-16.652 8.326l16.652-8.326c-4.393 2.987-11.507 5.411-23.312 13.322z" transform="matrix(.19914 0 0 .17035 342.26 137.6)" stroke-width="3.75" fill="#030"/><path d="M-186.5 49.949c3.314 0-5.2 3.98-8.326 6.66-4.011 7.064-4.474 13.423-6.661 19.982-2.565 5.772-5.726 13.067-6.66 19.983-3.139 7.493-4.878 10.224-4.996 19.98 0 7.678-.09 16.38 1.665 21.647 5.049 6.362 9.899 9.976 18.317 14.986 7.207 2.495 12.49 3.984 19.982 4.996h23.312c5.267 1.756 13.969 1.665 21.646 1.665 8.493-3.172 11.709-7.208 19.982-8.326 9.115-.828 10.687-4.642 14.986-11.656 3.998-5.168 5.674-11.013 6.66-18.316 0-8.399-.75-15.628-1.665-23.312-4.006-4.494-7.052-10.696-9.99-18.316-5.146-8.82-5.152-12.739-13.321-16.65-3.976-5.431-10.848-8.07-14.987-11.657-8.651-.618-15.218-1.694-21.646-4.995-7.678 0-16.38-.09-21.647 1.665-6.032 0-10.447.57-16.651 1.665z" transform="matrix(.19914 0 0 .1453 343.918 141.036)" stroke-width="3.75" fill="#030"/><path d="M-58.28 64.935c-.987 0-4.077 4.824-6.66 9.99-4.344 6.916-4.925 13.316-8.326 18.317-1.33 7.443-1.665 15.028-1.665 23.312.755 8.314 3.196 11.323 8.325 14.987 7.713 4.38 11.367 6.41 19.982 8.325 7.447.573 12.8 1.665 21.647 1.665 7.968 0 16.35.656 23.312-1.665 8.283 0 15.87-.336 23.312-1.665 3.823-3.24 12.04-6.141 16.651-8.325 5.482-6.642 8.106-13.245 11.656-18.317 0-9.822.078-15.564-4.995-23.312-3.621-6.388-7.961-9.321-13.322-14.986-6.718-2.337-12.38-7.196-19.982-8.326H-58.28z" transform="matrix(.19914 0 0 .17035 342.591 135.33)" stroke-width="3.75" fill="#030"/><path d="M76.596 76.591c-6.286 2.619-8.59 3.3-11.656 9.99-4.62 7.116-7.342 10.463-11.656 14.987-.99 6.664-3.643 13.879-6.66 18.317-.915 7.684-1.666 14.913-1.666 23.312 4.222 6.486 10.085 12.603 16.651 16.65 6.79 2.352 13.95 5.933 19.982 8.327 7.766 2.033 14.951 4.398 23.312 4.995 7.217 1.805 15.164 1.665 23.312 1.665 7.404-1.61 13.75-3.478 19.981-8.325 3.333-5.196 7.156-11.045 8.326-19.982 2.754-8.263.54-19.061-3.33-26.642-2.039-7.477-5.016-10.373-13.32-14.987-4.596-4.854-10.703-10.322-14.988-13.321-5.28-4.584-12.142-5.153-19.98-8.326-8.493-1.887-11.338-4.33-19.983-4.995l19.982 4.995c-8.488-1.886-11.333-4.33-28.304-6.66z" transform="matrix(.19914 0 0 .17035 340.602 141.854)" stroke-width="3.75" fill="#030"/><path d="M-51.619 146.53c-7.618 3.463-11.162 7.635-16.651 13.321 0 8.846 1.092 14.2 1.665 21.647 3.466 4.734 7.144 14.249 9.991 18.316 2.172 6.812 6.92 12.137 9.99 16.652 7.691 3.112 15.496 5.441 23.313 8.325 9.198 0 15.098 2.06 23.312 3.331 6.962 2.32 15.344 1.665 23.312 1.665 8.147 0 16.094-.139 23.312 1.665 7.703 1.369 13.396 4.361 21.647 4.995 4.739-.451 13.136-1.138 19.982-1.665 7.667-3.485 10.982-5.707 14.987-11.656 3.752-4.542 3.33-11.267 3.33-19.981 1.602-8.972 2.092-15.007-1.665-23.312-.108-8.961-1.817-13.172-3.331-21.647-3.005-6.01-5.646-8.651-11.656-11.656-5.464-3.808-12.863-5.998-18.316-9.991-7.433-.885-15.76-2.05-21.647-3.33-6.51-4.341-11.933-6.545-21.647-6.661-9.514-1.132-13.996-2.263-21.647 1.665-7.989.571-15.15 2.169-19.982 4.996-6.144.472-15.283.981-19.982 3.33-7.414 0-9.987 1.288-16.651 1.665l16.65-1.665c-7.413 0-9.986 1.288-18.315 9.991z" transform="matrix(.25188 0 0 .13201 337.902 146.949)" stroke-width="3.75" fill="#030"/><path d="M-123.22 278.07c-4.299-.632-17.278-1.665-26.642-1.665-8.747 0-15.86.58-23.312 3.33-7.975 1.537-13.883 4.047-19.982 6.661-5.053 2.393-10.953 4.83-14.986 8.325-4.955 3.369-9.13 6.335-13.321 13.321-4.476 6.422-4.944 10.559-8.326 18.317v23.312c.587 7.633 1.64 14.23 4.995 21.647 5.022 4.017 11.977 5.282 18.317 6.66 6.029 1.311 13.875 2.775 21.647 3.33 9.239 0 14.16.466 21.646 3.331 9.747-.361 11.606-2.628 19.982-6.661 9.314-3.692 14.861-5.061 23.312-9.991 5.173-4.079 8.578-10.984 11.656-18.316 4.689-7.575 7.91-14.886 11.656-21.647 1.804-7.218 1.665-15.164 1.665-23.312-2.22-6.258-5.752-8.905-9.991-14.986-4.616-5.049-6.672-8.946-9.991-13.321l9.991 13.321c-4.616-5.049-6.672-8.946-18.316-11.656z" transform="matrix(.19914 0 0 .17035 344.25 138.734)" stroke-width="3.75" fill="#030"/><path d="M0 318.04c6.927 1.019 14.391 1.206 23.312 0 7.405 1.994 12.863 5.647 18.317 8.326 3.057 5.665 7.339 13.999 11.656 18.316 1.874 6.872 4.641 9.755 8.326 16.652.918 6.795 3.182 13.617 0 19.981-3.796 4.745-9.758 7.515-14.986 9.991-6.902 3.688-10.937 5.046-19.982 6.661-7.444 1.329-15.03 1.665-23.312 1.665-8.013-1.431-14.192-2.757-21.647-3.33-7.414-1.324-15.898-2.007-23.312-3.331-4.813-2.815-11.026-5.126-16.651-6.66-3.907-3.725-9.56-7.953-14.986-11.656-4.19-7.502-8.004-10.206-11.656-16.652-3.316-4.876-4.89-11.169-4.996-19.981 2.625-5.344 6.961-10.53 9.991-14.986 5.197-3.433 11.072-7.989 18.316-11.656 9.784-.346 13.604-3.214 23.312-3.331h24.977c5.652.566 8.442 5.584 13.321 9.991z" transform="matrix(.25544 0 0 .14248 350.637 136.542)" stroke-width="3.75" fill="#030"/></g><g fill-rule="evenodd" stroke="#000" stroke-width="3.711" fill="#006a00"><path d="M200.16 613.18l4.71-7.064-12.952-2.355 9.42-9.419-12.952-4.71 12.952-9.419-12.952-7.065 14.129-5.887-7.064-11.774 14.129 2.355-5.887-14.13 16.484 7.065v-18.839l11.774 12.952 9.419-16.484 7.065 15.306 14.129-16.484 4.71 12.952 21.193-10.597-5.887 16.484 22.371-9.419-4.71 18.839 21.194-9.42-8.242 17.662 21.194 1.177-17.662 10.597 17.662 7.064-16.484 9.42 14.129 11.774c-45.135 20.801-79.673 27.473-131.87 9.419z" transform="matrix(.16472 -.01235 .00824 .1518 294.243 194.227)"/><path d="M200.16 613.18l4.71-7.064-12.952-2.355 9.42-9.419-12.952-4.71 12.952-9.419-12.952-7.065 14.129-5.887-7.064-11.774 14.129 2.355-5.887-14.13 16.484 7.065v-18.839l11.774 12.952 9.419-16.484 7.065 15.306 14.129-16.484 4.71 12.952 21.193-10.597-5.887 16.484 22.371-9.419-4.71 18.839 21.194-9.42-8.242 17.662 21.194 1.177-17.662 10.597 17.662 7.064-16.484 9.42 14.129 11.774c-45.135 20.801-79.673 27.473-131.87 9.419z" transform="matrix(.16472 -.01235 .00824 .1518 255.207 193.094)"/><path d="M200.16 613.18l4.71-7.064-12.952-2.355 9.42-9.419-12.952-4.71 12.952-9.419-12.952-7.065 14.129-5.887-7.064-11.774 14.129 2.355-5.887-14.13 16.484 7.065v-18.839l11.774 12.952 9.419-16.484 7.065 15.306 14.129-16.484 4.71 12.952 21.193-10.597-5.887 16.484 22.371-9.419-4.71 18.839 21.194-9.42-8.242 17.662 21.194 1.177-17.662 10.597 17.662 7.064-16.484 9.42 14.129 11.774c-45.135 20.801-79.673 27.473-131.87 9.419z" transform="matrix(.16472 -.01235 .00824 .1518 315.932 193.659)"/><path d="M200.16 613.18l4.71-7.064-12.952-2.355 9.42-9.419-12.952-4.71 12.952-9.419-12.952-7.065 14.129-5.887-7.064-11.774 14.129 2.355-5.887-14.13 16.484 7.065v-18.839l11.774 12.952 9.419-16.484 7.065 15.306 14.129-16.484 4.71 12.952 21.193-10.597-5.887 16.484 22.371-9.419-4.71 18.839 21.194-9.42-8.242 17.662 21.194 1.177-17.662 10.597 17.662 7.064-16.484 9.42 14.129 11.774c-45.135 20.801-79.673 27.473-131.87 9.419z" transform="matrix(.16022 -.04662 .0311 .14765 288.976 212.412)"/><path d="M200.16 613.18l4.71-7.064-12.952-2.355 9.42-9.419-12.952-4.71 12.952-9.419-12.952-7.065 14.129-5.887-7.064-11.774 14.129 2.355-5.887-14.13 16.484 7.065v-18.839l11.774 12.952 9.419-16.484 7.065 15.306 14.129-16.484 4.71 12.952 21.193-10.597-5.887 16.484 22.371-9.419-4.71 18.839 21.194-9.42-8.242 17.662 21.194 1.177-17.662 10.597 17.662 7.064-16.484 9.42 14.129 11.774c-45.135 20.801-79.673 27.473-131.87 9.419z" transform="matrix(.16472 -.01235 .00824 .1518 330.391 202.72)"/><path d="M200.16 613.18l4.71-7.064-12.952-2.355 9.42-9.419-12.952-4.71 12.952-9.419-12.952-7.065 14.129-5.887-7.064-11.774 14.129 2.355-5.887-14.13 16.484 7.065v-18.839l11.774 12.952 9.419-16.484 7.065 15.306 14.129-16.484 4.71 12.952 21.193-10.597-5.887 16.484 22.371-9.419-4.71 18.839 21.194-9.42-8.242 17.662 21.194 1.177-17.662 10.597 17.662 7.064-16.484 9.42 14.129 11.774c-45.135 20.801-79.673 27.473-131.87 9.419z" transform="matrix(.16472 -.01235 .00824 .1518 314.006 204.422)"/><path d="M200.16 613.18l4.71-7.064-12.952-2.355 9.42-9.419-12.952-4.71 12.952-9.419-12.952-7.065 14.129-5.887-7.064-11.774 14.129 2.355-5.887-14.13 16.484 7.065v-18.839l11.774 12.952 9.419-16.484 7.065 15.306 14.129-16.484 4.71 12.952 21.193-10.597-5.887 16.484 22.371-9.419-4.71 18.839 21.194-9.42-8.242 17.662 21.194 1.177-17.662 10.597 17.662 7.064-16.484 9.42 14.129 11.774c-45.135 20.801-79.673 27.473-131.87 9.419z" transform="matrix(.16472 -.01235 .00824 .1518 238.82 193.094)"/><path d="M200.16 613.18l4.71-7.064-12.952-2.355 9.42-9.419-12.952-4.71 12.952-9.419-12.952-7.065 14.129-5.887-7.064-11.774 14.129 2.355-5.887-14.13 16.484 7.065v-18.839l11.774 12.952 9.419-16.484 7.065 15.306 14.129-16.484 4.71 12.952 21.193-10.597-5.887 16.484 22.371-9.419-4.71 18.839 21.194-9.42-8.242 17.662 21.194 1.177-17.662 10.597 17.662 7.064-16.484 9.42 14.129 11.774c-45.135 20.801-79.673 27.473-131.87 9.419z" transform="matrix(.16022 -.04662 .0311 .14765 211.861 211.848)"/><path d="M200.16 613.18l4.71-7.064-12.952-2.355 9.42-9.419-12.952-4.71 12.952-9.419-12.952-7.065 14.129-5.887-7.064-11.774 14.129 2.355-5.887-14.13 16.484 7.065v-18.839l11.774 12.952 9.419-16.484 7.065 15.306 14.129-16.484 4.71 12.952 21.193-10.597-5.887 16.484 22.371-9.419-4.71 18.839 21.194-9.42-8.242 17.662 21.194 1.177-17.662 10.597 17.662 7.064-16.484 9.42 14.129 11.774c-45.135 20.801-79.673 27.473-131.87 9.419z" transform="matrix(.16472 -.01235 .00824 .1518 253.28 202.156)"/><path d="M200.16 613.18l4.71-7.064-12.952-2.355 9.42-9.419-12.952-4.71 12.952-9.419-12.952-7.065 14.129-5.887-7.064-11.774 14.129 2.355-5.887-14.13 16.484 7.065v-18.839l11.774 12.952 9.419-16.484 7.065 15.306 14.129-16.484 4.71 12.952 21.193-10.597-5.887 16.484 22.371-9.419-4.71 18.839 21.194-9.42-8.242 17.662 21.194 1.177-17.662 10.597 17.662 7.064-16.484 9.42 14.129 11.774c-45.135 20.801-79.673 27.473-131.87 9.419z" transform="matrix(.16472 -.01235 .00824 .1518 236.893 203.853)"/><path d="M200.16 613.18l4.71-7.064-12.952-2.355 9.42-9.419-12.952-4.71 12.952-9.419-12.952-7.065 14.129-5.887-7.064-11.774 14.129 2.355-5.887-14.13 16.484 7.065v-18.839l11.774 12.952 9.419-16.484 7.065 15.306 14.129-16.484 4.71 12.952 21.193-10.597-5.887 16.484 22.371-9.419-4.71 18.839 21.194-9.42-8.242 17.662 21.194 1.177-17.662 10.597 17.662 7.064-16.484 9.42 14.129 11.774c-45.135 20.801-79.673 27.473-131.87 9.419z" transform="matrix(-.33465 -.01399 .01898 -.15171 399.813 380.192)"/></g><path d="M356.34 196.48c0 22.512-18.995 6.66-38.298 6.66-19.302 0-36.632 17.517-39.962.001 0-9.192 25.655-23.313 44.957-23.313 14.308 1.666 36.634-4.196 33.303 16.652z" fill-rule="evenodd" transform="matrix(.2731 0 0 .30077 278.558 210.98)" stroke="#000" stroke-width="2.5" fill="#510800"/><path d="M356.34 196.48c0 22.512-18.995 6.66-38.298 6.66-19.302 0-36.632 17.517-39.962.001 0-9.192 25.655-23.313 44.957-23.313 14.308 1.666 36.634-4.196 33.303 16.652z" fill-rule="evenodd" transform="matrix(-.2731 0 0 .30077 369.707 209.612)" stroke="#000" stroke-width="2.5" fill="#ffc600"/><path d="M349.68 188.16c0 13.794-7.082 24.977-15.819 24.977-8.736 0-15.819-11.183-15.819-24.977s7.082-24.977 15.819-24.977c8.736 0 15.819 11.183 15.819 24.977z" fill-rule="evenodd" transform="matrix(.33683 0 0 .32859 277.827 205.293)" stroke="#000" stroke-width="2.5" fill="#520900"/><g fill-rule="evenodd" stroke="#000" stroke-width="1pt" transform="matrix(-.6243 -.11733 -.37075 .62366 523.736 93.658)"><path d="M273.75 383.58c-2.737 4.561 42.976 12.952 57.694 22.371 14.719 9.42 14.718 10.008 21.194 14.718l1.765-2.944c-3.532-3.532-38.494-26.356-62.403-34.145-6.805-2.273-10.3-13.248-12.951-8.83l-5.299 8.83z" transform="matrix(-.72328 -.54505 .52 -.75812 322.39 677.92)" fill="#af8000"/><path d="M319.08 369.45l-25.315-5.887s-5.887 2.354-6.475 11.185c-.589 8.831 4.709 14.129 4.709 14.129l27.081-9.419V369.45z" transform="matrix(.84438 -.2975 .28383 .88505 -89.238 -64.18)" fill="gray"/><rect ry="3.532" rx="3.532" transform="matrix(.84438 -.2975 .28383 .88505 -19.207 -255.61)" height="19.428" width="7.064" y="534.62" x="175.71" fill="gray"/></g><path d="M244.77 87.419c7.322-5.947 11.157-3.718 17.649 3.102 9.323 9.814 41.318 58.854 46.313 63.017s4.241-6.417 10.344-1.387c3.032 3.727-10.437 17.026-13.737 14.57-6.411-5.02 3.915-5.375-.354-9.644-4.925-5.133-51.215-40.497-60.282-50.57-5.92-6.578-6.314-13.97.067-19.088z" fill-rule="evenodd" transform="matrix(.71479 .16043 .33275 .52894 132.425 68.156)" stroke="#000" stroke-width="1.25" fill="#923d09"/><g stroke="#000"><path d="M193.63 88.249c15.546 4.424 43.275 46.12 53.766 45.791 16.652-.481 83.233-77.561 72.564-88.252-7.399-8.246-67.939 41.192-71.852 44.126-.67-8.601-15.95-51.042-28.31-59.945-14.62-9.31-32.21-4.157-47.82-6.661-7.3-2.843-18.84-14.056-23.78-24.976 8.182-3.544 15.323-2.479 23.311-10.651 5.679-6.642 2.381-46.913.37-51.059-13.291-14.268 5.429-7.327-39.024-9.082-64.268-2.446-75.878 49.582-31.653 70.792C97.74 14.26 86.983 17.926 78.263 19.978c-8.777.106-38.826-.763-55.546 12.489-33.403 24.552-8.925 30.904-15.352 35.8-7.173 5.645-17.868 19.827-21.888 28.307-10.472 4.996-99.485-4.995-116.5-1.664-16.42.965-56.467 15.818-73.15 26.64 3.565 14.143 241.51-7.602 249.27-2.496 5.946 3.345-2.705 51.237 2.011 54.949 1.66 9.063 116.54 5.829 125.6 5.829 7.557-18.86 15.39-81.558 20.925-91.583z" fill-rule="evenodd" transform="matrix(-.12847 0 0 .20444 282.003 186.258)" stroke-width="4.702" fill="#ffc600"/><path d="M174.9-96.568c1.543 25.457-7.118 3.304-38.369 3.304-60.56-5.035-39.286 99.196-39.286 67.025-26.227-13.71-44.834-100.29 29.616-96.93 23.538 0 44.958 7.857 48.044 26.602z" fill-rule="evenodd" transform="matrix(-.15416 0 0 .14343 285.619 187.117)" stroke-width="5.125"/><path d="M387.98 96.574c0 1.68-.172 7.957-.833 11.656-.445 3.74-1.539 8.077-2.498 10.823-.342 4.452-2.091 5.174-2.497 9.991-1.544 2.27-2.209 5.944-2.498 9.991 0 4.27.686 7.558.833 11.656.481 3.56 1.612 6.366 1.665 10.823 0 4.365-.005 7.549-1.665 9.991v5.828" transform="matrix(-.202 0 0 .20444 353.209 179.875)" stroke-width="3.75" fill="none"/><path d="M383.81 76.592c.58 0 1.029 20.129 5.828 24.978 1.039 3.212 4.574 7.343 5.828 9.99 1.672 2.459 3.981 5.368 8.326 6.661h11.656c4.634 0 7.473.055 10.823-1.665 1.485-.8 2.531-1.846 3.33-3.331M442.09 115.72h.832c-2.327 0-1.092-.104 3.331 1.665 1.725 2.537 3.768 3.625 6.66 4.996 2.982 1.467 6.391 1.665 10.823 1.665 4.198-.354 6.74-1.686 9.159-3.331 4.043-1.308 4.815-2.935 5.828-7.493v-11.656c-.478-3.53-1.384-6.372-2.498-9.158-.419-1.258-.833-.705-.833-2.497M510.36 121.55c-.425 0-2.65 2.575-4.163 4.995-2.568.918-3.233 3.716-4.162 5.828-.669 2.675-1.666 2.859-1.666 6.661-1.677 3.708-2.204 7.007-2.497 10.823l2.497-10.823c-1.677 3.708-2.204 7.007-2.497 10.823M461.24 54.946h-.833c2.249 0 1.099-.053-3.33.833-1.817 2.27-4.807 4.305-7.493 5.827-2.977 1.825-5.367 4.01-8.326 4.996l8.326-4.996c-2.977 1.825-5.367 4.01-8.326 4.996M402.13 51.615h.833c-2.248 0-1.105-.054 3.33.833 2.936 1.39 4.752 2.89 7.493 4.995 1.291 1.935 3.257 2.305 4.163 5.828 1.574.847 2.124 1.67 2.498 4.163M427.11 29.968h4.163c4.529 0 6.733.681 10.824.833 3.538-.425 4.382-1.738 7.493-2.498M442.93 133.21c.139.661 1.652 4.256 2.498 5.828 1.517 2.512 3.538 4.914 4.163 8.326.968 2.905 1.526 6.23 1.665 9.99.761 3.503 1.264 6.62-.833 9.159-.898 3.292-2.57 5.692-4.162 9.158-1.111 0-.833-.278-.833.833M416.28 134.87v.833c0-2.248.055-1.105-.832 3.33-1.147 4.013-2.15 7.388-4.163 9.991-1.098 3.294-2.326 4.504-2.498 9.158.662 1.544.833 3.263.833 5.828M412.12 169.01v4.163c.908 1.211.55 1.294 1.665 1.665M343.02 128.21v.832c0-2.327-.258-.936 4.163.833 3.572.638 7.937 1.037 10.823 1.665 2.672 1.312 5.265 3.48 7.493 4.995 1.994 1.728 4.819 3.48 7.494 4.996 3.004 1.502 4.325 2.823 5.828 5.828.907 1.21.549 1.293 1.665 1.665" transform="matrix(-.202 0 0 .20444 353.209 179.875)" stroke-width="3.75" fill="none"/><path d="M423.78-16.655c.123-.184 2.467-1.914 4.996-2.498 1.805-1.354 4.812-.74 6.66 0" transform="matrix(-.31553 0 0 .20444 403.227 180.598)" stroke-width="3" fill="none"/><path d="M445.42-19.153h.833c-2.248 0-1.106.054 3.33-.833 3.481-1.16 7.672-.832 11.656-.832 1.174.391.832.242.832 1.665M444.59-7.497v.833c0-2.327-.103-1.091 1.666 3.33.643 2.962 1.76 7.05.832 9.158-2.184 0-2.859-.274-4.163-.833" transform="matrix(-.24541 0 0 .20444 373.514 180.598)" stroke-width="3.402" fill="none"/><path d="M371.33-24.981c0 3.219-4.1 5.828-9.158 5.828s-9.158-2.61-9.158-5.828 4.1-5.828 9.158-5.828 9.158 2.61 9.158 5.828z" fill-rule="evenodd" transform="matrix(-.24178 -.03507 -.02406 .11509 350.644 199.07)" stroke-width="4.501"/><path d="M371.33-24.981c0 3.219-4.1 5.828-9.158 5.828s-9.158-2.61-9.158-5.828 4.1-5.828 9.158-5.828 9.158 2.61 9.158 5.828z" fill-rule="evenodd" transform="matrix(-.17498 -.02303 -.01741 .07558 330.504 187.511)" stroke-width="6.528"/><path d="M371.33-24.981c0 3.219-4.1 5.828-9.158 5.828s-9.158-2.61-9.158-5.828 4.1-5.828 9.158-5.828 9.158 2.61 9.158 5.828z" fill-rule="evenodd" transform="matrix(-.17498 -.02303 -.01741 .07558 325.192 186.998)" stroke-width="6.528"/><path d="M412.95 113.64c0 2.07-1.864 3.747-4.163 3.747-2.299 0-4.163-1.678-4.163-3.747s1.864-3.747 4.163-3.747c2.3 0 4.163 1.678 4.163 3.747zM469.57 119.89c0 1.38-1.305 2.498-2.914 2.498-1.61 0-2.914-1.119-2.914-2.498s1.305-2.498 2.914-2.498c1.61 0 2.914 1.119 2.914 2.498z" fill-rule="evenodd" transform="matrix(-.202 0 0 .20444 353.209 179.875)" stroke-width="3.75"/><path d="M447.09 31.634v.833c0-2.796.197-1.03-4.163 3.33-3.724 1.785-5.164 3.667-6.66 6.66-1.742 3.85-2.342 6.613-2.498 10.824v6.66M419.61 30.801c.577 0 1.477 2.273 2.498 4.995 1.856 2.189 3.037 5.351 3.33 9.159 0 4.518.78 6.453.833 10.824v3.33M504.54 129.04c0 .481-2.6 1.455-4.163 3.33-3.161.428-5.964.833-9.99.833-.611-.916-1.836-1.217-3.331-1.665" transform="matrix(-.202 0 0 .20444 353.209 179.875)" stroke-width="3.75" fill="none"/></g><g fill-rule="evenodd" stroke="#000" stroke-width="3.75" fill="#fff"><path d="M276.41 36.63l88.253 1.665v11.656s8.325 14.986 13.321 48.29c4.995 33.302 9.991 158.19 9.991 158.19l21.646 141.54s-13.321 21.646-23.312 19.981c-9.99-1.666-39.963-13.32-39.963-14.987 0-1.665-1.665-79.926-4.995-133.21-3.331-53.285-9.991-81.592-24.977-104.9-19.982 48.288-21.647 98.243-19.982 98.243s1.665 39.963 3.33 69.936c1.666 29.972-1.665 71.601-1.665 71.601l-58.28-3.33s1.665-36.634 3.331-64.94c1.665-28.308 6.744-41.626 8.326-73.267 1.748-34.963 4.202-53.319 6.66-109.9 3.238-45.739 14.687-75.258 17.9-103.24.871-7.133-.416-12.488.416-13.32z" transform="matrix(-.20896 0 0 .13264 334.435 211.382)"/><path d="M316.38 166.51s-8.326-13.321-11.656-36.633-3.33-28.307-3.33-28.307M298.06 233.12l-9.99 39.963" transform="matrix(-.20896 0 0 .13264 334.435 211.382)"/><path d="M276.41 223.12l11.657 54.949" transform="matrix(-.20896 0 0 .13264 321.91 211.602)"/><path d="M387.98 417.95l-11.66-81.6M276.41 44.955l88.253 1.665M318.04 164.84c0-1.665 4.995-29.972 4.995-29.972M284.74 44.955l-8.326 84.922" transform="matrix(-.20896 0 0 .13264 334.435 211.382)"/></g><path d="M549.21 538.58c0 136.98-111.05 248.03-248.03 248.03S53.15 675.56 53.15 538.58 164.2 290.55 301.18 290.55 549.21 401.6 549.21 538.58z" stroke="#006a00" stroke-width="6.25" fill="none" transform="matrix(.46283 0 0 .4634 181.152 -9.53)"/><g stroke-width="1pt"><path d="M446.172 215.426c14.442 12.315-2.86 24.63-10.832 24.63-7.972 0-25.275-12.316-10.832-24.63-3.61 12.315 10.832 15.394 10.832 21.552 0-6.158 14.443-9.236 10.832-21.552z" fill-rule="evenodd" fill="#006a00"/><path d="M336.61 432.28c35.433 124.02-53.149 106.3-53.149 141.73 0-35.433-88.583-17.717-53.15-141.73" stroke="#000" fill="none" transform="matrix(.2038 0 0 .17378 377.57 140.305)"/></g><g stroke-width="1pt"><path d="M310.321 112.045c13.821-13.01 24.132 5.569 23.25 13.502-.881 7.933-15.018 23.79-25.645 8.056 11.825 4.955 16.478-9.077 22.59-8.396-6.112-.68-7.57-15.394-20.195-13.162z" fill-rule="evenodd" fill="#006a00"/><path d="M336.61 432.28c35.433 124.02-53.149 106.3-53.149 141.73 0-35.433-88.583-17.717-53.15-141.73" stroke="#000" fill="none" transform="matrix(.02253 -.2028 .1725 .01921 228.17 172.006)"/></g><g stroke-width="1pt"><path d="M347.045 361.822c-10.01 16.134-24.75.84-25.938-7.054-1.188-7.893 8.395-26.86 22.71-14.395-12.7-1.74-13.589 13.018-19.67 13.936 6.08-.918 11.274 12.923 22.898 7.513z" fill-rule="evenodd" fill="#006a00"/><path d="M336.61 432.28c35.433 124.02-53.149 106.3-53.149 141.73 0-35.433-88.583-17.717-53.15-141.73" stroke="#000" fill="none" transform="matrix(.03037 .20178 -.17162 .0259 411.01 282.706)"/></g><g stroke-width="1pt"><path d="M194.105 247.072c-13.647-13.193 4.388-24.403 12.345-23.905 7.957.498 24.459 13.87 9.277 25.258 4.37-12.066-9.852-16.04-9.469-22.187-.383 6.146-14.99 8.317-12.153 20.834z" fill-rule="evenodd" fill="#006a00"/><path d="M336.61 432.28c35.433 124.02-53.149 106.3-53.149 141.73 0-35.433-88.583-17.717-53.15-141.73" stroke="#000" fill="none" transform="matrix(-.2034 -.01273 .01083 -.17344 257.893 326.331)"/></g><g stroke-width="1pt"><path d="M435.467 184.24c16.876 8.673 2.853 24.63-4.908 26.458-7.76 1.83-27.42-6.188-16.18-21.489-.696 12.816 14.067 12.5 15.476 18.494-1.41-5.994 11.945-12.304 5.612-23.464z" fill-rule="evenodd" fill="#006a00"/><path d="M336.61 432.28c35.433 124.02-53.149 106.3-53.149 141.73 0-35.433-88.583-17.717-53.15-141.73" stroke="#000" fill="none" transform="matrix(.19838 -.04676 .03977 .16915 351.5 126.856)"/></g><g stroke-width="1pt"><path d="M275.64 120.381c8.96-16.741 24.645-2.42 26.335 5.381 1.689 7.801-6.665 27.342-21.745 15.818 12.785.924 12.73-13.86 18.74-15.166-6.01 1.305-12.074-12.175-23.33-6.033z" fill-rule="evenodd" fill="#006a00"/><path d="M336.61 432.28c35.433 124.02-53.149 106.3-53.149 141.73 0-35.433-88.583-17.717-53.15-141.73" stroke="#000" fill="none" transform="matrix(-.04318 -.19942 .16962 -.03682 216.853 203.426)"/></g><g stroke-width="1pt"><path d="M383.86 347.561c-3.944 18.58-22.995 9.204-26.79 2.183-3.793-7.02-1.21-28.118 16.48-21.26-12.536 2.682-8.367 16.865-13.776 19.796 5.409-2.93 14.986 8.322 24.086-.719z" fill-rule="evenodd" fill="#006a00"/><path d="M336.61 432.28c35.433 124.02-53.149 106.3-53.149 141.73 0-35.433-88.583-17.717-53.15-141.73" stroke="#000" fill="none" transform="matrix(.09699 .17946 -.15264 .0827 417.198 251.402)"/></g><g stroke-width="1pt"><path d="M201.029 279.352c-17.134-8.152-3.606-24.532 4.094-26.598 7.7-2.067 27.597 5.343 16.83 20.982.304-12.831-14.442-12.061-16.034-18.01 1.592 5.948-11.562 12.666-4.89 23.626z" fill-rule="evenodd" fill="#006a00"/><path d="M336.61 432.28c35.433 124.02-53.149 106.3-53.149 141.73 0-35.433-88.583-17.717-53.15-141.73" stroke="#000" fill="none" transform="matrix(-.19685 .05283 -.04493 -.16786 286.713 334.13)"/></g><g stroke-width="1pt"><path d="M418.277 160.327c18.784 2.654 10.761 22.333 4.03 26.608-6.733 4.276-27.932 3.156-22.323-14.99 3.539 12.337 17.381 7.191 20.676 12.391-3.294-5.2 7.255-15.545-2.383-24.009z" fill-rule="evenodd" fill="#006a00"/><path d="M336.61 432.28c35.433 124.02-53.149 106.3-53.149 141.73 0-35.433-88.583-17.717-53.15-141.73" stroke="#000" fill="none" transform="matrix(.1721 -.1093 .09296 .14675 320.162 133.683)"/></g><g stroke-width="1pt"><path d="M245.943 137.4c4.711-18.4 23.357-8.24 26.856-1.068 3.5 7.172.045 28.145-17.346 20.557 12.636-2.158 9.059-16.502 14.585-19.206-5.526 2.703-14.628-8.938-24.095-.283z" fill-rule="evenodd" fill="#006a00"/><path d="M336.61 432.28c35.433 124.02-53.149 106.3-53.149 141.73 0-35.433-88.583-17.717-53.15-141.73" stroke="#000" fill="none" transform="matrix(-.08946 -.18334 .15594 -.07629 208.648 232.092)"/></g><g stroke-width="1pt"><path d="M410.195 327.941c1.517 18.933-19.414 15.394-25.052 9.75-5.638-5.643-9.178-26.601 9.732-25.086-11.25 6.154-3.21 18.555-7.558 22.91 4.347-4.355 16.735 3.692 22.878-7.574z" fill-rule="evenodd" fill="#006a00"/><path d="M336.61 432.28c35.433 124.02-53.149 106.3-53.149 141.73 0-35.433-88.583-17.717-53.15-141.73" stroke="#000" fill="none" transform="matrix(.14412 .14427 -.1227 .1229 414.726 226.253)"/></g><g stroke-width="1pt"><path d="M213.82 306.271c-18.582-3.821-9.35-22.96-2.364-26.807 6.986-3.847 28.074-1.406 21.346 16.354-2.764-12.533-16.9-8.262-19.864-13.657 2.963 5.395-8.21 15.061.882 24.11z" fill-rule="evenodd" fill="#006a00"/><path d="M336.61 432.28c35.433 124.02-53.149 106.3-53.149 141.73 0-35.433-88.583-17.717-53.15-141.73" stroke="#000" fill="none" transform="matrix(-.17857 .09834 -.08364 -.15227 310.086 338.991)"/></g><g stroke-width="1pt"><path d="M393.347 138.187c18.821-2.372 16.233 18.724 10.857 24.618-5.377 5.894-26.128 10.38-25.468-8.603 6.646 10.975 18.657 2.374 23.198 6.527-4.54-4.152 2.93-16.906-8.587-22.542z" fill-rule="evenodd" fill="#006a00"/><path d="M336.61 432.28c35.433 124.02-53.149 106.3-53.149 141.73 0-35.433-88.583-17.717-53.15-141.73" stroke="#000" fill="none" transform="matrix(.13745 -.15066 .12815 .1172 291.684 138.238)"/></g><g stroke-width="1pt"><path d="M221.634 159.638c-.273-18.992 20.381-14.084 25.637-8.082 5.256 6.002 7.414 27.147-11.355 24.392 11.628-5.4 4.42-18.303 9.044-22.363-4.624 4.06-16.457-4.785-23.326 6.053z" fill-rule="evenodd" fill="#006a00"/><path d="M336.61 432.28c35.433 124.02-53.149 106.3-53.149 141.73 0-35.433-88.583-17.717-53.15-141.73" stroke="#000" fill="none" transform="matrix(-.13435 -.15343 .1305 -.11456 210.445 260.81)"/></g><g stroke-width="1pt"><path d="M428.034 301.192c5.935 18.04-15.24 19.545-22.048 15.393-6.808-4.153-15.186-23.684 3.548-26.677-9.483 8.637 1.251 18.789-1.949 24.048 3.2-5.259 17.133-.365 20.45-12.764z" fill-rule="evenodd" fill="#006a00"/><path d="M336.61 432.28c35.433 124.02-53.149 106.3-53.149 141.73 0-35.433-88.583-17.717-53.15-141.73" stroke="#000" fill="none" transform="matrix(.17405 .10616 -.0903 .14841 408.483 201.303)"/></g><g stroke-width="1pt"><path d="M234.75 330.176c-18.932 1.191-15.035-19.702-9.301-25.249 5.733-5.546 26.723-8.727 24.881 10.178-5.949-11.37-18.472-3.536-22.746-7.964 4.273 4.428-3.977 16.69 7.166 23.035z" fill-rule="evenodd" fill="#006a00"/><path d="M336.61 432.28c35.433 124.02-53.149 106.3-53.149 141.73 0-35.433-88.583-17.717-53.15-141.73" stroke="#000" fill="none" transform="matrix(-.14657 .14178 -.1206 -.12498 336.217 336.475)"/></g><g stroke-width="1pt"><path d="M367.436 121.305c18.001-5.994 19.564 15.202 15.435 22.031-4.128 6.829-23.61 15.273-26.653-3.475 8.653 9.47 18.762-1.307 24.024 1.881-5.261-3.188-.413-17.153-12.806-20.437z" fill-rule="evenodd" fill="#006a00"/><path d="M336.61 432.28c35.433 124.02-53.149 106.3-53.149 141.73 0-35.433-88.583-17.717-53.15-141.73" stroke="#000" fill="none" transform="matrix(.10553 -.17457 .14848 .08998 267.728 141.167)"/></g><g stroke-width="1pt"><path d="M204.46 190.387c-6.63-17.796 14.47-20.122 21.435-16.238 6.964 3.885 16.094 23.075-2.51 26.794 9.14-8.998-1.98-18.725 1.014-24.105-2.993 5.379-17.106 1.03-19.939 13.549z" fill-rule="evenodd" fill="#006a00"/><path d="M336.61 432.28c35.433 124.02-53.149 106.3-53.149 141.73 0-35.433-88.583-17.717-53.15-141.73" stroke="#000" fill="none" transform="matrix(-.17804 -.0993 .08447 -.1518 227.874 289.439)"/></g><g stroke-width="1pt"><path d="M440.556 278.107c7.952 17.244-12.913 21.157-20.15 17.81-7.237-3.349-17.786-21.795.484-26.908-8.436 9.663 3.385 18.523.805 24.113 2.58-5.59 16.98-2.319 18.861-15.015z" fill-rule="evenodd" fill="#006a00"/><path d="M336.61 432.28c35.433 124.02-53.149 106.3-53.149 141.73 0-35.433-88.583-17.717-53.15-141.73" stroke="#000" fill="none" transform="matrix(.185 .08559 -.0728 .15775 409.75 181.103)"/></g><g stroke-width="1pt"><path d="M270.06 353.976c-17.433 7.492-20.774-13.498-17.235-20.65 3.539-7.153 22.24-17.211 26.85 1.213-9.418-8.706-18.584 2.886-24.096.153 5.511 2.733 1.855 17.057 14.48 19.284z" fill-rule="evenodd" fill="#006a00"/><path d="M336.61 432.28c35.433 124.02-53.149 106.3-53.149 141.73 0-35.433-88.583-17.717-53.15-141.73" stroke="#000" fill="none" transform="matrix(-.09046 .18285 -.15552 -.07713 367.74 325.77)"/></g><g stroke-width="1pt"><path d="M447.844 249.543c11.412 15.173-8.157 23.412-15.937 21.67-7.78-1.74-21.983-17.539-5.204-26.402-6.207 11.23 7.216 17.39 5.875 23.4 1.341-6.01 16.107-5.86 15.266-18.668z" fill-rule="evenodd" fill="#006a00"/><path d="M336.61 432.28c35.433 124.02-53.149 106.3-53.149 141.73 0-35.433-88.583-17.717-53.15-141.73" stroke="#000" fill="none" transform="matrix(.19889 .04452 -.03786 .1696 397.264 161.246)"/></g><g stroke-width="1pt"><path d="M339.332 114.35c16.322-9.678 22.337 10.705 19.748 18.255-2.588 7.55-19.84 19.936-26.783 2.26 10.461 7.418 18.059-5.26 23.876-3.26-5.816-1.999-4.035-16.676-16.841-17.256z" fill-rule="evenodd" fill="#006a00"/><path d="M336.61 432.28c35.433 124.02-53.149 106.3-53.149 141.73 0-35.433-88.583-17.717-53.15-141.73" stroke="#000" fill="none" transform="matrix(.06617 -.193 .16416 .05643 246.095 154.92)"/></g><g stroke-width="1pt"><path d="M305.89 364.498c-15.547 10.883-23.079-8.989-21.066-16.712 2.013-7.724 18.282-21.378 26.536-4.276-10.99-6.608-17.61 6.607-23.562 5.053 5.95 1.554 5.28 16.324 18.093 15.935z" fill-rule="evenodd" fill="#006a00"/><path d="M336.61 432.28c35.433 124.02-53.149 106.3-53.149 141.73 0-35.433-88.583-17.717-53.15-141.73" stroke="#000" fill="none" transform="matrix(-.05145 .19744 -.16794 -.04388 395.806 317.003)"/></g><g stroke-width="1pt"><path d="M196.065 216.915c-10.444-15.856 9.6-22.857 17.256-20.633 7.657 2.224 20.848 18.878 3.55 26.676 6.894-10.82-6.12-17.806-4.406-23.72-1.713 5.914-16.44 4.842-16.4 17.677z" fill-rule="evenodd" fill="#006a00"/><path d="M336.61 432.28c35.433 124.02-53.149 106.3-53.149 141.73 0-35.433-88.583-17.717-53.15-141.73" stroke="#000" fill="none" transform="matrix(-.19573 -.05685 .04836 -.1669 241.046 308.198)"/></g><g stroke="#000"><path d="M193.63 88.249c15.546 4.424 43.275 46.12 53.766 45.791 16.652-.481 83.233-77.561 72.564-88.252-7.399-8.246-67.939 41.192-71.852 44.126-.67-8.601-15.95-51.042-28.31-59.945-14.62-9.31-32.21-4.157-47.82-6.661-7.3-2.843-18.84-14.056-23.78-24.976 8.182-3.544 15.323-2.479 23.311-10.651 5.679-6.642 2.381-46.913.37-51.059-13.291-14.268 5.429-7.327-39.024-9.082-64.268-2.446-75.878 49.582-31.653 70.792C97.74 14.26 86.983 17.926 78.263 19.978c-8.777.106-38.826-.763-55.546 12.489-33.403 24.552-8.925 30.904-15.352 35.8-7.173 5.645-17.868 19.827-21.888 28.307-10.472 4.996-99.485-4.995-116.5-1.664-16.42.965-56.467 15.818-73.15 26.64 3.565 14.143 241.51-7.602 249.27-2.496 5.946 3.345-2.705 51.237 2.011 54.949 1.66 9.063 116.54 5.829 125.6 5.829 7.557-18.86 15.39-81.558 20.925-91.583z" fill-rule="evenodd" transform="matrix(.12847 0 0 .20444 363.593 187.474)" stroke-width="4.702" fill="#520900"/><path d="M174.9-96.568c1.543 25.457-7.118 3.304-38.369 3.304-60.56-5.035-39.286 99.196-39.286 67.025-26.227-13.71-44.834-100.29 29.616-96.93 23.538 0 44.958 7.857 48.044 26.602z" fill-rule="evenodd" transform="matrix(.15416 0 0 .14343 359.98 188.333)" stroke-width="5.125"/><path d="M387.98 96.574c0 1.68-.172 7.957-.833 11.656-.445 3.74-1.539 8.077-2.498 10.823-.342 4.452-2.091 5.174-2.497 9.991-1.544 2.27-2.209 5.944-2.498 9.991 0 4.27.686 7.558.833 11.656.481 3.56 1.612 6.366 1.665 10.823 0 4.365-.005 7.549-1.665 9.991v5.828" transform="matrix(.202 0 0 .20444 292.388 181.091)" stroke-width="3.75" fill="none"/><path d="M383.81 76.592c.58 0 1.029 20.129 5.828 24.978 1.039 3.212 4.574 7.343 5.828 9.99 1.672 2.459 3.981 5.368 8.326 6.661h11.656c4.634 0 7.473.055 10.823-1.665 1.485-.8 2.531-1.846 3.33-3.331M442.09 115.72h.832c-2.327 0-1.092-.104 3.331 1.665 1.725 2.537 3.768 3.625 6.66 4.996 2.982 1.467 6.391 1.665 10.823 1.665 4.198-.354 6.74-1.686 9.159-3.331 4.043-1.308 4.815-2.935 5.828-7.493v-11.656c-.478-3.53-1.384-6.372-2.498-9.158-.419-1.258-.833-.705-.833-2.497M510.36 121.55c-.425 0-2.65 2.575-4.163 4.995-2.568.918-3.233 3.716-4.162 5.828-.669 2.675-1.666 2.859-1.666 6.661-1.677 3.708-2.204 7.007-2.497 10.823l2.497-10.823c-1.677 3.708-2.204 7.007-2.497 10.823M461.24 54.946h-.833c2.249 0 1.099-.053-3.33.833-1.817 2.27-4.807 4.305-7.493 5.827-2.977 1.825-5.367 4.01-8.326 4.996l8.326-4.996c-2.977 1.825-5.367 4.01-8.326 4.996M402.13 51.615h.833c-2.248 0-1.105-.054 3.33.833 2.936 1.39 4.752 2.89 7.493 4.995 1.291 1.935 3.257 2.305 4.163 5.828 1.574.847 2.124 1.67 2.498 4.163M427.11 29.968h4.163c4.529 0 6.733.681 10.824.833 3.538-.425 4.382-1.738 7.493-2.498M442.93 133.21c.139.661 1.652 4.256 2.498 5.828 1.517 2.512 3.538 4.914 4.163 8.326.968 2.905 1.526 6.23 1.665 9.99.761 3.503 1.264 6.62-.833 9.159-.898 3.292-2.57 5.692-4.162 9.158-1.111 0-.833-.278-.833.833M416.28 134.87v.833c0-2.248.055-1.105-.832 3.33-1.147 4.013-2.15 7.388-4.163 9.991-1.098 3.294-2.326 4.504-2.498 9.158.662 1.544.833 3.263.833 5.828M412.12 169.01v4.163c.908 1.211.55 1.294 1.665 1.665M343.02 128.21v.832c0-2.327-.258-.936 4.163.833 3.572.638 7.937 1.037 10.823 1.665 2.672 1.312 5.265 3.48 7.493 4.995 1.994 1.728 4.819 3.48 7.494 4.996 3.004 1.502 4.325 2.823 5.828 5.828.907 1.21.549 1.293 1.665 1.665" transform="matrix(.202 0 0 .20444 292.388 181.091)" stroke-width="3.75" fill="none"/><path d="M423.78-16.655c.123-.184 2.467-1.914 4.996-2.498 1.805-1.354 4.812-.74 6.66 0" transform="matrix(.31553 0 0 .20444 242.372 181.81)" stroke-width="3" fill="none"/><path d="M445.42-19.153h.833c-2.248 0-1.106.054 3.33-.833 3.481-1.16 7.672-.832 11.656-.832 1.174.391.832.242.832 1.665M444.59-7.497v.833c0-2.327-.103-1.091 1.666 3.33.643 2.962 1.76 7.05.832 9.158-2.184 0-2.859-.274-4.163-.833" transform="matrix(.24541 0 0 .20444 272.086 181.81)" stroke-width="3.402" fill="none"/><path d="M371.33-24.981c0 3.219-4.1 5.828-9.158 5.828s-9.158-2.61-9.158-5.828 4.1-5.828 9.158-5.828 9.158 2.61 9.158 5.828z" fill-rule="evenodd" transform="matrix(.24178 -.03507 .02406 .1151 294.955 200.285)" stroke-width="4.501"/><path d="M371.33-24.981c0 3.219-4.1 5.828-9.158 5.828s-9.158-2.61-9.158-5.828 4.1-5.828 9.158-5.828 9.158 2.61 9.158 5.828z" fill-rule="evenodd" transform="matrix(.17498 -.02303 .01741 .07558 315.095 188.724)" stroke-width="6.528"/><path d="M371.33-24.981c0 3.219-4.1 5.828-9.158 5.828s-9.158-2.61-9.158-5.828 4.1-5.828 9.158-5.828 9.158 2.61 9.158 5.828z" fill-rule="evenodd" transform="matrix(.17498 -.02303 .01741 .07558 320.41 188.214)" stroke-width="6.528"/><path d="M412.95 113.64c0 2.07-1.864 3.747-4.163 3.747-2.299 0-4.163-1.678-4.163-3.747s1.864-3.747 4.163-3.747c2.3 0 4.163 1.678 4.163 3.747zM469.57 119.89c0 1.38-1.305 2.498-2.914 2.498-1.61 0-2.914-1.119-2.914-2.498s1.305-2.498 2.914-2.498c1.61 0 2.914 1.119 2.914 2.498z" fill-rule="evenodd" transform="matrix(.202 0 0 .20444 292.388 181.091)" stroke-width="3.75"/><path d="M447.09 31.634v.833c0-2.796.197-1.03-4.163 3.33-3.724 1.785-5.164 3.667-6.66 6.66-1.742 3.85-2.342 6.613-2.498 10.824v6.66M419.61 30.801c.577 0 1.477 2.273 2.498 4.995 1.856 2.189 3.037 5.351 3.33 9.159 0 4.518.78 6.453.833 10.824v3.33M504.54 129.04c0 .481-2.6 1.455-4.163 3.33-3.161.428-5.964.833-9.99.833-.611-.916-1.836-1.217-3.331-1.665" transform="matrix(.202 0 0 .20444 292.388 181.091)" stroke-width="3.75" fill="none"/></g><g fill-rule="evenodd" stroke="#000" stroke-width="3.75" fill="#fff"><path d="M276.41 36.63l88.253 1.665v11.656s8.325 14.986 13.321 48.29c4.995 33.302 9.991 158.19 9.991 158.19l21.646 141.54s-13.321 21.646-23.312 19.981c-9.99-1.666-39.963-13.32-39.963-14.987 0-1.665-1.665-79.926-4.995-133.21-3.331-53.285-9.991-81.592-24.977-104.9-19.982 48.288-21.647 98.243-19.982 98.243s1.665 39.963 3.33 69.936c1.666 29.972-1.665 71.601-1.665 71.601l-58.28-3.33s1.665-36.634 3.331-64.94c1.665-28.308 6.744-41.626 8.326-73.267 1.748-34.963 4.202-53.319 6.66-109.9 3.238-45.739 14.687-75.258 17.9-103.24.871-7.133-.416-12.488.416-13.32z" transform="matrix(.20896 0 0 .13264 311.165 212.592)"/><path d="M316.38 166.51s-8.326-13.321-11.656-36.633-3.33-28.307-3.33-28.307M298.06 233.12l-9.99 39.963" transform="matrix(.20896 0 0 .13264 311.165 212.592)"/><path d="M276.41 223.12l11.657 54.949" transform="matrix(.20896 0 0 .13264 323.69 212.812)"/><path d="M387.98 417.95l-11.66-81.6M276.41 44.955l88.253 1.665M318.04 164.84c0-1.665 4.995-29.972 4.995-29.972M284.74 44.955l-8.326 84.922" transform="matrix(.20896 0 0 .13264 311.165 212.592)"/></g><path d="M349.68 188.16c0 13.794-7.082 24.977-15.819 24.977-8.736 0-15.819-11.183-15.819-24.977s7.082-24.977 15.819-24.977c8.736 0 15.819 11.183 15.819 24.977z" fill-rule="evenodd" transform="matrix(.33683 0 0 .32859 143.099 205.979)" stroke="#000" stroke-width="2.5" fill="#ffc600"/><g stroke-width="1pt"><g fill-rule="evenodd" stroke="#000"><path d="M212.6 892.91s53.15-17.716 70.867-17.716c17.716 0 17.716 17.716 19.135 18.212l-1.419 34.937H212.6V892.91z" transform="matrix(.20358 0 0 .24094 240.011 90.375)" fill="#00cfe6"/><path d="M265.75 892.91s0-17.716 17.717-17.716c17.716 0 35.433-.496 53.149-.001v53.15H265.75V892.91z" transform="matrix(.20358 0 0 -.24094 247.225 541.99)" fill="#00cfe6"/><path d="M212.6 892.91s53.15-17.716 70.867-17.716c17.716 0 17.716 17.716 19.135 18.212l-1.419 34.937H212.6V892.91z" transform="matrix(-.20358 0 0 .24094 413.137 90.428)" fill="#00cfe6"/><path d="M265.75 892.91s0-17.716 17.717-17.716c17.716 0 35.433-.496 53.149-.001v53.15H265.75V892.91z" transform="matrix(-.20358 0 0 -.24094 405.924 542.038)" fill="#00cfe6"/><path d="M249.45 875.2s0-17.717-17.716-17.717h53.15L249.45 875.2z" transform="matrix(-.20358 0 0 -.24094 395.393 537.773)" fill="#fff"/><path d="M159.45 892.91l106.3 53.15s-36.039 33.299-70.866 35.433c-17.717 0-35.433-35.433-35.433-35.433v-53.15z" transform="matrix(-.23752 0 0 .24094 418.548 90.427)" fill="#00cfe6"/><path d="M249.45 892.91c.71-8.858-2.214-35.434-19.931-35.434h55.364c17.717 0 35.434 17.717 35.434 35.434l-1.419 35.432-69.448.001V892.91z" transform="matrix(-.20358 0 0 .24094 402.606 94.697)" fill="#fff"/><path d="M249.45 875.2s0-17.717-17.716-17.717h53.15L249.45 875.2z" transform="matrix(.20358 0 0 -.24094 257.756 537.725)" fill="#fff"/><path d="M159.45 892.91l106.3 53.15s-36.039 33.299-70.866 35.433c-17.717 0-35.433-35.433-35.433-35.433v-53.15z" transform="matrix(.23752 0 0 .24094 234.6 90.373)" fill="#00cfe6"/><path d="M249.45 892.91c.71-8.858-2.214-35.434-19.931-35.434h55.364c17.717 0 35.434 17.717 35.434 35.434l-1.419 35.432-69.448.001V892.91z" transform="matrix(.20358 0 0 .24094 250.543 94.643)" fill="#fff"/><path d="M88.802 891.9c-.11 1.012 17.607-34.421 53.04-34.421s177.16 70.866 247.92 70.866c70.975 0 196.65-72.56 230.42-70.866 33.773 1.694 53.521 37.161 53.149 35.433-.373-1.728-17.716 53.15-17.716 53.15 0-17.716-17.717-35.433-35.433-35.433-17.717 0-106.3 70.866-230.42 70.866-123.91 0-212.49-70.866-230.21-70.866-17.717 0-35.433 17.716-35.433 35.433l-35.318-54.16z" transform="matrix(.20358 0 0 .24094 247.202 90.428)" fill="#fff"/></g><path d="M362.457 313.76l-3.153-9.625 3.228-1.481.373 1.136-2.638 1.21.966 2.948 2.47-1.133.369 1.128-2.47 1.133 1.073 3.276 2.741-1.258.373 1.137-3.332 1.528zM348.92 320.062l-3.153-9.625.59-.27 2.781 8.487 2.2-1.009.372 1.137-2.79 1.28zM344.823 321.986l-3.153-9.625 3.012-1.381.372 1.136-2.42 1.11.975 2.98 2.095-.962.373 1.137-2.095.961 1.432 4.372-.591.272zM308.553 322.11l2.079-9.925 1.216.356-.027 7.452a107.52 107.52 0 01-.016 1.554c.144-.34.365-.84.658-1.494l2.908-6.478 1.087.32-2.08 9.925-.778-.228 1.74-8.309-3.514 7.788-.73-.214.006-8.968-1.77 8.45-.78-.228zM308.197 311.228l.769.377-1.914 5.457c-.332.948-.663 1.67-.991 2.165-.328.493-.726.83-1.196 1.012-.465.18-.978.13-1.538-.145-.544-.267-.936-.635-1.175-1.112-.24-.474-.331-1.037-.278-1.685.056-.652.259-1.478.61-2.48l1.913-5.456.769.378-1.911 5.45c-.288.82-.454 1.45-.499 1.885-.04.432.017.81.17 1.133.157.322.4.565.73.727.565.278 1.04.269 1.426-.03.387-.299.788-1.04 1.204-2.226l1.911-5.45zM292.73 304.646l.575.315-2.115 5.412c-.367.94-.71 1.662-1.025 2.163-.315.5-.67.852-1.066 1.06-.391.205-.796.191-1.215-.038a1.67 1.67 0 01-.822-1c-.141-.444-.155-.982-.042-1.613.114-.636.364-1.45.752-2.442l2.115-5.413.575.315-2.112 5.406c-.318.813-.518 1.434-.6 1.859-.08.421-.074.783.014 1.086.09.302.26.521.506.656.423.232.805.191 1.146-.124.342-.314.742-1.06 1.201-2.236l2.113-5.406zM282.465 306.327l.583.195c-.158.484-.25.901-.275 1.256-.022.35.03.672.154.969.126.29.313.503.56.638.22.12.44.156.663.108.223-.048.422-.172.598-.37.18-.202.327-.449.44-.737.115-.296.175-.573.18-.833a1.606 1.606 0 00-.174-.77c-.078-.162-.276-.454-.596-.876-.317-.428-.521-.776-.61-1.047a2.813 2.813 0 01-.125-1.126c.035-.403.138-.822.306-1.25.185-.474.42-.88.704-1.221.286-.345.59-.559.912-.64.323-.084.63-.044.922.116.322.176.562.444.719.804.16.357.222.789.185 1.295a5.86 5.86 0 01-.364 1.594l-.586-.213c.201-.609.275-1.11.222-1.507-.052-.396-.245-.684-.58-.867-.347-.19-.655-.192-.923-.003-.265.186-.472.473-.625.862-.13.335-.182.643-.154.922.025.279.226.66.602 1.147.38.481.625.854.732 1.12.154.39.216.811.186 1.265a4.8 4.8 0 01-.34 1.428 4.752 4.752 0 01-.75 1.304c-.303.365-.628.604-.974.715a1.205 1.205 0 01-.978-.094 1.864 1.864 0 01-.845-.912c-.169-.392-.233-.876-.192-1.453a6.63 6.63 0 01.423-1.819zM365.564 306.441c-.523-1.595-.733-2.938-.63-4.02.1-1.09.466-1.778 1.095-2.067.413-.189.853-.147 1.323.126s.916.75 1.339 1.433c.422.677.79 1.495 1.106 2.459.32.975.515 1.89.585 2.745.068.853.002 1.558-.203 2.11-.206.546-.503.907-.891 1.085-.42.193-.867.147-1.342-.139-.474-.284-.92-.767-1.338-1.445s-.767-1.442-1.044-2.287zm.616-.26c.38 1.16.823 2.008 1.33 2.546.51.534.982.7 1.419.5.445-.205.7-.71.764-1.517.068-.804-.101-1.827-.507-3.065-.257-.784-.542-1.439-.857-1.964-.313-.53-.641-.9-.984-1.11-.341-.216-.66-.257-.954-.122-.418.192-.676.668-.775 1.428-.099.755.09 1.858.564 3.305zM357.271 316.028l-3.153-9.625 1.98-.908c.397-.182.728-.234.993-.154.263.077.528.304.795.685.268.382.487.836.661 1.366.224.683.31 1.305.259 1.869-.052.56-.272 1.003-.658 1.327.209.09.38.196.513.315.284.263.588.615.91 1.056l1.634 2.264-.743.34-1.246-1.73c-.363-.5-.65-.876-.862-1.132-.211-.255-.383-.424-.512-.505a.742.742 0 00-.351-.133c-.078 0-.192.034-.345.104l-.685.314 1.4 4.276-.59.27zm-1.17-5.648l1.27-.582c.27-.124.46-.282.575-.469.112-.193.164-.437.158-.736a3.249 3.249 0 00-.166-.922c-.149-.454-.348-.793-.599-1.016-.248-.224-.538-.26-.869-.108l-1.413.649 1.044 3.184zM350.522 313.644c-.522-1.595-.734-2.937-.63-4.02.1-1.09.466-1.777 1.095-2.066.412-.19.853-.148 1.323.125s.916.75 1.339 1.433c.422.677.79 1.496 1.106 2.46.32.975.515 1.89.585 2.745.069.852.001 1.557-.203 2.109-.206.547-.504.908-.891 1.086-.42.193-.867.147-1.342-.14-.474-.283-.92-.766-1.338-1.445a10.673 10.673 0 01-1.044-2.287zm.615-.259c.38 1.16.824 2.008 1.332 2.545.509.534.98.7 1.417.5.445-.204.7-.71.765-1.517.068-.804-.101-1.827-.507-3.065-.256-.784-.543-1.439-.857-1.964-.314-.53-.642-.9-.984-1.11-.341-.216-.66-.257-.954-.122-.418.192-.676.669-.775 1.428-.098.756.09 1.858.563 3.305zM316.924 324.288l1.186-10.13 2.336.384c.477.078.846.244 1.108.499.265.25.452.602.564 1.056.115.452.145.909.09 1.375-.05.432-.17.827-.36 1.187-.189.359-.443.63-.762.82.355.24.609.593.759 1.059.153.466.195.996.126 1.585-.055.473-.17.905-.342 1.296-.17.384-.358.674-.565.864a1.621 1.621 0 01-.743.392c-.285.066-.626.068-1.023.003l-2.374-.39zm1.511-5.739l1.348.221c.365.06.632.063.8.014a.93.93 0 00.53-.43c.136-.216.224-.502.265-.857.04-.336.025-.64-.045-.908-.069-.275-.19-.473-.363-.595-.173-.127-.484-.227-.931-.3l-1.245-.205-.359 3.06zm-.547 4.678l1.55.254c.267.044.456.058.568.045.196-.026.365-.092.508-.198.143-.11.269-.28.38-.51a2.66 2.66 0 00.223-.835 2.536 2.536 0 00-.063-1.01c-.086-.302-.229-.525-.429-.669-.196-.15-.492-.257-.889-.322l-1.44-.236-.408 3.48zM324.25 325.525v-10.227h2.789c.56 0 .986.093 1.278.279.291.182.525.504.699.97.175.465.261.978.261 1.541 0 .726-.144 1.337-.433 1.836-.289.496-.734.812-1.338.948.22.172.388.341.502.508.243.363.473.817.69 1.36l1.094 2.785h-1.046l-.833-2.128a22.802 22.802 0 00-.6-1.41c-.158-.325-.3-.554-.425-.683a1.08 1.08 0 00-.377-.272c-.095-.034-.25-.05-.464-.05h-.965v4.543h-.832zm.832-5.713h1.789c.38 0 .678-.065.892-.189.215-.131.377-.334.49-.613.11-.285.166-.593.166-.922 0-.482-.108-.88-.325-1.192-.215-.312-.556-.468-1.021-.468h-1.991v3.384zM331.535 325.253l.87-10.568.884-.186 4.042 9.539-.934.196-1.179-2.9-2.59.543-.223 3.194-.87.182zm1.168-4.51l2.1-.44-1.065-2.652a40.4 40.4 0 01-.751-1.998c.018.663.002 1.328-.046 1.993l-.238 3.097zM292.276 315.24l3.66-9.369 1.63.892c.333.182.561.424.686.725.128.298.171.675.13 1.132a4.719 4.719 0 01-.31 1.328c-.157.4-.355.749-.594 1.048s-.503.5-.791.608c.197.31.289.702.273 1.18-.015.477-.129.99-.342 1.535-.17.438-.374.823-.61 1.156-.23.328-.45.56-.656.695a1.177 1.177 0 01-.66.204c-.23 0-.483-.076-.76-.227l-1.656-.907zm2.697-5.118l.94.514c.255.14.452.203.59.193.183-.014.355-.111.512-.288.16-.175.305-.428.433-.756.121-.31.193-.603.216-.874.024-.277-.012-.493-.107-.648-.094-.16-.297-.325-.61-.496l-.868-.475-1.106 2.83zm-1.69 4.326l1.082.592c.186.102.322.158.408.17a.722.722 0 00.432-.074c.136-.071.277-.204.422-.398.147-.198.28-.447.395-.745a3.19 3.19 0 00.23-.975c.02-.306-.025-.55-.134-.733-.104-.187-.295-.355-.572-.506l-1.005-.55-1.258 3.219z"/></g><g><path d="M212.6 432.28v106.3c0 70.866 88.583 106.3 88.583 106.3s88.583-35.433 88.583-106.3v-106.3h-177.17z" fill-rule="evenodd" transform="matrix(.4072 0 0 .38351 201.101 45.176)" stroke="#000" stroke-width="1pt" fill="#00daec"/><path d="M212.6 432.28v106.3a83.104 83.104 0 003.806 24.914l84.777-42.631V432.28H212.6z" fill-rule="evenodd" transform="matrix(.4072 0 0 .38351 201.101 45.176)" stroke="#000" stroke-width="1pt" fill="#fff"/><path d="M212.6 432.28v106.3a83.104 83.104 0 003.806 24.914l84.777-42.631V432.28H212.6z" fill-rule="evenodd" transform="matrix(-.4072 0 0 .38351 446.388 45.176)" stroke="#000" stroke-width="1pt" fill="#fff300"/><g fill-rule="evenodd" transform="matrix(.4072 0 0 .38351 201.101 45.176)" stroke="#000" stroke-width="1.25"><path d="M244.77 87.419c7.322-5.947 11.157-3.718 17.649 3.102 9.323 9.814 41.318 58.854 46.313 63.017s4.241-6.417 10.344-1.387c3.032 3.727-10.437 17.026-13.737 14.57-6.411-5.02 3.915-5.375-.354-9.644-4.925-5.133-51.215-40.497-60.282-50.57-5.92-6.578-6.314-13.97.067-19.088z" transform="matrix(.63945 .23742 .1423 .70223 58.901 338.88)" fill="#923d09"/><rect ry="1.293" rx="2.606" transform="matrix(.75556 .65508 -.58585 .81042 0 0)" height="66.045" width="5.212" y="181.35" x="495.52" fill="#af8000"/><path transform="matrix(.83117 .55602 -.64108 .76747 0 0)" fill="#b0b0d4" d="M497.3 228.63h29.375v18.868H497.3z"/></g><g stroke="#000" fill-rule="evenodd" transform="matrix(.4072 0 0 .38351 201.101 45.176)"><path d="M385.112 528.567c4.885-2.105-27.333-35.603-33.785-51.842-6.452-16.24-6.108-16.717-8.617-24.322l-3.151 1.36c.806 4.93 15.87 43.87 30.736 64.151 4.198 5.818.63 16.77 5.36 14.73l9.457-4.077z" stroke-width="1pt" fill="#af8000"/><path d="M341.548 453.549l-25.872 2.486s-4.83 4.107-2.573 12.665c2.255 8.558 8.965 11.892 8.965 11.892l22.668-17.557-3.188-9.486z" stroke-width="1pt" fill="gray"/><rect ry="3.532" rx="3.532" transform="rotate(-18.579)" height="19.428" width="7.064" y="534.62" x="175.71" stroke-width="1pt" fill="gray"/><path d="M239.61 381.52c0 7.316-1.581 13.246-3.532 13.246s-3.533-5.93-3.533-13.246c0-7.316 1.582-13.246 3.533-13.246s3.532 5.93 3.532 13.246z" transform="matrix(.74465 -.71591 .63468 .39346 -105.9 523.83)" stroke-width="1pt" fill="#cf0000"/><path d="M239.61 381.52c0 7.316-1.581 13.246-3.532 13.246s-3.533-5.93-3.533-13.246c0-7.316 1.582-13.246 3.533-13.246s3.532 5.93 3.532 13.246z" transform="matrix(-.97804 .31097 .02748 .7554 595.47 104.78)" stroke-width="1pt" fill="#cf0000"/><path transform="matrix(.85897 -.51203 .49936 .86639 0 0)" stroke-width="1.153" fill="#b0b0d4" d="M15.073 596.25h78.868v17.796H15.073z"/></g><path d="M231.36 591.4l8.83-7.065s1.767 8.831 7.065 8.831 8.831-7.653 8.831-7.653 0 7.653 5.887 7.653 10.597-7.653 10.597-7.064c0 .588.588 7.064 5.298 7.064s10.597-6.476 10.597-6.476.589 7.654 5.887 7.065c5.299-.589 7.065-8.242 7.653-7.653.589.588 4.121 7.653 8.242 7.064s10.009-6.476 10.009-6.476 1.177 7.065 5.887 7.065c4.709 0 6.476-6.476 6.476-6.476s2.354 5.298 6.475 5.298 10.597-5.887 10.597-5.887" transform="matrix(.38897 0 0 .38351 211.313 51.724)" stroke="#0072ff" stroke-width="1pt" fill="none"/><path d="M231.95 591.4c3.139-1.374 5.69.196 9.418-7.654 0 4.121 2.945 9.42 8.243 9.42s8.831-7.653 8.831-7.653 0 7.653 5.887 7.653 10.597-7.653 10.597-7.064c0 .588.588 7.064 5.298 7.064s10.597-6.476 10.597-6.476.589 7.654 5.887 7.065c5.299-.589 7.065-8.242 7.653-7.653.589.588 4.121 7.653 8.242 7.064 2.943-.589 10.009-7.065 10.009-7.065" transform="matrix(.4072 0 0 .38351 212.128 55.788)" stroke="#0072ff" stroke-width="1pt" fill="none"/><g fill-rule="evenodd"><path d="M305.54 350.62v18.839h14.717l-5.298-18.839h-9.419z" transform="matrix(.32164 0 0 .286 236.636 162.272)" stroke="#000" stroke-width="1pt" fill="#fff"/><path d="M341.348 265.413c-.189.169-7.574 3.705-17.23 3.705s-13.445-1.01-14.391-1.684c-.947-.673-2.083-2.02-3.22-2.02-1.136 0-2.082.842-2.082.842s1.893.841 3.219 1.851c1.325 1.01 1.704 2.863 1.704 2.863l31.243.337s-.19-1.853-.19-2.863 1.137-2.525.947-3.03z"/><path d="M314.083 253.458h.758v15.66h-.758zM324.308 251.436h.758v17.848h-.758zM334.343 254.468h.758v14.649h-.758z"/><path stroke="#000" stroke-width="1.024" fill="#fff" d="M299.07 342.37h18.839v8.831H299.07z" transform="matrix(.32164 0 0 .286 235.31 157.557)"/><path stroke="#000" stroke-width="1.101" fill="#fff" d="M297.89 350.61h21.782v8.831H297.89z" transform="matrix(.32164 0 0 .286 235.31 157.557)"/><path stroke="#000" stroke-width="1.159" fill="#fff" d="M296.71 358.86h24.137v8.831H296.71z" transform="matrix(.32164 0 0 .286 235.31 157.557)"/><path stroke="#000" stroke-width="1.372" fill="#fff" d="M266.17 334.72h23.837v12.527H266.17z" transform="matrix(.32164 0 0 .286 235.31 157.557)"/><path stroke="#000" stroke-width="1.475" fill="#fff" d="M264.68 346.41h27.561v12.527H264.68z" transform="matrix(.32164 0 0 .286 235.31 157.557)"/><path stroke="#000" stroke-width="1.553" fill="#fff" d="M263.19 358.1h30.541v12.527H263.19z" transform="matrix(.32164 0 0 .286 235.31 157.557)"/><path stroke="#000" stroke-width="1.312" fill="#fff" d="M260.21 368.28h36.5v15.307h-36.5z" transform="matrix(.32164 0 0 .286 235.31 157.557)"/><path stroke="#000" stroke-width="1.017" fill="#fff" d="M238.25 342.37h15.763v10.414H238.25z" transform="matrix(.32164 0 0 .286 235.31 157.557)"/><path stroke="#000" stroke-width="1.094" fill="#fff" d="M237.26 352.09h18.226v10.414H237.26z" transform="matrix(.32164 0 0 .286 235.31 157.557)"/><path stroke="#000" stroke-width="1.151" fill="#fff" d="M236.28 361.81h20.197v10.414H236.28z" transform="matrix(.32164 0 0 .286 235.31 157.557)"/><path stroke="#000" stroke-width=".973" fill="#fff" d="M234.31 370.27h24.137v12.725H234.31z" transform="matrix(.32164 0 0 .286 235.31 157.557)"/><path d="M220 377.51h9.876l10.597-33.374L220 377.51z" stroke="#000" stroke-width="1.017" fill="#fff" transform="matrix(.32164 0 0 .286 235.31 157.557)"/><path d="M314.254 253.63l.7.308-9.188 12.648-.7-.307z"/></g><path d="M231.36 591.4l8.83-7.065s1.767 8.831 7.065 8.831 8.831-7.653 8.831-7.653 0 7.653 5.887 7.653 10.597-7.653 10.597-7.064c0 .588.588 7.064 5.298 7.064s10.597-6.476 10.597-6.476.589 7.654 5.887 7.065c5.299-.589 7.065-8.242 7.653-7.653.589.588 4.121 7.653 8.242 7.064s10.009-6.476 10.009-6.476 1.177 7.065 5.887 7.065c4.709 0 6.476-6.476 6.476-6.476s2.354 5.298 6.475 5.298 7.065-7.064 7.065-7.064 1.177 6.476 4.121 6.476c2.943 0 6.476-6.476 6.476-6.476s1.177 8.242 4.121 7.653c2.943-.589 4.121-8.242 4.71-7.653.588.589 4.709 7.064 4.12 7.064" transform="matrix(.38469 0 0 .38351 207.988 46.983)" stroke="#0072ff" stroke-width="1pt" fill="none"/></g></g></svg>