<svg xmlns="http://www.w3.org/2000/svg" height="480" width="640" version="1"><g stroke-width="1pt"><path fill="#006" d="M0 0h640v480H0z"/><path d="M0 0v31.82l349.537 252.788h43.997v-31.82L43.997.002H0zm393.534 0v31.82L43.997 284.606H0v-31.82L349.537 0h43.997z" fill="#fff"/><path d="M163.972 0v284.607h65.59V0h-65.59zM0 94.869v94.869h393.534V94.869H0z" fill="#fff"/><path d="M0 113.843v56.921h393.534v-56.921H0zM177.09 0v284.607h39.354V0H177.09zM0 284.607l131.178-94.869h29.331L29.331 284.607H0zM0 0l131.178 94.869h-29.331L0 21.214V0zm233.025 94.869L364.203 0h29.331L262.356 94.869h-29.331zm160.509 189.738l-131.178-94.869h29.331l101.847 73.656v21.213z" fill="#c00"/><path fill-rule="evenodd" fill="#fff" d="M246.413 444.48l-31.836-33.499-31.836 33.5 6.343-45.778-46.039-4.003 39.736-23.585-25.566-38.49 43.209 16.363 14.153-43.992 14.153 43.992 43.21-16.362-25.567 38.489 39.736 23.585-46.039 4.003z"/><g fill-rule="evenodd" fill="#fff"><path d="M490.748 427.285l6.144-19.115 6.144 19.115 18.78-7.11-11.112 16.72 17.263 10.249-20 1.74 2.76 19.881-13.835-14.548-13.834 14.548 2.76-19.88-20.001-1.741 17.263-10.25-11.112-16.72zM490.748 129.772l6.144-19.112 6.144 19.112 18.78-7.11-11.112 16.722 17.263 10.248-20 1.74 2.76 19.881-13.835-14.548-13.834 14.548 2.76-19.88-20.001-1.741 17.263-10.248-11.112-16.723zM379.181 250.637l6.144-19.115 6.144 19.115 18.78-7.11-11.112 16.72 17.263 10.249-20 1.74 2.76 19.882-13.835-14.549-13.834 14.549 2.76-19.882-20.001-1.74 17.263-10.25-11.112-16.72zM589.939 220.886l6.099-19.115 6.173 19.115 18.744-7.11-11.083 16.72 17.256 10.249-20.008 1.74 2.752 19.881-13.834-14.548-13.834 14.548 2.752-19.88-19.97-1.741 17.292-10.25-11.134-16.72zM533.657 312.438l-9.825-8.293 12.83-.945 4.857-11.908 4.857 11.908 12.83.945-9.825 8.293 3.071 12.488-10.933-6.776-10.934 6.776z"/></g></g></svg>