<svg xmlns="http://www.w3.org/2000/svg" height="480" width="640"><path fill="#006" d="M0 0h640v480H0z"/><g stroke-width="1pt"><path d="M0 0v24.811l319.75 197.105H360v-24.811L40.25 0H.002zm360.004 0v24.811L40.246 221.916H0v-24.814L319.75-.003H360z" fill="#fff"/><path d="M150.003 0v221.92h60V0h-60zM0 73.973v73.973h360.004V73.973H0z" fill="#fff"/><path d="M0 88.766v44.384h360.004V88.766H0zM162.003 0v221.92h36V0h-36zM0 221.92l120.004-73.974h26.833l-120.004 73.97H-.003zM0 0l120.004 73.973H93.171L.003 16.54V0zm213.172 73.973L333.168 0h26.833L239.997 73.973h-26.833zm146.832 147.949L240 147.949h26.833L360 205.38v16.54z" fill="#c00"/></g><g fill-rule="evenodd" fill="#fff"><path d="M471.601 213l5.2-16.668-14.014-10.647 17.655-.224 5.883-16.438 5.708 16.527 17.657.484-14.128 10.438 5.028 16.744-14.44-10.078zM513.2 216.274l10.408-13.934-9.68-14.798 16.706 5.795 10.977-13.484-.087 17.512 16.474 6.463-16.76 5.026-.8 17.485-10.272-14.407zM431.77 226.907l-.693-17.469-16.746-5.184 16.53-6.296.026-17.487 10.905 13.577 16.769-5.63-9.792 14.685 10.337 14.016-16.956-4.502zM402.46 253.484l-7.332-15.822-17.415 1.824 12.818-12.317-6.676-16.122 15.25 8.21 13.292-11.798-3.394 17.391 14.894 8.839-17.348 2.536zM389.076 291.806l-13.31-11.106-14.964 9.221 6.375-16.702-12.845-11.663 17.247.787 7.024-16.44 4.283 17.189 17.191 1.509-14.601 9.835zM388.75 334.854l-16.568-4.817-10.11 14.498-.703-17.895-16.36-5.516 16.132-6.239-.005-17.917 10.672 14.04 16.364-5.554-9.538 14.917zM408.159 371.223l-17.073 2.394-3.463 17.409-7.78-16.077-17.162 1.67 12.264-12.327-7.15-16.382 15.359 8.46 12.75-11.796-2.773 17.556zM438.17 400.085l-15.208 8.226 2.676 17.55-12.775-12.363-15.537 7.577 7.314-15.863-12.288-12.87 17.295 2.56 7.95-15.535 3.374 17.447zM474.803 405.778l-8.3 15.322 11.701 13.211-17.36-3.267-8.925 14.962-2.427-17.338-17.226-3.962 15.861-7.448-1.717-17.417 12.23 12.737zM515.972 399.456l-.517 17.475 16.345 6.364-16.924 5.103-1.237 17.442-9.938-14.32-17.117 4.423 10.783-13.952-9.342-14.717 16.604 5.698zM559.028 209.756l11.944 12.604 15.92-7.39-8.25 15.835 11.418 13.102-17.04-2.82-8.864 15.496-2.28-17.577-16.9-3.53 15.632-8.043zM594.852 248.537l5.421 16.595 17.506.293-14.173 10.68 4.734 16.815-14.176-9.994-14.585 10.107 5.413-16.857-13.75-10.576 17.524-.422zM608.277 298.384l-2.006 17.364 15.74 7.775-17.295 3.598-2.72 17.268-8.68-15.138-17.43 2.903 11.934-12.953-8.051-15.482 16.055 7.134zM598.755 350.648l-7.767 15.607 12.148 12.789-17.462-2.651-8.406 15.268-3.02-17.242-17.353-3.35 15.596-8.005-2.315-17.345 12.66 12.297zM573.003 397.124l-14.675 9.17 3.747 17.348-13.508-11.534-15.043 8.542 6.328-16.293-13.053-12.072 17.418 1.465 6.983-16.006 4.437 17.2z"/></g></svg>