<svg xmlns="http://www.w3.org/2000/svg" height="480" width="640"><defs><clipPath id="a" clipPathUnits="userSpaceOnUse"><path fill-opacity=".67" d="M-123.43 0h682.67v512h-682.67z"/></clipPath></defs><g fill-rule="evenodd" clip-path="url(#a)" transform="translate(115.72) scale(.9375)"><path fill="#fff" d="M-123.43 233.05H723.1v205.97h-846.53z"/><path fill="#081873" d="M-122.76 0h845.95v256.64h-845.95zM-122.52 385.87H729.6V512h-852.12z"/><path fill="#de3929" d="M-122.52 302.55h845.95v39.649h-845.95z"/><path fill="#ffce08" d="M130.92 399.168l6.65 20.468h21.522l-17.412 12.65 6.651 20.469-17.411-12.65-17.411 12.65 6.65-20.469-17.41-12.65h21.52zM316.91 250.498l6.65 20.468h21.522l-17.412 12.65 6.651 20.469-17.411-12.65-17.411 12.65 6.65-20.469-17.41-12.65h21.52zM88.271 335.448l6.65 20.468h21.522l-17.412 12.65 6.651 20.469-17.411-12.65-17.411 12.65 6.65-20.469-17.41-12.65h21.52zM316.91 329.458l6.65 20.468h21.522l-17.412 12.65 6.651 20.469-17.411-12.65-17.411 12.65 6.65-20.469-17.41-12.65h21.52zM269.82 188.178l6.65 20.468h21.522l-17.412 12.65 6.651 20.469-17.411-12.65-17.411 12.65 6.65-20.469-17.41-12.65h21.52zM198.74 163.428l6.65 20.468h21.522l-17.412 12.65 6.651 20.469-17.411-12.65-17.411 12.65 6.65-20.469-17.41-12.65h21.52zM127.65 186.788l6.65 20.468h21.522l-17.412 12.65 6.651 20.469-17.411-12.65-17.411 12.65 6.65-20.469-17.41-12.65h21.52zM86.184 250.498l6.65 20.468h21.522l-17.412 12.65 6.651 20.469-17.411-12.65-17.411 12.65 6.65-20.469-17.41-12.65h21.52zM198.74 420.408l6.65 20.468h21.522l-17.412 12.65 6.651 20.469-17.411-12.65-17.411 12.65 6.65-20.469-17.41-12.65h21.52zM274.26 399.168l6.65 20.468h21.522l-17.412 12.65 6.651 20.469-17.411-12.65-17.411 12.65 6.65-20.469-17.41-12.65h21.52z"/></g></svg>