<svg xmlns="http://www.w3.org/2000/svg" height="480" width="640"><defs><clipPath id="a" clipPathUnits="userSpaceOnUse"><path fill-opacity=".67" d="M0 0h640v480H0z"/></clipPath></defs><g fill-rule="evenodd" clip-path="url(#a)"><path fill="#0021ad" d="M0 0h640v480H0z"/><path d="M0 0l640 480L639.63.36 0 0z" fill="#1c8a42"/><path d="M428.334 255.097a109.89 109.89 0 11-219.778 0 109.89 109.89 0 11219.778 0z" fill="#ffc639"/><path d="M250.12 206.06c7.517 10.323 18.903 27.606 28.068 23.098 7.143.023 10.838.53 11.807 5.28 16.864 2.875 45.208-4.241 62.832-27.202 0 0 1.49.193.971-8.537.098-3.808 5.2-3.039 5.324-1.811.713 1.89.584 3.31 1.54 3.356 2.181-.73 5.146-5.594 7.632-8.682.68-1.362.31-2.803.468-4.511 1.31-3.23 4.582-2.525 5.275-.838.619 1.089.629 1.929 1.248 3.018 3.32 2.212 9.32.147 9.79.147.588-2.705 2.33-2.451 2.33-2.451 2.211-.49 1.348-.292 2.796.466-1.281 14.605 2.874 15.249 2.53 22.747.149 8.357-2.53 10.734-2.53 13.934.85 3.888 13.185 4.023 8.843 7.322-3.815 2.04.02 5.855-5.728 7.333-16.693 8.478-19.894 15.75-19.894 15.75s-4.194 7.924-4.66 7.924c-2.803 5.287-6.347 2.398-8.313 4.978-.984 3.238-2.09 10.409-.122 14.138.982 5.123-.123 7.918-1.354 13.045-1.106 10.69-5.343 12.31-5.832 16.07-1.968 4.007.413 22.837-1.45 22.837-12.436.245-21.966-2.38-26.884-3.36 4.795-20.653 2.939-38.812 2.939-40.674-1.232-14.774-22.14-11.177-25.334-13.143-2.657-.564-4.324-2.725-5.259-3.658-2.953-.31-4.059-.991-7.012-1.299-1.476.736-.586 1.501-3.876 2.511-8.334 1.006-12.02-7.265-12.02-7.265.406-2.789-18.742.567-29.152-1.848-4.269 2.379-6.131 9.414-9.631 10.253-.1 2.18-5.746-1.792-6.886-3.938-.244-6.243 5.441-9.01 5.441-9.01 4.507-3.168 7.188-3.69 9.36-5.876 1.088-5.437.538-9.457 2.855-13.544 1.961-3.118 4.853-1.655 6.814-3.056 2.114-1.396 3.001-10.54 1.06-13.048 0 0-8.439-7.613-8.904-8.078-2.748-7.877 3.208-12.948 4.918-12.378z" fill="#1c8a42"/><path d="M579.51 72.574c-2.84-11.235-28.252-35.433-47.35-50.832-4.562-3.106-7.534-1.256-6.94 3.173 2.38 3.965 4.162 8.326 6.543 12.292.66 2.643 1.916 4.493 2.577 7.136 0 0 .197 4.56.596 4.956 5.946 6.545 6.74 12.095 6.74 12.095 3.436 6.61 6.475 11.433 12.49 16.852 6.741 4.23 1.782 17.381 1.982 24.388 0 4.428-3.171 3.9-5.947 3.37-21.874-20.09-43.552-20.156-62.653-25.971-7.466-.794-7.599 2.775-5.153 4.756 13.349 14.276 25.907 23.991 42.429 32.12l8.326 5.155 9.516 7.93c7.336 4.759 7.931 9.12 7.931 9.515.197 8.923-4.561 15.861-5.95 18.637-2.504 9.463-7.532 11.103-7.532 11.103-40.842 27.56-62.256 34.696-128.48 26.17-.99-.528-7.336.529 0 3.173 16.854 5.617 58.252 14.623 98.303-4.344 9.617-6.742 16.05-4.53 23.016-8.566 11.437-7.053 27.775-15.837 30.75-16.828 8.921-4.759 33.901-10.112 39.651-14.87 6.609-.53 13.455-1.397 13.918-7.08 2.174-1.401 5.344-.379 7.704-5.005 5.233-.911 4.352-2.787 4.352-2.787-1.321-3.699-6.213-5.22-9.714-7.928-5.156-1.72-8.723-2.248-12.492-.398l-3.568 1.586s-5.551-.792-5.551-1.188c-12.337-.677-11.136-41.56-15.5-58.61z" fill="#ffc639"/><path d="M588.645 72.541a3.106 1.941 15.948 11-5.925-1.86 3.106 1.941 15.948 115.925 1.86z" fill="#1c8a42"/><path fill="#fff" d="M80.835 413.71l-13.98-13.085-14.146 12.903 1.516-19.081-18.91-3.019 15.869-10.715-9.434-16.66 18.273 5.722 7.145-17.765 6.917 17.856 18.345-5.49-9.648 16.54 15.73 10.918-18.947 2.775zM175.379 302.312l-11.01-10.305-11.142 10.162 1.195-15.028-14.894-2.377 12.498-8.44-7.43-13.121 14.391 4.507 5.628-13.992 5.448 14.063 14.448-4.323-7.598 13.026 12.388 8.599-14.922 2.185zM189.773 538.458l-18.406-9.277-7.36 19.256-6.447-19.576-18.82 8.412 9.278-18.398-19.249-7.36 19.576-6.455-8.42-18.812 18.407 9.278 7.36-19.256 6.447 19.575 18.82-8.412-9.278 18.407 19.248 7.351-19.575 6.456zM273.844 399.958l-13.932-.413-6.718 12.222-6.612-12.28-13.932.297 7.33-11.857-7.234-11.926 13.943.413 6.708-12.222 6.611 12.28 13.942-.296-7.33 11.856zM185.688 437.954l-11.874-7.924-11.562 8.344 4.068-13.442-11.727-8.13 14.39-.384 4.307-13.379 4.83 13.21 14.391-.135-11.406 8.55z"/></g></svg>