<svg xmlns="http://www.w3.org/2000/svg" height="480" width="640"><path fill="#fff" d="M0 0h640v480H0z"/><path fill="gray" fill-rule="evenodd" d="M299.104 219.732l1.696-2.236-.882-2.663 2.652.921 2.258-1.662-.056 2.803 2.275 1.64-2.68.81-.854 2.673-1.6-2.303z"/><path d="M164.84 244.11h.308c-.823 0-.39-.063.926.942 1.076.438 2.023.628 3.701.628 1.472.107 2.746.314 4.32.314 1.447.622 2.271 1.19 3.393 1.57.494.762 1.573 2.471 2.159 3.14 1.086.813 2.397 1.31 3.393 2.197 1.242.345 2.031.882 3.394 1.884 1.025.494 1.995.901 3.393 1.57 1.342.472 2.81 1.104 4.01 1.57 1.057.253 2.47.685 3.393 1.255 1.31.29 2.411.662 4.01.942 1.634.198 2.458.638 4.01.942 1.394.718 2.48 1.254 4.011 1.885.621.929 1.155 1.765 2.468 2.197.674.831 1.793 1.052 2.468 1.884.993.479 2.088.796 3.393 1.256 1.573.114 2.708.569 4.319.628h8.638c1.377.166 2.919.386 4.01.627 1.51 0 2.98.026 4.318-.313 1.727-.021 2.532-.513 4.01-.629 1.65.267 2.77.12 3.394 1.57 1.023 1.041 1.644 2.06 1.85 3.454.326.993.31 2.634.31 4.081 0 1.365.007 2.85.308 3.769.982.964 1.747 1.249 3.085 1.57.991.335 2.818.629 3.701 1.255.73.778 1.086 2.015 2.16 2.826.939.734 2.509.887 4.01.941h4.319c1.348 0 3.137.131 4.01-.313 1.336-.495 1.687-1.415 3.393-1.57 1.608.247 1.575 1.021 2.776 1.57.765 1.122 1.49 1.585 2.468 2.197.634.923 1.464 1.64 2.777 1.885 1.607-.166 3.061-.646 4.319-.942.44-1.121.978-1.894 1.542-2.827.418-.72.616-.905.616-2.197.462-.939.405-2.847 0-4.082-.058-1.597-.425-2.442-.616-4.081 0-1.522.071-2.97.308-4.082.634-.745 1.047-1.963 1.543-2.826.841-1.027 1.62-1.413 2.776-1.883.976-.331 2.588-.315 4.01-.315.755-.23 2.008-.154 1.543-.627-.4.407-1.935.536-.309.627.886-.61 2.5-.892 3.394-1.255 1.317-.202 2.107-.658 3.393-.942.961-.573 2.038-.847 3.393-1.256a51.878 51.878 0 013.702-1.256c1.42-.68 2.296-1.062 3.701-1.256.968-.52 2.183-.627 3.703-.627 1.425.93 2.173 1.659 3.393 2.825.583.873 1.105 1.398 1.542 2.512.987.683 1.515 1.187 3.393 1.255 1.486 0 2.075.259 2.468-.94.812-.737 1.233-2.04 2.16-2.827.92-.92 2.057-1.388 3.085-1.883 1.158-.322 2.094-.748 3.701-.942 1.07-.399 2.176-.483 3.393.313.906 1.288 1.929 2.602 3.085 4.082.785.517 1.746.628 3.085.628.941-.479 2.884-.314 4.319-.314 1.263.37 1.815 1.217 3.085 1.57.71.072 1.092.313 1.85.313 2.257.299 3.196.072 4.936-.313h4.319c1.516.057 2.333.313 4.01.313.937.58 2.544.848 3.702 1.257 1.46.35 1.739.914 3.084 1.57.873.443 2.663.313 4.011.313 1.61-.195 2.68-.473 4.01-.942 1.17-.29 1.666-.591 2.16-1.57.766-.53 1.825-1.379 2.468-2.197a8.25 8.25 0 002.158-2.198c.831-.558 2.228-1.98 2.777-2.825.788-.643 1.63-1.988 2.16-2.826.676-1.024 1.53-1.617 2.159-3.14.48-1.467.544-2.618.925-4.081.318-1.187.902-2.19 1.234-3.768.627-1.374 1.13-2.715 1.542-3.768.758-.864 1.26-1.91 2.16-2.825.516-.812 1.204-1.226 1.851-1.884.735-.713 1.843-1.24 3.084-1.57 1.275-.353 1.826-.922 2.468-1.884 1.166-.395 1.854-.907 3.393-1.256 1.354-.408 2.462-.667 3.703-.942h4.318c1.556 0 2.895.142 4.319.315 1.406.408 2.726.765 4.01.942.883.425 2.352 1.202 3.085 1.883.921.62 1.928 1.619 2.468 2.511.403 1.232 1.058 1.776 1.85 2.827.825 1.091 1.518 1.781 3.085 2.511 1.249.295 2.271.83 3.702.942 1.639 0 2.63.206 4.01.314 1.51 0 2.982.026 4.32-.314 1.346-.792 1.83-1.003 2.775-2.198 1.244-.623 2.148-1.117 3.703-1.255 1.021-.227 2.288-.314 3.701-.314.801.559 1.651.77 2.16 1.57.812.585.866.903 2.159.942.882.525 2.181.775 3.393.942h4.318-4.318 4.318c1.183-1.011 1.543-.896 1.543-2.198.955-.779 1.429-1.87 2.468-3.14.564-.932 1.103-1.706 1.542-2.826.337-1.029.756-2.607.926-3.768.39-1.041.757-2.642.925-4.08.374-1.452.618-2.749.618-4.397v-4.395c-.019-1.553-.248-2.638-.618-3.768-.489-1.387-1.306-2.4-1.85-3.453a36.181 36.181 0 01-2.777-2.512 139.866 139.866 0 00-3.702-2.198c-1.35-.851-2.649-1.59-3.702-2.197-.619-.705-1.624-1.672-2.159-2.198-.422-.86-.422-2.909 0-3.768.036-1.307.173-2.06.925-2.826 1.406-.513 2.343-1.19 3.394-1.884.682-.971 1.75-1.158 3.085-2.197 1.335-.596 2.092-.91 3.085-1.884 1.443-.49 2.79-1.488 4.01-1.884.66-.813 1.897-1.485 3.393-1.884 1.07-.741 2.35-1.53 3.393-1.884 1.453-.783 2.532-1.059 4.01-1.884 1.51-.383 2.856-1.073 4.32-1.57.375-.466.822-.812 1.542-.941 1.92-.116 3.52-.326 4.627-1.256 1.24-.448 1.369-1.354 2.16-2.198.567-1.038 1.186-1.499 1.541-2.825.982-1.073.44-1.388-1.234-1.57-.526-.536-1 .004-1.233-.942-1.107-.506-1.396-1.384-2.16-2.198-.466-1.297-.455-1.88.926-2.512.86-.595 2.084-.795 2.776-1.57 1.286-.197 2.262-.762 3.394-1.255 1.676-.122 2.568-.508 4.01-.942a62.665 62.665 0 013.085-1.57c1.268-.559 2.78-1.348 4.01-1.884 1.105-.75 2.51-1.484 4.01-1.883 1.105-.572 2.463-1.02 3.702-1.57 1.057-.254 2.47-.686 3.393-1.257a20.639 20.639 0 004.01-1.255c1.032-.475 2.248-1.072 3.085-1.57 1.278-.562 2.19-1.236 3.394-1.57.729-.708 1.71-1.209 2.776-1.57.868-.82 2.715-1.953 3.701-2.511.936-.452 2.03-.911 2.777-1.57.718-.082.515-.233 1.234-.314 2.248-.69 3.396-.946 4.627-2.198.956-.461 1.94-.962 2.776-1.57 1.03-.831 1.849-1.584 2.468-2.511 1.123-.406 1.738-1.198 2.776-1.885 1.076-.437 2.024-.628 3.702-.628 1.35 0 3.138.13 4.01-.314 1.936-.023 2.44-.496 3.702-1.255.418-1.199 1.31-1.798 2.468-2.512.683-.634 2.408-1.584 3.085-2.198 1.335-.65 1.912-1.48 3.085-2.511.906-.993 2.04-1.91 3.084-2.512 1.297-.575 2.226-.834 3.394-1.256 1.46-.265 2.928-.538 4.315-.942 1.579-.123 2.136-.593 3.399-.942.873-.848 1.402-1.275 2.466-2.512.521-1.442 1.292-1.97 2.775-2.197 1.49-.793 2.686-.887 3.706-1.884 1.043-1.064 1.762-2.26 2.775-3.454.572-1.353 1.108-2.167 1.233-3.767-.022-1.927-.433-2.204-1.233-3.454-.771-1.125-1.255-1.84-1.85-2.826-.961-.553-2.327-1.102-3.398-1.57-1.468.115-2.371.45-3.391.942-1.05.864-1.777 1.574-2.467 2.826-.47 1.011-.785 2.125-1.233 3.453-.587.854-1.989 1.665-3.09 2.198-1.292.575-2.217.834-3.391 1.256-1.46.514-2.142.958-3.7 1.57-.913.44-2.176 1.115-3.086 1.57a26.893 26.893 0 01-3.701 1.884c-1.369.79-2.15 1.224-3.394 1.57-1.402.849-2.76 1.493-4.01 2.197-1.037.519-2.05 1.192-3.394 1.884-1.09.242-2.633.461-4.01.628h-4.627c-1.319-.31-2.887-.579-4.318-1.256-1.537-.81-2.288-1.322-3.394-2.198-.676-1.34-.904-1.98-.925-3.767-.959-.488-2.285-.61-3.702-.628-1.565 0-3.016-.06-4.01.628a6.506 6.506 0 00-3.394 1.57c-1.42.687-2.348 1.515-3.393 2.197-1.087.667-2.494 1.666-3.702 2.198-1.135.495-2.91 1.038-4.319 1.57-1.811.53-3.121 1.114-4.935 1.256-1.549.713-2.763.925-4.319 1.57-1.58.598-2.695 1.038-4.319 1.57-1.07.554-3.005 1.48-4.01 2.197-1.843.938-3.191 1.734-4.628 2.512-1.443.617-2.49 1.203-4.01 1.884-.747.678-2.227 1.209-3.084 1.884-1.377.35-2.958.928-3.702 1.57-1.217.148-1.893.475-2.468 1.256-1.1 1.342-.618 1.255-1.85 1.255-1.055.652-2.694.629-4.32.629-1.645-.045-2.94-.315-4.627-.315-1.447-.263-2.77-.571-4.319-.627h-26.529c-1.639 0-2.63.206-4.01.313-1.535.112-2.732.452-4.01.629-1.39.213-2.026.744-3.085 1.255-.974.47-1.957.943-3.085 1.256-1.515.815-3.257 1.243-4.936 1.57-1.267.598-3.066.918-4.01 1.57-1.446.113-2.393.51-4.01.628-1.374.632-2.506.97-3.703 1.255-1.109.377-2.176.61-3.701.629-1.427.196-2.214.605-3.702.942-.529.453-1.374.776-2.16.941-1.811.874-2.405.942-4.318.942h-4.319c-2.057-.203-4.1-.465-6.17-.942-2.11-.103-4.125-.374-6.17-.627H381.702c-1.63-.06-3.078-.377-4.627-.629-1.45-.263-2.983-.391-4.319-.941-1.918-.103-3.859-.368-5.552-.942-1.543-.28-3.022-.808-4.627-.942-.891-.55-2.639-.734-3.394-1.256-1.41-.11-2.583-.556-3.393-1.256-1.443-.218-2.279-.866-3.702-1.256-1.282-.79-2.829-1.054-4.627-1.884-1.532-.334-3.066-.885-4.627-1.255-1.23-.434-2.73-.846-3.702-1.57-1.364-.379-2.146-.787-3.702-1.257-.726-.658-2.156-1.347-3.085-1.883-.674-.612-2.447-1.663-3.393-2.198a71.163 71.163 0 00-3.393-3.767 12.917 12.917 0 00-3.085-2.512 34.29 34.29 0 01-3.702-1.884c-1.168-.324-2.112-1.047-2.777-1.884-1.051-.606-1.738-1.147-2.776-1.883-1.611.621-1.78.314-3.393.314-1.839-.154-3.191-.212-4.935 0-1.509.18-2.984.313-4.628.313h-4.318c-1.952.024-2.268.281-2.777 1.885-.898 1.004-1.273 2.18-2.16 2.825-.76.982-1.859 1.65-3.084 2.198-1.523 1.072-1.983 1.46-2.776 2.826-1.01.9-1.852 2.19-2.468 3.139-.56.975-.936 1.878-1.234 3.454 0 1.502.121 3.083-.308 4.395 0 1.503.121 3.083-.31 4.396v8.791c.644.963 1.51 1.332 1.852 2.826.457 1.24-.39.796-1.234 1.57h-8.638c-1.573 0-2.846-.208-4.318-.314-1.247-.227-3.071-.31-4.01-.628h-4.319c-1.535-.112-2.731-.452-4.01-.628-1.787-.347-3.023-.873-4.628-1.884-1.643-.358-2.897-.988-4.319-1.884-1.532-.408-2.746-1.227-4.318-1.57-1.058-.51-1.815-1.003-3.085-1.57-.746-1.04-1.466-1.62-3.085-1.884-1.24-.648-2.293-.627-4.01-.627-1.607.194-2.543.62-3.702.942-1.285.592-2.96 1.095-4.01 1.57-1.049.427-2.001 1-3.085 1.57-.83 1.085-1.314 1.734-1.85 2.825-.412 0-.31-.104-.31.314-1.661.06-3.409 0-5.243 0-.87.443-2.564.539-3.702.628-.904.711-1.972 1.328-2.776 1.884-.532 1.083-.904 1.371-.926 3.14.066 1.875.728 2.42 1.234 3.767-.371 1.712-1.031 1.854-2.468 2.198-1.091.24-2.514.313-4.01.313h-9.254c-1.777 0-2.613.02-3.394-.94-.536-1.066-.587-2.422-.925-3.455-.92-1.272-1.33-2.126-2.776-3.14-.319-.972-1.083-2.4-1.542-3.453-.495-1.062-.877-2-1.852-2.826-1.025-.969-2.187-1.598-3.085-2.512-1.032-.674-1.86-1.233-3.701-1.256-1.495 0-2.92.073-4.01.314-.752.664-2.01 1.373-3.085 2.198-.853 1.157-1.609 2.001-2.777 3.14-1.316 1.228-2.625 1.974-3.701 2.512-.986.502-1.992 1.12-2.777 2.197-.916.407-1.36 1.089-1.85 2.198-.806.73-1.267 1.948-1.543 3.14-.503 1.537-.572 3.302-.617 5.023v4.396c-.488.59-.751 1.218-1.542 1.884-.755.684-1.89 1.433-2.777 1.883-.86 1.125-1.395 1.786-1.542 3.454 0 1.372-.127 3.194.309 4.082.623.889 1.882 1.503 3.085 2.198 1.155.417 1.755 1.328 2.467 2.511 1.321.604 1.158 1.163 2.776 1.256.98.784 2.483 1.03 3.703 1.57 1.234.343 1.85.913 3.084 1.255.8 1.06 1.68 1.747 2.16 3.454.13 1.097.556 2.197 0 3.14-1.257.761-2.943 1.246-3.702 1.884-.999.053-.924.29-1.542.628-.013 2.098-.288 3.168-.618 4.709-.105 1.404-.308 2.414-.308 4.082v4.396c.656 1.394 1.523 1.654 2.468 2.511.94.684 1.233 1.49 1.542 2.826.529 1.228 1.093 2.252 1.543 3.453.562 1.203.925 2.294.925 4.082-.154 1.72-.86 2.015-2.16 2.825-.69.85-.462 2.355-.925 3.769 0 1.447-.017 3.088.309 4.08.528.718.4 1.018.617 2.199z" fill-rule="evenodd" fill="#ffce00"/><g fill-rule="evenodd" fill="#009a00"><path d="M203.167 311.073l-.5-.51c1.137 1.157.588.733-.502-2.04-.107-2.94-.806-3.414-2.505-4.59-1.993-.676-2.845-1.543-3.508-3.571-1.274-1.07-2.233-2.503-3.007-4.08a13.397 13.397 0 01-3.508-3.57 13.408 13.408 0 01-3.508-3.57c-1.904-.678-3.16-2.056-5.512-3.06-1.324-1.285-2.567-1.919-4.51-3.062-2.176-1.06-2.3-1.827-5.012-2.04-.83.93-2.143.564-2.506 2.04.11 3.023.701 3.657 2.005 6.121.101 2.786.837 4.097 2.005 6.12 1.423 1.015 2.518 2.816 4.009 4.081 1.591 1.101 2.224 2.271 4.51 3.57 1.194 1.52 3.19 2.336 5.011 3.57 2.242.88 4.08 1.56 5.512 2.551 2.012.481 3.385 1.256 5.011 2.04 2.406.23 3.385.503 6.515 0zM213.693 325.35l-.5-.51c1.19 1.211.622.716-1.003-2.04-1.853-1.786-2.254-3.153-5.011-3.571-1.473-.6-3.863-.97-5.513-1.53-2.853 0-4.16-.31-6.515-1.02-1.683-.467-3.812-1.298-5.512-2.04-2.015-.305-4.102-1.107-6.014-1.53h-7.015c-2.251.539-3.518.563-4.01 3.06 1.028 1.266 2.385 2.37 3.509 3.57.633 2.24 2.162 2.775 3.507 4.08 2.32.818 2.792 1.428 5.513 1.53 2.307.784 3.984.99 6.515 1.021 2.684 0 4.614.554 7.015 1.02 2 .275 3.96.51 6.515.51 2.177 0 4.549-.013 6.014-.51 3.158-2.57 2.505-3.129 2.505.51l1.003 1.02M230.73 333h-.501c1.352 0 .665.033-2.005-.51-2.5-.727-3.919-1.433-6.515-1.53-1.542-.918-3.435-1.02-6.014-1.02h-7.015c-2.481.194-3.533.825-6.014 1.02-1.317.784-3.933 1.428-5.512 2.04-1.41.975-2.613 2.188-4.51 3.06.437 2.534 1.819 3.488 3.508 4.59 1.695.691 3.439 1.343 6.013 1.53 2.462.094 3.79.51 6.515.51 2.553 0 4.515-.234 6.515-.51 1.663-.801 3.078-1.642 5.512-2.04 1.213-1.07 2.99-1.817 4.51-2.55 1.346-.648 3.177-1.247 4.51-2.04l-4.51 2.04c1.346-.648 3.177-1.247 5.512-4.59zM255.156 344.863v-.434c0 1.214.062.57-1.002-1.737-1.855-.847-4.08-1.446-5.513-2.172-2.19 0-5.097-.18-6.515.435-2.53.026-4.208.202-6.515.868-2.199.288-3.466.954-5.01 1.737-1.746.817-4.275 1.867-6.516 2.606-1.98 1.197-2.65 1.899-5.01 3.041-1.487 1.412-3.008 2.26-4.01 3.475-.444 1.466.029 3.195 2.005 3.909 1.25.894 3.168 1.36 5.01 1.737 2.34-.075 4.406-.356 6.015-1.303 2.483-.285 3.958-.916 6.013-1.303 1.759-.541 3.443-1.06 5.513-1.303 1.433-.843 3.975-1.57 5.512-2.172 2.518-.883 4.126-2.049 6.014-3.04.9-.903 2.1-1.877 3.507-2.172l-3.507 2.172c.9-.903 2.1-1.877 4.009-4.344zM274.329 354.593c-.093-.022-2.331-.906-4.009-.906-1.485-.786-3.89-.944-6.013-1.813-2.739 0-4.603.278-6.014 1.36-2.083.254-3.945.807-5.512 1.812-1.951.415-3.722.803-5.513 1.812-2.417.918-3.482 1.778-5.011 2.719-1.032 1.129-3.26 1.76-4.51 2.719-1.122 1.228-1.12 2.853-.501 4.53 1.283.715 3.476 1.424 5.01 2.267 2.24.361 4.524.452 7.017.452 2.225-.154 4.102-.492 5.512-1.359 2.52-1.098 3.192-1.909 5.011-3.172 1.053-1.152 2.814-2.079 4.51-2.718 1.28-1.002 2.831-1.735 5.012-2.266a97.713 97.713 0 003.508-3.172c1.4 0 .438.14 1.503-2.265zM295.942 359.052c-.12-.016-2.83-.442-4.51-.442-1.418-.625-4.325-.442-6.515-.442-2.761.09-3.615.593-5.012 1.767-1.42.771-3.135 1.464-4.51 2.652-1.756.95-3.34 2.259-5.011 3.094-1.839.694-3.423 1.49-5.512 1.767-1.007 1.075-2.773 2.004-4.01 3.093-1.375.91-1.959 1.348-2.004 3.536-1.02.725-1.71 2.15-1.503 2.651 2.028.918 3.704 1.296 6.515 1.326 2.677.028 4.556.542 7.015 0 2.506-.655 3.507-1.113 6.014-1.767 1.28-1.47 2.24-2.454 4.009-3.536.956-1.24 2.1-2.38 4.01-3.093 1.429-1.147 3.544-2.414 5.01-3.094.896-1.106 2.644-2.283 4.01-3.093 1.003-1.499 1.289-1.748 2.004-4.419zM298.382 354.933v-15.301c-2.327-1.4-2.676-2.239-3.508-5.1-1.235-2.04-2.18-3.322-3.007-5.101-1.16-1.24-2.117-2.848-2.506-5.1-.957-1.889-1.55-3.788-3.508-4.591-1.772-.392-4.084-.51-6.514-.51-3.32.125-3.007.72-3.007 4.08.233 2.613 1.052 3.296 2.004 5.61.737 1.583 1.536 3.208 2.506 4.591.75 1.69 1.926 3.866 3.007 5.1.878 1.876 2.14 3.576 2.506 5.612 1.373 1.773 2.322 3.325 3.507 4.59.982 2.085 1.72 3.264 3.508 4.08 1.023 1.56 2.751 1.688 5.012 2.04zM274.329 346.775h.501c-1.4 0-.656.064 2.005-1.02.709-1.443.5-4.4.5-6.63 0-2.904-.471-4.14-1.002-6.121-.911-2.215-1.655-3.253-2.004-5.61-.75-1.611-1.504-3.234-2.005-5.1-.9-1.35-1.544-3.384-2.004-5.1-1.692-.976-3.253-1.955-5.011-2.551-1.594-.768-3.078-1.913-5.011-2.55-2.514.468-2.798 1.311-3.008 4.08-.577 2.057.215 3.917 1.003 5.61.828 2.013 1.322 4.054 2.506 5.61.722 2.289 1.458 3.087 1.503 5.611.863 1.502 1.223 3.712 2.005 5.61 1.006 2.37 1.943 3.39 3.507 5.101 2.14 1.481 2.875 2.103 6.515 3.06zM254.283 340.141c0-.244 1.592-1.247 2.506-2.55.749-1.525.656-4.625 0-6.63-.95-2.39-1.986-4.182-2.506-6.12-.528-1.614-.501-4.28-.501-6.632-.457-2.142-1.21-3.726-2.005-6.12-.647-1.648-1.91-3.71-2.505-5.61-.782-.752-1.665-2.295-2.506-3.06-.98-.817-1.014-1.021-3.006-1.021-2.664.1-4.004.35-5.513 2.04-.528 1.614-.5 4.28-.5 6.63.032 2.811.29 4.14 1.502 6.122.886 2.143 2.743 4.23 4.01 6.12 1.038 1.79 1.7 3.492 3.006 4.59.34 2.298 1.19 3.35 2.005 5.1.34 2.298 1.19 3.35 2.004 5.101 1.311.148.699.474 1.503 1.02l-1.503-1.02c1.311.148.699.474 4.01 2.04zM234.238 324.842c.306-.702 2.166-3.432 2.505-5.101-.034-2.893-.365-4.867-2.005-6.63-.406-1.785-1.39-4.481-2.004-6.121 0-2.352.028-5.017-.5-6.631 0-2.68-.365-4.29-1.004-6.12-1.131-1.694-2.35-2.19-5.01-3.06-2.156-.732-3.646-.205-6.014.51v7.14c.031 2.7.505 4.627 1.503 6.12.815 1.75 1.602 3 2.506 5.1.097 2.773.819 4.206 1.002 6.632.197 2.608.438 3.958 2.004 5.61 2.134 1.027 2.785 2.02 4.51 2.55l-4.51-2.55c2.134 1.027 2.785 2.02 7.017 2.55zM216.203 313.62v-.509c0 1.426-.061.668 1.003-2.04.542-2.211.5-4.645.5-7.141-.154-2.055-.447-4.429-1.001-6.12-.458-2.61-.983-4.245-1.504-6.63-.358-2.072-1.736-4.36-2.506-6.122-.491-1.501-.993-4.631-1.503-6.12-.359-1.907-1.259-2.507-3.007-3.06-1.372-.699-4.641-.699-6.014 0-1.474.52-1.472 1.706-2.003 3.06-.186 2.64-.627 4.589 0 7.14.847 1.476 1.744 3.042 2.505 4.59.985 1.811 1.972 4.527 3.007 6.122.754 2.59 1.033 3.786 2.505 6.12.542 1.653 1.396 3.64 2.506 5.1.713 1.816 1.754 3.102 2.506 5.101 1.352 0 .338-.033 3.006.51z"/><path d="M319.117 368.007h-8.289c-1.273 1.23-1.716 1.938-3.926 2.22-1.115.984-2.172 1.893-3.926 2.22-1.544.342-3.556.444-5.672.444-2.585-.032-3.474.081-3.926-2.22.041-2.288.147-2.416 2.182-2.664 1.089-.916 2.914-1.35 4.799-1.776 1.44-.52 3.203-.98 4.798-1.333 1.547-.559 3.023-1.13 4.363-1.776-.334-1.355-1.41-1.058-2.618-.443-1.567 0-3.436.12-4.363-.445-1.088-1.646-1.678-2.186-4.362-2.22-2.547-.03-2.981-.711-5.235-.888-2.158-.026-3.666-.355-5.235-.888-2.304-.167-3.85-.524-5.671-1.332-.585-.595.803-.718 1.744-.888 1.29-.893 2.655-1.251 4.8-1.332h6.107c2.238 0 3.96.366 6.108.444 1.75.617 3.59.94 4.798 1.776 1.58.536 2.573 1.478 3.49 2.664 1.535.427 3.08.952 4.8 1.332 2.01 0 4.29-.024 5.67.445 1 1.694.21 4.472-.436 6.66z"/><g><path d="M436.833 311.513l.5-.51c-1.137 1.157-.588.733.502-2.04.107-2.94.806-3.414 2.505-4.59 1.993-.676 2.845-1.543 3.508-3.571 1.274-1.07 2.233-2.503 3.007-4.08a13.397 13.397 0 003.508-3.57 13.408 13.408 0 003.508-3.57c1.904-.678 3.16-2.056 5.512-3.06 1.324-1.285 2.567-1.919 4.51-3.062 2.176-1.06 2.3-1.827 5.012-2.04.83.93 2.143.564 2.506 2.04-.11 3.023-.701 3.657-2.005 6.121-.101 2.786-.837 4.097-2.005 6.12-1.423 1.015-2.518 2.816-4.009 4.081-1.591 1.101-2.224 2.271-4.51 3.57-1.194 1.52-3.19 2.336-5.011 3.57-2.242.88-4.08 1.56-5.512 2.551-2.012.481-3.385 1.256-5.011 2.04-2.406.23-3.385.503-6.515 0zM426.307 325.79l.5-.51c-1.19 1.211-.622.716 1.003-2.04 1.853-1.786 2.254-3.153 5.011-3.571 1.473-.6 3.863-.97 5.513-1.53 2.853 0 4.16-.31 6.515-1.02 1.683-.467 3.812-1.298 5.512-2.04 2.015-.305 4.102-1.107 6.014-1.53h7.015c2.251.539 3.518.563 4.01 3.06-1.028 1.266-2.385 2.37-3.509 3.57-.633 2.24-2.162 2.775-3.507 4.08-2.32.818-2.792 1.428-5.513 1.53-2.307.784-3.984.99-6.515 1.021-2.684 0-4.614.554-7.015 1.02-2 .275-3.96.51-6.515.51-2.177 0-4.549-.013-6.014-.51-3.158-2.57-2.505-3.129-2.505.51l-1.003 1.02M409.27 333.44h.501c-1.352 0-.665.033 2.005-.51 2.5-.727 3.919-1.433 6.515-1.53 1.542-.918 3.435-1.02 6.014-1.02h7.015c2.481.194 3.533.825 6.014 1.02 1.317.784 3.933 1.428 5.512 2.04 1.41.975 2.613 2.188 4.51 3.06-.437 2.534-1.819 3.488-3.508 4.59-1.695.691-3.439 1.343-6.013 1.53-2.462.094-3.79.51-6.515.51-2.553 0-4.515-.234-6.515-.51-1.663-.801-3.078-1.642-5.512-2.04-1.213-1.07-2.99-1.817-4.51-2.55-1.346-.648-3.177-1.247-4.51-2.04l4.51 2.04c-1.346-.648-3.177-1.247-5.512-4.59zM384.844 345.303v-.434c0 1.214-.062.57 1.002-1.737 1.855-.847 4.08-1.446 5.513-2.172 2.19 0 5.097-.18 6.515.435 2.53.026 4.208.202 6.515.868 2.199.288 3.466.954 5.01 1.737 1.746.817 4.275 1.867 6.516 2.606 1.98 1.197 2.65 1.899 5.01 3.041 1.487 1.412 3.008 2.26 4.01 3.475.444 1.466-.029 3.195-2.005 3.909-1.25.894-3.168 1.36-5.01 1.737-2.34-.075-4.406-.356-6.015-1.303-2.483-.285-3.958-.916-6.013-1.303-1.759-.541-3.443-1.06-5.513-1.303-1.433-.843-3.975-1.57-5.512-2.172-2.518-.883-4.126-2.049-6.014-3.04-.9-.903-2.1-1.877-3.507-2.172l3.507 2.172c-.9-.903-2.1-1.877-4.009-4.344zM365.671 355.033c.093-.022 2.331-.906 4.009-.906 1.485-.786 3.89-.944 6.013-1.813 2.739 0 4.603.278 6.014 1.36 2.083.254 3.945.807 5.512 1.812 1.951.415 3.722.803 5.513 1.812 2.417.918 3.482 1.778 5.011 2.719 1.032 1.129 3.26 1.76 4.51 2.719 1.122 1.228 1.12 2.853.501 4.53-1.283.715-3.476 1.424-5.01 2.267-2.24.361-4.524.452-7.017.452-2.225-.154-4.102-.492-5.512-1.359-2.52-1.098-3.192-1.909-5.011-3.172-1.053-1.152-2.814-2.079-4.51-2.718-1.28-1.002-2.831-1.735-5.012-2.266a97.713 97.713 0 01-3.508-3.172c-1.4 0-.438.14-1.503-2.265zM344.058 359.492c.12-.016 2.83-.442 4.51-.442 1.418-.625 4.325-.442 6.515-.442 2.761.09 3.615.593 5.012 1.767 1.42.771 3.135 1.464 4.51 2.652 1.756.95 3.34 2.259 5.011 3.094 1.839.694 3.423 1.49 5.512 1.767 1.007 1.075 2.773 2.004 4.01 3.093 1.375.91 1.959 1.348 2.004 3.536 1.02.725 1.71 2.15 1.503 2.651-2.028.918-3.704 1.296-6.515 1.326-2.677.028-4.556.542-7.015 0-2.506-.655-3.507-1.113-6.014-1.767-1.28-1.47-2.24-2.454-4.009-3.536-.956-1.24-2.1-2.38-4.01-3.093-1.429-1.147-3.544-2.414-5.01-3.094-.896-1.106-2.644-2.283-4.01-3.093-1.003-1.499-1.289-1.748-2.004-4.419zM341.618 355.373v-15.301c2.327-1.4 2.676-2.239 3.508-5.1 1.235-2.04 2.18-3.322 3.007-5.101 1.16-1.24 2.117-2.848 2.506-5.1.957-1.889 1.55-3.788 3.508-4.591 1.772-.392 4.084-.51 6.514-.51 3.32.125 3.007.72 3.007 4.08-.233 2.613-1.052 3.296-2.004 5.61-.737 1.583-1.536 3.208-2.506 4.591-.75 1.69-1.926 3.866-3.007 5.1-.878 1.876-2.14 3.576-2.506 5.612-1.373 1.773-2.322 3.325-3.507 4.59-.982 2.085-1.72 3.264-3.508 4.08-1.023 1.56-2.751 1.688-5.012 2.04zM365.671 347.215h-.501c1.4 0 .656.064-2.005-1.02-.709-1.443-.5-4.4-.5-6.63 0-2.904.471-4.14 1.002-6.121.911-2.215 1.655-3.253 2.004-5.61.75-1.611 1.504-3.234 2.005-5.1.9-1.35 1.544-3.384 2.004-5.1 1.692-.976 3.253-1.955 5.011-2.551 1.594-.768 3.078-1.913 5.011-2.55 2.514.468 2.798 1.311 3.008 4.08.577 2.057-.215 3.917-1.003 5.61-.828 2.013-1.322 4.054-2.506 5.61-.722 2.289-1.458 3.087-1.503 5.611-.863 1.502-1.223 3.712-2.005 5.61-1.006 2.37-1.943 3.39-3.507 5.101-2.14 1.481-2.875 2.103-6.515 3.06zM385.717 340.581c0-.244-1.592-1.247-2.506-2.55-.749-1.525-.656-4.625 0-6.63.95-2.39 1.986-4.182 2.506-6.12.528-1.614.501-4.28.501-6.632.457-2.142 1.21-3.726 2.005-6.12.647-1.648 1.91-3.71 2.505-5.61.782-.752 1.665-2.295 2.506-3.06.98-.817 1.014-1.021 3.006-1.021 2.664.1 4.004.35 5.513 2.04.528 1.614.5 4.28.5 6.63-.032 2.811-.29 4.14-1.502 6.122-.886 2.143-2.743 4.23-4.01 6.12-1.038 1.79-1.7 3.492-3.006 4.59-.34 2.298-1.19 3.35-2.005 5.1-.34 2.298-1.19 3.35-2.004 5.101-1.311.148-.699.474-1.503 1.02l1.503-1.02c-1.311.148-.699.474-4.01 2.04zM405.762 325.282c-.306-.702-2.166-3.432-2.505-5.101.034-2.893.365-4.867 2.005-6.63.406-1.785 1.39-4.481 2.004-6.121 0-2.352-.028-5.017.5-6.631 0-2.68.365-4.29 1.004-6.12 1.131-1.694 2.35-2.19 5.01-3.06 2.156-.732 3.646-.205 6.014.51v7.14c-.031 2.7-.505 4.627-1.503 6.12-.815 1.75-1.602 3-2.506 5.1-.097 2.773-.819 4.206-1.002 6.632-.197 2.608-.438 3.958-2.004 5.61-2.134 1.027-2.785 2.02-4.51 2.55l4.51-2.55c-2.134 1.027-2.785 2.02-7.017 2.55zM423.797 314.06v-.509c0 1.426.061.668-1.003-2.04-.542-2.211-.5-4.645-.5-7.141.154-2.055.447-4.429 1.001-6.12.458-2.61.983-4.245 1.504-6.63.358-2.072 1.736-4.36 2.506-6.122.491-1.501.993-4.631 1.503-6.12.359-1.907 1.259-2.507 3.007-3.06 1.372-.699 4.641-.699 6.014 0 1.474.52 1.472 1.706 2.003 3.06.186 2.64.627 4.589 0 7.14-.847 1.476-1.744 3.042-2.505 4.59-.985 1.811-1.972 4.527-3.007 6.122-.754 2.59-1.033 3.786-2.505 6.12-.542 1.653-1.396 3.64-2.506 5.1-.713 1.816-1.754 3.102-2.506 5.101-1.352 0-.338-.033-3.006.51z"/><path d="M320.883 368.447h8.289c1.273 1.23 1.716 1.938 3.926 2.22 1.115.984 2.172 1.893 3.926 2.22 1.544.342 3.556.444 5.672.444 2.585-.032 3.474.081 3.926-2.22-.041-2.288-.147-2.416-2.182-2.664-1.089-.916-2.914-1.35-4.799-1.776-1.44-.52-3.203-.98-4.798-1.333-1.547-.559-3.023-1.13-4.363-1.776.334-1.355 1.41-1.058 2.618-.443 1.567 0 3.436.12 4.363-.445 1.088-1.646 1.678-2.186 4.362-2.22 2.547-.03 2.981-.711 5.235-.888 2.158-.026 3.666-.355 5.235-.888 2.304-.167 3.85-.524 5.671-1.332.585-.595-.803-.718-1.744-.888-1.29-.893-2.655-1.251-4.8-1.332h-6.107c-2.238 0-3.96.366-6.108.444-1.75.617-3.59.94-4.798 1.776-1.58.536-2.573 1.478-3.49 2.664-1.535.427-3.08.952-4.8 1.332-2.01 0-4.29-.024-5.67.445-1 1.694-.21 4.472.436 6.66z"/></g></g></svg>