<svg xmlns="http://www.w3.org/2000/svg" height="480" width="640" version="1"><defs><clipPath id="a" clipPathUnits="userSpaceOnUse"><path fill-opacity=".67" d="M-85.009 0h682.67v512h-682.67z"/></clipPath></defs><g fill-rule="evenodd" clip-path="url(#a)" transform="translate(79.696) scale(.9375)"><path fill="#108c00" d="M-258.27 0h1027.5v512h-1027.5z"/><path fill="#ffd600" d="M-260 178.16H772.6v50.162H-260z"/><path fill="#ffd600" d="M181.08 0h48.432v512H181.08z"/><path d="M227.78 0h48.432v512H227.78z"/><path d="M-260 226.59H772.6v50.162H-260z"/><path fill="#fff" d="M-260 276.76H772.6v50.162H-260z"/><path fill="#fff" d="M276.22 0h48.432v512H276.22z"/><rect transform="scale(-1)" ry="137.51" width="273.75" y="-393.87" x="-394.56" height="275.03" fill="#e72910"/><g stroke-width="1pt"><path d="M250.51 136.92c0-.258 5.61-15.997 5.61-15.997l5.098 15.739s17.081.516 17.081.258-13.512 10.32-13.512 10.32 6.374 18.062 6.119 17.546c-.255-.516-14.787-10.837-14.787-10.837s-14.786 10.32-14.531 10.32 5.608-17.028 5.608-17.028l-13.256-10.064 16.57-.258z"/><path d="M251.274 137.72c0-.224 4.857-13.855 4.857-13.855l4.416 13.631s14.794.447 14.794.224-11.702 8.938-11.702 8.938 5.52 15.643 5.3 15.196c-.222-.447-12.808-9.386-12.808-9.386s-12.806 8.94-12.585 8.94 4.857-14.75 4.857-14.75l-11.481-8.716 14.352-.223z" fill="#ffe700"/><path d="M253.328 139.987c0-.13 2.801-7.989 2.801-7.989l2.546 7.86s8.53.258 8.53.129-6.747 5.154-6.747 5.154 3.182 9.02 3.055 8.761c-.127-.257-7.384-5.411-7.384-5.411s-7.384 5.154-7.256 5.154 2.8-8.504 2.8-8.504l-6.62-5.026 8.275-.129z" fill="#108c00"/></g><g stroke-width="1pt"><path d="M356.875 211.8c0-.258 5.608-15.997 5.608-15.997l5.1 15.739s17.08.516 17.08.258-13.512 10.32-13.512 10.32 6.374 18.062 6.119 17.546c-.255-.516-14.787-10.837-14.787-10.837s-14.786 10.32-14.531 10.32 5.608-17.028 5.608-17.028l-13.256-10.064 16.57-.258z"/><path d="M357.638 212.6c0-.224 4.857-13.855 4.857-13.855l4.416 13.631s14.794.447 14.794.224-11.702 8.938-11.702 8.938 5.52 15.643 5.3 15.196c-.222-.447-12.808-9.386-12.808-9.386s-12.806 8.94-12.585 8.94 4.857-14.75 4.857-14.75l-11.481-8.716 14.352-.223z" fill="#ffe700"/><path d="M359.692 214.867c0-.13 2.801-7.989 2.801-7.989l2.546 7.86s8.53.258 8.53.129-6.747 5.154-6.747 5.154 3.182 9.02 3.055 8.761c-.127-.257-7.384-5.411-7.384-5.411s-7.384 5.154-7.256 5.154 2.8-8.504 2.8-8.504l-6.62-5.026 8.275-.129z" fill="#108c00"/></g><g stroke-width="1pt"><path d="M325.875 330.65c0-.258 5.608-15.997 5.608-15.997l5.1 15.739s17.08.516 17.08.258-13.512 10.32-13.512 10.32 6.374 18.062 6.119 17.546c-.255-.516-14.787-10.837-14.787-10.837S316.697 358 316.952 358s5.608-17.028 5.608-17.028l-13.256-10.064 16.57-.258z"/><path d="M326.638 331.45c0-.224 4.857-13.855 4.857-13.855l4.416 13.631s14.794.447 14.794.224-11.702 8.938-11.702 8.938 5.52 15.643 5.3 15.196c-.222-.447-12.808-9.386-12.808-9.386s-12.806 8.94-12.585 8.94 4.857-14.75 4.857-14.75l-11.481-8.716 14.352-.223z" fill="#ffe700"/><path d="M328.692 333.717c0-.13 2.801-7.989 2.801-7.989l2.546 7.86s8.53.258 8.53.129-6.747 5.154-6.747 5.154 3.182 9.02 3.055 8.761c-.127-.257-7.384-5.411-7.384-5.411s-7.384 5.154-7.256 5.154 2.8-8.504 2.8-8.504l-6.62-5.026 8.275-.129z" fill="#108c00"/></g><g stroke-width="1pt"><path d="M177.167 330.65c0-.258 5.608-15.997 5.608-15.997l5.1 15.739s17.08.516 17.08.258-13.512 10.32-13.512 10.32 6.374 18.062 6.119 17.546c-.255-.516-14.787-10.837-14.787-10.837S167.99 358 168.244 358s5.608-17.028 5.608-17.028l-13.256-10.064 16.57-.258z"/><path d="M177.93 331.45c0-.224 4.857-13.855 4.857-13.855l4.416 13.631s14.794.447 14.794.224-11.702 8.938-11.702 8.938 5.52 15.643 5.3 15.196c-.222-.447-12.808-9.386-12.808-9.386s-12.806 8.94-12.585 8.94 4.857-14.75 4.857-14.75l-11.481-8.716 14.352-.223z" fill="#ffe700"/><path d="M179.984 333.717c0-.13 2.801-7.989 2.801-7.989l2.546 7.86s8.53.258 8.53.129-6.747 5.154-6.747 5.154 3.182 9.02 3.055 8.761c-.127-.257-7.384-5.411-7.384-5.411s-7.384 5.154-7.256 5.154 2.8-8.504 2.8-8.504l-6.62-5.026 8.275-.129z" fill="#108c00"/></g><g stroke-width="1pt"><path d="M150.01 208.74c0-.258 5.608-15.997 5.608-15.997l5.1 15.739s17.08.516 17.08.258-13.512 10.32-13.512 10.32 6.374 18.062 6.119 17.546c-.255-.516-14.787-10.837-14.787-10.837s-14.786 10.32-14.531 10.32 5.608-17.028 5.608-17.028l-13.256-10.064 16.57-.258z"/><path d="M150.773 209.54c0-.224 4.857-13.855 4.857-13.855l4.416 13.631s14.794.447 14.794.224-11.702 8.938-11.702 8.938 5.52 15.643 5.3 15.196c-.222-.447-12.808-9.386-12.808-9.386s-12.806 8.94-12.585 8.94 4.857-14.75 4.857-14.75l-11.481-8.716 14.352-.223z" fill="#ffe700"/><path d="M152.827 211.807c0-.13 2.801-7.989 2.801-7.989l2.546 7.86s8.53.258 8.53.129-6.747 5.154-6.747 5.154 3.182 9.02 3.055 8.761c-.127-.257-7.384-5.411-7.384-5.411s-7.384 5.154-7.256 5.154 2.8-8.504 2.8-8.504l-6.62-5.026 8.275-.129z" fill="#108c00"/></g><g stroke-width="1pt"><path d="M324.615 174.14c0 .258-5.608 15.997-5.608 15.997l-5.1-15.739s-17.08-.516-17.08-.258 13.512-10.32 13.512-10.32-6.374-18.062-6.119-17.546c.255.516 14.787 10.837 14.787 10.837s14.786-10.32 14.531-10.32-5.608 17.028-5.608 17.028l13.256 10.064-16.57.258z"/><path d="M323.852 173.34c0 .224-4.857 13.855-4.857 13.855l-4.416-13.631s-14.794-.447-14.794-.224 11.702-8.938 11.702-8.938-5.52-15.643-5.3-15.196c.222.447 12.808 9.386 12.808 9.386s12.806-8.94 12.585-8.94-4.857 14.75-4.857 14.75l11.481 8.716-14.352.223z" fill="#ffe700"/><path d="M321.798 171.073c0 .13-2.801 7.989-2.801 7.989l-2.546-7.86s-8.53-.258-8.53-.129 6.747-5.154 6.747-5.154-3.182-9.02-3.055-8.761c.127.257 7.384 5.411 7.384 5.411s7.384-5.154 7.256-5.154-2.8 8.504-2.8 8.504l6.62 5.026-8.275.129z" fill="#108c00"/></g><g stroke-width="1pt"><path d="M367.315 290.28c0 .258-5.608 15.997-5.608 15.997l-5.1-15.739s-17.08-.516-17.08-.258 13.512-10.32 13.512-10.32-6.374-18.062-6.119-17.546c.255.516 14.787 10.837 14.787 10.837s14.786-10.32 14.531-10.32-5.608 17.028-5.608 17.028l13.256 10.064-16.57.258z"/><path d="M366.552 289.48c0 .224-4.857 13.855-4.857 13.855l-4.416-13.631s-14.794-.447-14.794-.224 11.702-8.938 11.702-8.938-5.52-15.643-5.3-15.196c.222.447 12.808 9.386 12.808 9.386s12.806-8.94 12.585-8.94-4.857 14.75-4.857 14.75l11.481 8.716-14.352.223z" fill="#ffe700"/><path d="M364.498 287.213c0 .13-2.801 7.989-2.801 7.989l-2.546-7.86s-8.53-.258-8.53-.129 6.747-5.154 6.747-5.154-3.182-9.02-3.055-8.761c.127.257 7.384 5.411 7.384 5.411s7.384-5.154 7.256-5.154-2.8 8.504-2.8 8.504l6.62 5.026-8.275.129z" fill="#108c00"/></g><g stroke-width="1pt"><path d="M261.425 375.25c0 .258-5.608 15.997-5.608 15.997l-5.1-15.739s-17.08-.516-17.08-.258 13.512-10.32 13.512-10.32-6.374-18.062-6.119-17.546c.255.516 14.787 10.837 14.787 10.837s14.786-10.32 14.531-10.32-5.608 17.028-5.608 17.028l13.256 10.064-16.57.258z"/><path d="M260.662 374.45c0 .224-4.857 13.855-4.857 13.855l-4.416-13.631s-14.794-.447-14.794-.224 11.702-8.938 11.702-8.938-5.52-15.643-5.3-15.196c.222.447 12.808 9.386 12.808 9.386s12.806-8.94 12.585-8.94-4.857 14.75-4.857 14.75l11.481 8.716-14.352.223z" fill="#ffe700"/><path d="M258.608 372.183c0 .13-2.801 7.989-2.801 7.989l-2.546-7.86s-8.53-.258-8.53-.129 6.747-5.154 6.747-5.154-3.182-9.02-3.055-8.761c.127.257 7.384 5.411 7.384 5.411s7.384-5.154 7.256-5.154-2.8 8.504-2.8 8.504l6.62 5.026-8.275.129z" fill="#108c00"/></g><g stroke-width="1pt"><path d="M161.935 290.28c0 .258-5.608 15.997-5.608 15.997l-5.1-15.739s-17.08-.516-17.08-.258 13.512-10.32 13.512-10.32-6.374-18.062-6.119-17.546c.255.516 14.787 10.837 14.787 10.837s14.786-10.32 14.531-10.32-5.608 17.028-5.608 17.028l13.256 10.064-16.57.258z"/><path d="M161.172 289.48c0 .224-4.857 13.855-4.857 13.855l-4.416-13.631s-14.794-.447-14.794-.224 11.702-8.938 11.702-8.938-5.52-15.643-5.3-15.196c.222.447 12.808 9.386 12.808 9.386s12.806-8.94 12.585-8.94-4.857 14.75-4.857 14.75l11.481 8.716-14.352.223z" fill="#ffe700"/><path d="M159.118 287.213c0 .13-2.801 7.989-2.801 7.989l-2.546-7.86s-8.53-.258-8.53-.129 6.747-5.154 6.747-5.154-3.182-9.02-3.055-8.761c.127.257 7.384 5.411 7.384 5.411s7.384-5.154 7.256-5.154-2.8 8.504-2.8 8.504l6.62 5.026-8.275.129z" fill="#108c00"/></g><g stroke-width="1pt"><path d="M198.655 175.85c0 .258-5.608 15.997-5.608 15.997l-5.1-15.739s-17.08-.516-17.08-.258 13.512-10.32 13.512-10.32-6.374-18.062-6.119-17.546c.255.516 14.787 10.837 14.787 10.837s14.786-10.32 14.531-10.32-5.608 17.028-5.608 17.028l13.256 10.064-16.57.258z"/><path d="M197.892 175.05c0 .224-4.857 13.855-4.857 13.855l-4.416-13.631s-14.794-.447-14.794-.224 11.702-8.938 11.702-8.938-5.52-15.643-5.3-15.196c.222.447 12.808 9.386 12.808 9.386s12.806-8.94 12.585-8.94-4.857 14.75-4.857 14.75l11.481 8.716-14.352.223z" fill="#ffe700"/><path d="M195.838 172.783c0 .13-2.801 7.989-2.801 7.989l-2.546-7.86s-8.53-.258-8.53-.129 6.747-5.154 6.747-5.154-3.182-9.02-3.055-8.761c.127.257 7.384 5.411 7.384 5.411s7.384-5.154 7.256-5.154-2.8 8.504-2.8 8.504l6.62 5.026-8.275.129z" fill="#108c00"/></g><g transform="translate(-250.6 359.43) scale(1.0355)"><g transform="matrix(.1635 -.01628 .01182 .18436 429.84 -215.63)" stroke="#000" stroke-width="2.5" fill="#009200"><ellipse rx="30.805" ry="189.82" transform="matrix(1.4051 -.00581 .00817 .99998 -534.29 263.72)" cy="586.13" cx="680.21"/><ellipse rx="30.805" ry="189.82" transform="matrix(1.4862 -.00581 .00864 .99998 -547.22 267.05)" cy="586.13" cx="680.21"/><ellipse rx="30.805" ry="189.82" transform="matrix(1.189 -.00642 .00691 1.1052 -364.93 214.1)" cy="586.13" cx="680.21"/></g><g stroke="#000" transform="translate(72.865 -9.797)"><path d="M238.34 971.79c29.972-1.665 16.651-16.652 31.637-24.977 14.986-8.326 36.633-3.33 43.293 6.66 6.661 9.991 1.666 19.982 9.991 19.982 8.326 0 234.56-12.675 242.88-4.349 8.326 8.325 9.991 24.977 1.665 31.634-8.325 6.66-294.5 14.34-304.49 7.68-9.991-6.66-24.977-34.965-24.977-36.63z" transform="matrix(.20244 .00349 -.00394 .21385 340.86 -247.31)" stroke-width="2.505" fill="#a95600"/><path d="M529.59 405.46c0 39.983 45.562 27.879 46.81 61.249-.724 35.408-76.706 3.467-78.635-61.249 1.929-64.716 75.107-97.929 76.705-61.011 1.246 30.686-44.88 21.028-44.88 61.011z" transform="matrix(.14799 .00195 -.00275 .11459 340.42 -81.691)" stroke-width="3.853" fill="#ff0"/><path d="M529.59 405.46c0 39.983 45.562 27.879 46.81 61.249-.724 35.408-76.706 3.467-78.635-61.249 1.929-64.716 75.107-97.929 76.705-61.011 1.246 30.686-44.88 21.028-44.88 61.011z" transform="matrix(.14799 .00195 -.00275 .11459 344.42 -81.638)" stroke-width="3.853" fill="#ff0"/><path d="M529.59 405.46c0 39.983 45.562 27.879 46.81 61.249-.724 35.408-76.706 3.467-78.635-61.249 1.929-64.716 75.107-97.929 76.705-61.011 1.246 30.686-44.88 21.028-44.88 61.011z" transform="matrix(.14799 .00195 -.00275 .11459 348.71 -81.8)" stroke-width="3.853" fill="#ff0"/><path d="M529.59 405.46c0 39.983 45.562 27.879 46.81 61.249-.724 35.408-76.706 3.467-78.635-61.249 1.929-64.716 75.107-97.929 76.705-61.011 1.246 30.686-44.88 21.028-44.88 61.011z" transform="matrix(.14799 .00195 -.00275 .11459 352.71 -81.747)" stroke-width="3.853" fill="#ff0"/><ellipse rx="3.534" ry="3.403" transform="matrix(1.0945 .01648 -.02429 1.1537 -75.571 4.678)" cy="-41.086" cx="478.38" stroke-width=".399" fill="#a95600"/></g><g transform="rotate(-5.798 688.344 -625.25)" stroke="#000" stroke-width="2.5" fill="#009200"><ellipse rx="20.814" ry="24.144" transform="matrix(.16619 -.00807 .00169 .3152 369.8 -361.65)" cy="905" cx="427.11"/><ellipse rx="20.814" ry="24.144" transform="matrix(.16619 -.00807 .00169 .3152 364.04 -362.7)" cy="905" cx="427.11"/><ellipse rx="20.814" ry="24.144" transform="matrix(.16619 -.00807 .00169 .3152 360.64 -370.55)" cy="905" cx="427.11"/><ellipse rx="20.814" ry="24.144" transform="matrix(.1599 -.0089 .00162 .34772 369.3 -399.35)" cy="905" cx="427.11"/><ellipse rx="20.814" ry="24.144" transform="matrix(.1599 -.00835 .00162 .32604 377.41 -379.07)" cy="905" cx="427.11"/><ellipse rx="20.814" ry="24.144" transform="matrix(.1599 -.00835 .00162 .32604 373.22 -382.21)" cy="905" cx="427.11"/><ellipse rx="20.814" ry="24.144" transform="matrix(.1599 -.00835 .00162 .32604 367.99 -386.66)" cy="905" cx="427.11"/><ellipse rx="20.814" ry="24.144" transform="matrix(.1599 -.00835 .00162 .32604 363.01 -389.54)" cy="905" cx="427.11"/></g><path d="M173.17 346.35s-54.198 64.893-21.252 208.82c33.958 144.59 178.96 189.78 178.96 189.78s26.496-47.423 1.726-164.04c-39.96-169.85-116.14-234.56-116.14-234.56h-43.293z" transform="matrix(.17689 .0322 -.03142 .18236 461.79 -208.61)" stroke="#000" stroke-width="2.5" fill="#804bff"/><g transform="rotate(4.469 180.984 769.886)" stroke="#000" stroke-width="2.5" fill="#009200"><ellipse rx="20.814" ry="24.144" transform="matrix(.16619 -.00807 .00169 .3152 369.8 -361.65)" cy="905" cx="427.11"/><ellipse rx="20.814" ry="24.144" transform="matrix(.16619 -.00807 .00169 .3152 364.04 -362.7)" cy="905" cx="427.11"/><ellipse rx="20.814" ry="24.144" transform="matrix(.16619 -.00807 .00169 .3152 360.64 -370.55)" cy="905" cx="427.11"/><ellipse rx="20.814" ry="24.144" transform="matrix(.1599 -.0089 .00162 .34772 369.3 -399.35)" cy="905" cx="427.11"/><ellipse rx="20.814" ry="24.144" transform="matrix(.1599 -.00835 .00162 .32604 377.41 -379.07)" cy="905" cx="427.11"/><ellipse rx="20.814" ry="24.144" transform="matrix(.1599 -.00835 .00162 .32604 373.22 -382.21)" cy="905" cx="427.11"/><ellipse rx="20.814" ry="24.144" transform="matrix(.1599 -.00835 .00162 .32604 367.99 -386.66)" cy="905" cx="427.11"/><ellipse rx="20.814" ry="24.144" transform="matrix(.1599 -.00835 .00162 .32604 363.01 -389.54)" cy="905" cx="427.11"/></g><ellipse rx="58.28" ry="186.49" stroke="#000" transform="matrix(.15695 -.06063 .06364 .1484 369.61 -145.05)" cy="606.11" cx="624.42" stroke-width="1pt" fill="#c90000"/><g stroke="#000" fill="#009200" transform="rotate(1.025 242.403 -1957.802)"><ellipse rx="10.823" ry="12.905" transform="matrix(.3953 0 0 .2927 445.07 -230.53)" cy="356.75" cx="218.13" stroke-width="1.464"/><ellipse rx="10.823" ry="12.905" transform="matrix(.35412 0 0 .2927 457.17 -235.92)" cy="356.75" cx="218.13" stroke-width="1.546"/><ellipse rx="10.823" ry="12.905" transform="matrix(.35412 0 0 .2927 452 -235.92)" cy="356.75" cx="218.13" stroke-width="1.546"/><ellipse rx="10.823" ry="12.905" transform="matrix(.37059 0 0 .27478 449.48 -233.46)" cy="356.75" cx="218.13" stroke-width="1.56"/><ellipse rx="10.823" ry="12.905" transform="matrix(.37059 0 0 .27478 448.95 -237.93)" cy="356.75" cx="218.13" stroke-width="1.56"/><ellipse rx="10.823" ry="12.905" transform="matrix(.35412 0 0 .2927 447.01 -238.85)" cy="356.75" cx="218.13" stroke-width="1.546"/><ellipse rx="10.823" ry="12.905" transform="matrix(.35412 0 0 .28673 448.08 -241.58)" cy="356.75" cx="218.13" stroke-width="1.562"/><ellipse rx="10.823" ry="12.905" transform="matrix(.3953 0 0 .2927 432.77 -243.48)" cy="356.75" cx="218.13" stroke-width="1.464"/><ellipse rx="10.823" ry="12.905" transform="matrix(.37059 0 0 .27478 445.92 -243.48)" cy="356.75" cx="218.13" stroke-width="1.56"/><ellipse rx="10.823" ry="12.905" transform="matrix(.35412 0 0 .28673 444.16 -246.97)" cy="356.75" cx="218.13" stroke-width="1.562"/><ellipse rx="10.823" ry="12.905" transform="matrix(.35412 0 0 .2927 436.14 -243.17)" cy="356.75" cx="218.13" stroke-width="1.546"/><ellipse rx="10.823" ry="12.905" transform="matrix(.35412 0 0 .28673 437.42 -243.88)" cy="356.75" cx="218.13" stroke-width="1.562"/><ellipse rx="10.823" ry="12.905" transform="matrix(.35412 0 0 .28673 438.99 -247.02)" cy="356.75" cx="218.13" stroke-width="1.562"/></g><g stroke="#000" fill="#009200" transform="matrix(.17961 -.00452 .0042 .18512 420.99 -216.8)"><ellipse rx="67.438" ry="205.64" transform="matrix(.97574 -.30793 .36304 .87448 -245.81 324.4)" cy="564.48" cx="528.68" stroke-width="2.545"/><ellipse rx="13.321" ry="40.796" transform="rotate(-23.381 630.524 660.846)" cy="646.07" cx="528.68" stroke-width="2.5"/><path d="M139.87 643.99c0 57.677-18.755 86.171-34.551 110.32 7.517-32.47 12.905-52.637 12.905-110.31 0-57.677 29.579-85.337 40.379-101.99-4.186 16.652-18.733 44.312-18.733 101.99z" transform="matrix(1.8828 -.45598 .95342 1.1822 -352.26 -10.02)" stroke-width="1.533"/><path d="M139.87 643.99c0 57.677-18.755 86.171-34.551 110.32 7.517-32.47 12.905-52.637 12.905-110.31 0-57.677 29.579-85.337 40.379-101.99-4.186 16.652-18.733 44.312-18.733 101.99z" transform="matrix(1.8828 -.45598 .95342 1.1822 -348.42 44.058)" stroke-width="1.533"/><path d="M139.87 643.99c0 57.677-18.755 86.171-34.551 110.32 7.517-32.47 12.905-52.637 12.905-110.31 0-57.677 29.579-85.337 40.379-101.99-4.186 16.652-18.733 44.312-18.733 101.99z" transform="matrix(1.873 -.49468 .97758 1.1623 -361.92 105.78)" stroke-width="1.533"/><ellipse rx="13.321" ry="40.796" transform="matrix(1.8105 -.40052 .69907 1.6353 -915.63 -221.01)" cy="646.07" cx="528.68" stroke-width="1.389"/><ellipse rx="13.321" ry="40.796" transform="matrix(1.6257 -.23068 .54158 1.3528 -739.49 -91.775)" cy="646.07" cx="528.68" stroke-width="1.64"/><ellipse rx="13.321" ry="40.796" transform="matrix(1.6304 -.19719 .51251 1.3635 -750.62 -91.826)" cy="646.07" cx="528.68" stroke-width="1.64"/><ellipse rx="13.321" ry="40.796" transform="matrix(1.3144 -.2006 .46889 1.0101 -531.06 47.568)" cy="646.07" cx="528.68" stroke-width="2.097"/><ellipse rx="13.321" ry="40.796" transform="matrix(1.3258 -.13044 .40342 1.0327 -517.87 12.211)" cy="646.07" cx="528.68" stroke-width="2.097"/><path d="M145.7 569.47c0 34.006-6.712 61.61-14.985 61.61-8.272 0-14.986-27.604-14.986-61.61" transform="matrix(1.0254 -.49277 .46438 1.1773 12.767 -14.519)" stroke-width="2.086"/><ellipse rx="13.321" ry="40.796" transform="matrix(1.3258 -.13044 .40342 1.0327 -519.53 -34.412)" cy="646.07" cx="528.68" stroke-width="2.097"/><ellipse rx="13.321" ry="40.796" transform="matrix(1.3288 -.10511 .37955 1.04 -533.98 -40.121)" cy="646.07" cx="528.68" stroke-width="2.097"/><path d="M145.7 569.47c0 34.006-6.712 61.61-14.985 61.61-8.272 0-14.986-27.604-14.986-61.61" transform="matrix(.6722 -.47182 .45894 .7991 39.486 143.28)" stroke-width="2.88"/><path d="M145.7 569.47c0 34.006-6.712 61.61-14.985 61.61-8.272 0-14.986-27.604-14.986-61.61" transform="matrix(.6722 -.47182 .45894 .7991 51.142 125.79)" stroke-width="2.88"/><path d="M145.7 569.47c0 34.006-6.712 61.61-14.985 61.61-8.272 0-14.986-27.604-14.986-61.61" transform="matrix(.9374 -.64468 .64 1.0919 -40.198 -10.744)" stroke-width="2.086"/><path d="M145.7 569.47c0 34.006-6.712 61.61-14.985 61.61-8.272 0-14.986-27.604-14.986-61.61" transform="matrix(.6722 -.52022 .45894 .88108 68.626 71.179)" stroke-width="2.742"/></g><g stroke="#000" stroke-width="2.5" fill="#804bff"><path d="M276.27 345.41c-12.278 9.174.409 25.144 12.022 30.679 13.06 7.672 86.603 58.185 136.32 11.999-40.795.833-118.66-63.183-148.34-42.678z" transform="matrix(.15613 .00741 -.00415 .22464 457.948 -214.274)"/><path d="M276.27 345.41c-12.278 9.174.409 25.144 12.022 30.679 13.06 7.672 86.603 58.185 136.32 11.999-40.795.833-118.66-63.183-148.34-42.678z" transform="matrix(.15613 .00741 -.00415 .22464 456.55 -220.151)"/><path d="M276.27 345.41c-12.278 9.174.409 25.144 12.022 30.679 13.06 7.672 86.603 58.185 136.32 11.999-40.795.833-118.66-63.183-148.34-42.678z" transform="matrix(.15613 .00741 -.00415 .22464 454.775 -225.77)"/><path d="M276.27 345.41c-12.278 9.174.409 25.144 12.022 30.679 13.06 7.672 86.603 58.185 136.32 11.999-40.795.833-118.66-63.183-148.34-42.678z" transform="matrix(.15613 .00741 -.00415 .22464 450.905 -232.203)"/></g><g transform="rotate(1.025 -589.593 681.628)"><path d="M211.17 247.3c21.773-12.065 56.618-9.749 79.734 11.165 19.36 16.943 45.307 75.194 70.322 92.834-20.227.019-31.298-5.769-42.241-15.18-28.767 15.442-38.127 16.724-63.89 15.632-35.881-1.334-62.459-17.654-68.178-40.604-6.166-21.804 4.925-52.498 24.253-63.847z" transform="matrix(.20883 -.04091 .0473 .1806 407.8 -213.64)" stroke="#000" stroke-width="2.5" fill="#804bff"/><ellipse rx="14.154" ry="14.986" stroke="#000" transform="matrix(.24521 0 0 .13433 401.82 -215.18)" cy="323.04" cx="287.23" stroke-width="2.5" fill="red"/><ellipse rx="23.254" ry="15.895" stroke="#000" transform="matrix(.19364 -.07599 .06759 .17273 398.66 -208.06)" cy="348.26" cx="204.58" stroke-width="2.5" fill="#ff0"/><circle transform="matrix(.21412 0 0 .18518 411.29 -233.74)" cy="333.86" cx="283.9" r="5.828"/><path d="M516.8 260.29c4.425 18.107-6.674 43.083-33.133 52.609-26.775 13.173-46.079 41.831-55.641 88.017-47.244-103.27-23.107-148.28 20.6-160.35 37.377-14.363 60.42-13.371 68.174 19.72z" transform="matrix(.09229 .00089 -.0034 .08482 417.85 -191.49)" stroke="#000" stroke-width="6.56" fill="#ff0"/><circle transform="matrix(.18697 -.01313 .01399 .19143 418.69 -234.98)" cy="362.39" cx="198.98" r="4.71"/></g></g></g></svg>