<svg xmlns="http://www.w3.org/2000/svg" height="480" width="640" version="1"><g stroke-width="1pt" fill-rule="evenodd"><path fill="#fff" d="M0 0h640.011v479.997H0z"/><path fill="#00bf13" d="M0 0h320.006v479.997H0z"/><g fill="#f21930"><path d="M445.896 308.66c-40.313 72.507-129.227 98.27-199.877 59.356S149.613 240.18 188.527 169.53c38.914-70.648 127.829-96.406 198.479-57.491 26.118 14.386 44.714 33.298 59.34 60.237-5.338-7.34-11.297-13.4-19.12-19.55-48.189-37.886-118.045-29.525-155.93 18.664-37.886 48.189-29.525 118.046 18.663 155.931 48.19 37.887 118.046 29.525 155.931-18.664z"/><path d="M411.372 321.598l-35.185-49.871-58.022 18.923 36.551-48.875-35.924-49.332 57.78 19.662 35.82-49.412-.852 61.028 58.062 18.794-58.295 18.046z"/></g></g></svg>