<svg xmlns="http://www.w3.org/2000/svg" height="480" width="640"><defs><clipPath id="a" clipPathUnits="userSpaceOnUse"><path fill-opacity=".67" d="M-85.333 0h682.67v512h-682.67z"/></clipPath></defs><g clip-path="url(#a)" transform="translate(80) scale(.9375)"><g fill-rule="evenodd"><path fill="#fff" d="M-128 168.222h767.975v171.886H-128z"/><path d="M-128 340.108h767.975v171.886H-128z"/><path fill="red" d="M-128 0h767.975v168.222H-128z"/><path d="M322.44-322.44h7.087l3.75 60.236-7.294 7.087-7.086-7.087 3.543-60.236z" transform="matrix(.6253 -.03307 .05903 .78309 65.273 520.62)" stroke="#fff" stroke-width="1pt" fill="#d7b900"/><path d="M322.44-322.44h7.087l3.75 60.236-7.294 7.087-7.086-7.087 3.543-60.236z" transform="matrix(.62589 .02387 -.0426 .78383 23.814 502.291)" stroke="#fff" stroke-width="1pt" fill="#d7b900"/><g stroke="#fff" stroke-width="4.824" fill="#d7b900"><path d="M177.16 255.12l-17.716 442.91 35.433-35.434 17.716-407.48H177.16z" transform="matrix(-.27524 0 0 .19593 355.877 162.134)"/><path d="M177.16 290.55l-17.717 407.48 35.433-35.434 17.717-372.05H177.16z" transform="matrix(-.27524 0 0 .19593 346.125 155.188)"/><path d="M177.17 325.98l-17.718 372.05 35.433-35.434 17.718-336.61H177.17z" transform="matrix(-.27524 0 0 .19593 336.372 148.252)"/><path d="M177.16 361.42l-17.717 336.62 35.433-35.434 17.717-301.18H177.16z" transform="matrix(-.27524 0 0 .19593 326.619 141.306)"/></g><g stroke="#fff" stroke-width="4.824" fill="#d7b900"><path d="M177.16 255.12l-17.716 442.91 35.433-35.434 17.716-407.48H177.16z" transform="matrix(.24495 0 0 .19593 144.927 162.075)"/><path d="M177.16 290.55l-17.717 407.48 35.433-35.434 17.717-372.05H177.16z" transform="matrix(.24495 0 0 .19593 153.606 155.128)"/><path d="M177.17 325.98l-17.717 372.05 35.433-35.434 17.717-336.61H177.17z" transform="matrix(.24495 0 0 .19593 162.274 148.192)"/><path d="M177.16 361.42l-17.716 336.62 35.433-35.434 17.716-301.18H177.16z" transform="matrix(.24495 0 0 .19593 171.326 142.16)"/></g><path d="M181.73 256.05c-1.004-1.312 19.847-18.646 55.28-18.646 53.15 0 61.307 18.646 96.741 18.646h152.02c35.433 0 45.723-18.646 98.872-18.646 35.433 0 52.168 18.293 53.149 18.646 0 0-17.716-.93-53.149-.93s-49.3 39.04-85.052 38.222c-26.788.818-144.23 0-179.66 0-35.433 0-47.486-37.292-82.92-37.292-35.433 0-56.284-1.312-55.28 0z" transform="matrix(.26462 0 0 .19613 139.543 161.895)" stroke="#d7b900" stroke-width="4.824" fill="#fff"/><path d="M400.39-109.84v3.543l3.543 3.543-3.543 3.543v3.544c-14.174 7.086-28.849 7.086-42.52 7.086-13.67 0-28.346 0-46.063-7.086v-3.544l-3.543-3.543 3.543-3.543v-3.543c14.173 3.543 28.347 7.086 46.063 7.086 17.717 0 28.347-3.543 42.52-7.086z" transform="matrix(1.3656 0 0 1.2423 -238.123 442.847)" stroke="#d7b900" stroke-width="1pt" fill="#fff"/><g transform="matrix(-1.09681 .2937 .31472 1.02357 681.2 318.847)" stroke="#d7b900" fill="#fff"><rect transform="matrix(-.56396 -.8258 -.8884 .45907 0 0)" rx="2.395" ry="4.505" height="40.13" width="4.789" y="-406.53" x="-73.159" stroke-width=".623"/><g stroke-width="4.713"><path d="M318.9 574.02l17.716 17.716 17.717-17.716 17.716 17.716 17.717-17.716 17.716 17.716c5.257-9.426 7.092-22.888-.112-36.519-36.185-13.818-68.824-12.643-107.18 1.188-3.087 11.031-2.975 23.928 0 35.433l18.709-17.818z" transform="matrix(-.12173 .09164 .17487 .38142 323.454 -377.054)"/><path d="M318.9 574.02l17.716 17.716 17.717-17.716 17.716 17.716 17.717-17.716 17.716 17.716c5.257-9.426 7.092-22.888-.112-36.519-36.185-13.818-68.824-12.643-107.18 1.188-3.087 11.031-2.975 23.928 0 35.433l18.709-17.818z" transform="matrix(-.12173 .09164 .17487 .38142 320.18 -384.163)"/><path d="M318.9 574.02l17.716 17.716 17.717-17.716 17.716 17.716 17.717-17.716 17.716 17.716c5.257-9.426 7.092-22.888-.112-36.519-36.185-13.818-68.824-12.643-107.18 1.188-3.087 11.031-2.975 23.928 0 35.433l18.709-17.818z" transform="matrix(-.12173 .09164 .17487 .38142 316.907 -391.273)"/><path d="M318.9 574.02l17.716 17.716 17.717-17.716 17.716 17.716 17.717-17.716 17.716 17.716c5.257-9.426 7.092-22.888-.112-36.519-36.185-13.818-68.824-12.643-107.18 1.188-3.087 11.031-2.975 23.928 0 35.433l18.709-17.818z" transform="matrix(-.12173 .09164 .17487 .38142 312.79 -400.027)"/><path d="M318.9 574.02l17.716 17.716 17.717-17.716 17.716 17.716 17.717-17.716 17.716 17.716c5.257-9.426 7.092-22.888-.112-36.519-36.185-13.818-68.824-12.643-107.18 1.188-3.087 11.031-2.975 23.928 0 35.433l18.709-17.818z" transform="matrix(-.12173 .09164 .17487 .38142 309.517 -407.134)"/><path d="M318.9 574.02l17.716 17.716 17.717-17.716 17.716 17.716 17.717-17.716 17.716 17.716c5.257-9.426 7.092-22.888-.112-36.519-36.185-13.818-68.824-12.643-107.18 1.188-3.087 11.031-2.975 23.928 0 35.433l18.709-17.818z" transform="matrix(-.12173 .09164 .17487 .38142 306.244 -414.244)"/></g><path d="M345.63-96.125c0 3.28-1.12 5.938-2.5 5.938s-2.5-2.659-2.5-5.938 1.12-5.938 2.5-5.938 2.5 2.659 2.5 5.938z" transform="matrix(.498 -.38506 .29096 .65904 228.03 87.159)" stroke-width="1pt"/><path d="M345.63-96.125c0 3.28-1.12 5.938-2.5 5.938s-2.5-2.659-2.5-5.938 1.12-5.938 2.5-5.938 2.5 2.659 2.5 5.938z" transform="matrix(.498 -.42984 .29096 .73568 242.09 102.86)" stroke-width="1pt"/><path d="M345.63-96.125c0 3.28-1.12 5.938-2.5 5.938s-2.5-2.659-2.5-5.938 1.12-5.938 2.5-5.938 2.5 2.659 2.5 5.938z" transform="matrix(.53454 -.41491 .31232 .71013 245.2 88.253)" stroke-width="1pt"/></g><path d="M268.29 261.84s32.89-42.159 32.89-95.309h70.866c0 53.15 34.308 95.309 35.434 88.584-17.717 0-53.15-17.717-70.866-53.15-17.716 35.434-50.608 59.875-68.324 59.875z" transform="matrix(.31786 0 0 .19613 138.924 168.067)" stroke="#d7b900" stroke-width="4.824" fill="#fff"/><path d="M253.46 240.41s47.939-58.726 47.939-111.88V53.946c0-17.717 23.97-18.646 35.955-18.646 17.717 0 35.954.929 35.954 18.646v74.584c0 53.149 47.94 111.88 47.94 111.88-35.433 0-54.193-39.151-71.909-74.584 0 17.717 4.993 53.862-12.724 71.579-17.716-17.717-11.246-53.862-11.246-71.579-17.717 35.433-36.475 74.584-71.909 74.584z" transform="matrix(.30514 0 0 .19613 143.207 168.614)" stroke="#d7b900" stroke-width="4.824" fill="#fff"/><path d="M283.12 77.953h53.149c0 17.716 0 35.433-17.716 35.433-17.717 0-35.433-17.717-35.433-35.433z" transform="matrix(.25007 .07995 -.05567 .12216 162.352 142.1)" stroke="#d7b900" stroke-width="5.909" fill="#fff"/><path d="M183.96 42.52c11.811 0 11.811 17.716 11.811 35.433-17.716 0-29.528-17.717-47.244 0 0-19.559 0-35.433 17.716-35.433h17.717z" transform="matrix(.3751 .11992 -.05567 .12216 172.023 147.663)" stroke="#d7b900" stroke-width="4.824" fill="#fff"/><path d="M336.61 69.094a8.858 8.858 0 11-17.717 0 8.858 8.858 0 0117.717 0z" transform="matrix(.25007 .07995 -.08351 .18324 168.37 139.808)" stroke="#d7b900" stroke-width="4.824" fill="#fff"/><path d="M322.44-322.44h7.087l3.75 60.236-7.294 7.087-7.086-7.087 3.543-60.236z" transform="matrix(.62654 0 0 .78464 41.617 510.331)" stroke="#fff" stroke-width="1pt" fill="#d7b900"/><g transform="matrix(1.1962 .3129 -.36728 1.01905 -234.851 310.229)" stroke="#d7b900" fill="#fff"><rect transform="matrix(-.56396 -.8258 -.8884 .45907 0 0)" rx="2.395" ry="4.505" height="40.13" width="4.789" y="-406.53" x="-73.159" stroke-width=".623"/><g stroke-width="4.713"><path d="M318.9 574.02l17.716 17.716 17.717-17.716 17.716 17.716 17.717-17.716 17.716 17.716c5.257-9.426 7.092-22.888-.112-36.519-36.185-13.818-68.824-12.643-107.18 1.188-3.087 11.031-2.975 23.928 0 35.433l18.709-17.818z" transform="matrix(-.12173 .09164 .17487 .38142 323.454 -377.054)"/><path d="M318.9 574.02l17.716 17.716 17.717-17.716 17.716 17.716 17.717-17.716 17.716 17.716c5.257-9.426 7.092-22.888-.112-36.519-36.185-13.818-68.824-12.643-107.18 1.188-3.087 11.031-2.975 23.928 0 35.433l18.709-17.818z" transform="matrix(-.12173 .09164 .17487 .38142 320.18 -384.163)"/><path d="M318.9 574.02l17.716 17.716 17.717-17.716 17.716 17.716 17.717-17.716 17.716 17.716c5.257-9.426 7.092-22.888-.112-36.519-36.185-13.818-68.824-12.643-107.18 1.188-3.087 11.031-2.975 23.928 0 35.433l18.709-17.818z" transform="matrix(-.12173 .09164 .17487 .38142 316.907 -391.273)"/><path d="M318.9 574.02l17.716 17.716 17.717-17.716 17.716 17.716 17.717-17.716 17.716 17.716c5.257-9.426 7.092-22.888-.112-36.519-36.185-13.818-68.824-12.643-107.18 1.188-3.087 11.031-2.975 23.928 0 35.433l18.709-17.818z" transform="matrix(-.12173 .09164 .17487 .38142 312.79 -400.027)"/><path d="M318.9 574.02l17.716 17.716 17.717-17.716 17.716 17.716 17.717-17.716 17.716 17.716c5.257-9.426 7.092-22.888-.112-36.519-36.185-13.818-68.824-12.643-107.18 1.188-3.087 11.031-2.975 23.928 0 35.433l18.709-17.818z" transform="matrix(-.12173 .09164 .17487 .38142 309.517 -407.134)"/><path d="M318.9 574.02l17.716 17.716 17.717-17.716 17.716 17.716 17.717-17.716 17.716 17.716c5.257-9.426 7.092-22.888-.112-36.519-36.185-13.818-68.824-12.643-107.18 1.188-3.087 11.031-2.975 23.928 0 35.433l18.709-17.818z" transform="matrix(-.12173 .09164 .17487 .38142 306.244 -414.244)"/></g><path d="M345.63-96.125c0 3.28-1.12 5.938-2.5 5.938s-2.5-2.659-2.5-5.938 1.12-5.938 2.5-5.938 2.5 2.659 2.5 5.938z" transform="matrix(.498 -.38506 .29096 .65904 228.03 87.159)" stroke-width="1pt"/><path d="M345.63-96.125c0 3.28-1.12 5.938-2.5 5.938s-2.5-2.659-2.5-5.938 1.12-5.938 2.5-5.938 2.5 2.659 2.5 5.938z" transform="matrix(.498 -.42984 .29096 .73568 242.09 102.86)" stroke-width="1pt"/><path d="M345.63-96.125c0 3.28-1.12 5.938-2.5 5.938s-2.5-2.659-2.5-5.938 1.12-5.938 2.5-5.938 2.5 2.659 2.5 5.938z" transform="matrix(.53454 -.41491 .31232 .71013 245.2 88.253)" stroke-width="1pt"/></g><path d="M301.18 290.55c0 194.88 35.433 177.17 106.3 248.03 70.866-70.866 106.3-53.15 106.3-248.03-35.434 0-70.867 0-106.3-17.716-35.432 17.716-70.866 17.716-106.3 17.716z" transform="matrix(.2543 0 0 .19614 142.304 162.303)" stroke="#d7b900" stroke-width="4.824" fill="#fff"/><path d="M220.78 220.665c0 35.052 8.38 31.867 25.143 44.612 16.762-12.747 25.144-9.56 25.144-44.612-8.382 0-16.763 0-25.144-3.187-8.38 3.187-16.762 3.187-25.144 3.187z" fill="#d7b900"/><path d="M237.046 221.122v36.522l9.01 5.307 9.01-5.307v-36.522a52.288 52.288 0 01-8.995-1.973c-2.98.894-6.017 1.597-9.025 1.973z" fill="#fff"/></g></g></svg>