<svg xmlns="http://www.w3.org/2000/svg" height="480" width="640"><g fill-rule="evenodd"><path fill="#be0027" d="M-.002 0h640.008v480H-.002z"/><path d="M-.002 480l640.008-.3-.032-239.7L-.002 480z" fill="#b4d7f4"/><path d="M-.002 0l640.008.301-.032 239.7L-.002.001z" fill="#239e46"/><path d="M186.23 360.4c-10.713 2.958-16.854 11.269-16.697 19.111l52.731-.212c.474-8.426-6.458-16.219-17.012-19.288 51.628-1.066 96.479-20.405 104.63-32.814-8.065-3.5-17.391 2.134-24.039.837 15.784-7.295 63.073-37.903 55.384-70.717-5.976 18.226-24.081 33.306-31.791 37.354 17.665-26.823 41.786-54.749 20.859-76.374 1.057 12.533-7.965 26.327-11.949 27.364 10.247-28.34 20.024-63.926-2.178-87.384 2.916 8.479 1.738 32.396-2.276 33.471-1.236-19.272-4.525-59.808-24.821-59.232 6.446 5.739 9.267 21.401 9.41 37.221-4.625-10.838-9.882-18.998-21.125-27-9.095-17.444-25.279-31.897-41.464-42.25 1.817 12.696 3.321 22.713 21.048 35.882-9.243-.575-18.484-18.097-28.362-18.582-7.857-.379-14.024 7.12-26.864 2.805 1.422 4.238 7.412 6.115 8.676 9.25-2.75 1.9-9.279-.296-14.707-3.123 7.467 10.17 19.036 16.151 28.858 14.132 11.681-2.246 24.204-1.058 36.15 5.739-3.051 1.567-14.926 1.556-22.546.603 6.927 7.013 11.572 11.66 23.615 11.584 10.757-.07 16.397-5.739 19.16-2.228 6.746 7.994 11.286 15.985 16.93 25.398-12.467 1.377-8.708-14.1-22.593-22.016-7.8 16.147 8.973 35.288 20.391 43.244.154 12.136 1.928 22.29 7.076 31.53 3.47 6.515 7.956 13.184 6.264 27.887-6.835-4.979-13.515-21.768-11.058-35.096-8.555 2.333-11.9 17.377-7.867 24.95 3.012 5.764 5.022 16.798 1.548 21.73-3.385 4.595-3.74 4.08-3.696 13.943.121 5.902-3.175 12.88-8.545 17.746 1.121-4.158 2.4-11.312 1.158-15.784-4.245 7.2-14.893 14.65-18.246 22.39-3.293 7.76-4.128 21.199-20.062 24.298-20.5 4.069-27.575 7.621-40.766 13.019-1.464-10.02 2.917-30.912 11.295-29.721 8.18 1.456 32.98-8.545 24.109-29.438-1.753 6.585-7.598 13.01-13.917 13.296 6.827-8.858 19.012-18.03 13.078-32.872-3.3 6.309-8.487 13.88-16.354 18.14 8.434-16.162.98-20.997-9.036-7.685-3.782 5.135-6.067 15.427-8.47 28.497-3.934-10.63-3.674-24.623-8.336-35.985-4.87-12.287 6.463-15.532 11.796-14.546 13.058 3.486 34.88 3.484 33.26-18.088-5.64 7.297-15.53 9.55-26.21 6.924 11.994-8.76 21.465-25.234 8.099-33.836-.446 9.121-7.505 19.349-16.93 24.059-2.205-7.697-2.205-15.864-.314-24.82-5.262 5.54-9.105 17.065-12.162 30.167-.23-12.951 2.22-22.282 4.037-29.25 2.754-10.175 9.6-3.554 20.079-2.804 10.092.572 23.986-5.005 21.331-18.69-3.446 5.415-10.519 7.522-17.746 6.95 8.7-5.272 23.859-14.638 15.546-29.044-3.492 5.456-4.623 10.124-14.731 11.798 2.647-6.09 3.087-14.699 10.933-18.11-13.995-2.787-22.008 6.397-26.081 20.781-1.651-9.973-3.617-13.644-4.008-20.94 7.565-8.402 8.357-24.839-8.021-28.515-.972 8.479-.684 10.5 1.18 17.403-7.689-4.567-18.525-7.087-25.739-.629 4.888 5.275 12.453 9.918 24.113 4.166-2.754 9.01-9.918 7.468-19.762 4.032 6.017 11.302 13.61 13.31 21.99 12.007 4.388 11.568 4.581 20.357-8.24 37.203.592-10.469-.152-18.268-8.47-26.732-7.127-6.98-12.92.299-1.781 15.818-6.757-4.976-14.405-15.076-16.707-25.174-2.228 12.475-.222 27.178 6.684 35.421-3.267 3.49-6.98-.37-12.475-8.91 2.078 27.327 13.737 32.6 29.406 26.51.445 14.998.445 28.887 1.336 47.006-9.136-13.142-20.718-22.946-27.18-25.396-2.004 7.352 5.572 16.93 9.804 22.276-6.46-1.337-20.496-12.029-20.496-12.029-1.412 12.18 14.334 23.466 24.506 28.515-11.955-.52-17.23-5.049-24.952-12.475.149 33.788 36.608 27.92 43.442 22.722.891 16.635 2.161 35.864 3.053 52.5-10.307-1.8-9.497-4.898-18.316-5.715-24.478-.954-43.895-29.384-50.325-50.297-1.845 3.442-.382 7.043-2.07 11.27-3.973-10.264-9.05-23.521-15.86-29.691 1.735 5.984 1.918 12.066 1.315 23.25-2.337-7.247-4.51-9.469-4.667-17.976.149-6.531 6.3-11.35 5.96-20.536-.252-6.706-6.37-21.242-7.269-32.495-2.962 11.582-4.821 23.79-9.358 30.96 2.255-12.367 1.532-20.902 5.346-29.226 4.405-8.763 8.152-16.586 5.218-25.43-2.813 3.416-1.845 6.519-8.912 14.818-1.535-9.025 9.138-23.47 19.496-29.277 7.305-3.85 16.514-17.617 10.515-27.053-6.87 4.934-9.955 11.6-19.66 22.99 6.923-27.06 24.909-34.138 46.44-34.231 4.765-.022 14.37-1.742 17.067-8.047-6.07 2.343-13.245 2.641-19.631 1.363 4.647-6.823 14.435-5.936 23.555-5.977 7.154-.034 18.322-1.004 22.837-11.193-8.727 3.78-22.337 4.567-30.906 1.89 13.628-7.062 34.975-7.822 45.924-17.088-12.48-9.314-43.706 2.17-63.43 15.697 5.512-5.041 14.225-13.983 19.032-21.202-10.787-5.172-38.068 25.05-47.466 43.008-8.927 5.04-12.497 12.943-15.963 18.457 4.756-16.072 5.26-27.735 9.228-40.97-30.599 10.533-17.88 67.069-24.536 80.595.784-14.933.15-34.116-5.999-44.008-9.424 7.19-10.185 49.509-1.336 84.74-3.196-9.429-9.226-18.23-11.161-29.705-13.95 25.44 8.176 55.453 26.678 79.16-13.928-7.254-27.7-22.858-36.746-35.94 2.496 45.533 50.046 54.993 57.427 66.184-10.02-4.664-29.173-13.892-37.301-4.223 13.232 3.055 23.786 6.586 32.29 12.16 12.34 15.407 35.708 22.145 76.404 23.847z" fill="#f3e295"/></g></svg>