<svg xmlns="http://www.w3.org/2000/svg" height="480" width="640"><path d="M0 0v480h640V0H0z" fill-rule="evenodd" fill="#67b1ff"/><g stroke-width="1pt"><path fill-rule="evenodd" fill="#0000b4" d="M0 0h431.429v277.167H0z"/><path d="M0 0V30.99l383.195 246.183h48.234v-30.988L48.234.001H0zm431.429 0v30.988L48.234 277.17H0v-30.988L383.195 0h48.234z" fill="#fff"/><path d="M179.762 0v277.171h71.905V.001h-71.905zM0 92.39v92.39h431.429V92.39H0z" fill="#fff"/><path d="M0 110.869v55.434h431.429v-55.434H0zM194.143 0v277.171h43.143V.001h-43.143zM0 277.171l143.81-92.39h32.155l-143.81 92.39H0zM0 .001l143.81 92.39h-32.156L0 20.66V0zm255.463 92.39L399.273 0h32.156l-143.81 92.39h-32.156zM431.43 277.17l-143.81-92.39h32.156l111.654 71.732v20.658z" fill="#c00"/></g><g fill-rule="evenodd"><path d="M391.431 137.047v159.262c20.533 111.484 56.466 127.41 102.666 159.263 46.2-31.853 82.132-47.78 102.666-159.263V137.047H391.43z" fill="#fff"/><path d="M480.408 137.047l.215 309.491 13.689 8.986L508 446.288l-.214-309.236h-27.378z" fill="#da0000"/><path d="M391.431 297.99l10.269 43.38 185.335-.12 9.73-43.26H391.433zM391.431 137.047h205.332V248.53H391.43z" fill="#da0000"/><g transform="matrix(.28209 0 0 .38777 309.748 297.889)"><rect rx="23.225" ry="27.989" height="55.978" width="46.45" stroke="#000" y="-281.68" x="306.09" stroke-width=".75" fill="#f6efec"/><path d="M850.4-296.57s47.641-3.573 64.315-22.63c16.675-19.056-11.314-53.596 6.551-57.169 7.146-.596 17.27 1.787 25.011 11.314-1.191-7.145-5.955-11.314-7.741-15.481-6.551-5.957-13.102-5.361-22.63-5.361-6.551 1.192-7.742-1.192-18.46-13.697-5.36-5.955-5.36-20.842-1.192-30.966-12.505 9.528-10.123 22.628-8.932 25.606 2.977 13.102 5.955 16.675 5.955 22.631-3.573-1.787-10.124-17.271-44.068-19.653-33.945-2.382-119.7 23.821-158.41 23.821-38.709 0-94.687-16.079-94.687-16.079s14.292-11.315-2.978-16.079c-17.269-4.764-55.382 16.675-66.102 4.764-7.741-11.315-4.764-8.933-5.955-14.292-2.977 1.786-4.764 8.933-.595 18.461 4.168 9.528 6.55 6.55 5.955 6.55-.596 0-13.697 0-14.888 4.765-1.191 3.572-2.978 7.741 3.573 20.842 2.382-13.101-6.55-14.887 13.101-16.078 19.653-1.191 33.349 7.742 50.023 10.719 16.675 2.978 16.675-7.146 17.27-6.551.596.596 51.214 14.293 97.664 11.315 46.45-2.977 121.49-28.585 156.02-23.225 34.54 5.359 57.17 30.371 57.765 53.596-.595 14.292-15.483 21.438-27.393 23.82-14.292 2.382-47.641 5.956-47.641 5.956l18.461 13.101z" transform="matrix(.87977 0 0 .69778 113.77 -89.63)" stroke="#000" stroke-width=".875" fill="#ff0"/><path d="M683.06-248.92c-.596 0-32.754.596-42.282 14.292-9.528 13.697-13.697 26.799-13.101 26.799.595 0 21.438-11.315 21.438-11.315s-15.483 22.629-7.146 42.877c8.337 20.247-22.01 19.056-39.507 19.651-7.742-5.955-32.473-16.079-41.292-17.865-5.507-2.084-16.321-2.353-27.616 10.347-6.653 7.831 9.888-7.37 26.295-6.178 1.774 1.786 2.916 3.574 3.232 7.741-8.742-.595-17.84-10.719-28.559 10.124 10.719-7.146 12.059-6.997 17.493-7.444 7.239-.536 6.309 3.276 6.011 3.276-1.191 0-4.145.595-8.617 4.764-2.382 2.977-8.337 9.528-7.146 9.528s4.752-3.573 10.327-6.551c3.484-2.382 6.793-2.382 17.322.596 57.765 13.696 88.731 3.573 92.304-1.787 1.787-2.381-33.349-69.675 60.147-87.54-1.191-.596-39.303-10.719-39.303-11.315z" transform="matrix(.85464 0 0 1 231.25 -38.113)" stroke="#000" stroke-width=".5" fill="#ff0"/><path d="M472.84-212.6c32.753 27.394 253.69-29.18 281.68-48.832 16.079-11.315 44.068-19.652 44.068 19.056 7.146-26.203 7.147-32.753 7.147-32.158.595.596 11.314 10.125 20.843 42.283 2.382-28.586-4.169-45.26-.596-42.878 2.382-2.382 2.382 14.292 21.438 37.517-4.168-18.46-5.359-26.798-5.359-26.798s35.731 34.54 55.978 39.304c20.248 4.764 49.428-9.528 58.361-1.191 8.932 8.338 24.418 23.225 23.818 35.136-.59 11.91-33.347 1.786-36.92 11.314-3.573 9.529 2.382 9.529 2.382 9.529s2.977 7.146 5.36 13.101c1.786-4.169-1.787-13.102 4.764-13.697 4.764.595 4.764 8.337 5.955 12.506 1.389-4.764-.199-14.292 4.169-14.292 4.764-.993 5.359 7.543 8.932 13.1v-13.1c13.698-4.169 25.604-4.764 27.394-13.697 1.78-8.933-20.846-29.18-26.206-42.282-5.356-13.101 4.17-18.461-5.952-25.607-10.123-7.146-48.832 11.315-66.697 4.169-17.866-7.146-10.72-58.361-78.013-69.675-67.293-11.315-249.52 59.551-281.68 62.529-32.158 2.977-71.461-10.124-71.461-10.124l.595 54.787z" stroke="#000" stroke-width=".625" fill="#ff0"/><path d="M420.43-263.22s-28.585-37.518-51.81-41.091c-23.225-2.977-45.855 14.293-50.619 11.911-4.764-2.383-6.55.596-9.528 5.955-2.978 5.36.596 8.932.595 8.337 1.191 0 4.169-8.933 5.361-9.528 1.191-.596-5.956 10.72 1.191 11.91 2.382.596 3.573-8.337 6.551-11.911.595.596-4.765 12.507-1.787 13.102 2.977.596 6.551-11.91 11.91-14.888 7.742-5.359 19.056-7.147 33.349-7.146 14.292 4.169 43.472 38.708 46.45 38.112l8.337-4.763z" transform="matrix(.98384 .22683 .17906 -1.2464 64.173 -655.73)" stroke="#000" stroke-width=".5" fill="#ff0"/><path d="M420.43-263.22s-28.585-37.518-51.81-41.091c-23.225-2.977-45.855 14.293-50.619 11.911-4.764-2.383-6.55.596-9.528 5.955-2.978 5.36.596 8.932.595 8.337 1.191 0 4.169-8.933 5.361-9.528 1.191-.596-5.956 10.72 1.191 11.91 2.382.596 3.573-8.337 6.551-11.911.595.596-4.765 12.507-1.787 13.102 2.977.596 6.551-11.91 11.91-14.888 7.742-5.359 19.056-7.147 33.349-7.146 14.292 4.169 43.472 38.708 46.45 38.112l8.337-4.763z" transform="matrix(1 0 0 1.1289 11.315 42.241)" stroke="#000" stroke-width=".5" fill="#ff0"/><path d="M417.46-267.98l-31.562 15.483 23.225 5.956-16.675 19.057 23.821-7.742-1.786 25.607 13.697-16.674 8.932 23.225 9.528-17.27 11.315 19.056 4.764-18.461 13.697 18.461 4.764-25.011 16.675 15.483-2.382-26.203 20.247 6.551-12.506-20.248s22.034-1.191 20.843-1.191-16.674-13.101-30.371-16.674l-76.226.595z" stroke="#000" stroke-width=".5" fill="#ff0"/><path d="M417.46-267.98l-31.562 15.483 23.225 5.956-16.675 19.057 23.821-7.742-1.786 25.607 13.697-16.674 8.932 23.225 9.528-17.27 11.315 19.056 4.764-18.461 13.697 18.461 4.764-25.011 16.675 15.483-2.382-26.203 20.247 6.551-12.506-20.248s22.034-1.191 20.843-1.191-16.674-13.101-30.371-16.674l-76.226.595z" transform="matrix(.54756 0 0 .56637 205.56 -123.01)" stroke="#000" stroke-width=".808" fill="#ff0"/><path d="M443.061-316.81s-8.932-7.146-12.505 0c-3.574 7.147 7.741 4.169 7.741 5.36s-7.741 9.528-7.741 19.057c0 9.528 5.955 25.607 5.955 27.989s2.382 8.932 10.719 11.314 11.315-7.741 13.101-8.932c1.787-1.191 13.102 1.786 17.27-8.337 4.169-10.124 4.169-28.585 4.169-28.585s7.146 5.359 7.146-5.36-7.742 0-7.742 0 1.191-11.314-17.27-16.674-20.247 5.36-20.843 4.168z" stroke="#000" stroke-width=".5" fill="#ff0"/><path d="M441.48-317.31c-2.38-4.827-9.14-23.321-9.14-23.321l16.205 6.943c-5.53-1.374-10.25-2.179-9.654-2.179.595 0 7.146 8.933 7.146 8.933 6.451-.374 12.903 1.774 20.843 3.503 0 0 6.55-7.286 5.955-7.286-.596 0-3.573-1.192-3.573-1.192l14.888-6.83-4.764 9.213h-2.978l-5.955 6.69c6.699 1.261 9.975 2.242 16.525 6.445 5.807-.84 10.72-3.851 13.846-6.129-5.21-1.437-7.592-2.558-6.997-2.558.596 0 21.885 1.121 21.885 1.121s-20.889 12.916-33.093 17.65c-11.289-3.246-39.948-9.216-41.139-11.003z" transform="matrix(.94169 -.01596 .03328 1.4162 35.5 137.73)" stroke="#000" stroke-width=".54" fill="#ff0"/><rect transform="matrix(.90427 .42695 -.99418 -.10777 0 0)" rx="6.865" ry="3.077" height="6.153" width="13.731" y="-1416.1" x="-1065.8"/><rect transform="matrix(.90427 .42695 -.99418 -.10777 0 0)" rx="6.865" ry="3.077" height="6.153" width="13.731" y="-1419.6" x="-1050"/><rect transform="matrix(.94659 .32243 -.99696 -.07797 0 0)" rx="12.761" ry="5.97" height="11.94" width="25.522" y="-1636.5" x="-1253.9"/><rect transform="matrix(.93542 .35353 -.99626 -.08645 0 0)" rx="5.781" ry="2.674" height="5.349" width="11.562" y="-1565.8" x="-1186.4"/><rect transform="matrix(.32908 -.9443 .13645 .99065 0 0)" rx="4.931" ry="2.046" height="4.093" width="9.861" y="734.39" x="1061.7"/></g><g stroke="#000" transform="matrix(1.0951 0 0 1.2741 -361.45 -17.196)"><path d="M737.05 319.5c1.663 4.742.814 0-.957 7.344 1.094-2.188 2.656-3.438 3.281-3.437.938 0 1.406-.001 3.281 1.406-1.718-2.5-4.687-1.875-4.531-5.625-.156-.859-.999.081-1.074.312z" transform="matrix(1.0471 0 0 1.3894 -30.434 -120.97)" stroke-width=".375" fill="#ff7300"/><rect transform="matrix(.81841 -.57463 .19718 .98037 0 0)" rx=".685" ry=".506" height="18.038" width="1.369" y="717.59" x="708.8" stroke-width=".103" fill="#b2802e"/><path d="M734.06 312.16c.781-.469 6.562-11.094 34.062-9.532-15.625 5.313-25.313 16.563-27.656 17.031-1.719.469-5.469-5.781-6.406-7.499z" transform="matrix(.79486 0 0 .97816 152.8 3.901)" stroke-width=".375" fill="#fff"/><g stroke-width=".333" fill="#007500"><path d="M-3819.3-4447.1l-7.42-2.76 15.13 11.39-2.9-5.35-4.81-3.28z" transform="matrix(-.51202 -1.04787 .31291 .94921 159.904 514.867)"/><path d="M-3819.3-4447.1l-5.31.27 12.7 7.59-2.58-4.58-4.81-3.28z" transform="matrix(.0735 -.67688 -.29174 .53541 -293.623 91.014)"/><path d="M-3819.9-4447.6l4.64 7.4 4.42 1.26-3.58-4.96-5.48-3.7z" transform="matrix(-1.35672 -.47155 1.51685 .64378 2287.674 1355.681)"/><path d="M-3821.8-4448.7l17.53 22.4-6.67-12.48-3.47-5.09-7.39-4.83z" transform="matrix(-.54784 .31519 .76334 -.15055 2024.705 827.174)"/><path d="M-3822.2-4449.9l-12.5-6.51 24.05 18.66-3.81-6.13-7.74-6.02z" transform="matrix(.97895 .06874 -1.1755 -.24409 -766.747 -528.547)"/><path d="M-3823.5-4450.2l-5.23-1.22 17.81 13.32-3.56-5.79-9.02-6.31z" transform="matrix(1.49734 .65094 -1.63513 -.81644 -831.78 -851.126)"/><path d="M-3824.7-4451.7l-13.4-9.74 24.35 20.96-.74-3.33-10.21-7.89z" transform="matrix(1.74896 1.23747 -1.76752 -1.34101 -460.507 -944.944)"/><path d="M-3822.2-4449.3l10.6 14.41 1.71-2.6-4.55-6.35-7.76-5.46z" transform="matrix(1.36962 1.39432 -1.2573 -1.3954 359.75 -588.434)"/><path d="M-3820.2-4447l15.6 19.25-3.35-7.74-6.53-8.32-5.72-3.19z" transform="matrix(.9192 1.25098 -.74977 -1.1924 896.994 -233.094)"/><path d="M-3821-4448.7l12.21 17.13-.11-5.25-5.57-6.99-6.53-4.89z" transform="matrix(.19081 .85473 .02189 -.73062 1547.593 307.232)"/><path d="M-3818.9-4446.9l1.97 4.26 4.24 2.13-1.8-3.38-4.41-3.01z" transform="matrix(-1.13658 -1.33447 .99045 1.302 788.436 989.431)"/><path d="M-3819.3-4447.1v5.78l6.63 1.34-1.82-3.84-4.81-3.28z" transform="matrix(-.50112 -.72902 .34095 .63565 325.561 337.135)"/><path d="M-3819.3-4447.1v5.78l6.63 1.34-1.82-3.84-4.81-3.28z" transform="matrix(-.84275 -.27954 .89876 .39317 1501.159 974.273)"/><path d="M-3819.3-4447.1v5.78l6.63 1.34-1.82-3.84-4.81-3.28z" transform="matrix(.7078 .13807 -.82365 -.24583 -238.042 -272.205)"/><path d="M-3819.3-4447.1l15.68 18.95-10.18-13.71-.69-1.96-4.81-3.28z" transform="matrix(.24913 .62181 -.1304 -.56379 1093.02 160.12)"/><path d="M-3819.3-4447.1l10.95 13.18-4.32-6.06-1.82-3.84-4.81-3.28z" transform="matrix(1.64482 1.37954 -1.59789 -1.4363 -104.696 -827.045)"/><path d="M-3819.3-4447.1l-14.43-12.59 18.26 16.79.98-.92-4.81-3.28z" transform="matrix(1.45858 .59891 -1.60325 -.76672 -839.021 -829.365)"/><path d="M-3819.3-4447.1v5.78l6.63 1.34-1.82-3.84-4.81-3.28z" transform="matrix(-.36387 -.73372 .22365 .66373 328.35 444.534)"/></g><path d="M759.39 305.01c-3.239 1.066-4.827 1.573-6.465 1.782.835.357 2.69.14 4.807.711-1.886.041-5.374 1.48-6.825 1.515 1.003.602 4.58.022 5.238.179-1.913.119-4.991 1.601-6.908 1.601-.878.671 4.46-.459 6.602.807-2.215-.114-6.518 1.16-8.85.853 1.778 1.042 4.953-.112 7.601 1.017-.767.084-6.911.772-9.086.445 1.3.651 5.218.543 6.181 1.121-1.622-.212-5.928.689-7.426.331 1.349.972 5.414.424 6.161 1.009-2.657.926-6.683.187-8.535.438 1.242.581 2.267 1.168 3.366 1.712 1.604 1.126 6.61 4.293 9.6 5.244-3.31-.433-4.465-.49-6.604-.665l4.867 5.159c-2.031-1.094-5.611-3.161-7.988-4.228-5.264-2.578-9.058-2.132-12.704-4.314-5.122-4.966-7.966-10.885-8.222-12.464-.257-1.578-.481-4.407-5.153-2.933 4.511-.581 6.405-5.792 6.758-5.583.161.089.578 3.483 1.638 4.853.706.983 6.711 4.348 7.706 4.527 8.944-5.314 16.198-5.967 24.241-3.117z" transform="matrix(1.0471 0 0 1.3894 -29.616 -119.66)" stroke-width=".375" fill="#fff"/></g><g stroke="#000" stroke-width=".25" transform="matrix(1.0951 0 0 1.2741 -358.416 -17.196)"><rect transform="rotate(44.687)" rx="1.391" ry="5.563" height="11.127" width="2.782" y="-352.62" x="802.37" fill="#e4cc00"/><path d="M795.02 334.335c-.21-1.173-.348-1.765.244-3.303.864-1.083 1.317-2.043 2.893-3.164 1.71-.563 2.286-.055 4.528-2.134.721-1.37 1.82-2.405 2.445-3.882 1.461-2.177 1.951-3.252 3.12-4.927 1.551-1.741 2.8-3.302 3.708-4.636.97-1.71 1.84-2.767 3.245-4.173.57-1.604 1.79-2.794 3.245-4.172 1.113-2.033 3.247-4.361 4.173-6.027 1.641-1.88 2.283-2.697 3.708-4.636 1.255-.828 3.372-2.644 5.1-3.245 2.36-.99 3.621-1.97 5.173-.464 1.027 1.027 2.873 2.68 1.59 3.9-.675.748-1.78.84-3.054.273-1.309-.848-1.946-3.315-3.709-1.391-1.274 1.455-1.927 2.616-3.709 4.172-.886 1.304-1.525 2.279-2.318 4.173-1.048 1.209-1.914 2.568-2.78 4.636-1.125.928-2.094 2.77-2.783 4.172-1.112 1.166-1.915 2.364-2.782 4.173-1.75 1.677-2.405 3.095-3.709 4.172-.86 1.82-2.217 3.558-3.245 4.636-.812 1.32-1.618 2.695-2.318 4.173-1.475 1.505-1.54 1.83-3.709 4.172-1.806 2.355-1.198 2.07-4.026 4.8-1.548.51-3.103.685-5.03-1.298z" fill="#006000"/><rect transform="rotate(22.168)" rx="1.391" ry="5.563" height="11.127" width="2.782" y="-20.84" x="862.29" fill="#e4cc00"/><rect transform="rotate(24.033)" rx="1.391" ry="5.563" height="11.127" width="2.782" y="-48.488" x="863.44" fill="#e4cc00"/><rect transform="matrix(.81058 .58564 -.58563 .81058 0 0)" rx="1.391" ry="5.563" height="11.127" width="2.782" y="-224.52" x="840.48" fill="#e4cc00"/><rect transform="rotate(49.526)" rx="1.391" ry="5.563" height="11.127" width="2.782" y="-420.33" x="773.6" fill="#e4cc00"/><rect transform="rotate(45.459)" rx="1.391" ry="5.563" height="11.127" width="2.782" y="-363.86" x="799.69" fill="#e4cc00"/><rect transform="matrix(.81058 .58564 -.58563 .81058 0 0)" rx="1.391" ry="5.563" height="11.127" width="2.782" y="-224.23" x="844.16" fill="#e4cc00"/><rect transform="matrix(.81058 .58564 -.58563 .81058 0 0)" rx="1.391" ry="5.563" height="11.127" width="2.782" y="-224.62" x="842.29" fill="#e4cc00"/><g transform="rotate(35.848 -1.431 -10.313)" fill="#e4cc00"><rect rx="1.391" ry="5.563" height="11.127" width="2.782" y="-244.57" x="838.79"/><rect rx="1.391" ry="5.563" height="11.127" width="2.782" y="-244.68" x="840.85"/><rect rx="1.391" ry="5.563" height="11.127" width="2.782" y="-244.66" x="843"/><rect rx="1.391" ry="5.563" height="11.127" width="2.782" y="-244.7" x="845.3"/><rect rx="1.391" ry="5.563" height="11.127" width="2.782" y="-244.54" x="847.15"/><rect rx="1.391" ry="5.563" height="11.127" width="2.782" y="-245.75" x="857.84"/><rect rx="1.391" ry="5.563" height="11.127" width="2.782" y="-245.32" x="856.37"/><rect rx="1.391" ry="5.563" height="11.127" width="2.782" y="-245.1" x="854.94"/><rect rx="1.391" ry="5.563" height="11.127" width="2.782" y="-245.02" x="852.83"/><rect rx="1.391" ry="5.563" height="11.127" width="2.782" y="-244.68" x="850.76"/><rect rx="1.391" ry="5.563" height="11.127" width="2.782" y="-244.64" x="848.96"/></g><rect transform="rotate(28.474 -.196 -.772)" rx="1.391" ry="5.563" height="11.127" width="2.782" y="-115.05" x="859.81" fill="#e4cc00"/><g transform="rotate(35.848 -14.887 -15.59)" fill="#e4cc00"><rect rx="1.391" ry="5.563" height="11.127" width="2.782" y="-244.57" x="838.79"/><rect rx="1.391" ry="5.563" height="11.127" width="2.782" y="-244.68" x="840.85"/><rect rx="1.391" ry="5.563" height="11.127" width="2.782" y="-244.66" x="843"/><rect rx="1.391" ry="5.563" height="11.127" width="2.782" y="-244.7" x="845.3"/><rect rx="1.391" ry="5.563" height="11.127" width="2.782" y="-244.54" x="847.15"/><rect rx="1.391" ry="5.563" height="11.127" width="2.782" y="-245.75" x="857.84"/><rect rx="1.391" ry="5.563" height="11.127" width="2.782" y="-245.32" x="856.37"/><rect rx="1.391" ry="5.563" height="11.127" width="2.782" y="-245.1" x="854.94"/><rect rx="1.391" ry="5.563" height="11.127" width="2.782" y="-245.02" x="852.83"/><rect rx="1.391" ry="5.563" height="11.127" width="2.782" y="-244.68" x="850.76"/><rect rx="1.391" ry="5.563" height="11.127" width="2.782" y="-244.64" x="848.96"/></g></g><g stroke="#000" transform="matrix(1.05824 0 0 1.15175 -335.887 12.297)"><rect transform="rotate(18.815)" rx="1.432" ry=".678" height="24.19" width="2.864" y="-28.09" x="774.89" stroke-width=".172" fill="#b2802e"/><rect rx="1.432" ry=".678" height="24.19" width="2.864" y="221.74" x="727.44" stroke-width=".172" fill="#b2802e"/><rect rx="1.432" ry=".678" height="24.19" width="2.864" y="221.28" x="707.97" stroke-width=".172" fill="#b2802e"/><g stroke-width=".25" fill="#004500"><path d="M692.68 226.06c.3-4.898 4.144-6.405 10.399-4.219.528.301.98-.603.829-.679-10.023-5.274-14.492-19.462 1.559-16.899 2.411.753-2.171 2.143-5.508 2.76-4.52.571-1.703 6.83 7.265 12.632 1.959 1.508 6.329 4.597 6.329 4.597s-1.582 2.788-1.733 2.788c-.15 0-12.207-4.371-15.071-.603-1.809 3.014.688 3.448.085 7.97-1.055 3.918-1.582 3.466-1.809-.075.784-2.466-2.346-6.312-2.345-8.272z" transform="matrix(.42255 .59874 -.68931 .22968 583.236 -257.263)"/><path d="M692.68 226.06c.3-4.898 4.144-6.405 10.399-4.219.528.301.98-.603.829-.679-10.023-5.274-6.197-19.173 9.854-16.61 2.411.753 1.945 1.61-1.392 2.227-4.52.571-14.114 7.074-5.146 12.876 1.959 1.508 6.329 4.597 6.329 4.597s-1.582 2.788-1.733 2.788c-.15 0-12.207-4.371-15.071-.603-1.809 3.014 1.096 5.817.493 10.339-1.055 3.918-1.582 3.466-1.809-.075.075-.603-2.754-8.681-2.753-10.641z" transform="matrix(.38494 .62358 -.70213 .18687 612.897 -260.628)"/><path d="M692.68 226.06c.3-4.898 4.144-6.405 10.399-4.219.528.301.98-.603.829-.679-10.023-5.274-2.639-11.925 11.989-9.101 1.587.2-2.095 2.164-5.432 2.781-4.52.571-12.209-.989-3.241 4.813 1.959 1.508 6.329 4.597 6.329 4.597s-1.582 2.788-1.733 2.788c-.15 0-12.207-4.371-15.071-.603-1.809 3.014 7.071 9.439 6.468 13.961-1.055 3.918-1.582 3.466-1.809-.075.075-.603-8.729-12.303-8.728-14.263z" transform="matrix(.33353 .65252 -.7149 .12978 652.307 -262.77)"/></g><g stroke-width=".25" fill="#004500"><path d="M692.68 226.06c.3-4.898 4.144-6.405 10.399-4.219.528.301.98-.603.829-.679-10.023-5.274-10.194-16.401 5.857-13.838 2.411.753-2.095 2.164-5.432 2.781-4.52.571-6.077 3.748 2.891 9.55 1.959 1.508 6.329 4.597 6.329 4.597s-1.582 2.788-1.733 2.788c-.15 0-12.207-4.371-15.071-.603-1.809 3.014-1.733 3.165-2.336 7.687-1.055 3.918-1.582 3.466-1.809-.075.075-.603.075-6.029.076-7.989z" transform="matrix(.42734 .59533 -.68745 .2352 560.187 -256.508)"/><path d="M692.68 226.06c.3-4.898 4.144-6.405 10.399-4.219.528.301.98-.603.829-.679-10.023-5.274-10.194-16.401 5.857-13.838 2.411.753-2.095 2.164-5.432 2.781-4.52.571-6.077 3.748 2.891 9.55 1.959 1.508 6.329 4.597 6.329 4.597s-1.582 2.788-1.733 2.788c-.15 0-12.207-4.371-15.071-.603-1.809 3.014-1.733 3.165-2.336 7.687-1.055 3.918-1.582 3.466-1.809-.075.075-.603.075-6.029.076-7.989z" transform="matrix(.38992 .62048 -.70061 .19249 589.817 -260.108)"/><path d="M692.68 226.06c.3-4.898 4.144-6.405 10.399-4.219.528.301.98-.603.829-.679-10.023-5.274-10.194-16.401 5.857-13.838 2.411.753-2.095 2.164-5.432 2.781-4.52.571-6.077 3.748 2.891 9.55 1.959 1.508 6.329 4.597 6.329 4.597s-1.582 2.788-1.733 2.788c-.15 0-12.207-4.371-15.071-.603-1.809 3.014-1.733 3.165-2.336 7.687-1.055 3.918-1.582 3.466-1.809-.075.075-.603.075-6.029.076-7.989z" transform="matrix(.33876 .64983 -.71383 .13552 629.207 -262.568)"/></g><g stroke-width=".25" fill="#004500"><path d="M692.68 226.06c.3-4.898 4.144-6.405 10.399-4.219.528.301.98-.603.829-.679-10.023-5.274-14.492-19.462 1.559-16.899 2.411.753-2.171 2.143-5.508 2.76-4.52.571-1.703 6.83 7.265 12.632 1.959 1.508 6.329 4.597 6.329 4.597s-1.582 2.788-1.733 2.788c-.15 0-12.207-4.371-15.071-.603-1.809 3.014.688 3.448.085 7.97-1.055 3.918-1.582 3.466-1.809-.075.784-2.466-2.346-6.312-2.345-8.272z" transform="matrix(.19503 .7064 -.72637 -.01711 770.2 -279.004)"/><path d="M692.68 226.06c.3-4.898 4.144-6.405 10.399-4.219.528.301.98-.603.829-.679-10.023-5.274-6.197-19.173 9.854-16.61 2.411.753 1.945 1.61-1.392 2.227-4.52.571-14.114 7.074-5.146 12.876 1.959 1.508 6.329 4.597 6.329 4.597s-1.582 2.788-1.733 2.788c-.15 0-12.207-4.371-15.071-.603-1.809 3.014 1.096 5.817.493 10.339-1.055 3.918-1.582 3.466-1.809-.075.075-.603-2.754-8.681-2.753-10.641z" transform="matrix(.15123 .71705 -.72395 -.06174 799.25 -272.134)"/><path d="M692.68 226.06c.3-4.898 4.144-6.405 10.399-4.219.528.301.98-.603.829-.679-10.023-5.274-2.639-11.925 11.989-9.101 1.587.2-2.095 2.164-5.432 2.781-4.52.571-12.209-.989-3.241 4.813 1.959 1.508 6.329 4.597 6.329 4.597s-1.582 2.788-1.733 2.788c-.15 0-12.207-4.371-15.071-.603-1.809 3.014 7.071 9.439 6.468 13.961-1.055 3.918-1.582 3.466-1.809-.075.075-.603-8.729-12.303-8.728-14.263z" transform="matrix(.09306 .72689 -.71664 -.11977 837.06 -260.814)"/></g></g><g stroke="#000" transform="matrix(1.0951 0 0 1.2741 -361.45 -17.196)"><rect rx="1.432" ry=".678" height="24.19" width="2.864" y="222.49" x="826.05" stroke-width=".172" fill="#b2802e"/><g stroke-width=".333" fill="#007500"><path d="M-3819.3-4447.1l-7.42-2.76 15.13 11.39-2.9-5.35-4.81-3.28z" transform="matrix(2.82934 -1.24347 -3.04809 .94829 -1925.616 -304.332)"/><path d="M-3819.3-4447.1l-5.31.27 12.7 7.59-2.58-4.58-4.81-3.28z" transform="matrix(3.12732 -.3261 -3.22472 -.01776 -1573.417 -1098.143)"/><path d="M-3819.9-4447.6l4.64 7.4 4.42 1.26-3.58-4.96-5.48-3.7z" transform="matrix(-2.34787 -1.88892 2.12708 2.18296 1324.032 2719.857)"/><path d="M-3821.8-4448.7l17.53 22.4-6.67-12.48-3.47-5.09-7.39-4.83z" transform="matrix(-3.10747 -.45435 3.09714 .80911 2735.854 2087.122)"/><path d="M-3822.2-4449.9l-12.5-6.51 24.05 18.66-3.81-6.13-7.74-6.02z" transform="matrix(2.85374 1.19736 -2.73675 -1.5363 -448.349 -2034.454)"/><path d="M-3823.5-4450.2l-5.23-1.22 17.81 13.32-3.56-5.79-9.02-6.31z" transform="matrix(2.03378 2.1643 -1.7699 -2.42787 720.317 -2307.966)"/><path d="M-3824.7-4451.7l-13.4-9.74 24.35 20.96-.74-3.33-10.21-7.89z" transform="matrix(.33763 2.81903 .04492 -2.9041 2314.657 -1926.988)"/><path d="M-3822.2-4449.3l10.6 14.41 1.71-2.6-4.55-6.35-7.76-5.46z" transform="matrix(-1.55186 2.46698 1.9176 -2.33507 3429.122 -741.413)"/><path d="M-3820.2-4447l15.6 19.25-3.35-7.74-6.53-8.32-5.72-3.19z" transform="matrix(-2.38776 1.84793 2.68227 -1.61223 3638.697 109.416)"/><path d="M-3821-4448.7l12.21 17.13-.11-5.25-5.57-6.99-6.53-4.89z" transform="matrix(-3.03714 .74655 3.19089 -.4198 3422.623 1206.866)"/><path d="M-3818.9-4446.9l1.97 4.26 4.24 2.13-1.8-3.38-4.41-3.01z" transform="matrix(2.04544 -2.15542 -2.37654 1.96314 -1931.759 726.962)"/><path d="M-3819.3-4447.1v5.78l6.63 1.34-1.82-3.84-4.81-3.28z" transform="matrix(1.50254 -1.03612 -1.61873 .79013 -633.93 -217.22)"/><path d="M-3819.3-4447.1v5.78l6.63 1.34-1.82-3.84-4.81-3.28z" transform="matrix(-1.51554 -1.16517 1.21026 1.30059 424.385 1558.92)"/><path d="M-3819.3-4447.1v5.78l6.63 1.34-1.82-3.84-4.81-3.28z" transform="matrix(1.68585 .9196 -1.59807 -1.12207 156.593 -1254.086)"/><path d="M-3819.3-4447.1l15.68 18.95-10.18-13.71-.69-1.96-4.81-3.28z" transform="matrix(-1.85483 .6733 1.98873 -.49778 2589.49 580.617)"/><path d="M-3819.3-4447.1l10.95 13.18-4.32-6.06-1.82-3.84-4.81-3.28z" transform="matrix(-.60396 2.78278 .9973 -2.762 2955.043 -1435.124)"/><path d="M-3819.3-4447.1l-14.43-12.59 18.26 16.79.98-.92-4.81-3.28z" transform="matrix(2.13135 2.08682 -1.87976 -2.35992 604.09 -2303.24)"/><path d="M-3819.3-4447.1v5.78l6.63 1.34-1.82-3.84-4.81-3.28z" transform="matrix(1.9639 -.877 -2.11577 .66881 -1083.669 -148.422)"/></g></g></g></svg>