<svg xmlns="http://www.w3.org/2000/svg" height="480" width="640" version="1.0" xmlns:xlink="http://www.w3.org/1999/xlink"><defs><linearGradient id="a"><stop stop-color="#a43907" stop-opacity=".996" offset="0"/><stop stop-color="#fff" offset="1"/></linearGradient><linearGradient id="b" y2="577.14" xlink:href="#a" gradientUnits="userSpaceOnUse" x2="470.9" gradientTransform="scale(1.0028 .99725)" y1="592.2" x1="444.4"/><linearGradient id="c" y2="552.83" xlink:href="#a" gradientUnits="userSpaceOnUse" x2="520.55" gradientTransform="scale(.93636 1.068)" y1="562.51" x1="458.24"/><linearGradient id="d" y2="580.2" xlink:href="#a" gradientUnits="userSpaceOnUse" x2="445.28" gradientTransform="scale(1.0028 .99725)" y1="578.68" x1="472.38"/><linearGradient id="e" y2="558.12" xlink:href="#a" gradientUnits="userSpaceOnUse" x2="456.44" gradientTransform="scale(.93636 1.068)" y1="553.74" x1="517.97"/><linearGradient id="f" y2="369.94" xlink:href="#a" gradientUnits="userSpaceOnUse" x2="646.19" y1="369.94" x1="851.78"/><linearGradient id="g" y2="508.75" xlink:href="#a" gradientUnits="userSpaceOnUse" x2="677.4" gradientTransform="scale(.82275 1.2154)" y1="507.23" x1="388.53"/><linearGradient id="h" y2="505.86" xlink:href="#a" gradientUnits="userSpaceOnUse" x2="556.8" gradientTransform="scale(.83508 1.1975)" y1="504.94" x1="579.84"/><linearGradient id="i" y2="514.33" xlink:href="#a" gradientUnits="userSpaceOnUse" x2="558.88" gradientTransform="scale(.82275 1.2154)" y1="512.01" x1="581.43"/><linearGradient id="j" y2="503.9" xlink:href="#a" gradientUnits="userSpaceOnUse" x2="589.77" gradientTransform="scale(.83508 1.1975)" y1="517.88" x1="552"/></defs><path fill="#006" d="M0 0h640v480H0z"/><path fill-rule="evenodd" fill="#006" d="M0 0h400v200H0z"/><g stroke-width="1pt"><path d="M0 0v25.562L317.137 228.63h39.92v-25.561L39.918.001H0zm357.056 0v25.561L39.92 228.63H0v-25.56L317.137 0h39.92z" fill="#fff"/><path d="M148.773 0V228.63h59.51V0h-59.51zM0 76.21v76.21h357.056V76.21H0z" fill="#fff"/><path d="M0 91.452v45.726h357.056V91.452H0zM160.675.001v228.628h35.706V0h-35.706zM0 228.629l119.019-76.21h26.612L26.613 228.63H0zM0 0l119.019 76.21H92.406L0 17.04V.002zm211.425 76.21L330.444 0h26.612L238.037 76.21h-26.612zm145.631 152.418l-119.019-76.21h26.613l92.406 59.17v17.04z" fill="#c00"/></g><g><path d="M670.97 321.56c-.734.012-1.438.084-2.031.188-3.388.59-8.733 11.63-11.688 18.094-4.622 5.644-7.089 10.03-9.031 13.28-.755 1.263-1.92 2.728-1.563 4.407-6.996 1.719-7.344 7.725-7.344 10.062 0 2.48.782 3.719.782 3.719l4.187 7.843.031.094c4.457 9.216 11.057 21.626 14.75 22.656 5.243 1.462 18.821-3.55 29-12.156 16.69 6.875 38.072 12.562 61.97 12.562 23.895 0 45.247-5.688 61.937-12.562 10.18 8.606 23.758 13.618 29 12.156 3.705-1.033 10.324-13.525 14.781-22.75l4.188-7.844s.781-1.24.781-3.719c0-2.338-.377-8.344-7.375-10.062.35-1.678-.776-3.143-1.531-4.406-1.957-3.274-4.42-7.7-9.094-13.406-2.966-6.479-8.289-17.382-11.656-17.969-4.742-.826-14.969 1.58-14.969 2.406 0 .02-.058.449-.063.5l-20.54 19.4c0 .557 1.09 14.594 4.938 27-13.749 5.006-30.626 8.532-50.406 8.532-19.793 0-36.715-3.521-50.469-8.532 3.848-12.406 4.969-26.443 4.969-27l-20.53-19.4c-.005-.051-.063-.48-.063-.5 0-.723-7.832-2.675-12.969-2.593zm5.25 24.094c2.582-.032 5.332 2.095 7.594 4.469-.078.466-.157.944-.25 1.375-.624 2.872-1.696 6.663-3.188 10.625-5.87-3.429-10.66-6.996-14.312-10.312 2.228-2.37 5.806-5.597 9.594-6.125.185-.026.375-.03.563-.031zm147.56 0c.187.002.377.005.563.031 3.788.528 7.397 3.756 9.625 6.125-3.66 3.324-8.457 6.909-14.344 10.344-1.498-3.97-2.563-7.778-3.188-10.656-.094-.432-.172-.907-.25-1.375 2.265-2.38 5.006-4.501 7.594-4.469zm-166 27.375c2.73 2.092 6.296 4.476 10.594 7-1.191.756-2.456 1.317-3.781 1.625-1.765.41-3.621.331-5.5-.063-.587-1.45-1.082-3.275-1.219-5.718a68.645 68.645 0 01-.094-2.844zm184.47 0c-.014.878-.068 1.826-.125 2.844-.137 2.443-.601 4.267-1.188 5.719-1.879.393-3.766.472-5.53.062-1.326-.308-2.56-.869-3.75-1.625 4.299-2.524 7.862-4.907 10.593-7z" fill-rule="evenodd" transform="translate(-389.228 -21.964) scale(1.1682)" stroke="#fff" stroke-width="10" fill="url(#b)"/><path d="M445.63 595.48s5.625-8.75 10.313-8.125c4.687.625 9.062 6.25 9.375 6.562.312.313 7.187-7.187 6.875-7.5-.313-.312-7.188-16.562-10.938-17.187s-11.847 1.196-11.847 1.82-3.778 24.43-3.778 24.43z" fill-rule="evenodd" transform="matrix(-1.4773 0 0 1.5447 1073.61 -525.428)" stroke="#000" stroke-width="1.16" fill="url(#b)"/><path d="M433.13 586.11c0 .625 1.875 23.75 10 31.875s21.25 13.125 25.938 11.875c4.687-1.25 15.312-24.687 15.312-24.687s-11.25 11.25-19.687 9.375c-8.438-1.875-13.438-15.938-15-22.813-1.563-6.875-.313-20.313-.313-20.313l-16.25 14.688z" fill-rule="evenodd" transform="matrix(-1.4773 0 0 1.5447 1073.61 -525.428)" stroke="#000" stroke-width="1.16" fill="url(#c)"/><path d="M445.63 595.48s5.625-8.75 10.313-8.125c4.687.625 9.062 6.25 9.375 6.562.312.313 7.187-7.187 6.875-7.5-.313-.312-7.188-16.562-10.938-17.187s-11.847 1.196-11.847 1.82-3.778 24.43-3.778 24.43z" fill-rule="evenodd" transform="matrix(1.4773 0 0 1.5447 -99.777 -525.428)" stroke="#000" stroke-width="1.16" fill="url(#d)"/><path d="M433.13 586.11c0 .625 1.875 23.75 10 31.875s21.25 13.125 25.938 11.875c4.687-1.25 15.312-24.687 15.312-24.687s-11.25 11.25-19.687 9.375c-8.438-1.875-13.438-15.938-15-22.813-1.563-6.875-.313-20.313-.313-20.313l-16.25 14.688z" fill-rule="evenodd" transform="matrix(1.4773 0 0 1.5447 -99.777 -525.428)" stroke="#000" stroke-width="1.16" fill="url(#e)"/><path d="M656.44 338.56c-4.742 5.785-7.274 10.257-9.25 13.562-1.976 3.306-.814 7.906 3.75 14.469 4.92 7.073 45.374 34.719 98.062 34.719 52.689 0 93.142-27.646 98.062-34.719 4.564-6.563 5.695-11.163 3.719-14.469-1.976-3.306-4.477-7.777-9.219-13.562 0 8.677-33.512 40.031-92.562 40.031-59.051 0-92.562-31.354-92.562-40.031z" fill-rule="evenodd" transform="translate(-388.04 -20.789) scale(1.1682)" stroke="#000" stroke-width="1.5" fill="url(#f)"/><path d="M467.82 625.48c.625-.937 7.187-11.875 7.187-11.875l-3.598-2.538c-1.105 3.094-5.152 4.101-5.777 7.851s2.813 7.5 2.188 6.562z" fill-rule="evenodd" transform="matrix(1.4773 0 0 1.5447 -98.795 -524.061)" stroke="#000" stroke-width="1.16" fill="url(#g)"/><path d="M475 622.98s1.25-5.312-2.812-5.937c-4.063-.625-6.214 2.973-5.625 1.562.654-1.567 3.125-3.125 3.437-8.437.313-5.313-.312-8.125-.312-8.125s1.562-6.876 8.125-5.938c6.562.938 6.875 5.938 6.875 7.813s-.625 2.812-.625 2.812L475 622.98z" fill-rule="evenodd" transform="matrix(1.4773 0 0 1.5447 -99.777 -525.428)" stroke="#000" stroke-width="1.16" fill="url(#h)"/><path d="M568.299 406.338l1.974 3.453 1.332-.832-.884-2.28.164-.447 2.318-1.446 6.067 10.608-.15.516-1.2.881.546.956 5.777-3.606-.547-.955-1.31.686-.507-.106-6.067-10.609 2.32-1.448.434.073 1.521 1.883 1.334-.833-1.974-3.452-11.148 6.958zM554.047 414.507l.48.993 1.216-.513.478.155 5.208 10.764-.164.494-1.117.716.48.993 5.687-3.001-.48-.993-1.256.536-.478-.155-2.472-5.108 5.807-3.065 2.471 5.109-.144.483-1.158.737.48.993 5.667-2.99-.48-.993-1.215.514-.478-.154-5.209-10.765.165-.493 1.116-.718-.48-.993-5.666 2.99.48.994 1.256-.535.458.165 2.148 4.44-5.807 3.064-2.148-4.44.165-.493 1.157-.739-.48-.993-5.687 3.001zM550.71 423.658l.305 1.066 1.628-.39.432.198 1.275 4.437c-.55.218-.952.369-1.168.436-3.32 1.037-6.004-.613-7.128-4.53-1.093-3.806.241-6.687 3.455-7.692a4.785 4.785 0 011.89-.211l.435.29 1.072 2.178 1.574-.492-1.061-3.697c-1.734.019-3.333.258-4.757.703-4.787 1.496-7.015 5.44-5.734 9.899 1.299 4.524 5.26 6.701 9.788 5.286 1.574-.492 3.083-1.295 4.575-2.402l-1.455-5.068.257-.412 1.22-.5-.306-1.066-6.298 1.967zM537.372 436.17l6.428-2.024-.32-1.064-1.473.346-.449-.24-3.484-11.577.253-.413 1.407-.563-.32-1.064-6.428 2.024.32 1.064 1.452-.337.435.196 3.484 11.578-.24.456-1.385.554.32 1.064zM502.572 441.863l11.316-1.036-.345-4.047-1.433.131-.155 2.43-.243.388-4.888.447-.502-5.881 2.74-.251.322.29.35 1.609 1.242-.114-.447-5.248-1.242.114-.073 1.649-.268.342-2.74.251-.458-5.383 4.194-.384.299.27.485 1.962 1.475-.136-.302-3.551-10.62.972.094 1.108 1.295-.004.364.286 1.028 12.056-.307.392-1.276.23.095 1.108zM485.727 426.947l.02 1.112 1.228.093.345.357.21 12.054-.332.37-1.225.133.02 1.112 5.985-.104-.02-1.112-1.27-.09-.345-.358-.1-5.72 6.112-.107.1 5.72-.31.369-1.267.135.02 1.112 5.965-.104-.02-1.112-1.229-.092-.344-.357-.21-12.054.331-.37 1.225-.135-.02-1.112-5.965.104.02 1.112 1.27.092.324.358.087 4.971-6.113.107-.086-4.972.332-.368 1.267-.137-.02-1.112-5.985.105zM472.88 426.516l-.038 4.02 1.46.017.36-2.426.342-.291 2.54.03-.117 12.35-.364.36-1.376.096-.01 1.112 6.326.076.01-1.112-1.375-.13-.356-.367.116-12.35 2.54.03.314.299.337 2.434 1.46.017.037-4.019-12.206-.146zM453.397 439.355l11.061.548.178-4.058-1.401-.07-.456 2.387-.284.35-4.778-.237.258-5.897 2.677.132.275.333.135 1.642 1.215.06.23-5.261-1.214-.06-.278 1.624-.303.302-2.677-.133.236-5.397 4.1.203.255.308.22 2.012 1.442.07.156-3.56-10.38-.514-.05 1.11 1.252.177.316.334-.53 12.088-.345.346-1.262.05-.048 1.111zM428.05 432.796l5.87 1.98.324-1.06-1.282-.55-.208-.451 3.536-11.517.407-.197 1.35.335.324-1.058-5.87-1.98-.325 1.059 1.262.545.221.409-3.536 11.516-.42.24-1.329-.33-.325 1.059zM417.612 428.742a11.39 11.39 0 003.572 1.99c3.22 1.086 5.773-.103 6.563-2.674.391-1.275.121-2.654-.772-3.838-.906-1.21-1.848-1.887-2.33-2.502-.828-1.041-1.18-1.875-.874-2.87.365-1.188 1.513-1.753 2.947-1.27.628.212 1.047.471 1.34.784l.183.396-.356 2.36 1.413.477 1.074-3.5c-1.09-.893-2.247-1.57-3.465-1.98-2.807-.946-5.204.296-5.94 2.694-.326 1.06-.18 2.277.465 3.424.618 1.09 1.429 1.77 2.08 2.466 1.156 1.248 1.625 2.264 1.267 3.43-.365 1.19-1.573 1.736-3.164 1.2a5.533 5.533 0 01-1.634-.886l-.156-.41.482-2.698-1.494-.504-1.2 3.91zM404.346 423.188l9.996 4.997 1.672-3.665-1.265-.632-1.307 2.013-.392.206-4.318-2.158 2.429-5.326 2.42 1.21.13.417-.488 1.567 1.1.549 2.166-4.752-1.099-.549-.858 1.383-.391.155-2.42-1.21 2.224-4.873 3.703 1.85.12.388-.541 1.943 1.302.652 1.467-3.216-9.383-4.69-.458 1.002 1.09.671.166.436-4.978 10.916-.448.179-1.182-.466-.457 1.003zM402.662 404.997l-5.031-3.466-.584.929.99.82.086.493-6.333 10.065-.466.113-1.111-.63-.584.928 5.03 3.466c1.724 1.187 3.195 1.793 4.836 1.62 2.136-.214 3.957-1.459 5.364-3.695 2.505-3.98 1.802-7.888-2.197-10.643zm-2.098.076l1 .689c2.74 1.887 2.98 4.527.739 8.09s-4.666 4.392-7.406 2.505l-1-.689 6.667-10.595zM440.642 420.763l-.224 1.088 1.167.375.258.383-2.438 11.838-.395.284-1.213-.153-.224 1.088 5.685 1.257.224-1.088-1.207-.382-.25-.426 1.03-4.998.343.076c2.035.45 2.363 1.52 2.553 3.769.103 1.136.078 2.177.944 3.297.398.529 1.088.96 1.956 1.151a13.58 13.58 0 002.051.269l.22-1.067-.262-.058c-1.351-.298-1.886-.764-2.059-2.08-.154-1.195-.068-2.43-.492-3.546-.316-.813-.916-1.386-1.833-1.845 2.374.037 3.83-.987 4.25-3.03.508-2.467-.83-4.156-3.955-4.847l-6.13-1.355zm3.872 2.18l.928.205c1.954.432 2.772 1.681 2.397 3.502-.421 2.045-1.641 2.75-3.797 2.273-.223-.049-.464-.102-.722-.183l1.194-5.797zM518.608 424.233l.173 1.098 1.33-.111.405.253 1.883 11.943-.299.419-1.294.335.173 1.098 6.266-1.07-.173-1.098-1.373.12-.412-.297-.795-5.042.378-.065c2.244-.383 2.973.482 3.997 2.493.525 1.014.886 1.989 2.181 2.688.601.334 1.465.462 2.421.299a16.257 16.257 0 002.193-.558l-.17-1.076-.289.049c-1.488.254-2.207.032-2.869-1.121-.598-1.047-.966-2.227-1.81-3.096-.624-.629-1.448-.925-2.552-.99 2.436-.9 3.542-2.423 3.217-4.484-.392-2.488-2.381-3.529-5.826-2.94l-6.755 1.153zm4.757.5l1.022-.175c2.155-.368 3.45.47 3.74 2.306.325 2.063-.66 3.197-3.036 3.603-.245.042-.511.087-.804.114l-.922-5.848z"/><path d="M467.82 625.48c.625-.937 7.187-11.875 7.187-11.875l-3.598-2.538c-1.105 3.094-5.152 4.101-5.777 7.851s2.813 7.5 2.188 6.562z" fill-rule="evenodd" transform="matrix(-1.4773 0 0 1.5447 1072.675 -524.061)" stroke="#000" stroke-width="1.16" fill="url(#i)"/><path d="M475 622.98s1.25-5.312-2.812-5.937c-4.063-.625-6.214 2.973-5.625 1.562.654-1.567 3.125-3.125 3.437-8.437.313-5.313-.312-8.125-.312-8.125s1.562-6.876 8.125-5.938c6.562.938 6.875 5.938 6.875 7.813s-.625 2.812-.625 2.812L475 622.98z" fill-rule="evenodd" transform="matrix(-1.4773 0 0 1.5447 1073.61 -525.428)" stroke="#000" stroke-width="1.16" fill="url(#j)"/><path d="M396.85 605.91s-75.43-21.26-74.99-102.14l.581-106.91h148.82l.583 106.3c.44 80.882-74.993 102.76-74.993 102.76z" fill-rule="evenodd" fill-opacity=".996" transform="matrix(1.4773 0 0 1.5447 -99.333 -521.456)" stroke="#fff" stroke-width="3.867" fill="#0072c4"/><g fill-rule="evenodd"><path d="M392.306 128.963c.184 0 1.534-1.282 2.77-2.412 1.727-.865 3.324-2.081 5.08-2.897 1.307-.757 3.89-1.344 5.077-1.93 1.555-.815 2.824-1.752 4.156-3.38.16-2.16.462-3.71.462-6.275 1.836-.884 3.466-1.74 5.077-2.414 2.31-.65 2.812-1.574 5.08-1.931 1.459-.51 3.871-.484 6-.484 2.297 0 3.747 1.633 5.81 2.02 2.447.986 3.589 1.669 5.54 3.379 1.102 1.395 1.788 2.529 3.667 3.58 1.488.762 2.88 1.918 4.617 2.412 1.905 1.104 3.597 1.744 5.077 3.38 1.356.964 1.916 2.396 3.232 3.378 1.525 1.265 2.971 2.404 4.617 3.38 1.978 1.325 3.939 2.332 7.143 2.044 1.696-.1 3.522-.296 5.54.081 2.258 0 4.463-.04 6.463.484 2.355 0 4.26.318 6.463.482 2.064.386 4.168.483 6.463.483 2.002.522 4.205.482 6.464.482h12.926c2.352 0 4.733.096 6.463.484 2.33 0 4.333-.218 6.463-.484 2.507 0 4.419-.459 6.926-.482h7.849c2.015.552 4.59.93 6 1.931 1.849.527 2.77 1.403 4.617 1.931 1.416.726 3.565 1.875 4.617 3.378 1.303 1.363 2.641 3.314 3.693 5.311 1.285 1.854 1.774 3.973 2.77 6.275.528 2.206.895 4.303.923 6.758.501 2.093.463 4.396.463 6.758-.528 2.201-.643 4.651-1.386 6.758-.08 2.356-.55 4.487-.923 6.276-.41 1.976-.894 3.247-.924 5.793v6.758c-.162 2.217-.647 3.845-.923 6.275-1.117 2.108-2.186 4.573-3.23 7.241-1.537 1.07-2.87 2.594-3.694 3.862-.985.609-1.556 1.532-1.386 1.93 1.845.643 1.386 1.927 1.386 4.345.24 1.861.42 4.169.923 6.276.169 2.304.662 3.713 1.385 5.309.728.951.87.483-.924.483-1.334 1.046-2.684.5-3.23-1.449-1.078-1.299-1.432-2.871-1.847-5.309-.256-2.235-.613-4.413-1.386-5.792-.236-2.72-.96-2.693-3.693-2.897-1.3-1.152-3.017-1.449-5.54-1.449-2.513 0-2.724-.256-2.77 2.415v6.758c-.434 1.959-1.387 3.547-1.847 5.309-1.377 1.009-2.093 2.702-3.693 3.862-.762 2.192-1.87 2.573-4.156 2.896-.799-.998-2.102-2.3-2.77-3.378 1.293-2.169 2.422-2.496 3.233-4.827a100.59 100.59 0 002.307-4.828c-.985-1.516-1.87-2.2-2.77-4.345-.759-1.168-1.81-3.68-2.307-5.309-1.516-.528-3.903-.613-5.08-1.449-2.239-.52-2.865 1.93-5.538 1.93h-6.463c-2.858 0-3.572 1.597-6.002 1.45-.714.232-2.445-.102-5.079 0-1.93.672-4.253.482-6.463.482-2.342-.03-4.258-.569-6.001-.966-2.121-.58-4.231-1.169-6.463-1.447-2.711 0-3.72.216-5.54 1.447-1.44.855-3.528 2.807-5.08 3.862-.655 1.602-.996 4.313-1.846 6.276-.49 1.883-1.288 3.077-1.846 4.828-.625 1.632-1.216 3.313-1.385 5.792-.156 3.253-.867 2.855-2.77 1.931-.793-1.347-2.057-2.828-2.77-4.345.42-2.456.893-3.678.924-6.275-.45-1.874-1.498-1.813-2.77-.483 0 2.527.117 4.476-.924 5.792-.52 1.995-1.356 2.857-2.77 3.862-.69 1.792-2.226 2.612-3.693 3.38-.235-.082 0-.647 0-1.93-1.106-2.208-.08-4.04-.08-6.759.029-2.438-.11-4.053.597-6.276 0-2.34-1.085-4.566-1.44-6.275-.858-1.793-1.353-2.68-3.693-3.38-1.645-.653-4.014-1.537-5.08-2.896-1.34-1.738-2.195-2.453-4.153-3.378-2.125-.77-3.156-1.474-4.617-2.415-1.427-1.574-2.587-2.256-3.232-4.343-.964-1.485-1.129-4.242-1.847-6.277-.157-2.119-.764-4.088-1.384-5.792-.275-2.12-.609-3.67-1.386-5.793-.257-1.985-.83-4.06-1.384-6.274 0-2.362.038-4.667-.463-6.759v-6.758c-.332-1.95-.455-4.807-.923-6.276 0-2.626-.28-4.109-.923-5.793-1.056-1.705-1.142-2.47-2.77-2.896-1.176 1.5-3.114 2.112-5.54 2.415-1.695-.387-4.086-.638-6.002-1.45-1.851-.455-3.117-1.187-4.617-1.93-.82-1.262-1.8-2.691-2.77-3.862-.286-2.521-.836-3.819-.923-6.275 0-1.843.044-.865 1.846-3.38z" fill="#bcbcbc"/><path d="M419.651 146.357c.11-.113.218-.227.327-.341-.742.775-.47.401 1.306-.342.993-.625 2.88-1.727 3.591-2.39.853-.39 2.21-.9 2.937-1.705.91-.97 1.819-1.775 2.938-2.73 1.293-1.098 2.498-1.458 3.918-2.39 1.847-.138 2.516-.929 4.243-.342 1.62.368 2.293.378 3.591-1.024 1.31-.839 2.753-1.654 3.265-3.073v-2.046c-.025 2.23-.427 2.953-1.959 3.753-1.068 1.224-2.399 2.608-2.938 3.756-1.037 1.501-1.257 2.341-2.285 3.072-.844 1.075-2.292 1.644-2.61 3.412.464.813.039 1.258.977 1.366.946.812 1.93.466 3.265 0 1.328-1.537 1.925-2.53 2.612-4.095 1.096-1.497 1.709-2.21 2.285-3.414 1.135-.823 1.856-1.464 2.286-2.731 1.313-.768 2.393-1.577 3.263-2.39.976-.627 1.494-1.137 2.938-1.365-.02 1.833-.292 2.7-.98 3.755-.324 1.901-.26 2.802.327 4.096.938.58.772 1.085 1.306 2.39.532-1.129.802-3.414.98-4.78v-.34c0 1.492.136 3.472-.327 4.437.022 1.99.464 2.878.98 4.437.55.752.938 1.24 1.632 1.707.065-1.97.557-3.267.653-5.12.455 1.43.303 3.319.653 4.778.118 1.607.7 2.852 1.306 4.097.743.459.996 1.813 1.304.683.773-2.402.792-5.03 1.306-7.51.093-1.26.194-3.133.653-4.096l-.653 4.095c.093-1.259.194-3.132.653-4.095v-.341c.305 1.798.593 3.534.653 5.46 0 1.537-.099 3.102.327 4.438 1.086-.502 1.715-1.68 2.285-3.072.87-1.65 1.466-2.382 2.612-3.754l-2.612 3.754c.87-1.65 1.466-2.382 2.612-3.754v-.341c-.18 1.574-.326 3.057-.326 4.778 0 1.574-.018 3.358.326 4.438.384 1.81.91 2.145.98 4.095 0 .95-.125 1.92.326 2.39 1.406.367 1.41-.452 1.632-2.39.018-2.202.581-3.703.652-5.802 0-2.59.366.315.653 1.365.659 1.52.864 2.872.98 4.437 0 .95-.123 1.92.326 2.39 1.261-.523 1.76-1.996 2.612-2.732.65-1.617 1.322-2.33 1.959-3.412 1.691-.354 1.608-1.049 1.632-3.072 0-1.633-.128-3.352.327-4.78.523-1.483 1.016-3.134 1.305-4.436.61-.365 1.27.537 1.631 1.365.715 1.1.653 2.705.653 4.437.315 1.51.943 2.69 1.633 4.096.818 1.578 1.483 2.534 2.285 3.414.344 1.08.327 2.864.327 4.437 1.272-1.445 1.515-3.598 1.632-5.802-.171-1.5-.202-3.368-.653-4.78-.052-1.503-.32-3.055-.653-4.095-1.102-.53-1.276-1-.326-2.39 1.05-.908 2.185-.557 3.918-.34.876.915 1.236 1.405 1.305 3.411 0 1.819.077 3.217.653 4.438.639.983 1.272 1.658 1.631 3.414.501.428.888 1.12 1.633.342.409-1 .65-3.062.98-4.097.318-1.296.893-1.932 1.632-2.39 0 1.9-.022 3.065.653 4.438.64 1.525 1.083 2.098 1.632 3.756.696.485.785 1.53 1.632 2.046.2-1.603.327-3.438.327-5.46v-4.78c.12-1.626.514-2.54.98-3.753 1.051 1.31.979 1.852.979 3.753 1.074-.4 1.254-1.17 1.63-2.388.768-.675.977-.99 1.307.681.229 1.786.665 3.394.98 5.121.671.788 1.447 2.696 2.285 3.414.574.976 1.22 1.92 1.959 2.731.508 1.123.638 1.71 1.958 2.047 0-2.31.077-4.627-.326-6.826 0-1.962-.428-2.662-.653-4.438-.544-1.177-.864-2.912-.653-3.412 1.529 1.516 2.22 2.397 2.938 4.095.766 1.64 1.411 2.743 1.958 4.437.755.648 2.092 2.591 2.612 3.414 1.165 1.041 1.733 2.126 2.938 3.071.623.587 1.941.915 2.285.683-.06-2.002-.364-3.72-.979-5.46-.022-1.911-.46-2.95-.98-4.097-1.283-1.108-2.257-1.863-2.938-3.414-.505-.432-.604-.755-.653-1.705 1.876 1.552 3.187 2.936 4.571 4.777.935 1.213 1.41 1.763 2.612 2.39.65.73 2.545 1.638 3.916 2.048.823 1.091 1.922 1.718 3.265 2.049l-3.265-2.049c.823 1.091 1.922 1.718 3.265 2.049v.341c-.164-2.135-.948-3.695-1.959-5.462-.85-1.868-1.63-2.56-2.938-3.755-.854-1.352-1.81-2.149-3.264-3.071-.9-1.06-2.25-2.82-2.938-3.414 1.392-.874 3.027.592 4.57 1.366 1.274 1.38 2.465 3.18 3.264 4.095.87 1.754 1.537 2.839 2.939 4.438 1.406.834 2.382 1.659 3.59 2.73 1.871.518 1.125-.166.654-1.706-.646-1.927-.071-1.957 1.306-.683.908.647 1.92 1.725 3.263 2.39.58.752 1.457 1.169 2.286.682.345-.482.326-.427.326-1.024-.687-2.118-1.325-3.767-2.938-4.438-.739-.942-1.942-2.063-2.937-3.072-.65-1-1.408-1.576-1.96-2.73l1.96 2.73c-.65-1-1.408-1.576-1.96-2.73h-.326c1.971.073 2.673.573 4.243 1.366 1.119.408 2.327 1.475 2.939 2.388.636.845 1.656 1.753 2.285 2.731 1.003.772 2.111 1.651 3.265 2.39 1.086 1.424 1.28 2.35 1.306 4.438.626.965.738 2.94.978 4.095-.24 1.877-.882.403-.978-.683-.277-1.508-.851-1.429-1.96-1.024 0 2.062.228 2.626.98 4.096-.204 1.41-.672 2.44-1.306 3.414-.762.454-.926-1.004-1.632-1.707-.075-2.111-.67-2.343-1.959-3.414v1.366c.728 1.457 1.497 2.785 1.632 4.78.504 1.52.653 2.482.653 4.436 0 1.671.027 3.3-.326 4.78 0 1.851-.306 2.645-.327 4.437v9.558c-.25 1.207-.326 2.781-.326 4.436l.326-4.437c-.25 1.208-.326 2.782-.326 4.437v.341c-.62-1.715-1.296-3.267-1.632-5.12-1.058-1.047-1.73-2.126-2.286-3.413-.25-1.464-.406-3.253-.653-4.438-.46-1.202-.947-2.485-1.959-1.705-.4 2.544.105 4.06.98 6.484.512 1.608.456 2.872.98 4.438.756 1.805 1.364 2.064 0 4.095-.674 1.083-1.035 1.426-1.307 2.731-1.207.632-1.51.913-1.63 2.39-.407-1.328-1.394-2.884-1.96-4.438-.585-1.634-1.307-3.313-1.632-4.778-.792-1.143-1.721-2.992-2.612-3.755-.82-1.103-1.997-2.941-2.612-4.096-1.25-1.457-1.526-2.3-2.61-3.071-.28-.682-.612-1.533-1.306-1.024 0 1.632-.129 3.35.326 4.777.33 2.013.909 3.13.98 5.121v3.755c-.785-1.923-1.622-3.64-2.286-5.462-.713-1.02-1.41-3.004-2.285-3.755-.555-1.324-.988-2.422-1.632-3.412-.167-.992-.606-.981-.98-1.707.022 1.935.61 2.613.98 4.095.636 1.3.84 3.48.653 4.096-.823-2.392-1.568-5.008-2.612-7.167-.99-1.403-1.956-3.205-2.612-4.438-.97-1.172-1.97-1.211-2.937-2.048-.882-.437-1.726-.926-2.285-1.707.257 1.8.927 2.924 1.305 4.438.215 1.716.97 3.09 1.306 4.438-.363 2.335-.89-.648-1.306-1.707-.344-1.922-.98-2.99-1.632-4.097-.875-.622-1.67-1.727-2.612-2.39-.916-.367-.653.067-.653 1.366 0 2.112.077 3.507.653 4.78.652 1 .653 2.306.653 4.094-.057 1.681-.326 3.03-.326 4.78V188c-.75-1.451-1.461-2.275-1.96-4.096-1.132-1.55-1.468-2.688-2.285-4.436-.724-.305-1.902-.556-2.61 0 .127 1.727.89 2.487.98 4.436-1.302 1.333-1.067 1.713-1.96-.341-.744-1.556-1.611-1.483-2.611-2.39-1.639-.213-1.119-1.262-1.633-2.73 0-1.314.13-2.64-.326-3.755-1.79 0-2.816-.064-3.917 1.025-.518 1.08-.335 3.033 0 4.436v4.78c-.372 1.195-1.11 1.26-1.306 2.73-.63 1.457-.839 3.065-1.305 4.097-1.163 1.049-.658 1.182-1.306-.683V180.15c0-1.855.267-2.759.326-4.436-.677-1.415-.861-1.681-2.938-1.707-.506.882-.313 2.52 0 3.414 0 1.654.075 3.23.326 4.436 0 1.813.214 2.912.327 4.438-.062 1.809-.4 3.251-1.306 4.096-1.178.308-.129 1.057-1.306 1.366-1.18-.592-2.568-1.396-3.59-2.39-1.27-.404-2.466-.682-4.244-.682-2.165-.028-2.202-.29-2.939-2.049-.662-1.88-.973-3.515-1.306-5.462-.718-1.597-.886-2.686-1.306-4.436-.548-1.043-1.133-1.83-1.957-2.39-.473 1.726-.917 3.17-.98 5.12-.382.8-.462 2.834-.652 3.754-.656-1.01-.913-2.996-1.306-4.436-.62-2.07-1.148-3.414-3.265-2.731-2.197.028-2.259.091-2.286 2.39.946 1.481 1.956 2.92 2.612 4.095v4.779c0 1.973.115 2.544-1.306 3.072-.54-2.048-1.688-4.003-2.938-5.803-.171-1.392-.6-1.024-1.957-1.024-.909 0-1.837-.128-2.286.341 0 1.19.098 2.84 0 3.073-.787.145-1.105-.008-1.632-.683-.57.993-.14 2.393 0 3.755-.415 1.519-.91 2.906-1.633 3.754-.144-.454-.471-.342 0-.342-2.24-.86-3.993-1.391-5.875-2.046-1.133.146-1.956 1.189-2.612 2.046-1.659.558-2.393 1.001-4.244 1.024-1.776 0-2.64.28-4.244.342-1.154.262-2.661.341-4.243.341-.878-.26-2.411-.269-2.939-.683.674-1.005 1.425-1.513 1.96-3.07.893-.637 1.73-1.452 2.611-2.39.861-.613 1.87-1.883 2.61-2.731.51-1.644 1.21-1.928 2.286-2.731 1.941.076 2.32.692 4.244 1.024 1.88.712 2.92.922 3.918-.341 1.559-.66 2.882-1.69 4.57-2.049 1.307-.653 2.144-1.288 3.264-2.048 1.389-.836 2.05-1.695 3.265-2.73.347-1.391 1.331-2.466.98-4.096-1.767-.462-2.889-.277-3.918.683-1.429 1.177-1.7 1.666-3.265 2.73-1.352.385-1.93.98-3.591 1.366-1.364.476-3.008.342-4.57.342-1.427 0-3.32-.142-4.244.341 1.452-.978 3.197-1.994 4.57-2.39 1.318-.885 1.816-1.333 3.592-1.365.824-1.078 1.674-1.105 1.957-2.731.553-2.02-1.204-1.38-2.61-.683-1.327.244-2.79 1.183-3.918 1.707-1.089.38-2.68.663-4.244.683-.412-.615.322-1.106.653-2.049 1.525-.54 1.77-.74 1.959-2.39-1.729.24-2.389.809-3.918 1.025-1.666.436-3.395.629-5.222.683h-4.571c-1.604-.062-2.469-.342-4.243-.342-1.3-.68-1.306-1.002-1.306-3.072 1.024-1.177 2.02-1.023 3.917-1.023 1.46-.718 2.597-1.1 3.59-1.707 1.183-.255 1.99-.76 1.633-1.365h-4.57c-1.76-.745-.08-1.086.979-1.707 1.588 0 3.226.094 4.244.683 1.964-.076 2.648-.697 4.243-2.049 1.251-1.03 1.864-1.688 3.265-2.39 1.006-1.11 1.956-1.722 2.612-2.73 1.343-1.278 2.232-1.987 2.938-3.071.864-.476 1.392-1.09.98-1.707-2.046.249-2.874.993-4.245 2.048-.796.793-1.569 1.503-2.612 2.048-1.47.873-2.385 1.227-4.242 1.364-1.676 0-2.964-.28-4.571-.34-1.773-.186-.14-.599.326-1.365.686-.479 1.22-1.542.653-2.39-1.365-.475-3.008-.341-4.57-.341h-4.57c-1.725-.066-2.455-.462-3.591-1.024-.352-.958.063-.683 1.306-.683 1.573-.062 2.689-.276 4.244-.683 1.535-.437 1.727-.948 1.958-2.73-1.506 0-3.21.018-4.243-.342h-2.939zM391.376 138.618c-.287-2.521-.836-3.819-.924-6.275 0-1.843.045-.865 1.847-3.38.183 0 1.533-1.282 2.77-2.412 1.727-.865 3.324-2.081 5.079-2.897 1.307-.757 3.891-1.344 5.077-1.93 1.556-.815 2.825-1.752 4.156-3.38.16-2.16.463-3.71.463-6.275 1.836-.884 3.465-1.74 5.077-2.414 2.31-.65 2.811-1.574 5.079-1.931 1.46-.51 3.872-.484 6-.484 2.298 0 3.747 1.633 5.811 2.02 2.446.986 3.588 1.669 5.54 3.379 1.102 1.395 1.787 2.529 3.667 3.58 1.487.762 2.88 1.918 4.616 2.412.015 1.742.386 1.441-.858 1.441-.132 1.786-.559 1.675-2.286 1.707a7.987 7.987 0 01-2.938-2.731c.653-1.773.22 1.435 0 2.048-.839.69-1.338 1.426-2.285.683-.53-1.665-.978-2.816-.978-4.778-.248-2.133-.845-.585-1.306.342-.442 1.72-.241 2.343.326 3.753-1.665 0-2.941-.157-4.244-.341-1.211-.301-2.572.07-3.918.683-1.709 1.073-1.177 1.08-.326 2.39 1.508.444 2.592 1.28 3.918 2.048 1.506-.3 3.08-.635 4.57-1.025 1.556-.542 2.98-.197 4.57 0 .789.413 1.826.496 2.285 1.025 0 1.055.084 2.158-.326 2.73-.68.452-1.324 1.701-2.286 2.047-1.439.825-2.949 1.344-4.57 1.707-2 .076-2.73.515-4.243 1.366-.249 1.725-.752 2.212-2.286 2.73-1.526.667-2.739 1.025-4.57 1.025-.908 0-1.835.128-2.285-.341 1.454-1.66 1.891-2.441 2.612-4.097.282-.69.873-1.134.327-1.707-1.934.076-2.44.063-2.612 2.048-.219 1.798-.91 2.1-2.285 2.731.37-1.665.432-2.944.979-4.437-1.155.262-2.66.34-4.244.34-.989.628-1.4.872-.98 2.05-1.312.456-2.909.175-4.57 0-1.386-.076-.621-.705-1.631-1.366-.662-1.3-1.423-1.616-2.939-1.707-.752.94-2.145 1.33-2.938 2.048-1.43.499-2.34.085-3.59-.683-1.631.051-1.412.576-.98 1.707.622.434-.038.907.98 1.024.938.851 1.74 1.024 3.59 1.024 1.415-.369 2.974-.34 4.57-.34 1.612.049 1.307.43 1.307 2.047-1.054.746-2.589.683-4.245.683-1.575-.196-2.783-.604-3.916-1.024-1.53-.114-2.752-.406-3.918 0-.526.582-2.11.837-.326 1.024.701.661 4.479.342 4.748 1.466.89.99.692 2.29-.83 2.29-.925-.484-1.639-.365-2.286 0-1.087.284-2.378.077-4.275.219 2.477.204-1.8-2.691-2.77-3.862z" fill="#fefefe"/><path d="M401.687 127.249c-.108 0-1.083.678-1.959 1.365-1.434.768-2.966 2.075-3.917 2.731-.75.6-.745.86-1.631 1.025 1.555-.221 2.248-.617 3.59-1.366 1.695-.204 3.338-.564 4.244-1.365.85-.297-.064-1.658-.327-2.39zM416.712 111.2c.187 0 .57 1.067 1.304 1.706.47 1.31.903 2.235.98 3.755.4-1.668 1.084-3.009 1.305-4.779-.508-.899-.542-1.32-1.959-1.365 0 .922.108.32-1.63.682z" fill="#bcbcbc"/><path d="M349.36 417.73c-.494 0 .871-.492 1.326-.663.364-.767.653-1.31 1.326-1.767 1.107.085 1.65.404 2.21 1.104.93.254 1.265.697 2.431.884.433.366 1.019.408 0 .663-.693.366-1.564.442-2.652.442-1.14.082-1.954.333-2.652.663-1.479 0-1.242.049-1.989-1.326z" transform="matrix(1.4773 0 0 1.5447 -109.52 -520.078)" stroke="#000" stroke-width=".875" fill="#c4c4c2"/><path d="M422.576 111.54v.34c0-.92-.02-.45.327 1.366.54 1.145.653 2.373.653 4.097.857-.64 1.572-1.916 1.959-3.073 0-2.695-.365-2.536-2.939-2.73zM434.66 150.79h.327c-.96 0-.42.059 1.306-1.024 1.117-.778 2.031-1.93 3.592-2.39 1.51-1.24 2.673-1.82 4.242-2.388.766-.367 1.44-1.005 2.286-.341-.243 1.684-.522 2.32-1.96 3.07-.742.974-1.912 1.542-2.936 2.05-1.062.487-2.23.512-2.612 1.706-1.776.817-1.994.68-4.244-.683zM440.865 160.692c.583-.46 2.627-2.592 3.59-3.412 1.09-1.503 2.193-2.653 3.265-3.414.952-1.465 2.17-2.446 2.939-3.755.907-1.148 1.574-2.12 2.611-3.413 0 1.492-.136 3.471.325 4.437 0 2.062-.227 2.626-.978 4.096-.741 1.208-1.294 2.008-2.938 2.731-1.483.822-2.372 1.111-3.591 2.047-.93.598-1.897 1.193-2.939 1.707-.933.419-.505.236-2.284-1.024zM430.746 168.539h.326c-.96 0-.42.059 1.306-1.024 1.393-1.457 2.503-1.963 4.245-2.731 1.325-.107 2.928-.451 3.917-1.024.79-.146 1.339-.648 1.958 0 1.025 1.449 1.307 1.858-.327 2.73-.781.694-2.16 1.392-3.263 1.708-.815.702-2.429.746-3.918 1.024-1.334 0-2.075.157-2.612-.683l2.612.683c-1.334 0-2.075.157-4.244-.683zM444.78 168.539v-.341c0 .953-.04.448.653-1.366 1.224-1.91 1.684-2.963 3.265-3.414.74-.936 2.023-1.178 3.591-1.707.588 1.026.136 2.222 0 3.414-.426 1.275-1.59 2.174-2.285 3.073-1.018.723-1.433 1.418-2.938 1.706-1.246 0-.585-.032-2.286-1.365z" fill="#bcbcbc"/><path d="M412.788 124.159c0 .943-.73 1.707-1.632 1.707-.901 0-1.632-.764-1.632-1.707 0-.943.73-1.707 1.632-1.707.902 0 1.632.764 1.632 1.707z"/></g><g stroke-opacity=".996" fill-rule="evenodd" fill-opacity=".996" stroke="#002b0d" stroke-width="1pt" fill="#005120"><path d="M351.79 479.6h.884c-2.771 0-1.115-.185 3.535 3.535 1.948-1.623 1.925-1.842 3.536.884.93 1.552 1.203-.158 2.651-1.767.698 3.211 1.145 6.578 3.536 3.535 2.731 0 5.59-.227 7.071.884 1.79 3.325 1.204-.564 2.652.884 3.892.467 3.818-3.338 8.057-4.322 2.635 3.293 3.789.759 7.072-.883 2.438.682 4.736 4.381 5.2.785 1.996-3.256 2.17-2.979 3.536 0 1.941 1.748 2.759-.874 4.419-1.767 2.959 1.731 6.259 1.971 10.607.884.736 2.944 2.592 1.667 4.419.883 3.91 1.643 5.274 2.146 9.723 0 2.204-2.604.956.073 2.651 1.768 3.296-1.023 2.386-1.24 6.188-.884 3.821 0 4.13-.092 5.303-2.651 1.92 1.92 2.614 3.304 5.303.884 4.12.121 2.846.52 5.304-.884 1.818 4.026 2.245 1.117 4.419 2.651-1.432 3.631-3.632 5.334-6.187 7.071-1.7 2.816-2.763 5.857-6.187 7.072-2.498 2.548-5.16 4.025-7.955 6.187-3.832.958-8.05.884-12.375.884H388.029c-2.64 1.319-6.958 1.948-10.607 2.651-4.075 0-8.694.048-11.49-.884-1.895-1.894-5.219-4.011-7.071-6.187-1.874-1.511-1.928-4.46-3.536-6.187-1.479-2.529-1.936-6.486-3.535-8.839V479.6z" transform="matrix(1.4772 0 0 1.5447 -102.997 -521.43)"/><path d="M437.52 487.56v.884c0-2.471.109-1.158-1.768 3.535-.38 1.14-1.212 1.408-2.652 1.768M429.57 491.09h.884c-3.273 3.091-5.476 4.515-6.188 7.955l6.188-7.955c-3.273 3.091-5.476 4.515-6.188 7.955M417.19 486.68c0 .079-.124 3.153-.884 4.419M413.66 492.86v.884-.884 0zM406.59 487.56h.884-.884c.294 0 .589 0 0 0zM357.09 487.56c.422 0 2.161 2.806 4.419 4.419-.562 2.586-1.426 5.578 0 7.955M364.16 492.86c.422 0 2.161 2.807 4.42 4.42l-4.42-4.42c.422 0 2.161 2.807 4.42 4.42v.884c0-2.731-.227-5.591.883-7.072.983 1.663 2.224 4.337 2.652 1.768 4.978-.178 7.381-1.576 10.607-2.651 0 1.3-.209.675.884 1.767M443.71 488.44h.884c-1.667 1.389-2.946 4.222-4.42 6.187M407.47 485.79h7.071" transform="matrix(1.4772 0 0 1.5447 -102.997 -521.43)"/></g><path d="M413.611 239.342c-15.703 0-20.907 16.411-36.61 16.411-.303 0-.59-.025-.884-.036v.993c-.059 11.375.835 21.97 2.466 31.864 14.485-1.058 19.866-16.411 35.028-16.411 15.703 0 20.944 16.447 36.648 16.447s20.944-16.447 36.647-16.447 20.944 16.447 36.648 16.447 20.944-16.447 36.647-16.447c15.122 0 20.518 15.244 34.918 16.373 1.725-10.158 2.636-21.071 2.575-32.784v-.037c-.294.012-.58.037-.883.037-15.703 0-20.907-16.411-36.61-16.411s-20.945 16.41-36.648 16.41-20.944-16.41-36.648-16.41-20.944 16.41-36.647 16.41-20.944-16.41-36.647-16.41zM413.611 303.406c-12.215 0-18.092 9.902-27.486 14.313a151.27 151.27 0 0011.664 24.837c4.461-3.374 9.203-6.292 15.823-6.292 15.695-.012 20.934 16.401 36.641 16.401 15.704 0 20.944-16.41 36.648-16.41 15.703 0 20.944 16.41 36.647 16.41s20.944-16.41 36.648-16.41c6.472 0 11.151 2.793 15.527 6.07a153.001 153.001 0 0011.701-24.726c-9.245-4.469-15.124-14.202-27.228-14.202-15.703 0-20.944 16.411-36.647 16.411s-20.944-16.41-36.648-16.41c-15.703 0-20.944 16.41-36.647 16.41s-20.944-16.41-36.648-16.41zM486.894 367.458c-15.703 0-20.944 16.448-36.647 16.448-14.85 0-20.347-14.703-34.182-16.3 18.49 20.597 39.458 33.068 53.757 39.921 4.836-3.753 9.844 4.563 17.072 4.563 7.178 0 12.159-8.359 16.963-4.636 14.14-6.885 34.853-19.375 53.242-39.775-13.383 1.957-18.931 16.226-33.557 16.226-15.703 0-20.944-16.447-36.648-16.447z" fill-rule="evenodd" fill="#fff"/><g transform="matrix(1.1774 0 0 1.1774 -406.915 -18.22)"><path d="M332.54 541.35c1.744-.581 10.173-3.197 10.464-2.907.291.291 16.278 15.697 16.278 15.697l-13.371 2.616-13.371-15.406z" stroke-opacity=".996" transform="matrix(1.2546 0 0 1.3119 259.35 -430)" stroke="#512007" stroke-width=".475" fill="none"/><path d="M413.64 471.01c.291-4.651 8.72-31.103 8.72-31.103M416.54 471.32c0-.291 6.686-31.127 6.686-31.127M418.83 471.37c.29-1.744 5.558-31.175 5.558-31.175M413.93 467.23c1.453-.872 5.813-2.035 5.813-2.035M415.96 462.58c1.453 0 4.36-1.163 4.36-1.163M416.83 459.09c0-.291 4.36-1.163 4.36-1.163M417.41 454.73l4.651-.872M419.45 450.95c0 .291 3.197.291 3.197.291M420.32 447.46c.581 0 3.197.581 3.197.581" stroke-opacity=".996" transform="matrix(1.0628 0 0 1.029 276.8 -177.96)" stroke="#512007" stroke-width=".594" fill="none"/><path d="M413.64 471.01c.291-4.651 8.72-31.103 8.72-31.103M416.54 470.13c0-.291 6.686-29.94 6.686-29.94M419.45 467.81c.29-1.744 4.941-27.614 4.941-27.614M413.93 467.23c1.453-.872 5.813-2.035 5.813-2.035M415.96 462.58c1.453 0 4.36-1.163 4.36-1.163M416.83 459.09c0-.291 4.36-1.163 4.36-1.163M417.41 454.73l4.651-.872M419.45 450.95c0 .291 3.197.291 3.197.291M420.32 447.46c.581 0 3.197.581 3.197.581" stroke-opacity=".996" transform="matrix(-1.2546 0 0 1.762 1290.4 -502.06)" stroke="#512007" stroke-width=".41" fill="none"/><path d="M413.64 471.01c.291-4.651 8.72-31.103 8.72-31.103M416.54 470.13c0-.291 6.686-29.94 6.686-29.94M419.45 467.81c.29-1.744 4.941-27.614 4.941-27.614M413.93 467.23c1.453-.872 5.813-2.035 5.813-2.035M415.96 462.58c1.453 0 4.36-1.163 4.36-1.163M416.83 459.09c0-.291 4.36-1.163 4.36-1.163M417.41 454.73l4.651-.872M419.45 450.95c0 .291 3.197.291 3.197.291M420.32 447.46c.581 0 3.197.581 3.197.581" stroke-opacity=".996" transform="matrix(-1.2546 0 0 1.3119 1321.3 -301.92)" stroke="#512007" stroke-width=".475" fill="none"/><path d="M395.32 572.16c0-.291.872-72.96.872-72.96s2.616-.291 2.616 0-.29 72.669-.581 72.96-3.198.581-2.907 0zM423.81 502.4c0 .582-.582 61.333-.582 61.333l-2.035 2.326.582-63.659h2.035z" stroke-opacity=".996" fill-rule="evenodd" transform="matrix(1.2546 0 0 1.3119 259.35 -430)" stroke="#512007" stroke-width=".475" fill="#dd8b59"/><path d="M363.06 560.24s2.907 29.94 36.335 29.068 42.729-30.23 42.729-30.23-14.243-.582-14.534-.582c-.29 0-11.627 13.953-26.161 13.662s-19.184-3.779-22.382-6.685c-3.197-2.907-6.104-7.267-6.104-7.267l-16.859-6.686.872 6.395 6.104 2.325zM453.3 557.13c-.291-.872-1.007-3.866-1.007-3.866v-3.488l1.609-3.532s-25.289 3.623-25.289 3.914c0-.335-.156 6.885-.156 6.885l24.843.087z" stroke-opacity=".996" fill-rule="evenodd" transform="matrix(1.2546 0 0 1.3119 259.35 -430)" stroke="#512007" stroke-width=".475" fill="#dd8b59"/><path d="M448.52 549.78l-.581 6.104h4.069l-.29-6.104h-3.198zM444.16 550.07l-.291 6.394 2.616-.29.291-6.104h-2.616zM439.8 556.46v-4.941l2.616-.872.291 4.941-2.907.872zM434.85 556.18l.582-4.36 2.906.29.291 4.651-3.779-.581zM429.33 556.18l.291-3.779 2.907-.291v4.36l-3.198-.29zM361.89 559.95c.872 0 7.558 1.453 7.558 1.453l6.976 9.302" stroke-opacity=".996" transform="matrix(1.2546 0 0 1.3119 259.35 -430)" stroke="#512007" stroke-width=".475" fill="none"/><path d="M366.84 561.12c.29.291 6.104 19.766 34.009 19.766s34.591-22.091 34.591-22.091" stroke-opacity=".996" transform="matrix(1.2546 0 0 1.3119 259.35 -430)" stroke="#512007" stroke-width=".475" fill="none"/><path d="M439.8 559.37s-13.371 29.068-38.951 27.033c-25.58-2.034-29.649-11.627-31.684-16.568-2.035-4.942-3.197-9.011-3.197-9.011" stroke-opacity=".996" transform="matrix(1.2546 0 0 1.3119 259.35 -430)" stroke="#512007" stroke-width=".475" fill="none"/><path d="M373.23 558.21c.29-1.745.29-54.357.29-54.357l-1.744-.291-.29 53.776 1.744.872zM331.66 541.06l22.091 10.755-.581 1.453s-21.22-9.883-21.22-10.174c0-.29.291-1.453-.29-2.034z" stroke-opacity=".996" fill-rule="evenodd" transform="matrix(1.2546 0 0 1.3119 259.35 -430)" stroke="#512007" stroke-width=".475" fill="#dd8b59"/><path d="M341.84 537.86c0 .872 3.198 18.603 3.198 18.603s2.035.291 2.035 0c0-.29-3.489-18.312-3.489-18.312l-1.744-.291zM362.18 538.44c1.163 0 20.929-3.197 20.929-3.197l-.291 3.197-19.475 2.035-1.163-2.035z" stroke-opacity=".996" fill-rule="evenodd" transform="matrix(1.2546 0 0 1.3119 259.35 -430)" stroke="#512007" stroke-width=".475" fill="#dd8b59"/><path d="M365.09 514.32c.581 0 6.976 3.198 9.592 2.326s.872-2.907 1.453-2.907c.582 0 2.616 1.453 3.779.29 1.163-1.162 2.035-4.65 1.454-4.36-.582.291-15.988 5.814-16.278 4.651z" stroke-opacity=".996" fill-rule="evenodd" transform="matrix(1.2546 0 0 1.3119 259.35 -430)" stroke="#512007" stroke-width=".475" fill="#fecf3e"/><path d="M362.48 521.58c1.163.291 23.836-6.104 23.836-6.104s0 2.035-.291 2.035c-.29 0-23.545 6.104-23.545 6.104v-2.035z" stroke-opacity=".996" fill-rule="evenodd" transform="matrix(1.2546 0 0 1.3119 259.35 -430)" stroke="#512007" stroke-width=".475" fill="#dd8b59"/><path d="M415.09 512.57s1.454 3.488 2.907 2.907 2.907-1.744 2.907-1.744 1.163 2.907 3.197 2.325c2.035-.581 3.198-3.779 3.198-3.779s2.034.582 2.906.291c.873-.291 2.035-4.941 2.035-4.941l-17.15 4.941zM413.34 540.77c-.291.581 1.454 2.035 2.907 2.035s2.035-2.035 2.325-1.454c.291.582.291 3.198 4.07 2.326s3.779-3.488 3.779-3.488-1.163.872 1.453 1.162c2.616.291 5.232-3.779 4.942-3.779-.291 0-18.894 3.489-19.476 3.198z" stroke-opacity=".996" fill-rule="evenodd" transform="matrix(1.2546 0 0 1.3119 259.35 -430)" stroke="#512007" stroke-width=".475" fill="#fecf3e"/><path d="M363.35 513.15c-.291 1.163.29 2.617.29 2.617l18.894-6.395s.872-1.454 0-1.454-19.475 5.814-19.184 5.232zM388.35 509.08c.581 0 19.475-6.104 19.475-6.104s.291 2.616 0 2.616c-.29 0-17.731 5.232-17.731 5.232l-1.744-1.744z" stroke-opacity=".996" fill-rule="evenodd" transform="matrix(1.2546 0 0 1.3119 259.35 -430)" stroke="#512007" stroke-width=".475" fill="#dd8b59"/><path d="M413.34 521.88s-2.907 3.197-2.035 7.557c.872 4.361 2.035 8.139 2.326 8.139s3.488-5.813 6.976-6.104 9.883 3.198 9.883 3.198-.872-6.977-.581-10.174c.29-3.198 5.232-8.72 5.232-8.72l-21.801 6.104z" stroke-opacity=".996" fill-rule="evenodd" transform="matrix(1.2546 0 0 1.3119 259.35 -430)" stroke="#512007" stroke-width=".475" fill="#fecf3e"/><path d="M386.89 516.64s-.581 2.616-.29 2.616c.29 0 24.707-6.395 24.707-6.395v-1.744l-24.417 5.523z" stroke-opacity=".996" fill-rule="evenodd" transform="matrix(1.2546 0 0 1.3119 259.35 -430)" stroke="#512007" stroke-width=".475" fill="#dd8b59"/><path d="M355.5 551.82s-5.813-.872-5.523.581c.291 1.453 2.907 2.907 3.198 3.779.29.872-.872 4.069.872 3.779 1.744-.291 3.488-1.454 3.488-2.326s-.291-4.941-.291-4.941l-1.744-.872z" stroke-opacity=".996" fill-rule="evenodd" fill-opacity=".996" transform="matrix(1.2546 0 0 1.3119 259.35 -430)" stroke="#512007" stroke-width=".475" fill="#b6b6b4"/><path d="M387.76 537.28v2.034l20.929-2.906-.581-1.454-20.348 2.326z" stroke-opacity=".996" fill-rule="evenodd" transform="matrix(1.2546 0 0 1.3119 259.35 -430)" stroke="#512007" stroke-width=".475" fill="#dd8b59"/><path d="M363.06 540.77c.291 0 0 2.616 2.325 2.035 2.326-.582 2.907-2.035 2.907-2.035s.581 3.197 3.779 2.907c3.197-.291 4.941-3.779 4.941-3.779s.291 2.616 2.326 1.744 2.616-2.907 2.616-2.907l-18.313 2.616-.581-.581zM363.06 523.62s-2.616.872-1.744 6.104 2.907 8.139 3.197 8.139c.291 0 2.616-4.941 6.104-5.813 3.489-.873 9.593 2.616 9.593 2.616s-.582-4.651.291-9.011c.872-4.361 3.778-7.558 3.778-7.558s-20.347 5.523-21.219 5.523z" stroke-opacity=".996" fill-rule="evenodd" transform="matrix(1.2546 0 0 1.3119 259.35 -430)" stroke="#512007" stroke-width=".475" fill="#fecf3e"/><path d="M411.89 538.73l.29 1.744s20.929-2.616 20.929-2.907c0-.29 0-2.034-.29-2.034-.291 0-20.639 3.488-20.929 3.197zM411.6 520.13l.291 2.034 24.707-6.685s.582-1.744.291-1.744-24.708 7.267-25.289 6.395z" stroke-opacity=".996" fill-rule="evenodd" transform="matrix(1.2546 0 0 1.3119 259.35 -430)" stroke="#512007" stroke-width=".475" fill="#dd8b59"/><path d="M414.22 510.83s-.29 1.744 0 1.744c.291 0 18.313-4.36 18.313-4.651 0-.29 1.744-2.035.291-1.744-1.454.291-18.022 5.523-18.604 4.651zM452.88 544.55l-18.03-28.49M432.53 535.83c.291-.872 1.163-18.312 1.163-18.312" stroke-opacity=".996" transform="matrix(1.2546 0 0 1.3119 259.35 -430)" stroke="#512007" stroke-width=".475" fill="none"/><path d="M388.93 509.96c1.163.291 3.198 3.197 4.36 2.616 1.163-.581 2.907-2.325 2.907-2.325s-.291 3.488 2.035 2.906c2.325-.581 2.616-2.906 2.616-2.906s1.744.872 3.197 0c1.454-.872 2.907-5.233 2.326-5.233s-16.859 5.233-17.441 4.942zM388.35 518.39c0 .581-2.907 5.232-2.035 9.592s2.616 8.43 2.907 8.43 4.651-4.651 8.43-5.523c3.778-.872 9.301 2.907 9.011 2.907-.291 0-1.454-4.361-1.454-7.558 0-3.198 4.36-13.081 4.36-13.081l-21.219 5.233zM388.35 539.32c0 .291.872 2.326 2.907 2.326 2.034 0 2.325-2.035 2.325-2.035s-.291 3.488 2.907 3.198c3.197-.291 4.36-3.489 4.36-3.489s.291 1.745 2.907.873c2.616-.873 6.104-3.779 5.813-3.779-.29 0-20.928 3.779-21.219 2.906z" stroke-opacity=".996" fill-rule="evenodd" transform="matrix(1.2546 0 0 1.3119 259.35 -430)" stroke="#512007" stroke-width=".475" fill="#fecf3e"/><use xlink:href="#k" transform="translate(-6.564 7.275)" height="496.063" width="992.126"/><use xlink:href="#k" transform="translate(6.564 3.758)" height="496.063" width="992.126"/><use xlink:href="#k" transform="translate(0 11.033)" height="496.063" width="992.126"/><path id="k" d="M408.98 476.96a1.89 1.89 0 11-3.779 0 1.89 1.89 0 013.779 0z" stroke-opacity=".996" fill-rule="evenodd" fill-opacity=".996" transform="matrix(.04064 -1.0717 1.0237 .04254 251.6 667.92)" stroke="#512007" stroke-width=".581" fill="#be0f17"/><path d="M398.23 500.07c0-.291 9.011 3.779 9.011 4.069 0 .291 31.974 42.73 32.265 42.73M423.52 504.14l8.139 3.489 2.616 6.394M372.94 503.56c-.291 0 9.011 6.976 9.011 6.976l1.163 5.814M341.26 546c4.069-1.744 32.265-26.452 32.265-26.452M333.7 541.35c3.489-2.907 31.684-26.742 31.684-26.742M386.6 518.68l29.94 49.706M413.01 539.23s3.532 11.711 7.02 13.455 7.557 4.651 7.557 4.651" stroke-opacity=".996" transform="matrix(1.2546 0 0 1.3119 259.35 -430)" stroke="#512007" stroke-width=".475" fill="none"/><path d="M412.61 539.48s2.481 13.793 5.969 16.409 6.977 5.523 6.977 5.523" stroke-opacity=".996" transform="matrix(1.2546 0 0 1.3119 259.35 -430)" stroke="#512007" stroke-width=".475" fill="none"/><path d="M390.96 439.03s3.488 19.185 10.465 23.545a952.102 952.102 0 0112.789 8.139" stroke-opacity=".996" transform="matrix(1.2546 0 0 1.3119 256.26 -299.49)" stroke="#512007" stroke-width=".475" fill="none"/><path d="M390.67 438.74s7.557 15.116 13.952 19.767c6.395 4.65 15.115 9.011 15.115 9.011M366.26 439.9c2.034 3.488 1.744 10.174 4.069 12.499 2.325 2.326 5.814 7.558 5.814 7.558" stroke-opacity=".996" transform="matrix(1.2546 0 0 1.3119 256.26 -299.49)" stroke="#512007" stroke-width=".475" fill="none"/><path d="M366.84 440.19c1.163 1.744 4.406 10.428 6.395 13.08 1.454 2.326 16.278 17.15 16.278 17.15" stroke-opacity=".996" transform="matrix(1.2546 0 0 1.3119 256.26 -299.49)" stroke="#512007" stroke-width=".475" fill="none"/><path d="M384.57 471.15a2.18 2.18 0 11-4.36 0 2.18 2.18 0 014.36 0zM395.32 475.8a1.89 1.89 0 11-3.779 0 1.89 1.89 0 013.779 0zM408.98 476.96a1.89 1.89 0 11-3.779 0 1.89 1.89 0 013.779 0zM420.9 472.46c0 .963-.716 1.744-1.599 1.744s-1.598-.78-1.598-1.744c0-.963.715-1.744 1.598-1.744.883 0 1.599.78 1.599 1.744zM430.49 466.79c0 .883-.846 1.599-1.89 1.599s-1.889-.716-1.889-1.599.846-1.599 1.89-1.599 1.889.716 1.889 1.599z" stroke-opacity=".996" fill-rule="evenodd" transform="matrix(1.2546 0 0 1.3119 256.26 -299.49)" stroke="#512007" stroke-width=".475"/><path d="M374.1 404.44c-.872.582-15.406 4.07-13.371 3.779 2.034-.29 13.662 2.907 13.371 2.035s0-5.232 0-5.814zM398.81 400.08c-.582 0-9.012 3.198-8.721 3.198s9.593 2.616 9.302 2.034c-.291-.581-.291-4.36-.581-5.232zM424.1 402.99c-.582.291-10.465 2.616-8.721 2.907s8.43 2.616 8.43 2.035c0-.582 0-4.651.291-4.942z" stroke-opacity=".996" fill-rule="evenodd" fill-opacity=".996" transform="matrix(1.2546 0 0 1.3119 256.26 -299.49)" stroke="#512007" stroke-width=".475" fill="red"/><path d="M413.64 471.01c.291-4.651 8.72-31.103 8.72-31.103M416.54 470.13c0-.291 6.686-29.94 6.686-29.94M419.45 467.81c.29-1.744 4.941-27.614 4.941-27.614M413.93 467.23c1.453-.872 5.813-2.035 5.813-2.035M415.96 462.58c1.453 0 4.36-1.163 4.36-1.163M416.83 459.09c0-.291 4.36-1.163 4.36-1.163M417.41 454.73l4.651-.872M419.45 450.95c0 .291 3.197.291 3.197.291M420.32 447.46c.581 0 3.197.581 3.197.581" stroke-opacity=".996" transform="matrix(1.2546 0 0 1.3119 256.26 -299.49)" stroke="#512007" stroke-width=".475" fill="none"/><path d="M413.64 471.01c.291-4.651 8.72-31.103 8.72-31.103M416.54 471.32c0-.291 6.686-31.127 6.686-31.127M418.83 471.37c.29-1.744 5.558-31.175 5.558-31.175M413.93 467.23c1.453-.872 5.813-2.035 5.813-2.035M415.96 462.58c1.453 0 4.36-1.163 4.36-1.163M416.83 459.09c0-.291 4.36-1.163 4.36-1.163M417.41 454.73l4.651-.872M419.45 450.95c0 .291 3.197.291 3.197.291M420.32 447.46c.581 0 3.197.581 3.197.581" stroke-opacity=".996" transform="matrix(1.2546 0 0 1.3632 225.31 -323.36)" stroke="#512007" stroke-width=".475" fill="none"/><path d="M413.64 471.01c.291-4.651 8.72-31.103 8.72-31.103M416.54 470.13c0-.291 6.686-29.94 6.686-29.94M419.45 467.81c.29-1.744 4.941-27.614 4.941-27.614M413.93 467.23c1.453-.872 5.813-2.035 5.813-2.035M415.96 462.58c1.453 0 4.36-1.163 4.36-1.163M416.83 459.09c0-.291 4.36-1.163 4.36-1.163M417.41 454.73l4.651-.872M419.45 450.95c0 .291 3.197.291 3.197.291M420.32 447.46c.581 0 3.197.581 3.197.581" stroke-opacity=".996" transform="matrix(-1.2546 0 0 1.3198 1259.2 -307.28)" stroke="#512007" stroke-width=".474" fill="none"/><path d="M426.42 558.5l27.614.582.291-2.035-28.487-.291.582 1.744zM427.59 551.23c3.198 0 27.324-4.651 27.324-4.651s.872-2.906 0-2.906-27.324 5.523-27.324 5.523v2.034z" stroke-opacity=".996" fill-rule="evenodd" transform="matrix(1.2546 0 0 1.3119 259.35 -430)" stroke="#512007" stroke-width=".475" fill="#dd8b59"/><use xlink:href="#k" transform="translate(0 5.516)" height="496.063" width="992.126"/></g></g></svg>