<svg xmlns="http://www.w3.org/2000/svg" height="480" width="640"><defs><clipPath id="a" clipPathUnits="userSpaceOnUse"><path fill-opacity=".67" d="M-81.333 0h682.67v512h-682.67z"/></clipPath></defs><g fill-rule="evenodd" clip-path="url(#a)" transform="translate(76.25) scale(.9375)" stroke-width="1pt"><path fill="#6797d6" d="M-252 0H772v512H-252z"/><path fill="#fff" d="M259.787 122.985l-32.44 22.214L239.78 109.3l-32.475-22.177 40.122.038 12.366-35.92 12.366 35.92 40.122-.027-32.48 22.166 12.428 35.905zM259.787 390.052l-32.44-22.214 12.433 35.899-32.475 22.177 40.122-.038 12.366 35.92 12.366-35.92 40.122.027-32.48-22.166 12.428-35.905zM103.845 275.367l-24.53 30.73 1.395-37.967-37.54-11.713 38.38-11.695 1.324-37.966 22.328 30.735 38.361-11.756-24.58 30.694 22.382 30.702zM415.645 275.367l24.53 30.73-1.395-37.967 37.54-11.713-38.38-11.695-1.324-37.966-22.328 30.735-38.361-11.756 24.58 30.694-22.382 30.702z"/></g></svg>