<svg xmlns="http://www.w3.org/2000/svg" height="480" width="640"><g fill-rule="evenodd"><path fill="red" d="M0 0h640v480H0z"/><path fill="#009a00" d="M145.996 83.454h360.91v314.41h-360.91z"/><path d="M145.996 397.865h360.91l-180.46-157.19-180.46 157.19z" fill="#ffca00"/><path d="M145.996 83.528l180.46 157.19 180.45-157.19h-360.91z" fill="#ffca00"/><path fill="#ffce00" d="M177.71 61.366L161.263 49.64l-16.466 11.699 6.073-19.262-16.207-12.044 20.192-.177 6.446-19.141 6.408 19.153 20.193.212-16.236 12.015zM342.597 61.856L326.15 50.128l-16.466 11.7 6.073-19.263-16.207-12.043 20.192-.178 6.446-19.141 6.408 19.153 20.193.213-16.236 12.014zM507.59 61.59l-16.447-11.727-16.466 11.699L480.75 42.3l-16.207-12.044 20.192-.177 6.446-19.141 6.408 19.153 20.193.212-16.236 12.015zM177.71 468.793l-16.447-11.728-16.466 11.7 6.073-19.263-16.207-12.043 20.192-.178 6.446-19.141 6.408 19.153 20.193.213-16.236 12.014zM342.597 469.283l-16.447-11.728-16.466 11.7 6.073-19.263-16.207-12.043 20.192-.178 6.446-19.141 6.408 19.153 20.193.213-16.236 12.014zM507.59 469.023l-16.447-11.728-16.466 11.7 6.073-19.263-16.207-12.043 20.192-.178 6.446-19.141 6.408 19.153 20.193.213-16.236 12.014z"/><path d="M369.722 243.097c0 24.172-19.594 43.765-43.764 43.765-24.171 0-43.765-19.594-43.765-43.765 0-24.17 19.595-43.764 43.765-43.764s43.764 19.594 43.764 43.764z" fill="red"/><path fill="#ffce00" d="M345.755 270.04l-19.536-13.93-19.558 13.895 7.213-22.88-19.251-14.305 23.985-.21 7.657-22.738 7.612 22.75 23.985.253-19.286 14.272z"/><path d="M169.972 273.464s2.22-18.394.952-30.762c-1.27-12.368-32.983-15.857-32.983-15.857l-.317 28.86s25.372 20.613 32.348 17.759z" fill="red"/><path d="M123.67 200.525s3.056 16.207-1.269 48.522c-2.31 17.546 16.809 29.494 40.277 34.885-4.757-8.245-17.442-21.565-14.27-45.985 17.124 2.22 33.298 35.52 33.298 35.52s12.813-47.217-13.003-54.547c-25.089-7.05-45.033-18.077-45.033-18.394z" fill="#ffce00"/></g></svg>