<svg xmlns="http://www.w3.org/2000/svg" height="480" width="640" version="1"><defs><clipPath id="a" clipPathUnits="userSpaceOnUse"><path fill-opacity=".67" d="M0 0h682.67v512H0z"/></clipPath></defs><g clip-path="url(#a)" transform="scale(.9375)"><g fill-rule="evenodd" stroke-width="1pt"><path fill="#3e9a00" d="M0 0h767.975v171.886H0z"/><path fill="#fff" d="M0 171.886h767.975v168.222H0z"/><path fill="#e32118" d="M0 340.108h767.975v171.886H0z"/><path d="M0 0v511.984l255.994-255.992L0 0z" fill="#5567e4"/></g><path d="M283.46 148.82v442.91c0 35.433 17.716 70.866 53.149 70.866h70.866c17.717 0 35.433 35.433 35.433 35.433s16.938-35.433 35.433-35.433h70.867c35.433 0 53.149-35.433 53.149-70.866V148.82h-318.9z" fill-rule="evenodd" transform="matrix(.23837 0 0 .18554 269.512 179.77)" stroke="#000" stroke-width="3.791" fill="#ccc"/><path d="M215.38 731.79c-18.021 0-35.738-17.717-35.738-35.433v-88.583c15.502 15.502 88.583 70.866 70.867 88.583-17.717 17.716-35.737 0-35.433 0s.304 35.433.304 35.433z" fill-rule="evenodd" transform="matrix(.2396 0 0 .18554 267.813 160.36)" stroke="#000" stroke-width="1pt" fill="#ccc"/><path d="M319.345 289.561c4.245-3.287 4.245 3.287 8.49 0l-4.245 19.723c-4.118-.618-4.26 0-6.638-3.287 0-3.288 0-13.792 2.393-16.436z" fill-rule="evenodd" fill="#ccc"/><path d="M215.38 731.79c-18.021 0-35.738-17.717-35.738-35.433v-88.583c15.502 15.502 88.583 70.866 70.867 88.583-17.717 17.716-35.737 0-35.433 0s.304 35.433.304 35.433z" fill-rule="evenodd" transform="matrix(-.2396 0 0 .18554 481.9 160.36)" stroke="#000" stroke-width="1pt" fill="#ccc"/><path d="M429.71 289.561c-4.245-3.287-4.245 3.287-8.49 0l4.245 19.723c4.118-.618 4.26 0 6.638-3.287 0-3.288 0-13.792-2.394-16.436z" fill-rule="evenodd" fill="#ccc"/><path d="M513.78 1140.9c-.001-17.71-35.433-53.14-35.433-70.86s35.433 17.72 106.3 17.72c70.866 0 106.3-88.588 88.582-106.3 17.717 35.434 17.717 70.864 17.717 88.584 0 35.43-35.433 70.86-106.3 70.86H513.78z" fill-rule="evenodd" transform="matrix(.2396 0 0 .18554 268.407 107.456)" stroke="#000" stroke-width="1pt" fill="#ccc"/><path d="M513.78 1140.9c-.001-17.71-35.433-53.14-35.433-70.86s35.433 17.72 106.3 17.72c70.866 0 106.3-88.588 88.582-106.3 17.717 35.434 17.717 70.864 17.717 88.584 0 35.43-35.433 70.86-106.3 70.86H513.78z" fill-rule="evenodd" transform="matrix(-.2396 0 0 .18554 480.647 107.456)" stroke="#000" stroke-width="1pt" fill="#ccc"/><path d="M357.548 315.853c0-3.287 8.49-6.574 8.49-9.862v16.435h-8.49v-6.573zM391.505 315.853c0-3.287-8.49-6.574-8.49-9.862v16.435h8.49v-6.573z" fill-rule="evenodd" fill="#ccc"/><path d="M371.17 1034.6c0 17.71 141.73 17.71 141.73 0v70.87c0 17.71-141.73 17.71-141.73 0v-70.87z" fill-rule="evenodd" transform="matrix(.2396 0 0 .18554 268.617 123.89)" stroke="#000" stroke-width="1pt" fill="#ccc"/><path d="M249.63 696.36c-17.717 17.716-17.717-17.717-35.433 0-17.717 17.716 17.717 106.3 88.583 106.3s106.3-35.433 106.3-17.717c0 17.717-35.433 35.433-35.433 53.15s141.73 17.717 141.73 0-35.433-35.433-35.433-53.15c0-17.716 35.433 17.717 106.3 17.717 70.866 0 106.3-88.583 88.583-106.3-17.716-17.717-17.716 17.716-35.433 0" transform="matrix(.2396 0 0 .18554 268.023 160.36)" stroke="#000" stroke-width="1.25" fill="none"/><path d="M426.836 313.608l-4.368-7.285.762-.308 4.368 7.285-.762.308zM424.102 312.023l.913-.009c.236.873.246 1.597.028 2.17-.217.572-.636.96-1.256 1.165-.642.214-1.245.222-1.81.028-.564-.2-1.106-.577-1.625-1.133a7.966 7.966 0 01-1.306-1.915c-.385-.784-.603-1.507-.654-2.167-.05-.665.07-1.22.357-1.666.289-.45.696-.763 1.22-.937a2.473 2.473 0 011.786.076c.595.249 1.143.694 1.644 1.336l-.662.488c-.407-.502-.803-.834-1.189-.997a1.618 1.618 0 00-1.175-.045c-.458.152-.773.418-.945.797-.169.38-.201.824-.095 1.334.105.508.28 1.01.523 1.506.315.64.663 1.176 1.045 1.607.383.426.788.706 1.216.839.428.132.823.139 1.186.018.441-.146.735-.432.883-.855.148-.424.12-.97-.084-1.64zM418.77 317.044l-2.847-7.777.813-.201 2.847 7.777-.814.201zM413.39 317.903l-.748-7.137-2.108.15-.1-.956 5.07-.359.1.955-2.116.15.748 7.137-.846.06zM405.245 315.741l.802-.087c.037.405.125.74.262 1.002.14.259.357.469.648.631.293.159.621.238.986.238.324 0 .61-.06.858-.182.249-.122.433-.288.553-.5.122-.213.184-.446.184-.697a1.23 1.23 0 00-.176-.665c-.117-.192-.31-.352-.578-.482-.173-.085-.553-.215-1.143-.393-.59-.18-1.003-.35-1.24-.51a1.972 1.972 0 01-.688-.753 2.264 2.264 0 01-.222-1.014c0-.41.091-.792.275-1.146.184-.359.453-.63.806-.815a2.508 2.508 0 011.178-.277c.477 0 .895.098 1.258.293.365.193.645.477.84.854.196.376.301.803.316 1.28l-.815.077c-.044-.513-.192-.901-.447-1.163-.25-.263-.623-.393-1.116-.393-.515 0-.89.12-1.126.36-.234.236-.351.522-.351.858 0 .292.084.532.25.72.163.189.59.383 1.279.582.692.196 1.167.367 1.423.516a2.1 2.1 0 01.828.83 2.4 2.4 0 01.267 1.152c0 .432-.098.84-.293 1.225a2.15 2.15 0 01-.845.892c-.365.21-.777.316-1.235.316-.582 0-1.07-.108-1.463-.322a2.268 2.268 0 01-.925-.964 3.316 3.316 0 01-.35-1.463zM402.932 310.142l.849.032-.26 4.687c-.045.816-.154 1.46-.327 1.935a2.38 2.38 0 01-.857 1.143c-.396.284-.903.416-1.521.393-.601-.023-1.085-.173-1.453-.448-.367-.277-.619-.665-.755-1.166-.136-.504-.18-1.186-.132-2.046l.26-4.687.848.032-.26 4.681c-.038.705-.016 1.227.068 1.567.086.336.25.6.49.79.244.19.548.291.914.305.623.023 1.078-.139 1.364-.487.285-.348.456-1.031.512-2.05l.26-4.681zM392.445 315.582l.766-.133c.021.62.113 1.046.277 1.274.163.23.39.344.679.344.213 0 .397-.06.552-.183a.96.96 0 00.32-.505c.058-.214.087-.554.087-1.019v-5.595h.85v5.535c0 .68-.066 1.205-.197 1.578-.129.373-.335.658-.618.853-.28.196-.61.294-.99.294-.563 0-.995-.205-1.297-.615-.297-.41-.44-1.02-.429-1.828zM378.002 329.146v-1.126l3.29-5.87c.233-.418.455-.78.666-1.089h-3.583v-1.082h4.599v1.082l-3.605 6.36-.39.644h4.1v1.081h-5.077zM331.238 317.884l2.025-9.015.835.127-2.025 9.015-.835-.127zM322.147 314.332l5.28-8.075.767.339-1.174 7.651 4.145-6.34.718.317-5.28 8.076-.767-.34 1.177-7.657-4.149 6.346-.717-.317zM326.685 305.321l.601.494-4.552 3.749c-.793.652-1.473 1.127-2.042 1.426-.57.299-1.137.458-1.701.478a2.177 2.177 0 01-1.496-.51c-.426-.35-.647-.74-.663-1.172-.016-.432.158-.893.523-1.383.367-.494.97-1.084 1.804-1.771l4.553-3.75.601.494-4.547 3.745c-.684.563-1.154 1.009-1.408 1.337-.248.326-.37.635-.368.925.003.292.135.544.394.756.442.363.93.478 1.466.347.536-.133 1.299-.606 2.288-1.42l4.547-3.745zM335.753 318.58l.309-9.163 2.21.05c.5.012.88.064 1.14.158.363.13.67.355.918.678.326.415.56.945.705 1.585.149.638.209 1.365.181 2.181a9.002 9.002 0 01-.233 1.848c-.132.535-.293.977-.483 1.327-.19.346-.395.619-.615.818a2.125 2.125 0 01-.781.44 3.148 3.148 0 01-1.035.131l-2.316-.052zm.886-1.06l1.37.03c.423.01.757-.039 1-.147.246-.106.444-.26.595-.461.21-.283.38-.665.507-1.146.13-.485.207-1.073.23-1.764.032-.96-.054-1.697-.258-2.215-.202-.522-.458-.873-.767-1.056-.223-.13-.587-.2-1.092-.212l-1.35-.03-.235 7zM341.68 318.641l2.467-9.167h.915l2.628 9.167h-.968l-.749-2.776h-2.685l-.705 2.776h-.902zm1.854-3.764h2.177l-.67-2.538a33.571 33.571 0 01-.456-1.901 15.91 15.91 0 01-.346 1.75l-.705 2.69zM348.368 318.641v-9.167h2.212c.5 0 .88.044 1.144.131.368.122.681.34.94.658.34.408.592.931.759 1.568.17.634.254 1.36.254 2.176 0 .697-.057 1.314-.171 1.852-.114.538-.26.984-.438 1.338-.178.35-.374.628-.587.832-.21.2-.466.352-.766.456a3.133 3.133 0 01-1.03.156h-2.317zm.85-1.08h1.37c.424 0 .756-.057.995-.17.242-.113.435-.272.578-.475.202-.289.358-.674.469-1.157.114-.488.171-1.078.171-1.77 0-.959-.11-1.694-.333-2.208-.219-.516-.486-.862-.802-1.037-.227-.125-.594-.188-1.099-.188h-1.35v7.004zM366.549 329.146v-9.167h2.423c.426 0 .751.03.976.087.315.076.58.22.793.433.213.208.384.501.512.881.132.38.198.796.198 1.251 0 .78-.175 1.44-.521 1.982-.348.538-.976.806-1.884.806h-1.647v3.727h-.85zm.85-4.809h1.66c.549 0 .939-.145 1.17-.437.23-.291.345-.702.345-1.232 0-.384-.068-.71-.205-.981-.135-.276-.313-.457-.535-.545-.143-.054-.407-.08-.793-.08H367.4v3.275zM371.827 329.146l2.467-9.167h.915l2.628 9.167h-.968l-.75-2.776h-2.684l-.705 2.776h-.903zm1.853-3.764h2.177l-.67-2.539a32.802 32.802 0 01-.455-1.9 15.91 15.91 0 01-.347 1.75l-.705 2.69zM428.76 312.892l-4.287-7.838.677-.41 8.057 5.561-.716.433-2.405-1.705-1.987 1.201 1.33 2.355-.668.403zm-1.138-3.594l1.61-.973-2.188-1.566c-.666-.476-1.2-.873-1.604-1.193.33.468.634.948.91 1.44l1.272 2.292z"/><path d="M419.16 331.78c.065 32.968 19.893 131.63-37.678 284.94-4.262 11.127 7.064 16.484 16.484 18.839 9.419 2.355 14.129-9.419 14.129-11.774s2.355 18.839 11.774 16.484c9.42-2.355 18.839-16.484 18.839-16.484s4.71 21.194 16.484 21.194 11.774-25.904 11.774-25.904c0 2.355 8.164 22.235 17.583 22.235 9.42 0 23.929-8.76 15.548-23.144-59.832-100.72-56.68-267.54-56.68-286.38 0-18.839 27.784-53.068 55.418-53.889l-10.675-16.756c-6.96 2.135-15.28 3.669-29.409 15.443s-22.398 24.589-22.398 24.589v-80.065h-23.548l2.355 73.001s-8.051-9.439-20.095-19.932c-11.401-9.934-31.972-9.199-44.637-7.118l-1.204 15.989c14.969 3.123 34.067-3.068 43.487 11.061 11.774 11.774 22.414 21.259 22.449 37.677z" fill-rule="evenodd" transform="matrix(.14734 0 0 .14843 312.129 202.031)" stroke="#000" stroke-width="5.029" fill="#682900"/><path d="M310.55 312.21v-.832c0 1.976-.067 1.101.833-2.498.777-2.848 2.407-5.523 4.163-7.493 3.04-1.014 7.441.053 10.823-.833 2.278-3.268 5.828 4.267 5.828-.833 4.343-.311 4.399-4.559 5.828-6.66 4.054-.5 4.963-5.44 8.326-2.497 2.756 1.305.406-.833 4.996-.833 2.713.663 4.131 2.32 6.66.832.62-2.851 1.399-6.268 1.665-9.99-1.177-2.356-.832-7.184-.832-10.824 2.274-3.032 6.262 2.476 9.99 1.665 1.018-3.562 4.146-3.466 2.498-6.66-.308-4.007-1.08-6.503 0-10.823 1.314-3.704 3.228-3.607 6.66-5.828 1.093-3.277-.122-6.03.833-9.991 3.901-.115 3.832-1.132 4.163-4.995 1.26-2.661 2.858-5.356 4.995-7.493 1.968-2.382 4.303-2.147 5.828-5.828 1.308-3.271 1.311-4.751 4.995-5.828 2.696-1.269 4.833-1.411 6.661-3.331 1.732-3.056 3.174-5.486 5.828-9.158 2.63-1.772 15.237 1.665 19.149 1.665 2.118-2.669 5.397-6.859 7.493-8.326 3.587-1.916 4.961-2.497 9.99-2.497 4.288 1.27 6.082 2.794 10.824 1.665 1.932-2.706 3.816-3.965 8.325-2.498 3.433 2.221 5.347 2.124 6.661 5.828 1.946 4.615 1.508 6.192 6.661 6.661 5.181.185 5.709 1.442 9.158 4.162 5.248 2.25 4.995.982 4.995 5.828 3.721 0 4.052-.44 4.163 3.331 2.294.713 4.907 2.718 6.661 4.162 2.093 2.416 2.629 3.929 7.493 4.163 3.591-1.508 4.75-1.496 4.995-5.828 2.75-.982 3.212-3.635 4.163-6.66 2.108-2.885 3.474-3.331 8.325-3.331 4.279 1.773 4.139 3.568 3.331 7.494 2.664.551 3.764.239 4.163 3.33 1.407 2.346 1.039 5.15-.833 6.66 2.132 1.568 3.369 4.256 4.163 7.493-1.411 2.352-.547 5.809 0 8.326 2.912 1.456 4.415 2.809 8.325 4.163 1.983 1.68 6.199 3.441 9.991 4.163 4.481-.606 5.961-.568 9.991 1.665 2.084 2.993 2.235 6.771 4.163 8.326 2.175 1.843 5.818 2.649 7.493 4.995 2.778 2.03 3.594 4.281 7.493 4.995 1.471 2.228 4.634 5.896 5.828 8.326.941 2.694 1.361 7.413 2.498 10.823v11.656c-.158 4.304-.833 6.916-.833 11.656-.74 2.384-1.665 3.3-1.665 6.661-1.582 3.526-2.931 6.489-4.995 9.158-.941 4.235-2.473 6.223-4.163 9.991.052 4.369.832 6.304.832 10.823-1.81 2.69-3.887 4.647-7.493 6.661-2.724 3.187-4.368 4.426-4.995 9.158-1.566 2.705-1.443 2.498-4.995 2.498-4.2 0-7.814.375-11.656.832-3.378 0-4.64.356-6.661-1.665-3.988-1.804-7.345-1.91-11.656-.833-2.325-1.594-3.258-2.497-7.493-2.497-3.161.427-5.965.832-9.991.832-2.495-2.789-3.897-3.33-8.325-3.33-2.356 1.178-7.184.833-10.824.833-3.821-1.043-4.313-2.63-5.828-5.828-2.605-1.235-3.635-3.039-7.493-3.331-3.639 0-8.468.345-10.823-.832-2.723-.327-5.586-1.027-7.493-2.498a22.068 22.068 0 00-5.828-5.828c-3.698 0-5.864.355-7.493-1.665-2.732-2.157-4.891-5.564-8.326-7.493-3.062-2.43-5.136-3.916-6.661-8.326 0-3.943.78-4.874-3.33-4.995-2.755 2.812-4.009 3.33-9.158 3.33-3.389 0-6.931-.018-9.158-.832-3.681-2.09-5.028-3.013-9.158-3.331-2.585 1.645-6.008 3.547-9.991 4.163-3.405 1.966-5.437 2.379-6.661 5.828-3.145 2.568-4.989 4.078-9.158 5.828-2.316 2.209-4.526 2.591-5.828 6.661-.792 3.366-1.665 5.369-1.665 9.99.59 4.368.361 6.237-1.665 9.991-1.741 2.486-4.757 3.7-7.493 5.828-4.116.494-4.548.186-7.493-1.665-2.933-.977-6.266-1.78-9.991-2.498-4.496-.866-6.017-1.961-8.326-4.162l8.326 4.162c-4.496-.866-6.017-1.961-8.326-4.162-5.064-3.583-6.063-5.398-11.656-5.828-5.198.061-7.429.318-8.325 4.995 2.961.789.609 2.554-.833 3.33-2.078 1.852-5.411 3.368-8.326 4.163-1.328 1.328-1.072-1.101-3.33-1.665-3.448-1.842-4.89-3.226-8.326-4.163-1.683-2.971-3.584-5.274-5.828-8.326-1.734-2.818-3.382-3.838-5.828-6.66-1.169-1.754-4.159-1.829-5.827-3.33-1.001-3.002-3.169-8.57-2.498-11.656 1.679-1.586 2.632-7.243 4.995-8.326 3.367-2.525 4.635-.223 9.159 0 4.259 0-5.866-6.71-1.665-6.66 3.92-.666 4.387-2.595 5.827-4.996h9.991z" fill-rule="evenodd" transform="matrix(.20377 0 0 .15275 285.643 190.046)" stroke="#000" stroke-width="4.464" fill="#009200"/><path d="M382.98 253.1c.878.713 4.684 2.498 8.326 2.498 3.976.728 4.843 2.216 5.828 5.828 2.174 1.304 3.55 1.665 7.493 1.665 4.359.871 4.322 2.212 7.493 4.995M358.84 299.72c1.812.266 8.154.832 12.488.832 3.333-1.924 4.912-3.24 7.493-4.995 3.943 0 5.32.361 7.494 1.665 2.105.702 7.052.963 9.158 1.665 0 1.11-.278.833.832.833M391.31 286.4c.065-.025 3.252-1.946 5.828-2.498 2.835-1.976 5.946-2.939 9.158-4.163 2.117-.46 7.102-.448 8.326-.832M432.1 273.91v.833c0-2.327-.104-1.091 1.665 3.33.874 4.078 1.949 7.526 3.33 10.823 2.455 3.83 4.058 5.547 7.493 7.493 2.939 2.316 5.164 4.724 8.326 5.828 2.202 1.963 5.106 3.584 8.325 4.996 4.271 0 7.558.686 11.656.832h2.498M477.06 227.29v.833c0-2.247.055-1.105-.832 3.33-1.257 2.654-2.705 5.124-4.163 7.493-3.915 1.419-5.374 4.277-6.661 7.493-1.372 2.231-3.505 5.17-4.995 7.493-2.589 3.211-3.622 4.242-8.326 5.828M510.36 244.77c0 .244-1.537 2.434-2.498 4.996-1.653 2.436-2.075 6.861-2.497 9.99 0 3.618.021 7.557.832 9.991 2.516 3.121 3.158 4.764 7.493 6.661l-7.49-6.66c2.516 3.121 3.158 4.764 7.493 6.661M571.14 273.91v.833c0-2.61.217-1.006-4.163 2.497-3.252 2.999-5.572 5.416-8.325 7.493-4.732 1.255-5.455 1.182-9.991.833h-7.493M582.8 337.19h-.832c2.327 0 1.089-.103-3.331 1.665-3.692.923-7.879.982-10.823 0-2.966-1.681-5.955-3.055-8.326-5.828-1.241-.93-1.42-1.306-2.497-1.665M553.66 363v-.833c0 2.61.217 1.006-4.163-2.498-1.872-2.753-3.748-3.794-7.493-6.66-3.236-3.913-3.659-5.481-4.995-9.991-.356-3.323-1.455-6.734 0-9.158M492.05 348.84c1.81 0 8.56-.159 11.656-.833 2.418-1.643 5.094-2.746 8.326-4.162 1.764-4.36 3.27-5.809 3.33-10.824M441.26 323.87c-.652-1.483-3.544-7.436-4.995-10.823-.065-3.638-.833-6.285-.833-9.991M328.86 350.51c.839.126 4.375.403 6.66 0 3.635-1.861 7.022-2.205 10.823-2.498 1.933-1.159 5.086-1.031 6.661-2.497 3.474-2.316 3.937-4.645 5.828-8.326.167-1.673.665-2.49.832-4.163M383.81 338.02c-1.828 0-8.658.125-12.489-.833-1.967-1.273-3.363-3.364-4.995-4.995 1.11 0 .833.277.833-.833M393.8 313.88c.353-.106 4.485-1.665 7.493-1.665 1.79-1.158 4.76-2.237 7.493-3.33 1.481-.797 2.504-1.787 4.163-2.498M293.06 347.18h.833c-2.249 0-1.1.053 3.33-.833 5.18-.32 8.666-2.111 12.489-3.33 2.496-2.318 5.939-4.635 8.325-5.828 0-1.423-.341-1.274.833-1.665M504.54 301.39h.833c-2.328 0-1.09-.103 3.33 1.665 3.517 1.346 6.695 1.781 9.991 2.498 2.993.731 4.127 1.665 8.325 1.665 4.19 1.826 5.104 2.397 8.326 4.995 2.465 1.168 4.221 1.665 8.326 1.665 2.178-1.206 6.161-2.609 8.325-3.33 1.211-.908 1.293-.55 1.665-1.665" transform="matrix(.20377 0 0 .18554 285.643 179.152)" stroke="#006800" stroke-width="4.05" fill="none"/><path d="M430.94 469.54v18.839c0 6.017-.557 11.277-2.355 16.484 0 5.875-.077 11.554-2.355 15.306-.401 5.618-1.177 10.479-1.177 16.484-1.705 5.116-1.504 12.044-2.355 17.662-.738 5.508-1.393 12.06-2.355 16.484-1.754 3.684-4.745 10.349-7.064 12.951-.288 5.085-1.532 7.588 0 11.775 1.641 4.922 1.177 10.85 1.177 16.484 1.537 4.611 1.178 10.004 1.178 15.306M436.82 493.08c.358 2.361 2.118 10.873 2.355 16.484v25.904c0 6.299.532 11.851 1.178 17.661-.084 6.943-1.346 9.54-4.71 15.307-.662 5.559-1.693 10.924-2.355 16.484-1.641 4.923-1.177 10.85-1.177 16.484 1.404 6.322 3.703 7.453 4.709 12.951 0 3.359.321 5.066 1.178 7.065M447.42 535.47c0 2.155-.14 12.532 1.178 16.484 0 6.023 1.106 10.544 1.177 16.484-.714 5.281-1.453 9.084-4.71 11.774-2.144 4.358-3.314 8.235-3.532 14.129 3.043 2.13 6.349 8.079 9.419 10.597 2.567 5.361 4.956 5.59 5.888 11.774 2.458 2.732-1.733 4.154 0 5.887 1.91 2.548.687 1.469 0 3.533" transform="matrix(.20377 0 0 .18554 288.357 178.534)" stroke="#000" stroke-width="1pt" fill="none"/><path fill-rule="evenodd" transform="matrix(.16133 0 0 .1471 369.578 198.536)" stroke="#000" stroke-width="3.125" fill="#ffd100" d="M93.248-106.57l15.982 25.596 30.16 1.046-14.17 26.642 14.17 26.642-30.16 1.045L93.248-.002h0L77.262-25.599l-30.16-1.045 14.175-26.642-14.175-26.642 30.16-1.046z"/><path fill-rule="evenodd" transform="matrix(.16133 0 0 .1471 349.7 198.536)" stroke="#000" stroke-width="3.125" fill="#ffd100" d="M93.248-106.57l15.982 25.596 30.16 1.046-14.17 26.642 14.17 26.642-30.16 1.045L93.248-.002h0L77.262-25.599l-30.16-1.045 14.175-26.642-14.175-26.642 30.16-1.046z"/><path fill-rule="evenodd" transform="matrix(.15997 -.01905 .0209 .14587 332.673 203.675)" stroke="#000" stroke-width="3.125" fill="#ffd100" d="M93.248-106.57l15.982 25.596 30.16 1.046-14.17 26.642 14.17 26.642-30.16 1.045L93.248-.002h0L77.262-25.599l-30.16-1.045 14.175-26.642-14.175-26.642 30.16-1.046z"/><path fill-rule="evenodd" transform="matrix(-.15997 -.01905 -.0209 .14587 418.303 203.185)" stroke="#000" stroke-width="3.125" fill="#ffd100" d="M93.248-106.57l15.982 25.596 30.16 1.046-14.17 26.642 14.17 26.642-30.16 1.045L93.248-.002h0L77.262-25.599l-30.16-1.045 14.175-26.642-14.175-26.642 30.16-1.046z"/><path fill-rule="evenodd" transform="matrix(-.15225 -.04864 -.05334 .13883 433.584 213.408)" stroke="#000" stroke-width="3.125" fill="#ffd100" d="M93.248-106.57l15.982 25.596 30.16 1.046-14.17 26.642 14.17 26.642-30.16 1.045L93.248-.002h0L77.262-25.599l-30.16-1.045 14.175-26.642-14.175-26.642 30.16-1.046z"/><path fill-rule="evenodd" transform="matrix(.15225 -.04864 .05334 .13883 316.854 212.429)" stroke="#000" stroke-width="3.125" fill="#ffd100" d="M93.248-106.57l15.982 25.596 30.16 1.046-14.17 26.642 14.17 26.642-30.16 1.045L93.248-.002h0L77.262-25.599l-30.16-1.045 14.175-26.642-14.175-26.642 30.16-1.046z"/></g></svg>