<svg xmlns="http://www.w3.org/2000/svg" height="480" width="640" version="1.0" xmlns:xlink="http://www.w3.org/1999/xlink"><defs><linearGradient id="b"><stop stop-color="#d5dfff" offset="0"/><stop stop-color="#fff" offset="1"/></linearGradient><linearGradient id="a"><stop stop-color="#474747" offset="0"/><stop stop-color="#f50" offset="1"/></linearGradient><linearGradient id="c" y2="173.45" xlink:href="#a" gradientUnits="userSpaceOnUse" x2="110.94" gradientTransform="matrix(1.5101 0 0 .65184 40.513 .006)" y1="218.47" x1="109.34"/><linearGradient id="d" y2="337.23" gradientUnits="userSpaceOnUse" x2="126.02" gradientTransform="matrix(1.2315 0 0 .79928 40.513 .006)" y1="316.38" x1="125.91"><stop stop-color="#b50000" offset="0"/><stop stop-color="#ffc500" offset="1"/></linearGradient><linearGradient id="e" y2="147.35" xlink:href="#b" gradientUnits="userSpaceOnUse" x2="456.4" gradientTransform="matrix(.55904 0 0 1.7607 40.513 .006)" y1="149.38" x1="407.87"/><linearGradient id="f" y2="102.99" xlink:href="#a" gradientUnits="userSpaceOnUse" x2="228.97" gradientTransform="matrix(.74087 0 0 1.3286 40.513 .006)" y1="102.99" x1="215.83"/><linearGradient id="g" y2="1003.7" xlink:href="#b" gradientUnits="userSpaceOnUse" x2="78.221" gradientTransform="matrix(2.5627 0 0 .38409 40.513 .006)" y1="1040.4" x1="117.6"/><linearGradient id="h" y2="226.38" xlink:href="#b" gradientUnits="userSpaceOnUse" x2="255.03" gradientTransform="matrix(.88634 0 0 1.1105 40.513 .006)" y1="245.98" x1="264.72"/></defs><path fill="#006" d="M0 0h640v480H0z"/><g stroke-width="1pt"><path fill="#fff" d="M0 0v32.946l403.223 261.736h50.755v-32.945L50.755 0H0zm453.978 0v32.945L50.755 294.681H0v-32.945L403.223 0h50.755z"/><path fill="#fff" d="M189.157 0v294.681h75.663V0h-75.663zM0 98.227v98.227h453.978V98.227H0z"/><path fill="#c00" d="M0 117.872v58.937h453.978v-58.937H0zM204.29 0v294.681h45.398V0H204.29zM0 294.681l151.326-98.227h33.836L33.836 294.681H0zM0 0l151.326 98.227H117.49L0 21.965V0zm268.816 98.227L420.142 0h33.836L302.652 98.227h-33.836zm185.162 196.454l-151.326-98.227h33.836l117.49 76.263v21.964z"/></g><path d="M463.75 349.947s-2.878 7.61-4.523 7.61c-1.646 0-7.61-3.29-7.61-3.29s-4.319 6.991-6.58 7.403c-2.263.411-8.227-1.029-8.227-1.029s-5.758 0-5.964-.822c-.206-.823.206-2.468.206-2.468s-8.227 6.58-10.078 6.17c-1.85-.412-8.02-8.227-8.02-8.227l-1.031 4.123-11.722-.413-10.284-6.584s-5.758 9.46-5.964 9.255c-.205-.206-10.077 2.262-10.077 2.262l-.617-1.85-6.581-3.908s5.141-7.198 5.141-7.404c0-.205-2.468-1.028-2.468-1.028l-3.701 3.085-7.61 4.935-7.609-3.496 3.29-6.17.412-4.524 5.964-9.049 73.008-70.951 35.99 66.427-5.347 19.948z" fill-rule="evenodd" stroke="#000" stroke-width=".86059pt" fill="#6a4c2d"/><path d="M515.619 354.25l19.004-.682-8.089-3.996 72.41-2.729-10.233-3.898-9.064-12.28-37.52-2.826s-2.827-2.144-7.407-1.072c-.195-2.923-3.704-6.724-3.704-6.724l-23.097-1.754-14.424 9.843 9.746 24.948 12.377 1.17z" fill-rule="evenodd" stroke="#000" stroke-width=".86059pt" fill="#fff"/><path d="M121.32 150.76l2.224-7.561s3.892-6.561 3.892-9.453c0-2.89 2.891-6.338 2.891-6.338s8.896-2.558 10.786 2.891c9.563-14.456 20.794-.667 20.794-.667l3.114-3.67 6.338-7.783s9.007 8.45 9.119 9.896 1.556.445 1.556.445l9.786-.778s4.644 3.635 3.67 10.564c3.448 2.034 6.56 14.01 6.56 14.01l-80.73-1.556z" fill-rule="evenodd" stroke="#000" stroke-width="1pt" fill="url(#c)" transform="translate(337.27 11.701) scale(.86059)"/><path d="M515.627 218.862c1.451-.893 6.028-2.344 5.47-9.04-.559-6.697-6.363-7.478-9.6-7.255-3.236.223-6.138 3.013-6.138 3.013l-10.716-6.808s5.358-33.82 11.05-35.94c5.406-3.896 6.362-5.58 6.362-6.474s-2.009-3.125-2.009-3.125l-34.935-4.13-33.038 3.907s-2.567 3.906-2.233 5.469.447 3.237 6.363 7.813c6.545 5.034 11.05 33.931 11.05 33.931s-9.265 4.577-9.822 4.018c-.558-.558-3.349-1.116-4.8-.892-1.45.223-6.25 2.678-6.25 9.04 0 6.362 4.8 10.046 4.8 10.046s31.586-3.684 36.274 5.022c4.576-10.491 34.6-6.808 38.172-8.594z" fill-rule="evenodd" stroke="#000" stroke-width=".86059pt" fill="#656263"/><path stroke-linejoin="round" d="M549.655 183.707s.35-3.671 2.972-5.419c2.622-1.748 20.102-2.622 24.298 0s5.768 15.558 5.768 15.558 2.622 4.545 2.797 7.866.524 5.593.524 5.593 13.985 18.18 14.16 34.612c1.573 11.187 1.223 41.078-3.147 52.44-.175 14.159-6.118 23.424-6.118 23.424s1.399 2.447 1.224 5.069c-.176 2.622-1.574 5.07-1.574 5.07l20.452 10.138-7.517-2.797s7.692 6.468 7.517 6.293c-.175-.175-8.565-4.02-8.565-4.02l5.07 5.069c-.176-.176-12.412-5.594-12.412-5.594s5.768 5.42 5.419 5.244c-.35-.175-9.264-4.37-9.264-4.37s5.593 5.943 5.419 5.594-8.042-3.496-8.042-3.496l.35 2.971s-6.293-.349-6.293-5.07c-3.146-1.747-5.244-4.195-5.244-4.195l-14.508-2.446-16.432-49.12 3.846-83.032 1.049-4.195-1.749-11.187z" stroke-opacity=".979" fill-rule="evenodd" stroke="#000" stroke-width="1.0757375"/><path d="M538.674 449.053s-8.416-17.71-12.613-17.958c-3.787-7.218 13.16-66.233 45.94-69.597 18.02 1.485 1.481 20.776-10.368 14.84 1.48 5.193 7.405 12.613 7.405 12.613s-23.453 10.14-30.364 60.102z" fill-rule="evenodd" stroke="#000" stroke-width="1.13942116" fill="#fb0"/><path d="M425.833 451.635s6.966-20.152 11.196-20.4c4.229-.25-11.196-67.172-44.781-67.67-18.161 1.493-1.493 20.898 10.45 14.927-1.493 5.225-7.464 12.688-7.464 12.688s23.634 10.2 30.6 60.455z" fill-rule="evenodd" stroke="#000" stroke-width=".86059pt" fill="#fb0"/><path d="M456.642 325.756c-.08-.162-8.335 2.59-2.994 11.573.405-3.48 4.128-5.584 4.128-5.584s-5.665 6.717.323 12.382c.728-5.34 4.128-7.04 4.128-7.04s-4.208 12.382.08 14.89c.486-4.937 3.643-7.122 3.643-7.122s-3.804 11.088-.405 13.597c.405-4.209 3.237-6.07 3.237-6.07s-1.7 11.492 2.752 12.301c.081-4.045 3.318-8.012 3.318-8.012s-1.457 9.388 5.503 9.793c.081-3.561 1.376-7.608 1.376-7.608s3.156 9.955 7.769 8.336c-.08-2.913.08-8.417 0-8.417s2.914 9.47 8.416 7.689c-.809-2.67.325-5.827.325-5.827s2.913 5.908 8.174 3.965c.89-1.78-.244-5.26-.244-5.26s7.689 7.932 10.035 3.156c2.348-4.774-6.15-6.393-6.15-6.393h5.746s-1.861-4.856-9.63-5.908c2.67-1.214 5.422-.324 5.422-.324s-1.62-6.07-9.55-6.717c3.075-1.052 6.475-.324 6.475-.324s-1.053-5.745-9.793-7.364c1.376-1.538 5.098-1.053 5.098-1.053s-3.48-5.421-7.445-5.098-39.817-3.642-39.737-3.56z" fill-rule="evenodd" stroke="#000" stroke-width=".86059pt" fill="#00713d"/><g stroke="#3ec26d" stroke-linecap="round" stroke-width="1.25" fill="none"><path d="M492.004 354.973s3.156 1.538 3.075 2.914M493.872 352.469s4.046 2.832 3.965 4.936M497.426 351.006s3.237 2.023 3.4 5.18M502.848 352.305s1.618 3.48 1.051 4.128M506.092 354.164c.243 2.751-.244 2.994-.244 2.994M466.186 336.763s3.804 2.428 3.48 5.827M465.945 339.68s1.781 1.7 1.377 2.833M470.644 336.85s2.509 3.48 1.7 5.907M474.93 339.112s1.133 2.186.08 3.4M476.952 340.162s1.376 2.185.162 2.913M475.42 347.366s3.56.81 4.047 3.48M477.52 344.939s3.722.242 4.128 4.208M482.46 343.562c.081 0 2.509 4.289 2.104 5.664M487.236 343.966s.972 4.128.243 5.422M490.309 345.584c0 .081.08 4.775.08 4.775M485.619 339.112s2.346.891 2.185 3.157M487.796 337.004s2.994 1.7 2.67 4.937M491.281 335.636s2.59 3.075 1.619 6.474M495.808 336.359s-.972 3.803-.567 5.341M498.562 338.949s-1.7 1.295-.81 2.914M483.837 353.76s.566 2.913 0 3.398M480.11 352.064s1.862 3.237 1.214 4.856M476.143 351.9s2.105 2.429 2.024 4.37M472.908 352.383s1.942 1.861 1.78 2.913M471.212 355.214s1.862 1.942 1.78 2.347" stroke-width="1.0757375"/></g><path d="M430.954 222.356l26.767-.477s17.686 0 19.598 5.735c3.345-7.648 18.641-7.17 18.641-7.17l27.723-.955.479 66.918c-5.418 25.971-24.219 44.294-44.932 52.101-24.695-7.967-40.31-28.839-45.409-52.58l-2.867-63.572z" fill-rule="evenodd" stroke="#000" stroke-width=".86059pt" fill="#fff"/><path d="M440.49 222.107l38.99 103.907 35.224-106.17c-10.926.704-34.371-1.72-37.283 8.25-4.507-8.924-29.17-5.326-36.932-5.986z" fill-rule="evenodd" stroke="#000" stroke-width=".86059pt" fill="#006b00"/><path d="M467.03 278.363c1.499.785 1.458-28.2 3.427-29.099.563-2.4.846-3.45 1.549-6-1.689-3-9.286-2.85-12.1-.3 1.266 4.05 1.829 5.4 1.829 5.4 3.8 6.15 3.044 30.653 5.295 30z" fill-rule="evenodd" stroke="#006b00" stroke-linecap="round" stroke-width=".59294651" fill="#ffc900"/><path stroke-linejoin="round" d="M456.582 54.342s2.755-3.13 2.88-3.882c.125-.751 12.52-1.252 19.907-15.024 4.132-7.262 0-3.005 0-3.005l-.25-3.505s5.133-4.883 3.255-7.512c-1.878-2.63-1.252 3.38-4.257 3.255s-1.377-6.51-1.377-6.51-.25-.752-1.127-1.127c-1.252.125-.877 2.378-2.003 2.629-1.127.25-2.128-5.259-2.128-5.259s-1.878-2.504-3.506 5.384c.876 8.388 6.26 6.76 6.26 12.27 0 5.508-4.758 9.765-6.135 9.89-1.378.125-.877-4.632-.877-4.632s-.75-2.254-1.251-2.254 2.754-.5 2.254-6.76c-1.128-7.513-2.004 1.752-4.007 1.376s-.5-6.886.25-7.637-.877-3.881-5.259 4.132c-.375 3.881-.876-1.002-1.752-.751-1.502 3.13-1.252 5.383.876 8.263 3.13 2.88 5.134 5.76 5.008 7.262-.125 1.502-1.752 4.882-4.006 4.882s.125-4.131 0-5.508c-.126-1.378-3.881-6.386-3.881-6.386s-2.63-4.257-2.379-4.382c.25-.125-.25-.75-1.503 3.631s-2.754-2.88-2.754-2.88-1.752 5.384 2.003 8.64c-2.88-.376-3.13.75-3.13.75 0 1.503 3.881 2.129 4.382 4.758s-4.006 4.132-4.006 4.132 1.878 2.629 7.136-2.504c.126 3.255-2.003 5.508-2.003 5.508 1.753.793 3.13.71 3.38 2.755z" fill-rule="evenodd" stroke="#000" stroke-width="1.0757375" fill="#cdad56"/><path stroke-linejoin="round" d="M439.405 54.342s-2.34-3.475-2.446-4.158c-.106-.684-11.51.864-16.907-13.045-3.51-6.608 0-2.734 0-2.734l.213-3.19s-3.734-4.568-2.14-6.96c1.595-2.393.939 3.075 2.99 3.086 2.552-.113 1.17-5.924 1.17-5.924s.212-.683.957-1.025c1.062.114 1.495 3.542 2.453 3.77.956.227 2.933-4.034 3.56-4.91.876-.126.843-3.531 2.226 3.646-.744 7.633-7.069 6.152-7.069 11.165 0 5.013 4.04 8.886 5.21 9 1.17.114.744-4.215.744-4.215s.637-2.051 1.062-2.051c.426 0-3.715.796-3.29-4.9.957-5.333 3.079.343 4.78.001 1.702-.342-.2-5.64.288-6.449.113-.808 2.622-4.282 3.59 3.384.32 3.532 2.246-3.04 2.99-2.812 1.277 2.849-.564 6.652-2.371 9.272-2.658 2.62-3.86 5.491-3.752 6.859.105 1.367.736 3.065 2.651 3.065 1.914 0 .645-2.382.751-3.635.106-1.253 3.296-5.31 3.296-5.31.626-1.001.105-2.871.769-3.736 1.039.01 1.465-1.435 2.528 2.552 1.063 3.988 2.339-2.62 2.339-2.62s1.488 4.899-1.701 7.86c2.446-.341 2.657.684 2.657.684 0 1.367-1.166 1.937-1.592 4.33-.426 2.392 1.273 3.76 1.273 3.76s-1.594 2.391-6.06-2.28c-.107 2.963 1.701 5.013 1.701 5.013-1.489.722-2.657.646-2.87 2.507z" fill-rule="evenodd" stroke="#000" stroke-width=".9457884099999999" fill="#cdad56"/><path d="M508.2 237.606c-2.332-2.116-2.609-.268-3.756-.741-.562-.236-1.003-.763-1.491-1.241-.426-.436-.93-.617-1.493-.854-.211.627-.424 1.253-.636 1.88-.212.627.59 1.665.573 2.606-.16 1.398-.73 2.555-2.483 3.034.5-.991.784-1.04.631-2.249-.075-.604-1.766-1.676-1.558-2.248.31-.92.839-1.983.448-2.901-.72.491-1.66.234-2.381.533-.604.27-.645 1.395-1.487 1.863-.862.404-2.765.204-4.353-.698.97-.735 1.773-.239 2.744-.976.485-.368.463-1.944.948-2.313s1.648-.76 2.133-1.129c-.436-.497-.413-1.285-.849-1.781-.437-.498-2.373-.39-2.81-.888-.872-.994-.706-2.303-1.58-3.297 2.26.811 1.932 1.913 2.5 1.83 1.07-.514 2.139-.616 2.7-.38.562.236 1.63 1.633 2.193 1.87.211-.627.52-1.423.733-2.05.212-.627-.954-1.713-.741-2.34.424-1.252 1.477-2.36 1.902-3.615.152 1.21.353 2.226.505 3.435.076.604 1.264.918 1.34 1.523.076.604-.62 2.007-.544 2.611.649-.129 1.588-.041 2.236-.17.649-.13 1.08-1.638 1.729-1.767 1.297-.259 2.232-.18 3.554.069-.97.905-1.724.844-2.332 1.677-.486.369.19 1.583-1.215 2.435-.527.305-1.914-.062-2.399.306l1.31 1.492c.436.498 2.397.728 2.833 1.225.873.995 1.336 2.183 1.096 3.249zM448.243 238.63c2.332-2.117 2.61-.269 3.757-.741.56-.237 1.002-.763 1.491-1.241.425-.437.93-.618 1.491-.855l.637 1.88c.212.627-.591 1.665-.572 2.606.158 1.398.728 2.555 2.482 3.035-.5-.991-.783-1.04-.631-2.249.076-.605 1.766-1.676 1.558-2.25-.31-.917-.839-1.981-.448-2.9.721.492 1.66.235 2.381.533.605.27.646 1.395 1.488 1.864.862.404 2.765.204 4.352-.698-.971-.736-1.773-.24-2.743-.976-.486-.369-.463-1.945-.949-2.314-.486-.368-1.648-.76-2.134-1.129.437-.496.414-1.284.85-1.781.438-.497 2.373-.39 2.81-.887.873-.994.707-2.303 1.58-3.297-2.26.811-1.932 1.912-2.5 1.828-1.07-.512-2.138-.615-2.7-.378-.561.236-1.63 1.633-2.192 1.869-.213-.626-.522-1.423-.733-2.049-.213-.627.953-1.713.74-2.34-.424-1.253-1.477-2.361-1.901-3.614-.153 1.209-.353 2.224-.505 3.433-.077.604-1.266.92-1.342 1.524-.076.605.621 2.006.546 2.611-.65-.13-1.588-.042-2.237-.17-.648-.13-1.08-1.638-1.73-1.768-1.297-.259-2.23-.18-3.553.07.97.905 1.724.843 2.333 1.677.485.368-.19 1.582 1.214 2.434.527.306 1.914-.061 2.4.307-.438.497-.874.994-1.31 1.492-.437.496-2.397.728-2.834 1.225-.873.994-1.335 2.182-1.096 3.249z" fill-rule="evenodd" fill="#ffc900"/><path stroke-linejoin="round" d="M506.11 244.301c-2.112 1.65-15.76 5.1-15.9 16.95-.14 11.849 2.393 14.55-.14 14.85-4.925 0-5.628-13.2-5.487-19.05.14-5.85.28-4.95.28-4.95s3.377.9 3.096 3.75c-.281 2.85 3.376-7.05 2.111-9.75 2.25 2.25 5.205 1.35 5.205 1.2 0-.15-1.687-1.95-2.391-3.3-.703-1.35 2.532.75 2.532.75s.14-2.25-2.674-2.1c-3.657 0 .564-1.2.564-1.2s2.11 1.95 3.517-.15c-1.548-1.65-3.798-2.55-3.798-2.55s-1.97-3.75-4.643-4.5c-3.096-.75-2.674 1.35-6.191 1.05-.703 1.35-.703 1.5.704 1.95-2.392 1.65-1.126 4.95-1.126 4.95s3.799-1.65 3.658 1.05c-.14 2.7-2.252 2.25-3.658.6-1.266-.75-1.688.75-1.688.75l1.97 2.1s-3.8-.15-4.785 2.4c2.112-.15 3.237.45 3.237.45s-4.362 1.95-4.785 3c-.42 1.05-.562-1.2-.703-1.2-.14 0-4.22-1.5-4.22-1.5l-1.409 6.486s2.816 2.814 4.363 1.914c1.548-.9 4.362-3.6 6.05-2.85-4.924 3.75-9.848 9.15-12.521 9.9-.704-.6-3.096-3-4.08-1.8-.986 1.2-.283 2.7.984 2.55 1.266-.15-4.08 1.2-2.954 3.45 1.125 2.25.984 2.099 1.97 1.5.984-.6-.845-.75 2.813-1.8 3.658-1.05 3.517-2.101 3.517-2.101s-.703 1.65-2.672 2.1c-1.97.45-3.518.45-3.096 1.05.422.6 1.265 1.65.985 2.251-.282.599 4.08-3.15 5.206-.15 2.955-.15 4.924-3.75 3.517-5.85.141 2.25 1.547 3 .703 4.05s6.613-3.451 2.954-6.15c.987 2.25 1.126 4.05 1.126 4.05s1.688-.15 2.111-.75c.422-.601-.844 1.65-.281 2.1.562.45 3.235 3 2.11 4.8-.703-1.05-.844-2.7-1.688-2.55-.845.15-4.362 2.7-6.472 2.85s2.532 7.8 2.532 7.8-3.236-.45-3.657-.15c-.423.3-2.533-2.7-2.955-.9-.704 2.25.703 1.35.703 1.35s-1.829-.9-2.814.15c-.984 1.05-1.97 2.1-1.266 2.549.704.45 3.8.45 4.22.3s-3.516.3-3.798.75c-.282.45-.844 2.1 0 2.7s2.955-.3 3.095-.75c.141-.45.282 1.65.282 1.65s3.658.3 3.658-3.45.282 2.7.282 2.7 3.657.6 3.798-3.15.421 2.55.421 2.55 2.393-.75 2.393-1.35c0-.6-.141 7.5-1.829 9.75-2.674-1.8-4.362 1.2-4.362 1.2s.14 4.35-.14 5.4c-.281 1.05 1.828-.6 1.97-1.05.14-.45 2.672-1.65 2.814-1.95l.843-1.8s-.563 2.1-1.547 2.4-1.97 1.35-1.549 2.25c.423.9 1.971 1.5 2.533 2.4.563.9 2.533-5.25 2.533-5.25l.14 1.35s2.533-.6 2.814-1.8c.282-1.2-2.673-2.25-.281-4.2 2.391-1.95 0 1.8 0 1.8s.844 2.85 1.407 2.85 1.969-5.4.563-6.75c-1.407-1.35 2.11 1.65 2.11 1.65s1.97-5.55-.14-6.3-3.096-1.05-3.096-1.05 1.126-1.5.563-1.65 2.954 3.3 3.517 2.4 1.407-3.6-2.672-5.1c-4.081-1.5-.141-5.7-.141-5.7s2.533 3 4.361 1.35c1.829-1.65-.14-1.65-.14-1.65s5.205-3.299 5.345-4.95c-.984-.15-2.673.15-2.673.15s2.955-1.949 2.252-5.1c-1.126 1.65-2.674 1.651-2.674 1.651s2.533-2.55 2.11-4.95c-1.547 1.2-1.406 2.099-2.391 1.8s-2.673-9.75 1.266-10.35c3.94-.6 1.829 4.65 1.97 4.65.14 0 5.91-2.4 0-6.3 1.407-.45 4.361 2.25 4.361 2.25s-1.266-6.6-7.597-2.55c1.548-1.65 2.533-2.7 3.799-2.4 1.266.3 5.77-.15 5.77-1.5-1.127-.9-3.519.45-4.786 0-1.266-.45 9.005-1.2 8.161-6.3z" fill-rule="evenodd" stroke="#006b00" stroke-linecap="round" stroke-width=".59294651" fill="#ffc900"/><path d="M481.3 118.54s12.247-6.43 18.37 1.531M504.57 132.32c-.306 0-4.286 3.98-5.205 3.98M512.84 145.18s11.328.918 18.676-10.41" transform="matrix(.45953 0 0 .48992 240.333 190.119)" stroke="#006b00" stroke-linecap="round" stroke-width="1.25" fill="none"/><path d="M525.08 141.81s.919 6.123 2.756 6.123-3.062 1.531-4.899.306c2.143 2.756 3.368 7.655 0 9.492" transform="matrix(.45953 0 0 .48992 240.333 190.119)" stroke="#006b00" stroke-linecap="round" stroke-width="1.25" fill="none"/><path d="M519.26 218.97s-3.98 4.286-8.879 4.592" fill-rule="evenodd" transform="matrix(.45953 0 0 .48992 240.333 190.119)" stroke="#006b00" stroke-linecap="round" stroke-width="1.25" fill="#e80000"/><path d="M523.86 199.37s-2.45-12.247-.919-15.309c.919-3.979 4.899-5.511 7.961-10.716M522.63 190.49s-3.062 7.348-16.533 4.899M526.31 172.12s.919 9.797-11.328 6.123M511.3 128.04s-4.899 4.287-3.062 10.104" transform="matrix(.45953 0 0 .48992 240.333 190.119)" stroke="#006b00" stroke-linecap="round" stroke-width="1.25" fill="none"/><path d="M483.732 247.596s2.955-1.2 3.517-1.8c.563-.6 1.548-1.8 1.83-2.7.28-.9-1.97-2.25-.845-4.2.704-.9 1.688-1.05 3.377 0 1.688 1.05-1.548-3.3-3.236-3.45s-2.814 1.2-3.236.9c-.422-.3.14 1.2-.563 1.2s1.407 1.2 1.267 1.95c-.141.75 2.25 3.3 2.11 3.9-.14.6-3.517 4.05-4.221 4.2z" fill-rule="evenodd" fill="#006b00"/><path stroke-linejoin="round" d="M534.27 97.112c2.794-.636 3.243.07 2.755 2.45-1.309-.66-1.79-1.218-2.755-2.45z" fill-rule="evenodd" transform="matrix(.45953 0 0 .48992 240.333 190.119)" stroke="#ffc900" stroke-linecap="round" stroke-width="1.25" fill="#ffc900"/><path stroke-linejoin="round" d="M514.71 233.52s-1.033 6.409 1.489 6.946c-.124-2.48.538-4.176 1.158-4.837-.538-.249-2.522-2.067-2.647-2.109zM509.03 225.63c-2.316-.331-6.23 1.591-5.105 3.911 1.881-1.621 3.626.134 4.941-1.519.404-.453.29-1.812.164-2.392zM509.01 221.05s-3.651-.581-4.157 1.948c2.52-.32 3.274-.59 4.109-.06.242-.541.008-1.762.048-1.888z" fill-rule="evenodd" transform="matrix(.45953 0 0 .48992 240.333 190.119)" stroke="#006b00" stroke-width="1.25" fill="#e80000"/><path stroke-linejoin="round" d="M493.54 184.94s2.191.828 2.811 3.06c1.736-1.075 2.564-5.83-2.811-3.06zM488.12 190.39c.083-.041 4.59-2.77 5.045-.165-.952.95-1.365 1.57-2.109 1.778-.579-.001-1.737-1.778-2.936-1.613zM487.67 199.24c.082-.042 2.894-2.522 3.969-.868 1.075 1.653-.868 1.571-.868 1.571s-.993-.455-3.101-.703zM483.7 149.96c-.041 0-3.597-1.364-5.085 1.116 2.357.29 3.184 1.117 4.258 1.944-.289-1.034-.785-2.605.827-3.06zM476.8 168.52s.165-4.176 2.15-5.871c1.116.62 1.446 1.612 2.191 2.853-1.488.33-3.473.413-4.341 3.018zM486.3 165.54s-3.928 1.82-2.646 3.804c1.282-1.364 2.688-.951 2.688-.992s0-2.77-.042-2.812z" fill-rule="evenodd" transform="matrix(.45953 0 0 .48992 240.333 190.119)" stroke="#006b00" stroke-width="1pt" fill="#e80000"/><path stroke-linejoin="round" d="M480.64 125.6c-1.406 1.571 1.736 5.003 5.044 4.507.827-3.72-4.217-5.664-5.044-4.507z" fill-rule="evenodd" transform="matrix(.45953 0 0 .48992 240.333 190.119)" stroke="#006b00" stroke-width="1pt" fill="#ffc900"/><path d="M461.183 248.13c-.317.857.943 2.059 1.672 1.721.297-.878-1.343-2.403-1.672-1.721z" fill="none"/><path stroke-linejoin="round" d="M484.28 122.75s.62 2.936 3.473 2.15c-.455-2.274-2.439-3.969-2.439-3.969-.124.662.413 1.695-1.034 1.819zM486.18 131.27s1.571 1.695 4.672-1.778c-1.405.413-3.886-.827-3.886-.827s0 2.398-.786 2.605z" fill-rule="evenodd" transform="matrix(.45953 0 0 .48992 240.333 190.119)" stroke="#006b00" stroke-width="1pt" fill="#e80000"/><path stroke-linejoin="round" d="M480.46 118.86c-1.406 1.571.583 3.762 3.891 3.266.827-3.72-3.064-4.423-3.891-3.266z" fill-rule="evenodd" transform="matrix(.45953 0 0 .48992 240.333 190.119)" stroke="#006b00" stroke-width="1pt" fill="#ffc900"/><path d="M144.62 266.62s7.037-2.011 10.771 1.005 3.734.287 3.734.287 5.457 2.011 7.037 1.58-1.148.144 1.006-1.149c2.154-1.292-4.309.288-4.883-2.441-1.006-1.724.143-3.878-2.154-3.16-1.58-2.011 1.005-3.446.43-5.601-1.579 1.149-2.441-.431-3.734 2.442-3.015-.575-.431-4.74-3.734-5.171 0 3.016-2.442 3.16-2.585 4.883-1.436 1.006-7.755 4.74-5.888 7.325z" fill-rule="evenodd" fill="url(#d)" transform="translate(337.27 11.701) scale(.86059)"/><path d="M392.024 438.192c3.93-.948 25.22 4.7 33.429 13.502-1.742-15.674-6.085-27.682-6.085-27.682s-12.687-3.619-14.429-1.877c-2.555 2.69-10.227 10.75-12.915 16.057zM385.534 365.8c-1.493.248-2.986 1.244-4.478 3.73-1.742 4.23-2.986 14.928-5.474 17.416-2.488 2.488-4.727 2.736-4.727 4.976 0 2.238.25 7.463 6.966 9.453 6.718.249 17.415-10.698 17.415-10.698s5.474-5.97 7.713-12.439c-12.937 4.479-22.142-7.464-17.415-12.439z" fill-rule="evenodd" stroke="#000" stroke-width=".86059pt" fill="#c01500"/><path d="M572.633 435.696c-3.9-.943-25.436 4.673-33.58 13.423 1.728-15.582 6.037-27.52 6.037-27.52 1.504-.41 12.453-3.597 14.182-1.866 2.535 2.675 10.694 10.688 13.36 15.963zM578.665 363.725c1.482.247 2.006 2.194 3.215 4.666 1.727 4.204 3.508 10.33 5.977 12.803 2.469 2.474 4.69 6.137 4.69 8.364 0 2.224-.52 5.233-7.185 7.21-6.666.248-16.324-8.31-16.324-8.31s-5.431-5.937-7.653-12.367c12.837 4.453 21.151-7.01 17.28-12.366z" fill-rule="evenodd" stroke="#000" stroke-width="1.13942116" fill="#c01500"/><path d="M378.07 424.517s13.434 9.205 13.684 13.434c36.074-53.488 128.125-70.157 180.62-3.731 6.966-9.205 14.181-12.19 14.181-12.19-55.232-72.152-165.198-63.194-208.486 2.487z" fill-rule="evenodd" stroke="#000" stroke-width=".86059pt" fill="#fb0"/><g stroke="#000" fill-rule="evenodd" fill="#1e5aa6"><path d="M514.93 219.86l5.258-.124-9.39 11.893 11.27 13.146-22.162 27.92 20.909 25.166c-2.295 5.634-4.967 10.768-8.514 15.4l-12.019-13.272 21.785-27.169-17.904-20.282 10.767-32.677zM439.81 222.236l-5.634.125 10.516 11.393-11.143 13.898 23.162 25.165-19.156 25.666c2.296 5.634 5.593 11.894 9.14 16.526l11.393-14.398-23.412-26.042 17.152-21.784-12.019-30.55z" stroke-width=".86059pt"/><path d="M465.85 289.844l-8.263 11.018 29.548 34.18c5.217-2.63 9.307-5.634 13.772-9.265l-15.4-17.78 6.26-18.404 9.015 10.392-28.17 35.933c-4.716-2.003-9.933-5.133-14.649-9.015l14.899-18.905-7.011-18.154zM456.711 272.692l5.384 6.761-3.505-9.14-1.879 2.38z" stroke-width=".86059pt"/><path d="M495.274 278.673c.118-.125 4.345-5.76 4.345-5.76l-1.644-2.253-2.7 8.013z" stroke-width="1.1110216899999998"/></g><text font-weight="bold" transform="rotate(-49.557 181.31 -359.469) scale(.86059)" font-size="14" y="362.397" x="-328.344" font-family="Timmons"><tspan y="362.397" x="-328.344">L</tspan></text><text font-weight="bold" transform="rotate(-45.392 182.624 -397.364) scale(.86059)" font-size="14" y="384.266" x="-292.335" font-family="Timmons"><tspan y="384.266" x="-292.335">E</tspan></text><text font-weight="bold" transform="matrix(.65646 -.46871 .48855 .64907 337.27 11.701)" font-size="14" y="451.681" x="-239.78" font-family="Timmons"><tspan y="451.681" x="-239.78">O</tspan></text><text font-weight="bold" transform="matrix(.71295 -.482 .482 .71295 337.27 11.701)" font-size="14" y="429.958" x="-188.526" font-family="Timmons"><tspan y="429.958" x="-188.526">T</tspan></text><text font-weight="bold" transform="rotate(-25.549 194.44 -737.931) scale(.86059)" font-size="14" y="451.479" x="-115.426" font-family="Timmons"><tspan y="451.479" x="-115.426">E</tspan></text><text font-weight="bold" transform="rotate(-23.988 196.174 -787.924) scale(.86059)" font-size="14" y="453.046" x="-94.111" font-family="Timmons"><tspan y="453.046" x="-94.111">R</tspan></text><text font-weight="bold" transform="rotate(-21.911 198.859 -865.313) scale(.86059)" font-size="14" y="454.982" x="-68.371" font-family="Timmons"><tspan y="454.982" x="-68.371">R</tspan></text><text font-weight="bold" transform="rotate(-4.763 309.321 -4049.292) scale(.86059)" font-size="14" y="445.666" x="112.016" font-family="Timmons"><tspan y="445.666" x="112.016">R</tspan></text><text font-weight="bold" transform="rotate(.856 -614.1 22567.454) scale(.86059)" font-size="14" y="430.793" x="180.225" font-family="Timmons"><tspan y="430.793" x="180.225">R</tspan></text><text font-weight="bold" transform="rotate(29.645 146.527 643.095) scale(.86059)" font-size="14" y="275.217" x="414.759" font-family="Timmons"><tspan y="275.217" x="414.759">R</tspan></text><text font-weight="bold" transform="rotate(39.802 152.474 471.674) scale(.86059)" font-size="14" y="193.05" x="483.878" font-family="Timmons"><tspan y="193.05" x="483.878">E</tspan></text><text font-weight="bold" transform="matrix(.82923 .15587 -.13366 .81914 337.27 11.701)" font-size="14" y="414.028" x="309.116" font-family="Timmons"><tspan y="414.028" x="309.116">O</tspan></text><text font-weight="bold" transform="matrix(.77615 -.11325 .11745 .83908 337.27 11.701)" font-size="14" y="459.272" x="105.058" font-family="Timmons"><tspan y="459.272" x="105.058">O</tspan></text><text font-weight="bold" transform="rotate(-20.292 201.327 -936.478) scale(.86059)" font-size="14" y="455.835" x="-45.708" font-family="Timmons"><tspan y="455.835" x="-45.708">A</tspan></text><text font-weight="bold" transform="matrix(.60644 .6106 -.6106 .60644 337.27 11.701)" font-size="14" y="144.724" x="518.35" font-family="Timmons"><tspan y="144.724" x="518.35">A</tspan></text><text font-weight="bold" transform="rotate(11.357 109.807 1701.894) scale(.86059)" font-size="14" y="388.298" x="271.188" font-family="Timmons"><tspan y="388.298" x="271.188">A</tspan></text><text font-weight="bold" transform="rotate(-10.645 231.433 -1804.25) scale(.86059)" font-size="14" y="455.168" x="40.322" font-family="Timmons"><tspan y="455.168" x="40.322">M</tspan></text><text font-weight="bold" transform="rotate(-5.94 281.395 -3244.349) scale(.86059)" font-size="14" y="448.079" x="94.429" font-family="Timmons"><tspan y="448.079" x="94.429">P</tspan></text><text font-weight="bold" transform="rotate(-1.463 626.984 -13205.621) scale(.86059)" font-size="14" y="437.607" x="155.088" font-family="Timmons"><tspan y="437.607" x="155.088">P</tspan></text><text font-weight="bold" transform="rotate(29.499 146.412 646.394) scale(.86059)" font-size="14" y="276.665" x="405.134" font-family="Timmons"><tspan y="276.665" x="405.134">P</tspan></text><text font-weight="bold" transform="rotate(6.586 67.003 2937.11) scale(.86059)" font-size="14" y="409.793" x="232.095" font-family="Timmons"><tspan y="409.793" x="232.095">I</tspan></text><text font-weight="bold" transform="rotate(46.586 155.046 397.548) scale(.86059)" font-size="14" y="132.089" x="530.392" font-family="Timmons"><tspan y="132.089" x="530.392">T</tspan></text><text font-weight="bold" transform="rotate(36.816 151.056 512.55) scale(.86059)" font-size="14" y="218.519" x="464.158" font-family="Timmons"><tspan y="218.519" x="464.158">T</tspan></text><text font-weight="bold" transform="rotate(16.412 128.065 1175.229) scale(.86059)" font-size="14" y="361.961" x="313.725" font-family="Timmons"><tspan y="361.961" x="313.725">M</tspan></text><text font-weight="bold" transform="rotate(47.66 155.389 387.656) scale(.86059)" font-size="14" y="123.248" x="513.704" font-family="Timmons"><tspan y="123.248" x="513.704">G</tspan></text><g stroke="#fff700" stroke-linecap="round" stroke-width="1pt" fill="none"><path d="M557.53 184.628s5.19-4.45 8.899-4.574M558.278 184.008c.123-.123 31.024-4.449 32.013-5.438M558.399 184.258c.124-.124 34.61-2.967 34.61-2.967M558.278 184.378s36.71-1.73 38.935.124M558.149 184.258s35.97.247 36.587 1.112M558.278 184.258l34.609 2.842M557.908 184.507c.123 0 35.227 3.09 38.688 7.54M598.442 198.346c-.123-.123-11.989-14.215-40.666-13.968M557.908 184.628s19.9 1.359 26.204 8.281M558.278 184.378s12.855-2.471 26.327 13.72" stroke-width=".86059pt"/></g><path d="M247.4 217.74s20.718.813 20.718 2.844-15.437 5.89-15.64 14.422c-.203 8.531 11.781 9.14 12.593 19.905.813 10.766-9.343 12.39-11.375 15.234-2.031 1.422-6.906 16.656-6.296 25.593.609 8.938 3.249 39.203 7.921 45.296 3.657 2.844 9.141 11.984 15.031 9.14 5.891-2.843 1.828-13.202 1.219-16.046s2.437-7.516 2.437-11.781c0-4.266-2.234-7.719-2.031-8.734.203-1.016 16.453 3.859 15.437 19.906-1.015 16.046-7.515 11.171-7.515 11.171s2.031 19.703-3.047 22.343c-9.14 4.875-15.843-1.015-15.843-1.015l.859 4.007-6.953-3.601s-8.937-12.797-10.968-18.484-4.469-31.077-3.656-36.561c.812-5.485 1.421-37.578 1.015-39.203s-2.031-28.436-1.015-32.499c1.015-4.062 7.312-21.937 7.109-21.937z" fill-rule="evenodd" stroke="#000" stroke-width="1pt" fill="url(#e)" transform="translate(337.27 11.701) scale(.86059)"/><path d="M530.954 194.542s12.411-12.061 19.578-10.663c3.671 0 .175 2.622.175 2.622s6.292.525 7.167 3.321c.174 1.224-2.972 1.574-2.972 1.574s2.622.524 2.797 2.797-26.57.524-26.745.349z" fill-rule="evenodd" stroke="#000" stroke-width=".86059pt" fill="#ff7000"/><path d="M531.651 194.017s13.285-1.748 18.88-7.342M545.111 190.35s9.79-.349 9.79 1.05" stroke="#000" stroke-width=".86059pt" fill="none"/><path stroke-linejoin="round" d="M579.896 333.338s8.39-1.923 10.663-4.894c1.4-1.05 8.74 11.012-10.663 4.894z" fill-rule="evenodd" stroke="#000" stroke-width="1.0757375" fill="#fff"/><path d="M577.624 263.94s1.05 6.467-1.923 10.837c-1.573 1.748-6.293 4.72-6.293 6.818 0 2.097 1.748 4.894 1.399 7.342s-2.972 4.895-2.797 6.992c0 2.097 2.971 13.285 2.622 13.46M562.245 242.967s-6.642 2.273-8.04 8.916" stroke="#fff" stroke-linecap="round" stroke-width="1.0757375" fill="none"/><path d="M559.44 190.35s2.273 6.294 9.614.351c-4.719-6.467-9.614-.175-9.614-.35z" fill-rule="evenodd" stroke="#000" stroke-width=".86059pt" fill="#c75b00"/><path d="M564.865 190.086c0 .338-.352.612-.787.612s-.786-.274-.786-.612c0-.338.352-.612.786-.612s.787.274.787.612z" fill-rule="evenodd"/><path d="M499.414 175.747s13.922 15.068 22.93 14.904c1.637 4.422-4.09 8.536-6.383 10.501-4.586-1.474-8.73.269-19.376-12.834.655-8.353 2.993-12.243 2.829-12.571zM518.252 140.695c1.802-5.569 5.405-9.99 8.517-10.482-.819-4.258 6.551-23.093 28.007-30.3 1.31 9.663-9.172 19.163-9.172 19.163s31.61-5.405 37.997-13.43c-.655 3.603-7.042 26.041-40.781 25.878 12.775 12.12-4.095 21.783-11.302 18.834 13.267-10.155-3.767-16.214-13.266-9.663z" fill-rule="evenodd" stroke="#000" stroke-width=".86059pt" fill="#fff"/><path d="M529.061 132.838c6.388-4.095 8.68-4.095 13.922-3.276-3.767.491-3.767.655-3.767.655s-.328.492 1.965 2.62c-2.62-.654-4.913-2.128-12.12 0z" fill-rule="evenodd" stroke="#ccc" stroke-width=".86059pt" fill="#cccccd"/><path d="M526.6 130.213s12.61-6.715 19.654-11.301" stroke="#000" stroke-width=".86059pt" fill="none"/><path d="M515.79 201.134s17.361 4.75 19.327-20.145c-3.767-10.81-9.008-34.067-.983-40.782-7.37-5.077-15.396.164-15.396.164-.49 1.146-7.042 10.482 1.802 26.86-20.964-5.568-12.448 14.25-12.448 14.25.82-3.113 11.957-6.06 14.74 9.826 1.147 3.931-7.533 9.99-7.042 9.827z" fill-rule="evenodd" stroke="#000" stroke-width=".86059pt" fill="#00f"/><path d="M535.283 181.151s18.344-9.827 17.852-32.92c-15.56.328-21.127 20.473-21.127 20.473l3.275 12.447z" fill-rule="evenodd" stroke="#000" stroke-width=".86059pt" fill="#00f"/><path d="M453.062 180.007s-13.593 11.792-21.291 8.025c-5.733 3.44-12.448-2.62-12.448-2.62s7.862 28.99 36.032 8.025c-.491-6.388-1.965-12.94-2.293-13.43z" fill-rule="evenodd" stroke="#000" stroke-width=".86059pt" fill="#fff"/><path d="M431.608 187.537c1.146-6.06 5.896-9.008 9.663-3.276 5.078.983 10.155-19.818-7.861-16.378 5.077-27.188-10.154-37.343-10.154-37.343s-5.405 30.137-2.948 35.705c2.456 5.57-3.604-10.318-23.093-14.74-.328 22.766 21.783 33.412 21.783 33.412s6.224 5.732 12.61 2.62z" fill-rule="evenodd" stroke="#000" stroke-width=".86059pt" fill="#00f"/><path d="M433.407 167.717s-8.517 7.207-6.552 17.034M420.472 166.736s-1.966 7.043 2.293 17.034M419.161 186.065s3.931-6.387 12.448 1.802" stroke="#000" stroke-width=".86059pt" fill="none"/><path d="M420.799 141.84c0-.164-12.94 0-5.241 13.102-5.733 1.802-18.508-6.551-9.664-17.689-28.99-.655-40.781-14.576-40.781-27.35 8.516 8.843 28.825 5.24 36.032 10.645-8.845-8.19-7.043-19.49-7.043-19.49s24.732 7.37 29.153 29.317c-1.474 4.258-2.129 11.792-2.456 11.464z" fill-rule="evenodd" stroke="#000" stroke-width=".86059pt" fill="#fff"/><path d="M400.904 119.98c4.772 4.856 17.036 6.307 23.26 11.712" stroke="#000" stroke-width=".86059pt" fill="none"/><path d="M406.55 134.31s10.152-1.311 13.095 2.292c-3.973 0-5.297-.983-11.036 1.147 1.619-.82 1.178-2.293 2.06-2.293s-3.678-1.147-4.12-1.147z" fill-rule="evenodd" stroke="#ccc" stroke-width=".8158393199999999" fill="#cccccd"/><path d="M457.159 54.873s5.568-4.913 11.628-.491c-2.738 8.181-12.611 5.077-12.611 5.077s.328 4.095-.655 6.06c1.977 1.486 3.603 6.388 3.603 6.388s10.155-2.457 12.284 1.965c3.889-.537 6.715 0 6.715 0s7.862-1.965 10.646-1.965c2.784 0 11.628 2.293 12.447 3.93.82 1.638 3.767 12.612 5.733 12.448 1.965-.164-4.75 2.62-6.551-.164-1.802-2.784-1.31 3.603-1.31 3.603s5.568 5.897 6.223 7.207c.655 1.31-3.44 11.956-.328 19.326-2.726.252-2.948 3.112-2.948 3.112-.15 3.245-4.258 4.095-4.258 4.095l-.983-4.423-2.784 1.638 1.146-3.44s3.767-9.171 4.095-12.119c.328-2.948-3.44-8.189-6.388-8.189s-5.077 9.336-5.077 9.336-1.474 7.042-.982 7.697c.49.656-1.966-2.292-1.966-2.292s-1.31 4.258-2.293 5.568c-.983 1.31-3.112 1.802-3.112 1.802s-1.474-4.259-.982-5.896c.491-1.638 8.025-8.026 7.37-12.612-.655-4.585 0-3.439-.164-3.603-.164-.164-3.93-3.44-4.095-5.24-.163-1.802-4.913 2.292-11.136.982-1.905 3.328-2.13 11.628-2.13 11.628s-.655 9.99.656 11.137c1.31 1.147-3.276 3.603-3.276 3.603l-3.276 4.422s-1.146-2.784-1.146-2.62c0 .164-2.293 1.638-2.293 1.638l1.31-3.276c-.08-2.48 3.184-9.251 3.184-14.985 0-5.732.42-11.876.42-11.876s-6.06-.327-5.897 5.896c.164 6.224-1.474 6.552-1.146 8.353.327 1.802 1.965 6.88 1.474 8.353-.492 1.474-2.457 1.966-2.457 1.966l-.491.819s-6.06 2.784-5.897 3.93c.164 1.147-.163-3.275-.163-3.275l-.328-4.75s3.603-2.293 3.603-8.025c0-5.733-.83-6.548-.666-7.858.163-1.31.994-6.064.83-6.555-.164-.492-3.44 1.31-4.422 1.31s1.801-3.44 2.129-5.896c.328-2.457-3.276 2.293-6.224-.492 1.371-3.024 3.44-3.93 3.767-6.223s-2.293 1.965-4.586.327c.187-2.197 2.457-4.094 2.457-4.094s-1.866-.229-2.62 0c-1.474-.492 1.637-2.785 1.801-6.06.164-3.276-1.801-4.586-1.801-4.75 0-.164-3.276-2.948-3.767-4.094-.492-1.147-.492-2.457-.492-2.457s-5.405 3.93-11.792-4.422c5.849-4.994 12.12-1.31 12.12-1.31s1.637-4.587 9.171-4.259c7.534.328 9.008 4.586 8.681 4.095z" fill-rule="evenodd" stroke="#000" stroke-width=".86059pt" fill="#923f00"/><path d="M498.364 139.593c.136 0 13.913.41 14.049 7.775.136 7.366-4.229 5.456-4.365 5.456s-10.094-1.227-10.094-1.227l.41-12.004z" fill-rule="evenodd" stroke="#000" stroke-width=".86059pt" fill="#00f"/><path d="M484.99 137.545s17.187-.136 16.232 7.366c-.955 7.502-5.32 6.001-5.32 6.001l-8.32-.682-2.592-12.685z" fill-rule="evenodd" stroke="#000" stroke-width=".86059pt" fill="#fffeff"/><path d="M475.309 136.728l9.957.818s6.001.818 5.729 6.547c-.273 5.729-6.139 5.865-6.139 5.865l-9.684-.545.137-12.685z" fill-rule="evenodd" stroke="#000" stroke-width=".86059pt" fill="#00f"/><path d="M451.987 139.593c-.137 0-13.914.41-14.05 7.775-.136 7.366 4.229 5.456 4.365 5.456s10.094-1.227 10.094-1.227l-.413-12.006z" fill-rule="evenodd" stroke="#000" stroke-width=".86059pt" fill="#fff"/><path d="M465.352 137.545s-17.187-.136-16.232 7.366c.955 7.502 5.32 6.001 5.32 6.001l8.32-.682 2.592-12.685z" fill-rule="evenodd" stroke="#000" stroke-width=".86059pt" fill="#00f"/><path d="M475.042 136.728l-9.957.818s-6.002.818-5.729 6.547c.273 5.729 6.138 5.865 6.138 5.865l9.684-.545-.136-12.685z" fill-rule="evenodd" stroke="#000" stroke-width=".86059pt" fill="#fff"/><path d="M501.703 219.542s7.16-10.552 10.175-9.422c2.638.88.628 9.045-.628 9.799l-9.548-.377zM452.623 221.427c-2.26-3.14-5.527-11.808-8.542-9.422-2.638.88-.628 9.045.629 9.799l7.913-.377z" fill-rule="evenodd" stroke="#000" stroke-width=".86059pt" fill="#5e0043"/><path d="M457.365 200.557s13.952 8.595 18.529 8.818c4.576.223 19.086-11.162 19.086-11.162" stroke="#000" stroke-width=".86059pt" fill="none"/><path d="M458.708 166.857l2.679-3.349 13.394 6.809 13.617-6.027 2.679 2.79-15.18 10.715-17.189-10.938z" fill-rule="evenodd" stroke="#000" stroke-width=".86059pt" fill="#5e0043"/><path stroke-linejoin="round" d="M448.071 166.676c1.088 1.374 9.744 11.9 11.307 20.606 1.563 8.706-.893-11.943-.893-11.943s10.716 5.246 11.05 8.594c.335 3.349 5.123-.226 5.352-.799l-31.023-20.15 4.207 3.692zM501.006 166.074s-11.273 14.845-9.934 31.028c-2.325-7.749-.446-20.537-.446-20.537l-2.456 1.563s-2.567 10.938-5.804 12.613c-.546-1.304-.446-1.786-.446-1.786s-3.46 4.464-4.13 4.91c-.67.447.223 15.069.223 15.069s1.162 10.597 2.501 10.486c-1.523.747-3.394 1.906-3.394 1.906l-1.389-28.298 3.175-3.18s4.241-5.134 4.576-10.157c-1.84 1.562-3.906 2.01-3.906 2.01s-.558 7.143-2.233 8.147c-1.674 1.005-1.72 2.868-1.72 2.868l-.397-9.335 25.78-17.307z" fill-rule="evenodd" stroke="#474747" stroke-width="1.0757375" fill="#474747"/><path d="M475.223 183.26l2.178 44.64" stroke="#000" stroke-linecap="round" stroke-width="1.0757375" fill="none"/><path d="M447.77 204.576s5.134 3.014 7.032 12.167c16.741-1.228 21.988 4.687 21.988 4.687s13.729-6.585 20.09-5.357c2.232-4.688 8.594-10.715 8.594-10.715" stroke="#000" stroke-width=".86059pt" fill="none"/><path d="M440.765 160.824l34.462 22.547 31.03-20.872s6.473-3.572 5.915-6.139-2.79-1.563-3.907-1.116c-1.116.446-32.48 22.657-32.48 22.657l-33.373-21.094s-2.455-.782-2.902.78.92 2.456 1.254 3.238z" fill-rule="evenodd" stroke="#000" stroke-width=".86059pt" fill="#b4b6b9"/><path stroke-linejoin="round" d="M502.391 154.972s-8.817-3.743-8.817-.499c0 3.244.25 3.577 1.663 5.656 1.415 2.08-1.08 3.411-1.08 3.411s-.334-.915-.833-2.33c-.499-1.413-5.24-2.411-5.656-4.075-.416-1.664.998-4.326-1.83-4.659-2.829-.332-5.574 1.165-6.156 4.41-.582 3.243-4.242 10.813-4.242 10.813l.499-17.22c6.21.445 17.746 1.803 26.619 2.83-2.662-.417.998.166.915 1.08-.25.75-1.165.833-1.082.583zM471.195 150.643c-1.58 0-9.483.915-11.48 2.08-1.996 1.165 3.245 2.995 2.58 4.575-.666 1.58-.75 4.742-3.245 4.076-2.495-.665-10.897-4.825-11.146-6.239-.25-1.414-1.997-1.497-1.997-1.497s24.124-3.244 25.289-2.995z" fill-rule="evenodd" stroke="#474747" stroke-width="1.0757375" fill="#474747"/><path d="M474.999 148.664l-.06 21.155M458.708 123.741s-9.665 15.695-9.857 16.173" stroke="#000" stroke-width=".86059pt" fill="none"/><path d="M161.8 129.74s4.893 6.672 4.337 8.562c2.001 1.557 4.225 7.784 4.225 7.784" fill-rule="evenodd" stroke="#000" stroke-width="1pt" fill="url(#f)" transform="translate(337.27 11.701) scale(.86059)"/><path d="M492.779 122.399s-9.092 12.823-8.804 13.78" stroke="#000" stroke-width=".86059pt" fill="none"/><path d="M446.213 61.426c-.206.717-1.364.995-2.588.62s-2.048-1.26-1.842-1.976c.206-.717 1.365-.995 2.588-.62s2.048 1.26 1.842 1.976zM449.886 61.173c.206.717 1.364.995 2.588.62s2.047-1.26 1.842-1.976c-.206-.717-1.365-.995-2.588-.62s-2.048 1.26-1.842 1.976z" fill-rule="evenodd"/><path stroke-linejoin="round" d="M556.282 326.789s-3.371.632-3.266.948-9.797.632-10.008.316c-.21-.316-1.475 1.685-1.475 1.685l1.58-.948s2.423 2.529 3.16 2.318c.738-.21-.315.948-.105 1.159.211.21.949-.422.949-.422l16.37-.273-7.205-4.783z" fill-rule="evenodd" stroke="#000" stroke-width=".86059pt" fill="#ff7000"/><path stroke-linejoin="round" d="M562.383 331.884l-13.37.387s-3.372 3.055-3.583 3.792 2.213.948 2.213.948l.737 2.528 1.686-.632s11.369 1.69 21.806-.632c5.267-1.843 6.19-4.056 2.502-5.399-3.687-1.343-11.886-.94-11.99-.992z" fill-rule="evenodd" stroke="#000" stroke-width="1.0757375" fill="#ff7000"/><path d="M208.37 403.93l27.971-1.246-5.21-4.416 75.648-3.058-2.605-6.002-84.707 3.398 10.192 4.756-22.875.68.68 2.377-6.002-.226s6.681 2.605 6.908 3.737z" fill-rule="evenodd" stroke="#000" stroke-width="1pt" fill="url(#g)" transform="translate(337.27 11.701) scale(.86059)"/><path d="M239.73 249.42c-2.222-1.11-11.998-2.444-22.884 4.666l.444 25.106s15.997-8.665 23.773-6.666c-.444-7.776-.444-17.774-1.333-23.106z" fill-rule="evenodd" stroke="#000" stroke-width="1pt" fill="url(#h)" transform="translate(337.27 11.701) scale(.86059)"/><path d="M410.484 291.952l-56.761 56.35M435.782 292.365l-46.07 60.672M433.725 276.53l-61.494 74.45M370.38 349.947l5.964-6.992M445.446 313.957l-23.857 32.91M420.56 351.187l.618 12.538M456.341 325.472l-25.295 31.672M451.823 354.68l10.283-16.864M455.73 334.526l-12.339 13.984M452.03 321.367l-8.432 10.283M441.126 306.35s-25.707 37.635-25.295 40.72M438.45 301.419c-.617.411-22.211 28.997-22.211 28.997M415.008 339.457l-3.907 4.73M406.165 351.393l-5.964 7.814" stroke="#000" stroke-width=".86059pt" fill="none"/><path d="M407.676 205.334s-1.742 5.473 0 8.21 12.687 24.878 12.687 24.878 7.464-9.205 10.201-9.454c2.737-.249 1.492 23.883 1.492 23.883s-4.477 4.23-7.214 3.981c-2.737-.248 6.717 9.454 6.468 17.664s-12.439 49.01-16.917 49.757c-4.478.746 1.99-7.464 1.741-9.703-.249-2.239-1.493-.747-2.488-3.235-.995-2.488 1.493-6.22.995-8.707s-2.736-1.99-2.985-3.732 1.493-2.239 1.244-4.228c-.249-1.991-2.985-1.494-2.737-3.235.25-1.741.498-.995.25-4.23-.25-3.233-.747 2.24-3.484 2.489-2.737.248-4.976 6.468-4.976 6.468s-5.473 7.712-10.946 4.229c3.234 6.966.746 9.952-.498 10.2s.995 5.474-1.99 5.722 2.239 11.693-1.244 12.688c3.732 1.742.746 3.981.746 3.981s-8.624.716-6.717 11.942c-25.376-8.942-37.815-24.364-37.566-40.035.249-15.673 5.224-29.854 17.415-35.079 3.483-12.937 9.453-26.868 9.453-26.868s-.995-5.722-.249-9.454c.747-3.732 4.23-7.463 4.23-7.463s-.498-8.957-.249-13.434c.249-4.479 1.99-6.47 2.24-8.956.248-2.488-.747-15.177 1.74-17.415 2.488-2.24 7.215-1.99 9.703-3.484 2.488-1.492 5.722-4.229 8.956-3.98s5.97 2.488 5.97 2.488 12.191 0 12.937 4.727c.747 4.726-2.488 6.468-2.488 6.468s1.742 6.717-5.722 12.937z" fill-rule="evenodd" stroke="#2b2b2b" stroke-width=".86059pt" fill="#8a9396"/><path d="M396.852 188.097c.39.722-.499 1.959-1.986 2.764s-3.01.874-3.4.152c-.39-.72.498-1.958 1.986-2.764s3.01-.873 3.4-.152z" fill-rule="evenodd" stroke="#2b2b2b" stroke-width=".86059pt" fill="#cecfcf"/><path d="M394.787 189.354c0 .455-.414.824-.925.824-.51 0-.924-.369-.924-.824 0-.454.414-.823.924-.823.511 0 .925.369.925.823z" fill-rule="evenodd"/><path d="M412.977 197.588s3.021 13.491-.592 22.81M413.906 191.685s5.896 7.797 5.135 17.495M414.477 189.972c.19 0 4.944 4.184 4.754 7.036M415.618 188.26s3.233 2.282 3.994 4.564" stroke="#2b2b2b" stroke-width=".53786875" fill="none"/><path d="M414.097 186.926s-11.6 18.826-10.079 30.616" stroke="#000" stroke-width=".86059pt" fill="none"/><path d="M414.857 186.358s-15.403 9.128-18.255 38.984" stroke="#2b2b2b" stroke-width=".53786875" fill="none"/><path d="M413.146 191.874l-6.086 4.564" stroke="#000" stroke-width=".86059pt" fill="none"/><path d="M390.897 227.055s8.557-35.561 23.77-40.696" stroke="#2b2b2b" stroke-width=".53786875" fill="none"/><path d="M420.562 239.034s8.177-10.268 10.079-9.888c1.901.38 1.33 23.77 1.33 23.77s-6.085 4.565-7.416 4.374c-1.33-.19 6.846 11.03 6.656 15.214-.19 4.184-.38 4.184-.38 4.184s0-2.473-1.902-6.466c-1.902-3.994-.76-8.558-13.121-18.636-3.043-6.276 6.085 3.803 7.987 2.282 1.901-1.522-3.423-14.643-3.233-14.833z" fill-rule="evenodd" stroke="#2b2b2b" stroke-width=".86059pt" fill="#2b2b2b"/><path d="M406.025 181.203s-3.438.937-3.906 2.344c-.47 1.406-2.5 2.812-3.594 2.344-1.094-.47-3.126-2.188-3.126-2.188" stroke="#2b2b2b" stroke-width=".86059pt" fill="none"/><path stroke-linejoin="round" d="M386.492 193.234s-5.156 5.157-2.656 5.782c2.5.625 5.156-4.063 5.156-4.063s0 7.97 2.188 6.719 8.595-5.782 8.595-5.782 2.187-.156 2.656 0c.469.157 5.938 4.844 9.532 3.126-2.031 5.312-4.375 5.938-4.375 5.938s-3.75 4.844-8.595 3.75c-4.844-1.094-6.094-3.125-6.094-3.125s-4.063.312-5.313-1.563-1.719-2.969-1.719-2.969-2.344 2.344-2.969 1.25c-.625-1.094 0-7.5 3.594-9.063z" fill-rule="evenodd" stroke="#2b2b2b" stroke-width="1.0757375" fill="#2b2b2b"/><path d="M415.714 186.048s-9.532-2.813-12.814 1.875c-3.281 4.688-2.5 7.345-.781 7.813" stroke="#2b2b2b" stroke-width=".86059pt" fill="none"/><path d="M417.184 185.781c0 1.124-.804 2.035-1.797 2.035s-1.797-.911-1.797-2.035.805-2.035 1.797-2.035 1.797.911 1.797 2.035z" fill-rule="evenodd"/><path d="M389.442 210.101s3.887 5.98 8.521 7.625-3.214 3.064-7.848-.075c-3.363-4.56-2.466-7.848-2.466-7.848s.897-.898 1.793.298zM422.705 245.386s-10.913-15.173-14.053-15.996c-3.139-.822 2.392-1.495 5.756 1.719 3.363 3.214-.897-5.232-.897-5.232l9.194 19.509z" fill-rule="evenodd" stroke="#2b2b2b" stroke-width=".86059pt" fill="#2b2b2b"/><path stroke-linejoin="round" d="M388.397 333.063c4.186-1.122 22.423 10.464 26.534 13.38 4.111 2.914 12.707 1.046 12.707 1.046s-3.962 2.392-6.428 2.99 7.325.597 7.325.597-23.321 6.429-47.016-6.054c-2.167-9.717 5.083-11.885 6.877-11.96z" fill-rule="evenodd" stroke="#2b2b2b" stroke-width="1.0757375" fill="#2b2b2b"/><path d="M415.081 249.12s-3.064-.597-4.634-2.391c-1.57-1.794-3.812-6.204-6.13-8.073s-13.902-8.222-18.088-7.774c-4.186.449-5.457-.448-5.98-.971-.523-.524-2.242.224-1.943 2.392.299 2.167-3.214 6.951-1.944 9.193 1.271 2.243 7.25 11.362 8.447 11.66 1.196.3.448 5.307.448 5.307s5.307 5.382 6.653 5.681c1.345.299 2.69 1.27 2.541 2.541-.15 1.271-5.83 8.223-5.83 8.223s-6.13 3.214-6.204 5.007c-.075 1.794 1.495 5.532 6.353 6.728 4.859 1.196 17.94.224 18.612-.897.673-1.121 1.72-7.849 1.27-8.521-.448-.673-3.662-2.691-5.306-2.392-1.645.299-3.14 1.644-2.99 1.943.15.3-2.317 1.57-2.317.374 0-1.196 4.858-6.578 5.307-6.13.448.45 7.325 1.122 8.596 4.56s1.27 5.905 4.858 5.531c3.588-.373 8.596-3.662 9.044-10.538.449-6.877-4.036-11.512-5.157-12.184-1.122-.672-4.859-2.915-5.158-3.961-.299-1.047-1.046-4.485-.448-5.307z" fill-rule="evenodd" stroke="#2b2b2b" stroke-width=".86059pt" fill="#2b2b2b"/><path d="M350.425 279.474s11.585-2.99 14.576-2.915c2.99.074 14.276 5.307 17.565 8.52 3.29 3.215 10.016 10.839 14.426 10.166s5.681-1.57 5.681-1.57l-1.72 3.289s-3.587.972-5.38.523c-1.795-.448-5.308-1.57-8.821-5.008-3.513-3.438-14.351-12.706-23.545-12.034-9.194.672-14.5 9.717-14.5 9.717s.074-4.41.448-5.382c.373-.972-1.944 2.093-1.944 2.093l3.214-7.4z" fill-rule="evenodd" stroke="#2b2b2b" stroke-width=".86059pt" fill="#2b2b2b"/><path d="M393.105 288.44c.075.076 2.915.823 7.699.823s7.325-2.093 7.325-2.093l-.299-1.869.748-2.616s3.662 3.738 3.587 4.485c-.074.748-1.495 1.047-1.495 1.047l-.523-1.794-1.27 1.57s-6.952 5.53-10.764 4.708c-3.812-.822-7.325-3.288-6.353-3.886s1.495-.374 1.345-.374zM376.213 298.234s-4.186-.074-6.055.823c-1.869.897-2.541 2.018-3.812 1.868-1.27-.15-2.242-1.794-1.869-2.466.524-1.047 2.99-2.392 7.7-2.018s4.036 1.793 4.036 1.793zM390.863 309.594c0-.224-.299-6.129-2.616-8.52s-5.157-2.393-6.428-2.094c-1.27.3 4.709 2.915 5.307 4.635.598 1.719 2.541 6.503 2.018 7.698-.523 1.196-1.495-3.363-5.157-4.634s-8.746-.598-7.7 1.047 5.158.149 7.251 3.662 3.663 7.25 3.663 7.25l.672-2.54 1.87-.524.223-4.859.897-1.12z" fill-rule="evenodd" stroke="#2b2b2b" stroke-width=".86059pt" fill="#2b2b2b"/><path stroke-linejoin="round" d="M387.874 328.725l-3.813-7.624s-1.195-4.858-4.41-6.204c-3.214-1.345-7.474-1.121-7.549.523-.075 1.645 6.877 3.738 7.325 4.635.449.897.225 2.391-.373 2.466-.598.075-3.663-1.12-5.233-.747-1.57.373-2.466 2.392-4.783 1.794-2.318-.598-4.26-7.998-3.364-8.746.897-.747-1.72 1.346-2.242-.598-.524-1.943.747-7.998-.15-8.745-.897-.747-5.232-3.363-5.307-3.887-.075-.523.224-29.749 24.666-5.531-10.464-12.408-14.575-11.062-16.519-11.137-1.42 0-10.913.822-13.304 12.931-2.392 12.109-5.233 4.56-5.233 4.56s-.523 5.232 2.019 6.727c2.54 1.495-1.196 5.83-1.196 5.83s-4.56-11.137-3.887-15.996c-.897 3.887-.822 13.53 4.933 24.069 6.727 7.1 13.081 13.678 29.974 21.078 8.895-13.604 8.446-15.248 8.446-15.398z" fill-rule="evenodd" stroke="#2b2b2b" stroke-width="1.0757375" fill="#2b2b2b"/><path stroke-linejoin="round" d="M371.878 328.803s4.933.598 6.278 3.139c1.346 2.541 1.944 6.428 1.944 6.428.822-1.644 1.196-3.064 2.84-4.26s2.84-1.346 2.766-2.243c-.075-.897-5.232-6.353-7.849-6.652-2.616-.3-7.175 2.84-7.175 2.84s-.822 1.196 1.196.748z" fill-rule="evenodd" stroke="#2b2b2b" stroke-width="1.0757375" fill="#8a9396"/><path d="M383.145 341.66s12.785 5.828 33.843 6.204" stroke="#8a9396" stroke-linecap="round" stroke-width="1.0757375" fill="none"/><path d="M425.825 282.314s-1.1 10.726-9.351 31.902" stroke="#2b2b2b" stroke-linecap="round" stroke-width="1.0757375" fill="none"/><path d="M424.181 288.914s-2.475 7.701-9.351 13.476" stroke="#2b2b2b" stroke-width=".86059pt" fill="none"/></svg>