<svg xmlns="http://www.w3.org/2000/svg" height="480" width="640"><g fill-rule="evenodd" stroke-width="1pt"><path fill="#06f" d="M0 0h640v479.987H0z"/><path fill="#fff" d="M213.336 0h213.336v479.997H213.336z"/></g><path d="M401.82 305.02c-1.76-1.831-11.128-4.69-17.788-5.264-5.755-.454-9.467-4.238-12.877-4.612-9.856-9.91-22.741-13.697-31.167-32.99-1.602-5.79-2.741-12.841-2.912-19.585 3.18-22.53 5.238-21.922 9.985-36.818" transform="matrix(-2.0498 0 0 2.0497 1136.229 -264.435)" stroke="#000" stroke-width=".5" fill="none"/><path d="M348.737 354.446c.352 3.407 10.761 15.973 28.738 13.764-1.607-3.468-5.512-5.957-11.114-11.177-2.564-2.642-17.753-4.198-17.624-2.587zM370.137 350.874c-2.091.183-3.95 1.427-.378 4.565 6.027 5.065 27.644 9.724 30.901 3.294-9.568-1.292-15.947-3.319-16.931-3.282-4.444-1.455-10.173-4.899-13.592-4.577z" fill-rule="evenodd" fill="#0c5c1d"/><path d="M359.355 349.327c4.36-2.998 7.738-2.75 10.558-3.343 7.224-.5 12.164.492 15.187 1.742 4.475 1.927 10.993 6.75 11.82 10.253-6.644-.125-11.047-5.139-19.6-7.039-4.365-.377-12.43-.938-17.965-1.613zM347.814 348.017c12.6-7.754 24.546-21.97 25.771-36.825-15.735 12.313-26.405 30.093-25.771 36.825z" fill-rule="evenodd" fill="#0c5c1d"/><path d="M354.927 347.872c10.655-4.622 25.09-14.975 26.842-36.507-14.619 9.2-19.295 22.807-26.842 36.507zM377.413 337.494c-.822-6.078 13.773-37.834 22.288-46.008.93 12.225-10.958 46.557-22.288 46.008zM376.962 338.713c2.216 9.418 26.306 11.863 34.082.822-9.683-1.616-21.654-2.556-34.082-.822zM387.552 332.247c9.853 6.207 33.87 1.859 47.867-9.237-20.906-6.3-46.789 5.712-47.867 9.237zM406.541 318.67c1.564-6.845 21.83-20.36 34.902-19.612-8.304 11.269-11.15 9.34-15.476 14.34-2.956 3.707-13.27 6.431-19.426 5.271zM413.209 303.119c-7.175-2.719-5.574-23.42-.775-31.865 4.858 11.401 6.157 29.168.775 31.865zM423.103 295.472c-9.548-5.31-6.106-31.282-1.018-38.565 3.989 7.756 6.081 34.792 1.018 38.565zM426.761 295.241c5.528-8.703 24.783-9.08 33.235-5.714-9.187 8.99-23.333 9.442-33.235 5.714zM432.45 289.649c-7.955-12.438-3.015-19.03 1.841-34.429 2.35 13.077.455 26.876-1.84 34.429zM442.534 262.066c1.369-11.53 11.814-16.975 23.688-20.94-2.465 8.49-7.588 17.677-23.688 20.94z" fill-rule="evenodd" fill="#0c5c1d"/><path d="M439.696 268.356c-12.429-2.129-13.01-13.985-12.748-25.582 3.545 6.388 12.046 14.614 12.748 25.582zM436.538 248.26c2.942-7.205-2.225-26.69-14.916-33.867.202 11.93 8.324 26.756 14.916 33.867zM443.58 244.061c1.82-4.297 2.998-6.482 5.744-11.955 4.762-9.998 1.686-6.65 8.12-18.747 3.476 13.504-3.48 29.621-13.863 30.702zM444.422 207.893c-8.602 4.718-17.326 1.658-29.267-7.907 9.853-.89 18.693 3.846 29.267 7.907zM442.05 203.094c5.146-17.086 8.171-19.996 12.394-38.542-10.56 8.549-15.99 27.07-12.393 38.542zM440.113 201.958c-11.587-8.412-14.311-17.963-27.646-21.447.282 4.776 19.455 24.716 27.646 21.447z" fill-rule="evenodd" fill="#0c5c1d"/><path d="M437.12 190.255c-7.397-9.205-11.48-16.72-22.437-23.373 1.752 11.23 14.019 27.547 22.437 23.373zM423.094 169.723c2.349-12.846-13.558-21.369-19.075-27.955-.623 11.348 9.308 24.703 19.075 27.955z" fill-rule="evenodd" fill="#0c5c1d"/><path d="M422.996 154.94c3.69-11.574-6.68-19.416-11.843-25.318.825 11.292 2.535 22.944 11.843 25.318zM438.017 177.924c4.567-7.459 1.968-24.567-.986-31.774-3.688 3.949-5.452 30.425.986 31.774z" fill-rule="evenodd" fill="#0c5c1d"/><path d="M430.946 162.756c5.176-9.146 2.273-18.916-.763-26.111-3.35 10.68-5.776 20.957.763 26.111zM441.496 235.212c7.677-.984 13.111-16.994 7.825-31.312-4.919 12.742-4.909 18.806-7.825 31.312z" fill-rule="evenodd" fill="#0c5c1d"/><path d="M439.532 206.864c9.554.488 15.575-7.77 20.638-22.207-7.866 5.052-11.738 18.401-20.638 22.207zM445.986 239.134c-8.737 2.091-18.59-20.794-11.827-33.691 7.416 14.782 9.091 20.979 11.827 33.69zM436.68 272.69c1.2-8.738 19.948-10.96 29.362-9.041-7.531 6.051-22.852 9.795-29.362 9.04z" fill-rule="evenodd" fill="#0c5c1d"/><path d="M432.237 286.56c5.324-4.65 13.747.365 27.255-25.983-18.172 10.366-25.154 22.437-27.255 25.982z" fill-rule="evenodd" fill="#0c5c1d"/><path d="M399.56 306.24c-1.412-2.005-8.867-4.168-15.527-4.742-5.755.242-11.032-1.107-15.833-3.568-9.857-9.91-20.828-16.48-29.254-35.773-1.602-5.79-2.568-11.102-2.739-17.846 3.18-22.53 3.499-24.704 12.246-39.6" transform="matrix(2.0498 0 0 2.0497 -493.424 -266.93)" stroke="#000" stroke-width=".5" fill="none"/><path d="M282.22 354.723c-.352 3.407-12.274 13.957-28.738 13.764 1.608-3.468 17.799-7.182 22.206-13.446 1.304-1.886 6.662-1.929 6.533-.318zM270.131 349.891c2.07-.348 3.194.67-.38 3.809-6.026 5.064-16.3 7.454-31.404 10.099 5.032-5.071 17.208-9.368 18.192-9.33 4.444-1.456 9.669-3.891 13.592-4.578z" fill-rule="evenodd" fill="#0c5c1d"/><path d="M278.9 349.353c-1.587-3.503-3.2-5.272-6.02-5.864-7.224-.5-12.92.744-15.187 1.742-2.458 1.423-10.237 6.498-11.063 10 5.887-1.637 9.786-6.146 18.34-7.29 4.111-1.386 9.908-1.19 13.93 1.412zM294.986 345.523c-12.6-7.754-20.513-17.686-21.738-32.542 15.735 12.314 22.372 25.81 21.738 32.542z" fill-rule="evenodd" fill="#0c5c1d"/><path d="M287.12 347.652c-11.916-5.126-16.268-14.723-24.573-30.459 14.871 7.437 21.06 15.246 24.573 30.459zM260.35 342.302c2.584-10.615-1.928-26.238-9.686-33.908-.678 11.972 1.632 31.936 9.685 33.908z" fill-rule="evenodd" fill="#0c5c1d"/><path d="M256.25 339.494c-2.216 9.419-26.81 9.595-34.082.822 7.414 1.662 23.67 1.982 34.082-.822zM249.709 332.02c-7.584 5.702-38.155-3.687-38.54-8.986 4.017-.502 37.461 5.461 38.54 8.986z" fill-rule="evenodd" fill="#0c5c1d"/><path d="M247.497 330.045c4.432-8.752-7.756-36.452-12.63-36.23 2.88 20.718 8.088 30.136 12.63 36.23zM239.523 322.728c-2.824-6.592-24.1-17.839-34.902-19.612 8.808 9.252 14.476 7.953 17.493 13.836 2.2 3.96 11.758 4.667 17.41 5.776z" fill-rule="evenodd" fill="#0c5c1d"/><path d="M235.526 317.747c2.216-8.31 1.107-11.634-4.323-17.617-.553 8.752.556 12.187 4.323 17.617zM227.553 308.466c5.98-3.92 2.326-23.977-2.993-29.582-1.107 14.457-2.548 27.23 2.993 29.582zM216.914 293.478c10.304-3.546 2.325-22.712-.998-30.245-3.99 7.754 2.993 11.853.998 30.245zM215.03 294.75c-8.553-8.2-23.775-8.829-32.227-5.464 10.194 3.445 25.854 5.661 32.226 5.464zM206.055 276.466c-2.237-8.532-21.116-8.495-30.232-5.464 8.2 5.108 23.859 6.992 30.232 5.464z" fill-rule="evenodd" fill="#0c5c1d"/><path d="M212.003 289.86c-5.324-4.65-13.747.365-27.255-25.983 18.172 10.366 25.154 22.437 27.255 25.982z" fill-rule="evenodd" fill="#0c5c1d"/><path d="M209.842 290.178c7.956-12.437 3.015-19.029-1.84-34.428-2.35 13.077-.456 26.875 1.84 34.428zM197.73 261.84c-2.379-11.277-13.075-16.974-23.94-18.418 2.97 5.716 11.118 7.846 23.94 18.419z" fill-rule="evenodd" fill="#0c5c1d"/><path d="M199.59 267.575c12.558-1.142 14.072-12.916 14.725-24.497-4.037 6.089-13.16 13.618-14.726 24.497zM199.473 252.76c7.326.736 16.471-15.19 13.205-27.991-5.975 14.18-6.508 19.157-13.205 27.99zM196.356 239.218c7.726-.464 14.228-16.071 9.92-30.713-3.573 13.54-1.943 19.477-9.92 30.713zM195 246.21c-1.86-4.517-5.395-5.967-7.05-11.863-2.999-10.546-8.707-12.21-7.834-20.452 13.276 15.456 16.782 24.694 14.885 32.314zM195.662 234.644c-3.332-29.88 2.588-17.166-10.355-45.336 19.279 17.268 13.951 44.17 10.355 45.336z" fill-rule="evenodd" fill="#0c5c1d"/><path d="M196.546 222.004c-.643-9.545 7.516-15.698 21.87-20.995-4.923 7.947-18.209 12.034-21.87 20.995zM199.976 200.102c-5.145-17.086-8.17-19.997-12.394-38.542 10.56 8.548 15.99 27.07 12.394 38.542zM204.701 199.458c11.587-8.412 14.311-17.964 27.646-21.448-.282 4.776-19.455 24.716-27.646 21.448z" fill-rule="evenodd" fill="#0c5c1d"/><path d="M203.914 191.546c7.398-9.205 11.48-16.72 22.438-23.372-1.753 11.23-14.02 27.547-22.438 23.372zM220.784 162.666c.377-13.054 17.71-18.079 24.477-23.372-1.753 11.23-14.247 22.224-24.477 23.372z" fill-rule="evenodd" fill="#0c5c1d"/><path d="M219.377 153.695c-2.306-11.927 8.913-18.496 14.734-23.752-2.146 11.117-5.212 22.487-14.734 23.752zM204.03 172.906c-4.567-7.458-1.968-24.567.986-31.774 3.688 3.949 5.451 30.425-.986 31.774zM211.998 162.354c-3.809-9.794.467-19.046 4.505-25.731 1.782 11.05 2.707 21.57-4.505 25.73z" fill-rule="evenodd" fill="#0c5c1d"/><path d="M273.407 324.101c34.727-33.968 64.923-63.408 113.239-93.755-78.21 60.919-75.794 65.674-108.71 96.247-1.358-1.133-3.17-1.359-4.53-2.492z" fill-rule="evenodd" fill="#6f8593"/><path d="M211.605 332.115l12.938 14.217 39.213-59.53 16.503-17.533-3.995-5.813-25.342 24.773-2.915 5.807-36.402 38.08zM425.645 333.021l-16.562 14.67-36.948-59.983-21.486-23.421 5.807-4.001 28.513 28.85 2.915 5.806 37.761 38.08z" fill-rule="evenodd" fill="#6a0d06"/><path d="M372.104 296.718c.34-2.152 3.167-6.34-3.173-12.003.152-3.019 3.245-6.15 5.664-7.698 2.037 0 7.924 4.111 10.53 8.717 1.474 3.21 2.228 8.19.34 12.003-1.398 2.113-3.02 4.567-4.756 5.549-.83.602-2.68.414-4.19-.228-2.377-1.207-4.19-4.68-4.415-6.34z" fill-rule="evenodd" fill="#bbcdcd"/><path d="M292.86 190.758l-28.915-29.181-1.732.07-.601 1.926-.929 2.68-3.425 3.22-45.163-42.354 42.472 46.326 2.005.022 6.196-6.448 2.61.606 21.295 24.94 6.186-1.807zM330.596 364.68c52.913-85.929 99.007-145.149 14.57-221.08-3.159-3.179-14.066-13.247-20.898-15.416-.95-6.15 3.71-15.864-8.201-16.668-5.065.269-7.566 2.079-7.463 6.651.01 3.555 1.888 5.11.92 8.29-.357 1.588-4.303 5.212-4.06 9.834 1.533 9.847 5.335 12.257 6.489 13.66 2.066 2.053 3.302 3.5 9.37 6.005.672.807 2.464 2.314 3.384 3.326 11.149 2.386 21.312 1.169 28.515 4.76 3.14.967 8.176 6.296 9.814 8.965 20.344 22.305 29.148 58.099-1.96 95.89 6.232.51 21.146-25.021 24.553-46.703-4.766 32.338-15.314 43.632-20.541 53.296 10.45-6.96 18.86-31.473 20.818-36.51-8.286 44.619-51.19 99.71-78.184 111.277 24.434-5.665 40.826-30.014 49.52-38.737-8.466 17.46-25.88 42.166-26.646 53.171z" fill-rule="evenodd"/><path d="M366.96 326.366c-33.822-34.193-87.798-85.827-114.599-91.49 41.749 26.949 78.512 63.183 110.068 93.982 1.36-1.133 3.171-1.359 4.53-2.492z" fill-rule="evenodd" fill="#6f8593"/><path d="M345.78 193.034l31.808-31.453 1.732.07.6 1.926.929 2.68 3.425 3.22 45.163-42.354-42.472 46.326-2.004.022-6.197-6.448-2.61.607-27.077 29.999-3.296-4.595z" fill-rule="evenodd"/><path d="M261.64 181.421c1.663-9.06 4.455-15.627 13.816-17.211 24.534-1.058 47.258-1.21 72.924-.68 7.322 5.812-.301 17.74-7.927 18.344 11.703 20.229 27.708 35.704 29.897 59.558.754 12.532-3.66 20.655-8.093 25.167-33.727.822-50.068 5.02-78.261 7.204-7.876.947-13.797-8.213-13.722-15.838.046-7.88 3.286-14.044 12.043-15.135 2.718-.295 6.502-.114 9.899-.039-6.568-19.625-31.932-42.875-30.575-61.37z" fill-rule="evenodd" fill="#e3cf6e"/><path d="M305.927 133.148c-2.911 9.347 4.403 17.374 5.557 18.776 2.066 2.053 3.415 3.728 9.482 6.233.672.807 9.355 5.757 10.597 6.93 9.235 2.42 14.14-1.728 24.655.852-2.705-6.682-30.798-34.086-50.291-32.79z" fill-rule="evenodd" fill="#336446"/><path d="M306.162 137.394c-2.828 4.622 4.643 15.69 5.797 17.092 2.066 2.054 3.415 3.729 9.483 6.233.672.808 3.679 2.329 4.12 2.86l7.953 1.455c-2.706-6.682-18.073-29.799-27.353-27.64z" fill-rule="evenodd" fill="#402e08"/><path d="M309.161 121.594l-1.89 1.376 2.751 1.375-.86-2.75z" fill-rule="evenodd"/><path d="M305.445 140.632c1.533 9.847 5.2 12.526 6.436 13.852 1.984 2.13 3.495 3.489 9.563 6.233 2.435 2.009 3.36 2.57 5.243 3.581l6.424.955c-2.706-6.682-18.727-21.905-27.666-24.62z" fill-rule="evenodd" fill="#8c361d"/><path d="M263.895 295.918c-.34-2.153-3.166-6.34 3.174-12.003-.152-3.02-3.245-6.152-5.664-7.7-2.038 0-7.925 4.113-10.53 8.718-1.474 3.21-2.228 8.19-.34 12.003 1.398 2.114 3.02 4.567 4.755 5.549.83.602 2.682.414 4.19-.228 2.378-1.207 4.19-4.68 4.415-6.34z" fill-rule="evenodd" fill="#bbcdcd"/><path d="M268.426 327.278c-2.87 3.323-14.115 9.814-16.307 12.005-1.812 2.415 2.49 5.737 5.209 6.114 4.831-3.624 9.663-8.606 14.039-11.548 6.106-5.64 5.703-6.104 15.63-3.173-1.435-5.284-11.475-9.434-17.212-10.642-9.665 1.056-14.12 5.057-16.081 10.642 6.416-4.83 10.796-7.171 14.722-3.398z" fill-rule="evenodd" fill="#d4be72"/><path d="M373.765 296.577c.18-1.033.76-1.59.777-3.62 2.117 3.046 3.128 4.596 5.88 8.464-.992 1.324-2.422.699-3.771.057-1.257-.806-3.06-3.4-2.886-4.9zM262.522 295.897c-.18-1.033-.76-1.59-.777-3.62-2.117 3.046-3.128 4.596-5.88 8.464.991 1.324 2.422.698 3.771.057 1.257-.806 3.06-3.4 2.886-4.9z" fill-rule="evenodd" fill="#fff"/><path d="M369.911 329.543c2.87 3.322 14.115 9.814 16.306 12.005 1.812 2.414-2.49 5.737-5.208 6.114-4.832-3.624-9.663-8.607-14.04-11.548-5.003-6.01-7.174-5.737-15.63-3.173 1.436-5.284 11.476-9.435 17.213-10.642 9.665 1.056 14.12 5.057 16.08 10.642-6.415-4.831-10.796-7.172-14.72-3.398z" fill-rule="evenodd" fill="#d4be72"/><path d="M292.06 242.871c2.402 3.444 4.403 11.048 4.725 15.933.426 9.447-9.157 14.251-12.414 13.852-6.19-.749-11.264-5.418-11.77-12.651.986-8.433 4.536-13.106 10.409-13.452 3.845.668 8.168 5.26 8.168 10.81-.106 4.591-1.414 9.18-4.245 9.287-6.885-.533-6.485-4.51-7.607-6.645-.293-1.574-.539-5.836.242-6.885 1.027-1.275 5.764-2.962 8.085.32 2.509 2.56-3.708-1.361-6.164.397-1.255 1.79-.426 4.698-.08 5.846.428 1.148.375 4.938 5.124 4.725 1.737-.265 2.35-3.819 2.483-7.287.268-2.374-3.069-7.152-6.406-8.166-2.322-.373-8.006 4.376-7.767 11.05.456 7.58 6.673 10.195 10.01 9.687 3.388-.906 10.462-3.575 10.169-11.128-.749-8.328-2.298-11.772-4.967-15.775 1.041 0 .963 0 2.005.082zM341.706 184.024l-1.443-2.322h-31.067c-8.808.802-22.222 2.136-26.838 4.136-11.823 5.82-15.043-4.456-15.685-7.018-.687-2.349.78-6.592 3.077-8.086.908-1.736 5.983-3.636 9.052-2.488 3.47 1.467 4.979 5.848 4.425 8.812-1.041 4.404-9.376 7.124-6.412 2.642.373-1.97 1.874-7.447-.768-11.37l-2.42.48c3.363 7 .278 10.471.118 12.472-.158 3.364 2.716 3.07 4.942 2.984 1.52-.08 4.087-2.004 5.128-3.046 1.253-1.092 1.446-3.211 1.6-5.681.393-6.518-5.578-11.157-9.608-10.57-12.25 3.043-12.545 13.263-9.77 18.574 1.548 2.668 3.338 4.298 6.326 5.846 2.51.748 6.303.32 9.288-.802 5.91-2.121 15.486-4.003 27.418-4.296l32.637-.267z" fill-rule="evenodd"/><g stroke-width="1pt" fill="#8c361d"><path d="M330.924 235.013l1.283 1.87-.193.02c-.41-.42-.749-.715-1.015-.886a3.045 3.045 0 00-.883-.393c-.176-.047-.434-.052-.772-.016l-.54.058 3.656 5.33c.242.352.412.57.512.655.103.084.237.154.401.209.165.052.35.066.558.044l.24-.026.13.19-3.793.404-.13-.19.24-.025c.211-.023.355-.076.435-.16.06-.059.078-.148.052-.269-.017-.085-.145-.301-.382-.648l-3.655-5.33-.524.056c-.488.052-.774.188-.862.408-.12.309-.046.722.221 1.24l-.203.022-1.283-1.87 6.507-.693zM312.081 237.454l1.93 2.813.143-.015c.459-.05.7-.223.716-.52.019-.297-.129-.717-.44-1.26l.203-.021 2.48 3.617-.201.022a5.507 5.507 0 00-.937-.939c-.308-.237-.582-.39-.822-.454-.242-.07-.536-.086-.882-.049l1.336 1.948c.26.38.437.61.527.692a.997.997 0 00.336.189c.129.044.297.055.504.033l.433-.046c.677-.072 1.116-.278 1.316-.621.205-.343.186-.83-.054-1.46l.197-.02 1.18 2.23-6.261.667-.13-.189.242-.025c.21-.022.355-.076.433-.161.06-.058.076-.146.047-.267-.017-.086-.144-.302-.382-.649l-3.118-4.544a6.075 6.075 0 00-.421-.573 1.141 1.141 0 00-.387-.255 1.34 1.34 0 00-.653-.083l-.24.025-.129-.188 6.062-.646 1.401 2.043-.201.021c-.447-.488-.838-.83-1.177-1.028a3.13 3.13 0 00-1.118-.394c-.242-.04-.637-.031-1.185.028l-.748.08zM305.885 244.892l.13.189-3.788.403-.13-.189.241-.025c.21-.023.355-.076.434-.161.06-.058.075-.146.046-.267-.016-.087-.144-.302-.381-.648l-3.118-4.546c-.242-.353-.412-.571-.512-.656a1.151 1.151 0 00-.398-.203 1.286 1.286 0 00-.552-.052l-.24.026-.129-.188 3.788-.403.129.188-.24.025c-.211.022-.355.076-.435.161-.06.058-.076.147-.05.269.016.085.143.302.38.647l3.118 4.546c.242.354.414.572.513.655.103.084.238.154.401.21.165.051.35.066.553.044l.24-.025zM299.953 243.124l1.391 2.455-6.432.685-.129-.188.24-.027c.21-.021.355-.075.435-.16.059-.058.075-.147.045-.267-.017-.086-.143-.302-.38-.649l-3.119-4.545c-.242-.353-.414-.572-.513-.656s-.233-.152-.396-.203a1.265 1.265 0 00-.552-.051l-.24.025-.13-.188 3.863-.411.129.188-.316.033c-.21.023-.354.076-.434.16-.06.059-.077.148-.051.27.016.084.144.301.383.648l3.018 4.401c.243.355.418.578.53.672.107.09.24.152.398.187.11.021.336.014.678-.022l.603-.065c.385-.041.66-.14.828-.296.169-.156.25-.384.244-.682-.003-.299-.107-.728-.312-1.29l.219-.024zM344.1 241.024l-.128-.188.239-.026c.211-.022.35-.07.418-.143a.316.316 0 00.073-.286c-.017-.075-.147-.29-.392-.647l-3.117-4.545c-.242-.354-.414-.572-.513-.656s-.232-.153-.397-.203a1.263 1.263 0 00-.553-.052l-.24.025-.128-.188 3.242-.345c.866-.092 1.64-.054 2.32.113.834.208 1.606.57 2.32 1.093a7.525 7.525 0 011.799 1.837c.333.485.559.943.677 1.372.115.424.135.785.06 1.081a1.451 1.451 0 01-.463.738c-.23.195-.559.364-.99.505-.19.063-.517.12-.984.17l-3.242.345zm-1.708-6.81l3.698 5.39c.196.285.33.459.403.52a.672.672 0 00.245.133c.132.04.287.05.47.031.594-.063.915-.304.964-.725.068-.569-.275-1.403-1.03-2.503-.609-.888-1.24-1.58-1.896-2.08-.515-.389-1.006-.639-1.472-.75-.33-.078-.789-.083-1.382-.017zM339.259 239.432l-2.56.272.157.706c.054.234.13.424.231.57.132.194.312.328.539.402.134.045.4.06.794.047l.13.189-2.41.256-.129-.188c.234-.066.379-.19.432-.374.051-.188.018-.558-.097-1.111l-1.19-5.788.101-.012 6.498 5.388c.618.51 1.054.826 1.31.948.193.092.407.136.64.129l.13.189-3.505.374-.13-.19.143-.015c.283-.03.454-.089.517-.175.041-.062.026-.145-.044-.247a1.085 1.085 0 00-.16-.185c-.029-.03-.17-.152-.422-.365l-.975-.82zm-.441-.357l-2.712-2.266.522 2.499 2.19-.233zM321.605 240.044l1.328 1.936c.256.373.441.608.555.702.116.089.254.156.414.202.16.044.406.049.738.013l.13.189-3.709.395-.129-.189c.335-.036.542-.088.619-.158a.273.273 0 00.091-.262c-.016-.1-.152-.337-.408-.711l-3.075-4.484c-.257-.374-.442-.605-.557-.694-.114-.095-.252-.164-.412-.209s-.407-.05-.739-.015l-.128-.187 3.366-.359c.875-.093 1.556-.104 2.041-.031.485.072.964.25 1.435.535.468.283.846.632 1.132 1.05.35.51.445.95.29 1.325-.102.237-.338.432-.706.584l3.345 2.153c.435.278.727.45.874.514.219.09.426.129.626.119l.13.189-2.281.242-4.494-2.9-.476.051zm-2.325-3.389l2.077 3.027.305-.032c.494-.053.835-.135 1.023-.246.185-.114.27-.292.256-.53-.014-.243-.145-.546-.395-.91-.361-.526-.758-.9-1.19-1.125-.429-.224-.93-.306-1.504-.245l-.572.061zM308.615 240.876c.793.08 1.402.213 1.829.4.61.267 1.085.647 1.423 1.14.356.518.432.972.226 1.358-.255.47-.896.757-1.922.867l-3.68.392-.13-.188c.336-.036.54-.09.62-.159a.276.276 0 00.09-.261c-.016-.101-.152-.338-.408-.712l-3.076-4.484c-.256-.374-.442-.605-.556-.694a1.103 1.103 0 00-.412-.208c-.16-.045-.407-.05-.738-.015l-.13-.188 3.473-.37c.83-.088 1.466-.08 1.91.026.44.102.858.284 1.25.544.39.258.694.544.911.861.227.332.306.643.232.932-.075.284-.38.537-.912.759zm-2.04.069c.506-.054.841-.148 1.005-.282a.607.607 0 00.242-.518c-.008-.211-.116-.47-.325-.774a2.784 2.784 0 00-.706-.73 2.518 2.518 0 00-.848-.39c-.304-.077-.716-.085-1.233-.027l1.865 2.72zm.274.398l1.52 2.216.17.256c.125.183.27.317.43.401.163.082.34.111.533.091.284-.03.505-.117.662-.261.159-.148.224-.343.196-.584-.03-.245-.143-.508-.336-.79a3.394 3.394 0 00-.83-.842 2.672 2.672 0 00-1.016-.47c-.343-.073-.788-.08-1.33-.017z"/></g><g stroke-width="1pt" fill="#8c361d"><path d="M327.9 235.856l1.82 2.812.146-.015c.462-.049.707-.222.736-.52.03-.296-.102-.716-.392-1.26l.204-.02 2.343 3.617-.204.021a5.198 5.198 0 00-.9-.938c-.3-.238-.567-.389-.805-.455-.24-.069-.533-.085-.88-.048l1.26 1.947c.247.38.415.61.501.692a.963.963 0 00.33.19c.127.043.295.054.502.033l.435-.047c.679-.072 1.127-.278 1.34-.62.218-.343.219-.83 0-1.46l.2-.02 1.094 2.23-6.287.666-.121-.188.24-.026c.212-.022.358-.076.44-.16.063-.059.082-.147.058-.268-.014-.086-.134-.302-.358-.648l-2.943-4.545c-.202-.312-.335-.504-.4-.573a1.074 1.074 0 00-.377-.255 1.32 1.32 0 00-.65-.083l-.241.025-.122-.188 6.089-.645 1.323 2.043-.205.02c-.426-.488-.806-.83-1.136-1.027a3.038 3.038 0 00-1.104-.395c-.24-.04-.635-.03-1.185.028l-.752.08zM310.151 237.317l3.407-.361.308 1.37-2.864.305.172.717c1.262-.087 2.4.105 3.417.574.834.387 1.467.912 1.895 1.574.275.425.417.855.428 1.289a1.28 1.28 0 01-.466 1.052c-.32.266-.756.428-1.306.487-.594.063-1.119.006-1.572-.17-.319-.127-.54-.285-.664-.475-.095-.146-.12-.282-.079-.406.046-.124.145-.195.299-.212.14-.015.299-.002.477.037s.515.156 1.011.35c.311.12.562.198.755.236.138.03.276.036.415.021.293-.031.476-.159.548-.384.075-.226.021-.482-.163-.767-.389-.599-1.018-1.05-1.89-1.357a6.173 6.173 0 00-2.742-.307c-.099.01-.242.027-.433.05l-.953-3.623zM306.473 237.553l3.66 5.65c.274.425.47.695.586.81.115.11.257.197.431.258s.399.078.674.05l.166-.019.122.19-3.83.405-.122-.188.193-.021c.312-.032.511-.09.6-.172a.296.296 0 00.087-.308c-.031-.125-.187-.404-.469-.839l-2.32-3.582c-.207-.32-.351-.516-.434-.59a.9.9 0 00-.314-.185.755.755 0 00-.356-.055c-.182.02-.37.097-.56.233l-.216-.173 1.926-1.445.176-.019zM321.337 243.512l-.122-.188.241-.026c.212-.022.353-.07.423-.143a.33.33 0 00.086-.286c-.015-.075-.138-.29-.37-.648l-2.942-4.544c-.229-.354-.391-.573-.488-.657s-.226-.152-.39-.203a1.244 1.244 0 00-.548-.051l-.242.025-.122-.188 3.256-.345c.869-.093 1.641-.054 2.315.113.826.206 1.584.57 2.278 1.093a7.093 7.093 0 011.728 1.837c.315.485.523.943.625 1.372.1.424.105.784.018 1.081-.09.292-.253.538-.49.738-.237.195-.573.364-1.01.505-.192.063-.521.12-.99.17l-3.256.345zm-1.447-6.811l3.491 5.39c.185.286.312.46.383.521.07.062.15.105.24.133.13.04.285.05.469.031.597-.063.927-.304.991-.726.09-.568-.22-1.403-.932-2.503-.576-.887-1.18-1.58-1.818-2.079-.5-.39-.981-.64-1.443-.75-.325-.078-.786-.084-1.38-.017z"/></g><g stroke-width="1pt" fill="#8c361d"><path d="M349.082 233.477l1.96 2.812.144-.015c.459-.049.695-.222.71-.52.015-.296-.137-.716-.454-1.26l.203-.02 2.52 3.617-.202.022a5.597 5.597 0 00-.947-.94c-.31-.236-.586-.388-.827-.453-.243-.07-.537-.086-.882-.05l1.357 1.948c.264.38.443.611.535.693.094.081.207.144.337.189.13.043.298.055.504.033l.433-.047c.676-.071 1.112-.278 1.31-.62.2-.343.177-.83-.07-1.46l.197-.02 1.204 2.23-6.253.667-.133-.19.24-.025c.21-.021.354-.076.433-.16.06-.058.074-.147.043-.267-.018-.086-.147-.302-.388-.649l-3.167-4.545a6.297 6.297 0 00-.428-.573 1.158 1.158 0 00-.39-.254 1.348 1.348 0 00-.654-.084l-.24.026-.13-.188 6.056-.646 1.422 2.042-.201.022c-.452-.488-.847-.83-1.188-1.028a3.162 3.162 0 00-1.123-.395c-.242-.04-.636-.03-1.184.028l-.747.08zM328.709 240.11l-1.211-4.765 2.946-.314.131.188-.234.025c-.214.023-.36.077-.438.161-.056.058-.07.146-.047.264.018.086.147.3.386.642l3.174 4.556c.246.353.42.572.52.656.101.085.235.154.404.209.165.051.349.066.552.044l.235-.024.131.188-3.778.403-.131-.189.235-.024c.214-.024.359-.077.438-.162.055-.058.07-.146.043-.267-.018-.086-.148-.303-.388-.648l-3.568-5.122 1.617 6.6-.129.013-7.178-5.956 3.39 4.866c.238.339.392.547.465.623.164.165.361.294.59.386.23.09.51.116.84.08l.132.189-2.475.264-.132-.189.075-.008a.87.87 0 00.398-.119c.1-.069.156-.151.166-.247s-.023-.226-.094-.39a9.514 9.514 0 00-.352-.52l-3.046-4.373c-.243-.35-.415-.565-.513-.646a1.14 1.14 0 00-.4-.203 1.308 1.308 0 00-.556-.05l-.23.024-.13-.188 2.956-.315 5.206 4.338zM316.292 236.968l1.96 2.813.144-.015c.459-.05.695-.223.71-.52.015-.297-.137-.717-.452-1.26l.201-.021 2.52 3.617-.202.022a5.594 5.594 0 00-.946-.939c-.311-.237-.587-.388-.828-.454-.242-.07-.536-.085-.88-.048l1.355 1.947c.265.38.444.61.535.692.095.081.207.144.338.189.13.044.297.055.505.033l.432-.046c.675-.072 1.112-.278 1.31-.62.2-.344.177-.83-.071-1.46l.197-.021 1.205 2.23-6.254.667-.131-.188.239-.026c.21-.022.354-.076.432-.161.06-.058.075-.146.044-.267-.018-.086-.148-.302-.389-.649l-3.167-4.544a6.366 6.366 0 00-.427-.574 1.158 1.158 0 00-.39-.254 1.35 1.35 0 00-.655-.083l-.24.025-.13-.188 6.056-.646 1.424 2.043-.203.021c-.452-.488-.847-.83-1.187-1.028a3.181 3.181 0 00-1.123-.394c-.242-.04-.637-.031-1.185.028l-.747.08zM317.466 243.636l.131.189-3.782.403-.132-.189.24-.025c.21-.023.354-.076.432-.161.06-.058.075-.146.043-.268-.017-.086-.147-.302-.388-.647l-3.167-4.546c-.246-.353-.419-.572-.52-.656a1.147 1.147 0 00-.4-.203 1.277 1.277 0 00-.552-.052l-.24.025-.13-.187 3.782-.403.13.187-.24.026c-.21.022-.353.076-.431.161-.06.058-.075.147-.048.268.017.086.147.303.388.648l3.167 4.546c.246.353.42.571.52.655.104.084.24.154.404.21.166.051.35.066.552.044l.24-.025zM308.394 237.388l1.303 1.87-.192.02c-.414-.419-.757-.716-1.026-.887a3.118 3.118 0 00-.887-.393c-.177-.046-.435-.052-.773-.016l-.539.058 3.714 5.33c.246.353.42.572.52.655.105.085.239.154.404.21.165.05.352.066.558.044l.24-.025.131.188-3.788.404-.131-.19.239-.024c.211-.022.354-.077.433-.161.06-.058.077-.147.049-.268-.018-.086-.148-.302-.389-.648l-3.713-5.33-.524.056c-.487.052-.772.188-.857.408-.116.308-.039.721.235 1.24l-.204.021-1.302-1.869 6.5-.693zM290.781 239.69l1.96 2.812.144-.015c.459-.05.696-.222.71-.52.015-.296-.136-.716-.452-1.259l.201-.022 2.521 3.617-.202.022a5.594 5.594 0 00-.946-.939c-.311-.237-.587-.388-.827-.454-.244-.069-.537-.085-.883-.048l1.357 1.947c.265.38.444.61.534.692.095.082.207.145.339.19.129.043.298.054.504.032l.432-.046c.676-.072 1.114-.278 1.31-.62.2-.343.177-.83-.07-1.46l.197-.02 1.204 2.23-6.254.666-.13-.188.239-.026c.21-.022.354-.076.432-.161.06-.058.074-.146.044-.267-.018-.086-.147-.302-.39-.648l-3.166-4.545a6.366 6.366 0 00-.428-.573 1.158 1.158 0 00-.39-.255c-.2-.08-.42-.108-.653-.083l-.241.025-.131-.188 6.056-.646 1.424 2.044-.203.02c-.452-.488-.847-.83-1.187-1.027a3.181 3.181 0 00-1.123-.395c-.241-.04-.637-.03-1.184.028l-.748.08zM286.472 239.55l1.662 2.296-.218.023a5.406 5.406 0 00-1.732-1.309c-.648-.31-1.207-.44-1.678-.391-.362.04-.585.164-.669.374-.081.205-.039.428.13.67.106.153.237.284.396.395.214.148.49.29.826.421.245.095.77.252 1.573.473 1.124.307 1.958.622 2.499.943.537.322.964.71 1.281 1.166.403.578.512 1.1.332 1.57-.182.463-.635.734-1.361.811a3.382 3.382 0 01-.692.003 7.729 7.729 0 01-.936-.168 1.65 1.65 0 00-.494-.057.303.303 0 00-.222.133c-.055.079-.066.192-.033.339l-.198.02-1.818-2.609.198-.02c.667.716 1.359 1.245 2.072 1.584.717.337 1.332.477 1.848.422.398-.043.643-.18.734-.412.094-.232.044-.487-.148-.762a1.954 1.954 0 00-.468-.459 3.445 3.445 0 00-.713-.39c-.28-.118-.735-.264-1.357-.434-.875-.24-1.53-.452-1.97-.638a5.887 5.887 0 01-1.175-.658 3.747 3.747 0 01-.848-.863c-.383-.55-.498-1.041-.344-1.473.153-.433.552-.684 1.196-.752.235-.025.481-.023.74.009.196.023.45.077.768.163.318.084.524.12.62.11.092-.01.146-.045.162-.105.016-.06-.026-.196-.124-.408l.16-.017zM300.407 242.306l1.334 1.915c.261.375.448.608.563.702.117.09.254.157.417.202.164.044.41.05.737.014l.131.19-3.676.391-.132-.189c.336-.036.542-.088.618-.158a.272.272 0 00.088-.262c-.016-.1-.156-.338-.415-.711l-3.125-4.484c-.26-.374-.448-.605-.564-.695-.116-.094-.254-.163-.415-.208s-.407-.05-.739-.015l-.13-.187 3.153-.337c1.04-.11 1.907-.013 2.605.291.698.306 1.232.723 1.6 1.253.313.449.435.848.366 1.198-.068.35-.32.611-.751.78-.289.119-.844.222-1.665.31zm-2.357-3.383l2.08 2.986c.122-.007.213-.012.274-.019.434-.046.683-.205.747-.473.063-.273-.087-.669-.447-1.184-.357-.514-.736-.877-1.136-1.089a2.21 2.21 0 00-1.3-.245l-.218.024zM337.763 237.738c.792.08 1.405.214 1.833.402.613.266 1.092.646 1.436 1.138.361.52.442.972.241 1.36-.25.468-.888.756-1.912.865l-3.676.392-.133-.188c.335-.036.54-.089.619-.158a.27.27 0 00.086-.262c-.016-.1-.154-.337-.415-.711l-3.124-4.485c-.261-.373-.449-.604-.565-.693a1.106 1.106 0 00-.414-.209c-.16-.044-.408-.05-.738-.015l-.13-.188 3.467-.369c.828-.088 1.466-.08 1.91.025.442.103.86.285 1.255.545.395.258.701.544.921.86.232.332.314.644.243.933-.073.284-.374.537-.904.758zm-2.038.07c.505-.054.839-.149 1.001-.282a.602.602 0 00.235-.518c-.01-.211-.12-.47-.332-.775a2.832 2.832 0 00-.715-.729 2.553 2.553 0 00-.85-.39c-.307-.077-.718-.086-1.235-.027l1.896 2.72zm.277.397l1.545 2.217.171.255c.128.183.274.318.435.402.164.081.341.111.534.091.284-.03.504-.117.66-.262.156-.147.22-.343.189-.583-.033-.245-.147-.509-.344-.79a3.467 3.467 0 00-.839-.842 2.716 2.716 0 00-1.022-.47c-.344-.074-.788-.08-1.329-.018zM343.45 237.686l1.349 1.936c.26.374.448.607.563.701.116.09.255.157.416.202.16.045.406.05.738.014l.132.19-3.704.394-.132-.19c.335-.034.54-.088.618-.158a.272.272 0 00.088-.261c-.018-.1-.155-.337-.415-.712l-3.125-4.483c-.26-.374-.449-.605-.564-.695a1.114 1.114 0 00-.415-.207c-.16-.045-.408-.05-.738-.015l-.132-.188 3.362-.36c.877-.092 1.557-.103 2.043-.03s.966.25 1.44.535a3.66 3.66 0 011.143 1.05c.355.51.456.951.305 1.325-.1.237-.333.431-.7.583l3.37 2.155c.437.277.73.449.878.512.22.09.428.13.627.12l.132.188-2.278.244-4.526-2.901-.475.05zm-2.362-3.39l2.11 3.028.305-.032c.494-.053.833-.135 1.02-.247.184-.114.267-.29.25-.53-.016-.242-.151-.545-.404-.908-.368-.527-.768-.902-1.203-1.126-.43-.224-.933-.306-1.507-.245l-.57.06z"/></g><g stroke-width="1pt" fill="#8c361d"><path d="M337.078 234.465l2.662 5.65c.2.425.35.694.444.809a.912.912 0 00.386.259c.163.062.385.078.665.049l.17-.018.089.189-3.902.406-.09-.189.197-.02c.318-.033.527-.09.631-.172a.348.348 0 00.14-.309c-.007-.124-.115-.403-.32-.838l-1.688-3.583c-.15-.319-.26-.515-.33-.59a.713.713 0 00-.28-.184.68.68 0 00-.348-.055 1.41 1.41 0 00-.601.233l-.185-.174 2.18-1.444.18-.02zM335.79 241.99l-4.36.455-.052-.113c.637-1.623.978-2.707 1.02-3.25a2.984 2.984 0 00-.277-1.547 1.945 1.945 0 00-.773-.85c-.35-.213-.694-.302-1.037-.267-.56.06-.873.366-.936.922l-.234-.046c-.11-.672-.038-1.185.215-1.54.254-.354.643-.558 1.167-.613a2.67 2.67 0 011.143.137c.385.13.734.33 1.043.597.307.263.52.52.637.767.213.453.294.925.244 1.418-.072.668-.462 1.628-1.171 2.881l1.602-.167c.393-.04.64-.083.742-.126a.417.417 0 00.223-.183c.042-.083.07-.247.083-.495l.197-.02.525 2.04zM320.291 236.215l2.662 5.65c.2.425.349.694.444.809a.909.909 0 00.387.259c.162.062.383.078.664.049l.17-.018.089.189-3.902.406-.089-.189.196-.02c.317-.033.527-.09.63-.172a.348.348 0 00.142-.309c-.009-.124-.116-.403-.32-.837l-1.688-3.583c-.15-.32-.26-.516-.33-.591a.714.714 0 00-.282-.184.68.68 0 00-.347-.055c-.186.02-.387.096-.602.233l-.183-.174 2.179-1.444.18-.02zM309.68 237.886l1.325 2.812.148-.016c.47-.049.746-.221.826-.518.083-.297.025-.718-.169-1.26l.209-.022 1.704 3.618-.208.022a3.984 3.984 0 00-.735-.94c-.256-.236-.498-.389-.723-.453-.229-.07-.52-.086-.872-.05l.917 1.948c.18.38.305.611.378.693a.776.776 0 00.295.189c.121.043.287.055.498.033l.443-.047c.691-.072 1.175-.278 1.45-.62.278-.343.365-.83.258-1.46l.203-.02.7 2.23-6.404.667-.089-.19.246-.025c.215-.022.371-.076.468-.16.073-.058.108-.147.104-.268.002-.086-.08-.301-.242-.648l-2.142-4.546c-.147-.311-.246-.503-.298-.572a.847.847 0 00-.332-.255 1.244 1.244 0 00-.636-.084l-.246.027-.088-.188 6.203-.646.962 2.042-.208.022c-.34-.488-.66-.83-.955-1.028a2.551 2.551 0 00-1.034-.395c-.233-.04-.63-.03-1.19.028l-.766.08zM301.767 245.542l-.09-.189.247-.025c.215-.022.364-.07.448-.143a.385.385 0 00.135-.287c0-.074-.085-.29-.254-.646l-2.141-4.545c-.166-.354-.29-.572-.372-.657a.875.875 0 00-.354-.203 1.208 1.208 0 00-.54-.052l-.246.026-.089-.188 3.318-.346c.885-.091 1.65-.054 2.295.114a5.1 5.1 0 012.084 1.093 5.496 5.496 0 011.405 1.837c.229.485.356.942.382 1.37.025.425-.033.787-.172 1.083a1.974 1.974 0 01-.621.738c-.27.195-.636.364-1.098.505-.203.063-.544.12-1.02.17l-3.317.345zm-.246-6.81l2.54 5.39c.134.285.232.459.291.52.06.062.132.106.217.132.123.041.276.052.463.032.608-.064.981-.304 1.12-.726.19-.568.027-1.403-.493-2.503-.417-.887-.9-1.579-1.45-2.078-.43-.39-.868-.641-1.31-.751-.312-.079-.77-.083-1.378-.017zM327.532 238.76c.689.303 1.206.599 1.552.886.349.285.616.626.804 1.023.262.558.26 1.054-.011 1.488-.267.43-.787.685-1.56.765-.732.077-1.377-.032-1.937-.327-.558-.295-.952-.684-1.181-1.17-.175-.37-.212-.707-.114-1.009.1-.303.367-.597.797-.885-.783-.357-1.32-.659-1.613-.907a2.667 2.667 0 01-.68-.896c-.219-.463-.2-.89.054-1.283.255-.398.75-.635 1.483-.71.707-.074 1.323.025 1.849.298.528.27.894.622 1.1 1.057.154.326.186.625.096.898-.087.269-.3.527-.639.773zm-.539-.216a1.36 1.36 0 00.034-.602 2.606 2.606 0 00-.23-.703c-.208-.442-.468-.77-.783-.982a1.106 1.106 0 00-.761-.204c-.244.025-.413.13-.506.314-.093.181-.084.394.031.638.117.248.333.496.65.745.318.245.84.51 1.565.794zm-.586 1.189a.694.694 0 00-.117.284c-.017.127-.001.308.048.541.049.233.132.474.249.722.15.32.32.584.51.792.188.205.384.346.59.425.21.077.4.108.57.09.266-.028.447-.141.545-.34.095-.203.069-.462-.08-.778-.31-.659-1.082-1.237-2.315-1.736z"/></g></svg>