<svg xmlns="http://www.w3.org/2000/svg" height="480" width="640"><path fill-rule="evenodd" fill="#be0027" d="M0 0h640v480H0z"/><path fill-rule="evenodd" fill="#3b5aa3" d="M25.6 27.343h589.54v428.37H25.6z"/><path d="M314.345 413.235c2.423 1.33 6.257 1.259 8.414.105 137.79-73.301 137.87-274.325.2-346.592-2.556-1.348-6.274-1.275-8.815.104-134.27 73.46-134.63 272.206.2 346.393z" fill-rule="evenodd" fill="#cbe0e5"/><path d="M314.345 416.861c2.142 1.747 6.462 1.58 8.414.105 101.54-76.021 102.135-123.409 97.635-123.407l-200.965.104c-3.072.003 1.771 48.107 94.915 123.198z" fill-rule="evenodd" fill="#add2d9"/><path d="M235.345 331.223c8.713-2.267 19.238-2.866 27.813 1.715 7.618 3.981 12.032 3.942 20.24 4.051 8.59.116 15.344 6.428 24.633 6.675 17.103.448 24.31 8.929 11.013 8.946-6.286.01-19.76-4.189-26.262-3.287-13.587 1.402-22.209 4.41-34.994 18.632l14.777 10.125c12.782-5.209 14.924-11.069 22.002-11.303 7.996-.257 10.713-5.21 19.959-5.222 10.506 1.91 24.735-1.304 33.07-3.171 14.784-3.438 7.752-13.769-1.21-17.515-7.245-3.084-20.808-.113-29.23-3.173-6.376-2.475-1.13-6.454 2.292-7.304 3.46-.638 7.171.494 11.474 1.186 7.681.664 17.329-.074 24.073-1.131 13.944-2.16 13.356-6.25 20.09-6.358 4.91-.236 8.647-1.704 11.99-4.107 3.932-2.632 8.02-8.026 12.785-7.823l12.755.541-17.966 40.405-50.755 51.662-26.286 9.97-57.78-37.613-29.136-44.69 4.654-1.21z" fill-rule="evenodd" fill="#fdf9a1"/><path d="M301.747 291.937l116.016-.54 2.04-10.28s-4.14-.617-7.479-.813c-4.165-.255-11.305 4.357-16.088 4.329-3.383-.024-7.26-6.079-10.647-5.953-5.913-.055-6.44 5.267-12.011 5.413-4.497-.154-6.413-3.588-12.236-3.247-6.107.345-5.652 3.706-13.367 3.515-10.189-.255-14.281-9.097-22.433-9.196-13.607-.162-14.051 12.985-23.795 16.771z" fill-rule="evenodd" fill="#179a3b"/><path d="M301.747 294.416l119.414-.608v-3.244l-122.13.608 2.716 3.244z" fill-rule="evenodd" fill="#fdf9a1"/><path d="M350.818 330.303c1.84 7.053 3.779 9.451 11.196 11.249 7.326 1.802 18.502-5.34 11.557-12.236-6.614-6.415-13.563-8.044-19.488-13.821-12.469-12.32-31.255-42.502-31.273-63.788-.015-18.28-1.778-55.797-1.79-91.332.009-2.302-6.944 6.456-6.933 8.796.319 31.349.27 55.042 1.544 86.654 1.974 23.108 13.002 38.668 22.684 52.712 4.338 6.73 10.608 13.987 12.502 21.767z" fill-rule="evenodd" fill="#a79270"/><text font-family="helvetica" font-size="25.614" stroke="#fff" y="269.487" x="465.114" stroke-width="1.638" fill="#bd0728" transform="translate(-363.07 -108.06) scale(1.3331)"><tspan>G</tspan></text><text font-family="helvetica" font-size="25.614" stroke="#fff" y="269.607" x="488.065" stroke-width="1.638" fill="#bd0728" transform="translate(-363.07 -108.06) scale(1.3331)"><tspan>U</tspan></text><text font-family="helvetica" font-size="25.614" stroke="#fff" y="269.59" x="516.053" stroke-width="1.638" fill="#bd0728" transform="translate(-363.07 -108.06) scale(1.3331)"><tspan>A</tspan></text><text font-family="helvetica" font-size="25.614" stroke="#fff" y="269.542" x="539.532" stroke-width="1.638" fill="#bd0728" transform="translate(-363.07 -108.06) scale(1.3331)"><tspan>M</tspan></text><path d="M261.074 161.52c-1.544 2.979 3.615-.87 4.783-1.285 6.686-2.378 9.305-10.824 20.822-5.74 9.066 3.916 21.236 1.64 14.875 5.607-7.861 4.705-23.517 9.918-23.825 33.254 1.308 2.283 1.402 1.922 2.496-.524 2.379-5.439 13.726-20.21 19.34-18.98 2.261.585 8.899-6.675 9.054-4.603.6 5.828-9.014 17.616-8.911 33.396.024 3.654 4.519 4.838 6.685 2.267 2.154-2.267 3.366-4.61 7.138-7.59 6.668-5.471 4.827-28.676 5.65-27.586 4.72 6.112 5.446 23.347 12.476 30.416 5.843 5.876 10.567 3.062 9.292-5.097-2.538-16.358-10.27-11.681-13.95-28.6-.747-3.295-.93-6.272 3.431-4.894 5.334 1.546 8.464 4.023 12.444 10.04 3.977 5.738 11.436 11.238 15.748 14.615 7.52 5.78 10.16.734 6.572-6.683-3.973-8.322-12.928-15.222-21.073-18.24-6.17-2.131-8.37-2.335-13.805-3.379-1.512-.32-3.073-3.416-.387-5.126 5.758-3.518 12.646-7.494 19.631-7.695 6.725-.17 12.053 5.22 16.768 6.57 9.405 2.466 9.357-3.503 5.212-7.93-3.406-3.74-10.609-10.008-17.333-9.176-13.569 1.665-12.712 1.284-21.035 6.806-3.054 1.8-6.444 3.785-5.179 1.603 3.045-5.478.208-4.536 4.912-10.11 3.659-4.085 6.345-7.025 9.97-8.045 3.445-.83 7.995-4.488 9.404-6.345 3.379-4.674.465-7.343-4.757-5.777-4.533 1.247-6.97 4.264-10.085 5.098-7.308 2.302-13.205 19.022-14.105 21.39-1.164 2.83-2.453 1.427-2.215-.969 1.055-11.805 2.053-31.57-2.116-39.708-6.275-11.998-5.694-6.403-8.103-.71-3.628 9.045-2.368 17.476-.084 26.341.999 4.425 4.705 9.46 5.37 12.933.477 2.728-1.584-.85-2.783-2.486-3.94-6.03-6.822-10.108-13.239-13.39-4.383-2.777-16.193-3.15-20.304-1.886-1.78.549 1.974 3.089 3.565 4.351 4.302 3.42 12.456 4.486 17.942 7.859 4.71 2.896 8.297 4.76 9.859 8.763.65 2.972 1.616 7.384-.343 7.277-5.14-.295-13.127-4.742-29.525-2.913-8.374 1.107-15.646 8.271-20.28 16.88z" fill-rule="evenodd" fill="#239e46"/><path fill-rule="evenodd" d="M296.815 311.533h4.757v7.93h-4.757z"/><path d="M273.192 258.702c18.869 26.128 49.113 41.36 49.718 53.226-19.109-.077-39.821.01-58.931-.066 13.539-16.278 21.79-27.268 9.213-53.16z" fill-rule="evenodd" fill="#fdf9ff"/><path d="M256.035 312.52c25.635 5.716 56.24 8.865 75.788-.8.16 5.714-6.356 13.94-11.698 13.94h-49.189c5.714-.82 8.973-2.563 18.269-3.045l-26.116.32c-2.885.108-8.013-7.64-7.052-10.416z" fill-rule="evenodd" fill="#a68861"/><path d="M314.171 426.3c2.606 1.428 6.725 1.352 9.045.113 148.107-78.832 148.187-295.015.216-372.748-2.75-1.449-6.744-1.37-9.477.113-144.321 79.002-144.708 292.735.216 372.521zm.737-17.797c2.275 1.26 5.87 1.195 7.895.098 123.975-72.962 125.493-265.713.188-334.808-2.398-1.761-5.886-1.21-8.271.1-118.736 70.216-125.357 255.021.188 334.608z" fill-rule="evenodd" fill="#be0027"/><text font-size="25.614" y="269.487" x="465.114" font-family="helvetica" fill="#bd0728" transform="translate(-363.07 -108.06) scale(1.3331)"><tspan>G</tspan></text><text font-size="25.614" y="269.607" x="488.065" font-family="helvetica" fill="#bd0728" transform="translate(-363.07 -108.06) scale(1.3331)"><tspan>U</tspan></text><text font-size="25.614" y="269.59" x="516.053" font-family="helvetica" fill="#bd0728" transform="translate(-363.07 -108.06) scale(1.3331)"><tspan>A</tspan></text><text font-size="25.614" y="269.542" x="539.532" font-family="helvetica" fill="#bd0728" transform="translate(-363.07 -108.06) scale(1.3331)"><tspan>M</tspan></text></svg>