<svg xmlns="http://www.w3.org/2000/svg" height="480" width="640" version="1"><defs><clipPath id="a" clipPathUnits="userSpaceOnUse"><path fill-opacity=".67" d="M-89.048 0h682.67v512h-682.67z"/></clipPath></defs><g clip-path="url(#a)" transform="translate(83.483) scale(.9375)"><path fill-rule="evenodd" fill="#ba0000" d="M618 512h-731.43V0H618z"/><path d="M241.874 247.803s-51.62-22.226-44.213-79.817c7.171-27.723 19.836-46.602 42.778-56.878 10.754-3.346 21.749-4.78 32.98-5.736-2.948 2.788-5.416 5.577-6.69 9.082-2.471 6.293-.639 12.347 2.627 18.4 4.142 7.011 6.61 14.26 7.408 23.66 1.513 13.223-4.142 25.97-14.578 33.697-6.612 5.098-14.418 6.85-20.792 12.666-4.938 4.86-7.965 9.72-9.08 18.162-.16 16.092 4.223 18.323 9.56 26.767z" fill-rule="evenodd" fill="#fff"/><path d="M232.076 164.476v-.238" fill-rule="evenodd" stroke="#000" stroke-width="2.1516261599999997" fill="#ba0000"/><path d="M235.337 241.823c-20.078-17.766-18.323-62.45-3.027-77.347" stroke="#ba0000" stroke-width="2.1516261599999997" fill="none"/><path fill-rule="evenodd" fill="#ba0000" d="M244.634 154.479l3.299 5.519-6.12-2.493-4.573 4.91.799-6.445-6.125-2.484 6.614-1.49.787-6.446 3.289 5.525 6.61-1.5z"/><path d="M246.26 243.992s6.125-55.866 63.36-65.66c28.607-1.267 50.368 5.31 66.916 24.234 6.35 9.302 10.942 19.393 15.147 29.852-3.53-2.002-6.918-3.545-10.643-3.736-6.74-.518-11.992 3.008-16.824 7.904-5.488 6.015-11.696 10.498-20.45 14.015-12.2 5.322-26.044 3.65-36.49-4.064-6.811-4.828-10.774-11.777-18.201-16.168-6.094-3.297-11.628-4.767-20.027-3.36-15.432 4.563-16.28 9.407-22.79 16.984z" fill-rule="evenodd" fill="#fff"/><path d="M323.059 210.208l.228-.07" fill-rule="evenodd" stroke="#000" stroke-width="2.1516261599999997" fill="#ba0000"/><path d="M250.062 235.99c11.104-24.402 54.34-35.818 73.066-25.559" stroke="#ba0000" stroke-width="2.1516261599999997" fill="none"/><path fill-rule="evenodd" fill="#ba0000" d="M336.298 219.285l-4.31 4.771.59-6.582-6.035-2.933 6.396-1.124.581-6.584 3.362 5.887 6.393-1.137-4.318 4.764 3.372 5.881z"/><g><path d="M250.118 248.027s54.919-11.935 82.382 39.225c10.287 26.723 10.962 49.447-1.727 71.148-6.803 8.975-14.914 16.535-23.495 23.844.777-3.983 1.164-7.687.162-11.28-1.65-6.555-6.66-10.415-12.838-13.441-7.446-3.295-13.67-7.757-19.784-14.94-8.92-9.878-11.732-23.537-7.736-35.891 2.415-7.993 7.747-13.957 9.55-22.394 1.192-6.826.828-12.54-3.174-20.057-9.227-13.184-14.09-12.45-23.342-16.216z" fill-rule="evenodd" fill="#fff"/><path d="M306.543 310.119l.14.194" fill-rule="evenodd" stroke="#000" stroke-width="2.1516261599999997" fill="#ba0000"/><path d="M258.913 249.09c26.665 2.779 51.221 40.151 47.44 61.165" stroke="#ba0000" stroke-width="2.1516261599999997" fill="none"/><path fill-rule="evenodd" fill="#ba0000" d="M302.14 325.555l-5.893-2.572 6.43-1.53.864-6.654 3.097 5.707 6.428-1.54-4.515 5.058 3.109 5.701-5.888-2.581-4.507 5.064z"/></g><g><path d="M248.881 253.69s26.879 49.358-14.51 90.083c-22.76 17.379-44.38 24.407-68.77 18.323-10.525-4.009-20.058-9.67-29.483-15.853 4.04-.373 7.704-1.042 10.87-3.012 5.83-3.424 8.127-9.318 9.297-16.096 1.07-8.072 3.605-15.298 8.782-23.184 6.975-11.336 19.295-17.87 32.275-17.504 8.349.074 15.57 3.515 24.175 2.877 6.885-.773 12.267-2.727 18.358-8.679 10.062-12.558 7.992-17.02 9.008-26.957z" fill-rule="evenodd" fill="#fff"/><path d="M205.134 325.283l-.147.188" fill-rule="evenodd" stroke="#000" stroke-width="2.1516261599999997" fill="#ba0000"/><path d="M250.33 262.43c4.823 26.373-24.15 60.436-45.38 62.708" stroke="#ba0000" stroke-width="2.1516261599999997" fill="none"/><path fill-rule="evenodd" fill="#ba0000" d="M189.083 325.392l.813-6.378 3.275 5.74 6.628-1.039-4.608 4.576 3.283 5.736-6.121-2.912-4.6 4.584.825-6.376-6.127-2.902z"/></g><g><path d="M242.792 252.62s-37.622 41.75-89.786 16.245c-23.953-15.692-37.766-33.748-40.131-58.774.284-11.26 2.455-22.132 5.156-33.075 1.694 3.686 3.542 6.92 6.453 9.252 5.166 4.36 11.489 4.568 18.27 3.42 7.97-1.673 15.627-1.683 24.785.58 13.01 2.813 23.265 12.261 27.233 24.625 2.705 7.899 1.858 15.854 5.319 23.757 3.017 6.237 6.648 10.664 14.285 14.431 15.188 5.318 18.709 1.884 28.419-.46z" fill-rule="evenodd" fill="#fff"/><path d="M160.732 235.146l-.226-.076" fill-rule="evenodd" stroke="#000" stroke-width="2.1516261599999997" fill="#ba0000"/><path d="M235.03 256.891c-23.271 13.311-65.026-2.697-74.223-21.966" stroke="#ba0000" stroke-width="2.1516261599999997" fill="none"/><path fill-rule="evenodd" fill="#ba0000" d="M155.296 220.043l6.286-1.352-4.327 4.996 3.183 5.907-5.847-2.826-4.32 5.002.713-6.741-5.852-2.815 6.288-1.341.702-6.743z"/></g></g></svg>