<svg xmlns="http://www.w3.org/2000/svg" height="480" width="640" version="1"><g stroke-width="1pt"><path fill="#006" d="M0 0h640v480H0z"/><path d="M0 0v30.59l372.58 243.023h46.898v-30.59L46.898.001H0zm419.478 0v30.59L46.898 273.612H0v-30.59L372.58 0h46.898z" fill="#fff"/><path d="M174.782 0v273.612h69.913V0h-69.913zM0 91.204v91.204h419.478V91.204H0z" fill="#fff"/><path d="M0 109.445v54.722h419.478v-54.722H0zM188.765 0v273.612h41.948V0h-41.948zM0 273.612l139.826-91.204h31.265L31.265 273.612H0zM0 0l139.826 91.204h-31.265L0 20.394V0zm248.387 91.204L388.213 0h31.265L279.652 91.204h-31.265zm171.091 182.408l-139.826-91.204h31.265l108.561 70.81v20.394z" fill="#c00"/><path fill-rule="evenodd" fill="#fff" d="M125.512 416.481l-27.478-2.39 23.717-14.076-15.26-22.972 25.79 9.766 8.447-26.257 8.447 26.257 25.79-9.766-15.26 22.972 23.716 14.077-27.478 2.39 3.786 27.321-19.001-19.994-19.002 19.994z"/><g fill-rule="evenodd" fill="#fff"><path d="M492.164 445.697l-19.346-1.684 16.698-9.913-10.748-16.173 18.165 6.877 5.943-18.49 5.943 18.49 18.165-6.877-10.748 16.173 16.698 9.913-19.346 1.684 2.67 19.23-13.382-14.072-13.382 14.073zM492.164 157.92l-19.346-1.683 16.698-9.912-10.748-16.175 18.165 6.878 5.943-18.487 5.943 18.487 18.165-6.878-10.748 16.175 16.698 9.912-19.346 1.684 2.67 19.23-13.382-14.072-13.382 14.073zM384.248 274.83l-19.346-1.684 16.698-9.913-10.748-16.173 18.165 6.877 5.943-18.49 5.943 18.49 18.165-6.877-10.748 16.173 16.698 9.913-19.346 1.684 2.67 19.23-13.382-14.072-13.382 14.073zM588.058 246.052l-19.317-1.683 16.727-9.914-10.77-16.173 18.18 6.878 5.9-18.49 5.97 18.49 18.13-6.878-10.72 16.173 16.692 9.914-19.353 1.683 2.662 19.231-13.382-14.072-13.381 14.072zM563.15 305.694l-9.503 8.022 2.971 12.08-10.576-6.555-10.575 6.554 2.97-12.08-9.503-8.021 12.41-.914 4.698-11.518 4.698 11.518z"/></g></g></svg>