<svg xmlns="http://www.w3.org/2000/svg" viewBox="0 0 512 512" height="480" width="640" version="1"><defs><clipPath id="a" clipPathUnits="userSpaceOnUse"><path fill-opacity=".67" d="M-85.333 0h682.67v512h-682.67z"/></clipPath></defs><g clip-path="url(#a)" fill-rule="evenodd" stroke-width="1pt"><path fill="#fff" d="M-226.62 139.08h993.54v216.28h-993.54z"/><path fill="#087bce" d="M765.11 512h-989.67V339.13h989.67zM767.53 168.1h-994.15V0h994.15zM259.307 260.719l-19.629-13.515 24.443-.096 7.787-22.082 7.28 22.009 24.444-.136-19.944 13.7 7.318 22-19.607-13.541-19.92 13.73zM402.25 297.519l-19.628-13.515 24.443-.096 7.787-22.082 7.28 22.009 24.444-.136-19.944 13.7 7.318 22-19.607-13.541-19.92 13.73zM402.25 221.089l-19.628-13.515 24.443-.096 7.787-22.082 7.28 22.009 24.444-.136-19.944 13.7 7.318 22-19.607-13.541-19.92 13.73zM86.638 297.519l-19.629-13.515 24.443-.096 7.787-22.082 7.28 22.009 24.444-.136-19.944 13.7 7.318 22-19.607-13.541-19.92 13.73zM86.638 221.089l-19.629-13.515 24.443-.096 7.787-22.082 7.28 22.009 24.444-.136-19.944 13.7 7.318 22-19.607-13.541-19.92 13.73z"/></g></svg>