<svg xmlns="http://www.w3.org/2000/svg" height="480" width="640" version="1"><defs><clipPath id="a" clipPathUnits="userSpaceOnUse"><path fill-opacity=".67" d="M0 0h640v480H0z"/></clipPath></defs><g clip-path="url(#a)"><path fill-rule="evenodd" fill="#fff" d="M-148.86 135.66h936.34v170.15h-936.34z"/><path fill-rule="evenodd" fill="#003e9f" d="M-148.01 289.76h938.16V480h-938.16z"/><path fill-rule="evenodd" fill="#d61517" d="M-150.15 0h939.68v159.51h-939.68z"/><g transform="translate(-78.769 -50.054) scale(1.2446)"><path d="M242.64 155.17c24.536-8.728 51.74-13.437 78.329-13.504 26.589-.067 53.705 4.105 80.499 13.706l19.944-40.235-14.018-24.419s-25.011 10.273-25.216 10.273c-.205 0-17.635-19.182-17.635-19.182l-22.39 13.523-21.01-16.073-19.78 15.825-23.08-13.34-16.83 20.008-25.24-10.792-13.51 24.195 19.932 40.015z" fill-rule="evenodd" stroke="#e5141d" stroke-linecap="round" stroke-width="1.066" fill="#fff"/><path d="M370.5 144.01l11.42-40.371 24.457-9.925 12.885 21.634-18.5 37.839c-10.634-4.249-16.331-6.07-30.263-9.177z" fill-rule="evenodd" stroke="#0084fd" stroke-width=".355" fill="#00a7bd"/><path d="M273.69 144.11l-10.675-39.69 16.061-19.712 22.854 13.194 3.857 41.721c-11.167.829-19.238 1.89-32.098 4.487z" fill="none"/><path d="M306.1 139.64l-3.857-41.811 19.437-15.45 20.307 15.412-3.589 41.886c-11.189-.592-19.18-.574-32.298-.038z" fill-rule="evenodd" stroke="#0084fd" stroke-width=".355" fill="#00a7bd"/><path d="M243.61 153.16l-18.117-38.322 12.108-21.155 25.099 10.924 10.605 39.535c-11.46 2.37-17.528 4.306-29.695 9.017z" stroke-opacity=".996" fill-rule="evenodd" stroke="#0084fd" stroke-width=".355" fill="#00a7bd"/><path d="M237.97 131.93c5.705 1.155 9.77 1.196 14.885-.206 6.111-2.503 8.27-5.872 10.26-8.58.925 5.72-.042 10.904-7.022 14.562-6.266 2.887-14.717 1.072-18.123-5.775z" fill-rule="evenodd" stroke="#fff" stroke-width=".355" fill="#fff"/><g stroke-width="1pt" transform="matrix(.26911 0 0 .26401 215.86 72.486)"><path d="M410.94 120.56l-4.063 1.016.156 7.5-5 1.094-3.497 6.614 2.159 2.044c.111.221-1.703 4.892-1.625 4.892s1.323 1.762 1.323 1.762l1.328 4.063 3.359.468.86 4.766 5.312.859 4.922 3.516.312 2.188 5.625.156 3.829 1.25 13.359-1.563 1.797-2.812.156-3.828 7.188-.235.657-6.105h3.809l-.474-6.875 3.177.286-.82-3.295-1.975-2.683-.39-4.218-5.625-5.625-1.25-7.344s-3.594-1.641-3.594-1.719-.234-4.922-.234-4.922l4.062-5.703-.39-2.265-3.75-.079-2.813 2.344s-3.75.391-3.75.469v1.719s.938 3.203.938 3.281-4.297 0-4.297 0l-.157-5.078-6.093-3.047s-5.703 3.906-5.703 3.984-.313 4.532-.313 4.532l-2.734.781-2.813-4.219-4.922-1.875-2.656-.156-.078 3.281 5.156 6.797-.468 3.984z" stroke-opacity=".996" fill-rule="evenodd" fill-opacity=".996" stroke="#544b20" fill="#faf703"/><path d="M449.23 148.04l-1.105-4.088M452.33 141.3l-1.878-2.762" stroke="#544b20" fill="none"/><path d="M400.84 138.21l5.856-.332 1.105 5.303 1.988 1.768.332 9.723 1.878.773.553-3.867 4.53-.331.883 7.844-1.104.995.442 1.215 5.413-.11s1.216-2.1 1.326-2.1c.111 0 3.094-.331 3.094-.221 0 .111 1.215 2.321 1.215 2.321l.884-2.984s2.873-1.215 2.873-1.104c0 .11 2.32 3.756 2.32 3.756l3.977-.552-2.43-2.32-.995-5.083 5.524-2.983 2.21 3.757s2.099.11 1.989 0c-.111-.111-2.431-4.309-2.431-4.309v-8.839l4.199-5.745 5.855-.663v-2.431l-5.855-5.414-1.547-7.513-3.315-1.657-.884.994-3.646.332 3.646 5.414v3.535l1.658.884-.332 9.723s-4.088.552-4.088.663c0 .11-.331 5.413-.331 5.413l-2.541 2.542s-1.437 5.082-1.547 5.082c-.111 0-2.431 3.093-2.431 3.093l-4.53.111s-2.651-2.541-2.651-2.652c0-.11-.442-3.756-.442-3.756s-1.768-.553-1.879-.553c-.11 0-.994-4.088-.994-4.088l-3.094-1.767-.22-2.431-2.984-1.326s-.331-2.21-.442-2.32c-.11-.111-1.436-.994-1.546-.994-.111 0-.111-6.077-.111-6.077l2.652-.442-1.485-1.94-.504-1.706v-1.768l2.21-2.21s-3.978-.552-3.978-.442c0 .111-3.866 1.768-3.866 1.658.11 0-.111 7.181-.111 7.181l-4.53 1.437-3.646 5.855 1.878 1.658z" fill-rule="evenodd" stroke="#544b21" fill="#544b20"/><path d="M423.71 148.04l2.983-1.768-.111-3.425-2.872-.663-1.106-1.105 3.205.553 3.977-.332 1.326-.663c-.552 1.437-.994 1.326-1.105 1.326-.11 0-2.209 1.105-2.209 1.105l.11 3.315s6.85.883 6.74.883c-.111 0 0 1.326-.221 1.326s-7.071-1.547-7.071-1.547l-4.309 2.652.663-1.657zM440.95 127.49l-3.977 3.093-2.541 4.53-1.326.221-3.867-5.193-4.419.111s-2.431 6.076-2.431 6.187c0 .11-1.768-.221-1.768-.221l-4.64-5.082s-1.437-2.542-1.216-2.542 11.601.111 11.601.111l-.11-5.524s-1.768-.553-2.652-1.105c.663-.221 6.298-.221 6.298-.221l-2.431 1.657v4.751l10.054.11 3.425-.883z" fill-rule="evenodd" stroke="#544b20" fill="#544b20"/><rect fill-rule="evenodd" fill-opacity=".996" ry="1.326" height="2.652" width="2.652" y="130.14" x="419.51" fill="#796a3a"/><rect fill-rule="evenodd" ry="1.326" height="2.652" width="2.652" y="129.59" x="432.11" fill="#7a6b3a"/><path d="M413.55 121.3c4.198-1.694 7.181-3.056 12.374-3.535 4.898-.516 8.692.184 13.037.994" stroke="#544b20" fill="none"/><path d="M415.87 112.35h-3.425l-4.862-5.193 2.763.332 3.204 1.436 2.32 3.425zM436.53 110.36l7.734-5.965-2.541-.332-2.873 2.651-3.425.553 1.105 3.093zM431.97 111.46l-12.123.451.11-1.326 4.42-.442.552-1.767s1.326-.11 1.326 0c0 .111.994 1.657.994 1.657l4.309.773.412.654zM431.34 106.83l-4.198.11-.332-2.32 4.53 2.21zM424.26 104.73l-.332 2.319-4.087.663 4.419-2.982zM401.06 147.04l2.099-5.303-1.878-3.646-1.878 5.414 1.657 3.535zM405.26 149.92l2.54-6.298-4.86 5.082 2.32 1.216z" fill-rule="evenodd" stroke="#544b20" fill="#544b20"/></g><g stroke-width="1pt" transform="matrix(.26911 0 0 .26401 197.81 73.069)"><path d="M410.94 120.56l-4.063 1.016.156 7.5-5 1.094-3.497 6.614 2.159 2.044c.111.221-1.703 4.892-1.625 4.892s1.323 1.762 1.323 1.762l1.328 4.063 3.359.468.86 4.766 5.312.859 4.922 3.516.312 2.188 5.625.156 3.829 1.25 13.359-1.563 1.797-2.812.156-3.828 7.188-.235.657-6.105h3.809l-.474-6.875 3.177.286-.82-3.295-1.975-2.683-.39-4.218-5.625-5.625-1.25-7.344s-3.594-1.641-3.594-1.719-.234-4.922-.234-4.922l4.062-5.703-.39-2.265-3.75-.079-2.813 2.344s-3.75.391-3.75.469v1.719s.938 3.203.938 3.281-4.297 0-4.297 0l-.157-5.078-6.093-3.047s-5.703 3.906-5.703 3.984-.313 4.532-.313 4.532l-2.734.781-2.813-4.219-4.922-1.875-2.656-.156-.078 3.281 5.156 6.797-.468 3.984z" stroke-opacity=".996" fill-rule="evenodd" fill-opacity=".996" stroke="#544b20" fill="#faf703"/><path d="M449.23 148.04l-1.105-4.088M452.33 141.3l-1.878-2.762" stroke="#544b20" fill="none"/><path d="M400.84 138.21l5.856-.332 1.105 5.303 1.988 1.768.332 9.723 1.878.773.553-3.867 4.53-.331.883 7.844-1.104.995.442 1.215 5.413-.11s1.216-2.1 1.326-2.1c.111 0 3.094-.331 3.094-.221 0 .111 1.215 2.321 1.215 2.321l.884-2.984s2.873-1.215 2.873-1.104c0 .11 2.32 3.756 2.32 3.756l3.977-.552-2.43-2.32-.995-5.083 5.524-2.983 2.21 3.757s2.099.11 1.989 0c-.111-.111-2.431-4.309-2.431-4.309v-8.839l4.199-5.745 5.855-.663v-2.431l-5.855-5.414-1.547-7.513-3.315-1.657-.884.994-3.646.332 3.646 5.414v3.535l1.658.884-.332 9.723s-4.088.552-4.088.663c0 .11-.331 5.413-.331 5.413l-2.541 2.542s-1.437 5.082-1.547 5.082c-.111 0-2.431 3.093-2.431 3.093l-4.53.111s-2.651-2.541-2.651-2.652c0-.11-.442-3.756-.442-3.756s-1.768-.553-1.879-.553c-.11 0-.994-4.088-.994-4.088l-3.094-1.767-.22-2.431-2.984-1.326s-.331-2.21-.442-2.32c-.11-.111-1.436-.994-1.546-.994-.111 0-.111-6.077-.111-6.077l2.652-.442-1.485-1.94-.504-1.706v-1.768l2.21-2.21s-3.978-.552-3.978-.442c0 .111-3.866 1.768-3.866 1.658.11 0-.111 7.181-.111 7.181l-4.53 1.437-3.646 5.855 1.878 1.658z" fill-rule="evenodd" stroke="#544b21" fill="#544b20"/><path d="M423.71 148.04l2.983-1.768-.111-3.425-2.872-.663-1.106-1.105 3.205.553 3.977-.332 1.326-.663c-.552 1.437-.994 1.326-1.105 1.326-.11 0-2.209 1.105-2.209 1.105l.11 3.315s6.85.883 6.74.883c-.111 0 0 1.326-.221 1.326s-7.071-1.547-7.071-1.547l-4.309 2.652.663-1.657zM440.95 127.49l-3.977 3.093-2.541 4.53-1.326.221-3.867-5.193-4.419.111s-2.431 6.076-2.431 6.187c0 .11-1.768-.221-1.768-.221l-4.64-5.082s-1.437-2.542-1.216-2.542 11.601.111 11.601.111l-.11-5.524s-1.768-.553-2.652-1.105c.663-.221 6.298-.221 6.298-.221l-2.431 1.657v4.751l10.054.11 3.425-.883z" fill-rule="evenodd" stroke="#544b20" fill="#544b20"/><rect fill-rule="evenodd" fill-opacity=".996" ry="1.326" height="2.652" width="2.652" y="130.14" x="419.51" fill="#796a3a"/><rect fill-rule="evenodd" ry="1.326" height="2.652" width="2.652" y="129.59" x="432.11" fill="#7a6b3a"/><path d="M413.55 121.3c4.198-1.694 7.181-3.056 12.374-3.535 4.898-.516 8.692.184 13.037.994" stroke="#544b20" fill="none"/><path d="M415.87 112.35h-3.425l-4.862-5.193 2.763.332 3.204 1.436 2.32 3.425zM436.53 110.36l7.734-5.965-2.541-.332-2.873 2.651-3.425.553 1.105 3.093zM431.97 111.46l-12.123.451.11-1.326 4.42-.442.552-1.767s1.326-.11 1.326 0c0 .111.994 1.657.994 1.657l4.309.773.412.654zM431.34 106.83l-4.198.11-.332-2.32 4.53 2.21zM424.26 104.73l-.332 2.319-4.087.663 4.419-2.982zM401.06 147.04l2.099-5.303-1.878-3.646-1.878 5.414 1.657 3.535zM405.26 149.92l2.54-6.298-4.86 5.082 2.32 1.216z" fill-rule="evenodd" stroke="#544b20" fill="#544b20"/></g><path d="M338.69 139.62l3.613-41.935 22.207-12.777 17.166 18.605-11.44 40.401c-11.089-2.264-17.416-3.235-31.546-4.294z" stroke-opacity=".996" fill-rule="evenodd" stroke="#001071" stroke-width=".355" fill="#001070"/><g stroke-width="1pt" transform="matrix(.26911 0 0 .26401 207.16 88.736)"><path d="M410.94 120.56l-4.063 1.016.156 7.5-5 1.094-3.497 6.614 2.159 2.044c.111.221-1.703 4.892-1.625 4.892s1.323 1.762 1.323 1.762l1.328 4.063 3.359.468.86 4.766 5.312.859 4.922 3.516.312 2.188 5.625.156 3.829 1.25 13.359-1.563 1.797-2.812.156-3.828 7.188-.235.657-6.105h3.809l-.474-6.875 3.177.286-.82-3.295-1.975-2.683-.39-4.218-5.625-5.625-1.25-7.344s-3.594-1.641-3.594-1.719-.234-4.922-.234-4.922l4.062-5.703-.39-2.265-3.75-.079-2.813 2.344s-3.75.391-3.75.469v1.719s.938 3.203.938 3.281-4.297 0-4.297 0l-.157-5.078-6.093-3.047s-5.703 3.906-5.703 3.984-.313 4.532-.313 4.532l-2.734.781-2.813-4.219-4.922-1.875-2.656-.156-.078 3.281 5.156 6.797-.468 3.984z" stroke-opacity=".996" fill-rule="evenodd" fill-opacity=".996" stroke="#544b20" fill="#faf703"/><path d="M449.23 148.04l-1.105-4.088M452.33 141.3l-1.878-2.762" stroke="#544b20" fill="none"/><path d="M400.84 138.21l5.856-.332 1.105 5.303 1.988 1.768.332 9.723 1.878.773.553-3.867 4.53-.331.883 7.844-1.104.995.442 1.215 5.413-.11s1.216-2.1 1.326-2.1c.111 0 3.094-.331 3.094-.221 0 .111 1.215 2.321 1.215 2.321l.884-2.984s2.873-1.215 2.873-1.104c0 .11 2.32 3.756 2.32 3.756l3.977-.552-2.43-2.32-.995-5.083 5.524-2.983 2.21 3.757s2.099.11 1.989 0c-.111-.111-2.431-4.309-2.431-4.309v-8.839l4.199-5.745 5.855-.663v-2.431l-5.855-5.414-1.547-7.513-3.315-1.657-.884.994-3.646.332 3.646 5.414v3.535l1.658.884-.332 9.723s-4.088.552-4.088.663c0 .11-.331 5.413-.331 5.413l-2.541 2.542s-1.437 5.082-1.547 5.082c-.111 0-2.431 3.093-2.431 3.093l-4.53.111s-2.651-2.541-2.651-2.652c0-.11-.442-3.756-.442-3.756s-1.768-.553-1.879-.553c-.11 0-.994-4.088-.994-4.088l-3.094-1.767-.22-2.431-2.984-1.326s-.331-2.21-.442-2.32c-.11-.111-1.436-.994-1.546-.994-.111 0-.111-6.077-.111-6.077l2.652-.442-1.485-1.94-.504-1.706v-1.768l2.21-2.21s-3.978-.552-3.978-.442c0 .111-3.866 1.768-3.866 1.658.11 0-.111 7.181-.111 7.181l-4.53 1.437-3.646 5.855 1.878 1.658z" fill-rule="evenodd" stroke="#544b21" fill="#544b20"/><path d="M423.71 148.04l2.983-1.768-.111-3.425-2.872-.663-1.106-1.105 3.205.553 3.977-.332 1.326-.663c-.552 1.437-.994 1.326-1.105 1.326-.11 0-2.209 1.105-2.209 1.105l.11 3.315s6.85.883 6.74.883c-.111 0 0 1.326-.221 1.326s-7.071-1.547-7.071-1.547l-4.309 2.652.663-1.657zM440.95 127.49l-3.977 3.093-2.541 4.53-1.326.221-3.867-5.193-4.419.111s-2.431 6.076-2.431 6.187c0 .11-1.768-.221-1.768-.221l-4.64-5.082s-1.437-2.542-1.216-2.542 11.601.111 11.601.111l-.11-5.524s-1.768-.553-2.652-1.105c.663-.221 6.298-.221 6.298-.221l-2.431 1.657v4.751l10.054.11 3.425-.883z" fill-rule="evenodd" stroke="#544b20" fill="#544b20"/><rect fill-rule="evenodd" fill-opacity=".996" ry="1.326" height="2.652" width="2.652" y="130.14" x="419.51" fill="#796a3a"/><rect fill-rule="evenodd" ry="1.326" height="2.652" width="2.652" y="129.59" x="432.11" fill="#7a6b3a"/><path d="M413.55 121.3c4.198-1.694 7.181-3.056 12.374-3.535 4.898-.516 8.692.184 13.037.994" stroke="#544b20" fill="none"/><path d="M415.87 112.35h-3.425l-4.862-5.193 2.763.332 3.204 1.436 2.32 3.425zM436.53 110.36l7.734-5.965-2.541-.332-2.873 2.651-3.425.553 1.105 3.093zM431.97 111.46l-12.123.451.11-1.326 4.42-.442.552-1.767s1.326-.11 1.326 0c0 .111.994 1.657.994 1.657l4.309.773.412.654zM431.34 106.83l-4.198.11-.332-2.32 4.53 2.21zM424.26 104.73l-.332 2.319-4.087.663 4.419-2.982zM401.06 147.04l2.099-5.303-1.878-3.646-1.878 5.414 1.657 3.535zM405.26 149.92l2.54-6.298-4.86 5.082 2.32 1.216z" fill-rule="evenodd" stroke="#544b20" fill="#544b20"/></g><path d="M344.2 132.11l-1.113 1.302.086 1.092 2.311-.042c.742-.175.928-.434 1.07-.735.229-.371.072-.574.129-1.071l-2.483-.546zM349.76 135.38l-.942.882v1.008l2.055-.042c.742-.175.842-.308.985-.609.228-.371.157-.364.214-.861l-2.312-.378zM358.79 132.57l-1.07 1.092.043.84 2.183.084c.742-.175.627-.14.856-.525.228-.371.157-.448.214-.945l-2.226-.546zM365.17 134.54l-1.241 1.05v1.05l2.311.21c.742-.175.8-.392.985-.651.228-.371.114-.406.171-.903l-2.226-.756z" stroke-opacity=".997" fill-rule="evenodd" stroke="#a0210c" stroke-width=".355" fill="#a0210c"/><path d="M349.63 107.08l4.366 2.898c.821-.681 2.529-.269 3.198-.08 1.2.314 2.047 1.025 3.095 1.214 1.919.482 4.217.815 5.957.626 1.741-.19 3.203-1.099 4.488-1.76v-.42h-.856c-1.39.5-3.337.527-4.828.331s-1.893-.864-4.119-1.507l-.17-.42c2.701.128 3.25.058 4.381-.435 1.106-.293 1.604-.935 2.228-1.378l-.017-.497-.814-.042c-1.048.698-1.716.824-3.321.677-1.461-.147-2.777-.98-3.757-.997-1.04.008-.99-.488-1.996-.537-1.599-.14-3.326.073-4.838.437-1.813.546-2.084 1.008-2.997 1.89z" fill-rule="evenodd" stroke="#000" stroke-width=".355" fill="#a0210c"/><path d="M350.48 106.43c.418.095.887.215 1.228.41.343.195.254.19.621.46-.059-.348-.042-.323-.278-.596-.237-.274-.625-.522-.938-.746l-.633.472zM354.13 109.56c.008-.377-.186-.704-.33-1.031-.143-.327-.261-.605-.531-.932.337.095.523.24.81.584.287.344.27.687.33 1.18l-.279.199zM354.96 104.97c.101.261.3.44.469.997.145.507.215 1.215.215 1.215-.055-.377.042-.804-.013-1.18-.055-.378-.262-.705-.317-1.082l-.354.05zM358.51 105.19l.177 2.088.203-1.964-.38-.124zM357.65 109.51c.085-.34.068-.68.025-1.02-.042-.339-.16-.628-.279-1.018.338.29.474.655.66 1.044 0 .39-.102.729-.406.994zM361.32 108.6c.013 0 .108.708-.054 1.218-.161.51-.275.547-.58.82.406-.298.76-.397.887-.72.127-.498-.202-1.243-.253-1.318zM361.96 107.92c-.253.041-.304-1.01-.456-1.516.11-.058.22-.042.33.199.118.14.084.878.126 1.317zM364.46 107.5l.101-.87.279-.025v.746c0 .025-.354.174-.38.149zM364.26 109.84c.16.265.448.58.481.87.034.29-.059.43-.278.87l.405.025c.22-.352.287-.605.254-.882a1.164 1.164 0 00-.456-.783l-.406-.1zM367.28 110.06l.101 1.218.33-.174-.076-1.044h-.355z" fill-rule="evenodd" stroke="#000" stroke-width=".355"/><path d="M349.36 107.29c-.988.286-1.346.832-1.83 1.304l-2.783-1.41c-.452.374-.626.91-.409 1.457.218.548 1.091 1.405 1.712 1.829-.155.756-.385 1.327-.656 1.99-.303.746-.953 1.688-.972 1.99-.037.347-.15 1.09.368 1.287.518.198 2.185-.137 2.74-.1-.09.297-.306.818-.232 1.041.073.223.223.298.675.31-.13.277-.411.627-.276.792.349.265.749.22 1.086.198-.531.616-1.858 1.801-2.288 2.33-.455.616-.494 1.281.388 1.216-.328.364-.644.715-.594 1.03.076.375.265.628.896.41-.373.844-.128 1.601.004 2.482-.318.667-.183 1.284-.262 2.05-.65.367-.73.846-1.152 1.585-.38.8-1.089 1.018-1.482 2.735l2.548.635c.093-.353.426-.582.52-.935.093-.353.086-.793.04-1.183.506-.732 1.529-2.243 1.857-3.05.556-.296.96-.482 1.378-.482.418 0 .683.247 1.126.483-.196.679-.745 1.42-.777 2.371v2.627c-.11.652-.853.66-1.166 2.625l2.289.593c.388-.66 1.004-.752 1.165-1.016l.165-2.728c.291-1.288 2.097-2.353 2.123-3.752.648-.01.893.057 1.15-.075.345-.12.464-.315.733-.559.104.421.435.458.716.458.28 0 .839-.396 1.069-.557.162.229.248.445.586.524.339.08 1.296-.063 1.685-.157l-1.88 3.077c-.07.296.023.481-.123.827-.136.31-.412.46-.536.747l2.132.51.34-.899c.452-.19.815-.294 1.053-.583.237-.29.235-.839.371-1.153.729-.529 1.873-1.676 2.677-2.626.546.092 1.319.543 1.612 1.218.041.723.095 2.053-.23 2.975l-1.382 2.16-.157.354 2.175.775 1.382-1.059.054-1.51c.694-1.226 1.687-1.895 2.633-2.668 0-.043.101-1.622.063-1.684-.233-.178-.391-.07-.474-.397-.082-.327-.026-1.223.018-1.574.137-.17.425-.364.41-.509-.377-.413-.261-1.482-.146-2.316-.028-.95 1.269-2.073 1.468-2.626l.08-.997c-.132-.245-.327-.391-.334-.599-.006-.208.253-.552.41-.772l.276-.47-.044-2.456c-.077-.266-.305-.68-.52-.722-.217-.042-.534.2-.775.468l-1.25.922c-.6.183-1.123.256-2.176-.007l-1.608.032c-.844.236-1.284.274-2.077-.072l-.952.015c-.297.162-.707.422-1.029.484-.321.062-.757.075-1.079-.024-2.456.165-1.846.343-2.548.496-.564-.107-.383-.387-2.575-.408l-.868-.254c-1.096-.727-1.94-1.886-2.67-3.22 2.283-.653 3.24-1.332 3.933-2.89l-3.228.121-4.566-3.034z" fill-rule="evenodd" stroke="#544b20" stroke-width=".355" fill="#dc9103"/><path d="M348.22 111.27l.914.387c.112.133.328.286.471.295.143.01.265-.137.387-.241l.842-.441c-.499-.072-.65-.381-1.181-.381-.53 0-.903.278-1.433.381zM352.23 111.5c.297.175.836.526 1.28.526.487-.041.479-.382 1.175-.608l1.022-.826c-.616.007-1.948.127-2.68.35-.616.163-.759.407-.797.558zM349.9 122.06c0 .075-.127.13-.19.041-.079-1.071-.315-1.823-.645-2.657.373.635.683 1.661.835 2.616zM352.51 126.45c-.416.042-.58-.019-.995.023a65.248 65.248 0 01-.043-3.079c.159.02.622.503.896 1.266.072.562.175 1.197.142 1.79zM355.27 122.17c.187.051.448.052.51-.072.079-.23-.157-.48-.246-.761-.308-.604-.479-1.259-.608-1.543-.136-.085-.282-.078-.25.064.177.537.48 2.105.594 2.312zM358.21 121.85c.02.13-.422-.06-.497-.207-.006-.288-.602-2.39-.503-2.472.125-.061.513.703.638 1.055.03.208.29.972.362 1.624zM357.79 126.18c-.01.147.336.026.473-.085.397-.62.888-1.27 1.032-1.518.087-.265.52-1.953.387-1.94-.048-.049-.425.837-.912 1.712-.507.89-.985 1.746-.98 1.831zM360.75 125.27c-.144.07.29-1.46.324-1.73.08-.429.19-1.197.364-2.193.212 1.39-.038 2.884-.688 3.923zM362.52 120.59c-.095.083-1.363-2.014-1.247-2.025.033-.093 1.063 1.313 1.21 1.56.062.117.123.296.037.465zM365.49 122.15c-.095-.071-.057-.741-.245-1.476-.187-.736-.506-1.444-.443-1.645.06-.106.265-.057.43.084.078.4.262 1.935.477 2.933-.003.097-.111.162-.219.104zM367.56 120.29c-.101-.108.276.72.55 1.704.275.984.415 2.722.482 2.598.188-.125.156-.281.45-.345.294-.063 1.387.039 1.323-.034-.676-.603-1.3-1.102-1.765-1.756-.466-.653-.774-1.513-1.04-2.167zM370.12 129.26c-.212.153-.613.275-.73.21-.645-1.34-1.006-2.216-1.903-3.649-.231-.34-.807-.288-.774-.422.021-.155.323-.093.518-.317s.221-.508.342-.61c-.264.618.429 1.566.817 2.319.258.07.463.069.585.221.028.073-.28.124-.24.382l.654 1.318c.213.16.542.248.86.295.083.074-.065.179-.129.253z" fill-rule="evenodd" stroke="#000" stroke-width=".355"/><path d="M370.48 144l11.513-40.577 24.437-9.844 12.96 21.913-18.55 37.67c-10.493-3.966-16.493-6.085-30.36-9.161z" fill="none"/><path d="M371.46 117.54c.404.022.77.058.89-.148.247-.51.39-.929.224-1.26-.634.051-1.113.343-1.372.902.008.194.055.337.258.506z" fill-rule="evenodd" stroke="#000" stroke-width=".355"/><path d="M378.12 117.16c6.269 1.324 12.071 2.831 17.874 4.703 5.803 1.872 11.326 4.11 16.943 6.53l-9.403 18.996c-5.248-1.997-10.43-3.607-15.613-5.281-5.182-1.675-10.233-3.155-15.48-4.765l5.678-20.183z" fill-rule="evenodd" stroke="#fdfcfc" stroke-width=".355" fill="#fdfcfc"/><path d="M376.87 121.65s8.755 1.953 17.238 4.682c8.484 2.728 16.761 6.231 16.728 6.231-.066 0-5.332 10.85-5.332 10.85-5.113-2.035-10.488-3.94-15.798-5.652-5.31-1.71-10.62-3.357-16.062-4.617l3.225-11.495z" fill-rule="evenodd" stroke="#e6151e" stroke-width=".355" fill="#e6151e"/><path d="M377.6 126.95c.861-.481 1.444-.61 1.908-1.404h3.1l.04 1.131c.762.364 1.206.767 1.968 1.131s1.842.689 2.603 1.053l6.678.585c.895.143 2.187.52 2.962.975.775.455 1.272 1.027 1.69 1.755 1.37.48 2.742.766 4.153.974 1.411.208 3.18.3 4.551.351.676.235.676.585.358.936 0 0-.756 1.024-2.818 1.034-2.062.01-4.397-1.15-5.41-.995.04.624 1.113 1.911 2.345 2.418l-.04 2.963-.556.507-.597-.39c.478-.701.318-1.52.12-2.222-.458-.663-.517-.936-1.371-.975-1.014-.195-1.75-.468-3.041-1.365l-.478.078c-.278.494-.556.832-1.192 1.13l-1.312-.077s-3.02-.663-3.02-.702c0-.039-.04-.468.039-.507.08-.04 1.033-.039 1.113-.039.636.195 1.988.195 1.988.195l-.04-1.131 2.027-.117c-.41-1.404-.543-2.3-2.425-2.613l-5.883.156.08.82c-1.47-.196-4.134-.23-5.494.22-.795.078-1.94.481-2.456.481l-.596-.156c-.398-.117-.398-.234-.239-.585 2.544-.195 2.942-.39 3.697-.74.04-.234-.278-.742-.398-.78-1.59-.079-2.862.038-3.299-.04-.675-.195-1.59-.545-1.59-.584 0-.04-.119-.624-.08-.624.04 0 1.034.273 1.074.273 1.073.195 2.941.117 3.379-.117l.04-.858c-.04-.39-.319-.741-.398-.78-.08-.04-1.75-.234-2.345-.234-.968-.17-.822-.65-.835-1.131z" stroke-opacity=".996" fill-rule="evenodd" stroke="#010001" stroke-width=".355"/><path d="M390.44 133.89c.901.286 1.564.377 2.902.468l2.027-.117c-.41-1.404-.543-2.3-2.425-2.613l-5.883.156.08.82c1.789.662 2.663 1.026 3.299 1.286z" stroke-opacity=".996" fill-rule="evenodd" fill-opacity=".996" stroke="#010001" stroke-width=".355" fill="#fdfdfd"/><path d="M273.6 143.99l-10.632-39.621 16.223-19.652 22.748 12.986 3.856 41.985c-11.608.86-19.128 1.977-32.196 4.303z" fill-rule="evenodd" fill-opacity=".996" stroke="#011171" stroke-width=".355" fill="#011171"/><path d="M236.92 112.42l3.7 3.259-1.05 5.239 5.13-1.774 3.784 3.259.84-4.827 4.205-1.361-3.195-3.465 1.05-4.785s-5.045 1.485-5.045 1.444-3.364-3.218-3.406-3.177c-.042.042-1.093 4.538-1.093 4.538l-4.92 1.65z" stroke-opacity=".996" fill-rule="evenodd" fill-opacity=".996" stroke="#fdc605" stroke-width=".355" fill="#fbfd10"/><path d="M237.01 112.46l16.483 3.713-4.247 1.444-3.827-3.094s3.112 7.755 3.07 7.714-3.616-3.012-3.742-3.135l.63-4.58s-5.718 6.353-5.718 6.312c0-.041 1.093-5.198 1.093-5.198l-3.742-3.176zM241.8 110.77l3.658 3.506-2.523-8.126-1.135 4.62zM246.3 109.45c.042.041-.883 4.744-.841 4.744.42-.495 5.929-6.23 5.887-6.23-.042 0-4.962 1.527-5.046 1.486z" fill-rule="evenodd" fill="#ffc500"/><path d="M396.21 104.41l.782 4.817-4.18 3.42 5.125 1.792.847 4.87 3.752-3.23 4.14 1.54-.258-4.666 3.888-3.067s-4.873-1.964-4.846-1.996c.026-.032-.548-4.578-.607-4.572-.06.006-3.762 2.85-3.762 2.85l-4.88-1.758z" stroke-opacity=".996" fill-rule="evenodd" fill-opacity=".996" stroke="#fdc605" stroke-width=".355" fill="#fbfd10"/><path d="M396.25 104.49l10.421 13.068-4.226-1.503-.986-4.767s-2.561 7.947-2.567 7.889c-.006-.058-.876-4.574-.895-4.747l3.43-3.168s-8.521 1.402-8.495 1.37c.027-.032 4.186-3.362 4.186-3.362l-.868-4.78z" fill-rule="evenodd" fill="#ffc500"/><path d="M401.06 106.14l.59 4.984 3.258-7.871-3.848 2.887zM405.4 107.9c.006.058-3.731 3.14-3.699 3.165.645-.125 8.604-1.176 8.572-1.201-.033-.026-4.834-1.88-4.873-1.964z" fill-rule="evenodd" fill="#fdc605"/><path d="M263.05 104.52c5.774-2.76 12.255-4.913 19.09-5.852 6.57-.94 13.144-1.02 19.89-1.006 0 0 .884 10.33.884 10.418-5.303.043-9.255-.056-18.608 1.154-9.302 1.29-13.133 2.396-18.79 4.563l-2.465-9.277z" fill-rule="evenodd" stroke="#e6141d" stroke-width=".355" fill="#e6141d"/><path d="M267.99 122.81c-.088 0 2.921 10.929 2.921 10.929 5.553-1.402 11.195-2.457 16.836-3.251 5.642-.795 11.641-1.248 17.106-1.609l-.96-10.66c-5.76-.347-12.323-.347-18.259.433s-11.7 2.163-17.636 4.157z" fill-rule="evenodd" fill-opacity=".996" stroke="#e6141d" stroke-width=".355" fill="#e6141d"/><path d="M241.49 156.56h161.16V259.9c-4.096 40.244-42.778 70.327-78.125 70.097-38.155 1.665-80.349-29.566-83.391-70.442l.351-102.99z" fill-rule="evenodd" stroke="#e5141d" stroke-width="1.066" fill="#fff"/><path d="M244.84 160.17h154.45v99.03c-3.926 38.567-40.995 67.395-74.868 67.176-36.565 1.595-77-28.334-79.916-67.506l.336-98.7z" fill-rule="evenodd" stroke="#e5141d" stroke-width="1.022" fill="#d61517"/><rect fill-rule="evenodd" ry="0" height="32.302" width="29.763" y="160.67" x="337.68" fill="#fff"/><rect fill-rule="evenodd" ry="0" height="32.302" width="29.763" y="160.67" x="276.27" fill="#fff"/><rect fill-rule="evenodd" ry="0" height="31.526" width="30.162" y="194.04" x="245.22" fill="#fff"/><rect fill-rule="evenodd" ry="0" height="31.526" width="29.467" y="194.04" x="307.22" fill="#fff"/><rect fill-rule="evenodd" ry="0" height="31.526" width="30.364" y="194.04" x="368.33" fill="#fff"/><rect fill-rule="evenodd" ry="0" height="32.011" width="29.763" y="226.54" x="337.68" fill="#fff"/><rect fill-rule="evenodd" ry="0" height="32.011" width="29.763" y="226.54" x="276.27" fill="#fff"/><rect fill-rule="evenodd" ry="0" height="32.011" width="29.467" y="259.52" x="307.22" fill="#fff"/><path d="M368.52 259.8l.008 31.447 18.122.024c8.268-12.078 11.099-23.843 11.876-31.464-.134 0-29.888-.015-30.006-.007zM337.86 292.78l.005 31.559c12.891-2.679 23.39-8.787 29.4-13.27l.002-18.302-29.407.013zM276.5 292.72l-.043 17.832c10.125 7.385 21.688 11.707 29.39 13.369l.005-31.19-29.352-.012zM245.28 259.76c.961 12.356 6.225 23.816 11.88 31.567l18.046-.03.003-31.55-29.929.013z" fill-rule="evenodd" stroke="#fff" stroke-width=".355" fill="#fff"/></g></g></svg>