<svg xmlns="http://www.w3.org/2000/svg" height="480" width="640" version="1"><defs><clipPath id="a" clipPathUnits="userSpaceOnUse"><path fill-opacity=".67" d="M-87.62 0h682.67v512H-87.62z"/></clipPath></defs><g fill-rule="evenodd" clip-path="url(#a)" transform="translate(82.144) scale(.9375)"><path fill="#fff" d="M619.43 512H-112V0h731.43z"/><path fill="#00c" d="M619.43 115.23H-112V48.003h731.43zM619.43 465.68H-112v-67.227h731.43zM136.43 190.78l110.12 191.54 112.49-190.75-222.61-.79z"/><path d="M225.75 317.81l20.95 35.506 21.4-35.36-42.351-.145z" fill="#fff"/><path d="M136.02 320.58l110.13-191.54 112.48 190.75-222.61.79z" fill="#00c"/><path d="M225.75 191.61l20.95-35.506 21.4 35.36-42.351.145zM181.97 271.11l-21.64 35.982 40.899-.127-19.258-35.855zM160.7 204.61l41.225.29-19.834 36.261-21.391-36.55zM311.94 271.52l20.829 35.576-41.71-.533 20.881-35.043zM332.39 204.61l-41.225.29 19.834 36.261 21.391-36.55zM218.12 204.57l-28.394 51.515 28.799 50.297 52.731 1.217 32.044-51.514-29.611-51.92-55.571.405z" fill="#fff"/></g></svg>