<svg xmlns="http://www.w3.org/2000/svg" height="480" width="640" version="1"><defs><clipPath id="a" clipPathUnits="userSpaceOnUse"><path fill-opacity=".67" d="M-77.62 0h682.67v512H-77.62z"/></clipPath></defs><g clip-path="url(#a)" transform="translate(72.769) scale(.9375)"><path fill-rule="evenodd" fill="#ba0000" d="M629.43 512H-102V0h731.43z"/><path d="M281.02 376.01c.2-.605.603-6.844.402-6.844s-9.46-10.867-9.258-10.867c.202 0 11.874 2.617 11.874 2.214 0-.402 4.629-11.471 4.629-11.672 0-.2 5.635 13.484 5.635 13.484l11.471 5.032-8.05 6.64s1.812 12.881 1.812 13.083c0 .2-8.051-7.649-8.051-7.649l-8.856 1.007s-1.206-4.025-1.608-4.427z" fill-rule="evenodd" fill-opacity=".988" stroke="#000" stroke-width="2.204" fill="#ffef00"/><path d="M218.66 206.89c-7.647 3.938-36.996 37.486-41.021 42.718-3.372 7.596-9.968 17.205-16.762 23.391-7.252 5.487-11.282 12.982-10.284 20.078-.081 8.83 4.87 14.843 8.814 21.057 2.335 2.838 5.475 4.673 8.815 4.896 6.85.905 7.458 3.014 10.887 4.32 13.506 18.389 33.654 31.949 48.164 42.691 9.249 4.875 15.68 9.75 17.885 12.411 4.248 8.112 3.466 16.022 2.884 19.908-3.59 13.549-7.182 27.097-10.773 40.646-1.812 11.069 7.808 8.58 8.325 6.366 4.341-5.635 10.82-1.678 20.077-34.28l12.732-17.139s4.898-1.959 4.898-2.448c7.447-8.942 1.777-14.06-2.45-15.67l-9.303-3.429s-10.773-10.773-11.263-10.773c-5.12-14.893-30.248-46.687-36.085-51.114-4.04-4.21-5.963-6.004-9.798-8.346-5.897-2.82-7.8-3.738-11.411-5.18-3.007-1.206-.866-4.507 1.046-6.016 19.903-10.834 35.68-22.875 54.778-35.118.979-.653 1.96-1.306 2.938-1.96l-6.856-39.174-31.83-11.264c-1.67 1.142-2.937 2.286-4.407 3.428z" fill-rule="evenodd" stroke="#000" stroke-width="2.636" fill="#fff"/><path d="M245.29 413.15c.1-.402 19.923-4.025 19.923-4.025s-2.314 7.346-2.415 7.346l-19.721 5.936 2.213-9.257z" fill-rule="evenodd" fill="#ffec00"/><path d="M193.64 338.51c3.824-10.163 14.438-18.21 21.568-20.431" stroke="#000" stroke-width="2.204" fill="none"/><path d="M244.58 413.32c1.28-.36 6.961-2.018 8.616-2.276a66.432 66.432 0 005.22-1.424c1.96-.4 3.186-.768 5.22-1.139 1.595-.608 3.17-1.024 4.874-1.423m-27.519 18.518c.166-.221 1.516-1.415 2.486-1.992 1.143-.36 5.049-2.018 6.527-2.276a54.306 54.306 0 004.662-1.424c1.75-.4 2.845-.768 4.663-1.139 1.423-.608 2.83-1.024 4.35-1.423" stroke="#000" stroke-width="2.437" fill="none"/><path d="M249.04 341.38h-.284c.89 0 .344-.074-.855 1.423-.426 1.15-4.08 3.7-6.83 3.7-1.328.142-3.368.284-4.697.284-.379 0-.9-.284-1.281-.284M248.76 400.02h1.422c1.476 0 2.957.263 4.27.284 1.423 0 2.846.404 4.27.404 1.436.203 3.167.137 4.653.348 1.666.057 3.004.386 4.738.386 1.398.053 2.152.286 3.7.286l-3.7-.286c1.398.053 2.152.286 3.7.286M239.08 434.74c.152-.222 1.389-1.415 2.276-1.992 1.047-.36 4.624-2.018 5.978-2.276a46.795 46.795 0 004.268-1.424c1.604-.4 2.606-.768 4.27-1.139 1.304-.608 2.592-1.024 3.984-1.423M265.73 385.27c-.805 2.337.238 2.924.67 3.933.75.977 2.666 2.466 5.693 3.415 1.167.314 2.064.622 3.415 1.139.894.083 1.334.306 1.992.569M153.13 299.55h.284c-.892 0-.357.058 1.14-1.139.923-1.033 1.695-1.501 2.56-2.56M171.55 319.82c.19 0 16.557-8.249 18.305-10.011 1.238-.898 2.176-1.845 3.681-2.865.966-.504 1.658-1.15 2.563-1.707.752-1.09 1.734-1.748 2.276-2.745 1.005-.87.574-1.815 1.389-2.864.385-1.075 1.105-2.885 1.34-3.869M221.95 308c.09.589-.261 2.402-.236 3.782-.057 1.6-2.115 6.543-4.603 8.02" stroke="#000" stroke-width="2.204" fill="none"/><path d="M192.55 307.82c.096 0 2.587.81 6.751 2.091 5.012 1.802 15.437 8.372 16.471 9.276 1.057.831 2.946 1.573 3.67 2.56 1.133.979 1.962 2.108 2.847 3.131 1.04 1.268 1.926 2.341 2.56 3.416 3.166 2.567 11.681 20.343 11.954 21.346.478.939 1.07 2.246 1.424 3.13.631.728 1.06 1.756 1.707 2.847.595 1.415 1.262 2.06 1.994 3.131.942.655 2.212 1.898 3.415 2.56 1.283 1.098 2.486 1.545 3.415 2.279 1.343.57 16.342 10.052 17.038 10.527 1.37 1.1 5.555 5.437 2.617 8.59-1.246 1.067-2.369 2.479-3.433 3.082-1.085 1.086-2.594 1.572-3.84 2.134-6.758 1.997-10.2 1.282-11.53 1.282h-1.423M159.42 274.29c1.92.752 1.146.197 2.875.984 1.162.509 1.927.522 3.07.939 1.211.388 4.597.998 6.223 2.631 1.194 1.078 2.105 1.989 3.416 2.776 1.55 1.07 2.67 1.545 4.592 2.347 1.622.607 3.435 1.28 5.075 1.338 1.704.099 2.113.014 3.748.014h3.985-3.985 3.985" stroke="#000" stroke-width="2.204" fill="none"/><path d="M158.96 293.28c4.268-.284 11.383.997 11.525.997l9.393-.142c4.934-.476 6.024-2.373 6.83-3.702 1.85-2.845 3.132-3.841 4.555-5.976 2.276-1.707 5.409 2.277 5.55 2.277 7.969 7.543 1.565 16.792 1.138 17.076-3.984 3.653-4.838 3.89-7.257 1.565-2.42-2.846-3.13-4.126-5.123-5.123-3.842-1.85-11.81-.426-11.955-.426-.142 0-4.126 1.565-4.126 1.565-1.946.711-3.179 2.42-6.546 2.987-3.415.238-4.554-.094-6.262-2.845-2.276-3.557-1.139-7.827 2.278-8.253z" fill-rule="evenodd" stroke="#000" stroke-width="2.204" fill="#ffe606"/><path d="M381.8 120.66c-.625.122-6.261 2.828-6.162 3.004.098.176-4.837 13.57-4.936 13.395-.1-.176-3.539-11.633-3.89-11.435-.35.197-12.267 1.587-12.443 1.686-.175.098 8.992-11.521 8.992-11.521l-1.236-12.465 9.734 3.763s10.34-7.892 10.516-7.991c.175-.098-2.722 10.766-2.722 10.766l5.218 7.226s-2.917 3.024-3.07 3.571z" fill-rule="evenodd" fill-opacity=".988" stroke="#000" stroke-width="2.204" fill="#ffef00"/><path d="M264.93 257.9c7.18 4.736 50.806 13.878 57.34 14.822 8.274-.783 19.883.257 28.605 3.148 8.337 3.632 16.845 3.472 22.542-.876 7.737-4.258 10.552-11.52 14.035-18.003 1.33-3.426 1.39-7.063-.052-10.083-2.569-6.415-1.028-7.979-1.57-11.607 9.41-20.785 11.356-44.993 13.608-62.906-.284-10.451.814-18.447 2.054-21.672 4.988-7.68 12.267-10.874 15.94-12.271l40.71-10.53c10.537-3.845 3.652-11.01 1.469-10.376-7.04-1.022-6.765-8.61-39.72-.7l-21.18-2.7s-4.108-3.309-4.535-3.069c-11.444-2.11-13.126 5.342-12.458 9.815l1.571 9.79s-4.11 14.671-3.871 15.097c-10.473 11.761-26.062 49.53-27.06 56.786-.473 6.82-3.048 5.588-2.357 12.217.025 5.18-.577 1.946 1.152 12.618.422 3.213-3.505 2.965-5.758 2.037-19.198-12.04-37.426-19.891-57.458-30.538-1.049-.533-2.098-1.068-3.147-1.6l-30.788 25.174 5.78 33.266c1.815.896 3.433 1.44 5.15 2.162z" fill-rule="evenodd" stroke="#000" stroke-width="2.636" fill="#fff"/><path d="M431.67 133.6c-.4.109-13.273-15.394-13.273-15.394s7.538-1.583 7.587-1.495l14.84 14.28-9.154 2.608z" fill-rule="evenodd" fill="#ffec00"/><path d="M391.93 215.21c-10.733 1.648-22.949-3.66-28.379-8.787" stroke="#000" stroke-width="2.204" fill="none"/><path d="M432.18 134.14c-.941-.939-5.171-5.079-6.207-6.395a66.445 66.445 0 00-3.799-3.853c-1.309-1.511-2.231-2.4-3.551-3.992-1.311-1.091-2.447-2.26-3.63-3.55m29.629 14.911c-.274-.035-1.977-.627-2.955-1.19-.874-.82-4.234-3.412-5.183-4.574a54.291 54.291 0 00-3.525-3.366c-1.207-1.33-2.064-2.103-3.278-3.507-1.228-.942-2.28-1.964-3.373-3.095" stroke="#000" stroke-width="2.437" fill="none"/><path d="M367.28 165.51l.14.248c-.437-.777-.234-.263 1.659.047 1.212-.192 5.224 1.743 6.572 4.141.775 1.088 1.898 2.796 2.55 3.955.185.33.193.924.38 1.256M418.53 137.02l-.14-.248-.557-.991c-.723-1.287-1.22-2.707-1.845-3.862-.697-1.24-1.043-2.679-1.74-3.92-.527-1.351-1.433-2.827-1.977-4.226-.768-1.48-1.136-2.807-1.986-4.319-.64-1.245-.806-2.016-1.565-3.367l1.565 3.367c-.64-1.245-.806-2.016-1.565-3.367M453.54 128.44c-.268-.024-1.914-.517-2.852-1.008-.827-.736-4.025-3.041-4.914-4.095a46.787 46.787 0 00-3.332-3.023c-1.135-1.202-1.947-1.894-3.086-3.164-1.17-.838-2.163-1.757-3.193-2.775M397.35 129.45c2.432-.444 2.432-1.64 3.1-2.511.484-1.133.843-3.533.187-6.636-.298-1.172-.47-2.105-.681-3.536-.366-.82-.387-1.312-.48-2.015M377.82 269.62a426.5 426.5 0 01-.14-.248c.438.778.226.283-1.55-.434-1.354-.3-2.14-.743-3.487-.978M386.46 243.62c-.093-.166-15.305-10.39-17.697-11.049-1.39-.64-2.674-.992-4.301-1.805-.913-.594-1.816-.881-2.745-1.397-1.318-.121-2.372-.655-3.507-.639-1.252-.45-1.864.39-3.178.194-1.125.19-3.056.45-4.029.727M351.46 205.48c.47-.366 2.222-.95 3.413-1.648 1.422-.735 6.74-1.363 9.245.082" stroke="#000" stroke-width="2.204" fill="none"/><path d="M365.71 231.2c-.047-.084-.562-2.652-1.486-6.91-.886-5.252-.268-17.558.013-18.904.207-1.328-.072-3.339.433-4.454.298-1.466.876-2.743 1.334-4.015.596-1.528 1.097-2.826 1.723-3.906.686-4.018 12.008-20.152 12.749-20.881a43.68 43.68 0 012.031-2.775c.325-.907 1.011-1.784 1.645-2.884.941-1.212 1.177-2.109 1.752-3.272.109-1.142.57-2.858.558-4.232.328-1.656.127-2.924.312-4.094-.16-1.45.753-19.172.826-20.01.288-1.735 2.017-7.507 6.206-6.492 1.54.564 3.32.85 4.368 1.483 1.479.413 2.642 1.49 3.743 2.301 5.052 4.912 6.115 8.263 6.766 9.422l.698 1.24M352.64 275.94l-.14-.248c.377.67.169.336-.31-1.132-.125-1.263-.515-2.97-.712-4.17-.255-1.247-.839-2.667-.68-3.536-.447-1.266-.166-2.311-.046-3.566.354-1.568.514-2.703.558-4.232.172-1.875.034-3.205.14-4.977-.494-1.46-.594-2.681-1.348-4.139-.67-1.394-1.182-2.684-1.984-4.11l-1.953-3.473 1.953 3.474-1.953-3.474" stroke="#000" stroke-width="2.204" fill="none"/><path d="M369.5 267.6c-2.34-3.581-4.71-10.411-4.78-10.535l-4.727-8.118c-2.833-4.068-5.02-4.088-6.574-4.14-3.386-.218-4.883-.846-7.44-1.041-2.605-1.147-.667-5.83-.737-5.954 2.67-10.642 13.871-9.593 14.328-9.36 5.137 1.682 5.762 2.31 4.921 5.558-1.295 3.505-2.062 4.751-1.955 6.976.27 4.256 5.417 10.505 5.488 10.63.07.124 3.386 2.83 3.386 2.83 1.574 1.347 3.668 1.585 5.812 4.242 1.882 2.86 2.15 4.016.59 6.852-1.986 3.728-6.265 4.83-8.312 2.06z" fill-rule="evenodd" stroke="#000" stroke-width="2.204" fill="#ffe606"/><path d="M105.242 168.67c.444.457 5.795 3.69 5.888 3.51s14.004-3.387 13.91-3.208-7.793 9.333-7.435 9.518c.356.186 8.047 9.394 8.226 9.487.178.092-14.564-1.212-14.564-1.212l-9.751 7.861-2.184-10.204s-12.266-4.328-12.445-4.42c-.178-.093 10.497-3.62 10.497-3.62l3.188-8.324s4.128.784 4.67.612z" fill-rule="evenodd" fill-opacity=".988" stroke="#000" stroke-width="1.65306pt" fill="#ffef00"/><path d="M284.058 191.255c.03-8.6-16.22-50.106-19.01-56.09-5.187-6.492-10.676-16.774-13.035-25.654-1.527-8.964-6.322-15.995-13.08-18.379-7.8-4.14-15.418-2.517-22.75-1.88-3.595.764-6.67 2.706-8.407 5.566-3.96 5.663-6.111 5.231-8.85 7.672-22.544 3.513-43.862 15.146-60.082 23.074-8.588 5.962-15.878 9.425-19.256 10.154-9.156.033-15.816-4.306-18.997-6.613l-31.109-28.29c-8.989-6.71-11.212 2.975-9.486 4.454 3.001 6.45-3.496 10.376 21.172 33.614l9.344 19.197s-.518 5.25-.084 5.475c4.504 10.73 11.66 8.056 15.036 5.046 2.442-2.226 4.887-4.45 7.33-6.677 0 0 14.525-4.597 14.75-5.031 15.576 2.319 55.712-5.327 62.33-8.468 5.965-3.34 6.345-.51 11.512-4.72 4.32-2.859 1.944-.583 9.925-7.875 2.457-2.113 4.4 1.308 4.858 3.7.444 22.657 3.861 42.207 5.926 64.798l.385 3.51c12.641 3.99 25.285 7.978 37.926 11.967l24.664-23.059c-.244-2.008-.675-3.66-1.012-5.49z" fill-rule="evenodd" stroke="#000" stroke-width="2.6366307" fill="#fff"/><path d="M88.737 119.85c.31.275-5.608 19.537-5.608 19.537s-5.454-5.44-5.407-5.529l3.819-20.238 7.196 6.23z" fill-rule="evenodd" fill="#ffec00"/><path d="M178.78 108.395c7.258 8.077 9.509 21.205 8.194 28.556" stroke="#000" stroke-width="1.65306pt" fill="none"/><path d="M88.917 119.143c-.27 1.302-1.416 7.108-1.95 8.696a66.412 66.412 0 00-1.142 5.289c-.547 1.923-.785 3.181-1.394 5.158-.195 1.694-.551 3.284-.983 4.98m-3.754-32.955c.12.249.557 1.997.622 3.124-.206 1.18-.535 5.411-.987 6.841a54.294 54.294 0 00-.885 4.793c-.451 1.738-.628 2.88-1.138 4.664-.116 1.543-.394 2.984-.741 4.517" stroke="#000" stroke-width="2.43661044" fill="none"/><path d="M150.694 156.247l.131-.252c-.41.79-.092.34-.869-1.415-.825-.908-1.403-5.325-.136-7.766.486-1.244 1.3-3.12 1.912-4.3.174-.335.667-.668.842-1.005M98.8 128.987l-.13.252-.525 1.01c-.68 1.31-1.596 2.503-2.22 3.658-.655 1.263-1.67 2.34-2.325 3.604-.842 1.181-1.581 2.748-2.454 3.97-.817 1.452-1.726 2.487-2.525 4.026-.691 1.217-1.245 1.779-1.959 3.153l1.96-3.153c-.692 1.217-1.246 1.779-1.96 3.153M72.44 104.386c.127.237.616 1.885.72 2.938-.163 1.095-.34 5.034-.735 6.354a46.796 46.796 0 00-.703 4.444c-.384 1.607-.519 2.666-.957 4.314-.061 1.438-.285 2.773-.573 4.192M104.064 150.849c-1.703-1.792-2.705-1.136-3.799-1.218-1.212.216-3.417 1.23-5.654 3.479-.816.89-1.503 1.546-2.585 2.506-.485.756-.886 1.043-1.422 1.506M232.022 90.405l-.131.252c.411-.792.113-.343.486 1.536.49 1.296.55 2.197 1.092 3.453M205.55 97.41c-.088.169-.31 18.495.45 20.858.226 1.513.635 2.78.846 4.587.002 1.09.257 2.002.335 3.061.62 1.17.751 2.344 1.386 3.285.31 1.293 1.347 1.345 1.903 2.552.776.837 2.05 2.311 2.815 2.973M192.814 147.588c-.563-.192-2.011-1.339-3.247-1.953-1.395-.787-4.833-4.89-4.997-7.78" stroke="#000" stroke-width="1.65306pt" fill="none"/><path d="M206.527 121.572c-.044.085-1.911 1.923-4.967 5.028-3.909 3.618-14.542 9.843-15.822 10.344-1.224.555-2.754 1.89-3.963 2.077-1.39.554-2.775.77-4.09 1.084-1.605.339-2.965.63-4.212.699-3.737 1.626-23.436.993-24.452.772a43.664 43.664 0 01-3.435-.18c-.936.226-2.046.132-3.313.205-1.53-.124-2.41.17-3.697.326-1.015.535-2.704 1.089-3.847 1.851-1.565.633-2.515 1.496-3.595 1.982-1.125.928-16.452 9.872-17.193 10.27-1.609.71-7.385 2.425-8.83-1.636-.373-1.597-1.108-3.244-1.153-4.467-.465-1.463-.2-3.026-.125-4.391 1.342-6.918 3.563-9.642 4.175-10.822l.656-1.263M251.102 108.004l-.13.253c.353-.683.188-.325-.778.88-.987.796-2.203 2.057-3.099 2.88-.903.896-1.771 2.162-2.584 2.505-.815 1.068-1.844 1.405-2.959 1.992-1.506.563-2.543 1.05-3.846 1.851-1.664.884-2.7 1.728-4.241 2.61-.95 1.212-1.917 1.966-2.724 3.394-.8 1.325-1.598 2.46-2.351 3.911l-1.837 3.537 1.837-3.537-1.837 3.537M238.305 204.938l.263-.506c-.485.935-.315.69.14-.888.005-1.892.454-4.18.473-5.85.284-1.766.573-3.675.591-5.464-.107-2.094-.104-3.97-.417-5.989-.024-1.858-.241-3.785-.296-5.606-.034-1.803-.169-3.349-.56-5.1-.036-1.31-.117-3.11-.436-4.716.17-1.266-.19-2.43-.458-3.444-.49-1.951-.68-3.089-1.195-5.11-.31-1.084-.615-2.468-1.082-4.09-.169-1.537-.992-3.533-1.326-4.858-.457-.974-.918-2.294-1.095-3.453-.478-1.07-1.16-2.375-1.345-3.585-.504-.923-1.04-2.359-1.598-3.717-.48-1.116-.834-2.491-1.345-3.584-.516-1.381-1.146-2.561-1.467-3.969-.493-.477-.605-1.001-.87-1.413" stroke="#000" stroke-width="1.65306pt" fill="none"/><path d="M234.893 98.47c-1.714 3.92-6.13 9.644-6.195 9.77l-4.202 8.402c-1.851 4.598-.67 6.439.137 7.767 1.673 2.953 1.967 4.55 3.205 6.796.467 2.807-4.512 3.751-4.578 3.877-10.366 3.596-15.623-6.35-15.679-6.859-1.407-5.219-1.223-6.086 1.955-7.162 3.641-.836 5.104-.877 6.907-2.186 3.412-2.557 5.82-10.286 5.887-10.413.065-.126.512-4.383.512-4.383.266-2.055-.683-3.937.365-7.187 1.363-3.14 2.182-3.998 5.41-4.246 4.207-.381 7.472 2.596 6.276 5.825z" fill-rule="evenodd" stroke="#000" stroke-width="1.65306pt" fill="#ffe606"/><path d="M221.29 199.65c-1.566-1.422 29.458 11.241 33.726 11.385 5.836-2.134 29.886-22.484 29.886-22.484.237 1.992 1.09 7.162 3.414 8.254-9.296 7.543-17.74 14.8-27.037 22.341.664 11.954-1.518 24.62 4.553 37.997 0 0-7.256.141-7.256 0-6.404-6.404-8.682-37.284-8.682-37.284-10.198-4.554-20.398-8.965-30.596-13.519 1.47-.95 2.656-3.889 1.992-6.69z" fill-rule="evenodd" fill-opacity=".987" stroke="#000" stroke-width="2.204" fill="#ffef00"/><path d="M250.81 231.3c.496-.36-5.596 2.83-7.16 3.631-28.186 15.035-42.69 36.905-43.594 37.731-.487.932-1.384 2.174-2.204 3.392-.661 1.02-1.61 2.076-2.234 3.108-.864 1.196-2.679 3.558-3.67 4.606-.124.676.47-.23.276.219M270.07 213.43c-.547-.277 5.077 3.682 6.505 4.707 26.26 18.187 52.344 21.082 53.492 21.507 1.05.007 2.566.236 4.023.409 1.21.12 2.583.48 3.787.564 1.458.22 4.389.754 5.775 1.157.656-.2-.42-.312.067-.346" stroke="#000" stroke-width="2.204" fill="none"/></g></svg>