<svg xmlns="http://www.w3.org/2000/svg" height="480" width="640" version="1"><defs><clipPath id="a" clipPathUnits="userSpaceOnUse"><path fill-opacity=".67" d="M0 0h640v480H0z"/></clipPath></defs><g fill-rule="evenodd" stroke-width="1pt" clip-path="url(#a)"><path fill="#fff" d="M-39.999 0h720v480h-720z"/><path fill="#329203" d="M-39.999 320h720v160h-720z"/><path fill="#e77300" d="M-39.999 0h720v160h-720z"/><circle transform="translate(173.67 91.822) scale(.40323)" cy="367.47" cx="362.9" fill="#08399c" r="305"/><path d="M426.58 212.4c.673 2.456.815 3.768 1.304 6.118-4.822 1.492-7.332 4.705-6.75 7.922.481 2.897 2.624 7.018 8.66 6.141.155 2.396.226 3.772.232 6.32-18.228.043-37.44-1.008-55.368-2.598-13.226-1.145-16.373 2.527-23.25 3.11-7.979.653-14.263.178-30.744.827 16.155-3.33 22.503-5.348 29.982-6.556 7.199-1.117 9.972 1.489 23.37-3.72 16.92-6.727 34.984-12.746 52.564-17.564z" fill="#fff"/><path d="M293.62 134.15c2.46-.657 3.773-.79 6.126-1.264 1.461 4.831 4.658 7.362 7.878 6.8 2.9-.461 7.036-2.578 6.198-8.619 2.396-.14 3.773-.202 6.32-.191-.074 18.228-1.25 37.433-2.956 55.35-1.23 13.218 2.42 16.389 2.959 23.27.601 7.983.085 14.264.627 30.749-3.225-16.176-5.2-22.537-6.36-30.024-1.071-7.206 1.553-9.962-3.57-23.393-6.616-16.965-12.518-35.067-17.222-52.678z" fill="#fff"/><path d="M321.63 130.75c2.547-.006 3.85.2 6.246.344.177 5.044 2.62 8.308 5.877 8.59 2.922.294 7.461-.695 8.195-6.75 2.353.478 3.7.77 6.16 1.431-4.732 17.603-10.78 35.87-17.008 52.755-4.57 12.464-1.85 16.464-3.09 23.253-1.459 7.871-3.563 13.812-7.254 29.888 1.018-16.464.734-23.118 1.526-30.653.808-7.24 4.05-9.233 2.53-23.528-2.059-18.092-3.136-37.102-3.182-55.33z" fill="#fff"/><path d="M349.87 134.7c2.462.652 3.667 1.188 5.945 1.946-1.132 4.919.386 8.703 3.46 9.816 2.746 1.039 7.387 1.256 9.66-4.403 2.149 1.068 3.375 1.698 5.58 2.973-9.118 15.784-19.678 31.868-30.058 46.57-7.633 10.862-6.04 15.428-8.99 21.667-3.443 7.227-7.011 12.423-14.73 26.999 5.236-15.642 6.68-22.144 9.393-29.218 2.65-6.786 6.297-7.874 8.522-22.076 2.684-18.01 6.554-36.653 11.218-54.274z" fill="#fff"/><path d="M376.13 145.81c2.21 1.266 3.236 2.095 5.24 3.415-2.363 4.46-1.875 8.508.807 10.376 2.385 1.714 6.812 3.122 10.47-1.758 1.8 1.588 2.822 2.513 4.623 4.314-12.886 12.893-27.242 25.703-41.068 37.226-10.18 8.52-9.82 13.343-14.282 18.608-5.193 6.092-9.981 10.19-21.203 22.279 9.099-13.76 12.173-19.667 16.621-25.801 4.313-5.871 8.117-5.98 13.935-19.125 7.245-16.706 15.8-33.716 24.857-49.534z" fill="#fff"/><path d="M398.51 163.2c1.811 1.79 2.59 2.856 4.188 4.646-3.43 3.704-3.997 7.741-1.885 10.236 1.865 2.269 5.782 4.767 10.57.99 1.332 1.997 2.082 3.153 3.36 5.356-15.764 9.152-32.929 17.846-49.25 25.432-12.027 5.62-12.917 10.374-18.58 14.317-6.584 4.555-12.265 7.285-26.214 16.087 12.326-10.961 16.815-15.881 22.69-20.667 5.675-4.566 9.38-3.696 18.378-14.906 11.292-14.285 23.927-28.528 36.743-41.49z" fill="#fff"/><path d="M416.01 186.35c1.277 2.204 1.748 3.436 2.82 5.584-4.283 2.671-5.891 6.418-4.51 9.38 1.204 2.679 4.327 6.118 9.94 3.733.76 2.276 1.179 3.589 1.834 6.05-17.615 4.687-36.462 8.565-54.203 11.596-13.081 2.262-15.19 6.614-21.691 8.93-7.55 2.664-13.747 3.806-29.52 8.632 14.775-7.336 20.399-10.904 27.324-13.978 6.676-2.914 10.022-1.1 21.65-9.551 14.649-10.815 30.583-21.237 46.356-30.376zM214.69 267.32c-.658-2.46-.792-3.773-1.266-6.126 4.83-1.463 7.36-4.66 6.798-7.88-.463-2.9-2.581-7.035-8.621-6.195-.141-2.396-.204-3.773-.194-6.32 18.228.068 37.434 1.238 55.35 2.938 13.22 1.226 16.39-2.426 23.27-2.966 7.983-.604 14.264-.09 30.749-.638-16.175 3.23-22.535 5.209-30.022 6.371-7.205 1.073-9.962-1.55-23.392 3.577-16.962 6.622-35.063 12.529-52.672 17.239z" fill="#fff"/><path d="M430.16 240.36c.024 2.547-.174 3.851-.301 6.248-5.044.212-8.29 2.677-8.55 5.936-.274 2.923.746 7.456 6.805 8.149-.462 2.355-.745 3.704-1.39 6.168-17.634-4.611-35.941-10.535-52.868-16.649-12.495-4.484-16.476-1.738-23.273-2.93-7.881-1.406-13.836-3.47-29.936-7.052 16.47.906 23.122.577 30.662 1.318 7.245.758 9.26 3.986 23.545 2.37 18.078-2.182 37.079-3.388 55.307-3.558z" fill="#fff"/><path d="M426.4 268.65c-.636 2.466-1.164 3.675-1.907 5.958-4.926-1.1-8.7.442-9.793 3.523-1.021 2.753-1.208 7.395 4.465 9.631-1.054 2.156-1.676 3.386-2.936 5.6-15.843-9.015-31.995-19.471-46.766-29.755-10.91-7.563-15.466-5.94-21.724-8.85-7.25-3.396-12.468-6.93-27.095-14.552 15.676 5.133 22.187 6.535 29.279 9.202 6.803 2.605 7.915 6.245 22.13 8.378 18.028 2.566 36.696 6.315 54.347 10.865z" fill="#fff"/><path d="M415.43 295.03c-1.252 2.218-2.076 3.248-3.384 5.261-4.474-2.337-8.518-1.824-10.37.869-1.7 2.395-3.082 6.83 1.82 10.459-1.577 1.81-2.496 2.836-4.286 4.649-12.97-12.808-25.866-27.088-37.472-40.844-8.581-10.13-13.402-9.74-18.693-14.17-6.123-5.157-10.25-9.921-22.405-21.07 13.813 9.016 19.74 12.056 25.9 16.467 5.897 4.277 6.03 8.08 19.208 13.82 16.75 7.144 33.81 15.597 49.682 24.56z" fill="#fff"/><path d="M398 317.69c-1.784 1.818-2.846 2.6-4.63 4.205-3.717-3.416-7.756-3.968-10.244-1.847-2.261 1.874-4.745 5.8-.95 10.574-1.992 1.34-3.145 2.094-5.343 3.38-9.21-15.73-17.968-32.861-25.615-49.154-5.666-12.006-10.422-12.878-14.386-18.528-4.58-6.567-7.331-12.237-16.184-26.153 11.007 12.285 15.944 16.756 20.752 22.612 4.587 5.658 3.73 9.366 14.974 18.323C370.7 292.34 384.99 304.922 398 317.69z" fill="#fff"/><path d="M375.1 335.17c-2.196 1.29-3.426 1.767-5.568 2.851-2.696-4.267-6.451-5.854-9.405-4.455-2.672 1.218-6.094 4.36-3.677 9.96-2.272.773-3.582 1.2-6.04 1.868-4.787-17.588-8.772-36.412-11.902-54.136-2.337-13.068-6.7-15.152-9.053-21.64-2.707-7.534-3.884-13.725-8.8-29.47 7.42 14.732 11.02 20.335 14.133 27.243 2.952 6.66 1.157 10.015 9.674 21.596 10.898 14.588 21.411 30.462 30.638 46.183z" fill="#fff"/><path d="M348.59 346.03c-2.456.675-3.767.818-6.117 1.309-1.496-4.821-4.711-7.328-7.927-6.744-2.897.483-7.017 2.63-6.135 8.664-2.395.158-3.771.23-6.318.238-.059-18.228.978-37.441 2.554-55.37 1.134-13.227-2.54-16.371-3.128-23.248-.659-7.978-.189-14.263-.85-30.744 3.342 16.153 5.364 22.498 6.579 29.977 1.122 7.198-1.482 9.973 3.738 23.366 6.74 16.916 12.772 34.975 17.604 52.551z" fill="#fff"/><path d="M320.04 349.63c-2.547.012-3.85-.192-6.247-.33-.188-5.045-2.638-8.303-5.895-8.578-2.923-.288-7.46.71-8.181 6.766-2.353-.472-3.7-.761-6.162-1.417 4.694-17.613 10.703-35.892 16.897-52.791 4.543-12.474 1.815-16.467 3.04-23.26 1.442-7.874 3.534-13.818 7.19-29.902-.982 16.466-.683 23.119-1.46 30.656-.792 7.242-4.03 9.242-2.48 23.533 2.097 18.088 3.214 37.095 3.298 55.323z" fill="#fff"/><path d="M291.8 345.74c-2.464-.646-3.67-1.18-5.95-1.933 1.122-4.921-.404-8.702-3.48-9.808-2.749-1.033-7.39-1.24-9.65 4.424-2.152-1.064-3.38-1.691-5.588-2.96 9.084-15.805 19.608-31.912 29.956-46.638 7.61-10.878 6.007-15.44 8.943-21.685 3.428-7.234 6.984-12.438 14.67-27.032-5.201 15.653-6.631 22.158-9.328 29.24-2.635 6.79-6.28 7.887-8.473 22.093-2.645 18.016-6.474 36.667-11.1 54.3z" fill="#fff"/><path d="M265.43 334.64c-2.212-1.263-3.239-2.09-5.245-3.409 2.358-4.462 1.865-8.51-.82-10.375-2.387-1.71-6.815-3.113-10.468 1.772-1.802-1.586-2.824-2.51-4.628-4.308 12.869-12.909 27.21-25.738 41.02-37.278 10.17-8.533 9.804-13.356 14.259-18.626 5.185-6.099 9.969-10.203 21.175-22.305-9.081 13.77-12.148 19.682-16.588 25.822-4.306 5.876-8.11 5.99-13.911 19.143-7.224 16.715-15.756 33.736-24.794 49.566z" fill="#fff"/><path d="M242.8 317.05c-1.808-1.794-2.585-2.86-4.18-4.653 3.436-3.698 4.01-7.734 1.902-10.232-1.861-2.272-5.774-4.776-10.568-1.007-1.329-2-2.076-3.157-3.352-5.362 15.78-9.125 32.96-17.791 49.292-25.35 12.036-5.6 12.934-10.352 18.605-14.286 6.592-4.544 12.276-7.265 26.24-16.043-12.345 10.94-16.84 15.853-22.723 20.63-5.683 4.557-9.386 3.68-18.404 14.875-11.316 14.266-23.974 28.488-36.812 41.429z" fill="#fff"/><path d="M225.41 293.99c-1.276-2.204-1.747-3.437-2.818-5.585 4.284-2.67 5.894-6.416 4.513-9.378-1.202-2.68-4.324-6.12-9.937-3.737-.76-2.277-1.179-3.59-1.833-6.051 17.617-4.68 36.465-8.551 54.207-11.575 13.082-2.258 15.192-6.61 21.694-8.923 7.55-2.661 13.75-3.8 29.522-8.621-14.776 7.33-20.402 10.896-27.328 13.968-6.677 2.912-10.022 1.097-21.654 9.544-14.653 10.81-30.59 21.226-46.367 30.358z" fill="#fff"/><path d="M267.34 144.64c2.21-1.266 3.444-1.731 5.597-2.793 2.651 4.296 6.39 5.922 9.359 4.554 2.684-1.19 6.139-4.297 3.78-9.92 2.28-.75 3.595-1.163 6.06-1.806 4.602 17.638 8.39 36.502 11.335 54.258 2.2 13.092 6.541 15.22 8.826 21.733 2.628 7.562 3.74 13.765 8.49 29.56-7.265-14.81-10.806-20.45-13.847-27.39-2.882-6.69-1.052-10.026-9.447-21.695-10.745-14.701-21.09-30.685-30.153-46.501z" fill="#fff"/><path d="M211.28 238.77c.006-2.547.218-3.849.373-6.244 5.045-.154 8.32-2.582 8.617-5.838.308-2.92-.66-7.464-6.71-8.226.488-2.35.786-3.696 1.459-6.152 17.58 4.813 35.819 10.946 52.675 17.255 12.443 4.627 16.455 1.927 23.238 3.197 7.864 1.496 13.795 3.629 29.853 7.394-16.46-1.094-23.114-.84-30.645-1.669-7.236-.841-9.214-4.092-23.516-2.64-18.102 1.975-37.116 2.963-55.344 2.923z" fill="#fff"/><path d="M215.3 210.76c.658-2.46 1.198-3.664 1.961-5.94 4.916 1.145 8.705-.363 9.825-3.433 1.047-2.744 1.276-7.384-4.377-9.672 1.074-2.147 1.707-3.37 2.987-5.573 15.76 9.16 31.816 19.762 46.492 30.181 10.841 7.662 15.411 6.08 21.642 9.047 7.219 3.463 12.404 7.044 26.961 14.8-15.628-5.276-22.126-6.738-29.193-9.468-6.778-2.668-7.857-6.318-22.053-8.58-18.003-2.731-36.635-6.65-54.244-11.361z" fill="#fff"/><path d="M226.53 184.44c1.274-2.206 2.107-3.228 3.434-5.229 4.451 2.38 8.5 1.906 10.379-.77 1.722-2.378 3.146-6.8-1.721-10.475 1.594-1.795 2.523-2.813 4.33-4.608 12.847 12.932 25.606 27.334 37.08 41.2 8.484 10.21 13.308 9.868 18.557 14.348 6.074 5.215 10.154 10.018 22.203 21.282-13.726-9.147-19.623-12.243-25.741-16.712-5.856-4.334-5.952-8.138-19.076-14.003-16.68-7.304-33.66-15.919-49.446-25.033z" fill="#fff"/><path d="M244.6 161.55c1.81-1.791 2.884-2.558 4.693-4.136 3.665 3.47 7.696 4.083 10.214 1.999 2.289-1.84 4.83-5.729 1.107-10.558 2.011-1.31 3.176-2.047 5.393-3.301 8.975 15.865 17.479 33.126 24.883 49.53 5.486 12.089 10.23 13.032 14.109 18.739 4.48 6.634 7.148 12.344 15.794 26.39-10.823-12.447-15.693-16.991-20.414-22.917-4.503-5.726-3.591-9.42-14.7-18.543-14.16-11.45-28.261-24.243-41.08-37.202z" fill="#fff"/></g></svg>