<svg xmlns="http://www.w3.org/2000/svg" height="480" width="640"><defs><clipPath id="a" clipPathUnits="userSpaceOnUse"><path fill-opacity=".67" d="M0 64h512v384H0z"/></clipPath></defs><g clip-path="url(#a)" fill-rule="evenodd" transform="matrix(1.25 0 0 1.25 0 -80)"><path fill="#fff" d="M0 0h512v512H0z"/><path d="M0 341.33h512V512H0z"/><path fill="#f30000" d="M0 0h512v170.67H0z"/><path fill="#005623" d="M487.59 284.028l-21.115-15.274-21.012 15.483 7.998-24.808-21.216-15.196 26.064-.06 7.903-24.869 8.106 24.767 26.094-.173-21.048 15.363zM193.24 233.17c.217 24.34 0 39.988 0 44.986a184.729 184.729 0 00-7.172 8.91c-.869-.652-1.087-.652-1.087-1.956 0-1.304-.217-33.25 0-44.986 3.912-1.956 6.52-7.39 8.259-6.955zm-8.91-.435c1.956-3.26 4.129-6.52 5.65-8.04 1.522.869 1.304 3.26 1.522 3.91-1.522 2.174-5.216 5.651-6.303 6.738-.435-.652 0-.435-.87-2.608zm10.866-27.818c-13.257 8.694-28.253 19.125-33.686 23.69-5.434 4.564-7.389 7.389-7.389 15.212 0 7.824.217 16.734-.435 20.863-.652 4.13-2.608 8.476-7.389 4.564-4.781-3.911-8.258-7.823-10.432-9.562-2.173-1.739-6.085-4.13-11.301.435-5.216 4.563-29.556 30.208-34.12 33.033-4.564 2.825-5.433 3.477-8.693 5.216 6.737.434 14.343.869 20.428-.435 8.041-5.868 17.386-19.125 20.43-22.385 3.042-3.26 6.084-10.214 12.821-2.608 6.738 7.607 6.52 7.824 9.78 10.214 3.26 2.391 7.39 1.956 10.215-2.825 2.825-4.781 3.042-6.954 4.129-14.778 1.087-7.823 1.738-17.603 3.477-21.95 1.739-4.346 5.216-8.693 11.083-12.17 5.868-3.478 6.955-3.695 8.259-4.347 2.607-4.999 8.91-16.734 11.518-19.56 1.087-1.304 1.304-1.956 1.304-2.608zM136.3 284.024c-3.26-2.173-4.347-3.912-6.085-3.694s-5.433 5.216-7.607 6.52c2.826 2.39 5.434 4.564 7.607 4.13 2.173-.436 3.694-5.217 6.085-6.956zM411.65 222.96c-4.564 1.087-6.954 7.172-10.866 11.301-.435 12.171-.435 49.985-.435 54.983 3.912-4.564 6.303-7.172 9.128-8.91.652-20.211 3.042-48.463 2.173-57.374zm-21.516-.217c-5.433 3.477-6.737 6.954-11.301 10.866-.217 14.561.435 35.206-.652 38.032-1.086 2.825-3.477 8.693-9.344 8.041-5.868-.652-7.607-1.738-7.607-7.823s1.304-44.986 1.304-51.29c-4.564 2.174-8.476 8.911-11.735 11.737 0 15.212.652 34.554.217 38.684-.435 4.129-2.173 10.866-9.562 10.649-7.39-.217-11.301-3.912-11.301-8.258 0-4.347-.217-32.816.217-37.815-6.52 4.563-21.733 13.69-24.775 25.427-3.042 11.735 1.74 15.213 6.085 13.039 4.347-2.173 6.303-4.13 8.693-5.868.653 7.389.87 15.43 8.258 20.211 7.39 4.781 16.734 3.043 20.212.435 3.477-2.608 4.782-4.347 5.65-5.65 6.52 4.998 16.083 7.606 22.386 2.172 6.302-5.432 9.78-10.866 10.43-16.95.653-6.086 3.696-37.38 2.826-45.639zm-68.24 29.556c-6.52 3.043-9.345 7.606-7.606 10.432 1.738 2.825 5.215-.435 7.606-1.521-.435-4.346 0-6.737 0-8.91zm41.944-46.073c-1.521 4.998-2.608 4.129-4.564 4.347-1.956.217-3.26-1.74-4.78-3.478-1.522.217-1.74.652-2.826 1.087 3.477 4.998 6.085 7.171 10.214 6.085 4.129-1.087 4.347-4.781 4.347-6.737-.653-.435-.87-.652-2.391-1.304zm-3.694-6.303c-1.956.653-2.391 1.087-3.043 2.826 1.087 2.39 2.608 3.694 4.13 3.042 1.52-.652 1.738-3.26.869-3.912-.87-.652-.435-1.086-1.956-1.956zM62.51 284.028l-21.115-15.274-21.012 15.483 7.998-24.808-21.216-15.196 26.064-.06 7.903-24.869 8.106 24.767 26.094-.173-21.048 15.363zM274.615 284.028L253.5 268.754l-21.012 15.483 7.998-24.808-21.216-15.196 26.064-.06 7.903-24.869 8.106 24.767 26.094-.173-21.048 15.363z"/></g></svg>