<svg xmlns="http://www.w3.org/2000/svg" height="480" width="640"><defs><clipPath id="a" clipPathUnits="userSpaceOnUse"><path fill-opacity=".67" d="M-84.325-2.11h685.48V512h-685.48z"/></clipPath></defs><g clip-path="url(#a)" fill-rule="evenodd" transform="translate(78.73 1.97) scale(.93365)"><path fill="#fff" d="M-116.04 1.136h750.87v509.73h-750.87z"/><path fill="#008900" d="M-116.04 364.96h750.87V512h-750.87z"/><path fill="#c23743" d="M-118 185.42h750.87v147.04H-118z"/><path d="M-116.04-2.11h750.87v160.08h-750.87z"/><path d="M158.63 436.28c37.957-70.646 165.2-304.64 163.95-305.32-20.81-12.213 16.82-30.975 44.455-74.966-19.688 47.28-17.599 91.404-37.812 78.702-33.616 63.449-137.53 257.39-163.36 305.3-2.736-1.47-3.54-2.069-7.228-3.712z" stroke="#000" stroke-width="1.081" fill="#fff"/><path d="M349.01 439.05c-37.96-70.64-165.21-304.64-163.95-305.32 20.81-12.213-16.82-30.975-44.455-74.966 19.688 47.28 17.599 91.404 37.812 78.702 33.616 63.449 137.53 257.39 163.36 305.3 2.736-1.47 3.54-2.069 7.228-3.712z" stroke="#000" stroke-width="1.081" fill="#fff"/><path d="M252.53 85.435c119.59 84.303 117.63 288.19 0 358.77-109.79-74.5-125.47-276.43 0-358.77z" stroke="#000" stroke-width="1.136" fill="#c23743"/><path d="M268.228 260.908c0 12.452-6.583 22.546-14.704 22.546-8.12 0-14.704-10.094-14.704-22.546s6.583-22.546 14.704-22.546c8.12 0 14.704 10.094 14.704 22.546z" fill="#fffffb"/><path d="M251.78 93.278c33.627 32.534 33.075 111.22 0 138.46-30.87-28.751-35.28-106.68 0-138.46zM251.78 297.17c33.627 32.534 33.075 111.22 0 138.46-30.87-28.751-35.28-106.68 0-138.46z" stroke="#000" stroke-width=".374" fill="#fff"/><path fill="#c23743" d="M244.69 93.279h13.723v141.16H244.69zM246.65 295.21h13.723v141.16H246.65z"/><path d="M179.28 181.5c20.401 37.985 20.067 129.85 0 161.66-18.729-33.568-21.405-124.55 0-161.66zM328.28 183.46c20.401 37.985 20.067 129.85 0 161.66-18.729-33.568-21.405-124.55 0-161.66z" stroke="#000" stroke-width=".315"/></g></svg>