<svg xmlns="http://www.w3.org/2000/svg" height="480" width="640"><path fill-rule="evenodd" fill="#fc0" d="M0 0h640v480H0z"/><path fill-rule="evenodd" fill="#f60" d="M241.63 42.685h202.1v403.22h-202.1z"/><path fill-rule="evenodd" fill="#060" d="M42.663 42.685h199.14v403.28H42.663z"/><path fill-rule="evenodd" fill="#991b33" d="M242.394 171.582h367.9v274.823h-367.9z"/><g fill="#fc0"><path stroke-linejoin="round" d="M387.27 298.792l5.426.139s-6.121 5.147-4.73 12.103c6.4-9.46 8.764-7.652 8.764-7.652-1.947 2.086-5.704 5.008-2.782 11.409 2.505-6.54 7.652-11.548 7.652-11.548s-1.392 7.234 1.668 13.912c2.226-6.678 5.983-12.381 5.983-12.381s-.556 7.234 2.643 9.876c2.504-2.225 4.174-7.93 4.174-7.93s4.73 8.348 7.652 9.6c2.364-5.704 2.364-10.155 2.364-10.155s9.74 6.956 17.529 2.921c-6.956-2.503-9.32-8.347-9.32-8.347s12.66 5.564 18.085 3.061c-5.288-4.036-17.668-10.017-17.668-10.017s9.182 3.339 11.824 2.504c-1.251-1.808-5.286-4.035-5.286-4.035" fill-rule="evenodd" stroke="#991b33" stroke-linecap="round" stroke-width="1.52646pt"/><path d="M463.257 230.925c16.776-1.526 42.695 12.181 56.433 21.325 0-3.053 0-6.09 3.038-7.617 3.053-1.527 7.632 1.526 6.106 6.09-4.58 10.655-22.882-1.526-28.973-4.564l3.053 6.09c-9.158-1.526-10.685-3.052-16.776-10.67-1.526 6.091-1.526 7.618-9.158 7.618 2.87-4.518 3.831-6.03 0-10.655l-1.527 9.128-7.617-10.654v10.654c-1.526-1.51-7.632-6.09-10.685-6.09-4.564-1.527-7.617 7.617-9.144 12.196 4.58-4.58 6.091-7.617 13.723-4.58-4.136 3.909-2.93 8.595 1.527 12.182 0 0 .794-6.335 1.282-7.785 2.427 1.817 7.571 8.64 13.967 9.312 4.58 0 9.159-1.527 13.723-3.038 15.25-1.527 48.801 1.511 41.184 24.362-1.526 4.58-3.053 7.617-6.106 10.67 21.355 7.617 3.053 35.033-1.526 48.74-3.053 12.181-.931 21.89 14.104 20.317-3.037 6.091-7.998 7.098-14.104 7.098 0 0 .763 3.664 4.686 5.389-6.518 5.846 2.26 14.608-1.633 18.99-6.564 3.144-15.25-1.527-15.25-1.527l-.427 4.32s-11.525-.794-11.77-1.283c0 0 3.283-6.136 3.038-6.258-3.052 4.564-5.968 7.235-12.196 6.258 0 0 .489-2.87 3.893-6.502-4.626 4.61-5.13 6.624-9.984 6.502 0-7.617 4.565-16.745 13.723-13.707 1.527 0 6.335 3.785 8.594 1.343 1.832-2.626.748-11.51.748-14.563.962-13.463-1.725-12.67-9.342-20.286-6.105-4.564-10.566-11.562-18.183-13.088-7.632-1.527-19.948 6.997-26.054 10.035-15.249 9.143-28.972 15.234-45.748 18.287 0 0 .332-.779.332-2.302 0-1.027 16.466-13.844 19.346-36.345-4.508 22.208-20.517 33.94-21.12 38.067-.602 4.127-3.871 11.169-4.268 11.63 1.98-1.188 8.331-4.3 16.38-4.96-1.735 9.54-10.67 7.618-12.196 12.182 0 4.579 6.106 10.67 0 13.707h-24.393s3.754-5.196 3.932-6.628c-3.283 1.992-5.367 7.22-12.558 6.685.263-1.966 3.706-5.045 3.128-6.254-4.114 3.816-6.045 7.032-11.293 6.197 1.526-4.564 1.526-10.654 7.632-10.654 4.58-1.527 9.159 1.526 12.197-3.053 6.106-7.617-1.113-24.28-2.624-33.424 0-7.617.023-9.06-1.94-18.354l1.526 27.415c-6.106-4.58-12.212-7.617-16.791-13.707-10.67-13.708-7.617-28.942 6.106-38.086 6.106-4.564 9.403-6.945 17.035-9.983-1.526-4.58 2.168-7.953-3.236-9.372-1.618 2.824-3.206 5.907-6.289 5.648l1.649-7.617s-5.496.336-4.412 10.166c-6.32-3.038-3.22-10.166-3.22-10.166h-3.054s-.015 9.067-4.991 10.899c1.343-4.26 1.938-10.9 1.938-10.9s-8.166 9.74-12.913 6.58c2.793-3.16 4.96-3.679 4.579-7.495-.366-3.801-2.336-8.705-2.693-9.48 1.728.835 13.233 4.27 20.449.692-.478 2.385-.263 5.14-.263 5.14 7.617-1.527 9.144-1.527 16.776 1.51-1.526-10.654-7.632-12.18-13.723-19.797v6.09c-6.106-1.511-7.632-3.038-10.685-9.128l-4.564 3.038c-8.045-4.748-13.983-16.013-2.565-15.357 6.808.855 1.038 6.228 1.038 6.228s17.463-5.495 24.393-6.106c0 0-2.015-4.258-8.456-4.991 5.342-4.015 10.715-5.312 14.562 3.144 3.831.214 7.403-4.396 5.129-10.38 5.663-.091 8.457 3.496 11.036 7.266 2.107.382 4.229-1.831 3.725-9.403 5.342 4.565 7.968 5.969 8.32 9.816 4.548 1.007 7.631-.016 14.485-3.069-1.511 6.106-1.511 7.617-7.617 10.67 4.305 5.32 4.758 11.74 3.856 14.074-1.494-.433-1.867-.531-2.928-.821.331 2.353.81 8.828.599 12.636h-3.053l4.58 13.708-3.054 4.58c10.67-4.58 21.355-3.054 32.025-6.091 12.197-1.527 24.408-6.106 38.131-6.106 9.144 0 9.144 4.58 21.356 4.58v-7.618c0-6.09-4.58-12.181-12.212-13.708-4.564 0-12.197 3.038-16.776 4.565-6.09 1.526-15.25 1.526-21.355 1.526-19.814-3.053-16.654-4.976-23.569-8.686-4.136 1.1-6.457 4.61-8.517 10.808-3.832-5.618-2.977-12.792 1.587-15.83-4.564-16.76 7.632-24.377 22.882-27.415z"/><path stroke-linejoin="round" d="M467.836 368.017c-3.053-4.58-13.738-12.197-10.685-19.814 4.58-7.617 30.514-19.798 35.078-3.037 1.527 4.564-3.178 16.68-4.704 21.259 2.309-.594 4.877-4.142 12.393-2.856-1.4 5.983-10.543 10.598-10.543 10.598.928 4.048-6.29 22.776-6.29 22.776h-19.828l3.053-6.09-4.58 6.09h-7.632l6.106-7.617s-7.222 8.46-13.377 8.123c1.527-12.182 8.797-14.213 19.483-9.634 1.526-6.09 4.564-13.708 1.526-19.798z" stroke="#991b33" stroke-width="1.52646"/><path d="M386.17 253.306c-2.056 1.265-.377 9.633 2.782 8.208 3.936-1.775-1.22-9.169-2.782-8.208z" fill-rule="evenodd" stroke="#991b33" stroke-width="1.52646pt"/><path stroke-linejoin="round" d="M388.109 250.664c3.757 2.643 9.739 9.738 17.112 9.32-5.566-4.59-4.451-7.929-4.451-7.929 2.921 3.478 12.658 6.678 15.858 5.286-3.755-2.782-4.451-3.06-5.286-5.703 4.452.556 10.016 1.53 14.468-.418M395.344 297.128l.417-6.4s4.174 9.738 7.234 9.877c-1.948-7.094-1.113-12.798-1.113-12.798M405.083 289.338s8.347 15.303 12.381 12.8c-6.12-5.427-5.425-12.522-5.425-12.522s2.783 9.46 10.99 12.382c.557-5.287-3.199-13.912-3.199-13.912s6.816 11.965 10.295 12.242c2.225-2.78 1.39-5.703 1.39-5.703M398.55 278.766l6.121 7.79.974-10.433s5.982 4.73 7.095 4.59-1.67-11.129-1.67-11.129 8.069 12.243 8.626 11.964c.556-.278.834-12.103.834-12.103s6.122 16.834 8.209 16.695c2.087-.14 1.53-2.365 1.53-2.365" fill-rule="evenodd" stroke="#991b33" stroke-linecap="round" stroke-width="1.52646pt"/><path stroke-linejoin="round" d="M393.955 265.132s9.46 8.625 10.434 8.069c.974-.557-3.894-10.017-3.894-10.017s5.425 5.147 7.511 5.565.697-6.678.697-6.678 6.398 5.426 7.511 5.147.557-5.147.557-5.147 4.174 4.174 4.452 4.174-.835-11.965-.835-11.965 9.322 9.878 10.016 9.739M356.114 268.192c.417.696 1.966 12.998 21.026 7.99 1.809-.974 1.013 3.438.934 4.73.835-.14 9.919-3.379 16.179 1.212-.736-5.088-2.108-8.506-7.533-11.428-2.642-.556-4.572.795-4.572.795s-22.973.18-26.034-3.299z" fill-rule="evenodd" stroke="#991b33" stroke-linecap="round" stroke-width="1.52646pt"/><path stroke-linejoin="round" d="M345.72 346.524c-.317 1.424-1.314 1.835-4.16 5.949 1.265 1.74 7.087 4.46 8.668 3.037 1.425-.792 1.527-4.564 1.527-4.564 3.053 4.564 8.423 11.762 14.529 13.288 4.564 1.527 9.143-1.526 9.143-6.09s-6.896-11.936-9.934-14.973c-7.632-9.144-6.96-26.413-21.387-24.01-.075.131-.652 2.096-2.035 2.447 1.158 2.218 1.809 4.092-.965 4.79 2.157 2.119 2.496 3.657-.276 4.721 1.677 2.25 3.642 3.076-.22 5 4.04 3.94 4.91 9.734 5.11 10.405" stroke="#991b33" stroke-linecap="round" stroke-width="1.52646"/><path d="M341.964 217.433c-4.587 6.644-5.063 79.731-3.639 94.444-4.587 3.005-13.13 1.74-15.503.79 1.108-5.22 5.062-90.014 19.142-95.234z" fill-rule="evenodd" stroke="#991b33" stroke-width="1.52646pt"/><path d="M328.99 367.238s-20.25 2.847-11.709-9.174c7.278-3.164 7.12 4.271 4.43 6.802 3.323.37 5.538-1.793 6.011-5.063-4.112-5.537 1.74-9.176 1.424-9.176-14.078 3.165-15.977-6.486-10.757-8.067 6.593.368 4.484 2.477 7.12 4.43 4.746-4.377 7.594-4.798 10.44-.316 2.848-4.43 6.961-3.955 7.119-3.48 4.588 7.75-5.537 8.224-9.65 7.275 3.481 3.797 2.057 7.435.949 10.126.105 2.636 2.11 3.058 5.38 4.112-6.96-19.195 24.52 5.114-7.12 2.69.053.843.107 1.687.158 2.53 2.585.476 4.377 1.108 5.22 3.797-1.106 1.476-2.846 1.687-5.536.634 0 0 1.582 4.43-1.265 5.695-2.374-1.424-2.69-4.905-2.69-4.905-1.318 1.635-3.27.579-4.904-.79 1.477-3.64 5.643-1.9 5.38-7.12zM311.587 308.714c1.212-5.486 13.974-4.801 7.91 1.106 4.06 6.486 16.505 5.538 21.199 1.9-3.957-7.543 6.803-5.908 6.328-.16-1.319 10.176-36.807 8.807-35.437-2.846z" fill-rule="evenodd"/><path d="M564.843 405.797c3.8 7.113 10.55 23.968 14.288 27.995 3.503 3.132 12.227 2.763 14.913-.778 0 0 5.587 5.754 7.846 7.495 1.343-.458 2.168-1.74 2.168-1.74-2.275-2.474-5.373-3.863-6.9-8.442 2.275-3.038 3.526-8.945 2-13.524-6.67-11.174-28.866-6.763-34.315-11.006zM287.836 211.702c-3.801-7.113-10.55-23.968-14.288-27.995-3.503-3.132-12.227-2.763-14.914.779 0 0-5.586-5.755-7.846-7.495-1.343.458-2.167 1.74-2.167 1.74 2.274 2.473 5.373 3.862 6.9 8.441-2.275 3.038-3.527 8.945-2 13.525 6.67 11.173 28.865 6.762 34.315 11.005zM285.577 404.713c-7.114 3.8-23.969 10.55-27.996 14.288-3.132 3.503-2.763 12.227.779 14.913 0 0-5.755 5.587-7.495 7.846.458 1.344 1.74 2.168 1.74 2.168 2.473-2.275 3.862-5.373 8.441-6.9 3.038 2.275 8.945 3.526 13.525 2 11.173-6.67 6.762-28.866 11.006-34.315zM565.423 211.7c3.8-7.112 10.55-23.968 14.288-27.994 3.503-3.133 12.227-2.763 14.913.778 0 0 5.587-5.755 7.846-7.495 1.343.458 2.168 1.74 2.168 1.74-2.275 2.473-5.373 3.862-6.9 8.442 2.275 3.037 3.526 8.945 2 13.524-6.67 11.174-28.866 6.762-34.315 11.006z" stroke="#991b33" stroke-width="1.52646"/><path stroke-linejoin="round" d="M317.296 321.215c-.299 2.318 5.232 3.327 10.9 3.354 5.67.03 11.481-.923 11.742-2.53.075-2.878-4.95-.431-10.666-.479-5.717-.045-10.481-2.288-11.976-.345zM317.754 327.642c.074 2.167 5.567 2.69 10.425 2.84 4.858.149 9.752-.822 10.648-2.391-.86-2.467-6.258-.411-10.65-.3-4.39.113-9.266-2.167-10.423-.15zM319.327 333.397c-.374 1.644 4.465 2.82 8.92 2.848s10.771-1.691 10.808-3.447c-.261-1.381-6.502.486-10.695.626-4.195.14-9.033-1.522-9.033-.027zM318.792 339.304c.374 1.606 5.868 2.15 10.696 1.784 4.83-.363 9.742-1.859 10.153-3.578-.223-1.083-5.772.842-10.368 1.075s-10.555-.553-10.48.719z" fill-rule="evenodd" stroke="#fc0" stroke-width="1.52646pt"/></g></svg>