<svg xmlns="http://www.w3.org/2000/svg" height="480" width="640" version="1"><defs><clipPath id="a" clipPathUnits="userSpaceOnUse"><path fill-opacity=".67" d="M0-48h640v480H0z"/></clipPath></defs><g fill-rule="evenodd" clip-path="url(#a)" transform="translate(0 48)" stroke-width="1pt"><path fill="#eb0013" d="M0-128h640v640H0z"/><path d="M371.01 263.71L204.26 380.32l42.967-131.57 22.318 16.163-16.012 48.063 108.75-78.369 8.73 29.105zm17.105-76.157l58.208 195.62-109.3-81.567 22.482-15.934 38.898 29.187-40.653-128.4 30.368 1.093zm-68.999-38.843l204.88.241-111.65 80.529-8.933-26.067 41.515-27.793-135.44 1.912 9.63-28.821zm-57.93 52.3L326.066 5.1l44.65 134.69-27.56.35-16.44-51.593-41.16 130.61-24.37-18.15zm33.248 70.407l-165.29-121.32 139.53-1.079-8.139 26.324-51.786-.209 110.45 78.67-24.761 17.614z" fill="#0b5035"/></g></svg>