<svg xmlns="http://www.w3.org/2000/svg" height="480" width="640"><g fill-rule="evenodd"><path fill="#d61517" d="M0 0h640v480H0z"/><path fill="#018edf" d="M213.33 0h213.33v480H213.33z"/><path d="M102.54 244.2c9.912.286 11.437-3.152 11.437-6.59V225.86c0-1.432 3.812-2.865 3.812-5.444 0-2.58-1.906-5.444-2.668-7.164-1.144 4.298-3.05 8.597-6.482 10.029-1.525-3.439-1.906-4.585-1.143-6.304.762-1.72 0-4.298-1.525-6.877-1.144 5.444-4.575 6.877-4.956 8.596-.382 1.72-1.525 6.591-3.813 4.012-2.287-2.58-3.812-5.73-4.956-9.17-2.288 6.877-1.144 8.31-.381 9.457.762 1.146 1.525 4.584 1.525 6.017s-1.525 7.164-.763 8.883c.763 1.72 1.144 6.877 9.913 6.304zM130.126 269.01a24.999 18.789 0 11-49.998 0 24.999 18.789 0 1149.998 0z" fill-opacity=".867" fill="gold"/><path d="M140 276.43c-13.198 18.438-38.615 23.562-57.462 11.202-4.968-3.257-8.601-6.904-12.058-11.575 3.117 13.254 12.565 22.638 25.64 25.988 19.245 4.93 38.903-6.546 43.879-25.615zM66.874 421.71h74.379v15.473H66.874zM70.513 312.35l33.169 20.127 33.55-20.127H70.513zM70.513 334.14h67.1v15.474h-67.1zM70.513 447.09l33.169 15.76 33.55-15.76H70.513zM20.316 312.58h32.377v149.61H20.316zM153.51 312.58h32.377v149.61H153.51zM81.153 365.13c9.9-7.327 24.689-12.815 30.008-6.877 5.346 6.144 6.616 11.632 5.445 16.57-1.582 4.285-8.69 9.402-13.942 6.686-6.035-2.847-15.663 7.023-16.77 12.474-1.441 5.814-1.583 12.728.077 19.142-15.812-18.435-16.887-39.764-4.817-47.994zm26.885 9.11c-2.727 1.604-6.695-.026-8.856-3.638-2.161-3.611-.502-4.955 2.224-6.56 2.728-1.602 5.496-2.86 7.657.75 2.162 3.612 1.702 7.845-1.025 9.448zm15.275 32.746c-9.776 7.507-25.881 10.406-31.252 4.532-5.402-6.08-.93-13.755.178-18.728 1.523-4.324 8.56-8.11 13.828-5.468 6.047 2.762 15.759-8.072 14.61-15.015 1.367-5.856-.508-6.852-3.358-15.444 15.98 18.248 17.92 41.674 5.994 50.123zm-21.785-11.558c2.698-1.652 5.943-.807 8.141 2.783 2.198 3.59 2.048 6.41-.65 8.063-2.698 1.65-6.928 1.511-9.125-2.079s-1.064-7.115 1.634-8.767z" fill-opacity=".867" fill="gold"/></g></svg>