<svg xmlns="http://www.w3.org/2000/svg" height="480" width="640" version="1"><g stroke-width="1pt" fill-rule="evenodd"><path fill="#e80008" d="M.901 0h640v480h-640z"/><path fill="#fff" d="M.901 34.286h640v34.286h-640zM.901 102.86h640v34.286h-640zM.901 171.43h640v34.286h-640zM.901 240h640v34.286h-640zM.901 308.57h640v34.286h-640zM.901 377.14h640v34.286h-640zM.901 445.71h640v34.286h-640z"/><path fill="#000689" d="M0 0h245.17v141.39H0z"/><g fill="#fe0"><path d="M124.467 120.178c-26.378 14.678-59.355 4.76-73.61-21.827-14.253-26.586-4.412-59.824 21.966-74.19 16.31-8.882 34.224-9.058 50.5-.321-9.185-2.21-17.386-2.092-26.297.555-25.96 7.712-40.882 35.425-33.309 61.862 7.573 26.435 34.788 41.631 60.746 33.92z"/><path d="M168.97 54.265l27.854-15.825-22.13 23.163 31.963-2.17-29.988 11.27 29.738 11.91-31.905-2.857 21.624 23.631-27.506-16.416 9.226 30.674-17.655-26.726-5 31.638-4.308-31.74-18.23 26.343 9.886-30.472-27.855 15.825 22.13-23.164-31.963 2.172 29.989-11.27L105.1 58.34l31.906 2.856-21.625-23.631 27.506 16.416-9.226-30.673 17.656 26.725 4.998-31.64 4.31 31.743 18.23-26.342z"/></g></g></svg>