<svg width="60" height="60" xmlns="http://www.w3.org/2000/svg"><g fill="none" fill-rule="evenodd"><path d="M0 0h60v60H0z"/><path d="M28.057 5.058v.091h.427l-.427-.091zm2.988 1.006l.342.64h.17c.095-.453-.104-.607-.512-.64zm-.853.457c.629.475 2.208 1.9 1.365 2.652.221.51.678 1.21 1.196 1.372l.939-.914-.94 1.371c.832.627 1.456 1.548 2.064 2.404.073.104.556.957.69.5.09-.308-.693-1.393-.79-1.806.539.52.525 1.416 1.366 1.555l-.427-.732.17-.183.428.183-.086-.366.256.274h.342v.183c-.291.024-.419.062-.512.366l.426.092v.091l-.426.549.341.823c-.314-.393-.518-.695-1.024-.732.116.459.471.798.715 1.19.428.686.69 2.403 1.675 2.286l-.341.365c.179.674.247 1.518 1.024 1.372-.203.157-.623.22-.766.421-.233.329.072.537.34.494l.084.548-.682.092c-.067.875-.208 2.442-.94 2.955-.67.47-2.658.36-2.629 1.617.022.95 1.175.96 1.775 1.188.442.167.693.613 1.11.83.46.24 1.006.177 1.452.427 1.29.723 1.304 2.167.503 3.317-.473.679-1.098 1.138-1.581 1.78-.417.554.53.597.822.598.11.68.526.133.926.263.305.1.32.557.354.835 2.003-.02 3.27-2.059 4.32-3.541.545-.77 1.28-1.381 1.825-2.145.284-.398.283-.84.498-1.261.18-.352.503-.574.699-.918l-.854-.092c-.128-1.945 1.791-2.383 3.244-2.012l.085.732.683-.823c-.426-.406-.172-.907-.17-1.464l1.366-.731c-.196-1.204.246-2.406.939-3.293v-.091c-.969-.75-2.323-.91-3.296-.038-.397.356-.518.84-1.058 1.042-1.338.5-2.698-.605-3.927-1.008-.598-.196-.991.035-1.451-.545l.853.366c-.198-.455-.62-.732-.806-1.189-.28-.685-.003-1.731-.645-2.195l-.341.274v-.091l.512-.274c-.205-.349-.49-.362-.854-.366-.093-.68-.53-.81-1.11-.823.059.384.357.493.463.832.094.299-.128.586-.016.89.108.292.457.552.347.909-.067.216-.325.3-.486.145-.226-.22-.097-.617-.37-.827-.224-.173-.54-.099-.791-.204-.795-.333-1.862-1.343-.94-2.203-.18-.5-.587-1.282-1.109-1.371-.004-.47-.021-.781-.512-.823v-.092l.512-.091-.17-.366.426-.092c-.221-.879-.888-1.727-1.707-1.371l-.342-.366v-.092h.342c-.22-.73-1.512-.943-2.134-1.097v.274h-.513l.342-.274c-.219-.764-.641.025-.854.366-.097-.583-1.847-2.911-2.22-1.92zm6.914 4.939v.365h.427l-.427-.365zm3.671 2.469c.048-.324-.083-1.567-.659-1.264-.689.362.368 1.143.66 1.264zm-1.878-.823c.163.308.3.314.598.183l-.598-.183zm-.341 1.097l-.171-.366c-.363.224-.198.459.17.366zm2.902.458c.138.269.23.32.512.274l-.17-.366-.342.092zm-2.732.731l.598.549.256-.64-.854.091zm5.293 3.293l-.085.091v.183l.085.091h.17l.086-.091v-.183l-.085-.091h-.17zm1.878 1.097l.427.091-.427-.091zM29.68 30.299l.086.366c-.564-.087-1.705.666-1.851 1.28-.12.506.152 1.07-.005 1.552-.166.51-.797 1.177-1.218 1.453-.353.231-.78.151-1.081.484-.473.522-.456 1.278-.714 1.907-.364.89-.998 1.658-1.705 2.261-.507.434-1.234.507-1.792.873-.853.56-1.618 1.476-2.48 1.96-.527.295-1.165.35-1.703.652-.513.288-.978.796-1.54.976-.438.14-.934-.077-1.358.101-.416.175-.681.72-1.115.951l.086.274c-.743.054-1.067.698-1.622 1.131-.38.297-.853.426-.94.973-1.004.078-2.134 1.606-.597 1.829v.091h-.597l.17.366-1.365-.457-.427 1.189 1.11-.183v.091c-.34.137-.965.514-.257.64v.092l-1.707.183.085.914.598-.182-.17.457h.511c-.592.956 1.27.601 1.793.715.559.122.859-.425 1.366-.334.52.093.52.686.944.84.323.118.687-.122 1.018-.115.344.007.688.194 1.026.266v.183l-.512.182v.183c.775.274 1.44.113 2.22 0 .151.747 1.1.429 1.621.331 1.418-.266 2.502-.87 3.56-1.93.215-.215.294-.526.543-.712.542-.406 1.55.022 1.617-.89l-.598.183c.472-1.157 1.103-2.528 2.05-3.292.02-.84.034-1.912.5-2.622.304-.464.91-.638 1.377-.826.865-.35 1.629-.904 2.561-1.033.062-1.097 1.44.152 1.964.183v-.55h.085l.17.55h.086c1.067-.942-.305-1.223-1.024-1.372.02-.305-.083-.616-.01-.915.269-1.11 1.36-.843 2.008-1.52.438-.457.6-1.19 1.007-1.684.911-1.107 2.068-1.913 2.8-3.198l-.513-.274-.33-1.002 1.27-1.193-.086-.091-2.134.731v-.365l-.94-.55c-.394.176-1.285 1.04-1.694.887-.464-.173-.243-1.474-.269-1.892-.312-.089-.652.113-.937-.018-.337-.154-.548-.66-.155-.89.248-.146.65-.013.922-.007V30.3h-1.708zm4.44 1.647c.501-.056.818-.286.939-.824-.602.014-.815.191-.94.824zm-.342.274v.183c.35.142.626.164.854-.183l-.427-.183-.427.183zm.683.549c.552.82 1.49-.047 1.963-.458-.583-.417-1.478.088-1.963.458zM8.679 48.682l-.085.457.512.183-.086-.64H8.68zM7.228 51.15h1.024c-.054-.74-.97-.73-1.024 0z" fill="#EDEDED" fill-rule="nonzero"/></g></svg>