<?xml version="1.0" encoding="UTF-8"?>
<svg width="60px" height="60px" viewBox="0 0 60 60" version="1.1" xmlns="http://www.w3.org/2000/svg" xmlns:xlink="http://www.w3.org/1999/xlink">
    <!-- Generator: Sketch 49.3 (51167) - http://www.bohemiancoding.com/sketch -->
    <title>New zeland@2x</title>
    <desc>Created with Sketch.</desc>
    <defs></defs>
    <g id="New-zeland" stroke="none" stroke-width="1" fill="none" fill-rule="evenodd">
        <rect id="Rectangle-2" x="0" y="0" width="60" height="60"></rect>
        <g id="new-zealand" transform="translate(7.000000, 5.000000)" fill="#EDEDED" fill-rule="nonzero">
            <path d="M21.0573913,0.0578276765 L21.0573913,0.149284396 L21.4842169,0.149284396 L21.0573913,0.0578276765 Z M24.0452429,1.06382916 L24.3867079,1.70401446 L24.5574568,1.70401446 C24.6516147,1.25118383 24.4532208,1.09716264 24.0452429,1.06382916 Z M23.1915692,1.52110148 C23.8209891,1.99610649 25.4004544,3.42175786 24.5574568,4.17328884 C24.778068,4.68297369 25.2347612,5.38232153 25.7525954,5.54511606 L26.6916331,4.63056105 L25.7525954,6.00238872 C26.5835703,6.62948929 27.2081901,7.54970114 27.8155872,8.4063631 C27.888753,8.50952585 28.3722689,9.36325513 28.5058788,8.90625706 C28.5961837,8.59750296 27.8132896,7.5133156 27.716047,7.0998467 C28.2547101,7.61967267 28.2412344,8.51556424 29.0819207,8.65457654 L28.6550847,7.92293417 L28.8258232,7.74002073 L29.2526626,7.92293417 L29.1672864,7.55711856 L29.4233838,7.8314779 L29.7648609,7.8314779 L29.7648609,8.01439043 C29.4737656,8.0384361 29.346492,8.07648485 29.2526626,8.38020604 L29.6794882,8.47166321 L29.6794882,8.56311948 L29.2526626,9.11184852 L29.5941259,9.93493588 C29.280337,9.54168405 29.0761264,9.23980068 28.5697223,9.20330558 C28.6861549,9.66185649 29.0413788,10.001242 29.2851058,10.392219 C29.7133008,11.0788445 29.9759015,12.7958224 30.960003,12.67858 L30.6185328,13.0443964 C30.7978149,13.7175975 30.8656626,14.5622809 31.6429363,14.416224 C31.4400257,14.5727935 31.0200267,14.6366267 30.877383,14.837099 C30.643642,15.1655992 30.9489082,15.3744829 31.2161142,15.3307695 L31.3014731,15.8794967 L30.6185328,15.9709539 C30.5518564,16.8458073 30.4110967,18.4128885 29.6790675,18.9256706 C29.0084281,19.3955683 27.0213271,19.2866401 27.050437,20.5433247 C27.0724702,21.4934468 28.2250961,21.5031391 28.8254826,21.7305888 C29.2672645,21.8980323 29.5183185,22.3439713 29.935947,22.5617271 C30.3947952,22.8010694 30.9407261,22.7375959 31.3868354,22.9877237 C32.6778541,23.7113136 32.6912568,25.1545551 31.8897498,26.3053355 C31.4170645,26.984018 30.7921805,27.4432137 30.3089044,28.085129 C29.8918946,28.638891 30.8382836,28.6822448 31.1307379,28.6831623 C31.2414702,29.3639476 31.6568638,28.8156774 32.0572419,28.9460896 C32.3618372,29.0453134 32.3776313,29.503317 32.4112493,29.7806098 C34.4137134,29.761399 35.6805718,27.7219697 36.7307588,26.2400354 C37.2758347,25.4708151 38.0100813,24.8587987 38.5560992,24.0948739 C38.8401908,23.6973216 38.8385606,23.254862 39.0541197,22.8339853 C39.234594,22.4817141 39.5570098,22.2602931 39.7528472,21.915514 L38.8991787,21.8240568 C38.7711196,19.8792686 40.6904527,19.4405628 42.1431312,19.8120448 L42.228497,20.5436863 L42.9114338,19.7205998 C42.4851957,19.3152687 42.7392632,18.8136351 42.7406953,18.2573271 L44.1065829,17.5256838 C43.9105856,16.3221303 44.3525344,15.1197829 45.0456206,14.2333099 L45.0456206,14.1418527 C44.0769621,13.3923803 42.7227811,13.2312367 41.749597,14.1041768 C41.3533134,14.4595675 41.2317714,14.9443747 40.6918849,15.1463121 C39.3541861,15.6466543 37.9940336,14.5407728 36.764992,14.1382866 C36.1667502,13.9423884 35.7736364,14.1726814 35.3137387,13.5931255 L36.1674141,13.9589507 C35.9692862,13.5038686 35.5478273,13.2273977 35.3606065,12.7700372 C35.0802654,12.0846708 35.3584862,11.0388928 34.7161642,10.5751213 L34.374701,10.8494919 L34.374701,10.7580356 L34.8868993,10.4836659 C34.6818581,10.1354961 34.3964839,10.1221491 34.0332274,10.1178495 C33.9401941,9.43732927 33.5032713,9.30764954 32.9234547,9.29476219 C32.9817613,9.67940444 33.2795336,9.78751241 33.3861575,10.1273559 C33.4797158,10.4259581 33.2575839,10.7132265 33.3699499,11.0168486 C33.4779259,11.308865 33.8271679,11.5690569 33.7166859,11.9260005 C33.6497628,12.1420062 33.3915312,12.2266142 33.2310358,12.0706895 C33.0053482,11.851281 33.1340642,11.4544621 32.8616618,11.2443853 C32.6366312,11.0708148 32.3216328,11.1452492 32.0697759,11.0398011 C31.2746713,10.7068154 30.2080194,9.69651503 31.1307382,8.83747904 C30.94952,8.3363156 30.5426457,7.55519328 30.0209584,7.46566173 C30.0169682,6.99549203 29.9998047,6.68454989 29.5087601,6.64257437 L29.5087601,6.5511172 L30.0209584,6.45966093 L29.8502372,6.09384533 L30.2770628,6.00238907 C30.0556191,5.12323428 29.3890882,4.27462403 28.5697224,4.63056139 L28.2282489,4.26474544 L28.2282489,4.17328918 L28.5697224,4.17328918 C28.3496552,3.44323349 27.0581395,3.23013747 26.4355322,3.07583166 L26.4355322,3.35020137 L25.92332,3.35020137 L26.2647972,3.07583166 C26.0461967,2.31234351 25.6235162,3.10100387 25.41112,3.44165763 C25.3141502,2.85855638 23.5635327,0.530755125 23.1915692,1.52110182 L23.1915692,1.52110148 Z M30.1063345,6.45966105 L30.1063345,6.82547665 L30.5331636,6.82547665 L30.1063345,6.45966105 Z M33.7771264,8.92893542 C33.8252073,8.60509636 33.6941485,7.3618656 33.1180163,7.66466743 C32.4290072,8.02674214 33.4859513,8.80831367 33.7771264,8.92893542 Z M31.899051,8.10584715 C32.0616666,8.41377062 32.1991278,8.4198967 32.4966151,8.2887615 L31.899051,8.10584715 Z M31.5575774,9.20330604 L31.3868354,8.83747916 C31.0243784,9.06062847 31.1892984,9.29558257 31.5575774,9.20330604 Z M34.4600667,9.66057699 C34.5983656,9.9295549 34.6893622,9.9805779 34.972265,9.93493633 L34.8015404,9.56912164 L34.4600669,9.66057711 Z M31.7283126,10.3922195 L32.3258732,10.940938 L32.5819776,10.3007632 L31.7283126,10.3922195 Z M37.0210931,13.684583 L36.9357169,13.7760402 L36.9357169,13.958951 L37.0210931,14.0504082 L37.1918177,14.0504082 L37.2771904,13.958951 L37.2771904,13.7760402 L37.1918177,13.684583 L37.0210931,13.684583 Z M38.8991789,14.7820393 L39.326008,14.8734965 L38.8991789,14.7820393 Z M22.6793677,25.2993335 L22.76473,25.6651499 C22.2014077,25.5776309 21.0596993,26.3310327 20.9138058,26.9458819 C20.7939495,27.4510798 21.0655091,28.0140736 20.908686,28.4966719 C20.7427405,29.0071774 20.1122155,29.674341 19.6914273,29.9499794 C19.3383462,30.1812804 18.9115954,30.1013437 18.6098312,30.43434 C18.1368071,30.9564513 18.1538715,31.7120498 17.8960657,32.3413306 C17.5318899,33.2302959 16.8975136,33.9987723 16.1914383,34.6023008 C15.6842034,35.0358763 14.9571134,35.1088682 14.3987356,35.4753156 C13.5456616,36.0352055 12.7814622,36.9513132 11.9197681,37.4340853 C11.3920121,37.7297756 10.7535431,37.7849262 10.2157325,38.0867965 C9.70250273,38.374986 9.23769271,38.8830967 8.67580433,39.0625387 C8.23830023,39.2022731 7.74161196,38.9864533 7.31787027,39.1641366 C6.90151219,39.3386499 6.63671481,39.8835172 6.20346595,40.114992 L6.28882916,40.3893514 C5.54621538,40.4427814 5.22157597,41.0870778 4.6665131,41.5203926 C4.28611481,41.8173308 3.81403075,41.9462901 3.72781424,42.4928084 C2.72304909,42.571028 1.59264089,44.0987595 3.13023884,44.3219063 L3.13023884,44.4133651 L2.5326639,44.4133651 L2.70340159,44.7791798 L1.33752494,44.3219063 L0.910686788,45.5108128 L2.02045216,45.3279124 L2.02045216,45.4193679 C1.68167973,45.5564536 1.05601105,45.9330781 1.76435171,46.0595384 L1.76435171,46.1509973 L0.0570116173,46.3339116 L0.142374601,47.2484554 L0.73995,47.065555 L0.569212756,47.5228252 L1.08142449,47.5228252 C0.488805239,48.4790751 2.35017711,48.1239555 2.87413838,48.2381809 C3.43271344,48.3599175 3.73293405,47.8131002 4.24036526,47.9039369 C4.76075945,47.9971093 4.75949077,48.5902001 5.18434818,48.7446683 C5.50703941,48.8619976 5.87122483,48.6217499 6.20218588,48.6288719 C6.54589271,48.6363761 6.88990535,48.8228566 7.22786765,48.8946425 L7.22786765,49.0775533 L6.71566674,49.2604572 L6.71566674,49.4433715 C7.49055433,49.7171087 8.15651355,49.5556782 8.93521925,49.4433715 C9.08735877,50.1903952 10.0365597,49.8718411 10.5572059,49.7740041 C11.9750698,49.5075001 13.0585464,48.9032417 14.1171136,47.843385 C14.3315656,47.628747 14.4110207,47.3181663 14.6597911,47.1321343 C15.2024705,46.7259828 16.2105724,47.1541674 16.2768126,46.2424531 L15.6792382,46.4253674 C16.1513221,45.2682021 16.7822852,43.8971181 17.7280521,43.1329935 C17.7483786,42.2930927 17.7634097,41.2208622 18.2290079,40.5106403 C18.5330018,40.0467836 19.139186,39.8732887 19.6061413,39.6846185 C20.4707551,39.3352582 21.2349546,38.7807629 22.1671674,38.6517062 C22.2290646,37.5549954 23.6073243,38.8042836 24.1306068,38.8346205 L24.1306068,38.2858915 L24.2159813,38.2858915 L24.3867077,38.8346205 L24.4720822,38.8346205 C25.5385899,37.8930976 24.166731,37.6121551 23.4476805,37.4628032 C23.4674162,37.1583608 23.3652274,36.8471371 23.4376928,36.5482595 C23.7067011,35.4388343 24.7973326,35.7052409 25.4458868,35.0280218 C25.8840573,34.5706543 26.0463601,33.8371828 26.452873,33.3437886 C27.3644205,32.2372727 28.5214017,31.4308335 29.2526626,30.1464293 L28.740447,29.872056 L28.4094008,28.8700924 L29.6794882,27.6771645 L29.5941259,27.5857056 L27.4599461,28.3173385 L27.4599461,27.9515203 L26.5208945,27.4027948 C26.1257405,27.5782917 25.234761,28.4420851 24.8262026,28.2893548 C24.3616229,28.1155853 24.5830648,26.8146502 24.5574567,26.3967923 C24.2453433,26.3082687 23.9048306,26.5095579 23.619785,26.3792325 C23.2830802,26.225223 23.0718103,25.7199363 23.4650959,25.4883746 C23.7126637,25.3426896 24.1141436,25.4762092 24.3867076,25.4822468 L24.3867076,25.2993343 L22.6793673,25.2993343 L22.6793677,25.2993335 Z M27.1184723,26.9455213 C27.6201041,26.8900995 27.9371498,26.6597197 28.05751,26.1224226 C27.4556011,26.1362388 27.2426803,26.3134737 27.1184723,26.9455213 Z M26.7769952,27.2198806 L26.7769952,27.402795 C27.1271027,27.5447261 27.4025013,27.5672285 27.630674,27.2198806 L27.203845,27.0369768 L26.7769951,27.2198806 Z M27.4599458,27.7686097 C28.0117613,28.5883264 28.9490924,27.7216897 29.4233835,27.3113361 C28.8403517,26.8944861 27.9450918,27.3992253 27.4599458,27.7686097 Z M1.6789877,43.6817262 L1.59362494,44.1389964 L2.10582585,44.3219072 L2.02045182,43.6817262 L1.6789877,43.6817262 Z M0.227748633,46.1509979 L1.25215034,46.1509979 C1.19838132,45.4114159 0.282141002,45.4202757 0.227748633,46.1509979 Z" id="path2703"></path>
        </g>
    </g>
</svg>