<svg xmlns="http://www.w3.org/2000/svg" height="480" width="640" version="1"><defs><clipPath id="a" clipPathUnits="userSpaceOnUse"><path fill-opacity=".67" d="M0 0h640v480H0z"/></clipPath></defs><g clip-path="url(#a)"><path fill-rule="evenodd" fill="#5387f4" d="M-79.429 318.86h798.86V480h-798.86zM-79.429 0h798.86v161.14h-798.86z"/><path fill-rule="evenodd" fill="#fff" d="M-79.429 161.14h798.86v157.71h-798.86z"/><g transform="matrix(.45385 0 0 .45413 121.08 -34.817)"><path d="M240.029 725.163l196.605-338.641L633.23 725.163h-393.2z" fill-rule="evenodd" fill="#ffd200"/><path d="M259.851 716.038l177.17-306.859 177.16 306.86h-354.33z" fill-rule="evenodd" fill="#0ff"/><g stroke="#ffd200" stroke-width=".734" fill="none"><path d="M439.181 556.66l-1.18-108.32M445.071 563.73l38.855-54.162M450.961 569.61l62.4-25.9M455.671 577.86l73.001 2.355M450.961 587.28l42.388 37.677M439.181 583.74v34.146M426.231 575.5l-55.339 48.275M432.121 579.03l-24.726 45.92M422.701 569.61l-91.84 31.791M421.521 564.9l-64.76-2.355M369.711 537.82l56.517 18.839M396.791 489.55l34.146 65.936"/></g><g fill-rule="evenodd"><path d="M437.082 538.226c-35.433 0-61.25 6.505-83.044 14.145l5.54-9.579 5.53-9.595 5.54-9.596 5.54-9.578 5.53-9.595 5.54-9.579 6.13-9.769c8.26-7.257 25.98-10.652 43.69-10.652 17.72 0 35.44 3.586 44.3 10.826l5.54 9.595 5.53 9.58 5.54 9.594 5.54 9.578 5.53 9.596 5.54 9.595 5.53 9.58c-22.972-7.64-47.613-14.146-83.046-14.146z" fill="#c453d7"/><path d="M437.094 531.47c-35.548-.05-75.281 10.598-77.504 11.33l5.53-9.595 5.54-9.596 5.54-9.578 5.53-9.595 5.54-9.58 6.13-9.768c8.26-7.257 25.98-10.652 43.69-10.652 17.72 0 35.44 3.586 44.3 10.826l5.54 9.595 5.53 9.579 5.54 9.595 5.54 9.578 5.53 9.596 5.54 9.595s-42.083-11.33-77.516-11.33z" fill="#5000c1"/><path d="M437.08 523.803c-26.247-.109-68.685 7.141-71.68 8.504l5.247-8.713 5.54-9.578 5.53-9.595 5.54-9.579 6.13-9.769c8.26-7.257 25.98-10.652 43.69-10.652 17.72 0 35.44 3.586 44.3 10.826l5.54 9.595 5.53 9.58 5.54 9.594 5.54 9.578 5.53 9.596s-36.543-9.387-71.976-9.387z" fill="#0053d7"/><path d="M437.066 515.852c-34.802-.07-63.717 6.63-66.434 7.739l5.54-9.578 5.53-9.595 5.54-9.58 6.13-9.768c8.26-7.257 25.98-10.652 43.69-10.652 17.72 0 35.44 3.586 44.3 10.826l5.54 9.595 5.53 9.579 5.54 9.595 5.54 9.578s-31.013-7.74-66.446-7.74z" fill="#009f9f"/><path d="M437.08 509.087c-35.604-.123-57.962 4.465-60.893 4.931l5.53-9.595 5.54-9.579 6.13-9.769c8.26-7.257 25.98-10.652 43.69-10.652 17.72 0 35.44 3.586 44.3 10.826l5.54 9.595 5.53 9.58 5.54 9.594s-25.473-4.93-60.906-4.93z" fill="#ff0"/><path d="M436.776 500.247c-31.014-.67-53.786 4.25-55.07 4.167l5.54-9.579 6.13-9.769c8.26-7.257 25.98-10.652 43.69-10.652 17.72 0 35.44 3.586 44.3 10.826l5.54 9.595 5.53 9.58s-20.227-4.168-55.66-4.168z" fill="#f50"/><path d="M437.932 489.963c-31.13.257-47.247 4.34-50.707 4.89l6.13-9.768c8.26-7.257 25.98-10.652 43.69-10.652 17.72 0 35.44 3.586 44.3 10.826l5.54 9.595s-13.52-4.891-48.953-4.891z" fill="#ff0b00"/></g><path d="M259.851 716.038l49.83-86.31h254.67l49.83 86.31h-354.33z" fill-rule="evenodd" fill="#4363ff"/><g fill-rule="evenodd"><path d="M334.69 674.38s28.307-4.996 46.624-19.982c18.316-14.986 18.317-39.964 26.642-39.964 8.326 0 9.991 28.308 29.973 38.299 19.981 9.991 51.62 23.312 51.62 23.312l-154.86-1.665z" transform="matrix(.96712 0 0 1 109.938 -5.828)" stroke="#000" stroke-width=".734" fill="#6da700"/><path d="M543.13 656.892c-43.48-19.982-17.714-9.991-30.597-18.317-6.442-16.651-16.104-29.973-8.053-29.973 8.053 0 9.663 28.308 28.988 38.299 19.324 9.99 27.377 12.489 27.377 12.489l-17.715-2.498z" fill="#ffbd00"/><path d="M334.69 674.38s28.307-4.996 46.624-19.982c18.316-14.986 18.317-39.964 26.642-39.964 8.326 0 9.991 28.308 29.973 38.299 19.981 9.991 51.62 23.312 51.62 23.312l-154.86-1.665z" transform="matrix(.96712 0 0 1 73.7 -5.828)" stroke="#000" stroke-width=".734" fill="#6da700"/><path d="M506.892 656.892c-43.48-19.982-17.714-9.991-30.597-18.317-6.442-16.651-16.104-29.973-8.053-29.973 8.053 0 9.663 28.308 28.988 38.299 19.324 9.99 27.377 12.489 27.377 12.489l-17.715-2.498z" fill="#ffbd00"/><path d="M334.69 674.38s28.307-4.996 46.624-19.982c18.316-14.986 18.317-39.964 26.642-39.964 8.326 0 9.991 28.308 29.973 38.299 19.981 9.991 51.62 23.312 51.62 23.312l-154.86-1.665z" transform="matrix(.96712 0 0 1 37.47 -5.828)" stroke="#000" stroke-width=".734" fill="#6da700"/><path d="M470.663 656.892c-43.48-19.982-17.715-9.991-30.598-18.317-6.442-16.651-16.103-29.973-8.052-29.973 8.052 0 9.663 28.308 28.988 38.299 19.324 9.99 27.377 12.489 27.377 12.489l-17.715-2.498z" fill="#ffbd00"/><path d="M334.69 674.38s28.307-4.996 46.624-19.982c18.316-14.986 18.317-39.964 26.642-39.964 8.326 0 9.991 28.308 29.973 38.299 19.981 9.991 51.62 23.312 51.62 23.312l-154.86-1.665z" transform="matrix(.96712 0 0 1 -3.594 -6.66)" stroke="#000" stroke-width=".734" fill="#6da700"/><path d="M429.598 656.06c-43.48-19.983-17.715-9.992-30.598-18.318-6.442-16.65-16.103-29.973-8.052-29.973 8.052 0 9.663 28.308 28.988 38.3 19.324 9.99 27.377 12.488 27.377 12.488l-17.715-2.498z" fill="#ffbd00"/><path d="M334.69 674.38s28.307-4.996 46.624-19.982c18.316-14.986 18.317-39.964 26.642-39.964 8.326 0 9.991 28.308 29.973 38.299 19.981 9.991 51.62 23.312 51.62 23.312l-154.86-1.665z" stroke="#000" stroke-width=".734" fill="#6da700" transform="matrix(.96712 0 0 1 -34.192 -6.66)"/><path d="M399 656.06c-43.48-19.983-17.714-9.992-30.597-18.318-6.442-16.65-16.104-29.973-8.053-29.973 8.053 0 9.663 28.308 28.988 38.3 19.324 9.99 27.377 12.488 27.377 12.488L399 656.06z" fill="#ffbd00"/></g><path d="M438.01 565.49c.409 0 .727-1.87 1.766-3.532 2.222-1.61 4.568-2.871 7.653-3.533 1.665-.832 5.08-.588 7.653-.588 3.611.324 3.837 1.865 5.888 4.121.902 1.837 3.038 4.389 4.121 7.064 1.172 1.42 2.107 3.626 2.943 5.299.855 1.804 1.765 4.526 2.944 7.064.605 2.824 1.177 5.028 1.177 8.242 0 3.352-.554 4.78-1.177 7.065-1.794.598-5.29.888-7.065 0-1.9-1.7-5.162-.617-6.475-2.355-3.386-.474-4.208-4.459-5.888-6.475-1.175-1.729-1.156-3.032-2.355-4.71-1.857-1.327-2.108-2.945-2.943-5.299.736-2.517 2.015-3.068 4.121-4.121 1.127-1.644 1.766-2.304 1.766-5.298-.424-3.334-1.625-2.982-4.71-3.533-3.814 0-5.77.393-9.419.589z" fill-rule="evenodd" transform="matrix(.67241 0 0 .52247 132.301 268.72)" stroke="#000" stroke-width=".734" fill="red"/><g stroke="#0ff" stroke-width=".734" fill="none"><path d="M314.38 690.89h1.177c-3.178 0-1.561-.077 4.71 1.177 5.434.647 10.545 1.178 16.484 1.178M308.49 708.55v-1.177c0 3.69-.307 1.422 5.887-3.532 5.262-.916 7.744.94 14.129 1.177 3.388 1.694 9.526 1.142 12.952 0 1.753-.751 1.78-1.604 3.532-2.355M321.44 710.91v-1.177c.784.313 5.255 0 8.242 0 6.162 0 10.917-.299 14.129 2.355h2.355M366.18 686.18h5.887c3.749-1.25 9.204-1.249 12.952 0 1.484 4.877 3.389 5.78 9.42 5.887 1.974-1.481 6.046-2.526 8.242-3.532M369.71 694.42h16.485M380.31 705.02v-1.177c0 3.69-.306 1.422 5.888-3.533 4.69-2.304 7.16-3.599 14.129-2.355 5.013 2.679 6.789 4.236 12.952 4.71 5.601 0 8.065-.901 12.951-1.177M395.62 710.91h1.177c-3.291 0-1.541.146 4.71-2.355 5.854 1.464 9.805 3.453 16.484 3.533 3.824-.192 6.575-1.178 10.597-1.178M438.01 686.18H443.897c5.761 0 11.38-.098 16.484 1.177h16.484c1.57 0 1.177.393 1.177-1.177M433.3 695.6h1.177c-3.291 0-1.541.146 4.71-2.354 4.946.38 10.524 1.085 14.129 3.532 5.172 2.267 7.214 4.216 14.13 4.71 3.945-.208 4.215-1.751 8.242-2.355M450.96 707.37c1.847-.923 8.039-3.283 12.952-1.178 5.104 1.276 10.723 1.178 16.484 1.178 3.665-1.571 9.865-2.905 12.952-4.71h3.532M500.41 692.07c2.368 0 12.454-.558 17.661 1.178 6.371-.768 8.617-3.877 12.952-7.065 4.347 0 8.014.103 11.774 1.177M522.78 706.2c.095-.012 4.706-.924 8.242-1.177 5.307-3.98 6.228.084 11.774 1.177 6.151-1.391 9.251-4.42 11.775-8.242M535.73 697.95h1.177c-3.466 0-1.513.202 4.71-3.532 4.142-2.071 4.632-4.167 10.597-4.71 3.294-2.47 5.733-.305 8.242 1.178M560.46 707.37c.197-.935 2.335-6.019 3.532-8.242 5.249-2.1 7.759-3.058 11.775 2.355 4.27 1.164 8.279 3.491 12.951 4.709 1.733 0 .9.278 2.355-1.177M576.94 690.89v-1.178c0 3.691-.245 1.485 4.71-4.709 5.457.999 6.892 4.302 9.419 8.242 5.85 0 9.697-.142 12.952-2.355M605.2 703.84c.715-1.044 5.415-8.715 9.42-4.71 5.226 1.425 6.044 3.803 11.774 5.887 1.002-1.753 2.103-2.094 4.71-2.355" transform="matrix(1.0073 0 0 1.4304 -35.22 -306.49)"/><path d="M501.59 708.55h1.178c-3.291 0-1.542.146 4.709-2.355 4.895-2.826 7.322-3.976 10.597-8.242 5.468.196 9.662 1.178 15.307 1.178 0-1.57-.393-1.178 1.177-1.178M350.88 694.42c0-.815 3.214-2.088 7.064-3.532 2.806-2.105 5.133-.126 9.42 0M356.76 705.02h1.177c-3.291 0-1.541.146 4.71-2.355 4.516.632 6.547 2.879 11.774 3.532" transform="matrix(1.0073 0 0 1.4304 -35.22 -306.49)"/></g><path d="M704.686 581.383c-11.71-.183-17.16 4.468-17.342 16.115-.042 2.688.608 6.154 1.536 8.217 3.342 7.285 8.963 8.013 16.195 8.126l20.157.316c1.856.029 3.889 1.02 3.81 6.076l1.215.02.233-14.847-1.216-.019c-.08 5.055-2.142 5.983-3.998 5.954l-20.157-.315c-6.08-.095-15.102-.3-14.914-12.267.125-8 3.949-11.012 13.931-10.855l21.502.336c1.856.03 3.888 1.021 3.815 5.692l1.216.02.278-17.79-1.215-.02c-.074 4.672-2.136 5.6-3.992 5.57l-21.054-.329z" stroke="#000" stroke-width=".734" fill="#ffd200"/><path d="M727.469 563.852l-.212-1.327c-4.93-.833-1.04-6.51-2.271-14.22-2.009-12.576-12.816-20.183-25.392-18.174-14.852 2.372-19.81 15.153-18.094 25.897.827 5.183 4.36 11.877 7.03 15.21l12.008-1.918c3.602-.575 5.675-.582 6.394 3.515l1.201-.191-2.574-16.116-1.2.192c.837 5.245-1.198 5.894-4.8 6.47l-9.417 1.504c-1.832.292-2.212.353-3.39-1.339-1.353-1.987-2.157-4.58-2.53-6.919-1.696-10.617 6.294-17.402 16.027-18.957 11.06-1.766 20.634 1.371 22.31 11.862 1.19 7.458-2.314 12.295-8.63 15.766l.232 1.454 13.308-2.709z" stroke="#000" stroke-width=".7339926600000001" fill="#ffd200"/><path d="M630.183 384.82l-1.031-.86c-4.944 2.625-4.037-3.454-10.768-9.073-9.875-8.244-22.831-6.806-30.993 2.97-8.983 10.76-6.79 23.013 2.79 31.01 4.717 3.938 11.828 5.707 17.9 4.524l-.014-1.68c-6.179.51-10.783-.665-15.598-4.685-8.057-6.727-5.45-17.14.292-24.017 7.383-8.843 16.327-12.465 24.433-5.698 5.6 4.676 6.11 11.355 3.024 17.949l1.179.984 8.786-11.423z" stroke="#000" stroke-width=".734" fill="#ffd200"/><path d="M511.41 334.07c0-1.856.96-3.904 6.272-3.904v-1.216H498.61v1.216c5.312 0 6.272 2.048 6.272 3.904v32.128c0 1.856-.96 3.904-6.272 3.904v1.216h19.072v-1.216c-5.312 0-6.272-2.048-6.272-3.904V334.07z" transform="matrix(.87269 .5324 -.48758 .84843 302.18 -196.24)" stroke="#000" stroke-width=".734" fill="#ffd200"/><path d="M564.698 346.357c.72-1.71 2.4-3.226 7.236-1.19l.472-1.12-14.038-5.91-.472 1.12c4.837 2.037 4.927 4.297 4.207 6.007l-9.958 23.654-10.765-37.933-10.087-4.247-.472 1.121c2.866 1.276 3.173 2.03 4.132 4.865l.224.788-12.615 29.965c-.72 1.71-2.4 3.226-7.237 1.19l-.471 1.12 14.038 5.91.472-1.12c-4.837-2.037-4.927-4.297-4.207-6.007l11.349-26.957 12.507 43.527.885.373 14.8-35.156zM474.834 357.286l3.609-10.596-1.788-.122c-3.937 7.88-8.794 7.612-13.902 7.265l-8.428-.574c-1.277-.087-1.57-1.454-1.491-2.604l1.07-15.707 9.003.613c4.278.291 7.835 1.752 7.496 6.733l1.34.091 1.018-14.941-1.34-.092c-.34 4.98-4.058 5.882-8.336 5.59l-9.003-.612.935-13.729c.109-1.596 1.383-2.407 2.98-2.298l10.28.7c4.47.304 6.368 3.513 6.835 7.008l1.405.096.622-9.13-33.906-2.31-.082 1.213c4.66.318 5.48 2.426 5.353 4.278l-2.183 32.054c-.126 1.851-1.223 3.83-5.884 3.512l-.083 1.213 34.48 2.349zM299.69 344.248l-1.149.696c.88 5.528-4.576 2.699-12.074 7.243-11.002 6.667-13.844 19.39-7.243 30.282 7.264 11.986 19.566 13.886 30.239 7.418 5.254-3.184 9.233-9.337 10.085-15.466l-1.594-.53c-1.521 6.01-4.127 9.984-9.491 13.234-8.977 5.44-17.98-.403-22.624-8.066-5.97-9.852-6.496-19.487 2.535-24.96 6.24-3.781 12.723-2.097 17.959 2.961l1.313-.796-7.955-12.016zM260.884 378.034c-1.179-1.434-1.737-3.626 2.367-6.999l-.772-.94-14.735 12.11.772.94c4.104-3.373 6.146-2.4 7.324-.967L276.238 407c1.179 1.434 1.737 3.626-2.366 6.999l.772.939 14.734-12.109-.772-.94c-4.104 3.373-6.146 2.4-7.324.967l-20.398-24.822zM271.516 418.068l-5.979-9.885-1.1 1.163c3.95 8.582-.15 12.544-5.736 18.448-2.727 2.883-4.91 4.166-6.211 2.934l-23.339-22.08c-1.348-1.275-2.176-3.38 1.035-6.774l-.883-.836-12.228 12.925.884.835c3.21-3.393 5.358-2.683 6.706-1.408l23.338 22.08c1.349 1.276 2.177 3.38-1.034 6.774l.883.836 23.664-25.012zM191.566 503.776c10.316 5.545 17.294 3.92 22.809-6.34 1.272-2.368 2.288-5.745 2.413-8.004.38-8.006-4.278-11.237-10.648-14.66l-17.757-9.546c-1.635-.879-2.984-2.694-.59-7.147l-1.072-.576-7.03 13.078 1.071.576c2.394-4.453 4.653-4.33 6.287-3.45l17.758 9.545c5.355 2.878 13.273 7.207 7.607 17.749-3.788 7.046-8.569 7.964-17.363 3.237l-18.94-10.181c-1.635-.879-2.985-2.694-.773-6.81l-1.07-.575-8.425 15.671 1.071.576c2.212-4.115 4.47-3.991 6.106-3.112l18.546 9.97zM193.916 554.2l-10.048-4.931-.35 1.757c7.312 4.91 6.428 9.694 5.43 14.716l-1.645 8.286c-.25 1.255-1.643 1.37-2.773 1.146l-15.442-3.067 1.758-8.85c.835-4.207 2.738-7.548 7.635-6.576l.262-1.318-14.69-2.917-.261 1.318c4.896.973 5.315 4.775 4.48 8.98l-1.758 8.852-13.496-2.68c-1.57-.312-2.211-1.68-1.9-3.249l2.007-10.106c.873-4.394 4.298-5.867 7.825-5.885l.274-1.38-8.977-1.783-6.62 33.332 1.193.237c.91-4.582 3.106-5.125 4.926-4.763l31.513 6.258c1.82.361 3.642 1.702 2.732 6.284l1.193.237 6.732-33.898zM183.944 627.977c1.856.02 3.894 1.001 3.846 5.48l1.216.014.187-17.6-1.216-.012c-.05 4.672-2.108 5.61-3.964 5.59l-14.463-.153-.09-3.586 19.873-15.021.11-10.304-1.217-.013c-.222 2.878-1.518 4.336-3.648 6.042l-15.754 12.505c-.768-6.024-3.844-11.625-10.628-11.697-7.487-.08-11.267 6.28-11.38 16.904l-.18 16.895 1.216.013c.048-4.48 2.106-5.418 3.962-5.398l32.126.34zm-31.737-6.866c-3.008-.032-3.001-.608-2.957-4.767.06-5.76 2.604-10.213 8.94-10.146 6.912.074 8.771 5.79 8.992 15.072l-14.975-.159zM191.814 540.397c1.8.455 3.55 1.888 2.404 6.417l1.179.298 4.362-17.249-1.179-.298c-1.145 4.53-3.366 4.958-5.165 4.503l-13.278-3.358c.64-1.753 1.22-3.52 1.675-5.32 2.009-7.942.822-16.56-8.361-18.883-7.322-1.851-12.68 4.716-15.096 14.27l-3.955 15.637 1.18.298c1.066-4.22 3.287-4.648 5.087-4.193l31.147 7.878zm-29.36-14.16c-2.545-.643-2.823-.846-2.164-3.451 1.506-5.957 4.935-11.163 11.947-9.39 7.197 1.82 8.254 7.039 6.559 13.74-.251.993-.642 2.016-.955 2.993l-15.388-3.892zM223.126 467.222c1.518 1.068 2.64 3.032-.344 7.27l.994.7 11.606-16.484c5.784-8.216 6.371-15.942.091-20.363-5.024-3.537-10.781-1.251-14.84 2.623 1.895-4.693 1.708-9.207-2.688-12.302-6.698-4.716-13.265.053-18.938 8.112l-9.874 14.025.994.7c2.984-4.239 5.211-3.845 6.73-2.776l26.27 18.495zm-9.115-14.401l1.842-2.617c3.463-4.92 8.999-10.336 15.226-5.952 6.123 4.31 4.908 9.482 1.077 14.925-2.69 3.82-3.963 3.628-5.795 2.338l-12.35-8.694zm-2.093-1.474l-11.88-8.364c-1.831-1.289-.548-2.89 3.156-7.483 3.26-3.185 7.173-4.186 11.15-1.386 4.24 2.984 4.316 7.656.595 12.942l-3.021 4.29z" stroke="#000" stroke-width=".734" fill="#ffd200"/><path d="M418.26 355.161c17.1-1.336 25.086-10.049 24.073-23.001-1.122-14.356-11.55-20.474-27.884-19.198l-16.462 1.287.095 1.212c4.657-.364 5.774 1.603 5.919 3.453l2.503 32.03c.145 1.85-.653 3.968-5.31 4.332l.094 1.212 16.972-1.327zm-7.711-36.245c-.24-3.063.32-3.299 3.382-3.538 11.804-.923 20.475 4.883 21.453 17.39.927 11.867-6.053 19.474-19.115 19.917-1.408.046-3.122-.526-3.307-2.887l-2.413-30.882zM643.62 456.026c-1.598.945-3.85 1.162-6.13-2.694l-1.047.619 8.96 15.148 1.047-.619c-2.379-4.021-1.105-5.89.493-6.835l12.449-7.363 1.935 3.02-9.212 23.145 5.246 8.869 1.046-.62c-1.3-2.576-.948-4.495-.01-7.057l6.99-18.857c3.778 4.754 9.312 7.95 15.151 4.496 6.445-3.812 6.382-11.21.973-20.354l-8.602-14.543-1.046.62c2.28 3.855 1.007 5.724-.59 6.67l-27.654 16.355zm30.7-10.574c2.59-1.532 2.882-1.036 5 2.545 2.933 4.957 3.065 10.084-2.388 13.31-5.95 3.519-10.502-.407-15.502-8.231l12.89-7.624zM653.037 405.782l-.86-.947-31.567 11.133c-6.36 2.233-10.936 4.144-13.842 1.422l-.9.818 8.523 9.378.9-.818c-1.463-1.61-2.5-3.608-.938-5.028 1.753-1.593 7.307-3.094 9.666-4.114l11.277 12.409-2.476 5.363c-2.58 5.631-3.436 6.496-7.284 2.643l-.9.817 10.976 12.078.9-.818c-2.553-2.523-.615-6.1.552-8.718l15.973-35.618zm-8.37 4.494l-8.031 17.33-9.943-10.94 17.974-6.39zM709.547 496.833l-.514-1.172-33.469.497c-6.739.091-11.686.445-13.573-3.06l-1.114.488 5.092 11.604 1.113-.488c-.874-1.993-1.22-4.217.713-5.066 2.169-.951 7.911-.605 10.473-.82l6.737 15.354-4.056 4.296c-4.239 4.516-5.326 5.063-7.747.184l-1.113.489 6.557 14.944 1.114-.488c-1.616-3.205 1.36-5.979 3.3-8.088l26.487-28.674zm-9.365 1.593l-13.134 13.87-5.94-13.539 19.074-.331zM727.149 645.89l.15-1.271-29.105-16.531c-5.856-3.336-10.3-5.538-10.151-9.516l-1.208-.144-1.49 12.585 1.207.143c.256-2.161 1.084-4.254 3.181-4.006 2.352.279 7.128 3.487 9.445 4.599l-1.973 16.652-5.673 1.648c-5.942 1.745-7.157 1.665-6.772-3.767l-1.207-.143-1.92 16.207 1.207.143c.231-3.582 4.203-4.465 6.944-5.3l37.365-11.3zm-8.881-3.372l-18.351 5.302 1.739-14.682 16.612 9.38zM332.643 330.605l-1.19.472-.69 33.465c-.147 6.738.03 11.695-3.539 13.457l.449 1.13 11.777-4.677-.449-1.13c-2.022.803-4.257 1.07-5.036-.892-.874-2.201-.325-7.928-.45-10.496l15.585-6.188 4.149 4.205c4.362 4.397 4.87 5.503-.09 7.749l.448 1.13 15.168-6.023-.45-1.13c-3.26 1.5-5.926-1.572-7.965-3.586l-27.717-27.486zm1.26 9.415l13.395 13.618-13.74 5.456.345-19.074z" stroke="#000" stroke-width=".734" fill="#ffd200"/><path d="M699.547 735.633l-7.9-8.43-.834 1.366c5.645 7.575 2.457 12.303-1.781 19.238-2.07 3.385-3.939 5.094-5.468 4.16l-27.414-16.754c-1.584-.968-2.83-2.855-.394-6.842l-1.038-.634-9.278 15.182 1.037.634c2.437-3.987 4.685-3.738 6.269-2.77l27.414 16.753c1.584.968 2.83 2.855.395 6.842l1.037.635 17.955-29.38z" stroke="#000" stroke-width=".73400734" fill="#ffd200"/><path d="M578.871 811.163l3.728-2.708c3.625-2.632 6.102-4.668 12.167 1.29l1.243-.903-6.703-8.58-29.209 21.21 6.083 9.029 1.242-.903c-.803-1.868-1.822-3.817-1.712-5.953-.078-3.265 4.15-5.94 7.878-8.647l20.306 27.965c1.09 1.502 1.517 3.723-2.263 6.468l.713.985 14.398-10.455-.715-.983c-3.78 2.745-5.76 1.651-6.85.15l-20.306-27.965zM555.002 830.755c-.72-1.711-.627-3.97 4.21-6.004l-.47-1.12-14.043 5.9.47 1.122c4.839-2.034 6.518-.518 7.236 1.193l9.944 23.66-34.642-18.834-10.09 4.24.472 1.122c2.915-1.156 3.67-.849 6.367.448l.719.392 12.596 29.973c.72 1.71.628 3.97-4.21 6.004l.471 1.12 14.043-5.9-.471-1.122c-4.838 2.033-6.518.517-7.236-1.194l-11.332-26.963 39.86 21.5.884-.372-14.778-35.165zM525.154 883.158l.29-11.189-1.744.417c-1.411 8.693-6.127 9.886-11.107 11.074l-8.217 1.963c-1.244.298-1.93-.92-2.198-2.04l-3.657-15.314 8.777-2.097c4.17-.995 8.001-.66 9.16 4.195l1.308-.312-3.48-14.566-1.306.312c1.16 4.855-2.121 6.823-6.292 7.82l-8.777 2.095-3.196-13.383c-.372-1.556.602-2.71 2.159-3.082l10.021-2.394c4.358-1.04 7.126 1.457 8.614 4.654l1.37-.327-2.127-8.9-33.054 7.893.282 1.184c4.545-1.086 5.954.683 6.385 2.488l7.464 31.25c.43 1.805-.028 4.02-4.572 5.105l.283 1.183 33.614-8.029zM477.871 852.561l-1.343.063c-1.868 5.276-5.308.182-14.068.59-12.85.597-21.427 10.414-20.835 23.136.65 14 10.548 21.55 23.014 20.97 6.138-.285 12.574-3.788 16.251-8.764l-1.146-1.228c-4.21 4.552-8.398 6.797-14.663 7.088-10.484.488-15.6-8.949-16.016-17.9-.535-11.507 3.608-20.221 14.157-20.71 7.288-.34 12.178 4.238 14.359 11.184l1.534-.071-1.244-14.358zM388.046 849.397l-1.287-.387c-3.515 4.356-5.069-1.59-13.465-4.115-12.32-3.705-23.67 2.706-27.338 14.903-4.035 13.423 2.794 23.83 14.745 27.423 5.883 1.769 13.118.602 18.239-2.87l-.674-1.54c-5.482 2.897-10.178 3.624-16.184 1.818-10.052-3.023-11.744-13.623-9.163-22.203 3.316-11.032 10.12-17.875 20.232-14.835 6.987 2.1 10.079 8.043 9.829 15.32l1.47.441 3.596-13.955zM345.207 841.417c.726-1.708 2.41-3.217 7.298-1.14l.477-1.118-17.553-7.461-.475 1.12c4.889 2.078 4.97 4.338 4.245 6.046l-12.57 29.567c-.726 1.708-2.41 3.217-7.299 1.14l-.476 1.118 17.552 7.461.476-1.118c-4.888-2.078-4.971-4.34-4.245-6.048l12.57-29.567zM270.177 842.78l9.096-6.523-1.383-1.139c-7.784 4.123-11.581 1.081-15.535-2.172l-6.524-5.366c-.989-.814-.431-2.096.3-2.985l10.002-12.158 6.97 5.732c3.311 2.724 5.356 5.98 2.184 9.836l1.038.855 9.515-11.566-1.039-.854c-3.171 3.855-6.72 2.427-10.03-.297l-6.97-5.733 8.741-10.626c1.017-1.236 2.525-1.155 3.76-.139l7.958 6.547c3.46 2.845 3.14 6.56 1.487 9.676l1.088.894 5.813-7.067-26.244-21.59-.773.939c3.608 2.968 3.049 5.159 1.87 6.592l-20.41 24.812c-1.18 1.433-3.222 2.405-6.83-.563l-.773.939 26.69 21.956z" stroke="#000" stroke-width=".734" fill="#ffd200"/><path d="M260.553 785.15c1.382-1.24 3.547-1.894 6.667 1.583l.905-.811-8.505-9.48-33.502 11.057 14.182-32.588-8.462-9.432-.905.812c3.42 3.81 2.536 5.894 1.155 7.133l-23.914 21.456c-1.381 1.24-3.546 1.892-7.051-2.014l-.905.812 10.172 11.337.905-.81c-3.504-3.907-2.622-5.99-1.24-7.23l22.198-19.917-15.28 35.294.597.666 38.048-12.125-23.294 20.9c-1.382 1.24-3.547 1.894-6.668-1.584l-.904.812 11.882 13.243.904-.812c-3.12-3.478-2.236-5.56-.855-6.799l23.87-21.504z" stroke="#000" stroke-width=".7339926600000001" fill="#ffd200"/><path d="M287.214 848.329c-.87 1.64-2.677 3-6.634.899l-.571 1.074 15.548 8.249.57-1.074c-4.128-2.19-4.016-4.45-3.146-6.089l6.78-12.777 3.225 1.567 4.217 24.552 9.102 4.83.57-1.075c-2.454-1.52-3.154-3.34-3.69-6.015l-3.876-19.734c5.704 2.084 12.092 1.924 15.272-4.069 3.51-6.614-.405-12.893-9.79-17.872l-14.925-7.92-.57 1.075c3.957 2.1 3.846 4.359 2.976 5.998l-15.058 28.38zm20.675-25.038c1.41-2.658 1.918-2.388 5.593-.438 5.088 2.7 7.876 7.004 4.906 12.601-3.24 6.106-9.17 5.132-17.518 1.065l7.02-13.228zM406.47 852.102l-1.271-.152-16.559 29.089c-3.341 5.853-5.548 10.295-9.526 10.142l-.144 1.208 12.583 1.503.144-1.208c-2.161-.258-4.253-1.088-4.003-3.185.281-2.351 3.494-7.124 4.608-9.44l16.65 1.989 1.643 5.674c1.739 5.945 1.658 7.16-3.774 6.769l-.144 1.207 16.205 1.936.144-1.208c-3.581-.234-4.46-4.207-5.293-6.949l-11.26-37.36zm-3.381 8.878l5.285 18.356-14.68-1.754 9.395-16.602zM224.807 731.276l-.59-1.135-33.364 2.703c-6.718.536-11.63 1.214-13.745-2.159l-1.08.562 5.846 11.243 1.08-.561c-1.004-1.931-1.497-4.127.377-5.102 2.1-1.092 7.854-1.125 10.395-1.51l7.736 14.878-3.765 4.554c-3.93 4.785-4.98 5.403-7.717.694l-1.078.561 7.528 14.48 1.08-.561c-1.825-3.092.962-6.055 2.759-8.287l24.527-30.348zm-9.24 2.208l-12.19 14.705-6.82-13.116 19.01-1.59zM621.305 824.605c1.235 1.386 1.88 3.554-1.465 6.535l.809.907 13.141-11.708-.809-.907c-3.488 3.107-5.567 2.216-6.801.831l-9.622-10.8 2.59-2.479 24.486 4.585 7.694-6.854-.809-.907c-2.279 1.772-4.229 1.796-6.924 1.368l-19.85-3.231c3.94-4.623 6.01-10.668 1.498-15.733-4.981-5.591-12.23-4.105-20.162 2.962l-12.615 11.238.81.908c3.344-2.98 5.422-2.089 6.657-.703l21.372 23.988zm-16.285-28.092c-2-2.246-1.57-2.629 1.535-5.396 4.302-3.832 9.307-4.948 13.522-.218 4.597 5.161 1.621 10.384-5.095 16.796l-9.962-11.182zM631.662 760.315l-.75 1.037 17.377 28.607c3.492 5.765 6.302 9.853 4.235 13.255l.986.713 7.427-10.268-.985-.712c-1.276 1.763-3.018 3.188-4.728 1.95-1.92-1.387-4.53-6.515-6.012-8.615l9.828-13.585 5.758 1.322c6.041 1.369 7.064 2.03 4.083 6.587l.984.713 9.567-13.222-.986-.713c-1.944 3.016-5.844 1.853-8.645 1.25l-38.124-8.314zm6.116 7.268l18.612 4.302-8.667 11.978-9.945-16.28z" stroke="#000" stroke-width=".734" fill="#ffd200"/><ellipse fill-rule="evenodd" rx="9.575" ry="9.158" stroke="#000" transform="translate(2.498 8.326)" cy="676.04" cx="176.92" stroke-width=".734" fill="#ffd200"/><ellipse fill-rule="evenodd" rx="9.575" ry="9.158" stroke="#000" transform="translate(514.53 19.982)" cy="676.04" cx="176.92" stroke-width=".734" fill="#ffd200"/></g></g></svg>