<svg xmlns="http://www.w3.org/2000/svg" height="480" width="640" version="1"><defs><clipPath id="a" clipPathUnits="userSpaceOnUse"><path fill-opacity=".67" d="M0 0h640v480H0z"/></clipPath></defs><g clip-path="url(#a)"><g fill-rule="evenodd" transform="translate(39.999)"><path fill="#f50013" d="M-39.999 0h720v480h-720z"/><path fill="#00189a" d="M-39.999 0h720v240h-720z"/><path d="M-39.999 0l413.15 239.69-413.15 239.39L-39.998 0z" fill="#feffff"/><path d="M-20.421 437.1l4.211-18.49-16.605-9.175 19.301-2.41 4.391-18.458 7.717 17.003 19.317-2.233L3.38 416.254l7.55 17.078-16.699-9.02-14.653 12.788zM67.453 198.5l-14.826-25.459-8.526-.966 20.3 28.83 3.052-2.405zm-11.508 11.665l-31.173-23.986-1.117-13.964 12.606-.426 25.771 31.518-6.087 6.858zm-4.734 5.485l-25.656-14.482-1.08-8.513 29.1 19.91-2.363 3.084zM104.14 193.27l7.738-28.427-5.294-6.753-6.299 34.693 3.855.487zm-16.386-.016l-4.78-39.042 9.166-10.593 9.149 8.683-4.378 40.477-9.157.474zm-7.23.475l-7.681-28.442 5.307-6.743 6.23 34.705-3.856.48zM133.87 216.19l25.839-14.153 1.189-8.498-29.352 19.538 2.324 3.114zm-11.359-11.81l24.795-30.533 13.989-.75.095 12.613-32.184 24.935-6.695-6.265zm-5.359-4.876l15.15-25.268 8.538-.857-20.667 28.568-3.02-2.444zM138.47 251.81l28.423 7.753 6.756-5.29-34.69-6.318-.49 3.855zm.025-16.386l39.044-4.76 10.588 9.172-8.689 9.144-40.475-4.398-.469-9.158zm-.471-7.23l28.446-7.667 6.74 5.311-34.71 6.212-.477-3.856zM116.83 280.78l14.939 25.393 8.53.928-20.428-28.74-3.04 2.419zm11.457-11.715l31.279 23.848 1.178 13.959-12.604.482-25.91-31.404 6.057-6.885zm4.71-5.506l25.72 14.368 1.118 8.508-29.188-19.782 2.35-3.094zM80.273 286.2l-7.543 28.479 5.34 6.716 6.061-34.735-3.858-.46zm16.386-.096l5.049 39.008-9.094 10.656-9.208-8.621 4.1-40.506 9.153-.537zm7.226-.525l7.877 28.389-5.26 6.779-6.47-34.662 3.853-.506zM50.609 263.87l-25.608 14.567-1.052 8.516 29.034-20.007-2.374-3.076zm11.547 11.626l-24.301 30.928-13.975.975-.298-12.61 31.78-25.45 6.794 6.157zm5.437 4.79L52.85 305.792l-8.523.994 20.206-28.897 3.059 2.395zM45.543 227.9l-28.477-7.551-6.718 5.338 34.734 6.071.462-3.858zm.091 16.386l-39.009 5.037-10.653-9.097 8.624-9.205 40.505 4.111.534 9.154zm.523 7.226l-28.391 7.869-6.777-5.263 34.664-6.458.504 3.852zM301.72 264.76l-10.991-15.454-17.902 6.279 11.054-16.004-10.847-15.566 17.824 5.564 11.197-15.9-.04 19.444 17.769 5.74-17.847 6.452-.217 19.446zM-9.852 92.122l-3.408-18.655-18.876-1.897 16.794-9.814-3.231-18.696 13.788 12.592 16.879-9.658-8.273 17.595 13.662 12.727-18.9-1.718-8.435 17.524z" fill="#eca300"/><circle cx="190.68" cy="353.88" transform="translate(-37.108) scale(.67733)" fill="#eca300" r="73.029"/></g></g></svg>