<svg xmlns="http://www.w3.org/2000/svg" height="480" width="640" version="1"><defs><linearGradient id="b" y2="-5035.4" gradientUnits="userSpaceOnUse" y1="-5035.4" gradientTransform="matrix(.08535 0 0 .14208 -225.71 715.44)" x2="4203.4" x1="359.59"><stop offset="0"/><stop stop-color="#fff" offset="1"/></linearGradient><clipPath id="a" clipPathUnits="userSpaceOnUse"><path fill-opacity=".67" d="M-72.352 0h682.67v512h-682.67z"/></clipPath></defs><g clip-path="url(#a)" transform="translate(67.83) scale(.9375)"><path stroke="url(#b)" stroke-width=".147" fill="#090" d="M-114.94.065h307.43v511.87h-307.43z"/><path fill-rule="evenodd" fill="red" d="M191.82 0h461.15v512H191.82z"/><g fill-rule="evenodd" stroke-width="1pt"><path d="M175.295 193.867l-.947 19.079 128.254-12.687.947-19.08z"/><path fill="#efef00" d="M176.442 195.967l-.725 14.611 125.738-12.438.725-14.611z"/><path d="M174.634 189.913l-.31 6.262 129.548-12.815.31-6.262z"/><path fill="#efef00" d="M175.673 192.046l-.088 1.774 127.246-12.587.088-1.775z"/><path d="M173.6 210.786l-.311 6.263 129.548-12.815.31-6.262z"/><path fill="#efef00" d="M174.638 212.92l-.088 1.774 127.246-12.588.088-1.774z"/><path d="M194.682 254.795l-.946 19.079 128.254-12.687.946-19.08z"/><path fill="#efef00" d="M195.83 256.895l-.725 14.611 125.738-12.438.724-14.611z"/><path d="M194.022 250.84l-.31 6.263 129.548-12.815.31-6.262z"/><path fill="#efef00" d="M195.06 252.974l-.087 1.774 127.246-12.587.088-1.774z"/><path d="M192.987 271.714l-.31 6.263 129.547-12.815.31-6.262z"/><path fill="#efef00" d="M194.026 273.847l-.088 1.775 127.245-12.587.088-1.775z"/><path d="M186.925 323.458l-.946 19.08 128.254-12.687.946-19.08z"/><path fill="#efef00" d="M188.072 325.559l-.724 14.61 125.738-12.437.724-14.611z"/><path d="M186.265 319.504l-.31 6.263 129.547-12.815.311-6.262z"/><path fill="#efef00" d="M187.304 321.637l-.088 1.775 127.246-12.588.087-1.774z"/><g><path d="M185.23 340.378l-.31 6.262 129.547-12.814.31-6.263z"/><path fill="#efef00" d="M186.269 342.511l-.088 1.774 127.245-12.587.088-1.774z"/></g><g><path d="M202.347 318.623l.946 19.079L75.04 325.015l-.946-19.079z"/><path fill="#efef00" d="M201.2 320.723l.725 14.611-125.739-12.438-.724-14.611z"/><path d="M203.007 314.669l.31 6.262L73.77 308.116l-.31-6.262z"/><path fill="#efef00" d="M201.968 316.802l.088 1.774-127.245-12.587-.088-1.774z"/><g><path d="M204.042 335.543l.311 6.262L74.805 328.99l-.31-6.262z"/><path fill="#efef00" d="M203.004 337.676l.088 1.774-127.246-12.587-.088-1.775z"/></g></g><g><path d="M193.392 263.424l-5.644 17.204-136.757-14.554 5.644-17.203z"/><path fill="#efef00" d="M191.393 265.287l-4.322 13.175-134.074-14.268 4.322-13.175z"/><path d="M195.505 259.88l-1.853 5.646-138.137-14.7 1.852-5.647z"/><path fill="#efef00" d="M193.613 261.775l-.524 1.6-135.683-14.44.525-1.6z"/><g><path d="M189.33 278.702l-1.852 5.646-138.138-14.7L51.193 264z"/><path fill="#efef00" d="M187.439 280.597l-.525 1.6-135.682-14.44.525-1.6z"/></g></g><g><path d="M176.588 260.675l-13.908 14.717-100.57-68.647 13.907-14.717z"/><path fill="#efef00" d="M173.98 261.718l-10.65 11.27-98.599-67.3 10.652-11.27z"/><path d="M180.207 258.02l-4.565 4.83-101.585-69.34 4.565-4.83z"/><path fill="#efef00" d="M177.667 259.137l-1.293 1.369-99.78-68.107 1.293-1.37z"/><g><path d="M164.99 274.121l-4.564 4.831-101.585-69.34 4.564-4.83z"/><path fill="#efef00" d="M162.451 275.239l-1.293 1.368-99.78-68.107 1.293-1.369z"/></g></g><g><path d="M304.306 260.935c.049 63.648-51.68 115.303-115.468 115.303-63.79.101-115.602-51.472-115.653-115.118-.154-63.65 51.493-115.386 115.282-115.489 63.79-.202 115.684 51.29 115.84 114.933.002.129.002.238.002.367zm27.108 0c.06 78.578-63.803 142.346-142.55 142.346-78.753.125-142.727-63.547-142.779-142.12-.19-78.58 63.572-142.45 142.324-142.573 78.753-.25 142.819 63.321 143.005 141.893.003.16.003.294.003.454z" fill="#efef00"/><path d="M328.56 260.938c.06 77.006-62.526 139.5-139.7 139.5-77.178.121-139.87-62.277-139.932-139.278-.186-77.008 62.302-139.6 139.487-139.722 77.179-.244 139.963 62.055 140.145 139.055.004.157.004.29.004.445zm-2.796 0c.058 75.466-61.276 136.712-136.906 136.712-75.634.119-137.067-61.03-137.128-136.5-.183-75.468 61.054-136.813 136.693-136.934 75.635-.24 137.159 60.812 137.341 136.277.003.154.003.283.003.436z"/><path d="M310.036 260.933c.051 66.804-54.242 121.018-121.19 121.018-66.954.106-121.34-54.025-121.393-120.825-.162-66.805 54.047-121.105 121.006-121.21 66.953-.212 121.42 53.833 121.577 120.632.003.136.003.25.003.385zm-2.425 0c.05 65.468-53.158 118.6-118.768 118.6-65.613.103-118.907-52.945-118.96-118.416-.159-65.468 52.965-118.686 118.583-118.792 65.614-.208 118.986 52.756 119.145 118.223.002.133.002.245.002.377z"/></g><g><path d="M182.39 118.24h17.718v286.274h-17.719z"/><path fill="#efef00" d="M184.455 121.046h13.57v280.659h-13.57z"/><path d="M178.638 116.319h5.816v289.163h-5.816z"/><path fill="#efef00" d="M180.725 118.886h1.647V402.91h-1.647z"/><g><path d="M198.023 116.319h5.816v289.163h-5.816z"/><path fill="#efef00" d="M200.11 118.886h1.647V402.91h-1.647z"/></g></g><g><path d="M183.991 285.455l6.58 17.937-126.246 25.88-6.58-17.937z"/><path fill="#efef00" d="M183.52 287.8l5.04 13.736L64.79 326.91l-5.04-13.737z"/><path d="M183.445 281.483l2.16 5.888-127.521 26.141-2.16-5.887z"/><path fill="#efef00" d="M183.088 283.828l.612 1.668-125.255 25.677-.612-1.668z"/><g><path d="M190.645 301.108l2.16 5.887-127.521 26.142-2.16-5.888z"/><path fill="#efef00" d="M190.287 303.452l.612 1.668-125.254 25.677-.612-1.668z"/></g></g><g><path d="M177.3 232.037l.853 18.303L45.79 264.684l-.853-18.303z"/><path fill="#efef00" d="M176.102 234.312l.653 14.017L46.988 262.39l-.654-14.017z"/><path d="M178.007 228.066l.28 6.008-133.7 14.488-.28-6.008z"/><path fill="#efef00" d="M176.92 230.35l.08 1.702-131.324 14.231-.08-1.702z"/><g><path d="M178.941 248.09l.28 6.008-133.7 14.489-.28-6.008z"/><path fill="#efef00" d="M177.855 250.375l.079 1.702-131.324 14.23-.08-1.701z"/></g></g><g><path d="M180.547 228.512l-10.97 17.01-111.474-49.095 10.97-17.011z"/><path fill="#efef00" d="M178.175 230.014l-8.4 13.027-109.289-48.133 8.402-13.027z"/><path d="M183.618 225.24l-3.6 5.583-112.6-49.591 3.6-5.584z"/><path fill="#efef00" d="M181.326 226.803l-1.02 1.582-110.598-48.71 1.02-1.582z"/><g><path d="M171.616 243.851l-3.6 5.583-112.6-49.591 3.6-5.584z"/><path fill="#efef00" d="M169.324 245.414l-1.02 1.582-110.598-48.71 1.02-1.582z"/></g></g><g><path d="M333.26 233.7l-.237 18.293-133.03-6.447.238-18.293z"/><path fill="#efef00" d="M331.928 235.77l-.182 14.009-130.42-6.32.183-14.01z"/><path d="M334.203 229.871l-.078 6.004-134.372-6.512.078-6.004z"/><path fill="#efef00" d="M332.982 231.967l-.022 1.701-131.984-6.396.022-1.701z"/><g><path d="M333.943 249.884l-.078 6.004-134.371-6.512.078-6.004z"/><path fill="#efef00" d="M332.722 251.98l-.022 1.702-131.983-6.397.022-1.7z"/></g></g><g><path d="M309.29 180.938l5.211 16.38-109.838-3.458-5.212-16.38z"/><path fill="#efef00" d="M308.82 182.814l3.992 12.545-107.684-3.39-3.992-12.545z"/><path d="M308.923 177.493l1.71 5.377-110.946-3.493-1.71-5.377z"/><path fill="#efef00" d="M308.551 179.391l.485 1.523-108.975-3.43-.484-1.524z"/><g><path d="M314.625 195.415l1.711 5.376-110.947-3.493-1.71-5.376z"/><path fill="#efef00" d="M314.254 197.313l.485 1.523-108.975-3.431-.485-1.523z"/></g></g><g><path d="M324.062 310.45l-7.91 17-122.443-44.675 7.91-17z"/><path fill="#efef00" d="M321.94 311.995l-6.059 13.018-120.04-43.799 6.057-13.018z"/><path d="M326.558 307.151l-2.596 5.58-123.679-45.126 2.597-5.58z"/><path fill="#efef00" d="M324.529 308.753l-.736 1.58-121.48-44.324.735-1.58z"/><g><path d="M317.904 325.75l-2.596 5.58-123.679-45.126 2.596-5.58z"/><path fill="#efef00" d="M315.874 327.351l-.735 1.58-121.48-44.323.735-1.58z"/></g></g><g><g fill="#f6f6fb"><g transform="matrix(.10329 0 0 .10306 194.011 903.507)"><path d="M-850.89-7147h1590.9v1171.1h-1590.9z"/><ellipse transform="matrix(1.0746 0 0 1.0635 -3130.4 -10547)" cx="2861.4" rx="740.21" cy="4267.3" ry="696.02"/></g><g transform="matrix(.10329 0 0 .10306 -421.99 546.548)"><path d="M5478.8-3340.7h859.09v632.38H5478.8z"/><ellipse transform="matrix(.5803 0 0 .57429 4247.9 -5088.5)" cx="2861.4" rx="740.21" cy="4267.3" ry="696.02"/></g></g><g fill="red"><g transform="matrix(.09813 0 0 .0979 193.712 871.517)"><path d="M-850.89-7147h1590.9v1171.1h-1590.9z"/><ellipse transform="matrix(1.0746 0 0 1.0635 -3130.4 -10547)" cx="2861.4" rx="740.21" cy="4267.3" ry="696.02"/></g><g transform="matrix(.09813 0 0 .0979 -391.49 532.406)"><path d="M5478.8-3340.7h859.09v632.38H5478.8z"/><ellipse transform="matrix(.5803 0 0 .57429 4247.9 -5088.5)" cx="2861.4" rx="740.21" cy="4267.3" ry="696.02"/></g></g><g fill="#400"><g transform="matrix(.05857 0 0 .05844 191.522 626.471)"><path d="M-850.89-7147h1590.9v1171.1h-1590.9z"/><ellipse transform="matrix(1.0746 0 0 1.0635 -3130.4 -10547)" cx="2861.4" rx="740.21" cy="4267.3" ry="696.02"/></g><g transform="matrix(.05857 0 0 .05844 -157.75 424.076)"><path d="M5478.8-3340.7h859.09v632.38H5478.8z"/><ellipse transform="matrix(.5803 0 0 .57429 4247.9 -5088.5)" cx="2861.4" rx="740.21" cy="4267.3" ry="696.02"/></g></g><g fill="#fff"><g transform="matrix(.05286 0 0 .05274 191.202 591.1)"><path d="M-850.89-7147h1590.9v1171.1h-1590.9z"/><ellipse transform="matrix(1.0746 0 0 1.0635 -3130.4 -10547)" cx="2861.4" rx="740.21" cy="4267.3" ry="696.02"/></g><g transform="matrix(.05286 0 0 .05274 -124.018 408.438)"><path d="M5478.8-3340.7h859.09v632.38H5478.8z"/><ellipse transform="matrix(.5803 0 0 .57429 4247.9 -5088.5)" cx="2861.4" rx="740.21" cy="4267.3" ry="696.02"/></g></g><g transform="matrix(.10329 0 0 .10306 -117.945 477.278)"><g fill="#3b3bff"><g transform="matrix(.15 0 0 .15 2979.24 -840.14)"><path d="M-850.89-7147h1590.9v1171.1h-1590.9z"/><ellipse transform="matrix(1.0746 0 0 1.0635 -3130.4 -10547)" cx="2861.4" rx="740.21" cy="4267.3" ry="696.02"/></g><g transform="matrix(.15 0 0 .15 2084.67 -1359.68)"><path d="M5478.8-3340.7h859.09v632.38H5478.8z"/><ellipse transform="matrix(.5803 0 0 .57429 4247.9 -5088.5)" cx="2861.4" rx="740.21" cy="4267.3" ry="696.02"/></g><g><g transform="matrix(.14 0 0 .14 2978.805 -886.7)"><path d="M-850.89-7147h1590.9v1171.1h-1590.9z"/><ellipse transform="matrix(1.0746 0 0 1.0635 -3130.4 -10547)" cx="2861.4" rx="740.21" cy="4267.3" ry="696.02"/></g><g transform="matrix(.14 0 0 .14 2128.964 -1380.263)"><path d="M5478.8-3340.7h859.09v632.38H5478.8z"/><ellipse transform="matrix(.5803 0 0 .57429 4247.9 -5088.5)" cx="2861.4" rx="740.21" cy="4267.3" ry="696.02"/></g><g transform="matrix(.085 0 0 .085 2975.625 -1243.355)"><path d="M-850.89-7147h1590.9v1171.1h-1590.9z"/><ellipse transform="matrix(1.0746 0 0 1.0635 -3130.4 -10547)" cx="2861.4" rx="740.21" cy="4267.3" ry="696.02"/></g><g transform="matrix(.085 0 0 .085 2468.404 -1537.934)"><path d="M5478.8-3340.7h859.09v632.38H5478.8z"/><ellipse transform="matrix(.5803 0 0 .57429 4247.9 -5088.5)" cx="2861.4" rx="740.21" cy="4267.3" ry="696.02"/></g><g><g transform="matrix(.07676 0 0 .07676 2975.16 -1294.835)"><path d="M-850.89-7147h1590.9v1171.1h-1590.9z"/><ellipse transform="matrix(1.0746 0 0 1.0635 -3130.4 -10547)" cx="2861.4" rx="740.21" cy="4267.3" ry="696.02"/></g><g transform="matrix(.07676 0 0 .07676 2517.39 -1560.694)"><path d="M5478.8-3340.7h859.09v632.38H5478.8z"/><ellipse transform="matrix(.5803 0 0 .57429 4247.9 -5088.5)" cx="2861.4" rx="740.21" cy="4267.3" ry="696.02"/></g></g></g></g><circle fill="#fff" transform="translate(-3.782 -7.563)" cx="2903" cy="-1854.9" r="35.688"/><circle fill="#fff" transform="translate(129.99 -7.563)" cx="2903" cy="-1854.9" r="35.688"/><circle fill="#fff" transform="translate(61.922 67.595)" cx="2903" cy="-1854.9" r="35.688"/><circle fill="#fff" transform="translate(1.418 140.39)" cx="2903" cy="-1854.9" r="35.688"/><circle fill="#fff" transform="translate(128.57 142.75)" cx="2903" cy="-1854.9" r="35.688"/></g><path d="M112.68 188.623v2.338h31.248v-2.338H112.68zm2.712-6.452v6.509h26.56v-6.509h-26.56zm-2.344 21.397v2.339h31.248v-2.339h-31.248zm8.374-.723c-.003-4.245 3.266-7.69 7.298-7.69 4.032-.007 7.306 3.433 7.31 7.678v.096m-15.42.339c-.004-4.717 3.63-8.545 8.109-8.545 4.48-.008 8.118 3.814 8.121 8.531v.106m-21.448-11.758v11.691h26.56v-11.69h-26.56zm-2.713-11.66v2.21h31.248v-2.21h-31.248zm-.002-3.12v3.141h2.407v-3.141h-2.407zm28.855 0v3.141h2.407v-3.141h-2.407zm-24.056.063v3.141h2.407v-3.141h-2.407zm19.13-.064v3.142h2.408v-3.142h-2.407zm-14.459-2.96v3.141h2.408v-3.141h-2.408zm9.598-.001v3.142h2.407v-3.142h-2.407zm-4.673-.063v3.142h2.408v-3.142h-2.408zm-4.931 3.228v3.003h11.997v-3.003H122.14z" fill="#ff0"/><g fill="red"><path d="M122.043 181.73h2.407v3.14h-2.407zM132.84 181.665h2.407v3.142h-2.407z"/></g><path d="M232.621 188.997v2.338h31.247v-2.338h-31.247zm2.711-6.452v6.509h26.56v-6.509h-26.56zm-2.343 21.398v2.338h31.247v-2.338H232.99zm8.373-.724c-.003-4.245 3.267-7.69 7.298-7.69 4.032-.007 7.307 3.433 7.31 7.678v.096m-15.42.339c-.003-4.717 3.63-8.545 8.11-8.545 4.479-.008 8.117 3.814 8.12 8.531v.107m-21.448-11.759v11.692h26.56v-11.692h-26.56zm-2.712-11.66v2.21h31.247v-2.21H232.62zm-.003-3.12v3.141h2.408v-3.141h-2.408zm28.855 0v3.141h2.408v-3.141h-2.408zm-24.056.063v3.142h2.407v-3.142h-2.407zm19.131-.064v3.142h2.408v-3.142h-2.408zm-14.46-2.96v3.141h2.408v-3.141h-2.407zm9.598 0v3.14h2.408v-3.14h-2.408zm-4.672-.064v3.142h2.407v-3.142h-2.407zm-4.932 3.228v3.003h11.997V177.4h-11.997z" fill="#ff0"/><g fill="red"><path d="M241.973 182.103h2.407v3.142h-2.407zM252.77 182.04h2.407v3.14h-2.407z"/></g><path d="M173.777 188.997v2.338h31.247v-2.338h-31.247zm2.71-6.452v6.509h26.56v-6.509h-26.56zm-2.343 21.398v2.338h31.248v-2.338h-31.248zm8.374-.724c-.003-4.245 3.266-7.69 7.298-7.69 4.032-.007 7.306 3.433 7.31 7.678v.096m-15.42.339c-.003-4.717 3.63-8.545 8.109-8.545 4.48-.008 8.118 3.814 8.121 8.531v.107m-21.448-11.759v11.692h26.56v-11.692h-26.56zm-2.712-11.66v2.21h31.247v-2.21h-31.247zm-.003-3.12v3.141h2.407v-3.141h-2.407zm28.855 0v3.141h2.407v-3.141h-2.407zm-24.056.063v3.142h2.407v-3.142h-2.407zm19.13-.064v3.142h2.408v-3.142h-2.407zm-14.459-2.96v3.141h2.408v-3.141h-2.408zm9.598 0v3.14h2.407v-3.14h-2.407zm-4.673-.064v3.142h2.408v-3.142h-2.408zm-4.931 3.228v3.003h11.997V177.4h-11.997z" fill="#ff0"/><g fill="red"><path d="M183.129 182.103h2.407v3.142h-2.407zM193.925 182.04h2.408v3.14h-2.408z"/></g><path d="M110.057 261.918v2.338h31.247v-2.338h-31.247zm2.711-6.452v6.509h26.56v-6.509h-26.56zm-2.343 21.398v2.338h31.247v-2.338h-31.247zm8.373-.724c-.003-4.245 3.267-7.69 7.298-7.69 4.032-.007 7.307 3.433 7.31 7.678v.096m-15.42.34c-.003-4.718 3.63-8.546 8.11-8.546 4.479-.007 8.117 3.815 8.12 8.531v.107m-21.448-11.758v11.69h26.56v-11.69h-26.56zm-2.712-11.662v2.212h31.247v-2.212h-31.247zm-.003-3.12v3.143h2.408v-3.142h-2.408zm28.855 0v3.143h2.408v-3.142h-2.408zm-24.056.064v3.142h2.407v-3.142h-2.407zm19.131-.064v3.142h2.408v-3.142h-2.408zm-14.46-2.96v3.142h2.408v-3.142h-2.407zm9.598 0v3.14h2.408v-3.14h-2.408zm-4.672-.064v3.142h2.407v-3.142h-2.407zm-4.932 3.228v3.004h11.997v-3.004h-11.997z" fill="#ff0"/><g fill="red"><path d="M119.42 255.03h2.407v3.141h-2.408zM130.216 254.966h2.408v3.141h-2.408z"/></g><path d="M234.873 261.176v2.338h31.247v-2.338h-31.247zm2.71-6.452v6.509h26.56v-6.509h-26.56zm-2.343 21.398v2.338h31.248v-2.338H235.24zm8.374-.724c-.003-4.245 3.266-7.69 7.298-7.69 4.032-.007 7.306 3.433 7.31 7.678v.096m-15.42.34c-.003-4.718 3.63-8.546 8.109-8.546 4.48-.007 8.118 3.815 8.122 8.531v.107m-21.45-11.758v11.69h26.56v-11.69h-26.56zm-2.711-11.662v2.212h31.247v-2.212h-31.247zm-.003-3.12v3.143h2.407v-3.142h-2.407zm28.855 0v3.143h2.407v-3.142h-2.407zm-24.056.064v3.142h2.407v-3.142h-2.407zm19.131-.064v3.142h2.407v-3.142H258.8zm-14.46-2.96v3.142h2.408v-3.142h-2.408zm9.598 0v3.14h2.407v-3.14h-2.407zm-4.673-.064v3.142h2.408v-3.142h-2.408zm-4.931 3.228v3.004h11.997v-3.004h-11.997z" fill="#ff0"/><g fill="red"><path d="M244.225 254.277h2.407v3.142h-2.407zM255.021 254.213h2.408v3.142h-2.408z"/></g><path d="M137.103 332.633l1.775 1.526 20.397-23.62-1.775-1.526-20.397 23.62zm-3.129-6.261l4.942 4.248 17.337-20.076-4.942-4.248-17.337 20.076zm14.717 15.738l1.775 1.527 20.397-23.62-1.775-1.526-20.397 23.62zm4.916-6.801c-3.225-2.769-3.706-7.489-1.075-10.536 2.627-3.052 7.376-3.282 10.601-.514l.073.063m-9.808 11.877c-3.583-3.077-4.119-8.321-1.195-11.707 2.919-3.391 8.196-3.647 11.78-.57.028.024.052.044.08.07m-22.928 8.536l8.877 7.632 17.337-20.077-8.877-7.631-17.337 20.076zm-10.625-5.562l1.68 1.444 20.397-23.62-1.68-1.443-20.397 23.62zm-2.37-2.034l2.386 2.051 1.571-1.82-2.385-2.05-1.572 1.82zm18.836-21.81l2.385 2.05 1.571-1.82-2.385-2.05-1.571 1.82zm-15.655 18.224l2.385 2.05 1.571-1.819-2.385-2.05-1.571 1.82zm12.44-14.503l2.385 2.051 1.571-1.82-2.385-2.05-1.572 1.82zm-11.687 8.998l2.385 2.05 1.572-1.82-2.385-2.05-1.572 1.82zm6.264-7.255l2.386 2.05 1.571-1.82-2.385-2.05-1.572 1.82zm-3.097 3.49l2.385 2.051 1.571-1.82-2.385-2.05-1.571 1.82zm-.769 5.835l2.28 1.96 7.832-9.068-2.28-1.96-7.832 9.068z" fill="#ff0"/><g fill="red"><path d="M137.975 321.062l1.572-1.82 2.385 2.051-1.572 1.82zM144.974 312.86l1.572-1.82 2.385 2.05-1.571 1.82z"/></g><path d="M240.608 332.262l-1.775 1.526-20.397-23.62 1.775-1.526 20.397 23.62zm3.129-6.261l-4.942 4.248-17.337-20.076 4.941-4.248L243.737 326zm-14.717 15.738l-1.775 1.527-20.397-23.62 1.775-1.526 20.397 23.62zm-4.917-6.801c3.226-2.769 3.707-7.489 1.076-10.536-2.627-3.052-7.376-3.282-10.601-.514l-.073.063m9.808 11.877c3.583-3.077 4.118-8.321 1.194-11.707-2.918-3.392-8.195-3.647-11.779-.57a7.31 7.31 0 00-.08.069m22.928 8.537l-8.877 7.632-17.337-20.077 8.877-7.631 17.337 20.076zm10.624-5.562l-1.679 1.444-20.397-23.62 1.68-1.443 20.396 23.62zm2.37-2.034l-2.385 2.051-1.571-1.82 2.385-2.05 1.572 1.82zm-18.835-21.81l-2.385 2.05-1.572-1.82 2.386-2.05 1.571 1.82zm15.655 18.224l-2.385 2.05-1.572-1.819 2.386-2.05 1.571 1.82zm-12.44-14.503l-2.385 2.051-1.571-1.82 2.385-2.05 1.571 1.82zm11.687 8.998l-2.386 2.05-1.571-1.82 2.385-2.05 1.572 1.82zm-6.265-7.255l-2.385 2.05-1.571-1.82 2.385-2.05 1.571 1.82zm3.098 3.49l-2.385 2.051-1.572-1.82 2.386-2.05 1.571 1.82zm.769 5.835l-2.28 1.96-7.832-9.068 2.28-1.96 7.832 9.068z" fill="#ff0"/><g fill="red"><path d="M239.735 320.691l-1.572-1.82-2.385 2.051 1.571 1.82zM232.735 312.488l-1.571-1.82-2.385 2.051 1.571 1.82z"/></g><g><g transform="matrix(.10329 0 0 .10306 -118.34 412.973)"><g fill="#3b3bff"><g transform="matrix(.15 0 0 .15 2979.24 -840.14)"><path d="M-850.89-7147h1590.9v1171.1h-1590.9z"/><ellipse transform="matrix(1.0746 0 0 1.0635 -3130.4 -10547)" cx="2861.4" rx="740.21" cy="4267.3" ry="696.02"/></g><g transform="matrix(.15 0 0 .15 2084.67 -1359.68)"><path d="M5478.8-3340.7h859.09v632.38H5478.8z"/><ellipse transform="matrix(.5803 0 0 .57429 4247.9 -5088.5)" cx="2861.4" rx="740.21" cy="4267.3" ry="696.02"/></g><g><g transform="matrix(.14 0 0 .14 2978.805 -886.7)"><path d="M-850.89-7147h1590.9v1171.1h-1590.9z"/><ellipse transform="matrix(1.0746 0 0 1.0635 -3130.4 -10547)" cx="2861.4" rx="740.21" cy="4267.3" ry="696.02"/></g><g transform="matrix(.14 0 0 .14 2128.964 -1380.263)"><path d="M5478.8-3340.7h859.09v632.38H5478.8z"/><ellipse transform="matrix(.5803 0 0 .57429 4247.9 -5088.5)" cx="2861.4" rx="740.21" cy="4267.3" ry="696.02"/></g><g transform="matrix(.085 0 0 .085 2975.625 -1243.355)"><path d="M-850.89-7147h1590.9v1171.1h-1590.9z"/><ellipse transform="matrix(1.0746 0 0 1.0635 -3130.4 -10547)" cx="2861.4" rx="740.21" cy="4267.3" ry="696.02"/></g><g transform="matrix(.085 0 0 .085 2468.404 -1537.934)"><path d="M5478.8-3340.7h859.09v632.38H5478.8z"/><ellipse transform="matrix(.5803 0 0 .57429 4247.9 -5088.5)" cx="2861.4" rx="740.21" cy="4267.3" ry="696.02"/></g><g><g transform="matrix(.07676 0 0 .07676 2975.16 -1294.835)"><path d="M-850.89-7147h1590.9v1171.1h-1590.9z"/><ellipse transform="matrix(1.0746 0 0 1.0635 -3130.4 -10547)" cx="2861.4" rx="740.21" cy="4267.3" ry="696.02"/></g><g transform="matrix(.07676 0 0 .07676 2517.39 -1560.694)"><path d="M5478.8-3340.7h859.09v632.38H5478.8z"/><ellipse transform="matrix(.5803 0 0 .57429 4247.9 -5088.5)" cx="2861.4" rx="740.21" cy="4267.3" ry="696.02"/></g></g></g></g><circle fill="#fff" transform="translate(-3.782 -7.563)" cx="2903" cy="-1854.9" r="35.688"/><circle fill="#fff" transform="translate(129.99 -7.563)" cx="2903" cy="-1854.9" r="35.688"/><circle fill="#fff" transform="translate(61.922 67.595)" cx="2903" cy="-1854.9" r="35.688"/><circle fill="#fff" transform="translate(1.418 140.39)" cx="2903" cy="-1854.9" r="35.688"/><circle fill="#fff" transform="translate(128.57 142.75)" cx="2903" cy="-1854.9" r="35.688"/></g><g transform="matrix(.10329 0 0 .10306 -118.34 444.93)"><g fill="#3b3bff"><g transform="matrix(.15 0 0 .15 2979.24 -840.14)"><path d="M-850.89-7147h1590.9v1171.1h-1590.9z"/><ellipse transform="matrix(1.0746 0 0 1.0635 -3130.4 -10547)" cx="2861.4" rx="740.21" cy="4267.3" ry="696.02"/></g><g transform="matrix(.15 0 0 .15 2084.67 -1359.68)"><path d="M5478.8-3340.7h859.09v632.38H5478.8z"/><ellipse transform="matrix(.5803 0 0 .57429 4247.9 -5088.5)" cx="2861.4" rx="740.21" cy="4267.3" ry="696.02"/></g><g><g transform="matrix(.14 0 0 .14 2978.805 -886.7)"><path d="M-850.89-7147h1590.9v1171.1h-1590.9z"/><ellipse transform="matrix(1.0746 0 0 1.0635 -3130.4 -10547)" cx="2861.4" rx="740.21" cy="4267.3" ry="696.02"/></g><g transform="matrix(.14 0 0 .14 2128.964 -1380.263)"><path d="M5478.8-3340.7h859.09v632.38H5478.8z"/><ellipse transform="matrix(.5803 0 0 .57429 4247.9 -5088.5)" cx="2861.4" rx="740.21" cy="4267.3" ry="696.02"/></g><g transform="matrix(.085 0 0 .085 2975.625 -1243.355)"><path d="M-850.89-7147h1590.9v1171.1h-1590.9z"/><ellipse transform="matrix(1.0746 0 0 1.0635 -3130.4 -10547)" cx="2861.4" rx="740.21" cy="4267.3" ry="696.02"/></g><g transform="matrix(.085 0 0 .085 2468.404 -1537.934)"><path d="M5478.8-3340.7h859.09v632.38H5478.8z"/><ellipse transform="matrix(.5803 0 0 .57429 4247.9 -5088.5)" cx="2861.4" rx="740.21" cy="4267.3" ry="696.02"/></g><g><g transform="matrix(.07676 0 0 .07676 2975.16 -1294.835)"><path d="M-850.89-7147h1590.9v1171.1h-1590.9z"/><ellipse transform="matrix(1.0746 0 0 1.0635 -3130.4 -10547)" cx="2861.4" rx="740.21" cy="4267.3" ry="696.02"/></g><g transform="matrix(.07676 0 0 .07676 2517.39 -1560.694)"><path d="M5478.8-3340.7h859.09v632.38H5478.8z"/><ellipse transform="matrix(.5803 0 0 .57429 4247.9 -5088.5)" cx="2861.4" rx="740.21" cy="4267.3" ry="696.02"/></g></g></g></g><circle fill="#fff" transform="translate(-3.782 -7.563)" cx="2903" cy="-1854.9" r="35.688"/><circle fill="#fff" transform="translate(129.99 -7.563)" cx="2903" cy="-1854.9" r="35.688"/><circle fill="#fff" transform="translate(61.922 67.595)" cx="2903" cy="-1854.9" r="35.688"/><circle fill="#fff" transform="translate(1.418 140.39)" cx="2903" cy="-1854.9" r="35.688"/><circle fill="#fff" transform="translate(128.57 142.75)" cx="2903" cy="-1854.9" r="35.688"/></g><g transform="matrix(.10329 0 0 .10306 -90.998 444.93)"><g fill="#3b3bff"><g transform="matrix(.15 0 0 .15 2979.24 -840.14)"><path d="M-850.89-7147h1590.9v1171.1h-1590.9z"/><ellipse transform="matrix(1.0746 0 0 1.0635 -3130.4 -10547)" cx="2861.4" rx="740.21" cy="4267.3" ry="696.02"/></g><g transform="matrix(.15 0 0 .15 2084.67 -1359.68)"><path d="M5478.8-3340.7h859.09v632.38H5478.8z"/><ellipse transform="matrix(.5803 0 0 .57429 4247.9 -5088.5)" cx="2861.4" rx="740.21" cy="4267.3" ry="696.02"/></g><g><g transform="matrix(.14 0 0 .14 2978.805 -886.7)"><path d="M-850.89-7147h1590.9v1171.1h-1590.9z"/><ellipse transform="matrix(1.0746 0 0 1.0635 -3130.4 -10547)" cx="2861.4" rx="740.21" cy="4267.3" ry="696.02"/></g><g transform="matrix(.14 0 0 .14 2128.964 -1380.263)"><path d="M5478.8-3340.7h859.09v632.38H5478.8z"/><ellipse transform="matrix(.5803 0 0 .57429 4247.9 -5088.5)" cx="2861.4" rx="740.21" cy="4267.3" ry="696.02"/></g><g transform="matrix(.085 0 0 .085 2975.625 -1243.355)"><path d="M-850.89-7147h1590.9v1171.1h-1590.9z"/><ellipse transform="matrix(1.0746 0 0 1.0635 -3130.4 -10547)" cx="2861.4" rx="740.21" cy="4267.3" ry="696.02"/></g><g transform="matrix(.085 0 0 .085 2468.404 -1537.934)"><path d="M5478.8-3340.7h859.09v632.38H5478.8z"/><ellipse transform="matrix(.5803 0 0 .57429 4247.9 -5088.5)" cx="2861.4" rx="740.21" cy="4267.3" ry="696.02"/></g><g><g transform="matrix(.07676 0 0 .07676 2975.16 -1294.835)"><path d="M-850.89-7147h1590.9v1171.1h-1590.9z"/><ellipse transform="matrix(1.0746 0 0 1.0635 -3130.4 -10547)" cx="2861.4" rx="740.21" cy="4267.3" ry="696.02"/></g><g transform="matrix(.07676 0 0 .07676 2517.39 -1560.694)"><path d="M5478.8-3340.7h859.09v632.38H5478.8z"/><ellipse transform="matrix(.5803 0 0 .57429 4247.9 -5088.5)" cx="2861.4" rx="740.21" cy="4267.3" ry="696.02"/></g></g></g></g><circle fill="#fff" transform="translate(-3.782 -7.563)" cx="2903" cy="-1854.9" r="35.688"/><circle fill="#fff" transform="translate(129.99 -7.563)" cx="2903" cy="-1854.9" r="35.688"/><circle fill="#fff" transform="translate(61.922 67.595)" cx="2903" cy="-1854.9" r="35.688"/><circle fill="#fff" transform="translate(1.418 140.39)" cx="2903" cy="-1854.9" r="35.688"/><circle fill="#fff" transform="translate(128.57 142.75)" cx="2903" cy="-1854.9" r="35.688"/></g><g transform="matrix(.10329 0 0 .10306 -145.68 444.93)"><g fill="#3b3bff"><g transform="matrix(.15 0 0 .15 2979.24 -840.14)"><path d="M-850.89-7147h1590.9v1171.1h-1590.9z"/><ellipse transform="matrix(1.0746 0 0 1.0635 -3130.4 -10547)" cx="2861.4" rx="740.21" cy="4267.3" ry="696.02"/></g><g transform="matrix(.15 0 0 .15 2084.67 -1359.68)"><path d="M5478.8-3340.7h859.09v632.38H5478.8z"/><ellipse transform="matrix(.5803 0 0 .57429 4247.9 -5088.5)" cx="2861.4" rx="740.21" cy="4267.3" ry="696.02"/></g><g><g transform="matrix(.14 0 0 .14 2978.805 -886.7)"><path d="M-850.89-7147h1590.9v1171.1h-1590.9z"/><ellipse transform="matrix(1.0746 0 0 1.0635 -3130.4 -10547)" cx="2861.4" rx="740.21" cy="4267.3" ry="696.02"/></g><g transform="matrix(.14 0 0 .14 2128.964 -1380.263)"><path d="M5478.8-3340.7h859.09v632.38H5478.8z"/><ellipse transform="matrix(.5803 0 0 .57429 4247.9 -5088.5)" cx="2861.4" rx="740.21" cy="4267.3" ry="696.02"/></g><g transform="matrix(.085 0 0 .085 2975.625 -1243.355)"><path d="M-850.89-7147h1590.9v1171.1h-1590.9z"/><ellipse transform="matrix(1.0746 0 0 1.0635 -3130.4 -10547)" cx="2861.4" rx="740.21" cy="4267.3" ry="696.02"/></g><g transform="matrix(.085 0 0 .085 2468.404 -1537.934)"><path d="M5478.8-3340.7h859.09v632.38H5478.8z"/><ellipse transform="matrix(.5803 0 0 .57429 4247.9 -5088.5)" cx="2861.4" rx="740.21" cy="4267.3" ry="696.02"/></g><g><g transform="matrix(.07676 0 0 .07676 2975.16 -1294.835)"><path d="M-850.89-7147h1590.9v1171.1h-1590.9z"/><ellipse transform="matrix(1.0746 0 0 1.0635 -3130.4 -10547)" cx="2861.4" rx="740.21" cy="4267.3" ry="696.02"/></g><g transform="matrix(.07676 0 0 .07676 2517.39 -1560.694)"><path d="M5478.8-3340.7h859.09v632.38H5478.8z"/><ellipse transform="matrix(.5803 0 0 .57429 4247.9 -5088.5)" cx="2861.4" rx="740.21" cy="4267.3" ry="696.02"/></g></g></g></g><circle fill="#fff" transform="translate(-3.782 -7.563)" cx="2903" cy="-1854.9" r="35.688"/><circle fill="#fff" transform="translate(129.99 -7.563)" cx="2903" cy="-1854.9" r="35.688"/><circle fill="#fff" transform="translate(61.922 67.595)" cx="2903" cy="-1854.9" r="35.688"/><circle fill="#fff" transform="translate(1.418 140.39)" cx="2903" cy="-1854.9" r="35.688"/><circle fill="#fff" transform="translate(128.57 142.75)" cx="2903" cy="-1854.9" r="35.688"/></g></g></g></g></g></svg>