<svg xmlns="http://www.w3.org/2000/svg" height="480" width="640"><defs><clipPath id="a" clipPathUnits="userSpaceOnUse"><path fill-opacity=".67" d="M-64 0h640v512H-64z"/></clipPath></defs><g clip-path="url(#a)" transform="matrix(1 0 0 .9375 64 0)"><g fill-rule="evenodd" stroke-width="1pt"><path fill="#fff" d="M-256 171.886H767.977v168.222H-256z"/><path fill="#3d25ca" d="M-256 340.108H767.977v171.886H-256z"/><path fill="#d60000" d="M-256 0H767.977v171.886H-256z"/></g><path d="M744.14 567.26c0 192.48-157.09 348.52-350.87 348.52S42.4 759.74 42.4 567.26s157.09-348.52 350.87-348.52 350.87 156.04 350.87 348.52z" fill-rule="evenodd" transform="matrix(.18761 0 0 .18888 182.22 148.86)" stroke="#000" stroke-width="12.91" fill="#fff"/><g stroke="#000" stroke-width="2.637"><g fill-rule="evenodd" fill="#006700"><path d="M259.03 105.71s400.32 70.645 414.45 395.62c14.129 324.97-188.39 367.36-259.03 419.16-70.645 51.807-113.03 113.03-146 113.03-32.968 0-80.065-14.13-80.065-14.13s9.42 51.81 75.355 47.1c65.936-4.71 127.16-113.03 164.84-131.87s277.88-98.9 259.04-428.58c-14.13-353.23-423.88-390.91-428.59-400.33z" transform="matrix(.06601 .0151 -.01645 .06856 249.5 214.222)"/><path d="M320.26 487.2c0 59.825-11.597 108.32-25.903 108.32s-25.903-48.498-25.903-108.32c0-59.825 11.597-108.32 25.903-108.32s25.903 48.498 25.903 108.32z" transform="matrix(.03212 -.00246 .0079 .031 263.486 215.854)"/><path d="M320.26 487.2c0 59.825-11.597 108.32-25.903 108.32s-25.903-48.498-25.903-108.32c0-59.825 11.597-108.32 25.903-108.32s25.903 48.498 25.903 108.32z" transform="matrix(.02908 -.01062 .01463 .02956 260.301 219.402)"/><path d="M320.26 487.2c0 59.825-11.597 108.32-25.903 108.32s-25.903-48.498-25.903-108.32c0-59.825 11.597-108.32 25.903-108.32s25.903 48.498 25.903 108.32z" transform="matrix(.00305 -.033 .02994 .00876 258.657 238.372)"/><path d="M320.26 487.2c0 59.825-11.597 108.32-25.903 108.32s-25.903-48.498-25.903-108.32c0-59.825 11.597-108.32 25.903-108.32s25.903 48.498 25.903 108.32z" transform="matrix(.01403 -.02782 .02727 .01829 256.813 231.15)"/><path d="M320.26 487.2c0 59.825-11.597 108.32-25.903 108.32s-25.903-48.498-25.903-108.32c0-59.825 11.597-108.32 25.903-108.32s25.903 48.498 25.903 108.32z" transform="matrix(.02123 -.02176 .02316 .02407 257.576 225.953)"/><path d="M151.53 682.7c0 1.665-41.628-24.978-49.954-33.303-8.333-8.33-6.668-46.62-33.31-64.94s-54.949-9.99-68.27 1.66c-13.321 11.656-8.326 38.298 23.312 61.61s53.284 1.666 69.936 9.991c16.651 8.326 43.294 24.976 56.615 38.297 13.321-9.99 46.623-21.646 64.94-29.972 18.316-8.325 64.941 11.656 96.578-11.656 26.642-18.316 38.297-56.614 19.981-68.27-18.317-11.656-51.619-6.66-71.6 4.996-19.982 11.656-29.972 58.279-49.955 66.605-14.986 4.995-56.614 28.307-58.279 24.977z" transform="matrix(.01818 -.01864 .00872 .00906 268.716 230.52)"/><path d="M320.26 487.2c0 59.825-11.597 108.32-25.903 108.32s-25.903-48.498-25.903-108.32c0-59.825 11.597-108.32 25.903-108.32s25.903 48.498 25.903 108.32z" transform="matrix(.0453 .01085 .00068 .04793 270.406 209.649)"/><path d="M320.26 487.2c0 59.825-11.597 108.32-25.903 108.32s-25.903-48.498-25.903-108.32c0-59.825 11.597-108.32 25.903-108.32s25.903 48.498 25.903 108.32z" transform="matrix(.0438 -.0022 .01047 .04888 264.82 213.304)"/><path d="M320.26 487.2c0 59.825-11.597 108.32-25.903 108.32s-25.903-48.498-25.903-108.32c0-59.825 11.597-108.32 25.903-108.32s25.903 48.498 25.903 108.32z" transform="matrix(.01515 -.0459 .03857 .02595 256.261 239.736)"/><path d="M320.26 487.2c0 59.825-11.597 108.32-25.903 108.32s-25.903-48.498-25.903-108.32c0-59.825 11.597-108.32 25.903-108.32s25.903 48.498 25.903 108.32z" transform="matrix(.02863 -.03356 .03171 .0384 256.1 228.569)"/><path d="M320.26 487.2c0 59.825-11.597 108.32-25.903 108.32s-25.903-48.498-25.903-108.32c0-59.825 11.597-108.32 25.903-108.32s25.903 48.498 25.903 108.32z" transform="matrix(.03661 -.02166 .0241 .04484 258.877 221.467)"/><path d="M151.53 682.7c0 1.665-41.628-24.978-49.954-33.303-8.333-8.33-6.668-46.62-33.31-64.94s-54.949-9.99-68.27 1.66c-13.321 11.656-8.326 38.298 23.312 61.61s53.284 1.666 69.936 9.991c16.651 8.326 43.294 24.976 56.615 38.297 13.321-9.99 46.623-21.646 64.94-29.972 18.316-8.325 64.941 11.656 96.578-11.656 26.642-18.316 38.297-56.614 19.981-68.27-18.317-11.656-51.619-6.66-71.6 4.996-19.982 11.656-29.972 58.279-49.955 66.605-14.986 4.995-56.614 28.307-58.279 24.977z" transform="matrix(.03135 -.01855 .00907 .01688 272.792 232.992)"/><g><path d="M320.26 487.2c0 59.825-11.597 108.32-25.903 108.32s-25.903-48.498-25.903-108.32c0-59.825 11.597-108.32 25.903-108.32s25.903 48.498 25.903 108.32z" transform="matrix(.04232 .01941 -.00798 .04747 279.699 217.599)"/><path d="M320.26 487.2c0 59.825-11.597 108.32-25.903 108.32s-25.903-48.498-25.903-108.32c0-59.825 11.597-108.32 25.903-108.32s25.903 48.498 25.903 108.32z" transform="matrix(.0432 .00624 .00142 .05029 273.58 220.136)"/><path d="M320.26 487.2c0 59.825-11.597 108.32-25.903 108.32s-25.903-48.498-25.903-108.32c0-59.825 11.597-108.32 25.903-108.32s25.903 48.498 25.903 108.32z" transform="matrix(.02309 -.04243 .03301 .03304 260.445 244.597)"/><path d="M320.26 487.2c0 59.825-11.597 108.32-25.903 108.32s-25.903-48.498-25.903-108.32c0-59.825 11.597-108.32 25.903-108.32s25.903 48.498 25.903 108.32z" transform="matrix(.03404 -.02764 .02407 .04401 262.302 233.537)"/><path d="M320.26 487.2c0 59.825-11.597 108.32-25.903 108.32s-25.903-48.498-25.903-108.32c0-59.825 11.597-108.32 25.903-108.32s25.903 48.498 25.903 108.32z" transform="matrix(.0397 -.01436 .01547 .04891 266.298 227.056)"/><path d="M151.53 682.7c0 1.665-41.628-24.978-49.954-33.303-8.333-8.33-6.668-46.62-33.31-64.94s-54.949-9.99-68.27 1.66c-13.321 11.656-8.326 38.298 23.312 61.61s53.284 1.666 69.936 9.991c16.651 8.326 43.294 24.976 56.615 38.297 13.321-9.99 46.623-21.646 64.94-29.972 18.316-8.325 64.941 11.656 96.578-11.656 26.642-18.316 38.297-56.614 19.981-68.27-18.317-11.656-51.619-6.66-71.6 4.996-19.982 11.656-29.972 58.279-49.955 66.605-14.986 4.995-56.614 28.307-58.279 24.977z" transform="matrix(.034 -.0123 .00582 .01841 277.82 241.112)"/></g><g><path d="M320.26 487.2c0 59.825-11.597 108.32-25.903 108.32s-25.903-48.498-25.903-108.32c0-59.825 11.597-108.32 25.903-108.32s25.903 48.498 25.903 108.32z" transform="matrix(.03077 .0355 -.02566 .04072 292.311 227.428)"/><path d="M320.26 487.2c0 59.825-11.597 108.32-25.903 108.32s-25.903-48.498-25.903-108.32c0-59.825 11.597-108.32 25.903-108.32s25.903 48.498 25.903 108.32z" transform="matrix(.03669 .02365 -.01824 .04722 285.787 227.251)"/><path d="M320.26 487.2c0 59.825-11.597 108.32-25.903 108.32s-25.903-48.498-25.903-108.32c0-59.825 11.597-108.32 25.903-108.32s25.903 48.498 25.903 108.32z" transform="matrix(.03738 -.0298 .01706 .04429 264.4 244.504)"/><path d="M320.26 487.2c0 59.825-11.597 108.32-25.903 108.32s-25.903-48.498-25.903-108.32c0-59.825 11.597-108.32 25.903-108.32s25.903 48.498 25.903 108.32z" transform="matrix(.04155 -.01156 .0047 .05077 270.375 235.015)"/><path d="M320.26 487.2c0 59.825-11.597 108.32-25.903 108.32s-25.903-48.498-25.903-108.32c0-59.825 11.597-108.32 25.903-108.32s25.903 48.498 25.903 108.32z" transform="matrix(.04151 .00309 -.00499 .05175 276.508 230.658)"/><path d="M151.53 682.7c0 1.665-41.628-24.978-49.954-33.303-8.333-8.33-6.668-46.62-33.31-64.94s-54.949-9.99-68.27 1.66c-13.321 11.656-8.326 38.298 23.312 61.61s53.284 1.666 69.936 9.991c16.651 8.326 43.294 24.976 56.615 38.297 13.321-9.99 46.623-21.646 64.94-29.972 18.316-8.325 64.941 11.656 96.578-11.656 26.642-18.316 38.297-56.614 19.981-68.27-18.317-11.656-51.619-6.66-71.6 4.996-19.982 11.656-29.972 58.279-49.955 66.605-14.986 4.995-56.614 28.307-58.279 24.977z" transform="matrix(.03555 .00265 -.00188 .01948 281.482 248.455)"/></g><g><path d="M320.26 487.2c0 59.825-11.597 108.32-25.903 108.32s-25.903-48.498-25.903-108.32c0-59.825 11.597-108.32 25.903-108.32s25.903 48.498 25.903 108.32z" transform="matrix(.0222 .05031 -.04163 .03566 299.684 236.999)"/><path d="M320.26 487.2c0 59.825-11.597 108.32-25.903 108.32s-25.903-48.498-25.903-108.32c0-59.825 11.597-108.32 25.903-108.32s25.903 48.498 25.903 108.32z" transform="matrix(.03261 .03937 -.0356 .04552 292.56 234.443)"/><path d="M320.26 487.2c0 59.825-11.597 108.32-25.903 108.32s-25.903-48.498-25.903-108.32c0-59.825 11.597-108.32 25.903-108.32s25.903 48.498 25.903 108.32z" transform="matrix(.05094 -.01937 .00422 .05506 263.347 245.75)"/><path d="M320.26 487.2c0 59.825-11.597 108.32-25.903 108.32s-25.903-48.498-25.903-108.32c0-59.825 11.597-108.32 25.903-108.32s25.903 48.498 25.903 108.32z" transform="matrix(.04954 .00227 -.0115 .05774 273.043 237.437)"/><path d="M320.26 487.2c0 59.825-11.597 108.32-25.903 108.32s-25.903-48.498-25.903-108.32c0-59.825 11.597-108.32 25.903-108.32s25.903 48.498 25.903 108.32z" transform="matrix(.04468 .01843 -.0225 .05532 281.226 234.846)"/><path d="M151.53 682.7c0 1.665-41.628-24.978-49.954-33.303-8.333-8.33-6.668-46.62-33.31-64.94s-54.949-9.99-68.27 1.66c-13.321 11.656-8.326 38.298 23.312 61.61s53.284 1.666 69.936 9.991c16.651 8.326 43.294 24.976 56.615 38.297 13.321-9.99 46.623-21.646 64.94-29.972 18.316-8.325 64.941 11.656 96.578-11.656 26.642-18.316 38.297-56.614 19.981-68.27-18.317-11.656-51.619-6.66-71.6 4.996-19.982 11.656-29.972 58.279-49.955 66.605-14.986 4.995-56.614 28.307-58.279 24.977z" transform="matrix(.03826 .01578 -.00847 .02082 280.852 256.29)"/></g><g><path d="M320.26 487.2c0 59.825-11.597 108.32-25.903 108.32s-25.903-48.498-25.903-108.32c0-59.825 11.597-108.32 25.903-108.32s25.903 48.498 25.903 108.32z" transform="matrix(-.00605 .0607 -.05965 .00984 309.392 256.624)"/><path d="M320.26 487.2c0 59.825-11.597 108.32-25.903 108.32s-25.903-48.498-25.903-108.32c0-59.825 11.597-108.32 25.903-108.32s25.903 48.498 25.903 108.32z" transform="matrix(.00997 .0563 -.05922 .0227 303.913 250.074)"/><path d="M320.26 487.2c0 59.825-11.597 108.32-25.903 108.32s-25.903-48.498-25.903-108.32c0-59.825 11.597-108.32 25.903-108.32s25.903 48.498 25.903 108.32z" transform="matrix(.05974 .01104 -.026 .0548 269.542 243.93)"/><path d="M320.26 487.2c0 59.825-11.597 108.32-25.903 108.32s-25.903-48.498-25.903-108.32c0-59.825 11.597-108.32 25.903-108.32s25.903 48.498 25.903 108.32z" transform="matrix(.04657 .03081 -.04264 .04825 283.44 241.633)"/><path d="M320.26 487.2c0 59.825-11.597 108.32-25.903 108.32s-25.903-48.498-25.903-108.32c0-59.825 11.597-108.32 25.903-108.32s25.903 48.498 25.903 108.32z" transform="matrix(.03306 .04336 -.05193 .0396 292.753 243.902)"/><path d="M151.53 682.7c0 1.665-41.628-24.978-49.954-33.303-8.333-8.33-6.668-46.62-33.31-64.94s-54.949-9.99-68.27 1.66c-13.321 11.656-8.326 38.298 23.312 61.61s53.284 1.666 69.936 9.991c16.651 8.326 43.294 24.976 56.615 38.297 13.321-9.99 46.623-21.646 64.94-29.972 18.316-8.325 64.941 11.656 96.578-11.656 26.642-18.316 38.297-56.614 19.981-68.27-18.317-11.656-51.619-6.66-71.6 4.996-19.982 11.656-29.972 58.279-49.955 66.605-14.986 4.995-56.614 28.307-58.279 24.977z" transform="matrix(.0283 .03714 -.01955 .0149 280.68 264.08)"/></g><g><path d="M314.71 506.2c0 45.062-10.064 81.591-22.479 81.591s-22.479-36.53-22.479-81.591c0-45.062 10.064-81.591 22.479-81.591s22.479 36.53 22.479 81.591z" transform="matrix(-.00024 .08488 -.08138 .0012 308.997 259.352)"/><path d="M314.71 506.2c0 45.062-10.064 81.591-22.479 81.591s-22.479-36.53-22.479-81.591c0-45.062 10.064-81.591 22.479-81.591s22.479 36.53 22.479 81.591z" transform="matrix(.06296 .05265 -.05156 .06658 273.132 230.429)"/><path d="M314.71 506.2c0 45.062-10.064 81.591-22.479 81.591s-22.479-36.53-22.479-81.591c0-45.062 10.064-81.591 22.479-81.591s22.479 36.53 22.479 81.591z" transform="matrix(.02999 .07837 -.07565 .03262 296.642 242.574)"/></g><g><path d="M314.71 506.2c0 45.062-10.064 81.591-22.479 81.591s-22.479-36.53-22.479-81.591c0-45.062 10.064-81.591 22.479-81.591s22.479 36.53 22.479 81.591z" transform="matrix(.03483 -.01897 .03747 .03374 239.666 214.846)"/><path d="M314.71 506.2c0 45.062-10.064 81.591-22.479 81.591s-22.479-36.53-22.479-81.591c0-45.062 10.064-81.591 22.479-81.591s22.479 36.53 22.479 81.591z" transform="matrix(-.00707 -.03814 .05066 .00658 244.131 236.333)"/><path d="M314.71 506.2c0 45.062-10.064 81.591-22.479 81.591s-22.479-36.53-22.479-81.591c0-45.062 10.064-81.591 22.479-81.591s22.479 36.53 22.479 81.591z" transform="matrix(.01843 -.03014 .04772 .02428 238.417 223.78)"/></g></g><g fill-rule="evenodd" fill="#006700"><path d="M339.1 586.1s113.03 32.968 211.94 89.484c98.904 56.516 252.16 272.38 292.21 280.92 44.682-1.342 105.85-37.846 126.48-164.27-67.86 43.25-107.82 101.54-174.96 40.06-23.55-14.13-102.44-137.87-187.22-199.09-84.77-61.23-254.32-122.45-254.32-122.45l-14.129 75.356z" transform="matrix(.04956 .00303 -.00114 .0258 222.301 264.048)"/><path d="M332.03 604.94c1.177 0 21.194-164.84 21.194-164.84l17.661 164.84-20.016 28.258-18.839-28.258z" transform="matrix(-.01694 -.0405 -.04104 .0153 274.825 234.085)"/><path d="M248.44 462.47c29.436 48.274 77.71 121.28 101.26 170.73 26.295-51.807 74.962-128.34 104.79-175.44-31.79 36.107-71.822 88.699-104.79 116.56-33.36-27.866-70.253-78.103-101.26-111.86z" transform="matrix(-.01698 -.04048 -.04102 .01534 273.642 234.412)"/><path d="M332.03 604.94c1.177 0 21.194-164.84 21.194-164.84l17.661 164.84-20.016 28.258-18.839-28.258z" transform="matrix(-.02365 -.03731 -.03757 .02194 273.8 229.402)"/><path d="M248.44 462.47c29.436 48.274 77.71 121.28 101.26 170.73 26.295-51.807 74.962-128.34 104.79-175.44-31.79 36.107-71.822 88.699-104.79 116.56-33.36-27.866-70.253-78.103-101.26-111.86z" transform="matrix(-.01781 -.04189 -.04087 .0157 272.629 234.528)"/><path d="M332.03 604.94c1.177 0 21.194-164.84 21.194-164.84l17.661 164.84-20.016 28.258-18.839-28.258z" transform="matrix(-.01326 -.04168 -.04237 .01167 272.308 237.418)"/><path d="M248.44 462.47c29.436 48.274 77.71 121.28 101.26 170.73 26.295-51.807 74.962-128.34 104.79-175.44-31.79 36.107-71.822 88.699-104.79 116.56-33.36-27.866-70.253-78.103-101.26-111.86z" transform="matrix(-.02254 -.04064 -.03858 .02042 271.993 232.093)"/><path d="M332.03 604.94c1.177 0 21.194-164.84 21.194-164.84l17.661 164.84-20.016 28.258-18.839-28.258z" transform="matrix(-.03122 -.03168 -.03156 .0295 271.056 223.343)"/><path d="M248.44 462.47c29.436 48.274 77.71 121.28 101.26 170.73 26.295-51.807 74.962-128.34 104.79-175.44-31.79 36.107-71.822 88.699-104.79 116.56-33.36-27.866-70.253-78.103-101.26-111.86z" transform="matrix(-.02805 -.04276 -.03896 .025 273.494 230.863)"/><path d="M332.03 604.94c1.177 0 21.194-164.84 21.194-164.84l17.661 164.84-20.016 28.258-18.839-28.258z" transform="matrix(-.0298 -.04116 -.03729 .0268 273.128 229.431)"/><path d="M248.44 462.47c29.436 48.274 77.71 121.28 101.26 170.73 26.295-51.807 74.962-128.34 104.79-175.44-31.79 36.107-71.822 88.699-104.79 116.56-33.36-27.866-70.253-78.103-101.26-111.86z" transform="matrix(-.0214 -.0464 -.0472 .02852 274.448 230.32)"/><path d="M332.03 604.94c1.177 0 21.194-164.84 21.194-164.84l17.661 164.84-20.016 28.258-18.839-28.258z" transform="matrix(-.02362 -.0446 -.04577 .03046 274.35 228.753)"/><path d="M248.44 462.47c29.436 48.274 77.71 121.28 101.26 170.73 26.295-51.807 74.962-128.34 104.79-175.44-31.79 36.107-71.822 88.699-104.79 116.56-33.36-27.866-70.253-78.103-101.26-111.86z" transform="matrix(-.02785 -.04226 -.04268 .03437 272.907 226.763)"/><path d="M332.03 604.94c1.177 0 21.194-164.84 21.194-164.84l17.661 164.84-20.016 28.258-18.839-28.258z" transform="matrix(-.03464 -.03587 -.03738 .041 271.995 220.658)"/><path d="M248.44 462.47c29.436 48.274 77.71 121.28 101.26 170.73 26.295-51.807 74.962-128.34 104.79-175.44-31.79 36.107-71.822 88.699-104.79 116.56-33.36-27.866-70.253-78.103-101.26-111.86z" transform="matrix(-.02544 -.04359 -.04456 .03217 271.588 229)"/><path d="M332.03 604.94c1.177 0 21.194-164.84 21.194-164.84l17.661 164.84-20.016 28.258-18.839-28.258z" transform="matrix(-.02393 -.04515 -.045 .03047 272.064 230.905)"/><path d="M248.44 462.47c29.436 48.274 77.71 121.28 101.26 170.73 26.295-51.807 74.962-128.34 104.79-175.44-31.79 36.107-71.822 88.699-104.79 116.56-33.36-27.866-70.253-78.103-101.26-111.86z" transform="matrix(-.03027 -.03971 -.04144 .03685 270.491 226.183)"/><path d="M332.03 604.94c1.177 0 21.194-164.84 21.194-164.84l17.661 164.84-20.016 28.258-18.839-28.258z" transform="matrix(-.04016 -.02854 -.03194 .04605 268.402 216.27)"/><path d="M248.44 462.47c29.436 48.274 77.71 121.28 101.26 170.73 26.295-51.807 74.962-128.34 104.79-175.44-31.79 36.107-71.822 88.699-104.79 116.56-33.36-27.866-70.253-78.103-101.26-111.86z" transform="matrix(-.0381 -.04304 -.04103 .04296 272.249 224.642)"/><path d="M332.03 604.94c1.177 0 21.194-164.84 21.194-164.84l17.661 164.84-20.016 28.258-18.839-28.258z" transform="matrix(-.03988 -.04053 -.03886 .04462 271.63 223.017)"/><path d="M248.44 462.47c29.436 48.274 77.71 121.28 101.26 170.73 26.295-51.807 74.962-128.34 104.79-175.44-31.79 36.107-71.822 88.699-104.79 116.56-33.36-27.866-70.253-78.103-101.26-111.86z" transform="matrix(-.03992 -.04048 -.03882 .04466 270.45 224.16)"/><path d="M332.03 604.94c1.177 0 21.194-164.84 21.194-164.84l17.661 164.84-20.016 28.258-18.839-28.258z" transform="matrix(-.04589 -.03238 -.03154 .05084 268.078 217.752)"/><path d="M248.44 462.47c29.436 48.274 77.71 121.28 101.26 170.73 26.295-51.807 74.962-128.34 104.79-175.44-31.79 36.107-71.822 88.699-104.79 116.56-33.36-27.866-70.253-78.103-101.26-111.86z" transform="matrix(-.03608 -.04362 -.0427 .04134 270.132 227.704)"/><path d="M332.03 604.94c1.177 0 21.194-164.84 21.194-164.84l17.661 164.84-20.016 28.258-18.839-28.258z" transform="matrix(-.0318 -.0474 -.04599 .03695 271.137 232.014)"/><path d="M248.44 462.47c29.436 48.274 77.71 121.28 101.26 170.73 26.295-51.807 74.962-128.34 104.79-175.44-31.79 36.107-71.822 88.699-104.79 116.56-33.36-27.866-70.253-78.103-101.26-111.86z" transform="matrix(-.03255 -.04796 -.04425 .03785 268.576 231.633)"/><path d="M332.03 604.94c1.177 0 21.194-164.84 21.194-164.84l17.661 164.84-20.016 28.258-18.839-28.258z" transform="matrix(-.0431 -.03623 -.03405 .0492 266.304 220.184)"/><path d="M248.44 462.47c29.436 48.274 77.71 121.28 101.26 170.73 26.295-51.807 74.962-128.34 104.79-175.44-31.79 36.107-71.822 88.699-104.79 116.56-33.36-27.866-70.253-78.103-101.26-111.86z" transform="matrix(-.04453 -.04347 -.04256 .05505 271.157 221.506)"/><path d="M332.03 604.94c1.177 0 21.194-164.84 21.194-164.84l17.661 164.84-20.016 28.258-18.839-28.258z" transform="matrix(-.04633 -.04034 -.04008 .05662 270.376 219.744)"/><path d="M248.44 462.47c29.436 48.274 77.71 121.28 101.26 170.73 26.295-51.807 74.962-128.34 104.79-175.44-31.79 36.107-71.822 88.699-104.79 116.56-33.36-27.866-70.253-78.103-101.26-111.86z" transform="matrix(-.04638 -.04028 -.04003 .05667 269.148 221.221)"/><path d="M332.03 604.94c1.177 0 21.194-164.84 21.194-164.84l17.661 164.84-20.016 28.258-18.839-28.258z" transform="matrix(-.05246 -.03016 -.03164 .06264 266.15 214.264)"/><path d="M248.44 462.47c29.436 48.274 77.71 121.28 101.26 170.73 26.295-51.807 74.962-128.34 104.79-175.44-31.79 36.107-71.822 88.699-104.79 116.56-33.36-27.866-70.253-78.103-101.26-111.86z" transform="matrix(-.04667 -.03987 -.03969 .05695 267.626 221.899)"/><path d="M332.03 604.94c1.177 0 21.194-164.84 21.194-164.84l17.661 164.84-20.016 28.258-18.839-28.258z" transform="matrix(-.04263 -.04517 -.044 .05285 269.444 226.476)"/><path d="M248.44 462.47c29.436 48.274 77.71 121.28 101.26 170.73 26.295-51.807 74.962-128.34 104.79-175.44-31.79 36.107-71.822 88.699-104.79 116.56-33.36-27.866-70.253-78.103-101.26-111.86z" transform="matrix(-.05445 -.02632 -.02756 .06456 263.637 214.52)"/><path d="M332.03 604.94c1.177 0 21.194-164.84 21.194-164.84l17.661 164.84-20.016 28.258-18.839-28.258z" transform="matrix(-.0598 -.00828 -.01215 .06922 256.185 204.795)"/><path d="M248.44 462.47c29.436 48.274 77.71 121.28 101.26 170.73 26.295-51.807 74.962-128.34 104.79-175.44-31.79 36.107-71.822 88.699-104.79 116.56-33.36-27.866-70.253-78.103-101.26-111.86z" transform="matrix(-.05432 -.02663 -.02781 .06443 262.893 215.721)"/><path d="M332.03 604.94c1.177 0 21.194-164.84 21.194-164.84l17.661 164.84-20.016 28.258-18.839-28.258z" transform="matrix(-.05562 -.02342 -.0251 .06566 261.896 213.931)"/><path d="M248.44 462.47c29.436 48.274 77.71 121.28 101.26 170.73 26.295-51.807 74.962-128.34 104.79-175.44-31.79 36.107-71.822 88.699-104.79 116.56-33.36-27.866-70.253-78.103-101.26-111.86z" transform="matrix(-.05906 -.02078 -.02157 .0694 260.856 212.244)"/><path d="M332.03 604.94c1.177 0 21.194-164.84 21.194-164.84l17.661 164.84-20.016 28.258-18.839-28.258z" transform="matrix(-.06185 -.0088 -.01131 .0719 255.638 206.743)"/><path d="M248.44 462.47c29.436 48.274 77.71 121.28 101.26 170.73 26.295-51.807 74.962-128.34 104.79-175.44-31.79 36.107-71.822 88.699-104.79 116.56-33.36-27.866-70.253-78.103-101.26-111.86z" transform="matrix(-.05676 -.02686 -.02701 .06733 261.922 216.709)"/><path d="M332.03 604.94c1.177 0 21.194-164.84 21.194-164.84l17.661 164.84-20.016 28.258-18.839-28.258z" transform="matrix(-.0539 -.03322 -.03236 .06443 264.84 220.757)"/><path d="M248.44 462.47c29.436 48.274 77.71 121.28 101.26 170.73 26.295-51.807 74.962-128.34 104.79-175.44-31.79 36.107-71.822 88.699-104.79 116.56-33.36-27.866-70.253-78.103-101.26-111.86z" transform="matrix(-.056 -.0209 -.0204 .07044 258.62 213.837)"/><path d="M332.03 604.94c1.177 0 21.194-164.84 21.194-164.84l17.661 164.84-20.016 28.258-18.839-28.258z" transform="matrix(-.06266 -.00124 -.00505 .07247 251.394 205.848)"/><path d="M248.44 462.47c29.436 48.274 77.71 121.28 101.26 170.73 26.295-51.807 74.962-128.34 104.79-175.44-31.79 36.107-71.822 88.699-104.79 116.56-33.36-27.866-70.253-78.103-101.26-111.86z" transform="matrix(-.05654 -.02045 -.0183 .07068 256.493 214.504)"/><path d="M332.03 604.94c1.177 0 21.194-164.84 21.194-164.84l17.661 164.84-20.016 28.258-18.839-28.258z" transform="matrix(-.05737 -.01694 -.01549 .0716 255.279 212.775)"/><path d="M248.44 462.47c29.436 48.274 77.71 121.28 101.26 170.73 26.295-51.807 74.962-128.34 104.79-175.44-31.79 36.107-71.822 88.699-104.79 116.56-33.36-27.866-70.253-78.103-101.26-111.86z" transform="matrix(-.05798 -.01483 -.0129 .07208 253.805 212.935)"/><path d="M332.03 604.94c1.177 0 21.194-164.84 21.194-164.84l17.661 164.84-20.016 28.258-18.839-28.258z" transform="matrix(-.05932 -.00248 -.00295 .07355 248.289 207.934)"/><path d="M248.44 462.47c29.436 48.274 77.71 121.28 101.26 170.73 26.295-51.807 74.962-128.34 104.79-175.44-31.79 36.107-71.822 88.699-104.79 116.56-33.36-27.866-70.253-78.103-101.26-111.86z" transform="matrix(-.059 -.0119 -.00931 .07326 252.161 212.361)"/><path d="M332.03 604.94c1.177 0 21.194-164.84 21.194-164.84l17.661 164.84-20.016 28.258-18.839-28.258z" transform="matrix(-.05783 -.0189 -.01495 .07178 255.82 215.6)"/><path d="M248.44 462.47c29.436 48.274 77.71 121.28 101.26 170.73 26.295-51.807 74.962-128.34 104.79-175.44-31.79 36.107-71.822 88.699-104.79 116.56-33.36-27.866-70.253-78.103-101.26-111.86z" transform="matrix(-.05967 -.00362 -.00265 .07414 248.804 211.035)"/><path d="M332.03 604.94c1.177 0 21.194-164.84 21.194-164.84l17.661 164.84-20.016 28.258-18.839-28.258z" transform="matrix(-.05824 .01614 .01325 .07245 238.471 204.567)"/><path d="M248.44 462.47c29.436 48.274 77.71 121.28 101.26 170.73 26.295-51.807 74.962-128.34 104.79-175.44-31.79 36.107-71.822 88.699-104.79 116.56-33.36-27.866-70.253-78.103-101.26-111.86z" transform="matrix(-.06129 -.00361 -.0033 .0739 249.44 212.491)"/><path d="M332.03 604.94c1.177 0 21.194-164.84 21.194-164.84l17.661 164.84-20.016 28.258-18.839-28.258z" transform="matrix(-.06138 .00003 -.00028 .074 247.847 211.161)"/><path d="M248.44 462.47c29.436 48.274 77.71 121.28 101.26 170.73 26.295-51.807 74.962-128.34 104.79-175.44-31.79 36.107-71.822 88.699-104.79 116.56-33.36-27.866-70.253-78.103-101.26-111.86z" transform="matrix(-.06121 -.00506 -.0045 .07383 250.171 213.954)"/><path d="M332.03 604.94c1.177 0 21.194-164.84 21.194-164.84l17.661 164.84-20.016 28.258-18.839-28.258z" transform="matrix(-.0611 .00745 .00587 .07362 243.913 209.904)"/><path d="M248.44 462.47c29.436 48.274 77.71 121.28 101.26 170.73 26.295-51.807 74.962-128.34 104.79-175.44-31.79 36.107-71.822 88.699-104.79 116.56-33.36-27.866-70.253-78.103-101.26-111.86z" transform="matrix(-.06085 -.00929 -.008 .07342 250.837 216.922)"/><path d="M332.03 604.94c1.177 0 21.194-164.84 21.194-164.84l17.661 164.84-20.016 28.258-18.839-28.258z" transform="matrix(-.0598 -.01632 -.01383 .07218 254.357 220)"/><path d="M248.44 462.47c29.436 48.274 77.71 121.28 101.26 170.73 26.295-51.807 74.962-128.34 104.79-175.44-31.79 36.107-71.822 88.699-104.79 116.56-33.36-27.866-70.253-78.103-101.26-111.86z" transform="matrix(-.06137 -.00101 -.00115 .074 247.925 214.91)"/><path d="M332.03 604.94c1.177 0 21.194-164.84 21.194-164.84l17.661 164.84-20.016 28.258-18.839-28.258z" transform="matrix(-.05948 .01862 .01515 .07162 236.304 209.76)"/><path d="M248.44 462.47c29.436 48.274 77.71 121.28 101.26 170.73 26.295-51.807 74.962-128.34 104.79-175.44-31.79 36.107-71.822 88.699-104.79 116.56-33.36-27.866-70.253-78.103-101.26-111.86z" transform="matrix(-.06056 .01242 .01 .07295 242.059 212.965)"/><path d="M332.03 604.94c1.177 0 21.194-164.84 21.194-164.84l17.661 164.84-20.016 28.258-18.839-28.258z" transform="matrix(-.05895 .02097 .0171 .07097 238.292 210.307)"/><path d="M248.44 462.47c29.436 48.274 77.71 121.28 101.26 170.73 26.295-51.807 74.962-128.34 104.79-175.44-31.79 36.107-71.822 88.699-104.79 116.56-33.36-27.866-70.253-78.103-101.26-111.86z" transform="matrix(-.06047 .01305 .01052 .07284 241.764 214.043)"/><path d="M332.03 604.94c1.177 0 21.194-164.84 21.194-164.84l17.661 164.84-20.016 28.258-18.839-28.258z" transform="matrix(-.05627 .0299 .02452 .06769 232.947 211.244)"/><path d="M248.44 462.47c29.436 48.274 77.71 121.28 101.26 170.73 26.295-51.807 74.962-128.34 104.79-175.44-31.79 36.107-71.822 88.699-104.79 116.56-33.36-27.866-70.253-78.103-101.26-111.86z" transform="matrix(-.05849 .0216 .01882 .0707 237.039 213.892)"/><path d="M332.03 604.94c1.177 0 21.194-164.84 21.194-164.84l17.661 164.84-20.016 28.258-18.839-28.258z" transform="matrix(-.06066 .0116 .00932 .07309 243.942 215.705)"/><path d="M248.44 462.47c29.436 48.274 77.71 121.28 101.26 170.73 26.295-51.807 74.962-128.34 104.79-175.44-31.79 36.107-71.822 88.699-104.79 116.56-33.36-27.866-70.253-78.103-101.26-111.86z" transform="matrix(-.05601 .02938 .02524 .06784 233.469 214.54)"/><path d="M332.03 604.94c1.177 0 21.194-164.84 21.194-164.84l17.661 164.84-20.016 28.258-18.839-28.258z" transform="matrix(-.04733 .0463 .03918 .05764 221.59 214.397)"/><path d="M248.44 462.47c29.436 48.274 77.71 121.28 101.26 170.73 26.295-51.807 74.962-128.34 104.79-175.44-31.79 36.107-71.822 88.699-104.79 116.56-33.36-27.866-70.253-78.103-101.26-111.86z" transform="matrix(-.05613 .02906 .02498 .06798 233.777 216.005)"/><path d="M332.03 604.94c1.177 0 21.194-164.84 21.194-164.84l17.661 164.84-20.016 28.258-18.839-28.258z" transform="matrix(-.05483 .03238 .02771 .06646 231.852 215.653)"/><path d="M248.44 462.47c29.436 48.274 77.71 121.28 101.26 170.73 26.295-51.807 74.962-128.34 104.79-175.44-31.79 36.107-71.822 88.699-104.79 116.56-33.36-27.866-70.253-78.103-101.26-111.86z" transform="matrix(-.0548 .03245 .02778 .06643 232.49 217.58)"/><path d="M332.03 604.94c1.177 0 21.194-164.84 21.194-164.84l17.661 164.84-20.016 28.258-18.839-28.258z" transform="matrix(-.04934 .04317 .0366 .06001 225.373 217.848)"/><path d="M248.44 462.47c29.436 48.274 77.71 121.28 101.26 170.73 26.295-51.807 74.962-128.34 104.79-175.44-31.79 36.107-71.822 88.699-104.79 116.56-33.36-27.866-70.253-78.103-101.26-111.86z" transform="matrix(-.0546 .03293 .02817 .0662 232.333 219.486)"/><path d="M332.03 604.94c1.177 0 21.194-164.84 21.194-164.84l17.661 164.84-20.016 28.258-18.839-28.258z" transform="matrix(-.05706 .0264 .02278 .06906 236.943 219.475)"/><path d="M248.44 462.47c29.436 48.274 77.71 121.28 101.26 170.73 26.295-51.807 74.962-128.34 104.79-175.44-31.79 36.107-71.822 88.699-104.79 116.56-33.36-27.866-70.253-78.103-101.26-111.86z" transform="matrix(-.0511 .04013 .0341 .0621 228.908 220.832)"/><path d="M332.03 604.94c1.177 0 21.194-164.84 21.194-164.84l17.661 164.84-20.016 28.258-18.839-28.258z" transform="matrix(-.03553 .05823 .05044 .04515 213.927 222.948)"/><path d="M248.44 462.47c29.436 48.274 77.71 121.28 101.26 170.73 26.295-51.807 74.962-128.34 104.79-175.44-31.79 36.107-71.822 88.699-104.79 116.56-33.36-27.866-70.253-78.103-101.26-111.86z" transform="matrix(-.04907 .04193 .0374 .0606 227.168 221.53)"/><path d="M332.03 604.94c1.177 0 21.194-164.84 21.194-164.84l17.661 164.84-20.016 28.258-18.839-28.258z" transform="matrix(-.04717 .04486 .03977 .05846 225.225 221.647)"/><path d="M248.44 462.47c29.436 48.274 77.71 121.28 101.26 170.73 26.295-51.807 74.962-128.34 104.79-175.44-31.79 36.107-71.822 88.699-104.79 116.56-33.36-27.866-70.253-78.103-101.26-111.86z" transform="matrix(-.04713 .04493 .03982 .0584 226.217 223.383)"/><path d="M332.03 604.94c1.177 0 21.194-164.84 21.194-164.84l17.661 164.84-20.016 28.258-18.839-28.258z" transform="matrix(-.03625 .05758 .04993 .04598 216.964 226.434)"/><path d="M248.44 462.47c29.436 48.274 77.71 121.28 101.26 170.73 26.295-51.807 74.962-128.34 104.79-175.44-31.79 36.107-71.822 88.699-104.79 116.56-33.36-27.866-70.253-78.103-101.26-111.86z" transform="matrix(-.04382 .04941 .04343 .05467 224.011 225.758)"/><path d="M332.03 604.94c1.177 0 21.194-164.84 21.194-164.84l17.661 164.84-20.016 28.258-18.839-28.258z" transform="matrix(-.0478 .04392 .039 .05917 228.404 224.255)"/><path d="M248.44 462.47c29.436 48.274 77.71 121.28 101.26 170.73 26.295-51.807 74.962-128.34 104.79-175.44-31.79 36.107-71.822 88.699-104.79 116.56-33.36-27.866-70.253-78.103-101.26-111.86z" transform="matrix(-.03869 .05522 .04806 .0488 221.082 228.165)"/><path d="M332.03 604.94c1.177 0 21.194-164.84 21.194-164.84l17.661 164.84-20.016 28.258-18.839-28.258z" transform="matrix(-.01312 .0692 .0614 .0224 203.742 238.123)"/><path d="M248.44 462.47c29.436 48.274 77.71 121.28 101.26 170.73 26.295-51.807 74.962-128.34 104.79-175.44-31.79 36.107-71.822 88.699-104.79 116.56-33.36-27.866-70.253-78.103-101.26-111.86z" transform="matrix(-.03892 .05499 .04788 .04905 221.91 229.34)"/><path d="M332.03 604.94c1.177 0 21.194-164.84 21.194-164.84l17.661 164.84-20.016 28.258-18.839-28.258z" transform="matrix(-.0264 .0625 .05696 .03718 212.535 232.499)"/><path d="M248.44 462.47c29.436 48.274 77.71 121.28 101.26 170.73 26.295-51.807 74.962-128.34 104.79-175.44-31.79 36.107-71.822 88.699-104.79 116.56-33.36-27.866-70.253-78.103-101.26-111.86z" transform="matrix(-.02633 .06255 .05699 .03712 214.055 233.686)"/><path d="M332.03 604.94c1.177 0 21.194-164.84 21.194-164.84l17.661 164.84-20.016 28.258-18.839-28.258z" transform="matrix(-.01636 .0679 .0606 .02605 208.558 238.531)"/><path d="M248.44 462.47c29.436 48.274 77.71 121.28 101.26 170.73 26.295-51.807 74.962-128.34 104.79-175.44-31.79 36.107-71.822 88.699-104.79 116.56-33.36-27.866-70.253-78.103-101.26-111.86z" transform="matrix(-.02592 .06281 .05718 .03666 214.934 235.37)"/><path d="M332.03 604.94c1.177 0 21.194-164.84 21.194-164.84l17.661 164.84-20.016 28.258-18.839-28.258z" transform="matrix(-.0313 .05899 .05441 .04254 218.58 232.366)"/><path d="M248.44 462.47c29.436 48.274 77.71 121.28 101.26 170.73 26.295-51.807 74.962-128.34 104.79-175.44-31.79 36.107-71.822 88.699-104.79 116.56-33.36-27.866-70.253-78.103-101.26-111.86z" transform="matrix(-.01936 .06652 .05972 .0294 212.93 238.713)"/><path d="M332.03 604.94c1.177 0 21.194-164.84 21.194-164.84l17.661 164.84-20.016 28.258-18.839-28.258z" transform="matrix(-.00285 .07194 .06271 .01073 204.816 248.152)"/><path d="M332.03 604.94c1.177 0 21.194-164.84 21.194-164.84l17.661 164.84-20.016 28.258-18.839-28.258z" transform="matrix(.00098 -.02765 -.04526 .00402 274.887 234.906)"/><path d="M248.44 462.47c29.436 48.274 77.71 121.28 101.26 170.73 26.295-51.807 74.962-128.34 104.79-175.44-31.79 36.107-71.822 88.699-104.79 116.56-33.36-27.866-70.253-78.103-101.26-111.86z" transform="matrix(.00066 -.02842 -.04537 .00374 272.76 235.083)"/><path d="M332.03 604.94c1.177 0 21.194-164.84 21.194-164.84l17.661 164.84-20.016 28.258-18.839-28.258z" transform="matrix(-.0067 -.02657 -.04477 .00865 276.82 232.004)"/><path d="M248.44 462.47c29.436 48.274 77.71 121.28 101.26 170.73 26.295-51.807 74.962-128.34 104.79-175.44-31.79 36.107-71.822 88.699-104.79 116.56-33.36-27.866-70.253-78.103-101.26-111.86z" transform="matrix(-.01445 -.03327 -.04373 .01534 276.1 231.447)"/><path d="M332.03 604.94c1.177 0 21.194-164.84 21.194-164.84l17.661 164.84-20.016 28.258-18.839-28.258z" transform="matrix(.00496 -.0279 -.045 .00157 270.395 237.237)"/><path d="M248.44 462.47c29.436 48.274 77.71 121.28 101.26 170.73 26.295-51.807 74.962-128.34 104.79-175.44-31.79 36.107-71.822 88.699-104.79 116.56-33.36-27.866-70.253-78.103-101.26-111.86z" transform="matrix(-.00447 -.02697 -.04505 .00731 272.335 233.88)"/><path d="M332.03 604.94c1.177 0 21.194-164.84 21.194-164.84l17.661 164.84-20.016 28.258-18.839-28.258z" transform="matrix(-.01624 -.02407 -.04226 .0142 275.12 228.253)"/><path d="M248.44 462.47c29.436 48.274 77.71 121.28 101.26 170.73 26.295-51.807 74.962-128.34 104.79-175.44-31.79 36.107-71.822 88.699-104.79 116.56-33.36-27.866-70.253-78.103-101.26-111.86z" transform="matrix(-.01018 -.03832 -.03355 .00695 268.217 237.712)"/><path d="M332.03 604.94c1.177 0 21.194-164.84 21.194-164.84l17.661 164.84-20.016 28.258-18.839-28.258z" transform="matrix(-.0118 -.03767 -.03277 .0087 268.285 236.59)"/><path d="M332.03 604.94c1.177 0 21.194-164.84 21.194-164.84l17.661 164.84-20.016 28.258-18.839-28.258z" transform="matrix(.00345 .0701 .06521 .00852 199.635 249.147)"/><path d="M332.03 604.94c1.177 0 21.194-164.84 21.194-164.84l17.661 164.84-20.016 28.258-18.839-28.258z" transform="matrix(-.01108 .06646 .06435 .02385 206.899 241.78)"/><path d="M332.03 604.94c1.177 0 21.194-164.84 21.194-164.84l17.661 164.84-20.016 28.258-18.839-28.258z" transform="matrix(-.00001 .06954 .0653 .01223 204.433 248.504)"/><path d="M248.44 462.47c29.436 48.274 77.71 121.28 101.26 170.73 26.295-51.807 74.962-128.34 104.79-175.44-31.79 36.107-71.822 88.699-104.79 116.56-33.36-27.866-70.253-78.103-101.26-111.86z" transform="matrix(-.01055 .06666 .06445 .02329 209.916 244.052)"/><path d="M332.03 604.94c1.177 0 21.194-164.84 21.194-164.84l17.661 164.84-20.016 28.258-18.839-28.258z" transform="matrix(-.0167 .0641 .06313 .0296 212.771 240.345)"/><path d="M248.44 462.47c29.436 48.274 77.71 121.28 101.26 170.73 26.295-51.807 74.962-128.34 104.79-175.44-31.79 36.107-71.822 88.699-104.79 116.56-33.36-27.866-70.253-78.103-101.26-111.86z" transform="matrix(-.00327 .06885 .06522 .01568 208.745 247.735)"/><path d="M332.03 604.94c1.177 0 21.194-164.84 21.194-164.84l17.661 164.84-20.016 28.258-18.839-28.258z" transform="matrix(.01412 .07054 .06376 -.00311 203.04 258.664)"/><path d="M332.03 604.94c1.177 0 21.194-164.84 21.194-164.84l17.661 164.84-20.016 28.258-18.839-28.258z" transform="matrix(.00871 .06963 .06573 .004 201.51 254.03)"/><path d="M332.03 604.94c1.177 0 21.194-164.84 21.194-164.84l17.661 164.84-20.016 28.258-18.839-28.258z" transform="matrix(-.00607 .06701 .06602 .01933 208.206 246.185)"/><path d="M332.03 604.94c1.177 0 21.194-164.84 21.194-164.84l17.661 164.84-20.016 28.258-18.839-28.258z" transform="matrix(.0052 .06932 .0661 .00769 206.25 253.057)"/><path d="M248.44 462.47c29.436 48.274 77.71 121.28 101.26 170.73 26.295-51.807 74.962-128.34 104.79-175.44-31.79 36.107-71.822 88.699-104.79 116.56-33.36-27.866-70.253-78.103-101.26-111.86z" transform="matrix(-.00552 .06717 .06607 .01877 211.389 248.242)"/><path d="M332.03 604.94c1.177 0 21.194-164.84 21.194-164.84l17.661 164.84-20.016 28.258-18.839-28.258z" transform="matrix(-.01186 .06505 .06523 .02515 213.96 244.35)"/><path d="M248.44 462.47c29.436 48.274 77.71 121.28 101.26 170.73 26.295-51.807 74.962-128.34 104.79-175.44-31.79 36.107-71.822 88.699-104.79 116.56-33.36-27.866-70.253-78.103-101.26-111.86z" transform="matrix(.0019 .06885 .06627 .01113 210.496 251.993)"/><path d="M332.03 604.94c1.177 0 21.194-164.84 21.194-164.84l17.661 164.84-20.016 28.258-18.839-28.258z" transform="matrix(.0194 .06934 .0634 -.0075 205.623 263.28)"/></g><path d="M374.65 434.6c0 66.213-53.676 119.89-119.89 119.89-66.213 0-119.89-53.676-119.89-119.89 0-66.213 53.676-119.89 119.89-119.89 66.213 0 119.89 53.676 119.89 119.89z" fill-rule="evenodd" transform="matrix(.17353 0 0 .17648 212.272 177.992)" fill="#3d25ca"/><path d="M353.57 628.49l-130.85-89.51-130.85 89.51 49.07-143.21-114.5-89.51h147.21l49.069-143.21 49.069 143.21h147.21l-114.49 89.507 49.069 143.21z" fill-rule="evenodd" transform="matrix(.08772 0 0 .0788 237.66 217.863)" fill="#ffd900"/><path d="M17.716 379.13l212.6 53.15M230.32 237.4v194.88M230.32 432.28v88.583M230.32 432.28l88.583 35.434M177.16 379.13l53.15 53.149M230.32 432.28l53.15-53.149M442.91 379.13l-212.59 53.15M230.32 432.28l141.73 177.17M230.32 432.28L88.58 609.45M141.73 467.72l88.583-35.434" fill="none" transform="matrix(.08099 0 0 .07962 238.546 218.863)"/></g><path d="M298.151 256.007c0 23.266-18.882 42.148-42.148 42.148s-42.148-18.882-42.148-42.148c0-23.265 18.882-42.149 42.148-42.149 23.265 0 42.148 18.883 42.148 42.149zm14.05 0c0 31.02-25.176 56.196-56.197 56.196s-56.196-25.176-56.196-56.196 25.176-56.197 56.196-56.197 56.196 25.176 56.196 56.197z" fill-rule="evenodd" stroke="#000" stroke-width=".27299025" fill="#d60000"/><path d="M298.836 266.082l3.7 1.37 6.14-1.123-.46 1.247-3.2.553a29.92 29.92 0 01-1.769.24c.371.4.782.873 1.231 1.416l2.014 2.45-.442 1.194-3.893-4.953-3.7-1.369.379-1.025zM309.243 251.886l.119 1.087-5.35.585c-.931.102-1.68.09-2.248-.037a2.676 2.676 0 01-1.45-.867c-.395-.448-.635-1.068-.722-1.86-.084-.769-.004-1.414.242-1.935a2.491 2.491 0 011.18-1.189c.546-.271 1.31-.46 2.29-.568l5.35-.585.12 1.085-5.344.585c-.805.088-1.391.22-1.76.392a1.68 1.68 0 00-.804.778c-.17.348-.23.755-.179 1.222.088.798.354 1.345.8 1.64.445.295 1.25.38 2.412.252l5.344-.585zM301.77 241.032l1.072-.217.7 3.426-3.387.687c-.58-.43-1.047-.9-1.401-1.41a4.47 4.47 0 01-.705-1.651 4.293 4.293 0 01.134-2.286c.254-.727.711-1.328 1.37-1.807.66-.478 1.438-.808 2.335-.99a6.39 6.39 0 012.585-.012c.84.174 1.508.533 2.007 1.075.5.542.83 1.216.994 2.023a3.832 3.832 0 01-.003 1.65c-.115.517-.337.95-.664 1.295-.328.346-.785.652-1.37.916l-.495-.905c.44-.216.775-.441 1.004-.675.229-.235.389-.535.478-.902.094-.367.1-.756.017-1.164-.1-.49-.27-.895-.513-1.218a2.424 2.424 0 00-.835-.733 3.364 3.364 0 00-1.006-.325 5.424 5.424 0 00-1.9.064c-.814.165-1.47.426-1.968.783-.497.362-.83.807-1 1.336-.17.529-.2 1.06-.092 1.593.094.463.285.896.574 1.298.293.4.577.69.851.873l1.7-.345-.482-2.379zM262.714 211.594l1.608-9.176 1.075.189-1.417 8.093 4.006.702-.19 1.083-5.082-.89zM253.64 210.977v-9.315h5.971v1.1h-4.877v2.852h4.568v1.093h-4.568v3.171h5.069v1.1h-6.162zM227.838 216.828l1.032-.473c.484.919.672 1.775.565 2.568-.107.788-.487 1.462-1.14 2.02-.677.579-1.36.895-2.05.95-.689.048-1.396-.127-2.123-.526a7.086 7.086 0 01-1.952-1.617c-.63-.737-1.056-1.486-1.276-2.245-.22-.766-.22-1.486-.003-2.162a3.735 3.735 0 011.157-1.733c.628-.537 1.31-.808 2.046-.813.737-.006 1.468.247 2.196.756l-.632.916c-.586-.39-1.118-.585-1.595-.584-.478.002-.927.183-1.347.541-.482.412-.775.888-.877 1.427-.1.537-.026 1.081.22 1.635a6.17 6.17 0 00.963 1.525c.515.603 1.041 1.063 1.581 1.383.54.313 1.069.44 1.587.382a2.454 2.454 0 001.35-.578c.466-.398.73-.886.794-1.464.064-.579-.102-1.214-.496-1.908zM223.94 225.025l-6.93-6.226.73-.813 6.93 6.226-.73.813zM219.459 230.315l-7.386-5.678.666-.866 6.514 5.007 2.478-3.224.872.67-3.144 4.09zM205.602 235.808l.403-1.015 5.003 1.983c.87.345 1.528.705 1.97 1.082.443.378.736.86.877 1.445.14.58.062 1.24-.23 1.98-.286.72-.659 1.252-1.12 1.6a2.49 2.49 0 01-1.599.498c-.609-.015-1.372-.205-2.29-.569l-5.004-1.983.403-1.015 4.998 1.98c.752.299 1.332.457 1.738.478.405.014.762-.09 1.075-.314.313-.227.556-.559.729-.995.296-.747.316-1.355.06-1.825-.256-.469-.928-.919-2.015-1.35l-4.998-1.98zM211.042 258.35l-9.315.077-.05-5.97 1.1-.01.04 4.878 2.853-.023-.038-4.568 1.093-.01.038 4.569 3.17-.027-.041-5.07 1.1-.008.05 6.161zM245.832 212.297l-1.843-9.132 2.788-.563c.63-.127 1.118-.18 1.468-.16.488.027.927.165 1.319.415.509.32.933.777 1.27 1.37.341.589.594 1.29.758 2.104.14.693.192 1.322.157 1.887-.036.564-.13 1.046-.283 1.444-.154.394-.345.72-.573.978a2.9 2.9 0 01-.875.65c-.354.18-.776.318-1.266.417l-2.92.59zm.853-1.294l1.728-.349c.535-.108.94-.248 1.22-.421.283-.174.494-.38.633-.62.196-.338.316-.762.359-1.272.045-.515-.002-1.117-.141-1.806-.193-.955-.48-1.66-.863-2.114-.38-.46-.786-.736-1.22-.83-.312-.067-.786-.036-1.423.092l-1.7.344 1.407 6.976zM275.94 216.013l4.308-8.26 2.762 1.441c.486.254.844.474 1.072.66.325.255.559.542.702.86.145.315.202.681.17 1.099a3.13 3.13 0 01-.364 1.244c-.366.703-.874 1.195-1.525 1.476-.65.278-1.492.147-2.527-.393l-1.878-.98-1.751 3.358-.97-.505zm3.229-3.827l1.892.987c.626.326 1.14.427 1.54.301.4-.126.724-.427.973-.904.18-.345.255-.681.227-1.007a1.224 1.224 0 00-.354-.808c-.137-.133-.426-.315-.866-.545l-1.873-.976-1.54 2.952zM280.698 218.468l8.582-4.815.876.786-3.706 9.19-.927-.83 1.168-2.744-2.57-2.306-2.56 1.494-.863-.775zm4.328-1.256l2.084 1.87 1.081-2.496c.328-.758.613-1.368.855-1.828-.478.374-.984.716-1.52 1.027l-2.5 1.427zM287.356 224.73l7.39-5.67 2.229 2.903c.448.584.721 1.08.82 1.487.102.405.055.826-.141 1.266-.197.44-.499.816-.905 1.128-.525.402-1.082.59-1.673.566-.59-.025-1.176-.315-1.755-.868.052.325.062.593.033.805a6.3 6.3 0 01-.431 1.474l-1.137 2.683-.837-1.091.873-2.046c.25-.594.428-1.063.538-1.408.11-.343.16-.618.154-.821-.004-.2-.039-.382-.104-.544a2.912 2.912 0 00-.336-.51l-.77-1.005-3.283 2.519-.665-.868zm4.794-2.3l1.43 1.863c.303.395.587.67.85.825.265.15.543.207.834.169.294-.042.56-.154.799-.337.35-.268.55-.602.601-1.001.054-.396-.106-.837-.478-1.323l-1.591-2.073-2.445 1.876zM292.337 231.093l9.68-1.774.573 1.028-6.485 7.493-.607-1.087 1.994-2.216-1.684-3.015-2.905.584-.566-1.013zm4.502.215l1.365 2.444 1.832-2.01a27.542 27.542 0 011.4-1.453c-.572.199-1.162.358-1.77.478l-2.827.54zM300.531 255.21l8.935 4.122-.122 1.17-9.617 2.393.13-1.238 2.906-.665.36-3.434-2.713-1.195.121-1.154zm3.557 2.766l-.291 2.784 2.655-.588c.807-.18 1.468-.308 1.982-.381a13.23 13.23 0 01-1.723-.628l-2.623-1.187zM212.513 266.912l-9.097 2.005-.788-3.575c-.158-.719-.196-1.283-.113-1.693.08-.41.3-.772.665-1.088a2.907 2.907 0 011.297-.637c.646-.142 1.23-.077 1.755.196.524.272.932.783 1.222 1.53.09-.316.195-.564.311-.744a6.303 6.303 0 011.015-1.152l2.167-1.948.296 1.342-1.658 1.484c-.477.432-.838.781-1.083 1.047-.246.265-.408.491-.488.678a1.524 1.524 0 00-.136.537c-.002.128.027.329.087.604l.273 1.237 4.04-.89.235 1.067zm-5.317.053l-.506-2.293c-.107-.488-.247-.857-.42-1.108a1.303 1.303 0 00-.684-.507 1.676 1.676 0 00-.866-.033c-.43.095-.753.312-.97.651-.216.337-.258.804-.126 1.402l.562 2.551 3.01-.663zM211.379 250.095l-9.282-.799.267-3.103c.047-.547.113-.96.197-1.244.11-.397.285-.723.524-.978.235-.255.551-.448.95-.58a3.129 3.129 0 011.287-.144c.79.068 1.44.35 1.95.84.506.493.709 1.32.609 2.485l-.182 2.11 3.773.324-.093 1.09zm-4.775-1.508l.183-2.127c.06-.703-.044-1.215-.314-1.536-.27-.321-.673-.505-1.21-.55-.388-.034-.727.025-1.016.177-.293.148-.497.36-.61.637-.07.18-.127.515-.17 1.01l-.18 2.104 3.317.285zM215.271 236.326l-7.75-5.168 1.718-2.578c.35-.524.71-.891 1.079-1.102a2.005 2.005 0 011.221-.262c.445.035.845.172 1.201.41.332.22.59.507.777.861.186.355.262.753.227 1.195.415-.324.861-.486 1.341-.488.481-.004.948.144 1.399.445.363.242.655.537.877.883.221.342.35.669.385.981s-.003.65-.117 1.013c-.116.356-.32.753-.61 1.19l-1.748 2.62zm-3.887-3.906l.99-1.485c.269-.403.432-.713.488-.927a1.149 1.149 0 00-.038-.778c-.101-.238-.287-.448-.559-.629a1.623 1.623 0 00-.786-.287 1.002 1.002 0 00-.714.2c-.21.155-.479.478-.808.971l-.915 1.374 2.342 1.561zm3.58 2.387l1.14-1.711c.196-.294.32-.508.375-.643.097-.238.143-.46.138-.666a1.307 1.307 0 00-.196-.633 1.817 1.817 0 00-.565-.573 1.677 1.677 0 00-.882-.303 1.248 1.248 0 00-.815.249c-.243.172-.51.477-.801.915l-1.06 1.588 2.665 1.777zM230.624 218.47l-2.268-9.576.997-.626 7.815 6.092-1.053.662-2.316-1.878-2.925 1.837.732 2.872-.982.617zm-.016-4.507l2.37-1.489-2.101-1.727a27.624 27.624 0 01-1.524-1.324c.229.562.419 1.143.57 1.744l.685 2.796z" fill="#ffe600"/></g></svg>