<svg xmlns="http://www.w3.org/2000/svg" height="480" width="640"><defs><clipPath id="a" clipPathUnits="userSpaceOnUse"><path fill-opacity=".67" d="M-170.67 0H512v512h-682.67z"/></clipPath></defs><g clip-path="url(#a)" fill-rule="evenodd" transform="translate(160) scale(.9375)"><path fill="#009af4" d="M-256 0h768v256h-768z"/><path fill="#1c8f31" d="M-256 384h768v128h-768z"/><path fill="#efef00" d="M-256 256h768v128h-768z"/><path fill="#ffda00" d="M441.318 178.193l-37.176-20.498 22.097 36.237-30.591-29.425 11.962 40.737-21.943-36.34 1.022 42.43-11.787-40.779-10 41.253-.826-42.44-20.343 37.26 10.187-41.213-29.291 30.736 20.497-37.176-36.237 22.097 29.415-30.591-40.727 11.962 36.34-21.943-42.429 1.022 40.778-11.786-41.253-10.001 42.44-.836-37.259-20.334 41.202 10.188L306.67 79.46l37.177 20.502-22.098-36.244 30.592 29.423-11.962-40.727 21.942 36.34-1.022-42.437 11.787 40.78 10.001-41.254.826 42.441 20.342-37.26-10.186 41.21 29.29-30.725-20.497 37.169 36.237-22.099-29.415 30.596 40.727-11.964-36.34 21.944 42.43-1.021-40.779 11.786 41.253 10.001-42.44.826 37.259 20.343-41.202-10.187z"/><path d="M406.375 128.827c0 17.88-14.494 32.373-32.373 32.373s-32.373-14.494-32.373-32.373 14.494-32.373 32.373-32.373 32.373 14.494 32.373 32.373z" fill="#0098f6"/><path d="M400.043 128.83c0 14.584-11.652 26.406-26.027 26.406s-26.027-11.822-26.027-26.406 11.653-26.406 26.027-26.406 26.027 11.822 26.027 26.406z" fill="#ffd900"/></g></svg>