<svg xmlns="http://www.w3.org/2000/svg" height="480" width="640"><defs><clipPath id="a" clipPathUnits="userSpaceOnUse"><path fill-opacity=".67" d="M0 0h640v480H0z"/></clipPath></defs><g clip-path="url(#a)"><path fill-rule="evenodd" fill="#5387f4" d="M-79.429 318.86h798.86V480h-798.86zM-79.429 0h798.86v161.14h-798.86z"/><path fill-rule="evenodd" fill="#fff" d="M-79.429 161.14h798.86v157.71h-798.86z"/><g stroke="#000" fill-rule="evenodd"><path d="M490.58 234.24c0 .846-.823 1.531-1.837 1.531s-1.838-.685-1.838-1.531c0-.846.823-1.531 1.838-1.531s1.837.685 1.837 1.531z" transform="matrix(-.78044 -.48896 -.61211 .95713 779.727 212.985)" stroke-width=".332" fill="red"/><path d="M490.58 234.24c0 .846-.823 1.531-1.837 1.531s-1.838-.685-1.838-1.531c0-.846.823-1.531 1.838-1.531s1.837.685 1.837 1.531z" transform="matrix(-.78044 -.48896 -.61211 .95713 785.663 217.642)" stroke-width=".332" fill="red"/><path d="M259.03 105.71s400.32 70.645 414.45 395.62c14.129 324.97-188.39 367.36-259.03 419.16-70.645 51.807-113.03 113.03-146 113.03-32.968 0-80.065-14.13-80.065-14.13s9.42 51.81 75.355 47.1c65.936-4.71 127.16-113.03 164.84-131.87s277.88-98.9 259.04-428.58c-14.13-353.23-423.88-390.91-428.59-400.33z" transform="matrix(-.1705 .03977 .04248 .18065 329.881 148.624)" stroke-width="1.603" fill="#006700"/><path d="M320.26 487.2c0 59.825-11.597 108.32-25.903 108.32s-25.903-48.498-25.903-108.32c0-59.825 11.597-108.32 25.903-108.32s25.903 48.498 25.903 108.32z" transform="matrix(-.08296 -.0065 -.02041 .08168 293.76 152.915)" stroke-width="1.603" fill="#006700"/><path d="M320.26 487.2c0 59.825-11.597 108.32-25.903 108.32s-25.903-48.498-25.903-108.32c0-59.825 11.597-108.32 25.903-108.32s25.903 48.498 25.903 108.32z" transform="matrix(-.07512 -.028 -.0378 .0779 301.987 162.264)" stroke-width="1.603" fill="#006700"/><path d="M320.26 487.2c0 59.825-11.597 108.32-25.903 108.32s-25.903-48.498-25.903-108.32c0-59.825 11.597-108.32 25.903-108.32s25.903 48.498 25.903 108.32z" transform="matrix(-.00787 -.08697 -.07735 .0231 306.236 212.254)" stroke-width="1.603" fill="#006700"/><path d="M320.26 487.2c0 59.825-11.597 108.32-25.903 108.32s-25.903-48.498-25.903-108.32c0-59.825 11.597-108.32 25.903-108.32s25.903 48.498 25.903 108.32z" transform="matrix(-.03623 -.0733 -.07044 .0482 310.99 193.226)" stroke-width="1.603" fill="#006700"/><path d="M320.26 487.2c0 59.825-11.597 108.32-25.903 108.32s-25.903-48.498-25.903-108.32c0-59.825 11.597-108.32 25.903-108.32s25.903 48.498 25.903 108.32z" transform="matrix(-.05484 -.05735 -.05982 .06343 309.02 179.537)" stroke-width="1.603" fill="#006700"/><path d="M490.58 234.24c0 .846-.823 1.531-1.837 1.531s-1.838-.685-1.838-1.531c0-.846.823-1.531 1.838-1.531s1.837.685 1.837 1.531z" transform="matrix(-.87808 -.28365 -.3551 1.07687 749.417 107.3)" stroke-width=".332" fill="red"/><path d="M490.58 234.24c0 .846-.823 1.531-1.837 1.531s-1.838-.685-1.838-1.531c0-.846.823-1.531 1.838-1.531s1.837.685 1.837 1.531z" transform="matrix(-.87808 -.28365 -.3551 1.07687 756.329 110.373)" stroke-width=".332" fill="red"/><path d="M320.26 487.2c0 59.825-11.597 108.32-25.903 108.32s-25.903-48.498-25.903-108.32c0-59.825 11.597-108.32 25.903-108.32s25.903 48.498 25.903 108.32z" transform="matrix(-.117 .02858 -.00175 .1263 275.878 136.568)" stroke-width="1.603" fill="#006700"/><path d="M320.26 487.2c0 59.825-11.597 108.32-25.903 108.32s-25.903-48.498-25.903-108.32c0-59.825 11.597-108.32 25.903-108.32s25.903 48.498 25.903 108.32z" transform="matrix(-.11312 -.0058 -.02706 .1288 290.312 146.198)" stroke-width="1.603" fill="#006700"/><path d="M320.26 487.2c0 59.825-11.597 108.32-25.903 108.32s-25.903-48.498-25.903-108.32c0-59.825 11.597-108.32 25.903-108.32s25.903 48.498 25.903 108.32z" transform="matrix(-.03914 -.12097 -.09962 .06839 312.418 215.85)" stroke-width="1.603" fill="#006700"/><path d="M320.26 487.2c0 59.825-11.597 108.32-25.903 108.32s-25.903-48.498-25.903-108.32c0-59.825 11.597-108.32 25.903-108.32s25.903 48.498 25.903 108.32z" transform="matrix(-.07397 -.08843 -.08191 .10118 312.837 186.424)" stroke-width="1.603" fill="#006700"/><path d="M320.26 487.2c0 59.825-11.597 108.32-25.903 108.32s-25.903-48.498-25.903-108.32c0-59.825 11.597-108.32 25.903-108.32s25.903 48.498 25.903 108.32z" transform="matrix(-.09457 -.05709 -.06226 .11815 305.657 167.713)" stroke-width="1.603" fill="#006700"/><path d="M320.26 487.2c0 59.825-11.597 108.32-25.903 108.32s-25.903-48.498-25.903-108.32c0-59.825 11.597-108.32 25.903-108.32s25.903 48.498 25.903 108.32z" transform="matrix(-.1093 .05115 .02062 .12509 251.876 157.51)" stroke-width="1.603" fill="#006700"/><path d="M320.26 487.2c0 59.825-11.597 108.32-25.903 108.32s-25.903-48.498-25.903-108.32c0-59.825 11.597-108.32 25.903-108.32s25.903 48.498 25.903 108.32z" transform="matrix(-.11159 .01644 -.00367 .13251 267.689 164.202)" stroke-width="1.603" fill="#006700"/><path d="M320.26 487.2c0 59.825-11.597 108.32-25.903 108.32s-25.903-48.498-25.903-108.32c0-59.825 11.597-108.32 25.903-108.32s25.903 48.498 25.903 108.32z" transform="matrix(-.05964 -.1118 -.08528 .08707 301.605 228.661)" stroke-width="1.603" fill="#006700"/><path d="M320.26 487.2c0 59.825-11.597 108.32-25.903 108.32s-25.903-48.498-25.903-108.32c0-59.825 11.597-108.32 25.903-108.32s25.903 48.498 25.903 108.32z" transform="matrix(-.08793 -.07285 -.06217 .11598 296.815 199.516)" stroke-width="1.603" fill="#006700"/><path d="M320.26 487.2c0 59.825-11.597 108.32-25.903 108.32s-25.903-48.498-25.903-108.32c0-59.825 11.597-108.32 25.903-108.32s25.903 48.498 25.903 108.32z" transform="matrix(-.10253 -.03785 -.03996 .1289 286.494 182.438)" stroke-width="1.603" fill="#006700"/><path d="M320.26 487.2c0 59.825-11.597 108.32-25.903 108.32s-25.903-48.498-25.903-108.32c0-59.825 11.597-108.32 25.903-108.32s25.903 48.498 25.903 108.32z" transform="matrix(-.07948 .09354 .06628 .1073 219.301 183.413)" stroke-width="1.603" fill="#006700"/><path d="M320.26 487.2c0 59.825-11.597 108.32-25.903 108.32s-25.903-48.498-25.903-108.32c0-59.825 11.597-108.32 25.903-108.32s25.903 48.498 25.903 108.32z" transform="matrix(-.09476 .06231 .04712 .12443 236.149 182.95)" stroke-width="1.603" fill="#006700"/><path d="M320.26 487.2c0 59.825-11.597 108.32-25.903 108.32s-25.903-48.498-25.903-108.32c0-59.825 11.597-108.32 25.903-108.32s25.903 48.498 25.903 108.32z" transform="matrix(-.09655 -.07852 -.04407 .1167 291.396 228.418)" stroke-width="1.603" fill="#006700"/><path d="M320.26 487.2c0 59.825-11.597 108.32-25.903 108.32s-25.903-48.498-25.903-108.32c0-59.825 11.597-108.32 25.903-108.32s25.903 48.498 25.903 108.32z" transform="matrix(-.10733 -.03046 -.01214 .13377 275.965 203.404)" stroke-width="1.603" fill="#006700"/><path d="M320.26 487.2c0 59.825-11.597 108.32-25.903 108.32s-25.903-48.498-25.903-108.32c0-59.825 11.597-108.32 25.903-108.32s25.903 48.498 25.903 108.32z" transform="matrix(-.10722 .00814 .01288 .13638 260.115 191.934)" stroke-width="1.603" fill="#006700"/><path d="M320.26 487.2c0 59.825-11.597 108.32-25.903 108.32s-25.903-48.498-25.903-108.32c0-59.825 11.597-108.32 25.903-108.32s25.903 48.498 25.903 108.32z" transform="matrix(-.05736 .13257 .10752 .09397 200.25 208.634)" stroke-width="1.603" fill="#006700"/><path d="M490.58 234.24c0 .846-.823 1.531-1.837 1.531s-1.838-.685-1.838-1.531c0-.846.823-1.531 1.838-1.531s1.837.685 1.837 1.531z" transform="matrix(-.3609 -.51772 -.6829 .36836 623.789 344.451)" stroke-width=".332" fill="red"/><path d="M490.58 234.24c0 .846-.823 1.531-1.837 1.531s-1.838-.685-1.838-1.531c0-.846.823-1.531 1.838-1.531s1.837.685 1.837 1.531z" transform="matrix(-.3609 -.51772 -.6829 .36836 626.264 348.937)" stroke-width=".332" fill="red"/><path d="M320.26 487.2c0 59.825-11.597 108.32-25.903 108.32s-25.903-48.498-25.903-108.32c0-59.825 11.597-108.32 25.903-108.32s25.903 48.498 25.903 108.32z" transform="matrix(-.08424 .10375 .09195 .11996 218.649 201.905)" stroke-width="1.603" fill="#006700"/><path d="M320.26 487.2c0 59.825-11.597 108.32-25.903 108.32s-25.903-48.498-25.903-108.32c0-59.825 11.597-108.32 25.903-108.32s25.903 48.498 25.903 108.32z" transform="matrix(-.13157 -.05104 -.0109 .14508 294.117 231.697)" stroke-width="1.603" fill="#006700"/><path d="M320.26 487.2c0 59.825-11.597 108.32-25.903 108.32s-25.903-48.498-25.903-108.32c0-59.825 11.597-108.32 25.903-108.32s25.903 48.498 25.903 108.32z" transform="matrix(-.12796 .00598 .02973 .15214 269.068 209.792)" stroke-width="1.603" fill="#006700"/><path d="M320.26 487.2c0 59.825-11.597 108.32-25.903 108.32s-25.903-48.498-25.903-108.32c0-59.825 11.597-108.32 25.903-108.32s25.903 48.498 25.903 108.32z" transform="matrix(-.1154 .04856 .05811 .14578 247.935 202.966)" stroke-width="1.603" fill="#006700"/><path d="M320.26 487.2c0 59.825-11.597 108.32-25.903 108.32s-25.903-48.498-25.903-108.32c0-59.825 11.597-108.32 25.903-108.32s25.903 48.498 25.903 108.32z" transform="matrix(.01562 .15993 .1541 .02593 175.175 260.355)" stroke-width="1.603" fill="#006700"/><path d="M490.58 234.24c0 .846-.823 1.531-1.837 1.531s-1.838-.685-1.838-1.531c0-.846.823-1.531 1.838-1.531s1.837.685 1.837 1.531z" transform="matrix(-.55696 .7293 .91298 .68306 303.514 -210.764)" stroke-width=".332" fill="red"/><path d="M490.58 234.24c0 .846-.823 1.531-1.837 1.531s-1.838-.685-1.838-1.531c0-.846.823-1.531 1.838-1.531s1.837.685 1.837 1.531z" transform="matrix(-.55696 .7293 .91298 .68306 308.699 -216.225)" stroke-width=".332" fill="red"/><path d="M320.26 487.2c0 59.825-11.597 108.32-25.903 108.32s-25.903-48.498-25.903-108.32c0-59.825 11.597-108.32 25.903-108.32s25.903 48.498 25.903 108.32z" transform="matrix(-.02575 .14837 .15298 .05983 189.326 243.094)" stroke-width="1.603" fill="#006700"/><path d="M320.26 487.2c0 59.825-11.597 108.32-25.903 108.32s-25.903-48.498-25.903-108.32c0-59.825 11.597-108.32 25.903-108.32s25.903 48.498 25.903 108.32z" transform="matrix(-.15431 .02908 .06715 .14441 278.107 226.906)" stroke-width="1.603" fill="#006700"/><path d="M320.26 487.2c0 59.825-11.597 108.32-25.903 108.32s-25.903-48.498-25.903-108.32c0-59.825 11.597-108.32 25.903-108.32s25.903 48.498 25.903 108.32z" transform="matrix(-.1203 .08119 .11015 .12715 242.208 220.848)" stroke-width="1.603" fill="#006700"/><path d="M320.26 487.2c0 59.825-11.597 108.32-25.903 108.32s-25.903-48.498-25.903-108.32c0-59.825 11.597-108.32 25.903-108.32s25.903 48.498 25.903 108.32z" transform="matrix(-.08539 .11427 .13414 .10435 218.156 226.833)" stroke-width="1.603" fill="#006700"/><g stroke-width="1.603" fill="#006700"><path d="M314.71 506.2c0 45.062-10.064 81.591-22.479 81.591s-22.479-36.53-22.479-81.591c0-45.062 10.064-81.591 22.479-81.591s22.479 36.53 22.479 81.591z" transform="matrix(.00062 .22366 .21021 .00315 176.194 267.534)"/><path d="M314.71 506.2c0 45.062-10.064 81.591-22.479 81.591s-22.479-36.53-22.479-81.591c0-45.062 10.064-81.591 22.479-81.591s22.479 36.53 22.479 81.591z" transform="matrix(-.16264 .13875 .13318 .17545 268.836 191.318)"/><path d="M314.71 506.2c0 45.062-10.064 81.591-22.479 81.591s-22.479-36.53-22.479-81.591c0-45.062 10.064-81.591 22.479-81.591s22.479 36.53 22.479 81.591z" transform="matrix(-.07747 .2065 .19542 .08596 208.106 223.321)"/></g><g stroke-width="1.603" fill="#006700"><path d="M314.71 506.2c0 45.062-10.064 81.591-22.479 81.591s-22.479-36.53-22.479-81.591c0-45.062 10.064-81.591 22.479-81.591s22.479 36.53 22.479 81.591z" transform="matrix(-.08997 -.05 -.09678 .0889 355.28 150.263)"/><path d="M314.71 506.2c0 45.062-10.064 81.591-22.479 81.591s-22.479-36.53-22.479-81.591c0-45.062 10.064-81.591 22.479-81.591s22.479 36.53 22.479 81.591z" transform="matrix(.01827 -.10051 -.13087 .01735 343.745 206.883)"/><path d="M314.71 506.2c0 45.062-10.064 81.591-22.479 81.591s-22.479-36.53-22.479-81.591c0-45.062 10.064-81.591 22.479-81.591s22.479 36.53 22.479 81.591z" transform="matrix(-.0476 -.07943 -.12327 .06399 358.507 173.803)"/></g><path d="M490.58 234.24c0 .846-.823 1.531-1.837 1.531s-1.838-.685-1.838-1.531c0-.846.823-1.531 1.838-1.531s1.837.685 1.837 1.531z" transform="matrix(-.92366 0 0 1.13277 681.006 -17.95)" stroke-width=".332" fill="red"/><path d="M490.58 234.24c0 .846-.823 1.531-1.837 1.531s-1.838-.685-1.838-1.531c0-.846.823-1.531 1.838-1.531s1.837.685 1.837 1.531z" transform="matrix(-.92366 0 0 1.13277 688.543 -17.158)" stroke-width=".332" fill="red"/><path d="M490.58 234.24c0 .846-.823 1.531-1.837 1.531s-1.838-.685-1.838-1.531c0-.846.823-1.531 1.838-1.531s1.837.685 1.837 1.531z" transform="matrix(-.7995 .45783 .57314 .98049 490.117 -175.877)" stroke-width=".332" fill="red"/><path d="M490.58 234.24c0 .846-.823 1.531-1.837 1.531s-1.838-.685-1.838-1.531c0-.846.823-1.531 1.838-1.531s1.837.685 1.837 1.531z" transform="matrix(-.7995 .45783 .57314 .98049 497.039 -178.925)" stroke-width=".332" fill="red"/><path d="M490.58 234.24c0 .846-.823 1.531-1.837 1.531s-1.838-.685-1.838-1.531c0-.846.823-1.531 1.838-1.531s1.837.685 1.837 1.531z" transform="matrix(-.4963 -.39284 -.5467 .54749 640.932 250.09)" stroke-width=".332" fill="red"/><path d="M490.58 234.24c0 .846-.823 1.531-1.837 1.531s-1.838-.685-1.838-1.531c0-.846.823-1.531 1.838-1.531s1.837.685 1.837 1.531z" transform="matrix(-.4963 -.39284 -.5467 .54749 644.602 253.675)" stroke-width=".332" fill="red"/><g><path d="M490.58 234.24c0 .846-.823 1.531-1.837 1.531s-1.838-.685-1.838-1.531c0-.846.823-1.531 1.838-1.531s1.837.685 1.837 1.531z" transform="matrix(.78044 -.48896 .61211 .95713 -140.244 213.732)" stroke-width=".332" fill="red"/><path d="M490.58 234.24c0 .846-.823 1.531-1.837 1.531s-1.838-.685-1.838-1.531c0-.846.823-1.531 1.838-1.531s1.837.685 1.837 1.531z" transform="matrix(.78044 -.48896 .61211 .95713 -146.18 218.388)" stroke-width=".332" fill="red"/><path d="M259.03 105.71s400.32 70.645 414.45 395.62c14.129 324.97-188.39 367.36-259.03 419.16-70.645 51.807-113.03 113.03-146 113.03-32.968 0-80.065-14.13-80.065-14.13s9.42 51.81 75.355 47.1c65.936-4.71 127.16-113.03 164.84-131.87s277.88-98.9 259.04-428.58c-14.13-353.23-423.88-390.91-428.59-400.33z" transform="matrix(.1705 .03977 -.04248 .18065 309.601 149.37)" stroke-width="1.603" fill="#006700"/><path d="M320.26 487.2c0 59.825-11.597 108.32-25.903 108.32s-25.903-48.498-25.903-108.32c0-59.825 11.597-108.32 25.903-108.32s25.903 48.498 25.903 108.32z" transform="matrix(.08296 -.0065 .02041 .08168 345.723 153.661)" stroke-width="1.603" fill="#006700"/><path d="M320.26 487.2c0 59.825-11.597 108.32-25.903 108.32s-25.903-48.498-25.903-108.32c0-59.825 11.597-108.32 25.903-108.32s25.903 48.498 25.903 108.32z" transform="matrix(.07512 -.028 .0378 .0779 337.496 163.01)" stroke-width="1.603" fill="#006700"/><path d="M320.26 487.2c0 59.825-11.597 108.32-25.903 108.32s-25.903-48.498-25.903-108.32c0-59.825 11.597-108.32 25.903-108.32s25.903 48.498 25.903 108.32z" transform="matrix(.00787 -.08697 .07735 .0231 333.247 213)" stroke-width="1.603" fill="#006700"/><path d="M320.26 487.2c0 59.825-11.597 108.32-25.903 108.32s-25.903-48.498-25.903-108.32c0-59.825 11.597-108.32 25.903-108.32s25.903 48.498 25.903 108.32z" transform="matrix(.03623 -.0733 .07044 .0482 328.493 193.972)" stroke-width="1.603" fill="#006700"/><path d="M320.26 487.2c0 59.825-11.597 108.32-25.903 108.32s-25.903-48.498-25.903-108.32c0-59.825 11.597-108.32 25.903-108.32s25.903 48.498 25.903 108.32z" transform="matrix(.05484 -.05735 .05982 .06343 330.464 180.283)" stroke-width="1.603" fill="#006700"/><path d="M490.58 234.24c0 .846-.823 1.531-1.837 1.531s-1.838-.685-1.838-1.531c0-.846.823-1.531 1.838-1.531s1.837.685 1.837 1.531z" transform="matrix(.87808 -.28365 .3551 1.07687 -109.935 108.047)" stroke-width=".332" fill="red"/><path d="M490.58 234.24c0 .846-.823 1.531-1.837 1.531s-1.838-.685-1.838-1.531c0-.846.823-1.531 1.838-1.531s1.837.685 1.837 1.531z" transform="matrix(.87808 -.28365 .3551 1.07687 -116.846 111.12)" stroke-width=".332" fill="red"/><path d="M320.26 487.2c0 59.825-11.597 108.32-25.903 108.32s-25.903-48.498-25.903-108.32c0-59.825 11.597-108.32 25.903-108.32s25.903 48.498 25.903 108.32z" transform="matrix(.117 .02858 .00175 .1263 363.605 137.315)" stroke-width="1.603" fill="#006700"/><path d="M320.26 487.2c0 59.825-11.597 108.32-25.903 108.32s-25.903-48.498-25.903-108.32c0-59.825 11.597-108.32 25.903-108.32s25.903 48.498 25.903 108.32z" transform="matrix(.11312 -.0058 .02706 .1288 349.17 146.945)" stroke-width="1.603" fill="#006700"/><path d="M320.26 487.2c0 59.825-11.597 108.32-25.903 108.32s-25.903-48.498-25.903-108.32c0-59.825 11.597-108.32 25.903-108.32s25.903 48.498 25.903 108.32z" transform="matrix(.03914 -.12097 .09962 .06839 327.065 216.597)" stroke-width="1.603" fill="#006700"/><path d="M320.26 487.2c0 59.825-11.597 108.32-25.903 108.32s-25.903-48.498-25.903-108.32c0-59.825 11.597-108.32 25.903-108.32s25.903 48.498 25.903 108.32z" transform="matrix(.07397 -.08843 .08191 .10118 326.646 187.17)" stroke-width="1.603" fill="#006700"/><path d="M320.26 487.2c0 59.825-11.597 108.32-25.903 108.32s-25.903-48.498-25.903-108.32c0-59.825 11.597-108.32 25.903-108.32s25.903 48.498 25.903 108.32z" transform="matrix(.09457 -.05709 .06226 .11815 333.826 168.46)" stroke-width="1.603" fill="#006700"/><path d="M320.26 487.2c0 59.825-11.597 108.32-25.903 108.32s-25.903-48.498-25.903-108.32c0-59.825 11.597-108.32 25.903-108.32s25.903 48.498 25.903 108.32z" transform="matrix(.1093 .05115 -.02062 .12509 387.607 158.257)" stroke-width="1.603" fill="#006700"/><path d="M320.26 487.2c0 59.825-11.597 108.32-25.903 108.32s-25.903-48.498-25.903-108.32c0-59.825 11.597-108.32 25.903-108.32s25.903 48.498 25.903 108.32z" transform="matrix(.11159 .01644 .00367 .13251 371.794 164.949)" stroke-width="1.603" fill="#006700"/><path d="M320.26 487.2c0 59.825-11.597 108.32-25.903 108.32s-25.903-48.498-25.903-108.32c0-59.825 11.597-108.32 25.903-108.32s25.903 48.498 25.903 108.32z" transform="matrix(.05964 -.1118 .08528 .08707 337.878 229.408)" stroke-width="1.603" fill="#006700"/><path d="M320.26 487.2c0 59.825-11.597 108.32-25.903 108.32s-25.903-48.498-25.903-108.32c0-59.825 11.597-108.32 25.903-108.32s25.903 48.498 25.903 108.32z" transform="matrix(.08793 -.07285 .06217 .11598 342.668 200.262)" stroke-width="1.603" fill="#006700"/><path d="M320.26 487.2c0 59.825-11.597 108.32-25.903 108.32s-25.903-48.498-25.903-108.32c0-59.825 11.597-108.32 25.903-108.32s25.903 48.498 25.903 108.32z" transform="matrix(.10253 -.03785 .03996 .1289 352.989 183.185)" stroke-width="1.603" fill="#006700"/><path d="M320.26 487.2c0 59.825-11.597 108.32-25.903 108.32s-25.903-48.498-25.903-108.32c0-59.825 11.597-108.32 25.903-108.32s25.903 48.498 25.903 108.32z" transform="matrix(.07948 .09354 -.06628 .1073 420.182 184.16)" stroke-width="1.603" fill="#006700"/><path d="M320.26 487.2c0 59.825-11.597 108.32-25.903 108.32s-25.903-48.498-25.903-108.32c0-59.825 11.597-108.32 25.903-108.32s25.903 48.498 25.903 108.32z" transform="matrix(.09476 .06231 -.04712 .12443 403.334 183.697)" stroke-width="1.603" fill="#006700"/><path d="M320.26 487.2c0 59.825-11.597 108.32-25.903 108.32s-25.903-48.498-25.903-108.32c0-59.825 11.597-108.32 25.903-108.32s25.903 48.498 25.903 108.32z" transform="matrix(.09655 -.07852 .04407 .1167 348.087 229.164)" stroke-width="1.603" fill="#006700"/><path d="M320.26 487.2c0 59.825-11.597 108.32-25.903 108.32s-25.903-48.498-25.903-108.32c0-59.825 11.597-108.32 25.903-108.32s25.903 48.498 25.903 108.32z" transform="matrix(.10733 -.03046 .01214 .13377 363.518 204.15)" stroke-width="1.603" fill="#006700"/><path d="M320.26 487.2c0 59.825-11.597 108.32-25.903 108.32s-25.903-48.498-25.903-108.32c0-59.825 11.597-108.32 25.903-108.32s25.903 48.498 25.903 108.32z" transform="matrix(.10722 .00814 -.01288 .13638 379.368 192.68)" stroke-width="1.603" fill="#006700"/><path d="M320.26 487.2c0 59.825-11.597 108.32-25.903 108.32s-25.903-48.498-25.903-108.32c0-59.825 11.597-108.32 25.903-108.32s25.903 48.498 25.903 108.32z" transform="matrix(.05736 .13257 -.10752 .09397 439.234 209.38)" stroke-width="1.603" fill="#006700"/><path d="M490.58 234.24c0 .846-.823 1.531-1.837 1.531s-1.838-.685-1.838-1.531c0-.846.823-1.531 1.838-1.531s1.837.685 1.837 1.531z" transform="matrix(.3609 -.51772 .6829 .36836 15.694 345.198)" stroke-width=".332" fill="red"/><path d="M490.58 234.24c0 .846-.823 1.531-1.837 1.531s-1.838-.685-1.838-1.531c0-.846.823-1.531 1.838-1.531s1.837.685 1.837 1.531z" transform="matrix(.3609 -.51772 .6829 .36836 13.218 349.683)" stroke-width=".332" fill="red"/><path d="M320.26 487.2c0 59.825-11.597 108.32-25.903 108.32s-25.903-48.498-25.903-108.32c0-59.825 11.597-108.32 25.903-108.32s25.903 48.498 25.903 108.32z" transform="matrix(.08424 .10375 -.09195 .11996 420.834 202.652)" stroke-width="1.603" fill="#006700"/><path d="M320.26 487.2c0 59.825-11.597 108.32-25.903 108.32s-25.903-48.498-25.903-108.32c0-59.825 11.597-108.32 25.903-108.32s25.903 48.498 25.903 108.32z" transform="matrix(.13157 -.05104 .0109 .14508 345.365 232.443)" stroke-width="1.603" fill="#006700"/><path d="M320.26 487.2c0 59.825-11.597 108.32-25.903 108.32s-25.903-48.498-25.903-108.32c0-59.825 11.597-108.32 25.903-108.32s25.903 48.498 25.903 108.32z" transform="matrix(.12796 .00598 -.02973 .15214 370.415 210.538)" stroke-width="1.603" fill="#006700"/><path d="M320.26 487.2c0 59.825-11.597 108.32-25.903 108.32s-25.903-48.498-25.903-108.32c0-59.825 11.597-108.32 25.903-108.32s25.903 48.498 25.903 108.32z" transform="matrix(.1154 .04856 -.05811 .14578 391.548 203.712)" stroke-width="1.603" fill="#006700"/><path d="M320.26 487.2c0 59.825-11.597 108.32-25.903 108.32s-25.903-48.498-25.903-108.32c0-59.825 11.597-108.32 25.903-108.32s25.903 48.498 25.903 108.32z" transform="matrix(-.01562 .15993 -.1541 .02593 464.308 261.101)" stroke-width="1.603" fill="#006700"/><path d="M490.58 234.24c0 .846-.823 1.531-1.837 1.531s-1.838-.685-1.838-1.531c0-.846.823-1.531 1.838-1.531s1.837.685 1.837 1.531z" transform="matrix(.55696 .7293 -.91298 .68306 335.969 -210.018)" stroke-width=".332" fill="red"/><path d="M490.58 234.24c0 .846-.823 1.531-1.837 1.531s-1.838-.685-1.838-1.531c0-.846.823-1.531 1.838-1.531s1.837.685 1.837 1.531z" transform="matrix(.55696 .7293 -.91298 .68306 330.784 -215.479)" stroke-width=".332" fill="red"/><path d="M320.26 487.2c0 59.825-11.597 108.32-25.903 108.32s-25.903-48.498-25.903-108.32c0-59.825 11.597-108.32 25.903-108.32s25.903 48.498 25.903 108.32z" transform="matrix(.02575 .14837 -.15298 .05983 450.157 243.84)" stroke-width="1.603" fill="#006700"/><path d="M320.26 487.2c0 59.825-11.597 108.32-25.903 108.32s-25.903-48.498-25.903-108.32c0-59.825 11.597-108.32 25.903-108.32s25.903 48.498 25.903 108.32z" transform="matrix(.15431 .02908 -.06715 .14441 361.375 227.653)" stroke-width="1.603" fill="#006700"/><path d="M320.26 487.2c0 59.825-11.597 108.32-25.903 108.32s-25.903-48.498-25.903-108.32c0-59.825 11.597-108.32 25.903-108.32s25.903 48.498 25.903 108.32z" transform="matrix(.1203 .08119 -.11015 .12715 397.275 221.594)" stroke-width="1.603" fill="#006700"/><path d="M320.26 487.2c0 59.825-11.597 108.32-25.903 108.32s-25.903-48.498-25.903-108.32c0-59.825 11.597-108.32 25.903-108.32s25.903 48.498 25.903 108.32z" transform="matrix(.08539 .11427 -.13414 .10435 421.327 227.58)" stroke-width="1.603" fill="#006700"/><g stroke-width="1.603" fill="#006700"><path d="M314.71 506.2c0 45.062-10.064 81.591-22.479 81.591s-22.479-36.53-22.479-81.591c0-45.062 10.064-81.591 22.479-81.591s22.479 36.53 22.479 81.591z" transform="matrix(-.00062 .22366 -.21021 .00315 463.29 268.28)"/><path d="M314.71 506.2c0 45.062-10.064 81.591-22.479 81.591s-22.479-36.53-22.479-81.591c0-45.062 10.064-81.591 22.479-81.591s22.479 36.53 22.479 81.591z" transform="matrix(.16264 .13875 -.13318 .17545 370.647 192.065)"/><path d="M314.71 506.2c0 45.062-10.064 81.591-22.479 81.591s-22.479-36.53-22.479-81.591c0-45.062 10.064-81.591 22.479-81.591s22.479 36.53 22.479 81.591z" transform="matrix(.07747 .2065 -.19542 .08596 431.377 224.068)"/></g><g stroke-width="1.603" fill="#006700"><path d="M314.71 506.2c0 45.062-10.064 81.591-22.479 81.591s-22.479-36.53-22.479-81.591c0-45.062 10.064-81.591 22.479-81.591s22.479 36.53 22.479 81.591z" transform="matrix(.08997 -.05 .09678 .0889 284.204 151.01)"/><path d="M314.71 506.2c0 45.062-10.064 81.591-22.479 81.591s-22.479-36.53-22.479-81.591c0-45.062 10.064-81.591 22.479-81.591s22.479 36.53 22.479 81.591z" transform="matrix(-.01827 -.10051 .13087 .01735 295.737 207.63)"/><path d="M314.71 506.2c0 45.062-10.064 81.591-22.479 81.591s-22.479-36.53-22.479-81.591c0-45.062 10.064-81.591 22.479-81.591s22.479 36.53 22.479 81.591z" transform="matrix(.0476 -.07943 .12327 .06399 280.976 174.549)"/></g><path d="M490.58 234.24c0 .846-.823 1.531-1.837 1.531s-1.838-.685-1.838-1.531c0-.846.823-1.531 1.838-1.531s1.837.685 1.837 1.531z" transform="matrix(.92366 0 0 1.13277 -41.524 -17.204)" stroke-width=".332" fill="red"/><path d="M490.58 234.24c0 .846-.823 1.531-1.837 1.531s-1.838-.685-1.838-1.531c0-.846.823-1.531 1.838-1.531s1.837.685 1.837 1.531z" transform="matrix(.92366 0 0 1.13277 -49.06 -16.412)" stroke-width=".332" fill="red"/><path d="M490.58 234.24c0 .846-.823 1.531-1.837 1.531s-1.838-.685-1.838-1.531c0-.846.823-1.531 1.838-1.531s1.837.685 1.837 1.531z" transform="matrix(.7995 .45783 -.57314 .98049 149.365 -175.131)" stroke-width=".332" fill="red"/><path d="M490.58 234.24c0 .846-.823 1.531-1.837 1.531s-1.838-.685-1.838-1.531c0-.846.823-1.531 1.838-1.531s1.837.685 1.837 1.531z" transform="matrix(.7995 .45783 -.57314 .98049 142.444 -178.178)" stroke-width=".332" fill="red"/><path d="M490.58 234.24c0 .846-.823 1.531-1.837 1.531s-1.838-.685-1.838-1.531c0-.846.823-1.531 1.838-1.531s1.837.685 1.837 1.531z" transform="matrix(.4963 -.39284 .5467 .54749 -1.45 250.837)" stroke-width=".332" fill="red"/><path d="M490.58 234.24c0 .846-.823 1.531-1.837 1.531s-1.838-.685-1.838-1.531c0-.846.823-1.531 1.838-1.531s1.837.685 1.837 1.531z" transform="matrix(.4963 -.39284 .5467 .54749 -5.12 254.421)" stroke-width=".332" fill="red"/></g><g stroke-width=".235" fill="#5387f4"><path d="M411.36 319.5l.037 5.258c10.21-.517 5.263 6.977 7.029 11.223l2.255-2.827 3.122 2.803c-.25-4.908 2.748-17.395-12.443-16.457z" transform="matrix(1.23154 0 0 1.21897 -188.93 -46.703)"/><path d="M411.36 319.5l.037 5.258c10.21-.517 5.263 6.977 7.029 11.223l2.255-2.827 3.122 2.803c-.25-4.908 2.748-17.395-12.443-16.457z" transform="matrix(-1.23154 0 0 1.21897 828.776 -46.439)"/><path d="M427.88 303.13c.325 1.901-.449 11.372-.865 13.641-.537 1.923-.447 6.708-10.395 7.147-4.776.211-3.898-4.548-3.681-4.548.216 0 1.949 1.733 3.898 0 1.948-1.732-.444-17.53 1.515-19.488 2.156-2.155 9.985 1.496 9.528 3.248z" transform="matrix(1.10427 .53966 -.54523 1.093 37.56 -229.524)"/><path d="M427.88 303.13c-2.057-.264-3.159-.732-3.68 1.516-2.053 9.068 2.368 17.101-7.58 19.272-4.665 1.041-3.898-4.548-3.681-4.548.216 0 1.949 1.733 3.898 0 1.948-1.732-.444-17.53 1.515-19.488 2.156-2.155 9.985 1.496 9.528 3.248z" transform="matrix(1.10427 .53966 -.54523 1.093 37.56 -229.524)"/><path d="M427.88 303.13c.325 1.901-.449 11.372-.865 13.641-.537 1.923-.447 6.708-10.395 7.147-4.776.211-3.898-4.548-3.681-4.548.216 0 1.949 1.733 3.898 0 1.948-1.732-.444-17.53 1.515-19.488 2.156-2.155 9.985 1.496 9.528 3.248z" transform="scale(-1.23154 1.21897) rotate(26.278 158 -1145.184)"/><path d="M427.88 303.13c-2.057-.264-3.159-.732-3.68 1.516-2.053 9.068 2.368 17.101-7.58 19.272-4.665 1.041-3.898-4.548-3.681-4.548.216 0 1.949 1.733 3.898 0 1.948-1.732-.444-17.53 1.515-19.488 2.156-2.155 9.985 1.496 9.528 3.248z" transform="scale(-1.23154 1.21897) rotate(26.278 158 -1145.184)"/><path d="M411.57 319.06l-.18 6.774 5.08-.037.613-6.737h-5.513z" transform="matrix(1.23154 0 0 1.21897 -189.463 -46.703)"/></g></g><path d="M409.69 276.93s-14.322 12.064-14.322 20.725c.306 3.457 3.169 6.981 8.407 9.52-2.418-3.586-2.747-6.52-2.747-9.931.306-5.86 8.461-12.931 8.461-12.931l.201-7.383z" fill-rule="evenodd" transform="matrix(-.91556 0 0 .92276 694.05 21.508)" stroke="#000" stroke-width=".235" fill="#5387f4"/><g stroke="#000" fill-rule="evenodd"><path transform="matrix(.00165 -1.31332 -1.09945 -.16644 -146.645 388.154)" stroke-width=".176" fill="#ffd200" d="M172.65-427.57h49.929v2.055H172.65z"/><path d="M283.46-389.76l-17.717 70.866 17.717 25.037 17.716-25.037-17.716-70.866z" transform="matrix(-.19173 -.037 -.00194 .20492 376.397 239.791)" stroke-width="1.066" fill="#ffd200"/><path d="M368.98-419.45s-40.709-27.717-40.709.866c0 28.582 39.843.866 40.709-.866zm-7.795-.181s-28.583-19.342-28.583.604c0 19.945 27.975.604 28.583-.604z" transform="matrix(-.14887 -.01173 .00454 .10625 378.688 217.396)" stroke-width="1.685"/><path d="M368.98-419.45s-40.709-27.717-40.709.866c0 28.582 39.843.866 40.709-.866zm-7.795-.181s-28.583-19.342-28.583.604c0 19.945 27.975.604 28.583-.604z" transform="matrix(.14557 -.01662 -.02016 -.10599 260.817 130.548)" stroke-width="1.685"/><path d="M422.29-165.7l2.45-.306s1.766 2.602 3.675 6.737c1.679 4.331 3.368 11.33 4.899 27.255-4.593-.307-21.436 1.531-21.436 1.531s.236-19.169 6.125-26.029c2.757-2.906 4.593-8.575 4.287-9.188z" transform="matrix(1.10839 0 0 1.31332 -146.645 388.154)" stroke-width=".175" fill="#5387f4"/><path d="M422.29-165.7l2.45-.306s1.766 2.602 3.675 6.737c1.679 4.331-4.9 11.636-3.369 27.561-4.593-.307-13.168 1.225-13.168 1.225s.236-19.169 6.125-26.029c2.757-2.906 4.593-8.575 4.287-9.188z" transform="matrix(1.10839 0 0 1.31332 -146.645 388.154)" stroke-width=".175" fill="#fff"/><path d="M422.29-165.7l2.45-.306s-.613 7.962-2.756 11.943c-2.144 3.981-3.369 22.967-3.063 22.967.307 0-7.043.613-7.043.613s.236-19.169 6.125-26.029c2.757-2.906 4.593-8.575 4.287-9.188z" transform="matrix(1.10839 0 0 1.31332 -146.645 388.154)" stroke-width=".175" fill="#5387f4"/></g><path d="M409.69 276.93s-14.322 12.064-14.322 20.725c.306 3.457 3.169 6.981 8.407 9.52-2.418-3.586-2.747-6.52-2.747-9.931.306-5.86 8.461-12.931 8.461-12.931l.201-7.383z" fill-rule="evenodd" transform="matrix(.94189 0 0 .89808 -62.118 28.724)" stroke="#000" stroke-width=".235" fill="#5387f4"/><g stroke="#000" fill-rule="evenodd"><path d="M407.48-248.03l106.3-106.3s-27.516 220.02-88.583 265.75c0 0-53.15 24.117-53.15-.135l35.433-159.31z" transform="matrix(-.4404 0 0 .32057 483.344 304.226)" stroke-width=".837" fill="#5387f4"/><path d="M407.48-248.03l70.866-70.867s-35.433 230.31-106.3 230.31v-.135l35.433-159.31z" transform="matrix(-.4404 0 0 .32057 483.344 304.226)" stroke-width=".837" fill="#fff"/><path d="M407.48-248.03l35.433-35.434s-35.433 194.88-70.866 194.88v-.135l35.433-159.31z" transform="matrix(-.4404 0 0 .32057 483.344 304.226)" stroke-width=".837" fill="#5387f4"/><path transform="scale(-.4404 .32057) rotate(-43.992 998.72 1983.598)" stroke-width=".816" fill="#ffd200" d="M678.85-116.49h177.17v7.323H678.85z"/><path d="M283.46-389.76l-17.717 70.866 17.717 25.037 17.716-25.037-17.716-70.866z" transform="matrix(-.19695 .13855 .17397 .12468 355.466 182.922)" stroke-width="1.729" fill="#ffd200"/><path d="M368.98-419.45s-40.709-27.717-40.709.866c0 28.582 39.843.866 40.709-.866zm-7.795-.181s-28.583-19.342-28.583.604c0 19.945 27.975.604 28.583-.604z" transform="matrix(-.17035 .0845 .07313 .07812 340.876 187.214)" stroke-width=".837"/><path d="M368.98-419.45s-40.709-27.717-40.709.866c0 28.582 39.843.866 40.709-.866zm-7.795-.181s-28.583-19.342-28.583.604c0 19.945 27.975.604 28.583-.604z" transform="matrix(.14855 -.10403 -.09004 -.06813 156.24 195.007)" stroke-width=".837"/><path d="M407.48-248.03l106.3-53.15S496.063-79.79 407.48-79.79c-53.15 0-70.866-70.866-70.866-70.866l70.866-97.378z" transform="matrix(-.4404 0 0 .32057 475.541 318.443)" stroke-width=".837" fill="#5387f4"/><path d="M407.48-248.03l70.866-35.434c0 35.434-17.716 185.96-70.866 185.96-35.433 0-70.866-53.15-70.866-53.15l70.866-97.378z" transform="matrix(-.4404 0 0 .32057 475.541 318.443)" stroke-width=".837" fill="#fff"/><path d="M407.48-248.03l35.433-17.717c0 79.662-17.716 150.53-53.149 150.53-17.717 0-53.15-35.433-53.15-35.433l70.866-97.378z" transform="matrix(-.4404 0 0 .32057 475.541 318.443)" stroke-width=".837" fill="#5387f4"/><path transform="scale(-.4404 .32057) rotate(-26.517 2104.166 2954.047)" stroke-width=".816" fill="#ffd200" d="M569.18-267.74h177.17v7.323H569.18z"/><path d="M283.46-389.76l-17.717 70.866 17.717 25.037 17.716-25.037-17.716-70.866z" transform="matrix(-.1307 .1752 .21738 .0809 344.452 193.241)" stroke-width="1.729" fill="#ffd200"/><path d="M368.98-419.45s-40.709-27.717-40.709.866c0 28.582 39.843.866 40.709-.866zm-7.795-.181s-28.583-19.342-28.583.604c0 19.945 27.975.604 28.583-.604z" transform="matrix(-.12764 .11784 .10199 .05853 332.305 200.521)" stroke-width=".837"/><path d="M368.98-419.45s-40.709-27.717-40.709.866c0 28.582 39.843.866 40.709-.866zm-7.795-.181s-28.583-19.342-28.583.604c0 19.945 27.975.604 28.583-.604z" transform="matrix(.09878 -.1317 -.114 -.0453 159.406 248.315)" stroke-width=".837"/></g><g stroke="#000" fill-rule="evenodd"><path d="M407.48-248.03l106.3-106.3s-27.516 220.02-88.583 265.75c0 0-53.15 24.117-53.15-.135l35.433-159.31z" transform="matrix(.43417 0 0 .32059 162.313 304.22)" stroke-width=".837" fill="#5387f4"/><path d="M407.48-248.03l70.866-70.867s-35.433 230.31-106.3 230.31v-.135l35.433-159.31z" transform="matrix(.43417 0 0 .32059 162.313 304.22)" stroke-width=".837" fill="#fff"/><path d="M407.48-248.03l35.433-35.434s-35.433 194.88-70.866 194.88v-.135l35.433-159.31z" transform="matrix(.43417 0 0 .32059 162.313 304.22)" stroke-width=".837" fill="#5387f4"/><path transform="matrix(.31236 -.22267 .30155 .23064 162.313 400.775)" stroke-width=".816" fill="#ffd200" d="M678.85-116.49h177.17v7.323H678.85z"/><path d="M283.46-389.76l-17.717 70.866 17.717 25.037 17.716-25.037-17.716-70.866z" transform="matrix(.19416 .13855 -.17151 .12469 288.382 182.91)" stroke-width="1.729" fill="#ffd200"/><path d="M368.98-419.45s-40.709-27.717-40.709.866c0 28.582 39.843.866 40.709-.866zm-7.795-.181s-28.583-19.342-28.583.604c0 19.945 27.975.604 28.583-.604z" transform="matrix(.16794 .0845 -.0721 .07813 302.766 187.203)" stroke-width=".837"/><path d="M368.98-419.45s-40.709-27.717-40.709.866c0 28.582 39.843.866 40.709-.866zm-7.795-.181s-28.583-19.342-28.583.604c0 19.945 27.975.604 28.583-.604z" transform="matrix(-.14645 -.10404 .08877 -.06813 484.79 194.997)" stroke-width=".837"/><path d="M407.48-248.03l106.3-53.15S496.063-79.79 407.48-79.79c-53.15 0-70.866-70.866-70.866-70.866l70.866-97.378z" transform="matrix(.43417 0 0 .32059 170.005 318.439)" stroke-width=".837" fill="#5387f4"/><path d="M407.48-248.03l70.866-35.434c0 35.434-17.716 185.96-70.866 185.96-35.433 0-70.866-53.15-70.866-53.15l70.866-97.378z" transform="matrix(.43417 0 0 .32059 170.005 318.439)" stroke-width=".837" fill="#fff"/><path d="M407.48-248.03l35.433-17.717c0 79.662-17.716 150.53-53.149 150.53-17.717 0-53.15-35.433-53.15-35.433l70.866-97.378z" transform="matrix(.43417 0 0 .32059 170.005 318.439)" stroke-width=".837" fill="#5387f4"/><path transform="matrix(.3885 -.14313 .19384 .28686 162.313 400.775)" stroke-width=".816" fill="#ffd200" d="M569.18-267.74h177.17v7.323H569.18z"/><path d="M283.46-389.76l-17.717 70.866 17.717 25.037 17.716-25.037-17.716-70.866z" transform="matrix(.12886 .17521 -.2143 .0809 299.24 193.23)" stroke-width="1.729" fill="#ffd200"/><path d="M368.98-419.45s-40.709-27.717-40.709.866c0 28.582 39.843.866 40.709-.866zm-7.795-.181s-28.583-19.342-28.583.604c0 19.945 27.975.604 28.583-.604z" transform="matrix(.12583 .11784 -.10054 .05854 311.215 200.51)" stroke-width=".837"/><path d="M368.98-419.45s-40.709-27.717-40.709.866c0 28.582 39.843.866 40.709-.866zm-7.795-.181s-28.583-19.342-28.583.604c0 19.945 27.975.604 28.583-.604z" transform="matrix(-.09738 -.13171 .11238 -.0453 481.669 248.307)" stroke-width=".837"/></g><g stroke-linejoin="bevel" stroke="#000" stroke-width=".105"><path d="M496.06 627.16l17.717-17.716 17.716 17.716H496.06z" fill-rule="evenodd" transform="matrix(3.30903 0 0 5.6454 -1377.997 -3255.392)" fill="#ffd200"/><path d="M496.06 627.16l17.717-17.716 17.716 17.716H496.06z" fill-rule="evenodd" transform="matrix(2.98206 0 0 5.11552 -1209.805 -2925.905)" fill="#0ff"/><path d="M419.84 239.14c0 3.89-3.222 7.043-7.196 7.043-3.975 0-7.197-3.153-7.197-7.043s3.222-7.043 7.197-7.043c3.974 0 7.196 3.153 7.196 7.043z" fill-rule="evenodd" fill="#ffd200" transform="matrix(1.23154 0 0 1.21897 -185.691 -52.675)"/><g fill="none"><path d="M462.73 556.66l-1.18-108.32M468.62 563.73l38.855-54.162M474.51 569.61l62.4-25.9M479.22 577.86l73.001 2.355M474.51 587.28l42.388 37.677M462.73 583.74v34.146M449.78 575.5l-55.339 48.275M455.67 579.03l-24.726 45.92M446.25 569.61l-91.84 31.791M445.07 564.9l-64.76-2.355M393.26 537.82l56.517 18.839M420.34 489.55l34.146 65.936" transform="matrix(.2982 0 0 .29534 184.584 70.562)"/></g><g fill-rule="evenodd"><path d="M460.63 219.69c-35.433 0-61.25 6.505-83.044 14.145l5.54-9.579 5.53-9.595 5.54-9.596 5.54-9.578 5.53-9.595 5.54-9.579 6.13-9.769c8.26-7.257 25.98-10.652 43.69-10.652 17.72 0 35.44 3.586 44.3 10.826l5.54 9.595 5.53 9.579 5.54 9.595 5.54 9.578 5.53 9.596 5.54 9.595 5.53 9.579c-22.972-7.64-47.613-14.145-83.046-14.145z" transform="matrix(.2982 0 0 .29534 184.966 165.019)" fill="#c453d7"/><path d="M460.63 212.93c-35.548-.05-75.281 10.597-77.504 11.329l5.53-9.595 5.54-9.596 5.54-9.578 5.53-9.595 5.54-9.579 6.13-9.769c8.26-7.257 25.98-10.652 43.69-10.652 17.72 0 35.44 3.586 44.3 10.826l5.54 9.595 5.53 9.579 5.54 9.595 5.54 9.578 5.53 9.596 5.54 9.595s-42.083-11.329-77.516-11.329z" transform="matrix(.2982 0 0 .29534 184.97 165.02)" fill="#5000c1"/><path d="M460.63 205.27c-26.248-.109-68.686 7.141-71.68 8.504l5.246-8.713 5.54-9.578 5.53-9.595 5.54-9.579 6.13-9.769c8.26-7.257 25.98-10.652 43.69-10.652 17.72 0 35.44 3.586 44.3 10.826l5.54 9.595 5.53 9.579 5.54 9.595 5.54 9.578 5.53 9.596s-36.543-9.387-71.976-9.387z" transform="matrix(.2982 0 0 .29534 184.966 165.018)" fill="#0053d7"/><path d="M460.63 197.32c-34.802-.07-63.717 6.631-66.434 7.739l5.54-9.578 5.53-9.595 5.54-9.579 6.13-9.769c8.26-7.257 25.98-10.652 43.69-10.652 17.72 0 35.44 3.586 44.3 10.826l5.54 9.595 5.53 9.579 5.54 9.595 5.54 9.578s-31.013-7.739-66.446-7.739z" transform="matrix(.2982 0 0 .29534 184.961 165.018)" fill="#009f9f"/><path d="M460.63 190.56c-35.605-.123-57.963 4.465-60.894 4.931l5.53-9.595 5.54-9.579 6.13-9.769c8.26-7.257 25.98-10.652 43.69-10.652 17.72 0 35.44 3.586 44.3 10.826l5.54 9.595 5.53 9.579 5.54 9.595s-25.473-4.931-60.906-4.931z" transform="matrix(.2982 0 0 .29534 184.966 165.016)" fill="#ff0"/><path d="M460.34 181.72c-31.014-.671-53.786 4.25-55.07 4.167l5.54-9.579 6.13-9.769c8.26-7.257 25.98-10.652 43.69-10.652 17.72 0 35.44 3.586 44.3 10.826l5.54 9.595 5.53 9.579s-20.227-4.167-55.66-4.167z" transform="matrix(.2982 0 0 .29534 184.962 165.016)" fill="#f50"/><path d="M461.51 171.42c-31.129.257-47.247 4.34-50.707 4.891l6.13-9.769c8.26-7.257 25.98-10.652 43.69-10.652 17.72 0 35.44 3.586 44.3 10.826l5.54 9.595s-13.52-4.891-48.953-4.891z" transform="matrix(.2982 0 0 .29534 184.957 165.02)" fill="#ff0b00"/></g><path d="M496.06 627.16l4.983-4.983h25.467l4.983 4.983H496.06z" fill-rule="evenodd" transform="matrix(2.98206 0 0 5.11552 -1209.805 -2925.905)" fill="#4363ff"/><path d="M438.01 565.49c.409 0 .727-1.87 1.766-3.532 2.222-1.61 4.568-2.871 7.653-3.533 1.665-.832 5.08-.588 7.653-.588 3.611.324 3.837 1.865 5.888 4.121.902 1.837 3.038 4.389 4.121 7.064 1.172 1.42 2.107 3.626 2.943 5.299.855 1.804 1.765 4.526 2.944 7.064.605 2.824 1.177 5.028 1.177 8.242 0 3.352-.554 4.78-1.177 7.065-1.794.598-5.29.888-7.065 0-1.9-1.7-5.162-.617-6.475-2.355-3.386-.474-4.208-4.459-5.888-6.475-1.175-1.729-1.156-3.032-2.355-4.71-1.857-1.327-2.108-2.945-2.943-5.299.736-2.517 2.015-3.068 4.121-4.121 1.127-1.644 1.766-2.304 1.766-5.298-.424-3.334-1.625-2.982-4.71-3.533-3.814 0-5.77.393-9.419.589z" fill-rule="evenodd" transform="matrix(.20052 0 0 .1543 231.432 150.307)" fill="red"/><g fill-rule="evenodd" fill="#6da700"><path d="M334.69 674.38s28.307-4.996 46.624-19.982c18.316-14.986 18.317-39.964 26.642-39.964 8.326 0 9.991 28.308 29.973 38.299 19.981 9.991 51.62 23.312 51.62 23.312l-154.86-1.665z" transform="matrix(.12688 -.01548 .04305 .17272 266.317 165.382)"/><path d="M334.69 674.38s28.307-4.996 46.624-19.982c18.316-14.986 18.317-39.964 26.642-39.964 8.326 0 9.991 28.308 29.973 38.299 19.981 9.991 51.62 23.312 51.62 23.312l-154.86-1.665z" transform="matrix(.12688 -.01548 .04305 .17272 264.466 165.599)"/><path d="M334.69 674.38s28.307-4.996 46.624-19.982c18.316-14.986 18.317-39.964 26.642-39.964 8.326 0 9.991 28.308 29.973 38.299 19.981 9.991 51.62 23.312 51.62 23.312l-154.86-1.665z" transform="matrix(.15077 -.0184 .04775 .19158 248.381 154.83)"/><path d="M334.69 674.38s28.307-4.996 46.624-19.982c18.316-14.986 18.317-39.964 26.642-39.964 8.326 0 9.991 28.308 29.973 38.299 19.981 9.991 51.62 23.312 51.62 23.312l-154.86-1.665z" transform="matrix(.1667 -.02034 .05559 .22303 233.452 135.147)"/><path d="M334.69 674.38s28.307-4.996 46.624-19.982c18.316-14.986 18.317-39.964 26.642-39.964 8.326 0 9.991 28.308 29.973 38.299 19.981 9.991 51.62 23.312 51.62 23.312l-154.86-1.665z" transform="matrix(.1886 -.02301 .06186 .24818 216.4 119.919)"/><path d="M334.69 674.38s28.307-4.996 46.624-19.982c18.316-14.986 18.317-39.964 26.642-39.964 8.326 0 9.991 28.308 29.973 38.299 19.981 9.991 51.62 23.312 51.62 23.312l-154.86-1.665z" transform="matrix(.20054 -.02447 .0697 .27963 202.447 99.725)"/><path d="M334.69 674.38s28.307-4.996 46.624-19.982c18.316-14.986 18.317-39.964 26.642-39.964 8.326 0 9.991 28.308 29.973 38.299 19.981 9.991 51.62 23.312 51.62 23.312l-154.86-1.665z" transform="matrix(.23063 -.00922 .04977 .27378 199.018 96.492)"/><path d="M334.69 674.38s28.307-4.996 46.624-19.982c18.316-14.986 18.317-39.964 26.642-39.964 8.326 0 9.991 28.308 29.973 38.299 19.981 9.991 51.62 23.312 51.62 23.312l-154.86-1.665z" transform="matrix(.23063 -.00922 .04977 .27378 195.654 96.626)"/><path d="M334.69 674.38s28.307-4.996 46.624-19.982c18.316-14.986 18.317-39.964 26.642-39.964 8.326 0 9.991 28.308 29.973 38.299 19.981 9.991 51.62 23.312 51.62 23.312l-154.86-1.665z" transform="matrix(.27405 -.01096 .0552 .30369 168.438 77.963)"/><path d="M334.69 674.38s28.307-4.996 46.624-19.982c18.316-14.986 18.317-39.964 26.642-39.964 8.326 0 9.991 28.308 29.973 38.299 19.981 9.991 51.62 23.312 51.62 23.312l-154.86-1.665z" transform="matrix(.303 -.01212 .06426 .35351 144.752 45.599)"/><path d="M334.69 674.38s28.307-4.996 46.624-19.982c18.316-14.986 18.317-39.964 26.642-39.964 8.326 0 9.991 28.308 29.973 38.299 19.981 9.991 51.62 23.312 51.62 23.312l-154.86-1.665z" transform="matrix(.3428 -.01371 .0715 .39338 116.533 19.911)"/><path d="M334.69 674.38s28.307-4.996 46.624-19.982c18.316-14.986 18.317-39.964 26.642-39.964 8.326 0 9.991 28.308 29.973 38.299 19.981 9.991 51.62 23.312 51.62 23.312l-154.86-1.665z" transform="matrix(.3645 -.01458 .08056 .4432 94.676 -13.149)"/></g></g><path d="M380.34 293.64l5.819-4.9s7.961 6.431 23.579 6.125c14.709-.283 19.906-5.513 22.049-6.126l5.818 5.206c-3.369.919-15.311 6.737-28.785 7.35-14.087-.612-26.642-5.817-28.48-7.655z" fill-rule="evenodd" transform="matrix(1.23154 0 0 1.21897 -183.457 -52.326)" stroke="#000" stroke-width=".235" fill="#ffc200"/><path d="M342.674 308.368l-1.068-2.957-1.256.441-.142-.394 3.02-1.06.142.394-1.26.442 1.069 2.957-.505.177zM333.573 311.03l-.93-3.438 2.826-.74.11.404-2.308.605.284 1.054 2.162-.567.109.403-2.162.567.317 1.171 2.398-.628.11.405-2.916.765zM328.392 312.18l-.929-3.438.518-.136.929 3.44-.518.135zM324.922 312.607l-.444-3.532.531-.064.392 3.115 1.977-.239.052.417-2.508.303zM318.733 312.932l-.103-3.558.549-.014 2.203 2.738-.08-2.793.512-.013.103 3.558-.549.014-2.203-2.742.08 2.797-.512.013zM312.386 312.575l.369-3.54.531.055-.368 3.541-.532-.056zM308.016 311.804l.663-3.498.539.101 1.565 3.14.52-2.747.504.095-.663 3.498-.54-.101-1.564-3.143-.52 2.75-.504-.095zM307.721 308.187l.517.134-.523 1.99c-.09.346-.207.61-.35.79-.143.181-.347.305-.614.373-.263.067-.585.051-.96-.047-.367-.095-.652-.228-.855-.4a1.038 1.038 0 01-.373-.612c-.044-.237-.018-.538.078-.903l.522-1.99.518.134-.522 1.988c-.079.3-.106.528-.08.687.026.158.106.294.24.411s.311.205.534.262c.38.1.67.094.873-.016.202-.11.36-.381.473-.814l.522-1.987zM298.767 308.002l.496.102a.925.925 0 00.046.469c.056.133.162.26.322.38.158.117.35.208.57.271.197.057.378.081.543.073s.295-.047.392-.115a.464.464 0 00.19-.262.427.427 0 00-.03-.311c-.05-.102-.148-.203-.297-.304a7.617 7.617 0 00-.649-.365c-.338-.18-.569-.323-.695-.431a1.096 1.096 0 01-.33-.438.75.75 0 01-.022-.467.808.808 0 01.298-.435c.152-.12.346-.187.582-.204.236-.015.484.014.747.09.289.082.532.196.73.342.2.144.337.313.413.506s.092.392.046.596l-.503-.11a.714.714 0 00-.14-.569c-.122-.154-.334-.275-.633-.36-.312-.09-.553-.105-.724-.045-.169.06-.272.16-.31.302a.392.392 0 00.07.347c.077.108.315.264.71.469.397.203.666.357.806.465.201.157.338.322.407.495.07.171.082.349.032.533a.876.876 0 01-.317.465 1.18 1.18 0 01-.615.228 2.07 2.07 0 01-.786-.082c-.353-.101-.637-.231-.851-.39a1.306 1.306 0 01-.452-.568 1.117 1.117 0 01-.046-.677zM292.758 306.885l1.22-3.334.501.192-1.22 3.334-.5-.192zM288.724 304.312l2.251-2.758 1.068.892c.242.202.415.369.52.501.15.185.247.377.294.577.064.26.057.52-.02.779a2.12 2.12 0 01-.41.757c-.172.21-.35.372-.537.488a1.652 1.652 0 01-.54.226 1.405 1.405 0 01-.489.013 1.605 1.605 0 01-.482-.171 3.072 3.072 0 01-.536-.369l-1.119-.935zm.677.018l.662.553c.204.17.378.287.521.35a.925.925 0 00.397.09c.167-.005.337-.058.51-.159.175-.1.347-.255.517-.464.235-.288.363-.554.38-.798a1.025 1.025 0 00-.131-.636c-.08-.13-.24-.296-.485-.5l-.651-.544-1.72 2.108zM294.584 306.02c.202-.554.53-.922.98-1.106.453-.184.946-.175 1.48.03.35.133.637.327.864.582s.366.542.415.862c.052.318.018.645-.104.978a1.853 1.853 0 01-.565.818 1.568 1.568 0 01-.88.356 2.245 2.245 0 01-.995-.148 2.142 2.142 0 01-.872-.593 1.695 1.695 0 01-.411-.864 1.825 1.825 0 01.088-.916zm.514.204c-.147.401-.141.765.02 1.09.16.326.427.558.797.7.377.144.73.147 1.058.006.33-.14.573-.424.73-.853.1-.272.134-.529.102-.77a1.184 1.184 0 00-.286-.646 1.466 1.466 0 00-.612-.427 1.462 1.462 0 00-1.034-.027c-.333.116-.592.425-.775.927zM314.06 310.91c.062-.588.288-1.029.68-1.324.394-.295.874-.414 1.44-.355.371.04.698.152.98.34s.486.43.612.726c.128.294.173.62.136.973-.037.36-.152.672-.347.938a1.598 1.598 0 01-.766.572c-.317.113-.65.152-.999.115a2.103 2.103 0 01-.989-.347 1.659 1.659 0 01-.609-.73 1.82 1.82 0 01-.138-.908zm.548.064c-.044.426.05.777.284 1.05.235.273.55.428.943.47.4.041.743-.047 1.026-.268.286-.221.452-.56.5-1.015.03-.288 0-.546-.09-.772a1.16 1.16 0 00-.433-.55 1.44 1.44 0 00-.697-.254 1.472 1.472 0 00-1.009.242c-.294.198-.469.564-.524 1.097zM348.514 306.341l-1.573-3.201 1.254-.6a3.8 3.8 0 01.67-.264 1.44 1.44 0 01.646-.026c.263.051.496.165.7.343.204.175.376.405.517.69.12.244.192.475.22.693s.021.415-.019.586c-.04.17-.103.32-.19.45a1.6 1.6 0 01-.355.367 3.062 3.062 0 01-.556.334l-1.314.628zm.297-.608l.777-.372c.24-.114.417-.224.534-.328a.913.913 0 00.245-.324 1.06 1.06 0 00.068-.53c-.02-.201-.088-.423-.207-.664-.165-.335-.354-.563-.567-.68a1.026 1.026 0 00-.633-.146c-.15.018-.37.095-.655.232l-.764.365 1.202 2.447zM337.391 309.897l-.929-3.44 1.732-.453c.35-.092.622-.13.82-.115a.93.93 0 01.825.687.836.836 0 01-.102.688c-.134.215-.383.394-.745.537.152.022.271.053.358.09a2.6 2.6 0 01.552.345l.933.758-.65.17-.711-.58c-.207-.167-.374-.292-.501-.376s-.236-.137-.326-.16a.83.83 0 00-.26-.03 1.858 1.858 0 00-.291.059l-.6.157.412 1.527-.517.136zm-.002-2.057l1.112-.292a1.98 1.98 0 00.537-.208.61.61 0 00.248-.287.525.525 0 00-.29-.684c-.163-.07-.388-.068-.678.008l-1.237.325.308 1.138zM344.402 307.943l.083-3.873.534-.213 2.89 2.682-.565.227-.847-.825-1.568.628v1.163l-.527.211zm.524-1.787l1.27-.509-.766-.756a9.118 9.118 0 01-.548-.577c.04.23.06.467.058.71l-.014 1.132zM329.714 311.766l-.755-3.48 1.483-.312c.302-.063.552-.079.749-.046.199.031.364.11.5.235a.806.806 0 01.256.426c.032.148.016.298-.047.449s-.179.285-.347.405c.253.012.46.078.62.2a.803.803 0 01.308.486.93.93 0 01-.02.481.901.901 0 01-.219.383c-.098.101-.23.188-.396.265a3.002 3.002 0 01-.623.191l-1.509.317zm.086-2.129l.854-.18c.232-.048.396-.096.49-.144a.57.57 0 00.262-.236.466.466 0 00.037-.326.52.52 0 00-.16-.283.478.478 0 00-.31-.124c-.123-.009-.328.016-.611.076l-.79.166.228 1.051zm.349 1.608l.984-.207c.169-.035.287-.066.352-.091a.95.95 0 00.282-.159.547.547 0 00.172-.545.542.542 0 00-.187-.313.606.606 0 00-.359-.136 2.186 2.186 0 00-.59.062l-.914.192.26 1.197z"/><g stroke="#000" fill="#ffc200" stroke-width=".235"><path d="M658.63 787.09v-8.59h1.136v7.577h4.231v1.013h-5.367z" transform="matrix(-1.78006 .7002 -.71696 -1.73844 2108.417 1260.371)"/><path d="M636.87 787.09v-7.576h-2.83V778.5h6.809v1.014h-2.842v7.576h-1.137z" transform="matrix(-1.34026 1.34133 -1.37344 -1.30892 2338.508 506.908)"/><path d="M626 787.09v-8.59h1.166l4.512 6.745V778.5h1.089v8.59h-1.166l-4.511-6.75v6.75H626z" transform="scale(-1.91902 -1.87415) rotate(-44.119 -975.376 1350.34)"/><path d="M618.03 787.09v-8.59h6.211v1.014h-5.074v2.631h4.752v1.008h-4.752v2.924h5.273v1.013h-6.41zM615.47 784.08l1.136.287c-.238.933-.668 1.646-1.289 2.138-.617.489-1.373.733-2.267.733-.926 0-1.68-.188-2.262-.563-.578-.379-1.02-.926-1.324-1.64a5.875 5.875 0 01-.451-2.303c0-.895.169-1.674.509-2.338a3.517 3.517 0 011.459-1.518 4.267 4.267 0 012.086-.521c.86 0 1.582.219 2.168.656.586.438.994 1.053 1.225 1.846l-1.119.264c-.2-.625-.489-1.081-.868-1.366-.378-.285-.855-.427-1.429-.427-.66 0-1.213.158-1.658.474a2.511 2.511 0 00-.932 1.278c-.18.531-.27 1.08-.27 1.646 0 .731.106 1.369.317 1.916.215.543.547.949.996 1.219.449.269.935.404 1.459.404.637 0 1.176-.183 1.617-.551.441-.367.74-.912.897-1.634z" transform="matrix(-1.03364 1.57904 -1.61685 -1.00947 2335.437 122.951)"/><path d="M595.47 784.08l1.136.287c-.238.933-.668 1.646-1.289 2.138-.617.489-1.373.733-2.267.733-.926 0-1.68-.188-2.262-.563-.578-.379-1.02-.926-1.324-1.64a5.875 5.875 0 01-.451-2.303c0-.895.17-1.674.509-2.338a3.517 3.517 0 011.459-1.518 4.27 4.27 0 012.086-.521c.86 0 1.582.219 2.168.656.586.438.994 1.053 1.225 1.846l-1.119.264c-.199-.625-.489-1.081-.867-1.366-.379-.285-.856-.427-1.43-.427-.66 0-1.213.158-1.658.474a2.511 2.511 0 00-.932 1.278 5.093 5.093 0 00-.269 1.646c0 .731.105 1.369.316 1.916.215.543.547.949.996 1.219a2.79 2.79 0 001.459.404c.637 0 1.176-.183 1.617-.551.442-.367.74-.912.897-1.634z" transform="scale(1.91902 1.87415) rotate(87.648 750.578 271.65)"/><path d="M586.2 787.09v-8.59h1.137v8.59H586.2z" transform="matrix(.12007 1.87047 -1.91526 .11726 1877.367 -948.217)"/><path d="M569.36 787.09v-8.59h6.211v1.014h-5.074v2.631h4.752v1.008h-4.752v2.924h5.273v1.013h-6.41z" transform="matrix(.53525 1.79976 -1.84285 .52274 1578.576 -1229.817)"/><path d="M559.31 787.09v-8.59h1.711l2.033 6.082c.187.567.324.991.41 1.272.098-.313.25-.772.457-1.377l2.057-5.977h1.529v8.59h-1.096v-7.189l-2.496 7.189h-1.025l-2.485-7.312v7.312h-1.095z" transform="matrix(.76438 1.71906 -1.76022 .74651 1382.356 -1359.334)"/><path d="M533.28 787.09v-8.59h1.137v7.577h4.23v1.013h-5.367z" transform="matrix(1.58056 1.06288 -1.08833 1.5436 401.334 -1630.875)"/><path d="M521.31 787.09v-8.59h1.166l4.512 6.745V778.5h1.09v8.59h-1.166l-4.512-6.75v6.75h-1.09z" transform="matrix(1.74128 .78774 -.8066 1.70056 95.001 -1609.079)"/><path d="M513.34 787.09v-8.59h6.211v1.014h-5.075v2.631h4.752v1.008h-4.752v2.924h5.274v1.013h-6.41z" transform="scale(1.91903 1.87415) rotate(22.15 2176.581 -410.388)"/><path d="M469.77 787.09l-3.328-8.59h1.231l2.232 6.241c.18.5.33.968.451 1.406.133-.469.288-.938.463-1.406l2.321-6.241h1.16l-3.363 8.59h-1.167z" transform="scale(1.91903 1.87415) rotate(-16.737 -2115.697 1551.868)"/><path d="M460.59 787.09v-8.59h1.136v7.577h4.231v1.013h-5.367z" transform="matrix(1.67304 -.91801 .94 1.63392 -1255.586 -715.673)"/><path d="M444.24 784.33l1.072-.094c.051.429.168.783.352 1.06.187.274.476.496.867.668.391.168.83.252 1.318.252.434 0 .817-.064 1.149-.193s.578-.305.738-.527c.164-.227.246-.473.246-.739 0-.269-.078-.504-.234-.703-.156-.203-.414-.373-.774-.51-.23-.089-.74-.228-1.529-.416-.789-.191-1.342-.371-1.658-.539-.41-.215-.717-.48-.92-.797a1.988 1.988 0 01-.299-1.072c0-.433.123-.838.369-1.213.246-.379.606-.666 1.078-.861a4.098 4.098 0 011.577-.293c.636 0 1.197.103 1.681.31.489.204.864.504 1.125.903.262.398.403.849.422 1.353l-1.09.082c-.058-.543-.258-.953-.597-1.23-.336-.277-.834-.416-1.495-.416-.687 0-1.189.127-1.505.381-.313.25-.469.552-.469.908 0 .309.111.562.334.762.219.199.789.404 1.711.615.926.207 1.56.389 1.904.545.5.23.869.523 1.108.879.238.351.357.758.357 1.218 0 .458-.131.889-.393 1.295-.261.403-.638.717-1.13.944a3.956 3.956 0 01-1.653.334c-.777 0-1.43-.114-1.957-.34a2.765 2.765 0 01-1.236-1.02 2.929 2.929 0 01-.469-1.546z" transform="scale(1.91901 1.87414) rotate(-41.784 -631.871 863.2)"/><path d="M434.58 787.09v-8.59h1.137v7.577h4.23v1.013h-5.367z" transform="matrix(1.12777 -1.51637 1.55268 1.1014 -1496.845 -21.358)"/><path d="M426.64 787.09v-8.59h6.211v1.014h-5.074v2.631h4.752v1.008h-4.752v2.924h5.274v1.013h-6.411z" transform="scale(1.91902 1.87415) rotate(-61.059 -309.211 716.831)"/><path d="M415.31 787.09v-8.59h6.211v1.014h-5.075v2.631h4.752v1.008h-4.752v2.924h5.274v1.013h-6.41z" transform="matrix(.41455 -1.8299 1.87371 .40485 -1445.991 666.829)"/><path d="M392.74 784.08l1.137.287c-.238.933-.668 1.646-1.289 2.138-.617.489-1.373.733-2.268.733-.926 0-1.679-.188-2.261-.563-.579-.379-1.02-.926-1.325-1.64a5.893 5.893 0 01-.451-2.303c0-.895.17-1.674.51-2.338a3.517 3.517 0 011.459-1.518 4.267 4.267 0 012.086-.521c.859 0 1.582.219 2.168.656.586.438.994 1.053 1.224 1.846l-1.119.264c-.199-.625-.488-1.081-.867-1.366s-.855-.427-1.43-.427c-.66 0-1.213.158-1.658.474a2.51 2.51 0 00-.931 1.278c-.18.531-.27 1.08-.27 1.646 0 .731.105 1.369.316 1.916.215.543.547.949.996 1.219.45.269.936.404 1.459.404.637 0 1.176-.183 1.618-.551.441-.367.74-.912.896-1.634z" transform="scale(-1.91902 -1.87415) rotate(72.187 784.428 -21.44)"/><path d="M383.47 787.09v-8.59h1.136v8.59h-1.136z" transform="matrix(-.8514 -1.6796 1.7198 -.83148 -819.047 1590.97)"/><path d="M376.56 787.09v-8.59h1.136v7.577h4.231v1.013h-5.367z" transform="matrix(-.75613 -1.72253 1.76377 -.73845 -890.109 1533.06)"/><path d="M365.57 778.5h1.137v4.963c0 .864-.098 1.549-.293 2.057s-.549.922-1.061 1.242c-.507.317-1.175.475-2.003.475-.805 0-1.463-.139-1.975-.416a2.38 2.38 0 01-1.096-1.201c-.219-.528-.328-1.247-.328-2.157V778.5h1.137v4.957c0 .747.068 1.297.205 1.653a1.6 1.6 0 00.715.814c.34.192.754.287 1.242.287.836 0 1.432-.189 1.787-.568s.533-1.107.533-2.186V778.5z" transform="matrix(-1.24711 -1.42445 1.45855 -1.21795 -467.928 1799.188)"/><path d="M343.95 787.09v-8.59h6.211v1.014h-5.074v2.631h4.752v1.008h-4.752v2.924h5.273v1.013h-6.41z" transform="matrix(-1.50513 -1.16265 1.19048 -1.46993 -166.523 1902.454)"/><path d="M649.73 787.09l3.299-8.59h1.225l3.515 8.59h-1.295l-1.001-2.601h-3.592l-.944 2.601h-1.207zm2.479-3.527h2.912l-.897-2.379a23.793 23.793 0 01-.609-1.781 10.918 10.918 0 01-.463 1.64l-.943 2.52z" transform="matrix(-1.64729 .9614 -.98442 -1.60877 2232.77 985.621)"/><path d="M642.03 787.09v-8.59h3.809c.765 0 1.348.079 1.746.235.398.152.717.424.955.814.238.391.357.823.357 1.295 0 .61-.197 1.123-.591 1.541-.395.418-1.004.684-1.828.797.3.145.529.287.685.428.332.304.647.685.943 1.142l1.495 2.338h-1.43l-1.137-1.787c-.332-.515-.605-.91-.82-1.183-.215-.274-.408-.465-.58-.575a1.679 1.679 0 00-.516-.228 3.36 3.36 0 00-.633-.041h-1.318v3.814h-1.137zm1.137-4.799h2.443c.52 0 .926-.052 1.219-.158.293-.109.516-.281.668-.515.152-.239.229-.496.229-.774 0-.406-.149-.74-.446-1.002-.293-.261-.758-.392-1.394-.392h-2.719v2.841z" transform="matrix(-1.4595 1.21686 -1.246 -1.42536 2317.399 676.2)"/><path d="M597.06 787.09l3.299-8.59h1.225l3.515 8.59h-1.294l-1.002-2.601h-3.592l-.944 2.601h-1.207zm2.479-3.527h2.912l-.896-2.379a23.418 23.418 0 01-.61-1.781 10.802 10.802 0 01-.463 1.64l-.943 2.52z" transform="matrix(-.5853 1.78484 -1.82758 -.57161 2227.972 -354.412)"/><path d="M577.36 787.09v-8.59h3.809c.766 0 1.348.079 1.746.235.398.152.717.424.955.814.238.391.358.823.358 1.295 0 .61-.198 1.123-.592 1.541-.395.418-1.004.684-1.828.797.3.145.529.287.685.428.332.304.647.685.944 1.142l1.494 2.338h-1.43l-1.137-1.787c-.332-.515-.605-.91-.82-1.183-.215-.274-.408-.465-.58-.575a1.679 1.679 0 00-.516-.228 3.36 3.36 0 00-.633-.041h-1.318v3.814h-1.137zm1.137-4.799h2.443c.52 0 .926-.052 1.219-.158.293-.109.516-.281.668-.515.152-.239.229-.496.229-.774 0-.406-.149-.74-.446-1.002-.293-.261-.757-.392-1.394-.392h-2.719v2.841z" transform="scale(1.91902 1.87414) rotate(84.76 769.249 261.29)"/><path d="M550.39 787.09l3.299-8.59h1.225l3.516 8.59h-1.295l-1.002-2.601h-3.592l-.943 2.601h-1.208zm2.479-3.527h2.912l-.896-2.379a23.418 23.418 0 01-.61-1.781 10.802 10.802 0 01-.463 1.64l-.943 2.52z" transform="matrix(1.10927 1.52932 -1.56594 1.08333 1035.59 -1518.876)"/><path d="M539.06 787.09l3.298-8.59h1.225l3.516 8.59h-1.295l-1.002-2.601h-3.592l-.943 2.601h-1.207zm2.478-3.527h2.912l-.896-2.379a23.418 23.418 0 01-.61-1.781 10.802 10.802 0 01-.463 1.64l-.943 2.52z" transform="matrix(1.4018 1.27993 -1.31058 1.36903 671.724 -1610.466)"/><path d="M501.34 787.09v-8.59h3.808c.766 0 1.348.079 1.746.235.399.152.717.424.956.814.238.391.357.823.357 1.295 0 .61-.197 1.123-.592 1.541-.394.418-1.004.684-1.828.797.301.145.529.287.686.428.332.304.646.685.943 1.142l1.494 2.338h-1.43l-1.136-1.787c-.332-.515-.606-.91-.821-1.183-.214-.274-.408-.465-.58-.575a1.684 1.684 0 00-.515-.228 3.36 3.36 0 00-.633-.041h-1.318v3.814h-1.137zm1.137-4.799h2.443c.519 0 .926-.052 1.219-.158.293-.109.515-.281.668-.515.152-.239.228-.496.228-.774 0-.406-.148-.74-.445-1.002-.293-.261-.758-.392-1.395-.392h-2.718v2.841z" transform="scale(1.91902 1.87415) rotate(5.699 7548.946 -2903.782)"/><path d="M491.64 782.91c0-1.426.382-2.541 1.148-3.346.766-.809 1.754-1.213 2.965-1.213.793 0 1.508.19 2.144.568a3.692 3.692 0 011.453 1.588c.336.676.504 1.444.504 2.303 0 .871-.175 1.65-.527 2.338a3.622 3.622 0 01-1.494 1.564 4.285 4.285 0 01-2.086.528c-.809 0-1.531-.196-2.168-.586-.637-.391-1.119-.924-1.447-1.6s-.492-1.39-.492-2.144zm1.171.017c0 1.035.278 1.852.832 2.449.559.594 1.258.891 2.098.891.856 0 1.559-.301 2.109-.902.555-.602.833-1.455.833-2.561 0-.699-.12-1.308-.358-1.828a2.679 2.679 0 00-1.037-1.213 2.783 2.783 0 00-1.529-.433c-.805 0-1.498.277-2.08.832-.579.55-.868 1.472-.868 2.765z" transform="scale(1.91902 1.87415) rotate(5.699 7545.027 -2912.7)"/><path d="M483.32 787.09v-8.59h2.959c.668 0 1.178.041 1.53.123.492.114.912.319 1.259.616.453.383.791.873 1.014 1.47.227.594.34 1.274.34 2.039 0 .653-.076 1.231-.229 1.735-.152.504-.347.922-.586 1.254-.238.328-.5.588-.785.779-.281.188-.623.33-1.025.428a5.858 5.858 0 01-1.377.146h-3.1zm1.137-1.013h1.834c.566 0 1.01-.053 1.33-.159.324-.105.582-.254.773-.445.27-.269.479-.631.627-1.084.153-.457.229-1.01.229-1.658 0-.899-.149-1.588-.445-2.068-.293-.485-.651-.809-1.073-.973-.304-.117-.795-.176-1.47-.176h-1.805v6.563z" transform="matrix(1.88404 -.3562 .36473 1.83998 -904.444 -1144.01)"/><path d="M474.37 787.09l3.299-8.59h1.224l3.516 8.59h-1.295l-1.002-2.601h-3.592l-.943 2.601h-1.207zm2.478-3.527h2.913l-.897-2.379a23.793 23.793 0 01-.609-1.781c-.11.551-.264 1.097-.463 1.64l-.944 2.52z" transform="scale(1.91902 1.87414) rotate(-13.068 -2808.83 1870.334)"/><path d="M451.69 787.09l3.299-8.59h1.225l3.515 8.59h-1.295l-1.001-2.601h-3.592l-.944 2.601h-1.207zm2.479-3.527h2.912l-.897-2.379a23.793 23.793 0 01-.609-1.781 10.918 10.918 0 01-.463 1.64l-.943 2.52z" transform="scale(1.91902 1.87415) rotate(-33.207 -890.415 982.728)"/><path d="M406.62 787.09v-8.59h2.959c.668 0 1.178.041 1.529.123a2.91 2.91 0 011.26.616c.453.383.791.873 1.014 1.47.226.594.34 1.274.34 2.039 0 .653-.076 1.231-.229 1.735-.152.504-.347.922-.586 1.254-.238.328-.5.588-.785.779-.281.188-.623.33-1.025.428a5.858 5.858 0 01-1.377.146h-3.1zm1.137-1.013h1.834c.566 0 1.01-.053 1.33-.159.324-.105.582-.254.773-.445.27-.269.479-.631.627-1.084.153-.457.229-1.01.229-1.658 0-.899-.149-1.588-.445-2.068-.293-.485-.651-.809-1.073-.973-.304-.117-.795-.176-1.47-.176h-1.805v6.563z" transform="matrix(.1769 -1.86616 1.91084 .17276 -1376.369 863.614)"/><path d="M394.34 787.09l3.299-8.59h1.224l3.516 8.59h-1.295l-1.002-2.601h-3.592l-.943 2.601h-1.207zm2.478-3.527h2.913l-.897-2.379a23.342 23.342 0 01-.609-1.781c-.11.551-.264 1.097-.463 1.64l-.944 2.52z" transform="scale(-1.91902 -1.87415) rotate(85.719 647.374 51.833)"/><path d="M368.55 787.09v-8.59h3.222c.657 0 1.182.088 1.576.264.399.172.709.44.932.803.227.359.34.736.34 1.131 0 .367-.1.713-.299 1.037s-.5.586-.902.785c.519.152.918.412 1.195.779.281.367.422.801.422 1.301 0 .402-.086.777-.258 1.125-.168.344-.377.609-.627.797-.25.187-.564.33-.943.428-.375.093-.836.14-1.383.14h-3.275zm1.136-4.98h1.858c.504 0 .865-.033 1.084-.1.289-.086.506-.228.65-.428.149-.199.223-.449.223-.75 0-.285-.069-.535-.205-.75a1.024 1.024 0 00-.586-.445c-.254-.082-.69-.123-1.307-.123h-1.717v2.596zm0 3.967h2.139c.367 0 .625-.014.773-.041.262-.047.481-.125.657-.235a1.24 1.24 0 00.433-.474c.114-.211.17-.454.17-.727 0-.32-.082-.598-.246-.832a1.279 1.279 0 00-.685-.498c-.289-.098-.707-.147-1.254-.147h-1.987v2.954z" transform="matrix(-1.09808 -1.53699 1.57379 -1.0724 -612.53 1726.284)"/><path d="M351.93 787.09v-8.59h3.24c.57 0 1.006.028 1.306.082.422.071.776.206 1.061.405.285.195.514.47.686.826.175.355.263.746.263 1.172 0 .73-.232 1.349-.697 1.857-.465.504-1.305.756-2.52.756h-2.203v3.492h-1.136zm1.136-4.506h2.221c.734 0 1.256-.136 1.564-.41.309-.273.463-.658.463-1.154 0-.359-.091-.666-.275-.92a1.257 1.257 0 00-.715-.51c-.191-.051-.545-.076-1.06-.076h-2.198v3.07z" transform="matrix(-1.42911 -1.25079 1.28073 -1.3957 -264.47 1875.84)"/><path d="M335.28 787.09v-8.59h3.809c.765 0 1.348.079 1.746.235.398.152.717.424.955.814.238.391.357.823.357 1.295 0 .61-.197 1.123-.591 1.541-.395.418-1.004.684-1.828.797.3.145.529.287.685.428.332.304.647.685.943 1.142l1.495 2.338h-1.43l-1.137-1.787c-.332-.515-.605-.91-.82-1.183-.215-.274-.408-.465-.58-.575a1.679 1.679 0 00-.516-.228 3.36 3.36 0 00-.633-.041h-1.318v3.814h-1.137zm1.137-4.799h2.443c.52 0 .926-.052 1.219-.158.293-.109.516-.281.668-.515.152-.239.229-.496.229-.774 0-.406-.149-.74-.446-1.002-.293-.261-.758-.392-1.394-.392h-2.719v2.841z" transform="matrix(-1.64232 -.96946 .99267 -1.60391 36.394 1941.436)"/></g></g></svg>