<svg xmlns="http://www.w3.org/2000/svg" height="480" width="640"><defs><clipPath id="a" clipPathUnits="userSpaceOnUse"><path fill-opacity=".67" d="M-85.648 0h682.67v512h-682.67z"/></clipPath></defs><g clip-path="url(#a)" fill-rule="evenodd" transform="translate(80.295) scale(.9375)"><path fill="#fff" d="M-256 0H767.4v512H-256z"/><path fill="#239f40" d="M-256 372.43H766.6v139.12H-256z"/><path fill="#cd1738" d="M-256 0H766.6v139.12H-256z"/><path fill="#ff0" d="M159.88 212.256l3.68 12.119 11.915-.27-9.884 7.407 3.927 11.774-9.781-7.536-9.493 7.536 3.834-12.065-9.792-7.116 12.152.086zM148.04 264.183l3.68 12.119 11.915-.27-9.884 7.407 3.927 11.774-9.781-7.536-9.493 7.536 3.834-12.065-9.792-7.116 12.152.086zM199.96 169.89l3.68 12.12 11.915-.27-9.884 7.407 3.927 11.774-9.781-7.536-9.493 7.536 3.834-12.065-9.792-7.116 12.152.086zM253.94 155.77l3.68 12.12 11.915-.27-9.884 7.407 3.927 11.774-9.781-7.536-9.493 7.536 3.834-12.065-9.792-7.116 12.152.086zM308.373 169.89l3.68 12.12 11.914-.27-9.884 7.407 3.927 11.774-9.781-7.536-9.493 7.536 3.834-12.065-9.792-7.116 12.152.086zM348.457 212.484l3.68 12.119 11.914-.27-9.884 7.407 3.927 11.774-9.781-7.536-9.493 7.536 3.834-12.065-9.792-7.116 12.152.086zM360.072 264.183l3.68 12.119 11.914-.27-9.884 7.407 3.927 11.774-9.781-7.536-9.493 7.536 3.834-12.065-9.792-7.116 12.152.086zM274.717 235.853c0 8.605-9.248 15.58-20.654 15.58s-20.654-6.975-20.654-15.58 9.248-15.581 20.654-15.581 20.654 6.976 20.654 15.58z"/><path fill="#ff0" d="M248.11 246.85h11.796v54.916H248.11z"/><path d="M357.58 297.62c-5.134 10.894-12.042 14.76-23.319 14.458-19.735.468-24.195-14.028-26.768-20.427-6.976 9.194-10.941 12.848-22.52 12.627-16.498.369-24.827-9.022-30.977-26.776-6.15 17.641-14.479 27.032-30.977 26.663-11.58.222-15.545-3.433-22.52-12.627-2.573 6.4-7.032 20.895-26.768 20.427-11.277.302-18.185-3.564-22.807-14.61 5.365 15.426 10.679 24.058 27.152 24.596 14.92.18 21.753-8.462 24.986-14.372 10.749 5.71 11.854 6.978 27.093 6.62 11.376-.366 17.91-7.798 23.797-14.87 5.887 7.072 12.422 14.504 23.797 14.87 15.24.358 16.345-.91 27.093-6.62 3.233 5.91 10.066 14.551 24.986 14.372 16.473-.538 21.788-9.17 27.751-24.331z" fill="#ff0"/><path d="M204.17 313.52l5.385 7.463 10.326-.303-7.969 9.031-15.6.399-4.881-6.537 9.011-1.456 3.784-8.575M303.62 313.52l-5.385 7.463-10.326-.303 7.969 9.031 15.6.399 4.881-6.537-9.011-1.456-3.784-8.575M241.02 318.31c0-.04 7.086.04 7.086.04l5.958-4.75 5.818 4.69 7.026.101-6.322 9.34H247.3l-6.28-9.421zM330.66 351.58c-27.551-5.688-45.991-8.487-76.696-8.487s-49.145 2.799-76.522 8.419l-.038-11.879c27.415-5.672 45.855-8.471 76.56-8.471s49.145 2.8 76.56 8.471l.136 11.947z" fill="#ff0"/><path d="M264.823 235.907c0 3.38-4.83 6.12-10.79 6.12-5.96 0-10.79-2.74-10.79-6.12s4.83-6.12 10.79-6.12c5.959 0 10.79 2.74 10.79 6.12z" fill="#fff"/></g></svg>