<svg xmlns="http://www.w3.org/2000/svg" height="480" width="640"><g fill-rule="evenodd"><path fill="#f31930" d="M0 0h640v480H0z"/><path d="M406.977 247.473c0 66.215-54.606 119.889-121.969 119.889S163.04 313.687 163.04 247.473s54.606-119.889 121.968-119.889 121.97 53.676 121.97 119.89z" fill="#fff"/><path d="M413.077 247.467c0 52.97-43.686 95.91-97.575 95.91s-97.574-42.94-97.574-95.91 43.686-95.91 97.574-95.91 97.575 42.941 97.575 95.91z" fill="#f31830"/><path d="M430.726 191.465l-.985 44.318-41.346 11.225 40.756 14.514-.985 40.642 26.58-31.738 40.164 13.934-23.233-34.061 28.352-33.867-43.512 11.998-25.793-36.964z" fill="#fff"/></g></svg>