<svg xmlns="http://www.w3.org/2000/svg" height="480" width="640" version="1.0" xmlns:xlink="http://www.w3.org/1999/xlink"><defs><linearGradient id="a"><stop stop-color="#faff00" offset="0"/><stop stop-color="#f5c402" offset="1"/></linearGradient><linearGradient id="c" y2="459.27" xlink:href="#a" gradientUnits="userSpaceOnUse" x2="123.79" gradientTransform="matrix(.7507 -.02422 -.04587 1.4224 26.394 -26.59)" y1="360.52" x1="123.79"/><linearGradient id="d" y2="459.27" xlink:href="#a" gradientUnits="userSpaceOnUse" x2="123.79" gradientTransform="matrix(.72666 .00063 .00119 1.4679 -.624 -48.245)" y1="360.52" x1="123.79"/><linearGradient id="e" y2="459.27" xlink:href="#a" gradientUnits="userSpaceOnUse" x2="123.79" gradientTransform="matrix(.7514 .02422 .04586 1.4211 -30.188 -29.545)" y1="360.52" x1="123.79"/><linearGradient id="f" y2="459.27" xlink:href="#a" gradientUnits="userSpaceOnUse" x2="123.79" gradientTransform="matrix(.7751 -.00035 -.00066 1.3762 -23.236 .167)" y1="360.52" x1="123.79"/><linearGradient id="g" y2="459.27" xlink:href="#a" gradientUnits="userSpaceOnUse" x2="123.79" gradientTransform="matrix(.75059 -.02422 -.04587 1.4226 -1.565 1.584)" y1="360.52" x1="123.79"/><linearGradient id="h" y2="459.27" xlink:href="#a" gradientUnits="userSpaceOnUse" x2="123.79" gradientTransform="matrix(.75113 .02422 .04587 1.4216 -1.847 -1.827)" y1="360.52" x1="123.79"/><linearGradient id="i" y2="459.27" xlink:href="#a" gradientUnits="userSpaceOnUse" x2="123.79" gradientTransform="matrix(.7751 -.0002 -.0004 1.3762 16.423 -.07)" y1="360.52" x1="123.79"/><linearGradient id="j" y2="459.27" xlink:href="#a" gradientUnits="userSpaceOnUse" x2="123.79" gradientTransform="matrix(.72665 0 0 1.4679 0 -8.463)" y1="360.52" x1="123.79"/><clipPath id="b" clipPathUnits="userSpaceOnUse"><path fill-opacity=".67" d="M0 0h640v512H0z"/></clipPath></defs><g clip-path="url(#b)" transform="matrix(1 0 0 .9375 0 0)"><g fill-rule="evenodd" transform="translate(116.34 -61.375) scale(.48345)"><path fill="#fff" d="M-240.65 126.95h1587v1059h-1587z"/><path d="M101.66 488.82c9.641 18.113 21.855 33.027 30.418 58.686 1.846 34.313-2.07 40.849 4.635 57.059 2.696 5.929 6.544 8.378 7.285 22.123-1.146 19.675-9.645 20.899-18 20.359-1.5-6.043-.002-9.946-10.648-20.357-5.765-6.161-12.613-16.348-16.234-29.493-1.127-12.074-1.758-27.767-7.786-40.892-8.675-14.17-9.97-21.069-18.211-28.491-8.486-9.873-8.002-13.336-12.65-24.094 11.39-18.449 22.187-20.33 41.192-14.9z" fill-opacity=".561" transform="scale(-1) rotate(-44.789 -1031.455 129.94)" stroke="#cbaa19" stroke-width="3.228" fill="url(#c)"/><path d="M101.66 488.82c9.641 18.113 21.855 33.027 30.418 58.686 1.846 34.313-2.07 40.849 4.635 57.059 2.696 5.929 6.544 8.378 7.285 22.123-1.146 19.675-9.645 20.899-18 20.359-1.5-6.043-.002-9.946-10.648-20.357-5.765-6.161-12.613-16.348-16.234-29.493-1.127-12.074-1.758-27.767-7.786-40.892-8.675-14.17-9.97-21.069-18.211-28.491-8.486-9.873-8.002-13.336-12.65-24.094 11.39-18.449 22.187-20.33 41.192-14.9z" fill-opacity=".561" transform="scale(-1) rotate(.741 65702.044 -8276.908)" stroke="#cbaa19" stroke-width="3.228" fill="url(#d)"/><path d="M101.66 488.82c9.641 18.113 21.855 33.027 30.418 58.686 1.846 34.313-2.07 40.849 4.635 57.059 2.696 5.929 6.544 8.378 7.285 22.123-1.146 19.675-9.645 20.899-18 20.359-1.5-6.043-.002-9.946-10.648-20.357-5.765-6.161-12.613-16.348-16.234-29.493-1.127-12.074-1.758-27.767-7.786-40.892-8.675-14.17-9.97-21.069-18.211-28.491-8.486-9.873-8.002-13.336-12.65-24.094 11.39-18.449 22.187-20.33 41.192-14.9z" fill-opacity=".561" transform="rotate(-134.383 53.54 425.012)" stroke="#cbaa19" stroke-width="3.228" fill="url(#e)"/><path d="M101.66 488.82c9.641 18.113 21.855 33.027 30.418 58.686 1.846 34.313-2.07 40.849 4.635 57.059 2.696 5.929 6.544 8.378 7.285 22.123-1.146 19.675-9.645 20.899-18 20.359-1.5-6.043-.002-9.946-10.648-20.357-5.765-6.161-12.613-16.348-16.234-29.493-1.127-12.074-1.758-27.767-7.786-40.892-8.675-14.17-9.97-21.069-18.211-28.491-8.486-9.873-8.002-13.336-12.65-24.094 11.39-18.449 22.187-20.33 41.192-14.9z" fill-opacity=".561" transform="rotate(-89.589 53.541 425.01)" stroke="#cbaa19" stroke-width="3.228" fill="url(#f)"/><path d="M101.66 488.82c9.641 18.113 21.855 33.027 30.418 58.686 1.846 34.313-2.07 40.849 4.635 57.059 2.696 5.929 6.544 8.378 7.285 22.123-1.146 19.675-9.645 20.899-18 20.359-1.5-6.043-.002-9.946-10.648-20.357-5.765-6.161-12.613-16.348-16.234-29.493-1.127-12.074-1.758-27.767-7.786-40.892-8.675-14.17-9.97-21.069-18.211-28.491-8.486-9.873-8.002-13.336-12.65-24.094 11.39-18.449 22.187-20.33 41.192-14.9z" fill-opacity=".561" transform="rotate(-44.662 53.539 425.005)" stroke="#cbaa19" stroke-width="3.228" fill="url(#g)"/><path d="M101.66 488.82c9.641 18.113 21.855 33.027 30.418 58.686 1.846 34.313-2.07 40.849 4.635 57.059 2.696 5.929 6.544 8.378 7.285 22.123-1.146 19.675-9.645 20.899-18 20.359-1.5-6.043-.002-9.946-10.648-20.357-5.765-6.161-12.613-16.348-16.234-29.493-1.127-12.074-1.758-27.767-7.786-40.892-8.675-14.17-9.97-21.069-18.211-28.491-8.486-9.873-8.002-13.336-12.65-24.094 11.39-18.449 22.187-20.33 41.192-14.9z" fill-opacity=".561" transform="rotate(45.295 53.541 425.011)" stroke="#cbaa19" stroke-width="3.228" fill="url(#h)"/><path d="M101.66 488.82c9.641 18.113 21.855 33.027 30.418 58.686 1.846 34.313-2.07 40.849 4.635 57.059 2.696 5.929 6.544 8.378 7.285 22.123-1.146 19.675-9.645 20.899-18 20.359-1.5-6.043-.002-9.946-10.648-20.357-5.765-6.161-12.613-16.348-16.234-29.493-1.127-12.074-1.758-27.767-7.786-40.892-8.675-14.17-9.97-21.069-18.211-28.491-8.486-9.873-8.002-13.336-12.65-24.094 11.39-18.449 22.187-20.33 41.192-14.9z" fill-opacity=".561" transform="rotate(90.246 53.541 425.013)" stroke="#cbaa19" stroke-width="3.228" fill="url(#i)"/><path fill="#002993" d="M345.13 247.98h1001.2V368.5H345.13zM345.13 482.62h1001.2v120.52H345.13z"/><path d="M101.66 488.82c9.641 18.113 21.855 33.027 30.418 58.686 1.846 34.313-2.07 40.849 4.635 57.059 2.696 5.929 6.544 8.378 7.285 22.123-1.146 19.675-9.645 20.899-18 20.359-1.5-6.043-.002-9.946-10.648-20.357-5.765-6.161-12.613-16.348-16.234-29.493-1.127-12.074-1.758-27.767-7.786-40.892-8.675-14.17-9.97-21.069-18.211-28.491-8.486-9.873-8.002-13.336-12.65-24.094 11.39-18.449 22.187-20.33 41.192-14.9z" fill-opacity=".561" stroke="#cbaa19" stroke-width="3.228" fill="url(#j)"/><path fill="#002993" d="M-240.65 714.54h1587v120.52h-1587zM-240.65 947.82h1587v120.52h-1587z"/><path d="M82.66 496.87L53.541 656.23V496.87H82.66z" stroke="#cbaa19" stroke-linecap="round" stroke-width="3.228" fill="#faff00"/><path d="M24.42 496.87l29.119 159.36V496.87H24.42z" stroke="#cbaa19" stroke-width="3.228" fill="#f5c402"/><path d="M124.995 455.1l92.338 133.105-112.89-112.478 20.552-20.628z" stroke="#cbaa19" stroke-linecap="round" stroke-width="3.228" fill="#faff00"/><path d="M83.89 496.356l133.444 91.85-112.891-112.478-20.553 20.628z" stroke="#cbaa19" stroke-width="3.228" fill="#f5c402"/><path d="M125.34 395.752l159.417 28.812-159.36.307-.056-29.12z" stroke="#cbaa19" stroke-linecap="round" stroke-width="3.228" fill="#faff00"/><path d="M125.46 453.992l159.303-29.426-159.36.307.056 29.119z" stroke="#cbaa19" stroke-width="3.228" fill="#f5c402"/><path d="M83.925 353.681l133.491-91.78-112.95 112.419-20.541-20.639z" stroke="#cbaa19" stroke-linecap="round" stroke-width="3.228" fill="#faff00"/><path d="M125.008 394.955l92.408-133.058-112.95 112.42 20.542 20.638z" stroke="#cbaa19" stroke-width="3.228" fill="#f5c402"/><path d="M24.278 353.212l28.808-159.417.311 159.36-29.119.057z" stroke="#cbaa19" stroke-linecap="round" stroke-width="3.228" fill="#faff00"/><path d="M82.52 353.098L53.088 193.795l.311 159.36 29.12-.057z" stroke="#cbaa19" stroke-width="3.228" fill="#f5c402"/><path d="M-17.922 394.924l-92.345-133.1L2.63 374.293l-20.552 20.63z" stroke="#cbaa19" stroke-linecap="round" stroke-width="3.228" fill="#faff00"/><path d="M23.186 353.664l-133.448-91.842L2.635 374.293l20.551-20.629z" stroke="#cbaa19" stroke-width="3.228" fill="#f5c402"/><path d="M-17.996 454.919l-159.673-27.355 159.35-1.762.323 29.117z" stroke="#cbaa19" stroke-linecap="round" stroke-width="3.228" fill="#faff00"/><path d="M-18.634 396.689l-159.029 30.88 159.35-1.763-.321-29.117z" stroke="#cbaa19" stroke-width="3.228" fill="#f5c402"/><path d="M23.85 496.635l-132.585 93.084L3.107 476.199l20.743 20.436z" stroke="#cbaa19" stroke-linecap="round" stroke-width="3.228" fill="#faff00"/><path d="M-17.636 455.763l-91.1 133.956L3.108 476.2l-20.743-20.436z" stroke="#cbaa19" stroke-width="3.228" fill="#f5c402"/><ellipse fill="#faff00" transform="translate(.956 2.868)" cx="52.585" rx="82.224" cy="422.29" ry="81.268" stroke="#cbaa19" stroke-width="3.228"/></g></g></svg>