<svg xmlns="http://www.w3.org/2000/svg" height="480" width="640"><defs><clipPath id="a" clipPathUnits="userSpaceOnUse"><path fill-opacity=".67" d="M0 0h640v480H0z"/></clipPath></defs><g fill-rule="evenodd" clip-path="url(#a)"><path fill="#fff" d="M0 0h960v480H0z"/><path fill="#94acd4" d="M0 0h960v166.14H0z"/><path fill="#b73000" d="M0 155.14h960v11.005H0z"/><path fill="#00a900" d="M0 324.86h960V480H0z"/><path fill="#b73000" d="M0 324.86h960v11.005H0z"/><path fill="#feffff" d="M252.653 49.389l-8.939-6.151-8.85 6.294 3.054-10.452-8.68-6.51 10.824-.314 3.473-10.322 3.644 10.26 10.832.134-8.573 6.654zM210.495 132.337l-8.939-6.151-8.85 6.294 3.054-10.452-8.68-6.51 10.824-.314 3.473-10.322 3.644 10.26 10.832.134-8.573 6.654zM253.059 132.337l-8.939-6.151-8.85 6.294 3.054-10.452-8.68-6.51 10.824-.314 3.473-10.322 3.644 10.26 10.832.134-8.573 6.654zM292.375 132.337l-8.939-6.151-8.85 6.294 3.054-10.452-8.68-6.51 10.824-.314 3.473-10.322 3.644 10.26 10.832.134-8.573 6.654zM328.865 132.337l-8.939-6.151-8.85 6.294 3.054-10.452-8.68-6.51 10.824-.314 3.473-10.322 3.644 10.26 10.832.134-8.573 6.654zM165.904 132.337l-8.939-6.151-8.85 6.294 3.054-10.452-8.68-6.51 10.824-.314 3.473-10.322 3.644 10.26 10.832.134-8.573 6.654zM209.684 91.169l-8.939-6.151-8.85 6.294 3.054-10.452-8.68-6.51 10.824-.314 3.473-10.322 3.644 10.26 10.832.134-8.573 6.654zM252.653 91.169l-8.939-6.151-8.85 6.294 3.054-10.452-8.68-6.51 10.824-.314 3.473-10.322 3.644 10.26 10.832.134-8.573 6.654zM293.185 91.169l-8.939-6.151-8.85 6.294 3.054-10.452-8.68-6.51 10.824-.314 3.473-10.322 3.644 10.26 10.832.134-8.573 6.654zM328.455 91.169l-8.939-6.151-8.85 6.294 3.054-10.452-8.68-6.51 10.824-.314 3.473-10.322 3.644 10.26 10.832.134-8.573 6.654zM328.055 49.389l-8.939-6.151-8.85 6.294 3.054-10.452-8.68-6.51 10.824-.314 3.473-10.322 3.644 10.26 10.832.134-8.573 6.654zM292.785 49.389l-8.939-6.151-8.85 6.294 3.054-10.452-8.68-6.51 10.824-.314 3.473-10.322 3.644 10.26 10.832.134-8.573 6.654z"/><path d="M137.83 25.111C89.992 12 59.691 45.865 60.147 76.214c.456 30.346 28.426 62.486 71.603 54.466C63.913 162.47 29.22 112.4 30.61 72.648c2.378-46.988 55.193-85.309 107.22-47.537z" fill="#fff"/></g></svg>