<svg xmlns="http://www.w3.org/2000/svg" width="744" height="496"><path fill="#fff" d="M0 0h744v496H0z"/><path d="M437.962 178.594c0-3.42-1.111-10.061-4.726-12.36-4.642-2.414-4.642-3.899-5.013-7.055s7.797-9.096 7.797-9.096-7.426-3.342-10.21-2.971c-2.784.372-8.168.928-8.91 1.671-.743.743-4.827-13.366-2.228-15.594 2.599-2.228 7.981 5.198 7.981 5.198s3.527-8.168-8.91-23.762c4.27-30.445-24.133-37.5-30.63-37.314-5.383-.742-19.306 4.27-21.533 10.953-7.055 2.413-7.426 8.54-7.426 8.54s-14.479 2.599-16.336 15.223c8.539-7.054 14.108.743 14.108.743s7.426 5.198 11.324 5.384c3.897.186-3.713 12.995-5.94 15.223-2.228 2.228-11.51 10.768-11.139 11.324s7.24 2.599 6.869 5.755c-.372 3.156-21.163 12.81-20.049 15.223 5.384-1.671 9.581-.384 9.581-.384.75 5.271-1.35 11.34-4.932 13.305l100.322-.006z" fill="#ffd600" stroke="#000" stroke-width="1.484"/><path d="M432.459 317.705s.945 11.16-3.783 15.889c20.995 1.324 32.344 22.699 32.533 27.807.188 5.106-6.432 9.078-6.432 9.078s2.271 9.08-6.431 10.593c.189 8.701-5.863 8.701-5.863 8.701s-2.27 7.188-9.268 6.81c-2.081 10.403-12.862 10.214-12.862 10.214s-6.242 15.133-15.51 9.269c-5.863 12.862-21.373 12.295-27.237 0-3.215-.188-10.402 4.161-14.753-8.701-9.646 1.703-13.429-10.592-13.429-10.592s-6.432-.568-8.891-6.999c-7.565-1.513-6.241-9.079-6.241-9.079s-7.565-2.08-7.377-10.403c-6.053-3.595-5.485-10.025-5.485-10.025s4.729-22.319 32.155-27.049c-4.351-6.241-3.783-15.321-3.783-15.321l82.657-.192z" fill="#ffd600" stroke="#000" stroke-width="1.484" stroke-linecap="round" stroke-linejoin="round"/><g stroke="#000" stroke-linejoin="round"><path d="M308.578 109.376s10.077 10.841 15.116 2.749-7.023-10.383-7.176-10.536c-.153-.152-7.024-2.29-7.634-14.963-.611-12.673 15.116-20.918 19.544-21.987 4.428-1.069 17.406-1.069 17.406-1.069s47.485-11.451 52.371-14.963c4.886-3.512 49.776-11.757 49.776-11.757s7.176-.916 6.565 5.497c-.611 6.413-6.565 7.176-6.565 7.176s5.039 3.97 4.428 7.482c-.611 3.512-4.428 9.161-12.368 8.245.916 12.52-16.49 14.505-16.49 14.505s-1.832 18.017-17.865 17.101c-3.817 12.367-18.169 12.826-18.169 12.826s-6.718 8.398-16.49 9.008c-5.649 14.047-17.864 10.077-17.864 10.077s.916 8.856-4.733 8.856c2.901 10.077-7.939 11.451-12.062 9.466-1.069 2.137-4.733 8.703-13.131 4.581-5.038 7.482-13.284 3.97-13.284 3.97s-1.832 5.955-9.008 3.664c-7.178-2.291 7.785-49.623 7.633-49.928z" fill="#ffd600" transform="matrix(-1.48352 0 0 1.48359 758.85 27.398)"/><path d="M339.726 72.426s-11.146 1.222-9.772 18.475M382.172 54.562S403.548 69.22 363.544 73.8" fill="#ffd600" stroke-linecap="round" transform="matrix(-1.48352 0 0 1.48359 758.85 27.398)"/><path d="M376.065 71.815c.152.305 10.077 12.062-8.245 15.574 8.703 8.245-7.634 10.993-7.634 10.993s3.359 8.703-6.413 10.993c3.206 9.009-7.329 8.551-7.329 8.551s-.305 10.993-12.826 10.841c.153 7.482-8.55 7.94-8.55 7.94s-2.596 8.092-10.993 5.649c-.916 5.649-6.718 4.428-6.718 4.428" fill="#ffd600" stroke-linecap="round" transform="matrix(-1.48352 0 0 1.48359 758.85 27.398)"/><path d="M309.799 155.792s-.458-7.787 1.374-9.314M323.694 151.517c-.153-.153-3.665-7.176-2.443-8.398M336.519 147.089l-9.467-9.314M348.429 137.928c-.153-.153-14.352-9.008-14.352-9.008M353.467 128.919c-.153-.153-8.092-3.512-8.398-6.413" fill="#f7f308" stroke-linecap="round" transform="matrix(-1.48352 0 0 1.48359 758.85 27.398)"/><path d="M371.026 118.689s-19.238 4.123-22.598-.305M387.058 109.528c-.763 0-28.857 3.054-31.453-.458M405.686 96.855c-.458-.153-33.285 6.108-42.599 1.374M421.412 79.907c-.764 0-43.668 10.383-50.081 7.176M437.75 64.944c-.305 0-51.15 11.91-57.562 7.023M444.315 50.439c-.152 0-48.707 15.879-52.829 11.909" fill="#ffd600" stroke-linecap="round" transform="matrix(-1.48352 0 0 1.48359 758.85 27.398)"/></g><g stroke="#000" stroke-linejoin="round"><path d="M308.577 109.376s10.078 10.841 15.116 2.749c5.039-8.092-7.023-10.383-7.176-10.536-.153-.152-7.024-2.29-7.635-14.963-.61-12.673 15.116-20.918 19.544-21.987 4.428-1.069 17.406-1.069 17.406-1.069s47.485-11.451 52.371-14.963c4.886-3.512 49.775-11.757 49.775-11.757s7.177-.916 6.566 5.497c-.611 6.413-6.566 7.176-6.566 7.176s5.039 3.97 4.428 7.482c-.611 3.512-4.428 9.161-12.368 8.245.916 12.52-16.49 14.505-16.49 14.505s-1.833 18.017-17.864 17.101c-3.817 12.367-18.17 12.826-18.17 12.826s-6.718 8.398-16.49 9.008c-5.649 14.047-17.864 10.077-17.864 10.077s.916 8.856-4.733 8.856c2.901 10.077-7.939 11.451-12.062 9.466-1.068 2.137-4.734 8.703-13.131 4.581-5.038 7.482-13.283 3.97-13.283 3.97s-1.832 5.955-9.008 3.664c-7.176-2.291 7.787-49.623 7.634-49.928z" fill="#ffd600" transform="matrix(1.48352 0 0 1.48359 24.096 27.918)"/><path d="M339.726 72.426s-11.146 1.222-9.772 18.475M382.172 54.562S403.547 69.22 363.544 73.8" fill="#ffd600" stroke-linecap="round" transform="matrix(1.48352 0 0 1.48359 24.096 27.918)"/><path d="M376.065 71.815c.153.305 10.077 12.062-8.246 15.574 8.703 8.245-7.634 10.993-7.634 10.993s3.359 8.703-6.413 10.993c3.206 9.009-7.329 8.551-7.329 8.551s-.305 10.993-12.826 10.841c.153 7.482-8.55 7.94-8.55 7.94s-2.596 8.092-10.994 5.649c-.916 5.649-6.718 4.428-6.718 4.428" fill="#ffd600" stroke-linecap="round" transform="matrix(1.48352 0 0 1.48359 24.096 27.918)"/><path d="M309.799 155.792s-.458-7.787 1.374-9.314M323.693 151.517c-.153-.153-3.664-7.176-2.443-8.398M336.519 147.089l-9.467-9.314" fill="#f7f308" stroke-linecap="round" transform="matrix(1.48352 0 0 1.48359 24.096 27.918)"/><path d="M348.429 137.928c-.153-.153-14.352-9.008-14.352-9.008" fill="#ffd600" stroke-linecap="round" transform="matrix(1.48352 0 0 1.48359 24.096 27.918)"/><path d="M353.467 128.919c-.153-.153-8.092-3.512-8.398-6.413" fill="#f7f308" stroke-linecap="round" transform="matrix(1.48352 0 0 1.48359 24.096 27.918)"/><path d="M371.026 118.689s-19.238 4.123-22.597-.305M387.058 109.528c-.764 0-28.857 3.054-31.453-.458M405.686 96.855c-.458-.153-33.286 6.108-42.6 1.374M421.412 79.907c-.763 0-43.668 10.382-50.081 7.176M437.75 64.944c-.305 0-51.15 11.91-57.563 7.023M444.315 50.439c-.153 0-48.707 15.879-52.83 11.909" fill="#ffd600" stroke-linecap="round" transform="matrix(1.48352 0 0 1.48359 24.096 27.918)"/></g><path d="M568.433 217.641s-4.429 63.296-4.644 63.152c-.214-.145-9.237-11.057-9.237-11.057l-27.847 87.303 6.509 19.044-16.213 53.163-13.371-16.961-21.601 8.686 17.339-55.992 16.019-11.51 28.844-86.007-16.008 2.004 40.21-51.825z" fill="#00cede" stroke="#000" stroke-width="1.484"/><path d="M629.973 243.748s-33.681 53.773-33.802 53.545c-.122-.229-2.951-14.104-2.951-14.104l-55.345 51.34-59.098 57.025-.163-11.745-20.222-2.497 26.747-20.465 13.697-2.257 86.345-78.263-15.07-5.762 59.862-26.817z" fill="#00cede" stroke="#000" stroke-width="1.484"/><path d="M478.817 379.717c.366-.764 30.729-26.707 30.729-26.707" fill="none" stroke="#000" stroke-width="1.515"/><path d="M611.978 198.259s-16.462 61.278-16.645 61.095c-.183-.182-6.95-12.621-6.95-12.621l-66.764 114.691 2.743 19.938-23.961 43.901-9.878-19.207-22.863 4.391 25.607-46.462 17.926-8.231 67.494-113.229-16.096-1.097 49.387-43.169z" fill="#00cede" stroke="#000" stroke-width="1.484"/><path d="M490.89 405.325c0-.365 23.047-40.608 23.047-40.608" fill="none" stroke="#000" stroke-width="1.484"/><path d="M37.632 186.735l40.241.183-4.024 9.695 17.56 69.51 21.218-69.327-7.5-10.061h41.887l-8.963 9.695-34.57 99.326 8.962 12.987H72.202l8.963-12.987-33.839-98.96-9.694-10.061zM654.963 189.113h38.229l-6.219 8.597-.184 101.155 8.598 9.512h-40.424l8.048-10.243-.183-100.241-7.865-8.78z" fill="#00cede" stroke="#000" stroke-width="1.484"/><path d="M353.586 97.64s4.902 6.157 6.727 6.727c1.824.57 12.085 5.587 11.516 9.007-.57 3.42-7.297 5.131-7.297 5.131M361.681 88.519l10.261 9.805s1.824 8.437 9.121 7.753c7.297-.684 6.271-3.763 6.271-3.763s-8.778-6.157-15.733-4.675" fill="none" stroke="#000" stroke-width="1.484"/><path d="M299.116 397.538l13.705-11.383s-3.02-6.272-13.938-6.04c-10.22-7.2-27.873-24.158-27.873-24.158l-8.827-23.926s7.201-2.09 8.827-7.897c1.625-5.808-.465-13.009-1.162-13.705-.697-.697-7.897 1.161-9.988 4.181-2.091 3.021-5.343 14.635-10.221 10.686s.697-8.362.697-8.362 4.878-6.039 4.646-9.292c-.232-3.252-6.503-13.008-7.201-13.24-.697-.232-2.09 12.776-3.949 14.17-1.858 1.395-4.413 7.201-8.13 3.949-3.716-3.252 1.858-8.131 1.858-8.131s10.453-5.574.232-23.926c-3.02 7.898-8.826 13.008-8.826 13.008s-2.788 4.879-5.343.697c-2.555-4.181 3.02-8.13 3.02-8.13s9.059-5.343 9.292-13.241c.232-7.897-10.917-16.957-10.917-16.957s-.696 14.635-4.181 16.493-4.878 4.878-8.827 1.626 3.02-10.453 3.02-10.453 12.079-12.079 11.382-19.048-1.394-8.13-1.394-8.13-9.059 5.575-10.22 8.362c-1.162 2.788-4.878 12.776-9.524 9.756-3.252-3.716 2.788-10.917 2.788-10.917s4.413-4.878 4.181-6.969c-.232-2.091-3.716-8.362-10.453-14.402-.929-1.858-1.394-9.292-1.394-9.292s-5.11 6.04-4.877 9.292c.232 3.252-.465 9.756.232 16.957.697 7.201-5.575-2.323-5.575-2.323l1.162-23.229s-8.827-10.686-19.512-14.634c3.949 5.807 3.716 11.382 3.716 11.382s-4.413 9.524-4.413 12.079 5.11 13.705 14.634 21.138c-14.402-15.563-32.287-10.453-37.63-13.473 2.555 3.02 10.221 14.402 9.292 17.422s13.705 9.292 13.705 9.292l15.563.232s7.665 5.342 8.362 8.826c.697 3.485-11.149-6.504-15.795-6.271-4.646.232-16.957-1.625-16.957-1.625s7.433 6.968 7.665 9.988c.232 3.02 3.484 9.988 7.898 11.847 4.413 1.858 16.259 2.556 16.259 2.556s5.11-3.021 6.04.231c.929 3.252-6.736 5.808-6.736 5.808s-7.897 0-10.453-2.091-3.02-5.575-14.401-6.969c-1.162 9.524 6.271 19.28 6.271 19.28s31.358-2.555 31.125 4.182c-.232 6.736-26.015.696-26.944-1.395-.929-2.09 1.162 13.24 7.201 16.492s19.512 1.627 21.138.93 7.665-1.394 7.665 2.091-30.661 6.272-31.125 5.343c-.465-.93 4.646 11.847 16.957 11.15 12.311-.697 17.653-4.414 17.653-4.414s7.433-1.395 8.129 1.626c.697 3.02-7.433 4.413-7.433 4.413s-19.512.465-20.208-.465c-.697-.929 4.414 12.312 18.118 12.08 10.221-.93 10.917-5.344 13.008-6.04 3.02-.696 9.524-.696 10.453-.464.929.232 17.189 11.613 17.189 11.613l41.344 41.814z" fill="#188400" stroke="#000" stroke-width="1.484" stroke-linejoin="round"/><path d="M179.26 214.028s-.465 22.3 10.685 29.037M202.72 231.682s7.433 11.382-5.11 15.563M164.161 239.348s-.929 12.775 21.603 11.847M219.909 250.498s-3.716 9.059-12.775 8.594M228.271 270.939c0 1.161 1.626 13.473-10.22 13.24M171.594 265.828s14.866 9.293 21.602 8.596M174.846 288.361s6.968 7.434 19.744 5.574M236.168 293.471c0 .93-2.322 8.131-7.433 9.061M186.46 309.965s5.575 7.2 20.208 3.252M250.105 306.944s-2.323 11.382-8.362 11.614M264.274 319.256s-4.646 13.705-16.492 11.614M209.688 343.646s4.646 4.182 16.027-.93M196.913 329.709c.929 0 6.736 4.878 20.673-2.555M299.094 380.467s-8.679 3.886-.259 16.969" fill="none" stroke="#000" stroke-width="1.484" stroke-linecap="round" stroke-linejoin="round"/><path d="M469.593 266.324s9.121 8.757 9.304 10.582c.183 1.824 2.372 10.398 4.743 11.676s11.676 8.757 12.953 11.676c1.276 2.92 9.486 15.325 9.486 15.325s7.662 15.689 12.77 16.967c5.108 1.276 19.521-.912 22.439 6.021s2.189 16.967 2.189 16.967-3.467 3.102-5.108 1.277-4.561 9.121-9.669 6.02c-6.958-14.815-25.168-12.397-25.168-12.397s4.006-6.211-12.23-11.685c-25.358 4.379-32.838-22.074-32.838-22.074l-14.434-12.52 25.563-37.835z" fill="#ffd600" stroke="#000" stroke-width="1.484"/><path d="M454.998 303.906l11.311 5.291-.912-9.669M471.052 302.447l10.398 5.108-4.195-8.392M470.505 288.765l10.216 5.473-4.743-10.581M486.741 338.935s-11.676-15.325-11.493-15.325 19.885 3.831 19.885 3.831l-7.297-15.689 18.061 4.743M520.309 341.307s11.493 2.555 11.128 21.711M526.328 338.388s12.406-.729 11.676 18.608M312.38 268.698s-9.122 8.757-9.304 10.581c-.183 1.824-3.885 9.264-6.256 10.541-2.372 1.277-10.541 9.514-11.818 12.434-1.277 2.919-9.108 15.703-9.108 15.703s-8.986 13.041-14.094 14.318c-6.243.521-18.196 1.736-21.115 8.668-2.919 6.934 1.594 17.535 4.999 17.535 5.107 2.27 7.438 4.614 9.08 2.79 2.776.823 1.188 3.2 6.297.099-3.883-4.976-3.468-9.784.424-11.045 3.882-1.328 10.205 4.58 10.205 4.58s2.302-10.743 18.539-16.217c25.358 4.379 32.172-16.084 33.947-20.965 3.998-5.442 10.216-6.891 15.324-10.336l-27.12-38.686z" fill="#ffd600" stroke="#000" stroke-width="1.484"/><path d="M327.418 304.062l-11.755 6.178.912-8.338M311.808 302.381l-11.064 5.107 5.083-8.613M312.133 288.92l-9.55 4.142 3.412-7.032M295.675 338.868c1.775-3.55 10.788-14.659 10.605-14.659-.182 0-18.554 3.832-18.554 3.832l5.966-15.469-16.064 3.19M262.42 341.222s-13.952 2.554-8.48 19.818" fill="none" stroke="#000" stroke-width="1.484" stroke-linecap="round" stroke-linejoin="round"/><path d="M256.4 338.87s-15.242.405-9.973 19.365" fill="none" stroke="#000" stroke-width="1.484"/><path d="M424.325 324.893c0-.189 5.107 12.862-5.863 15.132 28.183-2.08 36.127 30.075 36.127 30.075" fill="none" stroke="#000" stroke-width="1.854" stroke-linecap="round" stroke-linejoin="round"/><path d="M417.895 329.622s2.459 9.458-5.674 14.187c29.506 6.432 36.315 37.074 36.315 37.074" fill="none" stroke="#000" stroke-width="1.484" stroke-linecap="round" stroke-linejoin="round"/><path d="M411.652 333.973c0 .379 2.838 12.295-6.431 14.187 18.348-4.919 37.451 41.613 37.451 41.613" fill="none" stroke="#000" stroke-width="1.484" stroke-linecap="round" stroke-linejoin="round"/><path d="M402.763 339.269s4.729 9.078-3.972 11.916c16.455 1.702 21.752 55.8 21.752 55.8" fill="none" stroke="#000" stroke-width="1.484" stroke-linecap="round" stroke-linejoin="round"/><path d="M397.089 342.484s2.647 10.025-5.863 13.051c17.212-9.078 13.996 60.908 13.996 60.908M385.74 343.052s-3.594 10.593 4.351 12.673c-15.699-4.35-12.673 60.719-12.673 60.719" fill="none" stroke="#000" stroke-width="1.484" stroke-linecap="round" stroke-linejoin="round"/><path d="M378.363 338.891s-2.459 9.646 7.188 14.564c-16.077-10.214-22.697 54.287-22.697 54.287M403.898 347.781s29.316 28.184 29.128 48.99M357.558 325.082c0 .189-3.594 15.133 6.81 15.511M364.935 330.568c0 .378-2.838 12.672 5.484 13.24M371.555 334.162s-5.107 12.295 7.376 13.997M377.985 348.348c-.189 0-24.399 22.51-28.183 48.612M373.445 346.078c-.188 0-30.83 19.104-32.911 43.505M366.637 342.863s-34.046 19.86-32.533 37.83M358.503 338.512s-25.345 4.729-31.587 31.967" fill="none" stroke="#000" stroke-width="1.484" stroke-linecap="round" stroke-linejoin="round"/><path d="M305.05 164.236s24.51 13.536 42.07 12.804 43.899-12.073 43.899-12.073 23.412 13.17 42.436 11.341c19.022-1.829 45.362-12.072 45.362-12.072 15.73 78.534-20.12 149.02-87.798 180.726-71.824-32.804-106.699-111.704-85.969-180.726z" fill="none" stroke="#000" stroke-width="1.484"/><path d="M189.383 91.884s16.522 9.124 28.358 8.631c11.837-.493 29.591-8.138 29.591-8.138s15.782 8.877 28.605 7.645c12.823-1.233 30.577-8.138 30.577-8.138 10.603 52.935-13.562 100.445-59.182 121.817-48.414-22.112-71.922-75.293-57.949-121.817z" fill="#fff" stroke="#000" transform="matrix(1.48352 0 0 1.48359 24.096 27.918)"/><path d="M314.083 221.308v49.103l13.926 23.48v-72.583h-13.926zM341.934 221.308v88.908l13.926 12.962v-101.87h-13.926zM369.786 221.308v112.393l13.926 7.732V221.308h-13.926zM467.268 221.308v49.116l-13.926 23.684v-72.8h13.926zM439.417 221.308v89.345l-13.926 12.7V221.307h13.926zM411.565 221.308v112.18l-13.926 8.295V221.308h13.926z" fill="#be0a2f"/><path d="M189.383 91.884s4.131 2.281 9.74 4.5c5.61 2.22 12.699 4.377 18.617 4.13 11.837-.493 29.591-8.138 29.591-8.138s15.782 8.877 28.605 7.645c12.823-1.233 30.577-8.138 30.577-8.138 2.59 15.371 3.884 23.221 1.603 38.469H186.085c-1.552-15.216-1.469-22.111 3.298-38.468z" fill="#002768" stroke="#000" transform="matrix(1.48352 0 0 1.48359 24.096 27.918)"/><path d="M305.05 164.236s24.51 13.536 42.07 12.804 43.899-12.073 43.899-12.073 23.412 13.17 42.436 11.341c19.022-1.829 45.362-12.072 45.362-12.072 15.73 78.534-20.12 149.02-87.798 180.726-71.824-32.804-106.699-111.704-85.969-180.726z" fill="none" stroke="#000" stroke-width="1.484"/></svg>