<svg xmlns="http://www.w3.org/2000/svg" height="496.063" width="826.76"><path font-size="12" fill="#fff" fill-rule="evenodd" d="M0 0h826.76v248.031H0z"/><path font-size="12" fill="#00ab39" fill-rule="evenodd" d="M0 248.032h826.76v248.031H0z"/><path d="M541.625 28.563c-52.282 28.904-99.066 58.982-145.063 97.312-22.06 19.27-15.834 34.632-16.687 51.938.711 11.618-2.511 22.426-9.656 28.937-16.35 3.306-32.714 6.631-49.063 9.938-1.566-4.523-3.121-9.041-4.687-13.563 1.495-6.94 7.231-10.352 19.312-6 .952-8.923-6.227-12.555-14.625-15.656-2.885-2.246-6.468-3.972-6-11.688-1.412-17.467 26.615 1.25 26.875 1.25.261 0-.933-17.627-13.812-21.156-7.022-2.485-9.994-9.892-7.313-15.375 5.618-11.209 16.193.878 24.281 1.313-.303-7.317-2.386-12.532-8.687-18.438-3.392-2.087-11.722-3.657-11.938-7.156-.177-4.752 7.808-6.784 18.782-5.469-2.288-6.66-9.668-10.968-19.813-14.094l-6-10.437c-2.84-5.26-4.115-5.402 2.469-15.375 5.915-3.827 13.774-9.236 19.688-13.063L333.156 51c.87-7.131.97-9.53 2.625-21.375-6.346 8.672-14.275 7.122-21.406 10.688 0 0-20.33 3.609-26.875 12.25-.261 0-51.125-2.594-51.125-2.594-10.84 1.51-20.1 4.582-21.906 15.125-24.792 2.502-50.755.289-69.656 24 12.87-.609 24.135-3.674 38.593-1.813 0 0 12.321.233 14.875 13.281.261.522 4.188.532 4.188.532 1.566 1.217 3.121 2.439 4.687 3.656.61-1.652 1.204-3.317 1.813-4.969l4.187 2.875c.434-1.826.879-3.642 1.313-5.469 1.392.957 2.764 1.919 4.156 2.876.087-2.175.195-4.358.281-6.532l5.469 3.906v-8.593s20.192-.048 26.344 12.781c.262.261-56.67 10.463-111.656 5.75 5.306-2.609 10.6-5.235 15.906-7.844-20.05-4.076-38.9-7.76-56.594-21.656 6.677 25.137 41.181 54.663 48.25 54.531 0 .261-6.781-12.25-6.781-12.25 19.916.87 39.835 1.725 59.75 2.594 2.175 6.61 1.213 14.02 6.531 19.844 0 0-3.299 10.925 4.031 15.375.262.52 8.75-22.156 8.75-22.156s2.6 6.1 5.219 10.156c3.795-19.508 25.031-22.688 25.031-22.688s4.438 10.177 4.438 10.438c-6.636.96-14.89 14.486-10.438 21.906-4.45.085-12.351 13.186-9.906 20.344-3.741 3.723-13.059 8.686-10.688 24.281-7.334 1.572-11.676 14.99-9.406 29.219-11.349 10.564-8.563 29.955 1.563 37.812-4.203 3.74-6.79 6.616-6.781 11.219-3.996-1.485-7.68-.244-9.407 2.375-4.898-5.021-11.932-9.418-16.937-4.719-1.296-5.94-9.032-12.475-17.5-11.719.496-6.264-2.755-14.017-11.719-16.718 0 0-1.814-29.358-10.719-38.875-.873-5.326.51-8.948 7.844-13.313 7.323-3.906 8.879-6.935 8.344-18 2.887-7.396 5.08-14.936-3.906-20.062.27 8.795-2.43 13.031-6 16.937-4.266-.62-5.755 4.357-8.625 6.531-4.016-5.413 8.471-13.798-.782-25.843-.52-.523-6.459-15.723-21.125-15.375 6.971 4.082 9.92 10.95 9.906 18-4.623 13.045-6.973 23.127-2.343 38.094-6.093-9.13-9.549-26.482-14.594-29.5-4.422-.863-6.582-11.322-23.75-8.344 7.406 1.992 9.757 7.647 11.75 12.781-4.541 2.342-2.285 8.52 1.031 12.781-.63 10.015 5.37 15.866 14.344 19.594-1.478 13.653-2.96 27.284-4.438 40.938-3.564-.455-9.05 13.424-11.218 13.843-3.489 2.171-9.581 8.01-2.594 9.656-2.076 7.491-4.001 12.009-15.156 13.563 0 0 11.786 6.991 21.562-4.969 10.474-.262 7.03-12.752 12.094-18.25 0-.26 2.874-2.065 7.063-13.062 1.831 9.819 11.907 39.888 34.687 54.812 19.856 21.256 36.175 41.33 36 69.656 7.75-7.209 12.379-18.625 15.938-29.5 10.777-3.748 26.191-5.179 39.937-4.562-2.358 4.961-4.997 9.722-1.594 12.938-9.593 3.295-11.695 10.256-7.844 17.218-10.112 6.867-10.777 11.28-10.937 22.688-18.708 23.985-30.25 23.189-48.781 16.969-6.086-3.572-15.505-8.714-19.844-6-8.004-5.334-19.512-6.127-21.406 6 6.006-4.978 9.592-4.02 14.375.78-.962 2.437-1.766 4.863 1.812 6.25-1.566 1.74-3.121 3.48-4.687 5.22-8.613-1.324-20.194-1.25-23.219 11.218 4.424-3.665 14.24-4.525 22.156-1.031 1.48.522 2.959 1.04 4.438 1.563.174 2 .358 4 .531 6 0 0-11.732-1.812-14.875 17.218 11-11.702 18.781-8.625 18.781-8.625 4.24 6.205 19.84 5.27 31.063-4.937 15.762-8.812 20.357 3.851 30.531-4.438 8.436-6.292 18.417-2.108 25.281 5.219 7.915 2.969 16.2 5.413 22.719 0 0 0 7.963-5.081 15.906 3.125.087-9.253-6.47-14.169-15.375-14.344-.87-.87-.359.34-2.625-2.625-8.349-1.74-17.73-1.034-25.031-5.219 3.442-13.065 8.457-24.903 18.25-34.968 12.088-12.958 20.987-18.85 36.25-38.688-.589 11.211 8.003 23.676 12.531 35.063 0 0 9.117-14.555 10.438-26.375.26 0 11.423-5.81 16.187-10.75 10.056 6.237 26.446-4.993 37.031-14.281 6.525 2.47 11.479 2.293 19.063 0-6.088 12.39 3.521 23.884 18.781 28.687 1.411 10.938 12.459 13.227 29.219 13.313.706 6.436 10.688 7.312 10.688 7.312-6.307 2.94-9.595 5.886-9.375 12.531-6.465.044-11.361 1.671-13.063 9.125-8.876.152-17.922.833-25.563 5.219-8.175-1.269-18.12-4.657-24.53-11.219-3.307-2.783-4.132-6.796-9.907-8.344-3.66-4.326-8.04-3.36-9.406.782-3.783-2.955-17.972-4.328-20.344 9.125 6.624-4.848 12.564-6.696 16.719-.781-2.264 4.107 5.516 6.455 12.25 8.093 4.776.296 13.247 4.647 15.906 12-6.16 1.87-15.496 1.253-21.656-3.406-5.476-4.582-12.873-4.036-16.938-1.031-5.64-3.596-19.07 3.192-19.594 14.062 5.658-5.184 10.809-7.691 15.938-4.406-2.553.606-1.583.855-1.313 2.344l13.032 7.562c-6.394 1.687-12.405 4.237-9.625 16.156 0 0 5.208-10.296 16.937-6.5.261-.26 1.617 3.678 4.969 1.032 5.076-5.776 16.682-8.362 26.875-9.375 8.18-.977 16.347-3.387 23.469 1.281 6.34-3.262 13.4-5.456 20.625-.25 8.523 2.696 14.745 12.63 25.562 8.094 5.38-3.723 11.99-3.912 18.781 3.656.083-9.543-7.068-12.742-17.218-14.875-2.35-1.393-4.682-2.796-7.031-4.188-6.522-.957-13.072.2-19.594-2.875 34.134-8.824 58.062-27.859 74.906-55.03 5.392 1.912 10.764 3.804 16.156 5.718 3.825.245 4.117 1.575 12 3.938.297-11.614-4.688-23.578-25.562-24.782l-27.406-10.437c-5.817-6.135-8.447-19.152-1.032-26.875 7.258-6.463 8.525-5.689 13.313-13.563 5.822-.53 11.31 5.469 16.687 5.469 2.554 7.587 17.274 14.294 26.625 12 5.86 5.187 17.008 8.07 29.219 3.906 6.93 6.067 15.959 8.6 26.594 3.906 2.823 2.823 8.783 5.069 15.656 3.657.522 0 3.473 7.541 10.969 10.187-3.268 3.176-1.259 16.966 2.093 21.906-2.288 5.302-3.008 10.959-1.062 16.438-7.559 4.86-9.098 8.476-5.719 16.688-9.899 15.906-21.74 17.724-32.875 12.812-4.002-2.522-7.998-5.07-12-7.594-4.26-4.175-8.52-8.325-12.781-12.5-2.17-2.037-6.66-2.677-7.594 1.813 0 0-16.4-3.658-17.718 10.187 6.797-6.62 16.437-.792 16.437-.531s-2.296 1.823-.531 4.469c.397-.331 11.973 4.32 22.281 8.75 5.6 2.122 6.83 2.786 9.281 4.094a446.517 446.517 0 00-9.281-4.094c-6.275-2.379-12.388-4.28-14.188-3.813-5.84-.545-12.035-1.27-14.875 3.125-6.277 2.656-16.083 4.784-15.656 16.438 4.24-6.94 10.055-6.647 17.469-6-.174.522-.326 1.04-.5 1.562 8.05 3.667 6.523-.998 14.031-1.687 6.277-.576 15.174 1.672 19.875 3.25-5.913 1.739-13.954 1.01-17.75 5.219-.696 1.392-3.131.823-2.062 4.156 0 0-11.534-.298-14.625 15.656 11.728-7.509 20.615-7.281 20.875-7.281.26 0 3.656.781 3.656.781s14.084-9.406 14.344-9.406c.262 0 13.637-5.923 19.812.781 5.39 2.649 11.153 2.818 16.719-.531 10.966-4.77 21.23-5.104 31.313 1.594l9.125 5.468c1.304-.869 2.602-1.755 3.906-2.625 0 0 10.329-2.917 17.906 6.281-3.132-15.915-14.5-16.437-14.5-16.437-.87-.783-1.756-1.56-2.625-2.344-5.392-2.087-10.764-4.194-16.156-6.281-2.354-5.826-8.268-10.465-2.375-17.469 6.02-29.926 13.217-52.4 1.562-82.719 10.871 4.696 19.005 19.217 32.625 14.094 0-12.176-44.822-35.294-79.062-53.875 56.094-2.87 123.514-44.277 97.593-96.906 4.088-12.697 8.162-25.397 12.25-38.094 5.77 11.623 17.454 20.483 27.938 24.25-8.641-16.496-13.6-66.93-8.625-101.75-22.603 27.922-47.563 52.702-74.094 77.875 13.05 3.05 24.453.904 37.063-.656-3.566 7.305-7.029 14.633-10.594 21.938-34.473-20.188-74.947-5.038-75.25 21.906 1.179 31.42 40.028 35.886 62.438 24.937-4.443 28.647-70.282 18.094-70.282 18.094-23.394-8.064-45.614-6.683-70.187-6.5 5.106-15.71 33.46-29.652 55.062-23.5-30.243-33.909 4.275-76.008 45.907-88.969-45.376-14.966-6.305-49.558 27.656-74.344 0 0-97.66 41.101-106.563 40.97-27.755-2.096-20.136-35.045-9.531-52.72zm-311.27 39.974c1.006-.545 7.479-.74 11.714.291 4.404 1.073 9.746 1.692 9.672 3.003-2.039 3.413-7.033 7.527-11.954 7.28-4.922-.248-7.792-3.178-9.432-10.574z" font-size="12" fill="#d21034" fill-rule="evenodd" stroke="#000" stroke-width="1.723" stroke-linejoin="round"/><path d="M667.73 194.658c-3.6 10.372-34.84 15.678-36.934.326-1.066-7.816 18.502-19.872 36.935-.326z" font-size="12" fill="#fff" fill-rule="evenodd" stroke="#000" stroke-width="2.034"/><path d="M715.956 116.251s-2.136 25.915-5.268 31.184" font-size="12" fill="none" stroke="#000" stroke-width="1.838" stroke-linecap="round"/><path d="M703.853 117.675c0 .142-10.822 29.191-10.822 29.191" font-size="12" fill="none" stroke="#000" stroke-width="1.725" stroke-linecap="round"/><path d="M682.472 168.838c2.167 1.686 10.539 6.154 16.069 16.496M668.03 195s7.79 6.799.937 23.204M552.061 243.408c15.38-1.851 37.449 32.323 48.698 39.016M666.118 430.372s-6.408 4.698-2.99 10.822M558.469 436.067s7.688 2.136 6.835 8.544M542.948 413.712s5.553 5.839 1.851 10.679M551.776 391.214s7.404 3.559-1.424 9.683M458.793 430.087s-6.408 5.411-1.708 11.535M349.577 431.654s11.677.569 7.547 9.397M340.891 412.003s3.901 7.23-3.646 9.223M355.557 387.938s3.846 7.689-3.56 8.686M347.156 429.945s11.249-9.683 16.518-4.557c5.268 5.126 27.624-4.413 27.624-4.413M398.988 406.592l-18.511 9.682M425.046 401.324s13.669 14.667 23.637-3.134M438.289 392.067c9.255 7.404 5.463 11.841 34.513-7.666M447.117 379.679s24.776 2.564 25.915 4.415c2.849-2.991 24.972-20.911-2.225-23.473-4.555 18.654-23.263 19.343-23.69 19.058zM152.427 435.116s9.123 1.336 3.782 8.678M148.422 417.759s6.675 4.229-.89 9.791M158.881 399.29s3.115 8.01-7.344 6.898M152.204 429.108s12.685-10.459 19.36-4.005c6.454 2.226 10.013 1.78 10.013 1.78M266.358 428.441c-.223 0-3.783 7.565-.667 11.347M153.318 411.974c8.01-.445 9.735 3.172 17.023 3.172 8.396.256 16.577-3.172 27.259-6.065M99.022 171.205s5.118 2.448 10.014-5.117M95.907 267.334s8.233 2.448 6.898 8.679M127.727 157.409s0 4.895 10.236-2.67M138.854 180.552s-7.789 20.917 1.557 25.811M148.199 174.766s4.005 8.679 9.569 3.783M139.744 119.803l-6.454-10.458 5.786-2.003M204.053 66.62s6.23 7.789 6.452 12.239c.223 4.45-4.672 7.788-4.672 7.788M199.601 76.189s-1.334 4.673-1.779 7.788c0 2.225-7.122 5.118-7.122 5.118M284.828 53.047c.222.222-.891 6.23-4.229 9.79M223.857 69.736s9.774-2.69 17.088-1.165c7.245 1.489 16.958 4.058 16.958 4.058s11.57-1.558 15.354-4.228" font-size="12" fill="none" stroke="#000" stroke-width="1.838"/><path d="M234.761 68.178l12.016 2.225s-8.456 11.349-12.016-2.225z" font-size="12" fill-rule="evenodd" stroke="#000" stroke-width="1.838" stroke-linejoin="round"/><path d="M251.004 101.779l15.8 30.263 7.565-11.349 4.006 7.788 6.453-11.348 11.126 7.12-4.228-13.796 9.345-.667s-2.448-6.676-10.904-8.011c2.226-1.78 10.014-6.898 10.014-6.898s-4.449-5.118-11.348-5.34c2.225-2.448 5.34-8.457 5.118-8.457-.222 0-6.899-1.557-6.899-1.557s15.8 5.118 28.038-2.003" font-size="12" fill="none" stroke="#000" stroke-width="1.723" stroke-linecap="round" stroke-linejoin="round"/><path d="M199.36 122.834l24.274-.361c7.723-.115 20.442-10.819 34.684-7.481" font-size="12" fill="none" stroke="#000" stroke-width="1.838"/><path d="M202.94 122.251c0-.223 1.78-4.673 1.78-4.673l1.984 5.144 3.193-.083 2.107-5.158 1.73 5.177h3.173l1.957-5.748 2.957 5.443 2.512.127 1.977-6.63 4.077 4.75 1.481-.574 1.27-6.631 4.028 4.638 1.155-.678 1.868-6.535 3.346 4.86 1.684-.55 1.563-5.493 3.11 5.048" font-size="12" fill="none" stroke="#000" stroke-width="1.838" stroke-linejoin="round"/><path d="M304.188 73.741s-12.463-.445-11.573-5.34c.892-5.563 13.13-9.569 13.13-9.569s16.243-10.458 18.691-14.019M307.079 52.602s4.006-4.006 10.682-2.003M207.612 278.683s-1.557 7.788 9.346 23.365c-3.115 17.356 13.195 30.996 19.649 33.221M151.917 247.548c-12.238 6.899 6.964 50.494 65.041 54.722M198.442 280.789s4.052 12.803.714 18.812M181.734 276.2s-4.829 9.382-5.942 13.832M164.275 264.527s-3.615 7.703-8.066 9.929M370.276 206.363s15.576-.222 31.153-42.501C416.783 106.007 538.502 41.476 540.95 29.459" font-size="12" fill="none" stroke="#000" stroke-width="1.838"/><path d="M414.618 138.138c22.867-12.693 93.476-38.575 140.574-57.561" font-size="12" fill="none" stroke="#000" stroke-width="1.838" stroke-linecap="round"/><path d="M651.728 42.86s-216.193 101.016-219.34 106.367c36.505-11.016 191.333-36.82 195.11-34.617-9.126 2.203-196.998 45.315-205.81 55.701 46.889-1.574 145.075 15.105 160.494 31.154-33.358-7.552-133.115-22.343-163.64-15.735 22.344 5.351 107.939 60.737 107.939 69.548-12.902-12.272-115.807-54.757-119.897-50.665 23.6 14.161 56.96 66.714 56.958 79.617-6.923-11.014-66.4-74.898-69.861-70.807 6.294 8.813 18.766 84.222 12.39 87.717 0-9.126-23.09-75.129-24.978-77.017-4.721 1.258-34.152 80.528-28.321 87.899-3.776-26.433.628-81.604 7.866-79.402-12.901 1.888-54.078 56.18-49.673 64.677 1.259-13.532 3.1-22.507 26.386-67.509-25.805 1.572-79.302 35.246-88.43 47.204 7.239-21.398 52.555-57.59 72.381-60.107" font-size="12" fill="none" stroke="#000" stroke-width="1.838" stroke-linejoin="round"/><path d="M249.28 123.212l12.975.161M198.025 99.52s8.722 3.337 26.812-10.984M256.28 264.055c-5.168-6.676 3.876-109.188 23.044-135.893-6.676 48.241 15.506 97.558 21.105 97.343M253.264 133.115s9.046 9.907 19.384 8.184M243.144 155.728s4.522 7.753 21.751 9.045M233.187 176.118s11.679 14.283 27.4 12.13M222.684 200.523s3.229 10.553 34.243 11.199M213.638 230.244s14.43 12.92 41.566 8.829M215.146 267.501s18.52 10.337 41.349-3.661M528.497 227.013s-12.922 10.984-.862 28.643c-40.058-.645-61.592 17.875-63.315 30.365-51.041-3.66-41.78 11.416-58.364 16.368-22.182-18.521-54.702-8.183-52.548 10.337-14.861-20.89-37.688-10.767-40.487-5.599-2.8 5.169-1.723-25.628-1.723-25.628s-14.86 6.677-25.199 18.952c.217-8.183 0-21.536 0-25.843-12.418 2.512-24.407 2.654-37.257 2.369M259.992 277.09c-.216 0-21.372 33.268 11.794 42.098" font-size="12" fill="none" stroke="#000" stroke-width="1.838"/><path d="M310.768 296.79s-5.385 2.584-7.323 2.153c-6.461 1.508-5.17 16.584 3.014 15.722 2.799-3.23 5.815-7.753 5.815-7.753" font-size="12" fill="none" stroke="#000" stroke-width="1.838"/><path d="M299.137 305.835s-2.368 3.232-6.03-.215c-1.939-3.445-8.829 15.507 3.231 16.152 2.153-5.6 8.83-7.107 8.83-7.107M289.23 312.941c-9.476-.646-14.644 20.245 3.662 7.11" font-size="12" fill="none" stroke="#000" stroke-width="1.838"/><path d="M282.554 315.958s-10.553-8.184-10.121 3.23c-.217 7.106 3.229 8.829 3.229 8.829.43 5.169 4.954 12.49 8.614 5.815 1.508-6.461-1.076-9.261-1.076-9.261" font-size="12" fill="none" stroke="#000" stroke-width="1.838"/><path d="M227.206 388.318c-.215 0 1.723 14.215 11.63 3.446 6.891-14.428 28.643-55.132 33.597-69.131" font-size="12" fill="none" stroke="#000" stroke-width="1.838"/><path d="M257.357 311.435s-15.291 4.307-9.476 22.397c8.829 7.108 17.444 6.03 17.444 6.03M246.158 348.047s10.337 4.522 13.783 2.799M238.303 365.776s4.624 8.114 11.086 5.313M320.459 301.959s1.291 21.751-5.169 29.504c-6.462 7.753 1.513 23.856 1.513 23.856M336.826 300.882c.215.43 4.091 34.673-4.524 44.364M369.776 293.991s12.636 24.449-.071 36.509M405.956 301.527s-7.323 21.753-17.66 29.074M441.922 302.389s-34.028 58.148 28.858 58.148M395.619 323.063c0-.215 34.845.097 37.213 6.557M407.033 359.246c.431-.432 24.982-2.801 29.505-11.631M436.563 372.458c.216 0 15.05-8.905 12.036-15.152M435.246 285.806c1.722 22.613-26.059 35.535-37.043 33.382M433.093 299.374s19.383 9.476 35.964-5.815M464.535 286.238s7.323 13.136 16.152 12.275c11.629-3.446 15.936 3.661 15.936 3.661M513.422 256.087s-.862 32.735 45.225 39.41c51.472 14.215 75.807 6.677 78.823 64.394-1.938 21.967-4.668 46.778-20.604 37.301M622.61 380.565s7.607 6.391 12.776-2.007M623.618 363.628s9.399 1.697 13.706-7.347M620.982 341.687s10.167 2.534 13.397-4.143M621.317 314.88s-7.727 15.126-10.526 16.634M601.289 305.19s.432 16.151-6.46 22.612M579.538 301.312s-.215 13.353-11.199 22.613M539.05 319.834c.215-.216 17.659-19.383 13.137-25.198M533.235 286.883s-2.299 18.453-20.82 21.252M254.866 250.979s35.657-21.381 37.595-37.102M256.065 232.397c0-.215 22.33-5.693 31.591-30.244M256.71 218.829c1.94.861 26.367-16.732 27.014-29.653M258.218 203.108c7.107-1.938 20.183-17.753 22.767-26.152M261.449 186.094s10.122-7.107 17.875-17.875M265.369 165.906c.215 5.815 9.437-2.048 13.098-7.002M285.354 227.66l4.308 5.383M276.246 236.047l2.862 4.534M266.403 244.242c0 .215 3.445 4.954 3.445 4.954M260.372 247.688s.215 6.891 3.661 7.321M261.879 230.244s3.877 13.137 7.323 10.982M271.786 223.997c.215.432 4.307 12.277 4.307 12.277M280.401 216.029l5.168 10.338M274.58 206.118c.216.215 5.606 7.974 7.112 6.897M266.833 213.23s3.015 11.845 5.383 10.767M256.539 222.12l5.556 8.339M264.68 199.231s1.938 12.491 3.66 12.061M271.884 192.113c0 .215 5.501 10.565 5.932 10.565M260.802 190.616c.215 0 6.031 6.677 6.031 6.677M269.417 180.279c.215.216 4.954 8.184 4.954 8.184M271.786 165.851s0 9.259 1.938 9.476M267.264 158.743l4.737 6.891" font-size="12" fill="none" stroke="#000" stroke-width="1.838"/></svg>