<?xml version="1.0" encoding="UTF-8"?>
<svg width="1600px" height="780px" viewBox="0 0 1600 780" version="1.1" xmlns="http://www.w3.org/2000/svg" xmlns:xlink="http://www.w3.org/1999/xlink">
    <!-- Generator: Sketch 49 (51002) - http://www.bohemiancoding.com/sketch -->
    <title>Group</title>
    <desc>Created with Sketch.</desc>
    <defs>
        <polygon id="path-1" points="0.249644284 76.2844988 32 68.0802715 90 83.0979785 114 49.0578427 155 31.0365944 209 31.0365944 220 68.0802715 291 68.0802715 317 83.0979785 357 63.0743692 430 22.0259702 460 42.0495795 491 42.0495795 528 20.0236093 556 22.0259702 617 31.0365944 648 31.0365944 704 53.0625646 733 31.0365944 779 12.0141656 828 22.0259702 860 63.0743692 906 68.0802715 928 93.1097831 970 77.0908957 1051 42.0495795 1076 68.0802715 1105 73.0861738 1157 49.0578427 1211 73.0861738 1271 42.0495795 1371 31.0365944 1437 38.0448576 1463 7.00826324 1507 0 1546 22.0259702 1571 46.5548915 1600.02487 45.0350922 1600.02487 203 0.249644284 203"></polygon>
    </defs>
    <g id="Home" stroke="none" stroke-width="1" fill="none" fill-rule="evenodd">
        <g id="19/01/18-Bitcoin.org-ver3-Desktop-1200px--" transform="translate(0.000000, -584.000000)">
            <g id="//HERO">
                <g id="bottom-hero" transform="translate(0.000000, 585.000000)">
                    <g id="Group">
                        <rect id="Rectangle" fill="#13161F" x="0" y="203" width="1600" height="576"></rect>
                        <g id="ver-3-bg-element">
                            <g>
                                <g id="Group-5" transform="translate(0.000000, 12.000000)" stroke="#D1D1D1">
                                    <polyline id="Path-4" points="0.410551722 188.717487 248 81 427 188 737 215 1157 109 1372 32"></polyline>
                                    <path d="M379,1 L246,82" id="Path-18"></path>
                                    <polyline id="Path-3" points="0.249644284 71.876836 40 35 249 83 109 276 427 186 378 0 736 216 841 78 1158 107 1460 227 1371 30 1567 0 1600.02487 38.3088442"></polyline>
                                    <polyline id="Path-7" points="1566 2 1458 228 1336 273 1159 108 1022 269"></polyline>
                                </g>
                                <g id="Group-5" transform="translate(0.000000, 97.000000)">
                                    <mask id="mask-2" fill="white">
                                        <use xlink:href="#path-1"></use>
                                    </mask>
                                    <use id="Mask" fill="#13161F" xlink:href="#path-1"></use>
                                    <g mask="url(#mask-2)" stroke="#3D3D3D">
                                        <g transform="translate(-43.000000, -85.000000)">
                                            <polyline id="Path-4" points="43.4132604 188.716309 291 81 470 188 780 215 1200 109 1415 32"></polyline>
                                            <path d="M422,1 L289,82" id="Path-18"></path>
                                            <polyline id="Path-3" points="0 112 83 35 292 83 152 276 470 186 421 0 779 216 884 78 1201 107 1503 227 1414 30 1610 0 1710 116"></polyline>
                                            <polyline id="Path-7" points="1609 2 1501 228 1379 273 1202 108 1065 269"></polyline>
                                        </g>
                                    </g>
                                </g>
                                <g id="Group-4" transform="translate(26.000000, 0.000000)">
                                    <g id="Group-3" transform="translate(357.000000, 121.000000)"></g>
                                    <g id="dots" transform="translate(339.000000, 0.000000)">
                                        <circle id="Oval-2" fill="#FF7E00" cx="12.5" cy="12.5" r="3.5"></circle>
                                        <circle id="Oval-2" stroke="#FF7E00" cx="12.5" cy="12.5" r="12.5"></circle>
                                    </g>
                                    <g id="dots" transform="translate(203.000000, 26.000000)">
                                        <circle id="Oval-2" fill="#FF7E00" cx="17.5" cy="67.5" r="5.5"></circle>
                                        <circle id="Oval-2" stroke="#FF7E00" cx="17.5" cy="67.5" r="17.5"></circle>
                                        <circle id="Oval-2" fill="#FF7E00" cx="507.5" cy="202.5" r="5.5"></circle>
                                        <circle id="Oval-2" stroke="#FF7E00" cx="507.5" cy="202.5" r="17.5"></circle>
                                        <circle id="Oval-2" fill="#FF7E00" cx="1141.5" cy="17.5" r="5.5"></circle>
                                        <circle id="Oval-2" stroke="#FF7E00" cx="1141.5" cy="17.5" r="17.5"></circle>
                                    </g>
                                    <g id="dots" transform="translate(1119.000000, 107.000000)">
                                        <circle id="Oval-2" fill="#C4C4C4" cx="12.5" cy="12.5" r="3.5"></circle>
                                        <circle id="Oval-2" stroke="#CACACA" cx="12.5" cy="12.5" r="12.5"></circle>
                                    </g>
                                    <g id="dots" opacity="0.699999988" transform="translate(985.000000, 269.000000)">
                                        <circle id="Oval-2" fill="#C4C4C4" cx="12.5" cy="12.5" r="3.5"></circle>
                                        <circle id="Oval-2" stroke="#CACACA" cx="12.5" cy="12.5" r="12.5"></circle>
                                    </g>
                                    <g id="dots" opacity="0.699999988" transform="translate(1419.000000, 227.000000)">
                                        <circle id="Oval-2" fill="#C4C4C4" cx="12.5" cy="12.5" r="3.5"></circle>
                                        <circle id="Oval-2" stroke="#CACACA" cx="12.5" cy="12.5" r="12.5"></circle>
                                    </g>
                                    <g id="dots" opacity="0.600000024" transform="translate(70.000000, 275.000000)">
                                        <circle id="Oval-2" fill="#C4C4C4" cx="12.5" cy="12.5" r="3.5"></circle>
                                        <circle id="Oval-2" stroke="#CACACA" cx="12.5" cy="12.5" r="12.5"></circle>
                                    </g>
                                    <g id="dots" transform="translate(0.000000, 35.000000)">
                                        <circle id="Oval-2" fill="#C4C4C4" cx="12.5" cy="12.5" r="3.5"></circle>
                                        <circle id="Oval-2" stroke="#CACACA" cx="12.5" cy="12.5" r="12.5"></circle>
                                    </g>
                                    <g id="dots" transform="translate(1296.000000, 273.000000)">
                                        <circle id="Oval-2" fill="#FF7E00" cx="12.5" cy="12.5" r="3.5"></circle>
                                        <circle id="Oval-2" stroke="#FF7E00" cx="12.5" cy="12.5" r="12.5"></circle>
                                    </g>
                                    <g id="dots" transform="translate(387.000000, 186.000000)">
                                        <circle id="Oval-2" fill="#FF7E00" cx="12.5" cy="12.5" r="3.5"></circle>
                                        <circle id="Oval-2" stroke="#FF7E00" cx="12.5" cy="12.5" r="12.5"></circle>
                                    </g>
                                    <g id="dots" transform="translate(1527.000000, 1.000000)">
                                        <circle id="Oval-2" fill="#FF7E00" cx="12.5" cy="12.5" r="3.5"></circle>
                                        <circle id="Oval-2" stroke="#FF7E00" cx="12.5" cy="12.5" r="12.5"></circle>
                                    </g>
                                    <g id="dots" transform="translate(801.000000, 78.000000)">
                                        <circle id="Oval-2" fill="#FF7E00" cx="12.5" cy="12.5" r="3.5"></circle>
                                        <circle id="Oval-2" stroke="#FF7E00" cx="12.5" cy="12.5" r="12.5"></circle>
                                    </g>
                                </g>
                            </g>
                        </g>
                    </g>
                </g>
            </g>
        </g>
    </g>
</svg>