<?xml version="1.0" encoding="UTF-8"?>
<svg width="320px" height="547px" viewBox="0 0 320 547" version="1.1" xmlns="http://www.w3.org/2000/svg" xmlns:xlink="http://www.w3.org/1999/xlink">
    <!-- Generator: Sketch 49 (51002) - http://www.bohemiancoding.com/sketch -->
    <title>bottom hero</title>
    <desc>Created with Sketch.</desc>
    <defs>
        <polygon id="path-1" points="0.0499288568 15.2568998 6.4 13.6160543 18 16.6195957 22.8 9.81156854 31 6.20731887 41.8 6.20731887 44 13.6160543 58.2 13.6160543 63.4 16.6195957 71.4 12.6148738 86 4.40519404 92 8.40991589 98.2 8.40991589 105.6 4.00472185 111.2 4.40519404 123.4 6.20731887 129.6 6.20731887 140.8 10.6125129 146.6 6.20731887 155.8 2.40283311 165.6 4.40519404 172 12.6148738 181.2 13.6160543 185.6 18.6219566 194 15.4181791 210.2 8.40991589 215.2 13.6160543 221 14.6172348 231.4 9.81156854 242.2 14.6172348 254.2 8.40991589 274.2 6.20731887 287.4 7.60897152 292.6 1.40165265 301.4 0 309.2 4.40519404 314.2 9.31097831 320.004973 9.00701845 320.004973 40.6 0.0499288568 40.6"></polygon>
    </defs>
    <g id="Home" stroke="none" stroke-width="1" fill="none" fill-rule="evenodd">
        <g id="22/01/18-Bitcoin.org-ver3--Mobile-320px" transform="translate(0.000000, -512.000000)">
            <g id="//HERO">
                <g id="bottom-hero" transform="translate(0.000000, 513.000000)">
                    <rect id="Rectangle" fill="#13161F" x="0" y="59" width="320" height="487"></rect>
                    <g id="ver-3-bg-element">
                        <g>
                            <g id="Group-5" transform="translate(0.000000, 2.400000)" stroke="#D1D1D1">
                                <polyline id="Path-4" points="0.0821103445 37.7434974 49.6 16.2 85.4 37.6 147.4 43 231.4 21.8 274.4 6.4"></polyline>
                                <path d="M75.8,0.2 L49.2,16.4" id="Path-18"></path>
                                <polyline id="Path-3" points="0.0499288568 14.3753672 8 7 49.8 16.6 21.8 55.2 85.4 37.2 75.6 0 147.2 43.2 168.2 15.6 231.6 21.4 292 45.4 274.2 6 313.4 0 320.004973 7.66176884"></polyline>
                                <polyline id="Path-7" points="313.2 0.4 291.6 45.6 267.2 54.6 231.8 21.6 204.4 53.8"></polyline>
                            </g>
                            <g id="Group-5" transform="translate(0.000000, 19.400000)">
                                <mask id="mask-2" fill="white">
                                    <use xlink:href="#path-1"></use>
                                </mask>
                                <use id="Mask" fill="#13161F" xlink:href="#path-1"></use>
                                <g mask="url(#mask-2)" stroke="#3D3D3D">
                                    <g transform="translate(-8.600000, -17.000000)">
                                        <polyline id="Path-4" points="8.68265208 37.7432618 58.2 16.2 94 37.6 156 43 240 21.8 283 6.4"></polyline>
                                        <path d="M84.4,0.2 L57.8,16.4" id="Path-18"></path>
                                        <polyline id="Path-3" points="0 22.4 16.6 7 58.4 16.6 30.4 55.2 94 37.2 84.2 0 155.8 43.2 176.8 15.6 240.2 21.4 300.6 45.4 282.8 6 322 0 342 23.2"></polyline>
                                        <polyline id="Path-7" points="321.8 0.4 300.2 45.6 275.8 54.6 240.4 21.6 213 53.8"></polyline>
                                    </g>
                                </g>
                            </g>
                            <g id="Group-4" transform="translate(5.200000, 0.000000)">
                                <g id="Group-3" transform="translate(71.400000, 24.200000)"></g>
                                <g id="dots" transform="translate(67.800000, 0.000000)">
                                    <circle id="Oval-2" fill="#FF7E00" cx="2.5" cy="2.5" r="1"></circle>
                                    <circle id="Oval-2" stroke="#FF7E00" cx="2.5" cy="2.5" r="2.5"></circle>
                                </g>
                                <g id="dots" transform="translate(40.600000, 5.200000)">
                                    <circle id="Oval-2" fill="#FF7E00" cx="3.5" cy="13.5" r="1.1"></circle>
                                    <circle id="Oval-2" stroke="#FF7E00" cx="3.5" cy="13.5" r="3.5"></circle>
                                    <circle id="Oval-2" fill="#FF7E00" cx="101.5" cy="40.5" r="1.1"></circle>
                                    <circle id="Oval-2" stroke="#FF7E00" cx="101.5" cy="40.5" r="3.5"></circle>
                                    <circle id="Oval-2" fill="#FF7E00" cx="228.3" cy="3.5" r="1.1"></circle>
                                    <circle id="Oval-2" stroke="#FF7E00" cx="228.3" cy="3.5" r="3.5"></circle>
                                </g>
                                <g id="dots" transform="translate(223.800000, 21.400000)">
                                    <circle id="Oval-2" fill="#C4C4C4" cx="2.5" cy="2.5" r="1"></circle>
                                    <circle id="Oval-2" stroke="#CACACA" cx="2.5" cy="2.5" r="2.5"></circle>
                                </g>
                                <g id="dots" opacity="0.699999988" transform="translate(197.000000, 53.800000)">
                                    <circle id="Oval-2" fill="#C4C4C4" cx="2.5" cy="2.5" r="1"></circle>
                                    <circle id="Oval-2" stroke="#CACACA" cx="2.5" cy="2.5" r="2.5"></circle>
                                </g>
                                <g id="dots" opacity="0.699999988" transform="translate(283.800000, 45.400000)">
                                    <circle id="Oval-2" fill="#C4C4C4" cx="2.5" cy="2.5" r="1"></circle>
                                    <circle id="Oval-2" stroke="#CACACA" cx="2.5" cy="2.5" r="2.5"></circle>
                                </g>
                                <g id="dots" opacity="0.600000024" transform="translate(14.000000, 55.000000)">
                                    <circle id="Oval-2" fill="#C4C4C4" cx="2.5" cy="2.5" r="1"></circle>
                                    <circle id="Oval-2" stroke="#CACACA" cx="2.5" cy="2.5" r="2.5"></circle>
                                </g>
                                <g id="dots" transform="translate(0.000000, 7.000000)">
                                    <circle id="Oval-2" fill="#C4C4C4" cx="2.5" cy="2.5" r="1"></circle>
                                    <circle id="Oval-2" stroke="#CACACA" cx="2.5" cy="2.5" r="2.5"></circle>
                                </g>
                                <g id="dots" transform="translate(259.200000, 54.600000)">
                                    <circle id="Oval-2" fill="#FF7E00" cx="2.5" cy="2.5" r="1"></circle>
                                    <circle id="Oval-2" stroke="#FF7E00" cx="2.5" cy="2.5" r="2.5"></circle>
                                </g>
                                <g id="dots" transform="translate(77.400000, 37.200000)">
                                    <circle id="Oval-2" fill="#FF7E00" cx="2.5" cy="2.5" r="1"></circle>
                                    <circle id="Oval-2" stroke="#FF7E00" cx="2.5" cy="2.5" r="2.5"></circle>
                                </g>
                                <g id="dots" transform="translate(305.400000, 0.200000)">
                                    <circle id="Oval-2" fill="#FF7E00" cx="2.5" cy="2.5" r="1"></circle>
                                    <circle id="Oval-2" stroke="#FF7E00" cx="2.5" cy="2.5" r="2.5"></circle>
                                </g>
                                <g id="dots" transform="translate(160.200000, 15.600000)">
                                    <circle id="Oval-2" fill="#FF7E00" cx="2.5" cy="2.5" r="1"></circle>
                                    <circle id="Oval-2" stroke="#FF7E00" cx="2.5" cy="2.5" r="2.5"></circle>
                                </g>
                            </g>
                        </g>
                    </g>
                </g>
            </g>
        </g>
    </g>
</svg>