<?xml version="1.0" encoding="UTF-8"?>
<svg width="768px" height="631px" viewBox="0 0 768 631" version="1.1" xmlns="http://www.w3.org/2000/svg" xmlns:xlink="http://www.w3.org/1999/xlink">
    <!-- Generator: Sketch 49 (51002) - http://www.bohemiancoding.com/sketch -->
    <title>Group</title>
    <desc>Created with Sketch.</desc>
    <defs>
        <polygon id="path-1" points="0.119829256 36.6165594 15.36 32.6785303 43.2 39.8870297 54.72 23.5477645 74.4 14.8975653 100.32 14.8975653 105.6 32.6785303 139.68 32.6785303 152.16 39.8870297 171.36 30.2756972 206.4 10.5724657 220.8 20.1837981 235.68 20.1837981 253.44 9.61133245 266.88 10.5724657 296.16 14.8975653 311.04 14.8975653 337.92 25.470031 351.84 14.8975653 373.92 5.76679947 397.44 10.5724657 412.8 30.2756972 434.88 32.6785303 445.44 44.6926959 465.6 37.0036299 504.48 20.1837981 516.48 32.6785303 530.4 35.0813634 555.36 23.5477645 581.28 35.0813634 610.08 20.1837981 658.08 14.8975653 689.76 18.2615317 702.24 3.36396636 723.36 0 742.08 10.5724657 754.08 22.3463479 768.011936 21.6168443 768.011936 97.44 0.119829256 97.44"></polygon>
    </defs>
    <g id="Home" stroke="none" stroke-width="1" fill="none" fill-rule="evenodd">
        <g id="22/01/18-Bitcoin.org-ver3-Tablet-768px" transform="translate(0.000000, -803.000000)">
            <g id="//HERO" transform="translate(0.000000, 5.000000)">
                <g id="bottom-hero" transform="translate(0.000000, 799.000000)">
                    <g id="Group">
                        <rect id="Rectangle" fill="#13161F" x="0" y="144" width="768" height="486"></rect>
                        <g id="ver-3-bg-element">
                            <g>
                                <g id="Group-5" transform="translate(0.000000, 5.760000)" stroke="#D1D1D1">
                                    <polyline id="Path-4" points="0.197064827 90.5843939 119.04 38.88 204.96 90.24 353.76 103.2 555.36 52.32 658.56 15.36"></polyline>
                                    <path d="M181.92,0.48 L118.08,39.36" id="Path-18"></path>
                                    <polyline id="Path-3" points="0.119829256 34.5008813 19.2 16.8 119.52 39.84 52.32 132.48 204.96 89.28 181.44 0 353.28 103.68 403.68 37.44 555.84 51.36 700.8 108.96 658.08 14.4 752.16 0 768.011936 18.3882452"></polyline>
                                    <polyline id="Path-7" points="751.68 0.96 699.84 109.44 641.28 131.04 556.32 51.84 490.56 129.12"></polyline>
                                </g>
                                <g id="Group-5" transform="translate(0.000000, 46.560000)">
                                    <mask id="mask-2" fill="white">
                                        <use xlink:href="#path-1"></use>
                                    </mask>
                                    <use id="Mask" fill="#13161F" xlink:href="#path-1"></use>
                                    <g mask="url(#mask-2)" stroke="#3D3D3D">
                                        <g transform="translate(-20.640000, -40.800000)">
                                            <polyline id="Path-4" points="20.838365 90.5838282 139.68 38.88 225.6 90.24 374.4 103.2 576 52.32 679.2 15.36"></polyline>
                                            <path d="M202.56,0.48 L138.72,39.36" id="Path-18"></path>
                                            <polyline id="Path-3" points="0 53.76 39.84 16.8 140.16 39.84 72.96 132.48 225.6 89.28 202.08 0 373.92 103.68 424.32 37.44 576.48 51.36 721.44 108.96 678.72 14.4 772.8 0 820.8 55.68"></polyline>
                                            <polyline id="Path-7" points="772.32 0.96 720.48 109.44 661.92 131.04 576.96 51.84 511.2 129.12"></polyline>
                                        </g>
                                    </g>
                                </g>
                                <g id="Group-4" transform="translate(12.480000, 0.000000)">
                                    <g id="Group-3" transform="translate(171.360000, 58.080000)"></g>
                                    <g id="dots" transform="translate(162.720000, 0.000000)">
                                        <circle id="Oval-2" fill="#FF7E00" cx="6" cy="6" r="1.68"></circle>
                                        <circle id="Oval-2" stroke="#FF7E00" cx="6" cy="6" r="6"></circle>
                                    </g>
                                    <g id="dots" transform="translate(97.440000, 12.480000)">
                                        <circle id="Oval-2" fill="#FF7E00" cx="8.4" cy="32.4" r="2.64"></circle>
                                        <circle id="Oval-2" stroke="#FF7E00" cx="8.4" cy="32.4" r="8.4"></circle>
                                        <circle id="Oval-2" fill="#FF7E00" cx="243.6" cy="97.2" r="2.64"></circle>
                                        <circle id="Oval-2" stroke="#FF7E00" cx="243.6" cy="97.2" r="8.4"></circle>
                                        <circle id="Oval-2" fill="#FF7E00" cx="547.92" cy="8.4" r="2.64"></circle>
                                        <circle id="Oval-2" stroke="#FF7E00" cx="547.92" cy="8.4" r="8.4"></circle>
                                    </g>
                                    <g id="dots" transform="translate(537.120000, 51.360000)">
                                        <circle id="Oval-2" fill="#C4C4C4" cx="6" cy="6" r="1.68"></circle>
                                        <circle id="Oval-2" stroke="#CACACA" cx="6" cy="6" r="6"></circle>
                                    </g>
                                    <g id="dots" opacity="0.699999988" transform="translate(472.800000, 129.120000)">
                                        <circle id="Oval-2" fill="#C4C4C4" cx="6" cy="6" r="1.68"></circle>
                                        <circle id="Oval-2" stroke="#CACACA" cx="6" cy="6" r="6"></circle>
                                    </g>
                                    <g id="dots" opacity="0.699999988" transform="translate(681.120000, 108.960000)">
                                        <circle id="Oval-2" fill="#C4C4C4" cx="6" cy="6" r="1.68"></circle>
                                        <circle id="Oval-2" stroke="#CACACA" cx="6" cy="6" r="6"></circle>
                                    </g>
                                    <g id="dots" opacity="0.600000024" transform="translate(33.600000, 132.000000)">
                                        <circle id="Oval-2" fill="#C4C4C4" cx="6" cy="6" r="1.68"></circle>
                                        <circle id="Oval-2" stroke="#CACACA" cx="6" cy="6" r="6"></circle>
                                    </g>
                                    <g id="dots" transform="translate(0.000000, 16.800000)">
                                        <circle id="Oval-2" fill="#C4C4C4" cx="6" cy="6" r="1.68"></circle>
                                        <circle id="Oval-2" stroke="#CACACA" cx="6" cy="6" r="6"></circle>
                                    </g>
                                    <g id="dots" transform="translate(622.080000, 131.040000)">
                                        <circle id="Oval-2" fill="#FF7E00" cx="6" cy="6" r="1.68"></circle>
                                        <circle id="Oval-2" stroke="#FF7E00" cx="6" cy="6" r="6"></circle>
                                    </g>
                                    <g id="dots" transform="translate(185.760000, 89.280000)">
                                        <circle id="Oval-2" fill="#FF7E00" cx="6" cy="6" r="1.68"></circle>
                                        <circle id="Oval-2" stroke="#FF7E00" cx="6" cy="6" r="6"></circle>
                                    </g>
                                    <g id="dots" transform="translate(732.960000, 0.480000)">
                                        <circle id="Oval-2" fill="#FF7E00" cx="6" cy="6" r="1.68"></circle>
                                        <circle id="Oval-2" stroke="#FF7E00" cx="6" cy="6" r="6"></circle>
                                    </g>
                                    <g id="dots" transform="translate(384.480000, 37.440000)">
                                        <circle id="Oval-2" fill="#FF7E00" cx="6" cy="6" r="1.68"></circle>
                                        <circle id="Oval-2" stroke="#FF7E00" cx="6" cy="6" r="6"></circle>
                                    </g>
                                </g>
                            </g>
                        </g>
                    </g>
                </g>
            </g>
        </g>
    </g>
</svg>