<?xml version="1.0" encoding="UTF-8"?>
<svg width="13px" height="16px" viewBox="0 0 13 16" version="1.1" xmlns="http://www.w3.org/2000/svg" xmlns:xlink="http://www.w3.org/1999/xlink">
    <!-- Generator: Sketch 49 (51002) - http://www.bohemiancoding.com/sketch -->
    <title>android - FontAwesome</title>
    <desc>Created with Sketch.</desc>
    <defs></defs>
    <g id="Home" stroke="none" stroke-width="1" fill="none" fill-rule="evenodd">
        <g id="19/01/18-Bitcoin.org-ver3-Desktop-1200px--" transform="translate(-775.000000, -2792.000000)" fill="#5B6A77">
            <g id="//Content" transform="translate(0.000000, 585.000000)">
                <g id="Recommended" transform="translate(406.000000, 1762.000000)">
                    <g id="wallets" transform="translate(0.000000, 237.000000)">
                        <g id="row-" transform="translate(0.000000, 139.000000)">
                            <g id="Container" transform="translate(269.000000, 0.000000)">
                                <g id="Group-11" transform="translate(100.000000, 69.000000)">
                                    <path d="M4.40179096,3.59820308 C4.59821977,3.59820308 4.75000566,3.4374886 4.75000566,3.24998838 C4.75000566,3.06248815 4.59821977,2.90177368 4.40179096,2.90177368 C4.21429074,2.90177368 4.06250484,3.06248815 4.06250484,3.24998838 C4.06250484,3.4374886 4.21429074,3.59820308 4.40179096,3.59820308 Z M8.1696526,3.59820308 C8.35715282,3.59820308 8.50893871,3.4374886 8.50893871,3.24998838 C8.50893871,3.06248815 8.35715282,2.90177368 8.1696526,2.90177368 C7.97322379,2.90177368 7.8214379,3.06248815 7.8214379,3.24998838 C7.8214379,3.4374886 7.97322379,3.59820308 8.1696526,3.59820308 Z M0.919643953,5.24106218 C1.41964455,5.24106218 1.83035932,5.65177695 1.83035932,6.15177755 L1.83035932,9.99106784 C1.83035932,10.499997 1.42857313,10.9107118 0.919643953,10.9107118 C0.410714775,10.9107118 0,10.499997 0,9.99106784 L0,6.15177755 C0,5.65177695 0.410714775,5.24106218 0.919643953,5.24106218 Z M10.383941,5.41070524 L10.383941,11.3571409 C10.383941,11.9017844 9.94644043,12.3392849 9.4107255,12.3392849 L8.74108185,12.3392849 L8.74108185,14.3660731 C8.74108185,14.8750022 8.33036707,15.285717 7.8214379,15.285717 C7.31250872,15.285717 6.90179394,14.8750022 6.90179394,14.3660731 L6.90179394,12.3392849 L5.66964962,12.3392849 L5.66964962,14.3660731 C5.66964962,14.8750022 5.25893484,15.285717 4.75000566,15.285717 C4.25000507,15.285717 3.83929029,14.8750022 3.83929029,14.3660731 L3.83036171,12.3392849 L3.16964664,12.3392849 C2.62500313,12.3392849 2.18750261,11.9017844 2.18750261,11.3571409 L2.18750261,5.41070524 L10.383941,5.41070524 Z M8.31250991,1.7946295 C9.5625114,2.43748741 10.4107267,3.66963173 10.4107267,5.08927628 L2.15178828,5.08927628 C2.15178828,3.66963173 3.00000358,2.43748741 4.25893365,1.7946295 L3.62500432,0.624985248 C3.58928999,0.562485173 3.60714716,0.482127935 3.66964723,0.446413606 C3.73214731,0.41962786 3.81250454,0.437485024 3.84821887,0.499985099 L4.49107678,1.67855793 C5.03572029,1.43748622 5.64286387,1.30355749 6.28572178,1.30355749 C6.92857969,1.30355749 7.53572327,1.43748622 8.08036678,1.67855793 L8.72322468,0.499985099 C8.75893901,0.437485024 8.83929625,0.41962786 8.90179633,0.446413606 C8.9642964,0.482127935 8.98215356,0.562485173 8.94643924,0.624985248 L8.31250991,1.7946295 Z M12.5714436,6.15177755 L12.5714436,9.99106784 C12.5714436,10.499997 12.1607288,10.9107118 11.6517996,10.9107118 C11.151799,10.9107118 10.7410842,10.499997 10.7410842,9.99106784 L10.7410842,6.15177755 C10.7410842,5.64284837 11.151799,5.24106218 11.6517996,5.24106218 C12.1607288,5.24106218 12.5714436,5.64284837 12.5714436,6.15177755 Z" id="android---FontAwesome"></path>
                                </g>
                            </g>
                        </g>
                    </g>
                </g>
            </g>
        </g>
    </g>
</svg>