<?xml version="1.0" encoding="UTF-8"?>
<svg xmlns:svg="http://www.w3.org/2000/svg" xmlns="http://www.w3.org/2000/svg" width="42" height="42" id="svg2986" version="1.1">
  <defs id="defs2988">
    <filter id="filter3961" x="-0.16" width="1.32" y="-0.13" height="1.26">
      <feGaussianBlur stdDeviation="2.05" id="feGaussianBlur3963"/>
    </filter>
  </defs>
  <metadata id="metadata2991"/>
  <g id="layer1" transform="translate(0,-6)">
    <path id="path4004-5" d="m21.01 8.92c-0.24 0-0.49 0.01-0.75 0.03-6.6 0.53-4.85 7.5-4.95 9.84-0.12 1.71-0.47 3.05-1.64 4.72-1.38 1.64-3.32 4.29-4.24 7.06-0.43 1.3-0.64 2.63-0.45 3.89-0.06 0.05-0.12 0.11-0.17 0.17-0.4 0.43-0.7 0.96-1.04 1.31-0.31 0.31-0.76 0.43-1.24 0.6-0.49 0.18-1.02 0.43-1.35 1.06 0 0 0 0 0 0 0 0 0 0 0 0l0 0c-0.29 0.55-0.21 1.18-0.12 1.77 0.09 0.59 0.18 1.14 0.06 1.52-0.39 1.06-0.44 1.79-0.16 2.31 0.27 0.53 0.83 0.76 1.47 0.9 1.27 0.26 2.98 0.2 4.33 0.91l0.12-0.22-0.11 0.22c1.45 0.76 2.91 1.02 4.08 0.76 0.85-0.19 1.54-0.7 1.89-1.48 0.92 0 1.92-0.39 3.53-0.48 1.09-0.09 2.45 0.39 4.02 0.3 0.04 0.17 0.1 0.33 0.18 0.49 0 0 0 0 0 0 0.61 1.22 1.74 1.77 2.94 1.68 1.21-0.1 2.49-0.81 3.52-2.04l-0.19-0.16 0.19 0.16c0.99-1.2 2.63-1.69 3.71-2.35 0.54-0.33 0.98-0.74 1.02-1.33 0.03-0.6-0.32-1.26-1.12-2.16l0 0c0 0 0 0 0 0-0.26-0.3-0.39-0.85-0.53-1.44-0.14-0.59-0.29-1.22-0.77-1.64l0 0c0 0 0 0 0 0l0 0c-0.19-0.17-0.39-0.28-0.59-0.36 0.67-1.99 0.41-3.98-0.27-5.77-0.83-2.2-2.29-4.12-3.4-5.43-1.24-1.57-2.46-3.06-2.43-5.25 0.04-3.36 0.37-9.58-5.53-9.59zm0.8 5.17c0.34 0 0.62 0.1 0.92 0.31 0.3 0.22 0.51 0.49 0.69 0.87 0.17 0.37 0.25 0.73 0.26 1.16 0 0.01 0 0.02 0 0.03 0 0.44-0.07 0.81-0.24 1.2-0.1 0.22-0.2 0.4-0.34 0.56-0.04-0.02-0.09-0.04-0.14-0.06l0 0c-0.33-0.14-0.59-0.23-0.8-0.31 0.08-0.09 0.14-0.2 0.2-0.34 0.09-0.21 0.13-0.41 0.13-0.65 0-0.01 0-0.02 0-0.03 0-0.23-0.03-0.43-0.09-0.63-0.07-0.21-0.16-0.36-0.29-0.49-0.13-0.13-0.26-0.18-0.42-0.19-0.01 0-0.01 0-0.02 0-0.15 0-0.27 0.05-0.41 0.16-0.14 0.12-0.24 0.26-0.33 0.47-0.09 0.21-0.13 0.41-0.13 0.65 0 0.01 0 0.02 0 0.03 0 0.13 0.01 0.26 0.03 0.37-0.3-0.15-0.58-0.25-0.85-0.31-0.02-0.11-0.02-0.23-0.03-0.36l0-0.03c0-0.44 0.07-0.81 0.24-1.2 0.17-0.38 0.38-0.66 0.67-0.88 0.29-0.22 0.58-0.33 0.92-0.33 0.01 0 0.01 0 0.02 0zm-4.59 0.36c0.22 0 0.42 0.07 0.63 0.24 0.22 0.18 0.39 0.41 0.53 0.73 0.14 0.32 0.22 0.64 0.24 1.02l0 0c0.01 0.16 0.01 0.31 0 0.45-0.04 0.01-0.09 0.03-0.13 0.04-0.24 0.08-0.45 0.19-0.63 0.32 0.02-0.13 0.02-0.26 0.01-0.4 0-0.01 0-0.01 0-0.02-0.02-0.19-0.06-0.35-0.13-0.51-0.07-0.17-0.15-0.29-0.26-0.38-0.1-0.08-0.19-0.12-0.29-0.12-0.01 0-0.02 0-0.03 0-0.11 0.01-0.21 0.06-0.29 0.17-0.09 0.11-0.15 0.24-0.19 0.42-0.04 0.18-0.05 0.35-0.04 0.55 0 0.01 0 0.01 0 0.02 0.02 0.19 0.06 0.35 0.13 0.52 0.07 0.17 0.15 0.29 0.26 0.38 0.02 0.02 0.04 0.03 0.05 0.04-0.11 0.08-0.16 0.12-0.25 0.19-0.06 0.04-0.13 0.09-0.21 0.15-0.17-0.16-0.31-0.37-0.43-0.64-0.14-0.32-0.22-0.64-0.24-1.02l0 0c-0.02-0.38 0.02-0.7 0.12-1.04 0.1-0.34 0.24-0.58 0.45-0.78 0.2-0.2 0.41-0.3 0.65-0.31 0.02 0 0.04 0 0.06 0zm2.09 2.63c0.52 0 1.14 0.17 1.89 0.65 0.46 0.3 0.82 0.33 1.65 0.68l0 0 0 0c0.4 0.16 0.63 0.38 0.75 0.6 0.11 0.22 0.12 0.47 0.02 0.72-0.19 0.51-0.8 1.05-1.66 1.32l0 0 0 0c-0.42 0.14-0.78 0.44-1.21 0.68-0.43 0.25-0.92 0.44-1.58 0.41l0 0c-0.56-0.03-0.9-0.22-1.2-0.47-0.3-0.24-0.57-0.55-0.96-0.78l0 0 0 0c-0.62-0.35-0.97-0.76-1.07-1.12-0.11-0.35-0.01-0.66 0.3-0.89 0.35-0.26 0.59-0.44 0.75-0.56 0.16-0.12 0.23-0.16 0.28-0.21 0 0 0 0 0 0l0 0c0.26-0.25 0.68-0.7 1.31-0.92 0.22-0.07 0.46-0.12 0.73-0.12zm3.61 2.14c-0.22 0.01-0.46 0.13-0.73 0.28-0.27 0.15-0.58 0.35-0.91 0.54-0.66 0.38-1.43 0.75-2.18 0.75-0.76 0-1.37-0.35-1.82-0.71-0.23-0.18-0.42-0.36-0.57-0.5-0.07-0.07-0.14-0.13-0.2-0.18-0.06-0.05-0.11-0.09-0.21-0.09l0 0.21c-0.01 0.07-0.01 0.07-0.01 0.07 0 0 0.03 0.01 0.06 0.03 0.04 0.03 0.11 0.09 0.18 0.16 0.15 0.14 0.34 0.33 0.58 0.52 0.48 0.38 1.15 0.77 2 0.77 0.85 0 1.65-0.4 2.32-0.79 0.34-0.19 0.64-0.39 0.91-0.54 0.26-0.15 0.48-0.24 0.61-0.24l-0.02-0.28zm0.75 1.01c0.56 2.22 1.87 5.42 2.71 6.99 0.45 0.83 1.28 2.32 1.67 4.45 0.02 1.23-0.75 1.04-0.92 1.96-0.01 0.07-0.02 0.13-0.03 0.2-0.11 0.04-0.21 0.08-0.32 0.14-0.67 0.37-1.04 1.03-1.24 1.85-0.2 0.82-0.26 1.81-0.32 2.92 0 0 0 0 0 0-0.03 0.56-0.26 1.31-0.5 2.11-2.34 1.67-5.6 2.4-8.36 0.51-0.19-0.3-0.4-0.59-0.62-0.88-0.14-0.18-0.29-0.37-0.43-0.55 0.28 0 0.52-0.05 0.72-0.13 0.24-0.11 0.41-0.29 0.5-0.51 0.17-0.45 0-1.09-0.54-1.82-0.54-0.73-1.45-1.55-2.79-2.37 0 0 0 0 0 0-1.19-0.99-0.85-2.51 0.35-6.02 0.88-2 2.72-5.46 2.87-8.22 0.08 0.05 0.33 0.23 0.45 0.3 0 0 0 0 0 0 0.34 0.2 0.59 0.49 0.92 0.75 0.33 0.26 0.74 0.49 1.36 0.53l0 0c0.73 0.04 1.28-0.18 1.73-0.44 0.45-0.26 0.81-0.55 1.16-0.66 0 0 0 0 0 0 0.72-0.23 1.3-0.63 1.63-1.09zm3.41 14.14c0.06 0.96 0.53 1.94 1.37 2.15 0.92 0.24 2.24-0.55 2.8-1.19 0.11 0 0.22-0.01 0.33-0.01 0.49-0.01 0.9 0.02 1.32 0.38l0 0 0 0c0.32 0.27 0.48 0.79 0.61 1.37 0.13 0.58 0.24 1.21 0.64 1.66l0 0 0 0c0.77 0.85 1.02 1.43 0.99 1.8-0.02 0.37-0.29 0.64-0.78 0.94-0.98 0.59-2.72 1.11-3.84 2.46-0.97 1.15-2.14 1.78-3.18 1.86-1.04 0.08-1.93-0.35-2.46-1.41l0 0 0 0c-0.33-0.62-0.19-1.61 0.08-2.64 0.28-1.04 0.67-2.1 0.73-2.97l0 0 0 0c0.06-1.11 0.12-2.08 0.3-2.82 0.19-0.75 0.48-1.25 1-1.54 0.02-0.01 0.05-0.03 0.07-0.04zm-16.87 0.07c0.08 0 0.16 0.01 0.25 0.02 0.59 0.09 1.1 0.5 1.59 1.17 0.49 0.67 0.95 1.58 1.43 2.6l0 0 0 0c0.38 0.79 1.18 1.66 1.86 2.55 0.68 0.89 1.2 1.78 1.14 2.46l0 0 0 0c-0.09 1.16-0.75 1.8-1.75 2.03-1.01 0.23-2.38 0-3.74-0.71 0 0 0 0 0 0-1.51-0.8-3.31-0.72-4.46-0.96-0.58-0.12-0.95-0.3-1.13-0.64-0.17-0.34-0.18-0.92 0.19-1.92l0 0 0 0c0.18-0.56 0.05-1.17-0.04-1.75-0.09-0.57-0.13-1.1 0.07-1.46l0 0 0 0c0.25-0.48 0.62-0.66 1.08-0.82 0.46-0.16 1-0.29 1.43-0.72l0 0 0 0c0.4-0.42 0.69-0.94 1.04-1.31 0.29-0.31 0.59-0.52 1.03-0.52 0 0 0.01 0 0.02 0z" transform="matrix(0.95110883,0,0,0.95110883,2.2699103,1.4416795)" style="-inkscape-font-specification:Bitstream Vera Sans;baseline-shift:baseline;block-progression:tb;color:#000000;direction:ltr;display:inline;enable-background:accumulate;fill:#000;filter:url(#filter3961);font-family:Bitstream Vera Sans;font-size:medium;letter-spacing:normal;line-height:normal;opacity:0.6;overflow:visible;stroke-miterlimit:4;stroke-width:0.4;stroke:#000;text-align:start;text-anchor:start;text-decoration:none;text-indent:0;text-transform:none;word-spacing:normal;writing-mode:lr-tb"/>
    <path id="path4004-5-6" d="m22.33 8.4c-0.23 0-0.47 0.01-0.71 0.03-6.28 0.51-4.61 7.13-4.7 9.35-0.11 1.62-0.44 2.9-1.56 4.49-1.31 1.56-3.16 4.08-4.03 6.71-0.41 1.24-0.61 2.5-0.43 3.7-0.06 0.05-0.11 0.1-0.16 0.16-0.39 0.41-0.67 0.91-0.99 1.24-0.3 0.3-0.72 0.41-1.18 0.57-0.46 0.17-0.97 0.41-1.28 1.01 0 0 0 0 0 0 0 0 0 0 0 0l0 0c-0.28 0.52-0.2 1.12-0.11 1.68 0.09 0.56 0.17 1.08 0.06 1.44-0.37 1-0.41 1.7-0.16 2.2 0.26 0.5 0.79 0.73 1.39 0.85 1.2 0.25 2.83 0.19 4.12 0.87l0.11-0.21-0.11 0.21c1.38 0.72 2.77 0.97 3.88 0.72 0.81-0.18 1.46-0.66 1.8-1.4 0.87 0 1.83-0.37 3.36-0.46 1.04-0.08 2.33 0.37 3.83 0.29 0.04 0.16 0.1 0.32 0.17 0.47 0 0 0 0 0 0 0.58 1.16 1.65 1.68 2.8 1.59 1.15-0.09 2.36-0.77 3.35-1.94l-0.18-0.15 0.18 0.15c0.94-1.14 2.5-1.61 3.53-2.23 0.52-0.31 0.94-0.7 0.97-1.27 0.03-0.57-0.3-1.2-1.06-2.05l0 0c0 0 0 0 0 0-0.25-0.28-0.37-0.81-0.5-1.37-0.13-0.56-0.27-1.16-0.73-1.56l0 0c0 0 0 0 0 0l0 0c-0.18-0.16-0.37-0.27-0.56-0.34 0.64-1.9 0.39-3.78-0.26-5.49-0.79-2.09-2.17-3.92-3.23-5.17-1.18-1.49-2.34-2.91-2.32-5 0.04-3.19 0.35-9.11-5.26-9.12zm0.76 4.92c0.32 0 0.59 0.09 0.87 0.3 0.28 0.21 0.49 0.46 0.65 0.82 0.16 0.35 0.24 0.69 0.25 1.1 0 0.01 0 0.02 0 0.03 0 0.42-0.07 0.77-0.23 1.14-0.09 0.21-0.19 0.38-0.32 0.53-0.04-0.02-0.09-0.04-0.13-0.06l0 0c-0.32-0.14-0.56-0.22-0.76-0.29 0.07-0.09 0.13-0.19 0.19-0.32 0.08-0.2 0.12-0.39 0.13-0.62 0-0.01 0-0.02 0-0.03 0-0.22-0.02-0.41-0.09-0.6-0.07-0.2-0.15-0.35-0.28-0.47-0.12-0.12-0.25-0.18-0.4-0.18-0.01 0-0.01 0-0.02 0-0.14 0-0.26 0.05-0.39 0.15-0.13 0.11-0.23 0.25-0.31 0.45-0.08 0.2-0.12 0.39-0.13 0.62 0 0.01 0 0.02 0 0.03 0 0.13 0.01 0.24 0.02 0.36-0.29-0.14-0.55-0.24-0.81-0.3-0.01-0.11-0.02-0.22-0.03-0.34l0-0.03c0-0.42 0.06-0.77 0.22-1.14 0.16-0.36 0.36-0.62 0.64-0.84 0.28-0.21 0.55-0.31 0.88-0.31 0.01 0 0.01 0 0.02 0zm-4.36 0.35c0.21 0 0.4 0.07 0.6 0.23 0.21 0.17 0.37 0.39 0.51 0.69 0.13 0.31 0.21 0.61 0.23 0.97l0 0c0.01 0.15 0.01 0.29 0 0.43-0.04 0.01-0.08 0.02-0.12 0.04-0.23 0.08-0.43 0.19-0.6 0.3 0.02-0.12 0.02-0.24 0.01-0.38 0-0.01 0-0.01 0-0.02-0.02-0.18-0.06-0.33-0.12-0.49-0.07-0.16-0.15-0.27-0.25-0.36-0.09-0.08-0.18-0.12-0.27-0.11-0.01 0-0.02 0-0.03 0-0.11 0.01-0.2 0.06-0.28 0.16-0.08 0.1-0.14 0.23-0.18 0.4-0.04 0.17-0.05 0.33-0.03 0.52 0 0.01 0 0.01 0 0.02 0.02 0.18 0.05 0.34 0.12 0.49 0.07 0.16 0.15 0.27 0.25 0.36 0.02 0.01 0.03 0.03 0.05 0.04-0.1 0.08-0.15 0.12-0.24 0.18-0.06 0.04-0.12 0.09-0.2 0.14-0.17-0.16-0.3-0.35-0.41-0.61-0.13-0.31-0.21-0.61-0.23-0.97l0 0c-0.02-0.36 0.02-0.67 0.11-0.99 0.1-0.32 0.23-0.55 0.42-0.74 0.19-0.19 0.39-0.29 0.62-0.3 0.02 0 0.04 0 0.05 0zm1.98 2.5c0.49 0 1.08 0.16 1.8 0.62 0.44 0.29 0.78 0.31 1.57 0.65l0 0 0 0c0.38 0.16 0.6 0.36 0.71 0.57 0.11 0.21 0.11 0.44 0.02 0.69-0.18 0.49-0.76 1-1.58 1.25l0 0 0 0c-0.4 0.13-0.74 0.41-1.15 0.65-0.41 0.23-0.87 0.42-1.5 0.39l0 0c-0.54-0.03-0.85-0.21-1.14-0.45-0.29-0.23-0.54-0.52-0.91-0.74l0 0 0 0c-0.59-0.34-0.92-0.72-1.02-1.06-0.1-0.34-0.01-0.62 0.29-0.85 0.33-0.25 0.56-0.42 0.72-0.53 0.15-0.11 0.22-0.15 0.26-0.2 0 0 0 0 0 0l0 0c0.25-0.24 0.65-0.67 1.24-0.87 0.21-0.07 0.44-0.12 0.69-0.12zm3.44 2.03c-0.21 0.01-0.43 0.12-0.69 0.27-0.26 0.14-0.55 0.33-0.86 0.51-0.63 0.36-1.36 0.71-2.08 0.71-0.72 0-1.3-0.33-1.73-0.68-0.22-0.17-0.39-0.34-0.54-0.48-0.07-0.07-0.13-0.12-0.19-0.17-0.06-0.04-0.1-0.09-0.2-0.09l0 0.2c-0.01 0.07-0.01 0.07-0.01 0.07 0 0 0.03 0.01 0.05 0.03 0.04 0.03 0.1 0.09 0.17 0.15 0.14 0.13 0.33 0.31 0.55 0.49 0.46 0.36 1.09 0.73 1.9 0.73 0.81 0 1.57-0.38 2.21-0.75 0.32-0.19 0.61-0.37 0.86-0.51 0.25-0.14 0.46-0.23 0.58-0.23l-0.02-0.27zm0.72 0.96c0.54 2.11 1.78 5.16 2.58 6.64 0.43 0.79 1.22 2.21 1.59 4.23 0.02 1.17-0.72 0.99-0.88 1.86-0.01 0.06-0.02 0.13-0.03 0.19-0.1 0.04-0.2 0.08-0.31 0.14-0.64 0.35-0.99 0.98-1.18 1.76-0.19 0.78-0.25 1.72-0.3 2.77 0 0 0 0 0 0-0.03 0.53-0.25 1.25-0.47 2.01-2.23 1.59-5.32 2.28-7.95 0.49-0.18-0.28-0.38-0.56-0.59-0.84-0.13-0.18-0.27-0.35-0.41-0.52 0.27 0 0.5-0.04 0.68-0.13 0.23-0.1 0.39-0.27 0.47-0.49 0.16-0.43 0-1.04-0.51-1.73-0.51-0.69-1.38-1.48-2.66-2.26 0 0 0 0 0 0-1.13-0.94-0.81-2.39 0.34-5.73 0.84-1.9 2.59-5.2 2.73-7.82 0.07 0.05 0.32 0.22 0.43 0.28 0 0 0 0 0 0 0.32 0.19 0.56 0.47 0.88 0.72 0.31 0.25 0.71 0.47 1.3 0.5l0 0c0.69 0.04 1.22-0.17 1.65-0.42 0.43-0.25 0.77-0.52 1.1-0.63 0 0 0 0 0 0 0.69-0.22 1.24-0.6 1.55-1.04zm3.25 13.44c0.06 0.91 0.51 1.84 1.31 2.05 0.87 0.23 2.13-0.52 2.67-1.13 0.11 0 0.21-0.01 0.31-0.01 0.47-0.01 0.86 0.02 1.26 0.37l0 0 0 0c0.31 0.26 0.45 0.75 0.58 1.3 0.13 0.55 0.23 1.15 0.61 1.58l0 0 0 0c0.73 0.81 0.97 1.36 0.95 1.71-0.02 0.35-0.27 0.61-0.74 0.89-0.93 0.56-2.59 1.05-3.65 2.34-0.92 1.09-2.04 1.69-3.03 1.77-0.99 0.08-1.84-0.33-2.34-1.34l0 0 0 0c-0.31-0.59-0.18-1.53 0.08-2.51 0.26-0.99 0.64-2 0.69-2.82l0 0 0 0c0.05-1.05 0.11-1.97 0.29-2.69 0.18-0.71 0.46-1.19 0.95-1.46 0.02-0.01 0.05-0.02 0.07-0.04zm-16.05 0.07c0.07 0 0.15 0.01 0.23 0.02 0.56 0.08 1.05 0.48 1.52 1.11 0.47 0.64 0.91 1.51 1.36 2.47l0 0 0 0c0.36 0.75 1.12 1.58 1.77 2.43 0.65 0.85 1.15 1.69 1.08 2.34l0 0 0 0c-0.08 1.11-0.71 1.71-1.67 1.93-0.96 0.22-2.26 0-3.56-0.68 0 0 0 0 0 0C11.36 41.55 9.65 41.63 8.55 41.4 8 41.28 7.65 41.11 7.48 40.79 7.32 40.47 7.31 39.91 7.66 38.96l0 0 0 0C7.84 38.42 7.71 37.84 7.63 37.29 7.54 36.75 7.5 36.25 7.69 35.9l0 0 0 0c0.24-0.46 0.59-0.63 1.02-0.78 0.44-0.16 0.95-0.28 1.36-0.69l0 0 0 0c0.38-0.4 0.66-0.9 0.99-1.25 0.28-0.3 0.56-0.5 0.98-0.5 0 0 0.01 0 0.01 0z" style="-inkscape-font-specification:Bitstream Vera Sans;baseline-shift:baseline;block-progression:tb;color:#000000;direction:ltr;display:inline;enable-background:accumulate;fill:#fff;font-family:Bitstream Vera Sans;font-size:medium;letter-spacing:normal;line-height:normal;overflow:visible;stroke-miterlimit:4;stroke-width:0.38;stroke:#fff;text-align:start;text-anchor:start;text-decoration:none;text-indent:0;text-transform:none;word-spacing:normal;writing-mode:lr-tb"/>
  </g>
</svg>
