<?xml version="1.0" encoding="UTF-8"?>
<svg width="14px" height="16px" viewBox="0 0 14 16" version="1.1" xmlns="http://www.w3.org/2000/svg" xmlns:xlink="http://www.w3.org/1999/xlink">
    <!-- Generator: Sketch 49 (51002) - http://www.bohemiancoding.com/sketch -->
    <title>linux - FontAwesome</title>
    <desc>Created with Sketch.</desc>
    <defs></defs>
    <g id="Bitcoin-Core" stroke="none" stroke-width="1" fill="none" fill-rule="evenodd">
        <g id="Bitcoin.org---Bitcoin-core--Desktop" transform="translate(-473.000000, -623.000000)" fill="#5B6A77">
            <g id="//Content" transform="translate(215.000000, 543.000000)">
                <g id="icons-+-text" transform="translate(0.000000, 76.000000)">
                    <path d="M263.862839,7.66996671 C263.577124,7.65210955 263.559267,7.85746694 263.648553,7.84853836 C263.746767,7.84853836 263.684267,7.68782388 263.862839,7.66996671 Z M264.640741,7.68893995 C264.597215,7.6543417 264.510161,7.63871668 264.380697,7.69675246 C264.461054,7.67443101 264.503465,7.70568104 264.536947,7.73916323 L264.640741,7.68893995 Z M264.640741,7.68893995 C264.684268,7.72353821 264.684268,7.7771097 264.639625,7.79496686 C264.594983,7.80835974 264.570429,7.77264541 264.536947,7.73916323 L264.640741,7.68893995 Z M261.505693,11.6074714 C261.425336,11.5806857 261.443193,11.7414001 261.362836,11.8664003 C261.300336,11.9824719 261.139621,12.0717577 261.264621,12.0896148 C261.309264,12.0985434 261.434264,11.9914004 261.487836,11.8664003 C261.532479,11.7146144 261.577122,11.6342572 261.505693,11.6074714 Z M269.139631,14.8128324 C269.139631,14.6521179 268.791416,14.500332 268.648559,14.4378319 C268.88963,13.6342595 268.782487,13.3128306 268.621773,12.5539011 C268.496773,11.9824719 267.969987,11.2056852 267.559272,10.9646135 C267.666415,11.0538993 267.862844,11.3128282 268.068201,11.7056858 C268.425344,12.3753295 268.782487,13.3664021 268.550344,14.1878316 C268.461059,14.5092606 268.246773,14.5539035 268.103915,14.5628321 C267.478915,14.6342607 267.844986,13.8128312 267.586058,12.6967584 C267.291414,11.4467569 266.987843,11.3574711 266.916414,11.2592567 C266.550342,9.63425477 266.148556,9.79496925 266.032484,9.18782567 C265.93427,8.64318216 266.505699,8.19675306 265.728912,8.04496716 C265.487841,8.00032425 265.148555,7.75925254 265.014626,7.74139537 C264.880697,7.72353821 264.809268,6.83960858 265.309269,6.81282284 C265.800341,6.77710851 265.889627,7.36639492 265.800341,7.59853806 C265.657484,7.83068119 265.80927,7.91996701 266.050341,7.83960977 C266.24677,7.7771097 266.12177,7.25925194 266.166413,7.18782328 C266.041413,6.43782239 265.728912,6.3306794 265.407483,6.26817933 C264.175339,6.36639373 264.728911,7.72353821 264.603911,7.59853806 C264.425339,7.41103783 263.907482,7.58068089 263.907482,7.46460933 C263.91641,6.76817993 263.684267,6.36639373 263.362838,6.35746515 C263.005695,6.34853657 262.862838,6.84853716 262.84498,7.13425179 C262.818195,7.40210925 262.996766,7.96460992 263.130695,7.91996701 C263.219981,7.89318127 263.371767,7.71460963 263.211052,7.72353821 C263.130695,7.72353821 263.005695,7.5271094 262.987838,7.29496627 C262.978909,7.06282313 263.068195,6.83068 263.371767,6.83960858 C263.719981,6.84853716 263.719981,7.54496657 263.684267,7.57175231 C263.568196,7.65210955 263.425338,7.80389545 263.407481,7.83068119 C263.29141,8.01818142 263.068195,8.07175291 262.978909,8.15211015 C262.827123,8.31282462 262.791409,8.49139627 262.90748,8.55389634 C263.318195,8.78603947 263.184267,9.05389694 263.755696,9.0717541 C264.130696,9.08961126 264.407482,9.01818261 264.666411,8.93782537 C264.86284,8.87532529 265.496769,8.74139656 265.630698,8.50925343 C265.693198,8.41103903 265.764627,8.41103903 265.80927,8.43782477 C265.898555,8.48246768 265.916413,8.65211074 265.693198,8.70568224 C265.380698,8.79496806 265.068197,8.96461112 264.782483,9.0717541 C264.505697,9.18782567 264.416411,9.23246858 264.157482,9.27711149 C263.568196,9.38425447 263.130695,9.06282552 263.523553,9.44675455 C263.657481,9.5717547 263.782482,9.65211193 264.121768,9.64318335 C264.871769,9.61639761 265.702127,8.71461082 265.782484,9.11639701 C265.800341,9.20568283 265.550341,9.31282582 265.353912,9.41104022 C264.657483,9.75032634 264.166411,10.4288986 263.719981,10.1967554 C263.318195,9.98246947 262.916409,8.99139686 262.925338,9.43782597 C262.934266,10.1253268 262.023551,10.7324704 262.443194,11.5181856 C262.166408,11.5896142 261.550336,12.9021158 261.46105,13.580688 C261.407479,13.9735457 261.496765,14.4556891 261.39855,14.7235466 C261.264621,15.1164042 260.657478,14.3485461 260.853907,13.411045 C260.889621,13.2503305 260.853907,13.2146162 260.809264,13.2949734 C260.568192,13.7324739 260.702121,14.3485461 260.89855,14.777118 C260.978907,14.9646183 261.184264,15.0449755 261.33605,15.20569 C261.64855,15.5628333 262.880695,16.4735486 263.094981,16.6967632 C263.371767,16.9556921 263.29141,17.5628357 262.71998,17.6253357 C263.014623,18.1789078 263.300338,18.2324793 263.29141,19.1342661 C263.630696,18.9556945 263.496767,18.5628368 263.35391,18.3128365 C263.255695,18.1342649 263.130695,18.0539077 263.157481,18.0092648 C263.175338,17.982479 263.35391,17.8306931 263.452124,17.9467647 C263.755696,18.2860508 264.327125,18.3485509 264.934269,18.2681936 C265.550341,18.196765 266.211056,17.982479 266.514628,17.491407 C266.657485,17.2592639 266.755699,17.1789066 266.818199,17.2235495 C266.889628,17.2592639 266.916414,17.4199783 266.907485,17.6878358 C266.898557,17.9735504 266.782485,18.2681936 266.702128,18.5092654 C266.621771,18.7860514 266.594985,18.9735516 266.862842,18.9824802 C266.934271,18.4824796 267.077128,17.9914076 267.112843,17.491407 C267.157486,16.9199777 266.746771,15.8664051 267.1932,15.3396187 C267.309271,15.1967614 267.452129,15.1789042 267.648558,15.1789042 C267.675343,14.4646177 268.773559,14.5181892 269.139631,14.8128324 Z M263.532481,7.428895 C263.568196,7.20568045 263.461053,7.04496597 263.407481,7.02710881 C263.300338,7.00032306 263.318195,7.16103754 263.371767,7.14318037 C263.407481,7.14318037 263.452124,7.19675186 263.434267,7.2771091 C263.41641,7.38425209 263.425338,7.45568075 263.505695,7.45568075 C263.514624,7.45568075 263.532481,7.45568075 263.532481,7.428895 Z M267.273557,9.18782567 C267.237843,9.01818261 267.112843,9.08068268 266.969985,8.99139686 C266.800342,8.88425388 266.764628,8.70568224 266.702128,8.76818231 C266.514628,8.9735397 266.934271,9.40211164 267.112843,9.43782597 C267.219986,9.45568313 267.300343,9.31282582 267.273557,9.18782567 Z M265.68427,7.28603769 C265.693198,7.07175172 265.505698,6.96460873 265.461055,6.97353731 C265.344983,6.9824659 265.380698,7.03603739 265.434269,7.05389455 C265.505698,7.07175172 265.577127,7.19675186 265.594984,7.3306806 C265.594984,7.34853776 265.68427,7.31282343 265.68427,7.28603769 Z M266.166413,5.20567806 C266.175342,5.16103515 266.05927,5.10746366 265.978913,5.04496359 C265.907484,4.97353493 265.836055,4.91103485 265.764627,4.91103485 C265.586055,4.92889202 265.675341,5.11639224 265.648555,5.20567806 C265.612841,5.30389247 265.478912,5.3842497 265.568198,5.45567836 C265.648555,5.51817844 265.702127,5.35746396 265.87177,5.29496388 C265.916413,5.27710672 266.12177,5.30389247 266.166413,5.20567806 Z M271.211062,17.1789066 C272.309277,17.8574789 270.800347,18.4199795 270.148561,18.7503371 C269.639631,19.0092659 268.961059,19.5806952 268.711059,19.8217669 C268.523559,20.0003386 267.746772,20.0896244 267.309271,19.8664098 C266.800342,19.6074809 267.0682,19.1967662 266.282485,19.1699804 C265.889627,19.1610518 265.505698,19.1610518 265.121769,19.1610518 C264.782483,19.1699804 264.443197,19.1878376 264.094982,19.1967662 C262.916409,19.2235519 262.800338,19.9824814 262.041408,19.9556956 C261.52355,19.9378385 260.871764,19.5271237 259.746762,19.2949806 C258.961047,19.1342661 258.202118,19.0896232 258.041403,18.7414085 C257.880689,18.3931938 258.237832,18.0003362 258.264618,17.6610501 C258.291404,17.2056924 257.925332,16.5896202 258.193189,16.3574771 C258.425332,16.1521197 258.916404,16.3039056 259.237833,16.1253339 C259.577119,15.9289051 259.719977,15.7771192 259.719977,15.3574759 C259.844977,15.7860478 259.711048,16.1342625 259.434262,16.3039056 C259.264619,16.4110486 258.952119,16.4646201 258.69319,16.4378343 C258.487832,16.4199771 258.362832,16.4467629 258.309261,16.5271201 C258.228903,16.6253345 258.255689,16.8039062 258.353904,17.0360493 C258.452118,17.2681924 258.56819,17.4199783 258.550332,17.705693 C258.541404,17.9914076 258.219975,18.3306937 258.273546,18.5717654 C258.291404,18.6610512 258.380689,18.7414085 258.603904,18.8039086 C258.961047,18.902123 259.612834,19.0003374 260.246763,19.1521233 C260.952121,19.3306949 261.684265,19.6521239 262.139622,19.5896238 C263.496767,19.4021236 262.71998,17.9467647 262.505694,17.59855 C261.353907,15.7949764 260.594978,14.6164036 259.987834,15.0806898 C259.836048,15.20569 259.82712,14.777118 259.836048,14.607475 C259.862834,14.0181886 260.157477,13.8039026 260.336049,13.3485449 C260.675335,12.4824725 260.934264,11.4913998 261.452122,10.9824707 C261.836051,10.4824701 262.443194,9.6699691 262.559266,9.24139716 C262.461051,8.31282462 262.434266,7.3306806 262.416408,6.47353672 C262.398551,5.55389276 262.541409,4.75032038 263.577124,4.18781971 C263.827124,4.05389098 264.157482,4.00031948 264.505697,4.00031948 C265.121769,3.9913909 265.80927,4.16996254 266.24677,4.4913915 C266.9432,5.00924926 267.3807,6.10746485 267.327129,6.89318007 C267.291414,7.50925224 267.398557,8.14318156 267.594986,8.80389664 C267.827129,9.58068328 268.193201,10.1253268 268.782487,10.7503275 C269.487845,11.5003284 270.041418,12.9735445 270.202132,13.9110456 C270.344989,14.7860466 270.148561,15.3306901 269.96106,15.3574759 C269.675346,15.4021188 269.496774,16.3039056 268.603916,16.2681913 C268.032487,16.2414055 267.978915,15.9021194 267.818201,15.6074762 C267.559272,15.1521185 267.300343,15.2949758 267.202128,15.7771192 C267.148557,16.018191 267.184271,16.3753342 267.264629,16.6431917 C267.425343,17.2056924 267.371772,17.7324787 267.273557,18.3842652 C267.086057,19.6164095 268.13963,19.8485527 268.844988,19.2592662 C269.541417,18.6789084 269.693203,18.5896226 270.568204,18.2860508 C271.898563,17.8306931 271.452134,17.4289069 270.737847,17.1878352 C270.094989,16.9735492 270.068203,15.8931908 270.300346,15.6878334 C270.353918,16.8485491 270.961062,17.0181921 271.211062,17.1789066 Z" id="linux---FontAwesome"></path>
                </g>
            </g>
        </g>
    </g>
</svg>