<?xml version="1.0" encoding="UTF-8"?>
<svg xmlns:svg="http://www.w3.org/2000/svg" xmlns="http://www.w3.org/2000/svg" width="16" height="16" id="svg4964" version="1.1">
  <defs id="defs4966">
    <clipPath id="clp12">
      <path d="m45.32 71.93 12.92 0 0 15.87-12.92 0 0-15.87z" id="path184"/>
    </clipPath>
    <clipPath id="clp12-7">
      <path d="m45.32 71.93 12.92 0 0 15.87-12.92 0 0-15.87z" id="path184-7"/>
    </clipPath>
    <filter id="filter4945" x="-0.16" width="1.32" y="-0.13" height="1.26" color-interpolation-filters="sRGB">
      <feGaussianBlur stdDeviation="47.37" id="feGaussianBlur4947"/>
    </filter>
  </defs>
  <metadata id="metadata4969"/>
  <g id="layer1" transform="translate(0,-16)">
    <g transform="matrix(0.01828059,0,0,0.01828059,-18.52417,-14.244354)" id="layer1-8" fill="#7d7d7d">
      <g transform="translate(19.48863,19.49672)" id="g25472" fill="#7d7d7d">
        <g transform="matrix(54.85033,0,0,-54.85033,-1411.313,6454.729)" clip-path="url(#clp12)" id="g186" style="fill-rule:nonzero;fill:#7d7d7d">
          <path d="m56.11 79.36c-0.02 2.01 1.64 2.97 1.72 3.02-0.93 1.37-2.38 1.55-2.9 1.57-1.24 0.13-2.41-0.73-3.04-0.73-0.63 0-1.59 0.71-2.62 0.69-1.35-0.02-2.59-0.78-3.28-1.99-1.4-2.43-0.36-6.02 1-7.99 0.67-0.96 1.46-2.05 2.51-2.01 1.01 0.04 1.39 0.65 2.6 0.65 1.21 0 1.56-0.65 2.62-0.63 1.08 0.02 1.77 0.98 2.43 1.95 0.76 1.12 1.08 2.2 1.1 2.26-0.02 0.01-2.11 0.81-2.13 3.21" id="path188" style="fill-rule:nonzero;fill:#7d7d7d"/>
        </g>
        <path d="m1556.51 1778.21c30.39-36.8 50.9-87.98 45.25-138.99-43.77 1.76-96.76 29.18-128.19 65.99-28.14 32.53-52.82 84.63-46.13 134.6 48.82 3.78 98.68-24.85 129.07-61.6" id="path190" style="fill-rule:nonzero;fill:#7d7d7d"/>
      </g>
    </g>
  </g>
</svg>
