<?xml version="1.0" encoding="UTF-8"?>
<svg width="13px" height="15px" viewBox="0 0 13 15" version="1.1" xmlns="http://www.w3.org/2000/svg" xmlns:xlink="http://www.w3.org/1999/xlink">
    <!-- Generator: Sketch 49 (51002) - http://www.bohemiancoding.com/sketch -->
    <title>apple - FontAwesome</title>
    <desc>Created with Sketch.</desc>
    <defs></defs>
    <g id="Bitcoin-Core" stroke="none" stroke-width="1" fill="none" fill-rule="evenodd">
        <g id="Bitcoin.org---Bitcoin-core--Desktop" transform="translate(-448.000000, -624.000000)" fill="#5B6A77">
            <g id="//Content" transform="translate(215.000000, 543.000000)">
                <g id="icons-+-text" transform="translate(0.000000, 76.000000)">
                    <path d="M245.437515,15.8482272 C245.2143,16.5535852 244.857157,17.3035861 244.339299,18.0803727 C243.571441,19.250017 242.803583,19.8303748 242.044654,19.8303748 C241.741082,19.8303748 241.330367,19.7321604 240.794652,19.5446602 C240.267866,19.3482314 239.812508,19.2589456 239.446436,19.2589456 C239.089293,19.2589456 238.660721,19.35716 238.178578,19.5535888 C237.687506,19.7589462 237.294648,19.8571606 237.000005,19.8571606 C236.080361,19.8571606 235.196431,19.0803739 234.312502,17.5446578 C233.446429,16.0089417 233,14.5178685 233,13.053581 C233,11.687508 233.339286,10.5803638 234.00893,9.71429133 C234.678573,8.85714746 235.51786,8.42857552 236.544647,8.42857552 C236.982148,8.42857552 237.500005,8.51786134 238.125006,8.69643298 C238.741078,8.87500462 239.151793,8.96429044 239.35715,8.96429044 C239.616079,8.96429044 240.044651,8.86607604 240.633938,8.66071865 C241.223224,8.46428984 241.741082,8.35714686 242.178582,8.35714686 C242.892869,8.35714686 243.526798,8.55357566 244.08037,8.93750469 C244.392871,9.15179066 244.705371,9.45536245 245.008943,9.8303629 C244.544657,10.2232205 244.205371,10.5714352 243.991085,10.8839356 C243.607156,11.4375077 243.410727,12.0535798 243.410727,12.7321521 C243.410727,13.4642958 243.616084,14.1339395 244.026799,14.7232259 C244.437514,15.3125123 244.910728,15.6875127 245.437515,15.8482272 Z M242.080368,5.37500045 C242.080368,5.74107231 241.991082,6.15178709 241.821439,6.58928761 C241.642867,7.03571671 241.366081,7.44643149 240.991081,7.82143193 C240.669652,8.14286089 240.348223,8.35714686 240.026794,8.46428984 C239.821437,8.52678992 239.517865,8.58036141 239.098222,8.61607574 C239.116079,7.73214611 239.348222,6.96428806 239.794651,6.32143015 C240.24108,5.67857224 240.991081,5.24107172 242.026796,5 C242.044654,5.08035724 242.062511,5.14285731 242.071439,5.19642881 C242.071439,5.25892888 242.080368,5.31250037 242.080368,5.37500045 Z" id="apple---FontAwesome"></path>
                </g>
            </g>
        </g>
    </g>
</svg>