<?xml version="1.0" encoding="UTF-8"?>
<svg xmlns:svg="http://www.w3.org/2000/svg" xmlns="http://www.w3.org/2000/svg" xmlns:xlink="http://www.w3.org/1999/xlink" width="32" height="32" viewBox="-142.5 -142.5 32 32" id="svg3821" version="1.1">
  <metadata id="metadata3838"/>
  <defs id="defs3836"/>
  <circle r="141.73" id="circle3823" cx="0" cy="0" transform="matrix(0.10830859,0,0,0.10830859,-126.3812,-126.6188)" fill="#dd4814"/>
  <g id="U" transform="matrix(0.10830859,0,0,0.10830859,-126.3812,-126.6188)" fill="#fff">
    <circle cx="-96.38" r="18.92" id="circle3826" d="m -77.455698,0 c 0,10.450055 -8.471444,18.921499 -18.921499,18.921499 -10.450053,0 -18.921503,-8.471444 -18.921503,-18.921499 0,-10.450055 8.47145,-18.921499 18.921503,-18.921499 10.450055,0 18.921499,8.471444 18.921499,18.921499 z" cy="0"/>
    <path d="M-45.61 68.4C-62.17 57.33-74.48 40.42-79.6 20.61-73.62 15.74-69.8 8.32-69.8 0c0-8.32-3.82-15.74-9.8-20.61 5.12-19.81 17.44-36.73 34-47.79l13.83 23.17C-45.98-35.22-55.28-18.7-55.28 0c0 18.7 9.29 35.22 23.5 45.22z" id="path3828"/>
  </g>
  <use xlink:href="#U" transform="matrix(-0.5,0.8660254,-0.8660254,-0.5,-299.2269,-80.478858)" id="use3830" x="0" y="0" width="285" height="285"/>
  <use xlink:href="#U" transform="matrix(-0.5,-0.8660254,0.8660254,-0.5,-79.916716,-299.37753)" id="use3832" x="0" y="0" width="285" height="285"/>
</svg>
