<?xml version="1.0" encoding="UTF-8"?>
<svg xmlns:svg="http://www.w3.org/2000/svg" xmlns="http://www.w3.org/2000/svg" version="1.1" width="32" height="32" id="svg2">
  <metadata id="metadata8"/>
  <defs id="defs4"/>
  <g transform="matrix(0.10196638,0,0,0.10196638,-16.144442,-47.931902)" id="layer1">
    <path d="m314.16 481.7c-59.2 0.54-114.81 36.72-137.31 95.34-29.39 76.57 8.84 162.45 85.41 191.84l34.03-88.69c-20.07-7.71-34.31-27.15-34.31-49.94 0-29.55 23.95-53.5 53.5-53.5 29.55 0 53.5 23.95 53.5 53.5 0 22.78-14.24 42.22-34.31 49.94l34.03 88.69c39.29-15.08 70.32-46.12 85.41-85.41 29.39-76.57-8.84-162.48-85.41-191.87-17.95-6.89-36.41-10.07-54.53-9.91z" id="path2830" style="fill:#40aa54;stroke-miterlimit:4;stroke-width:8;stroke:#20552a"/>
  </g>
</svg>
