<?xml version="1.0" encoding="UTF-8" standalone="no"?>
<!-- Created with Inkscape (http://www.inkscape.org/) -->

<svg
   xmlns:dc="http://purl.org/dc/elements/1.1/"
   xmlns:cc="http://creativecommons.org/ns#"
   xmlns:rdf="http://www.w3.org/1999/02/22-rdf-syntax-ns#"
   xmlns:svg="http://www.w3.org/2000/svg"
   xmlns="http://www.w3.org/2000/svg"
   xmlns:sodipodi="http://sodipodi.sourceforge.net/DTD/sodipodi-0.dtd"
   xmlns:inkscape="http://www.inkscape.org/namespaces/inkscape"
   version="1.1"
   width="32"
   height="32"
   id="svg2"
   inkscape:version="0.48.4 r9939"
   sodipodi:docname="Open_Source_Initiative_keyhole.svg">
  <metadata
     id="metadata8">
    <rdf:RDF>
      <cc:Work
         rdf:about="">
        <dc:format>image/svg+xml</dc:format>
        <dc:type
           rdf:resource="http://purl.org/dc/dcmitype/StillImage" />
        <dc:title></dc:title>
      </cc:Work>
    </rdf:RDF>
  </metadata>
  <sodipodi:namedview
     pagecolor="#ffffff"
     bordercolor="#666666"
     borderopacity="1"
     objecttolerance="10"
     gridtolerance="10"
     guidetolerance="10"
     inkscape:pageopacity="0"
     inkscape:pageshadow="2"
     inkscape:window-width="1680"
     inkscape:window-height="1026"
     id="namedview6"
     showgrid="false"
     inkscape:zoom="18.040778"
     inkscape:cx="29.51492"
     inkscape:cy="23.508067"
     inkscape:window-x="0"
     inkscape:window-y="24"
     inkscape:window-maximized="1"
     inkscape:current-layer="svg2" />
  <defs
     id="defs4" />
  <g
     transform="matrix(0.10196638,0,0,0.10196638,-16.144442,-47.931902)"
     id="layer1">
    <path
       d="m 314.15745,481.69558 c -59.20089,0.53774 -114.80979,36.72219 -137.3125,95.34375 -29.39129,76.56693 8.83932,162.45246 85.40625,191.84375 l 34.03125,-88.6875 c -20.0678,-7.71358 -34.3125,-27.15324 -34.3125,-49.9375 0,-29.54723 23.95277,-53.5 53.5,-53.5 29.54723,0 53.5,23.95277 53.5,53.5 0,22.78426 -14.2447,42.22392 -34.3125,49.9375 l 34.03125,88.6875 c 39.29085,-15.08234 70.3239,-46.1154 85.40625,-85.40625 29.39129,-76.56693 -8.83932,-162.48371 -85.40625,-191.875 -17.94537,-6.88859 -36.40853,-10.07087 -54.53125,-9.90625 z"
       id="path2830"
       style="fill:#40aa54;fill-opacity:1;stroke:#20552a;stroke-width:7.99999952;stroke-miterlimit:4;stroke-opacity:1;stroke-dasharray:none"
       inkscape:connector-curvature="0" />
  </g>
</svg>
