<?xml version="1.0" encoding="UTF-8"?>
<svg width="13px" height="16px" viewBox="0 0 13 16" version="1.1" xmlns="http://www.w3.org/2000/svg" xmlns:xlink="http://www.w3.org/1999/xlink">
    <!-- Generator: Sketch 49 (51002) - http://www.bohemiancoding.com/sketch -->
    <title>apple - FontAwesome</title>
    <desc>Created with Sketch.</desc>
    <defs></defs>
    <g id="Download-Bitcoin-Core-" stroke="none" stroke-width="1" fill="none" fill-rule="evenodd">
        <g id="Bitcoin.org---Download-Bitcoin-core--Desktop" transform="translate(-244.000000, -886.000000)" fill="#5B6A77">
            <g id="//Content" transform="translate(215.000000, 543.000000)">
                <g id="Mac" transform="translate(0.000000, 321.000000)">
                    <g id="icon/get-help" transform="translate(20.000000, 15.000000)">
                        <path d="M21.4375148,18.1339252 C21.2143003,18.8392831 20.857157,19.589284 20.3392992,20.3660707 C19.5714412,21.5357149 18.8035831,22.1160728 18.0446536,22.1160728 C17.7410818,22.1160728 17.3303671,22.0178584 16.7946521,21.8303581 C16.2678658,21.6339293 15.8125081,21.5446435 15.4464363,21.5446435 C15.089293,21.5446435 14.660721,21.6428579 14.1785776,21.8392867 C13.6875056,22.0446441 13.294648,22.1428585 13.0000048,22.1428585 C12.0803608,22.1428585 11.1964312,21.3660719 10.3125016,19.8303557 C9.4464291,18.2946396 9,16.8035664 9,15.339279 C9,13.9732059 9.33928612,12.8660617 10.0089298,11.9999893 C10.6785734,11.1428454 11.5178601,10.7142735 12.5446471,10.7142735 C12.9821476,10.7142735 13.5000054,10.8035593 14.1250061,10.9821309 C14.7410783,11.1607026 15.151793,11.2499884 15.3571504,11.2499884 C15.6160793,11.2499884 16.0446513,11.151774 16.6339377,10.9464166 C17.2232241,10.7499878 17.7410818,10.6428448 18.1785824,10.6428448 C18.8928689,10.6428448 19.5267983,10.8392736 20.0803704,11.2232026 C20.3928707,11.4374886 20.7053711,11.7410604 21.0089429,12.1160608 C20.5446566,12.5089184 20.2053705,12.8571332 19.9910845,13.1696335 C19.6071555,13.7232056 19.4107267,14.3392778 19.4107267,15.01785 C19.4107267,15.7499937 19.6160841,16.4196374 20.0267989,17.0089238 C20.4375136,17.5982102 20.9107285,17.9732107 21.4375148,18.1339252 Z M18.080368,7.66069838 C18.080368,8.02677025 17.9910821,8.43748502 17.8214391,8.87498555 C17.6428674,9.32141465 17.3660814,9.73212942 16.991081,10.1071299 C16.669652,10.4285588 16.348223,10.6428448 16.0267941,10.7499878 C15.8214367,10.8124879 15.5178649,10.8660593 15.0982216,10.9017737 C15.1160787,10.0178441 15.3482219,9.24998599 15.794651,8.60712808 C16.2410801,7.96427017 16.991081,7.52676965 18.0267965,7.28569794 C18.0446536,7.36605518 18.0625108,7.42855525 18.0714394,7.48212674 C18.0714394,7.54462682 18.080368,7.59819831 18.080368,7.66069838 Z" id="apple---FontAwesome"></path>
                    </g>
                </g>
            </g>
        </g>
    </g>
</svg>