<?xml version="1.0" encoding="UTF-8"?>
<svg width="14px" height="16px" viewBox="0 0 14 16" version="1.1" xmlns="http://www.w3.org/2000/svg" xmlns:xlink="http://www.w3.org/1999/xlink">
    <!-- Generator: Sketch 49 (51002) - http://www.bohemiancoding.com/sketch -->
    <title>linux - FontAwesome</title>
    <desc>Created with Sketch.</desc>
    <defs></defs>
    <g id="Download-Bitcoin-Core-" stroke="none" stroke-width="1" fill="none" fill-rule="evenodd">
        <g id="Bitcoin.org---Download-Bitcoin-core--Desktop" transform="translate(-243.000000, -981.000000)" fill="#5B6A77">
            <g id="//Content" transform="translate(215.000000, 543.000000)">
                <g id="Linux" transform="translate(0.000000, 416.000000)">
                    <g id="icon/Contribute" transform="translate(20.000000, 15.000000)">
                        <path d="M13.8628388,10.6699667 C13.5771242,10.6521096 13.559267,10.8574669 13.6485528,10.8485384 C13.7467672,10.8485384 13.6842671,10.6878239 13.8628388,10.6699667 Z M14.6407415,10.68894 C14.5972147,10.6543417 14.510161,10.6387167 14.3806965,10.6967525 C14.4610538,10.674431 14.5034645,10.705681 14.5369467,10.7391632 L14.6407415,10.68894 Z M14.6407415,10.68894 C14.6842683,10.7235382 14.6842683,10.7771097 14.6396254,10.7949669 C14.5949825,10.8083597 14.5704289,10.7726454 14.5369467,10.7391632 L14.6407415,10.68894 Z M11.5056931,14.6074714 C11.4253359,14.5806857 11.443193,14.7414001 11.3628358,14.8664003 C11.3003357,14.9824719 11.1396212,15.0717577 11.2646214,15.0896148 C11.3092643,15.0985434 11.4342645,14.9914004 11.4878359,14.8664003 C11.5324789,14.7146144 11.5771218,14.6342572 11.5056931,14.6074714 Z M19.1396308,17.8128324 C19.1396308,17.6521179 18.7914161,17.500332 18.6485588,17.4378319 C18.8896305,16.6342595 18.7824875,16.3128306 18.621773,15.5539011 C18.4967729,14.9824719 17.9699865,14.2056852 17.5592718,13.9646135 C17.6664147,14.0538993 17.8628435,14.3128282 18.0682009,14.7056858 C18.4253442,15.3753295 18.7824875,16.3664021 18.5503444,17.1878316 C18.4610585,17.5092606 18.2467726,17.5539035 18.1039153,17.5628321 C17.4789145,17.6342607 17.8449864,16.8128312 17.5860575,15.6967584 C17.2914143,14.4467569 16.9878425,14.3574711 16.9164138,14.2592567 C16.550342,12.6342548 16.1485558,12.7949692 16.0324842,12.1878257 C15.9342698,11.6431822 16.5056991,11.1967531 15.7289124,11.0449672 C15.4878407,11.0003243 15.1485546,10.7592525 15.0146259,10.7413954 C14.8806971,10.7235382 14.8092685,9.83960858 15.3092691,9.81282284 C15.8003411,9.77710851 15.8896269,10.3663949 15.8003411,10.5985381 C15.6574838,10.8306812 15.8092697,10.919967 16.0503414,10.8396098 C16.2467702,10.7771097 16.12177,10.2592519 16.166413,10.1878233 C16.0414128,9.43782239 15.7289124,9.3306794 15.4074835,9.26817933 C14.1753391,9.36639373 14.7289112,10.7235382 14.6039111,10.5985381 C14.4253394,10.4110378 13.9074817,10.5806809 13.9074817,10.4646093 C13.9164103,9.76817993 13.6842671,9.36639373 13.3628382,9.35746515 C13.0056949,9.34853657 12.8628376,9.84853716 12.8449804,10.1342518 C12.8181947,10.4021093 12.9967663,10.9646099 13.130695,10.919967 C13.2199809,10.8931813 13.3717668,10.7146096 13.2110523,10.7235382 C13.130695,10.7235382 13.0056949,10.5271094 12.9878377,10.2949663 C12.9789092,10.0628231 13.068195,9.83068 13.3717668,9.83960858 C13.7199815,9.84853716 13.7199815,10.5449666 13.6842671,10.5717523 C13.5681956,10.6521096 13.4253383,10.8038954 13.4074811,10.8306812 C13.2914095,11.0181814 13.068195,11.0717529 12.9789092,11.1521101 C12.8271233,11.3128246 12.7914089,11.4913963 12.9074805,11.5538963 C13.3181953,11.7860395 13.1842665,12.0538969 13.7556958,12.0717541 C14.1306962,12.0896113 14.4074823,12.0181826 14.6664112,11.9378254 C14.86284,11.8753253 15.4967693,11.7413966 15.630698,11.5092534 C15.6931981,11.411039 15.7646268,11.411039 15.8092697,11.4378248 C15.8985555,11.4824677 15.9164127,11.6521107 15.6931981,11.7056822 C15.3806977,11.7949681 15.0681974,11.9646111 14.7824827,12.0717541 C14.5056967,12.1878257 14.4164109,12.2324686 14.157482,12.2771115 C13.5681956,12.3842545 13.130695,12.0628255 13.5235527,12.4467545 C13.6574814,12.5717547 13.7824815,12.6521119 14.1217677,12.6431834 C14.8717686,12.6163976 15.7021267,11.7146108 15.7824839,12.116397 C15.8003411,12.2056828 15.5503408,12.3128258 15.353912,12.4110402 C14.6574826,12.7503263 14.1664106,13.4288986 13.7199815,13.1967554 C13.3181953,12.9824695 12.9164091,11.9913969 12.9253377,12.437826 C12.9342662,13.1253268 12.0235509,13.7324704 12.4431942,14.5181856 C12.1664082,14.5896142 11.550336,15.9021158 11.4610502,16.580688 C11.4074787,16.9735457 11.4967645,17.4556891 11.3985501,17.7235466 C11.2646214,18.1164042 10.6574778,17.3485461 10.8539066,16.411045 C10.8896209,16.2503305 10.8539066,16.2146162 10.8092637,16.2949734 C10.568192,16.7324739 10.7021207,17.3485461 10.8985495,17.777118 C10.9789068,17.9646183 11.1842642,18.0449755 11.3360501,18.20569 C11.6485504,18.5628333 12.8806947,19.4735486 13.0949807,19.6967632 C13.3717668,19.9556921 13.2914095,20.5628357 12.7199803,20.6253357 C13.0146235,21.1789078 13.3003381,21.2324793 13.2914095,22.1342661 C13.6306956,21.9556945 13.4967669,21.5628368 13.3539096,21.3128365 C13.2556952,21.1342649 13.130695,21.0539077 13.1574808,21.0092648 C13.175338,20.982479 13.3539096,20.8306931 13.452124,20.9467647 C13.7556958,21.2860508 14.327125,21.3485509 14.9342686,21.2681936 C15.5503408,21.196765 16.2110559,20.982479 16.5146277,20.491407 C16.657485,20.2592639 16.7556994,20.1789066 16.8181994,20.2235495 C16.8896281,20.2592639 16.9164138,20.4199783 16.9074853,20.6878358 C16.8985567,20.9735504 16.7824851,21.2681936 16.7021279,21.5092654 C16.6217706,21.7860514 16.5949849,21.9735516 16.8628424,21.9824802 C16.934271,21.4824796 17.0771283,20.9914076 17.1128427,20.491407 C17.1574856,19.9199777 16.7467708,18.8664051 17.1931999,18.3396187 C17.3092715,18.1967614 17.4521288,18.1789042 17.6485576,18.1789042 C17.6753433,17.4646177 18.7735589,17.5181892 19.1396308,17.8128324 Z M13.5324812,10.428895 C13.5681956,10.2056804 13.4610526,10.044966 13.4074811,10.0271088 C13.3003381,10.0003231 13.3181953,10.1610375 13.3717668,10.1431804 C13.4074811,10.1431804 13.452124,10.1967519 13.4342668,10.2771091 C13.4164097,10.3842521 13.4253383,10.4556807 13.5056955,10.4556807 C13.5146241,10.4556807 13.5324812,10.4556807 13.5324812,10.428895 Z M17.2735571,12.1878257 C17.2378428,12.0181826 17.1128427,12.0806827 16.9699853,11.9913969 C16.8003423,11.8842539 16.764628,11.7056822 16.7021279,11.7681823 C16.5146277,11.9735397 16.934271,12.4021116 17.1128427,12.437826 C17.2199856,12.4556831 17.3003429,12.3128258 17.2735571,12.1878257 Z M15.6842695,10.2860377 C15.6931981,10.0717517 15.5056979,9.96460873 15.461055,9.97353731 C15.3449834,9.9824659 15.3806977,10.0360374 15.4342692,10.0538946 C15.5056979,10.0717517 15.5771265,10.1967519 15.5949837,10.3306806 C15.5949837,10.3485378 15.6842695,10.3128234 15.6842695,10.2860377 Z M16.166413,8.20567806 C16.1753415,8.16103515 16.05927,8.10746366 15.9789127,8.04496359 C15.9074841,7.97353493 15.8360554,7.91103485 15.7646268,7.91103485 C15.5860551,7.92889202 15.6753409,8.11639224 15.6485552,8.20567806 C15.6128409,8.30389247 15.4789121,8.3842497 15.568198,8.45567836 C15.6485552,8.51817844 15.7021267,8.35746396 15.8717697,8.29496388 C15.9164127,8.27710672 16.12177,8.30389247 16.166413,8.20567806 Z M21.2110618,20.1789066 C22.3092774,20.8574789 20.800347,21.4199795 20.1485606,21.7503371 C19.6396314,22.0092659 18.9610591,22.5806952 18.7110588,22.8217669 C18.5235586,23.0003386 17.746772,23.0896244 17.3092715,22.8664098 C16.8003423,22.6074809 17.0681997,22.1967662 16.2824845,22.1699804 C15.8896269,22.1610518 15.5056979,22.1610518 15.1217688,22.1610518 C14.7824827,22.1699804 14.4431966,22.1878376 14.0949819,22.1967662 C12.9164091,22.2235519 12.8003375,22.9824814 12.041408,22.9556956 C11.5235503,22.9378385 10.8717638,22.5271237 9.74676244,22.2949806 C8.96104722,22.1342661 8.20211774,22.0896232 8.04140327,21.7414085 C7.88068879,21.3931938 8.23783207,21.0003362 8.26461782,20.6610501 C8.29140356,20.2056924 7.9253317,19.5896202 8.19318916,19.3574771 C8.4253323,19.1521197 8.91640431,19.3039056 9.23783326,19.1253339 C9.57711938,18.9289051 9.7199767,18.7771192 9.7199767,18.3574759 C9.84497684,18.7860478 9.71104811,19.1342625 9.43426207,19.3039056 C9.26461901,19.4110486 8.95211864,19.4646201 8.69318976,19.4378343 C8.48783237,19.4199771 8.36283222,19.4467629 8.30926073,19.5271201 C8.22890349,19.6253345 8.25568924,19.8039062 8.35390364,20.0360493 C8.45211804,20.2681924 8.56818961,20.4199783 8.55033244,20.705693 C8.54140386,20.9914076 8.21997491,21.3306937 8.2735464,21.5717654 C8.29140356,21.6610512 8.38068938,21.7414085 8.60390394,21.8039086 C8.96104722,21.902123 9.61283371,22.0003374 10.246763,22.1521233 C10.952121,22.3306949 11.6842648,22.6521239 12.1396224,22.5896238 C13.4967669,22.4021236 12.7199803,20.9467647 12.5056943,20.59855 C11.3539072,18.7949764 10.5949777,17.6164036 9.98783416,18.0806898 C9.83604826,18.20569 9.82711968,17.777118 9.83604826,17.607475 C9.86283401,17.0181886 10.1574772,16.8039026 10.3360489,16.3485449 C10.675335,15.4824725 10.9342639,14.4913998 11.4521216,13.9824707 C11.8360506,13.4824701 12.4431942,12.6699691 12.5592658,12.2413972 C12.4610514,11.3128246 12.4342656,10.3306806 12.4164085,9.47353672 C12.3985513,8.55389276 12.5414086,7.75032038 13.5771242,7.18781971 C13.8271244,7.05389098 14.157482,7.00031948 14.5056967,7.00031948 C15.1217688,6.9913909 15.8092697,7.16996254 16.2467702,7.4913915 C16.9431996,8.00924926 17.3807001,9.10746485 17.3271286,9.89318007 C17.2914143,10.5092522 17.3985573,11.1431816 17.5949861,11.8038966 C17.8271292,12.5806833 18.1932011,13.1253268 18.7824875,13.7503275 C19.4878455,14.5003284 20.0414176,15.9735445 20.202132,16.9110456 C20.3449894,17.7860466 20.1485606,18.3306901 19.9610603,18.3574759 C19.6753457,18.4021188 19.4967741,19.3039056 18.6039159,19.2681913 C18.0324866,19.2414055 17.9789151,18.9021194 17.8182006,18.6074762 C17.5592718,18.1521185 17.3003429,18.2949758 17.2021285,18.7771192 C17.148557,19.018191 17.1842713,19.3753342 17.2646285,19.6431917 C17.425343,20.2056924 17.3717715,20.7324787 17.2735571,21.3842652 C17.0860569,22.6164095 18.1396296,22.8485527 18.8449876,22.2592662 C19.541417,21.6789084 19.6932029,21.5896226 20.5682039,21.2860508 C21.8985626,20.8306931 21.4521335,20.4289069 20.737847,20.1878352 C20.0949891,19.9735492 20.0682033,18.8931908 20.3003465,18.6878334 C20.3539179,19.8485491 20.9610615,20.0181921 21.2110618,20.1789066 Z" id="linux---FontAwesome"></path>
                    </g>
                </g>
            </g>
        </g>
    </g>
</svg>