<?xml version="1.0" encoding="UTF-8"?>
<svg width="17px" height="16px" viewBox="0 0 17 16" version="1.1" xmlns="http://www.w3.org/2000/svg" xmlns:xlink="http://www.w3.org/1999/xlink">
    <!-- Generator: Sketch 49 (51002) - http://www.bohemiancoding.com/sketch -->
    <title>globe - simple-line-icons</title>
    <desc>Created with Sketch.</desc>
    <defs></defs>
    <g id="new" stroke="none" stroke-width="1" fill="none" fill-rule="evenodd">
        <g id="Bitcoin.org---new-Choose-Your-wallet--Desktop-Copy-4" transform="translate(-1131.000000, -1190.000000)" fill="#192A39">
            <g id="//Content" transform="translate(0.000000, 473.000000)">
                <g id="Wallets-for-Linux" transform="translate(215.000000, 152.000000)">
                    <g id="Containers">
                        <g id="Container" transform="translate(800.000000, 420.000000)">
                            <g id="Group" transform="translate(37.000000, 140.000000)">
                                <g id="globe---simple-line-icons">
                                    <path d="M95.03125,13 C95.03125,14.0625053 94.8359395,15.0650995 94.4453125,16.0078125 C94.0546855,16.9505255 93.5182326,17.7786423 92.8359375,18.4921875 C92.1536424,19.2057327 91.3541713,19.783852 90.4375,20.2265625 C89.5208287,20.669273 88.5416719,20.9218747 87.5,20.984375 C87.4583331,20.984375 87.4140627,20.9869791 87.3671875,20.9921875 C87.3203123,20.9973959 87.2760419,21 87.234375,21 L87.015625,21 C85.9114528,21 84.8724007,20.7890646 83.8984375,20.3671875 C82.9244743,19.9453104 82.0755245,19.3723995 81.3515625,18.6484375 C80.6276005,17.9244755 80.0546896,17.0781298 79.6328125,16.109375 C79.2109354,15.1406202 79,14.1041722 79,13 C79,11.8958278 79.2109354,10.8593798 79.6328125,9.890625 C80.0546896,8.92187016 80.6276005,8.07552445 81.3515625,7.3515625 C82.0755245,6.62760055 82.9244743,6.05468961 83.8984375,5.6328125 C84.8724007,5.21093539 85.9114528,5 87.015625,5 L87.234375,5 C87.2760419,5 87.3203123,5.00260414 87.3671875,5.0078125 C87.4140627,5.01302086 87.4583331,5.015625 87.5,5.015625 C88.5416719,5.07812531 89.5208287,5.33072695 90.4375,5.7734375 C91.3541713,6.21614805 92.1536424,6.79426727 92.8359375,7.5078125 C93.5182326,8.22135773 94.0546855,9.04947445 94.4453125,9.9921875 C94.8359395,10.9349005 95.03125,11.9374947 95.03125,13 Z M93.546875,15.578125 C93.7031258,15.1822897 93.8229163,14.7682313 93.90625,14.3359375 C93.9895837,13.9036437 94.03125,13.4583356 94.03125,13 C94.03125,12.5208309 93.9843755,12.0546898 93.890625,11.6015625 C93.7968745,11.1484352 93.6666675,10.718752 93.5,10.3125 L93.6875,10.828125 C93.6562498,10.8385417 93.4609393,10.8906245 93.1015625,10.984375 C92.7421857,11.0781255 92.1770872,11.1718745 91.40625,11.265625 C91.4375002,11.5468764 91.4635416,11.8307277 91.484375,12.1171875 C91.5052084,12.4036473 91.515625,12.6979152 91.515625,13 C91.515625,13.3750019 91.5000002,13.7447898 91.46875,14.109375 C91.4374998,14.4739602 91.4010419,14.8281233 91.359375,15.171875 C91.9635447,15.244792 92.4427066,15.3203121 92.796875,15.3984375 C93.1510434,15.4765629 93.4010409,15.5364581 93.546875,15.578125 Z M83.46875,13 C83.46875,13.3645852 83.4843748,13.7187483 83.515625,14.0625 C83.5468752,14.4062517 83.5885414,14.74479 83.640625,15.078125 C84.046877,15.0468748 84.4869768,15.0208334 84.9609375,15 C85.4348982,14.9791666 85.9479139,14.9635417 86.5,14.953125 L86.5,11.484375 C85.9270805,11.484375 85.3984399,11.4739584 84.9140625,11.453125 C84.4296851,11.4322916 83.984377,11.4062502 83.578125,11.375 C83.5468748,11.635418 83.5208334,11.9010403 83.5,12.171875 C83.4791666,12.4427097 83.46875,12.7187486 83.46875,13 Z M87.5,6.0625 L87.5,10.5 C88.0416694,10.4895833 88.5390602,10.4739584 88.9921875,10.453125 C89.4453148,10.4322916 89.8645814,10.4062502 90.25,10.375 C90.1249994,9.81249719 89.9713551,9.28906492 89.7890625,8.8046875 C89.6067699,8.32031008 89.3958345,7.89062688 89.15625,7.515625 C88.9166655,7.14062313 88.6562514,6.82812625 88.375,6.578125 C88.0937486,6.32812375 87.8020848,6.15625047 87.5,6.0625 Z M86.5,6.078125 C86.1979152,6.17187547 85.9062514,6.34635289 85.625,6.6015625 C85.3437486,6.85677211 85.0859387,7.16926898 84.8515625,7.5390625 C84.6171863,7.90885602 84.4062509,8.33593508 84.21875,8.8203125 C84.0312491,9.30468992 83.8750006,9.82291391 83.75,10.375 C84.1354186,10.4062502 84.5572894,10.4322916 85.015625,10.453125 C85.4739606,10.4739584 85.9687473,10.4895833 86.5,10.5 L86.5,6.078125 Z M86.5,15.953125 C85.9895808,15.9635417 85.5156272,15.9765624 85.078125,15.9921875 C84.6406228,16.0078126 84.2343769,16.0312498 83.859375,16.0625 C83.9843756,16.5625025 84.1406241,17.0286437 84.328125,17.4609375 C84.5156259,17.8932313 84.7239572,18.27604 84.953125,18.609375 C85.1822928,18.94271 85.427082,19.221353 85.6875,19.4453125 C85.947918,19.669272 86.2187486,19.8281245 86.5,19.921875 L86.5,15.953125 Z M87.5,19.9375 C87.7812514,19.8541662 88.0546862,19.700522 88.3203125,19.4765625 C88.5859388,19.252603 88.8333322,18.97396 89.0625,18.640625 C89.2916678,18.30729 89.4973949,17.9218772 89.6796875,17.484375 C89.8619801,17.0468728 90.0156244,16.5729192 90.140625,16.0625 C89.7760398,16.0312498 89.372398,16.0078126 88.9296875,15.9921875 C88.486977,15.9765624 88.0104192,15.9635417 87.5,15.953125 L87.5,19.9375 Z M87.5,14.953125 C88.0520861,14.9635417 88.5651018,14.9791666 89.0390625,15 C89.5130232,15.0208334 89.9479147,15.0468748 90.34375,15.078125 C90.3958336,14.74479 90.4374998,14.4062517 90.46875,14.0625 C90.5000002,13.7187483 90.515625,13.3645852 90.515625,13 C90.515625,12.7187486 90.5052084,12.4427097 90.484375,12.171875 C90.4635416,11.9010403 90.4375002,11.6302097 90.40625,11.359375 C90.0104147,11.4010419 89.5703149,11.4322916 89.0859375,11.453125 C88.6015601,11.4739584 88.0729195,11.484375 87.5,11.484375 L87.5,14.953125 Z M93.3125,9.90625 C92.9479148,9.16666297 92.4635447,8.51041953 91.859375,7.9375 C91.2552053,7.36458047 90.5729205,6.91146 89.8125,6.578125 C90.1354183,7.03646063 90.4218738,7.58072602 90.671875,8.2109375 C90.9218762,8.84114898 91.1197909,9.53124625 91.265625,10.28125 C91.8906281,10.208333 92.36979,10.1328129 92.703125,10.0546875 C93.03646,9.97656211 93.239583,9.92708344 93.3125,9.90625 Z M84.625,6.421875 C84.1874978,6.57812578 83.7760436,6.77343633 83.390625,7.0078125 C83.0052064,7.24218867 82.645835,7.51041516 82.3125,7.8125 C81.979165,8.11458484 81.6744805,8.4453107 81.3984375,8.8046875 C81.1223945,9.1640643 80.8854177,9.54687297 80.6875,9.953125 C80.8229173,9.99479188 81.0624983,10.0468747 81.40625,10.109375 C81.7500017,10.1718753 82.2083305,10.2343747 82.78125,10.296875 C82.9583342,9.49478766 83.2083317,8.76562828 83.53125,8.109375 C83.8541683,7.45312172 84.218748,6.89062734 84.625,6.421875 Z M80.328125,10.890625 C80.2239578,11.22396 80.1432295,11.5677066 80.0859375,11.921875 C80.0286455,12.2760434 80,12.6354148 80,13 C80,13.4479189 80.0390621,13.8828104 80.1171875,14.3046875 C80.1953129,14.7265646 80.3124992,15.1302064 80.46875,15.515625 C80.6250008,15.4843748 80.8854148,15.4348962 81.25,15.3671875 C81.6145852,15.2994788 82.0885387,15.2343753 82.671875,15.171875 C82.6093747,14.8281233 82.5625002,14.4739602 82.53125,14.109375 C82.4999998,13.7447898 82.484375,13.3750019 82.484375,13 C82.484375,12.7083319 82.4921874,12.4166681 82.5078125,12.125 C82.5234376,11.8333319 82.5520831,11.5520847 82.59375,11.28125 C81.9166633,11.208333 81.393231,11.1328129 81.0234375,11.0546875 C80.653644,10.9765621 80.4218755,10.9218752 80.328125,10.890625 Z M80.90625,16.4375 C81.1145844,16.8020852 81.3515612,17.1432276 81.6171875,17.4609375 C81.8828138,17.7786474 82.1718734,18.0703112 82.484375,18.3359375 C82.7968766,18.6015638 83.1328107,18.8411448 83.4921875,19.0546875 C83.8515643,19.2682302 84.2291647,19.4427077 84.625,19.578125 C84.2499981,19.1614563 83.914064,18.6614613 83.6171875,18.078125 C83.320311,17.4947887 83.0781259,16.8489619 82.890625,16.140625 C82.4010392,16.1927086 81.9947933,16.2473955 81.671875,16.3046875 C81.3489567,16.3619795 81.0937509,16.4062498 80.90625,16.4375 Z M89.8125,19.421875 C90.5000034,19.1197902 91.1249972,18.7187525 91.6875,18.21875 C92.2500028,17.7187475 92.7187481,17.1406283 93.09375,16.484375 C92.9374992,16.4427081 92.7031266,16.3932295 92.390625,16.3359375 C92.0781234,16.2786455 91.6718775,16.2187503 91.171875,16.15625 C91.0260409,16.8125033 90.8359387,17.4166639 90.6015625,17.96875 C90.3671863,18.5208361 90.1041681,19.0052063 89.8125,19.421875 Z"></path>
                                </g>
                            </g>
                        </g>
                    </g>
                </g>
            </g>
        </g>
    </g>
</svg>