<?xml version="1.0" encoding="UTF-8"?>
<svg xmlns:svg="http://www.w3.org/2000/svg" xmlns="http://www.w3.org/2000/svg" width="32" height="50" id="svg2986" version="1.1">
  <defs id="defs2988">
    <filter id="filter3961" x="-0.16" width="1.32" y="-0.13" height="1.26" color-interpolation-filters="sRGB">
      <feGaussianBlur stdDeviation="2.05" id="feGaussianBlur3963"/>
    </filter>
  </defs>
  <metadata id="metadata2991"/>
  <g id="layer1" transform="translate(0,2)">
    <path id="path4004-5-6" d="m16.4 32.09c-0.1 0-0.21 0-0.32 0.01-2.79 0.22-2.05 3.18-2.09 4.16-0.05 0.72-0.2 1.29-0.69 2-0.58 0.69-1.41 1.82-1.8 2.99-0.18 0.55-0.27 1.12-0.19 1.65-0.03 0.02-0.05 0.05-0.07 0.07-0.17 0.18-0.3 0.4-0.44 0.55-0.13 0.13-0.32 0.18-0.53 0.26-0.21 0.07-0.43 0.18-0.57 0.45 0 0 0 0 0 0 0 0 0 0 0 0l0 0c-0.12 0.23-0.09 0.5-0.05 0.75 0.04 0.25 0.08 0.48 0.03 0.64-0.16 0.45-0.18 0.76-0.07 0.98 0.12 0.22 0.35 0.32 0.62 0.38 0.54 0.11 1.26 0.08 1.83 0.39l0.05-0.09-0.05 0.09c0.61 0.32 1.23 0.43 1.73 0.32 0.36-0.08 0.65-0.3 0.8-0.62 0.39 0 0.81-0.17 1.49-0.2 0.46-0.04 1.04 0.16 1.7 0.13 0.02 0.07 0.04 0.14 0.08 0.21 0 0 0 0 0 0 0.26 0.51 0.74 0.75 1.25 0.71 0.51-0.04 1.05-0.34 1.49-0.86l-0.08-0.07 0.08 0.07c0.42-0.51 1.11-0.72 1.57-0.99 0.23-0.14 0.42-0.31 0.43-0.56 0.01-0.25-0.13-0.53-0.47-0.91l0 0c0 0 0 0 0 0-0.11-0.13-0.17-0.36-0.22-0.61-0.06-0.25-0.12-0.52-0.33-0.69l0 0c0 0 0 0 0 0l0 0c-0.08-0.07-0.17-0.12-0.25-0.15 0.28-0.84 0.17-1.68-0.11-2.44-0.35-0.93-0.97-1.74-1.44-2.3-0.53-0.66-1.04-1.29-1.03-2.22 0.02-1.42 0.16-4.06-2.34-4.06zm0.34 2.19c0.14 0 0.26 0.04 0.39 0.13 0.13 0.09 0.22 0.21 0.29 0.37 0.07 0.16 0.11 0.31 0.11 0.49 0 0 0 0.01 0 0.01 0 0.19-0.03 0.34-0.1 0.51-0.04 0.09-0.09 0.17-0.14 0.24-0.02-0.01-0.04-0.02-0.06-0.03l0 0c-0.14-0.06-0.25-0.1-0.34-0.13 0.03-0.04 0.06-0.09 0.08-0.14 0.04-0.09 0.05-0.17 0.06-0.28 0 0 0-0.01 0-0.01 0-0.1-0.01-0.18-0.04-0.27-0.03-0.09-0.07-0.15-0.12-0.21-0.06-0.05-0.11-0.08-0.18-0.08 0 0-0.01 0-0.01 0-0.06 0-0.12 0.02-0.17 0.07-0.06 0.05-0.1 0.11-0.14 0.2-0.04 0.09-0.05 0.17-0.06 0.28 0 0 0 0.01 0 0.01 0 0.06 0 0.11 0.01 0.16-0.13-0.06-0.25-0.11-0.36-0.13-0.01-0.05-0.01-0.1-0.01-0.15l0-0.01c0-0.19 0.03-0.34 0.1-0.51 0.07-0.16 0.16-0.28 0.28-0.37 0.12-0.09 0.25-0.14 0.39-0.14 0 0 0 0 0.01 0zm-1.94 0.15c0.09 0 0.18 0.03 0.27 0.1 0.09 0.08 0.17 0.17 0.23 0.31 0.06 0.14 0.09 0.27 0.1 0.43l0 0c0 0.07 0 0.13 0 0.19-0.02 0.01-0.04 0.01-0.05 0.02-0.1 0.03-0.19 0.08-0.27 0.13 0.01-0.05 0.01-0.11 0-0.17 0 0 0-0.01 0-0.01-0.01-0.08-0.03-0.15-0.05-0.22-0.03-0.07-0.06-0.12-0.11-0.16-0.04-0.04-0.08-0.05-0.12-0.05 0 0-0.01 0-0.01 0-0.05 0-0.09 0.03-0.12 0.07-0.04 0.05-0.06 0.1-0.08 0.18-0.02 0.07-0.02 0.15-0.01 0.23 0 0 0 0.01 0 0.01 0.01 0.08 0.02 0.15 0.05 0.22 0.03 0.07 0.06 0.12 0.11 0.16 0.01 0.01 0.01 0.01 0.02 0.02-0.05 0.04-0.07 0.05-0.11 0.08-0.02 0.02-0.05 0.04-0.09 0.06-0.07-0.07-0.13-0.16-0.18-0.27-0.06-0.14-0.09-0.27-0.1-0.43l0 0c-0.01-0.16 0.01-0.3 0.05-0.44 0.04-0.14 0.1-0.25 0.19-0.33 0.09-0.08 0.17-0.13 0.28-0.13 0.01 0 0.02 0 0.02 0zm0.88 1.11c0.22 0 0.48 0.07 0.8 0.28 0.2 0.13 0.35 0.14 0.7 0.29l0 0 0 0c0.17 0.07 0.27 0.16 0.32 0.25 0.05 0.1 0.05 0.2 0.01 0.31-0.08 0.22-0.34 0.44-0.7 0.56l0 0 0 0c-0.18 0.06-0.33 0.18-0.51 0.29-0.18 0.1-0.39 0.19-0.67 0.17l0 0c-0.24-0.01-0.38-0.09-0.51-0.2-0.13-0.1-0.24-0.23-0.41-0.33l0 0 0 0c-0.26-0.15-0.41-0.32-0.45-0.47-0.05-0.15 0-0.28 0.13-0.38 0.15-0.11 0.25-0.19 0.32-0.24 0.07-0.05 0.1-0.07 0.12-0.09 0 0 0 0 0 0l0 0c0.11-0.11 0.29-0.3 0.55-0.39 0.09-0.03 0.19-0.05 0.31-0.05zm1.53 0.9c-0.09 0.01-0.19 0.05-0.31 0.12-0.12 0.06-0.24 0.15-0.38 0.23-0.28 0.16-0.6 0.32-0.92 0.32-0.32 0-0.58-0.15-0.77-0.3-0.1-0.08-0.18-0.15-0.24-0.21-0.03-0.03-0.06-0.06-0.08-0.07-0.03-0.02-0.05-0.04-0.09-0.04l0 0.09c0 0.03-0.01 0.03 0 0.03 0 0 0.01 0 0.02 0.01 0.02 0.01 0.05 0.04 0.08 0.07 0.06 0.06 0.14 0.14 0.25 0.22 0.2 0.16 0.49 0.33 0.85 0.33 0.36 0 0.7-0.17 0.98-0.33 0.14-0.08 0.27-0.16 0.38-0.23 0.11-0.06 0.2-0.1 0.26-0.1l-0.01-0.12zm0.32 0.43c0.24 0.94 0.79 2.3 1.15 2.96 0.19 0.35 0.54 0.98 0.71 1.88 0.01 0.52-0.32 0.44-0.39 0.83-0.01 0.03-0.01 0.06-0.01 0.09-0.05 0.02-0.09 0.04-0.14 0.06-0.28 0.16-0.44 0.44-0.53 0.78-0.09 0.35-0.11 0.76-0.13 1.23 0 0 0 0 0 0-0.01 0.24-0.11 0.56-0.21 0.9-0.99 0.71-2.37 1.01-3.54 0.22-0.08-0.13-0.17-0.25-0.26-0.37-0.06-0.08-0.12-0.16-0.18-0.23 0.12 0 0.22-0.02 0.3-0.06 0.1-0.05 0.17-0.12 0.21-0.22 0.07-0.19 0-0.46-0.23-0.77-0.23-0.31-0.61-0.66-1.18-1.01 0 0 0 0 0 0-0.5-0.42-0.36-1.06 0.15-2.55 0.37-0.85 1.15-2.31 1.22-3.48 0.03 0.02 0.14 0.1 0.19 0.13 0 0 0 0 0 0 0.14 0.08 0.25 0.21 0.39 0.32 0.14 0.11 0.31 0.21 0.58 0.22l0 0c0.31 0.02 0.54-0.08 0.73-0.19 0.19-0.11 0.34-0.23 0.49-0.28 0 0 0 0 0 0 0.31-0.1 0.55-0.27 0.69-0.46zm1.45 5.99c0.03 0.41 0.23 0.82 0.58 0.91 0.39 0.1 0.95-0.23 1.19-0.5 0.05 0 0.09 0 0.14-0.01 0.21 0 0.38 0.01 0.56 0.16l0 0 0 0c0.14 0.12 0.2 0.34 0.26 0.58 0.06 0.25 0.1 0.51 0.27 0.7l0 0 0 0c0.33 0.36 0.43 0.6 0.42 0.76-0.01 0.16-0.12 0.27-0.33 0.4-0.42 0.25-1.15 0.47-1.62 1.04-0.41 0.49-0.91 0.75-1.35 0.79-0.44 0.03-0.82-0.15-1.04-0.6l0 0 0 0c-0.14-0.26-0.08-0.68 0.04-1.12 0.12-0.44 0.28-0.89 0.31-1.26l0 0 0 0c0.02-0.47 0.05-0.88 0.13-1.2 0.08-0.32 0.2-0.53 0.42-0.65 0.01-0.01 0.02-0.01 0.03-0.02zm-7.14 0.03c0.03 0 0.07 0 0.1 0.01 0.25 0.04 0.47 0.21 0.68 0.5 0.21 0.28 0.4 0.67 0.6 1.1l0 0 0 0c0.16 0.34 0.5 0.7 0.79 1.08 0.29 0.38 0.51 0.75 0.48 1.04l0 0 0 0c-0.04 0.49-0.32 0.76-0.74 0.86-0.43 0.1-1.01 0-1.58-0.3 0 0 0 0 0 0-0.64-0.34-1.4-0.31-1.89-0.41-0.24-0.05-0.4-0.13-0.48-0.27-0.07-0.14-0.07-0.39 0.08-0.81l0 0 0 0c0.08-0.24 0.02-0.5-0.02-0.74-0.04-0.24-0.06-0.46 0.03-0.62l0 0 0 0c0.11-0.21 0.26-0.28 0.46-0.35 0.19-0.07 0.42-0.12 0.6-0.31l0 0 0 0c0.17-0.18 0.29-0.4 0.44-0.56 0.12-0.13 0.25-0.22 0.44-0.22 0 0 0 0 0.01 0z" style="-inkscape-font-specification:Bitstream Vera Sans;baseline-shift:baseline;block-progression:tb;color:#000000;direction:ltr;display:inline;enable-background:accumulate;fill:#fff;font-family:Bitstream Vera Sans;font-size:medium;letter-spacing:normal;line-height:normal;overflow:visible;stroke-miterlimit:4;stroke-width:0.17;stroke:#fff;text-align:start;text-anchor:start;text-decoration:none;text-indent:0;text-transform:none;word-spacing:normal;writing-mode:lr-tb"/>
    <path id="path4004-5-6-2" d="m16.4-1.91c-0.1 0-0.21 0-0.32 0.01-2.79 0.22-2.05 3.18-2.09 4.16-0.05 0.72-0.2 1.29-0.69 2-0.58 0.69-1.41 1.82-1.8 2.99-0.18 0.55-0.27 1.12-0.19 1.65-0.03 0.02-0.05 0.05-0.07 0.07-0.17 0.18-0.3 0.4-0.44 0.55-0.13 0.13-0.32 0.18-0.53 0.26-0.21 0.07-0.43 0.18-0.57 0.45 0 0 0 0 0 0 0 0 0 0 0 0l0 0c-0.12 0.23-0.09 0.5-0.05 0.75 0.04 0.25 0.08 0.48 0.03 0.64-0.16 0.45-0.18 0.76-0.07 0.98 0.12 0.22 0.35 0.32 0.62 0.38 0.54 0.11 1.26 0.08 1.83 0.39l0.05-0.09-0.05 0.09c0.61 0.32 1.23 0.43 1.73 0.32 0.36-0.08 0.65-0.3 0.8-0.62 0.39 0 0.81-0.17 1.49-0.2 0.46-0.04 1.04 0.16 1.7 0.13 0.02 0.07 0.04 0.14 0.08 0.21 0 0 0 0 0 0 0.26 0.51 0.74 0.75 1.25 0.71 0.51-0.04 1.05-0.34 1.49-0.86l-0.08-0.07 0.08 0.07c0.42-0.51 1.11-0.72 1.57-0.99 0.23-0.14 0.42-0.31 0.43-0.56 0.01-0.25-0.13-0.53-0.47-0.91l0 0c0 0 0 0 0 0-0.11-0.13-0.17-0.36-0.22-0.61-0.06-0.25-0.12-0.52-0.33-0.69l0 0c0 0 0 0 0 0l0 0c-0.08-0.07-0.17-0.12-0.25-0.15 0.28-0.84 0.17-1.68-0.11-2.44-0.35-0.93-0.97-1.74-1.44-2.3-0.53-0.66-1.04-1.29-1.03-2.22 0.02-1.42 0.16-4.06-2.34-4.06zm0.34 2.19c0.14 0 0.26 0.04 0.39 0.13 0.13 0.09 0.22 0.21 0.29 0.37 0.07 0.16 0.11 0.31 0.11 0.49 0 0 0 0.01 0 0.01 0 0.19-0.03 0.34-0.1 0.51-0.04 0.09-0.09 0.17-0.14 0.24-0.02-0.01-0.04-0.02-0.06-0.03l0 0c-0.14-0.06-0.25-0.1-0.34-0.13 0.03-0.04 0.06-0.09 0.08-0.14 0.04-0.09 0.05-0.17 0.06-0.28 0 0 0-0.01 0-0.01 0-0.1-0.01-0.18-0.04-0.27-0.03-0.09-0.07-0.15-0.12-0.21-0.06-0.05-0.11-0.08-0.18-0.08 0 0-0.01 0-0.01 0-0.06 0-0.12 0.02-0.17 0.07-0.06 0.05-0.1 0.11-0.14 0.2-0.04 0.09-0.05 0.17-0.06 0.28 0 0 0 0.01 0 0.01 0 0.06 0 0.11 0.01 0.16-0.13-0.06-0.25-0.11-0.36-0.13-0.01-0.05-0.01-0.1-0.01-0.15l0-0.01c0-0.19 0.03-0.34 0.1-0.51 0.07-0.16 0.16-0.28 0.28-0.37 0.12-0.09 0.25-0.14 0.39-0.14 0 0 0 0 0.01 0zm-1.94 0.15c0.09 0 0.18 0.03 0.27 0.1 0.09 0.08 0.17 0.17 0.23 0.31 0.06 0.14 0.09 0.27 0.1 0.43l0 0c0 0.07 0 0.13 0 0.19-0.02 0.01-0.04 0.01-0.05 0.02-0.1 0.03-0.19 0.08-0.27 0.13 0.01-0.05 0.01-0.11 0-0.17 0 0 0-0.01 0-0.01-0.01-0.08-0.03-0.15-0.05-0.22-0.03-0.07-0.06-0.12-0.11-0.16-0.04-0.04-0.08-0.05-0.12-0.05 0 0-0.01 0-0.01 0-0.05 0-0.09 0.03-0.12 0.07-0.04 0.05-0.06 0.1-0.08 0.18-0.02 0.07-0.02 0.15-0.01 0.23 0 0 0 0.01 0 0.01 0.01 0.08 0.02 0.15 0.05 0.22 0.03 0.07 0.06 0.12 0.11 0.16 0.01 0.01 0.01 0.01 0.02 0.02-0.05 0.04-0.07 0.05-0.11 0.08-0.02 0.02-0.05 0.04-0.09 0.06-0.07-0.07-0.13-0.16-0.18-0.27-0.06-0.14-0.09-0.27-0.1-0.43l0 0c-0.01-0.16 0.01-0.3 0.05-0.44 0.04-0.14 0.1-0.25 0.19-0.33 0.09-0.08 0.17-0.13 0.28-0.13 0.01 0 0.02 0 0.02 0zm0.88 1.11c0.22 0 0.48 0.07 0.8 0.28 0.2 0.13 0.35 0.14 0.7 0.29l0 0 0 0c0.17 0.07 0.27 0.16 0.32 0.25 0.05 0.1 0.05 0.2 0.01 0.31-0.08 0.22-0.34 0.44-0.7 0.56l0 0 0 0c-0.18 0.06-0.33 0.18-0.51 0.29-0.18 0.1-0.39 0.19-0.67 0.17l0 0c-0.24-0.01-0.38-0.09-0.51-0.2-0.13-0.1-0.24-0.23-0.41-0.33l0 0 0 0c-0.26-0.15-0.41-0.32-0.45-0.47-0.05-0.15 0-0.28 0.13-0.38 0.15-0.11 0.25-0.19 0.32-0.24 0.07-0.05 0.1-0.07 0.12-0.09 0 0 0 0 0 0l0 0c0.11-0.11 0.29-0.3 0.55-0.39 0.09-0.03 0.19-0.05 0.31-0.05zm1.53 0.9c-0.09 0.01-0.19 0.05-0.31 0.12-0.12 0.06-0.24 0.15-0.38 0.23-0.28 0.16-0.6 0.32-0.92 0.32-0.32 0-0.58-0.15-0.77-0.3-0.1-0.08-0.18-0.15-0.24-0.21-0.03-0.03-0.06-0.06-0.08-0.07-0.03-0.02-0.05-0.04-0.09-0.04l0 0.09c0 0.03-0.01 0.03 0 0.03 0 0 0.01 0 0.02 0.01 0.02 0.01 0.05 0.04 0.08 0.07 0.06 0.06 0.14 0.14 0.25 0.22 0.2 0.16 0.49 0.33 0.85 0.33 0.36 0 0.7-0.17 0.98-0.33 0.14-0.08 0.27-0.16 0.38-0.23 0.11-0.06 0.2-0.1 0.26-0.1l-0.01-0.12zm0.32 0.43c0.24 0.94 0.79 2.3 1.15 2.96 0.19 0.35 0.54 0.98 0.71 1.88 0.01 0.52-0.32 0.44-0.39 0.83-0.01 0.03-0.01 0.06-0.01 0.09-0.05 0.02-0.09 0.04-0.14 0.06-0.28 0.16-0.44 0.44-0.53 0.78-0.09 0.35-0.11 0.76-0.13 1.23 0 0 0 0 0 0-0.01 0.24-0.11 0.56-0.21 0.9-0.99 0.71-2.37 1.01-3.54 0.22-0.08-0.13-0.17-0.25-0.26-0.37-0.06-0.08-0.12-0.16-0.18-0.23 0.12 0 0.22-0.02 0.3-0.06 0.1-0.05 0.17-0.12 0.21-0.22 0.07-0.19 0-0.46-0.23-0.77-0.23-0.31-0.61-0.66-1.18-1.01 0 0 0 0 0 0-0.5-0.42-0.36-1.06 0.15-2.55 0.37-0.85 1.15-2.31 1.22-3.48 0.03 0.02 0.14 0.1 0.19 0.13 0 0 0 0 0 0 0.14 0.08 0.25 0.21 0.39 0.32 0.14 0.11 0.31 0.21 0.58 0.22l0 0c0.31 0.02 0.54-0.08 0.73-0.19 0.19-0.11 0.34-0.23 0.49-0.28 0 0 0 0 0 0 0.31-0.1 0.55-0.27 0.69-0.46zm1.45 5.99c0.03 0.41 0.23 0.82 0.58 0.91 0.39 0.1 0.95-0.23 1.19-0.5 0.05 0 0.09 0 0.14-0.01 0.21 0 0.38 0.01 0.56 0.16l0 0 0 0c0.14 0.12 0.2 0.34 0.26 0.58 0.06 0.25 0.1 0.51 0.27 0.7l0 0 0 0c0.33 0.36 0.43 0.6 0.42 0.76-0.01 0.16-0.12 0.27-0.33 0.4-0.42 0.25-1.15 0.47-1.62 1.04-0.41 0.49-0.91 0.75-1.35 0.79-0.44 0.03-0.82-0.15-1.04-0.6l0 0 0 0c-0.14-0.26-0.08-0.68 0.04-1.12 0.12-0.44 0.28-0.89 0.31-1.26l0 0 0 0c0.02-0.47 0.05-0.88 0.13-1.2 0.08-0.32 0.2-0.53 0.42-0.65 0.01-0.01 0.02-0.01 0.03-0.02zm-7.14 0.03c0.03 0 0.07 0 0.1 0.01 0.25 0.04 0.47 0.21 0.68 0.5 0.21 0.28 0.4 0.67 0.6 1.1l0 0 0 0c0.16 0.34 0.5 0.7 0.79 1.08 0.29 0.38 0.51 0.75 0.48 1.04l0 0 0 0c-0.04 0.49-0.32 0.76-0.74 0.86-0.43 0.1-1.01 0-1.58-0.3 0 0 0 0 0 0-0.64-0.34-1.4-0.31-1.89-0.41-0.24-0.05-0.4-0.13-0.48-0.27-0.07-0.14-0.07-0.39 0.08-0.81l0 0 0 0c0.08-0.24 0.02-0.5-0.02-0.74-0.04-0.24-0.06-0.46 0.03-0.62l0 0 0 0c0.11-0.21 0.26-0.28 0.46-0.35 0.19-0.07 0.42-0.12 0.6-0.31l0 0 0 0c0.17-0.18 0.29-0.4 0.44-0.56 0.12-0.13 0.25-0.22 0.44-0.22 0 0 0 0 0.01 0z" style="-inkscape-font-specification:Bitstream Vera Sans;baseline-shift:baseline;block-progression:tb;color:#000000;direction:ltr;display:inline;enable-background:accumulate;fill:#000;font-family:Bitstream Vera Sans;font-size:medium;letter-spacing:normal;line-height:normal;overflow:visible;stroke-miterlimit:4;stroke-width:0.17;stroke:#000;text-align:start;text-anchor:start;text-decoration:none;text-indent:0;text-transform:none;word-spacing:normal;writing-mode:lr-tb"/>
  </g>
</svg>
