<?xml version="1.0" encoding="UTF-8"?>
<svg xmlns:svg="http://www.w3.org/2000/svg" xmlns="http://www.w3.org/2000/svg" width="32" height="50" viewBox="0 0 32 50" id="svg4143" version="1.1">
  <defs id="defs4145"/>
  <metadata id="metadata4148"/>
  <g id="layer1" transform="translate(0,-1002.3622)">
    <path d="m9 1006.2 5.31-0.72 0 5.11-5.31 0.03zm5.31 4.98 0 5.11-5.31-0.73 0-4.42zm0.64-5.79 7.04-1.02 0 6.16-7.04 0.06zm7.05 5.84 0 6.14-7.04-0.99-0.01-5.16z" id="path4" fill="#000"/>
    <path d="m9 1040.2 5.31-0.72 0 5.11-5.31 0.03zm5.31 4.98 0 5.11-5.31-0.73 0-4.42zm0.64-5.79 7.04-1.02 0 6.16-7.04 0.06zm7.05 5.84 0 6.14-7.04-0.99-0.01-5.16z" id="path4-1" fill="#fff"/>
  </g>
</svg>
