<?xml version="1.0" encoding="UTF-8"?>
<svg width="12px" height="15px" viewBox="0 0 12 15" version="1.1" xmlns="http://www.w3.org/2000/svg" xmlns:xlink="http://www.w3.org/1999/xlink">
    <!-- Generator: Sketch 49 (51002) - http://www.bohemiancoding.com/sketch -->
    <title>lock - FontAwesome</title>
    <desc>Created with Sketch.</desc>
    <defs></defs>
    <g id="new" stroke="none" stroke-width="1" fill="none" fill-rule="evenodd">
        <g id="Bitcoin.org---new-Choose-Your-wallet--Desktop-Copy-4" transform="translate(-1095.000000, -979.000000)" fill="#5B6A77">
            <g id="//Content" transform="translate(0.000000, 473.000000)">
                <g id="Wallets-for-Linux" transform="translate(215.000000, 152.000000)">
                    <g id="Containers">
                        <g id="Container" transform="translate(800.000000, 210.000000)">
                            <g id="Group" transform="translate(80.000000, 139.000000)">
                                <path d="M3.21428571,12.2857143 L8.35714286,12.2857143 L8.35714286,10.3571429 C8.35714286,9.64731788 8.1060293,9.04129715 7.60379464,8.5390625 C7.10155999,8.03682785 6.49553926,7.78571429 5.78571429,7.78571429 C5.07588931,7.78571429 4.46986858,8.03682785 3.96763393,8.5390625 C3.46539927,9.04129715 3.21428571,9.64731788 3.21428571,10.3571429 L3.21428571,12.2857143 Z M11.5714286,13.25 L11.5714286,19.0357143 C11.5714286,19.3035728 11.4776795,19.5312491 11.2901786,19.71875 C11.1026776,19.9062509 10.8750013,20 10.6071429,20 L0.964285714,20 C0.696427232,20 0.468750938,19.9062509 0.28125,19.71875 C0.0937490625,19.5312491 0,19.3035728 0,19.0357143 L0,13.25 C0,12.9821415 0.0937490625,12.7544652 0.28125,12.5669643 C0.468750938,12.3794633 0.696427232,12.2857143 0.964285714,12.2857143 L1.28571429,12.2857143 L1.28571429,10.3571429 C1.28571429,9.12499384 1.72767415,8.06696871 2.61160714,7.18303571 C3.49554013,6.29910272 4.55356527,5.85714286 5.78571429,5.85714286 C7.0178633,5.85714286 8.07588844,6.29910272 8.95982143,7.18303571 C9.84375442,8.06696871 10.2857143,9.12499384 10.2857143,10.3571429 L10.2857143,12.2857143 L10.6071429,12.2857143 C10.8750013,12.2857143 11.1026776,12.3794633 11.2901786,12.5669643 C11.4776795,12.7544652 11.5714286,12.9821415 11.5714286,13.25 Z" id="lock---FontAwesome"></path>
                            </g>
                        </g>
                    </g>
                </g>
            </g>
        </g>
    </g>
</svg>