<?xml version="1.0" encoding="UTF-8"?>
<svg width="14px" height="18px" viewBox="0 0 14 18" version="1.1" xmlns="http://www.w3.org/2000/svg" xmlns:xlink="http://www.w3.org/1999/xlink">
    <!-- Generator: Sketch 49 (51002) - http://www.bohemiancoding.com/sketch -->
    <title>apple - FontAwesome</title>
    <desc>Created with Sketch.</desc>
    <defs></defs>
    <g id="new" stroke="none" stroke-width="1" fill="none" fill-rule="evenodd">
        <g id="Bitcoin.org---new-Choose-Your-wallet--Desktop-Copy-4" transform="translate(-1282.000000, -768.000000)" fill="#F7931A">
            <g id="//Content" transform="translate(0.000000, 473.000000)">
                <g id="Wallets-for-Linux" transform="translate(215.000000, 152.000000)">
                    <g id="Containers">
                        <g id="Container" transform="translate(1000.000000, 0.000000)">
                            <g id="Group" transform="translate(1.000000, 107.000000)">
                                <path d="M79.9899998,48.7737615 C79.7288786,49.6106883 79.3171167,50.4476027 78.7547019,51.2845296 C77.8909933,52.5968309 77.0306454,53.2529717 76.1736323,53.2529717 C75.8455569,53.2529717 75.3768849,53.1458467 74.7676022,52.9315934 C74.1917965,52.7173401 73.6863002,52.6102151 73.2510982,52.6102151 C72.8426779,52.6102151 72.3673106,52.7206878 71.824982,52.9416365 C71.2826533,53.1692806 70.8407626,53.2831009 70.4992964,53.2831009 C69.4815933,53.2831009 68.4739485,52.4160577 67.4763316,50.6819452 C66.4921056,48.9344419 66,47.2505703 66,45.6302798 C66,44.1037252 66.3782853,42.8517014 67.1348672,41.8741708 C67.8914491,40.910031 68.8421837,40.4279684 69.9870997,40.4279684 C70.4691696,40.4279684 71.0617049,40.5283981 71.7647235,40.7292605 C72.4610467,40.930123 72.9230234,41.0305527 73.1506675,41.0305527 C73.4519612,41.0305527 73.9306762,40.9167323 74.5868269,40.6890882 C75.2697592,40.4614441 75.8489039,40.3476238 76.3242784,40.3476238 C77.1210328,40.3476238 77.8340838,40.5652215 78.4634528,41.0004235 C78.8116144,41.2414584 79.1597707,41.5762241 79.5079323,42.0047307 C78.9789945,42.4533235 78.5973616,42.8483471 78.3630221,43.1898132 C77.9278201,43.8191823 77.7102223,44.5121473 77.7102223,45.2687292 C77.7102223,46.0989607 77.9412107,46.8454883 78.4031943,47.5083344 C78.865178,48.1711804 79.3941078,48.5929853 79.9899998,48.7737615 Z M76.2138046,36.9932376 C76.2138046,37.4016579 76.1167225,37.8569393 75.9225555,38.3590954 C75.721693,38.8612516 75.4103609,39.3232283 74.9885497,39.7450394 C74.6269973,40.1065918 74.2654503,40.3476232 73.9038979,40.4681406 C73.6561676,40.5417902 73.3080112,40.5987004 72.8594184,40.6388729 C72.8795047,39.641256 73.1406219,38.7809081 73.6427781,38.0578033 C74.1382388,37.3413939 74.9751531,36.8459406 76.1535461,36.5714286 C76.1602416,36.5915148 76.1686107,36.628339 76.1786538,36.6819024 C76.1886969,36.7354657 76.1970661,36.7722899 76.2037615,36.7923762 C76.2037615,36.8191578 76.2054353,36.8526344 76.208783,36.8928069 C76.2121307,36.9329794 76.2138046,36.9664559 76.2138046,36.9932376 Z" id="apple---FontAwesome"></path>
                            </g>
                        </g>
                    </g>
                </g>
            </g>
        </g>
    </g>
</svg>