<?xml version="1.0" encoding="UTF-8"?>
<svg width="16px" height="16px" viewBox="0 0 16 16" version="1.1" xmlns="http://www.w3.org/2000/svg" xmlns:xlink="http://www.w3.org/1999/xlink">
    <!-- Generator: Sketch 49 (51002) - http://www.bohemiancoding.com/sketch -->
    <title>icon/iOS</title>
    <desc>Created with Sketch.</desc>
    <defs></defs>
    <g id="Symbols" stroke="none" stroke-width="1" fill="none" fill-rule="evenodd">
        <g id="icon/iOS">
            <g>
                <rect id="Rectangle-10" stroke="#F7931A" x="0.5" y="0.5" width="15" height="15" rx="2"></rect>
                <path d="M2.12892697,11.0050562 L2.12892697,6.71573034 L3.27846629,6.71573034 L3.27846629,11.0050562 L2.12892697,11.0050562 Z M2.12892697,6.16669663 L2.12892697,5 L3.27846629,5 L3.27846629,6.16669663 L2.12892697,6.16669663 Z M6.60698315,10.0785618 C7.07023265,10.0785618 7.38620983,9.92843689 7.55492416,9.62818258 C7.72363848,9.32792827 7.80799438,8.82465241 7.80799438,8.11833989 C7.80799438,7.41202737 7.72220872,6.89874317 7.55063483,6.57847191 C7.37906094,6.25820065 7.06451352,6.09806742 6.60698315,6.09806742 C6.14945277,6.09806742 5.83490535,6.25820065 5.66333146,6.57847191 C5.49175757,6.89874317 5.40597191,7.41202737 5.40597191,8.11833989 C5.40597191,8.82465241 5.49032781,9.32792827 5.65904213,9.62818258 C5.82775646,9.92843689 6.14373364,10.0785618 6.60698315,10.0785618 Z M6.60698315,11.108 C5.72051804,11.108 5.09571249,10.8663704 4.73254775,10.3831039 C4.36938302,9.89983747 4.18780337,9.14349391 4.18780337,8.11405056 C4.18780337,7.08460721 4.36938302,6.31968509 4.73254775,5.81926124 C5.09571249,5.31883739 5.72051804,5.06862921 6.60698315,5.06862921 C7.49344825,5.06862921 8.1182538,5.31883739 8.48141854,5.81926124 C8.84458328,6.31968509 9.02616292,7.08460721 9.02616292,8.11405056 C9.02616292,9.14349391 8.84458328,9.89983747 8.48141854,10.3831039 C8.1182538,10.8663704 7.49344825,11.108 6.60698315,11.108 Z M11.831382,6.09806742 C11.2079969,6.09806742 10.896309,6.303953 10.896309,6.71573034 C10.896309,6.89874249 10.9735161,7.03885906 11.1279326,7.13608427 C11.2823491,7.23330947 11.6440786,7.37342605 12.213132,7.5564382 C12.7821854,7.73945035 13.1810887,7.9467657 13.4098539,8.17839045 C13.6386191,8.4100152 13.753,8.76602569 13.753,9.24643258 C13.753,9.85837946 13.5671311,10.321622 13.1953876,10.6361742 C12.8236442,10.9507263 12.3375255,11.108 11.7370169,11.108 C11.2909247,11.108 10.744756,11.0393715 10.0984944,10.9021124 L9.78966292,10.8420618 L9.90976404,9.92414607 C10.6761274,10.0270904 11.2623294,10.0785618 11.6683876,10.0785618 C12.2746154,10.0785618 12.5777247,9.82692386 12.5777247,9.32364045 C12.5777247,9.1406283 12.5076664,8.9976522 12.3675478,8.89470787 C12.2274291,8.79176353 11.9486257,8.68024217 11.5311292,8.56014045 C10.8677102,8.37140917 10.4001783,8.14693669 10.1285197,7.88671629 C9.856861,7.62649589 9.72103371,7.26476636 9.72103371,6.80151685 C9.72103371,6.21816562 9.89832407,5.78351828 10.2529101,5.4975618 C10.6074962,5.21160531 11.0936149,5.06862921 11.7112809,5.06862921 C12.1344965,5.06862921 12.6720866,5.12581965 13.3240674,5.24020225 L13.6328989,5.30025281 L13.5385337,6.23532584 C12.7321364,6.14381977 12.1630915,6.09806742 11.831382,6.09806742 Z" id="H3" fill="#F7931A"></path>
            </g>
        </g>
    </g>
</svg>