<?xml version="1.0" encoding="UTF-8"?>
<svg width="15px" height="19px" viewBox="0 0 15 19" version="1.1" xmlns="http://www.w3.org/2000/svg" xmlns:xlink="http://www.w3.org/1999/xlink">
    <!-- Generator: Sketch 55.1 (78136) - https://sketchapp.com -->
    <title>Shape</title>
    <desc>Created with Sketch.</desc>
    <g id="Flow-2" stroke="none" stroke-width="1" fill="none" fill-rule="evenodd">
        <g id="Bitcoin.org---Wallet-Flow-2.06---Desktop" transform="translate(-240.000000, -628.000000)" fill="#5B6A77">
            <g id="Content" transform="translate(213.000000, 443.000000)">
                <g id="Filter">
                    <g id="Wallet-type" transform="translate(16.000000, 15.000000)">
                        <g id="Group-3-Copy-2" transform="translate(0.000000, 125.000000)">
                            <g id="Group-2" transform="translate(0.000000, 35.000000)">
                                <path d="M24.8541543,17.125 L23.6666543,17.125 L23.6666543,15.5416543 C23.6666543,12.485957 21.1807344,10 18.125,10 C15.0692656,10 12.5833457,12.485957 12.5833457,15.5416543 L12.5833457,17.125 L11.3958457,17.125 C11.1770488,17.125 11,17.3020488 11,17.5208457 L11,27.4166914 C11,28.2899121 11.7100879,29 12.5833457,29 L23.6666914,29 C24.5399121,29 25.25,28.2899121 25.25,27.4166543 L25.25,17.5208457 C25.25,17.3020488 25.0729512,17.125 24.8541543,17.125 Z M19.3101992,25.3938223 C19.3225566,25.5055215 19.2866348,25.6176289 19.2116367,25.7015332 C19.1366387,25.7854004 19.0291699,25.8333457 18.9166914,25.8333457 L17.3333457,25.8333457 C17.2208672,25.8333457 17.1133984,25.7854004 17.0384004,25.7015332 C16.9634023,25.617666 16.9274434,25.5055586 16.9398379,25.3938223 L17.1895469,23.148334 C16.7840527,22.8533887 16.5416914,22.3868125 16.5416914,21.875 C16.5416914,21.0017793 17.2517793,20.2916543 18.1250371,20.2916543 C18.9982949,20.2916543 19.7083828,21.0017422 19.7083828,21.875 C19.7083828,22.3868125 19.4660215,22.8533887 19.0605273,23.148334 L19.3101992,25.3938223 Z M21.2916543,17.125 L14.9583457,17.125 L14.9583457,15.5416543 C14.9583457,13.795584 16.3789297,12.375 18.125,12.375 C19.8710703,12.375 21.2916543,13.795584 21.2916543,15.5416543 L21.2916543,17.125 L21.2916543,17.125 Z" id="Shape"></path>
                            </g>
                        </g>
                    </g>
                </g>
            </g>
        </g>
    </g>
</svg>