<?xml version="1.0" encoding="UTF-8"?>
<svg width="60px" height="60px" viewBox="0 0 60 60" version="1.1" xmlns="http://www.w3.org/2000/svg" xmlns:xlink="http://www.w3.org/1999/xlink">
    <!-- Generator: Sketch 49.3 (51167) - http://www.bohemiancoding.com/sketch -->
    <title>blackberry@2x</title>
    <desc>Created with Sketch.</desc>
    <defs></defs>
    <g id="blackberry" stroke="none" stroke-width="1" fill="none" fill-rule="evenodd">
        <rect id="Rectangle-2" x="0" y="0" width="60" height="60"></rect>
        <g id="g27" transform="translate(11.000000, 17.000000)" fill="#1C3C55" fill-rule="nonzero">
            <path d="M12.451,2.896 C12.451,1.632 11.677,0.032 8.424,0.032 C7.089,0.032 3.415,0.032 3.415,0.032 L1.991,6.62 C1.991,6.62 4.698,6.62 7.213,6.62 C11.29,6.62 12.451,4.69 12.451,2.896 Z" id="path29"></path>
            <path d="M25.944,2.896 C25.944,1.632 25.172,0.032 21.92,0.032 C20.584,0.032 16.91,0.032 16.91,0.032 L15.487,6.61900039 C15.487,6.61900039 18.193,6.619 20.706,6.619 C24.785,6.62 25.944,4.69 25.944,2.896 Z" id="path31"></path>
            <path d="M10.644,12.811 C10.644,11.547 9.87,9.943 6.617,9.943 C5.282,9.943 1.608,9.943 1.608,9.943 L0.184,16.535 C0.184,16.535 2.891,16.535 5.404,16.535 C9.482,16.535 10.644,14.6 10.644,12.811 Z" id="path33"></path>
            <path d="M24.137,12.811 C24.137,11.547 23.362,9.943 20.112,9.943 C18.775,9.943 15.103,9.943 15.103,9.943 L13.677,16.535 C13.677,16.535 16.384,16.535 18.899,16.535 C22.978,16.535 24.137,14.6 24.137,12.811 Z" id="path35"></path>
            <path d="M38.254,8.79 C38.254,7.525 37.479,5.922 34.229,5.922 C32.892,5.922 29.22,5.922 29.22,5.922 L27.794,12.513 C27.794,12.513 30.503,12.513 33.014,12.513 C37.093,12.513 38.254,10.583 38.254,8.79 Z" id="path37"></path>
            <path d="M36.308,19.113 C36.308,17.848 35.535,16.249 32.283,16.249 C30.948,16.249 27.274,16.249 27.274,16.249 L25.85,22.837 C25.85,22.837 28.555,22.837 31.07,22.837 C35.148,22.837 36.308,20.902 36.308,19.113 Z" id="path39"></path>
            <path d="M22.198,23.135 C22.198,21.865 21.426,20.262 18.176,20.262 C16.838,20.262 13.164,20.262 13.164,20.262 L11.74,26.8530004 C11.74,26.8530004 14.447,26.853 16.96,26.853 C21.039,26.854 22.198,24.924 22.198,23.135 Z" id="path41"></path>
        </g>
    </g>
</svg>