<?xml version="1.0" encoding="UTF-8"?>
<svg width="15px" height="18px" viewBox="0 0 15 18" version="1.1" xmlns="http://www.w3.org/2000/svg" xmlns:xlink="http://www.w3.org/1999/xlink">
    <!-- Generator: Sketch 49 (51002) - http://www.bohemiancoding.com/sketch -->
    <title>android - FontAwesome</title>
    <desc>Created with Sketch.</desc>
    <defs></defs>
    <g id="new" stroke="none" stroke-width="1" fill="none" fill-rule="evenodd">
        <g id="Bitcoin.org---new-Choose-Your-wallet--Desktop-Copy-4" transform="translate(-1335.000000, -769.000000)" fill="#FF7E00">
            <g id="//Content" transform="translate(0.000000, 473.000000)">
                <g id="Wallets-for-Linux" transform="translate(215.000000, 152.000000)">
                    <g id="Containers">
                        <g id="Container" transform="translate(1000.000000, 0.000000)">
                            <g id="Group" transform="translate(1.000000, 107.000000)">
                                <path d="M123.680804,41.3125 C123.754465,41.3861611 123.844866,41.4229911 123.952009,41.4229911 C124.059152,41.4229911 124.151227,41.384487 124.228237,41.3074777 C124.305246,41.2304684 124.34375,41.1383934 124.34375,41.03125 C124.34375,40.9241066 124.305246,40.8320316 124.228237,40.7550223 C124.151227,40.678013 124.059152,40.6395089 123.952009,40.6395089 C123.844866,40.6395089 123.754465,40.678013 123.680804,40.7550223 C123.607142,40.8320316 123.570312,40.9241066 123.570312,41.03125 C123.570312,41.1383934 123.607142,41.2321425 123.680804,41.3125 Z M127.909598,41.3125 C127.989956,41.3861611 128.083705,41.4229911 128.190848,41.4229911 C128.297992,41.4229911 128.388392,41.384487 128.462054,41.3074777 C128.535715,41.2304684 128.572545,41.1383934 128.572545,41.03125 C128.572545,40.9241066 128.535715,40.8320316 128.462054,40.7550223 C128.388392,40.678013 128.297992,40.6395089 128.190848,40.6395089 C128.083705,40.6395089 127.99163,40.678013 127.914621,40.7550223 C127.837611,40.8320316 127.799107,40.9241066 127.799107,41.03125 C127.799107,41.1383934 127.835937,41.2321425 127.909598,41.3125 Z M120.034598,43.2712054 C120.31585,43.2712054 120.556919,43.3716508 120.757812,43.5725446 C120.958706,43.7734385 121.059152,44.0145075 121.059152,44.2957589 L121.059152,48.6149554 C121.059152,48.9029032 120.96038,49.1473204 120.762835,49.3482143 C120.565289,49.5491081 120.322546,49.6495536 120.034598,49.6495536 C119.74665,49.6495536 119.502233,49.5491081 119.301339,49.3482143 C119.100445,49.1473204 119,48.9029032 119,48.6149554 L119,44.2957589 C119,44.0145075 119.100445,43.7734385 119.301339,43.5725446 C119.502233,43.3716508 119.74665,43.2712054 120.034598,43.2712054 Z M130.68192,43.4620536 L130.68192,50.1517857 C130.68192,50.459823 130.574778,50.7209811 130.360491,50.9352679 C130.146204,51.1495546 129.888394,51.2566964 129.587054,51.2566964 L128.833705,51.2566964 L128.833705,53.5368304 C128.833705,53.8247782 128.73326,54.0691954 128.532366,54.2700893 C128.331472,54.4709831 128.087055,54.5714286 127.799107,54.5714286 C127.511159,54.5714286 127.266742,54.4709831 127.065848,54.2700893 C126.864954,54.0691954 126.764509,53.8247782 126.764509,53.5368304 L126.764509,51.2566964 L125.378348,51.2566964 L125.378348,53.5368304 C125.378348,53.8247782 125.277903,54.0691954 125.077009,54.2700893 C124.876115,54.4709831 124.631698,54.5714286 124.34375,54.5714286 C124.062499,54.5714286 123.82143,54.4709831 123.620536,54.2700893 C123.419642,54.0691954 123.319196,53.8247782 123.319196,53.5368304 L123.309152,51.2566964 L122.565848,51.2566964 C122.257811,51.2566964 121.996653,51.1495546 121.782366,50.9352679 C121.568079,50.7209811 121.460938,50.459823 121.460938,50.1517857 L121.460938,43.4620536 L130.68192,43.4620536 Z M128.351562,39.3939732 C129.068084,39.7622786 129.640623,40.2762244 130.069196,40.9358259 C130.49777,41.5954274 130.712054,42.3169604 130.712054,43.1004464 L121.420759,43.1004464 C121.420759,42.3169604 121.635042,41.5954274 122.063616,40.9358259 C122.49219,40.2762244 123.068077,39.7622786 123.791295,39.3939732 L123.078125,38.078125 C123.03125,37.991071 123.047991,37.9241074 123.128348,37.8772321 C123.215402,37.8370534 123.282366,37.8571425 123.329241,37.9375 L124.052455,39.2633929 C124.688619,38.9821415 125.361604,38.8415179 126.071429,38.8415179 C126.781254,38.8415179 127.454238,38.9821415 128.090402,39.2633929 L128.813616,37.9375 C128.860491,37.8571425 128.927455,37.8370534 129.014509,37.8772321 C129.094866,37.9241074 129.111607,37.991071 129.064732,38.078125 L128.351562,39.3939732 Z M133.142857,44.2957589 L133.142857,48.6149554 C133.142857,48.9029032 133.042412,49.1473204 132.841518,49.3482143 C132.640624,49.5491081 132.396207,49.6495536 132.108259,49.6495536 C131.827008,49.6495536 131.585939,49.5491081 131.385045,49.3482143 C131.184151,49.1473204 131.083705,48.9029032 131.083705,48.6149554 L131.083705,44.2957589 C131.083705,44.0078111 131.184151,43.765068 131.385045,43.5675223 C131.585939,43.3699767 131.827008,43.2712054 132.108259,43.2712054 C132.396207,43.2712054 132.640624,43.3699767 132.841518,43.5675223 C133.042412,43.765068 133.142857,44.0078111 133.142857,44.2957589 Z" id="android---FontAwesome"></path>
                            </g>
                        </g>
                    </g>
                </g>
            </g>
        </g>
    </g>
</svg>