<?xml version="1.0" encoding="UTF-8"?>
<svg width="16px" height="19px" viewBox="0 0 16 19" version="1.1" xmlns="http://www.w3.org/2000/svg" xmlns:xlink="http://www.w3.org/1999/xlink">
    <!-- Generator: Sketch 49 (51002) - http://www.bohemiancoding.com/sketch -->
    <title>linux - FontAwesome</title>
    <desc>Created with Sketch.</desc>
    <defs></defs>
    <g id="new" stroke="none" stroke-width="1" fill="none" fill-rule="evenodd">
        <g id="Bitcoin.org---new-Choose-Your-wallet--Desktop-Copy-4" transform="translate(-1092.000000, -768.000000)" fill="#192A39">
            <g id="//Content" transform="translate(0.000000, 473.000000)">
                <g id="Wallets-for-Linux" transform="translate(215.000000, 152.000000)">
                    <g id="Containers">
                        <g id="Container" transform="translate(800.000000, 0.000000)">
                            <g id="Group" transform="translate(25.000000, 143.000000)">
                                <path d="M58.6595982,4.69977679 C58.5859371,4.70647325 58.5340403,4.74162915 58.5039062,4.80524554 C58.4737722,4.86886193 58.4453126,4.90066964 58.4185268,4.90066964 C58.3850445,4.9073661 58.3683036,4.8906252 58.3683036,4.85044643 C58.3683036,4.77008888 58.431919,4.71986617 58.5591518,4.69977679 L58.6595982,4.69977679 Z M59.5334821,4.84040179 C59.5066963,4.84709825 59.4681922,4.82533507 59.4179688,4.77511161 C59.3677453,4.72488814 59.3091521,4.70982133 59.2421875,4.72991071 C59.4029026,4.65624963 59.5100444,4.66294599 59.5636161,4.75 C59.5837055,4.79017877 59.5736609,4.8203124 59.5334821,4.84040179 Z M56.0078125,9.12946429 C55.9810267,9.12276782 55.9609376,9.13281237 55.9475446,9.15959821 C55.9341517,9.18638406 55.9190849,9.22823632 55.9023438,9.28515625 C55.8856026,9.34207618 55.8671876,9.38727662 55.8470982,9.42075893 C55.8270088,9.45424124 55.793527,9.49776759 55.7466518,9.55133929 C55.6796872,9.62500037 55.676339,9.66517854 55.7366071,9.671875 C55.763393,9.67857146 55.8052453,9.6551342 55.8621652,9.6015625 C55.9190851,9.5479908 55.9609374,9.48772355 55.9877232,9.42075893 C55.9944197,9.40066954 56.001116,9.37723228 56.0078125,9.35044643 C56.014509,9.32366058 56.0212053,9.3035715 56.0279018,9.29017857 C56.0345982,9.27678565 56.0396205,9.26171883 56.0429688,9.24497768 C56.046317,9.22823652 56.0479911,9.2148438 56.0479911,9.20479911 L56.0479911,9.17466518 C56.0479911,9.16462049 56.0446429,9.15625003 56.0379464,9.14955357 C56.03125,9.14285711 56.0212054,9.13616075 56.0078125,9.12946429 Z M64.5959821,12.7354911 C64.5959821,12.6149548 64.4118322,12.4743312 64.0435268,12.3136161 C64.0703126,12.2131691 64.095424,12.1210942 64.1188616,12.0373884 C64.1422992,11.9536826 64.1590401,11.8666299 64.1690848,11.7762277 C64.1791295,11.6858254 64.1891741,11.6138396 64.1992188,11.5602679 C64.2092634,11.5066962 64.2109375,11.4313621 64.2042411,11.3342634 C64.1975446,11.2371647 64.1941964,11.1718752 64.1941964,11.1383929 C64.1941964,11.1049105 64.1824778,11.0312506 64.1590402,10.9174107 C64.1356026,10.8035709 64.1222098,10.7349332 64.1188616,10.7114955 C64.1155134,10.6880579 64.0987725,10.6043534 64.0686384,10.4603795 C64.0385043,10.3164055 64.0200893,10.2276787 64.0133929,10.1941964 C63.9464282,9.87276625 63.7890637,9.52790363 63.5412946,9.15959821 C63.2935255,8.7912928 63.0524565,8.54017924 62.8180804,8.40625 C62.9787954,8.54017924 63.1696418,8.81807825 63.390625,9.23995536 C63.9732172,10.3247822 64.154019,11.2555765 63.9330357,12.0323661 C63.8593746,12.3002246 63.6919656,12.4408481 63.4308036,12.4542411 C63.2232132,12.4810269 63.0943083,12.4190856 63.0440848,12.2684152 C62.9938614,12.1177448 62.9670759,11.8381717 62.9637277,11.4296875 C62.9603794,11.0212033 62.9218754,10.662948 62.8482143,10.3549107 C62.7879461,10.0937487 62.7226566,9.86272422 62.6523438,9.66183036 C62.5820309,9.4609365 62.5167414,9.30859427 62.4564732,9.20479911 C62.3962051,9.10100395 62.3443083,9.01897352 62.3007812,8.95870536 C62.2572542,8.8984372 62.2137279,8.84821449 62.1702009,8.80803571 C62.1266739,8.76785694 62.1015625,8.74441968 62.0948661,8.73772321 C62.0011156,8.32254257 61.897322,7.97767994 61.7834821,7.703125 C61.6696423,7.42857006 61.570871,7.24107193 61.4871652,7.140625 C61.4034594,7.04017807 61.3247772,6.9296881 61.2511161,6.80915179 C61.177455,6.68861547 61.1272323,6.55468824 61.1004464,6.40736607 C61.0736606,6.26674037 61.0937497,6.0876127 61.1607143,5.86997768 C61.2276789,5.65234266 61.2427457,5.48660771 61.2059152,5.37276786 C61.1690846,5.258928 61.0200906,5.17522348 60.7589286,5.12165179 C60.6584816,5.1015624 60.5094876,5.04129515 60.311942,4.94084821 C60.1143963,4.84040128 59.9955359,4.78683039 59.9553571,4.78013393 C59.9017854,4.77343747 59.8649555,4.68638477 59.8448661,4.51897321 C59.8247767,4.35156166 59.8515621,4.18080444 59.9252232,4.00669643 C59.9988843,3.83258842 60.1194188,3.74218753 60.2868304,3.73549107 C60.5345995,3.71540169 60.7053567,3.81584711 60.7991071,4.03683036 C60.8928576,4.2578136 60.9062503,4.45200809 60.8392857,4.61941964 C60.7656246,4.74665242 60.7589283,4.83537921 60.8191964,4.88560268 C60.8794646,4.93582614 60.97991,4.93750023 61.1205357,4.890625 C61.2075897,4.86383915 61.2511161,4.74330464 61.2511161,4.52901786 L61.2511161,4.15736607 C61.2176338,3.95647221 61.1724333,3.78906317 61.1155134,3.65513393 C61.0585935,3.52120469 60.9882817,3.41908517 60.9045759,3.34877232 C60.8208701,3.27845947 60.7421879,3.22823676 60.6685268,3.19810268 C60.5948657,3.1679686 60.5044648,3.14285724 60.3973214,3.12276786 C59.6808,3.17633955 59.3828119,3.62499578 59.5033482,4.46875 C59.5033482,4.56919693 59.5,4.61941964 59.4933036,4.61941964 C59.4330354,4.55915148 59.3342641,4.52399559 59.1969866,4.51395089 C59.0597091,4.5039062 58.9492192,4.50558029 58.8655134,4.51897321 C58.7818076,4.53236614 58.7299108,4.51562523 58.7098214,4.46875 C58.7165179,4.08705166 58.662947,3.78571539 58.5491071,3.56473214 C58.4352673,3.3437489 58.2845992,3.22991075 58.0970982,3.22321429 C57.9162937,3.21651782 57.7773442,3.3085928 57.6802455,3.49944196 C57.5831468,3.69029113 57.5279019,3.88950789 57.5145089,4.09709821 C57.5078125,4.19754515 57.5195311,4.32142783 57.5496652,4.46875 C57.5797993,4.61607217 57.6233256,4.74162895 57.6802455,4.84542411 C57.7371655,4.94921927 57.7890623,4.99441971 57.8359375,4.98102679 C57.9029021,4.9609374 57.956473,4.91406287 57.9966518,4.84040179 C58.0234376,4.78013363 58.0000004,4.75334818 57.9263393,4.76004464 C57.8794641,4.76004464 57.8275672,4.71149602 57.7706473,4.61439732 C57.7137274,4.51729862 57.6819197,4.40513456 57.6752232,4.27790179 C57.6685268,4.13057962 57.6986604,4.00669693 57.765625,3.90625 C57.8325896,3.80580307 57.9464278,3.75892854 58.1071429,3.765625 C58.2209827,3.765625 58.3113836,3.8359368 58.3783482,3.9765625 C58.4453128,4.1171882 58.4771206,4.24776725 58.4737723,4.36830357 C58.4704241,4.48883989 58.4654018,4.56249987 58.4587054,4.58928571 C58.3113832,4.68973265 58.2075896,4.78682989 58.1473214,4.88058036 C58.0937497,4.9609379 58.0016748,5.03962015 57.8710938,5.11662946 C57.7405127,5.19363878 57.671875,5.23549104 57.6651786,5.2421875 C57.5781246,5.33593797 57.5262278,5.42633885 57.5094866,5.51339286 C57.4927455,5.60044686 57.5178568,5.66071412 57.5848214,5.69419643 C57.6785719,5.74776812 57.7622764,5.81305765 57.8359375,5.89006696 C57.9095986,5.96707628 57.9631695,6.03069171 57.9966518,6.08091518 C58.0301341,6.13113864 58.0920754,6.17466499 58.1824777,6.21149554 C58.2728799,6.24832608 58.3917403,6.27008925 58.5390625,6.27678571 C58.8537962,6.29017864 59.1953107,6.23995593 59.5636161,6.12611607 C59.577009,6.11941961 59.6540172,6.09598234 59.7946429,6.05580357 C59.9352686,6.0156248 60.0507808,5.9804689 60.141183,5.95033482 C60.2315853,5.92020074 60.3303566,5.87667439 60.4375,5.81975446 C60.5446434,5.76283454 60.6149552,5.70424137 60.6484375,5.64397321 C60.7087057,5.55022275 60.7756693,5.5234373 60.8493304,5.56361607 C60.8828127,5.58370546 60.9045758,5.61216499 60.9146205,5.64899554 C60.9246652,5.68582608 60.9146207,5.72600425 60.8844866,5.76953125 C60.8543525,5.81305825 60.7991075,5.84486597 60.71875,5.86495536 C60.5848208,5.90513413 60.3956485,5.97712002 60.1512277,6.08091518 C59.9068068,6.18471034 59.7544646,6.24999987 59.6941964,6.27678571 C59.3995521,6.40401849 59.1651794,6.48102665 58.9910714,6.5078125 C58.8236599,6.54129481 58.5591536,6.53459845 58.1975446,6.48772321 C58.13058,6.47433029 58.1004464,6.48102665 58.1071429,6.5078125 C58.1138393,6.53459835 58.1707584,6.59821378 58.2779018,6.69866071 C58.4453133,6.85267934 58.6696415,6.92633932 58.9508929,6.91964286 C59.0647327,6.9129464 59.1852672,6.88950913 59.3125,6.84933036 C59.4397328,6.80915158 59.5602673,6.76227705 59.6741071,6.70870536 C59.787947,6.65513366 59.9001111,6.5965405 60.0106027,6.53292411 C60.1210943,6.46930772 60.2215397,6.41238864 60.311942,6.36216518 C60.4023442,6.31194171 60.4843746,6.27176354 60.5580357,6.24162946 C60.6316968,6.21149539 60.69029,6.20312493 60.733817,6.21651786 C60.777344,6.22991078 60.8058035,6.26674077 60.8191964,6.32700893 C60.8191964,6.34040185 60.8158482,6.35546867 60.8091518,6.37220982 C60.8024553,6.38895098 60.7890626,6.40569188 60.7689732,6.42243304 C60.7488838,6.43917419 60.7287947,6.454241 60.7087054,6.46763393 C60.688616,6.48102685 60.6601564,6.49776776 60.6233259,6.51785714 C60.5864954,6.53794653 60.5563617,6.55301334 60.5329241,6.56305804 C60.5094865,6.57310273 60.4760047,6.58984363 60.4324777,6.61328125 C60.3889507,6.63671887 60.357143,6.65178568 60.3370536,6.65848214 C60.1495526,6.75223261 59.9235504,6.89955257 59.6590402,7.10044643 C59.3945299,7.30134029 59.1718759,7.44531206 58.9910714,7.53236607 C58.810267,7.61942008 58.6462061,7.62276826 58.4988839,7.54241071 C58.3582582,7.46874963 58.1473228,7.22433243 57.8660714,6.80915179 C57.7187493,6.60156146 57.6350447,6.52790148 57.6149554,6.58816964 C57.6082589,6.60825903 57.6049107,6.64174084 57.6049107,6.68861607 C57.6049107,6.85602762 57.554688,7.04519984 57.4542411,7.25613839 C57.3537941,7.46707695 57.2550228,7.65290098 57.1579241,7.81361607 C57.0608254,7.97433116 56.9905136,8.16852565 56.9469866,8.39620536 C56.9034596,8.62388507 56.9419637,8.83482046 57.0625,9.02901786 C56.9084814,9.06919663 56.6992201,9.3705329 56.4347098,9.93303571 C56.1701996,10.4955385 56.011161,10.967632 55.9575893,11.3493304 C55.9441964,11.4698667 55.9391741,11.7008911 55.9425223,12.0424107 C55.9458706,12.3839303 55.9274556,12.5814729 55.8872768,12.6350446 C55.8337051,12.7957597 55.7366078,12.8058043 55.5959821,12.6651786 C55.3816954,12.4575882 55.2611608,12.1428593 55.234375,11.7209821 C55.2209821,11.5334812 55.2343748,11.3459831 55.2745536,11.1584821 C55.3013394,11.0312494 55.2979912,10.9709821 55.2645089,10.9776786 C55.251116,10.984375 55.2377233,11.0011159 55.2243304,11.0279018 C54.9832577,11.4631718 55.0167395,12.0189698 55.3247768,12.6953125 C55.3582591,12.77567 55.4419636,12.8694191 55.5758929,12.9765625 C55.7098221,13.0837059 55.7901784,13.1506695 55.8169643,13.1774554 C55.9508935,13.331474 56.2991043,13.6344843 56.8616071,14.0864955 C57.42411,14.5385067 57.7354908,14.7946426 57.7957589,14.8549107 C57.9029023,14.9553576 57.9614955,15.0825885 57.9715402,15.2366071 C57.9815849,15.3906258 57.9347103,15.5345975 57.8309152,15.6685268 C57.72712,15.802456 57.5747778,15.8794642 57.3738839,15.8995536 C57.4274556,16.0000005 57.5245529,16.1489945 57.6651786,16.3465402 C57.8058043,16.5440858 57.8995533,16.7248876 57.9464286,16.8889509 C57.9933038,17.0530142 58.0167411,17.289061 58.0167411,17.5970982 C58.3247783,17.4363831 58.3482156,17.1283505 58.0870536,16.6729911 C58.0602677,16.6194194 58.0251118,16.5658485 57.9815848,16.5122768 C57.9380578,16.4587051 57.9062501,16.4185269 57.8861607,16.3917411 C57.8660713,16.3649552 57.859375,16.3448661 57.8660714,16.3314732 C57.8861608,16.2979909 57.9296872,16.2661832 57.9966518,16.2360491 C58.0636164,16.205915 58.13058,16.2142855 58.1975446,16.2611607 C58.5055819,16.6093767 59.0613799,16.7299112 59.8649554,16.6227679 C60.7555848,16.5223209 61.3482128,16.2310292 61.6428571,15.7488839 C61.7968758,15.4944184 61.9107139,15.3939729 61.984375,15.4475446 C62.0647325,15.4877234 62.0982144,15.6618288 62.0848214,15.9698661 C62.078125,16.1372776 62.0011168,16.4453103 61.8537946,16.8939732 C61.7935265,17.0479918 61.7734374,17.1735486 61.7935268,17.2706473 C61.8136162,17.367746 61.8939725,17.4196428 62.0345982,17.4263393 C62.0546876,17.2991065 62.1032362,17.0412966 62.1802455,16.6529018 C62.2572548,16.264507 62.3024553,15.9631707 62.3158482,15.7488839 C62.3292411,15.6082582 62.307478,15.3621669 62.250558,15.0106027 C62.1936381,14.6590384 62.1685268,14.3342649 62.1752232,14.0362723 C62.1819197,13.7382798 62.2589278,13.502233 62.40625,13.328125 C62.5066969,13.2075887 62.6774542,13.1473214 62.9185268,13.1473214 C62.9252232,12.8995523 63.0407355,12.7220987 63.265067,12.6149554 C63.4893984,12.507812 63.7321416,12.4726561 63.9933036,12.5094866 C64.2544656,12.5463171 64.4553564,12.6216512 64.5959821,12.7354911 Z M58.2879464,4.42857143 C58.3080358,4.31473157 58.2996654,4.21428615 58.2628348,4.12723214 C58.2260043,4.04017814 58.1875002,3.98995542 58.1473214,3.9765625 C58.0870533,3.96316958 58.0569196,3.98660684 58.0569196,4.046875 C58.0703126,4.08035731 58.0870535,4.1004464 58.1071429,4.10714286 C58.1741075,4.10714286 58.1975447,4.15736557 58.1774554,4.2578125 C58.157366,4.39174174 58.1841514,4.45870536 58.2578125,4.45870536 C58.2779019,4.45870536 58.2879464,4.44866081 58.2879464,4.42857143 Z M62.4966518,6.40736607 C62.4832589,6.35379437 62.4614957,6.3152903 62.4313616,6.29185268 C62.4012275,6.26841506 62.3577012,6.25167416 62.3007812,6.24162946 C62.2438613,6.23158477 62.1953127,6.21316978 62.1551339,6.18638393 C62.1216516,6.16629454 62.0898439,6.1395091 62.0597098,6.10602679 C62.0295757,6.07254448 62.0061385,6.04575903 61.9893973,6.02566964 C61.9726562,6.00558026 61.9542412,5.98381708 61.9341518,5.96037946 C61.9140624,5.93694185 61.9006697,5.92354912 61.8939732,5.92020089 C61.8872768,5.91685266 61.873884,5.92187493 61.8537946,5.93526786 C61.7600442,6.04241125 61.7834814,6.18805711 61.9241071,6.37220982 C62.0647328,6.55636253 62.1953119,6.66183022 62.3158482,6.68861607 C62.3761164,6.69531253 62.424665,6.66852709 62.4614955,6.60825893 C62.4983261,6.54799077 62.5100447,6.48102715 62.4966518,6.40736607 Z M60.7087054,4.26785714 C60.7087054,4.19419606 60.6919645,4.12890653 60.6584821,4.07198661 C60.6249998,4.01506668 60.5881698,3.97321442 60.5479911,3.94642857 C60.5078123,3.91964272 60.4776787,3.90959818 60.4575893,3.91629464 C60.4174105,3.91629464 60.3906251,3.922991 60.3772321,3.93638393 C60.3638392,3.94977685 60.3638392,3.96316958 60.3772321,3.9765625 C60.3906251,3.98995542 60.407366,3.99999997 60.4274554,4.00669643 C60.5212058,4.03348228 60.5814731,4.13727588 60.6082589,4.31808036 C60.6082589,4.33816974 60.6350444,4.33147338 60.6886161,4.29799107 C60.702009,4.28459815 60.7087054,4.2745536 60.7087054,4.26785714 Z M61.2511161,1.92745536 C61.2511161,1.91406243 61.2427456,1.89732153 61.2260045,1.87723214 C61.2092633,1.85714276 61.1791297,1.83370549 61.1356027,1.80691964 C61.0920757,1.78013379 61.060268,1.76004471 61.0401786,1.74665179 C60.9397316,1.64620485 60.8593753,1.59598214 60.7991071,1.59598214 C60.738839,1.6026786 60.7003349,1.62778996 60.6835938,1.67131696 C60.6668526,1.71484397 60.6635044,1.75837032 60.6735491,1.80189732 C60.6835938,1.84542432 60.6819197,1.88727658 60.6685268,1.92745536 C60.6618303,1.95424121 60.6417412,1.9893971 60.6082589,2.03292411 C60.5747766,2.07645111 60.5546875,2.10658474 60.5479911,2.12332589 C60.5412946,2.14006705 60.5513392,2.16852658 60.578125,2.20870536 C60.6049108,2.22879474 60.6316963,2.22879474 60.6584821,2.20870536 C60.685268,2.18861597 60.722098,2.15848234 60.7689732,2.11830357 C60.8158484,2.0781248 60.8660712,2.04799117 60.9196429,2.02790179 C60.9263393,2.02120532 60.9564729,2.01785714 61.0100446,2.01785714 C61.0636163,2.01785714 61.1138391,2.01116078 61.1607143,1.99776786 C61.2075895,1.98437493 61.2377231,1.96093767 61.2511161,1.92745536 Z M66.9263393,15.3973214 C67.0602685,15.477679 67.1640621,15.5597094 67.2377232,15.6434152 C67.3113843,15.727121 67.3515625,15.8074773 67.3582589,15.8844866 C67.3649554,15.9614959 67.3565849,16.03683 67.3331473,16.1104911 C67.3097097,16.1841522 67.2578129,16.2578121 67.1774554,16.3314732 C67.0970978,16.4051343 67.0184156,16.4704238 66.9414062,16.5273437 C66.8643969,16.5842637 66.7639515,16.646205 66.640067,16.7131696 C66.5161824,16.7801343 66.4107147,16.8353792 66.3236607,16.8789062 C66.2366067,16.9224333 66.1294649,16.9743301 66.0022321,17.0345982 C65.8749994,17.0948664 65.7845985,17.1383927 65.7310268,17.1651786 C65.4765612,17.2924114 65.1902918,17.4799095 64.8722098,17.7276786 C64.5541279,17.9754477 64.3013402,18.1897312 64.1138393,18.3705357 C63.9999994,18.4776791 63.7723231,18.5429686 63.4308036,18.5664062 C63.089284,18.5898439 62.7912959,18.5412952 62.5368304,18.4207589 C62.416294,18.3604908 62.3175227,18.2818085 62.2405134,18.1847098 C62.1635041,18.0876111 62.1082591,18.0022325 62.0747768,17.9285714 C62.0412945,17.8549103 61.9676345,17.7896208 61.8537946,17.7327009 C61.7399548,17.675781 61.5825903,17.6439732 61.3816964,17.6372768 C61.0870521,17.6305803 60.6517886,17.6272321 60.0758929,17.6272321 C59.9486601,17.6272321 59.7578138,17.6322544 59.5033482,17.6422991 C59.2488827,17.6523438 59.0546882,17.6607143 58.9207589,17.6674107 C58.6261146,17.6741072 58.3599342,17.7243299 58.1222098,17.8180804 C57.8844854,17.9118308 57.7053577,18.0122762 57.5848214,18.1194196 C57.4642851,18.226563 57.3186392,18.3219862 57.1478795,18.405692 C56.9771197,18.4893977 56.797992,18.5279018 56.6104911,18.5212054 C56.4162937,18.5145089 56.0446456,18.4107153 55.4955357,18.2098214 C54.9464258,18.0089276 54.4575914,17.8649558 54.0290179,17.7779018 C53.9017851,17.7511159 53.7310279,17.7193082 53.5167411,17.6824777 C53.3024543,17.6456471 53.1350452,17.6155135 53.0145089,17.5920759 C52.8939726,17.5686383 52.7617195,17.5368306 52.6177455,17.4966518 C52.4737716,17.456473 52.3616075,17.4079244 52.28125,17.3510045 C52.2008925,17.2940845 52.1439734,17.228795 52.1104911,17.1551339 C52.0435265,17.0011153 52.0669637,16.7784613 52.1808036,16.4871652 C52.2946434,16.1958691 52.3549107,16.0133932 52.3616071,15.9397321 C52.3683036,15.8325887 52.3549109,15.6986615 52.3214286,15.5379464 C52.2879463,15.3772313 52.2544645,15.2349337 52.2209821,15.1110491 C52.1874998,14.9871646 52.172433,14.864956 52.1757812,14.7444196 C52.1791295,14.6238833 52.2142854,14.5334824 52.28125,14.4732143 C52.3750005,14.3928567 52.5658468,14.3459822 52.8537946,14.3325893 C53.1417425,14.3191964 53.3426334,14.2790182 53.4564732,14.2120536 C53.6573671,14.0915173 53.7979907,13.9743309 53.8783482,13.8604911 C53.9587058,13.7466512 53.9988839,13.575894 53.9988839,13.3482143 C54.1395096,13.837056 54.0323678,14.1919632 53.6774554,14.4129464 C53.4631686,14.5468757 53.1852696,14.5970984 52.84375,14.5636161 C52.6160703,14.5435267 52.4720985,14.5770085 52.4118304,14.6640625 C52.3247764,14.7645094 52.3415173,14.9553557 52.4620536,15.2366071 C52.4754465,15.2767859 52.5022319,15.3370532 52.5424107,15.4174107 C52.5825895,15.4977683 52.611049,15.5580355 52.6277902,15.5982143 C52.6445313,15.6383931 52.6595981,15.6953121 52.6729911,15.7689732 C52.686384,15.8426343 52.6897322,15.9162943 52.6830357,15.9899554 C52.6830357,16.0904023 52.6261166,16.2544631 52.5122768,16.4821429 C52.3984369,16.7098226 52.3515624,16.8705352 52.3716518,16.9642857 C52.3917412,17.0781256 52.5156239,17.1651783 52.7433036,17.2254464 C52.8772328,17.2656252 53.1601541,17.3275665 53.5920759,17.4112723 C54.0239977,17.4949781 54.3571417,17.5636158 54.5915179,17.6171875 C54.7522329,17.6573663 54.9999983,17.7310262 55.3348214,17.8381696 C55.6696445,17.945313 55.9458694,18.0223212 56.1635045,18.0691964 C56.3811395,18.1160717 56.5669635,18.1294644 56.7209821,18.109375 C57.00893,18.0691962 57.2248877,17.9754472 57.3688616,17.828125 C57.5128355,17.6808028 57.5898437,17.5200902 57.5998884,17.3459821 C57.6099331,17.1718741 57.5848217,16.9760056 57.5245536,16.7583705 C57.4642854,16.5407355 57.40067,16.3666301 57.3337054,16.2360491 C57.2667407,16.1054681 57.1997771,15.9832595 57.1328125,15.8694196 C56.3225406,14.5970919 55.756698,13.7868321 55.4352679,13.4386161 C54.9799084,12.9430779 54.601564,12.8091506 54.3002232,13.0368304 C54.2265621,13.0970985 54.1763394,13.0468758 54.1495536,12.8861607 C54.1294642,12.7790173 54.1227678,12.6517865 54.1294643,12.5044643 C54.1361607,12.3102669 54.1696426,12.1361615 54.2299107,11.9821429 C54.2901789,11.8281242 54.3705352,11.6707597 54.4709821,11.5100446 C54.5714291,11.3493296 54.6450891,11.208706 54.6919643,11.0881696 C54.745536,10.9475439 54.8342628,10.7064749 54.9581473,10.3649554 C55.0820319,10.0234358 55.1808032,9.76227769 55.2544643,9.58147321 C55.3281254,9.40066874 55.4285708,9.19642971 55.5558036,8.96875 C55.6830364,8.74107029 55.8136154,8.56026853 55.9475446,8.42633929 C56.6841555,7.46874521 57.0993299,6.81584996 57.1930804,6.46763393 C57.1127228,5.71763018 57.0591519,4.67969413 57.0323661,3.35379464 C57.0189731,2.75111306 57.0993295,2.24386367 57.2734375,1.83203125 C57.4475455,1.42019883 57.8024527,1.07031394 58.3381696,0.782366071 C58.5993317,0.641740368 58.9475425,0.571428571 59.3828125,0.571428571 C59.737725,0.564732109 60.0926322,0.60993255 60.4475446,0.70703125 C60.8024571,0.80412995 61.1004452,0.943079453 61.3415179,1.12388393 C61.7232162,1.40513533 62.0295747,1.8119393 62.2606027,2.34430804 C62.4916306,2.87667677 62.590402,3.37053344 62.5569196,3.82589286 C62.5234373,4.46205675 62.6238828,5.17856744 62.8582589,5.97544643 C63.0859386,6.73214664 63.5312467,7.46205006 64.1941964,8.16517857 C64.5625018,8.56026983 64.8956458,9.1060233 65.1936384,9.80245536 C65.491631,10.4988874 65.6908477,11.1383899 65.7912946,11.7209821 C65.8448663,12.0491088 65.8616072,12.3320301 65.8415179,12.5697545 C65.8214285,12.8074789 65.7812503,12.9933029 65.7209821,13.1272321 C65.660714,13.2611614 65.5937504,13.3348214 65.5200893,13.3482143 C65.4531247,13.3616072 65.3744424,13.4252226 65.2840402,13.5390625 C65.1936379,13.6529024 65.1032371,13.7717628 65.0128348,13.8956473 C64.9224326,14.0195319 64.7868313,14.1316959 64.6060268,14.2321429 C64.4252223,14.3325898 64.2209833,14.3794643 63.9933036,14.3727679 C63.8727673,14.3660714 63.7672996,14.3493305 63.6768973,14.3225446 C63.5864951,14.2957588 63.511161,14.2505584 63.4508929,14.186942 C63.3906247,14.1233256 63.3454243,14.0714288 63.3152902,14.03125 C63.2851561,13.9910712 63.246652,13.9224335 63.1997768,13.8253348 C63.1529016,13.7282361 63.1227679,13.6629466 63.109375,13.6294643 C62.9620528,13.3816952 62.8247774,13.2812498 62.6975446,13.328125 C62.5703119,13.3750002 62.4765628,13.5390611 62.4162946,13.8203125 C62.3560265,14.1015639 62.3794637,14.4263374 62.4866071,14.7946429 C62.6205364,15.2633952 62.6238846,15.9162905 62.4966518,16.7533482 C62.4296872,17.1886182 62.4899544,17.5251104 62.6774554,17.7628348 C62.8649563,18.0005592 63.1093735,18.1110492 63.4107143,18.094308 C63.7120551,18.0775669 63.9966504,17.9587065 64.2645089,17.7377232 C64.6596002,17.4095966 64.9592624,17.1869426 65.1635045,17.0697545 C65.3677466,16.9525664 65.7142833,16.8102687 66.203125,16.6428571 C66.5580375,16.5223208 66.8158474,16.4001122 66.9765625,16.2762277 C67.1372776,16.1523431 67.1992189,16.0368309 67.1623884,15.9296875 C67.1255579,15.8225441 67.0418533,15.727121 66.9112723,15.6434152 C66.7806913,15.5597094 66.60826,15.4810272 66.3939732,15.4073661 C66.17299,15.333705 66.007255,15.1729923 65.8967634,14.9252232 C65.7862718,14.6774541 65.7360491,14.434711 65.7460938,14.1969866 C65.7561384,13.9592622 65.8080352,13.8002236 65.9017857,13.7198661 C65.9084822,13.9274564 65.9352676,14.1166286 65.9821429,14.2873884 C66.0290181,14.4581482 66.0775667,14.5937495 66.1277902,14.6941964 C66.1780136,14.7946434 66.2466514,14.8900665 66.3337054,14.9804687 C66.4207594,15.070871 66.4910712,15.1344864 66.5446429,15.171317 C66.5982146,15.2081475 66.6702004,15.2516739 66.7606027,15.3018973 C66.8510049,15.3521208 66.9062499,15.3839285 66.9263393,15.3973214 Z" id="linux---FontAwesome"></path>
                            </g>
                        </g>
                    </g>
                </g>
            </g>
        </g>
    </g>
</svg>