<?xml version="1.0" encoding="UTF-8"?>
<svg width="16px" height="19px" viewBox="0 0 16 19" version="1.1" xmlns="http://www.w3.org/2000/svg" xmlns:xlink="http://www.w3.org/1999/xlink">
    <!-- Generator: Sketch 49 (51002) - http://www.bohemiancoding.com/sketch -->
    <title>linux - FontAwesome</title>
    <desc>Created with Sketch.</desc>
    <defs></defs>
    <g id="new" stroke="none" stroke-width="1" fill="none" fill-rule="evenodd">
        <g id="Bitcoin.org---new-Choose-Your-wallet--Desktop-Copy-4" transform="translate(-1092.000000, -768.000000)" fill="#FF7E00">
            <g id="//Content" transform="translate(0.000000, 473.000000)">
                <g id="Wallets-for-Linux" transform="translate(215.000000, 152.000000)">
                    <g id="Containers">
                        <g id="Container" transform="translate(800.000000, 0.000000)">
                            <g id="Group" transform="translate(25.000000, 139.000000)">
                                <path d="M58.6595982,8.69977679 C58.5859371,8.70647325 58.5340403,8.74162915 58.5039062,8.80524554 C58.4737722,8.86886193 58.4453126,8.90066964 58.4185268,8.90066964 C58.3850445,8.9073661 58.3683036,8.8906252 58.3683036,8.85044643 C58.3683036,8.77008888 58.431919,8.71986617 58.5591518,8.69977679 L58.6595982,8.69977679 Z M59.5334821,8.84040179 C59.5066963,8.84709825 59.4681922,8.82533507 59.4179688,8.77511161 C59.3677453,8.72488814 59.3091521,8.70982133 59.2421875,8.72991071 C59.4029026,8.65624963 59.5100444,8.66294599 59.5636161,8.75 C59.5837055,8.79017877 59.5736609,8.8203124 59.5334821,8.84040179 Z M56.0078125,13.1294643 C55.9810267,13.1227678 55.9609376,13.1328124 55.9475446,13.1595982 C55.9341517,13.1863841 55.9190849,13.2282363 55.9023438,13.2851562 C55.8856026,13.3420762 55.8671876,13.3872766 55.8470982,13.4207589 C55.8270088,13.4542412 55.793527,13.4977676 55.7466518,13.5513393 C55.6796872,13.6250004 55.676339,13.6651785 55.7366071,13.671875 C55.763393,13.6785715 55.8052453,13.6551342 55.8621652,13.6015625 C55.9190851,13.5479908 55.9609374,13.4877235 55.9877232,13.4207589 C55.9944197,13.4006695 56.001116,13.3772323 56.0078125,13.3504464 C56.014509,13.3236606 56.0212053,13.3035715 56.0279018,13.2901786 C56.0345982,13.2767856 56.0396205,13.2617188 56.0429688,13.2449777 C56.046317,13.2282365 56.0479911,13.2148438 56.0479911,13.2047991 L56.0479911,13.1746652 C56.0479911,13.1646205 56.0446429,13.15625 56.0379464,13.1495536 C56.03125,13.1428571 56.0212054,13.1361607 56.0078125,13.1294643 Z M64.5959821,16.7354911 C64.5959821,16.6149548 64.4118322,16.4743312 64.0435268,16.3136161 C64.0703126,16.2131691 64.095424,16.1210942 64.1188616,16.0373884 C64.1422992,15.9536826 64.1590401,15.8666299 64.1690848,15.7762277 C64.1791295,15.6858254 64.1891741,15.6138396 64.1992188,15.5602679 C64.2092634,15.5066962 64.2109375,15.4313621 64.2042411,15.3342634 C64.1975446,15.2371647 64.1941964,15.1718752 64.1941964,15.1383929 C64.1941964,15.1049105 64.1824778,15.0312506 64.1590402,14.9174107 C64.1356026,14.8035709 64.1222098,14.7349332 64.1188616,14.7114955 C64.1155134,14.6880579 64.0987725,14.6043534 64.0686384,14.4603795 C64.0385043,14.3164055 64.0200893,14.2276787 64.0133929,14.1941964 C63.9464282,13.8727663 63.7890637,13.5279036 63.5412946,13.1595982 C63.2935255,12.7912928 63.0524565,12.5401792 62.8180804,12.40625 C62.9787954,12.5401792 63.1696418,12.8180782 63.390625,13.2399554 C63.9732172,14.3247822 64.154019,15.2555765 63.9330357,16.0323661 C63.8593746,16.3002246 63.6919656,16.4408481 63.4308036,16.4542411 C63.2232132,16.4810269 63.0943083,16.4190856 63.0440848,16.2684152 C62.9938614,16.1177448 62.9670759,15.8381717 62.9637277,15.4296875 C62.9603794,15.0212033 62.9218754,14.662948 62.8482143,14.3549107 C62.7879461,14.0937487 62.7226566,13.8627242 62.6523438,13.6618304 C62.5820309,13.4609365 62.5167414,13.3085943 62.4564732,13.2047991 C62.3962051,13.1010039 62.3443083,13.0189735 62.3007812,12.9587054 C62.2572542,12.8984372 62.2137279,12.8482145 62.1702009,12.8080357 C62.1266739,12.7678569 62.1015625,12.7444197 62.0948661,12.7377232 C62.0011156,12.3225426 61.897322,11.9776799 61.7834821,11.703125 C61.6696423,11.4285701 61.570871,11.2410719 61.4871652,11.140625 C61.4034594,11.0401781 61.3247772,10.9296881 61.2511161,10.8091518 C61.177455,10.6886155 61.1272323,10.5546882 61.1004464,10.4073661 C61.0736606,10.2667404 61.0937497,10.0876127 61.1607143,9.86997768 C61.2276789,9.65234266 61.2427457,9.48660771 61.2059152,9.37276786 C61.1690846,9.258928 61.0200906,9.17522348 60.7589286,9.12165179 C60.6584816,9.1015624 60.5094876,9.04129515 60.311942,8.94084821 C60.1143963,8.84040128 59.9955359,8.78683039 59.9553571,8.78013393 C59.9017854,8.77343747 59.8649555,8.68638477 59.8448661,8.51897321 C59.8247767,8.35156166 59.8515621,8.18080444 59.9252232,8.00669643 C59.9988843,7.83258842 60.1194188,7.74218753 60.2868304,7.73549107 C60.5345995,7.71540169 60.7053567,7.81584711 60.7991071,8.03683036 C60.8928576,8.2578136 60.9062503,8.45200809 60.8392857,8.61941964 C60.7656246,8.74665242 60.7589283,8.83537921 60.8191964,8.88560268 C60.8794646,8.93582614 60.97991,8.93750023 61.1205357,8.890625 C61.2075897,8.86383915 61.2511161,8.74330464 61.2511161,8.52901786 L61.2511161,8.15736607 C61.2176338,7.95647221 61.1724333,7.78906317 61.1155134,7.65513393 C61.0585935,7.52120469 60.9882817,7.41908517 60.9045759,7.34877232 C60.8208701,7.27845947 60.7421879,7.22823676 60.6685268,7.19810268 C60.5948657,7.1679686 60.5044648,7.14285724 60.3973214,7.12276786 C59.6808,7.17633955 59.3828119,7.62499578 59.5033482,8.46875 C59.5033482,8.56919693 59.5,8.61941964 59.4933036,8.61941964 C59.4330354,8.55915148 59.3342641,8.52399559 59.1969866,8.51395089 C59.0597091,8.5039062 58.9492192,8.50558029 58.8655134,8.51897321 C58.7818076,8.53236614 58.7299108,8.51562523 58.7098214,8.46875 C58.7165179,8.08705166 58.662947,7.78571539 58.5491071,7.56473214 C58.4352673,7.3437489 58.2845992,7.22991075 58.0970982,7.22321429 C57.9162937,7.21651782 57.7773442,7.3085928 57.6802455,7.49944196 C57.5831468,7.69029113 57.5279019,7.88950789 57.5145089,8.09709821 C57.5078125,8.19754515 57.5195311,8.32142783 57.5496652,8.46875 C57.5797993,8.61607217 57.6233256,8.74162895 57.6802455,8.84542411 C57.7371655,8.94921927 57.7890623,8.99441971 57.8359375,8.98102679 C57.9029021,8.9609374 57.956473,8.91406287 57.9966518,8.84040179 C58.0234376,8.78013363 58.0000004,8.75334818 57.9263393,8.76004464 C57.8794641,8.76004464 57.8275672,8.71149602 57.7706473,8.61439732 C57.7137274,8.51729862 57.6819197,8.40513456 57.6752232,8.27790179 C57.6685268,8.13057962 57.6986604,8.00669693 57.765625,7.90625 C57.8325896,7.80580307 57.9464278,7.75892854 58.1071429,7.765625 C58.2209827,7.765625 58.3113836,7.8359368 58.3783482,7.9765625 C58.4453128,8.1171882 58.4771206,8.24776725 58.4737723,8.36830357 C58.4704241,8.48883989 58.4654018,8.56249987 58.4587054,8.58928571 C58.3113832,8.68973265 58.2075896,8.78682989 58.1473214,8.88058036 C58.0937497,8.9609379 58.0016748,9.03962015 57.8710938,9.11662946 C57.7405127,9.19363878 57.671875,9.23549104 57.6651786,9.2421875 C57.5781246,9.33593797 57.5262278,9.42633885 57.5094866,9.51339286 C57.4927455,9.60044686 57.5178568,9.66071412 57.5848214,9.69419643 C57.6785719,9.74776813 57.7622764,9.81305765 57.8359375,9.89006696 C57.9095986,9.96707628 57.9631695,10.0306917 57.9966518,10.0809152 C58.0301341,10.1311386 58.0920754,10.174665 58.1824777,10.2114955 C58.2728799,10.2483261 58.3917403,10.2700893 58.5390625,10.2767857 C58.8537962,10.2901786 59.1953107,10.2399559 59.5636161,10.1261161 C59.577009,10.1194196 59.6540172,10.0959823 59.7946429,10.0558036 C59.9352686,10.0156248 60.0507808,9.9804689 60.141183,9.95033482 C60.2315853,9.92020074 60.3303566,9.87667439 60.4375,9.81975446 C60.5446434,9.76283454 60.6149552,9.70424137 60.6484375,9.64397321 C60.7087057,9.55022275 60.7756693,9.5234373 60.8493304,9.56361607 C60.8828127,9.58370546 60.9045758,9.61216499 60.9146205,9.64899554 C60.9246652,9.68582608 60.9146207,9.72600425 60.8844866,9.76953125 C60.8543525,9.81305825 60.7991075,9.84486597 60.71875,9.86495536 C60.5848208,9.90513413 60.3956485,9.97712002 60.1512277,10.0809152 C59.9068068,10.1847103 59.7544646,10.2499999 59.6941964,10.2767857 C59.3995521,10.4040185 59.1651794,10.4810267 58.9910714,10.5078125 C58.8236599,10.5412948 58.5591536,10.5345984 58.1975446,10.4877232 C58.13058,10.4743303 58.1004464,10.4810267 58.1071429,10.5078125 C58.1138393,10.5345983 58.1707584,10.5982138 58.2779018,10.6986607 C58.4453133,10.8526793 58.6696415,10.9263393 58.9508929,10.9196429 C59.0647327,10.9129464 59.1852672,10.8895091 59.3125,10.8493304 C59.4397328,10.8091516 59.5602673,10.7622771 59.6741071,10.7087054 C59.787947,10.6551337 59.9001111,10.5965405 60.0106027,10.5329241 C60.1210943,10.4693077 60.2215397,10.4123886 60.311942,10.3621652 C60.4023442,10.3119417 60.4843746,10.2717635 60.5580357,10.2416295 C60.6316968,10.2114954 60.69029,10.2031249 60.733817,10.2165179 C60.777344,10.2299108 60.8058035,10.2667408 60.8191964,10.3270089 C60.8191964,10.3404019 60.8158482,10.3554687 60.8091518,10.3722098 C60.8024553,10.388951 60.7890626,10.4056919 60.7689732,10.422433 C60.7488838,10.4391742 60.7287947,10.454241 60.7087054,10.4676339 C60.688616,10.4810269 60.6601564,10.4977678 60.6233259,10.5178571 C60.5864954,10.5379465 60.5563617,10.5530133 60.5329241,10.563058 C60.5094865,10.5731027 60.4760047,10.5898436 60.4324777,10.6132812 C60.3889507,10.6367189 60.357143,10.6517857 60.3370536,10.6584821 C60.1495526,10.7522326 59.9235504,10.8995526 59.6590402,11.1004464 C59.3945299,11.3013403 59.1718759,11.4453121 58.9910714,11.5323661 C58.810267,11.6194201 58.6462061,11.6227683 58.4988839,11.5424107 C58.3582582,11.4687496 58.1473228,11.2243324 57.8660714,10.8091518 C57.7187493,10.6015615 57.6350447,10.5279015 57.6149554,10.5881696 C57.6082589,10.608259 57.6049107,10.6417408 57.6049107,10.6886161 C57.6049107,10.8560276 57.554688,11.0451998 57.4542411,11.2561384 C57.3537941,11.4670769 57.2550228,11.652901 57.1579241,11.8136161 C57.0608254,11.9743312 56.9905136,12.1685256 56.9469866,12.3962054 C56.9034596,12.6238851 56.9419637,12.8348205 57.0625,13.0290179 C56.9084814,13.0691966 56.6992201,13.3705329 56.4347098,13.9330357 C56.1701996,14.4955385 56.011161,14.967632 55.9575893,15.3493304 C55.9441964,15.4698667 55.9391741,15.7008911 55.9425223,16.0424107 C55.9458706,16.3839303 55.9274556,16.5814729 55.8872768,16.6350446 C55.8337051,16.7957597 55.7366078,16.8058043 55.5959821,16.6651786 C55.3816954,16.4575882 55.2611608,16.1428593 55.234375,15.7209821 C55.2209821,15.5334812 55.2343748,15.3459831 55.2745536,15.1584821 C55.3013394,15.0312494 55.2979912,14.9709821 55.2645089,14.9776786 C55.251116,14.984375 55.2377233,15.0011159 55.2243304,15.0279018 C54.9832577,15.4631718 55.0167395,16.0189698 55.3247768,16.6953125 C55.3582591,16.77567 55.4419636,16.8694191 55.5758929,16.9765625 C55.7098221,17.0837059 55.7901784,17.1506695 55.8169643,17.1774554 C55.9508935,17.331474 56.2991043,17.6344843 56.8616071,18.0864955 C57.42411,18.5385067 57.7354908,18.7946426 57.7957589,18.8549107 C57.9029023,18.9553576 57.9614955,19.0825885 57.9715402,19.2366071 C57.9815849,19.3906258 57.9347103,19.5345975 57.8309152,19.6685268 C57.72712,19.802456 57.5747778,19.8794642 57.3738839,19.8995536 C57.4274556,20.0000005 57.5245529,20.1489945 57.6651786,20.3465402 C57.8058043,20.5440858 57.8995533,20.7248876 57.9464286,20.8889509 C57.9933038,21.0530142 58.0167411,21.289061 58.0167411,21.5970982 C58.3247783,21.4363831 58.3482156,21.1283505 58.0870536,20.6729911 C58.0602677,20.6194194 58.0251118,20.5658485 57.9815848,20.5122768 C57.9380578,20.4587051 57.9062501,20.4185269 57.8861607,20.3917411 C57.8660713,20.3649552 57.859375,20.3448661 57.8660714,20.3314732 C57.8861608,20.2979909 57.9296872,20.2661832 57.9966518,20.2360491 C58.0636164,20.205915 58.13058,20.2142855 58.1975446,20.2611607 C58.5055819,20.6093767 59.0613799,20.7299113 59.8649554,20.6227679 C60.7555848,20.5223209 61.3482128,20.2310292 61.6428571,19.7488839 C61.7968758,19.4944184 61.9107139,19.3939729 61.984375,19.4475446 C62.0647325,19.4877234 62.0982144,19.6618288 62.0848214,19.9698661 C62.078125,20.1372776 62.0011168,20.4453103 61.8537946,20.8939732 C61.7935265,21.0479918 61.7734374,21.1735486 61.7935268,21.2706473 C61.8136162,21.367746 61.8939725,21.4196428 62.0345982,21.4263393 C62.0546876,21.2991065 62.1032362,21.0412966 62.1802455,20.6529018 C62.2572548,20.264507 62.3024553,19.9631707 62.3158482,19.7488839 C62.3292411,19.6082582 62.307478,19.3621669 62.250558,19.0106027 C62.1936381,18.6590384 62.1685268,18.3342649 62.1752232,18.0362723 C62.1819197,17.7382798 62.2589278,17.502233 62.40625,17.328125 C62.5066969,17.2075887 62.6774542,17.1473214 62.9185268,17.1473214 C62.9252232,16.8995523 63.0407355,16.7220988 63.265067,16.6149554 C63.4893984,16.507812 63.7321416,16.4726561 63.9933036,16.5094866 C64.2544656,16.5463171 64.4553564,16.6216512 64.5959821,16.7354911 Z M58.2879464,8.42857143 C58.3080358,8.31473157 58.2996654,8.21428615 58.2628348,8.12723214 C58.2260043,8.04017814 58.1875002,7.98995542 58.1473214,7.9765625 C58.0870533,7.96316958 58.0569196,7.98660684 58.0569196,8.046875 C58.0703126,8.08035731 58.0870535,8.1004464 58.1071429,8.10714286 C58.1741075,8.10714286 58.1975447,8.15736557 58.1774554,8.2578125 C58.157366,8.39174174 58.1841514,8.45870536 58.2578125,8.45870536 C58.2779019,8.45870536 58.2879464,8.44866081 58.2879464,8.42857143 Z M62.4966518,10.4073661 C62.4832589,10.3537944 62.4614957,10.3152903 62.4313616,10.2918527 C62.4012275,10.2684151 62.3577012,10.2516742 62.3007812,10.2416295 C62.2438613,10.2315848 62.1953127,10.2131698 62.1551339,10.1863839 C62.1216516,10.1662945 62.0898439,10.1395091 62.0597098,10.1060268 C62.0295757,10.0725445 62.0061385,10.045759 61.9893973,10.0256696 C61.9726562,10.0055803 61.9542412,9.98381708 61.9341518,9.96037946 C61.9140624,9.93694185 61.9006697,9.92354912 61.8939732,9.92020089 C61.8872768,9.91685266 61.873884,9.92187493 61.8537946,9.93526786 C61.7600442,10.0424113 61.7834814,10.1880571 61.9241071,10.3722098 C62.0647328,10.5563625 62.1953119,10.6618302 62.3158482,10.6886161 C62.3761164,10.6953125 62.424665,10.6685271 62.4614955,10.6082589 C62.4983261,10.5479908 62.5100447,10.4810272 62.4966518,10.4073661 Z M60.7087054,8.26785714 C60.7087054,8.19419606 60.6919645,8.12890653 60.6584821,8.07198661 C60.6249998,8.01506668 60.5881698,7.97321442 60.5479911,7.94642857 C60.5078123,7.91964272 60.4776787,7.90959818 60.4575893,7.91629464 C60.4174105,7.91629464 60.3906251,7.922991 60.3772321,7.93638393 C60.3638392,7.94977685 60.3638392,7.96316958 60.3772321,7.9765625 C60.3906251,7.98995542 60.407366,7.99999997 60.4274554,8.00669643 C60.5212058,8.03348228 60.5814731,8.13727588 60.6082589,8.31808036 C60.6082589,8.33816974 60.6350444,8.33147338 60.6886161,8.29799107 C60.702009,8.28459815 60.7087054,8.2745536 60.7087054,8.26785714 Z M61.2511161,5.92745536 C61.2511161,5.91406243 61.2427456,5.89732153 61.2260045,5.87723214 C61.2092633,5.85714276 61.1791297,5.83370549 61.1356027,5.80691964 C61.0920757,5.78013379 61.060268,5.76004471 61.0401786,5.74665179 C60.9397316,5.64620485 60.8593753,5.59598214 60.7991071,5.59598214 C60.738839,5.6026786 60.7003349,5.62778996 60.6835938,5.67131696 C60.6668526,5.71484397 60.6635044,5.75837032 60.6735491,5.80189732 C60.6835938,5.84542432 60.6819197,5.88727658 60.6685268,5.92745536 C60.6618303,5.95424121 60.6417412,5.9893971 60.6082589,6.03292411 C60.5747766,6.07645111 60.5546875,6.10658474 60.5479911,6.12332589 C60.5412946,6.14006705 60.5513392,6.16852658 60.578125,6.20870536 C60.6049108,6.22879474 60.6316963,6.22879474 60.6584821,6.20870536 C60.685268,6.18861597 60.722098,6.15848234 60.7689732,6.11830357 C60.8158484,6.0781248 60.8660712,6.04799117 60.9196429,6.02790179 C60.9263393,6.02120532 60.9564729,6.01785714 61.0100446,6.01785714 C61.0636163,6.01785714 61.1138391,6.01116078 61.1607143,5.99776786 C61.2075895,5.98437493 61.2377231,5.96093767 61.2511161,5.92745536 Z M66.9263393,19.3973214 C67.0602685,19.477679 67.1640621,19.5597094 67.2377232,19.6434152 C67.3113843,19.727121 67.3515625,19.8074773 67.3582589,19.8844866 C67.3649554,19.9614959 67.3565849,20.03683 67.3331473,20.1104911 C67.3097097,20.1841522 67.2578129,20.2578121 67.1774554,20.3314732 C67.0970978,20.4051343 67.0184156,20.4704238 66.9414062,20.5273438 C66.8643969,20.5842637 66.7639515,20.646205 66.640067,20.7131696 C66.5161824,20.7801343 66.4107147,20.8353792 66.3236607,20.8789062 C66.2366067,20.9224333 66.1294649,20.9743301 66.0022321,21.0345982 C65.8749994,21.0948664 65.7845985,21.1383927 65.7310268,21.1651786 C65.4765612,21.2924114 65.1902918,21.4799095 64.8722098,21.7276786 C64.5541279,21.9754477 64.3013402,22.1897312 64.1138393,22.3705357 C63.9999994,22.4776791 63.7723231,22.5429686 63.4308036,22.5664062 C63.089284,22.5898439 62.7912959,22.5412952 62.5368304,22.4207589 C62.416294,22.3604908 62.3175227,22.2818085 62.2405134,22.1847098 C62.1635041,22.0876111 62.1082591,22.0022325 62.0747768,21.9285714 C62.0412945,21.8549103 61.9676345,21.7896208 61.8537946,21.7327009 C61.7399548,21.675781 61.5825903,21.6439732 61.3816964,21.6372768 C61.0870521,21.6305803 60.6517886,21.6272321 60.0758929,21.6272321 C59.9486601,21.6272321 59.7578138,21.6322544 59.5033482,21.6422991 C59.2488827,21.6523438 59.0546882,21.6607143 58.9207589,21.6674107 C58.6261146,21.6741072 58.3599342,21.7243299 58.1222098,21.8180804 C57.8844854,21.9118308 57.7053577,22.0122762 57.5848214,22.1194196 C57.4642851,22.226563 57.3186392,22.3219862 57.1478795,22.405692 C56.9771197,22.4893977 56.797992,22.5279018 56.6104911,22.5212054 C56.4162937,22.5145089 56.0446456,22.4107153 55.4955357,22.2098214 C54.9464258,22.0089276 54.4575914,21.8649558 54.0290179,21.7779018 C53.9017851,21.7511159 53.7310279,21.7193082 53.5167411,21.6824777 C53.3024543,21.6456471 53.1350452,21.6155135 53.0145089,21.5920759 C52.8939726,21.5686383 52.7617195,21.5368306 52.6177455,21.4966518 C52.4737716,21.456473 52.3616075,21.4079244 52.28125,21.3510045 C52.2008925,21.2940845 52.1439734,21.228795 52.1104911,21.1551339 C52.0435265,21.0011153 52.0669637,20.7784613 52.1808036,20.4871652 C52.2946434,20.1958691 52.3549107,20.0133932 52.3616071,19.9397321 C52.3683036,19.8325887 52.3549109,19.6986615 52.3214286,19.5379464 C52.2879463,19.3772313 52.2544645,19.2349337 52.2209821,19.1110491 C52.1874998,18.9871646 52.172433,18.864956 52.1757812,18.7444196 C52.1791295,18.6238833 52.2142854,18.5334824 52.28125,18.4732143 C52.3750005,18.3928567 52.5658468,18.3459822 52.8537946,18.3325893 C53.1417425,18.3191964 53.3426334,18.2790182 53.4564732,18.2120536 C53.6573671,18.0915173 53.7979907,17.9743309 53.8783482,17.8604911 C53.9587058,17.7466512 53.9988839,17.575894 53.9988839,17.3482143 C54.1395096,17.837056 54.0323678,18.1919632 53.6774554,18.4129464 C53.4631686,18.5468757 53.1852696,18.5970984 52.84375,18.5636161 C52.6160703,18.5435267 52.4720985,18.5770085 52.4118304,18.6640625 C52.3247764,18.7645094 52.3415173,18.9553557 52.4620536,19.2366071 C52.4754465,19.2767859 52.5022319,19.3370532 52.5424107,19.4174107 C52.5825895,19.4977683 52.611049,19.5580355 52.6277902,19.5982143 C52.6445313,19.6383931 52.6595981,19.6953121 52.6729911,19.7689732 C52.686384,19.8426343 52.6897322,19.9162943 52.6830357,19.9899554 C52.6830357,20.0904023 52.6261166,20.2544631 52.5122768,20.4821429 C52.3984369,20.7098226 52.3515624,20.8705352 52.3716518,20.9642857 C52.3917412,21.0781256 52.5156239,21.1651783 52.7433036,21.2254464 C52.8772328,21.2656252 53.1601541,21.3275665 53.5920759,21.4112723 C54.0239977,21.4949781 54.3571417,21.5636158 54.5915179,21.6171875 C54.7522329,21.6573663 54.9999983,21.7310262 55.3348214,21.8381696 C55.6696445,21.945313 55.9458694,22.0223212 56.1635045,22.0691964 C56.3811395,22.1160717 56.5669635,22.1294644 56.7209821,22.109375 C57.00893,22.0691962 57.2248877,21.9754472 57.3688616,21.828125 C57.5128355,21.6808028 57.5898437,21.5200902 57.5998884,21.3459821 C57.6099331,21.1718741 57.5848217,20.9760056 57.5245536,20.7583705 C57.4642854,20.5407355 57.40067,20.3666301 57.3337054,20.2360491 C57.2667407,20.1054681 57.1997771,19.9832595 57.1328125,19.8694196 C56.3225406,18.5970919 55.756698,17.7868321 55.4352679,17.4386161 C54.9799084,16.9430779 54.601564,16.8091506 54.3002232,17.0368304 C54.2265621,17.0970985 54.1763394,17.0468758 54.1495536,16.8861607 C54.1294642,16.7790173 54.1227678,16.6517865 54.1294643,16.5044643 C54.1361607,16.3102669 54.1696426,16.1361615 54.2299107,15.9821429 C54.2901789,15.8281242 54.3705352,15.6707597 54.4709821,15.5100446 C54.5714291,15.3493296 54.6450891,15.208706 54.6919643,15.0881696 C54.745536,14.9475439 54.8342628,14.7064749 54.9581473,14.3649554 C55.0820319,14.0234358 55.1808032,13.7622777 55.2544643,13.5814732 C55.3281254,13.4006687 55.4285708,13.1964297 55.5558036,12.96875 C55.6830364,12.7410703 55.8136154,12.5602685 55.9475446,12.4263393 C56.6841555,11.4687452 57.0993299,10.81585 57.1930804,10.4676339 C57.1127228,9.71763018 57.0591519,8.67969413 57.0323661,7.35379464 C57.0189731,6.75111306 57.0993295,6.24386367 57.2734375,5.83203125 C57.4475455,5.42019883 57.8024527,5.07031394 58.3381696,4.78236607 C58.5993317,4.64174037 58.9475425,4.57142857 59.3828125,4.57142857 C59.737725,4.56473211 60.0926322,4.60993255 60.4475446,4.70703125 C60.8024571,4.80412995 61.1004452,4.94307945 61.3415179,5.12388393 C61.7232162,5.40513533 62.0295747,5.8119393 62.2606027,6.34430804 C62.4916306,6.87667677 62.590402,7.37053344 62.5569196,7.82589286 C62.5234373,8.46205675 62.6238828,9.17856744 62.8582589,9.97544643 C63.0859386,10.7321466 63.5312467,11.4620501 64.1941964,12.1651786 C64.5625018,12.5602698 64.8956458,13.1060233 65.1936384,13.8024554 C65.491631,14.4988874 65.6908477,15.1383899 65.7912946,15.7209821 C65.8448663,16.0491088 65.8616072,16.3320301 65.8415179,16.5697545 C65.8214285,16.8074789 65.7812503,16.9933029 65.7209821,17.1272321 C65.660714,17.2611614 65.5937504,17.3348214 65.5200893,17.3482143 C65.4531247,17.3616072 65.3744424,17.4252226 65.2840402,17.5390625 C65.1936379,17.6529024 65.1032371,17.7717628 65.0128348,17.8956473 C64.9224326,18.0195319 64.7868313,18.1316959 64.6060268,18.2321429 C64.4252223,18.3325898 64.2209833,18.3794643 63.9933036,18.3727679 C63.8727673,18.3660714 63.7672996,18.3493305 63.6768973,18.3225446 C63.5864951,18.2957588 63.511161,18.2505584 63.4508929,18.186942 C63.3906247,18.1233256 63.3454243,18.0714288 63.3152902,18.03125 C63.2851561,17.9910712 63.246652,17.9224335 63.1997768,17.8253348 C63.1529016,17.7282361 63.1227679,17.6629466 63.109375,17.6294643 C62.9620528,17.3816952 62.8247774,17.2812498 62.6975446,17.328125 C62.5703119,17.3750002 62.4765628,17.5390611 62.4162946,17.8203125 C62.3560265,18.1015639 62.3794637,18.4263374 62.4866071,18.7946429 C62.6205364,19.2633952 62.6238846,19.9162905 62.4966518,20.7533482 C62.4296872,21.1886182 62.4899544,21.5251104 62.6774554,21.7628348 C62.8649563,22.0005592 63.1093735,22.1110492 63.4107143,22.094308 C63.7120551,22.0775669 63.9966504,21.9587065 64.2645089,21.7377232 C64.6596002,21.4095966 64.9592624,21.1869426 65.1635045,21.0697545 C65.3677466,20.9525664 65.7142833,20.8102687 66.203125,20.6428571 C66.5580375,20.5223208 66.8158474,20.4001122 66.9765625,20.2762277 C67.1372776,20.1523431 67.1992189,20.0368309 67.1623884,19.9296875 C67.1255579,19.8225441 67.0418533,19.727121 66.9112723,19.6434152 C66.7806913,19.5597094 66.60826,19.4810272 66.3939732,19.4073661 C66.17299,19.333705 66.007255,19.1729923 65.8967634,18.9252232 C65.7862718,18.6774541 65.7360491,18.434711 65.7460938,18.1969866 C65.7561384,17.9592622 65.8080352,17.8002236 65.9017857,17.7198661 C65.9084822,17.9274564 65.9352676,18.1166286 65.9821429,18.2873884 C66.0290181,18.4581482 66.0775667,18.5937495 66.1277902,18.6941964 C66.1780136,18.7946434 66.2466514,18.8900665 66.3337054,18.9804688 C66.4207594,19.070871 66.4910712,19.1344864 66.5446429,19.171317 C66.5982146,19.2081475 66.6702004,19.2516739 66.7606027,19.3018973 C66.8510049,19.3521208 66.9062499,19.3839285 66.9263393,19.3973214 Z" id="linux---FontAwesome"></path>
                            </g>
                        </g>
                    </g>
                </g>
            </g>
        </g>
    </g>
</svg>