<?xml version="1.0" encoding="UTF-8" standalone="no"?>
<!-- Created with Inkscape (http://www.inkscape.org/) -->

<svg
   xmlns:dc="http://purl.org/dc/elements/1.1/"
   xmlns:cc="http://creativecommons.org/ns#"
   xmlns:rdf="http://www.w3.org/1999/02/22-rdf-syntax-ns#"
   xmlns:svg="http://www.w3.org/2000/svg"
   xmlns="http://www.w3.org/2000/svg"
   xmlns:sodipodi="http://sodipodi.sourceforge.net/DTD/sodipodi-0.dtd"
   xmlns:inkscape="http://www.inkscape.org/namespaces/inkscape"
   width="32"
   height="50"
   id="svg2986"
   version="1.1"
   inkscape:version="0.48.4 r9939"
   sodipodi:docname="wallet_menu_linux.svg"
   inkscape:export-filename="/media/X/bitcoin.org/current/img/os/wallet_menu_linux.png"
   inkscape:export-xdpi="90"
   inkscape:export-ydpi="90">
  <defs
     id="defs2988">
    <filter
       inkscape:collect="always"
       id="filter3961"
       x="-0.15915464"
       width="1.3183093"
       y="-0.13148049"
       height="1.262961"
       color-interpolation-filters="sRGB">
      <feGaussianBlur
         inkscape:collect="always"
         stdDeviation="2.0473964"
         id="feGaussianBlur3963" />
    </filter>
  </defs>
  <sodipodi:namedview
     id="base"
     pagecolor="#ffffff"
     bordercolor="#666666"
     borderopacity="1.0"
     inkscape:pageopacity="0.0"
     inkscape:pageshadow="2"
     inkscape:zoom="11.313709"
     inkscape:cx="6.1643872"
     inkscape:cy="40.461474"
     inkscape:current-layer="layer1"
     showgrid="true"
     inkscape:grid-bbox="true"
     inkscape:document-units="px"
     inkscape:window-width="1615"
     inkscape:window-height="1026"
     inkscape:window-x="65"
     inkscape:window-y="24"
     inkscape:window-maximized="1" />
  <metadata
     id="metadata2991">
    <rdf:RDF>
      <cc:Work
         rdf:about="">
        <dc:format>image/svg+xml</dc:format>
        <dc:type
           rdf:resource="http://purl.org/dc/dcmitype/StillImage" />
        <dc:title></dc:title>
      </cc:Work>
    </rdf:RDF>
  </metadata>
  <g
     id="layer1"
     inkscape:label="Layer 1"
     inkscape:groupmode="layer"
     transform="translate(0,2)">
    <path
       id="path4004-5-6"
       d="m 16.398901,32.090192 c -0.101634,-1.43e-4 -0.207622,0.0038 -0.31816,0.01282 -2.793726,0.224993 -2.052813,3.176419 -2.094276,4.164759 -0.05102,0.722765 -0.197563,1.292353 -0.694649,1.998944 -0.584009,0.694487 -1.406221,1.818523 -1.795724,2.988603 -0.183831,0.552227 -0.271306,1.115096 -0.19052,1.647813 -0.02531,0.02264 -0.0494,0.04641 -0.07231,0.07088 -0.171462,0.183042 -0.298157,0.404844 -0.439323,0.554177 -0.131885,0.131571 -0.319795,0.181606 -0.526288,0.255685 -0.206574,0.07411 -0.4333753,0.18339 -0.5710453,0.447567 0,0 0,1.07e-4 -1.03e-4,1.07e-4 -1.47e-4,2.92e-4 -5.97e-4,8.91e-4 -5.97e-4,0.0015 l 0,0 c -0.124625,0.232768 -0.08757,0.500826 -0.04952,0.749178 0.03806,0.248347 0.07659,0.483022 0.02543,0.642242 -0.163486,0.446858 -0.184362,0.755958 -0.06927,0.980168 0.115337,0.224676 0.352477,0.323842 0.6204983,0.379821 0.53604,0.111952 1.261982,0.08415 1.834108,0.38737 l 0.04917,-0.09279 -0.04867,0.09307 c 0.612487,0.320227 1.23343,0.433967 1.72883,0.320811 0.359178,-0.08203 0.650742,-0.295908 0.800479,-0.624992 0.387483,-0.0018 0.812681,-0.166009 1.493792,-0.20353 0.462066,-0.03722 1.03927,0.164076 1.703193,0.127229 0.01738,0.07202 0.04247,0.141306 0.07684,0.207158 2.91e-4,8.89e-4 6.21e-4,0.0015 0.0011,0.002 0.257375,0.514662 0.735588,0.750061 1.245218,0.709841 0.510303,-0.04029 1.052861,-0.341169 1.491433,-0.8631 l -0.08041,-0.06757 0.08101,0.06682 c 0.418029,-0.506873 1.111882,-0.717053 1.571964,-0.994547 0.230039,-0.138741 0.416699,-0.312479 0.431123,-0.564815 0.01434,-0.252215 -0.133637,-0.534857 -0.474139,-0.912807 l -1.06e-4,-1.04e-4 c -9.9e-5,-1.48e-4 -2.94e-4,-2.93e-4 -2.94e-4,-6.23e-4 -0.1118,-0.126423 -0.165177,-0.360738 -0.222521,-0.610257 -0.05731,-0.249368 -0.121299,-0.51837 -0.326018,-0.692697 l 0,0 c -6.23e-4,-2.94e-4 -8.9e-4,-6.23e-4 -0.0012,-0.0012 l 0,0 c -0.08148,-0.071 -0.166161,-0.11919 -0.251421,-0.151561 0.28464,-0.844164 0.172961,-1.684743 -0.114366,-2.444342 -0.352646,-0.932365 -0.968279,-1.744662 -1.438452,-2.300345 -0.52628,-0.66382 -1.041025,-1.294064 -1.030884,-2.224918 0.01564,-1.420682 0.156276,-4.055288 -2.343701,-4.0587 z m 0.338448,2.188696 c 0.141871,0 0.263015,0.04159 0.387473,0.13192 0.126424,0.09175 0.217517,0.206636 0.290927,0.367059 0.07204,0.156341 0.106718,0.309282 0.110129,0.490775 0,0.0047 0,0.0088 0.0014,0.01368 0.0011,0.186257 -0.03059,0.344628 -0.101287,0.506406 -0.04032,0.09232 -0.08666,0.169789 -0.14211,0.236869 -0.0189,-0.0088 -0.03837,-0.01781 -0.05866,-0.02606 l 0,0 c -0.140545,-0.06019 -0.248356,-0.09851 -0.338213,-0.129683 0.03257,-0.03914 0.05968,-0.0856 0.08354,-0.143653 0.03604,-0.08768 0.05371,-0.17333 0.05712,-0.275293 0,-0.0038 0.0011,-0.0073 0.0011,-0.01217 0.002,-0.0979 -0.01087,-0.181499 -0.03943,-0.267138 -0.0299,-0.08973 -0.06798,-0.154297 -0.123034,-0.208004 -0.05505,-0.0537 -0.110129,-0.07817 -0.176046,-0.08022 -0.003,-1.45e-4 -0.0061,-1.45e-4 -0.0093,-1.45e-4 -0.06203,1.45e-4 -0.115887,0.0215 -0.171592,0.06812 -0.05847,0.04893 -0.101961,0.111474 -0.137982,0.198489 -0.03602,0.08701 -0.05369,0.17333 -0.0571,0.275977 -6.22e-4,0.0038 -6.22e-4,0.0077 -6.22e-4,0.01152 -0.0011,0.0564 0.0024,0.108113 0.01108,0.158296 -0.126912,-0.06324 -0.246495,-0.106353 -0.358732,-0.133051 -0.0065,-0.04854 -0.01004,-0.09861 -0.01127,-0.150974 l 0,-0.01413 c -0.002,-0.185562 0.02855,-0.344626 0.09993,-0.506405 0.07138,-0.161773 0.159738,-0.278014 0.28413,-0.372499 0.124403,-0.0945 0.246744,-0.13798 0.391533,-0.13935 0.0024,0 0.0046,0 0.0067,0 z m -1.941634,0.153734 c 0.0941,1.46e-4 0.178317,0.03168 0.265417,0.101218 0.09449,0.07546 0.165857,0.171984 0.225674,0.30792 0.05981,0.13594 0.09177,0.271897 0.100606,0.432318 l 0,0.0015 c 0.0043,0.06737 0.0037,0.13079 -0.0014,0.19221 -0.0186,0.0051 -0.03686,0.0109 -0.05471,0.01717 -0.101472,0.03495 -0.190896,0.08254 -0.268836,0.134007 0.0076,-0.05384 0.0088,-0.108454 0.0029,-0.169376 -8.89e-4,-0.0035 -8.89e-4,-0.0062 -8.89e-4,-0.0096 -0.0082,-0.08088 -0.02515,-0.148867 -0.05371,-0.217515 -0.03058,-0.07137 -0.06457,-0.121666 -0.109441,-0.160425 -0.04066,-0.03511 -0.07907,-0.05123 -0.121336,-0.0509 -0.0043,0 -0.0088,1.46e-4 -0.01328,6.24e-4 -0.04758,0.0038 -0.08701,0.02718 -0.124394,0.07271 -0.03738,0.04554 -0.06185,0.101963 -0.07954,0.176721 -0.01766,0.07478 -0.02245,0.14817 -0.01499,0.232473 0,0.0035 6.22e-4,0.0062 6.22e-4,0.0093 0.0082,0.08157 0.02447,0.149541 0.05369,0.218199 0.0299,0.07068 0.06457,0.120992 0.109441,0.15973 0.0076,0.0065 0.01499,0.01239 0.02235,0.0176 -0.04667,0.03592 -0.06894,0.05248 -0.107186,0.08059 -0.02451,0.01802 -0.05374,0.03941 -0.08768,0.06444 -0.07404,-0.06936 -0.131805,-0.156539 -0.182305,-0.271304 -0.05982,-0.13594 -0.09177,-0.271896 -0.101282,-0.432314 l 0,-0.0015 c -0.0088,-0.160424 0.0068,-0.298411 0.05098,-0.441151 0.04418,-0.142739 0.103322,-0.246066 0.188966,-0.331038 0.08565,-0.08495 0.171975,-0.127792 0.275976,-0.133222 0.0082,-2.95e-4 0.01619,-6.25e-4 0.02415,-6.25e-4 z m 0.883047,1.112928 c 0.218726,-8.89e-4 0.481933,0.07085 0.800582,0.275739 0.19573,0.127294 0.348029,0.137917 0.698731,0.288124 l 6.23e-4,1.46e-4 2.94e-4,1.45e-4 c 0.168746,0.06923 0.267777,0.15947 0.316163,0.254501 0.04838,0.09503 0.04958,0.198075 0.0091,0.306475 -0.08099,0.216805 -0.339547,0.444982 -0.702363,0.558279 l -2.93e-4,1.46e-4 -2.94e-4,1.48e-4 c -0.176915,0.05748 -0.331169,0.184411 -0.513033,0.288401 -0.181858,0.103981 -0.387644,0.187863 -0.66746,0.171678 l 0,0 c -0.238237,-0.01391 -0.380631,-0.09475 -0.509385,-0.198228 -0.12875,-0.103481 -0.240958,-0.233475 -0.405253,-0.329949 l -2.93e-4,-2.93e-4 -2.92e-4,-2.94e-4 c -0.264655,-0.149582 -0.409135,-0.322596 -0.45448,-0.472578 -0.04535,-0.149975 -0.0029,-0.278003 0.128512,-0.376404 0.147624,-0.110635 0.250169,-0.185888 0.318479,-0.23602 0.06786,-0.0498 0.0961,-0.06846 0.117705,-0.08923 1.03e-4,-1.48e-4 1.47e-4,-1.48e-4 2.94e-4,-2.94e-4 l 1.02e-4,-1.45e-4 c 0.110925,-0.105003 0.287735,-0.296278 0.554262,-0.388025 0.09174,-0.03157 0.194098,-0.05194 0.308667,-0.05239 z m 1.529497,0.904584 c -0.09438,0.0056 -0.193231,0.05422 -0.308347,0.118471 -0.115104,0.06427 -0.244541,0.146478 -0.384818,0.227415 -0.280548,0.161903 -0.603497,0.316738 -0.924444,0.316738 -0.321444,0 -0.578265,-0.148453 -0.770888,-0.301103 -0.09631,-0.07632 -0.175805,-0.153211 -0.239313,-0.212676 -0.03174,-0.02975 -0.05929,-0.05508 -0.08499,-0.07489 -0.0257,-0.01978 -0.0466,-0.03941 -0.0896,-0.03941 l -0.0021,0.09033 c -0.0031,0.03022 -0.0062,0.02931 -0.005,0.03012 0.0021,0.0015 0.01199,0.0047 0.02361,0.01369 0.0189,0.01455 0.04511,0.03829 0.07624,0.06742 0.06225,0.0583 0.144958,0.138439 0.246788,0.219134 0.203664,0.161404 0.486899,0.326975 0.845192,0.326975 0.358791,0 0.69825,-0.167703 0.984264,-0.332751 0.143001,-0.08254 0.272885,-0.164902 0.38333,-0.22657 0.110433,-0.06167 0.203355,-0.100337 0.257155,-0.103525 l -0.0072,-0.119428 z m 0.318925,0.429362 c 0.238301,0.939377 0.792563,2.296197 1.148799,2.958352 0.189365,0.351308 0.543388,0.984287 0.706149,1.883567 0.0071,0.519097 -0.319519,0.439543 -0.391469,0.82796 -0.0051,0.02828 -0.0093,0.05716 -0.0126,0.0864 -0.04525,0.01564 -0.09075,0.03578 -0.136353,0.06072 -0.284391,0.155602 -0.439615,0.437965 -0.525947,0.784271 -0.08625,0.346026 -0.110999,0.764352 -0.134811,1.234598 0,1.03e-4 0,1.48e-4 0,2.93e-4 -0.01455,0.236456 -0.111758,0.556269 -0.210351,0.89501 -0.992144,0.707717 -2.369151,1.014337 -3.538276,0.216464 -0.07923,-0.125337 -0.170123,-0.249524 -0.263679,-0.372 -0.05974,-0.07822 -0.121113,-0.155951 -0.182124,-0.232609 0.120016,0 0.222031,-0.01956 0.304479,-0.05695 0.102529,-0.0465 0.174568,-0.121167 0.210208,-0.217022 0.07128,-0.191733 -2.93e-4,-0.462199 -0.228498,-0.771062 -0.228173,-0.30884 -0.614617,-0.657392 -1.182471,-1.005649 0,0 -1.03e-4,0 -1.03e-4,-1.02e-4 -0.503562,-0.417733 -0.36042,-1.063628 0.149284,-2.550087 0.373194,-0.845946 1.153779,-2.31293 1.215775,-3.482135 0.03197,0.02321 0.141808,0.09733 0.190755,0.12514 1.03e-4,1.46e-4 1.46e-4,1.46e-4 2.93e-4,1.46e-4 0.143194,0.08431 0.250749,0.207593 0.390041,0.319545 0.139579,0.112143 0.313931,0.209048 0.577354,0.224399 l 0,0 c 0.307468,0.01781 0.541807,-0.07744 0.733798,-0.187235 0.191711,-0.109634 0.344855,-0.230933 0.489946,-0.278289 1.48e-4,-1.48e-4 2.93e-4,-1.48e-4 6.23e-4,-1.48e-4 0.306591,-0.09587 0.550366,-0.265569 0.689087,-0.463497 z m 1.44589,5.985336 c 0.02505,0.40647 0.226155,0.821022 0.581815,0.910744 0.389202,0.102547 0.950347,-0.231393 1.187272,-0.503767 0.04723,-0.0018 0.09341,-0.004 0.138285,-0.0051 0.207833,-0.0049 0.382134,0.0067 0.560235,0.162596 l 6.2e-4,6.27e-4 6.25e-4,6.21e-4 c 0.136852,0.115953 0.201921,0.335085 0.258343,0.580562 0.05641,0.245481 0.101549,0.512837 0.270749,0.703298 l 2.95e-4,2.94e-4 1.45e-4,2.92e-4 c 0.325305,0.360987 0.42987,0.604996 0.420972,0.760727 -0.0088,0.155756 -0.121666,0.271361 -0.329887,0.396953 -0.416263,0.251066 -1.153818,0.469389 -1.624916,1.04002 -0.409061,0.486808 -0.907867,0.754171 -1.347161,0.788839 -0.439289,0.03468 -0.818295,-0.147649 -1.041738,-0.596131 l -6.26e-4,-0.0012 -6.22e-4,-0.0012 c -0.138612,-0.263712 -0.08089,-0.679857 0.03589,-1.118809 0.116777,-0.438951 0.284552,-0.889659 0.307008,-1.255987 l 0,-6.23e-4 0,-6.24e-4 c 0.02374,-0.469368 0.05004,-0.879263 0.128879,-1.195528 0.07884,-0.316274 0.202986,-0.530469 0.422969,-0.650833 0.0102,-0.0056 0.02043,-0.0109 0.03053,-0.01586 z m -7.143422,0.03067 c 0.03283,1.06e-4 0.06758,0.003 0.104595,0.0085 0.249,0.03772 0.466138,0.211827 0.675343,0.495573 0.209204,0.283757 0.403863,0.671104 0.603969,1.100775 l 2.93e-4,6.23e-4 1.47e-4,6.25e-4 c 0.160805,0.335623 0.500131,0.704663 0.78769,1.08114 0.287557,0.37648 0.510109,0.754377 0.481129,1.043613 l -1.06e-4,0.0015 -1.03e-4,0.0015 c -0.03749,0.493307 -0.31576,0.761858 -0.742934,0.859424 -0.427049,0.09753 -1.005972,6.25e-4 -1.584217,-0.301886 -1.46e-4,0 -2.92e-4,0 -6.23e-4,0 -0.639722,-0.339004 -1.400776,-0.305353 -1.888972,-0.407311 -0.244152,-0.05104 -0.4034703,-0.127726 -0.4765923,-0.270161 -0.07312,-0.142457 -0.07476,-0.390962 0.08063,-0.814702 l 5.97e-4,-0.0018 5.96e-4,-0.0018 c 0.07685,-0.237005 0.01999,-0.496372 -0.01734,-0.739815 -0.03731,-0.243444 -0.05556,-0.464877 0.02757,-0.619218 l 2.93e-4,-6.24e-4 2.93e-4,-8.91e-4 c 0.106432,-0.205199 0.2625433,-0.27853 0.4562973,-0.348045 0.19375,-0.06949 0.4235,-0.124119 0.604924,-0.305924 l 8.91e-4,-8.91e-4 8.9e-4,-8.9e-4 c 0.167721,-0.176935 0.293703,-0.398717 0.441151,-0.556132 0.124407,-0.132811 0.248905,-0.220844 0.436562,-0.222147 0.0021,0 0.0043,0 0.0066,0 z"
       style="font-size:medium;font-style:normal;font-variant:normal;font-weight:normal;font-stretch:normal;text-indent:0;text-align:start;text-decoration:none;line-height:normal;letter-spacing:normal;word-spacing:normal;text-transform:none;direction:ltr;block-progression:tb;writing-mode:lr-tb;text-anchor:start;baseline-shift:baseline;color:#000000;fill:#ffffff;fill-opacity:1;stroke:#ffffff;stroke-width:0.16991619999999999;stroke-miterlimit:4;stroke-opacity:1;stroke-dasharray:none;marker:none;visibility:visible;display:inline;overflow:visible;enable-background:accumulate;font-family:Bitstream Vera Sans;-inkscape-font-specification:Bitstream Vera Sans"
       inkscape:connector-curvature="0"
       sodipodi:nodetypes="ccccscsccccccsccscccscccccscccsccccccccccscccccsccccccccccccscccscccccccccccccsccccccccccccccccccccsccccccccccccsccccsccscccccccccccccssssccccccccscccccccccccscccccccsccccccccscccccccccccccccccccccscccscccssccccscccscccscccccccccccccccccc" />
    <path
       id="path4004-5-6-2"
       d="m 16.398883,-1.9097895 c -0.101634,-1.43e-4 -0.207622,0.0038 -0.31816,0.01282 -2.793726,0.224993 -2.052813,3.176419 -2.094276,4.164759 -0.05102,0.722765 -0.197563,1.292353 -0.694649,1.998944 -0.584009,0.694487 -1.406221,1.818523 -1.795724,2.988603 -0.183831,0.552227 -0.271306,1.115096 -0.19052,1.647813 -0.02531,0.02264 -0.0494,0.04641 -0.07231,0.07088 -0.171462,0.183042 -0.298157,0.404844 -0.439323,0.554177 -0.131885,0.131571 -0.319795,0.181606 -0.526288,0.255685 -0.206574,0.07411 -0.4333749,0.18339 -0.5710449,0.4475665 0,0 0,1.07e-4 -1.03e-4,1.07e-4 -1.47e-4,2.92e-4 -5.97e-4,8.91e-4 -5.97e-4,0.0015 l 0,0 c -0.124625,0.232768 -0.08757,0.500826 -0.04952,0.749178 0.03806,0.248347 0.07659,0.483022 0.02543,0.642242 -0.163486,0.446858 -0.184362,0.755958 -0.06927,0.980168 0.115337,0.224676 0.352477,0.323842 0.6204979,0.379821 0.53604,0.111952 1.261982,0.08415 1.834108,0.38737 l 0.04917,-0.09279 -0.04867,0.09307 c 0.612487,0.320227 1.23343,0.433967 1.72883,0.320811 0.359178,-0.08203 0.650742,-0.295908 0.800479,-0.624992 0.387483,-0.0018 0.812681,-0.166009 1.493792,-0.20353 0.462066,-0.03722 1.03927,0.164076 1.703193,0.127229 0.01738,0.07202 0.04247,0.141306 0.07684,0.207158 2.91e-4,8.89e-4 6.21e-4,0.0015 0.0011,0.002 0.257375,0.514662 0.735588,0.750061 1.245218,0.709841 0.510303,-0.04029 1.052861,-0.341169 1.491433,-0.8631 l -0.08041,-0.06757 0.08101,0.06682 c 0.418029,-0.506873 1.111882,-0.717053 1.571964,-0.994547 0.230039,-0.138741 0.416699,-0.312479 0.431123,-0.564815 0.01434,-0.252215 -0.133637,-0.534857 -0.474139,-0.912807 l -1.06e-4,-1.04e-4 c -9.9e-5,-1.48e-4 -2.94e-4,-2.93e-4 -2.94e-4,-6.23e-4 -0.1118,-0.126423 -0.165177,-0.360738 -0.222521,-0.6102565 -0.05731,-0.249368 -0.121299,-0.51837 -0.326018,-0.692697 l 0,0 c -6.23e-4,-2.94e-4 -8.9e-4,-6.23e-4 -0.0012,-0.0012 l 0,0 c -0.08148,-0.071 -0.166161,-0.11919 -0.251421,-0.151561 0.28464,-0.844164 0.172961,-1.684743 -0.114366,-2.444342 -0.352646,-0.932365 -0.968279,-1.744662 -1.438452,-2.300345 -0.52628,-0.66382 -1.041025,-1.294064 -1.030884,-2.224918 0.01564,-1.42068204 0.156276,-4.055288 -2.343701,-4.0587 z m 0.338448,2.18869596 c 0.141871,0 0.263015,0.04159 0.387473,0.13192 0.126424,0.09175 0.217517,0.206636 0.290927,0.367059 0.07204,0.156341 0.106718,0.30928204 0.110129,0.49077504 0,0.0047 0,0.0088 0.0014,0.01368 0.0011,0.186257 -0.03059,0.344628 -0.101287,0.506406 -0.04032,0.09232 -0.08666,0.169789 -0.14211,0.236869 -0.0189,-0.0088 -0.03837,-0.01781 -0.05866,-0.02606 l 0,0 c -0.140545,-0.06019 -0.248356,-0.09851 -0.338213,-0.129683 0.03257,-0.03914 0.05968,-0.0856 0.08354,-0.143653 0.03604,-0.08768 0.05371,-0.17333 0.05712,-0.275293 0,-0.0038 0.0011,-0.0073 0.0011,-0.01217 0.002,-0.0979 -0.01087,-0.181499 -0.03943,-0.267138 -0.0299,-0.08973 -0.06798,-0.154297 -0.123034,-0.20800404 -0.05505,-0.0537 -0.110129,-0.07817 -0.176046,-0.08022 -0.003,-1.45e-4 -0.0061,-1.45e-4 -0.0093,-1.45e-4 -0.06203,1.45e-4 -0.115887,0.0215 -0.171592,0.06812 -0.05847,0.04893 -0.101961,0.11147404 -0.137982,0.19848904 -0.03602,0.08701 -0.05369,0.17333 -0.0571,0.275977 -6.22e-4,0.0038 -6.22e-4,0.0077 -6.22e-4,0.01152 -0.0011,0.0564 0.0024,0.108113 0.01108,0.158296 -0.126912,-0.06324 -0.246495,-0.106353 -0.358732,-0.133051 -0.0065,-0.04854 -0.01004,-0.09861 -0.01127,-0.150974 l 0,-0.01413 c -0.002,-0.185562 0.02855,-0.34462604 0.09993,-0.50640504 0.07138,-0.161773 0.159738,-0.278014 0.28413,-0.372499 0.124403,-0.0945 0.246744,-0.13798 0.391533,-0.13935 0.0024,0 0.0046,0 0.0067,0 z m -1.941634,0.153734 c 0.0941,1.46e-4 0.178317,0.03168 0.265417,0.101218 0.09449,0.07546 0.165857,0.171984 0.225674,0.30792 0.05981,0.13594 0.09177,0.27189704 0.100606,0.43231804 l 0,0.0015 c 0.0043,0.06737 0.0037,0.13079 -0.0014,0.19221 -0.0186,0.0051 -0.03686,0.0109 -0.05471,0.01717 -0.101472,0.03495 -0.190896,0.08254 -0.268836,0.134007 0.0076,-0.05384 0.0088,-0.108454 0.0029,-0.169376 -8.89e-4,-0.0035 -8.89e-4,-0.0062 -8.89e-4,-0.0096 -0.0082,-0.08088 -0.02515,-0.148867 -0.05371,-0.217515 -0.03058,-0.07137 -0.06457,-0.121666 -0.109441,-0.160425 -0.04066,-0.03511 -0.07907,-0.05123 -0.121336,-0.0509 -0.0043,0 -0.0088,1.46e-4 -0.01328,6.24e-4 -0.04758,0.0038 -0.08701,0.02718 -0.124394,0.07271 -0.03738,0.04554 -0.06185,0.101963 -0.07954,0.176721 -0.01766,0.07478 -0.02245,0.14817 -0.01499,0.232473 0,0.0035 6.22e-4,0.0062 6.22e-4,0.0093 0.0082,0.08157 0.02447,0.149541 0.05369,0.218199 0.0299,0.07068 0.06457,0.120992 0.109441,0.15973 0.0076,0.0065 0.01499,0.01239 0.02235,0.0176 -0.04667,0.03592 -0.06894,0.05248 -0.107186,0.08059 -0.02451,0.01802 -0.05374,0.03941 -0.08768,0.06444 -0.07404,-0.06936 -0.131805,-0.156539 -0.182305,-0.271304 -0.05982,-0.13594 -0.09177,-0.271896 -0.101282,-0.432314 l 0,-0.0015 c -0.0088,-0.160424 0.0068,-0.298411 0.05098,-0.44115104 0.04418,-0.142739 0.103322,-0.246066 0.188966,-0.331038 0.08565,-0.08495 0.171975,-0.127792 0.275976,-0.133222 0.0082,-2.95e-4 0.01619,-6.25e-4 0.02415,-6.25e-4 z m 0.883047,1.11292804 c 0.218726,-8.89e-4 0.481933,0.07085 0.800582,0.275739 0.19573,0.127294 0.348029,0.137917 0.698731,0.288124 l 6.23e-4,1.46e-4 2.94e-4,1.45e-4 c 0.168746,0.06923 0.267777,0.15947 0.316163,0.254501 0.04838,0.09503 0.04958,0.198075 0.0091,0.306475 -0.08099,0.216805 -0.339547,0.444982 -0.702363,0.558279 l -2.93e-4,1.46e-4 -2.94e-4,1.48e-4 c -0.176915,0.05748 -0.331169,0.184411 -0.513033,0.288401 -0.181858,0.103981 -0.387644,0.187863 -0.66746,0.171678 l 0,0 c -0.238237,-0.01391 -0.380631,-0.09475 -0.509385,-0.198228 -0.12875,-0.103481 -0.240958,-0.233475 -0.405253,-0.329949 l -2.93e-4,-2.93e-4 -2.92e-4,-2.94e-4 c -0.264655,-0.149582 -0.409135,-0.322596 -0.45448,-0.472578 -0.04535,-0.149975 -0.0029,-0.278003 0.128512,-0.376404 0.147624,-0.110635 0.250169,-0.185888 0.318479,-0.23602 0.06786,-0.0498 0.0961,-0.06846 0.117705,-0.08923 1.03e-4,-1.48e-4 1.47e-4,-1.48e-4 2.94e-4,-2.94e-4 l 1.02e-4,-1.45e-4 c 0.110925,-0.105003 0.287735,-0.296278 0.554262,-0.388025 0.09174,-0.03157 0.194098,-0.05194 0.308667,-0.05239 z m 1.529497,0.904584 c -0.09438,0.0056 -0.193231,0.05422 -0.308347,0.118471 -0.115104,0.06427 -0.244541,0.146478 -0.384818,0.227415 -0.280548,0.161903 -0.603497,0.316738 -0.924444,0.316738 -0.321444,0 -0.578265,-0.148453 -0.770888,-0.301103 -0.09631,-0.07632 -0.175805,-0.153211 -0.239313,-0.212676 -0.03174,-0.02975 -0.05929,-0.05508 -0.08499,-0.07489 -0.0257,-0.01978 -0.0466,-0.03941 -0.0896,-0.03941 l -0.0021,0.09033 c -0.0031,0.03022 -0.0062,0.02931 -0.005,0.03012 0.0021,0.0015 0.01199,0.0047 0.02361,0.01369 0.0189,0.01455 0.04511,0.03829 0.07624,0.06742 0.06225,0.0583 0.144958,0.138439 0.246788,0.219134 0.203664,0.161404 0.486899,0.326975 0.845192,0.326975 0.358791,0 0.69825,-0.167703 0.984264,-0.332751 0.143001,-0.08254 0.272885,-0.164902 0.38333,-0.22657 0.110433,-0.06167 0.203355,-0.100337 0.257155,-0.103525 l -0.0072,-0.119428 z m 0.318925,0.429362 c 0.238301,0.939377 0.792563,2.296197 1.148799,2.958352 0.189365,0.351308 0.543388,0.984287 0.706149,1.883567 0.0071,0.519097 -0.319519,0.439543 -0.391469,0.82796 -0.0051,0.02828 -0.0093,0.05716 -0.0126,0.0864 -0.04525,0.01564 -0.09075,0.03578 -0.136353,0.06072 -0.284391,0.155602 -0.439615,0.437965 -0.525947,0.784271 -0.08625,0.346026 -0.110999,0.7643515 -0.134811,1.2345975 0,1.03e-4 0,1.48e-4 0,2.93e-4 -0.01455,0.236456 -0.111758,0.556269 -0.210351,0.89501 -0.992144,0.707717 -2.369151,1.014337 -3.538276,0.216464 -0.07923,-0.125337 -0.170123,-0.249524 -0.263679,-0.372 -0.05974,-0.07822 -0.121113,-0.155951 -0.182124,-0.232609 0.120016,0 0.222031,-0.01956 0.304479,-0.05695 0.102529,-0.0465 0.174568,-0.121167 0.210208,-0.217022 0.07128,-0.191733 -2.93e-4,-0.462199 -0.228498,-0.771062 -0.228173,-0.3088395 -0.614617,-0.6573915 -1.182471,-1.0056485 0,0 -1.03e-4,0 -1.03e-4,-1.02e-4 -0.503562,-0.417733 -0.36042,-1.063628 0.149284,-2.550087 0.373194,-0.845946 1.153779,-2.31293 1.215775,-3.482135 0.03197,0.02321 0.141808,0.09733 0.190755,0.12514 1.03e-4,1.46e-4 1.46e-4,1.46e-4 2.93e-4,1.46e-4 0.143194,0.08431 0.250749,0.207593 0.390041,0.319545 0.139579,0.112143 0.313931,0.209048 0.577354,0.224399 l 0,0 c 0.307468,0.01781 0.541807,-0.07744 0.733798,-0.187235 0.191711,-0.109634 0.344855,-0.230933 0.489946,-0.278289 1.48e-4,-1.48e-4 2.93e-4,-1.48e-4 6.23e-4,-1.48e-4 0.306591,-0.09587 0.550366,-0.265569 0.689087,-0.463497 z m 1.44589,5.985336 c 0.02505,0.40647 0.226155,0.821022 0.581815,0.910744 0.389202,0.102547 0.950347,-0.231393 1.187272,-0.503767 0.04723,-0.0018 0.09341,-0.004 0.138285,-0.0051 0.207833,-0.0049 0.382134,0.0067 0.560235,0.162596 l 6.2e-4,6.27e-4 6.25e-4,6.21e-4 c 0.136852,0.115953 0.201921,0.335085 0.258343,0.5805615 0.05641,0.245481 0.101549,0.512837 0.270749,0.703298 l 2.95e-4,2.94e-4 1.45e-4,2.92e-4 c 0.325305,0.360987 0.42987,0.604996 0.420972,0.760727 -0.0088,0.155756 -0.121666,0.271361 -0.329887,0.396953 -0.416263,0.251066 -1.153818,0.469389 -1.624916,1.04002 -0.409061,0.486808 -0.907867,0.754171 -1.347161,0.788839 -0.439289,0.03468 -0.818295,-0.147649 -1.041738,-0.596131 l -6.26e-4,-0.0012 -6.22e-4,-0.0012 c -0.138612,-0.263712 -0.08089,-0.679857 0.03589,-1.118809 0.116777,-0.438951 0.284552,-0.889659 0.307008,-1.255987 l 0,-6.23e-4 0,-6.24e-4 c 0.02374,-0.469368 0.05004,-0.8792625 0.128879,-1.1955275 0.07884,-0.316274 0.202986,-0.530469 0.422969,-0.650833 0.0102,-0.0056 0.02043,-0.0109 0.03053,-0.01586 z m -7.143422,0.03067 c 0.03283,1.06e-4 0.06758,0.003 0.104595,0.0085 0.249,0.03772 0.466138,0.211827 0.675343,0.495573 0.209204,0.283757 0.403863,0.6711035 0.603969,1.1007745 l 2.93e-4,6.23e-4 1.47e-4,6.25e-4 c 0.160805,0.335623 0.500131,0.704663 0.78769,1.08114 0.287557,0.37648 0.510109,0.754377 0.481129,1.043613 l -1.06e-4,0.0015 -1.03e-4,0.0015 c -0.03749,0.493307 -0.31576,0.761858 -0.742934,0.859424 -0.427049,0.09753 -1.005972,6.25e-4 -1.584217,-0.301886 -1.46e-4,0 -2.92e-4,0 -6.23e-4,0 -0.639722,-0.339004 -1.400776,-0.305353 -1.888972,-0.407311 -0.244152,-0.05104 -0.4034699,-0.127726 -0.4765919,-0.270161 -0.07312,-0.142457 -0.07476,-0.390962 0.08063,-0.814702 l 5.97e-4,-0.0018 5.96e-4,-0.0018 c 0.07685,-0.237005 0.01999,-0.496372 -0.01734,-0.739815 -0.03731,-0.243444 -0.05556,-0.464877 0.02757,-0.619218 l 2.93e-4,-6.24e-4 2.93e-4,-8.91e-4 c 0.106432,-0.205199 0.2625429,-0.27853 0.4562969,-0.3480445 0.19375,-0.06949 0.4235,-0.124119 0.604924,-0.305924 l 8.91e-4,-8.91e-4 8.9e-4,-8.9e-4 c 0.167721,-0.176935 0.293703,-0.398717 0.441151,-0.556132 0.124407,-0.132811 0.248905,-0.220844 0.436562,-0.222147 0.0021,0 0.0043,0 0.0066,0 z"
       style="font-size:medium;font-style:normal;font-variant:normal;font-weight:normal;font-stretch:normal;text-indent:0;text-align:start;text-decoration:none;line-height:normal;letter-spacing:normal;word-spacing:normal;text-transform:none;direction:ltr;block-progression:tb;writing-mode:lr-tb;text-anchor:start;baseline-shift:baseline;color:#000000;fill:#000000;fill-opacity:1;stroke:#000000;stroke-width:0.1699162;stroke-miterlimit:4;stroke-opacity:1;stroke-dasharray:none;marker:none;visibility:visible;display:inline;overflow:visible;enable-background:accumulate;font-family:Bitstream Vera Sans;-inkscape-font-specification:Bitstream Vera Sans"
       inkscape:connector-curvature="0"
       sodipodi:nodetypes="ccccscsccccccsccscccscccccscccsccccccccccscccccsccccccccccccscccscccccccccccccsccccccccccccccccccccsccccccccccccsccccsccscccccccccccccssssccccccccscccccccccccscccccccsccccccccscccccccccccccccccccccscccscccssccccscccscccscccccccccccccccccc" />
  </g>
</svg>
