<?xml version="1.0" encoding="UTF-8"?>
<svg width="14px" height="18px" viewBox="0 0 14 18" version="1.1" xmlns="http://www.w3.org/2000/svg" xmlns:xlink="http://www.w3.org/1999/xlink">
    <!-- Generator: Sketch 49 (51002) - http://www.bohemiancoding.com/sketch -->
    <title>apple - FontAwesome</title>
    <desc>Created with Sketch.</desc>
    <defs></defs>
    <g id="new" stroke="none" stroke-width="1" fill="none" fill-rule="evenodd">
        <g id="Bitcoin.org---new-Choose-Your-wallet--Desktop-Copy-4" transform="translate(-1252.000000, -1188.000000)" fill="#192A39">
            <g id="//Content" transform="translate(0.000000, 473.000000)">
                <g id="Wallets-for-Linux" transform="translate(215.000000, 152.000000)">
                    <g id="Containers">
                        <g id="Container" transform="translate(1000.000000, 420.000000)">
                            <g id="Group" transform="translate(10.000000, 140.000000)">
                                <g id="apple---FontAwesome">
                                    <path d="M40.9921875,15.7756696 C40.7310255,16.6127274 40.3191992,17.4497726 39.7566964,18.2868304 C38.8928528,19.5993369 38.0323704,20.2555804 37.1752232,20.2555804 C36.8470966,20.2555804 36.3783513,20.1484386 35.7689732,19.9341518 C35.1930775,19.719865 34.6875022,19.6127232 34.2522321,19.6127232 C33.843748,19.6127232 33.3683063,19.7232132 32.8258929,19.9441964 C32.2834794,20.1718761 31.8415196,20.2857143 31.5,20.2857143 C30.4821378,20.2857143 29.4743353,19.4185355 28.4765625,17.6841518 C27.4921826,15.9363752 27,14.2522402 27,12.6316964 C27,11.1049031 27.3783444,9.85268346 28.1350446,8.875 C28.8917449,7.91070946 29.8426282,7.42857143 30.9877232,7.42857143 C31.4698685,7.42857143 32.0624965,7.52901685 32.765625,7.72991071 C33.4620571,7.93080458 33.924106,8.03125 34.1517857,8.03125 C34.4531265,8.03125 34.9319164,7.91741185 35.5881696,7.68973214 C36.2712088,7.46205243 36.8504441,7.34821429 37.3258929,7.34821429 C38.1227718,7.34821429 38.8359344,7.56584604 39.4654018,8.00111607 C39.8136178,8.24218871 40.1618286,8.57700679 40.5100446,9.00558036 C39.9810241,9.45424331 39.5993315,9.84932865 39.3649554,10.1908482 C38.9296853,10.8203156 38.7120536,11.5133891 38.7120536,12.2700893 C38.7120536,13.1004506 38.943078,13.8470949 39.4051339,14.5100446 C39.8671898,15.1729944 40.3962024,15.5948652 40.9921875,15.7756696 Z M37.2154018,3.99330357 C37.2154018,4.40178776 37.1183045,4.85714035 36.9241071,5.359375 C36.7232133,5.86160965 36.4118325,6.3236586 35.9899554,6.74553571 C35.6283464,7.10714467 35.2667429,7.34821368 34.9051339,7.46875 C34.6573648,7.54241108 34.309154,7.59933016 33.8604911,7.63950893 C33.8805805,6.64173608 34.1417386,5.78125362 34.6439732,5.05803571 C35.1395114,4.34151427 35.9765566,3.84598352 37.1551339,3.57142857 C37.1618304,3.59151796 37.1702008,3.62834795 37.1802455,3.68191964 C37.1902902,3.73549134 37.1986607,3.77232133 37.2053571,3.79241071 C37.2053571,3.81919656 37.2070312,3.85267837 37.2103795,3.89285714 C37.2137277,3.93303592 37.2154018,3.96651772 37.2154018,3.99330357 Z"></path>
                                </g>
                            </g>
                        </g>
                    </g>
                </g>
            </g>
        </g>
    </g>
</svg>