<svg width="1000" height="1000" xmlns="http://www.w3.org/2000/svg" style="width:100%;height:100%;transform:translate3d(0,0,0);content-visibility:visible" viewBox="0 0 1000 1000"><defs><clipPath id="a"><path d="M0 0h1000v1000H0z"/></clipPath><clipPath id="b"><path d="M0 0h3200v3200H0z"/></clipPath><clipPath id="c"><path d="M0 0h2480v2480H0z"/></clipPath></defs><g clip-path="url(#a)"><g clip-path="url(#b)" style="display:block" transform="matrix(0.3499999940395355,0,0,0.3499999940395355,-112,-80)"><g fill="#D5D5D5" opacity=".42" style="display:block"><path d="M1223.19 2792.15c4.9 3.92 9.64 5.71 15.59 7.48l3.25 1c16.09 4.16 32.67 3.43 49.17 3.37h4.95c27.15-.06 53.43-1.95 80.18-6.47q5.73-.94 11.48-1.8 7.72-1.2 15.42-2.49 6.63-1.11 13.28-2.04a427 427 0 0 0 39.24-7.51 487 487 0 0 1 19.04-3.99c21.93-4.3 43.55-9.53 64.75-16.61q3.3-1.07 6.63-2.04a279 279 0 0 0 28.77-10.37l7.12-2.92c7.38-3.04 14.35-6.2 21.01-10.65a25 25 0 0 1 7.66-3.03c7.07-2.2 12-5.78 15.95-12.1 5.26-10.66 3.54-19.06.3-30.06" opacity="1"/><path d="M1625.02 2682.46q2.5-.34 5.04-.28c12.95.15 25.83-.64 38.75-1.4l12.65-.75 22.38-1.31 47.91-2.81a2079 2079 0 0 1 44.48-2.17 865 865 0 0 1 38.08-.53h4l4.17.01c33.77.03 67.53.68 101.3 1.4l.23 2.34s166.8-2.17 327.65 36.44c41.97 8.83 89.3 26.37 113.37 37.47 19.26 9.78 19.26 9.78 22.2 17.48.53 2.6.53 2.6.3 7.52-2.58 3.44-2.58 3.44-6.25 6.25l-3.2 2.66c-12.15 6.63-26.77 7.35-40.37 8.04l-3.12.16a664 664 0 0 1-32.49.56h-6.53a8190 8190 0 0 1-28.53-.01 11202 11202 0 0 1-123.52-.78c-21.89-.22-43.76-.5-65.63-1.43-12.37-.5-24.73-.64-37.1-.75l-3.2-.03q-14.78-.15-29.56-.26a5114 5114 0 0 1-22.51-.2 238 238 0 0 1-33.62-2.41c-6.91-.86-13.67-.77-20.62-.55l-2.8.1q-12.13.4-24.24.91l-7.95.32-37.55 1.51-20.44.83-4.08.16q-21.45.85-42.9 1.9c-22.05 1.1-43.96 2.05-66.05 1.6-53-.94-105.94 4.77-158.5 11.13-46.62 5.6-93.5 9.1-140.37 11.56l-10.35.54c-6.21.34-12.3 1.01-18.47 1.88-11.25 1.55-22.51 2.37-33.84 3.16l-6.78.48-14.13 1a9507 9507 0 0 0-31.82 2.26l-6.57.47a1138 1138 0 0 1-82.57 2.86H1164c-49.35.04-49.36.04-56.47-6.42-4.83-6-5.54-12.1-5.42-19.62.63-4.32 1.7-6.9 5.15-9.65 27.36-15.96 57.27-25.2 87.77-33.23l13.75-3.75s156.25-39.75 416.24-74.66" opacity="1"/></g><g style="display:block"><path fill="#1B1C1E" d="M2037.38 1518.27c-35-63.43 16.31-136.77 37.76-152.05 21.46-15.28 31.5-29.44 31.5-29.44l2.62-2.94q4.61-5.23 9.1-10.58l1.42-1.65q4.68-5.48 9.17-11.35s21.03-36.9 87.95 10.69c66.92 47.6 57.34 78.51 57.34 78.51q-.36 6.22-.43 12.4c-.2 21.02 2.23 41.8 7.1 62.53 1.28 5.76 1.38 9.63-.73 15.19-3.53 2.09-7.07 1.62-11.06 1.62-26.18.39-51.1 8.59-74.08 21.06-2.95 1.53-5.97 2.81-9 4.12-10.14 4.7-17.2 11.96-24.57 20.18a103 103 0 0 1-8.27 7.88c-2.57 2.3-32.3 30.17-34.76 32.59-15.88-3.44-46.06 4.67-81.06-58.76"/><path fill="#8C97A0" d="m2121.76 1337.55 1.13 2.56c3.88 8.49 8.3 16.4 13.76 23.96l1.1 1.62a166 166 0 0 0 11.7 14.89l2.13 2.46a276 276 0 0 0 18.57 19.54l2.87 2.74c7.3 6.71 15.3 12.46 23.39 18.17l3.18 2.26a202 202 0 0 0 19.68 12.13l2.33 1.61c.28 3.95-.64 4.8-2.92 7.96l-2.1 2.94-2.32 3.16-1.18 1.62a493 493 0 0 1-38.4 46.63l-4.42 4.79-4.22 4.55-2.12 2.3a341 341 0 0 1-23.17 22.65l-2.21 1.97-5.31 4.75c-1.8-3.05-1.74-5.1-1.92-8.63l-.23-3.87-.11-2.06c-1.26-21.8-4.84-42.87-10.07-64.08a259 259 0 0 1-3.14-15.2c-.93-5.06-1.98-9.95-3.48-14.88-1.86-6.14-3.03-12.33-4.2-18.63-1.86-9.8-7.59-31.41-7.94-32.66-1.4-4.9-2.8-9.66-4.82-14.34-1.18-3.4-1.18-3.4-.4-5.3 1.58-2.31 3.46-4.02 5.54-5.9 6.8-6.27 13.34-12.62 19.3-19.7"/><path fill="#BBB" d="M2199.84 1427.73a98 98 0 0 1 14.54 7.2l2.1 1.2a76 76 0 0 1 5.12 3.36c.28 3.95-.64 4.8-2.92 7.96l-2.1 2.94-2.32 3.16-1.18 1.62a493 493 0 0 1-38.4 46.63l-4.42 4.79-4.22 4.55-2.12 2.3a341 341 0 0 1-23.17 22.65l-2.21 1.97-5.31 4.75c-2.74-4.62-2.3-10.57-2.69-15.86q-.26-3.32-.56-6.65l-.31-4.23-.31-3.89c.2-3.8.82-4.95 3.35-7.7l1.72-2.01 1.88-2.08 2.1-2.34 2.26-2.5 2.36-2.61a8137 8137 0 0 1 19.38-21.45l4.38-4.84a697 697 0 0 0 33.05-38.92"/><path fill="#8B959E" d="M2143 1311c1.79 3.85 3.38 7.72 4.88 11.7a127 127 0 0 0 15.76 28.67l1.65 2.37c19.1 26.62 47.5 39.86 77.85 49.98-3.83 9.75-8.7 18.43-14.22 27.32l-4.28-1.42-2.4-.8c-3.6-1.6-6.6-3.8-9.76-6.12-1.18-.83-1.18-.83-2.38-1.7-30.84-21.99-60.2-48.23-76.79-83.03a118 118 0 0 0-2.58-4.96c-.93-2.69-.93-2.69-.23-4.68a100 100 0 0 1 7.15-10.26l1.56-2.06z"/><path fill="#BBB" d="M2154.62 1386.22c-1.94 5.8-5.79 9.52-9.93 13.85l-2.25 2.38-7.35 7.67-2.67 2.8q-3.97 4.16-7.97 8.3-1.26 1.29-2.55 2.64l-2.38 2.43-2.1 2.18-1.85 1.43s-45.44 42.13-51.8 29.07-6.38-18.36-6.3-43.94c.1-25.57 33.21-47.66 33.21-47.66s9.62-8.25 11.69-10.13c6.8-6.28 13.33-12.63 19.3-19.71l1.13 2.56c3.89 8.48 8.3 16.4 13.76 23.96l1.12 1.66a135 135 0 0 0 10.89 13.68l1.77 2z"/><path fill="#8A959E" d="m2258.67 1403.56 1.93.5-.1 1.75c-1.3 22.6 0 44.37 4.5 66.56.31 2.1.35 4.06.28 6.17h-2.24c-21.78.5-42.67 7.02-62.6 15.4l-.47-2.18c1.27-1.77 1.27-1.77 3.17-3.91l2.14-2.46 2.36-2.7a350 350 0 0 0 51.03-79.13"/><path fill="#1B1C1E" d="M2127.73 1566.71c.2 7.58-7.69 9.52-9.3 16.51l-.48 2.23q-1.05 4.7-2.2 9.4l-1.15 4.84c-2.75 11.65-6.17 23.1-9.6 34.57l-2.6 8.83c-4 25.44-12.63 49.62-26.84 77.76 0 0-70.21 141.75-232.41 81.08-206.82-77.36-194.42-510.07 167.37-408.2l1.26-1.5a58 58 0 0 1 5-4.92l1.96-1.74 2.09-1.85c5.37-4.8 10.68-9.65 15.87-14.65a539 539 0 0 1 20.98-19.1l1.98-1.72 3.85-3.3a87 87 0 0 0 9.43-9.57c3.16-1.46 6.74-1.25 10.1-.37 4.72 3.3 6.66 10.3 8.73 15.51 0 0 32.25 74.44 35.96 216.2"/><path fill="#BBB" d="M2055.68 1531.22s-329.99 167.81-322.37 37.68c10.93-186.73 186.8-177.73 186.8-177.73-.5-1.21 21.04-8.23 95.77 13.22 2.23-4.22 6.15-7.06 9.74-10.09a311 311 0 0 0 17.86-16.6c2.91-2.9 5.85-5.62 9.08-8.15 4.76-3.74 9.03-7.94 13.35-12.16l6.84-6.66c1.65-1.56 1.65-1.56 2.86-2.28a59 59 0 0 1 9.05 16.84l.96 2.59c6.39 17.5 11.11 35.2 13.67 53.65.76 5.5 1.73 10.92 2.85 16.36 2.22 11.04 3.41 22.2 4.6 33.39l.9 8.18c5.48 49.21 5.48 49.21 1.08 72.84-.5 3.4-.38 5.7.15 9.05-.2 4.83-1.1 9.51-2.04 14.25l-.39 2.05c-2.6 13.16-6.3 26.15-10 39.03l-.58 2.06a714 714 0 0 1-10.97 34.53l-.76 2.22a883 883 0 0 1-9.4 26.08 187 187 0 0 1-6.88 15.85l-1.7-1.46q.44-3.23.96-6.45c3.34-20.15 2.37-40.62 1.85-60.96l-.1-3.94c-.9-31.14-5.13-65.01-14.26-94.83"/><path fill="#8B969F" d="m2055.68 1531.22 1.58-.88a40 40 0 0 0 5.87-4.6l2.24-2.02 2.4-2.18 5.07-4.6 2.63-2.4q3.81-3.42 7.68-6.81c8.64-7.62 16.8-15.2 23.97-24.25 7.08 20.17 5.45 48.1 1.6 68.82-.5 3.39-.38 5.7.15 9.05-.2 4.83-1.1 9.51-2.04 14.25l-.39 2.05c-2.6 13.16-6.3 26.15-10 39.03l-.58 2.06a714 714 0 0 1-10.97 34.53l-.76 2.22a883 883 0 0 1-8.62 23.98l-.78 2.1a187 187 0 0 1-6.88 15.85s-5.8 4.97-6.27 10.39-49.44 56.6-83.29 65.7c-41.64 11.2-233.04 37.6-246.24-170.58-13.51-213.28 323.63-71.71 323.63-71.71"/></g><g style="display:block"><path fill="#1B1C1E" d="M2291.42 1336.14s6.2 33.13-78.21 48.73c-73.85 3.2-87.78-29.97-87.78-29.97l-1.25-7.12c-3.06-14.73-8.87-39.16-13.7-52.6-2.3-6.86-3.54-14.04-5.02-21.1l-.67-3.17-.57-2.83a14 14 0 0 0-4.07-6.44c-2.36-.55-2.36-.55-4.96-.51-15.2-.93-33.61-11.29-44.5-21.63-4.32-6.09-5.12-12.2-4.71-19.48.23-5.38.2-10.68 0-16.06-.55-14.49-.48-28.93.63-43.39.64-8.38.91-16.74 1.05-25.14l.05-3.3.01-3.06.02-2.72s5.8-13.4 14.74-24.93c13.29-18.62 21.14-26 49.35-35.37 17.43-5.8 30.89-7.4 57.9 2.19 11.01 3.36 20.45 12.91 20.45 12.91a946 946 0 0 0 45.73 54.08c42.55 46.97 42.55 46.97 42.17 56.4-4.36 9.98-13.58 16.35-21.66 23.3l-2.93 2.53-5.4 4.6c-2.18 1.7-4.3 3-6.77 4.23l1.14 2.04 1.47 2.66 1.47 2.64c1.15 2.34 1.15 2.34 1.22 4.57a179 179 0 0 0 2.38 5.77l1.55 3.62.84 1.93 4.32 10.08.89 2.08c4.55 10.66 8.92 21.4 13.26 32.16l.99 2.44c4.76 11.86 4.76 11.86 5.87 17.09 1.26 4.68 4.02 8.83 7 12.77 1.44 1.9 2.95 3.76 4.35 5.6l1.58 2.09"/><path fill="#8D97A0" d="m2114.97 1262.5 3.06.02c8.62.02 17.18-.21 25.79-.76 3.64-.22 7.26-.42 10.91-.46 27.02-.31 55.11-8.6 79.48-20.03 3.87 7.9 7.25 15.78 9.97 24.17a201 201 0 0 0 5.52 14.53c8.23 19.65 16.54 40.4 21.38 61.4a13 13 0 0 1-6.63 14.45c-28.63 15.02-55.9 18.83-88.43 10.6-13-3.38-28.87-8-37.77-18.75-2.3-5.4-3.41-11.33-4.79-17.02l-.73-3a302 302 0 0 1-3.1-13.92c-1.2-5.86-2.99-11.5-4.8-17.2a343 343 0 0 1-6.17-21.54 222 222 0 0 0-3.7-12.49"/><path fill="#BCBCBC" d="m2114.97 1262.5 3.06.02c8.55.01 17.05-.22 25.59-.74 8.32-.5 16.65-.76 24.99-.98 3.76 6.3 5.95 12.9 8.23 19.84l1.24 3.73 3.72 11.36 1.1 3.38a531 531 0 0 1 15.93 59.53q1.1 5.39 2.3 10.75c-4.59 2.02-8.39 1.09-13.08-.03l-2.4-.55c-37.15-8.77-37.15-8.77-47.4-21.14-2.3-5.4-3.41-11.33-4.79-17.02l-.73-3a302 302 0 0 1-3.1-13.92c-1.2-5.86-2.99-11.5-4.8-17.2a343 343 0 0 1-6.17-21.54 222 222 0 0 0-3.7-12.49"/><path fill="#BBB" d="m2218.78 1248.47 15.43-7.2c3.84 7.96 7.24 15.75 9.97 24.17a201 201 0 0 0 5.52 14.53c8.22 19.64 16.53 40.37 21.37 61.36a12.8 12.8 0 0 1-6.37 14.17l-13.66 7.38a77 77 0 0 1-3.32-13.9c-2-12.02-5.26-23.66-8.53-35.39l-1.04-3.74q-2.18-7.84-4.4-15.67a1194 1194 0 0 1-4.83-17.51c-2.65-9.93-5.55-18.97-10.14-28.2"/><path fill="#8C97A0" d="M2062.06 1123.4s73.76-.2 117.94-39.25c.81 1.2 9.84 12.91 11 14.58 9.26 12.95 19.65 25.09 30.26 36.93a757 757 0 0 1 23.95 28.55l1.82 2.25c12.48 15.38 12.48 15.38 17.31 23.29a230 230 0 0 1-45.4 35.9l-2.7 1.63c-12.44 7.43-24.53 12.52-38.66 15.77q-3.08.71-6.13 1.5c-23.04 5.66-49.38 8.03-72.62 2.8l-3.48-.7c-11.88-2.6-26.05-7.32-34.97-15.91-2.04-3.57-1.87-6.58-1.6-10.55l.1-2.06.23-4.14c.18-3.37.23-6.75.3-10.13l.14-3.65c.26-7.33.2-14.53-.27-21.85-.46-7-.5-13.85-.24-20.86.21-7.27-.04-14.55-.23-21.82l-.07-3.25-.08-2.92c.1-2.45.5-4.35 1.32-6.65l2.77.17"/><path fill="#BCBCBC" d="m2059.1 1123.33 2.96.07c22.11.3 43.29-3.37 64.27-10.26 3.7 6.32 6.3 12.67 8.6 19.6l3.35 9.73c1.95 5.6 4.02 11.15 6.1 16.7l1.28 3.4 3.91 10.4 2.74 7.3 10.41 27.7 3.56 9.47 1.16 3.13c2.73 7.2 5.83 14.2 9.06 21.19-13.5 6.75-28.71 6.93-43.52 7.67l-2.08.11c-13.67.7-26.37-.84-39.73-3.73l-2.43-.51c-9.71-2.44-20.79-8.22-28.47-14.62-2.05-4.05-1.52-8.22-1.22-12.63l.39-7.19c.54-11.74.44-23.41-.33-35.14-.38-6.1-.29-12.11-.07-18.22.2-7.28-.01-14.57-.16-21.86l-.06-3.26-.06-2.92c0-2.54 0-2.54.33-6.13"/><path fill="#BABABA" d="M2166.29 1094.53c4.64-2.51 9.43-6.82 13.71-10.38 4.4 6.16 7.83 9.96 11.36 14.96 9.12 12.84 19.4 24.83 29.9 36.55a758 758 0 0 1 23.95 28.55l1.83 2.25c12.47 15.38 12.47 15.38 17.3 23.3-10.66 10.97-10.66 10.97-17.45 13.97l-1.7-3.37c-2.74-5.08-6.2-9.48-9.8-13.99l-2.12-2.7-6.7-8.46c-13.17-16.67-26.2-33.34-38-51a382 382 0 0 0-19.32-26.3c-1.23-1.58-1.7-1.75-2.96-3.38"/></g><path fill="#1B1C1E" d="M-70.4-27.51s-4.14 66.2 63.05 75.47C59.83 57.24 74.54-1.27 74.54-1.27L39.64-34.6a63.3 63.3 0 0 0-70.7-11.47z" style="display:block" transform="matrix(0.9945219159126282,-0.10452847182750702,0.10452847182750702,0.9945219159126282,2036.45361328125,1060.4993896484375) matrix(1,0,0,1,74.78700256347656,57.48699951171875)"/><g style="display:block"><path fill="#1B1C1E" d="M2006.52 1058.54a33 33 0 0 0-6.8 5.8l-1.74 1.9-1.83 2.03c-17.17 18.67-17.17 18.67-25.77 20.97-9.9.13-19.01-7.71-26.95-12.97-4.35-2.8-8.83-5.4-13.3-8l-8.66-5.09-2.35-1.45-1.96-1.09c-2.25-2.3-2.23-4.25-2.27-7.4 1.03-2.48 1.03-2.48 2.65-4.98l1.82-2.88 2.06-3.16 5.73-9.06q4.26-6.76 8.3-13.68c3.89-6.58 7.9-13.08 11.91-19.58l1.57-2.53 3.07-4.96 1.44-2.33 1.28-2.06a66 66 0 0 0 3.47-7.51l-1.88-.9-77.93-37.5-1.75-.84-9.82-4.72-19.42-9.34a9821 9821 0 0 1-65.6-31.76 5637 5637 0 0 0-36.62-17.73l-10.75-5.17-3.9-1.87-73.55-35.39-2.03-.97-3.94-1.9-10.15-4.88a1207 1207 0 0 1-20.77-10.13l-2.19-1.1-6.37-3.19-3.47-1.73q-13.45-6.76-26.85-13.62-5.43-2.77-10.9-5.5l-2.55-1.28-4.73-2.36c-6.12-3.1-10.14-6.8-14.18-12.4q-3.35-4.63-6.9-9.12c-3.54-4.66-6.3-9.76-9.13-14.88a67 67 0 0 0-4.32-6.65c-4.27-6.1-7.44-12.91-10.75-19.56l-1.12-2.24a369 369 0 0 1-14.93-34.26l-.77-2.04c-7-18.66-12.38-36.95-15.25-56.74l-.57-3.6-.5-3.45-.47-3.1c-.01-3.11.47-3.78 2.54-6.02 5.93-3.28 12.8-4.13 19.4-5.05l3.12-.46q5-.72 10.03-1.4l3.46-.48c27.44-3.8 55.83-7.4 83.52-4.36l3.34.35c44.8 5 44.8 5 60.99 19.34 5.42 4.7 11.15 8.98 16.88 13.28l10.8 8.14 16.55 12.47 3.44 2.6 4.8 3.62 2.76 2.07c2.42 1.8 2.42 1.8 4.99 3.09q.93.53 1.87 1.09c.1.65 6.2 4.75 8.05 6.94.1.66 6.37 4.6 8.49 6.21l2.3 1.75 2.47 1.9 2.55 1.93 8.04 6.13 13.08 9.97 2.29 1.74 2.02 1.54c1.66 1.28 5.08 4.13 6.1 4.4 2.22.9 6.44 4.7 7.86 5.15 1.96 1.26 1.96 1.26 3.98 2.8l2.3 1.75 2.46 1.9 2.55 1.93 8.05 6.13 13.08 9.97 2.29 1.74 2.01 1.54c1.67 1.28 3.99 3.2 4.08 3.87.66-.1 2.17 1.03 2.26 1.7l1.86.53c2.57.97 4.33 2.15 6.5 3.81l2.42 1.83 2.58 1.98 2.67 2.03 8.46 6.45 13.7 10.43a99 99 0 0 0 10.03 6.95 295 295 0 0 1 12.99 9.28l2.46 1.89 2.55 1.93 8.04 6.14 13.08 9.96 2.29 1.75 2.01 1.53c1.67 1.28 1.67 1.28 3.8 1.9.1.64 8.2 5.04 10.31 6.8l2.14 1.76 2.29 1.92 4.86 3.98q1.27 1.05 2.58 2.1c4.55 3.66 9.19 7.18 13.85 10.68l2.66 2.02 2.48 1.87 2.2 1.65c1.77 1.35 1.77 1.35 3.93 1.97.1.65 1.59 1.8 2.26 1.7.1.65 6.91 5.07 9.31 6.96 3.22 2.5 6.44 4.84 9.89 7 4.16 2.64 15.8 11.47 18.79 12 4.3-6.79 8.61-13.58 12.77-20.47a817 817 0 0 1 9.4-15.11 588 588 0 0 0 7.16-11.64q5.28-8.7 11.12-17.03l1.31-1.92c1.65-1.96 3.4-2.78 5.87-3.39 15.16-.33 35.56 15.38 47.71 23.84q2.68 1.8 5.47 3.42c3.43 2.08 3.66 2.97 4.85 6.88.85 6.95-2.13 13.3-4.52 19.7q-2.28 6.17-4.47 12.38l-2.36 6.53-1.1 3.04-.98 2.72a21 21 0 0 0-1.2 6.54"/><path fill="#BCBCBC" d="m1526.17 617.92 2.12-.3c20.6-2.86 42.28-5.47 63.02-2.54 2.77.38 5.07.5 7.84.28a35 35 0 0 1 10.67 1.3c2.5.53 4.9.7 7.44.89 15.23 1.54 30.98 4.53 43.3 13.98l4.03 2.94a202 202 0 0 1 17.57 14.22 288 288 0 0 0 5.65 4.26l2.03 1.56 4.13 3.17c1.71 1.33 1.71 1.33 3.86 1.94l.28 1.98 1.92.54c2.43.93 3.64 1.86 5.49 3.66a55 55 0 0 0 7.92 6.08 156 156 0 0 1 19.83 14.88c3.83 3.39 7.87 6.48 11.94 9.56l1.98 1.5c3.33 2.58 3.33 2.58 7.11 4.35l.28 1.98 1.87.54a24 24 0 0 1 6.44 3.77l2.38 1.8 2.55 1.95 2.65 2.02q4.2 3.19 8.39 6.4l13.52 10.3c4.49 3.4 9.04 6.6 13.78 9.64 3.94 2.6 7.67 5.48 11.42 8.34l2.56 1.94 10.7 8.13 7.86 5.96 2.4 1.83c3.66 2.78 7.35 5.44 11.21 7.93 5 3.22 9.71 6.78 14.44 10.38l2.78 2.1 11.67 8.87 11.2 8.5c4.65 3.51 9.36 6.82 14.26 9.98 2.49 1.62 4.85 3.37 7.21 5.17l2.73 2.08 5.5 4.22c4.9 3.72 9.82 7.23 15 10.54a51 51 0 0 1 6.25 5 25 25 0 0 0 6.92 4.76l.28 1.98 1.89.55c2.39.9 3.99 1.9 6 3.45l2.11 1.6 2.25 1.72 2.34 1.78 7.43 5.67 11.95 9.12q6.47 4.93 13.34 9.31c2.8 1.82 5.4 3.82 8.04 5.85 3.43 2.78 3.43 2.78 7.34 4.65-.79 4.2-2.2 6.92-4.66 10.38a269 269 0 0 0-9.76 15.25c-2.43 4-4.99 7.9-7.59 11.8-4.85-.78-8.18-3.1-12.06-5.94a243 243 0 0 0-16.6-10.82 582 582 0 0 1-25.78-16.74 325 325 0 0 0-15.64-9.85l-12.93-7.79q-4.94-3-9.92-5.96a344 344 0 0 1-18.2-11.78 467 467 0 0 0-11.73-7.77l-1.66-1.08a348 348 0 0 0-21.2-13 188 188 0 0 1-16.23-10.28c-5.87-4-12.02-7.57-18.13-11.2a256 256 0 0 1-15.66-10.11c-5.28-3.7-10.72-7-16.33-10.18a285 285 0 0 1-14.5-8.97 537 537 0 0 0-16.97-10.68 1558 1558 0 0 1-31.47-19.41 530 530 0 0 0-11.23-6.9 298 298 0 0 1-15.17-9.96 267 267 0 0 0-12.02-7.51 562 562 0 0 1-10.46-6.53 386 386 0 0 0-12.5-7.64 395 395 0 0 1-16.08-10.14q-6.17-4.03-12.5-7.8c-4.2-2.53-8.23-5.2-12.24-8-11.68-8.17-24.07-15.15-36.5-22.08a336 336 0 0 1-18.82-11.54 434 434 0 0 0-12.62-7.8 798 798 0 0 1-10.56-6.57l-1.86-1.16c-2.53-1.6-5.03-3.2-7.46-4.94-3.44-2.46-5.02-3.27-9.33-3.08l-2.98.8c-.03 3.29-.03 3.29.98 6.93a40 40 0 0 0 6.57 5l2 1.31q2.96 1.92 5.97 3.76l3.16 1.97q2.94 1.8 5.91 3.56a328 328 0 0 1 8.1 5.07 348 348 0 0 0 18.7 11.12 391 391 0 0 1 21.95 13.2q2.78 1.79 5.58 3.56l13.7 8.77c16.9 10.86 16.9 10.86 33.97 21.4a778 778 0 0 1 17.74 11.15 1856 1856 0 0 0 13.15 8.36q5.75 3.61 11.6 7.09a128 128 0 0 1 12.5 8.69c4.9 3.58 10.25 6.47 15.53 9.46a780 780 0 0 1 36.46 22.31 1070 1070 0 0 0 24.78 15.4 650 650 0 0 1 28.8 18.42c4 2.67 8.07 5.22 12.14 7.77q4.74 2.96 9.42 6.06c9.17 6.05 18.72 11.57 28.21 17.11 4.52 2.67 8.85 5.56 13.18 8.52a702 702 0 0 0 30.76 19.39l4.29 2.6 2.29 1.38 4.6 2.78a541 541 0 0 0 13.07 7.7l2.6 1.47 1.82 1.25c.1.65 1.51 2.34 2.15 2.53 2.42.89 4.2 1.96 6.32 3.4q5.21 3.5 10.6 6.72a680 680 0 0 1 30.65 19.7q5.68 3.81 11.42 7.53c-2.36 5.26-5.26 9.95-8.46 14.76a150 150 0 0 0-9.42 16.02l-8-3.6c-5-2.3-9.93-4.7-14.87-7.08l-11.25-5.42-5.09-2.45-11.02-5.3q-12.96-6.23-25.91-12.48a9334 9334 0 0 0-58.06-27.72 4279 4279 0 0 1-29.25-13.96 11729 11729 0 0 0-73.34-35.1 6927 6927 0 0 1-46.26-22.12l-10.86-5.23-3.66-1.76-2.03-.97-5.68-2.74-1.8-.86-3.75-1.8-9.7-4.67-15.71-7.57-4.04-1.95-1.89-.91a549 549 0 0 0-11.06-5.16 389 389 0 0 1-22.47-11.15q-3.71-1.96-7.45-3.89c-32.44-16.94-48.74-49.33-63.56-81.83l-1.05-2.3a518 518 0 0 1-13.75-32.99l-1.38-3.62c-4.1-11.24-6.4-22.73-8.03-34.56l-.53-3.71c-.26-2.81-.26-2.81.6-3.94 9.96-2.53 20.17-4.05 30.34-5.46"/><path fill="#D8D8D8" d="m1526.17 617.91 2.12-.3c20.6-2.85 42.28-5.46 63.02-2.53 2.77.38 5.07.5 7.84.28a35 35 0 0 1 10.67 1.3c2.5.53 4.9.7 7.44.89 15.23 1.54 30.98 4.53 43.3 13.98l4.03 2.94c6.12 4.5 11.99 9.08 17.57 14.22a288 288 0 0 0 5.65 4.26l6.16 4.73c1.71 1.33 1.71 1.33 3.86 1.94.1.65 5.84 4.38 7.69 6.18a55 55 0 0 0 7.92 6.08 156 156 0 0 1 19.83 14.88c3.83 3.39 7.87 6.48 11.94 9.56l1.98 1.5c3.33 2.58 3.33 2.58 7.11 4.35.1.66 6.43 4.64 8.6 6.29l2.37 1.8 2.55 1.95 2.65 2.02q4.2 3.19 8.39 6.4l13.52 10.3c4.49 3.4 9.04 6.59 13.78 9.64 3.94 2.6 7.67 5.48 11.42 8.34l2.56 1.94 10.7 8.13 7.86 5.96 2.4 1.83c3.66 2.77 7.35 5.44 11.2 7.93 5.01 3.22 9.72 6.78 14.45 10.38l2.78 2.1 11.67 8.87 11.2 8.5a225 225 0 0 0 14.26 9.98 116 116 0 0 1 7.21 5.17l2.73 2.08 5.5 4.22c4.9 3.72 9.82 7.23 15 10.54a51 51 0 0 1 6.25 5 25 25 0 0 0 6.92 4.76c.1.65 1.21 2.26 2.17 2.53 2.39.9 3.99 1.9 6 3.45l2.11 1.6 2.25 1.72 2.34 1.78 7.43 5.67 11.95 9.12q6.47 4.93 13.34 9.31c2.8 1.82 5.4 3.82 8.04 5.85 3.43 2.78 3.43 2.78 7.34 4.65-.79 4.2-2.2 6.92-4.66 10.38a269 269 0 0 0-9.76 15.25c-2.43 4-4.99 7.9-7.59 11.8-4.85-.78-8.18-3.1-12.07-5.94a242 242 0 0 0-16.59-10.82 582 582 0 0 1-25.78-16.74 325 325 0 0 0-15.64-9.85l-12.93-7.79q-4.94-3-9.92-5.96a344 344 0 0 1-18.2-11.78 481 481 0 0 0-13.4-8.85 348 348 0 0 0-21.2-13 188 188 0 0 1-16.22-10.28c-5.87-4-12.02-7.57-18.13-11.2a256 256 0 0 1-15.66-10.11c-5.28-3.7-10.72-7-16.33-10.18a285 285 0 0 1-14.5-8.97 537 537 0 0 0-16.97-10.68 1558 1558 0 0 1-31.47-19.41 530 530 0 0 0-11.23-6.9 298 298 0 0 1-15.17-9.96 267 267 0 0 0-12.02-7.51 562 562 0 0 1-10.46-6.53 386 386 0 0 0-12.5-7.64 395 395 0 0 1-16.08-10.14q-6.17-4.03-12.5-7.8c-4.2-2.53-8.23-5.2-12.24-8-11.68-8.17-24.07-15.15-36.5-22.08a336 336 0 0 1-18.82-11.54c-4.15-2.7-8.38-5.24-12.62-7.8a798 798 0 0 1-10.56-6.57l-1.86-1.17c-2.52-1.58-5-3.17-7.42-4.9-4.06-2.9-6.27-3.37-11.17-2.87-4.46-.56-7.98-3.6-11.6-6.12-3.15-1.72-4.4-1.79-7.8-.86q-.41-2.47-.7-4.95c4.07-5.4 25.04-5.74 31.2-6.6"/><path fill="#8B969F" d="m2098.64 838.58-.94 2.03a606 606 0 0 0-8.64 19.73 414 414 0 0 1-8.13 17.87c-1.6 3.45-1.6 3.45-2.4 7.34-2.03 6.53-51.35 77.58-54.65 83l-39.16 64.08a114 114 0 0 1-8.3 8.62 82 82 0 0 0-5.95 6.7l-2.02 2.43q-6.75 8.18-13.45 16.4c-5.27-.88-9.46-3.43-14.04-6.04l-2.35-1.31-4.43-2.5q-3.14-1.76-6.3-3.5c.78-4.61 2.81-7.8 5.51-11.5 3.02-4.26 5.91-8.53 8.6-13a572 572 0 0 1 18.59-28.88c2.98-4.4 5.7-8.9 8.36-13.48 1.7-2.83 3.52-5.54 5.37-8.27a295 295 0 0 0 9.19-14.5q3.42-5.58 6.97-11.06 4.44-6.84 8.66-13.84c4-6.63 8.19-13.12 12.37-19.64 4.6-7.18 9.2-14.37 13.5-21.74 3.17-5.4 6.59-10.66 10-15.92a984 984 0 0 0 23.79-38.31c4-6.77 8.22-13.4 12.45-20.05q7.26 3.93 14.33 8.15a215 215 0 0 0 13.07 7.19"/><path fill="#1B1C1E" d="m2020.58 998.87 49.06-77.74 140.09 94.96-32.95 67.27z"/><path fill="#8B969F" d="m2171.94 1068.23-135.78-73.44 36.72-58.17 122.76 83.21z"/></g><g style="display:block"><path fill="#BBB" d="M2053.8 1096.44c-3.17-2.7-4.19-5.3-4.93-7.18-.66-1.7-1.1-2.8-3.46-4.73l-2.05-1.72-2.04-1.7a211 211 0 0 1-13.92-12.4l-1.75-1.72c-32.53-32.87-33.8-34.15-35.2-56.2l-.03-.39.03-.39c.98-10.6 5.5-20.44 12.07-26.34l.2-.17.2-.15c8.03-5.82 19-9.72 30.9-10.97 9.77-1.02 19.36-.08 27.01 2.66l2.99 1.06.1.04c5.74 2.34 12.13 5.8 16.08 13.73l.43.86.08.96c.27 3.23.22 3.85-.6 6.7l-.56 2.62-.1.29c-1.49 4.29-3.5 6.37-6.17 8.85l-2.2 2.08-.15.13a25.8 25.8 0 0 1-14.67 6.12l-3.5.35-2.3.2c3.03.5 5.79 1.74 9.05 4.45l5.4 4.38a177 177 0 0 0 21.2 13.95c5.74 3.33 12.3 7.57 17.59 13.94l.73.88.27 1.11c1.93 7.77-.6 13.7-3 18l-.21.36-.26.33c-6.06 7.51-14.34 12.05-24.62 13.48l-.17.02q-2.5.26-5 .48c-1.08.57-3.46 1.97-5.1 2.93-6.11 3.58-7.09 4.1-8.55 4.26l-2.14.24z"/><path fill="#1B1C1E" d="M2034.35 977.36c8.75-.92 17.56-.2 24.8 2.39l2.89 1.02c6 2.45 10.53 5.4 13.49 11.33.22 2.68.22 2.68-.47 5.08l-.54 2.48c-1.09 3.16-2.4 4.56-4.83 6.82q-1.05.98-2.1 1.99c-3.87 3.13-7.2 4.53-12.05 5.04l-.4.04-3.08.3-3.19.28-3.24.32q-3.94.38-7.9.73l.84 7.95c2.5.95 4.24.74 6.91.6 4.62-.06 6.99.57 10.62 3.6l2.4 1.94 3.1 2.5a183 183 0 0 0 21.82 14.38c6.07 3.51 11.73 7.37 16.23 12.8 1.33 5.35.12 9.64-2.52 14.34-5.52 6.85-12.77 10.46-21.41 11.66q-2.85.3-5.7.55c-.97.1-11.98 7.03-12.97 7.13-4.8-4.08-2.2-6.85-8.48-11.97l-2-1.68-2.07-1.72a206 206 0 0 1-15.35-13.84c-32.43-32.77-32.43-32.77-33.72-52.95.76-8.2 4.2-17.5 10.43-23.08 7.52-5.45 17.96-8.93 28.49-10.03m-1.04-9.95 1.04 9.95zc-12.76 1.34-24.6 5.56-33.31 11.89l-.42.3-.39.35c-7.49 6.72-12.61 17.78-13.7 29.6l-.08.78.05.78c1.53 23.91 3.5 25.92 36.59 59.35l.05.05.05.05.58.57 1.18 1.15a216 216 0 0 0 14.2 12.67l2.08 1.71.8.68 1.17.98.05.04.05.04c1.34 1.1 1.44 1.34 1.97 2.69.82 2.1 2.2 5.64 6.34 9.16l3.28 2.79 4.28-.47c2.63-.28 4.15-1.17 10.54-4.91 1.25-.73 2.94-1.73 4.08-2.36l4.02-.4.17-.02.17-.02c11.57-1.61 20.94-6.76 27.82-15.3l.52-.65.41-.72c2.65-4.71 5.88-12.07 3.5-21.65l-.55-2.22-1.46-1.76c-5.78-6.97-12.8-11.53-18.9-15.06l-.03-.02-.03-.02a172 172 0 0 1-20.57-13.52l-1.73-1.4-1.2-.98a32 32 0 0 0 9-5.32l.3-.24.28-.27 1.08-1.03.98-.92c2.99-2.77 5.6-5.5 7.45-10.85l.2-.57.13-.6.46-2.16c.94-3.3 1.04-4.57.74-8.31l-.16-1.92-.86-1.73c-4.72-9.48-12.45-13.6-18.66-16.13l-.22-.09-.23-.08-1.64-.58-1.25-.44c-8.42-3.02-18.52-4.03-29.17-2.91"/><path fill="#8C969F" d="M2187.73 1102.92c-.9-19.9-20.97-27.78-26.15-30.27a770 770 0 0 1-55.57-29.26 320 320 0 0 0-10.06-5.7c-4.15-2.2-8.3-4.37-12.25-6.93l-6.51-4.35c-3.6-2.54-6.16-4.65-10.66-4.72q-3.02.7-6.07 1.23l-3.12.6-5.54 1.1a54 54 0 0 0 7.38 6.7l3.3 2.23q6.14 4.17 12.53 7.98a526 526 0 0 1 11.6 7.03c5.13 3.38 11.32 7.04 12.66 13.32-.01 5.33-1.82 9.57-4.96 13.82-9.61 7.18-18.86 8.11-30.54 9.03-1.77.13-5.07.96-7.8 1.93-2.2.79-3.53 3-3.18 5.3 1.8 12.1 11.06 50.14 56.54 57.29 44.03 6.6 63.28-26.07 69.29-39.61a11 11 0 0 1 8.14-6.39c.68-.12 1.1-.24.97-.33"/><path fill="#BABABA" d="M2213.87 1035.34c-40.26-24.23-49.16-28.4-49.52-28.56l-5.98-2.75-.37.41c-6.28 6.64-13.26 13.21-24.16 15.06l-.48.08-.5-.01c-6.58-.18-11.43-2.02-16.2-6.18l-.4-.34-.32-.42c-4.57-6.07-4.23-14.04-3.43-20.3l.03-.3.07-.27c3.8-15.48 13.8-28.73 29.74-39.4l3.61-2.57.52-.22c3.85-1.6 8.28-2.7 12.81-3.17 7.05-.74 14.1.04 19.87 2.2l.2.08.21.1c9.79 4.73 16.26 12.04 22.05 19.12l1.36 1.64c5.66 7.12 8.76 14.85 11.95 23.5l.9 2.34.04.1a60 60 0 0 1 3.27 13.5l.01.01.23 2.07 3.1 29.46zm-39.81-48.1q-1.94 1.94-4.05 4.18l1.01-.77c2.36-1.85 2.93-2.3 3.78-3.94q-.33.22-.74.54"/><path fill="#1B1C1E" d="M2159.81 951.37c6.04-.64 12.31-.07 17.59 1.91 8.56 4.14 14.42 10.53 20.35 17.78l1.31 1.6c5.3 6.65 8.25 14.18 11.17 22.1.46 1.22.46 1.22.95 2.44a56 56 0 0 1 3.22 14.38l2.05 19.48c-41.47-24.96-50.03-28.83-50.03-28.83l6.03-6.39 1.6-1.2c4.12-3.24 4.12-3.24 6.25-7.85.06-2.45.06-2.45-.36-5.81a21 21 0 0 0-3.64-.02c-1.93.2-3.5.89-5.56 2.53a180 180 0 0 0-6.87 7.22l-3.56 3.84-1.75 1.89-1.92 2.07q-1.14 1.27-2.33 2.56c-6.15 6.5-12.23 11.96-21.3 13.5-5.28-.14-9-1.4-13.08-4.95-3.44-4.58-3.16-11.18-2.46-16.66 3.87-15.78 14.58-27.7 27.72-36.48l3.21-2.3a41 41 0 0 1 11.41-2.81m-1.04-9.95c-5 .53-9.92 1.75-14.2 3.54l-1.05.43-.91.65-1.14.81-1.97 1.4c-16.96 11.38-27.64 25.61-31.74 42.32l-.14.55-.07.57c-.92 7.2-1.26 16.45 4.4 23.95l.63.83.79.7c5.65 4.9 11.62 7.2 19.37 7.4l.97.02.96-.16c11.13-1.88 18.69-8.1 24.81-14.32l2.8 1.22c.74.35 10.25 4.97 49.02 28.3l17.2 10.34-2.1-19.96-2.05-19.47-.43-4.12-.1-.09a65 65 0 0 0-3.26-12.58l-.04-.1-.04-.1-.88-2.29c-3.21-8.7-6.6-17.16-12.71-24.83l-.08-.1-.08-.1-.7-.84-.54-.66c-6.15-7.51-13.04-15.28-23.74-20.45l-.4-.2-.43-.16c-6.48-2.43-14.34-3.32-22.15-2.5"/><path fill="#BABABA" d="M2096.14 1013.6c-6.37-1.64-10.88-4.5-14.61-9.27l-.27-.34-.2-.39c-1.87-3.5-2.37-6.62-2.9-9.94l-.06-.47c-.47-3.58-.47-3.58-1.91-6.77l-.25-.55-.1-.6c-2.38-12.93-.23-25.46 6.22-36.24l.1-.17.12-.16a42 42 0 0 1 4.79-5.92l1.5-1.75c9.01-10.24 19.33-16.02 30.7-17.22 9.4-.99 19.19 1.23 29.12 6.6l.12.06.12.07c1.07.66 1.97 1.23 2.87 1.85a12.3 12.3 0 0 1 5.15 8.8l.45 4.27-7.52 1.99c-12.28 4.18-23.71 13.75-30.64 25.64-4.84 10.2-7.51 18-6.88 27.54l.02.3-.02.3c-.18 3.38-.35 4.2-1.96 6.97l-.4.7-.6.53c-3.71 3.26-7.42 3.78-11 4.28l-.98.14z"/><path fill="#1B1C1E" d="M2119.79 928.78c8.34-.88 17.17 1.13 26.23 6.03q1.36.82 2.61 1.68a7.3 7.3 0 0 1 3.05 5.23l-3.55.94c-13.94 4.7-26.31 15.46-33.62 28.1-4.76 10.02-8.18 19.02-7.44 30.2-.15 2.78-.15 2.78-1.28 4.72-2.59 2.27-5.04 2.61-8.4 3.08-4.98-1.28-8.73-3.44-11.92-7.5-1.52-2.86-1.91-5.53-2.42-8.72-.56-4.3-.56-4.3-2.3-8.17-2.09-11.38-.34-22.84 5.6-32.77 2.09-2.92 2.09-2.92 4.45-5.5l1.56-1.8c8.17-9.3 17.46-14.47 27.43-15.52m-1.04-9.94 1.04 9.94zc-12.67 1.33-24.07 7.67-33.9 18.85l-.04.04-.03.05-1.45 1.68a46 46 0 0 0-5.12 6.34l-.23.32-.2.34c-7.09 11.84-9.46 25.57-6.87 39.71l.22 1.2.5 1.1c.54 1.2 1 2.22 1.09 2.53.09.33.24 1.5.42 2.84l.02.14.02.14.05.32c.54 3.41 1.15 7.28 3.4 11.51l.42.78.54.69c4.4 5.61 9.9 9.12 17.3 11.02l1.92.5 1.96-.28c3.93-.54 8.8-1.22 13.63-5.48l1.21-1.07.82-1.4c2.05-3.52 2.4-5.12 2.62-9.2l.04-.6-.04-.6c-.56-8.4 1.89-15.52 6.32-24.88 6.31-10.74 16.61-19.38 27.66-23.2l3.2-.84 8.29-2.2-.9-8.52c-.52-5-3.17-9.51-7.26-12.37-1-.7-1.97-1.31-3.12-2.02l-.23-.14-.24-.13c-10.84-5.85-21.61-8.27-32.02-7.17"/><path fill="#BABABA" d="M2056.52 968.18a31.4 31.4 0 0 1-17.8-3.35l-1.13-.6-.71-1.05c-3.89-5.78-5.16-12.43-3.78-19.79l.05-.25.07-.25c2.08-7 5.54-12.7 8.33-16.89l1.67-2.65c7.74-11.58 18.48-20.11 33.8-26.84l2.16-.96.33-.1a43 43 0 0 1 7.37-1.42c4.3-.46 10.67-.48 16.58 1.96l.32.13.3.18a36.4 36.4 0 0 1 15.14 18.33l.08.22 2.04 8.1-8.13.63c-10.48 1.34-20.04 7.6-30.06 19.7a76 76 0 0 0-7.33 13.49l-.1.24-.13.24c-3.09 5.78-8.27 7.79-12.84 9.56l-.83.32-.24.07q-2.54.7-5.16.98"/><path fill="#1B1C1E" d="M2087.4 899c4.84-.51 9.95-.12 14.14 1.6a31.3 31.3 0 0 1 12.97 15.7l.53 2.12-2.34.18c-14 1.75-24.77 11.03-33.57 21.7a82 82 0 0 0-7.94 14.59c-2.33 4.35-6.4 5.76-10.85 7.49a26.7 26.7 0 0 1-19.31-2c-3.3-4.88-4.1-10.31-3.01-16.07 1.7-5.74 4.41-10.63 7.72-15.59l1.63-2.59c7.88-11.79 18.77-19.38 31.66-25.04l1.87-.83a38 38 0 0 1 6.5-1.26m-1.05-9.95q-4.25.45-8.23 1.6l-.66.2-.63.27-1.84.82c-16.22 7.13-27.64 16.22-35.93 28.63l-.08.11-.07.12-.83 1.33-.73 1.15c-2.98 4.48-6.66 10.57-8.92 18.19l-.15.5-.1.5c-1.6 8.57-.03 16.7 4.55 23.5l1.42 2.12 2.27 1.17a36.4 36.4 0 0 0 26.6 2.75l.48-.13.46-.18.6-.23c4.84-1.88 11.47-4.44 15.44-11.87l.26-.47.2-.49a71 71 0 0 1 6.72-12.38c9.05-10.88 17.5-16.51 26.54-17.7l.51-.05 1.6-.12 11.8-.93-2.89-11.48-.53-2.11-.12-.47-.16-.46a41 41 0 0 0-17.32-20.96l-.6-.35-.64-.26c-6.88-2.84-14.13-2.83-19.02-2.32"/><path fill="#8A959E" d="m2082.22 960.08 1.7 1.77 2.8 2.78 1.73 1.96c6.58 6.86 13.71 8.58 22.71 10.56a76 76 0 0 1-2.28 7.31c-2.2 5.75-2.37 10.53-1.87 16.65-.1 2.63-.1 2.63-1.22 4.55-2.58 2.3-5.03 2.63-8.4 3.1-4.98-1.28-8.73-3.44-11.92-7.5-1.52-2.86-1.9-5.53-2.42-8.71-.56-4.32-.56-4.32-2.3-8.18-1.4-7.64-1.28-16.98 1.47-24.3"/><path fill="#8C969F" d="m2121.84 983.06 1.47 1.62c6.15 6.54 12.87 13.1 21.5 16.08l.21 1.99c-4.99 3.04-9.73 4.83-15.36 6.33l-2.3.63q-2.79.78-5.58 1.51c-4.1-3.71-4.25-7.06-4.68-12.39.05-5.62 1.15-11.33 4.74-15.77"/></g><g style="display:block"><path fill="#1B1C1E" d="M2217.7 1108.28c-5 .7-9.83.55-14.35-.44l-.9-.2-.85-.34a62 62 0 0 1-9.23-4.66l-2.37-1.41-.26-.17c-9.83-6.63-16.44-15.49-18.6-24.94l-.58-2.5.58-2.48a34 34 0 0 1 4.54-10.89c3.42-5.84 6.33-11.97 9.4-18.47l3.26-6.84q1.32-2.77 2.65-5.5a201 201 0 0 0 2.5-5.44l.08-.15c1.62-3.52 3.85-8.35 10.61-11.6l1.74-.85 1.92-.2c14.21-1.44 27.43 1.91 38.22 9.7l.38.27.35.3c7.73 6.64 14.27 13.29 15.96 27.46l.04.32.02.33c.32 5.3-.25 10.08-1.9 15.96l-.82 3.12-.04.15c-4.53 15.33-13.94 27.15-27.98 35.13l-.51.3-.55.23a52 52 0 0 1-13.3 3.8"/><path fill="#8B969F" d="M2208.95 1022.15c11.02-1.12 21.59 1.11 30.68 7.67 7.35 6.32 11.04 10.7 12.2 20.42.27 4.44-.33 8.15-1.53 12.41l-.8 3.05c-3.75 12.7-11.33 22.12-22.86 28.68-6.44 2.8-14.02 4.24-20.94 2.72a51 51 0 0 1-7.65-3.88l-2.16-1.28c-6.42-4.33-12.28-10.63-14.04-18.28a23 23 0 0 1 3.28-7.77c3.87-6.6 7.1-13.5 10.37-20.4l1.86-3.9.9-1.91 2.63-5.47q1.38-2.85 2.67-5.75c1.42-3.09 2.27-4.8 5.4-6.3"/></g><g style="display:block"><path fill="#8C97A0" d="m1936.55 2374.02-21.77-29.83c-18.28-25.01-18.28-25.01-26.33-37.49a412 412 0 0 0-9.44-13.78c-7.5-10.68-14.78-21.28-21.02-32.75-34.94-54.35 4.93-80.41 17.87-85.7 21.68-8.86 61-45.09 110.96 39.02l6.09 9.03 1.72 2.56c2.42 3.6 4.83 7.18 7.13 10.86 2.79 4.37 6 8.43 9.18 12.53l4.05 5.24 6.34 8.2 6.14 7.95 1.92 2.47c2.92 3.8 5.6 7.45 7.68 11.8 0 0 31.28 49.55-13.78 76.4-45.05 26.85-67.57 36.77-86.74 13.49"/><path fill="none" stroke="#000" stroke-miterlimit="10" stroke-width="11" d="m1936.55 2374.02-21.77-29.83c-18.28-25.01-18.28-25.01-26.33-37.49a412 412 0 0 0-9.44-13.78c-7.5-10.68-14.78-21.28-21.02-32.75-34.94-54.35 4.93-80.41 17.87-85.7 21.68-8.86 61-45.09 110.96 39.02l6.09 9.03 1.72 2.56c2.42 3.6 4.83 7.18 7.13 10.86 2.79 4.37 6 8.43 9.18 12.53l4.05 5.24 6.34 8.2 6.14 7.95 1.92 2.47c2.92 3.8 5.6 7.45 7.68 11.8 0 0 31.28 49.55-13.78 76.4-45.05 26.85-67.57 36.77-86.74 13.49z"/></g><g style="display:block"><path fill="#8C97A0" d="M2077.76 2381.1c.62.22-2.57 23.49-1.93 23.72-1.09 29.49-1.09 29.49-2.13 40.12-1.07 10.98-1.41 22-1.84 33.02q-.36 8.84-.9 17.67c-.41 6.94-.74 13.9-1.08 20.84q-.93 19.42-1.96 38.86l-.26 4.97a477 477 0 0 1-2.11 27.75c-8.76 67.55-24.67 77.27-58.9 70.66-81.87-16.96-81.05-48.48-81.7-48.7 0-10.88.76-21.62 1.68-32.44q.88-10.35 1.33-20.72c.33-7.56 1.06-15.02 1.95-22.54 1.92-16.54 2.47-33.15 2.82-49.8.26-11.4 1.27-22.48 2.8-33.79 2.46-18.72 3.2-37.63 3.99-56.48l.12-2.81.1-2.46c.15-1.96.15-1.95.82-3.84 0 0 3.21-43.02 65.86-38.05s71.34 34.01 71.34 34.01"/><path fill="none" stroke="#1B1C1E" stroke-miterlimit="10" stroke-width="11" d="M2077.76 2381.1c.62.22-2.57 23.49-1.93 23.72-1.09 29.49-1.09 29.49-2.13 40.12-1.07 10.98-1.41 22-1.84 33.02q-.36 8.84-.9 17.67c-.41 6.94-.74 13.9-1.08 20.84q-.93 19.42-1.96 38.86l-.26 4.97a477 477 0 0 1-2.11 27.75c-8.76 67.55-24.67 77.27-58.9 70.66-81.87-16.96-81.05-48.48-81.7-48.7 0-10.88.76-21.62 1.68-32.44q.88-10.35 1.33-20.72c.33-7.56 1.06-15.02 1.95-22.54 1.92-16.54 2.47-33.15 2.82-49.8.26-11.4 1.27-22.48 2.8-33.79 2.46-18.72 3.2-37.63 3.99-56.48l.12-2.81.1-2.46c.15-1.96.15-1.95.82-3.84 0 0 3.21-43.02 65.86-38.05s71.34 34.01 71.34 34.01z"/></g><g style="display:block"><path fill="#BCBCBC" d="M2026.4 2421.61c-21.06-7.7-40.76-19.47-59.8-30.86l-6.67-3.97-3.22-1.9a308 308 0 0 1-8.8-5.53l-2.76-1.6-.12-.08c-3.14-2.07-5.4-3.92-7.65-7.25l-.58-.85-.2-1.02c-1.02-5.36-.8-10.2-.41-14.62.17-2.02.28-4.09.38-6.03.52-8.35 1.39-14.28 8.49-20.9l.14-.13.15-.12a646 646 0 0 1 6.18-4.87l2.33-1.82c8.9-6.81 18.32-12.73 27.18-18.12l3.3-2 5.78-3.47q3.61-2.16 7.23-4.4c8.22-5.05 18.02-10.9 28.29-15.96l2.93-1.45.08-.03c4.1-1.84 7.43-3.1 13.08-2.57l1.25.11 1.04.7c5.1 3.36 7.58 7.74 9.99 11.97l.72 1.26q1.9 3 3.83 5.97l2.29 3.56c6.84 10.59 14.8 22.9 22.8 34.91 3.7 5.58 7.52 11.59 12 18.9 2.88 4.71 5.85 9.33 8.83 13.75l2.31 3.43-2.94 2.92a302 302 0 0 1-19.92 17.78l-1.6 1.33a306 306 0 0 1-39.6 28.1l-1.9 1.17c-6.8 4.16-8.2 5.01-13.7 3.9l-.37-.08z"/><path d="M2041.26 2277.03c4.55 3.01 6.5 6.99 9.18 11.65q1.94 3.06 3.92 6.11l2.29 3.54c7.55 11.7 15.12 23.39 22.84 34.98 4.1 6.17 8.03 12.43 11.9 18.74q4.31 7.07 8.94 13.93a294 294 0 0 1-19.6 17.5l-1.59 1.32a302 302 0 0 1-38.96 27.65l-2.03 1.25c-6.45 3.94-6.45 3.94-10.02 3.21-23.06-8.42-44.6-21.92-65.65-34.43l-3.23-1.9a303 303 0 0 1-8.72-5.5l-2.74-1.58c-2.71-1.79-4.45-3.2-6.28-5.88-.85-4.5-.74-8.73-.34-13.25q.26-3.12.4-6.23c.46-7.6 1.13-12.1 6.9-17.48q3.05-2.43 6.12-4.83l2.35-1.82c8.52-6.53 17.53-12.22 26.7-17.8l3.3-2.01q2.86-1.73 5.73-3.43 3.67-2.19 7.3-4.44c9.12-5.6 18.26-11 27.87-15.73l2.86-1.41c3.88-1.75 6.29-2.56 10.56-2.16m3.43-9.72-2.49-.23c-6.84-.65-11.11.97-15.6 2.99l-.17.07-.16.08-1.02.5-1.84.92c-10.45 5.14-20.36 11.06-28.68 16.18a620 620 0 0 1-7.19 4.36l-5.77 3.46-2.52 1.54-.82.5c-8.96 5.45-18.52 11.45-27.58 18.39l-.03.02-.03.03-2.34 1.82c-2.17 1.68-4.34 3.41-6.21 4.9l-.3.24-.3.27c-8.41 7.84-9.5 15.27-10.06 24.16v.15c-.11 2.2-.22 4.03-.37 5.84-.4 4.55-.66 10.01.48 15.99l.39 2.03 1.16 1.71c2.7 3.99 5.46 6.25 9.03 8.61l.25.17.26.15 2.52 1.46c2.59 1.67 5.64 3.63 8.8 5.52l.03.03.04.02 1.59.94 1.65.97 6.6 3.94c19.26 11.5 39.17 23.4 60.68 31.27l.7.26.74.15c7.43 1.5 10.3-.25 17.23-4.49l1.53-.94.46-.28a311 311 0 0 0 40.17-28.5l.74-.63.87-.71a306 306 0 0 0 20.24-18.08l5.89-5.83-4.64-6.87c-2.93-4.35-5.86-8.9-8.7-13.55a587 587 0 0 0-12.1-19.07 3003 3003 0 0 1-22.77-34.86l-2.28-3.53c-1.35-2.08-2.57-4-3.76-5.87l-.66-1.15c-2.57-4.52-5.48-9.64-11.57-13.67z"/><path fill="#8C97A0" d="M2026.4 2421.61c-21.06-7.7-40.76-19.47-59.8-30.86l-6.67-3.97-3.22-1.9c-14-8.4-14.54-8.73-19.02-14.04l-.87-1.03-.23-1.34c-.77-4.43-.77-4.97-.12-9.29l.52-3.95 1.5-8.34 7.21 1.88c15.55 4 31.64 6.95 49.18 9.03 3.9.47 7.7 1.05 11.24 1.61a283 283 0 0 0 45.86 3.06q4.17-.06 8.33-.07c10.65-.1 20.29-.54 29.43-1.36 4.28-.37 6.8-.66 8.72-.89a5.5 5.5 0 0 1 4.27 9.55l-5.08 4.47c-16.91 14.9-34.4 30.3-53.6 41.95l-2.49 1.51c-7.61 4.5-8.97 5.3-14.43 4.19l-.37-.08z"/><path d="M2099.3 2365.14c.3.1.43.55.14.8-18.23 16-37.25 33.32-57.98 45.9l-2.5 1.52c-7.26 4.28-7.26 4.28-10.83 3.56-23.06-8.43-44.6-21.93-65.65-34.44l-3.23-1.9c-13.8-8.3-13.8-8.3-17.74-12.96-.67-3.91-.67-3.91-.09-7.73l.52-3.89.52-2.91 1.98.51a376 376 0 0 0 49.85 9.16c3.7.45 7.37 1.01 11.05 1.59a289 289 0 0 0 46.71 3.12q4.15-.06 8.3-.07a375 375 0 0 0 29.84-1.37c4.43-.4 7.07-.7 8.88-.92q.13 0 .22.03m3.36-9.42a10.5 10.5 0 0 0-4.8-.53c-1.87.23-4.35.5-8.54.87-9.04.8-18.55 1.24-29.07 1.34q-4.15.01-8.34.07c-15.14.22-29.88-.77-45.07-3-3.55-.57-7.39-1.15-11.33-1.63a366 366 0 0 1-48.58-8.92l-1.22-.32-.73-.19-10.45-2.72-1.91 10.63-.42 2.3-.1.62-.05.22-.03.23-.5 3.79c-.72 4.78-.7 5.93.14 10.83l.46 2.68 1.75 2.08c5.02 5.93 6.16 6.62 20.23 15.07l.03.03.04.02 1.59.94 1.65.97 6.6 3.94c19.26 11.5 39.16 23.4 60.68 31.27l.7.26.74.15c7.34 1.49 10-.08 17.91-4.75l.06-.03.06-.04 2.5-1.51c19.55-11.88 37.21-27.43 54.3-42.46l5.07-4.47a10.5 10.5 0 0 0 3.39-9.83 10.5 10.5 0 0 0-6.76-7.9"/></g><g style="display:block"><path fill="#1B1C1E" d="M2057.5 2553.77c-7.3-6.85-21.2-19.88-40.64-17.9-22.97 3.76-49.92 58.98-56.76 70.02-6.85 11.04-13.92 17.45-20.98 19.88s-10.6 1.54-16.23 11c-5.63 9.45-5.72 43.23-5.72 43.23-.75 11.83-3.23 27.49 51.98 46.26 89.6 30.46 155.27 22.97 188.84 21.86s31.18-30.12 31.18-30.12c.34-20.46-13.08-39.92-26.55-54.4a730 730 0 0 1-5.44-5.83l-3.14-3.4a369 369 0 0 1-7.54-8.27q-6.27-7.19-12.83-14.1c-3.88-4.1-7.7-8.2-11.35-12.5-1.69-2.03-1.7-2.03-3.15-3.5 0 0-2-2-4.23-4.3-2.77-2.6-2.77-2.6-4.95-5.31a133 133 0 0 0-10.95-12.58 120 120 0 0 1-7.44-7.87 157 157 0 0 0-3.43-3.94z"/><path fill="#BCBCBC" d="m2089 2622 2.16.73c16.83 5.75 30.9 14.64 42.3 28.44a75 75 0 0 0 5.04 5.33 174 174 0 0 1 33.5 46.5l1.69 3c2.36 5.65 2.07 12.03 1.31 18-2.4 5.73-6.82 8.95-12.25 11.56-10.67 4.33-21.82 4.6-33.19 4.64l-3.24.02-10.32.03h-3.56c-16.72-.01-32.92-.5-49.44-3.25l-7.11-1.07c-27.31-4.19-56.35-9.07-81.89-19.93 4.19-9.2 9.4-17.55 14.84-26.04 2.57-4 5.03-8.06 7.47-12.15 4.68-7.84 9.7-14.9 15.69-21.81q2.2-2.7 4.37-5.44c21.04-25.64 39.27-39.97 72.63-28.56"/><path fill="#BBB" d="M2030.8 2548.78c9.72 4.2 16.74 11.94 24.17 19.27a146 146 0 0 0 5.98 5.4c4.58 3.95 8.84 8.2 13.11 12.49l2.32 2.3c4.21 4.22 8.24 8.54 12.13 13.06 2.2 2.5 4.59 4.78 7 7.06a20 20 0 0 1 3.49 5.64c-11.1-2.7-11.1-2.7-15.31-4.12-12.39-4.04-29.03-3.6-40.7 2.12-9.89 5.35-17.99 12.39-25.2 20.97a87 87 0 0 1-5.98 5.97c-13.1 13.04-22.24 30.41-31.81 46.06l-1.45 2.36A446 446 0 0 0 1965 2711c-5.24-.5-9.4-1.75-14.06-4.25l-1.94-1.03c-7.42-4.2-19.42-12.13-22-20.72a86 86 0 0 1-.25-7.69l.01-2.25c.19-10.95 1.1-22.54 4.24-33.06 2.83-1.89 4.47-2.46 7.69-3.25 5.43-1.58 9.1-4.02 13.3-7.75l1.93-1.64c10.14-9.33 16.72-22.35 23.68-34.08 4.17-7 8.67-13.64 13.4-20.28l2.34-3.43c9.11-13.4 19.2-27.87 37.46-22.8"/><path fill="#8C969F" d="m2006 2663 1.56 2c25.92 31.9 57.57 57.4 99.42 61.76 5.55.44 11.08.53 16.64.55l3.23.02c12.92-.12 26.95-2.1 37.36-10.4 3.48-3.75 5.63-8.33 7.79-12.93 3.6 3.6 3.23 7.89 3.37 12.81-.04 6.56-.8 9.52-5.37 14.19-10.29 9.6-27.34 9.15-40.44 9.2l-3.24.02-10.32.03h-3.56c-16.72-.01-32.92-.5-49.44-3.25l-7.11-1.07c-27.31-4.19-56.35-9.07-81.9-19.93 4.19-9.19 9.4-17.53 14.83-26.01a735 735 0 0 0 10.61-17.2 92 92 0 0 1 6.57-9.79"/><path fill="#8C97A0" d="M1974 2601h1l.04 2.42c.75 17.34 10.53 33.1 20.74 46.76 1.22 1.82 1.22 1.82 1.22 3.82l2 1-1.85 2.8c-5.93 9.07-11.7 18.23-17.4 27.45l-2 3.22A379 379 0 0 0 1965 2711c-5.23-.66-9.43-1.76-14.06-4.25l-1.94-1.03c-7.42-4.2-19.42-12.13-22-20.72a86 86 0 0 1-.25-7.69l.01-2.25c.19-10.96 1.1-22.54 4.24-33.06 2.83-1.89 4.47-2.46 7.69-3.25 5.43-1.58 9.1-4.02 13.3-7.75l1.93-1.64c8.53-7.85 14.45-18.33 20.08-28.36"/><path fill="#B9B9B9" d="M1944 2639c7.74 47.78 7.74 47.78 10 67-10.26-1.29-17.99-9.84-25-17-2.57-3.58-2.3-7.43-2.25-11.69l.01-2.25c.19-10.95 1.1-22.54 4.24-33.06 4.32-2.88 7.9-3.05 13-3"/></g><g style="display:block"><path fill="#8C97A0" d="M1540.27 2381.94q18.7 44.47 37.37 88.96l4.4 10.5.89 2.1q7.1 16.94 14.22 33.87 7.3 17.36 14.58 34.73l9.01 21.44 6.89 16.43 2.84 6.74q1.94 4.6 3.85 9.2l1.16 2.7 1.02 2.5.9 2.14c.62 2.74.3 4.36-.75 6.95-90.68 127.88-144.45-2.46-145.08-2.2a43804 43804 0 0 1-30.67-74.44 11056 11056 0 0 1-12.98-31.5c-7.09-17.14-13.67-34.32-19.16-52.06 0 0-30.27-78.48 15.7-100.61s70.5-40.57 95.81 22.55"/><path fill="none" stroke="#1B1C1E" stroke-miterlimit="10" stroke-width="11" d="M1540.27 2381.94q18.7 44.47 37.37 88.96l4.4 10.5.89 2.1q7.1 16.94 14.22 33.87 7.3 17.36 14.58 34.73l9.01 21.44 6.89 16.43 2.84 6.74q1.94 4.6 3.85 9.2l1.16 2.7 1.02 2.5.9 2.14c.62 2.74.3 4.36-.75 6.95-90.68 127.88-144.45-2.46-145.08-2.2a43804 43804 0 0 1-30.67-74.44 11056 11056 0 0 1-12.98-31.5c-7.09-17.14-13.67-34.32-19.16-52.06 0 0-30.27-78.48 15.7-100.61s70.5-40.57 95.81 22.55z"/></g><g style="display:block"><path fill="#8C97A0" d="m1543.42 2380.27 13.64-30 6.94-15.3 6.81-14.99 2.58-5.69 3.74-8.21 1.13-2.5c1.53-3.35 3.56-6.54 3.46-10.27 26.76-53.45-20.35-90.5-36.5-96.27-.96-.35-12.1-4.82-24.77-7.76-22.28-5.18-42.53 17.05-49.66 32.05a7994 7994 0 0 0-39.07 83.75l-17.67 37.68s-17.7 32.44 36.75 57.8 81 1.17 81 1.17z"/><path fill="none" stroke="#1B1C1E" stroke-miterlimit="10" stroke-width="11" d="m1543.42 2380.27 13.64-30 6.94-15.3 6.81-14.99 2.58-5.69 3.74-8.21 1.13-2.5c1.53-3.35 3.56-6.54 3.46-10.27 26.76-53.45-20.35-90.5-36.5-96.27-.96-.35-12.1-4.82-24.77-7.76-22.28-5.18-42.53 17.05-49.66 32.05a7994 7994 0 0 0-39.07 83.75l-17.67 37.68s-17.7 32.44 36.75 57.8 81 1.17 81 1.17z"/></g><g style="display:block"><path fill="#BCBCBC" d="M1411.05 2450.96q-1.03-.49-2.17-1.08l-.66-.34-.53-.52c-3.13-3.03-5.08-6.38-6.96-9.84l-1.1-1.98c-7.57-13.93-13.47-28.64-18.41-41.34l-.94-2.4c-11.79-30.3-12.25-31.49-10.01-45.96l.12-.83.39-.73c2.74-5.23 7.2-7.84 11.15-10.14l.74-.44 2.03-1.2a353 353 0 0 1 21.23-11.42l2.83-1.47c12.1-6.19 25.22-11.3 42.53-16.6 3.02-1.07 4.53-.5 7.11.68l.17.08.16.09c26.84 14.7 49.98 40.22 65.06 58.16a69 69 0 0 0 6.34 5.9l.19.17c5.14 4.86 9.83 9.95 10.71 18.72l.06.56-.07.55c-1.13 9.33-5.38 32.3-20.26 44.04l-.88.7-1.1.25c-3.5.8-6.9 1.38-10.18 1.94-3.27.55-6.36 1.08-8.87 1.73l-.61.16h-.63c-3.06.02-6.3.88-9.72 1.8q-2 .53-3.98 1.01l-.12.03c-61.8 12.74-65.5 13.5-73.62 9.72"/><path d="M1456.33 2309.9c24.27 13.3 46 36.03 63.7 57.07a73 73 0 0 0 6.85 6.42c4.93 4.65 8.48 8.64 9.18 15.58-1.7 13.97-7.1 31.82-18.4 40.73-6.97 1.6-13.92 2.33-19.2 3.7-5 .03-9.94 1.81-14.8 2.94-58.75 12.11-63.88 13.17-70.5 10.08q-.95-.43-2-.99c-2.63-2.55-4.3-5.45-6.03-8.64l-1.11-2c-7.13-13.1-12.75-26.87-18.14-40.75l-.95-2.4c-11.75-30.23-11.75-30.23-9.72-43.38 2.2-4.22 6-6.24 10-8.58l2.06-1.24a348 348 0 0 1 20.9-11.23l2.9-1.5c13.43-6.87 27.39-11.9 41.8-16.3 1.33-.48 1.33-.48 3.46.5m4.48-8.95-.33-.15c-3.25-1.48-6.12-2.49-10.74-.88-17.56 5.37-30.9 10.58-43.23 16.9h-.03l-.02.02-1.4.72-1.43.74a357 357 0 0 0-21.45 11.53l-2.07 1.24-.7.4c-4.3 2.52-9.65 5.65-13.06 12.15l-.77 1.47-.26 1.64c-2.43 15.8-1.72 17.65 10.3 48.54l.94 2.42c5 12.82 10.97 27.71 18.67 41.87l.02.03.01.02.39.7.7 1.29c2.07 3.8 4.23 7.5 7.86 11.02l1.07 1.03 1.31.67q1.13.6 2.34 1.17c5.73 2.66 10.92 3.02 21.39 1.48 9.73-1.43 25.94-4.77 55.36-10.83l.12-.03.13-.03q2.13-.51 4.13-1.05c3.1-.83 6.04-1.61 8.45-1.62l1.26-.01 1.22-.32c2.3-.6 5.29-1.1 8.45-1.64 3.2-.55 6.81-1.16 10.46-2l2.19-.5 1.76-1.4c16.35-12.89 20.93-37.41 22.13-47.36l.14-1.1-.11-1.1c-1.06-10.49-6.64-16.55-12.26-21.86l-.18-.17-.2-.16a66 66 0 0 1-5.82-5.41c-15.34-18.25-38.88-44.16-66.41-59.25z"/><path fill="#8C97A0" d="M1411.13 2451q-1.06-.5-2.25-1.12l-.66-.34-.53-.51c-3.13-3.04-5.08-6.4-6.96-9.85l-1.1-1.98c-7.57-13.93-13.47-28.64-18.41-41.34l-.94-2.4c-11.79-30.3-12.25-31.49-10.01-45.96l.15-1.02.54-.86c1.71-2.75 6.88-7.27 11.1-5.31q.4.2.77.45l.92.4c4.49 1.97 8.1 3.6 11.36 5.12a256 256 0 0 1 20.3 10.43c22.13 12.74 44.78 23.62 65.96 33.49l7.07 3.28 2.8 1.3c6.32 2.92 13.96 6.34 21.36 9.65 6.26 2.8 12.18 5.46 17.4 7.85l3.98 1.82-1.27 4.18c-.24.77-.38 1.28-.53 1.8l-.59 1.99c-2.41 8.2-6.02 10.02-10.48 11.56q-.5.15-1 .35a58 58 0 0 1-11.27 2.74l-6.48 1.12-3.09.5c-3.94.67-7.95 1.5-11.73 2.3-64.14 13.48-67.98 14.28-76.4 10.36"/><path d="M1393 2350.81a254 254 0 0 1 19.9 10.22c21.6 12.44 43.84 23.21 66.38 33.71l7.06 3.28 2.8 1.3c11.54 5.33 27.21 12.21 38.78 17.5-.49 1.61-.61 2.15-1.11 3.8-2.1 7.13-4.7 7.3-8.43 8.66a53 53 0 0 1-10.33 2.5l-6.32 1.1-3.27.53c-4 .68-7.97 1.5-11.95 2.33-61.02 12.83-66.35 13.95-73.27 10.73a60 60 0 0 1-2.08-1.04c-2.63-2.55-4.3-5.45-6.03-8.64l-1.11-2.01c-7.13-13.1-12.75-26.86-18.15-40.74l-.94-2.4c-11.75-30.23-11.75-30.23-9.72-43.38 1.28-2.05 4.17-3.68 4.73-3.42q.1.05.1.15l1.71.75q5.67 2.48 11.25 5.07m4.23-9.06a545 545 0 0 0-11.45-5.16l-.57-.25q-.51-.3-1.05-.57c-7.59-3.53-15.03 3.33-17.44 7.2l-1.08 1.74-.32 2.02c-2.44 15.8-1.72 17.65 10.3 48.54l.94 2.42c5 12.82 10.97 27.71 18.67 41.87l.02.03.01.02.57 1.04.52.94c2.07 3.81 4.23 7.52 7.86 11.03l1.06 1.03 1.32.67q1.18.61 2.43 1.21c5.9 2.75 11.26 3.1 22.06 1.48 10.1-1.52 26.94-5.06 57.49-11.48 3.88-.82 7.68-1.6 11.53-2.26l1.38-.22 1.86-.31h.05l.05-.01 6.19-1.08c4.4-.65 8.37-1.61 12.12-2.95l.03-.01.04-.02.91-.32c5.21-1.79 10.56-4.41 13.66-14.86l.6-2.04.5-1.71 2.55-8.37-7.96-3.64c-5.25-2.4-11.2-5.06-17.48-7.88-7.37-3.3-14.98-6.71-21.27-9.62l-.64-.3-2.15-.99-7.03-3.26c-21.1-9.83-43.65-20.66-65.62-33.31a261 261 0 0 0-20.66-10.62"/></g><g style="display:block"><path fill="#1B1C1E" d="M1481.17 2599c-1.74 2.9-1.74 2.9-3.6 4.36l-1.9 1.39-2.11 1.58c-6.17 4.55-12.18 9.16-17.77 14.42-3.63 3.42-7.3 6.68-11.18 9.81a195 195 0 0 0-8.26 6.98 185 185 0 0 1-13.06 11.27 69 69 0 0 0-6.68 5.69 75 75 0 0 1-4.2 4.05c-2.87 2.46-5.7 4.9-8.37 7.58-3.88 3.98-7.78 7.7-12.12 11.18-4.3 3.45-8.4 7.06-12.44 10.82-2.85 2.66-5.7 5.33-8.63 7.9a150 150 0 0 0-9.24 8.53 230 230 0 0 1-8.03 7.78c-10.03 9.24-23.18 19.43-25.29 33.85l-.12 2.81s-4.8 34.49 34.73 34.7c39.53.23 71-1.98 104.13-6.4s58.43-7.29 115.2-23.19c56.75-15.9 71.25-27.28 71.25-27.28s18.28-9.5 8.69-36.83c-10.96-31.21-15.46-39-15.46-39s-4.54-9.64-17.8-5.67c-34.9 6.4-49.91-54.1-100.04-55.43-36.45-3.05-47.7 9.1-47.7 9.1"/><path fill="#BCBCBC" d="m1489 2652 2.02 1.02A120 120 0 0 1 1516 2670l4.63 3.79a219 219 0 0 1 28.73 28.37c1.67 1.93 1.67 1.93 3.82 3.84 10.75 9.89 18.55 22.89 24.82 36-11.25 3.59-22.6 6.34-34.14 8.84a387 387 0 0 0-17.8 4.22c-17.15 4.36-34.73 6.96-52.32 8.84-7.97.86-15.88 1.96-23.8 3.16L1437 2769l-2.38.36c-14.13 2.06-28.36 2.31-42.62 2.64l-2.8.07c-9.57.22-18.81 0-28.2-2.07l-3.4-.74c-7.63-1.98-12.97-4.74-17.6-11.26-2.13-4.5-2.3-7.11-1-12 5.6-10.72 15.13-19.2 23.56-27.69l2.15-2.16q6.02-6 12.46-11.54c2.57-2.26 4.94-4.66 7.33-7.11a177 177 0 0 1 11.14-10.43c3.36-2.95 6.6-6.01 9.86-9.07a382 382 0 0 1 13.63-12.35 116 116 0 0 0 4.18-3.89c5.8-5.53 11.15-9.05 18.7-11.76l3.17-1.19c15.5-5.15 29.38-4.26 43.82 3.19"/><path fill="#BBB" d="M1553.87 2609.31c3.53 2.72 6.82 5.71 10.13 8.7l4.75 3.62c7.7 6.1 14.39 13.37 21.25 20.37 9.26 9.42 19.36 16.05 32.94 16.25l3.09.08c3.38-.37 5.15-1.51 7.97-3.33h3a257 257 0 0 1 13.56 35.38l1.05 3.47c3.24 11.19 3.24 11.19 2.4 16.15-3.53 5.77-7.87 7.75-14 10.19l-2.72 1.12A1057 1057 0 0 1 1599 2736l-3.07 1.2c-3.22.88-4.82.98-7.93-.2-1.63-1.76-1.63-1.76-3.05-4.05l-1.6-2.54-1.66-2.72-3.48-5.53-3.2-5.16c-10.37-16.47-23.2-30.41-38-43l-3.05-2.67c-13.4-11.73-26.63-22.03-42.96-29.33l-2.8-1.3c-11.05-4.84-22.36-4.99-34.2-4.7 9.08-9.16 18.35-17.67 29-25l2.49-1.8c24.2-17.42 43.78-17.21 68.38.11"/><path fill="#8C97A0" d="M1535 2688c5.58 4.46 10.3 9.5 15.06 14.8a128 128 0 0 0 6.87 6.96c4.34 4.31 7.57 9.07 10.82 14.24l1.67 2.58c3.2 5 6.02 10.06 8.58 15.42-11.25 3.59-22.6 6.34-34.14 8.84a387 387 0 0 0-17.8 4.22c-17.16 4.36-34.73 6.96-52.32 8.84-7.97.86-15.88 1.96-23.8 3.16L1437 2769l-2.38.36c-14.13 2.06-28.36 2.31-42.62 2.64l-2.8.07c-9.57.22-18.81 0-28.2-2.07l-3.4-.74c-7.63-1.98-12.97-4.74-17.6-11.26-2.13-4.5-2.3-7.11-1-12a93 93 0 0 1 6-9l.71 1.84c2.92 4.9 10.04 6.98 15.35 8.41 31.02 6.37 62.1 2.79 90.98-9.42q2.87-1.21 5.75-2.38a284 284 0 0 0 42.4-21.64l2.73-1.7a502 502 0 0 0 16.96-11.05l1.88-1.28c7.64-4.94 7.64-4.94 13.24-11.78m41-43a47 47 0 0 1 9.88 5.06c20.08 13.37 20.08 13.37 43.12 18.94l.38 2.23c3.27 19.07 3.27 19.07 8.6 37.63a52 52 0 0 1 2.02 9.14l3 1a7202 7202 0 0 1-24.99 9.68l-12.12 4.71-5.01 1.92-2.25.9c-4 1.5-6.55 2.14-10.63.79-1.63-1.76-1.63-1.76-3.05-4.05l-1.6-2.54-1.66-2.72-3.48-5.53-3.2-5.16c-8.5-13.5-18.57-24.95-30-36 2.57-6.89 5.7-10.37 12.11-13.77 7.8-5.1 13.44-14.78 18.88-22.23"/></g><path fill="#1B1C1E" d="M391.92 107.85c-3.41 7.93-11.6 13.18-19.24 16.41-7.8 3.06-15.7 4.69-23.95 6.06a307 307 0 0 0-21.25 4.4c-49.05 11.57-52 12.27-70.75 12.16a3796 3796 0 0 1-104.33 7.33c-47.1 2.66-74.97-4.33-74.97-4.33-15.19-4.5-25.05-13.7-32.55-27.27-6.57-12.39-9.16-25.04-11.07-38.54l-.21-1.5-.6-4.4a83 83 0 0 0-3.08-14.32c-1.75 0-3.44.48-5.16.83-12.96 2.56-25.65 3.6-38.75 3.93l-.78-.2c-5.8.56-11.95 1.19-13.31 1.44l-.27 3.75q-.53 7.03-1.12 14.05l-.45 6.03c-1.83 25.21-8.34 47.27-27.86 64.55a29 29 0 0 1-6.36 4.12c-3.23 2.72-3.23 2.72-3.72 6.5-10.08 10.64-155.23 10-155.23 10l-3.1-.06c-18.82-.4-37.58-.78-56.32-2.56q-4.16-.4-8.32-.74a442 442 0 0 1-29.27-3.59 359 359 0 0 0-20.92-2.5c-38.62-3.94-38.62-3.94-47.7-13.25-1.36-2.3-1.36-2.3-1.36-4.3h-3c-.55-10.87 3.97-18.95 8.7-28.36 2.27-4.6 4.4-9.27 6.49-13.95q.6-1.32 1.24-2.67c2.26-5.04 2.26-5.04 1.86-10.44l-1.3-2.58c-1.55-4.85-.98-7.64 1.2-12.06q1.3-2.48 2.69-4.93 1.9-3.45 3.77-6.94a586 586 0 0 1 12.85-22.98l1.72-2.88a341 341 0 0 1 3.3-5.43c2.92-4.53 2.92-4.53 2.83-9.63l-1.35-2.16c-1.47-8.93 5.95-12.33 10.11-19.94.92-1.68 7.07-8.03 7.95-9.72 2.44-4.6 6.4-15.11 9.28-19.43l19.88-80.61 279.03-76.63L287-126.32l28.18 68.42c3.53 4.66 6.8 9.21 9.5 14.43 2.26 4.21 4.85 8.23 7.38 12.3q1.77 2.88 3.49 5.84c1.19 2.3 1.19 2.3 3.38 3.17 3.1 5.74 4.72 10.52 3 17l-1 3h-2q4.41 5.93 8.88 11.82c8.6 11.37 17.07 22.78 24.12 35.19l1.28 2.14c2.04 3.63 2.72 5.45 2.59 9.73-.87 3.13-.87 3.13-2.87 5.13l3.5 6.61 1.07 2.05q3.23 6.06 6.7 12c9.44 16.17 9.44 16.17 7.73 25.34" style="display:block" transform="matrix(0.9993908405303955,-0.03489949554204941,0.03489949554204941,0.9993908405303955,1311.48779296875,1924.1524658203125) matrix(1,0,0,1,393.875,179.7449951171875)"/><g style="display:block"><path fill="#1B1C1E" d="m1928.74 1349.66-2.16-.73q.37-2.84.62-5.68c.3-7.12-.81-11.9-5.66-17.26l-1.83-1.84c-10.61-10.87-27.97-16.53-42.62-19.15l-2.09-.3c.3-6.45-.5-10.9-3.86-16.46-8.78-11.5-24.01-15.61-37.5-18.7l-3.17-.68a118 118 0 0 0-21.64-2.75l-2.22-.05c-.16-4.72-.9-8.19-3.98-11.87-18.1-13.83-40.78-14.98-62.82-13.88-5.1.26-10.16.5-15.28.27-3.97-.78-5.58-2.35-7.91-5.56a26 26 0 0 0-8.09-7.68c-14.08-7.27-35.05-5.25-49.99-1.65-5.15 1.1-5.15 1.1-10.37 1.88-.73-3.4-1.77-5.44-4.28-7.86-5.39-3.42-10.11-4.1-16.42-3.83l-2.9.2c-21.9.97-42.37 9.85-62.18 18.66l-2 .9c-.1-4.35.54-8.47-2.4-11.93-4.37-3.89-7.32-5.13-13.2-5.23-5.08.42-7.89 1.46-11.3 5.24l-1.46 1.9c-2.95 3.71-5.3 6.94-6.77 11.5q-.38 1.4-.73 2.77c-6.55-5.32-13.16-11.14-21.48-13.26-6.08-.4-12.71-.99-17.92 2.63-4.58 4.57-5.34 7.8-5.46 14.22 0 1 0 1 .02 1.98-17.34-2.31-40.94-3.32-56.03 7.33-3.77 3.86-6.36 6.71-6.57 12.24l.34 2.62-2.16.04-2.9.07a69.6 69.6 0 0 0-41.14 14.76c-5.16 4.52-10.55 9.63-11.17 16.7l.52 2.43a80 80 0 0 0-20.72 4.73l-2.97 1.03c-13.42 4.82-35.87 12.03-42.5 26-1 5.77-1.15 11.12.84 16.68l1.07 1.83c-11.8 4.4-23.28 12.64-31.9 21.7q-1.15 1.29-2.28 2.51c-6.5 6.28-12.8 14.32-14.19 23.51l2-.07q.06 3.5.25 7l1.1 2.96c-2.27.08-2.27.08-9.1 6.08l-2.61 2.34c-2.65 2.35-5.38 4.64-7.76 7.27l.07 2-2 .07.08 2-2 .07-.9 3.03-2 .07c-4.48 5.05-9.23 10.82-11.82 17.12-1.35 6.18-1.4 13.35 1.3 19.13 1.86 2.07 1.86 2.07 4.57 2.8l2.32.1s-200.52 327.7 106.48 561.16c73.79 56.12 201.95 54.83 339.47 50.02 293.33-10.09 350.23-71.2 350.23-71.2.76-4 .76-4 3.42-7.22q1.5-1.73 2.97-3.5l1.47-1.78c2.09-2.5 4.05-5.05 5.9-7.74l2.56-3.78a171 171 0 0 0 10.44-16.31c2.05-3.6 4.07-7.22 6.29-10.73a127 127 0 0 0 7.9-14.47c1.93-4.1 3.87-8.17 6.01-12.16 15.92-28.99 23.99-59.44 30.97-91.54 1.33-6.14 2.64-12.3 4.23-18.38 4.2-15.54 5.93-30.8 6.74-46.85l.14-2.92c.99-19.31 1.86-38.6.74-57.94 0 0 7.33-70.28-29.02-162.07s-67.6-100.74-67.6-100.74 21.35-15-1.48-35.86c0 0-19.98-14.33-33.21-20.8-4.5-2.2 28.4-2.9-20.02-35.24-15.11-8.76-27.32-11.9-27.32-11.9"/><path fill="#EEAE41" d="M1651.25 2056.24c-467.25-2.67-451.2-349.94-451.7-412.28-.51-62.34 13.06-71.16 13.06-71.16s11-12.31 15.33-24.7-5.56-5.77-5.56-5.77-9.6 15.55-16.58 10.92c-6.99-4.62.42-25.08.42-25.08 4.4-21.1 17.18-42.9 31.53-58.77 5.03-5.1 5.03-5.1 6.6-11.72l-.66-2.86c-3.27-.38-3.27-.38-7 .25-1.56 1.37-1.56 1.37-2.9 3.1-2.38 2.93-2.62 3.06-6.68 3.68-3.2-.33-3.2-.33-4.24-1.3-.61-2.97-.65-5.12.75-7.85a105 105 0 0 1 4.76-6.35l1.9-2.42c9.68-11.93 20.3-21.26 33-29.82l1.8-1.22c9.64-6.5 9.64-6.5 13.7-8.81l2.1-1.59c.3-3.64.3-3.64-.24-7-6.92-.53-10.73 1.52-16.5 5.28-2.28 1.39-2.28 1.39-4.28 1.46.14-8.1 5.58-14.96 11.08-20.53 14.24-12.93 31.05-22.09 48.17-30.57q1.98-1.06 3.93-2.14l-.24-7c-5.12.01-8.24.37-12.92 2.46-2.83-.29-2.83-.29-5.04-.83-1.1-2.96-1.1-2.96-.05-5.48 11.19-16.34 39.95-22.4 58.08-25.94q2.37-.45 4.78-.85a55 55 0 0 0 12-3.36q-.04-3-.21-6c-2.04-1.9-5.4-1.47-8.07-1.72 8.4-11.03 19.17-18.19 33.05-20.52q4.23-.48 8.48-.75l3.04-.23c6.8-.42 13.16-.28 19.9.77 4.8.62 7.78.93 11.79-1.94.04-2.44.04-2.44-1.18-4.96-5.81-2.61-11.88-3.5-18.16-4.37.3-2.48.55-3.72 2.34-5.5l1.93-1.28 1.86-1.3c6.55-3.17 13.82-4.07 21-4.69l2.6-.23a75 75 0 0 1 26.95 3.01q2.32.05 4.63-.04l2.42-.07c1.96.02 1.96.02 2.91-1.24.32-2.84.32-2.84-.2-6l-2.1-2.42c-2.08-2.43-2.08-2.43-2.5-5.67.21-2.76.21-2.76 1.18-3.8 6.08-.84 10.86.24 16.13 3.45a158 158 0 0 1 8.53 8.44c2.73 2.48 2.73 2.48 6.45 2.5 4-.64 4-.64 7.32-2.71 1.92-2.68 1.92-2.68 3.68-5.83 2.9-4.9 5.96-9.3 9.65-13.65 4.77.58 4.77.58 7.1 2.75.2 2.56.31 5 .32 7.56q.05 3.72.2 7.43l1.03.97c5.5-.28 9.26-1.29 14-4.05 16.08-9.24 49.4-25.4 68.21-17.5l2.15 1.6.1 2.99-2.75 1.02q-9.91 3.65-19.77 7.46l-3.42 1.32c-2.78 1.04-2.78 1.04-4.62 3.27q-.48 3.51-.75 7.03c7.22-.63 13.25-2 19.9-4.81 18.13-7.15 38.46-12.81 58-13.6l2.53-.11c7.18-.03 14.88 1.7 20.28 6.7l2.01 2.23 1.04.97 1.24 6.96c2.2 2.05 6.8 1.2 9.74 1.22l2.77.04c7 .06 13.96-.21 20.94-.57 12.15-.58 23.07-.91 34.72 2.93l2.8.93c4.3 1.57 8.09 3.42 11.47 6.58l.1 3-15.91 2.55.24 7c1.9 1.76 4.8 1.13 7.26 1.18l3.94.08q1.04 0 2.1.04c24.7.5 50.66 1.3 70.02 18.74 1.85 2.47 1.86 3.98 1.68 7.01l-3.75-.53-4.92-.67-2.46-.34c-4.38-.6-8.55-1.05-12.96-.62-1.38 1.23-1.38 1.23-.9 4.6l.18 3.43 1.94.26a246 246 0 0 1 46.48 11.06l4.25 1.38c9.09 3.17 16.67 7.77 22.36 15.7-.15 4.17-.44 6.52-2.65 10.1-2.35.8-2.35.8-5.07 1.36l-2.74.58-2.11.4q.06 3.5.24 7c1.77 1.65 4.21 1.27 6.56 1.46 19.12 2.22 43.83 11.22 57.42 25.32.44 3.29.44 3.29.2 6-5.54 2.32-5.54 2.32-8.95 1.31q-2.1-.03-4.2.09l-3.8.2.25 6.99 2.16.8q3.21 1.21 6.41 2.44 3.46 1.29 6.95 2.47c15.67 5.49 35.42 16.93 44.2 31.48.67 1.72.67 1.72.33 4.62-1.67 2.45-2.58 3.39-5.41 4.31-4.17-.35-7.25-1.8-10.95-3.68-5.24-2.49-8.58-3.3-14.28-2.44l.24 7 3.23 1.38c8.05 3.53 15.5 7.02 22.28 12.73l2.2 1.78c3.83 3.28 3.83 3.28 5.04 4.97.08 1.93.08 1.93-.86 4.03 0 0 109.86 589.77-357.4 587.1"/><path fill="#CEA052" d="M1267.75 1542.04c1.4-9.52 4.23-17.72 10.7-25.05q1.68-1.7 3.3-3.46l-.13-4-14.03-.51-1.07-2.73c-3.49-10.86-4.08-26.96.87-37.3q1.44-2.55 2.78-5.14c4.1-7.96 8.36-15.57 14.2-22.4a125 125 0 0 0 7-8.24c3.05-4.12 5.92-8.18 9.76-11.6l2.37-1.9-1.14-3.96c-5.73 1.04-13.5 3.17-18.99.66-2.91-3.64-3.64-6.23-3.38-10.89l.96-1.03-2.03-.93q-2.7 1.95-5.48 3.79a881 881 0 0 0-8.32 5.52l-1.84 1.24c-12.69 8.55-23.33 17.9-33 29.83l-1.9 2.41a102 102 0 0 0-4.76 6.35c-1.4 2.73-1.36 4.88-.75 7.85 1.04.97 1.04.97 4.24 1.3 4.06-.62 4.3-.75 6.69-3.68 1.33-1.73 1.33-1.73 2.9-3.1 3.72-.64 3.72-.64 6.99-.25l.66 2.86c-1.57 6.62-1.57 6.62-6.6 11.72-14.35 15.88-23.98 31.5-31.53 58.77 0 0-8.42 24.79 1.04 25.43 8.67.6 15.11-11.27 15.11-11.27s8.43-6.56 5.58 5.77c-2.86 12.34-42.24 33.1-43.38 60.28-.53 12.75-27.55 129.3 11.45 232.97 44.21 117.5 186.47 217.93 457.4 214.61 0 0-442.26-85.26-385.67-513.92"/><path fill="#BCBCBC" d="M1491.5 1903.45c1.49 1.65 1.49 1.65 3.32 2.66l3.81 1.09 2.66 1.12 2.5.93 2.88 1.07a1519 1519 0 0 1 12.98 4.8l15.42 5.75c5.03 1.88 10.06 3.74 15.01 5.8 21.67 9.18 44.03 15.92 66.57 22.6l2.55.75c15.82 4.68 31.56 8.44 47.9 10.88l2.52.37c7.45 1.1 14.53 1.75 22.06 1.23a84 84 0 0 0-1.37-15.17l-.44-2.13-.94-4.7q-1.29-6.32-2.53-12.65l-.5-2.54a538 538 0 0 1-3.92-22.14 616 616 0 0 0-3.05-18.36c-2.15-11.62-4.19-23.14-5.21-34.92-.41-2.72-.41-2.72.88-3.87q3.5-.18 7-.24a90 90 0 0 1 2.07 10.94l1 7.09c.9 6.5 1.8 12.99 3.24 19.4 1.06 4.66 1.89 9.31 2.63 14.03l.96 6.15.5 3.15 1.65 10.36.63 3.8q.98 5.87 2.28 11.7a656 656 0 0 1 3.86 18.97l1.88 9.63.4 2.11c5.97-.07 11.2-1.1 16.96-2.53l3.69-.94c11.74-2.88 22.38-6.86 33.33-11.92 6.73-3.13 13.46-6.26 20.27-9.22a763 763 0 0 0 33.97-15.84q5.7-2.83 11.46-5.61l8.62-4.2 4.27-2.08c7.9-3.8 15.42-7.65 22.56-12.74a106 106 0 0 1 14.65-8.94c5.97-2.9 11.8-5.73 17.19-9.63 2.35-1.76 4.69-3.44 7.15-5.05 10.1-6.46 19.55-13.8 28.83-21.4a632 632 0 0 1 33.42-25.37 586 586 0 0 0 46.1-36.53q4.57-4.04 9.24-7.97l6.9-5.79 3.02-2.58c9.55-8 9.55-8 23.6-31.59 2.24-3.81 4.45-7.6 6.96-11.24 4.28-6.03 6.65-12.16 8.84-19.16l1.3-4.47c2.59-8.03 3.98-15.17 3.74-23.63l-.19-3.76c-1.99-46.4-15.1-92.9-35.08-134.68a486 486 0 0 1-3.62-7.71l-1.38-3.03-2.8-6.17c-2.12-4.7-4.19-9.41-6.62-13.96l-1.22-2.18-2.18-3.9c-2.03-3.13-2.03-3.13-2.84-6.28 3.88-6.53 3.88-6.53 9.34-11.9a53 53 0 0 0 5.05-5.62c.3-2.78.3-2.78-.17-5l-1.03-.96c-1.5-2.6-2.38-4.51-5.15-5.82-2.97.1-2.97.1-8.17 5.52-3.7 4.07-7.38 8.08-11.42 11.8a98 98 0 0 0-5.58 5.46 123 123 0 0 1-10.93 10.75c-3.57 3.08-7 6.24-10.33 9.57a293 293 0 0 1-15.97 14.98c-6.02 5.16-12.02 10.3-17.66 15.9-8.2 8.18-16.92 15.48-26 22.66a779 779 0 0 0-16.19 13l-4.1 3.43-1.8 1.47a446 446 0 0 1-24.98 19.1l-2.06 1.48c-14.84 10.63-29.78 21.09-45.17 30.92a539 539 0 0 0-26.17 17.8 609 609 0 0 1-51.95 33.71q-6.07 3.52-12.1 7.09c-15.36 9.06-30.61 18.48-46.62 26.36-2.77 1.37-5.5 2.7-8.13 4.34-21.83 8.89-21.83 8.88-45.77 7.65l-2.03-.11q-12.45-.61-24.88-1.72l-3.2-.3a1300 1300 0 0 1-11.8-1.15l-2.52-.26-2.36-.26c-2.8-.31-5.46-.82-8.22-1.4q-5.08-1.1-10.2-1.93l-2.1-.33-9.26-1.49c-9.4-1.5-18.77-3.04-28.1-4.9l-2.92-.59c-9.28-1.82-18.51-3.54-27.44-6.73-4.98-1.85-9.7-3-14.95-3.8l-59.09-13.47-66.52-16.9-22.86-9.15-75.84-26.52-17.88 57.64 13.33 77.76 241.55 122.32"/><path fill="none" stroke="#1B1C1E" stroke-miterlimit="10" stroke-width="10" d="M2020.88 1473.7c-2.97.11-2.97.11-8.17 5.53-3.7 4.07-7.38 8.08-11.42 11.8a97 97 0 0 0-5.58 5.46 123 123 0 0 1-10.93 10.75c-3.57 3.08-7 6.24-10.33 9.57a292 292 0 0 1-15.97 14.98c-6.02 5.16-12.02 10.3-17.66 15.9-8.2 8.18-16.92 15.48-26 22.66a777 777 0 0 0-16.19 13q-2.04 1.73-4.1 3.42l-1.79 1.48a446 446 0 0 1-24.99 19.1l-2.06 1.48c-14.84 10.63-29.78 21.09-45.17 30.92a538 538 0 0 0-26.17 17.8 609 609 0 0 1-51.95 33.71q-6.07 3.52-12.1 7.09c-15.36 9.06-30.61 18.48-46.62 26.36-2.77 1.37-5.5 2.7-8.13 4.34-21.83 8.88-21.83 8.88-45.77 7.65l-2.02-.11q-12.46-.61-24.89-1.72l-3.2-.3a1301 1301 0 0 1-11.8-1.15l-2.52-.26-2.36-.26c-2.8-.31-5.46-.82-8.22-1.4q-5.08-1.1-10.2-1.93l-2.1-.33-9.26-1.5a756 756 0 0 1-31.02-5.48c-9.28-1.82-18.51-3.54-27.44-6.73a73 73 0 0 0-14.95-3.8l-59.09-13.47-66.52-16.9-22.86-9.15-75.84-26.52"/><path fill="#8C97A0" d="m1416.85 2058.15 2.94-.02 10.88-.03c2 0 2 0 3.97-.02h3.8q3.22-.02 6.43.09c3.03.9 3.03.9 6 .98l3.62-.04 12.32-.1 4.06-.03q5.45-.08 10.91.1c38.29 1.55 76.58.47 114.85-.95l12.29-.44a5027 5027 0 0 0 112.8-5.12c17.13-1 34.27-2.03 51.4-3.24l3.27-.24c4.47-.32 8.9-.58 13.32-1.43 3.46-.74 6.92-1.2 10.43-1.67l5.94-.79 3.17-.42c16.78-2.24 33.52-4.43 50.11-7.78 4.87-.99 9.7-1.89 14.62-2.55 10.66-1.41 10.66-1.41 32.8-6.12a2089 2089 0 0 1 19.7-4.11 691 691 0 0 1 19.45-3.7 419 419 0 0 0 23.4-4.68 419 419 0 0 1 20.99-4.36c2.77-.48 5.46-1 8.2-1.66l.93-2.04c2.27-1.17 3.8-1.99 5.47-3.97 2.33-3.43 4.7-6.83 7.21-10.13a241 241 0 0 0 17.22-24.96q2.36-4.13 4.78-8.2a346 346 0 0 0 17.16-31.88q1.64-3.55 3.4-7.05c16.2-31.22 24.5-66.42 31.51-100.72l.77-3.82c3.33-16.51 4.19-33.17 4.94-49.96l.14-3.31c1.28-29.44.73-58.77-.16-88.2l-.1-3.22-.26-8.72-.09-2.58c-.23-7.58-.63-15.15-1.83-22.65-1.47-3.47-1.47-3.47-2.13-7.24-2.08-11.2-5.52-22.07-9-32.9l-.66-2.03-2.74-8.48a874 874 0 0 1-3.41-10.66c-4.52-14.7-10.78-28.56-17.19-42.5l-4.38-9.58c-6.45-14.3-12.59-30.5-22.97-42.52-.64 2.96-.64 2.96-2.22 4.57a65 65 0 0 0-2.95 3.15q-.73.83-1.42 1.65l-1.55 1.8-1.6 1.86-5.59 6.51q4.2 8.5 8.1 17.14c3 6.61 5.94 13.26 9.24 19.72 10.82 21.14 18.88 44.08 25.58 66.83l.83 2.85a297 297 0 0 1 11.95 70.4l.08 1.98c.43 8.67-.07 16.09-2.6 24.43l-.94 2.96q-.97 3.3-2.02 6.56l-.63 1.91c-1.28 4.12-2.66 7.73-5.08 11.33a86 86 0 0 0-4.56 7.2c-6.77 12.1-13.64 26.45-24.3 35.56-3.8 2.92-7.42 5.92-10.99 9.11a744 744 0 0 1-24.24 20.89 361 361 0 0 1-28.79 22.44c-10.97 7.73-21.75 15.55-32.13 24.05a540 540 0 0 1-10.26 8.2l-1.96 1.52a545 545 0 0 1-23.35 17.2 129 129 0 0 1-18.86 11.54c-5.65 2.81-11 5.82-16.25 9.33-15.78 9.67-15.78 9.67-32.4 17.86l-2.09 1.04a1364 1364 0 0 1-34.91 16.83l-2.54 1.17q-10.38 4.8-20.79 9.54l-2.85 1.3c-20.5 9.34-40.22 15.6-62.33 20.18q-.07-3.5-.25-7c-1.12-2.78-1.12-2.78-1.53-5.06l-.41-2.45-.47-2.73-.49-2.91q-1.19-7-2.35-14c-.84-5.08-1.62-10.17-2.7-15.21a488 488 0 0 1-6.53-35.62l-.34-2.3q-.87-5.73-1.7-11.48l-.64-4.41-.31-2.08c-.64-4.41-1.4-8.1-3.4-12.08-3.39-.5-3.39-.5-7.02-.76l-1.93 2.07c-.08 3.6.25 7.02.74 10.59l.99 5.87.35 2.14a736 736 0 0 1 2.28 14.47l.95 6.15a473 473 0 0 0 4.37 25.14 974 974 0 0 1 5.36 28.48l1 5.7 3 16.87c-9.24-.62-18.45-1.24-27.6-2.7l-2.9-.49c-26.41-5.42-26.41-5.42-52.2-13.37l-10.11-3.1a642 642 0 0 1-52.02-18.25 612 612 0 0 0-24.35-9.15 415 415 0 0 1-30-12.03l-75.38-38.17-78.97-39.99-87.21-44.16 82.43 253.04s11.54 21.7 84.46 24.01"/><path fill="#050505" d="M1674.57 1845.02c3.63.25 3.63.25 7.03.76 2 3.99 2.75 7.67 3.39 12.08l.3 2.08.65 4.4q.83 5.76 1.7 11.5l.34 2.29a488 488 0 0 0 6.54 35.62c1.07 5.04 1.85 10.13 2.69 15.21q1.16 7 2.35 14l.49 2.91.88 5.18c.4 2.28.4 2.28 1.53 5.07q.53 3.42.96 6.87l.26 2.02 1.63 12.81.74 5.82a34 34 0 0 0 1.1 5.9c.67 2.84.98 5.64 1.28 8.54l.37 3.54c.2 1.82.2 1.81.38 3.67.72 6.9 1.49 13.71 2.72 20.54q.3 3.65.44 7.3l.17 3.67c-.12 3.02-.12 3.02-2.05 5.09-3.62.25-3.62.25-7 .24-1.6-2.93-1.8-6.1-2.26-9.36l-.35-2.37c-1-7.06-1.74-14.14-2.48-21.23a546 546 0 0 0-4.87-34.52q-.72-4.56-1.34-9.13c-1.55-11.13-3.7-22.11-5.88-33.12a1179 1179 0 0 1-10.3-58.84q-.6-3.87-1.23-7.72l-.36-2.15-1-5.94c-.5-3.6-.83-7.02-.75-10.66z"/><path fill="#CA9D50" d="m1323.83 1342.96 1-.04c.83 6.2.83 6.2-1.55 9.44q-1.5 1.38-3.03 2.73l-4.65 4.54a279 279 0 0 1-6.97 6.55c-10.6 9.55-21.84 21.31-25.78 35.24l-1 .04-1.21-5.96c-6.93-.54-10.73 1.5-16.5 5.26-2.28 1.4-2.28 1.4-4.28 1.47.13-8.1 5.58-14.96 11.08-20.54 14.75-13.38 32.5-23.34 50.5-31.64 1.98-1.04 1.98-1.04 2.24-4.21z"/><path fill="#060606" d="M1658.66 1751.15c3.63.24 3.63.24 5.3 2 2.22 4.62 2.98 9.36 3.9 14.37l1.24 6.43.61 3.18q1.21 6.15 2.6 12.25l.83 3.71c.67 2.97.67 2.97 1.82 5.9.28 2.14.28 2.14.4 4.48l.17 2.34c-.32 2.7-1.05 3.59-3.15 5.27-2.5.15-2.5.15-5.03-.83a33 33 0 0 1-4.7-11.95l-.73-3.49-.74-3.66-1.56-7.52-.75-3.67a569 569 0 0 0-2.39-11.05l-1.3-5.84a56 56 0 0 1-.85-10.4c.97-1.03.97-1.03 4.33-1.52"/><path fill="#050505" d="M1672.13 1819.9c3.56.07 3.56.07 5.63 2 1.1 3.53 1.4 6.95 1.56 10.64l.15 2.88c-.15 2.43-.15 2.43-2.08 4.5-2.99.42-2.99.42-6 .21-2.59-3.61-2.71-6.73-3.07-11.02l-.22-2.24a137 137 0 0 1-.37-5.62c.97-1.04.97-1.04 4.4-1.35"/></g><g style="display:block"><path fill="#8C97A0" d="m2006.79 2017.53 1.16 2a545 545 0 0 0 11.84 19.19l1.79 2.8q4.27 6.67 8.6 13.32l1.49 2.3 2.77 4.26c3.07 4.75 3.07 4.75 3.18 8.09l-1.75.4a219 219 0 0 0-13.93 3.65c-5 1.46-9.96 2.46-15.08 3.37-3.06.58-6.07 1.3-9.08 2.07-22.47 5.68-45.3 8.71-68.28 11.58a351 351 0 0 0-17.5 2.77c-25.15 4.42-50.43 6.91-75.85 9.12-9.17.8-18.3 1.62-27.39 3.08-12.52 1.99-25.2 2.57-37.83 3.4q-4.9.32-9.8.67l-3.04.19-2.79.2-2.45.16c-2.2.21-2.2.21-3.9 2.44-.16 2.55-.16 2.55.18 5 2.2 2.05 6.97.94 9.92.85l2.8-.08 5.96-.18q4.38-.14 8.76-.24c12.45-.36 24.6-1.64 36.92-3.4a788 788 0 0 1 37.98-4.24c22.67-2.13 45.23-4.64 67.76-7.96 7.36-1.08 14.73-2 22.11-2.9 20.54-2.4 20.54-2.4 40.83-6.3l1.9-.46q7.83-1.9 15.63-3.86l2.43-.61 9.88-2.49c8.64-2.19 17.11-4.33 26-5.24l1.18 1.67a961 961 0 0 0 24.02 32.47l5.8 7.62c4.7 6.47 4.7 6.47 4.79 9.02l-33.44 7.91-3.64.87-7.24 1.7q-8.06 1.9-16.1 3.86c-8.11 1.96-16.1 3.85-24.4 4.7-6.69.77-13.25 1.78-19.85 3.07-12.36 2.38-24.9 3.55-37.41 4.87l-7.3.76c-3.1.33-5.75.7-8.69 1.8q-3.9.55-7.82 1l-2.36.26-12.41 1.42c-12.58 1.45-12.58 1.45-18.64 2.04l-2.05.2-5.46.52c-3 .3-3 .3-5.55.96-5.9 1.39-12.1 1.6-18.14 2.13l-2.37.22a856 856 0 0 1-35.81 2.46q-8.48.43-16.96.82l-6.24.3-2.93.12-2.67.13-2.34.1c-2.13.19-2.13.19-3.8 2.4.31 3.83.31 3.83 2.24 6.93 4.56.11 9.12-.12 13.68-.29l2.11-.07a687 687 0 0 0 36.58-2.4l2.46-.22c7.25-.65 14.49-1.31 21.68-2.45 5.17-.71 10.37-1.09 15.57-1.54 14.34-1.27 28.63-2.88 42.92-4.7a470 470 0 0 1 21.85-2.37 163 163 0 0 0 17.85-2.53c5.59-.98 11.22-1.66 16.86-2.34a252 252 0 0 0 17.42-2.86q4.98-.95 9.99-1.82c20.41-3.64 40.57-8.18 60.75-12.98l6.52-1.52q1.49-.38 3.04-.74l2.81-.66 2.45-.58a12 12 0 0 1 6.26.55 64 64 0 0 1 4.84 6.21l1.36 1.94a279 279 0 0 1 10.35 16.41l1.44 2.4c1.76 3.06 3.08 5.54 3.55 9.05-3.23 6.25-11.19 8.74-17.46 10.94l-2.09.77q-3.6 1.3-7.24 2.5l-2.95 1.01c-12.68 4.15-25.77 6.46-38.85 9.01l-7.17 1.42q-20.66 4.1-41.42 7.72l-5.07.9a4002 4002 0 0 1-24.3 4.17l-5.88 1q-8 1.35-15.96 2.86c-32.4 6.11-64.96 7.01-97.88 6.84l-2.8-.01c-18.75-.18-37.38-3.97-51.17-17.49-3.07-3.47-4.91-7.07-6.6-11.37-1-2.66-1-2.66-2.54-5.44-2.68-5.64-3.79-11.84-5.2-17.9l-.94-3.91a697 697 0 0 1-3.59-15.58c-4.9-22.44-15.32-45.23-35.2-58.16-6.41-3.67-12.86-4.95-20.13-3.3-11.14 5.55-17.02 18.7-20.98 29.75-3.74 11.3-5.3 22.12-6.1 33.96q-.48 6.96-1.04 13.9l-.21 2.75a530 530 0 0 1-2.17 22.26l-.32 2.88c-1.71 13.65-7.86 24.84-16.16 35.6l-1.4 1.85c-3.57 4.48-7.14 6.95-12.35 9.26l-3 1.36c-8.96 3.83-17.77 5.8-27.33 7.45l-4.25.78c-4.01.72-8.01 1.44-12.04 2.04l-2.44.37c-9.9 1.33-19.87 1.56-29.85 1.9l-5.94.2q-6.22.23-12.43.43l-15.68.55c-21.53.78-43.03 1.5-64.58 1.12l-2.33-.03q-6.45-.1-12.88-.31l-3.78-.12a388 388 0 0 1-26.19-1.92c-8.88-.86-17.71-.89-26.63-.73a100 100 0 0 1-17.9-1.27c-3.47-.55-6.91-.77-10.41-1-9.54-.76-18.83-2.02-26.43-8.2.57-3.23 1.6-5.98 2.91-8.97l1.27-2.91 1.36-3.08 1.38-3.14q5.66-12.85 11.57-25.58 10.83.45 21.64 1.32a685 685 0 0 0 46.45 2l2.04.02c35.19.4 70.36-.97 105.52-2.22l6.68-.23c55.16-1.8 55.16-1.8 110.16-6.1l4-.39c5.62-.04 5.62-.04 10.42-2.11q-.06-3.5-.24-7a2490 2490 0 0 0-16.46.46c-2.6.16-2.6.16-5.44.8-5.93 1.1-11.98 1.16-17.99 1.45l-4.2.21-18.4.89a5195 5195 0 0 1-135.34 4.68c-20.4.5-40.66.47-61.05-.45l-2.65-.12q-6.95-.31-13.89-.74l-3.72-.2a163 163 0 0 1-21.66-2.78c-3.42-.62-6.83-1-10.3-1.34 1.5-4.6 3.64-8.75 5.87-13.03 5.46-10.57 10.74-21.23 16.03-31.9l7.07-14.12c6.55.2 13.04.51 19.55 1.26 28.84 2.85 57.96 1.63 86.87 1.1l11.08-.2c47-.84 93.94-2.13 140.88-4.61l3.35-.18 9.25-.51 2.7-.15c5.5-.32 10.87-.96 16.31-1.83-.33-4.34-.33-4.34-2.27-7.93q-3.3-.01-6.6.12l-2.12.07-7.08.27-5.06.18-10.95.4-17.47.63-40.42 1.47-45.5 1.65-2.97.1c-102.15 3.63-102.15 3.63-144.9-2a103 103 0 0 1 5.15-9.82q4.81-8.4 9.23-17.02l1.2-2.28c3.4-6.65 6.43-12.93 5.94-20.54l-.14-2.8c-.14-2.35-.14-2.35-1.35-4.28 21.4-1.18 42.62-1.11 64.04-.38l5.96.2c1.44.06 1.44.06 2.9.1q13.67.43 27.34.29l2.89-.02 2.4-.03c2.54.07 2.54.07 5.38.44 5.8.64 11.62.49 17.44.47h3.9c13-.06 26-.41 39.01-.84l7.58-.25q11.06-.36 22.12-.75l6.23-.2c47.43-1.63 94.75-4.1 142.05-7.97q5.73-.47 11.46-.85c16.18-1.12 32.24-3.31 48.31-5.45q6.21-.83 12.42-1.63l14.27-1.87c7.3-.95 14.49-1.99 21.63-3.8a76 76 0 0 1 10.2-1.48l4.71-.51 2.5-.29c25.3-2.9 49.9-8.57 74.66-14.33a1907 1907 0 0 1 40.4-8.85l5.86-1.24c2.71-.63 5.14-1.76 7.92-1.86"/><path fill="#BBB" d="M2038 2080.48c1.87 1.64 1.87 1.65 3.44 3.99l1.8 2.6 1.85 2.8 3.9 5.67 1.93 2.82c2.4 3.46 4.92 6.8 7.51 10.11l1.27 1.64 3.51 4.51 5.8 7.62c4.7 6.47 4.7 6.47 4.79 9.02a5519 5519 0 0 1-25.85 6.14q-4.7 1.13-9.43 2.23l-2.96.72-2.77.64-2.43.58c-2.4.32-3.96.23-6.25-.57-2.02-2.48-2.02-2.48-4.08-5.73l-2.04-3.17a209 209 0 0 1-3.74-6.26 192 192 0 0 0-13.11-19.5l-4.19-5.6-1.84-2.45c-1.42-2-2.61-4-3.73-6.17a271 271 0 0 1 23.44-7.04l6.22-1.66 4-1.06 3.62-.95c3.28-.7 6-1.23 9.35-.93m35.21 62.82a64 64 0 0 1 4.84 6.2l1.36 1.94a279 279 0 0 1 10.35 16.41l1.44 2.4c1.76 3.06 3.08 5.54 3.55 9.05-3.23 6.24-11.19 8.74-17.46 10.94l-2.32.84c-21.69 7.7-21.69 7.7-28.86 7.2-1.95-1.57-1.95-1.57-3.51-3.89l-1.86-2.71c-2.6-4.15-5.1-8.34-7.6-12.55-4.87-8.09-10.69-15.45-16.51-22.86l.93-2.03c2.04-.7 2.04-.7 4.78-1.33l3.09-.72 3.37-.76 3.44-.8 7.22-1.63 11.06-2.54 7-1.6 3.35-.78 3.13-.7 2.74-.62c2.51-.34 4.09-.32 6.47.53m-694.69-7.76c8.15.26 16.2.83 24.32 1.68 5.6.51 11.18.72 16.79.89a32 32 0 0 1-2.81 9.74l-2.6 5.58-1.38 3q-5.08 10.9-10.38 21.7a307 307 0 0 0-8.75 19.92c-9.3.55-17.83.43-27.06-1.06l-6.93-.97-10.16-1.43c1.5-4.6 3.63-8.75 5.86-13.03 5.46-10.57 10.74-21.23 16.03-31.9zm-24.54 70.9c9.43.4 18.84 1 28.25 1.7l4.96.34 9.5.66c5.2.4 5.2.4 7.5 2.55-16.5 35.18-16.5 35.18-24.35 47.88q-5.01-.3-10.02-.65l-3.78-.24c-21.92-1.54-21.92-1.54-30.55-8.57.57-3.22 1.6-5.97 2.91-8.96l1.27-2.91 1.36-3.08 1.38-3.14q5.66-12.85 11.57-25.58"/><path fill="#8B969F" d="M1708.03 2104.83c10.85 3.13 19.43 12.85 24.86 22.4a56 56 0 0 1 5.08 14.76c-8.74 2.68-17.4 4.08-26.46 5.12l-3.13.36c-7.07.77-14.1 1.14-21.2 1.3-1.71-14.1 3.27-27.27 11.66-38.43 2.73-3.45 4.64-5.1 9.19-5.51"/><path fill="#BBB" d="m2006.79 2017.53 1.16 2a540 540 0 0 0 11.84 19.19l1.79 2.8a2253 2253 0 0 0 12.86 19.88c3.07 4.75 3.07 4.75 3.18 8.09l-1.75.4q-7.03 1.6-13.93 3.65c-8.85 2.59-17.92 4-27.01 5.45a517 517 0 0 1-20.88-33.67l-1.97-3.44-1.84-3.27-1.63-2.9a31 31 0 0 1-2.52-8.75l2.06-.48c17.17-4.03 17.17-4.03 34.28-8.31 2.36-.57 2.36-.57 4.36-.64"/></g><g clip-path="url(#c)" style="display:block" transform="matrix(0.9993908405303955,-0.03489949554204941,0.03489949554204941,0.9993908405303955,302.9779357910156,448.03973388671875)"><g style="display:block"><path d="M1312.94 1081.46c21.2-2.69 42.3-1.78 63.44.78 11.1 1.34 21.15 5.69 30.5 11.12 23.42 13.58 45.26 29.4 63.44 49.71 8.6 9.62 17.08 19.37 24.45 30q1.47 2.12 2.62 4.44c3.37 6.7 1.72 9.33-5.83 9.8-4.11.26-8-.72-11.87-1.7-23.47-5.97-44.24-17.3-63-32.39a165 165 0 0 0-21.22-14.66 83.6 83.6 0 0 0-42.7-11.2c-23.27.1-46.49.89-69.46 4.94-30.76 5.43-61.64 10.43-91.38 20.35a666 666 0 0 0-41 15.34c-11.14 4.55-19.66 12.81-27.16 22-5.44 6.66-10.49 13.65-15.57 20.6-12.74 17.39-28.04 31.73-47.65 41.22-4.83 2.35-9.87 3-14.99 3.24-5.74.27-7.7-2.54-5.83-8.27 3.74-11.5 9.63-22.06 15.06-32.78 9.74-19.24 21.76-37.1 35.03-54.07 14.62-18.7 33.3-32.27 54.94-41.68 23.72-10.32 48.14-18.5 73.73-22.85"/><path fill="#C43F83" d="M1481.03 1175.78c-18.83-4.12-35.32-13.14-50.84-24.2-9.34-6.66-18.03-14.16-27.96-20.04-15.92-9.44-32.8-14.66-51.43-13.83-17.15.76-34.33 1.01-51.42 2.97-25.67 2.94-50.92 8.15-76.13 13.58-22.44 4.84-43.75 13.26-65.41 20.71-20.43 7.03-35 20.02-47.32 36.68-10.23 13.84-20.55 27.55-33.8 38.82-7.13 6.06-15.44 9.63-23.56 13.81-2.15-2.6-.03-4.11.61-5.72 10.52-26.33 26-49.75 43-72.18 13.64-17.98 31.6-30.72 52.16-39.68a339 339 0 0 1 75.44-23.05c7.14-1.29 28.35-6.38 80.01-12.38 16.02-1.03 32-2.02 48.1-1.8 21.28.3 40.37 5.93 58.38 17.4 19 12.12 36.72 25.57 51.94 42.15 7.15 7.8 14.39 15.59 20.26 24.47q.77 2.73-2.03 2.3"/></g><g style="display:block"><path fill="#050302" d="M1107.89 1005.3a197 197 0 0 1 9.35-19q3.71-4.95 8.77-8.48s18-14.59 46.25-6.8c28.23 7.79 39.4 23.75 40.82 28.45 1.69 5.59 3.43 11.2 4.13 17 3.24 27.02-16.72 42.58-16.72 42.58q-36.24 25.77-74.62 1.97a76 76 0 0 1-14.39-20.6s-9.27-16.6-3.59-35.12"/><path fill="#FCFCFC" d="M1201.3 995.95q16.83 31.57-7.94 57.96-34.94 23.16-66.11-4.77-21.7-26.64-4.28-55.78a36 36 0 0 1 17.32-12.73s12.38-4.29 26.66-1.96c12.8 2.09 26.27 7.12 34.35 17.28"/></g><g style="display:block"><path fill="#050302" d="M1376.16 997.8q-.47 5.17-1.22 10.36a248 248 0 0 1-6.83 17.46q-19.45 23.61-50.11 24.2c-7.09-.05-13.96-1.18-20.3-4.09-29.02-13.29-29.89-36.5-29.89-36.5a146 146 0 0 1-.93-17.56v-.57c1.12-8.93 10.6-27.14 39.05-39.27 39.1-16.65 62.54 14.98 62.54 14.98l3.6 5.77c1.27 1.79 3.01 7.5 3.37 9.66l.5 3.36q.73 5.07.37 10.19z"/><path fill="#FDFCFC" d="M1325.81 953.41c7.97-.73 17.33.35 24.74 5.77q30.64 28.71 7.44 63.93-25.43 27.83-59.96 13.12l-12.1-10.37c-9.12-12.27-11.63-24.97-8.35-40.04 3.82-9.23 7.35-12.76 15.52-19.1 7.84-4.66 17.72-11.37 32.71-13.3"/></g><path fill="#080808" d="M-10.6-15.79q13.82-3.64 25.57 4.08Q24.1 13.16-2.17 18.22-21.2 17.9-20.75-1.57A32.5 32.5 0 0 1-10.6-15.79" style="display:block" transform="matrix(1,0,0,1,1142.1829833984375,991.3350219726562) matrix(1,0,0,1,21.30299949645996,18.474000930786133)"/><path fill="#050505" d="M5.2-18.6q3.2-.16 6.04 1.08Q22.7-7.09 17.92 7.94 10.5 17.86-2.05 18.7q-14.1-2.16-18.9-15.33-.24-3.22.05-6.37 2.38-6.09 7.21-10.86 9-3.92 18.9-4.73" style="display:block" transform="matrix(1,0,0,1,1300.739013671875,968.9140014648438) matrix(1,0,0,1,21.36400032043457,18.954999923706055)"/><g style="display:block"><path fill="#030201" d="M1252.77 1102.28c-10.83.77-21.54-3.07-30.17-10.8a47.2 47.2 0 0 1-15.68-33.02c-.89-22.05 4.92-40.7 17.75-56.99 5.69-7.22 12.55-11.16 20.4-11.71 3.98-.28 8.1.3 12.6 1.75 11.6 3.78 21.55 11.3 30.41 23.03 2.92 3.87 5.47 7.9 7.94 11.8l2.4 3.76c9.01 13.95 10.58 29.99 4.3 44-6.42 14.29-20.11 24.35-36.65 26.91a46 46 0 0 1-3.83.42l-2.92.16-2 .1a39 39 0 0 1-4.55.6"/><path fill="#E798BB" d="M1256.18 1093.14c-20.57 4.27-39.8-13.85-40.65-35.03-.78-19.26 4.03-36.23 15.9-51.3 6.42-8.15 13.85-10.27 23.57-7.1 11.14 3.61 19.36 10.96 26.21 20.02 3.62 4.8 6.71 9.99 9.98 15.04 16.3 25.24 1.13 53.46-26.43 57.73-2.83.44-5.72.43-8.58.64"/></g><path d="M93.57 16.33c5.24-1.55 7.67-7.58 4.92-15.3-1.92-5.38-5.65-9.27-10.54-12a106 106 0 0 0-29.64-11.16 377 377 0 0 0-30.48-5.16c-29.66-3.87-59.35-5.91-89.22-2.59-4.3.48-8.53.89-12.35 3.23-8.84 5.41-9.79 15.46-1.9 22.2 2.3 1.96 4.94 3.55 7.7 5.52-3.92 2.99-8.29 3.6-12.22 5.18-5.4 2.16-10.38 4.9-14.64 8.85-6.44 5.97-5.22 12.45 2.9 16.03 3.75 1.66 7.63 2.07 11.73 2.05 16.93-.1 33.8-1.3 50.7-2.19 0 0 92.08-8.41 123.04-14.66" style="display:block" transform="matrix(1,0,0,1,1027.6370849609375,945.7640380859375) matrix(1,0,0,1,101.48500061035156,33.45199966430664)"/><path d="M-90.9 40.76c-7.98-7.93-8.35-14.55-.96-23.08C-85.42 10.24-77.54 4.4-69.19-.61c14.51-8.7 29.95-15.64 45.5-22.27C-.16-32.9 23.9-41.2 49.21-45.55c3.21-.55 6.25-.7 9.35.02 10.14 2.4 14 11.77 8.37 20.55-1.65 2.58-3.71 4.89-6.15 8.06 5.95.43 10.97.88 16 1.15 5.57.3 10.76 2.02 15.6 4.53 6.1 3.17 6.86 9.28 2.02 14.21a24 24 0 0 1-10.2 6.18C68.59 14 52.72 17.88 36.82 21.6c-1.12.26-2.28.36-3.38.68L-72.1 43.48s-11.53 2.78-18.8-2.72" style="display:block" transform="matrix(1,0,0,1,1248.740966796875,900.2389526367188) matrix(1,0,0,1,99.49400329589844,46.50699996948242)"/></g><g style="display:block"><path fill="#1B1C1E" d="M1547.33 1828.17a310 310 0 0 1-.88 28.44 335 335 0 0 1-2.19 23 152 152 0 0 0-1.21 9.96c-1.53 23.79-6.56 46-13.31 68.86l-1.41 4.74c-6 20.7-13.25 41.52-22.9 60.83q-1.57 3.1-3.09 6.22c-7.42 15.6-16.5 30.08-26.41 44.23l-2.6 3.72a459 459 0 0 1-19.58 26.63 681 681 0 0 0-6.19 7.99 437 437 0 0 1-11.98 15.13q-3.46 4.09-6.86 8.22c-6.58 8.1-13.2 16.09-20.34 23.7a248 248 0 0 0-6 6.56c-6.17 7.2-12.91 13.82-19.84 20.29l-1.59 1.48c-2.53 2.37-4.93 4.6-7.97 6.3l-1.65.7v2l-2.06 1.85c-3.88 3.05-7.76 6.09-11.44 9.39a226 226 0 0 1-17.14 14.22 370 370 0 0 0-5.02 3.83c-17.75 13.9-36.89 25.5-57 35.72l-3.09 1.55a262 262 0 0 1-17.46 8.04 213 213 0 0 0-13.67 6.2l-1.85.96c-3.51 1.7-13.73 4.05-17.04 3.94-3.31.1-13.52-2.24-17.04-3.94l-1.85-.95c-4.5-2.23-9.01-4.3-13.66-6.21a260 260 0 0 1-17.46-8.04l-3.09-1.55c-20.12-10.21-39.25-21.81-57.01-35.72a369 369 0 0 0-5.01-3.83 224 224 0 0 1-17.14-14.22c-3.68-3.3-7.56-6.34-11.45-9.4l-2.05-1.84v-2l-1.65-.7c-3.05-1.7-5.45-3.93-7.98-6.3q-.78-.74-1.59-1.48c-6.93-6.47-13.67-13.08-19.83-20.3q-2.95-3.33-6-6.55c-7.15-7.61-13.76-15.6-20.34-23.7q-3.4-4.14-6.86-8.22a425 425 0 0 1-11.98-15.13 810 810 0 0 0-6.2-8 459 459 0 0 1-19.57-26.62l-2.61-3.72c-9.9-14.15-18.98-28.62-26.41-44.23q-1.5-3.13-3.09-6.22c-9.64-19.31-16.89-40.12-22.89-60.83l-1.42-4.74c-6.74-22.86-11.78-45.07-13.3-68.86-.28-3.35-.72-6.63-1.22-9.96a341 341 0 0 1-2.19-23l-.26-3.66a310 310 0 0 1-.61-24.78v-8l.06-2.4a896 896 0 0 1 2.21-46.62c.47-6.07.84-12.13 1.02-18.22 1.2-38.71 6.71-78.63 17.71-115.76l.56-1.91a745 745 0 0 1 17.44-52.1c5.41-.96 10.25-.95 15.71-.47l2.47.2q3.88.3 7.76.66l5.19.42 5.02.4 2.33.2c3.4.3 6.75.63 10.12 1.14 6.48.83 13.04.64 19.56.66l4.49.02q7.2.03 14.41.03h2.46c19.59.02 39.14.03 58.67-1.63l2.27-.2c38.96-3.4 78.1-14.16 111.72-34.51l2.55-1.53q2.38-1.47 4.74-2.98c5.45-3.34 8.65-4.23 13.29-4.12 4.64-.11 7.85.78 13.3 4.12a253 253 0 0 0 7.28 4.5c33.62 20.36 72.76 31.13 111.73 34.53l2.27.19c19.53 1.66 39.08 1.65 58.66 1.63h2.46q7.21 0 14.41-.03l4.5-.02c6.52-.02 13.07.17 19.55-.66 3.38-.51 6.73-.84 10.13-1.14l2.32-.2 5.03-.4 5.19-.42q3.88-.35 7.75-.66l2.47-.2c5.46-.48 10.31-.5 15.72.48a745 745 0 0 1 18 54c11 37.13 16.51 77.05 17.71 115.76.18 6.09.55 12.15 1.01 18.22a907 907 0 0 1 2.28 49.02z"/><path fill="#BCBCBC" d="m1231.99 1599.08 2.1.88 4.44 1.87 11.58 4.83 2.29.94a461 461 0 0 0 25.23 9.57l3.08 1.09c24.13 8.5 47.65 12.63 72.92 15.9-1.04 6.43-4.02 12.04-6.75 17.88l-.88 1.89c-9.32 19.94-20.65 38.57-32.41 57.15q-5.1 8.06-10.15 16.15l-1.89 3.01a296 296 0 0 0-7.24 12 22 22 0 0 1-4.68 5.93l-1 2 3.63.69c21.24 4.8 38.26 14.99 51.37 32.3l2.38 2.95c7.01 13.22 4.55 25.84.95 39.62-3.79 11.38-13.2 22.4-22.4 29.86a70 70 0 0 0-5.93 5.58l1.76.36c3.58.77 7.02 1.56 10.5 2.76 2.86.92 4.75 1.16 7.74.88 1.99-1.21 1.99-1.21 3.71-3.01l2.06-1.97 2.17-2.15 2.25-2.18q3.43-3.33 6.81-6.7l3.98-3.89a247 247 0 0 0 15.52-16.39 84 84 0 0 1 4.94-5.09c3.4-3.35 6.3-6.99 9.26-10.74 4.18-5.23 8.58-10.27 12.96-15.33l3.35-3.9a187 187 0 0 1 20.02-19.91 160 160 0 0 0 15.19-15.74c1.85-2.08 3.8-4.04 5.78-6a161 161 0 0 0 8.9-9.55q2.54-2.95 5.11-5.87a311 311 0 0 0 19-23.58c27.88 41.84 11.31 141 2 188a289 289 0 0 1-4.43 16.89c-1 3.61-1.81 7.27-2.64 10.92a299 299 0 0 1-13.85 43.8q-1.15 2.88-2.27 5.76a286 286 0 0 1-11.77 25.58l-3.13 6.2c-18.3 36.65-39.13 72.22-68.92 100.85a1407 1407 0 0 0-8.27 8.3c-11.03 11.13-11.03 11.13-16.96 16.14a88 88 0 0 0-5.4 5.3c-4.48 4.55-9.48 8.38-14.53 12.27-4 3.1-7.92 6.29-11.84 9.49-14.83 12.08-29.47 22.7-46.29 31.9q-4.5 2.46-8.92 5.04c-13.1 7.58-26.86 13.66-40.79 19.56l-2.69 1.16c-3.73 1.35-6.6.57-10.2-.96a164 164 0 0 1-6.55-3.39l-2.48-1.33a381 381 0 0 1-61.33-41.42 316 316 0 0 0-10.62-8.31 224 224 0 0 1-16.13-13.75l-4.62-4.13c-29.17-26.28-29.17-26.28-40.7-39.9-2.07-2.43-4.25-4.76-6.43-7.1-4.74-5.2-9.1-10.64-13.4-16.2a285 285 0 0 0-5.86-7.34c-9.36-11.35-16.94-23.47-24.13-36.3a110 110 0 0 0-5.07-7.42c-4.66-6.6-8.13-13.76-11.66-20.99l-2.14-4.34q-2.58-5.23-5.11-10.48l-2.3-4.67c-17.05-34.65-28.2-74.81-32.58-113.13q-.23-1.86-.44-3.8c-2.45-21.57-2.85-43.13-2.87-64.83l-.01-3.79a615 615 0 0 1 2.55-56.42c1.21-14.8 3.21-29.47 5.4-44.16l.52-3.54c7.14-48.18 7.14-48.18 13.85-67.46 6.83-.3 13.24-.26 19.96 1.07 12.9 2.5 25.8 2.35 38.9 2.26q5.9-.03 11.8 0c20.88-.03 41-1.15 61.41-5.68q3.59-.79 7.18-1.55a354 354 0 0 0 42.75-11.79l1.88-.65c14.27-4.97 28.53-10.07 42.22-16.48l3.03-1.42q2.85-1.35 5.7-2.75l2.58-1.24 2.25-1.1c5.52-1.57 10.66 1.1 15.7 3.24"/><path fill="#BCBCBC" d="M1479.63 1713.17c27.9 41.84 11.32 141 2 188a288 288 0 0 1-4.42 16.89c-1 3.61-1.81 7.27-2.64 10.92a299 299 0 0 1-13.85 43.8q-1.15 2.88-2.27 5.76a286 286 0 0 1-11.77 25.58q-1.59 3.1-3.13 6.2c-18.3 36.65-39.13 72.21-68.92 100.85q-4.15 4.13-8.27 8.3c-11.03 11.13-11.03 11.13-16.96 16.14a87 87 0 0 0-5.4 5.3c-4.48 4.55-9.48 8.38-14.53 12.27q-5.98 4.66-11.84 9.49c-14.83 12.07-29.47 22.7-46.29 31.9q-4.5 2.46-8.92 5.04c-13.1 7.58-26.86 13.65-40.79 19.56l-2.69 1.16c-3.73 1.35-6.6.57-10.2-.97a163 163 0 0 1-6.55-3.38l-2.48-1.33a381 381 0 0 1-61.33-41.42c-3.47-2.86-7.03-5.6-10.63-8.31a224 224 0 0 1-16.12-13.75l-4.63-4.13a940 940 0 0 1-13.62-12.56l-2.04-1.9a442 442 0 0 1-11.71-11.41c3.3-7.88 11.6-13.79 17.96-19.25a647 647 0 0 0 34.54-32.13l1.67-1.65c3.5-3.52 6.8-7.18 10.04-10.94 2.96-3.37 6.07-6.6 9.16-9.85a260 260 0 0 0 15-17.14c1.63-2.04 1.63-2.04 3.63-4.04.3-2.9.51-5.72.62-8.63l.12-2.43.26-5.94h1v55l7-1q3.07-.12 6.15-.1h3.35q1.7.03 3.44.03l3.51.02 8.55.05-1-3a91 91 0 0 1-.11-5.02v-3.1l.01-3.33v-3.42l.04-10.82.01-7.33.05-17.98 9.58-.03 2.72-.01c12.67-.02 12.67-.02 18.7 1.04 1 1 1 1 1.12 3.05v5.84l-.02 3.36v3.43l-.04 10.88-.01 7.36-.05 18.08h30l-.07-11.53-.04-11-.04-7.68-.05-11-.03-3.49v-3.21l-.01-2.84c.24-2.25.24-2.25 2.24-4.25 1.87-.24 1.87-.24 4.16-.24l2.57-.04 2.77-.04c9.8-.28 18.43-2.05 27.72-5.1q2.15-.7 4.33-1.33c22.75-6.87 44.7-20.54 56.48-41.8 5.46-10.4 7.31-18.9 7.28-30.58l.05-3.47c.01-18.3-5.9-30.58-18.45-43.6a72 72 0 0 0-19.91-13.8l2.07-1.6c3.42-2.8 6.64-5.76 9.87-8.78l1.97-1.84c8.86-8.34 17.72-16.77 25.59-26.07a84 84 0 0 1 4.94-5.09 110 110 0 0 0 9.25-10.74c4.19-5.23 8.59-10.27 12.97-15.33l3.35-3.9a187 187 0 0 1 20.02-19.91c5.5-4.86 9.41-10.19 14.19-15.74 1.85-2.09 4.58-4.62 6.57-6.57 2.6-3.17 5.93-6.02 8.78-9.33 1.7-1.97 4.68-5.07 6.4-7.01 6.7-7.62 12.1-13.86 18.03-22.1"/><path fill="#8D97A0" d="M1230.18 1586.3q3.1 1.41 6.2 2.87l6.69 3.03 3.35 1.53c10.86 4.87 21.91 9.34 33.38 12.55 3.4 1.07 6.57 2.47 9.83 3.89 13.87 5.58 27.77 7.75 42.58 9.5 2.76.4 5.45.9 8.18 1.45 20.89 4.25 41.6 4.46 62.81 4.31l9.5-.03 11.58-.03h2.14q13.63-.06 27.25-.95c15.02-.95 15.02-.95 18.96-.25 7.73 10.81 8.7 26.49 10.87 39.25l2.63 15.13q1.92 11.08 4 22.13c6.68 35.86 11.44 71.95 10.5 108.49l-.13 7.26c-.72 33.67-3.21 68.1-11.87 100.74l-.86 3.3q-3.48 13.37-7.14 26.7l-.8 2.95c-3.48 12.61-8.03 24.6-13.16 36.62q-1.36 3.17-2.67 6.36c-7.5 17.98-17.04 35-26.37 52.07l-1.58 2.91a261 261 0 0 1-22.82 35 396 396 0 0 0-4.29 5.7c-7.4 9.96-15.75 19-24.62 27.67a102 102 0 0 0-4.9 5.46c-3.6 4.13-7.45 7.87-11.48 11.57l-2.11 1.96-4.23 3.91q-2.62 2.42-5.22 4.85a452 452 0 0 1-30.6 25.91 303 303 0 0 0-11.02 9.06c-22.44 18.7-49.9 34.43-77.13 45l-5.25 2.12-2.45.96q-2.19.88-4.35 1.83c-6.26 2.68-12.33 3.3-18.88 1.1a174 174 0 0 1-9.32-4.45l-3.34-1.66a199 199 0 0 1-23.4-13.9l-3.5-2.2a238 238 0 0 1-21.67-15.35q-4.21-3.31-8.45-6.59-3.5-2.7-6.96-5.42a966 966 0 0 0-8.2-6.33 241 241 0 0 1-19.18-16.4c-3.5-3.32-7.09-6.45-10.86-9.46-7.13-5.73-13.3-12.15-19.24-19.09a180 180 0 0 0-7.45-7.66c-3.7-3.67-7.27-7.4-10.64-11.37-2.28-2.62-4.67-5.11-7.05-7.63-6.02-6.47-11.22-13.5-16.43-20.62-1.96-2.68-3.99-5.3-6-7.94-26.38-35.34-46.57-76.14-60.38-117.94l-.86-2.6c-4.32-13.26-7.48-26.77-10.47-40.37l-1.83-8.1c-4.25-18.85-6.24-37.75-6.68-57.05-.14-2.54-.39-5.04-.66-7.57-.53-5.18-.66-10.29-.67-15.49l-.01-2.88v-12.45c0-14.66.3-29.28 1.12-43.93l.13-2.41c.73-12.95.73-12.95 1.93-14.15q.3-2.33.46-4.67l.24-2.96.46-6.1c.5-6.3 1.27-12.5 2.28-18.75q.75-4.74 1.44-9.5a831 831 0 0 1 9.87-55.02l.6-2.77 1.7-7.8.5-2.32c2.5-11.17 2.5-11.16 5.45-14.11 2.85-.2 5.59-.28 8.44-.25l2.23-.03c4.8.02 9.46.4 14.22 1 13.61 1.66 27.25 1.62 40.94 1.6q4.27-.01 8.56.01c22.77.15 45.19-.84 67.42-6.2l3.06-.7q3.22-.75 6.45-1.54a483 483 0 0 1 8.05-1.87c13.11-3.02 25.58-7.37 38.16-12.13q5.04-1.9 10.09-3.77c10.09-3.76 20-7.57 29.52-12.64 8.63-4.48 14.36-6.14 23.4-2.36m-15.73 10.67-2.52 1.2-2.74 1.31c-12.37 5.77-25.04 10.65-37.86 15.33q-5.34 1.96-10.66 4c-17.67 6.54-35.5 10.62-53.97 14.17q-5.26 1-10.48 2.22c-17.18 3.84-35.35 3.31-52.84 3.28q-5.9 0-11.83.05c-12.56.03-24.66-.26-37.01-2.7-5.99-1.02-11.84-.93-17.9-.66-12.25 41.52-18.06 85.88-21 129l-.29 3.61c-.97 14.01-.96 28.04-.97 42.08v2c-.03 38.14 2.14 75.4 12.44 112.3q1.14 4.29 2.16 8.61a292 292 0 0 0 8.15 27.33l.81 2.35c4.78 13.65 10.62 26.68 17 39.65l1.28 2.6c6.5 13.14 13.16 26.15 21.77 38.06 1.69 2.48 3.07 5 4.45 7.66 6.6 12.39 15.8 23.17 24.7 33.94q1.94 2.38 3.86 4.77c4.7 5.88 9.69 11.44 14.85 16.92q4.17 4.41 8.15 9a237 237 0 0 0 12.07 12.68l2.16 2.17q6.01 6 12.44 11.55c2.64 2.31 5.16 4.73 7.7 7.16a222 222 0 0 0 21.64 18.34c2.91 2.19 5.76 4.46 8.62 6.72l3.54 2.78 5.1 4.02c17.7 13.99 36.95 25.7 56.74 36.51l2.35 1.33 2.23 1.19 1.93 1.05c4.76 1.39 9.33-.7 13.71-2.54l3.2-1.33 3.39-1.45q1.73-.75 3.52-1.5a300 300 0 0 0 26.83-13.2q4.06-2.24 8.14-4.46c15.87-8.71 30.48-18.31 44.14-30.19a243 243 0 0 1 10.18-8.21c9.75-7.6 19.1-15.38 27.73-24.23 2.64-2.65 5.43-5.06 8.26-7.49 3.84-3.41 7.4-7.12 11.01-10.78q3.76-3.78 7.58-7.51a196 196 0 0 0 17.42-19.5l2.89-3.59c21.97-27.67 38.48-59.33 53.16-91.35q1.3-2.8 2.63-5.58c12.46-26.2 20-54.25 26.32-82.47l.83-3.62c12.5-57.88 15.15-127.63.17-185.38l-2-3-1.95 2.53c-10.7 13.84-22.24 26.83-34.25 39.55a742 742 0 0 0-5.46 5.89c-5.8 7.46-13.14 14.75-20.7 21.73-8.12 7.53-15.35 15.83-23.23 24.34-6.7 8.22-13.59 17.17-21.27 24.5a102 102 0 0 0-5.12 5.5c-3.88 4.47-8.26 8.35-12.46 12.52q-1.05 1.07-2.16 2.17-5.24 5.26-10.7 10.29l-1.87 1.73c-1.83 1.25-1.83 1.25-5.7 1.37-1.97-.45-1.97-.45-4.13-1.12l-2.66-.77q-2.63-.77-5.24-1.61c-3.96 2.22-3.3.24-4.1-.62a83 83 0 0 1 7.17-6.78c14.1-11.72 21.63-27.01 23.83-45.22-20.82-7.07-42.13-21.5-50-31l-1.62-2.15c-10.86-13.7-6.63-15.59-6.38-25.85h-3c.93-2.08 1.72-3.73 3.37-5.32 2.02-2.09 3.38-4.33 4.9-6.82l8.34-13.69 1.11-1.83q4.45-7.24 9-14.43c11.76-18.62 22.9-37.38 32.22-57.35l.94-2q1.3-2.8 2.58-5.62l1.5-3.26c1.22-2.67 1.22-2.67 1.04-5.68l-2.82-.4-15.22-2.16c-18.01-2.53-35.21-6.06-52.33-12.25l-4.73-1.69a1031 1031 0 0 1-44.72-17.48l-2.03-.84a79 79 0 0 1-7.35-3.37c-3.73-1.68-6.55-.68-9.98.99"/><path fill="#040405" d="M1230.18 1586.3q3.1 1.41 6.2 2.87l6.69 3.03 3.35 1.53c10.86 4.87 21.91 9.34 33.38 12.55 3.4 1.07 6.57 2.47 9.83 3.89 13.87 5.58 27.77 7.75 42.58 9.5 2.76.4 5.45.9 8.18 1.45 20.89 4.25 41.6 4.46 62.81 4.31l9.5-.03 11.58-.03h2.14q13.63-.06 27.25-.95c15.02-.95 15.02-.95 18.96-.25 7.73 10.81 8.7 26.49 10.87 39.25l2.63 15.13q1.92 11.08 4 22.13c6.68 35.86 11.44 71.95 10.5 108.49l-.13 7.26c-.72 33.67-3.21 68.1-11.87 100.74l-.86 3.3q-3.48 13.37-7.14 26.7l-.8 2.95c-3.48 12.61-8.03 24.6-13.16 36.62q-1.36 3.17-2.67 6.36c-7.5 17.98-17.04 35-26.37 52.07l-1.58 2.91a261 261 0 0 1-22.82 35 396 396 0 0 0-4.29 5.7c-7.4 9.96-15.75 19-24.62 27.67a102 102 0 0 0-4.9 5.46c-3.6 4.13-7.45 7.87-11.48 11.57l-2.11 1.96-4.23 3.91q-2.62 2.42-5.22 4.85a452 452 0 0 1-30.6 25.91 303 303 0 0 0-11.02 9.06c-22.44 18.7-49.9 34.43-77.13 45l-5.25 2.12-2.45.96q-2.19.88-4.35 1.83c-6.26 2.68-12.33 3.3-18.88 1.1a174 174 0 0 1-9.32-4.45l-3.34-1.66a199 199 0 0 1-23.4-13.9l-3.5-2.2a238 238 0 0 1-21.67-15.35q-4.21-3.31-8.45-6.59-3.5-2.7-6.96-5.42a966 966 0 0 0-8.2-6.33 241 241 0 0 1-19.18-16.4c-3.5-3.32-7.09-6.45-10.86-9.46-7.13-5.73-13.3-12.15-19.24-19.09a180 180 0 0 0-7.45-7.66c-3.7-3.67-7.27-7.4-10.64-11.37-2.28-2.62-4.67-5.11-7.05-7.63-6.02-6.47-11.22-13.5-16.43-20.62-1.96-2.68-3.99-5.3-6-7.94-26.38-35.34-46.57-76.14-60.38-117.94l-.86-2.6c-4.32-13.26-7.48-26.77-10.47-40.37l-1.83-8.1c-4.25-18.85-6.24-37.75-6.68-57.05-.14-2.54-.39-5.04-.66-7.57-.53-5.18-.66-10.29-.67-15.49l-.01-2.88v-12.45c0-14.66.3-29.28 1.12-43.93l.13-2.41c.73-12.95.73-12.95 1.93-14.15q.3-2.33.46-4.67l.24-2.96.46-6.1c.5-6.3 1.27-12.5 2.28-18.75q.75-4.74 1.44-9.5a831 831 0 0 1 9.87-55.02l.6-2.77 1.7-7.8.5-2.32c2.5-11.17 2.5-11.16 5.45-14.11 2.85-.2 5.59-.28 8.44-.25l2.23-.03c4.8.02 9.46.4 14.22 1 13.61 1.66 27.25 1.62 40.94 1.6q4.27-.01 8.56.01c22.77.15 45.19-.84 67.42-6.2l3.06-.7q3.22-.75 6.45-1.54a483 483 0 0 1 8.05-1.87c13.11-3.02 25.58-7.37 38.16-12.13q5.04-1.9 10.09-3.77c10.09-3.76 20-7.57 29.52-12.64 8.63-4.48 14.36-6.14 23.4-2.36m-15.73 10.67-2.52 1.2-2.74 1.31c-12.37 5.77-25.04 10.65-37.86 15.33q-5.34 1.96-10.66 4c-17.67 6.54-35.5 10.62-53.97 14.17q-5.26 1-10.48 2.22c-17.18 3.84-35.35 3.31-52.84 3.28q-5.9 0-11.83.05c-12.56.03-24.66-.26-37.01-2.7-5.99-1.02-11.84-.93-17.9-.66-12.25 41.52-18.06 85.88-21 129l-.29 3.61c-.97 14.01-.96 28.04-.97 42.08v2c-.03 38.14 2.14 75.4 12.44 112.3q1.14 4.29 2.16 8.61a292 292 0 0 0 8.15 27.33l.81 2.35c4.78 13.65 10.62 26.68 17 39.65l1.28 2.6c6.5 13.14 13.16 26.15 21.77 38.06 1.69 2.48 3.07 5 4.45 7.66 6.6 12.39 15.8 23.17 24.7 33.94q1.94 2.38 3.86 4.77c4.7 5.88 9.69 11.44 14.85 16.92q4.17 4.41 8.15 9a237 237 0 0 0 12.07 12.68l2.16 2.17q6.01 6 12.44 11.55c2.64 2.31 5.16 4.73 7.7 7.16a222 222 0 0 0 21.64 18.34c2.91 2.19 5.76 4.46 8.62 6.72l3.54 2.78 5.1 4.02c17.7 13.99 36.95 25.7 56.74 36.51l2.35 1.33 2.23 1.19 1.93 1.05c4.76 1.39 9.33-.7 13.71-2.54l3.2-1.33 3.39-1.45q1.73-.75 3.52-1.5c9.2-3.98 18.08-8.33 26.83-13.2q4.06-2.24 8.14-4.46c15.87-8.71 30.48-18.31 44.14-30.19a243 243 0 0 1 10.18-8.21c9.75-7.6 19.1-15.38 27.73-24.23 2.64-2.65 5.43-5.06 8.26-7.49 3.84-3.41 7.4-7.12 11.01-10.78q3.76-3.78 7.58-7.51a196 196 0 0 0 17.42-19.5l2.89-3.59c21.97-27.67 38.48-59.33 53.16-91.35q1.3-2.8 2.63-5.58c12.46-26.2 20-54.25 26.32-82.47l.83-3.62c15.15-70.15 10.41-143.89-4.29-213.62a408 408 0 0 1-3.01-16.4l-.4-2.34-1.94-11.72c-1.25-7.6-2.66-15-5.19-22.3q-4.65-.05-9.31-.06l-2.61-.03c-4.54-.02-8.98.13-13.5.58-5.89.59-11.72.66-17.64.63h-3.55a2061 2061 0 0 1-36.53-.54c-17.12-.31-34-1.78-50.92-4.46l-3-.45c-15.94-2.47-31.15-6-46.31-11.48l-4.73-1.69a1031 1031 0 0 1-44.72-17.48l-2.03-.84a79 79 0 0 1-7.35-3.37c-3.73-1.68-6.55-.68-9.98.99"/><path fill="#8C97A0" d="M1466.63 1953.17c1 2 1 2 .32 4.26l-1.2 2.99-1.4 3.52-.82 2.01q-1.5 3.7-2.96 7.4l-2.25 5.63-1.04 2.62c-3.12 7.7-6.81 15.06-10.58 22.45l-3.16 6.29c-18.31 36.63-39.13 72.2-68.91 100.83q-4.15 4.13-8.27 8.3c-11.03 11.13-11.03 11.13-16.96 16.14a87 87 0 0 0-5.4 5.3c-4.48 4.55-9.48 8.38-14.53 12.27q-5.98 4.66-11.84 9.49c-14.83 12.08-29.47 22.7-46.29 31.9q-4.5 2.46-8.92 5.04c-13.1 7.58-26.86 13.65-40.79 19.56l-2.69 1.16c-3.77 1.37-6.65.56-10.28-1.01q-3.43-1.69-6.78-3.53l-2.48-1.32c-8.8-4.75-17.3-9.98-25.77-15.3 3.92-4.37 7.94-6.78 13.12-9.44 9.5-5.08 17.93-11.22 26.47-17.74 3.22-2.44 6.48-4.8 9.74-7.18 7.1-5.19 14.07-10.5 20.9-16.04a515 515 0 0 1 15.58-11.98 1398 1398 0 0 0 25.95-19.88l9.19-7.14 12.99-10.1a546 546 0 0 0 19.96-16.17c4.44-3.8 8.95-7.5 13.47-11.2a745 745 0 0 0 18.37-15.58q5.47-4.77 11.13-9.3c4.3-3.48 8.18-7.2 12.04-11.15 5.51-5.55 11.64-10.38 17.71-15.29 17.44-14.14 34.3-28.58 47.89-46.59 3.16-4.17 6.7-7.96 10.25-11.8a280 280 0 0 0 8.24-9.42"/><path fill="#8D98A1" d="M1145.63 1896.17h1q.12 8.42.16 16.84l.07 5.7c.13 10.25-.06 20.31-1.5 30.47q-.14 1.22-.32 2.48c-.9 5.66-2.46 10.18-7.13 13.86-10.37 4.85-20.93 6.16-32.28 6.65l.5 1.5c.7 3.45.62 6.83.6 10.33v2.27l-.04 7.15-.01 4.86-.05 11.89 2.11-.99c3.23-1.13 5.69-1.26 9.1-1.24h3.73l4 .04 4.1.02c14.33.09 28.65.59 42.96 1.17 1.53 14.46 1.53 14.46-1.98 20.3a114 114 0 0 1-8.02 7.7 127 127 0 0 0-3.38 3.87c-4.05 4.66-8.26 9.18-12.46 13.71a835 835 0 0 0-6.04 6.58 558 558 0 0 1-17.37 18.21l-1.97 1.98a223 223 0 0 1-11.83 10.95c-3.05 2.66-6 5.43-8.95 8.2a468 468 0 0 1-17.04 15.25l-4.96 4.25c-4.22-4.1-8.23-8.33-12.07-12.8q-3.29-3.7-6.68-7.33c-4.74-5.2-9.1-10.64-13.4-16.2a281 281 0 0 0-5.86-7.34c-9.53-11.55-17.66-23.72-23.99-37.33l1.3-1.1c6.17-5.26 11.88-10.93 17.6-16.67q2.49-2.5 4.99-4.98a272 272 0 0 0 14.75-15.68 76 76 0 0 1 5.23-5.38c3.88-3.82 7.23-7.95 10.64-12.2 4.19-5.04 8.7-9.78 13.18-14.58a329 329 0 0 0 9.57-10.88l7.56-8.82q3.12-3.64 6.27-7.27a317 317 0 0 0 13.97-17.07c3.73-4.95 7.71-9.53 11.95-14.04 3.76-4 7.18-8.22 10.53-12.57z"/><path fill="#B8B8B8" d="M1220.63 1554.17c3.66 1.08 6.96 2.96 10.32 4.76l6.37 3.36c33.4 17.5 69.31 28.92 106.93 32.94l2.29.25a307 307 0 0 0 18.7 1.35c3.02.14 5.5.37 8.39 1.34q2.97.15 5.93.16l7.79.04 4.2.02 11.26.03h4.64c21.77.03 43.21-.62 64.88-2.96 7.75-.69 15.53-.55 23.3-.3l1 5-2.21.34-3.17.48-3.65.55q-3.89.61-7.75 1.37c-13.78 2.63-27.66 3.29-41.64 4.02-2.66.18-5.25.44-7.89.77-4.95.56-9.84.62-14.82.61h-17.82c-17.6.01-34.75-.97-52.18-3.38l-2.43-.33c-17.3-2.39-34.35-5.3-50.86-11.18a158 158 0 0 0-9.7-2.96c-20.17-5.6-41.5-14.69-58.88-26.28-3.17.38-4.54 1.35-7.32 3.19-6.08 3.9-12.9 6.24-19.62 8.8a5610 5610 0 0 0-27.22 10.64q-2.22.9-4.46 1.77l-6.4 2.56c-7.58 3.02-15.11 5.88-22.98 8.04l-3.04.88c-6.8 1.8-13.54 2.78-20.52 3.5a87 87 0 0 0-10.67 2.14c-9.34 2.04-18.63 2.06-28.15 2.17l-5.95.08q-6.21.09-12.43.15-7.58.1-15.14.28c-30.45.68-59.95-1.97-90.1-6.2-1.13-4.75-1.13-4.75 0-7 27.01-.3 27.01-.3 35.3 1.5 3.11.57 6.1.71 9.26.81l1.96.07q11.9.36 23.83.56l7.96.18c21.54.48 42.76 0 64.19-2.3l2.83-.3a265 265 0 0 0 37.45-6.97c3.2-.8 6.42-1.46 9.66-2.11 19.98-4.26 38.52-11.78 56.87-20.63l1.9-.9c8.4-4.06 8.4-4.06 16.33-8.96z"/><path fill="#BDBDBD" d="M1294.63 1903.17c6.83 3.74 10.74 8.91 13.04 16.38 2.71 11.78 3.05 20.77-2.6 31.62-11.51 14.16-26.8 19.5-44.44 22l-2.76.4c-10.99 1.2-22.2.68-33.24.6 5.41-6.57 11.38-12.55 17.4-18.56l3.32-3.34 6.97-6.98 8.85-8.88 10.14-10.17c5.8-5.83 11.62-11.35 18.26-16.25 2.3-2.04 3.6-4.12 5.06-6.82m-36-119c-5.1 8.12-11.01 15.53-17 23l-2.36 2.95a334 334 0 0 1-14.3 16.49q-3 3.3-5.9 6.68c-3.92 4.52-8.18 8.7-12.44 12.88l-2 2a7547 7547 0 0 1-.15-34.14l-.04-10.45q0-2.96-.04-5.92v-3.64l-.01-3.21c.24-2.64.24-2.64 2.24-5.64 14.65-5.3 37-4.94 52-1"/><path fill="#FEFEFE" d="M1367.63 1894.17c-11.2-15.64-26.2-28.03-45.25-32.31l-3.75-.7a70 70 0 0 1 5.94-5.57c9.19-7.45 18.6-18.48 22.4-29.86 3.58-13.78 6.05-26.4-.97-39.62l-2.37-2.94c-11.2-14.8-24.51-23.9-41.93-29.95l-2.76-.93c-3.79-1.32-7.34-2.2-11.31-3.12l-20-2-1-55h-30v54h-31v-55l-32-1v55h-73v31c10.1.77 20.72 1.04 30.44 4.31 6.55 3.1 9.95 6.63 12.9 13.11l.66 1.58h2l.07 53.11c.04 23.44.14 46.9-.4 70.33l-.05 2.46c-.25 12.83 1.19 30.97-6.5 41.72-7.47 5.68-16.67 6.84-25.78 7.78-2.95.3-5.51.66-8.34 1.6l1 38c4.63-1.06 4.63-1.06 7.95-1.12l13.16.02a4284 4284 0 0 1 21.92.05q11.99.01 23.97.05v55l32-1-1-54 31 2 1 51h30l.3-18.8.14-7.64.18-11.31.06-3.56.05-3.5.06-3.21a87 87 0 0 1 .21-4.98c1-1.22 1-1.22 3-1.2l2.58-.08 2.83-.12 5.91-.2 2.83-.12q2.42-.09 4.85-.28c1.64-.55 3.3-1.08 4.99-1.5 9.16-2.11 18.35-4.1 26.95-8l3.06-1.5c8.97-4.3 17.48-8.52 24.67-15.56l2.33-2.44c6.14-6.25 12.05-12.54 16.5-20.15l1.5-2.85a47 47 0 0 0 4.61-11.57c2.57-16.14 2.22-35.26-6.61-49.43m-161-109c8.16-2.96 16.75-2.72 25.32-3.1 15.44-.64 30.18.91 43.68 9.1l2.39 1.33c7.02 4.21 10.91 9.5 13.98 17.04 1.56 9.04 1.28 18.33-2.87 26.63-13.15 15.78-30.94 20.86-50.88 22.69-6.97.4-13.95.4-20.93.43l-3.42.02h-3.2l-2.88-.01c-2.2-.13-2.2-.13-3.2-1.13a145 145 0 0 1-.15-8.55v-6.76l-.02-4.68v-9.83q0-6.3-.04-12.6l-.02-14.33v-10.24c.24-3.01.24-3.01 2.24-6.01m91.81 173.44c-18.54 16.16-45.9 15.74-69.03 15.69h-17.42c-6.25-.02-6.25-.02-7.36-1.13q-.14-3.46-.15-6.94v-2.2q-.03-3.6-.02-7.23v-5q-.03-5.26-.02-10.53 0-6.75-.03-13.49l-.02-15.33v-6.96l-.02-2.08c.02-3.55.18-6.28 2.26-9.24 2-.6 2-.6 4.43-.72l2.72-.16 2.85-.12 2.68-.16c8.16-.47 16.33-.67 24.5-.95 20.34-.62 39.12 1.2 55.88 13.92 7.83 7.47 9.82 18.43 10.25 28.81-.26 9.69-4.8 17.09-11.5 23.82"/></g></g></g></svg>
