<?xml version="1.0" encoding="UTF-8" standalone="no"?>
<!-- Created with Inkscape (http://www.inkscape.org/) -->

<svg
   xmlns:dc="http://purl.org/dc/elements/1.1/"
   xmlns:cc="http://creativecommons.org/ns#"
   xmlns:rdf="http://www.w3.org/1999/02/22-rdf-syntax-ns#"
   xmlns:svg="http://www.w3.org/2000/svg"
   xmlns="http://www.w3.org/2000/svg"
   xmlns:sodipodi="http://sodipodi.sourceforge.net/DTD/sodipodi-0.dtd"
   xmlns:inkscape="http://www.inkscape.org/namespaces/inkscape"
   width="600"
   height="100"
   id="svg2"
   version="1.1"
   inkscape:version="0.48.5 r10040"
   sodipodi:docname="bank-receiving-privacy_orig.svg">
  <defs
     id="defs4">
    <marker
       inkscape:stockid="Arrow2Lend"
       orient="auto"
       refY="0"
       refX="0"
       id="Arrow2Lend"
       style="overflow:visible">
      <path
         id="path3976"
         style="fill-rule:evenodd;stroke-width:0.625;stroke-linejoin:round"
         d="M 8.7185878,4.0337352 -2.2072895,0.01601326 8.7185884,-4.0017078 c -1.7454984,2.3720609 -1.7354408,5.6174519 -6e-7,8.035443 z"
         transform="matrix(-1.1,0,0,-1.1,-1.1,0)"
         inkscape:connector-curvature="0" />
    </marker>
    <marker
       inkscape:stockid="Arrow2Mend"
       orient="auto"
       refY="0"
       refX="0"
       id="Arrow2Mend"
       style="overflow:visible">
      <path
         id="path3982"
         style="fill-rule:evenodd;stroke-width:0.625;stroke-linejoin:round"
         d="M 8.7185878,4.0337352 -2.2072895,0.01601326 8.7185884,-4.0017078 c -1.7454984,2.3720609 -1.7354408,5.6174519 -6e-7,8.035443 z"
         transform="scale(-0.6,-0.6)"
         inkscape:connector-curvature="0" />
    </marker>
    <inkscape:path-effect
       effect="spiro"
       id="path-effect3001"
       is_visible="true" />
    <marker
       inkscape:stockid="Arrow2Lend"
       orient="auto"
       refY="0"
       refX="0"
       id="Arrow2Lend-6"
       style="overflow:visible">
      <path
         inkscape:connector-curvature="0"
         id="path3976-9"
         style="fill-rule:evenodd;stroke-width:0.625;stroke-linejoin:round"
         d="M 8.7185878,4.0337352 -2.2072895,0.01601326 8.7185884,-4.0017078 c -1.7454984,2.3720609 -1.7354408,5.6174519 -6e-7,8.035443 z"
         transform="matrix(-1.1,0,0,-1.1,-1.1,0)" />
    </marker>
    <inkscape:path-effect
       effect="spiro"
       id="path-effect3001-7"
       is_visible="true" />
  </defs>
  <sodipodi:namedview
     id="base"
     pagecolor="#ffffff"
     bordercolor="#666666"
     borderopacity="1.0"
     inkscape:pageopacity="0.0"
     inkscape:pageshadow="2"
     inkscape:zoom="1"
     inkscape:cx="307.85714"
     inkscape:cy="138.26386"
     inkscape:document-units="px"
     inkscape:current-layer="layer1"
     showgrid="false"
     inkscape:window-width="1278"
     inkscape:window-height="762"
     inkscape:window-x="0"
     inkscape:window-y="0"
     inkscape:window-maximized="0" />
  <metadata
     id="metadata7">
    <rdf:RDF>
      <cc:Work
         rdf:about="">
        <dc:format>image/svg+xml</dc:format>
        <dc:type
           rdf:resource="http://purl.org/dc/dcmitype/StillImage" />
        <dc:title></dc:title>
      </cc:Work>
    </rdf:RDF>
  </metadata>
  <g
     inkscape:label="Layer 1"
     inkscape:groupmode="layer"
     id="layer1"
     transform="translate(0,-952.36218)">
    <g
       id="g4732">
      <g
         style="font-size:24px;font-style:normal;font-weight:normal;text-align:center;line-height:125%;letter-spacing:0px;word-spacing:0px;text-anchor:middle;fill:#000000;fill-opacity:1;stroke:none;font-family:Sans"
         id="text2985">
        <path
           d="m 218.03098,987.95398 0,6.41016 3.79687,0 c 1.27343,0 2.21483,-0.26172 2.82422,-0.78516 0.61717,-0.53125 0.92577,-1.33984 0.92578,-2.42578 -1e-5,-1.09375 -0.30861,-1.89843 -0.92578,-2.41406 -0.60939,-0.52343 -1.55079,-0.78515 -2.82422,-0.78516 l -3.79687,0 m 0,-7.19531 0,5.27343 3.5039,0 c 1.15624,10e-6 2.01562,-0.21483 2.57813,-0.64453 0.5703,-0.43749 0.85545,-1.10155 0.85547,-1.99218 -2e-5,-0.8828 -0.28517,-1.54296 -0.85547,-1.98047 -0.56251,-0.43749 -1.42189,-0.65624 -2.57813,-0.65625 l -3.5039,0 m -2.36719,-1.94532 6.04687,0 c 1.80468,2e-5 3.1953,0.37502 4.17188,1.125 0.97655,0.75002 1.46483,1.81643 1.46484,3.19922 -10e-6,1.07033 -0.25001,1.92189 -0.75,2.55469 -0.50001,0.63282 -1.23439,1.02735 -2.20312,1.18359 1.16405,0.25001 2.06639,0.77345 2.70703,1.57032 0.64842,0.78907 0.97264,1.77735 0.97265,2.96484 -1e-5,1.5625 -0.53126,2.76953 -1.59375,3.62109 -1.06251,0.85157 -2.57423,1.27735 -4.53515,1.27735 l -6.28125,0 0,-17.4961"
           style=""
           id="path4757" />
        <path
           d="m 232.02316,983.18445 2.15625,0 0,13.125 -2.15625,0 0,-13.125 m 0,-5.10938 2.15625,0 0,2.73047 -2.15625,0 0,-2.73047"
           style=""
           id="path4759" />
        <path
           d="m 240.81223,979.45789 0,3.72656 4.4414,0 0,1.67578 -4.4414,0 0,7.125 c -1e-5,1.07032 0.14452,1.75781 0.43359,2.0625 0.29687,0.30469 0.89452,0.45703 1.79297,0.45703 l 2.21484,0 0,1.80469 -2.21484,0 c -1.66407,0 -2.81251,-0.3086 -3.44531,-0.92578 -0.63282,-0.625 -0.94923,-1.75781 -0.94922,-3.39844 l 0,-7.125 -1.58203,0 0,-1.67578 1.58203,0 0,-3.72656 2.16797,0"
           style=""
           id="path4761" />
        <path
           d="m 257.5466,983.68835 0,2.01563 c -0.60939,-0.33593 -1.22267,-0.58593 -1.83984,-0.75 -0.60939,-0.17186 -1.22657,-0.2578 -1.85157,-0.25781 -1.39844,10e-6 -2.48438,0.44532 -3.25781,1.33593 -0.77344,0.88283 -1.16016,2.12501 -1.16015,3.72657 -1e-5,1.60156 0.38671,2.84766 1.16015,3.73828 0.77343,0.88281 1.85937,1.32422 3.25781,1.32422 0.625,0 1.24218,-0.082 1.85157,-0.2461 0.61717,-0.17187 1.23045,-0.42578 1.83984,-0.76172 l 0,1.99219 c -0.60157,0.28125 -1.22657,0.49219 -1.875,0.63281 -0.64063,0.14063 -1.32423,0.21094 -2.05078,0.21094 -1.97657,0 -3.54688,-0.62109 -4.71094,-1.86328 -1.16406,-1.24218 -1.74609,-2.91796 -1.74609,-5.02734 0,-2.14062 0.58593,-3.82421 1.75781,-5.05078 1.17968,-1.22655 2.79296,-1.83983 4.83984,-1.83985 0.66406,2e-5 1.31249,0.0703 1.94532,0.21094 0.6328,0.13283 1.24608,0.33595 1.83984,0.60937"
           style=""
           id="path4763" />
        <path
           d="m 266.3591,984.69617 c -1.15626,10e-6 -2.07032,0.45313 -2.74219,1.35937 -0.67188,0.89845 -1.00781,2.13282 -1.00781,3.70313 0,1.57031 0.33203,2.80859 0.99609,3.71484 0.67187,0.89844 1.58984,1.34766 2.75391,1.34766 1.14843,0 2.05858,-0.45313 2.73047,-1.35938 0.67186,-0.90624 1.0078,-2.14062 1.00781,-3.70312 -10e-6,-1.55468 -0.33595,-2.78515 -1.00781,-3.69141 -0.67189,-0.91405 -1.58204,-1.37108 -2.73047,-1.37109 m 0,-1.82813 c 1.87499,2e-5 3.34765,0.60939 4.41797,1.82813 1.0703,1.21876 1.60545,2.90626 1.60547,5.0625 -2e-5,2.14844 -0.53517,3.83594 -1.60547,5.0625 -1.07032,1.21875 -2.54298,1.82812 -4.41797,1.82812 -1.88282,0 -3.35938,-0.60937 -4.42969,-1.82812 -1.0625,-1.22656 -1.59375,-2.91406 -1.59375,-5.0625 0,-2.15624 0.53125,-3.84374 1.59375,-5.0625 1.07031,-1.21874 2.54687,-1.82811 4.42969,-1.82813"
           style=""
           id="path4765" />
        <path
           d="m 275.94504,983.18445 2.15625,0 0,13.125 -2.15625,0 0,-13.125 m 0,-5.10938 2.15625,0 0,2.73047 -2.15625,0 0,-2.73047"
           style=""
           id="path4767" />
        <path
           d="m 293.51144,988.38757 0,7.92188 -2.15625,0 0,-7.85156 c -10e-6,-1.24218 -0.24219,-2.17187 -0.72656,-2.78907 -0.48438,-0.61717 -1.21094,-0.92577 -2.17969,-0.92578 -1.16407,1e-5 -2.08203,0.37111 -2.7539,1.11328 -0.67188,0.7422 -1.00782,1.75392 -1.00781,3.03516 l 0,7.41797 -2.16797,0 0,-13.125 2.16797,0 0,2.03906 c 0.51562,-0.78905 1.12108,-1.37889 1.8164,-1.76953 0.70312,-0.39061 1.51171,-0.58592 2.42578,-0.58594 1.50781,2e-5 2.64843,0.46876 3.42188,1.40625 0.77342,0.9297 1.16014,2.30079 1.16015,4.11328"
           style=""
           id="path4769" />
        <path
           d="m 236.57004,1019.7587 c -1e-5,-1.586 -0.32814,-2.8281 -0.98438,-3.7266 -0.64844,-0.9062 -1.54298,-1.3594 -2.68359,-1.3594 -1.14063,0 -2.03907,0.4532 -2.69531,1.3594 -0.64845,0.8985 -0.97266,2.1406 -0.97266,3.7266 0,1.5859 0.32421,2.832 0.97266,3.7382 0.65624,0.8985 1.55468,1.3477 2.69531,1.3477 1.14061,0 2.03515,-0.4492 2.68359,-1.3477 0.65624,-0.9062 0.98437,-2.1523 0.98438,-3.7382 m -7.33594,-4.5821 c 0.45312,-0.7812 1.02343,-1.3593 1.71094,-1.7343 0.6953,-0.3828 1.52343,-0.5742 2.48437,-0.5743 1.59374,10e-5 2.88671,0.6329 3.87891,1.8985 0.99999,1.2656 1.49999,2.9297 1.5,4.9922 -1e-5,2.0625 -0.50001,3.7265 -1.5,4.9922 -0.9922,1.2656 -2.28517,1.8984 -3.87891,1.8984 -0.96094,0 -1.78907,-0.1875 -2.48437,-0.5625 -0.68751,-0.3828 -1.25782,-0.9649 -1.71094,-1.7461 l 0,1.9687 -2.16797,0 0,-18.2343 2.16797,0 0,7.1015"
           style=""
           id="path4771" />
        <path
           d="m 248.34738,1019.7118 c -1.74219,0 -2.94922,0.1992 -3.62109,0.5976 -0.67188,0.3985 -1.00782,1.0782 -1.00781,2.0391 -1e-5,0.7656 0.24999,1.375 0.75,1.8281 0.5078,0.4453 1.1953,0.668 2.0625,0.668 1.1953,0 2.15233,-0.4219 2.87109,-1.2656 0.72655,-0.8516 1.08983,-1.9805 1.08984,-3.3867 l 0,-0.4805 -2.14453,0 m 4.30078,-0.8906 0,7.4882 -2.15625,0 0,-1.9921 c -0.49219,0.7968 -1.10548,1.3867 -1.83984,1.7695 -0.73438,0.375 -1.63282,0.5625 -2.69531,0.5625 -1.34376,0 -2.41407,-0.375 -3.21094,-1.125 -0.78907,-0.7578 -1.1836,-1.7695 -1.18359,-3.0352 -1e-5,-1.4765 0.49218,-2.5898 1.47656,-3.3398 0.99218,-0.75 2.46874,-1.125 4.42969,-1.125 l 3.02343,0 0,-0.2109 c -1e-5,-0.9922 -0.32813,-1.7578 -0.98437,-2.2969 -0.64845,-0.5469 -1.56251,-0.8203 -2.74219,-0.8203 -0.75001,0 -1.48047,0.09 -2.19141,0.2695 -0.71094,0.1797 -1.39453,0.4492 -2.05078,0.8086 l 0,-1.9922 c 0.78906,-0.3047 1.55469,-0.5312 2.29688,-0.6797 0.74218,-0.1562 1.46484,-0.2343 2.16797,-0.2344 1.89843,10e-5 3.31639,0.4922 4.2539,1.4766 0.93749,0.9844 1.40624,2.4766 1.40625,4.4766"
           style=""
           id="path4773" />
        <path
           d="m 268.05832,1018.3876 0,7.9218 -2.15625,0 0,-7.8515 c -10e-6,-1.2422 -0.2422,-2.1719 -0.72656,-2.7891 -0.48439,-0.6172 -1.21095,-0.9257 -2.17969,-0.9258 -1.16407,10e-5 -2.08204,0.3711 -2.75391,1.1133 -0.67188,0.7422 -1.00781,1.7539 -1.00781,3.0352 l 0,7.4179 -2.16797,0 0,-13.125 2.16797,0 0,2.0391 c 0.51562,-0.789 1.12109,-1.3789 1.81641,-1.7695 0.70311,-0.3906 1.51171,-0.5859 2.42578,-0.586 1.5078,10e-5 2.64842,0.4688 3.42187,1.4063 0.77343,0.9297 1.16015,2.3008 1.16016,4.1133"
           style=""
           id="path4775" />
        <path
           d="m 272.30051,1008.0751 2.16797,0 0,10.7695 6.43359,-5.6602 2.75391,0 -6.96094,6.1407 7.2539,6.9843 -2.8125,0 -6.66796,-6.4101 0,6.4101 -2.16797,0 0,-18.2343"
           style=""
           id="path4777" />
      </g>
      <g
         style="font-size:24px;font-style:normal;font-weight:normal;text-align:center;line-height:125%;letter-spacing:0px;word-spacing:0px;text-anchor:middle;fill:#000000;fill-opacity:1;stroke:none;font-family:Sans"
         id="text2991">
        <path
           d="m 521.02344,963.44421 2.54297,0 4.85156,7.19532 4.8164,-7.19532 2.54297,0 -6.1875,9.16407 0,8.33203 -2.3789,0 0,-8.33203 -6.1875,-9.16407"
           style=""
           id="path4780" />
        <path
           d="m 539.90234,969.32703 c -1.15625,10e-6 -2.07031,0.45313 -2.74218,1.35937 -0.67188,0.89845 -1.00782,2.13282 -1.00782,3.70313 0,1.57031 0.33203,2.80859 0.9961,3.71484 0.67187,0.89844 1.58984,1.34766 2.7539,1.34766 1.14843,0 2.05859,-0.45313 2.73047,-1.35938 0.67187,-0.90624 1.0078,-2.14062 1.00781,-3.70312 -10e-6,-1.55468 -0.33594,-2.78515 -1.00781,-3.69141 -0.67188,-0.91405 -1.58204,-1.37108 -2.73047,-1.37109 m 0,-1.82813 c 1.87499,10e-6 3.34765,0.60939 4.41797,1.82813 1.0703,1.21876 1.60546,2.90626 1.60547,5.0625 -10e-6,2.14844 -0.53517,3.83594 -1.60547,5.0625 -1.07032,1.21875 -2.54298,1.82812 -4.41797,1.82812 -1.88281,0 -3.35938,-0.60937 -4.42968,-1.82812 -1.06251,-1.22656 -1.59376,-2.91406 -1.59375,-5.0625 -10e-6,-2.15624 0.53124,-3.84374 1.59375,-5.0625 1.0703,-1.21874 2.54687,-1.82812 4.42968,-1.82813"
           style=""
           id="path4782" />
        <path
           d="m 549.26562,975.76062 0,-7.94531 2.15625,0 0,7.86328 c 0,1.24219 0.24219,2.17578 0.72657,2.80078 0.48437,0.61719 1.21093,0.92578 2.17968,0.92578 1.16406,0 2.08203,-0.37109 2.75391,-1.11328 0.67968,-0.74218 1.01952,-1.7539 1.01953,-3.03516 l 0,-7.4414 2.15625,0 0,13.125 -2.15625,0 0,-2.01563 c -0.52345,0.79688 -1.13282,1.39063 -1.82812,1.78125 -0.68751,0.38281 -1.48829,0.57422 -2.40235,0.57422 -1.50781,0 -2.65234,-0.46875 -3.43359,-1.40625 -0.78125,-0.9375 -1.17188,-2.30859 -1.17188,-4.11328 m 5.42579,-8.26172 0,0"
           style=""
           id="path4784" />
        <path
           d="m 572.32812,969.83093 c -0.24219,-0.14061 -0.50782,-0.24217 -0.79687,-0.30468 -0.28126,-0.0703 -0.59376,-0.10546 -0.9375,-0.10547 -1.21876,10e-6 -2.15626,0.39844 -2.8125,1.19531 -0.64844,0.78907 -0.97266,1.92579 -0.97266,3.41016 l 0,6.91406 -2.16797,0 0,-13.125 2.16797,0 0,2.03906 c 0.45312,-0.79686 1.04297,-1.38671 1.76953,-1.76953 0.72656,-0.39061 1.60937,-0.58593 2.64844,-0.58594 0.14843,10e-6 0.31249,0.0117 0.49219,0.0352 0.17968,0.0156 0.3789,0.043 0.59766,0.082 l 0.0117,2.21484"
           style=""
           id="path4786" />
        <path
           d="m 528.83984,1004.3895 c -10e-6,-1.5859 -0.32813,-2.8281 -0.98437,-3.7265 -0.64845,-0.90627 -1.54298,-1.3594 -2.6836,-1.35941 -1.14063,10e-6 -2.03906,0.45314 -2.69531,1.35941 -0.64844,0.8984 -0.97266,2.1406 -0.97265,3.7265 -10e-6,1.586 0.32421,2.8321 0.97265,3.7383 0.65625,0.8984 1.55468,1.3477 2.69531,1.3477 1.14062,0 2.03515,-0.4493 2.6836,-1.3477 0.65624,-0.9062 0.98436,-2.1523 0.98437,-3.7383 m -7.33593,-4.582 c 0.45312,-0.78124 1.02343,-1.35937 1.71093,-1.73438 0.69531,-0.3828 1.52343,-0.57421 2.48438,-0.57422 1.59374,10e-6 2.88671,0.63283 3.8789,1.89844 0.99999,1.26566 1.49999,2.92966 1.5,4.99216 -10e-6,2.0625 -0.50001,3.7266 -1.5,4.9922 -0.99219,1.2656 -2.28516,1.8985 -3.8789,1.8985 -0.96095,0 -1.78907,-0.1875 -2.48438,-0.5625 -0.6875,-0.3829 -1.25781,-0.9649 -1.71093,-1.7461 l 0,1.9687 -2.16797,0 0,-18.23437 2.16797,0 0,7.10157"
           style=""
           id="path4788" />
        <path
           d="m 540.61719,1004.3427 c -1.7422,0 -2.94923,0.1992 -3.6211,0.5976 -0.67188,0.3985 -1.00781,1.0781 -1.00781,2.0391 0,0.7656 0.25,1.375 0.75,1.8281 0.50781,0.4453 1.19531,0.668 2.0625,0.668 1.19531,0 2.15234,-0.4219 2.87109,-1.2657 0.72656,-0.8515 1.08984,-1.9804 1.08985,-3.3867 l 0,-0.4804 -2.14453,0 m 4.30078,-0.8907 0,7.4883 -2.15625,0 0,-1.9922 c -0.4922,0.7969 -1.10548,1.3867 -1.83985,1.7696 -0.73438,0.375 -1.63281,0.5625 -2.69531,0.5625 -1.34375,0 -2.41406,-0.375 -3.21094,-1.125 -0.78906,-0.7579 -1.18359,-1.7696 -1.18359,-3.0352 0,-1.4766 0.49219,-2.5898 1.47656,-3.3398 0.99219,-0.75 2.46875,-1.125 4.42969,-1.125 l 3.02344,0 0,-0.211 c -10e-6,-0.9922 -0.32814,-1.7578 -0.98438,-2.2969 -0.64844,-0.54682 -1.5625,-0.82026 -2.74218,-0.82027 -0.75001,10e-6 -1.48048,0.0898 -2.19141,0.26953 -0.71094,0.1797 -1.39453,0.44924 -2.05078,0.80864 l 0,-1.99224 c 0.78906,-0.30467 1.55468,-0.53123 2.29687,-0.67968 0.74219,-0.15624 1.46484,-0.23437 2.16797,-0.23438 1.89843,10e-6 3.3164,0.4922 4.25391,1.47656 0.93749,0.98439 1.40624,2.47654 1.40625,4.47654"
           style=""
           id="path4790" />
        <path
           d="m 560.32812,1003.0184 0,7.9219 -2.15625,0 0,-7.8516 c -10e-6,-1.2421 -0.24219,-2.1718 -0.72656,-2.789 -0.48438,-0.61719 -1.21094,-0.92579 -2.17969,-0.9258 -1.16406,10e-6 -2.08203,0.37111 -2.7539,1.1133 -0.67188,0.7422 -1.00782,1.7539 -1.00781,3.0351 l 0,7.418 -2.16797,0 0,-13.12499 2.16797,0 0,2.03906 c 0.51562,-0.78905 1.12108,-1.37889 1.8164,-1.76953 0.70312,-0.39061 1.51171,-0.58593 2.42578,-0.58594 1.50781,10e-6 2.64843,0.46876 3.42188,1.40625 0.77342,0.9297 1.16014,2.30075 1.16015,4.11325"
           style=""
           id="path4792" />
        <path
           d="m 564.57031,992.70593 2.16797,0 0,10.76957 6.43359,-5.66019 2.75391,0 -6.96094,6.14059 7.25391,6.9844 -2.8125,0 -6.66797,-6.4101 0,6.4101 -2.16797,0 0,-18.23437"
           style=""
           id="path4794" />
        <path
           d="m 507.10156,1034.3427 c -1.74219,0 -2.94922,0.1992 -3.62109,0.5976 -0.67188,0.3985 -1.00782,1.0781 -1.00781,2.0391 -1e-5,0.7656 0.24999,1.375 0.75,1.8281 0.5078,0.4453 1.1953,0.668 2.0625,0.668 1.1953,0 2.15233,-0.4219 2.87109,-1.2657 0.72655,-0.8515 1.08983,-1.9804 1.08984,-3.3867 l 0,-0.4804 -2.14453,0 m 4.30078,-0.8907 0,7.4883 -2.15625,0 0,-1.9922 c -0.49219,0.7969 -1.10547,1.3867 -1.83984,1.7696 -0.73438,0.375 -1.63282,0.5625 -2.69531,0.5625 -1.34376,0 -2.41407,-0.375 -3.21094,-1.125 -0.78906,-0.7579 -1.1836,-1.7696 -1.18359,-3.0352 -1e-5,-1.4766 0.49218,-2.5898 1.47656,-3.3398 0.99218,-0.75 2.46874,-1.125 4.42969,-1.125 l 3.02343,0 0,-0.211 c -10e-6,-0.9922 -0.32813,-1.7578 -0.98437,-2.2969 -0.64845,-0.5468 -1.56251,-0.8203 -2.74219,-0.8203 -0.75,0 -1.48047,0.09 -2.19141,0.2696 -0.71094,0.1797 -1.39453,0.4492 -2.05078,0.8086 l 0,-1.9922 c 0.78906,-0.3047 1.55469,-0.5313 2.29688,-0.6797 0.74218,-0.1563 1.46484,-0.2344 2.16797,-0.2344 1.89843,0 3.31639,0.4922 4.2539,1.4766 0.93749,0.9843 1.40624,2.4765 1.40625,4.4765"
           style=""
           id="path4796" />
        <path
           d="m 525.34766,1028.3192 0,2.0156 c -0.60939,-0.3359 -1.22267,-0.5859 -1.83985,-0.75 -0.60938,-0.1718 -1.22657,-0.2578 -1.85156,-0.2578 -1.39844,0 -2.48438,0.4454 -3.25781,1.336 -0.77344,0.8828 -1.16016,2.125 -1.16016,3.7265 0,1.6016 0.38672,2.8477 1.16016,3.7383 0.77343,0.8828 1.85937,1.3242 3.25781,1.3242 0.62499,0 1.24218,-0.082 1.85156,-0.2461 0.61718,-0.1718 1.23046,-0.4257 1.83985,-0.7617 l 0,1.9922 c -0.60158,0.2813 -1.22658,0.4922 -1.875,0.6328 -0.64064,0.1406 -1.32423,0.211 -2.05079,0.211 -1.97656,0 -3.54687,-0.6211 -4.71093,-1.8633 -1.16407,-1.2422 -1.7461,-2.918 -1.7461,-5.0274 0,-2.1406 0.58594,-3.8242 1.75782,-5.0508 1.17968,-1.2265 2.79296,-1.8398 4.83984,-1.8398 0.66405,0 1.31249,0.07 1.94531,0.2109 0.6328,0.1329 1.24609,0.336 1.83985,0.6094"
           style=""
           id="path4798" />
        <path
           d="m 538.51953,1028.3192 0,2.0156 c -0.60938,-0.3359 -1.22267,-0.5859 -1.83984,-0.75 -0.60939,-0.1718 -1.22657,-0.2578 -1.85157,-0.2578 -1.39844,0 -2.48438,0.4454 -3.25781,1.336 -0.77344,0.8828 -1.16016,2.125 -1.16015,3.7265 -10e-6,1.6016 0.38671,2.8477 1.16015,3.7383 0.77343,0.8828 1.85937,1.3242 3.25781,1.3242 0.625,0 1.24218,-0.082 1.85157,-0.2461 0.61717,-0.1718 1.23046,-0.4257 1.83984,-0.7617 l 0,1.9922 c -0.60157,0.2813 -1.22657,0.4922 -1.875,0.6328 -0.64063,0.1406 -1.32423,0.211 -2.05078,0.211 -1.97657,0 -3.54688,-0.6211 -4.71094,-1.8633 -1.16406,-1.2422 -1.74609,-2.918 -1.74609,-5.0274 0,-2.1406 0.58593,-3.8242 1.75781,-5.0508 1.17968,-1.2265 2.79296,-1.8398 4.83984,-1.8398 0.66406,0 1.3125,0.07 1.94532,0.2109 0.6328,0.1329 1.24608,0.336 1.83984,0.6094"
           style=""
           id="path4800" />
        <path
           d="m 547.33203,1029.327 c -1.15625,0 -2.07032,0.4532 -2.74219,1.3594 -0.67188,0.8984 -1.00781,2.1328 -1.00781,3.7031 0,1.5703 0.33203,2.8086 0.99609,3.7149 0.67187,0.8984 1.58984,1.3476 2.75391,1.3476 1.14843,0 2.05859,-0.4531 2.73047,-1.3593 0.67186,-0.9063 1.0078,-2.1407 1.00781,-3.7032 -10e-6,-1.5547 -0.33595,-2.7851 -1.00781,-3.6914 -0.67188,-0.914 -1.58204,-1.3711 -2.73047,-1.3711 m 0,-1.8281 c 1.87499,0 3.34765,0.6094 4.41797,1.8281 1.0703,1.2188 1.60546,2.9063 1.60547,5.0625 -10e-6,2.1485 -0.53517,3.836 -1.60547,5.0625 -1.07032,1.2188 -2.54298,1.8282 -4.41797,1.8282 -1.88282,0 -3.35938,-0.6094 -4.42969,-1.8282 -1.0625,-1.2265 -1.59375,-2.914 -1.59375,-5.0625 0,-2.1562 0.53125,-3.8437 1.59375,-5.0625 1.07031,-1.2187 2.54687,-1.8281 4.42969,-1.8281"
           style=""
           id="path4802" />
        <path
           d="m 556.69531,1035.7606 0,-7.9453 2.15625,0 0,7.8633 c 0,1.2422 0.24219,2.1758 0.72656,2.8008 0.48437,0.6172 1.21094,0.9258 2.17969,0.9258 1.16406,0 2.08202,-0.3711 2.75391,-1.1133 0.67968,-0.7422 1.01952,-1.7539 1.01953,-3.0352 l 0,-7.4414 2.15625,0 0,13.125 -2.15625,0 0,-2.0156 c -0.52345,0.7969 -1.13282,1.3906 -1.82813,1.7812 -0.6875,0.3828 -1.48828,0.5743 -2.40234,0.5743 -1.50782,0 -2.65235,-0.4688 -3.43359,-1.4063 -0.78125,-0.9375 -1.17188,-2.3086 -1.17188,-4.1133 m 5.42578,-8.2617 0,0"
           style=""
           id="path4804" />
        <path
           d="m 583.0625,1033.0184 0,7.9219 -2.15625,0 0,-7.8516 c -10e-6,-1.2421 -0.2422,-2.1718 -0.72656,-2.789 -0.48439,-0.6172 -1.21095,-0.9258 -2.17969,-0.9258 -1.16407,0 -2.08204,0.3711 -2.75391,1.1133 -0.67188,0.7422 -1.00781,1.7539 -1.00781,3.0351 l 0,7.418 -2.16797,0 0,-13.125 2.16797,0 0,2.0391 c 0.51562,-0.7891 1.12109,-1.3789 1.81641,-1.7696 0.70312,-0.3906 1.51171,-0.5859 2.42578,-0.5859 1.5078,0 2.64843,0.4688 3.42187,1.4063 0.77343,0.9296 1.16015,2.3007 1.16016,4.1132"
           style=""
           id="path4806" />
        <path
           d="m 589.51953,1024.0887 0,3.7266 4.44141,0 0,1.6758 -4.44141,0 0,7.125 c 0,1.0703 0.14453,1.7578 0.43359,2.0625 0.29687,0.3047 0.89453,0.457 1.79297,0.457 l 2.21485,0 0,1.8047 -2.21485,0 c -1.66406,0 -2.8125,-0.3086 -3.44531,-0.9258 -0.63281,-0.625 -0.94922,-1.7578 -0.94922,-3.3984 l 0,-7.125 -1.58203,0 0,-1.6758 1.58203,0 0,-3.7266 2.16797,0"
           style=""
           id="path4808" />
      </g>
      <g
         transform="translate(-0.2857143,57.483548)"
         id="g4694">
        <path
           style="fill:none;stroke:#000000;stroke-width:2;stroke-linecap:butt;stroke-linejoin:miter;stroke-miterlimit:4;stroke-opacity:1;marker-start:none;marker-end:url(#Arrow2Lend)"
           d="m 2.857143,944.50504 191.825287,0"
           id="path2999" />
        <g
           style="font-size:16px;font-style:normal;font-weight:normal;line-height:125%;letter-spacing:0px;word-spacing:0px;fill:#000000;fill-opacity:1;stroke:none;font-family:Sans"
           id="text4581">
          <path
             d="m 60.309711,937.46259 2.578125,0 0,-8.89844 -2.804687,0.5625 0,-1.4375 2.789062,-0.5625 1.578125,0 0,10.33594 2.578125,0 0,1.32812 -6.71875,0 0,-1.32812"
             style=""
             id="path4812" />
          <path
             d="m 73.598774,928.16571 c -0.812504,10e-6 -1.424483,0.40105 -1.835938,1.20313 -0.406252,0.79688 -0.609377,1.9974 -0.609375,3.60156 -2e-6,1.59896 0.203123,2.79948 0.609375,3.60156 0.411455,0.79688 1.023434,1.19531 1.835938,1.19531 0.817702,0 1.429681,-0.39843 1.835937,-1.19531 0.411451,-0.80208 0.61718,-2.0026 0.617188,-3.60156 -8e-6,-1.60416 -0.205737,-2.80468 -0.617188,-3.60156 -0.406256,-0.80208 -1.018235,-1.20312 -1.835937,-1.20313 m 0,-1.25 c 1.307285,10e-6 2.30468,0.51824 2.992187,1.55469 0.6927,1.03126 1.039054,2.53126 1.039063,4.5 -9e-6,1.96354 -0.346363,3.46354 -1.039063,4.5 -0.687507,1.03125 -1.684902,1.54687 -2.992187,1.54687 -1.307295,0 -2.307294,-0.51562 -3,-1.54687 -0.687501,-1.03646 -1.031251,-2.53646 -1.03125,-4.5 -1e-6,-1.96874 0.343749,-3.46874 1.03125,-4.5 0.692706,-1.03645 1.692705,-1.55468 3,-1.55469"
             style=""
             id="path4814" />
          <path
             d="m 83.786274,928.16571 c -0.812504,10e-6 -1.424483,0.40105 -1.835938,1.20313 -0.406252,0.79688 -0.609377,1.9974 -0.609375,3.60156 -2e-6,1.59896 0.203123,2.79948 0.609375,3.60156 0.411455,0.79688 1.023434,1.19531 1.835938,1.19531 0.817702,0 1.429681,-0.39843 1.835937,-1.19531 0.411451,-0.80208 0.61718,-2.0026 0.617188,-3.60156 -8e-6,-1.60416 -0.205737,-2.80468 -0.617188,-3.60156 -0.406256,-0.80208 -1.018235,-1.20312 -1.835937,-1.20313 m 0,-1.25 c 1.307285,10e-6 2.30468,0.51824 2.992187,1.55469 0.6927,1.03126 1.039054,2.53126 1.039063,4.5 -9e-6,1.96354 -0.346363,3.46354 -1.039063,4.5 -0.687507,1.03125 -1.684902,1.54687 -2.992187,1.54687 -1.307295,0 -2.307294,-0.51562 -3,-1.54687 -0.687501,-1.03646 -1.031251,-2.53646 -1.03125,-4.5 -1e-6,-1.96874 0.343749,-3.46874 1.03125,-4.5 0.692706,-1.03645 1.692705,-1.55468 3,-1.55469"
             style=""
             id="path4816" />
          <path
             d="m 97.130024,933.2204 0,4.27344 2.53125,0 c 0.848956,0 1.476556,-0.17448 1.882816,-0.52344 0.41145,-0.35417 0.61718,-0.89323 0.61718,-1.61719 0,-0.72916 -0.20573,-1.26562 -0.61718,-1.60937 -0.40626,-0.34896 -1.03386,-0.52344 -1.882816,-0.52344 l -2.53125,0 m 0,-4.79688 0,3.51563 2.335937,0 c 0.770829,0 1.343739,-0.14322 1.718749,-0.42969 0.3802,-0.29166 0.57031,-0.73437 0.57031,-1.32812 0,-0.58854 -0.19011,-1.02864 -0.57031,-1.32032 -0.37501,-0.29165 -0.94792,-0.43749 -1.718749,-0.4375 l -2.335937,0 m -1.578125,-1.29687 4.03125,0 c 1.203121,10e-6 2.130201,0.25001 2.781251,0.75 0.65103,0.50001 0.97655,1.21095 0.97656,2.13281 -10e-6,0.71355 -0.16667,1.28126 -0.5,1.70313 -0.33334,0.42188 -0.82292,0.6849 -1.46875,0.78906 0.77603,0.16667 1.3776,0.51563 1.80469,1.04687 0.43228,0.52605 0.64843,1.1849 0.64844,1.97657 -1e-5,1.04166 -0.35418,1.84635 -1.0625,2.41406 -0.70834,0.56771 -1.71616,0.85156 -3.023441,0.85156 l -4.1875,0 0,-11.66406"
             style=""
             id="path4818" />
          <path
             d="m 104.90346,927.12665 9.86719,0 0,1.32812 -4.14063,0 0,10.33594 -1.58593,0 0,-10.33594 -4.14063,0 0,-1.32812"
             style=""
             id="path4820" />
          <path
             d="m 124.13002,928.02509 0,1.66406 c -0.53126,-0.49478 -1.09896,-0.86458 -1.70312,-1.10938 -0.59897,-0.24478 -1.23699,-0.36717 -1.91406,-0.36718 -1.33334,10e-6 -2.35417,0.40886 -3.0625,1.22656 -0.70834,0.81251 -1.06251,1.98959 -1.0625,3.53125 -1e-5,1.53646 0.35416,2.71354 1.0625,3.53125 0.70833,0.8125 1.72916,1.21875 3.0625,1.21875 0.67707,0 1.31509,-0.1224 1.91406,-0.36719 0.60416,-0.24479 1.17186,-0.61458 1.70312,-1.10937 l 0,1.64843 c -0.55209,0.375 -1.13803,0.65625 -1.75781,0.84375 -0.61459,0.1875 -1.26563,0.28125 -1.95312,0.28125 -1.76563,0 -3.15626,-0.53906 -4.17188,-1.61718 -1.01562,-1.08334 -1.52344,-2.5599 -1.52344,-4.42969 0,-1.87499 0.50782,-3.35156 1.52344,-4.42969 1.01562,-1.08332 2.40625,-1.62499 4.17188,-1.625 0.69791,10e-6 1.35416,0.0938 1.96875,0.28125 0.61978,0.1823 1.20051,0.45834 1.74218,0.82813"
             style=""
             id="path4822" />
        </g>
        <g
           style="font-size:16px;font-style:normal;font-weight:normal;line-height:125%;letter-spacing:0px;word-spacing:0px;fill:#000000;fill-opacity:1;stroke:none;font-family:Sans"
           id="text4581-79">
          <path
             d="m 19.938616,957.04468 0,4.27344 2.53125,0 c 0.848952,0 1.476555,-0.17448 1.882812,-0.52344 0.411451,-0.35417 0.61718,-0.89323 0.617188,-1.61719 -8e-6,-0.72916 -0.205737,-1.26562 -0.617188,-1.60937 -0.406257,-0.34896 -1.03386,-0.52344 -1.882812,-0.52344 l -2.53125,0 m 0,-4.79688 0,3.51563 2.335937,0 c 0.770827,0 1.343743,-0.14322 1.71875,-0.42969 0.380201,-0.29166 0.570305,-0.73437 0.570313,-1.32812 -8e-6,-0.58854 -0.190112,-1.02864 -0.570313,-1.32032 -0.375007,-0.29165 -0.947923,-0.43749 -1.71875,-0.4375 l -2.335937,0 m -1.578125,-1.29687 4.03125,0 c 1.203118,10e-6 2.1302,0.25001 2.78125,0.75 0.651032,0.50001 0.976553,1.21094 0.976562,2.13281 -9e-6,0.71355 -0.166676,1.28126 -0.5,1.70313 -0.333342,0.42188 -0.822924,0.6849 -1.46875,0.78906 0.776034,0.16667 1.377596,0.51563 1.804688,1.04687 0.432282,0.52605 0.648427,1.1849 0.648437,1.97657 -10e-6,1.04166 -0.354176,1.84635 -1.0625,2.41406 -0.708341,0.56771 -1.716153,0.85156 -3.023437,0.85156 l -4.1875,0 0,-11.66406"
             style=""
             id="path4825" />
          <path
             d="m 29.266741,953.86499 1.4375,0 0,8.75 -1.4375,0 0,-8.75 m 0,-3.40625 1.4375,0 0,1.82031 -1.4375,0 0,-1.82031"
             style=""
             id="path4827" />
          <path
             d="m 35.126116,951.38062 0,2.48437 2.960937,0 0,1.11719 -2.960937,0 0,4.75 c -3e-6,0.71354 0.09635,1.17187 0.289062,1.375 0.197914,0.20312 0.596351,0.30469 1.195313,0.30469 l 1.476562,0 0,1.20312 -1.476562,0 c -1.109379,0 -1.875003,-0.20573 -2.296875,-0.61719 -0.421877,-0.41666 -0.632814,-1.17187 -0.632813,-2.26562 l 0,-4.75 -1.054687,0 0,-1.11719 1.054687,0 0,-2.48437 1.445313,0"
             style=""
             id="path4829" />
          <path
             d="m 46.282366,954.20093 0,1.34375 c -0.406258,-0.22395 -0.815111,-0.39062 -1.226563,-0.5 -0.406256,-0.11458 -0.817714,-0.17187 -1.234375,-0.17188 -0.932296,10e-6 -1.656253,0.29689 -2.171875,0.89063 -0.515627,0.58855 -0.77344,1.41667 -0.773437,2.48437 -3e-6,1.06771 0.25781,1.89844 0.773437,2.49219 0.515622,0.58854 1.239579,0.88281 2.171875,0.88281 0.416661,0 0.828119,-0.0547 1.234375,-0.16406 0.411452,-0.11458 0.820305,-0.28385 1.226563,-0.50781 l 0,1.32812 c -0.401049,0.1875 -0.817716,0.32813 -1.25,0.42188 -0.42709,0.0937 -0.882818,0.14062 -1.367188,0.14062 -1.317712,0 -2.364586,-0.41406 -3.140625,-1.24218 -0.776043,-0.82813 -1.164063,-1.94531 -1.164062,-3.35157 -1e-6,-1.42707 0.390624,-2.54947 1.171875,-3.36718 0.786455,-0.8177 1.861975,-1.22656 3.226562,-1.22657 0.442703,10e-6 0.874994,0.0469 1.296875,0.14063 0.421868,0.0886 0.830722,0.22396 1.226563,0.40625"
             style=""
             id="path4831" />
          <path
             d="m 52.157366,954.8728 c -0.770838,10e-6 -1.380212,0.30209 -1.828125,0.90625 -0.447919,0.59897 -0.671878,1.42188 -0.671875,2.46875 -3e-6,1.04688 0.221351,1.8724 0.664062,2.47657 0.447913,0.59895 1.059892,0.89843 1.835938,0.89843 0.765619,0 1.372389,-0.30208 1.820312,-0.90625 0.44791,-0.60416 0.671868,-1.42708 0.671875,-2.46875 -7e-6,-1.03645 -0.223965,-1.85676 -0.671875,-2.46093 -0.447923,-0.60937 -1.054693,-0.91406 -1.820312,-0.91407 m 0,-1.21875 c 1.249994,10e-6 2.231764,0.40626 2.945312,1.21875 0.713533,0.81251 1.070304,1.93751 1.070313,3.375 -9e-6,1.4323 -0.35678,2.5573 -1.070313,3.375 -0.713548,0.8125 -1.695318,1.21875 -2.945312,1.21875 -1.255212,0 -2.239586,-0.40625 -2.953125,-1.21875 -0.708335,-0.8177 -1.062501,-1.9427 -1.0625,-3.375 -1e-6,-1.43749 0.354165,-2.56249 1.0625,-3.375 0.713539,-0.81249 1.697913,-1.21874 2.953125,-1.21875"
             style=""
             id="path4833" />
          <path
             d="m 58.547991,953.86499 1.4375,0 0,8.75 -1.4375,0 0,-8.75 m 0,-3.40625 1.4375,0 0,1.82031 -1.4375,0 0,-1.82031"
             style=""
             id="path4835" />
          <path
             d="m 70.258928,957.33374 0,5.28125 -1.4375,0 0,-5.23437 c -7e-6,-0.82812 -0.161465,-1.44791 -0.484375,-1.85938 -0.322923,-0.41145 -0.807297,-0.61718 -1.453125,-0.61719 -0.776046,10e-6 -1.388025,0.24741 -1.835937,0.74219 -0.44792,0.4948 -0.671878,1.16928 -0.671875,2.02344 l 0,4.94531 -1.445313,0 0,-8.75 1.445313,0 0,1.35938 c 0.343747,-0.52604 0.747392,-0.91927 1.210937,-1.17969 0.468746,-0.26041 1.007808,-0.39062 1.617188,-0.39063 1.005201,10e-6 1.765617,0.31251 2.28125,0.9375 0.515616,0.6198 0.773429,1.53386 0.773437,2.74219"
             style=""
             id="path4837" />
          <path
             d="m 79.657366,951.38062 0,2.48437 2.960937,0 0,1.11719 -2.960937,0 0,4.75 c -3e-6,0.71354 0.09635,1.17187 0.289062,1.375 0.197914,0.20312 0.596351,0.30469 1.195313,0.30469 l 1.476562,0 0,1.20312 -1.476562,0 c -1.109379,0 -1.875003,-0.20573 -2.296875,-0.61719 -0.421877,-0.41666 -0.632814,-1.17187 -0.632813,-2.26562 l 0,-4.75 -1.054687,0 0,-1.11719 1.054687,0 0,-2.48437 1.445313,0"
             style=""
             id="path4839" />
          <path
             d="m 89.587053,955.20874 c -0.161464,-0.0937 -0.338548,-0.16145 -0.53125,-0.20312 -0.187506,-0.0469 -0.395839,-0.0703 -0.625,-0.0703 -0.812504,10e-6 -1.437504,0.26564 -1.875,0.79688 -0.432294,0.52605 -0.64844,1.28386 -0.648437,2.27344 l 0,4.60937 -1.445313,0 0,-8.75 1.445313,0 0,1.35938 c 0.30208,-0.53125 0.695309,-0.92448 1.179687,-1.17969 0.484371,-0.26041 1.072912,-0.39062 1.765625,-0.39063 0.09895,10e-6 0.208328,0.008 0.328125,0.0234 0.119786,0.0104 0.252598,0.0286 0.398438,0.0547 l 0.0078,1.47656"
             style=""
             id="path4841" />
          <path
             d="m 95.087053,958.21655 c -1.161462,10e-6 -1.966149,0.13282 -2.414062,0.39844 -0.447919,0.26563 -0.671878,0.71875 -0.671875,1.35938 -3e-6,0.51041 0.166664,0.91666 0.5,1.21875 0.338538,0.29687 0.796871,0.44531 1.375,0.44531 0.79687,0 1.43489,-0.28125 1.914062,-0.84375 0.484369,-0.56771 0.726556,-1.32031 0.726563,-2.25781 l 0,-0.32032 -1.429688,0 m 2.867188,-0.59375 0,4.99219 -1.4375,0 0,-1.32812 c -0.328132,0.53125 -0.736986,0.92447 -1.226563,1.17968 -0.489588,0.25 -1.088546,0.375 -1.796875,0.375 -0.895836,0 -1.609377,-0.25 -2.140625,-0.75 -0.526043,-0.5052 -0.789063,-1.17968 -0.789062,-2.02343 -10e-7,-0.98438 0.328124,-1.72656 0.984375,-2.22657 0.661456,-0.49999 1.64583,-0.74999 2.953125,-0.75 l 2.015625,0 0,-0.14062 c -7e-6,-0.66145 -0.218757,-1.17187 -0.65625,-1.53125 -0.432298,-0.36458 -1.041672,-0.54687 -1.828125,-0.54688 -0.500004,10e-6 -0.986983,0.0599 -1.460938,0.17969 -0.473961,0.1198 -0.929689,0.29949 -1.367187,0.53906 l 0,-1.32812 c 0.526039,-0.20312 1.036455,-0.35416 1.53125,-0.45313 0.494788,-0.10416 0.976558,-0.15624 1.445312,-0.15625 1.265619,10e-6 2.210931,0.32814 2.835938,0.98438 0.624992,0.65626 0.937491,1.65105 0.9375,2.98437"
             style=""
             id="path4843" />
          <path
             d="m 108.22768,957.33374 0,5.28125 -1.4375,0 0,-5.23437 c -1e-5,-0.82812 -0.16147,-1.44791 -0.48438,-1.85938 -0.32292,-0.41145 -0.80729,-0.61718 -1.45312,-0.61719 -0.77605,10e-6 -1.38803,0.24741 -1.83594,0.74219 -0.44792,0.4948 -0.67188,1.16928 -0.67187,2.02344 l 0,4.94531 -1.44532,0 0,-8.75 1.44532,0 0,1.35938 c 0.34374,-0.52604 0.74739,-0.91927 1.21093,-1.17969 0.46875,-0.26041 1.00781,-0.39062 1.61719,-0.39063 1.0052,10e-6 1.76562,0.31251 2.28125,0.9375 0.51562,0.6198 0.77343,1.53386 0.77344,2.74219"
             style=""
             id="path4845" />
          <path
             d="m 116.68862,954.1228 0,1.35938 c -0.40626,-0.20833 -0.82814,-0.36458 -1.26563,-0.46875 -0.4375,-0.10416 -0.89063,-0.15624 -1.35937,-0.15625 -0.71355,10e-6 -1.25001,0.10938 -1.60938,0.32812 -0.35417,0.21876 -0.53125,0.54688 -0.53125,0.98438 0,0.33334 0.1276,0.59636 0.38281,0.78906 0.25521,0.18751 0.76823,0.36719 1.53907,0.53906 l 0.49218,0.10938 c 1.02083,0.21875 1.74479,0.52865 2.17188,0.92969 0.43228,0.39583 0.64843,0.95052 0.64844,1.66406 -1e-5,0.8125 -0.32293,1.45573 -0.96875,1.92969 -0.64064,0.47395 -1.52345,0.71093 -2.64844,0.71093 -0.46876,0 -0.95834,-0.0469 -1.46875,-0.14062 -0.50521,-0.0885 -1.03907,-0.22396 -1.60156,-0.40625 l 0,-1.48438 c 0.53124,0.27605 1.05468,0.48438 1.57031,0.625 0.51562,0.13542 1.02604,0.20313 1.53125,0.20313 0.67708,0 1.19791,-0.11458 1.5625,-0.34375 0.36458,-0.23438 0.54687,-0.5625 0.54687,-0.98438 0,-0.39062 -0.13282,-0.6901 -0.39843,-0.89843 -0.26043,-0.20833 -0.83595,-0.40886 -1.72657,-0.60157 l -0.5,-0.11718 c -0.89062,-0.1875 -1.53385,-0.47396 -1.92968,-0.85938 -0.39584,-0.39062 -0.59376,-0.92447 -0.59375,-1.60156 -1e-5,-0.82291 0.29166,-1.45833 0.875,-1.90625 0.58333,-0.44791 1.41145,-0.67187 2.48437,-0.67188 0.53125,10e-6 1.03125,0.0391 1.5,0.11719 0.46874,0.0781 0.90104,0.19532 1.29688,0.35156"
             style=""
             id="path4847" />
          <path
             d="m 123.4308,958.21655 c -1.16146,10e-6 -1.96615,0.13282 -2.41406,0.39844 -0.44792,0.26563 -0.67188,0.71875 -0.67187,1.35938 -1e-5,0.51041 0.16666,0.91666 0.5,1.21875 0.33853,0.29687 0.79687,0.44531 1.375,0.44531 0.79687,0 1.43489,-0.28125 1.91406,-0.84375 0.48437,-0.56771 0.72655,-1.32031 0.72656,-2.25781 l 0,-0.32032 -1.42969,0 m 2.86719,-0.59375 0,4.99219 -1.4375,0 0,-1.32812 c -0.32813,0.53125 -0.73698,0.92447 -1.22656,1.17968 -0.48959,0.25 -1.08855,0.375 -1.79688,0.375 -0.89583,0 -1.60937,-0.25 -2.14062,-0.75 -0.52604,-0.5052 -0.78907,-1.17968 -0.78906,-2.02343 -1e-5,-0.98438 0.32812,-1.72656 0.98437,-2.22657 0.66146,-0.49999 1.64583,-0.74999 2.95313,-0.75 l 2.01562,0 0,-0.14062 c -1e-5,-0.66145 -0.21876,-1.17187 -0.65625,-1.53125 -0.4323,-0.36458 -1.04167,-0.54687 -1.82812,-0.54688 -0.50001,10e-6 -0.98699,0.0599 -1.46094,0.17969 -0.47396,0.1198 -0.92969,0.29949 -1.36719,0.53906 l 0,-1.32812 c 0.52604,-0.20312 1.03646,-0.35416 1.53125,-0.45313 0.49479,-0.10416 0.97656,-0.15624 1.44531,-0.15625 1.26562,10e-6 2.21093,0.32814 2.83594,0.98438 0.62499,0.65626 0.93749,1.65105 0.9375,2.98437"
             style=""
             id="path4849" />
          <path
             d="m 135.59487,954.20093 0,1.34375 c -0.40626,-0.22395 -0.81512,-0.39062 -1.22657,-0.5 -0.40625,-0.11458 -0.81771,-0.17187 -1.23437,-0.17188 -0.9323,10e-6 -1.65626,0.29689 -2.17188,0.89063 -0.51562,0.58855 -0.77344,1.41667 -0.77343,2.48437 -10e-6,1.06771 0.25781,1.89844 0.77343,2.49219 0.51562,0.58854 1.23958,0.88281 2.17188,0.88281 0.41666,0 0.82812,-0.0547 1.23437,-0.16406 0.41145,-0.11458 0.82031,-0.28385 1.22657,-0.50781 l 0,1.32812 c -0.40105,0.1875 -0.81772,0.32813 -1.25,0.42188 -0.42709,0.0937 -0.88282,0.14062 -1.36719,0.14062 -1.31771,0 -2.36459,-0.41406 -3.14063,-1.24218 -0.77604,-0.82813 -1.16406,-1.94531 -1.16406,-3.35157 0,-1.42707 0.39062,-2.54947 1.17188,-3.36718 0.78645,-0.8177 1.86197,-1.22656 3.22656,-1.22657 0.4427,10e-6 0.87499,0.0469 1.29687,0.14063 0.42187,0.0886 0.83073,0.22396 1.22657,0.40625"
             style=""
             id="path4851" />
          <path
             d="m 139.50112,951.38062 0,2.48437 2.96093,0 0,1.11719 -2.96093,0 0,4.75 c -10e-6,0.71354 0.0964,1.17187 0.28906,1.375 0.19791,0.20312 0.59635,0.30469 1.19531,0.30469 l 1.47656,0 0,1.20312 -1.47656,0 c -1.10938,0 -1.875,-0.20573 -2.29687,-0.61719 -0.42188,-0.41666 -0.63282,-1.17187 -0.63282,-2.26562 l 0,-4.75 -1.05468,0 0,-1.11719 1.05468,0 0,-2.48437 1.44532,0"
             style=""
             id="path4853" />
          <path
             d="m 144.36049,953.86499 1.4375,0 0,8.75 -1.4375,0 0,-8.75 m 0,-3.40625 1.4375,0 0,1.82031 -1.4375,0 0,-1.82031"
             style=""
             id="path4855" />
          <path
             d="m 152.18862,954.8728 c -0.77084,10e-6 -1.38022,0.30209 -1.82813,0.90625 -0.44792,0.59897 -0.67188,1.42188 -0.67187,2.46875 -10e-6,1.04688 0.22135,1.8724 0.66406,2.47657 0.44791,0.59895 1.05989,0.89843 1.83594,0.89843 0.76562,0 1.37239,-0.30208 1.82031,-0.90625 0.44791,-0.60416 0.67187,-1.42708 0.67187,-2.46875 0,-1.03645 -0.22396,-1.85676 -0.67187,-2.46093 -0.44792,-0.60937 -1.05469,-0.91406 -1.82031,-0.91407 m 0,-1.21875 c 1.24999,10e-6 2.23176,0.40626 2.94531,1.21875 0.71353,0.81251 1.0703,1.93751 1.07031,3.375 -1e-5,1.4323 -0.35678,2.5573 -1.07031,3.375 -0.71355,0.8125 -1.69532,1.21875 -2.94531,1.21875 -1.25522,0 -2.23959,-0.40625 -2.95313,-1.21875 -0.70833,-0.8177 -1.0625,-1.9427 -1.0625,-3.375 0,-1.43749 0.35417,-2.56249 1.0625,-3.375 0.71354,-0.81249 1.69791,-1.21874 2.95313,-1.21875"
             style=""
             id="path4857" />
          <path
             d="m 165.85268,957.33374 0,5.28125 -1.4375,0 0,-5.23437 c -1e-5,-0.82812 -0.16147,-1.44791 -0.48438,-1.85938 -0.32292,-0.41145 -0.80729,-0.61718 -1.45312,-0.61719 -0.77605,10e-6 -1.38803,0.24741 -1.83594,0.74219 -0.44792,0.4948 -0.67188,1.16928 -0.67187,2.02344 l 0,4.94531 -1.44532,0 0,-8.75 1.44532,0 0,1.35938 c 0.34374,-0.52604 0.74739,-0.91927 1.21093,-1.17969 0.46875,-0.26041 1.00781,-0.39062 1.61719,-0.39063 1.0052,10e-6 1.76562,0.31251 2.28125,0.9375 0.51562,0.6198 0.77343,1.53386 0.77344,2.74219"
             style=""
             id="path4859" />
        </g>
      </g>
      <g
         transform="translate(-8.164629,61.950345)"
         id="g4701">
        <g
           id="g4682">
          <path
             style="fill:none;stroke:#000000;stroke-width:2;stroke-linecap:butt;stroke-linejoin:miter;stroke-miterlimit:4;stroke-dasharray:2, 2;stroke-dashoffset:0;stroke-opacity:1;marker-start:none;marker-end:url(#Arrow2Lend)"
             d="m 327.12816,940.96884 168.14319,0"
             id="path2999-3" />
          <g
             style="font-size:16px;font-style:normal;font-weight:normal;line-height:125%;letter-spacing:0px;word-spacing:0px;fill:#000000;fill-opacity:1;stroke:none;font-family:Sans"
             id="text4581-7">
            <path
               d="m 371.51617,931.14398 2.57813,0 0,-8.89844 -2.80469,0.5625 0,-1.4375 2.78906,-0.5625 1.57813,0 0,10.33594 2.57812,0 0,1.32813 -6.71875,0 0,-1.32813"
               style=""
               id="path4863" />
            <path
               d="m 384.80524,921.84711 c -0.81251,10e-6 -1.42449,0.40105 -1.83594,1.20312 -0.40625,0.79689 -0.60938,1.99741 -0.60938,3.60156 0,1.59897 0.20313,2.79949 0.60938,3.60157 0.41145,0.79687 1.02343,1.19531 1.83594,1.19531 0.8177,0 1.42968,-0.39844 1.83593,-1.19531 0.41146,-0.80208 0.61718,-2.0026 0.61719,-3.60157 -10e-6,-1.60415 -0.20573,-2.80467 -0.61719,-3.60156 -0.40625,-0.80207 -1.01823,-1.20311 -1.83593,-1.20312 m 0,-1.25 c 1.30728,10e-6 2.30468,0.51824 2.99218,1.55468 0.6927,1.03126 1.03906,2.53126 1.03907,4.5 -1e-5,1.96355 -0.34637,3.46355 -1.03907,4.5 -0.6875,1.03125 -1.6849,1.54688 -2.99218,1.54688 -1.3073,0 -2.3073,-0.51563 -3,-1.54688 -0.6875,-1.03645 -1.03125,-2.53645 -1.03125,-4.5 0,-1.96874 0.34375,-3.46874 1.03125,-4.5 0.6927,-1.03644 1.6927,-1.55467 3,-1.55468"
               style=""
               id="path4865" />
            <path
               d="m 394.99274,921.84711 c -0.81251,10e-6 -1.42449,0.40105 -1.83594,1.20312 -0.40625,0.79689 -0.60938,1.99741 -0.60938,3.60156 0,1.59897 0.20313,2.79949 0.60938,3.60157 0.41145,0.79687 1.02343,1.19531 1.83594,1.19531 0.8177,0 1.42968,-0.39844 1.83593,-1.19531 0.41146,-0.80208 0.61718,-2.0026 0.61719,-3.60157 -10e-6,-1.60415 -0.20573,-2.80467 -0.61719,-3.60156 -0.40625,-0.80207 -1.01823,-1.20311 -1.83593,-1.20312 m 0,-1.25 c 1.30728,10e-6 2.30468,0.51824 2.99218,1.55468 0.6927,1.03126 1.03906,2.53126 1.03907,4.5 -1e-5,1.96355 -0.34637,3.46355 -1.03907,4.5 -0.6875,1.03125 -1.6849,1.54688 -2.99218,1.54688 -1.3073,0 -2.3073,-0.51563 -3,-1.54688 -0.6875,-1.03645 -1.03125,-2.53645 -1.03125,-4.5 0,-1.96874 0.34375,-3.46874 1.03125,-4.5 0.6927,-1.03644 1.6927,-1.55467 3,-1.55468"
               style=""
               id="path4867" />
            <path
               d="m 408.33649,926.90179 0,4.27344 2.53125,0 c 0.84895,0 1.47655,-0.17448 1.88281,-0.52344 0.41145,-0.35416 0.61718,-0.89322 0.61719,-1.61718 -1e-5,-0.72917 -0.20574,-1.26562 -0.61719,-1.60938 -0.40626,-0.34895 -1.03386,-0.52343 -1.88281,-0.52344 l -2.53125,0 m 0,-4.79687 0,3.51562 2.33593,0 c 0.77083,10e-6 1.34375,-0.14322 1.71875,-0.42968 0.38021,-0.29166 0.57031,-0.73437 0.57032,-1.32813 -1e-5,-0.58853 -0.19011,-1.02863 -0.57032,-1.32031 -0.375,-0.29166 -0.94792,-0.43749 -1.71875,-0.4375 l -2.33593,0 m -1.57813,-1.29688 4.03125,0 c 1.20312,2e-5 2.1302,0.25002 2.78125,0.75 0.65103,0.50001 0.97655,1.21095 0.97656,2.13282 -10e-6,0.71355 -0.16667,1.28125 -0.5,1.70312 -0.33334,0.42188 -0.82292,0.6849 -1.46875,0.78906 0.77604,0.16668 1.3776,0.51564 1.80469,1.04688 0.43228,0.52605 0.64843,1.1849 0.64844,1.97656 -10e-6,1.04167 -0.35418,1.84636 -1.0625,2.41406 -0.70834,0.56771 -1.71615,0.85157 -3.02344,0.85157 l -4.1875,0 0,-11.66407"
               style=""
               id="path4869" />
            <path
               d="m 416.10992,920.80804 9.86719,0 0,1.32813 -4.14062,0 0,10.33594 -1.58594,0 0,-10.33594 -4.14063,0 0,-1.32813"
               style=""
               id="path4871" />
            <path
               d="m 435.33649,921.70648 0,1.66406 c -0.53126,-0.49478 -1.09897,-0.86457 -1.70313,-1.10937 -0.59896,-0.24478 -1.23698,-0.36718 -1.91406,-0.36719 -1.33334,10e-6 -2.35417,0.40887 -3.0625,1.22656 -0.70834,0.81251 -1.0625,1.9896 -1.0625,3.53125 0,1.53647 0.35416,2.71355 1.0625,3.53125 0.70833,0.81251 1.72916,1.21876 3.0625,1.21875 0.67708,10e-6 1.3151,-0.12239 1.91406,-0.36718 0.60416,-0.24479 1.17187,-0.61458 1.70313,-1.10938 l 0,1.64844 c -0.5521,0.375 -1.13803,0.65625 -1.75782,0.84375 -0.61459,0.1875 -1.26563,0.28125 -1.95312,0.28125 -1.76563,0 -3.15625,-0.53906 -4.17188,-1.61719 -1.01562,-1.08333 -1.52343,-2.55989 -1.52343,-4.42969 0,-1.87499 0.50781,-3.35155 1.52343,-4.42968 1.01563,-1.08333 2.40625,-1.62499 4.17188,-1.625 0.69791,10e-6 1.35416,0.0938 1.96875,0.28125 0.61978,0.1823 1.20051,0.45834 1.74219,0.82812"
               style=""
               id="path4873" />
          </g>
          <g
             style="font-size:16px;font-style:normal;font-weight:normal;line-height:125%;letter-spacing:0px;word-spacing:0px;fill:#000000;fill-opacity:1;stroke:none;font-family:Sans"
             id="text4581-79-4">
            <path
               d="m 337.11774,946.53125 0,9.07031 1.90625,0 c 1.60937,0 2.78645,-0.36458 3.53125,-1.09375 0.74999,-0.72916 1.12499,-1.8802 1.125,-3.45312 -1e-5,-1.5625 -0.37501,-2.70572 -1.125,-3.42969 -0.7448,-0.72916 -1.92188,-1.09374 -3.53125,-1.09375 l -1.90625,0 m -1.57813,-1.29688 3.24219,0 c 2.26041,2e-5 3.91926,0.47137 4.97656,1.41407 1.05728,0.93751 1.58593,2.40626 1.58594,4.40625 -10e-6,2.01042 -0.53126,3.48698 -1.59375,4.42968 -1.06251,0.94271 -2.71876,1.41407 -4.96875,1.41407 l -3.24219,0 0,-11.66407"
               style=""
               id="path4876" />
            <path
               d="m 351.76617,952.5 c -1.16146,0 -1.96615,0.13282 -2.41406,0.39844 -0.44792,0.26563 -0.67188,0.71875 -0.67187,1.35937 -1e-5,0.51042 0.16666,0.91667 0.5,1.21875 0.33854,0.29688 0.79687,0.44532 1.375,0.44531 0.79687,10e-6 1.43489,-0.28124 1.91406,-0.84375 0.48437,-0.5677 0.72655,-1.3203 0.72656,-2.25781 l 0,-0.32031 -1.42969,0 m 2.86719,-0.59375 0,4.99219 -1.4375,0 0,-1.32813 c -0.32813,0.53125 -0.73698,0.92448 -1.22656,1.17969 -0.48959,0.25 -1.08855,0.375 -1.79688,0.375 -0.89583,0 -1.60937,-0.25 -2.14062,-0.75 -0.52604,-0.50521 -0.78906,-1.17969 -0.78906,-2.02344 0,-0.98437 0.32812,-1.72656 0.98437,-2.22656 0.66146,-0.49999 1.64583,-0.74999 2.95313,-0.75 l 2.01562,0 0,-0.14063 c -10e-6,-0.66145 -0.21875,-1.17186 -0.65625,-1.53125 -0.4323,-0.36457 -1.04167,-0.54686 -1.82812,-0.54687 -0.50001,10e-6 -0.98699,0.0599 -1.46094,0.17969 -0.47396,0.1198 -0.92969,0.29948 -1.36719,0.53906 l 0,-1.32813 c 0.52604,-0.20311 1.03646,-0.35415 1.53125,-0.45312 0.49479,-0.10416 0.97656,-0.15624 1.44531,-0.15625 1.26562,10e-6 2.21094,0.32813 2.83594,0.98437 0.62499,0.65626 0.93749,1.65105 0.9375,2.98438"
               style=""
               id="path4878" />
            <path
               d="m 359.05524,945.66406 0,2.48438 2.96093,0 0,1.11718 -2.96093,0 0,4.75 c -1e-5,0.71355 0.0963,1.17188 0.28906,1.375 0.19791,0.20313 0.59635,0.30469 1.19531,0.30469 l 1.47656,0 0,1.20313 -1.47656,0 c -1.10938,0 -1.875,-0.20573 -2.29687,-0.61719 -0.42188,-0.41667 -0.63282,-1.17187 -0.63282,-2.26563 l 0,-4.75 -1.05468,0 0,-1.11718 1.05468,0 0,-2.48438 1.44532,0"
               style=""
               id="path4880" />
            <path
               d="m 367.89117,952.5 c -1.16146,0 -1.96615,0.13282 -2.41406,0.39844 -0.44792,0.26563 -0.67188,0.71875 -0.67187,1.35937 -1e-5,0.51042 0.16666,0.91667 0.5,1.21875 0.33854,0.29688 0.79687,0.44532 1.375,0.44531 0.79687,10e-6 1.43489,-0.28124 1.91406,-0.84375 0.48437,-0.5677 0.72655,-1.3203 0.72656,-2.25781 l 0,-0.32031 -1.42969,0 m 2.86719,-0.59375 0,4.99219 -1.4375,0 0,-1.32813 c -0.32813,0.53125 -0.73698,0.92448 -1.22656,1.17969 -0.48959,0.25 -1.08855,0.375 -1.79688,0.375 -0.89583,0 -1.60937,-0.25 -2.14062,-0.75 -0.52604,-0.50521 -0.78906,-1.17969 -0.78906,-2.02344 0,-0.98437 0.32812,-1.72656 0.98437,-2.22656 0.66146,-0.49999 1.64583,-0.74999 2.95313,-0.75 l 2.01562,0 0,-0.14063 c -10e-6,-0.66145 -0.21875,-1.17186 -0.65625,-1.53125 -0.4323,-0.36457 -1.04167,-0.54686 -1.82812,-0.54687 -0.50001,10e-6 -0.98699,0.0599 -1.46094,0.17969 -0.47396,0.1198 -0.92969,0.29948 -1.36719,0.53906 l 0,-1.32813 c 0.52604,-0.20311 1.03646,-0.35415 1.53125,-0.45312 0.49479,-0.10416 0.97656,-0.15624 1.44531,-0.15625 1.26562,10e-6 2.21094,0.32813 2.83594,0.98437 0.62499,0.65626 0.93749,1.65105 0.9375,2.98438"
               style=""
               id="path4882" />
            <path
               d="m 380.03961,952.53125 c -10e-6,-1.05729 -0.21876,-1.88541 -0.65625,-2.48438 -0.4323,-0.60415 -1.02865,-0.90624 -1.78906,-0.90625 -0.76042,10e-6 -1.35938,0.3021 -1.79688,0.90625 -0.43229,0.59897 -0.64844,1.42709 -0.64843,2.48438 -1e-5,1.05729 0.21614,1.88802 0.64843,2.49219 0.4375,0.59896 1.03646,0.89844 1.79688,0.89843 0.76041,10e-6 1.35676,-0.29947 1.78906,-0.89843 0.43749,-0.60417 0.65624,-1.4349 0.65625,-2.49219 m -4.89062,-3.05469 c 0.30208,-0.52082 0.68228,-0.90624 1.14062,-1.15625 0.46354,-0.2552 1.01562,-0.3828 1.65625,-0.38281 1.0625,10e-6 1.92447,0.42188 2.58594,1.26562 0.66666,0.84376 0.99999,1.95314 1,3.32813 -10e-6,1.375 -0.33334,2.48438 -1,3.32812 -0.66147,0.84376 -1.52344,1.26563 -2.58594,1.26563 -0.64063,0 -1.19271,-0.125 -1.65625,-0.375 -0.45834,-0.25521 -0.83854,-0.64323 -1.14062,-1.16406 l 0,1.3125 -1.44532,0 0,-12.15625 1.44532,0 0,4.73437"
               style=""
               id="path4884" />
            <path
               d="m 387.89117,952.5 c -1.16146,0 -1.96615,0.13282 -2.41406,0.39844 -0.44792,0.26563 -0.67188,0.71875 -0.67187,1.35937 -1e-5,0.51042 0.16666,0.91667 0.5,1.21875 0.33854,0.29688 0.79687,0.44532 1.375,0.44531 0.79687,10e-6 1.43489,-0.28124 1.91406,-0.84375 0.48437,-0.5677 0.72655,-1.3203 0.72656,-2.25781 l 0,-0.32031 -1.42969,0 m 2.86719,-0.59375 0,4.99219 -1.4375,0 0,-1.32813 c -0.32813,0.53125 -0.73698,0.92448 -1.22656,1.17969 -0.48959,0.25 -1.08855,0.375 -1.79688,0.375 -0.89583,0 -1.60937,-0.25 -2.14062,-0.75 -0.52604,-0.50521 -0.78906,-1.17969 -0.78906,-2.02344 0,-0.98437 0.32812,-1.72656 0.98437,-2.22656 0.66146,-0.49999 1.64583,-0.74999 2.95313,-0.75 l 2.01562,0 0,-0.14063 c -10e-6,-0.66145 -0.21875,-1.17186 -0.65625,-1.53125 -0.4323,-0.36457 -1.04167,-0.54686 -1.82812,-0.54687 -0.50001,10e-6 -0.98699,0.0599 -1.46094,0.17969 -0.47396,0.1198 -0.92969,0.29948 -1.36719,0.53906 l 0,-1.32813 c 0.52604,-0.20311 1.03646,-0.35415 1.53125,-0.45312 0.49479,-0.10416 0.97656,-0.15624 1.44531,-0.15625 1.26562,10e-6 2.21094,0.32813 2.83594,0.98437 0.62499,0.65626 0.93749,1.65105 0.9375,2.98438"
               style=""
               id="path4886" />
            <path
               d="m 399.33649,948.40625 0,1.35937 c -0.40626,-0.20832 -0.82813,-0.36457 -1.26563,-0.46875 -0.4375,-0.10415 -0.89063,-0.15624 -1.35937,-0.15625 -0.71355,10e-6 -1.25001,0.10939 -1.60938,0.32813 -0.35417,0.21876 -0.53125,0.54688 -0.53125,0.98437 0,0.33334 0.1276,0.59637 0.38281,0.78907 0.25521,0.1875 0.76823,0.36719 1.53907,0.53906 l 0.49218,0.10937 c 1.02083,0.21876 1.74479,0.52866 2.17188,0.92969 0.43228,0.39584 0.64843,0.95053 0.64844,1.66406 -1e-5,0.81251 -0.32293,1.45574 -0.96875,1.92969 -0.64063,0.47396 -1.52345,0.71094 -2.64844,0.71094 -0.46875,0 -0.95834,-0.0469 -1.46875,-0.14063 -0.50521,-0.0885 -1.03906,-0.22395 -1.60156,-0.40625 l 0,-1.48437 c 0.53125,0.27604 1.05468,0.48438 1.57031,0.625 0.51562,0.13542 1.02604,0.20313 1.53125,0.20312 0.67708,10e-6 1.19791,-0.11458 1.5625,-0.34375 0.36458,-0.23437 0.54687,-0.56249 0.54687,-0.98437 0,-0.39062 -0.13281,-0.6901 -0.39843,-0.89844 -0.26043,-0.20833 -0.83595,-0.40885 -1.72657,-0.60156 l -0.5,-0.11719 c -0.89062,-0.18749 -1.53385,-0.47395 -1.92968,-0.85937 -0.39584,-0.39062 -0.59375,-0.92448 -0.59375,-1.60157 0,-0.8229 0.29166,-1.45832 0.875,-1.90625 0.58333,-0.4479 1.41145,-0.67186 2.48437,-0.67187 0.53125,10e-6 1.03125,0.0391 1.5,0.11719 0.46875,0.0781 0.90104,0.19532 1.29688,0.35156"
               style=""
               id="path4888" />
            <path
               d="m 409.58649,952.16406 0,0.70313 -6.60938,0 c 0.0625,0.98958 0.35937,1.74479 0.89063,2.26562 0.53645,0.51563 1.28124,0.77344 2.23437,0.77344 0.55208,0 1.08593,-0.0677 1.60156,-0.20313 0.52083,-0.13541 1.03645,-0.33854 1.54688,-0.60937 l 0,1.35937 c -0.51563,0.21876 -1.04428,0.38542 -1.58594,0.5 -0.54167,0.11459 -1.09115,0.17188 -1.64844,0.17188 -1.39583,0 -2.5026,-0.40625 -3.32031,-1.21875 -0.8125,-0.8125 -1.21875,-1.91146 -1.21875,-3.29688 0,-1.43228 0.38542,-2.5677 1.15625,-3.40625 0.77604,-0.84374 1.82031,-1.26561 3.13281,-1.26562 1.17708,10e-6 2.10677,0.38022 2.78907,1.14062 0.68749,0.75522 1.03124,1.78387 1.03125,3.08594 m -1.4375,-0.42187 c -0.0104,-0.78645 -0.23178,-1.41406 -0.66407,-1.88282 -0.42709,-0.46874 -0.99479,-0.70311 -1.70312,-0.70312 -0.80209,10e-6 -1.44532,0.22657 -1.92969,0.67969 -0.47917,0.45313 -0.75521,1.09115 -0.82812,1.91406 l 5.125,-0.008"
               style=""
               id="path4890" />
            <path
               d="m 416.85992,953.44531 0,-5.29687 1.4375,0 0,5.24218 c 0,0.82813 0.16146,1.45053 0.48438,1.86719 0.32291,0.41146 0.80729,0.61719 1.45312,0.61719 0.77604,0 1.38802,-0.24739 1.83594,-0.74219 0.45312,-0.49479 0.67968,-1.16927 0.67969,-2.02344 l 0,-4.96093 1.4375,0 0,8.75 -1.4375,0 0,-1.34375 c -0.34897,0.53125 -0.75522,0.92708 -1.21875,1.1875 -0.45834,0.25521 -0.99219,0.38281 -1.60156,0.38281 -1.00521,0 -1.76824,-0.3125 -2.28907,-0.9375 -0.52083,-0.625 -0.78125,-1.53906 -0.78125,-2.74219 m 3.61719,-5.50781 0,0"
               style=""
               id="path4892" />
            <path
               d="m 428.55524,955.58594 0,4.64062 -1.44532,0 0,-12.07812 1.44532,0 0,1.32812 c 0.30208,-0.52082 0.68228,-0.90624 1.14062,-1.15625 0.46354,-0.2552 1.01562,-0.3828 1.65625,-0.38281 1.0625,10e-6 1.92447,0.42188 2.58594,1.26562 0.66666,0.84376 0.99999,1.95314 1,3.32813 -10e-6,1.375 -0.33334,2.48438 -1,3.32812 -0.66147,0.84376 -1.52344,1.26563 -2.58594,1.26563 -0.64063,0 -1.19271,-0.125 -1.65625,-0.375 -0.45834,-0.25521 -0.83854,-0.64323 -1.14062,-1.16406 m 4.89062,-3.05469 c -10e-6,-1.05729 -0.21876,-1.88541 -0.65625,-2.48438 -0.4323,-0.60415 -1.02865,-0.90624 -1.78906,-0.90625 -0.76042,10e-6 -1.35938,0.3021 -1.79688,0.90625 -0.43229,0.59897 -0.64844,1.42709 -0.64843,2.48438 -1e-5,1.05729 0.21614,1.88802 0.64843,2.49219 0.4375,0.59896 1.03646,0.89844 1.79688,0.89843 0.76041,10e-6 1.35676,-0.29947 1.78906,-0.89843 0.43749,-0.60417 0.65624,-1.4349 0.65625,-2.49219"
               style=""
               id="path4894" />
            <path
               d="m 443.07867,949.47656 0,-4.73437 1.4375,0 0,12.15625 -1.4375,0 0,-1.3125 c -0.30209,0.52083 -0.6849,0.90885 -1.14843,1.16406 -0.45834,0.25 -1.01042,0.375 -1.65625,0.375 -1.0573,0 -1.91928,-0.42187 -2.58594,-1.26563 -0.66146,-0.84374 -0.99219,-1.95312 -0.99219,-3.32812 0,-1.37499 0.33073,-2.48437 0.99219,-3.32813 0.66666,-0.84374 1.52864,-1.26561 2.58594,-1.26562 0.64583,10e-6 1.19791,0.12761 1.65625,0.38281 0.46353,0.25001 0.84634,0.63543 1.14843,1.15625 m -4.89843,3.05469 c -1e-5,1.05729 0.21614,1.88802 0.64843,2.49219 0.4375,0.59896 1.03646,0.89844 1.79688,0.89843 0.76041,10e-6 1.35937,-0.29947 1.79687,-0.89843 0.4375,-0.60417 0.65625,-1.4349 0.65625,-2.49219 0,-1.05729 -0.21875,-1.88541 -0.65625,-2.48438 -0.4375,-0.60415 -1.03646,-0.90624 -1.79687,-0.90625 -0.76042,10e-6 -1.35938,0.3021 -1.79688,0.90625 -0.43229,0.59897 -0.64844,1.42709 -0.64843,2.48438"
               style=""
               id="path4896" />
            <path
               d="m 451.45367,952.5 c -1.16146,0 -1.96615,0.13282 -2.41406,0.39844 -0.44792,0.26563 -0.67188,0.71875 -0.67187,1.35937 -1e-5,0.51042 0.16666,0.91667 0.5,1.21875 0.33854,0.29688 0.79687,0.44532 1.375,0.44531 0.79687,10e-6 1.43489,-0.28124 1.91406,-0.84375 0.48437,-0.5677 0.72655,-1.3203 0.72656,-2.25781 l 0,-0.32031 -1.42969,0 m 2.86719,-0.59375 0,4.99219 -1.4375,0 0,-1.32813 c -0.32813,0.53125 -0.73698,0.92448 -1.22656,1.17969 -0.48959,0.25 -1.08855,0.375 -1.79688,0.375 -0.89583,0 -1.60937,-0.25 -2.14062,-0.75 -0.52604,-0.50521 -0.78906,-1.17969 -0.78906,-2.02344 0,-0.98437 0.32812,-1.72656 0.98437,-2.22656 0.66146,-0.49999 1.64583,-0.74999 2.95313,-0.75 l 2.01562,0 0,-0.14063 c -10e-6,-0.66145 -0.21875,-1.17186 -0.65625,-1.53125 -0.4323,-0.36457 -1.04167,-0.54686 -1.82812,-0.54687 -0.50001,10e-6 -0.98699,0.0599 -1.46094,0.17969 -0.47396,0.1198 -0.92969,0.29948 -1.36719,0.53906 l 0,-1.32813 c 0.52604,-0.20311 1.03646,-0.35415 1.53125,-0.45312 0.49479,-0.10416 0.97656,-0.15624 1.44531,-0.15625 1.26562,10e-6 2.21094,0.32813 2.83594,0.98437 0.62499,0.65626 0.93749,1.65105 0.9375,2.98438"
               style=""
               id="path4898" />
            <path
               d="m 458.74274,945.66406 0,2.48438 2.96093,0 0,1.11718 -2.96093,0 0,4.75 c -1e-5,0.71355 0.0963,1.17188 0.28906,1.375 0.19791,0.20313 0.59635,0.30469 1.19531,0.30469 l 1.47656,0 0,1.20313 -1.47656,0 c -1.10938,0 -1.875,-0.20573 -2.29687,-0.61719 -0.42188,-0.41667 -0.63282,-1.17187 -0.63282,-2.26563 l 0,-4.75 -1.05468,0 0,-1.11718 1.05468,0 0,-2.48438 1.44532,0"
               style=""
               id="path4900" />
            <path
               d="m 471.08649,952.16406 0,0.70313 -6.60938,0 c 0.0625,0.98958 0.35937,1.74479 0.89063,2.26562 0.53645,0.51563 1.28124,0.77344 2.23437,0.77344 0.55208,0 1.08593,-0.0677 1.60156,-0.20313 0.52083,-0.13541 1.03645,-0.33854 1.54688,-0.60937 l 0,1.35937 c -0.51563,0.21876 -1.04428,0.38542 -1.58594,0.5 -0.54167,0.11459 -1.09115,0.17188 -1.64844,0.17188 -1.39583,0 -2.5026,-0.40625 -3.32031,-1.21875 -0.8125,-0.8125 -1.21875,-1.91146 -1.21875,-3.29688 0,-1.43228 0.38542,-2.5677 1.15625,-3.40625 0.77604,-0.84374 1.82031,-1.26561 3.13281,-1.26562 1.17708,10e-6 2.10677,0.38022 2.78907,1.14062 0.68749,0.75522 1.03124,1.78387 1.03125,3.08594 m -1.4375,-0.42187 c -0.0104,-0.78645 -0.23178,-1.41406 -0.66407,-1.88282 -0.42709,-0.46874 -0.99479,-0.70311 -1.70312,-0.70312 -0.80209,10e-6 -1.44532,0.22657 -1.92969,0.67969 -0.47917,0.45313 -0.75521,1.09115 -0.82812,1.91406 l 5.125,-0.008"
               style=""
               id="path4902" />
          </g>
        </g>
      </g>
      <path
         transform="translate(0,952.36218)"
         style="fill:none;stroke:#000000;stroke-width:2;stroke-miterlimit:4;stroke-dashoffset:0;stroke-opacity:1"
         d="m 203,12 104,0 0,76 -104,0 z"
         id="rect4709" />
      <path
         transform="translate(0,952.36218)"
         style="fill:none;stroke:#000000;stroke-width:2;stroke-miterlimit:4;stroke-dashoffset:0;stroke-opacity:1"
         d="m 493,5 105,0 0,91 -105,0 z"
         id="rect4711" />
    </g>
  </g>
</svg>
