<?xml version="1.0" encoding="UTF-8" standalone="no"?>
<svg
   xmlns:dc="http://purl.org/dc/elements/1.1/"
   xmlns:cc="http://creativecommons.org/ns#"
   xmlns:rdf="http://www.w3.org/1999/02/22-rdf-syntax-ns#"
   xmlns:svg="http://www.w3.org/2000/svg"
   xmlns="http://www.w3.org/2000/svg"
   xmlns:sodipodi="http://sodipodi.sourceforge.net/DTD/sodipodi-0.dtd"
   xmlns:inkscape="http://www.inkscape.org/namespaces/inkscape"
   version="1.1"
   width="190"
   height="40"
   viewBox="0 0 0.37109375 0.078125"
   preserveAspectRatio="xMidYMid"
   id="svg2"
   inkscape:version="0.91 r13725"
   sodipodi:docname="bitcoin-core.svg"
   inkscape:export-xdpi="90"
   inkscape:export-ydpi="90">
  <metadata
     id="metadata22">
    <rdf:RDF>
      <cc:Work
         rdf:about="">
        <dc:format>image/svg+xml</dc:format>
        <dc:type
           rdf:resource="http://purl.org/dc/dcmitype/StillImage" />
        <dc:title />
      </cc:Work>
    </rdf:RDF>
  </metadata>
  <sodipodi:namedview
     pagecolor="#ffffff"
     bordercolor="#666666"
     borderopacity="1"
     objecttolerance="10"
     gridtolerance="10"
     guidetolerance="10"
     inkscape:pageopacity="0"
     inkscape:pageshadow="2"
     inkscape:window-width="1615"
     inkscape:window-height="1026"
     id="namedview20"
     showgrid="false"
     inkscape:zoom="11.313708"
     inkscape:cx="29.402467"
     inkscape:cy="9.4057847"
     inkscape:window-x="65"
     inkscape:window-y="24"
     inkscape:window-maximized="1"
     inkscape:current-layer="svg2" />
  <!-- Android launcher icons: viewBox="-0.045 -0.045 1.09 1.09" -->
  <defs
     id="defs4">
    <filter
       id="_drop-shadow"
       color-interpolation-filters="sRGB">
      <feGaussianBlur
         in="SourceAlpha"
         result="blur-out"
         stdDeviation="1"
         id="feGaussianBlur7" />
      <feBlend
         in="SourceGraphic"
         in2="blur-out"
         mode="normal"
         id="feBlend9" />
    </filter>
    <linearGradient
       id="coin-gradient"
       x1="0"
       y1="0"
       x2="0"
       y2="1">
      <stop
         offset="0%"
         style="stop-color:#f9aa4b"
         id="stop12" />
      <stop
         offset="100%"
         style="stop-color:#f7931a"
         id="stop14" />
    </linearGradient>
  </defs>
  <g
     style="font-style:normal;font-variant:normal;font-weight:normal;font-stretch:normal;font-size:0.06686545px;line-height:125%;font-family:Sans;-inkscape-font-specification:Sans;text-align:start;letter-spacing:0px;word-spacing:0px;writing-mode:lr-tb;text-anchor:start;fill:#b3b3b3;fill-opacity:1;stroke:none"
     id="text3882"
     transform="matrix(0.81109867,0,0,0.81109867,0.06721753,0.01179634)">
    <path
       d="m 0.00800291,0.04071128 0,0.01785909 0.01057832,0 c 0.0035478,0 0.0061707,-7.2916e-4 0.0078684,-0.0021875 0.0017195,-0.0014801 0.0025793,-0.0037329 0.0025793,-0.0067584 -3e-8,-0.0030472 -8.5979e-4,-0.0052891 -0.0025793,-0.0067257 -0.0016978,-0.0014583 -0.0043206,-0.0021875 -0.0078684,-0.0021875 l -0.01057832,0 m 0,-0.02004657 0,0.01469211 0.0097621,0 c 0.0032213,3e-8 0.0056156,-5.9854e-4 0.0071828,-0.0017957 0.0015889,-0.0012189 0.0023833,-0.003069 0.0023834,-0.0055504 -4e-8,-0.0024595 -7.945e-4,-0.0042988 -0.0023834,-0.0055177 -0.0015672,-0.0012189 -0.0039615,-0.0018283 -0.0071828,-0.0018283 l -0.0097621,0 m -0.00659513,-0.0054198 0.01684696,0 c 0.0050279,5e-8 0.0089023,0.0010448 0.0116231,0.0031343 0.0027207,0.0020896 0.0040811,0.0050607 0.0040811,0.0089132 -4e-8,0.002982 -6.9655e-4,0.0053545 -0.0020895,0.0071175 -0.0013931,0.0017631 -0.0034391,0.0028623 -0.006138,0.0032976 0.0032431,6.9654e-4 0.0057571,0.0021549 0.0075419,0.004375 0.0018065,0.0021984 0.0027098,0.0049518 0.0027099,0.0082602 -4e-8,0.0043532 -0.0014801,0.0077161 -0.0044403,0.01008859 C 0.02858274,0.0628038 0.02437094,0.06399 0.01890772,0.06399 l -0.01749995,0 0,-0.04874517"
       id="path4260"
       inkscape:connector-curvature="0" />
    <path
       d="m 0.04698599,0.02742308 0.0060075,0 0,0.03656704 -0.0060075,0 0,-0.03656704 m 0,-0.01423503 0.0060075,0 0,0.0076072 -0.0060075,0 0,-0.0076072"
       id="path4262"
       inkscape:connector-curvature="0" />
    <path
       d="m 0.07147285,0.01704065 0,0.01038243 0.01237403,0 0,0.0046688 -0.01237403,0 0,0.01985068 c -1e-8,0.002982 4.0266e-4,0.0048974 0.001208,0.0057463 8.271e-4,8.4888e-4 0.0024922,0.0012733 0.0049953,0.0012733 l 0.0061707,0 0,0.005028 -0.0061707,0 c -0.0046362,0 -0.0078358,-8.5976e-4 -0.0095989,-0.0025793 -0.0017631,-0.0017413 -0.0026446,-0.0048974 -0.0026446,-0.0094683 l 0,-0.01985068 -0.0044076,0 0,-0.0046688 0.0044076,0 0,-0.01038243 0.0060401,0"
       id="path4264"
       inkscape:connector-curvature="0" />
    <path
       d="m 0.11809584,0.02882699 0,0.0056157 c -0.001698,-9.3592e-4 -0.003406,-0.0016324 -0.005126,-0.0020895 -0.001698,-4.7882e-4 -0.003417,-7.1825e-4 -0.005159,-7.1828e-4 -0.003896,3e-8 -0.006922,0.0012407 -0.0090765,0.003722 -0.0021549,0.0024596 -0.0032323,0.0059204 -0.0032323,0.01038243 -10e-9,0.0044621 0.0010774,0.0079337 0.0032323,0.01041508 0.0021548,0.0024596 0.0051803,0.0036894 0.0090765,0.0036894 0.001741,1e-8 0.003461,-2.2854e-4 0.005159,-6.8563e-4 0.001719,-4.7885e-4 0.003428,-0.0011862 0.005126,-0.0021222 l 0,0.0055504 c -0.001676,7.8358e-4 -0.003417,0.0013713 -0.005224,0.0017631 -0.001785,3.9179e-4 -0.003689,5.8769e-4 -0.005714,5.8769e-4 -0.005507,0 -0.0098818,-0.0017304 -0.01312496,-0.0051912 -0.0032432,-0.0034608 -0.0048647,-0.0081296 -0.0048647,-0.01400648 0,-0.0059639 0.0016325,-0.01065448 0.0048974,-0.01407178 0.0032867,-0.0034172 0.0077814,-0.0051259 0.0134841,-0.0051259 0.00185,4e-8 0.003657,1.9593e-4 0.00542,5.8769e-4 0.001763,3.7006e-4 0.003472,9.3598e-4 0.005126,0.0016978"
       id="path4266"
       inkscape:connector-curvature="0" />
    <path
       d="m 0.14264799,0.03163482 c -0.003221,3e-8 -0.005768,0.0012625 -0.00764,0.0037873 -0.001872,0.0025031 -0.002808,0.0059422 -0.002808,0.01031713 -10e-9,0.004375 9.2505e-4,0.0078249 0.002775,0.01034978 0.001872,0.0025031 0.004429,0.0037547 0.007673,0.0037547 0.0032,1e-8 0.005735,-0.0012624 0.007607,-0.0037873 0.001872,-0.0025249 0.002808,-0.0059639 0.002808,-0.01031713 -3e-8,-0.0043314 -9.3597e-4,-0.0077596 -0.002808,-0.01028448 -0.001872,-0.0025466 -0.004408,-0.0038199 -0.007607,-0.0038199 m 0,-0.0050933 c 0.005224,4e-8 0.009327,0.0016978 0.0123087,0.0050933 0.002982,0.0033955 0.004473,0.008097 0.004473,0.01410443 -4e-8,0.0059857 -0.001491,0.01068716 -0.004473,0.01410443 -0.002982,0.0033955 -0.007085,0.0050933 -0.0123087,0.0050933 -0.005246,0 -0.009359,-0.0016978 -0.0123414,-0.0050933 -0.00296,-0.0034173 -0.00444,-0.0081187 -0.00444,-0.01410443 0,-0.0060074 0.00148,-0.01070889 0.00444,-0.01410443 0.002982,-0.0033955 0.007096,-0.0050932 0.0123414,-0.0050933"
       id="path4268"
       inkscape:connector-curvature="0" />
    <path
       d="m 0.169355,0.02742308 0.006007,0 0,0.03656704 -0.006007,0 0,-0.03656704 m 0,-0.01423503 0.006007,0 0,0.0076072 -0.006007,0 0,-0.0076072"
       id="path4270"
       inkscape:connector-curvature="0" />
    <path
       d="m 0.21829607,0.0419193 0,0.02207082 -0.006007,0 0,-0.02187492 c -3e-8,-0.0034608 -6.7478e-4,-0.006051 -0.002024,-0.0077705 -0.00135,-0.0017195 -0.003374,-0.0025792 -0.006073,-0.0025793 -0.003243,3e-8 -0.005801,0.0010339 -0.007673,0.0031017 -0.001872,0.0020678 -0.002808,0.0048865 -0.002808,0.0084561 l 0,0.02066691 -0.00604,0 0,-0.03656704 0.00604,0 0,0.005681 c 0.001437,-0.0021983 0.003123,-0.0038417 0.005061,-0.00493 0.001959,-0.0010883 0.004212,-0.0016324 0.006758,-0.0016325 0.004201,4e-8 0.007379,0.001306 0.009534,0.0039179 0.002155,0.0025902 0.003232,0.0064101 0.003232,0.01145985"
       id="path4272"
       inkscape:connector-curvature="0" />
  </g>
  <g
     style="font-style:normal;font-variant:normal;font-weight:normal;font-stretch:normal;font-size:0.06686545px;line-height:125%;font-family:Sans;-inkscape-font-specification:Sans;text-align:start;letter-spacing:0px;word-spacing:0px;writing-mode:lr-tb;text-anchor:start;fill:#666666;fill-opacity:1;stroke:none"
     id="text3886"
     transform="matrix(0.81109867,0,0,0.81109867,0.07038589,0.01179634)">
    <path
       d="m 0.26247592,0.01841191 0,0.0069543 c -0.00222,-0.0020677 -0.004593,-0.0036131 -0.007118,-0.0046362 -0.002503,-0.001023 -0.005169,-0.0015345 -0.007999,-0.0015345 -0.005572,5e-8 -0.009838,0.0017087 -0.0127985,0.0051259 -0.00296,0.0033955 -0.00444,0.0083147 -0.00444,0.01475741 -10e-9,0.006421 0.00148,0.01134015 0.00444,0.01475742 0.00296,0.0033955 0.007226,0.0050933 0.0127985,0.0050933 0.00283,10e-9 0.005496,-5.1149e-4 0.007999,-0.0015345 0.002525,-0.001023 0.004897,-0.0025684 0.007118,-0.0046362 l 0,0.006889 c -0.002307,0.0015672 -0.004756,0.0027425 -0.007346,0.0035261 -0.002568,7.8358e-4 -0.005289,0.0011754 -0.008162,0.0011754 -0.007379,0 -0.0131903,-0.0022528 -0.0174346,-0.0067584 -0.004244,-0.0045273 -0.006367,-0.01069802 -0.006367,-0.01851207 0,-0.0078358 0.002122,-0.01400644 0.006367,-0.01851206 0.004244,-0.0045273 0.0100559,-0.006791 0.0174346,-0.006791 0.002917,5e-8 0.005659,3.9184e-4 0.008228,0.0011754 0.00259,7.6186e-4 0.005017,0.0019155 0.007281,0.0034608"
       id="path4251"
       inkscape:connector-curvature="0" />
    <path
       d="m 0.28663629,0.03104713 c -0.003221,4e-8 -0.005768,0.0012625 -0.00764,0.0037873 -0.001872,0.0025031 -0.002808,0.0059422 -0.002808,0.01031713 -10e-9,0.004375 9.2504e-4,0.0078249 0.002775,0.01034978 0.001872,0.0025031 0.004429,0.0037547 0.007673,0.0037547 0.0032,0 0.005735,-0.0012624 0.007607,-0.0037873 0.001872,-0.0025249 0.002808,-0.0059639 0.002808,-0.01031713 -3e-8,-0.0043314 -9.3597e-4,-0.0077596 -0.002808,-0.01028448 -0.001872,-0.0025466 -0.004408,-0.0038199 -0.007607,-0.00382 m 0,-0.0050933 c 0.005224,3e-8 0.009327,0.0016978 0.0123087,0.0050933 0.002982,0.0033955 0.004473,0.008097 0.004473,0.01410443 -3e-8,0.0059857 -0.001491,0.01068717 -0.004473,0.01410444 -0.002982,0.0033955 -0.007085,0.0050933 -0.0123087,0.0050933 -0.005246,0 -0.009359,-0.0016978 -0.0123414,-0.0050933 -0.00296,-0.0034173 -0.00444,-0.0081188 -0.00444,-0.01410444 0,-0.0060074 0.00148,-0.01070889 0.00444,-0.01410443 0.002982,-0.0033955 0.007096,-0.0050932 0.0123414,-0.0050933"
       id="path4253"
       inkscape:connector-curvature="0" />
    <path
       d="m 0.33453259,0.03245105 c -6.7477e-4,-3.9176e-4 -0.001415,-6.7472e-4 -0.00222,-8.4888e-4 -7.836e-4,-1.9586e-4 -0.001654,-2.9381e-4 -0.002612,-2.9384e-4 -0.003396,3e-8 -0.006007,0.0011101 -0.007836,0.0033302 -0.001807,0.0021984 -0.00271,0.0053654 -0.00271,0.0095009 l 0,0.019263 -0.00604,0 0,-0.03656705 0.00604,0 0,0.0056809 c 0.001262,-0.0022201 0.002906,-0.0038634 0.00493,-0.00493 0.002024,-0.0010883 0.004484,-0.0016324 0.007379,-0.0016325 4.1353e-4,3e-8 8.7062e-4,3.268e-5 0.001371,9.794e-5 5.0059e-4,4.357e-5 0.001056,1.1975e-4 0.001665,2.2855e-4 l 3.265e-5,0.0061707"
       id="path4255"
       inkscape:connector-curvature="0" />
    <path
       d="m 0.37074049,0.04361705 0,0.0029384 -0.0276212,0 c 2.6119e-4,0.0041356 0.001502,0.0072916 0.003722,0.0094682 0.002242,0.0021549 0.005354,0.0032323 0.009338,0.0032323 0.002307,0 0.004538,-2.8296e-4 0.006693,-8.4888e-4 0.002177,-5.6592e-4 0.004331,-0.0014148 0.006465,-0.0025466 l 0,0.005681 c -0.002155,9.1417e-4 -0.004364,0.0016107 -0.006628,0.0020895 -0.002264,4.7885e-4 -0.00456,7.1828e-4 -0.006889,7.1828e-4 -0.005833,0 -0.0104586,-0.0016978 -0.0138759,-0.0050933 -0.003396,-0.0033955 -0.005093,-0.0079882 -0.005093,-0.01377794 -10e-9,-0.0059857 0.001611,-0.01073066 0.004832,-0.01423503 0.003243,-0.0035261 0.007607,-0.0052891 0.0130923,-0.0052892 0.004919,3e-8 0.008804,0.001589 0.0116557,0.0047668 0.002873,0.0031561 0.00431,0.0074549 0.00431,0.01289641 m -0.006007,-0.001763 c -4.356e-5,-0.0032867 -9.6862e-4,-0.0059095 -0.002775,-0.0078684 -0.001785,-0.0019589 -0.004157,-0.0029384 -0.007118,-0.0029384 -0.003352,4e-8 -0.00604,9.4686e-4 -0.008064,0.0028405 -0.002002,0.0018937 -0.003156,0.00456 -0.003461,0.007999 l 0.0214178,-3.265e-5"
       id="path4257"
       inkscape:connector-curvature="0" />
  </g>
  <path
     d="M 0.05771683,0.04917282 C 0.05380341,0.06486939 0.03790546,0.0744221 0.02220707,0.07050779 0.00651509,0.06659438 -0.00303763,0.05069553 8.7759387e-4,0.03499988 0.00478915,0.01930148 0.02068712,0.00974784 0.03638093,0.01366123 c 0.01569748,0.0039135 0.02524929,0.01981414 0.0213359,0.03551159 z"
     id="path8"
     inkscape:connector-curvature="0"
     style="fill:#f7931a" />
  <path
     d="m 0.04221073,0.03896188 c 5.8326e-4,-0.0038986 -0.0023851,-0.0059947 -0.0064442,-0.0073928 l 0.0013166,-0.0052814 -0.0032147,-8.0118e-4 -0.0012819,0.0051422 c -8.4514e-4,-2.1059e-4 -0.001713,-4.0928e-4 -0.0025756,-6.0613e-4 l 0.0012909,-0.0051761 -0.0032129,-8.0118e-4 -0.0013177,0.0052795 C 0.02607188,0.02916548 0.02538523,0.029008 0.02471859,0.02884227 l 3.6e-6,-1.648e-5 -0.0044335,-0.001107 -8.5516e-4,0.0034336 c 0,0 0.0023851,5.4664e-4 0.0023348,5.8052e-4 0.001302,3.2504e-4 0.0015373,0.0011866 0.0014981,0.0018697 l -0.0014997,0.0060165 c 8.973e-5,2.289e-5 2.0602e-4,5.586e-5 3.342e-4,1.0712e-4 -1.0713e-4,-2.655e-5 -2.2158e-4,-5.585e-5 -3.397e-4,-8.423e-5 l -0.0021023,0.0084282 c -1.5933e-4,3.9553e-4 -5.6312e-4,9.8884e-4 -0.0014731,7.6362e-4 3.204e-5,4.671e-5 -0.0023366,-5.8324e-4 -0.0023366,-5.8324e-4 l -0.0015958,0.0036798 0.0041836,0.001043 c 7.7825e-4,1.9503e-4 0.001541,3.9919e-4 0.0022918,5.9148e-4 l -0.0013303,0.0053418 0.003211,8.0119e-4 0.0013176,-0.005285 c 8.7719e-4,2.3806e-4 0.0017286,4.5781e-4 0.0025619,6.6474e-4 l -0.0013132,0.0052604 0.0032148,8.014e-4 0.0013303,-0.0053318 c 0.0054819,0.0010373 0.0096039,6.1897e-4 0.01133911,-0.0043391 0.0013982,-0.003992 -6.961e-5,-0.0062948 -0.0029539,-0.0077965 0.0021004,-4.8438e-4 0.0036826,-0.001866 0.0041048,-0.0047201 z m -0.0073451,0.01029989 c -9.9344e-4,0.003992 -0.0077151,0.001834 -0.0098943,0.0012929 l 0.0017653,-0.0070769 c 0.002179,5.4389e-4 0.0091672,0.0016206 0.0081288,0.0057841 z m 9.9434e-4,-0.01035758 c -9.0647e-4,0.0036313 -0.0065008,0.0017863 -0.0083157,0.001334 l 0.0016005,-0.0064185 c 0.0018147,4.5234e-4 0.0076591,0.0012964 0.0067151,0.0050845 z"
     id="path10"
     inkscape:connector-curvature="0"
     style="fill:#ffffff" />
</svg>
