<?xml version="1.0" encoding="UTF-8" standalone="no"?>
<!-- Created with Inkscape (http://www.inkscape.org/) -->

<svg
   xmlns:dc="http://purl.org/dc/elements/1.1/"
   xmlns:cc="http://creativecommons.org/ns#"
   xmlns:rdf="http://www.w3.org/1999/02/22-rdf-syntax-ns#"
   xmlns:svg="http://www.w3.org/2000/svg"
   xmlns="http://www.w3.org/2000/svg"
   xmlns:sodipodi="http://sodipodi.sourceforge.net/DTD/sodipodi-0.dtd"
   xmlns:inkscape="http://www.inkscape.org/namespaces/inkscape"
   width="600"
   height="90"
   id="svg4666"
   version="1.1"
   inkscape:version="0.48.5 r10040"
   sodipodi:docname="connection-types-p2p-spv.svg"
   inkscape:export-filename="/home/harding/dev/bitcoin.org/img/bitcoin-core/connection-types-p2p-spv.png"
   inkscape:export-xdpi="90"
   inkscape:export-ydpi="90">
  <defs
     id="defs4668">
    <inkscape:path-effect
       effect="spiro"
       id="path-effect12077"
       is_visible="true" />
    <inkscape:path-effect
       effect="spiro"
       id="path-effect11746"
       is_visible="true" />
    <inkscape:path-effect
       effect="spiro"
       id="path-effect11742"
       is_visible="true" />
    <inkscape:path-effect
       effect="spiro"
       id="path-effect11738"
       is_visible="true" />
    <inkscape:path-effect
       effect="spiro"
       id="path-effect11224"
       is_visible="true" />
    <inkscape:path-effect
       effect="spiro"
       id="path-effect5356"
       is_visible="true" />
    <inkscape:path-effect
       effect="spiro"
       id="path-effect5352"
       is_visible="true" />
    <inkscape:path-effect
       effect="spiro"
       id="path-effect4719"
       is_visible="true" />
    <linearGradient
       id="linearGradient4075">
      <stop
         style="stop-color:#000000;stop-opacity:1;"
         offset="0"
         id="stop4077" />
      <stop
         id="stop4087"
         offset="0.5"
         style="stop-color:#000000;stop-opacity:0.75838351;" />
      <stop
         id="stop4085"
         offset="1"
         style="stop-color:#000000;stop-opacity:0.56491834;" />
    </linearGradient>
    <inkscape:path-effect
       effect="spiro"
       id="path-effect5352-0"
       is_visible="true" />
    <inkscape:path-effect
       effect="spiro"
       id="path-effect4719-3"
       is_visible="true" />
    <inkscape:path-effect
       effect="spiro"
       id="path-effect4719-7"
       is_visible="true" />
    <inkscape:path-effect
       effect="spiro"
       id="path-effect11746-9"
       is_visible="true" />
    <inkscape:path-effect
       effect="spiro"
       id="path-effect11746-9-4"
       is_visible="true" />
    <inkscape:path-effect
       effect="spiro"
       id="path-effect11742-6"
       is_visible="true" />
    <inkscape:path-effect
       effect="spiro"
       id="path-effect11746-9-4-7"
       is_visible="true" />
  </defs>
  <sodipodi:namedview
     id="base"
     pagecolor="#ffffff"
     bordercolor="#666666"
     borderopacity="1.0"
     inkscape:pageopacity="0.0"
     inkscape:pageshadow="2"
     inkscape:zoom="1.4142136"
     inkscape:cx="209.27244"
     inkscape:cy="-46.967865"
     inkscape:document-units="px"
     inkscape:current-layer="layer1"
     showgrid="false"
     inkscape:window-width="1918"
     inkscape:window-height="1042"
     inkscape:window-x="0"
     inkscape:window-y="0"
     inkscape:window-maximized="0" />
  <metadata
     id="metadata4671">
    <rdf:RDF>
      <cc:Work
         rdf:about="">
        <dc:format>image/svg+xml</dc:format>
        <dc:type
           rdf:resource="http://purl.org/dc/dcmitype/StillImage" />
        <dc:title></dc:title>
      </cc:Work>
    </rdf:RDF>
  </metadata>
  <g
     inkscape:label="Layer 1"
     inkscape:groupmode="layer"
     id="layer1"
     transform="translate(0,-962.36218)">
    <path
       id="path11744-7-9-3"
       style="fill:none;stroke:#000000;stroke-width:2;stroke-linecap:butt;stroke-linejoin:miter;stroke-miterlimit:4;stroke-opacity:1;stroke-dasharray:4, 4;stroke-dashoffset:0"
       inkscape:path-effect="#path-effect11746-9-4-7"
       inkscape:original-d="m 548.14338,1045.4007 -36.17329,0 m 36.04503,-76.80113 -36.1733,0 m -1.30963,-0.57129 -48.73589,38.41852 49.51261,40.2493 m -48.11932,-40.2425 50.27106,0 m -502.98362,0.5465 450.38813,0"
       d="m 548.14338,1045.4007 -36.17329,0 m 36.04503,-76.80113 -36.1733,0 m -1.30963,-0.57129 -48.73589,38.41852 49.51261,40.2493 m -48.11932,-40.2425 50.27106,0 m -502.98362,0.5465 450.38813,0"
       inkscape:connector-curvature="0"
       sodipodi:nodetypes="ccccccccccc" />
    <path
       inkscape:connector-curvature="0"
       id="path4715"
       d="m 16.67857,1007.3622 c 0,3.8462 -3.11802,6.9643 -6.96429,6.9643 -3.84626,0 -6.96428,-3.1181 -6.96428,-6.9643 0,-3.8463 3.11802,-6.9643 6.96428,-6.9643 3.84627,0 6.96429,3.118 6.96429,6.9643 z"
       style="fill:#800000;fill-opacity:1;fill-rule:nonzero;stroke:#000000;stroke-width:1.5;stroke-miterlimit:4;stroke-opacity:1;stroke-dashoffset:0" />
    <path
       inkscape:connector-curvature="0"
       id="path11740"
       style="fill:none;stroke:#000000;stroke-width:2;stroke-linecap:butt;stroke-linejoin:miter;stroke-miterlimit:4;stroke-opacity:0.19607843000000000;stroke-dasharray:4,2;stroke-dashoffset:0"
       inkscape:path-effect="#path-effect11742"
       inkscape:original-d="m 513.12197,1007.5485 80.28302,0 m -41.53694,-38.29288 0,77.11388"
       d="m 513.12197,1007.5485 80.28302,0 m -41.53694,-38.29288 0,77.11388" />
    <rect
       style="fill:none;stroke:#000000;stroke-width:2;stroke-miterlimit:4;stroke-opacity:0.19607843000000000;stroke-dasharray:4.00000001,2;stroke-dashoffset:0"
       id="rect11226"
       width="57.571377"
       height="57.571377"
       x="-351.00049"
       y="1073.8884"
       transform="matrix(0.70710678,-0.70710678,0.70710678,0.70710678,0,0)" />
    <path
       inkscape:connector-curvature="0"
       id="rect4674-30"
       d="m 505.89833,1000.8793 13.33852,0 0,13.3386 -13.33852,0 z"
       style="fill:#ffffff;fill-opacity:1;fill-rule:nonzero;stroke:#c6c6c6;stroke-width:2;stroke-miterlimit:4;stroke-opacity:1;stroke-dashoffset:0;stroke-dasharray:none" />
    <path
       inkscape:connector-curvature="0"
       id="rect4674-30-2"
       d="m 583.91454,1000.8793 13.3385,0 0,13.3386 -13.3385,0 z"
       style="fill:#ffffff;fill-opacity:1;fill-rule:nonzero;stroke:#c6c6c6;stroke-width:2;stroke-miterlimit:4;stroke-opacity:1;stroke-dashoffset:0;stroke-dasharray:none" />
    <path
       inkscape:connector-curvature="0"
       id="rect4674-30-2-4"
       d="m 545.19879,963.29174 13.33851,0 0,13.33854 -13.33851,0 z"
       style="fill:#ffffff;fill-opacity:1;fill-rule:nonzero;stroke:#c6c6c6;stroke-width:2;stroke-miterlimit:4;stroke-opacity:1;stroke-dashoffset:0;stroke-dasharray:none" />
    <path
       inkscape:connector-curvature="0"
       id="rect4674-30-2-7"
       d="m 545.19879,1038.0941 13.33851,0 0,13.3385 -13.33851,0 z"
       style="fill:#ffffff;fill-opacity:1;fill-rule:nonzero;stroke:#c6c6c6;stroke-width:2;stroke-miterlimit:4;stroke-opacity:1;stroke-dashoffset:0;stroke-dasharray:none" />
    <g
       style="font-size:20px;font-style:normal;font-weight:normal;line-height:125%;letter-spacing:0px;word-spacing:0px;fill:#000000;fill-opacity:1;stroke:none;font-family:Sans"
       id="text11170-7-7">
      <path
         d="m 124.25751,981.81281 2.65625,0 6.46484,12.19726 0,-12.19726 1.91406,0 0,14.58007 -2.65625,0 -6.46484,-12.19726 0,12.19726 -1.91406,0 0,-14.58007"
         style=""
         id="path13009" />
      <path
         d="m 143.3786,986.71515 c -0.96355,10e-6 -1.72526,0.37761 -2.28516,1.13281 -0.55989,0.74871 -0.83984,1.77735 -0.83984,3.08594 0,1.3086 0.27669,2.3405 0.83008,3.0957 0.55989,0.7487 1.32486,1.12305 2.29492,1.12305 0.95703,0 1.71549,-0.3776 2.27539,-1.13281 0.55989,-0.75521 0.83984,-1.78385 0.83985,-3.08594 -1e-5,-1.29557 -0.27996,-2.32096 -0.83985,-3.07617 -0.5599,-0.76171 -1.31836,-1.14257 -2.27539,-1.14258 m 0,-1.52344 c 1.56249,1e-5 2.78971,0.50782 3.68164,1.52344 0.89192,1.01563 1.33788,2.42188 1.33789,4.21875 -1e-5,1.79037 -0.44597,3.19662 -1.33789,4.21875 -0.89193,1.01562 -2.11915,1.52344 -3.68164,1.52344 -1.56901,0 -2.79948,-0.50782 -3.69141,-1.52344 -0.88541,-1.02213 -1.32812,-2.42838 -1.32812,-4.21875 0,-1.79687 0.44271,-3.20312 1.32812,-4.21875 0.89193,-1.01562 2.1224,-1.52343 3.69141,-1.52344"
         style=""
         id="path13011" />
      <path
         d="m 160.45868,989.79132 0,6.60156 -1.79688,0 0,-6.54297 c 0,-1.03514 -0.20183,-1.80988 -0.60546,-2.32421 -0.40366,-0.51432 -1.00913,-0.77148 -1.81641,-0.77149 -0.97006,1e-5 -1.73503,0.30926 -2.29492,0.92774 -0.5599,0.61849 -0.83985,1.46159 -0.83985,2.52929 l 0,6.18164 -1.80664,0 0,-10.9375 1.80664,0 0,1.69922 c 0.42969,-0.65754 0.93424,-1.14908 1.51368,-1.47461 0.58593,-0.32551 1.25975,-0.48827 2.02148,-0.48828 1.2565,1e-5 2.20702,0.39064 2.85156,1.17188 0.64452,0.77475 0.96679,1.91732 0.9668,3.42773"
         style=""
         id="path13013" />
      <path
         d="m 163.15399,990.11359 5.26367,0 0,1.60156 -5.26367,0 0,-1.60156"
         style=""
         id="path13015" />
      <path
         d="m 173.02704,994.75226 0,5.80074 -1.80664,0 0,-15.09762 1.80664,0 0,1.66016 c 0.3776,-0.65103 0.85286,-1.1328 1.42578,-1.44531 0.57942,-0.319 1.26952,-0.47851 2.07031,-0.47852 1.32812,1e-5 2.40559,0.52736 3.23242,1.58203 0.83333,1.0547 1.24999,2.44142 1.25,4.16016 -1e-5,1.71875 -0.41667,3.10547 -1.25,4.16016 -0.82683,1.05468 -1.9043,1.58203 -3.23242,1.58203 -0.80079,0 -1.49089,-0.15625 -2.07031,-0.46875 -0.57292,-0.31901 -1.04818,-0.80404 -1.42578,-1.45508 m 6.11328,-3.81836 c -1e-5,-1.32161 -0.27345,-2.35676 -0.82031,-3.10547 -0.54038,-0.7552 -1.28582,-1.1328 -2.23633,-1.13281 -0.95053,1e-5 -1.69922,0.37761 -2.24609,1.13281 -0.54037,0.74871 -0.81056,1.78386 -0.81055,3.10547 -1e-5,1.32162 0.27018,2.36003 0.81055,3.11523 0.54687,0.7487 1.29556,1.12305 2.24609,1.12305 0.95051,0 1.69595,-0.37435 2.23633,-1.12305 0.54686,-0.7552 0.8203,-1.79361 0.82031,-3.11523"
         style=""
         id="path13017" />
      <path
         d="m 190.32196,987.13507 c -0.20183,-0.11718 -0.42318,-0.20181 -0.66406,-0.25391 -0.23438,-0.0586 -0.4948,-0.0879 -0.78125,-0.0879 -1.01563,10e-6 -1.79688,0.33204 -2.34375,0.9961 -0.54037,0.65756 -0.81055,1.60482 -0.81055,2.84179 l 0,5.76172 -1.80664,0 0,-10.9375 1.80664,0 0,1.69922 c 0.3776,-0.66405 0.86914,-1.15559 1.47461,-1.47461 0.60546,-0.32551 1.34114,-0.48827 2.20703,-0.48828 0.12369,1e-5 0.26041,0.01 0.41016,0.0293 0.14973,0.013 0.31575,0.0358 0.49804,0.0684 l 0.01,1.8457"
         style=""
         id="path13019" />
      <path
         d="m 192.22626,985.45538 1.79687,0 0,10.9375 -1.79687,0 0,-10.9375 m 0,-4.25781 1.79687,0 0,2.27539 -1.79687,0 0,-2.27539"
         style=""
         id="path13021" />
      <path
         d="m 196.48407,985.45538 1.9043,0 3.41797,9.17969 3.41796,-9.17969 1.9043,0 -4.10156,10.9375 -2.44141,0 -4.10156,-10.9375"
         style=""
         id="path13023" />
      <path
         d="m 214.57977,990.89484 c -1.45183,0 -2.45768,0.16602 -3.01758,0.49804 -0.55989,0.33204 -0.83984,0.89844 -0.83984,1.69922 0,0.63803 0.20833,1.14584 0.625,1.52344 0.42317,0.37109 0.99609,0.55664 1.71875,0.55664 0.99609,0 1.79361,-0.35156 2.39258,-1.05469 0.60546,-0.70963 0.90819,-1.65038 0.9082,-2.82226 l 0,-0.40039 -1.78711,0 m 3.58399,-0.74219 0,6.24023 -1.79688,0 0,-1.66015 c -0.41016,0.66406 -0.92123,1.1556 -1.5332,1.47461 -0.61199,0.3125 -1.36068,0.46875 -2.24609,0.46875 -1.1198,0 -2.01173,-0.3125 -2.67579,-0.9375 -0.65755,-0.63151 -0.98633,-1.47461 -0.98632,-2.5293 -1e-5,-1.23046 0.41015,-2.1582 1.23046,-2.7832 0.82682,-0.625 2.05729,-0.9375 3.69141,-0.9375 l 2.51953,0 0,-0.17578 c -1e-5,-0.82682 -0.27344,-1.46484 -0.82031,-1.91407 -0.54037,-0.45572 -1.30209,-0.68358 -2.28516,-0.68359 -0.625,10e-6 -1.23372,0.0749 -1.82617,0.22461 -0.59245,0.14975 -1.16211,0.37436 -1.70898,0.67383 l 0,-1.66016 c 0.65755,-0.2539 1.29557,-0.4427 1.91406,-0.56641 0.61848,-0.13019 1.2207,-0.1953 1.80664,-0.19531 1.58202,1e-5 2.76366,0.41017 3.54492,1.23047 0.78124,0.82032 1.17187,2.06381 1.17188,3.73047"
         style=""
         id="path13025" />
      <path
         d="m 223.6911,982.34991 0,3.10547 3.70117,0 0,1.39649 -3.70117,0 0,5.9375 c 0,0.89193 0.12044,1.46484 0.36133,1.71875 0.24739,0.25391 0.74544,0.38086 1.49414,0.38086 l 1.8457,0 0,1.5039 -1.8457,0 c -1.38672,0 -2.34375,-0.25716 -2.87109,-0.77148 -0.52735,-0.52083 -0.79102,-1.46484 -0.79102,-2.83203 l 0,-5.9375 -1.31836,0 0,-1.39649 1.31836,0 0,-3.10547 1.80664,0"
         style=""
         id="path13027" />
      <path
         d="m 239.12079,990.47491 0,0.87891 -8.26172,0 c 0.0781,1.23698 0.44922,2.18099 1.11328,2.83203 0.67057,0.64453 1.60156,0.9668 2.79297,0.9668 0.6901,0 1.35741,-0.0846 2.00195,-0.25391 0.65104,-0.16927 1.29557,-0.42317 1.9336,-0.76172 l 0,1.69922 c -0.64454,0.27344 -1.30535,0.48177 -1.98243,0.625 -0.67709,0.14323 -1.36393,0.21485 -2.06054,0.21485 -1.7448,0 -3.12826,-0.50782 -4.15039,-1.52344 -1.01563,-1.01562 -1.52344,-2.38932 -1.52344,-4.12109 0,-1.79036 0.48177,-3.20963 1.44531,-4.25782 0.97005,-1.05467 2.27539,-1.58202 3.91602,-1.58203 1.47134,1e-5 2.63345,0.47527 3.48633,1.42578 0.85936,0.94402 1.28905,2.22983 1.28906,3.85742 m -1.79688,-0.52734 c -0.013,-0.98306 -0.28972,-1.76757 -0.83007,-2.35351 -0.53387,-0.58593 -1.2435,-0.8789 -2.12891,-0.87891 -1.00261,10e-6 -1.80665,0.28321 -2.41211,0.84961 -0.59896,0.56641 -0.94401,1.36394 -1.03516,2.39258 l 6.40625,-0.01"
         style=""
         id="path13029" />
      <path
         d="m 256.26923,985.87531 0,1.67968 c -0.50783,-0.27994 -1.01889,-0.48827 -1.53321,-0.625 -0.50782,-0.14322 -1.02214,-0.21483 -1.54297,-0.21484 -1.16537,10e-6 -2.07031,0.3711 -2.71484,1.11328 -0.64453,0.73569 -0.9668,1.77084 -0.9668,3.10547 0,1.33464 0.32227,2.37305 0.9668,3.11523 0.64453,0.73568 1.54947,1.10352 2.71484,1.10352 0.52083,0 1.03515,-0.0684 1.54297,-0.20508 0.51432,-0.14323 1.02538,-0.35482 1.53321,-0.63476 l 0,1.66015 c -0.50132,0.23438 -1.02215,0.41016 -1.5625,0.52735 -0.53387,0.11718 -1.10353,0.17578 -1.70899,0.17578 -1.64714,0 -2.95573,-0.51758 -3.92578,-1.55274 -0.97005,-1.03515 -1.45508,-2.43163 -1.45508,-4.18945 0,-1.78385 0.48828,-3.18684 1.46485,-4.20899 0.98307,-1.02212 2.32747,-1.53319 4.0332,-1.5332 0.55338,1e-5 1.09374,0.0586 1.62109,0.17578 0.52734,0.11069 1.03841,0.27996 1.53321,0.50782"
         style=""
         id="path13031" />
      <path
         d="m 263.61298,986.71515 c -0.96355,10e-6 -1.72527,0.37761 -2.28516,1.13281 -0.5599,0.74871 -0.83985,1.77735 -0.83984,3.08594 -10e-6,1.3086 0.27669,2.3405 0.83007,3.0957 0.5599,0.7487 1.32487,1.12305 2.29493,1.12305 0.95702,0 1.71548,-0.3776 2.27539,-1.13281 0.55988,-0.75521 0.83983,-1.78385 0.83984,-3.08594 -10e-6,-1.29557 -0.27996,-2.32096 -0.83984,-3.07617 -0.55991,-0.76171 -1.31837,-1.14257 -2.27539,-1.14258 m 0,-1.52344 c 1.56249,1e-5 2.7897,0.50782 3.68164,1.52344 0.89191,1.01563 1.33788,2.42188 1.33789,4.21875 -1e-5,1.79037 -0.44598,3.19662 -1.33789,4.21875 -0.89194,1.01562 -2.11915,1.52344 -3.68164,1.52344 -1.56902,0 -2.79949,-0.50782 -3.69141,-1.52344 -0.88542,-1.02213 -1.32813,-2.42838 -1.32813,-4.21875 0,-1.79687 0.44271,-3.20312 1.32813,-4.21875 0.89192,-1.01562 2.12239,-1.52343 3.69141,-1.52344"
         style=""
         id="path13033" />
      <path
         d="m 280.69305,989.79132 0,6.60156 -1.79687,0 0,-6.54297 c -1e-5,-1.03514 -0.20183,-1.80988 -0.60547,-2.32421 -0.40365,-0.51432 -1.00912,-0.77148 -1.81641,-0.77149 -0.97005,1e-5 -1.73503,0.30926 -2.29492,0.92774 -0.5599,0.61849 -0.83985,1.46159 -0.83984,2.52929 l 0,6.18164 -1.80664,0 0,-10.9375 1.80664,0 0,1.69922 c 0.42968,-0.65754 0.93424,-1.14908 1.51367,-1.47461 0.58593,-0.32551 1.25976,-0.48827 2.02148,-0.48828 1.25651,1e-5 2.20703,0.39064 2.85157,1.17188 0.64452,0.77475 0.96678,1.91732 0.96679,3.42773"
         style=""
         id="path13035" />
      <path
         d="m 293.38837,989.79132 0,6.60156 -1.79688,0 0,-6.54297 c -1e-5,-1.03514 -0.20183,-1.80988 -0.60547,-2.32421 -0.40365,-0.51432 -1.00912,-0.77148 -1.8164,-0.77149 -0.97006,1e-5 -1.73503,0.30926 -2.29493,0.92774 -0.55989,0.61849 -0.83984,1.46159 -0.83984,2.52929 l 0,6.18164 -1.80664,0 0,-10.9375 1.80664,0 0,1.69922 c 0.42968,-0.65754 0.93424,-1.14908 1.51367,-1.47461 0.58593,-0.32551 1.25976,-0.48827 2.02149,-0.48828 1.2565,1e-5 2.20702,0.39064 2.85156,1.17188 0.64452,0.77475 0.96679,1.91732 0.9668,3.42773"
         style=""
         id="path13037" />
      <path
         d="m 306.34735,990.47491 0,0.87891 -8.26172,0 c 0.0781,1.23698 0.44922,2.18099 1.11328,2.83203 0.67057,0.64453 1.60156,0.9668 2.79297,0.9668 0.6901,0 1.35742,-0.0846 2.00196,-0.25391 0.65103,-0.16927 1.29556,-0.42317 1.93359,-0.76172 l 0,1.69922 c -0.64454,0.27344 -1.30535,0.48177 -1.98242,0.625 -0.67709,0.14323 -1.36394,0.21485 -2.06055,0.21485 -1.7448,0 -3.12826,-0.50782 -4.15039,-1.52344 -1.01563,-1.01562 -1.52344,-2.38932 -1.52344,-4.12109 0,-1.79036 0.48177,-3.20963 1.44531,-4.25782 0.97005,-1.05467 2.27539,-1.58202 3.91602,-1.58203 1.47135,1e-5 2.63345,0.47527 3.48633,1.42578 0.85936,0.94402 1.28905,2.22983 1.28906,3.85742 m -1.79687,-0.52734 c -0.013,-0.98306 -0.28973,-1.76757 -0.83008,-2.35351 -0.53386,-0.58593 -1.2435,-0.8789 -2.12891,-0.87891 -1.00261,10e-6 -1.80664,0.28321 -2.41211,0.84961 -0.59896,0.56641 -0.94401,1.36394 -1.03515,2.39258 l 6.40625,-0.01"
         style=""
         id="path13039" />
      <path
         d="m 317.1286,985.87531 0,1.67968 c -0.50782,-0.27994 -1.01889,-0.48827 -1.5332,-0.625 -0.50782,-0.14322 -1.02214,-0.21483 -1.54297,-0.21484 -1.16537,10e-6 -2.07032,0.3711 -2.71484,1.11328 -0.64454,0.73569 -0.9668,1.77084 -0.9668,3.10547 0,1.33464 0.32226,2.37305 0.9668,3.11523 0.64452,0.73568 1.54947,1.10352 2.71484,1.10352 0.52083,0 1.03515,-0.0684 1.54297,-0.20508 0.51431,-0.14323 1.02538,-0.35482 1.5332,-0.63476 l 0,1.66015 c -0.50131,0.23438 -1.02214,0.41016 -1.5625,0.52735 -0.53386,0.11718 -1.10352,0.17578 -1.70898,0.17578 -1.64714,0 -2.95574,-0.51758 -3.92578,-1.55274 -0.97006,-1.03515 -1.45508,-2.43163 -1.45508,-4.18945 0,-1.78385 0.48828,-3.18684 1.46484,-4.20899 0.98307,-1.02212 2.32747,-1.53319 4.0332,-1.5332 0.55338,1e-5 1.09375,0.0586 1.6211,0.17578 0.52733,0.11069 1.0384,0.27996 1.5332,0.50782"
         style=""
         id="path13041" />
      <path
         d="m 322.01141,982.34991 0,3.10547 3.70118,0 0,1.39649 -3.70118,0 0,5.9375 c 0,0.89193 0.12044,1.46484 0.36133,1.71875 0.24739,0.25391 0.74544,0.38086 1.49414,0.38086 l 1.84571,0 0,1.5039 -1.84571,0 c -1.38672,0 -2.34375,-0.25716 -2.87109,-0.77148 -0.52735,-0.52083 -0.79102,-1.46484 -0.79102,-2.83203 l 0,-5.9375 -1.31836,0 0,-1.39649 1.31836,0 0,-3.10547 1.80664,0"
         style=""
         id="path13043" />
      <path
         d="m 328.08563,985.45538 1.79688,0 0,10.9375 -1.79688,0 0,-10.9375 m 0,-4.25781 1.79688,0 0,2.27539 -1.79688,0 0,-2.27539"
         style=""
         id="path13045" />
      <path
         d="m 337.87079,986.71515 c -0.96355,10e-6 -1.72527,0.37761 -2.28516,1.13281 -0.5599,0.74871 -0.83984,1.77735 -0.83984,3.08594 0,1.3086 0.27669,2.3405 0.83008,3.0957 0.55989,0.7487 1.32486,1.12305 2.29492,1.12305 0.95702,0 1.71549,-0.3776 2.27539,-1.13281 0.55989,-0.75521 0.83983,-1.78385 0.83984,-3.08594 -10e-6,-1.29557 -0.27995,-2.32096 -0.83984,-3.07617 -0.5599,-0.76171 -1.31837,-1.14257 -2.27539,-1.14258 m 0,-1.52344 c 1.56249,1e-5 2.7897,0.50782 3.68164,1.52344 0.89192,1.01563 1.33788,2.42188 1.33789,4.21875 -10e-6,1.79037 -0.44597,3.19662 -1.33789,4.21875 -0.89194,1.01562 -2.11915,1.52344 -3.68164,1.52344 -1.56902,0 -2.79948,-0.50782 -3.69141,-1.52344 -0.88542,-1.02213 -1.32812,-2.42838 -1.32812,-4.21875 0,-1.79687 0.4427,-3.20312 1.32812,-4.21875 0.89193,-1.01562 2.12239,-1.52343 3.69141,-1.52344"
         style=""
         id="path13047" />
      <path
         d="m 354.95087,989.79132 0,6.60156 -1.79688,0 0,-6.54297 c -1e-5,-1.03514 -0.20183,-1.80988 -0.60547,-2.32421 -0.40365,-0.51432 -1.00912,-0.77148 -1.8164,-0.77149 -0.97006,1e-5 -1.73503,0.30926 -2.29493,0.92774 -0.55989,0.61849 -0.83984,1.46159 -0.83984,2.52929 l 0,6.18164 -1.80664,0 0,-10.9375 1.80664,0 0,1.69922 c 0.42968,-0.65754 0.93424,-1.14908 1.51367,-1.47461 0.58593,-0.32551 1.25976,-0.48827 2.02149,-0.48828 1.2565,1e-5 2.20702,0.39064 2.85156,1.17188 0.64452,0.77475 0.96679,1.91732 0.9668,3.42773"
         style=""
         id="path13049" />
      <path
         d="m 366.69891,982.34991 0,3.10547 3.70118,0 0,1.39649 -3.70118,0 0,5.9375 c 0,0.89193 0.12044,1.46484 0.36133,1.71875 0.24739,0.25391 0.74544,0.38086 1.49414,0.38086 l 1.84571,0 0,1.5039 -1.84571,0 c -1.38672,0 -2.34375,-0.25716 -2.87109,-0.77148 -0.52735,-0.52083 -0.79102,-1.46484 -0.79102,-2.83203 l 0,-5.9375 -1.31836,0 0,-1.39649 1.31836,0 0,-3.10547 1.80664,0"
         style=""
         id="path13051" />
      <path
         d="m 377.01141,986.71515 c -0.96354,10e-6 -1.72526,0.37761 -2.28515,1.13281 -0.5599,0.74871 -0.83985,1.77735 -0.83985,3.08594 0,1.3086 0.27669,2.3405 0.83008,3.0957 0.55989,0.7487 1.32487,1.12305 2.29492,1.12305 0.95703,0 1.71549,-0.3776 2.27539,-1.13281 0.55989,-0.75521 0.83984,-1.78385 0.83985,-3.08594 -10e-6,-1.29557 -0.27996,-2.32096 -0.83985,-3.07617 -0.5599,-0.76171 -1.31836,-1.14257 -2.27539,-1.14258 m 0,-1.52344 c 1.5625,1e-5 2.78971,0.50782 3.68164,1.52344 0.89192,1.01563 1.33788,2.42188 1.33789,4.21875 -10e-6,1.79037 -0.44597,3.19662 -1.33789,4.21875 -0.89193,1.01562 -2.11914,1.52344 -3.68164,1.52344 -1.56901,0 -2.79948,-0.50782 -3.6914,-1.52344 -0.88542,-1.02213 -1.32813,-2.42838 -1.32813,-4.21875 0,-1.79687 0.44271,-3.20312 1.32813,-4.21875 0.89192,-1.01562 2.12239,-1.52343 3.6914,-1.52344"
         style=""
         id="path13053" />
    </g>
    <g
       style="font-size:20px;font-style:normal;font-weight:normal;line-height:125%;letter-spacing:0px;word-spacing:0px;fill:#000000;fill-opacity:1;stroke:none;font-family:Sans"
       id="text11174-2-2">
      <path
         d="m 112.76825,1020.1088 c -0.20183,-0.1172 -0.42319,-0.2018 -0.66406,-0.2539 -0.23439,-0.059 -0.4948,-0.088 -0.78125,-0.088 -1.01563,0 -1.79688,0.332 -2.34375,0.9961 -0.54037,0.6575 -0.81055,1.6048 -0.81055,2.8418 l 0,5.7617 -1.80664,0 0,-10.9375 1.80664,0 0,1.6992 c 0.3776,-0.6641 0.86914,-1.1556 1.47461,-1.4746 0.60546,-0.3255 1.34114,-0.4883 2.20703,-0.4883 0.12369,0 0.26041,0.01 0.41016,0.029 0.14973,0.013 0.31574,0.036 0.49804,0.068 l 0.01,1.8457"
         style=""
         id="path12958" />
      <path
         d="m 119.64325,1023.8685 c -1.45183,0 -2.45769,0.1661 -3.01758,0.4981 -0.5599,0.332 -0.83985,0.8984 -0.83984,1.6992 -1e-5,0.638 0.20833,1.1458 0.625,1.5234 0.42317,0.3711 0.99609,0.5567 1.71875,0.5567 0.99609,0 1.79361,-0.3516 2.39258,-1.0547 0.60546,-0.7096 0.90819,-1.6504 0.9082,-2.8223 l 0,-0.4004 -1.78711,0 m 3.58398,-0.7422 0,6.2403 -1.79687,0 0,-1.6602 c -0.41017,0.6641 -0.92123,1.1556 -1.5332,1.4746 -0.61199,0.3125 -1.36069,0.4688 -2.2461,0.4688 -1.11979,0 -2.01172,-0.3125 -2.67578,-0.9375 -0.65755,-0.6315 -0.98633,-1.4746 -0.98633,-2.5293 0,-1.2305 0.41016,-2.1582 1.23047,-2.7832 0.82682,-0.625 2.05729,-0.9375 3.69141,-0.9375 l 2.51953,0 0,-0.1758 c -10e-6,-0.8268 -0.27345,-1.4648 -0.82031,-1.9141 -0.54038,-0.4557 -1.30209,-0.6835 -2.28516,-0.6836 -0.625,10e-5 -1.23373,0.075 -1.82617,0.2247 -0.59245,0.1497 -1.16211,0.3743 -1.70899,0.6738 l 0,-1.6602 c 0.65755,-0.2539 1.29557,-0.4427 1.91407,-0.5664 0.61848,-0.1302 1.22069,-0.1953 1.80664,-0.1953 1.58202,0 2.76366,0.4102 3.54492,1.2305 0.78124,0.8203 1.17186,2.0638 1.17187,3.7304"
         style=""
         id="path12960" />
      <path
         d="m 136.06903,1022.765 0,6.6016 -1.79687,0 0,-6.543 c -1e-5,-1.0351 -0.20184,-1.8099 -0.60547,-2.3242 -0.40366,-0.5143 -1.00913,-0.7715 -1.81641,-0.7715 -0.97006,0 -1.73503,0.3093 -2.29492,0.9277 -0.5599,0.6185 -0.83985,1.4616 -0.83984,2.5293 l 0,6.1817 -1.80665,0 0,-10.9375 1.80665,0 0,1.6992 c 0.42968,-0.6575 0.93424,-1.1491 1.51367,-1.4746 0.58593,-0.3255 1.25976,-0.4883 2.02148,-0.4883 1.2565,0 2.20702,0.3906 2.85156,1.1719 0.64452,0.7747 0.96679,1.9173 0.9668,3.4277"
         style=""
         id="path12962" />
      <path
         d="m 146.86981,1020.0892 0,-5.9179 1.79688,0 0,15.1953 -1.79688,0 0,-1.6406 c -0.37761,0.651 -0.85613,1.136 -1.43554,1.455 -0.57293,0.3125 -1.26303,0.4688 -2.07032,0.4688 -1.32162,0 -2.39909,-0.5274 -3.23242,-1.5821 -0.82682,-1.0546 -1.24023,-2.4414 -1.24023,-4.1601 0,-1.7188 0.41341,-3.1055 1.24023,-4.1602 0.83333,-1.0546 1.9108,-1.582 3.23242,-1.582 0.80729,0 1.49739,0.1595 2.07032,0.4785 0.57941,0.3125 1.05793,0.7943 1.43554,1.4453 m -6.12304,3.8184 c -1e-5,1.3216 0.27017,2.36 0.81054,3.1152 0.54687,0.7487 1.29557,1.1231 2.2461,1.1231 0.95051,0 1.69921,-0.3744 2.24609,-1.1231 0.54687,-0.7552 0.8203,-1.7936 0.82031,-3.1152 -1e-5,-1.3216 -0.27344,-2.3568 -0.82031,-3.1055 -0.54688,-0.7552 -1.29558,-1.1328 -2.24609,-1.1328 -0.95053,0 -1.69923,0.3776 -2.2461,1.1328 -0.54037,0.7487 -0.81055,1.7839 -0.81054,3.1055"
         style=""
         id="path12964" />
      <path
         d="m 156.60614,1019.6888 c -0.96355,10e-5 -1.72526,0.3777 -2.28516,1.1329 -0.5599,0.7487 -0.83984,1.7773 -0.83984,3.0859 0,1.3086 0.27669,2.3405 0.83008,3.0957 0.55989,0.7487 1.32486,1.123 2.29492,1.123 0.95702,0 1.71549,-0.3776 2.27539,-1.1328 0.55989,-0.7552 0.83984,-1.7838 0.83984,-3.0859 0,-1.2956 -0.27995,-2.321 -0.83984,-3.0762 -0.5599,-0.7617 -1.31837,-1.1425 -2.27539,-1.1426 m 0,-1.5234 c 1.56249,0 2.7897,0.5078 3.68164,1.5234 0.89192,1.0157 1.33788,2.4219 1.33789,4.2188 -1e-5,1.7904 -0.44597,3.1966 -1.33789,4.2187 -0.89194,1.0157 -2.11915,1.5235 -3.68164,1.5235 -1.56901,0 -2.79948,-0.5078 -3.69141,-1.5235 -0.88541,-1.0221 -1.32812,-2.4283 -1.32812,-4.2187 0,-1.7969 0.44271,-3.2031 1.32812,-4.2188 0.89193,-1.0156 2.1224,-1.5234 3.69141,-1.5234"
         style=""
         id="path12966" />
      <path
         d="m 173.11005,1020.5287 c 0.4492,-0.8073 0.98631,-1.403 1.61132,-1.7871 0.62499,-0.3841 1.36067,-0.5762 2.20704,-0.5762 1.1393,0 2.01821,0.4004 2.63671,1.2012 0.61848,0.7943 0.92772,1.9271 0.92774,3.3984 l 0,6.6016 -1.80664,0 0,-6.543 c -2e-5,-1.0482 -0.18556,-1.8262 -0.55664,-2.334 -0.37111,-0.5078 -0.93752,-0.7617 -1.69922,-0.7617 -0.931,0 -1.66668,0.3093 -2.20703,0.9277 -0.54038,0.6185 -0.81056,1.4616 -0.81055,2.5293 l 0,6.1817 -1.80664,0 0,-6.543 c -1e-5,-1.0547 -0.18556,-1.8327 -0.55664,-2.334 -0.3711,-0.5078 -0.94402,-0.7617 -1.71875,-0.7617 -0.91797,0 -1.64714,0.3125 -2.1875,0.9375 -0.54037,0.6185 -0.81055,1.4583 -0.81055,2.5195 l 0,6.1817 -1.80664,0 0,-10.9375 1.80664,0 0,1.6992 c 0.41015,-0.6706 0.90169,-1.1654 1.47461,-1.4844 0.57291,-0.319 1.25325,-0.4785 2.04102,-0.4785 0.79426,0 1.46809,0.2018 2.02148,0.6055 0.55989,0.4036 0.9733,0.9896 1.24024,1.7578"
         style=""
         id="path12968" />
      <path
         d="m 192.46552,1022.4037 0,5.3418 3.16406,0 c 1.06119,0 1.84569,-0.2181 2.35351,-0.6543 0.51432,-0.4427 0.77148,-1.1165 0.77149,-2.0215 -1e-5,-0.9115 -0.25717,-1.582 -0.77149,-2.0117 -0.50782,-0.4362 -1.29232,-0.6543 -2.35351,-0.6543 l -3.16406,0 m 0,-5.9961 0,4.3945 2.91992,0 c 0.96353,0 1.67968,-0.179 2.14843,-0.5371 0.47526,-0.3646 0.71289,-0.9179 0.7129,-1.6601 -1e-5,-0.7357 -0.23764,-1.2858 -0.7129,-1.6504 -0.46875,-0.3646 -1.1849,-0.5469 -2.14843,-0.5469 l -2.91992,0 m -1.97266,-1.6211 5.03906,0 c 1.5039,0 2.66275,0.3125 3.47656,0.9375 0.81379,0.625 1.2207,1.5137 1.22071,2.666 -10e-6,0.892 -0.20835,1.6016 -0.625,2.1289 -0.41668,0.5274 -1.02866,0.8561 -1.83594,0.9863 0.97004,0.2084 1.72199,0.6446 2.25586,1.3086 0.54035,0.6576 0.81053,1.4812 0.81055,2.4707 -2e-5,1.3021 -0.44272,2.308 -1.32813,3.0176 -0.88543,0.7097 -2.14519,1.0645 -3.7793,1.0645 l -5.23437,0 0,-14.5801"
         style=""
         id="path12970" />
      <path
         d="m 204.12567,1018.4291 1.79688,0 0,10.9375 -1.79688,0 0,-10.9375 m 0,-4.2578 1.79688,0 0,2.2754 -1.79688,0 0,-2.2754"
         style=""
         id="path12972" />
      <path
         d="m 211.44989,1015.3236 0,3.1055 3.70117,0 0,1.3965 -3.70117,0 0,5.9375 c 0,0.8919 0.12044,1.4648 0.36133,1.7187 0.24739,0.2539 0.74544,0.3809 1.49414,0.3809 l 1.8457,0 0,1.5039 -1.8457,0 c -1.38672,0 -2.34375,-0.2572 -2.87109,-0.7715 -0.52735,-0.5208 -0.79102,-1.4648 -0.79102,-2.832 l 0,-5.9375 -1.31836,0 0,-1.3965 1.31836,0 0,-3.1055 1.80664,0"
         style=""
         id="path12974" />
      <path
         d="m 225.3952,1018.849 0,1.6797 c -0.50782,-0.28 -1.01889,-0.4883 -1.5332,-0.625 -0.50782,-0.1432 -1.02214,-0.2148 -1.54297,-0.2149 -1.16537,10e-5 -2.07032,0.3711 -2.71484,1.1133 -0.64454,0.7357 -0.9668,1.7709 -0.9668,3.1055 0,1.3346 0.32226,2.373 0.9668,3.1152 0.64452,0.7357 1.54947,1.1035 2.71484,1.1035 0.52083,0 1.03515,-0.068 1.54297,-0.205 0.51431,-0.1433 1.02538,-0.3549 1.5332,-0.6348 l 0,1.6602 c -0.50131,0.2343 -1.02214,0.4101 -1.5625,0.5273 -0.53386,0.1172 -1.10352,0.1758 -1.70898,0.1758 -1.64714,0 -2.95573,-0.5176 -3.92578,-1.5528 -0.97006,-1.0351 -1.45508,-2.4316 -1.45508,-4.1894 0,-1.7839 0.48828,-3.1868 1.46484,-4.209 0.98307,-1.0221 2.32747,-1.5332 4.03321,-1.5332 0.55337,0 1.09374,0.059 1.62109,0.1758 0.52733,0.1107 1.0384,0.2799 1.5332,0.5078"
         style=""
         id="path12976" />
      <path
         d="m 232.73895,1019.6888 c -0.96354,10e-5 -1.72526,0.3777 -2.28515,1.1329 -0.5599,0.7487 -0.83985,1.7773 -0.83985,3.0859 0,1.3086 0.27669,2.3405 0.83008,3.0957 0.55989,0.7487 1.32487,1.123 2.29492,1.123 0.95703,0 1.71549,-0.3776 2.27539,-1.1328 0.55989,-0.7552 0.83984,-1.7838 0.83985,-3.0859 -10e-6,-1.2956 -0.27996,-2.321 -0.83985,-3.0762 -0.5599,-0.7617 -1.31836,-1.1425 -2.27539,-1.1426 m 0,-1.5234 c 1.56249,0 2.78971,0.5078 3.68164,1.5234 0.89192,1.0157 1.33788,2.4219 1.33789,4.2188 -1e-5,1.7904 -0.44597,3.1966 -1.33789,4.2187 -0.89193,1.0157 -2.11915,1.5235 -3.68164,1.5235 -1.56901,0 -2.79948,-0.5078 -3.6914,-1.5235 -0.88542,-1.0221 -1.32813,-2.4283 -1.32813,-4.2187 0,-1.7969 0.44271,-3.2031 1.32813,-4.2188 0.89192,-1.0156 2.12239,-1.5234 3.6914,-1.5234"
         style=""
         id="path12978" />
      <path
         d="m 240.72723,1018.4291 1.79688,0 0,10.9375 -1.79688,0 0,-10.9375 m 0,-4.2578 1.79688,0 0,2.2754 -1.79688,0 0,-2.2754"
         style=""
         id="path12980" />
      <path
         d="m 255.36591,1022.765 0,6.6016 -1.79688,0 0,-6.543 c -1e-5,-1.0351 -0.20183,-1.8099 -0.60547,-2.3242 -0.40365,-0.5143 -1.00912,-0.7715 -1.8164,-0.7715 -0.97006,0 -1.73504,0.3093 -2.29493,0.9277 -0.5599,0.6185 -0.83984,1.4616 -0.83984,2.5293 l 0,6.1817 -1.80664,0 0,-10.9375 1.80664,0 0,1.6992 c 0.42968,-0.6575 0.93424,-1.1491 1.51367,-1.4746 0.58593,-0.3255 1.25976,-0.4883 2.02149,-0.4883 1.2565,0 2.20702,0.3906 2.85156,1.1719 0.64452,0.7747 0.96678,1.9173 0.9668,3.4277"
         style=""
         id="path12982" />
      <path
         d="m 274.42841,1022.765 0,6.6016 -1.79688,0 0,-6.543 c -10e-6,-1.0351 -0.20183,-1.8099 -0.60547,-2.3242 -0.40365,-0.5143 -1.00912,-0.7715 -1.8164,-0.7715 -0.97006,0 -1.73504,0.3093 -2.29493,0.9277 -0.5599,0.6185 -0.83984,1.4616 -0.83984,2.5293 l 0,6.1817 -1.80664,0 0,-10.9375 1.80664,0 0,1.6992 c 0.42968,-0.6575 0.93424,-1.1491 1.51367,-1.4746 0.58593,-0.3255 1.25976,-0.4883 2.02149,-0.4883 1.2565,0 2.20702,0.3906 2.85156,1.1719 0.64452,0.7747 0.96678,1.9173 0.9668,3.4277"
         style=""
         id="path12984" />
      <path
         d="m 282.2702,1019.6888 c -0.96354,10e-5 -1.72526,0.3777 -2.28515,1.1329 -0.5599,0.7487 -0.83985,1.7773 -0.83985,3.0859 0,1.3086 0.27669,2.3405 0.83008,3.0957 0.55989,0.7487 1.32487,1.123 2.29492,1.123 0.95703,0 1.71549,-0.3776 2.27539,-1.1328 0.55989,-0.7552 0.83984,-1.7838 0.83985,-3.0859 -1e-5,-1.2956 -0.27996,-2.321 -0.83985,-3.0762 -0.5599,-0.7617 -1.31836,-1.1425 -2.27539,-1.1426 m 0,-1.5234 c 1.56249,0 2.78971,0.5078 3.68164,1.5234 0.89192,1.0157 1.33788,2.4219 1.33789,4.2188 -1e-5,1.7904 -0.44597,3.1966 -1.33789,4.2187 -0.89193,1.0157 -2.11915,1.5235 -3.68164,1.5235 -1.56901,0 -2.79948,-0.5078 -3.6914,-1.5235 -0.88542,-1.0221 -1.32813,-2.4283 -1.32813,-4.2187 0,-1.7969 0.44271,-3.2031 1.32813,-4.2188 0.89192,-1.0156 2.12239,-1.5234 3.6914,-1.5234"
         style=""
         id="path12986" />
      <path
         d="m 297.45575,1020.0892 0,-5.9179 1.79687,0 0,15.1953 -1.79687,0 0,-1.6406 c -0.37761,0.651 -0.85613,1.136 -1.43555,1.455 -0.57292,0.3125 -1.26302,0.4688 -2.07031,0.4688 -1.32162,0 -2.39909,-0.5274 -3.23242,-1.5821 -0.82683,-1.0546 -1.24024,-2.4414 -1.24024,-4.1601 0,-1.7188 0.41341,-3.1055 1.24024,-4.1602 0.83333,-1.0546 1.9108,-1.582 3.23242,-1.582 0.80729,0 1.49739,0.1595 2.07031,0.4785 0.57942,0.3125 1.05794,0.7943 1.43555,1.4453 m -6.12305,3.8184 c 0,1.3216 0.27018,2.36 0.81055,3.1152 0.54687,0.7487 1.29557,1.1231 2.24609,1.1231 0.95052,0 1.69921,-0.3744 2.2461,-1.1231 0.54686,-0.7552 0.8203,-1.7936 0.82031,-3.1152 -1e-5,-1.3216 -0.27345,-2.3568 -0.82031,-3.1055 -0.54689,-0.7552 -1.29558,-1.1328 -2.2461,-1.1328 -0.95052,0 -1.69922,0.3776 -2.24609,1.1328 -0.54037,0.7487 -0.81055,1.7839 -0.81055,3.1055"
         style=""
         id="path12988" />
      <path
         d="m 312.30927,1023.4486 0,0.8789 -8.26172,0 c 0.0781,1.237 0.44921,2.181 1.11328,2.832 0.67057,0.6446 1.60155,0.9668 2.79297,0.9668 0.69009,0 1.35741,-0.085 2.00195,-0.2539 0.65103,-0.1692 1.29556,-0.4231 1.93359,-0.7617 l 0,1.6992 c -0.64454,0.2735 -1.30534,0.4818 -1.98242,0.625 -0.67709,0.1433 -1.36394,0.2149 -2.06055,0.2149 -1.74479,0 -3.12825,-0.5078 -4.15039,-1.5235 -1.01562,-1.0156 -1.52343,-2.3893 -1.52343,-4.1211 0,-1.7903 0.48177,-3.2096 1.44531,-4.2578 0.97005,-1.0546 2.27538,-1.582 3.91601,-1.582 1.47135,0 2.63346,0.4753 3.48633,1.4258 0.85937,0.944 1.28905,2.2298 1.28907,3.8574 m -1.79688,-0.5273 c -0.013,-0.9831 -0.28972,-1.7676 -0.83008,-2.3536 -0.53386,-0.5859 -1.24349,-0.8788 -2.1289,-0.8789 -1.00261,10e-5 -1.80665,0.2833 -2.41211,0.8497 -0.59897,0.5664 -0.94402,1.3639 -1.03516,2.3925 l 6.40625,-0.01"
         style=""
         id="path12990" />
      <path
         d="m 322.19208,1018.7513 0,1.6993 c -0.50782,-0.2604 -1.03517,-0.4558 -1.58203,-0.586 -0.54689,-0.1302 -1.11329,-0.1953 -1.69922,-0.1953 -0.89193,0 -1.56251,0.1367 -2.01172,0.4102 -0.44271,0.2734 -0.66407,0.6836 -0.66406,1.2304 -10e-6,0.4167 0.1595,0.7455 0.47851,0.9864 0.31901,0.2343 0.96028,0.459 1.92383,0.6738 l 0.61523,0.1367 c 1.27604,0.2735 2.18099,0.6608 2.71485,1.1621 0.54035,0.4948 0.81054,1.1882 0.81055,2.0801 -1e-5,1.0156 -0.40366,1.8197 -1.21094,2.4121 -0.80079,0.5925 -1.90431,0.8887 -3.31055,0.8887 -0.58594,0 -1.19792,-0.059 -1.83594,-0.1758 -0.63151,-0.1107 -1.29883,-0.2799 -2.00195,-0.5078 l 0,-1.8555 c 0.66406,0.3451 1.31836,0.6055 1.96289,0.7813 0.64453,0.1692 1.28255,0.2539 1.91406,0.2539 0.84635,0 1.49739,-0.1433 1.95313,-0.4297 0.45572,-0.293 0.68358,-0.7031 0.68359,-1.2305 -10e-6,-0.4883 -0.16602,-0.8626 -0.49804,-1.123 -0.32553,-0.2604 -1.04493,-0.5111 -2.15821,-0.752 l -0.625,-0.1465 c -1.11328,-0.2343 -1.91732,-0.5924 -2.41211,-1.0742 -0.49479,-0.4883 -0.74219,-1.1556 -0.74218,-2.0019 -1e-5,-1.0287 0.36458,-1.8229 1.09375,-2.3829 0.72916,-0.5598 1.76431,-0.8398 3.10546,-0.8398 0.66406,0 1.28906,0.049 1.875,0.1465 0.58593,0.098 1.1263,0.2441 1.6211,0.4394"
         style=""
         id="path12992" />
      <path
         d="m 336.3327,1014.1908 c -0.8724,1.4974 -1.52018,2.9785 -1.94336,4.4434 -0.42318,1.4648 -0.63477,2.9492 -0.63476,4.4531 -10e-6,1.5039 0.21158,2.9948 0.63476,4.4726 0.42969,1.4714 1.07747,2.9525 1.94336,4.4434 l -1.5625,0 c -0.97656,-1.53 -1.70898,-3.0339 -2.19726,-4.5117 -0.48178,-1.4779 -0.72266,-2.946 -0.72266,-4.4043 0,-1.4518 0.24088,-2.9134 0.72266,-4.3848 0.48176,-1.4713 1.21419,-2.9752 2.19726,-4.5117 l 1.5625,0"
         style=""
         id="path12994" />
      <path
         d="m 341.56708,1027.726 0,5.8007 -1.80664,0 0,-15.0976 1.80664,0 0,1.6601 c 0.3776,-0.651 0.85286,-1.1328 1.42578,-1.4453 0.57942,-0.319 1.26952,-0.4785 2.07031,-0.4785 1.32812,0 2.40559,0.5274 3.23242,1.582 0.83333,1.0547 1.24999,2.4414 1.25,4.1602 -1e-5,1.7187 -0.41667,3.1055 -1.25,4.1601 -0.82683,1.0547 -1.9043,1.5821 -3.23242,1.5821 -0.80079,0 -1.49089,-0.1563 -2.07031,-0.4688 -0.57292,-0.319 -1.04818,-0.804 -1.42578,-1.455 m 6.11328,-3.8184 c -1e-5,-1.3216 -0.27345,-2.3568 -0.82031,-3.1055 -0.54038,-0.7552 -1.28582,-1.1328 -2.23633,-1.1328 -0.95053,0 -1.69923,0.3776 -2.2461,1.1328 -0.54036,0.7487 -0.81055,1.7839 -0.81054,3.1055 -10e-6,1.3216 0.27018,2.36 0.81054,3.1152 0.54687,0.7487 1.29557,1.1231 2.2461,1.1231 0.95051,0 1.69595,-0.3744 2.23633,-1.1231 0.54686,-0.7552 0.8203,-1.7936 0.82031,-3.1152"
         style=""
         id="path12996" />
      <path
         d="m 361.87958,1023.4486 0,0.8789 -8.26172,0 c 0.0781,1.237 0.44921,2.181 1.11328,2.832 0.67057,0.6446 1.60156,0.9668 2.79297,0.9668 0.6901,0 1.35741,-0.085 2.00195,-0.2539 0.65103,-0.1692 1.29556,-0.4231 1.9336,-0.7617 l 0,1.6992 c -0.64455,0.2735 -1.30535,0.4818 -1.98243,0.625 -0.67709,0.1433 -1.36394,0.2149 -2.06054,0.2149 -1.7448,0 -3.12826,-0.5078 -4.15039,-1.5235 -1.01563,-1.0156 -1.52344,-2.3893 -1.52344,-4.1211 0,-1.7903 0.48177,-3.2096 1.44531,-4.2578 0.97005,-1.0546 2.27539,-1.582 3.91602,-1.582 1.47134,0 2.63345,0.4753 3.48633,1.4258 0.85936,0.944 1.28905,2.2298 1.28906,3.8574 m -1.79688,-0.5273 c -0.013,-0.9831 -0.28972,-1.7676 -0.83008,-2.3536 -0.53386,-0.5859 -1.24349,-0.8788 -2.1289,-0.8789 -1.00261,10e-5 -1.80665,0.2833 -2.41211,0.8497 -0.59896,0.5664 -0.94401,1.3639 -1.03516,2.3925 l 6.40625,-0.01"
         style=""
         id="path12998" />
      <path
         d="m 374.1452,1023.4486 0,0.8789 -8.26172,0 c 0.0781,1.237 0.44922,2.181 1.11329,2.832 0.67056,0.6446 1.60155,0.9668 2.79296,0.9668 0.6901,0 1.35742,-0.085 2.00196,-0.2539 0.65103,-0.1692 1.29556,-0.4231 1.93359,-0.7617 l 0,1.6992 c -0.64454,0.2735 -1.30535,0.4818 -1.98242,0.625 -0.67709,0.1433 -1.36394,0.2149 -2.06055,0.2149 -1.74479,0 -3.12826,-0.5078 -4.15039,-1.5235 -1.01563,-1.0156 -1.52344,-2.3893 -1.52344,-4.1211 0,-1.7903 0.48177,-3.2096 1.44532,-4.2578 0.97004,-1.0546 2.27538,-1.582 3.91601,-1.582 1.47135,0 2.63346,0.4753 3.48633,1.4258 0.85936,0.944 1.28905,2.2298 1.28906,3.8574 m -1.79687,-0.5273 c -0.013,-0.9831 -0.28973,-1.7676 -0.83008,-2.3536 -0.53386,-0.5859 -1.2435,-0.8788 -2.12891,-0.8789 -1.00261,10e-5 -1.80664,0.2833 -2.41211,0.8497 -0.59896,0.5664 -0.94401,1.3639 -1.03515,2.3925 l 6.40625,-0.01"
         style=""
         id="path13000" />
      <path
         d="m 383.39325,1020.1088 c -0.20183,-0.1172 -0.42319,-0.2018 -0.66406,-0.2539 -0.23439,-0.059 -0.4948,-0.088 -0.78125,-0.088 -1.01563,0 -1.79688,0.332 -2.34375,0.9961 -0.54037,0.6575 -0.81055,1.6048 -0.81055,2.8418 l 0,5.7617 -1.80664,0 0,-10.9375 1.80664,0 0,1.6992 c 0.3776,-0.6641 0.86914,-1.1556 1.47461,-1.4746 0.60546,-0.3255 1.34114,-0.4883 2.20703,-0.4883 0.12369,0 0.26041,0.01 0.41016,0.029 0.14973,0.013 0.31574,0.036 0.49804,0.068 l 0.01,1.8457"
         style=""
         id="path13002" />
      <path
         d="m 392.2702,1018.7513 0,1.6993 c -0.50782,-0.2604 -1.03516,-0.4558 -1.58203,-0.586 -0.54688,-0.1302 -1.11329,-0.1953 -1.69922,-0.1953 -0.89193,0 -1.5625,0.1367 -2.01172,0.4102 -0.44271,0.2734 -0.66406,0.6836 -0.66406,1.2304 0,0.4167 0.1595,0.7455 0.47852,0.9864 0.319,0.2343 0.96028,0.459 1.92383,0.6738 l 0.61523,0.1367 c 1.27603,0.2735 2.18098,0.6608 2.71484,1.1621 0.54036,0.4948 0.81054,1.1882 0.81055,2.0801 -10e-6,1.0156 -0.40365,1.8197 -1.21094,2.4121 -0.80079,0.5925 -1.9043,0.8887 -3.31054,0.8887 -0.58595,0 -1.19792,-0.059 -1.83594,-0.1758 -0.63151,-0.1107 -1.29883,-0.2799 -2.00195,-0.5078 l 0,-1.8555 c 0.66406,0.3451 1.31835,0.6055 1.96289,0.7813 0.64452,0.1692 1.28254,0.2539 1.91406,0.2539 0.84635,0 1.49739,-0.1433 1.95312,-0.4297 0.45573,-0.293 0.68359,-0.7031 0.6836,-1.2305 -1e-5,-0.4883 -0.16603,-0.8626 -0.49805,-1.123 -0.32553,-0.2604 -1.04493,-0.5111 -2.1582,-0.752 l -0.625,-0.1465 c -1.11329,-0.2343 -1.91732,-0.5924 -2.41211,-1.0742 -0.4948,-0.4883 -0.74219,-1.1556 -0.74219,-2.0019 0,-1.0287 0.36458,-1.8229 1.09375,-2.3829 0.72916,-0.5598 1.76432,-0.8398 3.10547,-0.8398 0.66406,0 1.28905,0.049 1.875,0.1465 0.58593,0.098 1.12629,0.2441 1.62109,0.4394"
         style=""
         id="path13004" />
      <path
         d="m 395.44403,1014.1908 1.5625,0 c 0.97656,1.5365 1.70573,3.0404 2.1875,4.5117 0.48828,1.4714 0.73242,2.933 0.73242,4.3848 0,1.4583 -0.24414,2.9264 -0.73242,4.4043 -0.48177,1.4778 -1.21094,2.9817 -2.1875,4.5117 l -1.5625,0 c 0.86588,-1.4909 1.51041,-2.972 1.93359,-4.4434 0.42969,-1.4778 0.64453,-2.9687 0.64454,-4.4726 -10e-6,-1.5039 -0.21485,-2.9883 -0.64454,-4.4531 -0.42318,-1.4649 -1.06771,-2.946 -1.93359,-4.4434"
         style=""
         id="path13006" />
    </g>
  </g>
</svg>
