<?xml version="1.0" encoding="UTF-8" standalone="no"?>
<!-- Created with Inkscape (http://www.inkscape.org/) -->

<svg
   xmlns:dc="http://purl.org/dc/elements/1.1/"
   xmlns:cc="http://creativecommons.org/ns#"
   xmlns:rdf="http://www.w3.org/1999/02/22-rdf-syntax-ns#"
   xmlns:svg="http://www.w3.org/2000/svg"
   xmlns="http://www.w3.org/2000/svg"
   xmlns:sodipodi="http://sodipodi.sourceforge.net/DTD/sodipodi-0.dtd"
   xmlns:inkscape="http://www.inkscape.org/namespaces/inkscape"
   width="600"
   height="90"
   id="svg4666"
   version="1.1"
   inkscape:version="0.48.5 r10040"
   sodipodi:docname="connection-types-trusted-peer.svg"
   inkscape:export-filename="/home/harding/dev/bitcoin.org/img/bitcoin-core/connection-types-trusted-peer.png"
   inkscape:export-xdpi="90"
   inkscape:export-ydpi="90">
  <defs
     id="defs4668">
    <inkscape:path-effect
       effect="spiro"
       id="path-effect11746"
       is_visible="true" />
    <inkscape:path-effect
       effect="spiro"
       id="path-effect11742"
       is_visible="true" />
    <inkscape:path-effect
       effect="spiro"
       id="path-effect11738"
       is_visible="true" />
    <inkscape:path-effect
       effect="spiro"
       id="path-effect11224"
       is_visible="true" />
    <inkscape:path-effect
       effect="spiro"
       id="path-effect5356"
       is_visible="true" />
    <inkscape:path-effect
       effect="spiro"
       id="path-effect5352"
       is_visible="true" />
    <inkscape:path-effect
       effect="spiro"
       id="path-effect4719"
       is_visible="true" />
    <linearGradient
       id="linearGradient4075">
      <stop
         style="stop-color:#000000;stop-opacity:1;"
         offset="0"
         id="stop4077" />
      <stop
         id="stop4087"
         offset="0.5"
         style="stop-color:#000000;stop-opacity:0.75838351;" />
      <stop
         id="stop4085"
         offset="1"
         style="stop-color:#000000;stop-opacity:0.56491834;" />
    </linearGradient>
    <inkscape:path-effect
       effect="spiro"
       id="path-effect5352-0"
       is_visible="true" />
    <inkscape:path-effect
       effect="spiro"
       id="path-effect4719-3"
       is_visible="true" />
    <inkscape:path-effect
       effect="spiro"
       id="path-effect4719-7"
       is_visible="true" />
    <inkscape:path-effect
       effect="spiro"
       id="path-effect11746-9"
       is_visible="true" />
    <inkscape:path-effect
       effect="spiro"
       id="path-effect11746-9-4"
       is_visible="true" />
    <inkscape:path-effect
       effect="spiro"
       id="path-effect11742-6"
       is_visible="true" />
  </defs>
  <sodipodi:namedview
     id="base"
     pagecolor="#ffffff"
     bordercolor="#666666"
     borderopacity="1.0"
     inkscape:pageopacity="0.0"
     inkscape:pageshadow="2"
     inkscape:zoom="0.7071068"
     inkscape:cx="-108.57467"
     inkscape:cy="-36.535674"
     inkscape:document-units="px"
     inkscape:current-layer="layer1"
     showgrid="false"
     inkscape:window-width="1918"
     inkscape:window-height="1042"
     inkscape:window-x="0"
     inkscape:window-y="0"
     inkscape:window-maximized="0" />
  <metadata
     id="metadata4671">
    <rdf:RDF>
      <cc:Work
         rdf:about="">
        <dc:format>image/svg+xml</dc:format>
        <dc:type
           rdf:resource="http://purl.org/dc/dcmitype/StillImage" />
        <dc:title></dc:title>
      </cc:Work>
    </rdf:RDF>
  </metadata>
  <g
     inkscape:label="Layer 1"
     inkscape:groupmode="layer"
     id="layer1"
     transform="translate(0,-962.36218)">
    <path
       inkscape:connector-curvature="0"
       id="path4717-29"
       d="m 13.101107,1007.3622 493.411643,0"
       style="fill:none;stroke:#000000;stroke-width:2.04586291;stroke-linecap:butt;stroke-linejoin:miter;stroke-miterlimit:4;stroke-opacity:1;stroke-dasharray:none;stroke-dashoffset:0" />
    <path
       inkscape:connector-curvature="0"
       id="path4715-5"
       d="m 16.678565,1007.3622 c 0,3.8463 -3.118012,6.9643 -6.9642824,6.9643 -3.8462701,0 -6.9642826,-3.118 -6.9642826,-6.9643 0,-3.8463 3.1180125,-6.9643 6.9642826,-6.9643 3.8462704,0 6.9642824,3.118 6.9642824,6.9643 z"
       style="fill:#008000;fill-opacity:1;fill-rule:nonzero;stroke:#000000;stroke-width:1.5;stroke-miterlimit:4;stroke-opacity:1;stroke-dashoffset:0" />
    <path
       inkscape:connector-curvature="0"
       id="path11740"
       style="fill:none;stroke:#000000;stroke-width:2;stroke-linecap:butt;stroke-linejoin:miter;stroke-miterlimit:4;stroke-opacity:0.19607843000000000;stroke-dasharray:4,2;stroke-dashoffset:0"
       inkscape:path-effect="#path-effect11742"
       inkscape:original-d="m 513.12197,1007.5485 80.28302,0 m -41.53694,-38.29288 0,77.11388"
       d="m 513.12197,1007.5485 80.28302,0 m -41.53694,-38.29288 0,77.11388" />
    <rect
       style="fill:none;stroke:#000000;stroke-width:2;stroke-miterlimit:4;stroke-opacity:0.19607843000000000;stroke-dasharray:4.00000001,2;stroke-dashoffset:0"
       id="rect11226"
       width="57.571377"
       height="57.571377"
       x="-351.00049"
       y="1073.8884"
       transform="matrix(0.70710678,-0.70710678,0.70710678,0.70710678,0,0)" />
    <path
       inkscape:connector-curvature="0"
       id="rect4674-30"
       d="m 505.89833,1000.8793 13.33852,0 0,13.3386 -13.33852,0 z"
       style="fill:#008000;fill-opacity:1;fill-rule:nonzero;stroke:#000000;stroke-width:2;stroke-miterlimit:4;stroke-opacity:1;stroke-dashoffset:0;stroke-dasharray:none" />
    <path
       inkscape:connector-curvature="0"
       id="rect4674-30-2"
       d="m 583.91454,1000.8793 13.3385,0 0,13.3386 -13.3385,0 z"
       style="fill:#ffffff;fill-opacity:1;fill-rule:nonzero;stroke:#c6c6c6;stroke-width:2;stroke-miterlimit:4;stroke-opacity:1;stroke-dashoffset:0;stroke-dasharray:none" />
    <path
       inkscape:connector-curvature="0"
       id="rect4674-30-2-4"
       d="m 545.19879,963.29174 13.33851,0 0,13.33854 -13.33851,0 z"
       style="fill:#ffffff;fill-opacity:1;fill-rule:nonzero;stroke:#c6c6c6;stroke-width:2;stroke-miterlimit:4;stroke-opacity:1;stroke-dashoffset:0;stroke-dasharray:none" />
    <path
       inkscape:connector-curvature="0"
       id="rect4674-30-2-7"
       d="m 545.19879,1038.0941 13.33851,0 0,13.3385 -13.33851,0 z"
       style="fill:#ffffff;fill-opacity:1;fill-rule:nonzero;stroke:#c6c6c6;stroke-width:2;stroke-miterlimit:4;stroke-opacity:1;stroke-dashoffset:0;stroke-dasharray:none" />
    <g
       style="font-size:20px;font-style:normal;font-weight:normal;line-height:125%;letter-spacing:0px;word-spacing:0px;fill:#000000;fill-opacity:1;stroke:none;font-family:Sans"
       id="text11202">
      <path
         d="m 105.69121,983.27783 0,1.92383 c -0.74871,-0.35806 -1.45509,-0.62499 -2.11914,-0.80078 -0.66407,-0.17577 -1.30535,-0.26366 -1.92383,-0.26367 -1.07423,10e-6 -1.904302,0.20834 -2.490235,0.625 -0.579431,0.41668 -0.869144,1.00912 -0.869141,1.77734 -3e-6,0.64454 0.192054,1.13282 0.576172,1.46484 0.390621,0.32553 1.126297,0.58921 2.207034,0.79102 l 1.1914,0.24414 c 1.47135,0.27996 2.55533,0.77475 3.25196,1.48438 0.70311,0.70313 1.05467,1.64714 1.05468,2.83203 -1e-5,1.41276 -0.47527,2.48372 -1.42578,3.21289 -0.94402,0.72916 -2.33073,1.09375 -4.16015,1.09375 -0.69011,0 -1.425789,-0.0781 -2.207035,-0.23438 -0.774742,-0.15625 -1.578778,-0.38737 -2.412109,-0.69336 l 0,-2.03125 c 0.800779,0.44922 1.585284,0.78777 2.353516,1.01563 0.768224,0.22786 1.523428,0.3418 2.265628,0.3418 1.12629,0 1.99543,-0.22136 2.60742,-0.66407 0.61197,-0.4427 0.91796,-1.07421 0.91797,-1.89453 -1e-5,-0.71614 -0.22137,-1.27604 -0.66407,-1.67969 -0.4362,-0.40364 -1.1556,-0.70637 -2.1582,-0.9082 l -1.20117,-0.23437 c -1.471358,-0.29297 -2.53581,-0.75195 -3.19336,-1.37696 -0.657553,-0.62499 -0.986329,-1.49413 -0.986328,-2.60742 -10e-7,-1.28905 0.452472,-2.30467 1.357422,-3.04687 0.911455,-0.74218 2.164709,-1.11327 3.759766,-1.11329 0.68359,2e-5 1.3802,0.0619 2.08984,0.18555 0.70963,0.12371 1.43554,0.30926 2.17774,0.55664"
         style=""
         id="path13117" />
      <path
         d="m 118.96269,991.46143 0,0.8789 -8.26172,0 c 0.0781,1.23698 0.44922,2.18099 1.11328,2.83203 0.67057,0.64454 1.60156,0.9668 2.79297,0.9668 0.6901,0 1.35742,-0.0846 2.00196,-0.25391 0.65103,-0.16927 1.29556,-0.42317 1.93359,-0.76171 l 0,1.69921 c -0.64454,0.27344 -1.30535,0.48177 -1.98242,0.625 -0.67709,0.14323 -1.36394,0.21485 -2.06055,0.21485 -1.7448,0 -3.12826,-0.50781 -4.15039,-1.52344 -1.01563,-1.01562 -1.52344,-2.38932 -1.52344,-4.12109 0,-1.79036 0.48177,-3.20963 1.44532,-4.25782 0.97004,-1.05467 2.27538,-1.58202 3.91601,-1.58203 1.47135,10e-6 2.63346,0.47527 3.48633,1.42578 0.85936,0.94402 1.28905,2.22983 1.28906,3.85743 m -1.79687,-0.52735 c -0.013,-0.98306 -0.28973,-1.76757 -0.83008,-2.35351 -0.53386,-0.58593 -1.2435,-0.8789 -2.12891,-0.87891 -1.00261,1e-5 -1.80664,0.28321 -2.41211,0.84961 -0.59896,0.56641 -0.94401,1.36394 -1.03515,2.39258 l 6.40625,-0.01"
         style=""
         id="path13119" />
      <path
         d="m 129.74394,986.86182 0,1.67968 c -0.50782,-0.27993 -1.01889,-0.48827 -1.5332,-0.625 -0.50782,-0.14322 -1.02214,-0.21483 -1.54297,-0.21484 -1.16537,1e-5 -2.07032,0.3711 -2.71484,1.11328 -0.64454,0.73569 -0.9668,1.77084 -0.9668,3.10547 0,1.33464 0.32226,2.37305 0.9668,3.11523 0.64452,0.73568 1.54947,1.10352 2.71484,1.10352 0.52083,0 1.03515,-0.0684 1.54297,-0.20508 0.51431,-0.14323 1.02538,-0.35481 1.5332,-0.63476 l 0,1.66015 c -0.50131,0.23438 -1.02214,0.41016 -1.5625,0.52735 -0.53386,0.11718 -1.10352,0.17578 -1.70898,0.17578 -1.64714,0 -2.95573,-0.51758 -3.92578,-1.55274 -0.97006,-1.03515 -1.45508,-2.43163 -1.45508,-4.18945 0,-1.78385 0.48828,-3.18684 1.46484,-4.20898 0.98307,-1.02213 2.32747,-1.5332 4.03321,-1.53321 0.55337,10e-6 1.09374,0.0586 1.62109,0.17578 0.52733,0.11069 1.0384,0.27996 1.5332,0.50782"
         style=""
         id="path13121" />
      <path
         d="m 132.66386,993.06299 0,-6.6211 1.79688,0 0,6.55274 c 0,1.03516 0.20182,1.81315 0.60547,2.33398 0.40364,0.51433 1.00911,0.77149 1.8164,0.77149 0.97005,0 1.73502,-0.30925 2.29493,-0.92774 0.56639,-0.61848 0.8496,-1.46158 0.84961,-2.52929 l 0,-6.20118 1.79687,0 0,10.9375 -1.79687,0 0,-1.67968 c -0.43621,0.66406 -0.94402,1.15885 -1.52344,1.48437 -0.57293,0.31901 -1.24024,0.47852 -2.00196,0.47852 -1.25651,0 -2.21029,-0.39063 -2.86132,-1.17188 -0.65105,-0.78125 -0.97657,-1.92382 -0.97657,-3.42773 m 4.52149,-6.88477 0,0"
         style=""
         id="path13123" />
      <path
         d="m 151.88261,988.12158 c -0.20183,-0.11718 -0.42318,-0.20181 -0.66406,-0.2539 -0.23438,-0.0586 -0.4948,-0.0879 -0.78125,-0.0879 -1.01563,0 -1.79688,0.33204 -2.34375,0.99609 -0.54037,0.65756 -0.81055,1.60482 -0.81055,2.8418 l 0,5.76171 -1.80664,0 0,-10.9375 1.80664,0 0,1.69922 c 0.3776,-0.66405 0.86914,-1.15559 1.47461,-1.47461 0.60547,-0.32551 1.34114,-0.48827 2.20704,-0.48828 0.12369,10e-6 0.2604,0.01 0.41015,0.0293 0.14973,0.013 0.31575,0.0358 0.49805,0.0684 l 0.01,1.8457"
         style=""
         id="path13125" />
      <path
         d="m 162.71269,991.46143 0,0.8789 -8.26172,0 c 0.0781,1.23698 0.44922,2.18099 1.11328,2.83203 0.67057,0.64454 1.60156,0.9668 2.79297,0.9668 0.6901,0 1.35742,-0.0846 2.00196,-0.25391 0.65103,-0.16927 1.29556,-0.42317 1.93359,-0.76171 l 0,1.69921 c -0.64454,0.27344 -1.30535,0.48177 -1.98242,0.625 -0.67709,0.14323 -1.36394,0.21485 -2.06055,0.21485 -1.7448,0 -3.12826,-0.50781 -4.15039,-1.52344 -1.01563,-1.01562 -1.52344,-2.38932 -1.52344,-4.12109 0,-1.79036 0.48177,-3.20963 1.44532,-4.25782 0.97004,-1.05467 2.27538,-1.58202 3.91601,-1.58203 1.47135,10e-6 2.63346,0.47527 3.48633,1.42578 0.85936,0.94402 1.28905,2.22983 1.28906,3.85743 m -1.79687,-0.52735 c -0.013,-0.98306 -0.28973,-1.76757 -0.83008,-2.35351 -0.53386,-0.58593 -1.2435,-0.8789 -2.12891,-0.87891 -1.00261,1e-5 -1.80664,0.28321 -2.41211,0.84961 -0.59896,0.56641 -0.94401,1.36394 -1.03515,2.39258 l 6.40625,-0.01"
         style=""
         id="path13127" />
      <path
         d="m 176.96074,991.88135 c -1.45183,0 -2.45769,0.16602 -3.01758,0.49804 -0.5599,0.33204 -0.83985,0.89845 -0.83984,1.69922 -1e-5,0.63803 0.20833,1.14584 0.625,1.52344 0.42317,0.3711 0.99609,0.55664 1.71875,0.55664 0.99608,0 1.79361,-0.35156 2.39258,-1.05469 0.60546,-0.70963 0.90819,-1.65038 0.9082,-2.82226 l 0,-0.40039 -1.78711,0 m 3.58398,-0.74219 0,6.24023 -1.79687,0 0,-1.66015 c -0.41017,0.66406 -0.92123,1.1556 -1.5332,1.47461 -0.61199,0.3125 -1.36069,0.46875 -2.2461,0.46875 -1.11979,0 -2.01172,-0.3125 -2.67578,-0.9375 -0.65755,-0.63151 -0.98633,-1.47461 -0.98633,-2.5293 0,-1.23046 0.41016,-2.1582 1.23047,-2.7832 0.82682,-0.625 2.05729,-0.9375 3.69141,-0.9375 l 2.51953,0 0,-0.17578 c -1e-5,-0.82682 -0.27345,-1.46484 -0.82031,-1.91407 -0.54038,-0.45572 -1.30209,-0.68358 -2.28516,-0.68359 -0.62501,1e-5 -1.23373,0.0749 -1.82617,0.22461 -0.59245,0.14975 -1.16211,0.37436 -1.70899,0.67383 l 0,-1.66016 c 0.65755,-0.25389 1.29557,-0.4427 1.91407,-0.5664 0.61848,-0.1302 1.22069,-0.19531 1.80664,-0.19532 1.58202,10e-6 2.76366,0.41017 3.54492,1.23047 0.78124,0.82032 1.17186,2.06381 1.17187,3.73047"
         style=""
         id="path13129" />
      <path
         d="m 193.38652,990.77783 0,6.60156 -1.79687,0 0,-6.54296 c -1e-5,-1.03515 -0.20184,-1.80989 -0.60547,-2.32422 -0.40366,-0.51432 -1.00913,-0.77148 -1.81641,-0.77149 -0.97006,10e-6 -1.73503,0.30926 -2.29492,0.92774 -0.5599,0.61849 -0.83985,1.46159 -0.83985,2.52929 l 0,6.18164 -1.80664,0 0,-10.9375 1.80664,0 0,1.69922 c 0.42969,-0.65754 0.93424,-1.14907 1.51368,-1.47461 0.58593,-0.32551 1.25976,-0.48827 2.02148,-0.48828 1.2565,10e-6 2.20702,0.39064 2.85156,1.17188 0.64452,0.77475 0.96679,1.91732 0.9668,3.42773"
         style=""
         id="path13131" />
      <path
         d="m 204.1873,988.10205 0,-5.91797 1.79688,0 0,15.19531 -1.79688,0 0,-1.64062 c -0.37761,0.65104 -0.85613,1.13607 -1.43555,1.45508 -0.57292,0.3125 -1.26302,0.46875 -2.07031,0.46875 -1.32162,0 -2.39909,-0.52735 -3.23242,-1.58203 -0.82682,-1.05469 -1.24024,-2.44141 -1.24023,-4.16016 -1e-5,-1.71874 0.41341,-3.10546 1.24023,-4.16016 0.83333,-1.05467 1.9108,-1.58202 3.23242,-1.58203 0.80729,10e-6 1.49739,0.15952 2.07031,0.47852 0.57942,0.31251 1.05794,0.79428 1.43555,1.44531 m -6.12305,3.81836 c 0,1.32162 0.27018,2.36003 0.81055,3.11523 0.54687,0.7487 1.29557,1.12305 2.2461,1.12305 0.95051,0 1.69921,-0.37435 2.24609,-1.12305 0.54687,-0.7552 0.8203,-1.79361 0.82031,-3.11523 -1e-5,-1.32161 -0.27344,-2.35676 -0.82031,-3.10547 -0.54688,-0.7552 -1.29558,-1.1328 -2.24609,-1.13281 -0.95053,10e-6 -1.69923,0.37761 -2.2461,1.13281 -0.54037,0.74871 -0.81055,1.78386 -0.81055,3.10547"
         style=""
         id="path13133" />
      <path
         d="m 217.79082,995.73877 0,5.80083 -1.80664,0 0,-15.09771 1.80664,0 0,1.66016 c 0.3776,-0.65103 0.85286,-1.1328 1.42578,-1.44531 0.57942,-0.319 1.26952,-0.47851 2.07031,-0.47852 1.32812,10e-6 2.40559,0.52736 3.23242,1.58203 0.83333,1.0547 1.24999,2.44142 1.25,4.16016 -1e-5,1.71875 -0.41667,3.10547 -1.25,4.16016 -0.82683,1.05468 -1.9043,1.58203 -3.23242,1.58203 -0.80079,0 -1.49089,-0.15625 -2.07031,-0.46875 -0.57292,-0.31901 -1.04818,-0.80404 -1.42578,-1.45508 m 6.11328,-3.81836 c -1e-5,-1.32161 -0.27345,-2.35676 -0.82031,-3.10547 -0.54038,-0.7552 -1.28582,-1.1328 -2.23633,-1.13281 -0.95053,10e-6 -1.69923,0.37761 -2.2461,1.13281 -0.54036,0.74871 -0.81055,1.78386 -0.81054,3.10547 -1e-5,1.32162 0.27018,2.36003 0.81054,3.11523 0.54687,0.7487 1.29557,1.12305 2.2461,1.12305 0.95051,0 1.69595,-0.37435 2.23633,-1.12305 0.54686,-0.7552 0.8203,-1.79361 0.82031,-3.11523"
         style=""
         id="path13135" />
      <path
         d="m 235.08574,988.12158 c -0.20183,-0.11718 -0.42319,-0.20181 -0.66406,-0.2539 -0.23439,-0.0586 -0.4948,-0.0879 -0.78125,-0.0879 -1.01563,0 -1.79688,0.33204 -2.34375,0.99609 -0.54037,0.65756 -0.81055,1.60482 -0.81055,2.8418 l 0,5.76171 -1.80664,0 0,-10.9375 1.80664,0 0,1.69922 c 0.3776,-0.66405 0.86914,-1.15559 1.47461,-1.47461 0.60546,-0.32551 1.34114,-0.48827 2.20703,-0.48828 0.12369,10e-6 0.26041,0.01 0.41016,0.0293 0.14973,0.013 0.31574,0.0358 0.49804,0.0684 l 0.01,1.8457"
         style=""
         id="path13137" />
      <path
         d="m 236.99004,986.44189 1.79687,0 0,10.9375 -1.79687,0 0,-10.9375 m 0,-4.25781 1.79687,0 0,2.27539 -1.79687,0 0,-2.27539"
         style=""
         id="path13139" />
      <path
         d="m 241.24785,986.44189 1.9043,0 3.41796,9.17969 3.41797,-9.17969 1.9043,0 -4.10156,10.9375 -2.44141,0 -4.10156,-10.9375"
         style=""
         id="path13141" />
      <path
         d="m 259.34355,991.88135 c -1.45183,0 -2.45769,0.16602 -3.01758,0.49804 -0.5599,0.33204 -0.83984,0.89845 -0.83984,1.69922 0,0.63803 0.20833,1.14584 0.625,1.52344 0.42317,0.3711 0.99609,0.55664 1.71875,0.55664 0.99609,0 1.79361,-0.35156 2.39258,-1.05469 0.60546,-0.70963 0.90819,-1.65038 0.9082,-2.82226 l 0,-0.40039 -1.78711,0 m 3.58399,-0.74219 0,6.24023 -1.79688,0 0,-1.66015 c -0.41016,0.66406 -0.92123,1.1556 -1.5332,1.47461 -0.61199,0.3125 -1.36068,0.46875 -2.2461,0.46875 -1.11979,0 -2.01172,-0.3125 -2.67578,-0.9375 -0.65755,-0.63151 -0.98633,-1.47461 -0.98633,-2.5293 0,-1.23046 0.41016,-2.1582 1.23047,-2.7832 0.82682,-0.625 2.05729,-0.9375 3.69141,-0.9375 l 2.51953,0 0,-0.17578 c -10e-6,-0.82682 -0.27344,-1.46484 -0.82031,-1.91407 -0.54037,-0.45572 -1.30209,-0.68358 -2.28516,-0.68359 -0.625,1e-5 -1.23373,0.0749 -1.82617,0.22461 -0.59245,0.14975 -1.16211,0.37436 -1.70898,0.67383 l 0,-1.66016 c 0.65755,-0.25389 1.29557,-0.4427 1.91406,-0.5664 0.61848,-0.1302 1.2207,-0.19531 1.80664,-0.19532 1.58202,10e-6 2.76366,0.41017 3.54492,1.23047 0.78124,0.82032 1.17187,2.06381 1.17188,3.73047"
         style=""
         id="path13143" />
      <path
         d="m 268.45488,983.33643 0,3.10546 3.70117,0 0,1.39649 -3.70117,0 0,5.9375 c 0,0.89193 0.12044,1.46484 0.36133,1.71875 0.24739,0.25391 0.74544,0.38086 1.49414,0.38086 l 1.8457,0 0,1.5039 -1.8457,0 c -1.38672,0 -2.34375,-0.25716 -2.8711,-0.77148 -0.52734,-0.52083 -0.79101,-1.46484 -0.79101,-2.83203 l 0,-5.9375 -1.31836,0 0,-1.39649 1.31836,0 0,-3.10546 1.80664,0"
         style=""
         id="path13145" />
      <path
         d="m 283.88457,991.46143 0,0.8789 -8.26172,0 c 0.0781,1.23698 0.44921,2.18099 1.11328,2.83203 0.67057,0.64454 1.60156,0.9668 2.79297,0.9668 0.6901,0 1.35741,-0.0846 2.00195,-0.25391 0.65103,-0.16927 1.29556,-0.42317 1.9336,-0.76171 l 0,1.69921 c -0.64455,0.27344 -1.30535,0.48177 -1.98243,0.625 -0.67709,0.14323 -1.36394,0.21485 -2.06054,0.21485 -1.7448,0 -3.12826,-0.50781 -4.15039,-1.52344 -1.01563,-1.01562 -1.52344,-2.38932 -1.52344,-4.12109 0,-1.79036 0.48177,-3.20963 1.44531,-4.25782 0.97005,-1.05467 2.27539,-1.58202 3.91602,-1.58203 1.47134,10e-6 2.63345,0.47527 3.48632,1.42578 0.85937,0.94402 1.28906,2.22983 1.28907,3.85743 m -1.79688,-0.52735 c -0.013,-0.98306 -0.28972,-1.76757 -0.83008,-2.35351 -0.53386,-0.58593 -1.24349,-0.8789 -2.1289,-0.87891 -1.00261,1e-5 -1.80665,0.28321 -2.41211,0.84961 -0.59896,0.56641 -0.94402,1.36394 -1.03516,2.39258 l 6.40625,-0.01"
         style=""
         id="path13147" />
      <path
         d="m 301.033,986.86182 0,1.67968 c -0.50782,-0.27993 -1.01888,-0.48827 -1.5332,-0.625 -0.50782,-0.14322 -1.02214,-0.21483 -1.54297,-0.21484 -1.16537,1e-5 -2.07031,0.3711 -2.71484,1.11328 -0.64454,0.73569 -0.9668,1.77084 -0.9668,3.10547 0,1.33464 0.32226,2.37305 0.9668,3.11523 0.64453,0.73568 1.54947,1.10352 2.71484,1.10352 0.52083,0 1.03515,-0.0684 1.54297,-0.20508 0.51432,-0.14323 1.02538,-0.35481 1.5332,-0.63476 l 0,1.66015 c -0.50131,0.23438 -1.02214,0.41016 -1.5625,0.52735 -0.53386,0.11718 -1.10352,0.17578 -1.70898,0.17578 -1.64714,0 -2.95573,-0.51758 -3.92578,-1.55274 -0.97005,-1.03515 -1.45508,-2.43163 -1.45508,-4.18945 0,-1.78385 0.48828,-3.18684 1.46484,-4.20898 0.98307,-1.02213 2.32747,-1.5332 4.03321,-1.53321 0.55338,10e-6 1.09374,0.0586 1.62109,0.17578 0.52734,0.11069 1.0384,0.27996 1.5332,0.50782"
         style=""
         id="path13149" />
      <path
         d="m 308.37675,987.70166 c -0.96354,1e-5 -1.72526,0.37761 -2.28515,1.13281 -0.5599,0.74871 -0.83985,1.77735 -0.83985,3.08594 0,1.3086 0.27669,2.3405 0.83008,3.0957 0.55989,0.7487 1.32487,1.12305 2.29492,1.12305 0.95703,0 1.71549,-0.3776 2.2754,-1.13281 0.55988,-0.75521 0.83983,-1.78385 0.83984,-3.08594 -10e-6,-1.29557 -0.27996,-2.32096 -0.83984,-3.07617 -0.55991,-0.76171 -1.31837,-1.14257 -2.2754,-1.14258 m 0,-1.52344 c 1.5625,10e-6 2.78971,0.50783 3.68165,1.52344 0.89191,1.01563 1.33787,2.42188 1.33789,4.21875 -2e-5,1.79037 -0.44598,3.19662 -1.33789,4.21875 -0.89194,1.01563 -2.11915,1.52344 -3.68165,1.52344 -1.56901,0 -2.79948,-0.50781 -3.6914,-1.52344 -0.88542,-1.02213 -1.32813,-2.42838 -1.32813,-4.21875 0,-1.79687 0.44271,-3.20312 1.32813,-4.21875 0.89192,-1.01561 2.12239,-1.52343 3.6914,-1.52344"
         style=""
         id="path13151" />
      <path
         d="m 325.45683,990.77783 0,6.60156 -1.79687,0 0,-6.54296 c -1e-5,-1.03515 -0.20183,-1.80989 -0.60547,-2.32422 -0.40365,-0.51432 -1.00912,-0.77148 -1.81641,-0.77149 -0.97005,10e-6 -1.73503,0.30926 -2.29492,0.92774 -0.5599,0.61849 -0.83985,1.46159 -0.83984,2.52929 l 0,6.18164 -1.80664,0 0,-10.9375 1.80664,0 0,1.69922 c 0.42968,-0.65754 0.93424,-1.14907 1.51367,-1.47461 0.58593,-0.32551 1.25976,-0.48827 2.02148,-0.48828 1.25651,10e-6 2.20703,0.39064 2.85157,1.17188 0.64452,0.77475 0.96678,1.91732 0.96679,3.42773"
         style=""
         id="path13153" />
      <path
         d="m 338.15215,990.77783 0,6.60156 -1.79688,0 0,-6.54296 c -1e-5,-1.03515 -0.20183,-1.80989 -0.60547,-2.32422 -0.40365,-0.51432 -1.00912,-0.77148 -1.8164,-0.77149 -0.97006,10e-6 -1.73504,0.30926 -2.29493,0.92774 -0.5599,0.61849 -0.83984,1.46159 -0.83984,2.52929 l 0,6.18164 -1.80664,0 0,-10.9375 1.80664,0 0,1.69922 c 0.42968,-0.65754 0.93424,-1.14907 1.51367,-1.47461 0.58593,-0.32551 1.25976,-0.48827 2.02149,-0.48828 1.2565,10e-6 2.20702,0.39064 2.85156,1.17188 0.64452,0.77475 0.96678,1.91732 0.9668,3.42773"
         style=""
         id="path13155" />
      <path
         d="m 351.11113,991.46143 0,0.8789 -8.26172,0 c 0.0781,1.23698 0.44922,2.18099 1.11328,2.83203 0.67057,0.64454 1.60156,0.9668 2.79297,0.9668 0.6901,0 1.35741,-0.0846 2.00195,-0.25391 0.65104,-0.16927 1.29557,-0.42317 1.9336,-0.76171 l 0,1.69921 c -0.64454,0.27344 -1.30535,0.48177 -1.98242,0.625 -0.6771,0.14323 -1.36394,0.21485 -2.06055,0.21485 -1.7448,0 -3.12826,-0.50781 -4.15039,-1.52344 -1.01563,-1.01562 -1.52344,-2.38932 -1.52344,-4.12109 0,-1.79036 0.48177,-3.20963 1.44531,-4.25782 0.97005,-1.05467 2.27539,-1.58202 3.91602,-1.58203 1.47135,10e-6 2.63345,0.47527 3.48633,1.42578 0.85936,0.94402 1.28905,2.22983 1.28906,3.85743 m -1.79688,-0.52735 c -0.013,-0.98306 -0.28972,-1.76757 -0.83007,-2.35351 -0.53387,-0.58593 -1.2435,-0.8789 -2.12891,-0.87891 -1.00261,1e-5 -1.80664,0.28321 -2.41211,0.84961 -0.59896,0.56641 -0.94401,1.36394 -1.03516,2.39258 l 6.40625,-0.01"
         style=""
         id="path13157" />
      <path
         d="m 361.89238,986.86182 0,1.67968 c -0.50782,-0.27993 -1.01889,-0.48827 -1.5332,-0.625 -0.50782,-0.14322 -1.02215,-0.21483 -1.54297,-0.21484 -1.16537,1e-5 -2.07032,0.3711 -2.71485,1.11328 -0.64453,0.73569 -0.9668,1.77084 -0.96679,3.10547 -10e-6,1.33464 0.32226,2.37305 0.96679,3.11523 0.64453,0.73568 1.54948,1.10352 2.71485,1.10352 0.52082,0 1.03515,-0.0684 1.54297,-0.20508 0.51431,-0.14323 1.02538,-0.35481 1.5332,-0.63476 l 0,1.66015 c -0.50131,0.23438 -1.02214,0.41016 -1.5625,0.52735 -0.53386,0.11718 -1.10352,0.17578 -1.70898,0.17578 -1.64714,0 -2.95574,-0.51758 -3.92579,-1.55274 -0.97005,-1.03515 -1.45508,-2.43163 -1.45507,-4.18945 -1e-5,-1.78385 0.48828,-3.18684 1.46484,-4.20898 0.98307,-1.02213 2.32747,-1.5332 4.0332,-1.53321 0.55338,10e-6 1.09375,0.0586 1.6211,0.17578 0.52733,0.11069 1.0384,0.27996 1.5332,0.50782"
         style=""
         id="path13159" />
      <path
         d="m 366.77519,983.33643 0,3.10546 3.70117,0 0,1.39649 -3.70117,0 0,5.9375 c 0,0.89193 0.12044,1.46484 0.36133,1.71875 0.24739,0.25391 0.74544,0.38086 1.49414,0.38086 l 1.8457,0 0,1.5039 -1.8457,0 c -1.38672,0 -2.34375,-0.25716 -2.87109,-0.77148 -0.52735,-0.52083 -0.79102,-1.46484 -0.79102,-2.83203 l 0,-5.9375 -1.31836,0 0,-1.39649 1.31836,0 0,-3.10546 1.80664,0"
         style=""
         id="path13161" />
      <path
         d="m 372.84941,986.44189 1.79688,0 0,10.9375 -1.79688,0 0,-10.9375 m 0,-4.25781 1.79688,0 0,2.27539 -1.79688,0 0,-2.27539"
         style=""
         id="path13163" />
      <path
         d="m 382.63457,987.70166 c -0.96355,1e-5 -1.72527,0.37761 -2.28516,1.13281 -0.5599,0.74871 -0.83985,1.77735 -0.83984,3.08594 -10e-6,1.3086 0.27669,2.3405 0.83008,3.0957 0.55989,0.7487 1.32486,1.12305 2.29492,1.12305 0.95702,0 1.71548,-0.3776 2.27539,-1.13281 0.55988,-0.75521 0.83983,-1.78385 0.83984,-3.08594 -10e-6,-1.29557 -0.27996,-2.32096 -0.83984,-3.07617 -0.55991,-0.76171 -1.31837,-1.14257 -2.27539,-1.14258 m 0,-1.52344 c 1.56249,10e-6 2.7897,0.50783 3.68164,1.52344 0.89191,1.01563 1.33788,2.42188 1.33789,4.21875 -1e-5,1.79037 -0.44598,3.19662 -1.33789,4.21875 -0.89194,1.01563 -2.11915,1.52344 -3.68164,1.52344 -1.56902,0 -2.79949,-0.50781 -3.69141,-1.52344 -0.88542,-1.02213 -1.32813,-2.42838 -1.32812,-4.21875 -1e-5,-1.79687 0.4427,-3.20312 1.32812,-4.21875 0.89192,-1.01561 2.12239,-1.52343 3.69141,-1.52344"
         style=""
         id="path13165" />
      <path
         d="m 399.71465,990.77783 0,6.60156 -1.79688,0 0,-6.54296 c -1e-5,-1.03515 -0.20183,-1.80989 -0.60547,-2.32422 -0.40365,-0.51432 -1.00912,-0.77148 -1.8164,-0.77149 -0.97006,10e-6 -1.73504,0.30926 -2.29493,0.92774 -0.5599,0.61849 -0.83984,1.46159 -0.83984,2.52929 l 0,6.18164 -1.80664,0 0,-10.9375 1.80664,0 0,1.69922 c 0.42968,-0.65754 0.93424,-1.14907 1.51367,-1.47461 0.58593,-0.32551 1.25976,-0.48827 2.02149,-0.48828 1.2565,10e-6 2.20702,0.39064 2.85156,1.17188 0.64452,0.77475 0.96678,1.91732 0.9668,3.42773"
         style=""
         id="path13167" />
    </g>
    <g
       style="font-size:20px;font-style:normal;font-weight:normal;line-height:125%;letter-spacing:0px;word-spacing:0px;fill:#000000;fill-opacity:1;stroke:none;font-family:Sans"
       id="text11206">
      <path
         d="m 80.686325,1015.4907 0,3.1055 3.701172,0 0,1.3965 -3.701172,0 0,5.9375 c -4e-6,0.8919 0.120439,1.4648 0.361328,1.7187 0.247392,0.2539 0.745438,0.3809 1.494141,0.3809 l 1.845703,0 0,1.5039 -1.845703,0 c -1.386723,0 -2.343753,-0.2572 -2.871094,-0.7715 -0.527346,-0.5208 -0.791017,-1.4648 -0.791016,-2.832 l 0,-5.9375 -1.318359,0 0,-1.3965 1.318359,0 0,-3.1055 1.806641,0"
         style=""
         id="path13056" />
      <path
         d="m 90.998825,1019.856 c -0.963547,0 -1.725265,0.3776 -2.285156,1.1328 -0.559899,0.7487 -0.839847,1.7773 -0.839844,3.0859 -3e-6,1.3086 0.27669,2.3405 0.830078,3.0957 0.559892,0.7487 1.324865,1.1231 2.294922,1.1231 0.957024,0 1.715487,-0.3776 2.275391,-1.1329 0.559887,-0.7552 0.839834,-1.7838 0.839843,-3.0859 -9e-6,-1.2956 -0.279956,-2.3209 -0.839843,-3.0762 -0.559904,-0.7617 -1.318367,-1.1425 -2.275391,-1.1425 m 0,-1.5235 c 1.562492,0 2.789705,0.5078 3.681641,1.5235 0.891916,1.0156 1.337879,2.4218 1.33789,4.2187 -1.1e-5,1.7904 -0.445974,3.1966 -1.33789,4.2188 -0.891936,1.0156 -2.119149,1.5234 -3.681641,1.5234 -1.569015,0 -2.799482,-0.5078 -3.691406,-1.5234 -0.885418,-1.0222 -1.328126,-2.4284 -1.328125,-4.2188 -10e-7,-1.7969 0.442707,-3.2031 1.328125,-4.2187 0.891924,-1.0157 2.122391,-1.5235 3.691406,-1.5235"
         style=""
         id="path13058" />
      <path
         d="m 109.90508,1030.5493 c -0.50782,1.3021 -1.00261,2.1517 -1.48438,2.5488 -0.48178,0.3972 -1.12631,0.5957 -1.93359,0.5957 l -1.43555,0 0,-1.5039 1.05469,0 c 0.49479,0 0.8789,-0.1171 1.15234,-0.3515 0.27343,-0.2344 0.57617,-0.7878 0.9082,-1.6602 l 0.32227,-0.8203 -4.42383,-10.7617 1.9043,0 3.41797,8.5547 3.41797,-8.5547 1.90429,0 -4.80468,11.9531"
         style=""
         id="path13060" />
      <path
         d="m 121.42851,1019.856 c -0.96354,0 -1.72526,0.3776 -2.28515,1.1328 -0.5599,0.7487 -0.83985,1.7773 -0.83985,3.0859 0,1.3086 0.27669,2.3405 0.83008,3.0957 0.55989,0.7487 1.32487,1.1231 2.29492,1.1231 0.95703,0 1.71549,-0.3776 2.27539,-1.1329 0.55989,-0.7552 0.83984,-1.7838 0.83985,-3.0859 -1e-5,-1.2956 -0.27996,-2.3209 -0.83985,-3.0762 -0.5599,-0.7617 -1.31836,-1.1425 -2.27539,-1.1425 m 0,-1.5235 c 1.56249,0 2.78971,0.5078 3.68164,1.5235 0.89192,1.0156 1.33788,2.4218 1.33789,4.2187 -1e-5,1.7904 -0.44597,3.1966 -1.33789,4.2188 -0.89193,1.0156 -2.11915,1.5234 -3.68164,1.5234 -1.56901,0 -2.79948,-0.5078 -3.6914,-1.5234 -0.88542,-1.0222 -1.32813,-2.4284 -1.32813,-4.2188 0,-1.7969 0.44271,-3.2031 1.32813,-4.2187 0.89192,-1.0157 2.12239,-1.5235 3.6914,-1.5235"
         style=""
         id="path13062" />
      <path
         d="m 129.23125,1025.2173 0,-6.6211 1.79687,0 0,6.5527 c 0,1.0352 0.20182,1.8132 0.60547,2.334 0.40364,0.5143 1.00911,0.7715 1.81641,0.7715 0.97004,0 1.73502,-0.3092 2.29492,-0.9277 0.5664,-0.6185 0.8496,-1.4616 0.84961,-2.5293 l 0,-6.2012 1.79687,0 0,10.9375 -1.79687,0 0,-1.6797 c -0.43621,0.6641 -0.94402,1.1589 -1.52344,1.4844 -0.57292,0.319 -1.24024,0.4785 -2.00195,0.4785 -1.25652,0 -2.21029,-0.3906 -2.86133,-1.1719 -0.65104,-0.7812 -0.97656,-1.9238 -0.97656,-3.4277 m 4.52148,-6.8848 0,0"
         style=""
         id="path13064" />
      <path
         d="m 148.45,1020.2759 c -0.20183,-0.1172 -0.42319,-0.2018 -0.66407,-0.2539 -0.23438,-0.059 -0.49479,-0.088 -0.78125,-0.088 -1.01563,0 -1.79688,0.332 -2.34375,0.9961 -0.54036,0.6575 -0.81055,1.6048 -0.81054,2.8418 l 0,5.7617 -1.80664,0 0,-10.9375 1.80664,0 0,1.6992 c 0.3776,-0.664 0.86913,-1.1556 1.47461,-1.4746 0.60546,-0.3255 1.34114,-0.4883 2.20703,-0.4883 0.12369,0 0.26041,0.01 0.41015,0.029 0.14974,0.013 0.31575,0.036 0.49805,0.068 l 0.01,1.8457"
         style=""
         id="path13066" />
      <path
         d="m 158.77226,1022.5708 0,5.3418 3.16407,0 c 1.06118,0 1.84569,-0.2181 2.35351,-0.6543 0.51431,-0.4427 0.77147,-1.1165 0.77149,-2.0215 -2e-5,-0.9114 -0.25718,-1.582 -0.77149,-2.0117 -0.50782,-0.4362 -1.29233,-0.6543 -2.35351,-0.6543 l -3.16407,0 m 0,-5.9961 0,4.3945 2.91992,0 c 0.96354,0 1.67968,-0.179 2.14844,-0.5371 0.47525,-0.3645 0.71288,-0.9179 0.71289,-1.6601 -10e-6,-0.7357 -0.23764,-1.2858 -0.71289,-1.6504 -0.46876,-0.3646 -1.1849,-0.5469 -2.14844,-0.5469 l -2.91992,0 m -1.97265,-1.6211 5.03906,0 c 1.5039,0 2.66275,0.3125 3.47656,0.9375 0.81379,0.625 1.22069,1.5137 1.2207,2.666 -1e-5,0.892 -0.20834,1.6016 -0.625,2.1289 -0.41667,0.5274 -1.02865,0.8562 -1.83593,0.9864 0.97004,0.2083 1.72199,0.6445 2.25586,1.3086 0.54035,0.6575 0.81053,1.4811 0.81054,2.4707 -1e-5,1.302 -0.44272,2.3079 -1.32812,3.0175 -0.88543,0.7097 -2.14519,1.0645 -3.7793,1.0645 l -5.23437,0 0,-14.5801"
         style=""
         id="path13068" />
      <path
         d="m 170.43242,1018.5962 1.79687,0 0,10.9375 -1.79687,0 0,-10.9375 m 0,-4.2578 1.79687,0 0,2.2754 -1.79687,0 0,-2.2754"
         style=""
         id="path13070" />
      <path
         d="m 177.75664,1015.4907 0,3.1055 3.70117,0 0,1.3965 -3.70117,0 0,5.9375 c -1e-5,0.8919 0.12044,1.4648 0.36133,1.7187 0.24739,0.2539 0.74543,0.3809 1.49414,0.3809 l 1.8457,0 0,1.5039 -1.8457,0 c -1.38673,0 -2.34376,-0.2572 -2.8711,-0.7715 -0.52734,-0.5208 -0.79101,-1.4648 -0.79101,-2.832 l 0,-5.9375 -1.31836,0 0,-1.3965 1.31836,0 0,-3.1055 1.80664,0"
         style=""
         id="path13072" />
      <path
         d="m 191.70195,1019.0161 0,1.6797 c -0.50782,-0.2799 -1.01889,-0.4883 -1.5332,-0.625 -0.50782,-0.1432 -1.02215,-0.2148 -1.54297,-0.2148 -1.16537,0 -2.07032,0.3711 -2.71485,1.1132 -0.64453,0.7357 -0.9668,1.7709 -0.96679,3.1055 -1e-5,1.3346 0.32226,2.3731 0.96679,3.1152 0.64453,0.7357 1.54948,1.1036 2.71485,1.1036 0.52082,0 1.03515,-0.068 1.54297,-0.2051 0.51431,-0.1432 1.02538,-0.3548 1.5332,-0.6348 l 0,1.6602 c -0.50131,0.2343 -1.02214,0.4101 -1.5625,0.5273 -0.53386,0.1172 -1.10352,0.1758 -1.70898,0.1758 -1.64714,0 -2.95574,-0.5176 -3.92579,-1.5527 -0.97005,-1.0352 -1.45507,-2.4317 -1.45507,-4.1895 0,-1.7838 0.48828,-3.1868 1.46484,-4.209 0.98307,-1.0221 2.32747,-1.5332 4.0332,-1.5332 0.55338,0 1.09375,0.059 1.6211,0.1758 0.52733,0.1107 1.0384,0.28 1.5332,0.5078"
         style=""
         id="path13074" />
      <path
         d="m 199.0457,1019.856 c -0.96355,0 -1.72526,0.3776 -2.28516,1.1328 -0.5599,0.7487 -0.83984,1.7773 -0.83984,3.0859 0,1.3086 0.27669,2.3405 0.83008,3.0957 0.55989,0.7487 1.32486,1.1231 2.29492,1.1231 0.95702,0 1.71549,-0.3776 2.27539,-1.1329 0.55989,-0.7552 0.83984,-1.7838 0.83984,-3.0859 0,-1.2956 -0.27995,-2.3209 -0.83984,-3.0762 -0.5599,-0.7617 -1.31837,-1.1425 -2.27539,-1.1425 m 0,-1.5235 c 1.56249,0 2.7897,0.5078 3.68164,1.5235 0.89192,1.0156 1.33788,2.4218 1.33789,4.2187 -1e-5,1.7904 -0.44597,3.1966 -1.33789,4.2188 -0.89194,1.0156 -2.11915,1.5234 -3.68164,1.5234 -1.56901,0 -2.79948,-0.5078 -3.69141,-1.5234 -0.88541,-1.0222 -1.32812,-2.4284 -1.32812,-4.2188 0,-1.7969 0.44271,-3.2031 1.32812,-4.2187 0.89193,-1.0157 2.1224,-1.5235 3.69141,-1.5235"
         style=""
         id="path13076" />
      <path
         d="m 207.03398,1018.5962 1.79688,0 0,10.9375 -1.79688,0 0,-10.9375 m 0,-4.2578 1.79688,0 0,2.2754 -1.79688,0 0,-2.2754"
         style=""
         id="path13078" />
      <path
         d="m 221.67265,1022.9321 0,6.6016 -1.79687,0 0,-6.543 c -1e-5,-1.0351 -0.20183,-1.8099 -0.60547,-2.3242 -0.40365,-0.5143 -1.00912,-0.7715 -1.81641,-0.7715 -0.97005,0 -1.73503,0.3093 -2.29492,0.9278 -0.5599,0.6185 -0.83985,1.4615 -0.83984,2.5293 l 0,6.1816 -1.80664,0 0,-10.9375 1.80664,0 0,1.6992 c 0.42968,-0.6575 0.93424,-1.1491 1.51367,-1.4746 0.58593,-0.3255 1.25976,-0.4883 2.02148,-0.4883 1.25651,0 2.20703,0.3907 2.85157,1.1719 0.64452,0.7747 0.96678,1.9173 0.96679,3.4277"
         style=""
         id="path13080" />
      <path
         d="m 242.63945,1016.0767 0,2.08 c -0.66407,-0.6184 -1.37371,-1.0807 -2.12891,-1.3867 -0.7487,-0.306 -1.54623,-0.459 -2.39257,-0.459 -1.66668,0 -2.94272,0.5111 -3.82813,1.5332 -0.88542,1.0157 -1.32813,2.487 -1.32812,4.4141 -1e-5,1.9206 0.4427,3.3919 1.32812,4.4141 0.88541,1.0156 2.16145,1.5234 3.82813,1.5234 0.84634,0 1.64387,-0.153 2.39257,-0.459 0.7552,-0.306 1.46484,-0.7682 2.12891,-1.3867 l 0,2.0605 c -0.69012,0.4688 -1.42254,0.8204 -2.19727,1.0547 -0.76823,0.2344 -1.58204,0.3516 -2.4414,0.3516 -2.20704,0 -3.94532,-0.6738 -5.21485,-2.0215 -1.26953,-1.3542 -1.90429,-3.1999 -1.90429,-5.5371 0,-2.3437 0.63476,-4.1894 1.90429,-5.5371 1.26953,-1.3542 3.00781,-2.0312 5.21485,-2.0313 0.87238,1e-4 1.6927,0.1172 2.46094,0.3516 0.77472,0.2279 1.50063,0.5729 2.17773,1.0352"
         style=""
         id="path13082" />
      <path
         d="m 249.86601,1019.856 c -0.96354,0 -1.72526,0.3776 -2.28515,1.1328 -0.5599,0.7487 -0.83985,1.7773 -0.83985,3.0859 0,1.3086 0.27669,2.3405 0.83008,3.0957 0.55989,0.7487 1.32487,1.1231 2.29492,1.1231 0.95703,0 1.71549,-0.3776 2.27539,-1.1329 0.55989,-0.7552 0.83984,-1.7838 0.83985,-3.0859 -10e-6,-1.2956 -0.27996,-2.3209 -0.83985,-3.0762 -0.5599,-0.7617 -1.31836,-1.1425 -2.27539,-1.1425 m 0,-1.5235 c 1.56249,0 2.78971,0.5078 3.68164,1.5235 0.89192,1.0156 1.33788,2.4218 1.33789,4.2187 -1e-5,1.7904 -0.44597,3.1966 -1.33789,4.2188 -0.89193,1.0156 -2.11915,1.5234 -3.68164,1.5234 -1.56901,0 -2.79948,-0.5078 -3.6914,-1.5234 -0.88542,-1.0222 -1.32813,-2.4284 -1.32813,-4.2188 0,-1.7969 0.44271,-3.2031 1.32813,-4.2187 0.89192,-1.0157 2.12239,-1.5235 3.6914,-1.5235"
         style=""
         id="path13084" />
      <path
         d="m 264.19218,1020.2759 c -0.20183,-0.1172 -0.42318,-0.2018 -0.66406,-0.2539 -0.23438,-0.059 -0.4948,-0.088 -0.78125,-0.088 -1.01563,0 -1.79688,0.332 -2.34375,0.9961 -0.54037,0.6575 -0.81055,1.6048 -0.81054,2.8418 l 0,5.7617 -1.80665,0 0,-10.9375 1.80665,0 0,1.6992 c 0.3776,-0.664 0.86913,-1.1556 1.4746,-1.4746 0.60547,-0.3255 1.34114,-0.4883 2.20704,-0.4883 0.12369,0 0.2604,0.01 0.41015,0.029 0.14973,0.013 0.31575,0.036 0.49805,0.068 l 0.01,1.8457"
         style=""
         id="path13086" />
      <path
         d="m 275.02226,1023.6157 0,0.8789 -8.26172,0 c 0.0781,1.237 0.44922,2.181 1.11329,2.8321 0.67056,0.6445 1.60155,0.9668 2.79296,0.9668 0.6901,0 1.35742,-0.085 2.00196,-0.2539 0.65103,-0.1693 1.29556,-0.4232 1.93359,-0.7618 l 0,1.6993 c -0.64454,0.2734 -1.30535,0.4817 -1.98242,0.625 -0.67709,0.1432 -1.36394,0.2148 -2.06055,0.2148 -1.74479,0 -3.12826,-0.5078 -4.15039,-1.5234 -1.01563,-1.0157 -1.52344,-2.3894 -1.52344,-4.1211 0,-1.7904 0.48177,-3.2097 1.44532,-4.2578 0.97004,-1.0547 2.27538,-1.5821 3.91601,-1.5821 1.47135,0 2.63346,0.4753 3.48633,1.4258 0.85936,0.944 1.28905,2.2298 1.28906,3.8574 m -1.79687,-0.5273 c -0.013,-0.9831 -0.28973,-1.7676 -0.83008,-2.3535 -0.53386,-0.586 -1.2435,-0.8789 -2.12891,-0.8789 -1.00261,0 -1.80664,0.2832 -2.41211,0.8496 -0.59896,0.5664 -0.94401,1.3639 -1.03515,2.3925 l 6.40625,-0.01"
         style=""
         id="path13088" />
      <path
         d="m 288.61601,1014.3579 c -0.8724,1.4974 -1.52018,2.9785 -1.94336,4.4434 -0.42318,1.4648 -0.63477,2.9492 -0.63476,4.4531 -1e-5,1.5039 0.21158,2.9948 0.63476,4.4727 0.42969,1.4713 1.07747,2.9524 1.94336,4.4433 l -1.5625,0 c -0.97656,-1.5299 -1.70898,-3.0338 -2.19726,-4.5117 -0.48178,-1.4779 -0.72266,-2.946 -0.72266,-4.4043 0,-1.4518 0.24088,-2.9134 0.72266,-4.3848 0.48176,-1.4713 1.21419,-2.9752 2.19726,-4.5117 l 1.5625,0"
         style=""
         id="path13090" />
      <path
         d="m 293.88945,1015.4907 0,3.1055 3.70117,0 0,1.3965 -3.70117,0 0,5.9375 c 0,0.8919 0.12044,1.4648 0.36133,1.7187 0.24739,0.2539 0.74544,0.3809 1.49414,0.3809 l 1.8457,0 0,1.5039 -1.8457,0 c -1.38672,0 -2.34375,-0.2572 -2.87109,-0.7715 -0.52735,-0.5208 -0.79102,-1.4648 -0.79102,-2.832 l 0,-5.9375 -1.31836,0 0,-1.3965 1.31836,0 0,-3.1055 1.80664,0"
         style=""
         id="path13092" />
      <path
         d="m 306.30156,1020.2759 c -0.20183,-0.1172 -0.42319,-0.2018 -0.66406,-0.2539 -0.23439,-0.059 -0.4948,-0.088 -0.78125,-0.088 -1.01563,0 -1.79688,0.332 -2.34375,0.9961 -0.54037,0.6575 -0.81055,1.6048 -0.81055,2.8418 l 0,5.7617 -1.80664,0 0,-10.9375 1.80664,0 0,1.6992 c 0.3776,-0.664 0.86914,-1.1556 1.47461,-1.4746 0.60546,-0.3255 1.34114,-0.4883 2.20703,-0.4883 0.12369,0 0.26041,0.01 0.41016,0.029 0.14973,0.013 0.31574,0.036 0.49804,0.068 l 0.01,1.8457"
         style=""
         id="path13094" />
      <path
         d="m 308.02031,1025.2173 0,-6.6211 1.79687,0 0,6.5527 c 0,1.0352 0.20182,1.8132 0.60547,2.334 0.40364,0.5143 1.00911,0.7715 1.81641,0.7715 0.97004,0 1.73502,-0.3092 2.29492,-0.9277 0.5664,-0.6185 0.8496,-1.4616 0.84961,-2.5293 l 0,-6.2012 1.79688,0 0,10.9375 -1.79688,0 0,-1.6797 c -0.43621,0.6641 -0.94402,1.1589 -1.52344,1.4844 -0.57292,0.319 -1.24024,0.4785 -2.00195,0.4785 -1.25651,0 -2.21029,-0.3906 -2.86133,-1.1719 -0.65104,-0.7812 -0.97656,-1.9238 -0.97656,-3.4277 m 4.52148,-6.8848 0,0"
         style=""
         id="path13096" />
      <path
         d="m 327.87383,1018.9185 0,1.6992 c -0.50783,-0.2604 -1.03517,-0.4557 -1.58204,-0.586 -0.54688,-0.1302 -1.11328,-0.1953 -1.69921,-0.1953 -0.89194,0 -1.56251,0.1368 -2.01172,0.4102 -0.44272,0.2734 -0.66407,0.6836 -0.66407,1.2305 0,0.4166 0.15951,0.7454 0.47852,0.9863 0.31901,0.2344 0.96028,0.459 1.92383,0.6738 l 0.61523,0.1367 c 1.27604,0.2735 2.18098,0.6608 2.71485,1.1621 0.54035,0.4948 0.81053,1.1882 0.81054,2.0801 -1e-5,1.0156 -0.40365,1.8197 -1.21093,2.4121 -0.80079,0.5925 -1.90431,0.8887 -3.31055,0.8887 -0.58594,0 -1.19792,-0.059 -1.83594,-0.1758 -0.63151,-0.1107 -1.29883,-0.2799 -2.00195,-0.5078 l 0,-1.8555 c 0.66406,0.3451 1.31835,0.6055 1.96289,0.7813 0.64453,0.1693 1.28255,0.2539 1.91406,0.2539 0.84635,0 1.49739,-0.1432 1.95313,-0.4297 0.45572,-0.293 0.68358,-0.7031 0.68359,-1.2305 -10e-6,-0.4882 -0.16602,-0.8626 -0.49805,-1.123 -0.32553,-0.2604 -1.04493,-0.5111 -2.1582,-0.752 l -0.625,-0.1465 c -1.11329,-0.2343 -1.91732,-0.5924 -2.41211,-1.0742 -0.49479,-0.4882 -0.74219,-1.1556 -0.74219,-2.0019 0,-1.0287 0.36458,-1.8229 1.09375,-2.3828 0.72917,-0.5599 1.76432,-0.8399 3.10547,-0.8399 0.66406,0 1.28906,0.049 1.875,0.1465 0.58593,0.098 1.1263,0.2442 1.6211,0.4395"
         style=""
         id="path13098" />
      <path
         d="m 333.1082,1015.4907 0,3.1055 3.70117,0 0,1.3965 -3.70117,0 0,5.9375 c 0,0.8919 0.12044,1.4648 0.36133,1.7187 0.24739,0.2539 0.74544,0.3809 1.49414,0.3809 l 1.8457,0 0,1.5039 -1.8457,0 c -1.38672,0 -2.34375,-0.2572 -2.87109,-0.7715 -0.52735,-0.5208 -0.79102,-1.4648 -0.79102,-2.832 l 0,-5.9375 -1.31836,0 0,-1.3965 1.31836,0 0,-3.1055 1.80664,0"
         style=""
         id="path13100" />
      <path
         d="m 348.53789,1023.6157 0,0.8789 -8.26172,0 c 0.0781,1.237 0.44921,2.181 1.11328,2.8321 0.67057,0.6445 1.60156,0.9668 2.79297,0.9668 0.6901,0 1.35741,-0.085 2.00195,-0.2539 0.65103,-0.1693 1.29556,-0.4232 1.9336,-0.7618 l 0,1.6993 c -0.64455,0.2734 -1.30535,0.4817 -1.98243,0.625 -0.67709,0.1432 -1.36394,0.2148 -2.06054,0.2148 -1.7448,0 -3.12826,-0.5078 -4.15039,-1.5234 -1.01563,-1.0157 -1.52344,-2.3894 -1.52344,-4.1211 0,-1.7904 0.48177,-3.2097 1.44531,-4.2578 0.97005,-1.0547 2.27539,-1.5821 3.91602,-1.5821 1.47134,0 2.63345,0.4753 3.48633,1.4258 0.85936,0.944 1.28905,2.2298 1.28906,3.8574 m -1.79688,-0.5273 c -0.013,-0.9831 -0.28972,-1.7676 -0.83008,-2.3535 -0.53386,-0.586 -1.24349,-0.8789 -2.1289,-0.8789 -1.00261,0 -1.80665,0.2832 -2.41211,0.8496 -0.59896,0.5664 -0.94401,1.3639 -1.03516,2.3925 l 6.40625,-0.01"
         style=""
         id="path13102" />
      <path
         d="m 358.64531,1020.2563 0,-5.9179 1.79687,0 0,15.1953 -1.79687,0 0,-1.6406 c -0.37761,0.651 -0.85613,1.136 -1.43555,1.455 -0.57292,0.3125 -1.26302,0.4688 -2.07031,0.4688 -1.32162,0 -2.39909,-0.5273 -3.23242,-1.582 -0.82683,-1.0547 -1.24024,-2.4414 -1.24024,-4.1602 0,-1.7187 0.41341,-3.1055 1.24024,-4.1601 0.83333,-1.0547 1.9108,-1.5821 3.23242,-1.5821 0.80729,0 1.49739,0.1595 2.07031,0.4785 0.57942,0.3125 1.05794,0.7943 1.43555,1.4453 m -6.12305,3.8184 c 0,1.3216 0.27018,2.36 0.81055,3.1152 0.54687,0.7487 1.29557,1.1231 2.24609,1.1231 0.95052,0 1.69921,-0.3744 2.2461,-1.1231 0.54686,-0.7552 0.8203,-1.7936 0.82031,-3.1152 -10e-6,-1.3216 -0.27345,-2.3568 -0.82031,-3.1055 -0.54689,-0.7552 -1.29558,-1.1328 -2.2461,-1.1328 -0.95052,0 -1.69922,0.3776 -2.24609,1.1328 -0.54037,0.7487 -0.81055,1.7839 -0.81055,3.1055"
         style=""
         id="path13104" />
      <path
         d="m 372.24883,1027.8931 0,5.8007 -1.80665,0 0,-15.0976 1.80665,0 0,1.6601 c 0.3776,-0.651 0.85286,-1.1328 1.42578,-1.4453 0.57942,-0.319 1.26952,-0.4785 2.07031,-0.4785 1.32812,0 2.40559,0.5274 3.23242,1.5821 0.83332,1.0546 1.24999,2.4414 1.25,4.1601 -1e-5,1.7188 -0.41668,3.1055 -1.25,4.1602 -0.82683,1.0547 -1.9043,1.582 -3.23242,1.582 -0.80079,0 -1.49089,-0.1563 -2.07031,-0.4688 -0.57292,-0.319 -1.04818,-0.804 -1.42578,-1.455 m 6.11328,-3.8184 c -10e-6,-1.3216 -0.27345,-2.3568 -0.82032,-3.1055 -0.54037,-0.7552 -1.28581,-1.1328 -2.23632,-1.1328 -0.95053,0 -1.69923,0.3776 -2.2461,1.1328 -0.54037,0.7487 -0.81055,1.7839 -0.81054,3.1055 -10e-6,1.3216 0.27017,2.36 0.81054,3.1152 0.54687,0.7487 1.29557,1.1231 2.2461,1.1231 0.95051,0 1.69595,-0.3744 2.23632,-1.1231 0.54687,-0.7552 0.82031,-1.7936 0.82032,-3.1152"
         style=""
         id="path13106" />
      <path
         d="m 392.56133,1023.6157 0,0.8789 -8.26172,0 c 0.0781,1.237 0.44921,2.181 1.11328,2.8321 0.67057,0.6445 1.60155,0.9668 2.79297,0.9668 0.69009,0 1.35741,-0.085 2.00195,-0.2539 0.65103,-0.1693 1.29556,-0.4232 1.93359,-0.7618 l 0,1.6993 c -0.64454,0.2734 -1.30534,0.4817 -1.98242,0.625 -0.67709,0.1432 -1.36394,0.2148 -2.06055,0.2148 -1.74479,0 -3.12825,-0.5078 -4.15039,-1.5234 -1.01562,-1.0157 -1.52343,-2.3894 -1.52343,-4.1211 0,-1.7904 0.48177,-3.2097 1.44531,-4.2578 0.97005,-1.0547 2.27538,-1.5821 3.91601,-1.5821 1.47135,0 2.63346,0.4753 3.48633,1.4258 0.85937,0.944 1.28905,2.2298 1.28907,3.8574 m -1.79688,-0.5273 c -0.013,-0.9831 -0.28972,-1.7676 -0.83008,-2.3535 -0.53386,-0.586 -1.2435,-0.8789 -2.1289,-0.8789 -1.00261,0 -1.80665,0.2832 -2.41211,0.8496 -0.59897,0.5664 -0.94402,1.3639 -1.03516,2.3925 l 6.40625,-0.01"
         style=""
         id="path13108" />
      <path
         d="m 404.82695,1023.6157 0,0.8789 -8.26172,0 c 0.0781,1.237 0.44922,2.181 1.11328,2.8321 0.67057,0.6445 1.60156,0.9668 2.79297,0.9668 0.6901,0 1.35741,-0.085 2.00195,-0.2539 0.65104,-0.1693 1.29557,-0.4232 1.9336,-0.7618 l 0,1.6993 c -0.64454,0.2734 -1.30535,0.4817 -1.98242,0.625 -0.6771,0.1432 -1.36394,0.2148 -2.06055,0.2148 -1.7448,0 -3.12826,-0.5078 -4.15039,-1.5234 -1.01563,-1.0157 -1.52344,-2.3894 -1.52344,-4.1211 0,-1.7904 0.48177,-3.2097 1.44531,-4.2578 0.97005,-1.0547 2.27539,-1.5821 3.91602,-1.5821 1.47135,0 2.63345,0.4753 3.48633,1.4258 0.85936,0.944 1.28905,2.2298 1.28906,3.8574 m -1.79687,-0.5273 c -0.013,-0.9831 -0.28973,-1.7676 -0.83008,-2.3535 -0.53387,-0.586 -1.2435,-0.8789 -2.12891,-0.8789 -1.00261,0 -1.80664,0.2832 -2.41211,0.8496 -0.59896,0.5664 -0.94401,1.3639 -1.03515,2.3925 l 6.40625,-0.01"
         style=""
         id="path13110" />
      <path
         d="m 414.075,1020.2759 c -0.20183,-0.1172 -0.42319,-0.2018 -0.66407,-0.2539 -0.23438,-0.059 -0.49479,-0.088 -0.78125,-0.088 -1.01563,0 -1.79688,0.332 -2.34375,0.9961 -0.54036,0.6575 -0.81055,1.6048 -0.81054,2.8418 l 0,5.7617 -1.80664,0 0,-10.9375 1.80664,0 0,1.6992 c 0.3776,-0.664 0.86913,-1.1556 1.47461,-1.4746 0.60546,-0.3255 1.34114,-0.4883 2.20703,-0.4883 0.12369,0 0.26041,0.01 0.41015,0.029 0.14974,0.013 0.31575,0.036 0.49805,0.068 l 0.01,1.8457"
         style=""
         id="path13112" />
      <path
         d="m 415.69609,1014.3579 1.5625,0 c 0.97656,1.5365 1.70572,3.0404 2.1875,4.5117 0.48828,1.4714 0.73242,2.933 0.73242,4.3848 0,1.4583 -0.24414,2.9264 -0.73242,4.4043 -0.48178,1.4779 -1.21094,2.9818 -2.1875,4.5117 l -1.5625,0 c 0.86588,-1.4909 1.51041,-2.972 1.93359,-4.4433 0.42969,-1.4779 0.64453,-2.9688 0.64454,-4.4727 -1e-5,-1.5039 -0.21485,-2.9883 -0.64454,-4.4531 -0.42318,-1.4649 -1.06771,-2.946 -1.93359,-4.4434"
         style=""
         id="path13114" />
    </g>
  </g>
</svg>
