<?xml version="1.0" encoding="UTF-8"?>
<svg width="24px" height="24px" viewBox="0 0 24 24" version="1.1" xmlns="http://www.w3.org/2000/svg" xmlns:xlink="http://www.w3.org/1999/xlink">
    <!-- Generator: Sketch 49 (51002) - http://www.bohemiancoding.com/sketch -->
    <title>icon/Contribute</title>
    <desc>Created with Sketch.</desc>
    <defs></defs>
    <g id="Bitcoin-Core" stroke="none" stroke-width="1" fill="none" fill-rule="evenodd">
        <g id="Bitcoin.org---Bitcoin-core--Desktop" transform="translate(-238.000000, -1007.000000)">
            <g id="//Content" transform="translate(215.000000, 543.000000)">
                <g id="Contribute" transform="translate(0.000000, 446.000000)">
                    <g id="icon/Contribute" transform="translate(20.000000, 15.000000)">
                        <path d="M15,26.5 C8.64872538,26.5 3.5,21.3512746 3.5,15 C3.5,8.64872538 8.64872538,3.5 15,3.5 C21.3512746,3.5 26.5,8.64872538 26.5,15 C26.5,21.3512746 21.3512746,26.5 15,26.5 Z M15,25.5 C20.7989899,25.5 25.5,20.7989899 25.5,15 C25.5,9.20101013 20.7989899,4.5 15,4.5 C9.20101013,4.5 4.5,9.20101013 4.5,15 C4.5,20.7989899 9.20101013,25.5 15,25.5 Z" id="Oval-3" fill="#95AABF" fill-rule="nonzero"></path>
                        <circle id="Oval-4" fill="#F7931A" cx="11.5" cy="10.5" r="1.5"></circle>
                        <circle id="Oval-4" fill="#F7931A" cx="11.5" cy="20.5" r="1.5"></circle>
                        <circle id="Oval-4" fill="#F7931A" cx="19.5" cy="10.5" r="1.5"></circle>
                        <polygon id="Path-2" fill="#F7931A" fill-rule="nonzero" points="11.0336914 10.4797363 12.0336914 10.4797363 12.0336914 20.9259213 11.0336914 20.9259213"></polygon>
                        <path d="M19.1490556,10.4802718 L20.1483077,10.4416032 C20.2862509,14.0062453 19.0458031,15.932373 16.4470215,15.932373 C12.8539208,15.932373 12.0849609,16.4186672 12.0849609,19.0644531 L11.0849609,19.0644531 C11.0849609,15.7455545 12.3708162,14.932373 16.4470215,14.932373 C18.3736305,14.932373 19.2676228,13.5442105 19.1490556,10.4802718 Z" id="Path-3" fill="#F7931A" fill-rule="nonzero"></path>
                    </g>
                </g>
            </g>
        </g>
    </g>
</svg>