<?xml version="1.0" encoding="UTF-8"?>
<svg width="29px" height="30px" viewBox="0 0 29 30" version="1.1" xmlns="http://www.w3.org/2000/svg" xmlns:xlink="http://www.w3.org/1999/xlink">
    <!-- Generator: Sketch 49 (51002) - http://www.bohemiancoding.com/sketch -->
    <title>icon/decentralized</title>
    <desc>Created with Sketch.</desc>
    <defs></defs>
    <g id="Bitcoin-Core" stroke="none" stroke-width="1" fill="none" fill-rule="evenodd">
        <g id="Bitcoin.org---Bitcoin-core--Desktop" transform="translate(-615.000000, -695.000000)">
            <g id="//Content" transform="translate(215.000000, 543.000000)">
                <g id="Decentralized" transform="translate(400.000000, 152.000000)">
                    <g id="icon/decentralized">
                        <polyline id="Path-4" stroke="#95AABF" points="9.08154297 20.0424805 20.1962891 8.95947266 17.1611328 0.670898438"></polyline>
                        <polyline id="Path-5" stroke="#95AABF" points="23.3032227 25.0097656 9.19726562 19.8295898 1.19824219 15.9125977"></polyline>
                        <path d="M9.59960938,19.909668 L5.01708984,29.1967773" id="Path-6" stroke="#95AABF"></path>
                        <polyline id="Path-7" stroke="#95AABF" points="28.421875 5.83447266 20.3354492 9.08642578 12.0668945 5.83447266"></polyline>
                        <path d="M19.9682617,8.74072266 L23.1445312,15.3442383" id="Path-8" stroke="#95AABF"></path>
                        <circle id="Oval-5" fill="#F7931A" cx="23" cy="25" r="1"></circle>
                        <circle id="Oval-5" fill="#F7931A" cx="17" cy="1" r="1"></circle>
                        <circle id="Oval-5" fill="#F7931A" cx="28" cy="6" r="1"></circle>
                        <circle id="Oval-5" fill="#F7931A" cx="23" cy="15" r="1"></circle>
                        <circle id="Oval-5" fill="#F7931A" cx="12" cy="6" r="1"></circle>
                        <circle id="Oval-5" fill="#F7931A" cx="1" cy="16" r="1"></circle>
                        <circle id="Oval-5" fill="#F7931A" cx="5" cy="29" r="1"></circle>
                        <circle id="Oval-5" fill="#F7931A" cx="20" cy="9" r="2"></circle>
                        <circle id="Oval-5" fill="#F7931A" cx="9" cy="20" r="2"></circle>
                    </g>
                </g>
            </g>
        </g>
    </g>
</svg>