<?xml version="1.0" encoding="UTF-8" standalone="no"?>
<!-- Created with Inkscape (http://www.inkscape.org/) -->

<svg
   xmlns:dc="http://purl.org/dc/elements/1.1/"
   xmlns:cc="http://creativecommons.org/ns#"
   xmlns:rdf="http://www.w3.org/1999/02/22-rdf-syntax-ns#"
   xmlns:svg="http://www.w3.org/2000/svg"
   xmlns="http://www.w3.org/2000/svg"
   xmlns:sodipodi="http://sodipodi.sourceforge.net/DTD/sodipodi-0.dtd"
   xmlns:inkscape="http://www.inkscape.org/namespaces/inkscape"
   width="600"
   height="125"
   id="svg2"
   version="1.1"
   inkscape:version="0.48.5 r10040"
   sodipodi:docname="electrum-receiving-privacy_orig.svg">
  <defs
     id="defs4">
    <marker
       inkscape:stockid="Arrow2Lstart"
       orient="auto"
       refY="0.0"
       refX="0.0"
       id="Arrow2Lstart"
       style="overflow:visible">
      <path
         id="path4065"
         style="fill-rule:evenodd;stroke-width:0.62500000;stroke-linejoin:round"
         d="M 8.7185878,4.0337352 L -2.2072895,0.016013256 L 8.7185884,-4.0017078 C 6.9730900,-1.6296469 6.9831476,1.6157441 8.7185878,4.0337352 z "
         transform="scale(1.1) translate(1,0)" />
    </marker>
    <marker
       inkscape:stockid="Arrow1Mstart"
       orient="auto"
       refY="0.0"
       refX="0.0"
       id="Arrow1Mstart"
       style="overflow:visible">
      <path
         id="path4053"
         d="M 0.0,0.0 L 5.0,-5.0 L -12.5,0.0 L 5.0,5.0 L 0.0,0.0 z "
         style="fill-rule:evenodd;stroke:#000000;stroke-width:1.0pt"
         transform="scale(0.4) translate(10,0)" />
    </marker>
    <inkscape:path-effect
       effect="spiro"
       id="path-effect3835"
       is_visible="true" />
    <inkscape:path-effect
       effect="spiro"
       id="path-effect3831"
       is_visible="true" />
    <inkscape:path-effect
       effect="spiro"
       id="path-effect3823"
       is_visible="true" />
    <inkscape:path-effect
       effect="spiro"
       id="path-effect3835-5"
       is_visible="true" />
  </defs>
  <sodipodi:namedview
     id="base"
     pagecolor="#ffffff"
     bordercolor="#666666"
     borderopacity="1.0"
     inkscape:pageopacity="0.0"
     inkscape:pageshadow="2"
     inkscape:zoom="0.98994949"
     inkscape:cx="351.13567"
     inkscape:cy="62.997404"
     inkscape:document-units="px"
     inkscape:current-layer="layer1"
     showgrid="false"
     inkscape:window-width="1278"
     inkscape:window-height="762"
     inkscape:window-x="0"
     inkscape:window-y="0"
     inkscape:window-maximized="0" />
  <metadata
     id="metadata7">
    <rdf:RDF>
      <cc:Work
         rdf:about="">
        <dc:format>image/svg+xml</dc:format>
        <dc:type
           rdf:resource="http://purl.org/dc/dcmitype/StillImage" />
        <dc:title></dc:title>
      </cc:Work>
    </rdf:RDF>
  </metadata>
  <g
     inkscape:label="Layer 1"
     inkscape:groupmode="layer"
     id="layer1"
     transform="translate(0,-927.36218)">
    <path
       transform="matrix(-1,0,0,1,620.71433,888.43361)"
       style="fill:none;stroke:#000000;stroke-width:2;stroke-miterlimit:4;stroke-opacity:1"
       d="m 58.57143,101.42857 c 0,9.86223 -7.994915,17.85715 -17.857143,17.85715 -9.862228,0 -17.857144,-7.99492 -17.857144,-17.85715 0,-9.862224 7.994916,-17.85714 17.857144,-17.85714 9.862228,0 17.857143,7.994916 17.857143,17.85714 z"
       id="path2985" />
    <path
       transform="scale(-1,1)"
       style="fill:none;stroke:#000000;stroke-width:2;stroke-miterlimit:4;stroke-opacity:1"
       d="m -300.48157,972.7193 34.28572,0 0,34.2857 -34.28572,0 z"
       id="rect2987" />
    <path
       transform="scale(-1,1)"
       style="fill:none;stroke:#000000;stroke-width:2;stroke-miterlimit:4;stroke-opacity:1"
       d="m -38.338703,1016.6479 34.285713,0 0,34.2857 -34.285713,0 z"
       id="rect2987-72" />
    <path
       transform="scale(-1,1)"
       style="fill:none;stroke:#000000;stroke-width:2;stroke-miterlimit:4;stroke-opacity:1"
       d="m -38.338642,972.7193 34.2857131,0 0,34.2857 -34.2857131,0 z"
       id="rect2987-3" />
    <path
       transform="scale(-1,1)"
       style="fill:none;stroke:#000000;stroke-width:2;stroke-miterlimit:4;stroke-opacity:1"
       d="m -38.338703,930.93365 34.285713,0 0,34.28572 -34.285713,0 z"
       id="rect2987-720" />
    <path
       style="fill:none;stroke:#000000;stroke-width:2;stroke-linecap:butt;stroke-linejoin:miter;stroke-miterlimit:4;stroke-opacity:1;marker-start:url(#Arrow2Lstart)"
       d="m 560.50194,989.86218 -260.0204,0"
       id="path3821" />
    <path
       style="fill:none;stroke:#000000;stroke-width:2;stroke-linecap:butt;stroke-linejoin:miter;stroke-miterlimit:4;stroke-dasharray:2, 2;stroke-dashoffset:0;stroke-opacity:1;marker-start:none;marker-end:none"
       d="m 39.543174,1029.8876 84.285716,-40.00004 m -0.40727,-0.004 -84.285716,-40 m 227.059916,39.62119 -226.428566,0.71428"
       id="path3833-8" />
    <g
       style="font-size:16px;font-style:normal;font-weight:normal;line-height:125%;letter-spacing:0px;word-spacing:0px;fill:#000000;fill-opacity:1;stroke:none;font-family:Sans"
       id="text5039">
      <path
         d="m 148.78741,968.89539 0,4.38281 1.98438,0 c 0.73437,0 1.30208,-0.1901 1.70312,-0.57031 0.40104,-0.38021 0.60156,-0.92187 0.60157,-1.625 -1e-5,-0.69791 -0.20053,-1.23697 -0.60157,-1.61719 -0.40104,-0.3802 -0.96875,-0.5703 -1.70312,-0.57031 l -1.98438,0 m -1.57812,-1.29688 3.5625,0 c 1.30728,10e-6 2.29426,0.29689 2.96094,0.89063 0.67186,0.58855 1.0078,1.45313 1.00781,2.59375 -1e-5,1.15104 -0.33595,2.02084 -1.00781,2.60937 -0.66668,0.58855 -1.65366,0.88282 -2.96094,0.88281 l -1.98438,0 0,4.6875 -1.57812,0 0,-11.66406"
         style=""
         id="path5360" />
      <path
         d="m 163.72491,974.5282 0,0.70312 -6.60937,0 c 0.0625,0.98959 0.35937,1.7448 0.89062,2.26563 0.53646,0.51562 1.28125,0.77344 2.23438,0.77344 0.55208,0 1.08593,-0.0677 1.60156,-0.20313 0.52083,-0.13541 1.03645,-0.33854 1.54688,-0.60937 l 0,1.35937 c -0.51564,0.21875 -1.04428,0.38542 -1.58594,0.5 -0.54167,0.11458 -1.09115,0.17188 -1.64844,0.17188 -1.39584,0 -2.50261,-0.40625 -3.32031,-1.21875 -0.8125,-0.8125 -1.21875,-1.91146 -1.21875,-3.29688 0,-1.43229 0.38541,-2.5677 1.15625,-3.40625 0.77604,-0.84374 1.82031,-1.26562 3.13281,-1.26562 1.17708,0 2.10677,0.38021 2.78906,1.14062 0.6875,0.75522 1.03125,1.78386 1.03125,3.08594 m -1.4375,-0.42188 c -0.0104,-0.78645 -0.23177,-1.41405 -0.66406,-1.88281 -0.42709,-0.46874 -0.9948,-0.70312 -1.70312,-0.70312 -0.80209,0 -1.44532,0.22657 -1.92969,0.67968 -0.47917,0.45313 -0.75521,1.09116 -0.82813,1.91407 l 5.125,-0.008"
         style=""
         id="path5362" />
      <path
         d="m 173.53741,974.5282 0,0.70312 -6.60937,0 c 0.0625,0.98959 0.35937,1.7448 0.89062,2.26563 0.53646,0.51562 1.28125,0.77344 2.23438,0.77344 0.55208,0 1.08593,-0.0677 1.60156,-0.20313 0.52083,-0.13541 1.03645,-0.33854 1.54688,-0.60937 l 0,1.35937 c -0.51564,0.21875 -1.04428,0.38542 -1.58594,0.5 -0.54167,0.11458 -1.09115,0.17188 -1.64844,0.17188 -1.39584,0 -2.50261,-0.40625 -3.32031,-1.21875 -0.8125,-0.8125 -1.21875,-1.91146 -1.21875,-3.29688 0,-1.43229 0.38541,-2.5677 1.15625,-3.40625 0.77604,-0.84374 1.82031,-1.26562 3.13281,-1.26562 1.17708,0 2.10677,0.38021 2.78906,1.14062 0.6875,0.75522 1.03125,1.78386 1.03125,3.08594 m -1.4375,-0.42188 c -0.0104,-0.78645 -0.23177,-1.41405 -0.66406,-1.88281 -0.42709,-0.46874 -0.9948,-0.70312 -1.70312,-0.70312 -0.80209,0 -1.44532,0.22657 -1.92969,0.67968 -0.47917,0.45313 -0.75521,1.09116 -0.82813,1.91407 l 5.125,-0.008"
         style=""
         id="path5364" />
      <path
         d="m 180.93585,971.85632 c -0.16146,-0.0937 -0.33855,-0.16145 -0.53125,-0.20312 -0.1875,-0.0469 -0.39584,-0.0703 -0.625,-0.0703 -0.8125,0 -1.4375,0.26563 -1.875,0.79687 -0.43229,0.52605 -0.64844,1.28386 -0.64844,2.27344 l 0,4.60937 -1.44531,0 0,-8.75 1.44531,0 0,1.35938 c 0.30208,-0.53124 0.69531,-0.92447 1.17969,-1.17969 0.48437,-0.26041 1.07291,-0.39062 1.76563,-0.39062 0.099,0 0.20832,0.008 0.32812,0.0234 0.11979,0.0104 0.2526,0.0287 0.39844,0.0547 l 0.008,1.47656"
         style=""
         id="path5366" />
      <path
         d="m 180.70148,974.23914 4.21093,0 0,1.28125 -4.21093,0 0,-1.28125"
         style=""
         id="path5368" />
      <path
         d="m 188.63116,968.0282 0,2.48437 2.96094,0 0,1.11719 -2.96094,0 0,4.75 c 0,0.71354 0.0964,1.17188 0.28907,1.375 0.19791,0.20313 0.59635,0.30469 1.19531,0.30469 l 1.47656,0 0,1.20312 -1.47656,0 c -1.10938,0 -1.875,-0.20573 -2.29688,-0.61718 -0.42187,-0.41667 -0.63281,-1.17188 -0.63281,-2.26563 l 0,-4.75 -1.05469,0 0,-1.11719 1.05469,0 0,-2.48437 1.44531,0"
         style=""
         id="path5370" />
      <path
         d="m 196.88116,971.52039 c -0.77083,0 -1.38021,0.30209 -1.82812,0.90625 -0.44792,0.59896 -0.67188,1.42188 -0.67188,2.46875 0,1.04687 0.22136,1.87239 0.66407,2.47656 0.44791,0.59896 1.05989,0.89844 1.83593,0.89844 0.76562,0 1.37239,-0.30209 1.82032,-0.90625 0.44791,-0.60417 0.67186,-1.42708 0.67187,-2.46875 -10e-6,-1.03646 -0.22396,-1.85677 -0.67187,-2.46094 -0.44793,-0.60937 -1.0547,-0.91406 -1.82032,-0.91406 m 0,-1.21875 c 1.25,0 2.23177,0.40625 2.94532,1.21875 0.71353,0.8125 1.0703,1.9375 1.07031,3.375 -1e-5,1.43229 -0.35678,2.55729 -1.07031,3.375 -0.71355,0.8125 -1.69532,1.21875 -2.94532,1.21875 -1.25521,0 -2.23958,-0.40625 -2.95312,-1.21875 -0.70834,-0.81771 -1.0625,-1.94271 -1.0625,-3.375 0,-1.4375 0.35416,-2.5625 1.0625,-3.375 0.71354,-0.8125 1.69791,-1.21875 2.95312,-1.21875"
         style=""
         id="path5372" />
      <path
         d="m 202.85773,974.23914 4.21093,0 0,1.28125 -4.21093,0 0,-1.28125"
         style=""
         id="path5374" />
      <path
         d="m 210.75616,977.95007 0,4.64063 -1.44531,0 0,-12.07813 1.44531,0 0,1.32813 c 0.30208,-0.52083 0.68229,-0.90624 1.14063,-1.15625 0.46354,-0.2552 1.01562,-0.38281 1.65625,-0.38281 1.06249,0 1.92447,0.42188 2.58594,1.26562 0.66665,0.84376 0.99999,1.95313 1,3.32813 -1e-5,1.375 -0.33335,2.48437 -1,3.32812 -0.66147,0.84375 -1.52345,1.26563 -2.58594,1.26563 -0.64063,0 -1.19271,-0.125 -1.65625,-0.375 -0.45834,-0.25521 -0.83855,-0.64323 -1.14063,-1.16407 m 4.89063,-3.05468 c -1e-5,-1.05729 -0.21876,-1.88541 -0.65625,-2.48438 -0.4323,-0.60416 -1.02865,-0.90624 -1.78906,-0.90625 -0.76042,10e-6 -1.35938,0.30209 -1.79688,0.90625 -0.43229,0.59897 -0.64844,1.42709 -0.64844,2.48438 0,1.05729 0.21615,1.88802 0.64844,2.49218 0.4375,0.59896 1.03646,0.89844 1.79688,0.89844 0.76041,0 1.35676,-0.29948 1.78906,-0.89844 0.43749,-0.60416 0.65624,-1.43489 0.65625,-2.49218"
         style=""
         id="path5376" />
      <path
         d="m 227.00616,974.5282 0,0.70312 -6.60937,0 c 0.0625,0.98959 0.35937,1.7448 0.89062,2.26563 0.53646,0.51562 1.28125,0.77344 2.23438,0.77344 0.55208,0 1.08593,-0.0677 1.60156,-0.20313 0.52083,-0.13541 1.03645,-0.33854 1.54688,-0.60937 l 0,1.35937 c -0.51564,0.21875 -1.04428,0.38542 -1.58594,0.5 -0.54167,0.11458 -1.09115,0.17188 -1.64844,0.17188 -1.39584,0 -2.50261,-0.40625 -3.32031,-1.21875 -0.8125,-0.8125 -1.21875,-1.91146 -1.21875,-3.29688 0,-1.43229 0.38541,-2.5677 1.15625,-3.40625 0.77604,-0.84374 1.82031,-1.26562 3.13281,-1.26562 1.17708,0 2.10677,0.38021 2.78906,1.14062 0.6875,0.75522 1.03125,1.78386 1.03125,3.08594 m -1.4375,-0.42188 c -0.0104,-0.78645 -0.23177,-1.41405 -0.66406,-1.88281 -0.42709,-0.46874 -0.9948,-0.70312 -1.70312,-0.70312 -0.80209,0 -1.44532,0.22657 -1.92969,0.67968 -0.47917,0.45313 -0.75521,1.09116 -0.82813,1.91407 l 5.125,-0.008"
         style=""
         id="path5378" />
      <path
         d="m 236.81866,974.5282 0,0.70312 -6.60937,0 c 0.0625,0.98959 0.35937,1.7448 0.89062,2.26563 0.53646,0.51562 1.28125,0.77344 2.23438,0.77344 0.55208,0 1.08593,-0.0677 1.60156,-0.20313 0.52083,-0.13541 1.03645,-0.33854 1.54688,-0.60937 l 0,1.35937 c -0.51564,0.21875 -1.04428,0.38542 -1.58594,0.5 -0.54167,0.11458 -1.09115,0.17188 -1.64844,0.17188 -1.39584,0 -2.50261,-0.40625 -3.32031,-1.21875 -0.8125,-0.8125 -1.21875,-1.91146 -1.21875,-3.29688 0,-1.43229 0.38541,-2.5677 1.15625,-3.40625 0.77604,-0.84374 1.82031,-1.26562 3.13281,-1.26562 1.17708,0 2.10677,0.38021 2.78906,1.14062 0.6875,0.75522 1.03125,1.78386 1.03125,3.08594 m -1.4375,-0.42188 c -0.0104,-0.78645 -0.23177,-1.41405 -0.66406,-1.88281 -0.42709,-0.46874 -0.9948,-0.70312 -1.70312,-0.70312 -0.80209,0 -1.44532,0.22657 -1.92969,0.67968 -0.47917,0.45313 -0.75521,1.09116 -0.82813,1.91407 l 5.125,-0.008"
         style=""
         id="path5380" />
      <path
         d="m 244.2171,971.85632 c -0.16146,-0.0937 -0.33855,-0.16145 -0.53125,-0.20312 -0.1875,-0.0469 -0.39584,-0.0703 -0.625,-0.0703 -0.8125,0 -1.4375,0.26563 -1.875,0.79687 -0.43229,0.52605 -0.64844,1.28386 -0.64844,2.27344 l 0,4.60937 -1.44531,0 0,-8.75 1.44531,0 0,1.35938 c 0.30208,-0.53124 0.69531,-0.92447 1.17969,-1.17969 0.48437,-0.26041 1.07291,-0.39062 1.76563,-0.39062 0.099,0 0.20832,0.008 0.32812,0.0234 0.11979,0.0104 0.2526,0.0287 0.39844,0.0547 l 0.008,1.47656"
         style=""
         id="path5382" />
    </g>
    <g
       style="font-size:16px;font-style:normal;font-weight:normal;line-height:125%;letter-spacing:0px;word-spacing:0px;fill:#000000;fill-opacity:1;stroke:none;font-family:Sans"
       id="text5043">
      <path
         d="m 328.19928,968.22742 0,1.53906 c -0.59897,-0.28645 -1.16407,-0.49999 -1.69531,-0.64063 -0.53126,-0.14061 -1.04428,-0.21092 -1.53907,-0.21093 -0.85937,10e-6 -1.52344,0.16667 -1.99218,0.5 -0.46355,0.33334 -0.69532,0.8073 -0.69532,1.42187 0,0.51564 0.15365,0.90626 0.46094,1.17188 0.3125,0.26042 0.90104,0.47136 1.76563,0.63281 l 0.95312,0.19531 c 1.17708,0.22397 2.04427,0.6198 2.60156,1.1875 0.5625,0.56251 0.84375,1.31771 0.84375,2.26563 0,1.13021 -0.38021,1.98698 -1.14062,2.57031 -0.75522,0.58333 -1.86459,0.875 -3.32813,0.875 -0.55208,0 -1.14062,-0.0625 -1.76562,-0.1875 -0.61979,-0.125 -1.26302,-0.3099 -1.92969,-0.55469 l 0,-1.625 c 0.64063,0.35938 1.26823,0.63021 1.88281,0.8125 0.61458,0.18229 1.21875,0.27344 1.8125,0.27344 0.90104,0 1.59635,-0.17708 2.08594,-0.53125 0.48958,-0.35417 0.73437,-0.85937 0.73438,-1.51563 -10e-6,-0.57291 -0.17709,-1.02082 -0.53125,-1.34375 -0.34897,-0.32291 -0.92449,-0.56509 -1.72657,-0.72656 l -0.96093,-0.1875 c -1.17709,-0.23437 -2.02865,-0.60155 -2.55469,-1.10156 -0.52604,-0.49999 -0.78906,-1.19531 -0.78906,-2.08594 0,-1.03124 0.36198,-1.84374 1.08593,-2.4375 0.72917,-0.59374 1.73177,-0.89061 3.00782,-0.89062 0.54687,10e-6 1.10416,0.0495 1.67187,0.14843 0.5677,0.099 1.14843,0.24741 1.74219,0.44532"
         style=""
         id="path5313" />
      <path
         d="m 338.81647,974.77429 0,0.70313 -6.60938,0 c 0.0625,0.98958 0.35937,1.74479 0.89063,2.26562 0.53645,0.51563 1.28124,0.77344 2.23437,0.77344 0.55208,0 1.08593,-0.0677 1.60156,-0.20313 0.52083,-0.13541 1.03645,-0.33854 1.54688,-0.60937 l 0,1.35937 c -0.51563,0.21875 -1.04428,0.38542 -1.58594,0.5 -0.54167,0.11459 -1.09115,0.17188 -1.64844,0.17188 -1.39583,0 -2.5026,-0.40625 -3.32031,-1.21875 -0.8125,-0.8125 -1.21875,-1.91146 -1.21875,-3.29688 0,-1.43228 0.38542,-2.5677 1.15625,-3.40625 0.77604,-0.84374 1.82031,-1.26561 3.13281,-1.26562 1.17708,10e-6 2.10677,0.38022 2.78907,1.14062 0.68749,0.75522 1.03124,1.78386 1.03125,3.08594 m -1.4375,-0.42187 c -0.0104,-0.78646 -0.23178,-1.41406 -0.66407,-1.88282 -0.42709,-0.46874 -0.99479,-0.70311 -1.70312,-0.70312 -0.80209,10e-6 -1.44532,0.22657 -1.92969,0.67969 -0.47917,0.45313 -0.75521,1.09115 -0.82812,1.91406 l 5.125,-0.008"
         style=""
         id="path5315" />
      <path
         d="m 347.44147,971.0946 0,1.34375 c -0.40626,-0.22395 -0.81511,-0.39061 -1.22657,-0.5 -0.40625,-0.11457 -0.81771,-0.17186 -1.23437,-0.17187 -0.9323,10e-6 -1.65625,0.29688 -2.17188,0.89062 -0.51562,0.58855 -0.77344,1.41668 -0.77343,2.48438 -10e-6,1.06771 0.25781,1.89844 0.77343,2.49219 0.51563,0.58854 1.23958,0.88281 2.17188,0.88281 0.41666,0 0.82812,-0.0547 1.23437,-0.16406 0.41146,-0.11459 0.82031,-0.28386 1.22657,-0.50782 l 0,1.32813 c -0.40105,0.1875 -0.81772,0.32812 -1.25,0.42187 -0.42709,0.0937 -0.88282,0.14063 -1.36719,0.14063 -1.31771,0 -2.36459,-0.41406 -3.14063,-1.24219 -0.77604,-0.82812 -1.16406,-1.94531 -1.16406,-3.35156 0,-1.42708 0.39063,-2.54947 1.17188,-3.36719 0.78645,-0.8177 1.86197,-1.22655 3.22656,-1.22656 0.4427,10e-6 0.87499,0.0469 1.29687,0.14062 0.42187,0.0885 0.83073,0.22397 1.22657,0.40625"
         style=""
         id="path5317" />
      <path
         d="m 349.7774,976.05554 0,-5.29687 1.4375,0 0,5.24218 c 0,0.82813 0.16146,1.45053 0.48438,1.86719 0.32291,0.41146 0.80729,0.61719 1.45312,0.61719 0.77604,0 1.38802,-0.2474 1.83594,-0.74219 0.45312,-0.49479 0.67968,-1.16927 0.67969,-2.02344 l 0,-4.96093 1.4375,0 0,8.75 -1.4375,0 0,-1.34375 c -0.34897,0.53125 -0.75522,0.92708 -1.21875,1.1875 -0.45834,0.25521 -0.99219,0.38281 -1.60156,0.38281 -1.00521,0 -1.76823,-0.3125 -2.28907,-0.9375 -0.52083,-0.625 -0.78125,-1.53906 -0.78125,-2.74219 m 3.61719,-5.50781 0,0"
         style=""
         id="path5319" />
      <path
         d="m 365.1524,972.10242 c -0.16146,-0.0937 -0.33854,-0.16145 -0.53125,-0.20313 -0.1875,-0.0469 -0.39583,-0.0703 -0.625,-0.0703 -0.8125,10e-6 -1.4375,0.26563 -1.875,0.79687 -0.43229,0.52605 -0.64844,1.28386 -0.64843,2.27344 l 0,4.60938 -1.44532,0 0,-8.75 1.44532,0 0,1.35937 c 0.30208,-0.53124 0.69531,-0.92447 1.17968,-1.17969 0.48438,-0.2604 1.07292,-0.39061 1.76563,-0.39062 0.099,10e-6 0.20833,0.008 0.32812,0.0234 0.11979,0.0104 0.2526,0.0286 0.39844,0.0547 l 0.008,1.47657"
         style=""
         id="path5321" />
      <path
         d="m 373.81647,974.77429 0,0.70313 -6.60938,0 c 0.0625,0.98958 0.35937,1.74479 0.89063,2.26562 0.53645,0.51563 1.28124,0.77344 2.23437,0.77344 0.55208,0 1.08593,-0.0677 1.60156,-0.20313 0.52083,-0.13541 1.03645,-0.33854 1.54688,-0.60937 l 0,1.35937 c -0.51563,0.21875 -1.04428,0.38542 -1.58594,0.5 -0.54167,0.11459 -1.09115,0.17188 -1.64844,0.17188 -1.39583,0 -2.5026,-0.40625 -3.32031,-1.21875 -0.8125,-0.8125 -1.21875,-1.91146 -1.21875,-3.29688 0,-1.43228 0.38542,-2.5677 1.15625,-3.40625 0.77604,-0.84374 1.82031,-1.26561 3.13281,-1.26562 1.17708,10e-6 2.10677,0.38022 2.78907,1.14062 0.68749,0.75522 1.03124,1.78386 1.03125,3.08594 m -1.4375,-0.42187 c -0.0104,-0.78646 -0.23178,-1.41406 -0.66407,-1.88282 -0.42709,-0.46874 -0.99479,-0.70311 -1.70312,-0.70312 -0.80209,10e-6 -1.44532,0.22657 -1.92969,0.67969 -0.47917,0.45313 -0.75521,1.09115 -0.82812,1.91406 l 5.125,-0.008"
         style=""
         id="path5323" />
      <path
         d="m 382.62897,978.19617 0,4.64062 -1.44532,0 0,-12.07812 1.44532,0 0,1.32812 c 0.30208,-0.52082 0.68229,-0.90624 1.14062,-1.15625 0.46354,-0.2552 1.01562,-0.3828 1.65625,-0.38281 1.0625,10e-6 1.92447,0.42188 2.58594,1.26562 0.66666,0.84376 0.99999,1.95314 1,3.32813 -10e-6,1.375 -0.33334,2.48438 -1,3.32812 -0.66147,0.84375 -1.52344,1.26563 -2.58594,1.26563 -0.64063,0 -1.19271,-0.125 -1.65625,-0.375 -0.45833,-0.25521 -0.83854,-0.64323 -1.14062,-1.16406 m 4.89062,-3.05469 c -10e-6,-1.05729 -0.21876,-1.88541 -0.65625,-2.48438 -0.4323,-0.60415 -1.02865,-0.90624 -1.78906,-0.90625 -0.76042,10e-6 -1.35938,0.3021 -1.79688,0.90625 -0.43229,0.59897 -0.64844,1.42709 -0.64843,2.48438 -10e-6,1.05729 0.21614,1.88802 0.64843,2.49219 0.4375,0.59896 1.03646,0.89844 1.79688,0.89843 0.76041,10e-6 1.35676,-0.29947 1.78906,-0.89843 0.43749,-0.60417 0.65624,-1.4349 0.65625,-2.49219"
         style=""
         id="path5325" />
      <path
         d="m 396.4649,972.10242 c -0.16146,-0.0937 -0.33854,-0.16145 -0.53125,-0.20313 -0.1875,-0.0469 -0.39583,-0.0703 -0.625,-0.0703 -0.8125,10e-6 -1.4375,0.26563 -1.875,0.79687 -0.43229,0.52605 -0.64844,1.28386 -0.64843,2.27344 l 0,4.60938 -1.44532,0 0,-8.75 1.44532,0 0,1.35937 c 0.30208,-0.53124 0.69531,-0.92447 1.17968,-1.17969 0.48438,-0.2604 1.07292,-0.39061 1.76563,-0.39062 0.099,10e-6 0.20833,0.008 0.32812,0.0234 0.11979,0.0104 0.2526,0.0286 0.39844,0.0547 l 0.008,1.47657"
         style=""
         id="path5327" />
      <path
         d="m 397.98834,970.75867 1.4375,0 0,8.75 -1.4375,0 0,-8.75 m 0,-3.40625 1.4375,0 0,1.82031 -1.4375,0 0,-1.82031"
         style=""
         id="path5329" />
      <path
         d="m 401.39459,970.75867 1.52344,0 2.73437,7.34375 2.73438,-7.34375 1.52344,0 -3.28125,8.75 -1.95313,0 -3.28125,-8.75"
         style=""
         id="path5331" />
      <path
         d="m 415.87115,975.11023 c -1.16146,0 -1.96614,0.13282 -2.41406,0.39844 -0.44792,0.26563 -0.67188,0.71875 -0.67187,1.35937 -10e-6,0.51042 0.16666,0.91667 0.5,1.21875 0.33854,0.29688 0.79687,0.44532 1.375,0.44531 0.79687,10e-6 1.43489,-0.28124 1.91406,-0.84375 0.48437,-0.5677 0.72656,-1.3203 0.72656,-2.25781 l 0,-0.32031 -1.42969,0 m 2.86719,-0.59375 0,4.99219 -1.4375,0 0,-1.32813 c -0.32813,0.53125 -0.73698,0.92448 -1.22656,1.17969 -0.48959,0.25 -1.08855,0.375 -1.79688,0.375 -0.89583,0 -1.60937,-0.25 -2.14062,-0.75 -0.52604,-0.50521 -0.78906,-1.17969 -0.78906,-2.02344 0,-0.98437 0.32812,-1.72656 0.98437,-2.22656 0.66146,-0.5 1.64583,-0.74999 2.95313,-0.75 l 2.01562,0 0,-0.14063 c 0,-0.66145 -0.21875,-1.17186 -0.65625,-1.53125 -0.4323,-0.36457 -1.04167,-0.54686 -1.82812,-0.54687 -0.50001,10e-6 -0.98699,0.0599 -1.46094,0.17969 -0.47396,0.1198 -0.92969,0.29948 -1.36719,0.53906 l 0,-1.32813 c 0.52604,-0.20311 1.03646,-0.35415 1.53125,-0.45312 0.49479,-0.10416 0.97656,-0.15624 1.44531,-0.15625 1.26562,10e-6 2.21094,0.32813 2.83594,0.98437 0.62499,0.65626 0.93749,1.65105 0.9375,2.98438"
         style=""
         id="path5333" />
      <path
         d="m 423.16022,968.27429 0,2.48438 2.96093,0 0,1.11718 -2.96093,0 0,4.75 c -10e-6,0.71355 0.0964,1.17188 0.28906,1.375 0.19791,0.20313 0.59635,0.30469 1.19531,0.30469 l 1.47656,0 0,1.20313 -1.47656,0 c -1.10938,0 -1.875,-0.20573 -2.29687,-0.61719 -0.42188,-0.41667 -0.63282,-1.17187 -0.63282,-2.26563 l 0,-4.75 -1.05468,0 0,-1.11718 1.05468,0 0,-2.48438 1.44532,0"
         style=""
         id="path5335" />
      <path
         d="m 435.50397,974.77429 0,0.70313 -6.60938,0 c 0.0625,0.98958 0.35937,1.74479 0.89063,2.26562 0.53645,0.51563 1.28124,0.77344 2.23437,0.77344 0.55208,0 1.08593,-0.0677 1.60156,-0.20313 0.52083,-0.13541 1.03645,-0.33854 1.54688,-0.60937 l 0,1.35937 c -0.51563,0.21875 -1.04428,0.38542 -1.58594,0.5 -0.54167,0.11459 -1.09115,0.17188 -1.64844,0.17188 -1.39583,0 -2.5026,-0.40625 -3.32031,-1.21875 -0.8125,-0.8125 -1.21875,-1.91146 -1.21875,-3.29688 0,-1.43228 0.38542,-2.5677 1.15625,-3.40625 0.77604,-0.84374 1.82031,-1.26561 3.13281,-1.26562 1.17708,10e-6 2.10677,0.38022 2.78907,1.14062 0.68749,0.75522 1.03124,1.78386 1.03125,3.08594 m -1.4375,-0.42187 c -0.0104,-0.78646 -0.23178,-1.41406 -0.66407,-1.88282 -0.42709,-0.46874 -0.99479,-0.70311 -1.70312,-0.70312 -0.80209,10e-6 -1.44532,0.22657 -1.92969,0.67969 -0.47917,0.45313 -0.75521,1.09115 -0.82812,1.91406 l 5.125,-0.008"
         style=""
         id="path5337" />
      <path
         d="m 449.22272,971.0946 0,1.34375 c -0.40626,-0.22395 -0.81511,-0.39061 -1.22657,-0.5 -0.40625,-0.11457 -0.81771,-0.17186 -1.23437,-0.17187 -0.9323,10e-6 -1.65625,0.29688 -2.17188,0.89062 -0.51562,0.58855 -0.77344,1.41668 -0.77343,2.48438 -10e-6,1.06771 0.25781,1.89844 0.77343,2.49219 0.51563,0.58854 1.23958,0.88281 2.17188,0.88281 0.41666,0 0.82812,-0.0547 1.23437,-0.16406 0.41146,-0.11459 0.82031,-0.28386 1.22657,-0.50782 l 0,1.32813 c -0.40105,0.1875 -0.81772,0.32812 -1.25,0.42187 -0.42709,0.0937 -0.88282,0.14063 -1.36719,0.14063 -1.31771,0 -2.36459,-0.41406 -3.14063,-1.24219 -0.77604,-0.82812 -1.16406,-1.94531 -1.16406,-3.35156 0,-1.42708 0.39063,-2.54947 1.17188,-3.36719 0.78645,-0.8177 1.86197,-1.22655 3.22656,-1.22656 0.4427,10e-6 0.87499,0.0469 1.29687,0.14062 0.42187,0.0885 0.83073,0.22397 1.22657,0.40625"
         style=""
         id="path5339" />
      <path
         d="m 455.09772,971.76648 c -0.77084,10e-6 -1.38021,0.30209 -1.82813,0.90625 -0.44792,0.59896 -0.67188,1.42188 -0.67187,2.46875 -10e-6,1.04688 0.22135,1.8724 0.66406,2.47656 0.44791,0.59896 1.05989,0.89844 1.83594,0.89844 0.76562,0 1.37239,-0.30208 1.82031,-0.90625 0.44791,-0.60416 0.67187,-1.42708 0.67187,-2.46875 0,-1.03645 -0.22396,-1.85677 -0.67187,-2.46094 -0.44792,-0.60937 -1.05469,-0.91405 -1.82031,-0.91406 m 0,-1.21875 c 1.24999,10e-6 2.23176,0.40626 2.94531,1.21875 0.71353,0.81251 1.0703,1.93751 1.07031,3.375 -10e-6,1.43229 -0.35678,2.55729 -1.07031,3.375 -0.71355,0.8125 -1.69532,1.21875 -2.94531,1.21875 -1.25521,0 -2.23959,-0.40625 -2.95313,-1.21875 -0.70833,-0.81771 -1.0625,-1.94271 -1.0625,-3.375 0,-1.43749 0.35417,-2.56249 1.0625,-3.375 0.71354,-0.81249 1.69792,-1.21874 2.95313,-1.21875"
         style=""
         id="path5341" />
      <path
         d="m 468.76178,974.22742 0,5.28125 -1.4375,0 0,-5.23438 c -10e-6,-0.82812 -0.16147,-1.44791 -0.48438,-1.85937 -0.32292,-0.41145 -0.80729,-0.61718 -1.45312,-0.61719 -0.77605,10e-6 -1.38803,0.2474 -1.83594,0.74219 -0.44792,0.4948 -0.67188,1.16927 -0.67187,2.02343 l 0,4.94532 -1.44532,0 0,-8.75 1.44532,0 0,1.35937 c 0.34374,-0.52603 0.74739,-0.91926 1.21093,-1.17969 0.46875,-0.2604 1.00781,-0.39061 1.61719,-0.39062 1.0052,10e-6 1.76562,0.31251 2.28125,0.9375 0.51562,0.6198 0.77343,1.53386 0.77344,2.74219"
         style=""
         id="path5343" />
      <path
         d="m 478.91803,974.22742 0,5.28125 -1.4375,0 0,-5.23438 c -10e-6,-0.82812 -0.16147,-1.44791 -0.48438,-1.85937 -0.32292,-0.41145 -0.80729,-0.61718 -1.45312,-0.61719 -0.77605,10e-6 -1.38803,0.2474 -1.83594,0.74219 -0.44792,0.4948 -0.67188,1.16927 -0.67187,2.02343 l 0,4.94532 -1.44532,0 0,-8.75 1.44532,0 0,1.35937 c 0.34374,-0.52603 0.74739,-0.91926 1.21093,-1.17969 0.46875,-0.2604 1.00781,-0.39061 1.61719,-0.39062 1.0052,10e-6 1.76562,0.31251 2.28125,0.9375 0.51562,0.6198 0.77343,1.53386 0.77344,2.74219"
         style=""
         id="path5345" />
      <path
         d="m 489.28522,974.77429 0,0.70313 -6.60938,0 c 0.0625,0.98958 0.35937,1.74479 0.89063,2.26562 0.53645,0.51563 1.28124,0.77344 2.23437,0.77344 0.55208,0 1.08593,-0.0677 1.60156,-0.20313 0.52083,-0.13541 1.03645,-0.33854 1.54688,-0.60937 l 0,1.35937 c -0.51563,0.21875 -1.04428,0.38542 -1.58594,0.5 -0.54167,0.11459 -1.09115,0.17188 -1.64844,0.17188 -1.39583,0 -2.5026,-0.40625 -3.32031,-1.21875 -0.8125,-0.8125 -1.21875,-1.91146 -1.21875,-3.29688 0,-1.43228 0.38542,-2.5677 1.15625,-3.40625 0.77604,-0.84374 1.82031,-1.26561 3.13281,-1.26562 1.17708,10e-6 2.10677,0.38022 2.78907,1.14062 0.68749,0.75522 1.03124,1.78386 1.03125,3.08594 m -1.4375,-0.42187 c -0.0104,-0.78646 -0.23178,-1.41406 -0.66407,-1.88282 -0.42709,-0.46874 -0.99479,-0.70311 -1.70312,-0.70312 -0.80209,10e-6 -1.44532,0.22657 -1.92969,0.67969 -0.47917,0.45313 -0.75521,1.09115 -0.82812,1.91406 l 5.125,-0.008"
         style=""
         id="path5347" />
      <path
         d="m 497.91022,971.0946 0,1.34375 c -0.40626,-0.22395 -0.81511,-0.39061 -1.22657,-0.5 -0.40625,-0.11457 -0.81771,-0.17186 -1.23437,-0.17187 -0.9323,10e-6 -1.65625,0.29688 -2.17188,0.89062 -0.51562,0.58855 -0.77344,1.41668 -0.77343,2.48438 -10e-6,1.06771 0.25781,1.89844 0.77343,2.49219 0.51563,0.58854 1.23958,0.88281 2.17188,0.88281 0.41666,0 0.82812,-0.0547 1.23437,-0.16406 0.41146,-0.11459 0.82031,-0.28386 1.22657,-0.50782 l 0,1.32813 c -0.40105,0.1875 -0.81772,0.32812 -1.25,0.42187 -0.42709,0.0937 -0.88282,0.14063 -1.36719,0.14063 -1.31771,0 -2.36459,-0.41406 -3.14063,-1.24219 -0.77604,-0.82812 -1.16406,-1.94531 -1.16406,-3.35156 0,-1.42708 0.39063,-2.54947 1.17188,-3.36719 0.78645,-0.8177 1.86197,-1.22655 3.22656,-1.22656 0.4427,10e-6 0.87499,0.0469 1.29687,0.14062 0.42187,0.0885 0.83073,0.22397 1.22657,0.40625"
         style=""
         id="path5349" />
      <path
         d="m 501.81647,968.27429 0,2.48438 2.96093,0 0,1.11718 -2.96093,0 0,4.75 c -10e-6,0.71355 0.0964,1.17188 0.28906,1.375 0.19791,0.20313 0.59635,0.30469 1.19531,0.30469 l 1.47656,0 0,1.20313 -1.47656,0 c -1.10938,0 -1.875,-0.20573 -2.29687,-0.61719 -0.42188,-0.41667 -0.63282,-1.17187 -0.63282,-2.26563 l 0,-4.75 -1.05468,0 0,-1.11718 1.05468,0 0,-2.48438 1.44532,0"
         style=""
         id="path5351" />
      <path
         d="m 506.67584,970.75867 1.4375,0 0,8.75 -1.4375,0 0,-8.75 m 0,-3.40625 1.4375,0 0,1.82031 -1.4375,0 0,-1.82031"
         style=""
         id="path5353" />
      <path
         d="m 514.50397,971.76648 c -0.77084,10e-6 -1.38021,0.30209 -1.82813,0.90625 -0.44792,0.59896 -0.67188,1.42188 -0.67187,2.46875 -10e-6,1.04688 0.22135,1.8724 0.66406,2.47656 0.44791,0.59896 1.05989,0.89844 1.83594,0.89844 0.76562,0 1.37239,-0.30208 1.82031,-0.90625 0.44791,-0.60416 0.67187,-1.42708 0.67187,-2.46875 0,-1.03645 -0.22396,-1.85677 -0.67187,-2.46094 -0.44792,-0.60937 -1.05469,-0.91405 -1.82031,-0.91406 m 0,-1.21875 c 1.24999,10e-6 2.23176,0.40626 2.94531,1.21875 0.71353,0.81251 1.0703,1.93751 1.07031,3.375 -10e-6,1.43229 -0.35678,2.55729 -1.07031,3.375 -0.71355,0.8125 -1.69532,1.21875 -2.94531,1.21875 -1.25521,0 -2.23959,-0.40625 -2.95313,-1.21875 -0.70833,-0.81771 -1.0625,-1.94271 -1.0625,-3.375 0,-1.43749 0.35417,-2.56249 1.0625,-3.375 0.71354,-0.81249 1.69792,-1.21874 2.95313,-1.21875"
         style=""
         id="path5355" />
      <path
         d="m 528.16803,974.22742 0,5.28125 -1.4375,0 0,-5.23438 c -1e-5,-0.82812 -0.16147,-1.44791 -0.48438,-1.85937 -0.32292,-0.41145 -0.80729,-0.61718 -1.45312,-0.61719 -0.77605,10e-6 -1.38803,0.2474 -1.83594,0.74219 -0.44792,0.4948 -0.67188,1.16927 -0.67187,2.02343 l 0,4.94532 -1.44532,0 0,-8.75 1.44532,0 0,1.35937 c 0.34374,-0.52603 0.74739,-0.91926 1.21093,-1.17969 0.46875,-0.2604 1.00781,-0.39061 1.61719,-0.39062 1.0052,10e-6 1.76562,0.31251 2.28125,0.9375 0.51562,0.6198 0.77343,1.53386 0.77344,2.74219"
         style=""
         id="path5357" />
    </g>
    <g
       style="font-size:16px;font-style:normal;font-weight:normal;line-height:125%;letter-spacing:0px;word-spacing:0px;fill:#000000;fill-opacity:1;stroke:none;font-family:Sans"
       id="text5047">
      <path
         d="m 142.97101,1000.2921 2.125,0 5.17187,9.7578 0,-9.7578 1.53125,0 0,11.664 -2.125,0 -5.17187,-9.7578 0,9.7578 -1.53125,0 0,-11.664"
         style=""
         id="path5292" />
      <path
         d="m 158.26788,1004.2139 c -0.77083,0 -1.38021,0.3021 -1.82812,0.9063 -0.44792,0.5989 -0.67188,1.4219 -0.67188,2.4687 0,1.0469 0.22135,1.8724 0.66407,2.4766 0.44791,0.599 1.05989,0.8984 1.83593,0.8984 0.76562,0 1.37239,-0.3021 1.82032,-0.9062 0.44791,-0.6042 0.67186,-1.4271 0.67187,-2.4688 -1e-5,-1.0364 -0.22396,-1.8567 -0.67187,-2.4609 -0.44793,-0.6094 -1.0547,-0.9141 -1.82032,-0.9141 m 0,-1.2187 c 1.25,0 2.23177,0.4062 2.94532,1.2187 0.71353,0.8125 1.0703,1.9375 1.07031,3.375 -1e-5,1.4323 -0.35678,2.5573 -1.07031,3.375 -0.71355,0.8125 -1.69532,1.2188 -2.94532,1.2188 -1.25521,0 -2.23958,-0.4063 -2.95312,-1.2188 -0.70834,-0.8177 -1.0625,-1.9427 -1.0625,-3.375 0,-1.4375 0.35416,-2.5625 1.0625,-3.375 0.71354,-0.8125 1.69791,-1.2187 2.95312,-1.2187"
         style=""
         id="path5294" />
      <path
         d="m 170.41632,1004.5342 0,-4.73433 1.4375,0 0,12.15623 -1.4375,0 0,-1.3125 c -0.30209,0.5208 -0.6849,0.9089 -1.14844,1.1641 -0.45834,0.25 -1.01042,0.375 -1.65625,0.375 -1.05729,0 -1.91927,-0.4219 -2.58593,-1.2656 -0.66146,-0.8438 -0.99219,-1.9532 -0.99219,-3.3282 0,-1.375 0.33073,-2.4843 0.99219,-3.3281 0.66666,-0.8437 1.52864,-1.2656 2.58593,-1.2656 0.64583,0 1.19791,0.1276 1.65625,0.3828 0.46354,0.25 0.84635,0.6354 1.14844,1.1562 m -4.89844,3.0547 c 0,1.0573 0.21615,1.8881 0.64844,2.4922 0.4375,0.599 1.03646,0.8985 1.79688,0.8985 0.76041,0 1.35936,-0.2995 1.79687,-0.8985 0.43749,-0.6041 0.65624,-1.4349 0.65625,-2.4922 -1e-5,-1.0573 -0.21876,-1.8854 -0.65625,-2.4843 -0.43751,-0.6042 -1.03646,-0.9063 -1.79687,-0.9063 -0.76042,0 -1.35938,0.3021 -1.79688,0.9063 -0.43229,0.5989 -0.64844,1.427 -0.64844,2.4843"
         style=""
         id="path5296" />
      <path
         d="m 182.29913,1007.2217 0,0.7032 -6.60937,0 c 0.0625,0.9896 0.35937,1.7448 0.89062,2.2656 0.53646,0.5156 1.28125,0.7734 2.23438,0.7734 0.55208,0 1.08593,-0.068 1.60156,-0.2031 0.52083,-0.1354 1.03645,-0.3385 1.54688,-0.6094 l 0,1.3594 c -0.51564,0.2188 -1.04428,0.3854 -1.58594,0.5 -0.54167,0.1146 -1.09115,0.1719 -1.64844,0.1719 -1.39584,0 -2.50261,-0.4063 -3.32031,-1.2188 -0.8125,-0.8125 -1.21875,-1.9114 -1.21875,-3.2968 0,-1.4323 0.38541,-2.5677 1.15625,-3.4063 0.77604,-0.8437 1.82031,-1.2656 3.13281,-1.2656 1.17708,0 2.10676,0.3802 2.78906,1.1406 0.68749,0.7552 1.03124,1.7839 1.03125,3.0859 m -1.4375,-0.4218 c -0.0104,-0.7865 -0.23177,-1.4141 -0.66406,-1.8828 -0.42709,-0.4688 -0.9948,-0.7032 -1.70312,-0.7032 -0.80209,0 -1.44532,0.2266 -1.92969,0.6797 -0.47917,0.4531 -0.75521,1.0912 -0.82813,1.9141 l 5.125,-0.01"
         style=""
         id="path5298" />
      <path
         d="m 191.14288,1000.7217 0,2.4844 2.96094,0 0,1.1172 -2.96094,0 0,4.75 c 0,0.7135 0.0964,1.1719 0.28907,1.375 0.19791,0.2031 0.59635,0.3047 1.19531,0.3047 l 1.47656,0 0,1.2031 -1.47656,0 c -1.10938,0 -1.875,-0.2057 -2.29688,-0.6172 -0.42187,-0.4166 -0.63281,-1.1718 -0.63281,-2.2656 l 0,-4.75 -1.05469,0 0,-1.1172 1.05469,0 0,-2.4844 1.44531,0"
         style=""
         id="path5300" />
      <path
         d="m 199.39288,1004.2139 c -0.77083,0 -1.38021,0.3021 -1.82812,0.9063 -0.44792,0.5989 -0.67188,1.4219 -0.67188,2.4687 0,1.0469 0.22135,1.8724 0.66407,2.4766 0.44791,0.599 1.05989,0.8984 1.83593,0.8984 0.76562,0 1.37239,-0.3021 1.82032,-0.9062 0.44791,-0.6042 0.67186,-1.4271 0.67187,-2.4688 -1e-5,-1.0364 -0.22396,-1.8567 -0.67187,-2.4609 -0.44793,-0.6094 -1.0547,-0.9141 -1.82032,-0.9141 m 0,-1.2187 c 1.25,0 2.23177,0.4062 2.94532,1.2187 0.71353,0.8125 1.0703,1.9375 1.07031,3.375 -1e-5,1.4323 -0.35678,2.5573 -1.07031,3.375 -0.71355,0.8125 -1.69532,1.2188 -2.94532,1.2188 -1.25521,0 -2.23958,-0.4063 -2.95312,-1.2188 -0.70834,-0.8177 -1.0625,-1.9427 -1.0625,-3.375 0,-1.4375 0.35416,-2.5625 1.0625,-3.375 0.71354,-0.8125 1.69791,-1.2187 2.95312,-1.2187"
         style=""
         id="path5302" />
      <path
         d="m 218.1507,1006.6749 0,5.2812 -1.4375,0 0,-5.2344 c -1e-5,-0.8281 -0.16147,-1.4479 -0.48438,-1.8593 -0.32292,-0.4115 -0.8073,-0.6172 -1.45312,-0.6172 -0.77605,0 -1.38803,0.2474 -1.83594,0.7422 -0.44792,0.4948 -0.67188,1.1692 -0.67188,2.0234 l 0,4.9453 -1.44531,0 0,-8.75 1.44531,0 0,1.3594 c 0.34375,-0.526 0.7474,-0.9193 1.21094,-1.1797 0.46875,-0.2604 1.00781,-0.3906 1.61719,-0.3906 1.0052,0 1.76562,0.3125 2.28125,0.9375 0.51561,0.6198 0.77343,1.5338 0.77344,2.7422"
         style=""
         id="path5304" />
      <path
         d="m 224.42413,1004.2139 c -0.77083,0 -1.38021,0.3021 -1.82812,0.9063 -0.44792,0.5989 -0.67188,1.4219 -0.67188,2.4687 0,1.0469 0.22135,1.8724 0.66407,2.4766 0.44791,0.599 1.05989,0.8984 1.83593,0.8984 0.76562,0 1.37239,-0.3021 1.82032,-0.9062 0.44791,-0.6042 0.67186,-1.4271 0.67187,-2.4688 -1e-5,-1.0364 -0.22396,-1.8567 -0.67187,-2.4609 -0.44793,-0.6094 -1.0547,-0.9141 -1.82032,-0.9141 m 0,-1.2187 c 1.25,0 2.23177,0.4062 2.94532,1.2187 0.71353,0.8125 1.0703,1.9375 1.07031,3.375 -1e-5,1.4323 -0.35678,2.5573 -1.07031,3.375 -0.71355,0.8125 -1.69532,1.2188 -2.94532,1.2188 -1.25521,0 -2.23958,-0.4063 -2.95312,-1.2188 -0.70834,-0.8177 -1.0625,-1.9427 -1.0625,-3.375 0,-1.4375 0.35416,-2.5625 1.0625,-3.375 0.71354,-0.8125 1.69791,-1.2187 2.95312,-1.2187"
         style=""
         id="path5306" />
      <path
         d="m 236.57257,1004.5342 0,-4.73433 1.4375,0 0,12.15623 -1.4375,0 0,-1.3125 c -0.30209,0.5208 -0.6849,0.9089 -1.14844,1.1641 -0.45834,0.25 -1.01042,0.375 -1.65625,0.375 -1.05729,0 -1.91927,-0.4219 -2.58593,-1.2656 -0.66146,-0.8438 -0.99219,-1.9532 -0.99219,-3.3282 0,-1.375 0.33073,-2.4843 0.99219,-3.3281 0.66666,-0.8437 1.52864,-1.2656 2.58593,-1.2656 0.64583,0 1.19791,0.1276 1.65625,0.3828 0.46354,0.25 0.84635,0.6354 1.14844,1.1562 m -4.89844,3.0547 c 0,1.0573 0.21615,1.8881 0.64844,2.4922 0.4375,0.599 1.03646,0.8985 1.79688,0.8985 0.76041,0 1.35936,-0.2995 1.79687,-0.8985 0.43749,-0.6041 0.65624,-1.4349 0.65625,-2.4922 -1e-5,-1.0573 -0.21876,-1.8854 -0.65625,-2.4843 -0.43751,-0.6042 -1.03646,-0.9063 -1.79687,-0.9063 -0.76042,0 -1.35938,0.3021 -1.79688,0.9063 -0.43229,0.5989 -0.64844,1.427 -0.64844,2.4843"
         style=""
         id="path5308" />
      <path
         d="m 248.45538,1007.2217 0,0.7032 -6.60937,0 c 0.0625,0.9896 0.35937,1.7448 0.89062,2.2656 0.53646,0.5156 1.28125,0.7734 2.23438,0.7734 0.55208,0 1.08593,-0.068 1.60156,-0.2031 0.52083,-0.1354 1.03645,-0.3385 1.54688,-0.6094 l 0,1.3594 c -0.51564,0.2188 -1.04428,0.3854 -1.58594,0.5 -0.54167,0.1146 -1.09115,0.1719 -1.64844,0.1719 -1.39584,0 -2.50261,-0.4063 -3.32031,-1.2188 -0.8125,-0.8125 -1.21875,-1.9114 -1.21875,-3.2968 0,-1.4323 0.38541,-2.5677 1.15625,-3.4063 0.77604,-0.8437 1.82031,-1.2656 3.13281,-1.2656 1.17708,0 2.10676,0.3802 2.78906,1.1406 0.68749,0.7552 1.03124,1.7839 1.03125,3.0859 m -1.4375,-0.4218 c -0.0104,-0.7865 -0.23177,-1.4141 -0.66406,-1.8828 -0.42709,-0.4688 -0.9948,-0.7032 -1.70312,-0.7032 -0.80209,0 -1.44532,0.2266 -1.92969,0.6797 -0.47917,0.4531 -0.75521,1.0912 -0.82813,1.9141 l 5.125,-0.01"
         style=""
         id="path5310" />
    </g>
    <g
       style="font-size:16px;font-style:normal;font-weight:normal;line-height:125%;letter-spacing:0px;word-spacing:0px;fill:#000000;fill-opacity:1;stroke:none;font-family:Sans"
       id="text5051">
      <path
         d="m 371.34772,1000.6749 0,1.539 c -0.59897,-0.2864 -1.16407,-0.5 -1.69532,-0.6406 -0.53125,-0.1406 -1.04427,-0.2109 -1.53906,-0.2109 -0.85938,0 -1.52344,0.1666 -1.99219,0.5 -0.46354,0.3333 -0.69531,0.8073 -0.69531,1.4218 0,0.5157 0.15365,0.9063 0.46094,1.1719 0.3125,0.2604 0.90104,0.4714 1.76562,0.6328 l 0.95313,0.1953 c 1.17708,0.224 2.04426,0.6198 2.60156,1.1875 0.56249,0.5625 0.84374,1.3178 0.84375,2.2657 -10e-6,1.1302 -0.38021,1.9869 -1.14062,2.5703 -0.75522,0.5833 -1.86459,0.875 -3.32813,0.875 -0.55209,0 -1.14063,-0.062 -1.76562,-0.1875 -0.6198,-0.125 -1.26303,-0.3099 -1.92969,-0.5547 l 0,-1.625 c 0.64062,0.3594 1.26823,0.6302 1.88281,0.8125 0.61458,0.1823 1.21875,0.2734 1.8125,0.2734 0.90104,0 1.59635,-0.1771 2.08594,-0.5312 0.48958,-0.3542 0.73437,-0.8594 0.73437,-1.5156 0,-0.573 -0.17709,-1.0209 -0.53125,-1.3438 -0.34896,-0.3229 -0.92448,-0.5651 -1.72656,-0.7266 l -0.96094,-0.1875 c -1.17708,-0.2343 -2.02864,-0.6015 -2.55468,-1.1015 -0.52605,-0.5 -0.78907,-1.1953 -0.78907,-2.086 0,-1.0312 0.36198,-1.8437 1.08594,-2.4375 0.72917,-0.5937 1.73177,-0.8906 3.00781,-0.8906 0.54687,0 1.10417,0.049 1.67188,0.1485 0.5677,0.099 1.14843,0.2474 1.74219,0.4453"
         style=""
         id="path5263" />
      <path
         d="m 381.9649,1007.2217 0,0.7032 -6.60937,0 c 0.0625,0.9896 0.35937,1.7448 0.89062,2.2656 0.53646,0.5156 1.28125,0.7734 2.23438,0.7734 0.55208,0 1.08593,-0.068 1.60156,-0.2031 0.52083,-0.1354 1.03645,-0.3385 1.54688,-0.6094 l 0,1.3594 c -0.51564,0.2188 -1.04428,0.3854 -1.58594,0.5 -0.54167,0.1146 -1.09115,0.1719 -1.64844,0.1719 -1.39584,0 -2.5026,-0.4063 -3.32031,-1.2188 -0.8125,-0.8125 -1.21875,-1.9114 -1.21875,-3.2968 0,-1.4323 0.38542,-2.5677 1.15625,-3.4063 0.77604,-0.8437 1.82031,-1.2656 3.13281,-1.2656 1.17708,0 2.10677,0.3802 2.78906,1.1406 0.6875,0.7552 1.03125,1.7839 1.03125,3.0859 m -1.4375,-0.4218 c -0.0104,-0.7865 -0.23177,-1.4141 -0.66406,-1.8828 -0.42709,-0.4688 -0.9948,-0.7032 -1.70312,-0.7032 -0.80209,0 -1.44532,0.2266 -1.92969,0.6797 -0.47917,0.4531 -0.75521,1.0912 -0.82813,1.9141 l 5.125,-0.01"
         style=""
         id="path5265" />
      <path
         d="m 389.36334,1004.5499 c -0.16146,-0.094 -0.33855,-0.1615 -0.53125,-0.2032 -0.1875,-0.047 -0.39584,-0.07 -0.625,-0.07 -0.8125,0 -1.4375,0.2657 -1.875,0.7969 -0.43229,0.5261 -0.64844,1.2839 -0.64844,2.2734 l 0,4.6094 -1.44531,0 0,-8.75 1.44531,0 0,1.3594 c 0.30208,-0.5313 0.69531,-0.9245 1.17969,-1.1797 0.48437,-0.2604 1.07291,-0.3906 1.76563,-0.3906 0.099,0 0.20832,0.01 0.32812,0.023 0.11979,0.01 0.2526,0.029 0.39844,0.055 l 0.008,1.4766"
         style=""
         id="path5267" />
      <path
         d="m 389.85553,1003.2061 1.52344,0 2.73437,7.3438 2.73438,-7.3438 1.52343,0 -3.28125,8.75 -1.95312,0 -3.28125,-8.75"
         style=""
         id="path5269" />
      <path
         d="m 407.8399,1007.2217 0,0.7032 -6.60937,0 c 0.0625,0.9896 0.35937,1.7448 0.89062,2.2656 0.53646,0.5156 1.28125,0.7734 2.23438,0.7734 0.55208,0 1.08593,-0.068 1.60156,-0.2031 0.52083,-0.1354 1.03645,-0.3385 1.54688,-0.6094 l 0,1.3594 c -0.51564,0.2188 -1.04428,0.3854 -1.58594,0.5 -0.54167,0.1146 -1.09115,0.1719 -1.64844,0.1719 -1.39584,0 -2.5026,-0.4063 -3.32031,-1.2188 -0.8125,-0.8125 -1.21875,-1.9114 -1.21875,-3.2968 0,-1.4323 0.38542,-2.5677 1.15625,-3.4063 0.77604,-0.8437 1.82031,-1.2656 3.13281,-1.2656 1.17708,0 2.10677,0.3802 2.78906,1.1406 0.6875,0.7552 1.03125,1.7839 1.03125,3.0859 m -1.4375,-0.4218 c -0.0104,-0.7865 -0.23177,-1.4141 -0.66406,-1.8828 -0.42709,-0.4688 -0.9948,-0.7032 -1.70312,-0.7032 -0.80209,0 -1.44532,0.2266 -1.92969,0.6797 -0.47917,0.4531 -0.75521,1.0912 -0.82813,1.9141 l 5.125,-0.01"
         style=""
         id="path5271" />
      <path
         d="m 415.23834,1004.5499 c -0.16146,-0.094 -0.33855,-0.1615 -0.53125,-0.2032 -0.1875,-0.047 -0.39584,-0.07 -0.625,-0.07 -0.8125,0 -1.4375,0.2657 -1.875,0.7969 -0.43229,0.5261 -0.64844,1.2839 -0.64844,2.2734 l 0,4.6094 -1.44531,0 0,-8.75 1.44531,0 0,1.3594 c 0.30208,-0.5313 0.69531,-0.9245 1.17969,-1.1797 0.48437,-0.2604 1.07291,-0.3906 1.76563,-0.3906 0.099,0 0.20832,0.01 0.32812,0.023 0.11979,0.01 0.2526,0.029 0.39844,0.055 l 0.008,1.4766"
         style=""
         id="path5273" />
      <path
         d="m 423.2774,1000.7217 0,2.4844 2.96094,0 0,1.1172 -2.96094,0 0,4.75 c 0,0.7135 0.0964,1.1719 0.28907,1.375 0.19791,0.2031 0.59635,0.3047 1.19531,0.3047 l 1.47656,0 0,1.2031 -1.47656,0 c -1.10938,0 -1.875,-0.2057 -2.29688,-0.6172 -0.42187,-0.4166 -0.63281,-1.1718 -0.63281,-2.2656 l 0,-4.75 -1.05469,0 0,-1.1172 1.05469,0 0,-2.4844 1.44531,0"
         style=""
         id="path5275" />
      <path
         d="m 431.5274,1004.2139 c -0.77083,0 -1.38021,0.3021 -1.82812,0.9063 -0.44792,0.5989 -0.67188,1.4219 -0.67188,2.4687 0,1.0469 0.22136,1.8724 0.66407,2.4766 0.44791,0.599 1.05989,0.8984 1.83593,0.8984 0.76562,0 1.37239,-0.3021 1.82032,-0.9062 0.44791,-0.6042 0.67186,-1.4271 0.67187,-2.4688 -10e-6,-1.0364 -0.22396,-1.8567 -0.67187,-2.4609 -0.44793,-0.6094 -1.0547,-0.9141 -1.82032,-0.9141 m 0,-1.2187 c 1.25,0 2.23177,0.4062 2.94532,1.2187 0.71353,0.8125 1.0703,1.9375 1.07031,3.375 -10e-6,1.4323 -0.35678,2.5573 -1.07031,3.375 -0.71355,0.8125 -1.69532,1.2188 -2.94532,1.2188 -1.25521,0 -2.23958,-0.4063 -2.95312,-1.2188 -0.70833,-0.8177 -1.0625,-1.9427 -1.0625,-3.375 0,-1.4375 0.35417,-2.5625 1.0625,-3.375 0.71354,-0.8125 1.69791,-1.2187 2.95312,-1.2187"
         style=""
         id="path5277" />
      <path
         d="m 449.30865,1003.5421 0,1.3437 c -0.40625,-0.2239 -0.81511,-0.3906 -1.22656,-0.5 -0.40625,-0.1146 -0.81771,-0.1719 -1.23437,-0.1719 -0.9323,0 -1.65626,0.2969 -2.17188,0.8907 -0.51563,0.5885 -0.77344,1.4166 -0.77344,2.4843 0,1.0677 0.25781,1.8985 0.77344,2.4922 0.51562,0.5886 1.23958,0.8828 2.17188,0.8828 0.41666,0 0.82812,-0.055 1.23437,-0.164 0.41145,-0.1146 0.82031,-0.2839 1.22656,-0.5078 l 0,1.3281 c -0.40104,0.1875 -0.81771,0.3281 -1.25,0.4219 -0.42708,0.094 -0.88281,0.1406 -1.36718,0.1406 -1.31771,0 -2.36459,-0.4141 -3.14063,-1.2422 -0.77604,-0.8281 -1.16406,-1.9453 -1.16406,-3.3516 0,-1.427 0.39062,-2.5494 1.17187,-3.3672 0.78646,-0.8177 1.86198,-1.2265 3.22657,-1.2265 0.4427,0 0.87499,0.047 1.29687,0.1406 0.42187,0.089 0.83072,0.224 1.22656,0.4063"
         style=""
         id="path5279" />
      <path
         d="m 451.79303,999.79987 1.4375,0 0,12.15623 -1.4375,0 0,-12.15623"
         style=""
         id="path5281" />
      <path
         d="m 456.23053,1003.2061 1.4375,0 0,8.75 -1.4375,0 0,-8.75 m 0,-3.40623 1.4375,0 0,1.82033 -1.4375,0 0,-1.82033"
         style=""
         id="path5283" />
      <path
         d="m 468.1524,1007.2217 0,0.7032 -6.60937,0 c 0.0625,0.9896 0.35937,1.7448 0.89062,2.2656 0.53646,0.5156 1.28125,0.7734 2.23438,0.7734 0.55208,0 1.08593,-0.068 1.60156,-0.2031 0.52083,-0.1354 1.03645,-0.3385 1.54688,-0.6094 l 0,1.3594 c -0.51564,0.2188 -1.04428,0.3854 -1.58594,0.5 -0.54167,0.1146 -1.09115,0.1719 -1.64844,0.1719 -1.39584,0 -2.5026,-0.4063 -3.32031,-1.2188 -0.8125,-0.8125 -1.21875,-1.9114 -1.21875,-3.2968 0,-1.4323 0.38542,-2.5677 1.15625,-3.4063 0.77604,-0.8437 1.82031,-1.2656 3.13281,-1.2656 1.17708,0 2.10677,0.3802 2.78906,1.1406 0.6875,0.7552 1.03125,1.7839 1.03125,3.0859 m -1.4375,-0.4218 c -0.0104,-0.7865 -0.23177,-1.4141 -0.66406,-1.8828 -0.42709,-0.4688 -0.9948,-0.7032 -1.70312,-0.7032 -0.80209,0 -1.44532,0.2266 -1.92969,0.6797 -0.47917,0.4531 -0.75521,1.0912 -0.82813,1.9141 l 5.125,-0.01"
         style=""
         id="path5285" />
      <path
         d="m 477.75397,1006.6749 0,5.2812 -1.4375,0 0,-5.2344 c -10e-6,-0.8281 -0.16147,-1.4479 -0.48438,-1.8593 -0.32292,-0.4115 -0.8073,-0.6172 -1.45312,-0.6172 -0.77605,0 -1.38803,0.2474 -1.83594,0.7422 -0.44792,0.4948 -0.67188,1.1692 -0.67188,2.0234 l 0,4.9453 -1.44531,0 0,-8.75 1.44531,0 0,1.3594 c 0.34375,-0.526 0.7474,-0.9193 1.21094,-1.1797 0.46875,-0.2604 1.00781,-0.3906 1.61719,-0.3906 1.0052,0 1.76562,0.3125 2.28125,0.9375 0.51562,0.6198 0.77343,1.5338 0.77344,2.7422"
         style=""
         id="path5287" />
      <path
         d="m 482.05865,1000.7217 0,2.4844 2.96094,0 0,1.1172 -2.96094,0 0,4.75 c 0,0.7135 0.0964,1.1719 0.28907,1.375 0.19791,0.2031 0.59635,0.3047 1.19531,0.3047 l 1.47656,0 0,1.2031 -1.47656,0 c -1.10938,0 -1.875,-0.2057 -2.29688,-0.6172 -0.42187,-0.4166 -0.63281,-1.1718 -0.63281,-2.2656 l 0,-4.75 -1.05469,0 0,-1.1172 1.05469,0 0,-2.4844 1.44531,0"
         style=""
         id="path5289" />
    </g>
  </g>
</svg>
