<?xml version="1.0" encoding="UTF-8" standalone="no"?>
<!-- Created with Inkscape (http://www.inkscape.org/) -->

<svg
   xmlns:dc="http://purl.org/dc/elements/1.1/"
   xmlns:cc="http://creativecommons.org/ns#"
   xmlns:rdf="http://www.w3.org/1999/02/22-rdf-syntax-ns#"
   xmlns:svg="http://www.w3.org/2000/svg"
   xmlns="http://www.w3.org/2000/svg"
   xmlns:sodipodi="http://sodipodi.sourceforge.net/DTD/sodipodi-0.dtd"
   xmlns:inkscape="http://www.inkscape.org/namespaces/inkscape"
   width="600"
   height="110"
   id="svg2"
   version="1.1"
   inkscape:version="0.48.5 r10040"
   sodipodi:docname="en-big-logo.svg">
  <defs
     id="defs4">
    <inkscape:perspective
       sodipodi:type="inkscape:persp3d"
       inkscape:vp_x="0 : 60 : 1"
       inkscape:vp_y="0 : 1000 : 0"
       inkscape:vp_z="992 : 306 : 1"
       inkscape:persp3d-origin="300 : 40 : 1"
       id="perspective3061" />
    <inkscape:path-effect
       effect="spiro"
       id="path-effect2995"
       is_visible="true" />
  </defs>
  <sodipodi:namedview
     id="base"
     pagecolor="#ffffff"
     bordercolor="#666666"
     borderopacity="1.0"
     inkscape:pageopacity="0.0"
     inkscape:pageshadow="2"
     inkscape:zoom="1"
     inkscape:cx="154.29758"
     inkscape:cy="-40.40332"
     inkscape:document-units="px"
     inkscape:current-layer="layer1"
     showgrid="false"
     inkscape:window-width="1918"
     inkscape:window-height="1042"
     inkscape:window-x="0"
     inkscape:window-y="0"
     inkscape:window-maximized="0" />
  <metadata
     id="metadata7">
    <rdf:RDF>
      <cc:Work
         rdf:about="">
        <dc:format>image/svg+xml</dc:format>
        <dc:type
           rdf:resource="http://purl.org/dc/dcmitype/StillImage" />
        <dc:title />
      </cc:Work>
    </rdf:RDF>
  </metadata>
  <g
     inkscape:label="Layer 1"
     inkscape:groupmode="layer"
     id="layer1"
     transform="translate(0,-942.3622)">
    <g
       style="font-size:31.26710128999999938px;font-style:normal;font-weight:normal;line-height:125%;letter-spacing:0px;word-spacing:0px;fill:#4d4d4d;fill-opacity:1;stroke:none;font-family:Sans"
       id="text5008">
      <path
         d="m 0.90493577,1023.0644 3.08396213,0 0,9.3435 11.2060801,0 0,-9.3435 3.083962,0 0,22.7939 -3.083962,0 0,-10.855 -11.2060801,0 0,10.855 -3.08396213,0 0,-22.7939"
         style="fill:#4d4d4d"
         id="path5831" />
      <path
         d="m 38.920113,1036.6064 0,1.374 -12.916,0 c 0.122132,1.9339 0.702283,3.4097 1.740454,4.4275 1.048336,1.0076 2.503802,1.5115 4.366401,1.5114 1.078866,10e-5 2.12212,-0.1323 3.129764,-0.3969 1.017794,-0.2646 2.025425,-0.6616 3.022894,-1.1908 l 0,2.6564 c -1.007647,0.4275 -2.040723,0.7532 -3.09923,0.9771 -1.058534,0.224 -2.132322,0.3359 -3.221366,0.3359 -2.727737,0 -4.890579,-0.7939 -6.488534,-2.3817 -1.587785,-1.5877 -2.381676,-3.7353 -2.381674,-6.4427 -2e-6,-2.7989 0.753176,-5.0178 2.259537,-6.6565 1.51653,-1.6488 3.557236,-2.4732 6.122122,-2.4732 2.300237,0 4.117025,0.743 5.450369,2.229 1.343492,1.4758 2.015245,3.486 2.015263,6.0305 m -2.809154,-0.8244 c -0.02037,-1.5369 -0.452939,-2.7634 -1.297707,-3.6794 -0.834616,-0.916 -1.944027,-1.374 -3.328236,-1.3741 -1.567435,10e-5 -2.824428,0.4428 -3.770984,1.3283 -0.93639,0.8855 -1.475828,2.1323 -1.618316,3.7404 l 10.015243,-0.015"
         style="fill:#4d4d4d"
         id="path5833" />
      <path
         d="m 43.469719,1022.1026 2.809153,0 0,23.7557 -2.809153,0 0,-23.7557"
         style="fill:#4d4d4d"
         id="path5835" />
      <path
         d="m 54.859007,1043.2934 0,9.0687 -2.82442,0 0,-23.603 2.82442,0 0,2.5954 c 0.590323,-1.0178 1.333323,-1.771 2.229003,-2.2595 0.905841,-0.4988 1.984718,-0.7481 3.236633,-0.7481 2.076318,0 3.760791,0.8244 5.053423,2.4732 1.302779,1.6489 1.954176,3.8168 1.954194,6.5038 -1.8e-5,2.6871 -0.651415,4.855 -1.954194,6.5038 -1.292632,1.6489 -2.977105,2.4733 -5.053423,2.4733 -1.251915,0 -2.330792,-0.2443 -3.236633,-0.7328 -0.89568,-0.4987 -1.63868,-1.257 -2.229003,-2.2748 m 9.557229,-5.9695 c -1.5e-5,-2.0661 -0.427494,-3.6844 -1.282439,-4.8549 -0.844795,-1.1806 -2.010185,-1.771 -3.496175,-1.771 -1.486011,0 -2.65649,0.5904 -3.511442,1.771 -0.844788,1.1705 -1.267178,2.7888 -1.267173,4.8549 -5e-6,2.0662 0.422385,3.6896 1.267173,4.8703 0.854952,1.1704 2.025431,1.7557 3.511442,1.7557 1.48599,0 2.65138,-0.5853 3.496175,-1.7557 0.854945,-1.1807 1.282424,-2.8041 1.282439,-4.8703"
         style="fill:#4d4d4d"
         id="path5837" />
      <path
         d="m 71.988739,1028.7591 2.809154,0 0,17.0992 -2.809154,0 0,-17.0992 m 0,-6.6565 2.809154,0 0,3.5573 -2.809154,0 0,-3.5573"
         style="fill:#4d4d4d"
         id="path5839" />
      <path
         d="m 94.874176,1035.5377 0,10.3206 -2.809154,0 0,-10.229 c -1.4e-5,-1.6183 -0.315535,-2.8295 -0.946563,-3.6336 -0.631054,-0.804 -1.577616,-1.2061 -2.839688,-1.2061 -1.516544,0 -2.712469,0.4835 -3.587777,1.4504 -0.875322,0.9669 -1.31298,2.285 -1.312974,3.9542 l 0,9.6641 -2.824421,0 0,-17.0992 2.824421,0 0,2.6565 c 0.671748,-1.028 1.460549,-1.7965 2.366406,-2.3054 0.91602,-0.5089 1.969451,-0.7633 3.160298,-0.7633 1.964359,0 3.450359,0.6107 4.458005,1.832 1.007614,1.2112 1.511429,2.9975 1.511447,5.3588"
         style="fill:#4d4d4d"
         id="path5841" />
      <path
         d="m 111.75963,1037.1102 c -1e-5,-2.0356 -0.4224,-3.6132 -1.26717,-4.7328 -0.83462,-1.1196 -2.01018,-1.6794 -3.52671,-1.6794 -1.50636,0 -2.68193,0.5598 -3.52671,1.6794 -0.83461,1.1196 -1.25191,2.6972 -1.2519,4.7328 -1e-5,2.0255 0.41729,3.598 1.2519,4.7176 0.84478,1.1195 2.02035,1.6793 3.52671,1.6793 1.51653,0 2.69209,-0.5598 3.52671,-1.6793 0.84477,-1.1196 1.26716,-2.6921 1.26717,-4.7176 m 2.80916,6.6259 c -2e-5,2.911 -0.64633,5.0738 -1.93893,6.4886 -1.29263,1.4249 -3.27227,2.1374 -5.93892,2.1374 -0.98728,0 -1.91857,-0.076 -2.79388,-0.229 -0.87533,-0.1425 -1.7252,-0.3664 -2.54962,-0.6718 l 0,-2.7328 c 0.82442,0.4478 1.63867,0.7786 2.44275,0.9924 0.80406,0.2137 1.62339,0.3206 2.45801,0.3206 1.84222,0 3.22135,-0.4835 4.13739,-1.4504 0.91602,-0.9567 1.37403,-2.4071 1.37404,-4.3511 l 0,-1.3894 c -0.58016,1.0077 -1.32316,1.7609 -2.229,2.2596 -0.90586,0.4987 -1.98983,0.7481 -3.2519,0.7481 -2.09669,0 -3.78626,-0.799 -5.06869,-2.397 -1.282442,-1.5979 -1.923662,-3.715 -1.92366,-6.3511 -2e-6,-2.6463 0.641218,-4.7684 1.92366,-6.3664 1.28243,-1.5979 2.972,-2.3969 5.06869,-2.3969 1.26207,0 2.34604,0.2493 3.2519,0.7481 0.90584,0.4987 1.64884,1.2519 2.229,2.2595 l 0,-2.5954 2.80916,0 0,14.977"
         style="fill:#4d4d4d"
         id="path5843" />
    </g>
    <g
       style="font-size:32.64481734999999674px;font-style:normal;font-variant:normal;font-weight:normal;font-stretch:normal;text-align:start;line-height:125%;letter-spacing:0px;word-spacing:0px;writing-mode:lr-tb;text-anchor:start;fill:#333333;fill-opacity:1;stroke:#000000;stroke-width:0.50000000000000000;stroke-linejoin:round;stroke-miterlimit:4;stroke-opacity:0.43137255;font-family:Sans;-inkscape-font-specification:Sans"
       id="text5012">
      <path
         d="m 132.42319,1047.2295 c -0.82889,2.1253 -1.6365,3.5121 -2.42286,4.1603 -0.78638,0.6482 -1.8384,0.9723 -3.15609,0.9724 l -2.34316,0 0,-2.4548 1.7215,0 c 0.80762,0 1.43458,-0.1913 1.88091,-0.5738 0.44631,-0.3826 0.94044,-1.2858 1.4824,-2.7098 l 0.52602,-1.3389 -7.22076,-17.5658 3.10828,0 5.57894,13.9634 5.57895,-13.9634 3.10827,0 -7.8424,19.5104"
         style="fill:#333333;stroke:#000000;stroke-opacity:0.43137255"
         id="path5824" />
      <path
         d="m 151.23221,1029.7754 c -1.57274,0 -2.81605,0.6163 -3.72992,1.849 -0.91389,1.2221 -1.37084,2.9011 -1.37083,5.037 -1e-5,2.1359 0.45162,3.8203 1.35489,5.0529 0.91387,1.2221 2.16249,1.8331 3.74586,1.8331 1.5621,0 2.80009,-0.6163 3.71399,-1.849 0.91387,-1.2327 1.37081,-2.9117 1.37082,-5.037 -1e-5,-2.1147 -0.45695,-3.7884 -1.37082,-5.0211 -0.9139,-1.2432 -2.15189,-1.8649 -3.71399,-1.8649 m 0,-2.4866 c 2.55037,0 4.55347,0.8289 6.00933,2.4866 1.45582,1.6577 2.18374,3.9531 2.18376,6.886 -2e-5,2.9223 -0.72794,5.2176 -2.18376,6.886 -1.45586,1.6578 -3.45896,2.4866 -6.00933,2.4866 -2.56101,0 -4.56943,-0.8288 -6.02526,-2.4866 -1.44522,-1.6684 -2.16782,-3.9637 -2.16782,-6.886 0,-2.9329 0.7226,-5.2283 2.16782,-6.886 1.45583,-1.6577 3.46425,-2.4866 6.02526,-2.4866"
         style="fill:#333333;stroke:#000000;stroke-opacity:0.43137255"
         id="path5826" />
      <path
         d="m 163.96815,1038.5264 0,-10.8073 2.93294,0 0,10.6957 c -1e-5,1.6896 0.32941,2.9595 0.98827,3.8096 0.65884,0.8395 1.64711,1.2593 2.96481,1.2593 1.58335,0 2.83197,-0.5048 3.74586,-1.5143 0.9245,-1.0095 1.38676,-2.3857 1.38677,-4.1285 l 0,-10.1218 2.93293,0 0,17.8527 -2.93293,0 0,-2.7417 c -0.71199,1.0839 -1.54086,1.8916 -2.48662,2.4229 -0.93515,0.5207 -2.02437,0.781 -3.26767,0.781 -2.05093,0 -3.60772,-0.6376 -4.67037,-1.9127 -1.06266,-1.2752 -1.59399,-3.1402 -1.59399,-5.5949 m 7.38015,-11.2376 0,0"
         style="fill:#333333;stroke:#000000;stroke-opacity:0.43137255"
         id="path5828" />
    </g>
    <g
       style="font-size:31.26710128999999938px;font-style:normal;font-weight:normal;line-height:125%;letter-spacing:0px;word-spacing:0px;fill:#4d4d4d;fill-opacity:1;stroke:none;font-family:Sans"
       id="text5016">
      <path
         d="m 190.11894,1022.1026 2.82442,0 0,14.0305 8.38166,-7.374 3.58778,0 -9.06868,8 9.45036,9.0992 -3.66412,0 -8.687,-8.3511 0,8.3511 -2.82442,0 0,-23.7557"
         style="fill:#4d4d4d"
         id="path5775" />
      <path
         d="m 221.82879,1036.6064 0,1.374 -12.916,0 c 0.12213,1.9339 0.70228,3.4097 1.74045,4.4275 1.04834,1.0076 2.5038,1.5115 4.3664,1.5114 1.07887,10e-5 2.12212,-0.1323 3.12977,-0.3969 1.01779,-0.2646 2.02542,-0.6616 3.02289,-1.1908 l 0,2.6564 c -1.00765,0.4275 -2.04072,0.7532 -3.09923,0.9771 -1.05853,0.224 -2.13232,0.3359 -3.22137,0.3359 -2.72773,0 -4.89058,-0.7939 -6.48853,-2.3817 -1.58779,-1.5877 -2.38168,-3.7353 -2.38167,-6.4427 -1e-5,-2.7989 0.75317,-5.0178 2.25953,-6.6565 1.51653,-1.6488 3.55724,-2.4732 6.12213,-2.4732 2.30023,0 4.11702,0.743 5.45036,2.229 1.3435,1.4758 2.01525,3.486 2.01527,6.0305 m -2.80916,-0.8244 c -0.0204,-1.5369 -0.45294,-2.7634 -1.2977,-3.6794 -0.83462,-0.916 -1.94403,-1.374 -3.32824,-1.3741 -1.56743,10e-5 -2.82443,0.4428 -3.77098,1.3283 -0.93639,0.8855 -1.47583,2.1323 -1.61832,3.7404 l 10.01524,-0.015"
         style="fill:#4d4d4d"
         id="path5777" />
      <path
         d="m 241.00432,1036.6064 0,1.374 -12.916,0 c 0.12213,1.9339 0.70228,3.4097 1.74045,4.4275 1.04834,1.0076 2.5038,1.5115 4.3664,1.5114 1.07887,10e-5 2.12212,-0.1323 3.12977,-0.3969 1.01779,-0.2646 2.02542,-0.6616 3.02289,-1.1908 l 0,2.6564 c -1.00765,0.4275 -2.04072,0.7532 -3.09923,0.9771 -1.05853,0.224 -2.13232,0.3359 -3.22137,0.3359 -2.72773,0 -4.89058,-0.7939 -6.48853,-2.3817 -1.58779,-1.5877 -2.38168,-3.7353 -2.38167,-6.4427 -1e-5,-2.7989 0.75317,-5.0178 2.25953,-6.6565 1.51653,-1.6488 3.55724,-2.4732 6.12213,-2.4732 2.30023,0 4.11702,0.743 5.45036,2.229 1.3435,1.4758 2.01525,3.486 2.01527,6.0305 m -2.80916,-0.8244 c -0.0204,-1.5369 -0.45294,-2.7634 -1.2977,-3.6794 -0.83462,-0.916 -1.94403,-1.374 -3.32824,-1.3741 -1.56744,10e-5 -2.82443,0.4428 -3.77098,1.3283 -0.93639,0.8855 -1.47583,2.1323 -1.61832,3.7404 l 10.01524,-0.015"
         style="fill:#4d4d4d"
         id="path5779" />
      <path
         d="m 248.27147,1043.2934 0,9.0687 -2.82442,0 0,-23.603 2.82442,0 0,2.5954 c 0.59033,-1.0178 1.33333,-1.771 2.22901,-2.2595 0.90584,-0.4988 1.98471,-0.7481 3.23663,-0.7481 2.07632,0 3.76079,0.8244 5.05342,2.4732 1.30278,1.6489 1.95418,3.8168 1.9542,6.5038 -2e-5,2.6871 -0.65142,4.855 -1.9542,6.5038 -1.29263,1.6489 -2.9771,2.4733 -5.05342,2.4733 -1.25192,0 -2.33079,-0.2443 -3.23663,-0.7328 -0.89568,-0.4987 -1.63868,-1.257 -2.22901,-2.2748 m 9.55723,-5.9695 c -1e-5,-2.0661 -0.42749,-3.6844 -1.28244,-4.8549 -0.84479,-1.1806 -2.01018,-1.771 -3.49617,-1.771 -1.48601,0 -2.65649,0.5904 -3.51144,1.771 -0.84479,1.1705 -1.26718,2.7888 -1.26718,4.8549 0,2.0662 0.42239,3.6896 1.26718,4.8703 0.85495,1.1704 2.02543,1.7557 3.51144,1.7557 1.48599,0 2.65138,-0.5853 3.49617,-1.7557 0.85495,-1.1807 1.28243,-2.8041 1.28244,-4.8703"
         style="fill:#4d4d4d"
         id="path5781" />
      <path
         d="m 278.56148,1034.9728 0,8.3511 4.94655,0 c 1.65902,0 2.88548,-0.3409 3.67938,-1.0229 0.80406,-0.6921 1.20609,-1.7455 1.20611,-3.1603 -2e-5,-1.4249 -0.40205,-2.4732 -1.20611,-3.145 -0.7939,-0.6819 -2.02036,-1.0229 -3.67938,-1.0229 l -4.94655,0 m 0,-9.374 0,6.8702 4.56487,0 c 1.50635,0 2.62594,-0.2799 3.35877,-0.8397 0.74299,-0.57 1.11449,-1.4351 1.1145,-2.5954 -1e-5,-1.1501 -0.37151,-2.0102 -1.1145,-2.5802 -0.73283,-0.5699 -1.85242,-0.8549 -3.35877,-0.8549 l -4.56487,0 m -3.08396,-2.5344 7.87784,0 c 2.35113,10e-5 4.16282,0.4886 5.4351,1.4657 1.27225,0.9771 1.90838,2.3664 1.90839,4.1679 -10e-6,1.3944 -0.32571,2.5038 -0.97709,3.3282 -0.65142,0.8245 -1.60816,1.3385 -2.87023,1.542 1.51652,0.3257 2.69209,1.0077 3.52671,2.0458 0.84477,1.028 1.26716,2.3155 1.26718,3.8626 -2e-5,2.0356 -0.69213,3.6081 -2.07633,4.7176 -1.38424,1.1094 -3.3537,1.6641 -5.90839,1.6641 l -8.18318,0 0,-22.7939"
         style="fill:#4d4d4d"
         id="path5783" />
      <path
         d="m 296.79045,1028.7591 2.80915,0 0,17.0992 -2.80915,0 0,-17.0992 m 0,-6.6565 2.80915,0 0,3.5573 -2.80915,0 0,-3.5573"
         style="fill:#4d4d4d"
         id="path5785" />
      <path
         d="m 308.24079,1023.9041 0,4.855 5.78625,0 0,2.1832 -5.78625,0 0,9.2824 c 0,1.3944 0.18829,2.2901 0.56489,2.687 0.38676,0.397 1.16538,0.5954 2.33587,0.5954 l 2.88549,0 0,2.3512 -2.88549,0 c -2.16794,0 -3.66412,-0.4021 -4.48854,-1.2061 -0.82443,-0.8143 -1.23664,-2.2901 -1.23664,-4.4275 l 0,-9.2824 -2.06106,0 0,-2.1832 2.06106,0 0,-4.855 2.82442,0"
         style="fill:#4d4d4d"
         id="path5787" />
      <path
         d="m 330.04227,1029.4156 0,2.6259 c -0.79391,-0.4376 -1.59289,-0.7633 -2.39694,-0.9771 -0.7939,-0.2239 -1.59797,-0.3358 -2.41221,-0.3359 -1.82189,10e-5 -3.23664,0.5802 -4.24426,1.7405 -1.00764,1.1501 -1.51146,2.7684 -1.51145,4.8549 -1e-5,2.0866 0.50381,3.71 1.51145,4.8703 1.00762,1.1501 2.42237,1.7252 4.24426,1.7251 0.81424,10e-5 1.61831,-0.1068 2.41221,-0.3206 0.80405,-0.2239 1.60303,-0.5547 2.39694,-0.9923 l 0,2.5954 c -0.78373,0.3664 -1.59797,0.6412 -2.44274,0.8244 -0.83462,0.1832 -1.7252,0.2748 -2.67175,0.2748 -2.57507,0 -4.62086,-0.8091 -6.13739,-2.4275 -1.51654,-1.6183 -2.27481,-3.8015 -2.27481,-6.5496 0,-2.7887 0.76336,-4.9821 2.29008,-6.5801 1.53688,-1.5979 3.63866,-2.3969 6.30532,-2.3969 0.86513,0 1.70991,0.092 2.53435,0.2748 0.82441,0.173 1.62339,0.4377 2.39694,0.7939"
         style="fill:#4d4d4d"
         id="path5789" />
      <path
         d="m 341.52316,1030.7285 c -1.50636,10e-5 -2.6972,0.5904 -3.57251,1.771 -0.87532,1.1705 -1.31297,2.7787 -1.31297,4.8244 0,2.0458 0.43256,3.6591 1.29771,4.8397 0.87531,1.1705 2.07123,1.7558 3.58777,1.7557 1.49617,10e-5 2.68192,-0.5903 3.55725,-1.7709 0.8753,-1.1807 1.31296,-2.7888 1.31297,-4.8245 -10e-6,-2.0254 -0.43767,-3.6284 -1.31297,-4.8091 -0.87533,-1.1908 -2.06108,-1.7862 -3.55725,-1.7863 m 0,-2.3816 c 2.44273,0 4.3613,0.7939 5.75572,2.3816 1.39438,1.5878 2.09158,3.7863 2.09159,6.5954 -1e-5,2.799 -0.69721,4.9975 -2.09159,6.5954 -1.39442,1.5878 -3.31299,2.3817 -5.75572,2.3817 -2.45292,0 -4.37658,-0.7939 -5.77097,-2.3817 -1.38423,-1.5979 -2.07634,-3.7964 -2.07633,-6.5954 -10e-6,-2.8091 0.6921,-5.0076 2.07633,-6.5954 1.39439,-1.5877 3.31805,-2.3816 5.77097,-2.3816"
         style="fill:#4d4d4d"
         id="path5791" />
      <path
         d="m 354.01168,1028.7591 2.80916,0 0,17.0992 -2.80916,0 0,-17.0992 m 0,-6.6565 2.80916,0 0,3.5573 -2.80916,0 0,-3.5573"
         style="fill:#4d4d4d"
         id="path5793" />
      <path
         d="m 376.89713,1035.5377 0,10.3206 -2.80916,0 0,-10.229 c -10e-6,-1.6183 -0.31553,-2.8295 -0.94656,-3.6336 -0.63105,-0.804 -1.57762,-1.2061 -2.83969,-1.2061 -1.51654,0 -2.71247,0.4835 -3.58778,1.4504 -0.87532,0.9669 -1.31297,2.285 -1.31297,3.9542 l 0,9.6641 -2.82442,0 0,-17.0992 2.82442,0 0,2.6565 c 0.67175,-1.028 1.46055,-1.7965 2.36641,-2.3054 0.91602,-0.5089 1.96945,-0.7633 3.1603,-0.7633 1.96435,0 3.45035,0.6107 4.458,1.832 1.00761,1.2112 1.51143,2.9975 1.51145,5.3588"
         style="fill:#4d4d4d"
         id="path5795" />
      <path
         d="m 403.73675,1031.3545 0,-9.2519 2.80916,0 0,23.7557 -2.80916,0 0,-2.5649 c -0.59034,1.0178 -1.33843,1.7761 -2.24427,2.2748 -0.89568,0.4885 -1.97456,0.7328 -3.23663,0.7328 -2.06616,0 -3.75063,-0.8244 -5.05342,-2.4733 -1.29262,-1.6488 -1.93893,-3.8167 -1.93893,-6.5038 0,-2.687 0.64631,-4.8549 1.93893,-6.5038 1.30279,-1.6488 2.98726,-2.4732 5.05342,-2.4732 1.26207,0 2.34095,0.2493 3.23663,0.7481 0.90584,0.4885 1.65393,1.2417 2.24427,2.2595 m -9.57249,5.9694 c -1e-5,2.0662 0.42238,3.6896 1.26717,4.8703 0.85495,1.1704 2.02543,1.7557 3.51144,1.7557 1.48599,0 2.65647,-0.5853 3.51144,-1.7557 0.85495,-1.1807 1.28243,-2.8041 1.28244,-4.8703 -10e-6,-2.0661 -0.42749,-3.6844 -1.28244,-4.8549 -0.85497,-1.1806 -2.02545,-1.771 -3.51144,-1.771 -1.48601,0 -2.65649,0.5904 -3.51144,1.771 -0.84479,1.1705 -1.26718,2.7888 -1.26717,4.8549"
         style="fill:#4d4d4d"
         id="path5797" />
      <path
         d="m 426.95807,1036.6064 0,1.374 -12.916,0 c 0.12213,1.9339 0.70228,3.4097 1.74045,4.4275 1.04834,1.0076 2.5038,1.5115 4.3664,1.5114 1.07887,10e-5 2.12212,-0.1323 3.12977,-0.3969 1.01779,-0.2646 2.02542,-0.6616 3.02289,-1.1908 l 0,2.6564 c -1.00765,0.4275 -2.04072,0.7532 -3.09923,0.9771 -1.05853,0.224 -2.13232,0.3359 -3.22137,0.3359 -2.72773,0 -4.89058,-0.7939 -6.48853,-2.3817 -1.58778,-1.5877 -2.38168,-3.7353 -2.38167,-6.4427 -10e-6,-2.7989 0.75317,-5.0178 2.25953,-6.6565 1.51653,-1.6488 3.55724,-2.4732 6.12213,-2.4732 2.30023,0 4.11702,0.743 5.45036,2.229 1.3435,1.4758 2.01525,3.486 2.01527,6.0305 m -2.80916,-0.8244 c -0.0204,-1.5369 -0.45294,-2.7634 -1.2977,-3.6794 -0.83462,-0.916 -1.94403,-1.374 -3.32824,-1.3741 -1.56743,10e-5 -2.82443,0.4428 -3.77098,1.3283 -0.93639,0.8855 -1.47583,2.1323 -1.61832,3.7404 l 10.01524,-0.015"
         style="fill:#4d4d4d"
         id="path5799" />
      <path
         d="m 443.813,1029.4156 0,2.6259 c -0.79391,-0.4376 -1.59289,-0.7633 -2.39694,-0.9771 -0.79391,-0.2239 -1.59797,-0.3358 -2.41221,-0.3359 -1.82189,10e-5 -3.23664,0.5802 -4.24426,1.7405 -1.00764,1.1501 -1.51146,2.7684 -1.51145,4.8549 -10e-6,2.0866 0.50381,3.71 1.51145,4.8703 1.00762,1.1501 2.42237,1.7252 4.24426,1.7251 0.81424,10e-5 1.6183,-0.1068 2.41221,-0.3206 0.80405,-0.2239 1.60303,-0.5547 2.39694,-0.9923 l 0,2.5954 c -0.78373,0.3664 -1.59798,0.6412 -2.44274,0.8244 -0.83462,0.1832 -1.7252,0.2748 -2.67175,0.2748 -2.57507,0 -4.62086,-0.8091 -6.13739,-2.4275 -1.51654,-1.6183 -2.27481,-3.8015 -2.27481,-6.5496 0,-2.7887 0.76336,-4.9821 2.29007,-6.5801 1.53689,-1.5979 3.63866,-2.3969 6.30533,-2.3969 0.86513,0 1.70991,0.092 2.53435,0.2748 0.82441,0.173 1.62339,0.4377 2.39694,0.7939"
         style="fill:#4d4d4d"
         id="path5801" />
      <path
         d="m 463.29387,1036.6064 0,1.374 -12.916,0 c 0.12213,1.9339 0.70228,3.4097 1.74045,4.4275 1.04834,1.0076 2.5038,1.5115 4.3664,1.5114 1.07887,10e-5 2.12212,-0.1323 3.12977,-0.3969 1.01779,-0.2646 2.02542,-0.6616 3.02289,-1.1908 l 0,2.6564 c -1.00765,0.4275 -2.04072,0.7532 -3.09923,0.9771 -1.05853,0.224 -2.13232,0.3359 -3.22137,0.3359 -2.72773,0 -4.89057,-0.7939 -6.48853,-2.3817 -1.58778,-1.5877 -2.38168,-3.7353 -2.38167,-6.4427 -10e-6,-2.7989 0.75317,-5.0178 2.25953,-6.6565 1.51653,-1.6488 3.55724,-2.4732 6.12213,-2.4732 2.30023,0 4.11702,0.743 5.45036,2.229 1.3435,1.4758 2.01525,3.486 2.01527,6.0305 m -2.80916,-0.8244 c -0.0204,-1.5369 -0.45294,-2.7634 -1.2977,-3.6794 -0.83462,-0.916 -1.94403,-1.374 -3.32824,-1.3741 -1.56743,10e-5 -2.82443,0.4428 -3.77098,1.3283 -0.93639,0.8855 -1.47583,2.1323 -1.61832,3.7404 l 10.01524,-0.015"
         style="fill:#4d4d4d"
         id="path5803" />
      <path
         d="m 482.05719,1035.5377 0,10.3206 -2.80915,0 0,-10.229 c -2e-5,-1.6183 -0.31554,-2.8295 -0.94656,-3.6336 -0.63106,-0.804 -1.57762,-1.2061 -2.83969,-1.2061 -1.51655,0 -2.71247,0.4835 -3.58778,1.4504 -0.87532,0.9669 -1.31298,2.285 -1.31297,3.9542 l 0,9.6641 -2.82443,0 0,-17.0992 2.82443,0 0,2.6565 c 0.67174,-1.028 1.46054,-1.7965 2.3664,-2.3054 0.91602,-0.5089 1.96945,-0.7633 3.1603,-0.7633 1.96436,0 3.45036,0.6107 4.458,1.832 1.00762,1.2112 1.51143,2.9975 1.51145,5.3588"
         style="fill:#4d4d4d"
         id="path5805" />
      <path
         d="m 490.46936,1023.9041 0,4.855 5.78625,0 0,2.1832 -5.78625,0 0,9.2824 c 0,1.3944 0.18829,2.2901 0.56489,2.687 0.38676,0.397 1.16538,0.5954 2.33587,0.5954 l 2.88549,0 0,2.3512 -2.88549,0 c -2.16794,0 -3.66412,-0.4021 -4.48854,-1.2061 -0.82443,-0.8143 -1.23664,-2.2901 -1.23664,-4.4275 l 0,-9.2824 -2.06106,0 0,-2.1832 2.06106,0 0,-4.855 2.82442,0"
         style="fill:#4d4d4d"
         id="path5807" />
      <path
         d="m 509.8739,1031.385 c -0.31554,-0.1832 -0.66159,-0.3155 -1.03817,-0.3969 -0.36642,-0.092 -0.77354,-0.1374 -1.22137,-0.1374 -1.58779,0 -2.80916,0.5191 -3.66411,1.5572 -0.84479,1.028 -1.26718,2.5089 -1.26717,4.4428 l 0,9.0076 -2.82443,0 0,-17.0992 2.82443,0 0,2.6565 c 0.59032,-1.0382 1.35876,-1.8066 2.30533,-2.3054 0.94656,-0.5089 2.09668,-0.7633 3.45038,-0.7633 0.19337,0 0.40711,0.015 0.64122,0.046 0.23408,0.02 0.49362,0.056 0.77862,0.1068 l 0.0153,2.8855"
         style="fill:#4d4d4d"
         id="path5809" />
      <path
         d="m 520.62197,1037.2629 c -2.26973,0 -3.84224,0.2595 -4.71755,0.7786 -0.87532,0.5191 -1.31298,1.4046 -1.31297,2.6565 -10e-6,0.9974 0.32569,1.7913 0.97709,2.3817 0.66157,0.5801 1.55724,0.8702 2.68702,0.8702 1.55724,0 2.80405,-0.5496 3.74045,-1.6489 0.94655,-1.1094 1.41983,-2.5801 1.41984,-4.4122 l 0,-0.6259 -2.79388,0 m 5.60304,-1.1603 0,9.7557 -2.80916,0 0,-2.5954 c -0.64123,1.0381 -1.44021,1.8066 -2.39694,2.3053 -0.95675,0.4885 -2.12723,0.7328 -3.51144,0.7328 -1.75064,0 -3.14504,-0.4885 -4.1832,-1.4656 -1.02799,-0.9873 -1.54198,-2.3054 -1.54198,-3.9542 0,-1.9237 0.64122,-3.374 1.92366,-4.3511 1.29261,-0.9771 3.21627,-1.4657 5.77098,-1.4657 l 3.93892,0 0,-0.2748 c -10e-6,-1.2926 -0.42749,-2.2901 -1.28244,-2.9924 -0.84479,-0.7124 -2.03563,-1.0686 -3.57251,-1.0687 -0.9771,10e-5 -1.92875,0.1171 -2.85495,0.3512 -0.92621,0.2341 -1.8168,0.5852 -2.67175,1.0534 l 0,-2.5954 c 1.02798,-0.3969 2.02543,-0.6921 2.99236,-0.8855 0.96691,-0.2035 1.90838,-0.3053 2.82442,-0.3053 2.47326,0 4.32058,0.6412 5.54197,1.9236 1.22135,1.2825 1.83204,3.2265 1.83206,5.8321"
         style="fill:#4d4d4d"
         id="path5811" />
      <path
         d="m 532.08759,1022.1026 2.80916,0 0,23.7557 -2.80916,0 0,-23.7557"
         style="fill:#4d4d4d"
         id="path5813" />
      <path
         d="m 540.75932,1028.7591 2.80915,0 0,17.0992 -2.80915,0 0,-17.0992 m 0,-6.6565 2.80915,0 0,3.5573 -2.80915,0 0,-3.5573"
         style="fill:#4d4d4d"
         id="path5815" />
      <path
         d="m 548.2097,1028.7591 13.34348,0 0,2.5649 -10.56486,12.29 10.56486,0 0,2.2443 -13.72516,0 0,-2.5649 10.56486,-12.2901 -10.18318,0 0,-2.2442"
         style="fill:#4d4d4d"
         id="path5817" />
      <path
         d="m 580.48442,1036.6064 0,1.374 -12.916,0 c 0.12213,1.9339 0.70228,3.4097 1.74045,4.4275 1.04834,1.0076 2.5038,1.5115 4.3664,1.5114 1.07887,10e-5 2.12212,-0.1323 3.12977,-0.3969 1.01779,-0.2646 2.02542,-0.6616 3.02289,-1.1908 l 0,2.6564 c -1.00765,0.4275 -2.04072,0.7532 -3.09923,0.9771 -1.05853,0.224 -2.13232,0.3359 -3.22136,0.3359 -2.72774,0 -4.89058,-0.7939 -6.48854,-2.3817 -1.58778,-1.5877 -2.38167,-3.7353 -2.38167,-6.4427 0,-2.7989 0.75317,-5.0178 2.25953,-6.6565 1.51654,-1.6488 3.55724,-2.4732 6.12213,-2.4732 2.30023,0 4.11702,0.743 5.45037,2.229 1.34349,1.4758 2.01524,3.486 2.01526,6.0305 m -2.80915,-0.8244 c -0.0204,-1.5369 -0.45294,-2.7634 -1.29771,-3.6794 -0.83462,-0.916 -1.94403,-1.374 -3.32824,-1.3741 -1.56743,10e-5 -2.82443,0.4428 -3.77098,1.3283 -0.93639,0.8855 -1.47583,2.1323 -1.61832,3.7404 l 10.01525,-0.015"
         style="fill:#4d4d4d"
         id="path5819" />
      <path
         d="m 596.28592,1031.3545 0,-9.2519 2.80915,0 0,23.7557 -2.80915,0 0,-2.5649 c -0.59034,1.0178 -1.33843,1.7761 -2.24427,2.2748 -0.89568,0.4885 -1.97456,0.7328 -3.23663,0.7328 -2.06616,0 -3.75064,-0.8244 -5.05343,-2.4733 -1.29262,-1.6488 -1.93893,-3.8167 -1.93892,-6.5038 -10e-6,-2.687 0.6463,-4.8549 1.93892,-6.5038 1.30279,-1.6488 2.98727,-2.4732 5.05343,-2.4732 1.26207,0 2.34095,0.2493 3.23663,0.7481 0.90584,0.4885 1.65393,1.2417 2.24427,2.2595 m -9.5725,5.9694 c 0,2.0662 0.42239,3.6896 1.26717,4.8703 0.85496,1.1704 2.02544,1.7557 3.51145,1.7557 1.48599,0 2.65647,-0.5853 3.51144,-1.7557 0.85494,-1.1807 1.28242,-2.8041 1.28244,-4.8703 -2e-5,-2.0661 -0.4275,-3.6844 -1.28244,-4.8549 -0.85497,-1.1806 -2.02545,-1.771 -3.51144,-1.771 -1.48601,0 -2.65649,0.5904 -3.51145,1.771 -0.84478,1.1705 -1.26717,2.7888 -1.26717,4.8549"
         style="fill:#4d4d4d"
         id="path5821" />
    </g>
    <g
       transform="matrix(1278.4214,0,0,1278.4214,62.792912,928.01831)"
       id="g21737">
      <g
         transform="matrix(0.81109867,0,0,0.81109867,0.06721753,0.01179634)"
         id="text3882"
         style="font-size:0.06686545px;font-style:normal;font-variant:normal;font-weight:normal;font-stretch:normal;text-align:start;line-height:125%;letter-spacing:0px;word-spacing:0px;writing-mode:lr-tb;text-anchor:start;fill:#b3b3b3;fill-opacity:1;stroke:none;font-family:Sans;-inkscape-font-specification:Sans">
        <path
           inkscape:connector-curvature="0"
           id="path4260"
           d="m 0.00800291,0.04071128 0,0.01785909 0.01057832,0 c 0.0035478,0 0.0061707,-7.2916e-4 0.0078684,-0.0021875 0.0017195,-0.0014801 0.0025793,-0.0037329 0.0025793,-0.0067584 -3e-8,-0.0030472 -8.5979e-4,-0.0052891 -0.0025793,-0.0067257 -0.0016978,-0.0014583 -0.0043206,-0.0021875 -0.0078684,-0.0021875 l -0.01057832,0 m 0,-0.02004657 0,0.01469211 0.0097621,0 c 0.0032213,3e-8 0.0056156,-5.9854e-4 0.0071828,-0.0017957 0.0015889,-0.0012189 0.0023833,-0.003069 0.0023834,-0.0055504 -4e-8,-0.0024595 -7.945e-4,-0.0042988 -0.0023834,-0.0055177 -0.0015672,-0.0012189 -0.0039615,-0.0018283 -0.0071828,-0.0018283 l -0.0097621,0 m -0.00659513,-0.0054198 0.01684696,0 c 0.0050279,5e-8 0.0089023,0.0010448 0.0116231,0.0031343 0.0027207,0.0020896 0.0040811,0.0050607 0.0040811,0.0089132 -4e-8,0.002982 -6.9655e-4,0.0053545 -0.0020895,0.0071175 -0.0013931,0.0017631 -0.0034391,0.0028623 -0.006138,0.0032976 0.0032431,6.9654e-4 0.0057571,0.0021549 0.0075419,0.004375 0.0018065,0.0021984 0.0027098,0.0049518 0.0027099,0.0082602 -4e-8,0.0043532 -0.0014801,0.0077161 -0.0044403,0.01008859 C 0.02858274,0.0628038 0.02437094,0.06399 0.01890772,0.06399 l -0.01749995,0 0,-0.04874517" />
        <path
           inkscape:connector-curvature="0"
           id="path4262"
           d="m 0.04698599,0.02742308 0.0060075,0 0,0.03656704 -0.0060075,0 0,-0.03656704 m 0,-0.01423503 0.0060075,0 0,0.0076072 -0.0060075,0 0,-0.0076072" />
        <path
           inkscape:connector-curvature="0"
           id="path4264"
           d="m 0.07147285,0.01704065 0,0.01038243 0.01237403,0 0,0.0046688 -0.01237403,0 0,0.01985068 c -1e-8,0.002982 4.0266e-4,0.0048974 0.001208,0.0057463 8.271e-4,8.4888e-4 0.0024922,0.0012733 0.0049953,0.0012733 l 0.0061707,0 0,0.005028 -0.0061707,0 c -0.0046362,0 -0.0078358,-8.5976e-4 -0.0095989,-0.0025793 -0.0017631,-0.0017413 -0.0026446,-0.0048974 -0.0026446,-0.0094683 l 0,-0.01985068 -0.0044076,0 0,-0.0046688 0.0044076,0 0,-0.01038243 0.0060401,0" />
        <path
           inkscape:connector-curvature="0"
           id="path4266"
           d="m 0.11809584,0.02882699 0,0.0056157 c -0.001698,-9.3592e-4 -0.003406,-0.0016324 -0.005126,-0.0020895 -0.001698,-4.7882e-4 -0.003417,-7.1825e-4 -0.005159,-7.1828e-4 -0.003896,3e-8 -0.006922,0.0012407 -0.0090765,0.003722 -0.0021549,0.0024596 -0.0032323,0.0059204 -0.0032323,0.01038243 -10e-9,0.0044621 0.0010774,0.0079337 0.0032323,0.01041508 0.0021548,0.0024596 0.0051803,0.0036894 0.0090765,0.0036894 0.001741,1e-8 0.003461,-2.2854e-4 0.005159,-6.8563e-4 0.001719,-4.7885e-4 0.003428,-0.0011862 0.005126,-0.0021222 l 0,0.0055504 c -0.001676,7.8358e-4 -0.003417,0.0013713 -0.005224,0.0017631 -0.001785,3.9179e-4 -0.003689,5.8769e-4 -0.005714,5.8769e-4 -0.005507,0 -0.0098818,-0.0017304 -0.01312496,-0.0051912 -0.0032432,-0.0034608 -0.0048647,-0.0081296 -0.0048647,-0.01400648 0,-0.0059639 0.0016325,-0.01065448 0.0048974,-0.01407178 0.0032867,-0.0034172 0.0077814,-0.0051259 0.0134841,-0.0051259 0.00185,4e-8 0.003657,1.9593e-4 0.00542,5.8769e-4 0.001763,3.7006e-4 0.003472,9.3598e-4 0.005126,0.0016978" />
        <path
           inkscape:connector-curvature="0"
           id="path4268"
           d="m 0.14264799,0.03163482 c -0.003221,3e-8 -0.005768,0.0012625 -0.00764,0.0037873 -0.001872,0.0025031 -0.002808,0.0059422 -0.002808,0.01031713 -10e-9,0.004375 9.2505e-4,0.0078249 0.002775,0.01034978 0.001872,0.0025031 0.004429,0.0037547 0.007673,0.0037547 0.0032,1e-8 0.005735,-0.0012624 0.007607,-0.0037873 0.001872,-0.0025249 0.002808,-0.0059639 0.002808,-0.01031713 -3e-8,-0.0043314 -9.3597e-4,-0.0077596 -0.002808,-0.01028448 -0.001872,-0.0025466 -0.004408,-0.0038199 -0.007607,-0.0038199 m 0,-0.0050933 c 0.005224,4e-8 0.009327,0.0016978 0.0123087,0.0050933 0.002982,0.0033955 0.004473,0.008097 0.004473,0.01410443 -4e-8,0.0059857 -0.001491,0.01068716 -0.004473,0.01410443 -0.002982,0.0033955 -0.007085,0.0050933 -0.0123087,0.0050933 -0.005246,0 -0.009359,-0.0016978 -0.0123414,-0.0050933 -0.00296,-0.0034173 -0.00444,-0.0081187 -0.00444,-0.01410443 0,-0.0060074 0.00148,-0.01070889 0.00444,-0.01410443 0.002982,-0.0033955 0.007096,-0.0050932 0.0123414,-0.0050933" />
        <path
           inkscape:connector-curvature="0"
           id="path4270"
           d="m 0.169355,0.02742308 0.006007,0 0,0.03656704 -0.006007,0 0,-0.03656704 m 0,-0.01423503 0.006007,0 0,0.0076072 -0.006007,0 0,-0.0076072" />
        <path
           inkscape:connector-curvature="0"
           id="path4272"
           d="m 0.21829607,0.0419193 0,0.02207082 -0.006007,0 0,-0.02187492 c -3e-8,-0.0034608 -6.7478e-4,-0.006051 -0.002024,-0.0077705 -0.00135,-0.0017195 -0.003374,-0.0025792 -0.006073,-0.0025793 -0.003243,3e-8 -0.005801,0.0010339 -0.007673,0.0031017 -0.001872,0.0020678 -0.002808,0.0048865 -0.002808,0.0084561 l 0,0.02066691 -0.00604,0 0,-0.03656704 0.00604,0 0,0.005681 c 0.001437,-0.0021983 0.003123,-0.0038417 0.005061,-0.00493 0.001959,-0.0010883 0.004212,-0.0016324 0.006758,-0.0016325 0.004201,4e-8 0.007379,0.001306 0.009534,0.0039179 0.002155,0.0025902 0.003232,0.0064101 0.003232,0.01145985" />
      </g>
      <g
         transform="matrix(0.81109867,0,0,0.81109867,0.07038589,0.01179634)"
         id="text3886"
         style="font-size:0.06686545px;font-style:normal;font-variant:normal;font-weight:normal;font-stretch:normal;text-align:start;line-height:125%;letter-spacing:0px;word-spacing:0px;writing-mode:lr-tb;text-anchor:start;fill:#666666;fill-opacity:1;stroke:none;font-family:Sans;-inkscape-font-specification:Sans">
        <path
           inkscape:connector-curvature="0"
           id="path4251"
           d="m 0.26247592,0.01841191 0,0.0069543 c -0.00222,-0.0020677 -0.004593,-0.0036131 -0.007118,-0.0046362 -0.002503,-0.001023 -0.005169,-0.0015345 -0.007999,-0.0015345 -0.005572,5e-8 -0.009838,0.0017087 -0.0127985,0.0051259 -0.00296,0.0033955 -0.00444,0.0083147 -0.00444,0.01475741 -10e-9,0.006421 0.00148,0.01134015 0.00444,0.01475742 0.00296,0.0033955 0.007226,0.0050933 0.0127985,0.0050933 0.00283,10e-9 0.005496,-5.1149e-4 0.007999,-0.0015345 0.002525,-0.001023 0.004897,-0.0025684 0.007118,-0.0046362 l 0,0.006889 c -0.002307,0.0015672 -0.004756,0.0027425 -0.007346,0.0035261 -0.002568,7.8358e-4 -0.005289,0.0011754 -0.008162,0.0011754 -0.007379,0 -0.0131903,-0.0022528 -0.0174346,-0.0067584 -0.004244,-0.0045273 -0.006367,-0.01069802 -0.006367,-0.01851207 0,-0.0078358 0.002122,-0.01400644 0.006367,-0.01851206 0.004244,-0.0045273 0.0100559,-0.006791 0.0174346,-0.006791 0.002917,5e-8 0.005659,3.9184e-4 0.008228,0.0011754 0.00259,7.6186e-4 0.005017,0.0019155 0.007281,0.0034608" />
        <path
           inkscape:connector-curvature="0"
           id="path4253"
           d="m 0.28663629,0.03104713 c -0.003221,4e-8 -0.005768,0.0012625 -0.00764,0.0037873 -0.001872,0.0025031 -0.002808,0.0059422 -0.002808,0.01031713 -10e-9,0.004375 9.2504e-4,0.0078249 0.002775,0.01034978 0.001872,0.0025031 0.004429,0.0037547 0.007673,0.0037547 0.0032,0 0.005735,-0.0012624 0.007607,-0.0037873 0.001872,-0.0025249 0.002808,-0.0059639 0.002808,-0.01031713 -3e-8,-0.0043314 -9.3597e-4,-0.0077596 -0.002808,-0.01028448 -0.001872,-0.0025466 -0.004408,-0.0038199 -0.007607,-0.00382 m 0,-0.0050933 c 0.005224,3e-8 0.009327,0.0016978 0.0123087,0.0050933 0.002982,0.0033955 0.004473,0.008097 0.004473,0.01410443 -3e-8,0.0059857 -0.001491,0.01068717 -0.004473,0.01410444 -0.002982,0.0033955 -0.007085,0.0050933 -0.0123087,0.0050933 -0.005246,0 -0.009359,-0.0016978 -0.0123414,-0.0050933 -0.00296,-0.0034173 -0.00444,-0.0081188 -0.00444,-0.01410444 0,-0.0060074 0.00148,-0.01070889 0.00444,-0.01410443 0.002982,-0.0033955 0.007096,-0.0050932 0.0123414,-0.0050933" />
        <path
           inkscape:connector-curvature="0"
           id="path4255"
           d="m 0.33453259,0.03245105 c -6.7477e-4,-3.9176e-4 -0.001415,-6.7472e-4 -0.00222,-8.4888e-4 -7.836e-4,-1.9586e-4 -0.001654,-2.9381e-4 -0.002612,-2.9384e-4 -0.003396,3e-8 -0.006007,0.0011101 -0.007836,0.0033302 -0.001807,0.0021984 -0.00271,0.0053654 -0.00271,0.0095009 l 0,0.019263 -0.00604,0 0,-0.03656705 0.00604,0 0,0.0056809 c 0.001262,-0.0022201 0.002906,-0.0038634 0.00493,-0.00493 0.002024,-0.0010883 0.004484,-0.0016324 0.007379,-0.0016325 4.1353e-4,3e-8 8.7062e-4,3.268e-5 0.001371,9.794e-5 5.0059e-4,4.357e-5 0.001056,1.1975e-4 0.001665,2.2855e-4 l 3.265e-5,0.0061707" />
        <path
           inkscape:connector-curvature="0"
           id="path4257"
           d="m 0.37074049,0.04361705 0,0.0029384 -0.0276212,0 c 2.6119e-4,0.0041356 0.001502,0.0072916 0.003722,0.0094682 0.002242,0.0021549 0.005354,0.0032323 0.009338,0.0032323 0.002307,0 0.004538,-2.8296e-4 0.006693,-8.4888e-4 0.002177,-5.6592e-4 0.004331,-0.0014148 0.006465,-0.0025466 l 0,0.005681 c -0.002155,9.1417e-4 -0.004364,0.0016107 -0.006628,0.0020895 -0.002264,4.7885e-4 -0.00456,7.1828e-4 -0.006889,7.1828e-4 -0.005833,0 -0.0104586,-0.0016978 -0.0138759,-0.0050933 -0.003396,-0.0033955 -0.005093,-0.0079882 -0.005093,-0.01377794 -10e-9,-0.0059857 0.001611,-0.01073066 0.004832,-0.01423503 0.003243,-0.0035261 0.007607,-0.0052891 0.0130923,-0.0052892 0.004919,3e-8 0.008804,0.001589 0.0116557,0.0047668 0.002873,0.0031561 0.00431,0.0074549 0.00431,0.01289641 m -0.006007,-0.001763 c -4.356e-5,-0.0032867 -9.6862e-4,-0.0059095 -0.002775,-0.0078684 -0.001785,-0.0019589 -0.004157,-0.0029384 -0.007118,-0.0029384 -0.003352,4e-8 -0.00604,9.4686e-4 -0.008064,0.0028405 -0.002002,0.0018937 -0.003156,0.00456 -0.003461,0.007999 l 0.0214178,-3.265e-5" />
      </g>
      <g
         id="g21709">
        <path
           d="M 0.05771683,0.04917282 C 0.05380341,0.06486939 0.03790546,0.0744221 0.02220707,0.07050779 0.00651509,0.06659438 -0.00303763,0.05069553 8.7759387e-4,0.03499988 0.00478915,0.01930148 0.02068712,0.00974784 0.03638093,0.01366123 c 0.01569748,0.0039135 0.02524929,0.01981414 0.0213359,0.03551159 z"
           id="path8"
           inkscape:connector-curvature="0"
           style="fill:#f7931a" />
        <path
           d="m 0.04221073,0.03896188 c 5.8326e-4,-0.0038986 -0.0023851,-0.0059947 -0.0064442,-0.0073928 l 0.0013166,-0.0052814 -0.0032147,-8.0118e-4 -0.0012819,0.0051422 c -8.4514e-4,-2.1059e-4 -0.001713,-4.0928e-4 -0.0025756,-6.0613e-4 l 0.0012909,-0.0051761 -0.0032129,-8.0118e-4 -0.0013177,0.0052795 C 0.02607188,0.02916548 0.02538523,0.029008 0.02471859,0.02884227 l 3.6e-6,-1.648e-5 -0.0044335,-0.001107 -8.5516e-4,0.0034336 c 0,0 0.0023851,5.4664e-4 0.0023348,5.8052e-4 0.001302,3.2504e-4 0.0015373,0.0011866 0.0014981,0.0018697 l -0.0014997,0.0060165 c 8.973e-5,2.289e-5 2.0602e-4,5.586e-5 3.342e-4,1.0712e-4 -1.0713e-4,-2.655e-5 -2.2158e-4,-5.585e-5 -3.397e-4,-8.423e-5 l -0.0021023,0.0084282 c -1.5933e-4,3.9553e-4 -5.6312e-4,9.8884e-4 -0.0014731,7.6362e-4 3.204e-5,4.671e-5 -0.0023366,-5.8324e-4 -0.0023366,-5.8324e-4 l -0.0015958,0.0036798 0.0041836,0.001043 c 7.7825e-4,1.9503e-4 0.001541,3.9919e-4 0.0022918,5.9148e-4 l -0.0013303,0.0053418 0.003211,8.0119e-4 0.0013176,-0.005285 c 8.7719e-4,2.3806e-4 0.0017286,4.5781e-4 0.0025619,6.6474e-4 l -0.0013132,0.0052604 0.0032148,8.014e-4 0.0013303,-0.0053318 c 0.0054819,0.0010373 0.0096039,6.1897e-4 0.01133911,-0.0043391 0.0013982,-0.003992 -6.961e-5,-0.0062948 -0.0029539,-0.0077965 0.0021004,-4.8438e-4 0.0036826,-0.001866 0.0041048,-0.0047201 z m -0.0073451,0.01029989 c -9.9344e-4,0.003992 -0.0077151,0.001834 -0.0098943,0.0012929 l 0.0017653,-0.0070769 c 0.002179,5.4389e-4 0.0091672,0.0016206 0.0081288,0.0057841 z m 9.9434e-4,-0.01035758 c -9.0647e-4,0.0036313 -0.0065008,0.0017863 -0.0083157,0.001334 l 0.0016005,-0.0064185 c 0.0018147,4.5234e-4 0.0076591,0.0012964 0.0067151,0.0050845 z"
           id="path10"
           inkscape:connector-curvature="0"
           style="fill:#ffffff" />
      </g>
    </g>
  </g>
</svg>
