<?xml version="1.0" encoding="UTF-8"?>
<svg width="23px" height="23px" viewBox="0 0 23 23" version="1.1" xmlns="http://www.w3.org/2000/svg" xmlns:xlink="http://www.w3.org/1999/xlink">
    <!-- Generator: Sketch 49 (51002) - http://www.bohemiancoding.com/sketch -->
    <title>icon/features</title>
    <desc>Created with Sketch.</desc>
    <defs></defs>
    <g id="Bitcoin-Core" stroke="none" stroke-width="1" fill="none" fill-rule="evenodd">
        <g id="Bitcoin.org---Bitcoin-core--Desktop" transform="translate(-239.000000, -758.000000)">
            <g id="//Content" transform="translate(215.000000, 543.000000)">
                <g id="Features" transform="translate(0.000000, 196.000000)">
                    <g id="icon/features" transform="translate(20.000000, 15.000000)">
                        <path d="M22.5217391,15 C22.6512688,15 22.76336,15.0494787 22.8580163,15.1484375 C22.9526726,15.2473963 23,15.3645827 23,15.5 C23,15.6354173 22.9526726,15.7526037 22.8580163,15.8515625 C22.76336,15.9505213 22.6512688,16 22.5217391,16 L12.4782609,16 C12.3487312,16 12.23664,15.9505213 12.1419837,15.8515625 C12.0473274,15.7526037 12,15.6354173 12,15.5 C12,15.3645827 12.0473274,15.2473963 12.1419837,15.1484375 C12.23664,15.0494787 12.3487312,15 12.4782609,15 L22.5217391,15 Z M22.5217391,19 C22.6512688,19 22.76336,19.0494787 22.8580163,19.1484375 C22.9526726,19.2473963 23,19.3645827 23,19.5 C23,19.6354173 22.9526726,19.7526037 22.8580163,19.8515625 C22.76336,19.9505213 22.6512688,20 22.5217391,20 L12.4782609,20 C12.3487312,20 12.23664,19.9505213 12.1419837,19.8515625 C12.0473274,19.7526037 12,19.6354173 12,19.5 C12,19.3645827 12.0473274,19.2473963 12.1419837,19.1484375 C12.23664,19.0494787 12.3487312,19 12.4782609,19 L22.5217391,19 Z M12.4782609,12 C12.3487312,12 12.23664,11.9505213 12.1419837,11.8515625 C12.0473274,11.7526037 12,11.6354173 12,11.5 C12,11.3645827 12.0473274,11.2473963 12.1419837,11.1484375 C12.23664,11.0494787 12.3487312,11 12.4782609,11 L22.5217391,11 C22.6512688,11 22.76336,11.0494787 22.8580163,11.1484375 C22.9526726,11.2473963 23,11.3645827 23,11.5 C23,11.6354173 22.9526726,11.7526037 22.8580163,11.8515625 C22.76336,11.9505213 22.6512688,12 22.5217391,12 L12.4782609,12 Z M9,11 L10,11 L10,12 L9,12 L9,11 Z M9,19 L10,19 L10,20 L9,20 L9,19 Z M9,15 L10,15 L10,16 L9,16 L9,15 Z" id="List---simple-line-icons" fill="#F7931A"></path>
                        <path d="M15.5,27 C9.14872538,27 4,21.8512746 4,15.5 C4,9.14872538 9.14872538,4 15.5,4 C21.8512746,4 27,9.14872538 27,15.5 C27,21.8512746 21.8512746,27 15.5,27 Z M15.5,26 C21.2989899,26 26,21.2989899 26,15.5 C26,9.70101013 21.2989899,5 15.5,5 C9.70101013,5 5,9.70101013 5,15.5 C5,21.2989899 9.70101013,26 15.5,26 Z" id="Oval-3" fill="#95AABF" fill-rule="nonzero"></path>
                    </g>
                </g>
            </g>
        </g>
    </g>
</svg>