<?xml version="1.0" encoding="UTF-8"?>
<svg width="24px" height="24px" viewBox="0 0 24 24" version="1.1" xmlns="http://www.w3.org/2000/svg" xmlns:xlink="http://www.w3.org/1999/xlink">
    <!-- Generator: Sketch 49 (51002) - http://www.bohemiancoding.com/sketch -->
    <title>icon/get help</title>
    <desc>Created with Sketch.</desc>
    <defs></defs>
    <g id="Bitcoin-Core" stroke="none" stroke-width="1" fill="none" fill-rule="evenodd">
        <g id="Bitcoin.org---Bitcoin-core--Desktop" transform="translate(-238.000000, -882.000000)">
            <g id="//Content" transform="translate(215.000000, 543.000000)">
                <g id="Get-help" transform="translate(0.000000, 321.000000)">
                    <g id="icon/get-help" transform="translate(20.000000, 15.000000)">
                        <path d="M15,26.5 C8.64872538,26.5 3.5,21.3512746 3.5,15 C3.5,8.64872538 8.64872538,3.5 15,3.5 C21.3512746,3.5 26.5,8.64872538 26.5,15 C26.5,21.3512746 21.3512746,26.5 15,26.5 Z M15,25.5 C20.7989899,25.5 25.5,20.7989899 25.5,15 C25.5,9.20101013 20.7989899,4.5 15,4.5 C9.20101013,4.5 4.5,9.20101013 4.5,15 C4.5,20.7989899 9.20101013,25.5 15,25.5 Z" id="Oval-3" fill="#95AABF" fill-rule="nonzero"></path>
                        <path d="M19.12,11.16 C19.12,12.026671 19.0033345,12.6833311 18.77,13.13 C18.5366655,13.5766689 18.0633369,14.0966637 17.35,14.69 C16.6366631,15.2833363 16.146668,15.7566649 15.88,16.11 C15.613332,16.4633351 15.48,16.8533312 15.48,17.28 L15.48,17.98 L14.22,17.98 C14.0466658,17.6199982 13.96,17.2133356 13.96,16.76 C13.96,16.3066644 14.1133318,15.8833353 14.42,15.49 C14.7266682,15.0966647 15.2199966,14.6066696 15.9,14.02 C16.5800034,13.4333304 17.0333322,12.9666684 17.26,12.62 C17.4866678,12.2733316 17.6,11.7900031 17.6,11.17 C17.6,10.5499969 17.3866688,10.0866682 16.96,9.78 C16.5333312,9.4733318 15.8600046,9.32 14.94,9.32 C14.3533304,9.32 13.493339,9.4399988 12.36,9.68 L11.84,9.78 L11.74,8.56 C13.0866734,8.159998 14.1999956,7.96 15.08,7.96 C16.4533402,7.96 17.4699967,8.2099975 18.13,8.71 C18.7900033,9.2100025 19.12,10.026661 19.12,11.16 Z M14,21.98 L14,19.74 L15.64,19.74 L15.64,21.98 L14,21.98 Z" id="Paragraph" fill="#F7931A"></path>
                    </g>
                </g>
            </g>
        </g>
    </g>
</svg>