<?xml version="1.0" encoding="UTF-8" standalone="no"?>
<!-- Created with Inkscape (http://www.inkscape.org/) -->

<svg
   xmlns:dc="http://purl.org/dc/elements/1.1/"
   xmlns:cc="http://creativecommons.org/ns#"
   xmlns:rdf="http://www.w3.org/1999/02/22-rdf-syntax-ns#"
   xmlns:svg="http://www.w3.org/2000/svg"
   xmlns="http://www.w3.org/2000/svg"
   xmlns:sodipodi="http://sodipodi.sourceforge.net/DTD/sodipodi-0.dtd"
   xmlns:inkscape="http://www.inkscape.org/namespaces/inkscape"
   width="600"
   height="100"
   id="svg2"
   version="1.1"
   inkscape:version="0.48.5 r10040"
   sodipodi:docname="history-of-bitcoin.svg">
  <defs
     id="defs4">
    <inkscape:path-effect
       effect="spiro"
       id="path-effect3111"
       is_visible="true" />
    <inkscape:path-effect
       effect="spiro"
       id="path-effect3107"
       is_visible="true" />
  </defs>
  <sodipodi:namedview
     id="base"
     pagecolor="#ffffff"
     bordercolor="#666666"
     borderopacity="1.0"
     inkscape:pageopacity="0.0"
     inkscape:pageshadow="2"
     inkscape:zoom="2.8284271"
     inkscape:cx="141.4036"
     inkscape:cy="57.413579"
     inkscape:document-units="px"
     inkscape:current-layer="layer1"
     showgrid="false"
     fit-margin-top="0"
     fit-margin-left="0"
     fit-margin-right="0"
     fit-margin-bottom="0"
     inkscape:window-width="1438"
     inkscape:window-height="862"
     inkscape:window-x="0"
     inkscape:window-y="0"
     inkscape:window-maximized="0" />
  <metadata
     id="metadata7">
    <rdf:RDF>
      <cc:Work
         rdf:about="">
        <dc:format>image/svg+xml</dc:format>
        <dc:type
           rdf:resource="http://purl.org/dc/dcmitype/StillImage" />
        <dc:title></dc:title>
      </cc:Work>
    </rdf:RDF>
  </metadata>
  <g
     inkscape:label="Layer 1"
     inkscape:groupmode="layer"
     id="layer1"
     transform="translate(-4,-851.48913)">
    <g
       id="g4317">
      <path
         inkscape:connector-curvature="0"
         style="fill:#000000;fill-opacity:1;fill-rule:nonzero;stroke:none"
         d="m 59.237305,863.42565 c 0,6.35127 -5.148725,11.5 -11.5,11.5 -6.351275,0 -11.5,-5.14873 -11.5,-11.5 0,-6.35127 5.148725,-11.5 11.5,-11.5 6.351275,0 11.5,5.14873 11.5,11.5 z"
         id="path2985" />
      <g
         transform="translate(3,-0.43652787)"
         style="font-size:20px;font-style:normal;font-weight:normal;text-align:center;line-height:125%;letter-spacing:0px;word-spacing:0px;text-anchor:middle;fill:#000000;fill-opacity:1;stroke:none;font-family:Sans"
         id="text2987">
        <path
           inkscape:connector-curvature="0"
           d="m 22.144531,899.54578 6.884766,0 0,1.66015 -9.257813,0 0,-1.66015 c 0.748696,-0.77474 1.767575,-1.81315 3.056641,-3.11524 1.295567,-1.30859 2.109368,-2.15168 2.441406,-2.52929 0.631503,-0.70963 1.070956,-1.30859 1.31836,-1.79688 0.253897,-0.49478 0.38085,-0.97981 0.380859,-1.45508 -9e-6,-0.77473 -0.273446,-1.40624 -0.820313,-1.89453 -0.540371,-0.48827 -1.246751,-0.73241 -2.11914,-0.73242 -0.618495,10e-6 -1.272791,0.10743 -1.962891,0.32226 -0.683597,0.21486 -1.416018,0.54038 -2.197265,0.97657 l 0,-1.99219 c 0.794268,-0.319 1.536455,-0.55988 2.226562,-0.72266 0.6901,-0.16274 1.32161,-0.24412 1.894531,-0.24414 1.51041,2e-5 2.714836,0.37762 3.613282,1.13282 0.898427,0.75522 1.347645,1.76433 1.347656,3.02734 -1.1e-5,0.59897 -0.113943,1.16863 -0.341797,1.70898 -0.221364,0.53387 -0.628265,1.16538 -1.220703,1.89453 -0.162769,0.18881 -0.680347,0.73569 -1.552735,1.64063 -0.872402,0.89844 -2.10287,2.15821 -3.691406,3.7793"
           id="path4095" />
        <path
           inkscape:connector-curvature="0"
           d="m 37.398437,887.92468 c -1.01563,2e-5 -1.780603,0.50132 -2.294921,1.50391 -0.507816,0.9961 -0.761722,2.49675 -0.761719,4.50195 -3e-6,1.99871 0.253903,3.49935 0.761719,4.50196 0.514318,0.99609 1.279291,1.49414 2.294921,1.49414 1.022129,0 1.787102,-0.49805 2.294922,-1.49414 0.514314,-1.00261 0.771475,-2.50325 0.771485,-4.50196 -10e-6,-2.0052 -0.257171,-3.50585 -0.771485,-4.50195 -0.50782,-1.00259 -1.272793,-1.50389 -2.294922,-1.50391 m 0,-1.5625 c 1.634107,2e-5 2.880851,0.6478 3.740235,1.94336 0.865874,1.28908 1.298817,3.16407 1.298828,5.625 -1.1e-5,2.45443 -0.432954,4.32943 -1.298828,5.625 -0.859384,1.28906 -2.106128,1.9336 -3.740235,1.9336 -1.634119,0 -2.884118,-0.64454 -3.75,-1.9336 -0.859376,-1.29557 -1.289063,-3.17057 -1.289062,-5.625 -10e-7,-2.46093 0.429686,-4.33592 1.289062,-5.625 0.865882,-1.29556 2.115881,-1.94334 3.75,-1.94336"
           id="path4097" />
        <path
           inkscape:connector-curvature="0"
           d="m 50.132812,887.92468 c -1.01563,2e-5 -1.780603,0.50132 -2.294921,1.50391 -0.507816,0.9961 -0.761722,2.49675 -0.761719,4.50195 -3e-6,1.99871 0.253903,3.49935 0.761719,4.50196 0.514318,0.99609 1.279291,1.49414 2.294921,1.49414 1.022129,0 1.787102,-0.49805 2.294922,-1.49414 0.514314,-1.00261 0.771475,-2.50325 0.771485,-4.50196 -10e-6,-2.0052 -0.257171,-3.50585 -0.771485,-4.50195 -0.50782,-1.00259 -1.272793,-1.50389 -2.294922,-1.50391 m 0,-1.5625 c 1.634107,2e-5 2.880851,0.6478 3.740235,1.94336 0.865874,1.28908 1.298817,3.16407 1.298828,5.625 -1.1e-5,2.45443 -0.432954,4.32943 -1.298828,5.625 -0.859384,1.28906 -2.106128,1.9336 -3.740235,1.9336 -1.634119,0 -2.884118,-0.64454 -3.75,-1.9336 -0.859376,-1.29557 -1.289063,-3.17057 -1.289062,-5.625 -10e-7,-2.46093 0.429686,-4.33592 1.289062,-5.625 0.865882,-1.29556 2.115881,-1.94334 3.75,-1.94336"
           id="path4099" />
        <path
           inkscape:connector-curvature="0"
           d="m 58.707031,900.9032 0,-1.79688 c 0.494789,0.23438 0.996091,0.41342 1.503906,0.53711 0.507809,0.1237 1.005855,0.18555 1.494141,0.18555 1.302077,0 2.294915,-0.4362 2.978516,-1.30859 0.690095,-0.87891 1.083975,-2.21029 1.18164,-3.99414 -0.377613,0.5599 -0.856128,0.98958 -1.435547,1.28906 -0.579434,0.29948 -1.220709,0.44922 -1.923828,0.44922 -1.458337,0 -2.613935,-0.43945 -3.466797,-1.31836 -0.846355,-0.88541 -1.269532,-2.09309 -1.269531,-3.62305 -10e-7,-1.49738 0.442707,-2.69856 1.328125,-3.60352 0.885413,-0.90493 2.063798,-1.3574 3.535156,-1.35742 1.686191,2e-5 2.971997,0.6478 3.857422,1.94336 0.891917,1.28908 1.33788,3.16407 1.337891,5.625 -1.1e-5,2.29818 -0.546886,4.13412 -1.640625,5.50781 -1.087248,1.36719 -2.55209,2.05079 -4.394531,2.05079 -0.494797,0 -0.996098,-0.0488 -1.503907,-0.14649 -0.507815,-0.0977 -1.035158,-0.24414 -1.582031,-0.43945 m 3.925781,-6.18164 c 0.88541,0 1.585279,-0.30273 2.09961,-0.90821 0.520824,-0.60546 0.781241,-1.43553 0.78125,-2.49023 -9e-6,-1.04817 -0.260426,-1.87499 -0.78125,-2.48047 -0.514331,-0.61196 -1.2142,-0.91795 -2.09961,-0.91797 -0.885421,2e-5 -1.588546,0.30601 -2.109375,0.91797 -0.514326,0.60548 -0.771487,1.4323 -0.771484,2.48047 -3e-6,1.0547 0.257158,1.88477 0.771484,2.49023 0.520829,0.60548 1.223954,0.90821 2.109375,0.90821"
           id="path4101" />
        <path
           inkscape:connector-curvature="0"
           d="m 4,911.62585 2.65625,0 6.464844,12.19727 0,-12.19727 1.914062,0 0,14.58008 -2.65625,0 -6.4648435,-12.19726 0,12.19726 -1.9140625,0 0,-14.58008"
           id="path4103" />
        <path
           inkscape:connector-curvature="0"
           d="m 28.238281,920.28796 0,0.87891 -8.261719,0 c 0.07812,1.23698 0.449216,2.18099 1.113282,2.83203 0.670568,0.64453 1.601557,0.9668 2.792968,0.9668 0.690097,0 1.357414,-0.0846 2.001954,-0.25391 0.651032,-0.16927 1.295562,-0.42317 1.933593,-0.76172 l 0,1.69922 c -0.644541,0.27344 -1.305348,0.48177 -1.982422,0.625 -0.677091,0.14323 -1.363939,0.21485 -2.060546,0.21485 -1.744797,0 -3.128259,-0.50782 -4.150391,-1.52344 -1.015627,-1.01562 -1.523439,-2.38932 -1.523438,-4.1211 -1e-6,-1.79035 0.48177,-3.20962 1.445313,-4.25781 0.970049,-1.05467 2.275386,-1.58202 3.916016,-1.58203 1.471346,10e-6 2.633454,0.47527 3.486328,1.42578 0.859364,0.94402 1.289051,2.22983 1.289062,3.85742 m -1.796875,-0.52734 c -0.01303,-0.98307 -0.289722,-1.76757 -0.830078,-2.35352 -0.533862,-0.58592 -1.243497,-0.87889 -2.128906,-0.8789 -1.00261,10e-6 -1.806645,0.28321 -2.41211,0.84961 -0.598961,0.56641 -0.944013,1.36394 -1.035156,2.39258 l 6.40625,-0.01"
           id="path4105" />
        <path
           inkscape:connector-curvature="0"
           d="m 32.925781,912.16296 0,3.10547 3.701172,0 0,1.39649 -3.701172,0 0,5.9375 c -3e-6,0.89193 0.120439,1.46484 0.361328,1.71875 0.247392,0.2539 0.745438,0.38086 1.494141,0.38086 l 1.845703,0 0,1.5039 -1.845703,0 c -1.386723,0 -2.343753,-0.25716 -2.871094,-0.77148 -0.527346,-0.52083 -0.791017,-1.46484 -0.791015,-2.83203 l 0,-5.9375 -1.31836,0 0,-1.39649 1.31836,0 0,-3.10547 1.80664,0"
           id="path4107" />
        <path
           inkscape:connector-curvature="0"
           d="m 37.955078,915.26843 1.796875,0 2.246094,8.53516 2.236328,-8.53516 2.119141,0 2.246093,8.53516 2.236328,-8.53516 1.796875,0 -2.861328,10.9375 -2.11914,0 -2.353516,-8.96484 -2.363281,8.96484 -2.119141,0 -2.861328,-10.9375"
           id="path4109" />
        <path
           inkscape:connector-curvature="0"
           d="m 59.605469,916.5282 c -0.963547,10e-6 -1.725265,0.37761 -2.285157,1.13281 -0.559899,0.74871 -0.839846,1.77735 -0.839843,3.08594 -3e-6,1.3086 0.276689,2.3405 0.830078,3.0957 0.559891,0.7487 1.324865,1.12305 2.294922,1.12305 0.957024,0 1.715487,-0.3776 2.27539,-1.13281 0.559887,-0.75521 0.839835,-1.78385 0.839844,-3.08594 -9e-6,-1.29557 -0.279957,-2.32096 -0.839844,-3.07617 -0.559903,-0.76171 -1.318366,-1.14257 -2.27539,-1.14258 m 0,-1.52344 c 1.562492,10e-6 2.789704,0.50782 3.68164,1.52344 0.891917,1.01563 1.33788,2.42188 1.337891,4.21875 -1.1e-5,1.79037 -0.445974,3.19662 -1.337891,4.21875 -0.891936,1.01562 -2.119148,1.52344 -3.68164,1.52344 -1.569015,0 -2.799483,-0.50782 -3.691407,-1.52344 -0.885418,-1.02213 -1.328126,-2.42838 -1.328125,-4.21875 -1e-6,-1.79687 0.442707,-3.20312 1.328125,-4.21875 0.891924,-1.01562 2.122392,-1.52343 3.691407,-1.52344"
           id="path4111" />
        <path
           inkscape:connector-curvature="0"
           d="m 73.931641,916.94812 c -0.201831,-0.11718 -0.423185,-0.20181 -0.664063,-0.25391 -0.234382,-0.0586 -0.494799,-0.0879 -0.78125,-0.0879 -1.015631,10e-6 -1.79688,0.33204 -2.34375,0.9961 -0.540368,0.65756 -0.81055,1.60482 -0.810547,2.84179 l 0,5.76172 -1.80664,0 0,-10.9375 1.80664,0 0,1.69922 c 0.3776,-0.66405 0.869136,-1.15559 1.47461,-1.47461 0.605463,-0.32551 1.341139,-0.48827 2.207031,-0.48828 0.12369,1e-5 0.260409,0.01 0.410156,0.0293 0.149732,0.013 0.315747,0.0358 0.498047,0.0684 l 0.0098,1.8457"
           id="path4113" />
        <path
           inkscape:connector-curvature="0"
           d="m 75.767578,911.01062 1.806641,0 0,8.97461 5.361328,-4.7168 2.294922,0 -5.800782,5.11719 6.044922,5.82031 -2.34375,0 -5.55664,-5.34179 0,5.34179 -1.806641,0 0,-15.19531"
           id="path4115" />
        <path
           inkscape:connector-curvature="0"
           d="m 16.8125,940.5907 0,1.69922 c -0.507821,-0.26041 -1.035164,-0.45572 -1.582031,-0.58594 -0.546882,-0.1302 -1.113288,-0.1953 -1.699219,-0.19531 -0.891932,10e-6 -1.562504,0.13673 -2.011719,0.41015 -0.442711,0.27345 -0.664065,0.68361 -0.664062,1.23047 -3e-6,0.41668 0.159502,0.74545 0.478515,0.98633 0.319007,0.23438 0.960282,0.45899 1.923829,0.67383 l 0.615234,0.13672 c 1.276034,0.27344 2.180981,0.66081 2.714844,1.16211 0.540355,0.49479 0.810537,1.18815 0.810546,2.08007 -9e-6,1.01563 -0.403654,1.81967 -1.210937,2.41211 -0.800789,0.59245 -1.904303,0.88868 -3.310547,0.88868 -0.585942,0 -1.19792,-0.0586 -1.835937,-0.17579 -0.631513,-0.11067 -1.2988303,-0.27994 -2.0019535,-0.50781 l 0,-1.85547 c 0.6640608,0.34506 1.3183565,0.60547 1.9628905,0.78125 0.644528,0.16928 1.282548,0.25391 1.914063,0.25391 0.846348,0 1.497389,-0.14323 1.953125,-0.42969 0.455721,-0.29296 0.683586,-0.70312 0.683593,-1.23047 -7e-6,-0.48827 -0.166023,-0.86262 -0.498046,-1.12304 -0.325528,-0.26042 -1.044928,-0.51107 -2.158204,-0.75196 l -0.625,-0.14648 c -1.113284,-0.23437 -1.91732,-0.59244 -2.412109,-1.07422 -0.4947931,-0.48827 -0.7421887,-1.15559 -0.7421875,-2.00195 -1.2e-6,-1.02864 0.3645818,-1.82291 1.0937505,-2.38282 0.729163,-0.55988 1.764318,-0.83983 3.105468,-0.83984 0.664057,10e-6 1.289056,0.0488 1.875,0.14649 0.58593,0.0977 1.126294,0.24415 1.621094,0.43945"
           id="path4117" />
        <path
           inkscape:connector-curvature="0"
           d="m 22.046875,937.16296 0,3.10547 3.701172,0 0,1.39649 -3.701172,0 0,5.9375 c -4e-6,0.89193 0.120439,1.46484 0.361328,1.71875 0.247392,0.2539 0.745438,0.38086 1.494141,0.38086 l 1.845703,0 0,1.5039 -1.845703,0 c -1.386723,0 -2.343753,-0.25716 -2.871094,-0.77148 -0.527346,-0.52083 -0.791017,-1.46484 -0.791016,-2.83203 l 0,-5.9375 -1.318359,0 0,-1.39649 1.318359,0 0,-3.10547 1.806641,0"
           id="path4119" />
        <path
           inkscape:connector-curvature="0"
           d="m 33.091797,945.70789 c -1.451828,0 -2.457687,0.16602 -3.017578,0.49804 -0.559899,0.33204 -0.839847,0.89844 -0.839844,1.69922 -3e-6,0.63802 0.20833,1.14584 0.625,1.52344 0.423173,0.37109 0.996089,0.55664 1.71875,0.55664 0.996087,0 1.793613,-0.35156 2.392578,-1.05469 0.605461,-0.70963 0.908195,-1.65038 0.908203,-2.82226 l 0,-0.40039 -1.787109,0 m 3.583984,-0.74219 0,6.24023 -1.796875,0 0,-1.66015 c -0.410164,0.66406 -0.921231,1.1556 -1.533203,1.47461 -0.611986,0.3125 -1.360683,0.46875 -2.246094,0.46875 -1.119795,0 -2.011721,-0.3125 -2.675781,-0.9375 -0.657553,-0.63151 -0.986329,-1.47461 -0.986328,-2.5293 -1e-6,-1.23047 0.410155,-2.1582 1.230469,-2.7832 0.826819,-0.625 2.057287,-0.9375 3.691406,-0.9375 l 2.519531,0 0,-0.17579 c -8e-6,-0.82681 -0.273446,-1.46483 -0.820312,-1.91406 -0.540372,-0.45572 -1.30209,-0.68358 -2.285157,-0.68359 -0.625004,10e-6 -1.233728,0.0749 -1.826171,0.22461 -0.592451,0.14975 -1.162112,0.37436 -1.708985,0.67383 l 0,-1.66016 c 0.65755,-0.2539 1.29557,-0.4427 1.914063,-0.56641 0.618485,-0.13019 1.220698,-0.1953 1.80664,-0.19531 1.582024,10e-6 2.763664,0.41017 3.544922,1.23047 0.78124,0.82032 1.171865,2.06381 1.171875,3.73047"
           id="path4121" />
        <path
           inkscape:connector-curvature="0"
           d="m 46.763672,941.94812 c -0.201831,-0.11718 -0.423185,-0.20181 -0.664063,-0.25391 -0.234382,-0.0586 -0.494798,-0.0879 -0.78125,-0.0879 -1.01563,10e-6 -1.79688,0.33204 -2.34375,0.9961 -0.540368,0.65756 -0.81055,1.60482 -0.810547,2.84179 l 0,5.76172 -1.80664,0 0,-10.9375 1.80664,0 0,1.69922 c 0.377601,-0.66405 0.869137,-1.15559 1.47461,-1.47461 0.605463,-0.32551 1.341139,-0.48827 2.207031,-0.48828 0.123691,1e-5 0.260409,0.01 0.410156,0.0293 0.149732,0.013 0.315748,0.0358 0.498047,0.0684 l 0.0098,1.8457"
           id="path4123" />
        <path
           inkscape:connector-curvature="0"
           d="m 50.445312,937.16296 0,3.10547 3.701172,0 0,1.39649 -3.701172,0 0,5.9375 c -3e-6,0.89193 0.120439,1.46484 0.361329,1.71875 0.247391,0.2539 0.745438,0.38086 1.49414,0.38086 l 1.845703,0 0,1.5039 -1.845703,0 c -1.386723,0 -2.343753,-0.25716 -2.871094,-0.77148 -0.527345,-0.52083 -0.791017,-1.46484 -0.791015,-2.83203 l 0,-5.9375 -1.31836,0 0,-1.39649 1.31836,0 0,-3.10547 1.80664,0"
           id="path4125" />
        <path
           inkscape:connector-curvature="0"
           d="m 65.875,945.28796 0,0.87891 -8.261719,0 c 0.07812,1.23698 0.449216,2.18099 1.113281,2.83203 0.670569,0.64453 1.601557,0.9668 2.792969,0.9668 0.690097,0 1.357414,-0.0846 2.001953,-0.25391 0.651033,-0.16927 1.295563,-0.42317 1.933594,-0.76172 l 0,1.69922 c -0.644541,0.27344 -1.305348,0.48177 -1.982422,0.625 -0.677091,0.14323 -1.36394,0.21485 -2.060547,0.21485 -1.744796,0 -3.128258,-0.50782 -4.15039,-1.52344 -1.015627,-1.01562 -1.523439,-2.38932 -1.523438,-4.1211 -10e-7,-1.79035 0.481769,-3.20962 1.445313,-4.25781 0.970048,-1.05467 2.275386,-1.58202 3.916015,-1.58203 1.471347,10e-6 2.633455,0.47527 3.486328,1.42578 0.859365,0.94402 1.289052,2.22983 1.289063,3.85742 m -1.796875,-0.52734 c -0.01303,-0.98307 -0.289723,-1.76757 -0.830078,-2.35352 -0.533862,-0.58592 -1.243497,-0.87889 -2.128906,-0.8789 -1.00261,10e-6 -1.806646,0.28321 -2.41211,0.84961 -0.598962,0.56641 -0.944013,1.36394 -1.035156,2.39258 l 6.40625,-0.01"
           id="path4127" />
        <path
           inkscape:connector-curvature="0"
           d="m 75.982422,941.92859 0,-5.91797 1.796875,0 0,15.19531 -1.796875,0 0,-1.64062 c -0.377613,0.65104 -0.856128,1.13607 -1.435547,1.45508 -0.572924,0.3125 -1.263027,0.46875 -2.070313,0.46875 -1.321618,0 -2.399091,-0.52735 -3.232421,-1.58204 -0.826825,-1.05468 -1.240236,-2.4414 -1.240235,-4.16015 -10e-7,-1.71874 0.41341,-3.10546 1.240235,-4.16016 0.83333,-1.05467 1.910803,-1.58202 3.232421,-1.58203 0.807286,10e-6 1.497389,0.15952 2.070313,0.47852 0.579419,0.31251 1.057934,0.79428 1.435547,1.44531 m -6.123047,3.81836 c -3e-6,1.32162 0.270179,2.36003 0.810547,3.11523 0.546871,0.7487 1.295568,1.12305 2.246094,1.12305 0.950513,0 1.699211,-0.37435 2.246093,-1.12305 0.546867,-0.7552 0.820304,-1.79361 0.820313,-3.11523 -9e-6,-1.32161 -0.273446,-2.35676 -0.820313,-3.10547 -0.546882,-0.7552 -1.29558,-1.1328 -2.246093,-1.13281 -0.950526,10e-6 -1.699223,0.37761 -2.246094,1.13281 -0.540368,0.74871 -0.81055,1.78386 -0.810547,3.10547"
           id="path4129" />
      </g>
    </g>
    <g
       id="g4289">
      <path
         inkscape:connector-curvature="0"
         style="fill:#000000;fill-opacity:1;fill-rule:nonzero;stroke:none"
         d="m 161.5,863.42565 c 0,6.35127 -5.14873,11.5 -11.5,11.5 -6.35127,0 -11.5,-5.14873 -11.5,-11.5 0,-6.35127 5.14873,-11.5 11.5,-11.5 6.35127,0 11.5,5.14873 11.5,11.5 z"
         id="path2985-9" />
      <g
         transform="translate(3,-0.43652787)"
         style="font-size:20px;font-style:normal;font-weight:normal;line-height:125%;letter-spacing:0px;word-spacing:0px;fill:#000000;fill-opacity:1;stroke:none;font-family:Sans"
         id="text3059">
        <path
           inkscape:connector-curvature="0"
           d="m 129.83789,899.54578 6.88477,0 0,1.66015 -9.25782,0 0,-1.66015 c 0.7487,-0.77474 1.76758,-1.81315 3.05664,-3.11524 1.29557,-1.30859 2.10937,-2.15168 2.44141,-2.52929 0.6315,-0.70963 1.07096,-1.30859 1.31836,-1.79688 0.2539,-0.49478 0.38085,-0.97981 0.38086,-1.45508 -1e-5,-0.77473 -0.27345,-1.40624 -0.82031,-1.89453 -0.54038,-0.48827 -1.24675,-0.73241 -2.11914,-0.73242 -0.6185,10e-6 -1.27279,0.10743 -1.96289,0.32226 -0.6836,0.21486 -1.41602,0.54038 -2.19727,0.97657 l 0,-1.99219 c 0.79427,-0.319 1.53646,-0.55988 2.22656,-0.72266 0.6901,-0.16274 1.32161,-0.24412 1.89453,-0.24414 1.51041,2e-5 2.71484,0.37762 3.61328,1.13282 0.89843,0.75522 1.34765,1.76433 1.34766,3.02734 -1e-5,0.59897 -0.11394,1.16863 -0.3418,1.70898 -0.22136,0.53387 -0.62826,1.16538 -1.2207,1.89453 -0.16277,0.18881 -0.68035,0.73569 -1.55273,1.64063 -0.87241,0.89844 -2.10287,2.15821 -3.69141,3.7793"
           id="path4085" />
        <path
           inkscape:connector-curvature="0"
           d="m 145.0918,887.92468 c -1.01563,2e-5 -1.78061,0.50132 -2.29493,1.50391 -0.50781,0.9961 -0.76172,2.49675 -0.76171,4.50195 -1e-5,1.99871 0.2539,3.49935 0.76171,4.50196 0.51432,0.99609 1.2793,1.49414 2.29493,1.49414 1.02212,0 1.7871,-0.49805 2.29492,-1.49414 0.51431,-1.00261 0.77147,-2.50325 0.77148,-4.50196 -1e-5,-2.0052 -0.25717,-3.50585 -0.77148,-4.50195 -0.50782,-1.00259 -1.2728,-1.50389 -2.29492,-1.50391 m 0,-1.5625 c 1.6341,2e-5 2.88085,0.6478 3.74023,1.94336 0.86588,1.28908 1.29882,3.16407 1.29883,5.625 -1e-5,2.45443 -0.43295,4.32943 -1.29883,5.625 -0.85938,1.28906 -2.10613,1.9336 -3.74023,1.9336 -1.63412,0 -2.88412,-0.64454 -3.75,-1.9336 -0.85938,-1.29557 -1.28907,-3.17057 -1.28907,-5.625 0,-2.46093 0.42969,-4.33592 1.28907,-5.625 0.86588,-1.29556 2.11588,-1.94334 3.75,-1.94336"
           id="path4087" />
        <path
           inkscape:connector-curvature="0"
           d="m 153.94922,899.54578 3.22265,0 0,-11.12305 -3.50585,0.70312 0,-1.79687 3.48632,-0.70313 1.97266,0 0,12.91993 3.22266,0 0,1.66015 -8.39844,0 0,-1.66015"
           id="path4089" />
        <path
           inkscape:connector-curvature="0"
           d="m 166.68359,899.54578 3.22266,0 0,-11.12305 -3.50586,0.70312 0,-1.79687 3.48633,-0.70313 1.97265,0 0,12.91993 3.22266,0 0,1.66015 -8.39844,0 0,-1.66015"
           id="path4091" />
      </g>
    </g>
    <g
       id="g4261">
      <path
         inkscape:connector-curvature="0"
         style="fill:#000000;fill-opacity:1;fill-rule:nonzero;stroke:none"
         d="m 300.5,863.42565 c 0,6.35127 -5.14873,11.5 -11.5,11.5 -6.35127,0 -11.5,-5.14873 -11.5,-11.5 0,-6.35127 5.14873,-11.5 11.5,-11.5 6.35127,0 11.5,5.14873 11.5,11.5 z"
         id="path2985-8" />
      <g
         transform="translate(3,-0.43652787)"
         style="font-size:20px;font-style:normal;font-weight:normal;line-height:125%;letter-spacing:0px;word-spacing:0px;fill:#000000;fill-opacity:1;stroke:none;font-family:Sans"
         id="text3067">
        <path
           inkscape:connector-curvature="0"
           d="m 266.83789,899.54578 6.88477,0 0,1.66015 -9.25782,0 0,-1.66015 c 0.7487,-0.77474 1.76758,-1.81315 3.05664,-3.11524 1.29557,-1.30859 2.10937,-2.15168 2.44141,-2.52929 0.6315,-0.70963 1.07096,-1.30859 1.31836,-1.79688 0.2539,-0.49478 0.38085,-0.97981 0.38086,-1.45508 -10e-6,-0.77473 -0.27345,-1.40624 -0.82031,-1.89453 -0.54038,-0.48827 -1.24675,-0.73241 -2.11914,-0.73242 -0.6185,10e-6 -1.27279,0.10743 -1.96289,0.32226 -0.6836,0.21486 -1.41602,0.54038 -2.19727,0.97657 l 0,-1.99219 c 0.79427,-0.319 1.53646,-0.55988 2.22656,-0.72266 0.6901,-0.16274 1.32161,-0.24412 1.89453,-0.24414 1.51041,2e-5 2.71484,0.37762 3.61328,1.13282 0.89843,0.75522 1.34765,1.76433 1.34766,3.02734 -10e-6,0.59897 -0.11394,1.16863 -0.3418,1.70898 -0.22136,0.53387 -0.62826,1.16538 -1.2207,1.89453 -0.16277,0.18881 -0.68035,0.73569 -1.55273,1.64063 -0.87241,0.89844 -2.10287,2.15821 -3.69141,3.7793"
           id="path4075" />
        <path
           inkscape:connector-curvature="0"
           d="m 282.0918,887.92468 c -1.01563,2e-5 -1.78061,0.50132 -2.29493,1.50391 -0.50781,0.9961 -0.76172,2.49675 -0.76171,4.50195 -1e-5,1.99871 0.2539,3.49935 0.76171,4.50196 0.51432,0.99609 1.2793,1.49414 2.29493,1.49414 1.02212,0 1.7871,-0.49805 2.29492,-1.49414 0.51431,-1.00261 0.77147,-2.50325 0.77148,-4.50196 -1e-5,-2.0052 -0.25717,-3.50585 -0.77148,-4.50195 -0.50782,-1.00259 -1.2728,-1.50389 -2.29492,-1.50391 m 0,-1.5625 c 1.6341,2e-5 2.88085,0.6478 3.74023,1.94336 0.86588,1.28908 1.29882,3.16407 1.29883,5.625 -10e-6,2.45443 -0.43295,4.32943 -1.29883,5.625 -0.85938,1.28906 -2.10613,1.9336 -3.74023,1.9336 -1.63412,0 -2.88412,-0.64454 -3.75,-1.9336 -0.85938,-1.29557 -1.28907,-3.17057 -1.28907,-5.625 0,-2.46093 0.42969,-4.33592 1.28907,-5.625 0.86588,-1.29556 2.11588,-1.94334 3.75,-1.94336"
           id="path4077" />
        <path
           inkscape:connector-curvature="0"
           d="m 290.94922,899.54578 3.22265,0 0,-11.12305 -3.50585,0.70312 0,-1.79687 3.48632,-0.70313 1.97266,0 0,12.91993 3.22266,0 0,1.66015 -8.39844,0 0,-1.66015"
           id="path4079" />
        <path
           inkscape:connector-curvature="0"
           d="m 309.31836,893.3446 c 0.944,0.20184 1.67968,0.62176 2.20703,1.25977 0.53384,0.63803 0.80077,1.42579 0.80078,2.36328 -10e-6,1.43881 -0.4948,2.55209 -1.48437,3.33985 -0.9896,0.78776 -2.39584,1.18164 -4.21875,1.18164 -0.61199,0 -1.2435,-0.0619 -1.89453,-0.18555 -0.64454,-0.11719 -1.31186,-0.29622 -2.00196,-0.53711 l 0,-1.9043 c 0.54688,0.31902 1.14583,0.5599 1.79688,0.72266 0.65104,0.16276 1.33137,0.24414 2.04101,0.24414 1.23698,0 2.17773,-0.24414 2.82227,-0.73242 0.65103,-0.48828 0.97655,-1.19792 0.97656,-2.12891 -10e-6,-0.85937 -0.30274,-1.52994 -0.9082,-2.01172 -0.59897,-0.48827 -1.43556,-0.73241 -2.50977,-0.73242 l -1.69922,0 0,-1.62109 1.77735,0 c 0.97004,10e-6 1.71223,-0.19205 2.22656,-0.57617 0.51431,-0.39062 0.77148,-0.95052 0.77148,-1.67969 0,-0.74869 -0.26693,-1.3216 -0.80078,-1.71875 -0.52735,-0.40364 -1.28581,-0.60546 -2.27539,-0.60547 -0.54037,10e-6 -1.11979,0.0586 -1.73828,0.17578 -0.61849,0.1172 -1.29883,0.29949 -2.04101,0.54688 l 0,-1.75782 c 0.74869,-0.20832 1.44856,-0.36457 2.0996,-0.46875 0.65755,-0.10415 1.27604,-0.15623 1.85547,-0.15625 1.49739,2e-5 2.68229,0.34181 3.55469,1.02539 0.87239,0.6771 1.30858,1.59507 1.30859,2.75391 -1e-5,0.8073 -0.23113,1.49089 -0.69335,2.05078 -0.46225,0.55339 -1.11981,0.93751 -1.97266,1.15234"
           id="path4081" />
      </g>
    </g>
    <g
       id="g4275">
      <path
         inkscape:connector-curvature="0"
         style="fill:#000000;fill-opacity:1;fill-rule:nonzero;stroke:none"
         d="m 430.5,863.42565 c 0,6.35127 -5.14873,11.5 -11.5,11.5 -6.35127,0 -11.5,-5.14873 -11.5,-11.5 0,-6.35127 5.14873,-11.5 11.5,-11.5 6.35127,0 11.5,5.14873 11.5,11.5 z"
         id="path2985-3" />
      <g
         transform="translate(3,-0.43652787)"
         style="font-size:20px;font-style:normal;font-weight:normal;line-height:125%;letter-spacing:0px;word-spacing:0px;fill:#000000;fill-opacity:1;stroke:none;font-family:Sans"
         id="text3071">
        <path
           inkscape:connector-curvature="0"
           d="m 393.83789,899.54578 6.88477,0 0,1.66015 -9.25782,0 0,-1.66015 c 0.7487,-0.77474 1.76758,-1.81315 3.05664,-3.11524 1.29557,-1.30859 2.10937,-2.15168 2.44141,-2.52929 0.6315,-0.70963 1.07096,-1.30859 1.31836,-1.79688 0.2539,-0.49478 0.38085,-0.97981 0.38086,-1.45508 -10e-6,-0.77473 -0.27345,-1.40624 -0.82031,-1.89453 -0.54038,-0.48827 -1.24675,-0.73241 -2.11914,-0.73242 -0.6185,10e-6 -1.27279,0.10743 -1.96289,0.32226 -0.6836,0.21486 -1.41602,0.54038 -2.19727,0.97657 l 0,-1.99219 c 0.79427,-0.319 1.53646,-0.55988 2.22656,-0.72266 0.6901,-0.16274 1.32161,-0.24412 1.89453,-0.24414 1.51041,2e-5 2.71484,0.37762 3.61328,1.13282 0.89843,0.75522 1.34765,1.76433 1.34766,3.02734 -10e-6,0.59897 -0.11394,1.16863 -0.3418,1.70898 -0.22136,0.53387 -0.62826,1.16538 -1.2207,1.89453 -0.16277,0.18881 -0.68035,0.73569 -1.55273,1.64063 -0.87241,0.89844 -2.10287,2.15821 -3.69141,3.7793"
           id="path4065" />
        <path
           inkscape:connector-curvature="0"
           d="m 409.0918,887.92468 c -1.01563,2e-5 -1.78061,0.50132 -2.29493,1.50391 -0.50781,0.9961 -0.76172,2.49675 -0.76171,4.50195 -1e-5,1.99871 0.2539,3.49935 0.76171,4.50196 0.51432,0.99609 1.2793,1.49414 2.29493,1.49414 1.02212,0 1.7871,-0.49805 2.29492,-1.49414 0.51431,-1.00261 0.77147,-2.50325 0.77148,-4.50196 -1e-5,-2.0052 -0.25717,-3.50585 -0.77148,-4.50195 -0.50782,-1.00259 -1.2728,-1.50389 -2.29492,-1.50391 m 0,-1.5625 c 1.6341,2e-5 2.88085,0.6478 3.74023,1.94336 0.86588,1.28908 1.29882,3.16407 1.29883,5.625 -10e-6,2.45443 -0.43295,4.32943 -1.29883,5.625 -0.85938,1.28906 -2.10613,1.9336 -3.74023,1.9336 -1.63412,0 -2.88412,-0.64454 -3.75,-1.9336 -0.85938,-1.29557 -1.28907,-3.17057 -1.28907,-5.625 0,-2.46093 0.42969,-4.33592 1.28907,-5.625 0.86588,-1.29556 2.11588,-1.94334 3.75,-1.94336"
           id="path4067" />
        <path
           inkscape:connector-curvature="0"
           d="m 417.94922,899.54578 3.22265,0 0,-11.12305 -3.50585,0.70312 0,-1.79687 3.48632,-0.70313 1.97266,0 0,12.91993 3.22266,0 0,1.66015 -8.39844,0 0,-1.66015"
           id="path4069" />
        <path
           inkscape:connector-curvature="0"
           d="m 430.36133,886.62585 7.74414,0 0,1.66016 -5.9375,0 0,3.57422 c 0.28645,-0.0977 0.57291,-0.16926 0.85937,-0.21484 0.28646,-0.0521 0.57292,-0.0781 0.85938,-0.0781 1.6276,1e-5 2.91666,0.44597 3.86719,1.33789 0.95051,0.89194 1.42577,2.09962 1.42578,3.62305 -10e-6,1.56901 -0.48829,2.78971 -1.46485,3.66211 -0.97657,0.86588 -2.35352,1.29883 -4.13086,1.29883 -0.61198,0 -1.23698,-0.0521 -1.875,-0.15625 -0.63151,-0.10417 -1.28581,-0.26042 -1.96289,-0.46875 l 0,-1.98243 c 0.58594,0.31902 1.19141,0.55665 1.81641,0.71289 0.625,0.15626 1.2858,0.23438 1.98242,0.23438 1.1263,0 2.01822,-0.29622 2.67578,-0.88867 0.65755,-0.59245 0.98632,-1.39648 0.98633,-2.41211 -10e-6,-1.01562 -0.32878,-1.81966 -0.98633,-2.41211 -0.65756,-0.59244 -1.54948,-0.88867 -2.67578,-0.88867 -0.52735,0 -1.05469,0.0586 -1.58203,0.17578 -0.52084,0.11719 -1.05469,0.29948 -1.60156,0.54687 l 0,-7.32422"
           id="path4071" />
      </g>
    </g>
    <path
       inkscape:connector-curvature="0"
       style="fill:none;stroke:#000000;stroke-width:2;stroke-linecap:butt;stroke-linejoin:miter;stroke-miterlimit:4;stroke-opacity:1"
       d="m 48,862.92565 371,0"
       id="path3105" />
    <path
       inkscape:connector-curvature="0"
       style="fill:none;stroke:#000000;stroke-width:2;stroke-linecap:butt;stroke-linejoin:miter;stroke-miterlimit:4;stroke-opacity:1;stroke-dasharray:8, 8;stroke-dashoffset:0"
       d="m 554,862.92565 -135,0"
       id="path3109" />
    <g
       id="g3881"
       transform="translate(3,-0.43652787)">
      <g
         style="font-size:20px;font-style:normal;font-weight:normal;text-align:center;line-height:125%;letter-spacing:0px;word-spacing:0px;text-anchor:middle;fill:#800000;fill-opacity:1;stroke:none;font-family:Sans"
         id="text3075">
        <path
           inkscape:connector-curvature="0"
           d="m 549.41602,898.72546 1.98242,0 0,2.48047 -1.98242,0 0,-2.48047 m 1.92382,-1.43554 -1.86523,0 0,-1.50391 c 0,-0.65755 0.0911,-1.19791 0.27344,-1.62109 0.18228,-0.42317 0.5664,-0.91471 1.15234,-1.47461 l 0.87891,-0.86914 c 0.37108,-0.34505 0.63801,-0.67057 0.80078,-0.97657 0.16926,-0.30597 0.2539,-0.61847 0.2539,-0.9375 0,-0.57941 -0.21485,-1.04816 -0.64453,-1.40625 -0.42318,-0.35806 -0.98633,-0.53709 -1.68945,-0.5371 -0.51433,10e-6 -1.06446,0.11394 -1.65039,0.34179 -0.57943,0.22788 -1.1849,0.55991 -1.81641,0.9961 l 0,-1.83594 c 0.61198,-0.37108 1.23047,-0.64777 1.85547,-0.83008 0.63151,-0.18228 1.28255,-0.27342 1.95313,-0.27344 1.19791,2e-5 2.15819,0.31577 2.88086,0.94727 0.72915,0.63152 1.09374,1.46485 1.09375,2.5 -10e-6,0.4948 -0.1172,0.96681 -0.35157,1.41601 -0.23438,0.44272 -0.64454,0.94402 -1.23047,1.50391 l -0.85937,0.83984 c -0.306,0.306 -0.52409,0.54689 -0.6543,0.72266 -0.1237,0.16928 -0.21159,0.33529 -0.26367,0.49805 -0.0391,0.13672 -0.0684,0.30274 -0.0879,0.49804 -0.0195,0.19532 -0.0293,0.46225 -0.0293,0.80079 l 0,1.20117"
           id="path4032" />
        <path
           inkscape:connector-curvature="0"
           d="m 524.49414,919.24304 0,5.3418 3.16406,0 c 1.06119,0 1.8457,-0.2181 2.35352,-0.6543 0.51431,-0.4427 0.77147,-1.11653 0.77148,-2.02148 -10e-6,-0.91146 -0.25717,-1.58203 -0.77148,-2.01172 -0.50782,-0.43619 -1.29233,-0.65429 -2.35352,-0.6543 l -3.16406,0 m 0,-5.99609 0,4.39453 2.91992,0 c 0.96354,10e-6 1.67968,-0.17903 2.14844,-0.53711 0.47525,-0.36457 0.71288,-0.91796 0.71289,-1.66016 -10e-6,-0.73566 -0.23764,-1.28579 -0.71289,-1.65039 -0.46876,-0.36457 -1.1849,-0.54686 -2.14844,-0.54687 l -2.91992,0 m -1.97266,-1.6211 5.03907,0 c 1.50389,2e-5 2.66275,0.31252 3.47656,0.9375 0.81379,0.62502 1.22069,1.51369 1.2207,2.66602 -10e-6,0.89194 -0.20834,1.60157 -0.625,2.12891 -0.41667,0.52735 -1.02865,0.85612 -1.83594,0.98632 0.97005,0.20835 1.722,0.64454 2.25586,1.3086 0.54036,0.65756 0.81054,1.48112 0.81055,2.4707 -10e-6,1.30209 -0.44272,2.30795 -1.32812,3.01758 -0.88543,0.70964 -2.14519,1.06445 -3.7793,1.06445 l -5.23438,0 0,-14.58008"
           id="path4034" />
        <path
           inkscape:connector-curvature="0"
           d="m 541.125,920.70789 c -1.45183,0 -2.45769,0.16602 -3.01758,0.49804 -0.5599,0.33204 -0.83984,0.89844 -0.83984,1.69922 0,0.63802 0.20833,1.14584 0.625,1.52344 0.42317,0.37109 0.99609,0.55664 1.71875,0.55664 0.99609,0 1.79361,-0.35156 2.39258,-1.05469 0.60546,-0.70963 0.90819,-1.65038 0.9082,-2.82226 l 0,-0.40039 -1.78711,0 m 3.58398,-0.74219 0,6.24023 -1.79687,0 0,-1.66015 c -0.41017,0.66406 -0.92123,1.1556 -1.5332,1.47461 -0.61199,0.3125 -1.36069,0.46875 -2.2461,0.46875 -1.11979,0 -2.01172,-0.3125 -2.67578,-0.9375 -0.65755,-0.63151 -0.98633,-1.47461 -0.98633,-2.5293 0,-1.23047 0.41016,-2.1582 1.23047,-2.7832 0.82682,-0.625 2.05729,-0.9375 3.69141,-0.9375 l 2.51953,0 0,-0.17579 c -10e-6,-0.82681 -0.27345,-1.46483 -0.82031,-1.91406 -0.54037,-0.45572 -1.30209,-0.68358 -2.28516,-0.68359 -0.625,10e-6 -1.23373,0.0749 -1.82617,0.22461 -0.59245,0.14975 -1.16211,0.37436 -1.70899,0.67383 l 0,-1.66016 c 0.65755,-0.2539 1.29557,-0.4427 1.91407,-0.56641 0.61848,-0.13019 1.22069,-0.1953 1.80664,-0.19531 1.58202,10e-6 2.76366,0.41017 3.54492,1.23047 0.78124,0.82032 1.17186,2.06381 1.17187,3.73047"
           id="path4036" />
        <path
           inkscape:connector-curvature="0"
           d="m 557.55078,919.60437 0,6.60156 -1.79687,0 0,-6.54297 c -10e-6,-1.03514 -0.20184,-1.80988 -0.60547,-2.32421 -0.40366,-0.51432 -1.00912,-0.77148 -1.81641,-0.77149 -0.97006,10e-6 -1.73503,0.30925 -2.29492,0.92774 -0.5599,0.61849 -0.83985,1.46159 -0.83984,2.52929 l 0,6.18164 -1.80665,0 0,-10.9375 1.80665,0 0,1.69922 c 0.42968,-0.65754 0.93424,-1.14908 1.51367,-1.47461 0.58593,-0.32551 1.25976,-0.48827 2.02148,-0.48828 1.2565,10e-6 2.20702,0.39064 2.85156,1.17188 0.64452,0.77474 0.96679,1.91732 0.9668,3.42773"
           id="path4038" />
        <path
           inkscape:connector-curvature="0"
           d="m 561.08594,911.01062 1.80664,0 0,8.97461 5.36133,-4.7168 2.29492,0 -5.80078,5.11719 6.04492,5.82031 -2.34375,0 -5.55664,-5.34179 0,5.34179 -1.80664,0 0,-15.19531"
           id="path4040" />
        <path
           inkscape:connector-curvature="0"
           d="m 579.68945,915.5907 0,1.69922 c -0.50782,-0.26041 -1.03516,-0.45572 -1.58203,-0.58594 -0.54688,-0.1302 -1.11329,-0.1953 -1.69922,-0.19531 -0.89193,10e-6 -1.5625,0.13673 -2.01172,0.41015 -0.44271,0.27345 -0.66406,0.68361 -0.66406,1.23047 0,0.41668 0.1595,0.74545 0.47852,0.98633 0.319,0.23438 0.96028,0.45899 1.92383,0.67383 l 0.61523,0.13672 c 1.27603,0.27344 2.18098,0.66081 2.71484,1.16211 0.54036,0.49479 0.81054,1.18815 0.81055,2.08007 -10e-6,1.01563 -0.40365,1.81967 -1.21094,2.41211 -0.80079,0.59245 -1.9043,0.88868 -3.31054,0.88868 -0.58595,0 -1.19792,-0.0586 -1.83594,-0.17579 -0.63151,-0.11067 -1.29883,-0.27994 -2.00195,-0.50781 l 0,-1.85547 c 0.66406,0.34506 1.31835,0.60547 1.96289,0.78125 0.64452,0.16928 1.28254,0.25391 1.91406,0.25391 0.84635,0 1.49739,-0.14323 1.95312,-0.42969 0.45573,-0.29296 0.68359,-0.70312 0.6836,-1.23047 -1e-5,-0.48827 -0.16603,-0.86262 -0.49805,-1.12304 -0.32553,-0.26042 -1.04493,-0.51107 -2.1582,-0.75196 l -0.625,-0.14648 c -1.11329,-0.23437 -1.91732,-0.59244 -2.41211,-1.07422 -0.49479,-0.48827 -0.74219,-1.15559 -0.74219,-2.00195 0,-1.02864 0.36458,-1.82291 1.09375,-2.38282 0.72916,-0.55988 1.76432,-0.83983 3.10547,-0.83984 0.66406,10e-6 1.28906,0.0488 1.875,0.14649 0.58593,0.0977 1.12629,0.24415 1.62109,0.43945"
           id="path4042" />
        <path
           inkscape:connector-curvature="0"
           d="m 507.46289,937.16296 0,3.10547 3.70117,0 0,1.39649 -3.70117,0 0,5.9375 c 0,0.89193 0.12044,1.46484 0.36133,1.71875 0.24739,0.2539 0.74544,0.38086 1.49414,0.38086 l 1.8457,0 0,1.5039 -1.8457,0 c -1.38672,0 -2.34375,-0.25716 -2.87109,-0.77148 -0.52735,-0.52083 -0.79102,-1.46484 -0.79102,-2.83203 l 0,-5.9375 -1.31836,0 0,-1.39649 1.31836,0 0,-3.10547 1.80664,0"
           id="path4044" />
        <path
           inkscape:connector-curvature="0"
           d="m 518.50781,945.70789 c -1.45183,0 -2.45768,0.16602 -3.01758,0.49804 -0.55989,0.33204 -0.83984,0.89844 -0.83984,1.69922 0,0.63802 0.20833,1.14584 0.625,1.52344 0.42317,0.37109 0.99609,0.55664 1.71875,0.55664 0.99609,0 1.79361,-0.35156 2.39258,-1.05469 0.60546,-0.70963 0.90819,-1.65038 0.9082,-2.82226 l 0,-0.40039 -1.78711,0 m 3.58399,-0.74219 0,6.24023 -1.79688,0 0,-1.66015 c -0.41016,0.66406 -0.92123,1.1556 -1.5332,1.47461 -0.61199,0.3125 -1.36068,0.46875 -2.2461,0.46875 -1.11979,0 -2.01172,-0.3125 -2.67578,-0.9375 -0.65755,-0.63151 -0.98633,-1.47461 -0.98632,-2.5293 -10e-6,-1.23047 0.41015,-2.1582 1.23046,-2.7832 0.82682,-0.625 2.05729,-0.9375 3.69141,-0.9375 l 2.51953,0 0,-0.17579 c -1e-5,-0.82681 -0.27344,-1.46483 -0.82031,-1.91406 -0.54037,-0.45572 -1.30209,-0.68358 -2.28516,-0.68359 -0.625,10e-6 -1.23373,0.0749 -1.82617,0.22461 -0.59245,0.14975 -1.16211,0.37436 -1.70898,0.67383 l 0,-1.66016 c 0.65755,-0.2539 1.29557,-0.4427 1.91406,-0.56641 0.61848,-0.13019 1.2207,-0.1953 1.80664,-0.19531 1.58202,10e-6 2.76366,0.41017 3.54492,1.23047 0.78124,0.82032 1.17187,2.06381 1.17188,3.73047"
           id="path4046" />
        <path
           inkscape:connector-curvature="0"
           d="m 525.77344,936.01062 1.80664,0 0,8.97461 5.36133,-4.7168 2.29492,0 -5.80078,5.11719 6.04492,5.82031 -2.34375,0 -5.55664,-5.34179 0,5.34179 -1.80664,0 0,-15.19531"
           id="path4048" />
        <path
           inkscape:connector-curvature="0"
           d="m 546.05664,945.28796 0,0.87891 -8.26172,0 c 0.0781,1.23698 0.44922,2.18099 1.11328,2.83203 0.67057,0.64453 1.60156,0.9668 2.79297,0.9668 0.6901,0 1.35742,-0.0846 2.00195,-0.25391 0.65104,-0.16927 1.29557,-0.42317 1.9336,-0.76172 l 0,1.69922 c -0.64454,0.27344 -1.30535,0.48177 -1.98242,0.625 -0.67709,0.14323 -1.36394,0.21485 -2.06055,0.21485 -1.7448,0 -3.12826,-0.50782 -4.15039,-1.52344 -1.01563,-1.01562 -1.52344,-2.38932 -1.52344,-4.1211 0,-1.79035 0.48177,-3.20962 1.44531,-4.25781 0.97005,-1.05467 2.27539,-1.58202 3.91602,-1.58203 1.47135,10e-6 2.63345,0.47527 3.48633,1.42578 0.85936,0.94402 1.28905,2.22983 1.28906,3.85742 m -1.79687,-0.52734 c -0.013,-0.98307 -0.28973,-1.76757 -0.83008,-2.35352 -0.53386,-0.58592 -1.2435,-0.87889 -2.12891,-0.8789 -1.00261,10e-6 -1.80664,0.28321 -2.41211,0.84961 -0.59896,0.56641 -0.94401,1.36394 -1.03515,2.39258 l 6.40625,-0.01"
           id="path4050" />
        <path
           inkscape:connector-curvature="0"
           d="m 559.57227,941.5282 c -0.96355,10e-6 -1.72527,0.37761 -2.28516,1.13281 -0.5599,0.74871 -0.83985,1.77735 -0.83984,3.08594 -10e-6,1.3086 0.27669,2.3405 0.83007,3.0957 0.5599,0.7487 1.32487,1.12305 2.29493,1.12305 0.95702,0 1.71548,-0.3776 2.27539,-1.13281 0.55988,-0.75521 0.83983,-1.78385 0.83984,-3.08594 -10e-6,-1.29557 -0.27996,-2.32096 -0.83984,-3.07617 -0.55991,-0.76171 -1.31837,-1.14257 -2.27539,-1.14258 m 0,-1.52344 c 1.56249,10e-6 2.7897,0.50782 3.68164,1.52344 0.89191,1.01563 1.33788,2.42188 1.33789,4.21875 -1e-5,1.79037 -0.44598,3.19662 -1.33789,4.21875 -0.89194,1.01562 -2.11915,1.52344 -3.68164,1.52344 -1.56902,0 -2.79949,-0.50782 -3.69141,-1.52344 -0.88542,-1.02213 -1.32813,-2.42838 -1.32813,-4.21875 0,-1.79687 0.44271,-3.20312 1.32813,-4.21875 0.89192,-1.01562 2.12239,-1.52343 3.69141,-1.52344"
           id="path4052" />
        <path
           inkscape:connector-curvature="0"
           d="m 566.27148,940.26843 1.9043,0 3.41797,9.17969 3.41797,-9.17969 1.9043,0 -4.10157,10.9375 -2.4414,0 -4.10157,-10.9375"
           id="path4054" />
        <path
           inkscape:connector-curvature="0"
           d="m 588.75195,945.28796 0,0.87891 -8.26172,0 c 0.0781,1.23698 0.44922,2.18099 1.11329,2.83203 0.67056,0.64453 1.60155,0.9668 2.79296,0.9668 0.6901,0 1.35742,-0.0846 2.00196,-0.25391 0.65103,-0.16927 1.29556,-0.42317 1.93359,-0.76172 l 0,1.69922 c -0.64454,0.27344 -1.30535,0.48177 -1.98242,0.625 -0.67709,0.14323 -1.36394,0.21485 -2.06055,0.21485 -1.74479,0 -3.12826,-0.50782 -4.15039,-1.52344 -1.01562,-1.01562 -1.52344,-2.38932 -1.52344,-4.1211 0,-1.79035 0.48177,-3.20962 1.44532,-4.25781 0.97005,-1.05467 2.27538,-1.58202 3.91601,-1.58203 1.47135,10e-6 2.63346,0.47527 3.48633,1.42578 0.85936,0.94402 1.28905,2.22983 1.28906,3.85742 m -1.79687,-0.52734 c -0.013,-0.98307 -0.28972,-1.76757 -0.83008,-2.35352 -0.53386,-0.58592 -1.2435,-0.87889 -2.12891,-0.8789 -1.00261,10e-6 -1.80664,0.28321 -2.41211,0.84961 -0.59896,0.56641 -0.94401,1.36394 -1.03515,2.39258 l 6.40625,-0.01"
           id="path4056" />
        <path
           inkscape:connector-curvature="0"
           d="m 598,941.94812 c -0.20183,-0.11718 -0.42318,-0.20181 -0.66406,-0.25391 -0.23438,-0.0586 -0.4948,-0.0879 -0.78125,-0.0879 -1.01563,10e-6 -1.79688,0.33204 -2.34375,0.9961 -0.54037,0.65756 -0.81055,1.60482 -0.81055,2.84179 l 0,5.76172 -1.80664,0 0,-10.9375 1.80664,0 0,1.69922 c 0.3776,-0.66405 0.86914,-1.15559 1.47461,-1.47461 0.60546,-0.32551 1.34114,-0.48827 2.20703,-0.48828 0.12369,1e-5 0.26041,0.01 0.41016,0.0293 0.14973,0.013 0.31574,0.0358 0.49804,0.0684 l 0.01,1.8457"
           id="path4058" />
      </g>
      <path
         inkscape:connector-curvature="0"
         transform="translate(520.66895,793.36218)"
         style="fill:#800000;fill-opacity:1;fill-rule:nonzero;stroke:none"
         d="M 42,70.5 C 42,76.851275 36.851275,82 30.5,82 24.148725,82 19,76.851275 19,70.5 19,64.148725 24.148725,59 30.5,59 36.851275,59 42,64.148725 42,70.5 z"
         id="path2985-55" />
    </g>
  </g>
</svg>
