<?xml version="1.0" encoding="UTF-8" standalone="no"?>
<!-- Created with Inkscape (http://www.inkscape.org/) -->

<svg
   xmlns:dc="http://purl.org/dc/elements/1.1/"
   xmlns:cc="http://creativecommons.org/ns#"
   xmlns:rdf="http://www.w3.org/1999/02/22-rdf-syntax-ns#"
   xmlns:svg="http://www.w3.org/2000/svg"
   xmlns="http://www.w3.org/2000/svg"
   xmlns:sodipodi="http://sodipodi.sourceforge.net/DTD/sodipodi-0.dtd"
   xmlns:inkscape="http://www.inkscape.org/namespaces/inkscape"
   width="600"
   height="150"
   id="svg2"
   version="1.1"
   inkscape:version="0.48.5 r10040"
   sodipodi:docname="multi-wallet-support.svg">
  <defs
     id="defs4">
    <marker
       inkscape:stockid="Arrow2Lstart"
       orient="auto"
       refY="0.0"
       refX="0.0"
       id="Arrow2Lstart"
       style="overflow:visible">
      <path
         id="path9356"
         style="fill-rule:evenodd;stroke-width:0.62500000;stroke-linejoin:round"
         d="M 8.7185878,4.0337352 L -2.2072895,0.016013256 L 8.7185884,-4.0017078 C 6.9730900,-1.6296469 6.9831476,1.6157441 8.7185878,4.0337352 z "
         transform="scale(1.1) translate(1,0)" />
    </marker>
    <marker
       inkscape:stockid="Arrow1Mstart"
       orient="auto"
       refY="0.0"
       refX="0.0"
       id="Arrow1Mstart"
       style="overflow:visible">
      <path
         id="path9344"
         d="M 0.0,0.0 L 5.0,-5.0 L -12.5,0.0 L 5.0,5.0 L 0.0,0.0 z "
         style="fill-rule:evenodd;stroke:#000000;stroke-width:1.0pt"
         transform="scale(0.4) translate(10,0)" />
    </marker>
    <marker
       inkscape:stockid="Arrow1Lstart"
       orient="auto"
       refY="0.0"
       refX="0.0"
       id="Arrow1Lstart"
       style="overflow:visible">
      <path
         id="path9338"
         d="M 0.0,0.0 L 5.0,-5.0 L -12.5,0.0 L 5.0,5.0 L 0.0,0.0 z "
         style="fill-rule:evenodd;stroke:#000000;stroke-width:1.0pt"
         transform="scale(0.8) translate(12.5,0)" />
    </marker>
    <marker
       inkscape:stockid="Arrow1Lend"
       orient="auto"
       refY="0.0"
       refX="0.0"
       id="Arrow1Lend"
       style="overflow:visible;">
      <path
         id="path9341"
         d="M 0.0,0.0 L 5.0,-5.0 L -12.5,0.0 L 5.0,5.0 L 0.0,0.0 z "
         style="fill-rule:evenodd;stroke:#000000;stroke-width:1.0pt;"
         transform="scale(0.8) rotate(180) translate(12.5,0)" />
    </marker>
    <inkscape:path-effect
       effect="spiro"
       id="path-effect4091"
       is_visible="true" />
    <inkscape:path-effect
       effect="spiro"
       id="path-effect4087"
       is_visible="true" />
    <inkscape:path-effect
       effect="spiro"
       id="path-effect4083"
       is_visible="true" />
    <inkscape:path-effect
       effect="spiro"
       id="path-effect4079"
       is_visible="true" />
    <inkscape:path-effect
       effect="spiro"
       id="path-effect4075"
       is_visible="true" />
    <inkscape:path-effect
       effect="spiro"
       id="path-effect4071"
       is_visible="true" />
    <inkscape:path-effect
       effect="spiro"
       id="path-effect4067"
       is_visible="true" />
    <inkscape:path-effect
       effect="spiro"
       id="path-effect4063"
       is_visible="true" />
    <inkscape:path-effect
       effect="spiro"
       id="path-effect3805"
       is_visible="true" />
    <inkscape:path-effect
       effect="spiro"
       id="path-effect3793"
       is_visible="true" />
    <inkscape:path-effect
       effect="spiro"
       id="path-effect3003"
       is_visible="true" />
    <inkscape:path-effect
       effect="spiro"
       id="path-effect3805-0"
       is_visible="true" />
    <inkscape:path-effect
       effect="spiro"
       id="path-effect3805-5"
       is_visible="true" />
    <linearGradient
       id="linearGradient4075">
      <stop
         style="stop-color:#000000;stop-opacity:1;"
         offset="0"
         id="stop4077" />
      <stop
         id="stop4087"
         offset="0.5"
         style="stop-color:#000000;stop-opacity:0.75838351;" />
      <stop
         id="stop4085"
         offset="1"
         style="stop-color:#000000;stop-opacity:0.56491834;" />
    </linearGradient>
  </defs>
  <sodipodi:namedview
     id="base"
     pagecolor="#ffffff"
     bordercolor="#666666"
     borderopacity="1.0"
     inkscape:pageopacity="0.0"
     inkscape:pageshadow="2"
     inkscape:zoom="1"
     inkscape:cx="239.72428"
     inkscape:cy="103.62729"
     inkscape:document-units="px"
     inkscape:current-layer="layer1"
     showgrid="false"
     inkscape:window-width="1918"
     inkscape:window-height="1042"
     inkscape:window-x="0"
     inkscape:window-y="0"
     inkscape:window-maximized="0" />
  <metadata
     id="metadata7">
    <rdf:RDF>
      <cc:Work
         rdf:about="">
        <dc:format>image/svg+xml</dc:format>
        <dc:type
           rdf:resource="http://purl.org/dc/dcmitype/StillImage" />
        <dc:title />
      </cc:Work>
    </rdf:RDF>
  </metadata>
  <g
     inkscape:label="Layer 1"
     inkscape:groupmode="layer"
     id="layer1"
     transform="translate(0,-902.36218)">
    <g
       style="font-size:16px;font-style:normal;font-weight:normal;line-height:125%;letter-spacing:0px;word-spacing:0px;fill:#000000;fill-opacity:1;stroke:none;font-family:Sans"
       id="text2987">
      <path
         inkscape:connector-curvature="0"
         d="m 32.732555,906.51721 1.695313,0 3.234375,4.79688 3.210937,-4.79688 1.695313,0 -4.125,6.10938 0,5.55468 -1.585938,0 0,-5.55468 -4.125,-6.10938"
         id="path4454" />
      <path
         inkscape:connector-curvature="0"
         d="m 45.318493,910.43909 c -0.770838,0 -1.380212,0.30209 -1.828125,0.90625 -0.447919,0.59896 -0.671878,1.42188 -0.671875,2.46875 -3e-6,1.04688 0.221351,1.8724 0.664062,2.47656 0.447914,0.59896 1.059892,0.89844 1.835938,0.89844 0.765619,0 1.372389,-0.30209 1.820312,-0.90625 0.44791,-0.60417 0.671868,-1.42708 0.671875,-2.46875 -7e-6,-1.03646 -0.223965,-1.85677 -0.671875,-2.46094 -0.447923,-0.60937 -1.054693,-0.91406 -1.820312,-0.91406 m 0,-1.21875 c 1.249994,1e-5 2.231764,0.40626 2.945312,1.21875 0.713533,0.8125 1.070304,1.9375 1.070313,3.375 -9e-6,1.43229 -0.35678,2.55729 -1.070313,3.375 -0.713548,0.8125 -1.695318,1.21875 -2.945312,1.21875 -1.255212,0 -2.239586,-0.40625 -2.953125,-1.21875 -0.708335,-0.81771 -1.062501,-1.94271 -1.0625,-3.375 -10e-7,-1.4375 0.354165,-2.5625 1.0625,-3.375 0.713539,-0.81249 1.697913,-1.21874 2.953125,-1.21875"
         id="path4456" />
      <path
         inkscape:connector-curvature="0"
         d="m 51.56068,914.72815 0,-5.29688 1.4375,0 0,5.24219 c -2e-6,0.82813 0.161456,1.45052 0.484375,1.86719 0.322913,0.41146 0.807288,0.61719 1.453125,0.61719 0.776037,0 1.388015,-0.2474 1.835938,-0.74219 0.453118,-0.49479 0.67968,-1.16927 0.679687,-2.02344 l 0,-4.96094 1.4375,0 0,8.75 -1.4375,0 0,-1.34375 c -0.348965,0.53126 -0.755214,0.92709 -1.21875,1.1875 -0.458339,0.25521 -0.992192,0.38282 -1.601562,0.38282 -1.005212,0 -1.768232,-0.3125 -2.289063,-0.9375 -0.520835,-0.625 -0.781251,-1.53906 -0.78125,-2.74219 m 3.617188,-5.50781 0,0"
         id="path4458" />
      <path
         inkscape:connector-curvature="0"
         d="m 66.93568,910.77502 c -0.161464,-0.0937 -0.338548,-0.16145 -0.53125,-0.20312 -0.187505,-0.0469 -0.395839,-0.0703 -0.625,-0.0703 -0.812504,0 -1.437504,0.26563 -1.875,0.79687 -0.432294,0.52605 -0.64844,1.28386 -0.648437,2.27344 l 0,4.60937 -1.445313,0 0,-8.75 1.445313,0 0,1.35938 c 0.30208,-0.53124 0.695309,-0.92447 1.179687,-1.17969 0.484371,-0.26041 1.072912,-0.39061 1.765625,-0.39062 0.09895,10e-6 0.208328,0.008 0.328125,0.0234 0.119786,0.0104 0.252598,0.0287 0.398438,0.0547 l 0.0078,1.47656"
         id="path4460" />
      <path
         inkscape:connector-curvature="0"
         d="m 79.834118,913.81409 c -8e-6,-1.05729 -0.218758,-1.88541 -0.65625,-2.48438 -0.432298,-0.60416 -1.028652,-0.90624 -1.789063,-0.90625 -0.760421,10e-6 -1.359379,0.30209 -1.796875,0.90625 -0.432294,0.59897 -0.64844,1.42709 -0.648437,2.48438 -3e-6,1.05729 0.216143,1.88802 0.648437,2.49218 0.437496,0.59896 1.036454,0.89844 1.796875,0.89844 0.760411,0 1.356765,-0.29948 1.789063,-0.89844 0.437492,-0.60416 0.656242,-1.43489 0.65625,-2.49218 m -4.890625,-3.05469 c 0.30208,-0.52083 0.682288,-0.90624 1.140625,-1.15625 0.463537,-0.2552 1.01562,-0.3828 1.65625,-0.38281 1.062493,1e-5 1.924471,0.42188 2.585937,1.26562 0.666658,0.84376 0.999991,1.95313 1,3.32813 -9e-6,1.375 -0.333342,2.48437 -1,3.32812 -0.661466,0.84375 -1.523444,1.26563 -2.585937,1.26563 -0.64063,0 -1.192713,-0.125 -1.65625,-0.375 -0.458337,-0.25521 -0.838545,-0.64323 -1.140625,-1.16407 l 0,1.3125 -1.445313,0 0,-12.15625 1.445313,0 0,4.73438"
         id="path4462" />
      <path
         inkscape:connector-curvature="0"
         d="m 83.56068,914.72815 0,-5.29688 1.4375,0 0,5.24219 c -2e-6,0.82813 0.161456,1.45052 0.484375,1.86719 0.322913,0.41146 0.807288,0.61719 1.453125,0.61719 0.776037,0 1.388015,-0.2474 1.835938,-0.74219 0.453118,-0.49479 0.67968,-1.16927 0.679687,-2.02344 l 0,-4.96094 1.4375,0 0,8.75 -1.4375,0 0,-1.34375 c -0.348965,0.53126 -0.755214,0.92709 -1.21875,1.1875 -0.458339,0.25521 -0.992192,0.38282 -1.601562,0.38282 -1.005212,0 -1.768232,-0.3125 -2.289063,-0.9375 -0.520835,-0.625 -0.781251,-1.53906 -0.78125,-2.74219 m 3.617188,-5.50781 0,0"
         id="path4464" />
      <path
         inkscape:connector-curvature="0"
         d="m 93.865368,909.43127 1.4375,0 0,8.75 -1.4375,0 0,-8.75 m 0,-3.40625 1.4375,0 0,1.82032 -1.4375,0 0,-1.82032"
         id="path4466" />
      <path
         inkscape:connector-curvature="0"
         d="m 98.302868,906.02502 1.4375,0 0,12.15625 -1.4375,0 0,-12.15625"
         id="path4468" />
      <path
         inkscape:connector-curvature="0"
         d="m 104.16224,906.9469 0,2.48437 2.96094,0 0,1.11719 -2.96094,0 0,4.75 c 0,0.71355 0.0964,1.17188 0.28907,1.375 0.19791,0.20313 0.59635,0.30469 1.19531,0.30469 l 1.47656,0 0,1.20312 -1.47656,0 c -1.10938,0 -1.875,-0.20572 -2.29688,-0.61718 -0.42187,-0.41667 -0.63281,-1.17188 -0.63281,-2.26563 l 0,-4.75 -1.05469,0 0,-1.11719 1.05469,0 0,-2.48437 1.44531,0"
         id="path4470" />
      <path
         inkscape:connector-curvature="0"
         d="m 108.29506,913.15784 4.21093,0 0,1.28125 -4.21093,0 0,-1.28125"
         id="path4472" />
      <path
         inkscape:connector-curvature="0"
         d="m 114.80287,909.43127 1.4375,0 0,8.75 -1.4375,0 0,-8.75 m 0,-3.40625 1.4375,0 0,1.82032 -1.4375,0 0,-1.82032"
         id="path4474" />
      <path
         inkscape:connector-curvature="0"
         d="m 126.51381,912.90002 0,5.28125 -1.4375,0 0,-5.23437 c -1e-5,-0.82812 -0.16147,-1.44791 -0.48438,-1.85938 -0.32292,-0.41145 -0.8073,-0.61718 -1.45312,-0.61718 -0.77605,0 -1.38803,0.2474 -1.83594,0.74218 -0.44792,0.4948 -0.67188,1.16928 -0.67188,2.02344 l 0,4.94531 -1.44531,0 0,-8.75 1.44531,0 0,1.35938 c 0.34375,-0.52603 0.7474,-0.91926 1.21094,-1.17969 0.46875,-0.26041 1.00781,-0.39061 1.61719,-0.39062 1.0052,1e-5 1.76562,0.31251 2.28125,0.9375 0.51561,0.6198 0.77343,1.53386 0.77344,2.74218"
         id="path4476" />
      <path
         inkscape:connector-curvature="0"
         d="m 133.65443,909.43127 1.4375,0 1.79688,6.82813 1.78906,-6.82813 1.69531,0 1.79688,6.82813 1.78906,-6.82813 1.4375,0 -2.28906,8.75 -1.69532,0 -1.88281,-7.17187 -1.89062,7.17187 -1.69532,0 -2.28906,-8.75"
         id="path4478" />
      <path
         inkscape:connector-curvature="0"
         d="m 151.56068,913.78284 c -1.16146,0 -1.96615,0.13281 -2.41406,0.39843 -0.44792,0.26563 -0.67188,0.71876 -0.67188,1.35938 0,0.51042 0.16667,0.91667 0.5,1.21875 0.33854,0.29688 0.79687,0.44531 1.375,0.44531 0.79687,0 1.43489,-0.28125 1.91407,-0.84375 0.48436,-0.5677 0.72655,-1.32031 0.72656,-2.25781 l 0,-0.32031 -1.42969,0 m 2.86719,-0.59375 0,4.99218 -1.4375,0 0,-1.32812 c -0.32813,0.53125 -0.73699,0.92448 -1.22656,1.17969 -0.48959,0.25 -1.08855,0.375 -1.79688,0.375 -0.89584,0 -1.60938,-0.25 -2.14062,-0.75 -0.52605,-0.50521 -0.78907,-1.17969 -0.78907,-2.02344 0,-0.98437 0.32813,-1.72656 0.98438,-2.22656 0.66145,-0.5 1.64583,-0.75 2.95312,-0.75 l 2.01563,0 0,-0.14063 c -1e-5,-0.66145 -0.21876,-1.17187 -0.65625,-1.53125 -0.4323,-0.36457 -1.04167,-0.54687 -1.82813,-0.54687 -0.5,0 -0.98698,0.0599 -1.46093,0.17968 -0.47397,0.1198 -0.92969,0.29949 -1.36719,0.53907 l 0,-1.32813 c 0.52604,-0.20311 1.03645,-0.35416 1.53125,-0.45312 0.49479,-0.10416 0.97656,-0.15624 1.44531,-0.15625 1.26562,1e-5 2.21093,0.32813 2.83594,0.98437 0.62499,0.65626 0.93749,1.65105 0.9375,2.98438"
         id="path4480" />
      <path
         inkscape:connector-curvature="0"
         d="m 157.42787,906.02502 1.4375,0 0,12.15625 -1.4375,0 0,-12.15625"
         id="path4482" />
      <path
         inkscape:connector-curvature="0"
         d="m 161.86537,906.02502 1.4375,0 0,12.15625 -1.4375,0 0,-12.15625"
         id="path4484" />
      <path
         inkscape:connector-curvature="0"
         d="m 173.78724,913.4469 0,0.70312 -6.60937,0 c 0.0625,0.98959 0.35937,1.7448 0.89062,2.26563 0.53646,0.51563 1.28125,0.77344 2.23438,0.77344 0.55208,0 1.08593,-0.0677 1.60156,-0.20313 0.52083,-0.13541 1.03645,-0.33854 1.54688,-0.60937 l 0,1.35937 c -0.51564,0.21875 -1.04428,0.38542 -1.58594,0.5 -0.54168,0.11459 -1.09115,0.17188 -1.64844,0.17188 -1.39584,0 -2.50261,-0.40625 -3.32031,-1.21875 -0.8125,-0.8125 -1.21875,-1.91146 -1.21875,-3.29688 0,-1.43228 0.38541,-2.5677 1.15625,-3.40625 0.77604,-0.84374 1.82031,-1.26561 3.13281,-1.26562 1.17708,1e-5 2.10676,0.38021 2.78906,1.14062 0.68749,0.75522 1.03124,1.78386 1.03125,3.08594 m -1.4375,-0.42188 c -0.0104,-0.78645 -0.23178,-1.41405 -0.66406,-1.88281 -0.42709,-0.46874 -0.9948,-0.70312 -1.70312,-0.70312 -0.80209,0 -1.44532,0.22657 -1.92969,0.67968 -0.47917,0.45314 -0.75521,1.09116 -0.82813,1.91407 l 5.125,-0.008"
         id="path4486" />
      <path
         inkscape:connector-curvature="0"
         d="m 177.53724,906.9469 0,2.48437 2.96094,0 0,1.11719 -2.96094,0 0,4.75 c 0,0.71355 0.0964,1.17188 0.28907,1.375 0.19791,0.20313 0.59635,0.30469 1.19531,0.30469 l 1.47656,0 0,1.20312 -1.47656,0 c -1.10938,0 -1.875,-0.20572 -2.29688,-0.61718 -0.42187,-0.41667 -0.63281,-1.17188 -0.63281,-2.26563 l 0,-4.75 -1.05469,0 0,-1.11719 1.05469,0 0,-2.48437 1.44531,0"
         id="path4488" />
    </g>
    <g
       style="font-size:16px;font-style:normal;font-weight:normal;line-height:125%;letter-spacing:0px;word-spacing:0px;fill:#000000;fill-opacity:1;stroke:none;font-family:Sans"
       id="text2993"
       transform="translate(0,0.43798668)">
      <path
         inkscape:connector-curvature="0"
         d="m 27.236994,947.41736 0,-3.13281 -2.578125,0 0,-1.29688 4.140625,0 0,5.00781 c -0.609386,0.4323 -1.28126,0.76042 -2.015625,0.98438 -0.734384,0.21875 -1.518237,0.32812 -2.351563,0.32812 -1.822921,0 -3.250003,-0.53125 -4.28125,-1.59375 -1.026043,-1.0677 -1.539063,-2.55208 -1.539062,-4.45312 -1e-6,-1.90624 0.513019,-3.39062 1.539062,-4.45313 1.031247,-1.06769 2.458329,-1.60155 4.28125,-1.60156 0.760409,10e-6 1.481763,0.0938 2.164063,0.28125 0.68749,0.18751 1.320302,0.46355 1.898437,0.82813 l 0,1.67968 c -0.583343,-0.49478 -1.203134,-0.86717 -1.859375,-1.11718 -0.656258,-0.24999 -1.346361,-0.37499 -2.070312,-0.375 -1.427089,1e-5 -2.500005,0.39844 -3.21875,1.19531 -0.713545,0.79688 -1.070315,1.98438 -1.070313,3.5625 -2e-6,1.57292 0.356768,2.75781 1.070313,3.55469 0.718745,0.79687 1.791661,1.19531 3.21875,1.19531 0.557284,0 1.054679,-0.0469 1.492187,-0.14063 0.437492,-0.099 0.83072,-0.25 1.179688,-0.45312"
         id="path4435" />
      <path
         inkscape:connector-curvature="0"
         d="m 36.697931,941.67517 c -0.161464,-0.0937 -0.338548,-0.16145 -0.53125,-0.20312 -0.187506,-0.0469 -0.395839,-0.0703 -0.625,-0.0703 -0.812504,10e-6 -1.437504,0.26564 -1.875,0.79688 -0.432294,0.52605 -0.64844,1.28386 -0.648437,2.27344 l 0,4.60937 -1.445313,0 0,-8.75 1.445313,0 0,1.35938 c 0.30208,-0.53125 0.695309,-0.92447 1.179687,-1.17969 0.484371,-0.26041 1.072912,-0.39062 1.765625,-0.39063 0.09895,10e-6 0.208328,0.008 0.328125,0.0234 0.119786,0.0104 0.252598,0.0287 0.398438,0.0547 l 0.0078,1.47656"
         id="path4437" />
      <path
         inkscape:connector-curvature="0"
         d="m 42.197931,944.68298 c -1.161462,10e-6 -1.966149,0.13282 -2.414062,0.39844 -0.447919,0.26563 -0.671878,0.71875 -0.671875,1.35938 -3e-6,0.51041 0.166664,0.91666 0.5,1.21875 0.338538,0.29687 0.796871,0.44531 1.375,0.44531 0.79687,0 1.43489,-0.28125 1.914062,-0.84375 0.484369,-0.56771 0.726556,-1.32031 0.726563,-2.25781 l 0,-0.32032 -1.429688,0 m 2.867188,-0.59375 0,4.99219 -1.4375,0 0,-1.32812 c -0.328132,0.53125 -0.736986,0.92448 -1.226563,1.17968 -0.489588,0.25 -1.088546,0.375 -1.796875,0.375 -0.895836,0 -1.609377,-0.25 -2.140625,-0.75 -0.526043,-0.5052 -0.789063,-1.17968 -0.789062,-2.02343 -1e-6,-0.98438 0.328124,-1.72656 0.984375,-2.22657 0.661456,-0.49999 1.64583,-0.74999 2.953125,-0.75 l 2.015625,0 0,-0.14062 c -7e-6,-0.66145 -0.218757,-1.17187 -0.65625,-1.53125 -0.432298,-0.36458 -1.041672,-0.54687 -1.828125,-0.54688 -0.500004,10e-6 -0.986983,0.0599 -1.460938,0.17969 -0.473961,0.1198 -0.929689,0.29949 -1.367187,0.53906 l 0,-1.32812 c 0.526039,-0.20312 1.036455,-0.35416 1.53125,-0.45313 0.494788,-0.10415 0.976558,-0.15624 1.445312,-0.15625 1.265619,10e-6 2.210931,0.32814 2.835938,0.98438 0.624992,0.65626 0.937491,1.65105 0.9375,2.98437"
         id="path4439" />
      <path
         inkscape:connector-curvature="0"
         d="m 49.455744,947.76892 0,4.64063 -1.445313,0 0,-12.07813 1.445313,0 0,1.32813 c 0.30208,-0.52083 0.682288,-0.90625 1.140625,-1.15625 0.463537,-0.2552 1.01562,-0.38281 1.65625,-0.38282 1.062493,10e-6 1.924471,0.42189 2.585937,1.26563 0.666658,0.84376 0.999991,1.95313 1,3.32812 -9e-6,1.37501 -0.333342,2.48438 -1,3.32813 -0.661466,0.84375 -1.523444,1.26562 -2.585937,1.26562 -0.64063,0 -1.192713,-0.125 -1.65625,-0.375 -0.458337,-0.2552 -0.838545,-0.64322 -1.140625,-1.16406 m 4.890625,-3.05469 c -8e-6,-1.05728 -0.218758,-1.88541 -0.65625,-2.48437 -0.432299,-0.60416 -1.028652,-0.90624 -1.789063,-0.90625 -0.760421,10e-6 -1.359379,0.30209 -1.796875,0.90625 -0.432294,0.59896 -0.64844,1.42709 -0.648437,2.48437 -3e-6,1.0573 0.216143,1.88803 0.648437,2.49219 0.437496,0.59896 1.036454,0.89844 1.796875,0.89844 0.760411,0 1.356764,-0.29948 1.789063,-0.89844 0.437492,-0.60416 0.656242,-1.43489 0.65625,-2.49219"
         id="path4441" />
      <path
         inkscape:connector-curvature="0"
         d="m 65.494806,943.80017 0,5.28125 -1.4375,0 0,-5.23437 c -7e-6,-0.82812 -0.161465,-1.44791 -0.484375,-1.85938 -0.322923,-0.41145 -0.807297,-0.61718 -1.453125,-0.61719 -0.776046,10e-6 -1.388025,0.24741 -1.835937,0.74219 -0.44792,0.4948 -0.671878,1.16928 -0.671875,2.02344 l 0,4.94531 -1.445313,0 0,-12.15625 1.445313,0 0,4.76563 c 0.343747,-0.52604 0.747392,-0.91927 1.210937,-1.17969 0.468746,-0.26041 1.007808,-0.39062 1.617188,-0.39063 1.005201,10e-6 1.765617,0.31251 2.28125,0.9375 0.515616,0.6198 0.773429,1.53386 0.773437,2.74219"
         id="path4443" />
      <path
         inkscape:connector-curvature="0"
         d="m 68.377619,940.33142 1.4375,0 0,8.75 -1.4375,0 0,-8.75 m 0,-3.40625 1.4375,0 0,1.82031 -1.4375,0 0,-1.82031"
         id="path4445" />
      <path
         inkscape:connector-curvature="0"
         d="m 79.111994,940.66736 0,1.34375 c -0.406258,-0.22395 -0.815111,-0.39062 -1.226563,-0.5 -0.406256,-0.11458 -0.817714,-0.17187 -1.234375,-0.17188 -0.932296,10e-6 -1.656253,0.29689 -2.171875,0.89063 -0.515627,0.58855 -0.77344,1.41667 -0.773437,2.48437 -3e-6,1.06772 0.25781,1.89844 0.773437,2.49219 0.515622,0.58854 1.239579,0.88281 2.171875,0.88281 0.416661,0 0.828119,-0.0547 1.234375,-0.16406 0.411452,-0.11458 0.820305,-0.28385 1.226563,-0.50781 l 0,1.32812 c -0.401049,0.1875 -0.817716,0.32813 -1.25,0.42188 -0.42709,0.0937 -0.882818,0.14062 -1.367188,0.14062 -1.317712,0 -2.364586,-0.41406 -3.140625,-1.24218 -0.776043,-0.82813 -1.164063,-1.94531 -1.164062,-3.35157 -10e-7,-1.42707 0.390624,-2.54947 1.171875,-3.36718 0.786455,-0.8177 1.861975,-1.22656 3.226562,-1.22657 0.442703,10e-6 0.874994,0.0469 1.296875,0.14063 0.421868,0.0885 0.830722,0.22397 1.226563,0.40625"
         id="path4447" />
      <path
         inkscape:connector-curvature="0"
         d="m 85.572931,944.68298 c -1.161462,10e-6 -1.966149,0.13282 -2.414062,0.39844 -0.447919,0.26563 -0.671878,0.71875 -0.671875,1.35938 -3e-6,0.51041 0.166664,0.91666 0.5,1.21875 0.338538,0.29687 0.796871,0.44531 1.375,0.44531 0.79687,0 1.43489,-0.28125 1.914062,-0.84375 0.484369,-0.56771 0.726556,-1.32031 0.726563,-2.25781 l 0,-0.32032 -1.429688,0 m 2.867188,-0.59375 0,4.99219 -1.4375,0 0,-1.32812 c -0.328132,0.53125 -0.736986,0.92448 -1.226563,1.17968 -0.489588,0.25 -1.088546,0.375 -1.796875,0.375 -0.895836,0 -1.609377,-0.25 -2.140625,-0.75 -0.526043,-0.5052 -0.789063,-1.17968 -0.789062,-2.02343 -10e-7,-0.98438 0.328124,-1.72656 0.984375,-2.22657 0.661456,-0.49999 1.64583,-0.74999 2.953125,-0.75 l 2.015625,0 0,-0.14062 c -7e-6,-0.66145 -0.218757,-1.17187 -0.65625,-1.53125 -0.432298,-0.36458 -1.041672,-0.54687 -1.828125,-0.54688 -0.500004,10e-6 -0.986983,0.0599 -1.460938,0.17969 -0.473961,0.1198 -0.929689,0.29949 -1.367187,0.53906 l 0,-1.32812 c 0.526039,-0.20312 1.036455,-0.35416 1.53125,-0.45313 0.494788,-0.10415 0.976558,-0.15624 1.445312,-0.15625 1.265619,10e-6 2.210931,0.32814 2.835938,0.98438 0.624992,0.65626 0.937491,1.65105 0.9375,2.98437"
         id="path4449" />
      <path
         inkscape:connector-curvature="0"
         d="m 91.440119,936.92517 1.4375,0 0,12.15625 -1.4375,0 0,-12.15625"
         id="path4451" />
    </g>
    <g
       style="font-size:16px;font-style:normal;font-weight:normal;line-height:125%;letter-spacing:0px;word-spacing:0px;fill:#000000;fill-opacity:1;stroke:none;font-family:Sans"
       id="text2997">
      <g
         style="font-size:20px;fill:#000000;font-family:Sans"
         id="text5265">
        <path
           d="m 125.31084,938.14246 0,2.08007 c -0.66408,-0.61847 -1.37371,-1.08071 -2.12891,-1.38671 -0.74871,-0.30598 -1.54623,-0.45898 -2.39258,-0.45899 -1.66667,10e-6 -2.94271,0.51108 -3.82812,1.5332 -0.88542,1.01564 -1.32813,2.48699 -1.32813,4.41407 0,1.92057 0.44271,3.39193 1.32813,4.41406 0.88541,1.01563 2.16145,1.52344 3.82812,1.52344 0.84635,0 1.64387,-0.153 2.39258,-0.45899 0.7552,-0.30599 1.46483,-0.76822 2.12891,-1.38672 l 0,2.06055 c -0.69012,0.46875 -1.42254,0.82031 -2.19727,1.05469 -0.76824,0.23437 -1.58204,0.35156 -2.44141,0.35156 -2.20703,0 -3.94531,-0.67383 -5.21484,-2.02148 -1.26953,-1.35417 -1.9043,-3.19987 -1.9043,-5.53711 0,-2.34374 0.63477,-4.18944 1.9043,-5.53711 1.26953,-1.35416 3.00781,-2.03124 5.21484,-2.03125 0.87239,1e-5 1.6927,0.1172 2.46094,0.35156 0.77473,0.22788 1.50064,0.57293 2.17774,1.03516"
           style=""
           id="path5270" />
        <path
           d="m 128.37724,937.01941 1.97266,0 0,12.91992 7.09961,0 0,1.66016 -9.07227,0 0,-14.58008"
           style=""
           id="path5272" />
        <path
           d="m 139.51006,937.01941 1.97265,0 0,14.58008 -1.97265,0 0,-14.58008"
           style=""
           id="path5274" />
        <path
           d="m 148.52373,937.01941 1.66015,0 -5.07812,16.43555 -1.66016,0 5.07813,-16.43555"
           style=""
           id="path5276" />
        <path
           d="m 157.03935,938.96277 -2.67578,7.25586 5.36133,0 -2.68555,-7.25586 m -1.11328,-1.94336 2.23633,0 5.55664,14.58008 -2.05078,0 -1.32813,-3.74024 -6.57226,0 -1.32813,3.74024 -2.08008,0 5.56641,-14.58008"
           style=""
           id="path5278" />
        <path
           d="m 167.81084,938.6405 0,5.47852 2.48047,0 c 0.91796,10e-6 1.62759,-0.23762 2.1289,-0.71289 0.50129,-0.47525 0.75195,-1.15234 0.75195,-2.03125 0,-0.87239 -0.25066,-1.54621 -0.75195,-2.02149 -0.50131,-0.47524 -1.21094,-0.71287 -2.1289,-0.71289 l -2.48047,0 m -1.97266,-1.62109 4.45313,0 c 1.6341,10e-6 2.86782,0.37111 3.70117,1.11328 0.83983,0.73569 1.25975,1.81642 1.25976,3.24219 -1e-5,1.43881 -0.41993,2.52605 -1.25976,3.26172 -0.83335,0.73568 -2.06707,1.10352 -3.70117,1.10351 l -2.48047,0 0,5.85938 -1.97266,0 0,-14.58008"
           style=""
           id="path5280" />
        <path
           d="m 177.90849,937.01941 1.97266,0 0,14.58008 -1.97266,0 0,-14.58008"
           style=""
           id="path5282" />
      </g>
    </g>
    <path
       inkscape:connector-curvature="0"
       style="fill:none;stroke:#000000;stroke-width:2.29513216;stroke-linecap:butt;stroke-linejoin:miter;stroke-miterlimit:4;stroke-opacity:1"
       d="m 105.93917,960.70276 0,-33.99272"
       id="path3001" />
    <g
       style="font-size:16px;font-style:normal;font-weight:normal;line-height:125%;letter-spacing:0px;word-spacing:0px;fill:#000000;fill-opacity:1;stroke:none;font-family:Sans"
       id="text3773">
      <path
         inkscape:connector-curvature="0"
         d="m 406.75558,906.92639 1.69532,0 3.23437,4.79688 3.21094,-4.79688 1.69531,0 -4.125,6.10938 0,5.55468 -1.58594,0 0,-5.55468 -4.125,-6.10938"
         id="path4372" />
      <path
         inkscape:connector-curvature="0"
         d="m 419.34152,910.84827 c -0.77084,0 -1.38021,0.30209 -1.82812,0.90625 -0.44792,0.59896 -0.67188,1.42188 -0.67188,2.46875 0,1.04687 0.22135,1.87239 0.66406,2.47656 0.44792,0.59896 1.0599,0.89844 1.83594,0.89844 0.76562,0 1.37239,-0.30209 1.82031,-0.90625 0.44791,-0.60417 0.67187,-1.42708 0.67188,-2.46875 -10e-6,-1.03646 -0.22397,-1.85677 -0.67188,-2.46094 -0.44792,-0.60937 -1.05469,-0.91406 -1.82031,-0.91406 m 0,-1.21875 c 1.25,1e-5 2.23177,0.40626 2.94531,1.21875 0.71354,0.8125 1.07031,1.9375 1.07032,3.375 -10e-6,1.43229 -0.35678,2.55729 -1.07032,3.375 -0.71354,0.8125 -1.69531,1.21875 -2.94531,1.21875 -1.25521,0 -2.23958,-0.40625 -2.95312,-1.21875 -0.70834,-0.81771 -1.0625,-1.94271 -1.0625,-3.375 0,-1.4375 0.35416,-2.5625 1.0625,-3.375 0.71354,-0.81249 1.69791,-1.21874 2.95312,-1.21875"
         id="path4374" />
      <path
         inkscape:connector-curvature="0"
         d="m 425.58371,915.13733 0,-5.29688 1.4375,0 0,5.24219 c 0,0.82813 0.16146,1.45052 0.48437,1.86719 0.32292,0.41146 0.80729,0.61719 1.45313,0.61719 0.77604,0 1.38801,-0.2474 1.83594,-0.74219 0.45312,-0.49479 0.67968,-1.16927 0.67968,-2.02344 l 0,-4.96094 1.4375,0 0,8.75 -1.4375,0 0,-1.34375 c -0.34896,0.53125 -0.75521,0.92709 -1.21875,1.1875 -0.45833,0.25521 -0.99219,0.38282 -1.60156,0.38282 -1.00521,0 -1.76823,-0.3125 -2.28906,-0.9375 -0.52084,-0.625 -0.78125,-1.53906 -0.78125,-2.74219 m 3.61719,-5.50781 0,0"
         id="path4376" />
      <path
         inkscape:connector-curvature="0"
         d="m 440.95871,911.1842 c -0.16147,-0.0937 -0.33855,-0.16145 -0.53125,-0.20312 -0.18751,-0.0469 -0.39584,-0.0703 -0.625,-0.0703 -0.8125,0 -1.4375,0.26563 -1.875,0.79687 -0.4323,0.52605 -0.64844,1.28386 -0.64844,2.27344 l 0,4.60937 -1.44531,0 0,-8.75 1.44531,0 0,1.35938 c 0.30208,-0.53124 0.69531,-0.92447 1.17969,-1.17969 0.48437,-0.26041 1.07291,-0.39061 1.76562,-0.39062 0.099,10e-6 0.20833,0.008 0.32813,0.0234 0.11979,0.0104 0.2526,0.0287 0.39844,0.0547 l 0.008,1.47656"
         id="path4378" />
      <path
         inkscape:connector-curvature="0"
         d="m 447.5759,906.4342 1.4375,0 0,12.15625 -1.4375,0 0,-12.15625"
         id="path4380" />
      <path
         inkscape:connector-curvature="0"
         d="m 452.0134,909.84045 1.4375,0 0,8.75 -1.4375,0 0,-8.75 m 0,-3.40625 1.4375,0 0,1.82032 -1.4375,0 0,-1.82032"
         id="path4382" />
      <path
         inkscape:connector-curvature="0"
         d="m 462.20871,914.11389 c -10e-6,-1.04166 -0.21615,-1.84895 -0.64844,-2.42187 -0.42709,-0.57291 -1.02865,-0.85937 -1.80469,-0.85938 -0.77083,10e-6 -1.37239,0.28647 -1.80468,0.85938 -0.42709,0.57292 -0.64063,1.38021 -0.64063,2.42187 0,1.03646 0.21354,1.84115 0.64063,2.41406 0.43229,0.57292 1.03385,0.85938 1.80468,0.85938 0.77604,0 1.3776,-0.28646 1.80469,-0.85938 0.43229,-0.57291 0.64843,-1.3776 0.64844,-2.41406 m 1.4375,3.39063 c -10e-6,1.48958 -0.33074,2.59635 -0.99219,3.32031 -0.66146,0.72916 -1.67448,1.09375 -3.03906,1.09375 -0.50521,0 -0.98177,-0.0391 -1.42969,-0.11719 -0.44792,-0.0729 -0.88281,-0.1875 -1.30469,-0.34375 l 0,-1.39844 c 0.42188,0.22917 0.83854,0.39844 1.25,0.50782 0.41146,0.10937 0.83073,0.16406 1.25782,0.16406 0.9427,0 1.64843,-0.2474 2.11718,-0.74219 0.46875,-0.48958 0.70312,-1.23177 0.70313,-2.22656 l 0,-0.71094 c -0.29688,0.51563 -0.67709,0.90104 -1.14063,1.15625 -0.46354,0.25521 -1.01823,0.38281 -1.66406,0.38281 -1.07292,0 -1.9375,-0.40885 -2.59375,-1.22656 -0.65625,-0.8177 -0.98437,-1.90104 -0.98437,-3.25 0,-1.35416 0.32812,-2.4401 0.98437,-3.25781 0.65625,-0.8177 1.52083,-1.22655 2.59375,-1.22656 0.64583,1e-5 1.20052,0.12761 1.66406,0.38281 0.46354,0.25522 0.84375,0.64063 1.14063,1.15625 l 0,-1.32813 1.4375,0 0,7.66407"
         id="path4384" />
      <path
         inkscape:connector-curvature="0"
         d="m 473.88058,913.3092 0,5.28125 -1.4375,0 0,-5.23437 c 0,-0.82812 -0.16146,-1.44791 -0.48437,-1.85938 -0.32292,-0.41145 -0.8073,-0.61718 -1.45313,-0.61718 -0.77604,0 -1.38802,0.2474 -1.83593,0.74218 -0.44792,0.4948 -0.67188,1.16928 -0.67188,2.02344 l 0,4.94531 -1.44531,0 0,-12.15625 1.44531,0 0,4.76563 c 0.34375,-0.52603 0.74739,-0.91926 1.21094,-1.17969 0.46875,-0.26041 1.00781,-0.39061 1.61719,-0.39062 1.0052,1e-5 1.76561,0.31251 2.28125,0.9375 0.51561,0.6198 0.77343,1.53386 0.77343,2.74218"
         id="path4386" />
      <path
         inkscape:connector-curvature="0"
         d="m 478.18527,907.35608 0,2.48437 2.96094,0 0,1.11719 -2.96094,0 0,4.75 c 0,0.71355 0.0963,1.17188 0.28906,1.375 0.19792,0.20313 0.59636,0.30469 1.19532,0.30469 l 1.47656,0 0,1.20312 -1.47656,0 c -1.10938,0 -1.87501,-0.20572 -2.29688,-0.61718 -0.42187,-0.41667 -0.63281,-1.17188 -0.63281,-2.26563 l 0,-4.75 -1.05469,0 0,-1.11719 1.05469,0 0,-2.48437 1.44531,0"
         id="path4388" />
      <path
         inkscape:connector-curvature="0"
         d="m 482.20871,909.84045 1.4375,0 1.79687,6.82813 1.78907,-6.82813 1.69531,0 1.79687,6.82813 1.78907,-6.82813 1.4375,0 -2.28907,8.75 -1.69531,0 -1.88281,-7.17187 -1.89063,7.17187 -1.69531,0 -2.28906,-8.75"
         id="path4390" />
      <path
         inkscape:connector-curvature="0"
         d="m 503.62277,913.85608 0,0.70312 -6.60937,0 c 0.0625,0.98959 0.35937,1.7448 0.89062,2.26563 0.53646,0.51563 1.28125,0.77344 2.23438,0.77344 0.55207,0 1.08593,-0.0677 1.60156,-0.20313 0.52083,-0.13541 1.03645,-0.33854 1.54687,-0.60937 l 0,1.35937 c -0.51563,0.21875 -1.04427,0.38542 -1.58593,0.5 -0.54168,0.11458 -1.09115,0.17188 -1.64844,0.17188 -1.39584,0 -2.50261,-0.40625 -3.32031,-1.21875 -0.8125,-0.8125 -1.21875,-1.91146 -1.21875,-3.29688 0,-1.43228 0.38541,-2.5677 1.15625,-3.40625 0.77604,-0.84374 1.82031,-1.26561 3.13281,-1.26562 1.17708,1e-5 2.10676,0.38021 2.78906,1.14062 0.68749,0.75522 1.03124,1.78386 1.03125,3.08594 m -1.4375,-0.42188 c -0.0104,-0.78645 -0.23178,-1.41405 -0.66406,-1.88281 -0.42709,-0.46874 -0.9948,-0.70312 -1.70313,-0.70312 -0.80208,0 -1.44531,0.22657 -1.92968,0.67968 -0.47917,0.45314 -0.75521,1.09116 -0.82813,1.91407 l 5.125,-0.008"
         id="path4392" />
      <path
         inkscape:connector-curvature="0"
         d="m 505.9509,909.84045 1.4375,0 0,8.75 -1.4375,0 0,-8.75 m 0,-3.40625 1.4375,0 0,1.82032 -1.4375,0 0,-1.82032"
         id="path4394" />
      <path
         inkscape:connector-curvature="0"
         d="m 516.14621,914.11389 c -10e-6,-1.04166 -0.21615,-1.84895 -0.64844,-2.42187 -0.42709,-0.57291 -1.02865,-0.85937 -1.80469,-0.85938 -0.77083,10e-6 -1.37239,0.28647 -1.80468,0.85938 -0.42709,0.57292 -0.64063,1.38021 -0.64063,2.42187 0,1.03646 0.21354,1.84115 0.64063,2.41406 0.43229,0.57292 1.03385,0.85938 1.80468,0.85938 0.77604,0 1.3776,-0.28646 1.80469,-0.85938 0.43229,-0.57291 0.64843,-1.3776 0.64844,-2.41406 m 1.4375,3.39063 c -10e-6,1.48958 -0.33074,2.59635 -0.99219,3.32031 -0.66146,0.72916 -1.67448,1.09375 -3.03906,1.09375 -0.50521,0 -0.98177,-0.0391 -1.42969,-0.11719 -0.44792,-0.0729 -0.88281,-0.1875 -1.30469,-0.34375 l 0,-1.39844 c 0.42188,0.22917 0.83854,0.39844 1.25,0.50782 0.41146,0.10937 0.83073,0.16406 1.25782,0.16406 0.9427,0 1.64843,-0.2474 2.11718,-0.74219 0.46875,-0.48958 0.70312,-1.23177 0.70313,-2.22656 l 0,-0.71094 c -0.29688,0.51563 -0.67709,0.90104 -1.14063,1.15625 -0.46354,0.25521 -1.01823,0.38281 -1.66406,0.38281 -1.07292,0 -1.9375,-0.40885 -2.59375,-1.22656 -0.65625,-0.8177 -0.98437,-1.90104 -0.98437,-3.25 0,-1.35416 0.32812,-2.4401 0.98437,-3.25781 0.65625,-0.8177 1.52083,-1.22655 2.59375,-1.22656 0.64583,1e-5 1.20052,0.12761 1.66406,0.38281 0.46354,0.25522 0.84375,0.64063 1.14063,1.15625 l 0,-1.32813 1.4375,0 0,7.66407"
         id="path4396" />
      <path
         inkscape:connector-curvature="0"
         d="m 527.81808,913.3092 0,5.28125 -1.4375,0 0,-5.23437 c 0,-0.82812 -0.16146,-1.44791 -0.48437,-1.85938 -0.32292,-0.41145 -0.8073,-0.61718 -1.45313,-0.61718 -0.77604,0 -1.38802,0.2474 -1.83593,0.74218 -0.44792,0.4948 -0.67188,1.16928 -0.67188,2.02344 l 0,4.94531 -1.44531,0 0,-12.15625 1.44531,0 0,4.76563 c 0.34375,-0.52603 0.74739,-0.91926 1.21094,-1.17969 0.46875,-0.26041 1.00781,-0.39061 1.61719,-0.39062 1.0052,1e-5 1.76561,0.31251 2.28125,0.9375 0.51561,0.6198 0.77343,1.53386 0.77343,2.74218"
         id="path4398" />
      <path
         inkscape:connector-curvature="0"
         d="m 532.12277,907.35608 0,2.48437 2.96094,0 0,1.11719 -2.96094,0 0,4.75 c 0,0.71355 0.0964,1.17188 0.28906,1.375 0.19792,0.20313 0.59636,0.30469 1.19532,0.30469 l 1.47656,0 0,1.20312 -1.47656,0 c -1.10938,0 -1.87501,-0.20572 -2.29688,-0.61718 -0.42187,-0.41667 -0.63281,-1.17188 -0.63281,-2.26563 l 0,-4.75 -1.05469,0 0,-1.11719 1.05469,0 0,-2.48437 1.44531,0"
         id="path4400" />
      <path
         inkscape:connector-curvature="0"
         d="m 541.23996,909.84045 1.4375,0 1.79687,6.82813 1.78907,-6.82813 1.69531,0 1.79687,6.82813 1.78907,-6.82813 1.4375,0 -2.28907,8.75 -1.69531,0 -1.88281,-7.17187 -1.89063,7.17187 -1.69531,0 -2.28906,-8.75"
         id="path4402" />
      <path
         inkscape:connector-curvature="0"
         d="m 559.14621,914.19202 c -1.16146,0 -1.96615,0.13281 -2.41406,0.39843 -0.44792,0.26563 -0.67188,0.71876 -0.67188,1.35938 0,0.51042 0.16667,0.91667 0.5,1.21875 0.33854,0.29688 0.79687,0.44531 1.375,0.44531 0.79687,0 1.43489,-0.28125 1.91406,-0.84375 0.48437,-0.5677 0.72656,-1.32031 0.72657,-2.25781 l 0,-0.32031 -1.42969,0 m 2.86719,-0.59375 0,4.99218 -1.4375,0 0,-1.32812 c -0.32813,0.53125 -0.73699,0.92448 -1.22657,1.17969 -0.48958,0.25 -1.08854,0.375 -1.79687,0.375 -0.89584,0 -1.60938,-0.25 -2.14063,-0.75 -0.52604,-0.50521 -0.78906,-1.17969 -0.78906,-2.02344 0,-0.98437 0.32813,-1.72656 0.98438,-2.22656 0.66145,-0.5 1.64583,-0.75 2.95312,-0.75 l 2.01563,0 0,-0.14063 c -1e-5,-0.66145 -0.21876,-1.17187 -0.65625,-1.53125 -0.4323,-0.36457 -1.04167,-0.54687 -1.82813,-0.54687 -0.5,0 -0.98698,0.0599 -1.46094,0.17968 -0.47396,0.1198 -0.92968,0.29949 -1.36718,0.53907 l 0,-1.32813 c 0.52604,-0.20311 1.03645,-0.35416 1.53125,-0.45312 0.49479,-0.10416 0.97656,-0.15624 1.44531,-0.15625 1.26562,1e-5 2.21093,0.32813 2.83594,0.98437 0.62499,0.65626 0.93749,1.65105 0.9375,2.98438"
         id="path4404" />
      <path
         inkscape:connector-curvature="0"
         d="m 565.0134,906.4342 1.4375,0 0,12.15625 -1.4375,0 0,-12.15625"
         id="path4406" />
      <path
         inkscape:connector-curvature="0"
         d="m 569.4509,906.4342 1.4375,0 0,12.15625 -1.4375,0 0,-12.15625"
         id="path4408" />
      <path
         inkscape:connector-curvature="0"
         d="m 581.37277,913.85608 0,0.70312 -6.60937,0 c 0.0625,0.98959 0.35937,1.7448 0.89062,2.26563 0.53646,0.51563 1.28125,0.77344 2.23438,0.77344 0.55207,0 1.08593,-0.0677 1.60156,-0.20313 0.52083,-0.13541 1.03645,-0.33854 1.54687,-0.60937 l 0,1.35937 c -0.51563,0.21875 -1.04427,0.38542 -1.58593,0.5 -0.54168,0.11458 -1.09115,0.17188 -1.64844,0.17188 -1.39584,0 -2.50261,-0.40625 -3.32031,-1.21875 -0.8125,-0.8125 -1.21875,-1.91146 -1.21875,-3.29688 0,-1.43228 0.38541,-2.5677 1.15625,-3.40625 0.77604,-0.84374 1.82031,-1.26561 3.13281,-1.26562 1.17708,1e-5 2.10676,0.38021 2.78906,1.14062 0.68749,0.75522 1.03124,1.78386 1.03125,3.08594 m -1.4375,-0.42188 c -0.0104,-0.78645 -0.23178,-1.41405 -0.66406,-1.88281 -0.42709,-0.46874 -0.9948,-0.70312 -1.70313,-0.70312 -0.80208,0 -1.44531,0.22657 -1.92968,0.67968 -0.47917,0.45314 -0.75521,1.09116 -0.82813,1.91407 l 5.125,-0.008"
         id="path4410" />
      <path
         inkscape:connector-curvature="0"
         d="m 585.12277,907.35608 0,2.48437 2.96094,0 0,1.11719 -2.96094,0 0,4.75 c 0,0.71355 0.0964,1.17188 0.28906,1.375 0.19792,0.20313 0.59636,0.30469 1.19532,0.30469 l 1.47656,0 0,1.20312 -1.47656,0 c -1.10938,0 -1.87501,-0.20572 -2.29688,-0.61718 -0.42187,-0.41667 -0.63281,-1.17188 -0.63281,-2.26563 l 0,-4.75 -1.05469,0 0,-1.11719 1.05469,0 0,-2.48437 1.44531,0"
         id="path4412" />
      <path
         inkscape:connector-curvature="0"
         d="m 595.56027,910.09827 0,1.35937 c -0.40625,-0.20832 -0.82813,-0.36457 -1.26562,-0.46875 -0.43751,-0.10416 -0.89063,-0.15624 -1.35938,-0.15625 -0.71354,10e-6 -1.25,0.10938 -1.60937,0.32813 -0.35417,0.21875 -0.53126,0.54688 -0.53125,0.98437 -1e-5,0.33334 0.1276,0.59636 0.38281,0.78906 0.25521,0.18751 0.76823,0.3672 1.53906,0.53907 l 0.49219,0.10937 c 1.02083,0.21876 1.74478,0.52865 2.17187,0.92969 0.43229,0.39584 0.64843,0.95052 0.64844,1.66406 -10e-6,0.8125 -0.32292,1.45573 -0.96875,1.92969 -0.64063,0.47396 -1.52344,0.71094 -2.64844,0.71094 -0.46875,0 -0.95833,-0.0469 -1.46875,-0.14063 -0.50521,-0.0885 -1.03906,-0.22396 -1.60156,-0.40625 l 0,-1.48437 c 0.53125,0.27604 1.05469,0.48437 1.57031,0.625 0.51563,0.13541 1.02604,0.20312 1.53125,0.20312 0.67708,0 1.19792,-0.11458 1.5625,-0.34375 0.36458,-0.23437 0.54687,-0.5625 0.54688,-0.98437 -10e-6,-0.39063 -0.13282,-0.6901 -0.39844,-0.89844 -0.26042,-0.20833 -0.83594,-0.40885 -1.72656,-0.60156 l -0.5,-0.11719 c -0.89063,-0.1875 -1.53386,-0.47395 -1.92969,-0.85938 -0.39583,-0.39062 -0.59375,-0.92447 -0.59375,-1.60156 0,-0.82291 0.29167,-1.45832 0.875,-1.90625 0.58333,-0.44791 1.41146,-0.67186 2.48438,-0.67187 0.53124,1e-5 1.03124,0.0391 1.5,0.11718 0.46874,0.0781 0.90103,0.19533 1.29687,0.35157"
         id="path4414" />
    </g>
    <path
       inkscape:connector-curvature="0"
       style="fill:none;stroke:#000000;stroke-width:2;stroke-linecap:butt;stroke-linejoin:miter;stroke-miterlimit:4;stroke-opacity:1"
       d="m 412.14286,963.93361 177.14285,0"
       id="path3791" />
    <g
       style="font-size:16px;font-style:normal;font-weight:normal;line-height:125%;letter-spacing:0px;word-spacing:0px;fill:#000000;fill-opacity:1;stroke:none;font-family:Sans"
       id="text3795">
      <path
         inkscape:connector-curvature="0"
         d="m 439.27676,966.93805 0,1.53906 c -0.59896,-0.28645 -1.16407,-0.49999 -1.69531,-0.64062 -0.53125,-0.14062 -1.04428,-0.21093 -1.53906,-0.21094 -0.85938,10e-6 -1.52344,0.16668 -1.99219,0.5 -0.46354,0.33334 -0.69531,0.8073 -0.69531,1.42187 0,0.51564 0.15364,0.90626 0.46094,1.17188 0.31249,0.26042 0.90103,0.47136 1.76562,0.63281 l 0.95313,0.19531 c 1.17707,0.22397 2.04426,0.6198 2.60156,1.1875 0.56249,0.56251 0.84374,1.31772 0.84375,2.26563 -1e-5,1.13021 -0.38022,1.98698 -1.14063,2.57031 -0.75521,0.58334 -1.86459,0.875 -3.32812,0.875 -0.55209,0 -1.14063,-0.0625 -1.76563,-0.1875 -0.61979,-0.125 -1.26302,-0.30989 -1.92968,-0.55469 l 0,-1.625 c 0.64062,0.35938 1.26822,0.63021 1.88281,0.8125 0.61458,0.1823 1.21874,0.27344 1.8125,0.27344 0.90103,0 1.59635,-0.17708 2.08594,-0.53125 0.48957,-0.35416 0.73436,-0.85937 0.73437,-1.51562 -1e-5,-0.57292 -0.17709,-1.02083 -0.53125,-1.34375 -0.34896,-0.32292 -0.92448,-0.5651 -1.72656,-0.72657 l -0.96094,-0.1875 c -1.17709,-0.23437 -2.02865,-0.60155 -2.55469,-1.10156 -0.52604,-0.49999 -0.78906,-1.1953 -0.78906,-2.08594 0,-1.03124 0.36198,-1.84374 1.08594,-2.4375 0.72916,-0.59373 1.73177,-0.89061 3.00781,-0.89062 0.54687,10e-6 1.10416,0.0495 1.67188,0.14844 0.5677,0.099 1.14843,0.2474 1.74218,0.44531"
         id="path4338" />
      <path
         inkscape:connector-curvature="0"
         d="m 449.89395,973.48492 0,0.70313 -6.60937,0 c 0.0625,0.98959 0.35937,1.74479 0.89062,2.26562 0.53646,0.51563 1.28125,0.77344 2.23438,0.77344 0.55207,0 1.08593,-0.0677 1.60156,-0.20312 0.52082,-0.13542 1.03645,-0.33854 1.54687,-0.60938 l 0,1.35938 c -0.51563,0.21875 -1.04427,0.38541 -1.58593,0.5 -0.54168,0.11458 -1.09116,0.17187 -1.64844,0.17187 -1.39584,0 -2.50261,-0.40625 -3.32031,-1.21875 -0.8125,-0.8125 -1.21875,-1.91145 -1.21875,-3.29687 0,-1.43229 0.38541,-2.5677 1.15625,-3.40625 0.77604,-0.84374 1.82031,-1.26562 3.13281,-1.26563 1.17708,10e-6 2.10676,0.38022 2.78906,1.14063 0.68749,0.75521 1.03124,1.78386 1.03125,3.08593 m -1.4375,-0.42187 c -0.0104,-0.78645 -0.23178,-1.41406 -0.66406,-1.88281 -0.42709,-0.46875 -0.9948,-0.70312 -1.70313,-0.70313 -0.80208,10e-6 -1.44531,0.22657 -1.92968,0.67969 -0.47917,0.45313 -0.75521,1.09115 -0.82813,1.91406 l 5.125,-0.008"
         id="path4340" />
      <path
         inkscape:connector-curvature="0"
         d="m 458.51895,969.80524 0,1.34375 c -0.40626,-0.22395 -0.81511,-0.39062 -1.22656,-0.5 -0.40626,-0.11458 -0.81772,-0.17187 -1.23438,-0.17188 -0.93229,10e-6 -1.65625,0.29688 -2.17187,0.89063 -0.51563,0.58854 -0.77344,1.41667 -0.77344,2.48437 0,1.06771 0.25781,1.89844 0.77344,2.49219 0.51562,0.58854 1.23958,0.88281 2.17187,0.88281 0.41666,0 0.82812,-0.0547 1.23438,-0.16406 0.41145,-0.11458 0.8203,-0.28385 1.22656,-0.50781 l 0,1.32812 c -0.40105,0.1875 -0.81771,0.32813 -1.25,0.42188 -0.42709,0.0937 -0.88282,0.14062 -1.36719,0.14062 -1.31771,0 -2.36458,-0.41406 -3.14062,-1.24219 -0.77604,-0.82812 -1.16406,-1.94531 -1.16406,-3.35156 0,-1.42708 0.39062,-2.54947 1.17187,-3.36719 0.78646,-0.8177 1.86198,-1.22655 3.22656,-1.22656 0.44271,10e-6 0.875,0.0469 1.29688,0.14063 0.42187,0.0885 0.83072,0.22396 1.22656,0.40625"
         id="path4342" />
      <path
         inkscape:connector-curvature="0"
         d="m 460.85489,974.76617 0,-5.29687 1.4375,0 0,5.24219 c 0,0.82812 0.16145,1.45052 0.48437,1.86718 0.32292,0.41146 0.80729,0.61719 1.45313,0.61719 0.77604,0 1.38801,-0.24739 1.83594,-0.74219 0.45311,-0.49479 0.67968,-1.16926 0.67968,-2.02343 l 0,-4.96094 1.4375,0 0,8.75 -1.4375,0 0,-1.34375 c -0.34896,0.53125 -0.75521,0.92708 -1.21875,1.1875 -0.45833,0.25521 -0.99219,0.38281 -1.60156,0.38281 -1.00521,0 -1.76823,-0.3125 -2.28906,-0.9375 -0.52084,-0.625 -0.78125,-1.53906 -0.78125,-2.74219 m 3.61719,-5.50781 0,0"
         id="path4344" />
      <path
         inkscape:connector-curvature="0"
         d="m 476.22989,970.81305 c -0.16147,-0.0937 -0.33855,-0.16145 -0.53125,-0.20313 -0.18751,-0.0469 -0.39584,-0.0703 -0.625,-0.0703 -0.81251,10e-6 -1.43751,0.26563 -1.875,0.79688 -0.4323,0.52604 -0.64844,1.28386 -0.64844,2.27343 l 0,4.60938 -1.44531,0 0,-8.75 1.44531,0 0,1.35937 c 0.30208,-0.53124 0.69531,-0.92447 1.17969,-1.17968 0.48437,-0.26041 1.07291,-0.39062 1.76562,-0.39063 0.099,10e-6 0.20833,0.008 0.32813,0.0234 0.11978,0.0104 0.2526,0.0286 0.39844,0.0547 l 0.008,1.47656"
         id="path4346" />
      <path
         inkscape:connector-curvature="0"
         d="m 484.89395,973.48492 0,0.70313 -6.60937,0 c 0.0625,0.98959 0.35937,1.74479 0.89062,2.26562 0.53646,0.51563 1.28125,0.77344 2.23438,0.77344 0.55207,0 1.08593,-0.0677 1.60156,-0.20312 0.52082,-0.13542 1.03645,-0.33854 1.54687,-0.60938 l 0,1.35938 c -0.51563,0.21875 -1.04427,0.38541 -1.58593,0.5 -0.54168,0.11458 -1.09116,0.17187 -1.64844,0.17187 -1.39584,0 -2.50261,-0.40625 -3.32031,-1.21875 -0.8125,-0.8125 -1.21875,-1.91145 -1.21875,-3.29687 0,-1.43229 0.38541,-2.5677 1.15625,-3.40625 0.77604,-0.84374 1.82031,-1.26562 3.13281,-1.26563 1.17708,10e-6 2.10676,0.38022 2.78906,1.14063 0.68749,0.75521 1.03124,1.78386 1.03125,3.08593 m -1.4375,-0.42187 c -0.0104,-0.78645 -0.23178,-1.41406 -0.66406,-1.88281 -0.42709,-0.46875 -0.9948,-0.70312 -1.70313,-0.70313 -0.80208,10e-6 -1.44531,0.22657 -1.92968,0.67969 -0.47917,0.45313 -0.75521,1.09115 -0.82813,1.91406 l 5.125,-0.008"
         id="path4348" />
      <path
         inkscape:connector-curvature="0"
         d="m 498.6127,969.80524 0,1.34375 c -0.40626,-0.22395 -0.81511,-0.39062 -1.22656,-0.5 -0.40626,-0.11458 -0.81772,-0.17187 -1.23438,-0.17188 -0.93229,10e-6 -1.65625,0.29688 -2.17187,0.89063 -0.51563,0.58854 -0.77344,1.41667 -0.77344,2.48437 0,1.06771 0.25781,1.89844 0.77344,2.49219 0.51562,0.58854 1.23958,0.88281 2.17187,0.88281 0.41666,0 0.82812,-0.0547 1.23438,-0.16406 0.41145,-0.11458 0.8203,-0.28385 1.22656,-0.50781 l 0,1.32812 c -0.40105,0.1875 -0.81771,0.32813 -1.25,0.42188 -0.42709,0.0937 -0.88282,0.14062 -1.36719,0.14062 -1.31771,0 -2.36458,-0.41406 -3.14062,-1.24219 -0.77604,-0.82812 -1.16406,-1.94531 -1.16406,-3.35156 0,-1.42708 0.39062,-2.54947 1.17187,-3.36719 0.78646,-0.8177 1.86198,-1.22655 3.22656,-1.22656 0.44271,10e-6 0.875,0.0469 1.29688,0.14063 0.42187,0.0885 0.83072,0.22396 1.22656,0.40625"
         id="path4350" />
      <path
         inkscape:connector-curvature="0"
         d="m 504.4877,970.47711 c -0.77084,10e-6 -1.38021,0.30209 -1.82812,0.90625 -0.44792,0.59897 -0.67188,1.42188 -0.67188,2.46875 0,1.04688 0.22135,1.8724 0.66406,2.47656 0.44792,0.59896 1.0599,0.89844 1.83594,0.89844 0.76562,0 1.37239,-0.30208 1.82031,-0.90625 0.44791,-0.60416 0.67187,-1.42708 0.67188,-2.46875 -1e-5,-1.03645 -0.22397,-1.85676 -0.67188,-2.46094 -0.44792,-0.60936 -1.05469,-0.91405 -1.82031,-0.91406 m 0,-1.21875 c 1.25,10e-6 2.23177,0.40626 2.94531,1.21875 0.71354,0.81251 1.07031,1.93751 1.07032,3.375 -1e-5,1.4323 -0.35678,2.5573 -1.07032,3.375 -0.71354,0.8125 -1.69531,1.21875 -2.94531,1.21875 -1.25521,0 -2.23958,-0.40625 -2.95312,-1.21875 -0.70834,-0.8177 -1.0625,-1.9427 -1.0625,-3.375 0,-1.43749 0.35416,-2.56249 1.0625,-3.375 0.71354,-0.81249 1.69791,-1.21874 2.95312,-1.21875"
         id="path4352" />
      <path
         inkscape:connector-curvature="0"
         d="m 518.15176,972.93805 0,5.28125 -1.4375,0 0,-5.23438 c 0,-0.82811 -0.16146,-1.44791 -0.48437,-1.85937 -0.32292,-0.41145 -0.8073,-0.61718 -1.45313,-0.61719 -0.77604,10e-6 -1.38802,0.24741 -1.83593,0.74219 -0.44792,0.4948 -0.67188,1.16928 -0.67188,2.02344 l 0,4.94531 -1.44531,0 0,-8.75 1.44531,0 0,1.35937 c 0.34375,-0.52603 0.74739,-0.91926 1.21094,-1.17968 0.46874,-0.26041 1.00781,-0.39062 1.61719,-0.39063 1.0052,10e-6 1.76561,0.31251 2.28125,0.9375 0.51561,0.6198 0.77343,1.53386 0.77343,2.74219"
         id="path4354" />
      <path
         inkscape:connector-curvature="0"
         d="m 528.30801,972.93805 0,5.28125 -1.4375,0 0,-5.23438 c 0,-0.82811 -0.16146,-1.44791 -0.48437,-1.85937 -0.32292,-0.41145 -0.8073,-0.61718 -1.45313,-0.61719 -0.77604,10e-6 -1.38802,0.24741 -1.83593,0.74219 -0.44792,0.4948 -0.67188,1.16928 -0.67188,2.02344 l 0,4.94531 -1.44531,0 0,-8.75 1.44531,0 0,1.35937 c 0.34375,-0.52603 0.74739,-0.91926 1.21094,-1.17968 0.46874,-0.26041 1.00781,-0.39062 1.61719,-0.39063 1.0052,10e-6 1.76561,0.31251 2.28125,0.9375 0.51561,0.6198 0.77343,1.53386 0.77343,2.74219"
         id="path4356" />
      <path
         inkscape:connector-curvature="0"
         d="m 538.6752,973.48492 0,0.70313 -6.60937,0 c 0.0625,0.98959 0.35937,1.74479 0.89062,2.26562 0.53646,0.51563 1.28125,0.77344 2.23438,0.77344 0.55207,0 1.08593,-0.0677 1.60156,-0.20312 0.52082,-0.13542 1.03645,-0.33854 1.54687,-0.60938 l 0,1.35938 c -0.51563,0.21875 -1.04427,0.38541 -1.58593,0.5 -0.54168,0.11458 -1.09116,0.17187 -1.64844,0.17187 -1.39584,0 -2.50261,-0.40625 -3.32031,-1.21875 -0.8125,-0.8125 -1.21875,-1.91145 -1.21875,-3.29687 0,-1.43229 0.38541,-2.5677 1.15625,-3.40625 0.77604,-0.84374 1.82031,-1.26562 3.13281,-1.26563 1.17708,10e-6 2.10676,0.38022 2.78906,1.14063 0.68749,0.75521 1.03124,1.78386 1.03125,3.08593 m -1.4375,-0.42187 c -0.0104,-0.78645 -0.23178,-1.41406 -0.66406,-1.88281 -0.42709,-0.46875 -0.9948,-0.70312 -1.70313,-0.70313 -0.80208,10e-6 -1.44531,0.22657 -1.92968,0.67969 -0.47917,0.45313 -0.75521,1.09115 -0.82813,1.91406 l 5.125,-0.008"
         id="path4358" />
      <path
         inkscape:connector-curvature="0"
         d="m 547.3002,969.80524 0,1.34375 c -0.40626,-0.22395 -0.81511,-0.39062 -1.22656,-0.5 -0.40626,-0.11458 -0.81772,-0.17187 -1.23438,-0.17188 -0.93229,10e-6 -1.65625,0.29688 -2.17187,0.89063 -0.51563,0.58854 -0.77344,1.41667 -0.77344,2.48437 0,1.06771 0.25781,1.89844 0.77344,2.49219 0.51562,0.58854 1.23958,0.88281 2.17187,0.88281 0.41666,0 0.82812,-0.0547 1.23438,-0.16406 0.41145,-0.11458 0.8203,-0.28385 1.22656,-0.50781 l 0,1.32812 c -0.40105,0.1875 -0.81771,0.32813 -1.25,0.42188 -0.42709,0.0937 -0.88282,0.14062 -1.36719,0.14062 -1.31771,0 -2.36458,-0.41406 -3.14062,-1.24219 -0.77604,-0.82812 -1.16406,-1.94531 -1.16406,-3.35156 0,-1.42708 0.39062,-2.54947 1.17187,-3.36719 0.78646,-0.8177 1.86198,-1.22655 3.22656,-1.22656 0.44271,10e-6 0.875,0.0469 1.29688,0.14063 0.42187,0.0885 0.83072,0.22396 1.22656,0.40625"
         id="path4360" />
      <path
         inkscape:connector-curvature="0"
         d="m 551.20645,966.98492 0,2.48438 2.96094,0 0,1.11719 -2.96094,0 0,4.75 c 0,0.71354 0.0964,1.17187 0.28906,1.375 0.19792,0.20312 0.59635,0.30469 1.19532,0.30468 l 1.47656,0 0,1.20313 -1.47656,0 c -1.10938,0 -1.87501,-0.20573 -2.29688,-0.61719 -0.42188,-0.41666 -0.63281,-1.17187 -0.63281,-2.26562 l 0,-4.75 -1.05469,0 0,-1.11719 1.05469,0 0,-2.48438 1.44531,0"
         id="path4362" />
      <path
         inkscape:connector-curvature="0"
         d="m 556.06583,969.4693 1.4375,0 0,8.75 -1.4375,0 0,-8.75 m 0,-3.40625 1.4375,0 0,1.82031 -1.4375,0 0,-1.82031"
         id="path4364" />
      <path
         inkscape:connector-curvature="0"
         d="m 563.89395,970.47711 c -0.77084,10e-6 -1.38021,0.30209 -1.82812,0.90625 -0.44792,0.59897 -0.67188,1.42188 -0.67188,2.46875 0,1.04688 0.22135,1.8724 0.66406,2.47656 0.44792,0.59896 1.0599,0.89844 1.83594,0.89844 0.76562,0 1.37239,-0.30208 1.82031,-0.90625 0.44791,-0.60416 0.67187,-1.42708 0.67188,-2.46875 -10e-6,-1.03645 -0.22397,-1.85676 -0.67188,-2.46094 -0.44792,-0.60936 -1.05469,-0.91405 -1.82031,-0.91406 m 0,-1.21875 c 1.25,10e-6 2.23177,0.40626 2.94531,1.21875 0.71354,0.81251 1.07031,1.93751 1.07032,3.375 -10e-6,1.4323 -0.35678,2.5573 -1.07032,3.375 -0.71354,0.8125 -1.69531,1.21875 -2.94531,1.21875 -1.25521,0 -2.23958,-0.40625 -2.95312,-1.21875 -0.70834,-0.8177 -1.0625,-1.9427 -1.0625,-3.375 0,-1.43749 0.35416,-2.56249 1.0625,-3.375 0.71354,-0.81249 1.69791,-1.21874 2.95312,-1.21875"
         id="path4366" />
      <path
         inkscape:connector-curvature="0"
         d="m 577.55801,972.93805 0,5.28125 -1.4375,0 0,-5.23438 c 0,-0.82811 -0.16146,-1.44791 -0.48437,-1.85937 -0.32292,-0.41145 -0.8073,-0.61718 -1.45313,-0.61719 -0.77604,10e-6 -1.38802,0.24741 -1.83593,0.74219 -0.44792,0.4948 -0.67188,1.16928 -0.67188,2.02344 l 0,4.94531 -1.44531,0 0,-8.75 1.44531,0 0,1.35937 c 0.34375,-0.52603 0.74739,-0.91926 1.21094,-1.17968 0.46874,-0.26041 1.00781,-0.39062 1.61719,-0.39063 1.0052,10e-6 1.76561,0.31251 2.28125,0.9375 0.51561,0.6198 0.77343,1.53386 0.77343,2.74219"
         id="path4368" />
    </g>
    <path
       inkscape:connector-curvature="0"
       style="fill:none;stroke:#000000;stroke-width:2;stroke-linecap:butt;stroke-linejoin:miter;stroke-miterlimit:4;stroke-opacity:1"
       d="m 440.85713,963.21932 0,-25"
       id="path3803" />
    <path
       inkscape:connector-curvature="0"
       style="fill:none;stroke:#000000;stroke-width:2;stroke-linecap:butt;stroke-linejoin:miter;stroke-miterlimit:4;stroke-opacity:1"
       d="m 511.57143,963.57646 0,-25"
       id="path3803-1" />
    <path
       inkscape:connector-curvature="0"
       style="fill:none;stroke:#000000;stroke-width:2;stroke-linecap:butt;stroke-linejoin:miter;stroke-miterlimit:4;stroke-opacity:1"
       d="m 588.34276,964.82825 0,-25"
       id="path3803-0" />
    <path
       inkscape:connector-curvature="0"
       style="fill:#ffffff;fill-opacity:1;fill-rule:nonzero;stroke:#000000;stroke-width:2;stroke-miterlimit:4;stroke-opacity:1;stroke-dashoffset:0"
       d="m 588.34273,931.45239 c 3.36357,0 6.07143,2.70786 6.07143,6.07143 0,3.36357 -2.70786,6.07143 -6.07143,6.07143 -3.36357,0 -6.07143,-2.70786 -6.07143,-6.07143 0,-3.36357 2.70786,-6.07143 6.07143,-6.07143 z"
       id="rect3837" />
    <path
       inkscape:connector-curvature="0"
       style="fill:#ffffff;fill-opacity:1;fill-rule:nonzero;stroke:#000000;stroke-width:2;stroke-miterlimit:4;stroke-opacity:1;stroke-dashoffset:0"
       d="m 440.85713,931.45239 c 3.36358,0 6.07143,2.70786 6.07143,6.07143 0,3.36357 -2.70785,6.07143 -6.07143,6.07143 -3.36357,0 -6.07142,-2.70786 -6.07142,-6.07143 0,-3.36357 2.70785,-6.07143 6.07142,-6.07143 z"
       id="rect3837-5" />
    <path
       inkscape:connector-curvature="0"
       style="fill:#ffffff;fill-opacity:1;fill-rule:nonzero;stroke:#000000;stroke-width:2;stroke-miterlimit:4;stroke-opacity:1;stroke-dashoffset:0"
       d="m 511.57143,931.45239 c 3.36357,0 6.07143,2.70786 6.07143,6.07143 0,3.36357 -2.70786,6.07143 -6.07143,6.07143 -3.36357,0 -6.07143,-2.70786 -6.07143,-6.07143 0,-3.36357 2.70786,-6.07143 6.07143,-6.07143 z"
       id="rect3837-6" />
    <path
       inkscape:connector-curvature="0"
       style="fill:none;stroke:#000000;stroke-width:1.69399999999999995;stroke-linecap:butt;stroke-linejoin:miter;stroke-miterlimit:4;stroke-opacity:1;stroke-dasharray:none;marker-end:none"
       d="M 90.374483,1054.7515 196.58172,996.49474"
       id="path4061" />
    <path
       inkscape:connector-curvature="0"
       style="fill:none;stroke:#000000;stroke-width:1.68188345;stroke-linecap:butt;stroke-linejoin:miter;stroke-miterlimit:4;stroke-opacity:1"
       d="m 153.25443,1054.7718 75.47606,-58.28297"
       id="path4065" />
    <path
       inkscape:connector-curvature="0"
       style="fill:none;stroke:#000000;stroke-width:1.64779913;stroke-linecap:butt;stroke-linejoin:miter;stroke-miterlimit:4;stroke-opacity:1"
       d="m 213.64119,1054.4353 43.67777,-57.24922"
       id="path4069" />
    <path
       inkscape:connector-curvature="0"
       style="fill:none;stroke:#000000;stroke-width:1.72529542;stroke-linecap:butt;stroke-linejoin:miter;stroke-miterlimit:4;stroke-opacity:1"
       d="m 269.48038,1055.1108 16.37126,-57.88597"
       id="path4073" />
    <path
       inkscape:connector-curvature="0"
       style="fill:none;stroke:#000000;stroke-width:1.6651212;stroke-linecap:butt;stroke-linejoin:miter;stroke-miterlimit:4;stroke-opacity:1"
       d="m 329.48905,1054.4194 -13.9422,-57.22466"
       id="path4077" />
    <path
       inkscape:connector-curvature="0"
       style="fill:none;stroke:#000000;stroke-width:1.76685321;stroke-linecap:butt;stroke-linejoin:miter;stroke-miterlimit:4;stroke-opacity:1"
       d="M 391.60975,1054.347 343.45486,996.53132"
       id="path4081" />
    <path
       inkscape:connector-curvature="0"
       style="fill:none;stroke:#000000;stroke-width:1.73886454;stroke-linecap:butt;stroke-linejoin:miter;stroke-miterlimit:4;stroke-opacity:1"
       d="M 449.89906,1054.7218 372.01229,997.9459"
       id="path4085" />
    <path
       inkscape:connector-curvature="0"
       style="fill:none;stroke:#000000;stroke-width:1.7071445;stroke-linecap:butt;stroke-linejoin:miter;stroke-miterlimit:4;stroke-opacity:1"
       d="M 507.48311,1054.752 401.99643,996.50146"
       id="path4089" />
    <path
       inkscape:connector-curvature="0"
       style="fill:#ffffff;fill-opacity:0.92207791;stroke:none"
       d="m 123.71906,1013.1362 357.59354,0 0,23.4471 -357.59354,0 z"
       id="rect4093" />
    <g
       style="font-size:16px;font-style:normal;font-weight:normal;line-height:125%;letter-spacing:0px;word-spacing:0px;fill:#000000;fill-opacity:1;stroke:none;font-family:Sans"
       id="text3864">
      <path
         inkscape:connector-curvature="0"
         d="m 135.73326,1018.7394 0,1.664 c -0.53126,-0.4947 -1.09897,-0.8645 -1.70312,-1.1093 -0.59897,-0.2448 -1.23699,-0.3672 -1.91407,-0.3672 -1.33334,0 -2.35417,0.4088 -3.0625,1.2265 -0.70833,0.8126 -1.0625,1.9896 -1.0625,3.5313 0,1.5365 0.35417,2.7135 1.0625,3.5312 0.70833,0.8125 1.72916,1.2188 3.0625,1.2188 0.67708,0 1.3151,-0.1224 1.91407,-0.3672 0.60415,-0.2448 1.17186,-0.6146 1.70312,-1.1094 l 0,1.6485 c -0.55209,0.375 -1.13803,0.6562 -1.75781,0.8437 -0.61459,0.1875 -1.26563,0.2813 -1.95313,0.2813 -1.76563,0 -3.15625,-0.5391 -4.17187,-1.6172 -1.01563,-1.0834 -1.52344,-2.5599 -1.52344,-4.4297 0,-1.875 0.50781,-3.3516 1.52344,-4.4297 1.01562,-1.0833 2.40624,-1.625 4.17187,-1.625 0.69791,0 1.35416,0.094 1.96875,0.2813 0.61979,0.1823 1.20051,0.4583 1.74219,0.8281"
         id="path4244" />
      <path
         inkscape:connector-curvature="0"
         d="m 141.51451,1021.7628 c -0.77084,0 -1.38021,0.3021 -1.82812,0.9063 -0.44792,0.5989 -0.67188,1.4218 -0.67188,2.4687 0,1.0469 0.22135,1.8724 0.66406,2.4766 0.44792,0.5989 1.0599,0.8984 1.83594,0.8984 0.76562,0 1.37239,-0.3021 1.82031,-0.9062 0.44791,-0.6042 0.67187,-1.4271 0.67188,-2.4688 -1e-5,-1.0364 -0.22397,-1.8567 -0.67188,-2.4609 -0.44792,-0.6094 -1.05469,-0.9141 -1.82031,-0.9141 m 0,-1.2187 c 1.24999,0 2.23176,0.4062 2.94531,1.2187 0.71354,0.8125 1.07031,1.9375 1.07032,3.375 -10e-6,1.4323 -0.35678,2.5573 -1.07032,3.375 -0.71355,0.8125 -1.69532,1.2188 -2.94531,1.2188 -1.25521,0 -2.23958,-0.4063 -2.95312,-1.2188 -0.70834,-0.8177 -1.0625,-1.9427 -1.0625,-3.375 0,-1.4375 0.35416,-2.5625 1.0625,-3.375 0.71354,-0.8125 1.69791,-1.2187 2.95312,-1.2187"
         id="path4246" />
      <path
         inkscape:connector-curvature="0"
         d="m 155.17857,1024.2238 0,5.2812 -1.4375,0 0,-5.2344 c 0,-0.8281 -0.16146,-1.4479 -0.48437,-1.8593 -0.32292,-0.4115 -0.8073,-0.6172 -1.45313,-0.6172 -0.77604,0 -1.38802,0.2474 -1.83593,0.7422 -0.44792,0.4948 -0.67188,1.1692 -0.67188,2.0234 l 0,4.9453 -1.44531,0 0,-8.75 1.44531,0 0,1.3594 c 0.34375,-0.5261 0.74739,-0.9193 1.21094,-1.1797 0.46874,-0.2604 1.00781,-0.3906 1.61719,-0.3906 1.0052,0 1.76561,0.3125 2.28125,0.9375 0.51561,0.6198 0.77342,1.5338 0.77343,2.7422"
         id="path4248" />
      <path
         inkscape:connector-curvature="0"
         d="m 165.33482,1024.2238 0,5.2812 -1.4375,0 0,-5.2344 c 0,-0.8281 -0.16146,-1.4479 -0.48437,-1.8593 -0.32292,-0.4115 -0.8073,-0.6172 -1.45313,-0.6172 -0.77604,0 -1.38802,0.2474 -1.83593,0.7422 -0.44792,0.4948 -0.67188,1.1692 -0.67188,2.0234 l 0,4.9453 -1.44531,0 0,-8.75 1.44531,0 0,1.3594 c 0.34375,-0.5261 0.74739,-0.9193 1.21094,-1.1797 0.46874,-0.2604 1.00781,-0.3906 1.61719,-0.3906 1.0052,0 1.76561,0.3125 2.28125,0.9375 0.51561,0.6198 0.77342,1.5338 0.77343,2.7422"
         id="path4250" />
      <path
         inkscape:connector-curvature="0"
         d="m 175.70201,1024.7706 0,0.7032 -6.60937,0 c 0.0625,0.9895 0.35937,1.7447 0.89062,2.2656 0.53646,0.5156 1.28125,0.7734 2.23438,0.7734 0.55207,0 1.08593,-0.068 1.60156,-0.2031 0.52082,-0.1354 1.03645,-0.3385 1.54687,-0.6094 l 0,1.3594 c -0.51563,0.2187 -1.04427,0.3854 -1.58593,0.5 -0.54168,0.1146 -1.09116,0.1719 -1.64844,0.1719 -1.39584,0 -2.50261,-0.4063 -3.32031,-1.2188 -0.81251,-0.8125 -1.21875,-1.9114 -1.21875,-3.2969 0,-1.4322 0.38541,-2.5677 1.15625,-3.4062 0.77603,-0.8437 1.8203,-1.2656 3.13281,-1.2656 1.17708,0 2.10676,0.3802 2.78906,1.1406 0.68749,0.7552 1.03124,1.7839 1.03125,3.0859 m -1.4375,-0.4218 c -0.0104,-0.7865 -0.23178,-1.4141 -0.66406,-1.8829 -0.42709,-0.4687 -0.9948,-0.7031 -1.70313,-0.7031 -0.80208,0 -1.44531,0.2266 -1.92968,0.6797 -0.47917,0.4531 -0.75521,1.0912 -0.82813,1.9141 l 5.125,-0.01"
         id="path4252" />
      <path
         inkscape:connector-curvature="0"
         d="m 184.32701,1021.0909 0,1.3438 c -0.40626,-0.224 -0.81511,-0.3906 -1.22656,-0.5 -0.40626,-0.1146 -0.81772,-0.1719 -1.23438,-0.1719 -0.93229,0 -1.65625,0.2969 -2.17187,0.8906 -0.51563,0.5886 -0.77344,1.4167 -0.77344,2.4844 0,1.0677 0.25781,1.8985 0.77344,2.4922 0.51562,0.5885 1.23958,0.8828 2.17187,0.8828 0.41666,0 0.82812,-0.055 1.23438,-0.164 0.41145,-0.1146 0.8203,-0.2839 1.22656,-0.5079 l 0,1.3282 c -0.40105,0.1875 -0.81771,0.3281 -1.25,0.4218 -0.42709,0.094 -0.88282,0.1407 -1.36719,0.1407 -1.31771,0 -2.36458,-0.4141 -3.14062,-1.2422 -0.77604,-0.8281 -1.16406,-1.9453 -1.16406,-3.3516 0,-1.4271 0.39062,-2.5495 1.17187,-3.3672 0.78646,-0.8177 1.86198,-1.2265 3.22656,-1.2265 0.44271,0 0.875,0.047 1.29688,0.1406 0.42187,0.088 0.83072,0.224 1.22656,0.4062"
         id="path4254" />
      <path
         inkscape:connector-curvature="0"
         d="m 188.23326,1018.2706 0,2.4844 2.96094,0 0,1.1172 -2.96094,0 0,4.75 c 0,0.7135 0.0964,1.1719 0.28906,1.375 0.19792,0.2031 0.59635,0.3047 1.19532,0.3047 l 1.47656,0 0,1.2031 -1.47656,0 c -1.10938,0 -1.87501,-0.2057 -2.29688,-0.6172 -0.42188,-0.4166 -0.63281,-1.1719 -0.63281,-2.2656 l 0,-4.75 -1.05469,0 0,-1.1172 1.05469,0 0,-2.4844 1.44531,0"
         id="path4256" />
      <path
         inkscape:connector-curvature="0"
         d="m 193.09264,1020.755 1.4375,0 0,8.75 -1.4375,0 0,-8.75 m 0,-3.4062 1.4375,0 0,1.8203 -1.4375,0 0,-1.8203"
         id="path4258" />
      <path
         inkscape:connector-curvature="0"
         d="m 200.92076,1021.7628 c -0.77084,0 -1.38021,0.3021 -1.82812,0.9063 -0.44792,0.5989 -0.67188,1.4218 -0.67188,2.4687 0,1.0469 0.22135,1.8724 0.66406,2.4766 0.44792,0.5989 1.0599,0.8984 1.83594,0.8984 0.76562,0 1.37239,-0.3021 1.82031,-0.9062 0.44791,-0.6042 0.67187,-1.4271 0.67188,-2.4688 -1e-5,-1.0364 -0.22397,-1.8567 -0.67188,-2.4609 -0.44792,-0.6094 -1.05469,-0.9141 -1.82031,-0.9141 m 0,-1.2187 c 1.24999,0 2.23176,0.4062 2.94531,1.2187 0.71354,0.8125 1.07031,1.9375 1.07032,3.375 -10e-6,1.4323 -0.35678,2.5573 -1.07032,3.375 -0.71355,0.8125 -1.69532,1.2188 -2.94531,1.2188 -1.25521,0 -2.23958,-0.4063 -2.95312,-1.2188 -0.70834,-0.8177 -1.0625,-1.9427 -1.0625,-3.375 0,-1.4375 0.35416,-2.5625 1.0625,-3.375 0.71354,-0.8125 1.69791,-1.2187 2.95312,-1.2187"
         id="path4260" />
      <path
         inkscape:connector-curvature="0"
         d="m 214.58482,1024.2238 0,5.2812 -1.4375,0 0,-5.2344 c 0,-0.8281 -0.16146,-1.4479 -0.48437,-1.8593 -0.32292,-0.4115 -0.8073,-0.6172 -1.45313,-0.6172 -0.77604,0 -1.38802,0.2474 -1.83593,0.7422 -0.44792,0.4948 -0.67188,1.1692 -0.67188,2.0234 l 0,4.9453 -1.44531,0 0,-8.75 1.44531,0 0,1.3594 c 0.34375,-0.5261 0.74739,-0.9193 1.21094,-1.1797 0.46874,-0.2604 1.00781,-0.3906 1.61719,-0.3906 1.0052,0 1.76561,0.3125 2.28125,0.9375 0.51561,0.6198 0.77342,1.5338 0.77343,2.7422"
         id="path4262" />
      <path
         inkscape:connector-curvature="0"
         d="m 223.04576,1021.0128 0,1.3594 c -0.40626,-0.2083 -0.82813,-0.3646 -1.26562,-0.4688 -0.43751,-0.1041 -0.89063,-0.1562 -1.35938,-0.1562 -0.71354,0 -1.25,0.1094 -1.60937,0.3281 -0.35417,0.2188 -0.53126,0.5469 -0.53125,0.9844 -10e-6,0.3333 0.1276,0.5964 0.38281,0.7891 0.2552,0.1875 0.76822,0.3671 1.53906,0.539 l 0.49219,0.1094 c 1.02083,0.2187 1.74478,0.5286 2.17187,0.9297 0.43229,0.3958 0.64843,0.9505 0.64844,1.664 -1e-5,0.8125 -0.32292,1.4558 -0.96875,1.9297 -0.64063,0.474 -1.52344,0.711 -2.64844,0.711 -0.46875,0 -0.95833,-0.047 -1.46875,-0.1407 -0.50521,-0.088 -1.03906,-0.2239 -1.60156,-0.4062 l 0,-1.4844 c 0.53125,0.2761 1.05469,0.4844 1.57031,0.625 0.51563,0.1354 1.02604,0.2031 1.53125,0.2031 0.67708,0 1.19792,-0.1145 1.5625,-0.3437 0.36458,-0.2344 0.54687,-0.5625 0.54688,-0.9844 -1e-5,-0.3906 -0.13282,-0.6901 -0.39844,-0.8984 -0.26042,-0.2084 -0.83594,-0.4089 -1.72656,-0.6016 l -0.5,-0.1172 c -0.89063,-0.1875 -1.53386,-0.4739 -1.92969,-0.8593 -0.39583,-0.3907 -0.59375,-0.9245 -0.59375,-1.6016 0,-0.8229 0.29167,-1.4583 0.875,-1.9063 0.58333,-0.4479 1.41146,-0.6718 2.48438,-0.6718 0.53124,0 1.03124,0.039 1.5,0.1172 0.46874,0.078 0.90103,0.1953 1.29687,0.3515"
         id="path4264" />
      <path
         inkscape:connector-curvature="0"
         d="m 232.32701,1018.2706 0,2.4844 2.96094,0 0,1.1172 -2.96094,0 0,4.75 c 0,0.7135 0.0964,1.1719 0.28906,1.375 0.19792,0.2031 0.59635,0.3047 1.19532,0.3047 l 1.47656,0 0,1.2031 -1.47656,0 c -1.10938,0 -1.87501,-0.2057 -2.29688,-0.6172 -0.42188,-0.4166 -0.63281,-1.1719 -0.63281,-2.2656 l 0,-4.75 -1.05469,0 0,-1.1172 1.05469,0 0,-2.4844 1.44531,0"
         id="path4266" />
      <path
         inkscape:connector-curvature="0"
         d="m 240.57701,1021.7628 c -0.77084,0 -1.38021,0.3021 -1.82812,0.9063 -0.44792,0.5989 -0.67188,1.4218 -0.67188,2.4687 0,1.0469 0.22135,1.8724 0.66406,2.4766 0.44792,0.5989 1.0599,0.8984 1.83594,0.8984 0.76562,0 1.37239,-0.3021 1.82031,-0.9062 0.44791,-0.6042 0.67187,-1.4271 0.67188,-2.4688 -1e-5,-1.0364 -0.22397,-1.8567 -0.67188,-2.4609 -0.44792,-0.6094 -1.05469,-0.9141 -1.82031,-0.9141 m 0,-1.2187 c 1.24999,0 2.23176,0.4062 2.94531,1.2187 0.71354,0.8125 1.07031,1.9375 1.07032,3.375 -10e-6,1.4323 -0.35678,2.5573 -1.07032,3.375 -0.71355,0.8125 -1.69532,1.2188 -2.94531,1.2188 -1.25521,0 -2.23958,-0.4063 -2.95312,-1.2188 -0.70834,-0.8177 -1.0625,-1.9427 -1.0625,-3.375 0,-1.4375 0.35416,-2.5625 1.0625,-3.375 0.71354,-0.8125 1.69791,-1.2187 2.95312,-1.2187"
         id="path4268" />
      <path
         inkscape:connector-curvature="0"
         d="m 253.70201,1023.9347 0,4.2734 2.53125,0 c 0.84895,0 1.47656,-0.1744 1.88281,-0.5234 0.41145,-0.3542 0.61718,-0.8932 0.61719,-1.6172 -10e-6,-0.7292 -0.20574,-1.2656 -0.61719,-1.6094 -0.40625,-0.3489 -1.03386,-0.5234 -1.88281,-0.5234 l -2.53125,0 m 0,-4.7969 0,3.5156 2.33594,0 c 0.77083,0 1.34374,-0.1432 1.71875,-0.4296 0.3802,-0.2917 0.5703,-0.7344 0.57031,-1.3282 -10e-6,-0.5885 -0.19011,-1.0286 -0.57031,-1.3203 -0.37501,-0.2916 -0.94792,-0.4375 -1.71875,-0.4375 l -2.33594,0 m -1.57812,-1.2969 4.03125,0 c 1.20311,10e-5 2.1302,0.2501 2.78125,0.75 0.65103,0.5001 0.97655,1.211 0.97656,2.1329 -1e-5,0.7135 -0.16668,1.2812 -0.5,1.7031 -0.33334,0.4219 -0.82293,0.6849 -1.46875,0.789 0.77603,0.1667 1.37759,0.5157 1.80469,1.0469 0.43228,0.5261 0.64842,1.1849 0.64843,1.9766 -10e-6,1.0416 -0.35417,1.8463 -1.0625,2.414 -0.70834,0.5678 -1.71615,0.8516 -3.02343,0.8516 l -4.1875,0 0,-11.6641"
         id="path4270" />
      <path
         inkscape:connector-curvature="0"
         d="m 263.03014,1020.755 1.4375,0 0,8.75 -1.4375,0 0,-8.75 m 0,-3.4062 1.4375,0 0,1.8203 -1.4375,0 0,-1.8203"
         id="path4272" />
      <path
         inkscape:connector-curvature="0"
         d="m 268.88951,1018.2706 0,2.4844 2.96094,0 0,1.1172 -2.96094,0 0,4.75 c 0,0.7135 0.0964,1.1719 0.28906,1.375 0.19792,0.2031 0.59635,0.3047 1.19532,0.3047 l 1.47656,0 0,1.2031 -1.47656,0 c -1.10938,0 -1.87501,-0.2057 -2.29688,-0.6172 -0.42188,-0.4166 -0.63281,-1.1719 -0.63281,-2.2656 l 0,-4.75 -1.05469,0 0,-1.1172 1.05469,0 0,-2.4844 1.44531,0"
         id="path4274" />
      <path
         inkscape:connector-curvature="0"
         d="m 280.04576,1021.0909 0,1.3438 c -0.40626,-0.224 -0.81511,-0.3906 -1.22656,-0.5 -0.40626,-0.1146 -0.81772,-0.1719 -1.23438,-0.1719 -0.93229,0 -1.65625,0.2969 -2.17187,0.8906 -0.51563,0.5886 -0.77344,1.4167 -0.77344,2.4844 0,1.0677 0.25781,1.8985 0.77344,2.4922 0.51562,0.5885 1.23958,0.8828 2.17187,0.8828 0.41666,0 0.82812,-0.055 1.23438,-0.164 0.41145,-0.1146 0.8203,-0.2839 1.22656,-0.5079 l 0,1.3282 c -0.40105,0.1875 -0.81771,0.3281 -1.25,0.4218 -0.42709,0.094 -0.88282,0.1407 -1.36719,0.1407 -1.31771,0 -2.36458,-0.4141 -3.14062,-1.2422 -0.77604,-0.8281 -1.16406,-1.9453 -1.16406,-3.3516 0,-1.4271 0.39062,-2.5495 1.17187,-3.3672 0.78646,-0.8177 1.86198,-1.2265 3.22656,-1.2265 0.44271,0 0.875,0.047 1.29688,0.1406 0.42187,0.088 0.83072,0.224 1.22656,0.4062"
         id="path4276" />
      <path
         inkscape:connector-curvature="0"
         d="m 285.92076,1021.7628 c -0.77084,0 -1.38021,0.3021 -1.82812,0.9063 -0.44792,0.5989 -0.67188,1.4218 -0.67188,2.4687 0,1.0469 0.22135,1.8724 0.66406,2.4766 0.44792,0.5989 1.0599,0.8984 1.83594,0.8984 0.76562,0 1.37239,-0.3021 1.82031,-0.9062 0.44791,-0.6042 0.67187,-1.4271 0.67188,-2.4688 -1e-5,-1.0364 -0.22397,-1.8567 -0.67188,-2.4609 -0.44792,-0.6094 -1.05469,-0.9141 -1.82031,-0.9141 m 0,-1.2187 c 1.24999,0 2.23176,0.4062 2.94531,1.2187 0.71354,0.8125 1.07031,1.9375 1.07032,3.375 -1e-5,1.4323 -0.35678,2.5573 -1.07032,3.375 -0.71355,0.8125 -1.69532,1.2188 -2.94531,1.2188 -1.25521,0 -2.23958,-0.4063 -2.95312,-1.2188 -0.70834,-0.8177 -1.0625,-1.9427 -1.0625,-3.375 0,-1.4375 0.35416,-2.5625 1.0625,-3.375 0.71354,-0.8125 1.69791,-1.2187 2.95312,-1.2187"
         id="path4278" />
      <path
         inkscape:connector-curvature="0"
         d="m 292.31139,1020.755 1.4375,0 0,8.75 -1.4375,0 0,-8.75 m 0,-3.4062 1.4375,0 0,1.8203 -1.4375,0 0,-1.8203"
         id="path4280" />
      <path
         inkscape:connector-curvature="0"
         d="m 304.02232,1024.2238 0,5.2812 -1.4375,0 0,-5.2344 c 0,-0.8281 -0.16146,-1.4479 -0.48437,-1.8593 -0.32292,-0.4115 -0.8073,-0.6172 -1.45313,-0.6172 -0.77604,0 -1.38802,0.2474 -1.83593,0.7422 -0.44792,0.4948 -0.67188,1.1692 -0.67188,2.0234 l 0,4.9453 -1.44531,0 0,-8.75 1.44531,0 0,1.3594 c 0.34375,-0.5261 0.74739,-0.9193 1.21094,-1.1797 0.46874,-0.2604 1.00781,-0.3906 1.61719,-0.3906 1.0052,0 1.76561,0.3125 2.28125,0.9375 0.51561,0.6198 0.77342,1.5338 0.77343,2.7422"
         id="path4282" />
      <path
         inkscape:connector-curvature="0"
         d="m 313.63951,1019.1378 0,4.3828 1.98438,0 c 0.73437,0 1.30207,-0.1901 1.70312,-0.5703 0.40104,-0.3802 0.60156,-0.9219 0.60156,-1.625 0,-0.6979 -0.20052,-1.237 -0.60156,-1.6172 -0.40105,-0.3802 -0.96875,-0.5703 -1.70312,-0.5703 l -1.98438,0 m -1.57812,-1.2969 3.5625,0 c 1.30728,10e-5 2.29426,0.2969 2.96093,0.8907 0.67187,0.5885 1.00781,1.4531 1.00782,2.5937 -1e-5,1.1511 -0.33595,2.0209 -1.00782,2.6094 -0.66667,0.5885 -1.65365,0.8828 -2.96093,0.8828 l -1.98438,0 0,4.6875 -1.57812,0 0,-11.6641"
         id="path4284" />
      <path
         inkscape:connector-curvature="0"
         d="m 328.57701,1024.7706 0,0.7032 -6.60937,0 c 0.0625,0.9895 0.35937,1.7447 0.89062,2.2656 0.53646,0.5156 1.28125,0.7734 2.23438,0.7734 0.55207,0 1.08593,-0.068 1.60156,-0.2031 0.52082,-0.1354 1.03645,-0.3385 1.54687,-0.6094 l 0,1.3594 c -0.51563,0.2187 -1.04427,0.3854 -1.58593,0.5 -0.54168,0.1146 -1.09116,0.1719 -1.64844,0.1719 -1.39584,0 -2.50261,-0.4063 -3.32031,-1.2188 -0.81251,-0.8125 -1.21875,-1.9114 -1.21875,-3.2969 0,-1.4322 0.38541,-2.5677 1.15625,-3.4062 0.77603,-0.8437 1.8203,-1.2656 3.13281,-1.2656 1.17708,0 2.10676,0.3802 2.78906,1.1406 0.68749,0.7552 1.03124,1.7839 1.03125,3.0859 m -1.4375,-0.4218 c -0.0104,-0.7865 -0.23178,-1.4141 -0.66406,-1.8829 -0.42709,-0.4687 -0.9948,-0.7031 -1.70313,-0.7031 -0.80208,0 -1.44531,0.2266 -1.92968,0.6797 -0.47917,0.4531 -0.75521,1.0912 -0.82813,1.9141 l 5.125,-0.01"
         id="path4286" />
      <path
         inkscape:connector-curvature="0"
         d="m 338.38951,1024.7706 0,0.7032 -6.60937,0 c 0.0625,0.9895 0.35937,1.7447 0.89062,2.2656 0.53646,0.5156 1.28125,0.7734 2.23438,0.7734 0.55207,0 1.08593,-0.068 1.60156,-0.2031 0.52082,-0.1354 1.03645,-0.3385 1.54687,-0.6094 l 0,1.3594 c -0.51563,0.2187 -1.04427,0.3854 -1.58593,0.5 -0.54168,0.1146 -1.09116,0.1719 -1.64844,0.1719 -1.39584,0 -2.50261,-0.4063 -3.32031,-1.2188 -0.81251,-0.8125 -1.21875,-1.9114 -1.21875,-3.2969 0,-1.4322 0.38541,-2.5677 1.15625,-3.4062 0.77603,-0.8437 1.8203,-1.2656 3.13281,-1.2656 1.17708,0 2.10676,0.3802 2.78906,1.1406 0.68749,0.7552 1.03124,1.7839 1.03125,3.0859 m -1.4375,-0.4218 c -0.0104,-0.7865 -0.23178,-1.4141 -0.66406,-1.8829 -0.42709,-0.4687 -0.9948,-0.7031 -1.70313,-0.7031 -0.80208,0 -1.44531,0.2266 -1.92968,0.6797 -0.47917,0.4531 -0.75521,1.0912 -0.82813,1.9141 l 5.125,-0.01"
         id="path4288" />
      <path
         inkscape:connector-curvature="0"
         d="m 345.78795,1022.0988 c -0.16147,-0.094 -0.33855,-0.1615 -0.53125,-0.2032 -0.18751,-0.047 -0.39584,-0.07 -0.625,-0.07 -0.81251,0 -1.43751,0.2656 -1.875,0.7969 -0.4323,0.526 -0.64844,1.2839 -0.64844,2.2734 l 0,4.6094 -1.44531,0 0,-8.75 1.44531,0 0,1.3594 c 0.30208,-0.5313 0.69531,-0.9245 1.17969,-1.1797 0.48437,-0.2604 1.07291,-0.3906 1.76562,-0.3906 0.099,0 0.20833,0.01 0.32813,0.023 0.11978,0.01 0.2526,0.029 0.39844,0.055 l 0.008,1.4766"
         id="path4290" />
      <path
         inkscape:connector-curvature="0"
         d="m 345.55357,1024.4816 4.21094,0 0,1.2812 -4.21094,0 0,-1.2812"
         id="path4292" />
      <path
         inkscape:connector-curvature="0"
         d="m 353.48326,1018.2706 0,2.4844 2.96094,0 0,1.1172 -2.96094,0 0,4.75 c 0,0.7135 0.0964,1.1719 0.28906,1.375 0.19792,0.2031 0.59635,0.3047 1.19532,0.3047 l 1.47656,0 0,1.2031 -1.47656,0 c -1.10938,0 -1.87501,-0.2057 -2.29688,-0.6172 -0.42188,-0.4166 -0.63281,-1.1719 -0.63281,-2.2656 l 0,-4.75 -1.05469,0 0,-1.1172 1.05469,0 0,-2.4844 1.44531,0"
         id="path4294" />
      <path
         inkscape:connector-curvature="0"
         d="m 361.73326,1021.7628 c -0.77084,0 -1.38021,0.3021 -1.82812,0.9063 -0.44792,0.5989 -0.67188,1.4218 -0.67188,2.4687 0,1.0469 0.22135,1.8724 0.66406,2.4766 0.44792,0.5989 1.0599,0.8984 1.83594,0.8984 0.76562,0 1.37239,-0.3021 1.82031,-0.9062 0.44791,-0.6042 0.67187,-1.4271 0.67188,-2.4688 -1e-5,-1.0364 -0.22397,-1.8567 -0.67188,-2.4609 -0.44792,-0.6094 -1.05469,-0.9141 -1.82031,-0.9141 m 0,-1.2187 c 1.24999,0 2.23176,0.4062 2.94531,1.2187 0.71354,0.8125 1.07031,1.9375 1.07032,3.375 -1e-5,1.4323 -0.35678,2.5573 -1.07032,3.375 -0.71355,0.8125 -1.69532,1.2188 -2.94531,1.2188 -1.25521,0 -2.23958,-0.4063 -2.95312,-1.2188 -0.70834,-0.8177 -1.0625,-1.9427 -1.0625,-3.375 0,-1.4375 0.35416,-2.5625 1.0625,-3.375 0.71354,-0.8125 1.69791,-1.2187 2.95312,-1.2187"
         id="path4296" />
      <path
         inkscape:connector-curvature="0"
         d="m 367.70982,1024.4816 4.21094,0 0,1.2812 -4.21094,0 0,-1.2812"
         id="path4298" />
      <path
         inkscape:connector-curvature="0"
         d="m 375.85826,1019.1378 0,4.3828 1.98438,0 c 0.73437,0 1.30207,-0.1901 1.70312,-0.5703 0.40104,-0.3802 0.60156,-0.9219 0.60156,-1.625 0,-0.6979 -0.20052,-1.237 -0.60156,-1.6172 -0.40105,-0.3802 -0.96875,-0.5703 -1.70312,-0.5703 l -1.98438,0 m -1.57812,-1.2969 3.5625,0 c 1.30728,10e-5 2.29426,0.2969 2.96093,0.8907 0.67187,0.5885 1.00781,1.4531 1.00782,2.5937 -1e-5,1.1511 -0.33595,2.0209 -1.00782,2.6094 -0.66667,0.5885 -1.65365,0.8828 -2.96093,0.8828 l -1.98438,0 0,4.6875 -1.57812,0 0,-11.6641"
         id="path4300" />
      <path
         inkscape:connector-curvature="0"
         d="m 390.79576,1024.7706 0,0.7032 -6.60937,0 c 0.0625,0.9895 0.35937,1.7447 0.89062,2.2656 0.53646,0.5156 1.28125,0.7734 2.23438,0.7734 0.55207,0 1.08593,-0.068 1.60156,-0.2031 0.52082,-0.1354 1.03645,-0.3385 1.54687,-0.6094 l 0,1.3594 c -0.51563,0.2187 -1.04427,0.3854 -1.58593,0.5 -0.54168,0.1146 -1.09116,0.1719 -1.64844,0.1719 -1.39584,0 -2.50261,-0.4063 -3.32031,-1.2188 -0.81251,-0.8125 -1.21875,-1.9114 -1.21875,-3.2969 0,-1.4322 0.38541,-2.5677 1.15625,-3.4062 0.77603,-0.8437 1.8203,-1.2656 3.13281,-1.2656 1.17708,0 2.10676,0.3802 2.78906,1.1406 0.68749,0.7552 1.03124,1.7839 1.03125,3.0859 m -1.4375,-0.4218 c -0.0104,-0.7865 -0.23178,-1.4141 -0.66406,-1.8829 -0.42709,-0.4687 -0.9948,-0.7031 -1.70313,-0.7031 -0.80208,0 -1.44531,0.2266 -1.92968,0.6797 -0.47917,0.4531 -0.75521,1.0912 -0.82813,1.9141 l 5.125,-0.01"
         id="path4302" />
      <path
         inkscape:connector-curvature="0"
         d="m 400.60826,1024.7706 0,0.7032 -6.60937,0 c 0.0625,0.9895 0.35937,1.7447 0.89062,2.2656 0.53646,0.5156 1.28125,0.7734 2.23438,0.7734 0.55207,0 1.08593,-0.068 1.60156,-0.2031 0.52082,-0.1354 1.03645,-0.3385 1.54687,-0.6094 l 0,1.3594 c -0.51563,0.2187 -1.04427,0.3854 -1.58593,0.5 -0.54168,0.1146 -1.09116,0.1719 -1.64844,0.1719 -1.39584,0 -2.50261,-0.4063 -3.32031,-1.2188 -0.81251,-0.8125 -1.21875,-1.9114 -1.21875,-3.2969 0,-1.4322 0.38541,-2.5677 1.15625,-3.4062 0.77603,-0.8437 1.8203,-1.2656 3.13281,-1.2656 1.17708,0 2.10676,0.3802 2.78906,1.1406 0.68749,0.7552 1.03124,1.7839 1.03125,3.0859 m -1.4375,-0.4218 c -0.0104,-0.7865 -0.23178,-1.4141 -0.66406,-1.8829 -0.42709,-0.4687 -0.9948,-0.7031 -1.70313,-0.7031 -0.80208,0 -1.44531,0.2266 -1.92968,0.6797 -0.47917,0.4531 -0.75521,1.0912 -0.82813,1.9141 l 5.125,-0.01"
         id="path4304" />
      <path
         inkscape:connector-curvature="0"
         d="m 408.0067,1022.0988 c -0.16147,-0.094 -0.33855,-0.1615 -0.53125,-0.2032 -0.18751,-0.047 -0.39584,-0.07 -0.625,-0.07 -0.81251,0 -1.43751,0.2656 -1.875,0.7969 -0.4323,0.526 -0.64844,1.2839 -0.64844,2.2734 l 0,4.6094 -1.44531,0 0,-8.75 1.44531,0 0,1.3594 c 0.30208,-0.5313 0.69531,-0.9245 1.17969,-1.1797 0.48437,-0.2604 1.07291,-0.3906 1.76562,-0.3906 0.099,0 0.20833,0.01 0.32813,0.023 0.11978,0.01 0.2526,0.029 0.39844,0.055 l 0.008,1.4766"
         id="path4306" />
      <path
         inkscape:connector-curvature="0"
         d="m 414.68639,1017.8409 2.125,0 5.17187,9.7579 0,-9.7579 1.53125,0 0,11.6641 -2.125,0 -5.17187,-9.7578 0,9.7578 -1.53125,0 0,-11.6641"
         id="path4308" />
      <path
         inkscape:connector-curvature="0"
         d="m 434.07701,1024.7706 0,0.7032 -6.60937,0 c 0.0625,0.9895 0.35937,1.7447 0.89062,2.2656 0.53646,0.5156 1.28125,0.7734 2.23438,0.7734 0.55207,0 1.08593,-0.068 1.60156,-0.2031 0.52082,-0.1354 1.03645,-0.3385 1.54687,-0.6094 l 0,1.3594 c -0.51563,0.2187 -1.04427,0.3854 -1.58593,0.5 -0.54168,0.1146 -1.09116,0.1719 -1.64844,0.1719 -1.39584,0 -2.50261,-0.4063 -3.32031,-1.2188 -0.81251,-0.8125 -1.21875,-1.9114 -1.21875,-3.2969 0,-1.4322 0.38541,-2.5677 1.15625,-3.4062 0.77603,-0.8437 1.8203,-1.2656 3.13281,-1.2656 1.17708,0 2.10676,0.3802 2.78906,1.1406 0.68749,0.7552 1.03124,1.7839 1.03125,3.0859 m -1.4375,-0.4218 c -0.0104,-0.7865 -0.23178,-1.4141 -0.66406,-1.8829 -0.42709,-0.4687 -0.9948,-0.7031 -1.70313,-0.7031 -0.80208,0 -1.44531,0.2266 -1.92968,0.6797 -0.47917,0.4531 -0.75521,1.0912 -0.82813,1.9141 l 5.125,-0.01"
         id="path4310" />
      <path
         inkscape:connector-curvature="0"
         d="m 437.82701,1018.2706 0,2.4844 2.96094,0 0,1.1172 -2.96094,0 0,4.75 c 0,0.7135 0.0964,1.1719 0.28906,1.375 0.19792,0.2031 0.59635,0.3047 1.19532,0.3047 l 1.47656,0 0,1.2031 -1.47656,0 c -1.10938,0 -1.87501,-0.2057 -2.29688,-0.6172 -0.42188,-0.4166 -0.63281,-1.1719 -0.63281,-2.2656 l 0,-4.75 -1.05469,0 0,-1.1172 1.05469,0 0,-2.4844 1.44531,0"
         id="path4312" />
      <path
         inkscape:connector-curvature="0"
         d="m 441.85045,1020.755 1.4375,0 1.79687,6.8281 1.78907,-6.8281 1.69531,0 1.79687,6.8281 1.78907,-6.8281 1.4375,0 -2.28907,8.75 -1.69531,0 -1.88281,-7.1719 -1.89063,7.1719 -1.69531,0 -2.28906,-8.75"
         id="path4314" />
      <path
         inkscape:connector-curvature="0"
         d="m 459.17076,1021.7628 c -0.77084,0 -1.38021,0.3021 -1.82812,0.9063 -0.44792,0.5989 -0.67188,1.4218 -0.67188,2.4687 0,1.0469 0.22135,1.8724 0.66406,2.4766 0.44792,0.5989 1.0599,0.8984 1.83594,0.8984 0.76562,0 1.37239,-0.3021 1.82031,-0.9062 0.44791,-0.6042 0.67187,-1.4271 0.67188,-2.4688 -1e-5,-1.0364 -0.22397,-1.8567 -0.67188,-2.4609 -0.44792,-0.6094 -1.05469,-0.9141 -1.82031,-0.9141 m 0,-1.2187 c 1.24999,0 2.23176,0.4062 2.94531,1.2187 0.71354,0.8125 1.07031,1.9375 1.07032,3.375 -1e-5,1.4323 -0.35678,2.5573 -1.07032,3.375 -0.71355,0.8125 -1.69532,1.2188 -2.94531,1.2188 -1.25521,0 -2.23958,-0.4063 -2.95312,-1.2188 -0.70834,-0.8177 -1.0625,-1.9427 -1.0625,-3.375 0,-1.4375 0.35416,-2.5625 1.0625,-3.375 0.71354,-0.8125 1.69791,-1.2187 2.95312,-1.2187"
         id="path4316" />
      <path
         inkscape:connector-curvature="0"
         d="m 470.6317,1022.0988 c -0.16147,-0.094 -0.33855,-0.1615 -0.53125,-0.2032 -0.18751,-0.047 -0.39584,-0.07 -0.625,-0.07 -0.81251,0 -1.43751,0.2656 -1.875,0.7969 -0.4323,0.526 -0.64844,1.2839 -0.64844,2.2734 l 0,4.6094 -1.44531,0 0,-8.75 1.44531,0 0,1.3594 c 0.30208,-0.5313 0.69531,-0.9245 1.17969,-1.1797 0.48437,-0.2604 1.07291,-0.3906 1.76562,-0.3906 0.099,0 0.20833,0.01 0.32813,0.023 0.11978,0.01 0.2526,0.029 0.39844,0.055 l 0.008,1.4766"
         id="path4318" />
      <path
         inkscape:connector-curvature="0"
         d="m 472.10045,1017.3488 1.44531,0 0,7.1796 4.28906,-3.7734 1.83594,0 -4.64062,4.0938 4.83593,4.6562 -1.875,0 -4.44531,-4.2734 0,4.2734 -1.44531,0 0,-12.1562"
         id="path4320" />
    </g>
    <path
       inkscape:connector-curvature="0"
       style="fill:none;stroke:#000000;stroke-width:2;stroke-miterlimit:4;stroke-opacity:1;stroke-dashoffset:0"
       d="m 10.606602,923.40228 210.010708,0 0,42.01844 -210.010708,0 z"
       id="rect4095" />
    <path
       inkscape:connector-curvature="0"
       style="fill:#ffffff;fill-opacity:1;stroke:#000000;stroke-width:2.67700005;stroke-miterlimit:4;stroke-opacity:1;stroke-dashoffset:0"
       d="m 189.28571,936.36218 221.42857,0 0,60.71429 -221.42857,0 z"
       id="rect2985" />
    <g
       transform="matrix(571.06947,0,0,571.06947,194.03984,942.68603)"
       id="g21737">
      <g
         transform="matrix(0.81109867,0,0,0.81109867,0.06721753,0.01179634)"
         id="text3882"
         style="font-size:0.06686545px;font-style:normal;font-variant:normal;font-weight:normal;font-stretch:normal;text-align:start;line-height:125%;letter-spacing:0px;word-spacing:0px;writing-mode:lr-tb;text-anchor:start;fill:#b3b3b3;fill-opacity:1;stroke:none;font-family:Sans;-inkscape-font-specification:Sans">
        <path
           inkscape:connector-curvature="0"
           id="path4260-4"
           d="m 0.00800291,0.04071128 0,0.01785909 0.01057832,0 c 0.0035478,0 0.0061707,-7.2916e-4 0.0078684,-0.0021875 0.0017195,-0.0014801 0.0025793,-0.0037329 0.0025793,-0.0067584 -3e-8,-0.0030472 -8.5979e-4,-0.0052891 -0.0025793,-0.0067257 -0.0016978,-0.0014583 -0.0043206,-0.0021875 -0.0078684,-0.0021875 l -0.01057832,0 m 0,-0.02004657 0,0.01469211 0.0097621,0 c 0.0032213,3e-8 0.0056156,-5.9854e-4 0.0071828,-0.0017957 0.0015889,-0.0012189 0.0023833,-0.003069 0.0023834,-0.0055504 -4e-8,-0.0024595 -7.945e-4,-0.0042988 -0.0023834,-0.0055177 -0.0015672,-0.0012189 -0.0039615,-0.0018283 -0.0071828,-0.0018283 l -0.0097621,0 m -0.00659513,-0.0054198 0.01684696,0 c 0.0050279,5e-8 0.0089023,0.0010448 0.0116231,0.0031343 0.0027207,0.0020896 0.0040811,0.0050607 0.0040811,0.0089132 -4e-8,0.002982 -6.9655e-4,0.0053545 -0.0020895,0.0071175 -0.0013931,0.0017631 -0.0034391,0.0028623 -0.006138,0.0032976 0.0032431,6.9654e-4 0.0057571,0.0021549 0.0075419,0.004375 0.0018065,0.0021984 0.0027098,0.0049518 0.0027099,0.0082602 -4e-8,0.0043532 -0.0014801,0.0077161 -0.0044403,0.01008859 C 0.02858274,0.0628038 0.02437094,0.06399 0.01890772,0.06399 l -0.01749995,0 0,-0.04874517" />
        <path
           inkscape:connector-curvature="0"
           id="path4262-8"
           d="m 0.04698599,0.02742308 0.0060075,0 0,0.03656704 -0.0060075,0 0,-0.03656704 m 0,-0.01423503 0.0060075,0 0,0.0076072 -0.0060075,0 0,-0.0076072" />
        <path
           inkscape:connector-curvature="0"
           id="path4264-3"
           d="m 0.07147285,0.01704065 0,0.01038243 0.01237403,0 0,0.0046688 -0.01237403,0 0,0.01985068 c -1e-8,0.002982 4.0266e-4,0.0048974 0.001208,0.0057463 8.271e-4,8.4888e-4 0.0024922,0.0012733 0.0049953,0.0012733 l 0.0061707,0 0,0.005028 -0.0061707,0 c -0.0046362,0 -0.0078358,-8.5976e-4 -0.0095989,-0.0025793 -0.0017631,-0.0017413 -0.0026446,-0.0048974 -0.0026446,-0.0094683 l 0,-0.01985068 -0.0044076,0 0,-0.0046688 0.0044076,0 0,-0.01038243 0.0060401,0" />
        <path
           inkscape:connector-curvature="0"
           id="path4266-1"
           d="m 0.11809584,0.02882699 0,0.0056157 c -0.001698,-9.3592e-4 -0.003406,-0.0016324 -0.005126,-0.0020895 -0.001698,-4.7882e-4 -0.003417,-7.1825e-4 -0.005159,-7.1828e-4 -0.003896,3e-8 -0.006922,0.0012407 -0.0090765,0.003722 -0.0021549,0.0024596 -0.0032323,0.0059204 -0.0032323,0.01038243 -10e-9,0.0044621 0.0010774,0.0079337 0.0032323,0.01041508 0.0021548,0.0024596 0.0051803,0.0036894 0.0090765,0.0036894 0.001741,1e-8 0.003461,-2.2854e-4 0.005159,-6.8563e-4 0.001719,-4.7885e-4 0.003428,-0.0011862 0.005126,-0.0021222 l 0,0.0055504 c -0.001676,7.8358e-4 -0.003417,0.0013713 -0.005224,0.0017631 -0.001785,3.9179e-4 -0.003689,5.8769e-4 -0.005714,5.8769e-4 -0.005507,0 -0.0098818,-0.0017304 -0.01312496,-0.0051912 -0.0032432,-0.0034608 -0.0048647,-0.0081296 -0.0048647,-0.01400648 0,-0.0059639 0.0016325,-0.01065448 0.0048974,-0.01407178 0.0032867,-0.0034172 0.0077814,-0.0051259 0.0134841,-0.0051259 0.00185,4e-8 0.003657,1.9593e-4 0.00542,5.8769e-4 0.001763,3.7006e-4 0.003472,9.3598e-4 0.005126,0.0016978" />
        <path
           inkscape:connector-curvature="0"
           id="path4268-1"
           d="m 0.14264799,0.03163482 c -0.003221,3e-8 -0.005768,0.0012625 -0.00764,0.0037873 -0.001872,0.0025031 -0.002808,0.0059422 -0.002808,0.01031713 -10e-9,0.004375 9.2505e-4,0.0078249 0.002775,0.01034978 0.001872,0.0025031 0.004429,0.0037547 0.007673,0.0037547 0.0032,1e-8 0.005735,-0.0012624 0.007607,-0.0037873 0.001872,-0.0025249 0.002808,-0.0059639 0.002808,-0.01031713 -3e-8,-0.0043314 -9.3597e-4,-0.0077596 -0.002808,-0.01028448 -0.001872,-0.0025466 -0.004408,-0.0038199 -0.007607,-0.0038199 m 0,-0.0050933 c 0.005224,4e-8 0.009327,0.0016978 0.0123087,0.0050933 0.002982,0.0033955 0.004473,0.008097 0.004473,0.01410443 -4e-8,0.0059857 -0.001491,0.01068716 -0.004473,0.01410443 -0.002982,0.0033955 -0.007085,0.0050933 -0.0123087,0.0050933 -0.005246,0 -0.009359,-0.0016978 -0.0123414,-0.0050933 -0.00296,-0.0034173 -0.00444,-0.0081187 -0.00444,-0.01410443 0,-0.0060074 0.00148,-0.01070889 0.00444,-0.01410443 0.002982,-0.0033955 0.007096,-0.0050932 0.0123414,-0.0050933" />
        <path
           inkscape:connector-curvature="0"
           id="path4270-2"
           d="m 0.169355,0.02742308 0.006007,0 0,0.03656704 -0.006007,0 0,-0.03656704 m 0,-0.01423503 0.006007,0 0,0.0076072 -0.006007,0 0,-0.0076072" />
        <path
           inkscape:connector-curvature="0"
           id="path4272-7"
           d="m 0.21829607,0.0419193 0,0.02207082 -0.006007,0 0,-0.02187492 c -3e-8,-0.0034608 -6.7478e-4,-0.006051 -0.002024,-0.0077705 -0.00135,-0.0017195 -0.003374,-0.0025792 -0.006073,-0.0025793 -0.003243,3e-8 -0.005801,0.0010339 -0.007673,0.0031017 -0.001872,0.0020678 -0.002808,0.0048865 -0.002808,0.0084561 l 0,0.02066691 -0.00604,0 0,-0.03656704 0.00604,0 0,0.005681 c 0.001437,-0.0021983 0.003123,-0.0038417 0.005061,-0.00493 0.001959,-0.0010883 0.004212,-0.0016324 0.006758,-0.0016325 0.004201,4e-8 0.007379,0.001306 0.009534,0.0039179 0.002155,0.0025902 0.003232,0.0064101 0.003232,0.01145985" />
      </g>
      <g
         transform="matrix(0.81109867,0,0,0.81109867,0.07038589,0.01179634)"
         id="text3886"
         style="font-size:0.06686545px;font-style:normal;font-variant:normal;font-weight:normal;font-stretch:normal;text-align:start;line-height:125%;letter-spacing:0px;word-spacing:0px;writing-mode:lr-tb;text-anchor:start;fill:#666666;fill-opacity:1;stroke:none;font-family:Sans;-inkscape-font-specification:Sans">
        <path
           inkscape:connector-curvature="0"
           id="path4251"
           d="m 0.26247592,0.01841191 0,0.0069543 c -0.00222,-0.0020677 -0.004593,-0.0036131 -0.007118,-0.0046362 -0.002503,-0.001023 -0.005169,-0.0015345 -0.007999,-0.0015345 -0.005572,5e-8 -0.009838,0.0017087 -0.0127985,0.0051259 -0.00296,0.0033955 -0.00444,0.0083147 -0.00444,0.01475741 -10e-9,0.006421 0.00148,0.01134015 0.00444,0.01475742 0.00296,0.0033955 0.007226,0.0050933 0.0127985,0.0050933 0.00283,10e-9 0.005496,-5.1149e-4 0.007999,-0.0015345 0.002525,-0.001023 0.004897,-0.0025684 0.007118,-0.0046362 l 0,0.006889 c -0.002307,0.0015672 -0.004756,0.0027425 -0.007346,0.0035261 -0.002568,7.8358e-4 -0.005289,0.0011754 -0.008162,0.0011754 -0.007379,0 -0.0131903,-0.0022528 -0.0174346,-0.0067584 -0.004244,-0.0045273 -0.006367,-0.01069802 -0.006367,-0.01851207 0,-0.0078358 0.002122,-0.01400644 0.006367,-0.01851206 0.004244,-0.0045273 0.0100559,-0.006791 0.0174346,-0.006791 0.002917,5e-8 0.005659,3.9184e-4 0.008228,0.0011754 0.00259,7.6186e-4 0.005017,0.0019155 0.007281,0.0034608" />
        <path
           inkscape:connector-curvature="0"
           id="path4253"
           d="m 0.28663629,0.03104713 c -0.003221,4e-8 -0.005768,0.0012625 -0.00764,0.0037873 -0.001872,0.0025031 -0.002808,0.0059422 -0.002808,0.01031713 -10e-9,0.004375 9.2504e-4,0.0078249 0.002775,0.01034978 0.001872,0.0025031 0.004429,0.0037547 0.007673,0.0037547 0.0032,0 0.005735,-0.0012624 0.007607,-0.0037873 0.001872,-0.0025249 0.002808,-0.0059639 0.002808,-0.01031713 -3e-8,-0.0043314 -9.3597e-4,-0.0077596 -0.002808,-0.01028448 -0.001872,-0.0025466 -0.004408,-0.0038199 -0.007607,-0.00382 m 0,-0.0050933 c 0.005224,3e-8 0.009327,0.0016978 0.0123087,0.0050933 0.002982,0.0033955 0.004473,0.008097 0.004473,0.01410443 -3e-8,0.0059857 -0.001491,0.01068717 -0.004473,0.01410444 -0.002982,0.0033955 -0.007085,0.0050933 -0.0123087,0.0050933 -0.005246,0 -0.009359,-0.0016978 -0.0123414,-0.0050933 -0.00296,-0.0034173 -0.00444,-0.0081188 -0.00444,-0.01410444 0,-0.0060074 0.00148,-0.01070889 0.00444,-0.01410443 0.002982,-0.0033955 0.007096,-0.0050932 0.0123414,-0.0050933" />
        <path
           inkscape:connector-curvature="0"
           id="path4255"
           d="m 0.33453259,0.03245105 c -6.7477e-4,-3.9176e-4 -0.001415,-6.7472e-4 -0.00222,-8.4888e-4 -7.836e-4,-1.9586e-4 -0.001654,-2.9381e-4 -0.002612,-2.9384e-4 -0.003396,3e-8 -0.006007,0.0011101 -0.007836,0.0033302 -0.001807,0.0021984 -0.00271,0.0053654 -0.00271,0.0095009 l 0,0.019263 -0.00604,0 0,-0.03656705 0.00604,0 0,0.0056809 c 0.001262,-0.0022201 0.002906,-0.0038634 0.00493,-0.00493 0.002024,-0.0010883 0.004484,-0.0016324 0.007379,-0.0016325 4.1353e-4,3e-8 8.7062e-4,3.268e-5 0.001371,9.794e-5 5.0059e-4,4.357e-5 0.001056,1.1975e-4 0.001665,2.2855e-4 l 3.265e-5,0.0061707" />
        <path
           inkscape:connector-curvature="0"
           id="path4257"
           d="m 0.37074049,0.04361705 0,0.0029384 -0.0276212,0 c 2.6119e-4,0.0041356 0.001502,0.0072916 0.003722,0.0094682 0.002242,0.0021549 0.005354,0.0032323 0.009338,0.0032323 0.002307,0 0.004538,-2.8296e-4 0.006693,-8.4888e-4 0.002177,-5.6592e-4 0.004331,-0.0014148 0.006465,-0.0025466 l 0,0.005681 c -0.002155,9.1417e-4 -0.004364,0.0016107 -0.006628,0.0020895 -0.002264,4.7885e-4 -0.00456,7.1828e-4 -0.006889,7.1828e-4 -0.005833,0 -0.0104586,-0.0016978 -0.0138759,-0.0050933 -0.003396,-0.0033955 -0.005093,-0.0079882 -0.005093,-0.01377794 -10e-9,-0.0059857 0.001611,-0.01073066 0.004832,-0.01423503 0.003243,-0.0035261 0.007607,-0.0052891 0.0130923,-0.0052892 0.004919,3e-8 0.008804,0.001589 0.0116557,0.0047668 0.002873,0.0031561 0.00431,0.0074549 0.00431,0.01289641 m -0.006007,-0.001763 c -4.356e-5,-0.0032867 -9.6862e-4,-0.0059095 -0.002775,-0.0078684 -0.001785,-0.0019589 -0.004157,-0.0029384 -0.007118,-0.0029384 -0.003352,4e-8 -0.00604,9.4686e-4 -0.008064,0.0028405 -0.002002,0.0018937 -0.003156,0.00456 -0.003461,0.007999 l 0.0214178,-3.265e-5" />
      </g>
      <g
         id="g21709">
        <path
           d="M 0.05771683,0.04917282 C 0.05380341,0.06486939 0.03790546,0.0744221 0.02220707,0.07050779 0.00651509,0.06659438 -0.00303763,0.05069553 8.7759387e-4,0.03499988 0.00478915,0.01930148 0.02068712,0.00974784 0.03638093,0.01366123 c 0.01569748,0.0039135 0.02524929,0.01981414 0.0213359,0.03551159 z"
           id="path8"
           inkscape:connector-curvature="0"
           style="fill:#f7931a" />
        <path
           d="m 0.04221073,0.03896188 c 5.8326e-4,-0.0038986 -0.0023851,-0.0059947 -0.0064442,-0.0073928 l 0.0013166,-0.0052814 -0.0032147,-8.0118e-4 -0.0012819,0.0051422 c -8.4514e-4,-2.1059e-4 -0.001713,-4.0928e-4 -0.0025756,-6.0613e-4 l 0.0012909,-0.0051761 -0.0032129,-8.0118e-4 -0.0013177,0.0052795 C 0.02607188,0.02916548 0.02538523,0.029008 0.02471859,0.02884227 l 3.6e-6,-1.648e-5 -0.0044335,-0.001107 -8.5516e-4,0.0034336 c 0,0 0.0023851,5.4664e-4 0.0023348,5.8052e-4 0.001302,3.2504e-4 0.0015373,0.0011866 0.0014981,0.0018697 l -0.0014997,0.0060165 c 8.973e-5,2.289e-5 2.0602e-4,5.586e-5 3.342e-4,1.0712e-4 -1.0713e-4,-2.655e-5 -2.2158e-4,-5.585e-5 -3.397e-4,-8.423e-5 l -0.0021023,0.0084282 c -1.5933e-4,3.9553e-4 -5.6312e-4,9.8884e-4 -0.0014731,7.6362e-4 3.204e-5,4.671e-5 -0.0023366,-5.8324e-4 -0.0023366,-5.8324e-4 l -0.0015958,0.0036798 0.0041836,0.001043 c 7.7825e-4,1.9503e-4 0.001541,3.9919e-4 0.0022918,5.9148e-4 l -0.0013303,0.0053418 0.003211,8.0119e-4 0.0013176,-0.005285 c 8.7719e-4,2.3806e-4 0.0017286,4.5781e-4 0.0025619,6.6474e-4 l -0.0013132,0.0052604 0.0032148,8.014e-4 0.0013303,-0.0053318 c 0.0054819,0.0010373 0.0096039,6.1897e-4 0.01133911,-0.0043391 0.0013982,-0.003992 -6.961e-5,-0.0062948 -0.0029539,-0.0077965 0.0021004,-4.8438e-4 0.0036826,-0.001866 0.0041048,-0.0047201 z m -0.0073451,0.01029989 c -9.9344e-4,0.003992 -0.0077151,0.001834 -0.0098943,0.0012929 l 0.0017653,-0.0070769 c 0.002179,5.4389e-4 0.0091672,0.0016206 0.0081288,0.0057841 z m 9.9434e-4,-0.01035758 c -9.0647e-4,0.0036313 -0.0065008,0.0017863 -0.0083157,0.001334 l 0.0016005,-0.0064185 c 0.0018147,4.5234e-4 0.0076591,0.0012964 0.0067151,0.0050845 z"
           id="path10"
           inkscape:connector-curvature="0"
           style="fill:#ffffff" />
      </g>
    </g>
  </g>
</svg>
