<?xml version="1.0" encoding="UTF-8"?>
<svg width="18px" height="17px" viewBox="0 0 18 17" version="1.1" xmlns="http://www.w3.org/2000/svg" xmlns:xlink="http://www.w3.org/1999/xlink">
    <!-- Generator: Sketch 49 (51002) - http://www.bohemiancoding.com/sketch -->
    <title>newspaper-o - FontAwesome</title>
    <desc>Created with Sketch.</desc>
    <defs></defs>
    <g id="Page-1" stroke="none" stroke-width="1" fill="none" fill-rule="evenodd">
        <g id="Bitcoin.org---Bitcoin-core--Desktop" transform="translate(-241.000000, -1484.000000)" fill="#1C3C55">
            <g id="//Content" transform="translate(215.000000, 543.000000)">
                <g id="Releases" transform="translate(0.000000, 919.000000)">
                    <g id="icon/news" transform="translate(20.000000, 15.000000)">
                        <path d="M11.5065044,12.4934956 L9.44156525,12.4934956 L9.44156525,14.5584347 L11.5065044,14.5584347 L11.5065044,12.4934956 Z M12.1948175,18.9350608 L12.1948175,19.6233739 L8.7532522,19.6233739 L8.7532522,18.9350608 L12.1948175,18.9350608 Z M12.1948175,17.4350608 L12.1948175,18.1233739 L8.7532522,18.1233739 L8.7532522,17.4350608 L12.1948175,17.4350608 Z M12.1948175,15.9350608 L12.1948175,16.6233739 L8.7532522,16.6233739 L8.7532522,15.9350608 L12.1948175,15.9350608 Z M12.1948175,11.8051825 L12.1948175,15.2467478 L8.7532522,15.2467478 L8.7532522,11.8051825 L12.1948175,11.8051825 Z M21.6363827,17.4025913 L21.6363827,18.0909043 L12.8831305,18.0909043 L12.8831305,17.4025913 L21.6363827,17.4025913 Z M21.6363827,18.9350608 L21.6363827,19.6233739 L12.8831305,19.6233739 L12.8831305,18.9350608 L21.6363827,18.9350608 Z M21.6363827,15.8701217 L21.6363827,16.5584347 L12.8831305,16.5584347 L12.8831305,15.8701217 L21.6363827,15.8701217 Z M21.6363827,14.3376521 L21.6363827,15.0259652 L12.8831305,15.0259652 L12.8831305,14.3376521 L21.6363827,14.3376521 Z M21.6363827,12.8051825 L21.6363827,13.4934956 L12.8831305,13.4934956 L12.8831305,12.8051825 L21.6363827,12.8051825 Z M7.3766261,22.9675304 L7.3766261,8.80518254 L6.68831305,8.80518254 L6.68831305,22.9675304 C6.68831305,23.155741 6.84425898,23.3116869 7.03246958,23.3116869 C7.22068018,23.3116869 7.3766261,23.155741 7.3766261,22.9675304 Z M22.3246958,22.9675304 L22.3246958,8.11686949 L8.06493915,8.11686949 L8.06493915,22.9675304 C8.06493915,23.0858342 8.04342937,23.204138 8.00578725,23.3116869 L21.9805392,23.3116869 C22.1687498,23.3116869 22.3246958,23.155741 22.3246958,22.9675304 Z M23.0130088,7.42855644 L23.0130088,22.9675304 C23.0130088,23.5375397 22.5505485,24 21.9805392,24 L7.03246958,24 C6.46246033,24 6,23.5375397 6,22.9675304 L6,8.11686949 L7.3766261,8.11686949 L7.3766261,7.42855644 L23.0130088,7.42855644 Z" id="newspaper-o---FontAwesome"></path>
                    </g>
                </g>
            </g>
        </g>
    </g>
</svg>