<?xml version="1.0" encoding="UTF-8" standalone="no"?>
<!-- Created with Inkscape (http://www.inkscape.org/) -->

<svg
   xmlns:dc="http://purl.org/dc/elements/1.1/"
   xmlns:cc="http://creativecommons.org/ns#"
   xmlns:rdf="http://www.w3.org/1999/02/22-rdf-syntax-ns#"
   xmlns:svg="http://www.w3.org/2000/svg"
   xmlns="http://www.w3.org/2000/svg"
   xmlns:sodipodi="http://sodipodi.sourceforge.net/DTD/sodipodi-0.dtd"
   xmlns:inkscape="http://www.inkscape.org/namespaces/inkscape"
   sodipodi:docname="privacy-difference-orig.svg"
   inkscape:version="0.48.5 r10040"
   version="1.1"
   id="svg11709"
   height="150"
   width="600">
  <sodipodi:namedview
     id="base"
     pagecolor="#ffffff"
     bordercolor="#666666"
     borderopacity="1.0"
     inkscape:pageopacity="0.0"
     inkscape:pageshadow="2"
     inkscape:zoom="1"
     inkscape:cx="414.70457"
     inkscape:cy="44.060587"
     inkscape:document-units="px"
     inkscape:current-layer="layer1"
     showgrid="false"
     inkscape:window-width="1278"
     inkscape:window-height="762"
     inkscape:window-x="0"
     inkscape:window-y="0"
     inkscape:window-maximized="0" />
  <defs
     id="defs11711">
    <marker
       style="overflow:visible"
       id="TriangleOutL"
       refX="0"
       refY="0"
       orient="auto"
       inkscape:stockid="TriangleOutL">
      <path
         inkscape:connector-curvature="0"
         transform="scale(0.8,0.8)"
         style="fill-rule:evenodd;stroke:#000000;stroke-width:1pt"
         d="m 5.77,0 -8.65,5 0,-10 8.65,5 z"
         id="path4332" />
    </marker>
    <marker
       style="overflow:visible"
       id="Arrow2Lend"
       refX="0"
       refY="0"
       orient="auto"
       inkscape:stockid="Arrow2Lend">
      <path
         inkscape:connector-curvature="0"
         transform="matrix(-1.1,0,0,-1.1,-1.1,0)"
         d="M 8.7185878,4.0337352 -2.2072895,0.01601326 8.7185884,-4.0017078 c -1.7454984,2.3720609 -1.7354408,5.6174519 -6e-7,8.035443 z"
         style="fill-rule:evenodd;stroke-width:0.625;stroke-linejoin:round"
         id="path4211" />
    </marker>
    <inkscape:path-effect
       is_visible="true"
       id="path-effect3416"
       effect="spiro" />
    <marker
       style="overflow:visible"
       id="Arrow2Lend-0"
       refX="0"
       refY="0"
       orient="auto"
       inkscape:stockid="Arrow2Lend">
      <path
         transform="matrix(-1.1,0,0,-1.1,-1.1,0)"
         d="M 8.7185878,4.0337352 -2.2072895,0.01601326 8.7185884,-4.0017078 c -1.7454984,2.3720609 -1.7354408,5.6174519 -6e-7,8.035443 z"
         style="fill-rule:evenodd;stroke-width:0.625;stroke-linejoin:round"
         id="path4211-3"
         inkscape:connector-curvature="0" />
    </marker>
    <inkscape:path-effect
       is_visible="true"
       id="path-effect3416-8"
       effect="spiro" />
    <marker
       style="overflow:visible"
       id="Arrow2LendH"
       refX="0"
       refY="0"
       orient="auto"
       inkscape:stockid="Arrow2LendH">
      <path
         inkscape:connector-curvature="0"
         transform="matrix(-1.1,0,0,-1.1,-1.1,0)"
         d="M 8.7185878,4.0337352 -2.2072895,0.01601326 8.7185884,-4.0017078 c -1.7454984,2.3720609 -1.7354408,5.6174519 -6e-7,8.035443 z"
         style="stroke-linejoin:round;stroke:#8d0000;stroke-width:0.625;fill:#8d0000;fill-rule:evenodd"
         id="path3991" />
    </marker>
    <marker
       style="overflow:visible"
       id="Arrow2Lendk"
       refX="0"
       refY="0"
       orient="auto"
       inkscape:stockid="Arrow2Lendk">
      <path
         inkscape:connector-curvature="0"
         transform="matrix(-1.1,0,0,-1.1,-1.1,0)"
         d="M 8.7185878,4.0337352 -2.2072895,0.01601326 8.7185884,-4.0017078 c -1.7454984,2.3720609 -1.7354408,5.6174519 -6e-7,8.035443 z"
         style="stroke-linejoin:round;stroke:#860000;stroke-width:0.625;fill:#860000;fill-rule:evenodd"
         id="path4070" />
    </marker>
    <marker
       style="overflow:visible"
       id="Arrow2Lendkc"
       refX="0"
       refY="0"
       orient="auto"
       inkscape:stockid="Arrow2Lendkc">
      <path
         inkscape:connector-curvature="0"
         transform="matrix(-1.1,0,0,-1.1,-1.1,0)"
         d="M 8.7185878,4.0337352 -2.2072895,0.01601326 8.7185884,-4.0017078 c -1.7454984,2.3720609 -1.7354408,5.6174519 -6e-7,8.035443 z"
         style="stroke-linejoin:round;fill-rule:evenodd;stroke:#008000;stroke-width:0.625;fill:#008000"
         id="path4147" />
    </marker>
  </defs>
  <metadata
     id="metadata11714">
    <rdf:RDF>
      <cc:Work
         rdf:about="">
        <dc:format>image/svg+xml</dc:format>
        <dc:type
           rdf:resource="http://purl.org/dc/dcmitype/StillImage" />
        <dc:title></dc:title>
      </cc:Work>
    </rdf:RDF>
  </metadata>
  <g
     transform="translate(0,-902.36218)"
     id="layer1"
     inkscape:groupmode="layer"
     inkscape:label="Layer 1">
    <g
       id="flowRoot12287"
       style="font-size:16px;font-style:normal;font-weight:normal;line-height:125%;letter-spacing:0px;word-spacing:0px;fill:#000000;fill-opacity:1;stroke:none;font-family:Sans" />
    <g
       id="g4210">
      <g
         style="font-size:16px;font-style:normal;font-weight:normal;line-height:125%;letter-spacing:0px;word-spacing:0px;fill:#800000;fill-opacity:1;stroke:none;font-family:Sans"
         id="text3390">
        <path
           d="m 177.32812,920.79755 -2.14062,5.80468 4.28906,0 -2.14844,-5.80468 m -0.89062,-1.55469 1.78906,0 4.44531,11.66406 -1.64062,0 -1.0625,-2.99219 -5.25781,0 -1.0625,2.99219 -1.66407,0 4.45313,-11.66406"
           style=""
           id="path4232" />
        <path
           d="m 184.30469,918.75067 1.4375,0 0,12.15625 -1.4375,0 0,-12.15625"
           style=""
           id="path4234" />
        <path
           d="m 188.74219,922.15692 1.4375,0 0,8.75 -1.4375,0 0,-8.75 m 0,-3.40625 1.4375,0 0,1.82031 -1.4375,0 0,-1.82031"
           style=""
           id="path4236" />
        <path
           d="m 199.47656,922.49286 0,1.34375 c -0.40625,-0.22395 -0.81511,-0.39062 -1.22656,-0.5 -0.40626,-0.11458 -0.81771,-0.17187 -1.23438,-0.17188 -0.93229,1e-5 -1.65625,0.29689 -2.17187,0.89063 -0.51563,0.58855 -0.77344,1.41667 -0.77344,2.48437 0,1.06772 0.25781,1.89844 0.77344,2.49219 0.51562,0.58854 1.23958,0.88281 2.17187,0.88281 0.41667,0 0.82812,-0.0547 1.23438,-0.16406 0.41145,-0.11458 0.82031,-0.28385 1.22656,-0.50781 l 0,1.32812 c -0.40105,0.1875 -0.81771,0.32813 -1.25,0.42188 -0.42709,0.0937 -0.88282,0.14062 -1.36719,0.14062 -1.31771,0 -2.36458,-0.41406 -3.14062,-1.24218 -0.77604,-0.82813 -1.16406,-1.94531 -1.16406,-3.35157 0,-1.42707 0.39062,-2.54947 1.17187,-3.36718 0.78646,-0.8177 1.86198,-1.22656 3.22656,-1.22657 0.44271,1e-5 0.875,0.0469 1.29688,0.14063 0.42187,0.0886 0.83072,0.22397 1.22656,0.40625"
           style=""
           id="path4238" />
        <path
           d="m 209.44531,926.17255 0,0.70312 -6.60937,0 c 0.0625,0.98959 0.35937,1.7448 0.89062,2.26563 0.53646,0.51562 1.28125,0.77343 2.23438,0.77343 0.55207,0 1.08593,-0.0677 1.60156,-0.20312 0.52083,-0.13542 1.03645,-0.33854 1.54687,-0.60938 l 0,1.35938 c -0.51563,0.21875 -1.04427,0.38542 -1.58593,0.5 -0.54168,0.11458 -1.09115,0.17187 -1.64844,0.17187 -1.39584,0 -2.50261,-0.40625 -3.32031,-1.21875 -0.8125,-0.81249 -1.21875,-1.91145 -1.21875,-3.29687 0,-1.43229 0.38541,-2.5677 1.15625,-3.40625 0.77604,-0.84374 1.82031,-1.26562 3.13281,-1.26563 1.17708,1e-5 2.10676,0.38022 2.78906,1.14063 0.68749,0.75521 1.03124,1.78386 1.03125,3.08594 m -1.4375,-0.42188 c -0.0104,-0.78645 -0.23178,-1.41405 -0.66406,-1.88281 -0.42709,-0.46874 -0.9948,-0.70312 -1.70313,-0.70313 -0.80208,1e-5 -1.44531,0.22657 -1.92968,0.67969 -0.47917,0.45313 -0.75521,1.09115 -0.82813,1.91406 l 5.125,-0.008"
           style=""
           id="path4240" />
        <path
           d="m 220.82812,920.79755 -2.14062,5.80468 4.28906,0 -2.14844,-5.80468 m -0.89062,-1.55469 1.78906,0 4.44531,11.66406 -1.64062,0 -1.0625,-2.99219 -5.25781,0 -1.0625,2.99219 -1.66407,0 4.45313,-11.66406"
           style=""
           id="path4242" />
        <path
           d="m 227.72656,928.92255 1.64844,0 0,1.98437 -1.64844,0 0,-1.98437"
           style=""
           id="path4244" />
        <path
           d="m 241.67187,920.79755 -2.14062,5.80468 4.28906,0 -2.14844,-5.80468 m -0.89062,-1.55469 1.78906,0 4.44531,11.66406 -1.64062,0 -1.0625,-2.99219 -5.25781,0 -1.0625,2.99219 -1.66407,0 4.45313,-11.66406"
           style=""
           id="path4246" />
        <path
           d="m 248.64844,918.75067 1.4375,0 0,12.15625 -1.4375,0 0,-12.15625"
           style=""
           id="path4248" />
        <path
           d="m 253.08594,918.75067 1.4375,0 0,12.15625 -1.4375,0 0,-12.15625"
           style=""
           id="path4250" />
        <path
           d="m 265.00781,926.17255 0,0.70312 -6.60937,0 c 0.0625,0.98959 0.35937,1.7448 0.89062,2.26563 0.53646,0.51562 1.28125,0.77343 2.23438,0.77343 0.55207,0 1.08593,-0.0677 1.60156,-0.20312 0.52083,-0.13542 1.03645,-0.33854 1.54687,-0.60938 l 0,1.35938 c -0.51563,0.21875 -1.04427,0.38542 -1.58593,0.5 -0.54168,0.11458 -1.09115,0.17187 -1.64844,0.17187 -1.39584,0 -2.50261,-0.40625 -3.32031,-1.21875 -0.8125,-0.81249 -1.21875,-1.91145 -1.21875,-3.29687 0,-1.43229 0.38541,-2.5677 1.15625,-3.40625 0.77604,-0.84374 1.82031,-1.26562 3.13281,-1.26563 1.17708,1e-5 2.10676,0.38022 2.78906,1.14063 0.68749,0.75521 1.03124,1.78386 1.03125,3.08594 m -1.4375,-0.42188 c -0.0104,-0.78645 -0.23178,-1.41405 -0.66406,-1.88281 -0.42709,-0.46874 -0.9948,-0.70312 -1.70313,-0.70313 -0.80208,1e-5 -1.44531,0.22657 -1.92968,0.67969 -0.47917,0.45313 -0.75521,1.09115 -0.82813,1.91406 l 5.125,-0.008"
           style=""
           id="path4252" />
        <path
           d="m 274.60937,925.62567 0,5.28125 -1.4375,0 0,-5.23437 c 0,-0.82812 -0.16146,-1.44791 -0.48437,-1.85938 -0.32292,-0.41145 -0.8073,-0.61718 -1.45313,-0.61719 -0.77604,1e-5 -1.38802,0.24741 -1.83593,0.74219 -0.44792,0.4948 -0.67188,1.16928 -0.67188,2.02344 l 0,4.94531 -1.44531,0 0,-8.75 1.44531,0 0,1.35938 c 0.34375,-0.52604 0.74739,-0.91927 1.21094,-1.17969 0.46875,-0.26041 1.00781,-0.39062 1.61719,-0.39063 1.0052,1e-5 1.76562,0.31251 2.28125,0.9375 0.51561,0.6198 0.77343,1.53386 0.77343,2.74219"
           style=""
           id="path4254" />
      </g>
      <g
         style="font-size:16px;font-style:normal;font-weight:normal;line-height:125%;letter-spacing:0px;word-spacing:0px;fill:#800000;fill-opacity:1;stroke:none;font-family:Sans"
         id="text3394">
        <path
           d="m 473.17578,923.78583 0,4.27344 2.53125,0 c 0.84895,0 1.47656,-0.17448 1.88281,-0.52344 0.41145,-0.35417 0.61718,-0.89323 0.61719,-1.61719 -10e-6,-0.72916 -0.20574,-1.26562 -0.61719,-1.60937 -0.40625,-0.34896 -1.03386,-0.52344 -1.88281,-0.52344 l -2.53125,0 m 0,-4.79688 0,3.51563 2.33594,0 c 0.77083,0 1.34374,-0.14322 1.71875,-0.42969 0.3802,-0.29166 0.5703,-0.73437 0.57031,-1.32812 -10e-6,-0.58854 -0.19011,-1.02864 -0.57031,-1.32032 -0.37501,-0.29165 -0.94792,-0.43749 -1.71875,-0.4375 l -2.33594,0 m -1.57812,-1.29687 4.03125,0 c 1.20311,10e-6 2.1302,0.25001 2.78125,0.75 0.65103,0.50001 0.97655,1.21094 0.97656,2.13281 -1e-5,0.71355 -0.16668,1.28126 -0.5,1.70313 -0.33334,0.42188 -0.82293,0.6849 -1.46875,0.78906 0.77603,0.16667 1.37759,0.51563 1.80469,1.04687 0.43228,0.52605 0.64842,1.1849 0.64843,1.97657 -10e-6,1.04166 -0.35417,1.84635 -1.0625,2.41406 -0.70834,0.56771 -1.71615,0.85156 -3.02343,0.85156 l -4.1875,0 0,-11.66406"
           style=""
           id="path4257" />
        <path
           d="m 485.89453,921.61395 c -0.77084,10e-6 -1.38021,0.30209 -1.82812,0.90625 -0.44792,0.59897 -0.67188,1.42188 -0.67188,2.46875 0,1.04688 0.22135,1.8724 0.66406,2.47657 0.44792,0.59895 1.0599,0.89843 1.83594,0.89843 0.76562,0 1.37239,-0.30208 1.82031,-0.90625 0.44791,-0.60416 0.67187,-1.42708 0.67188,-2.46875 -1e-5,-1.03645 -0.22397,-1.85676 -0.67188,-2.46093 -0.44792,-0.60937 -1.05469,-0.91406 -1.82031,-0.91407 m 0,-1.21875 c 1.25,10e-6 2.23176,0.40626 2.94531,1.21875 0.71354,0.81251 1.07031,1.93751 1.07032,3.375 -1e-5,1.4323 -0.35678,2.5573 -1.07032,3.375 -0.71355,0.8125 -1.69531,1.21875 -2.94531,1.21875 -1.25521,0 -2.23958,-0.40625 -2.95312,-1.21875 -0.70834,-0.8177 -1.0625,-1.9427 -1.0625,-3.375 0,-1.43749 0.35416,-2.56249 1.0625,-3.375 0.71354,-0.81249 1.69791,-1.21874 2.95312,-1.21875"
           style=""
           id="path4259" />
        <path
           d="m 498.56641,924.98895 c -1e-5,-1.05728 -0.21876,-1.88541 -0.65625,-2.48437 -0.4323,-0.60416 -1.02866,-0.90624 -1.78907,-0.90625 -0.76042,10e-6 -1.35938,0.30209 -1.79687,0.90625 -0.4323,0.59896 -0.64844,1.42709 -0.64844,2.48437 0,1.0573 0.21614,1.88803 0.64844,2.49219 0.43749,0.59896 1.03645,0.89844 1.79687,0.89844 0.76041,0 1.35677,-0.29948 1.78907,-0.89844 0.43749,-0.60416 0.65624,-1.43489 0.65625,-2.49219 m -4.89063,-3.05468 c 0.30208,-0.52083 0.68229,-0.90625 1.14063,-1.15625 0.46353,-0.2552 1.01562,-0.38281 1.65625,-0.38282 1.06249,10e-6 1.92447,0.42189 2.58593,1.26563 0.66666,0.84375 0.99999,1.95313 1,3.32812 -10e-6,1.37501 -0.33334,2.48438 -1,3.32813 -0.66146,0.84375 -1.52344,1.26562 -2.58593,1.26562 -0.64063,0 -1.19272,-0.125 -1.65625,-0.375 -0.45834,-0.25521 -0.83855,-0.64323 -1.14063,-1.16406 l 0,1.3125 -1.44531,0 0,-12.15625 1.44531,0 0,4.73438"
           style=""
           id="path4261" />
        <path
           d="m 509.17578,923.78583 0,4.27344 2.53125,0 c 0.84895,0 1.47656,-0.17448 1.88281,-0.52344 0.41145,-0.35417 0.61718,-0.89323 0.61719,-1.61719 -10e-6,-0.72916 -0.20574,-1.26562 -0.61719,-1.60937 -0.40625,-0.34896 -1.03386,-0.52344 -1.88281,-0.52344 l -2.53125,0 m 0,-4.79688 0,3.51563 2.33594,0 c 0.77083,0 1.34374,-0.14322 1.71875,-0.42969 0.3802,-0.29166 0.5703,-0.73437 0.57031,-1.32812 -10e-6,-0.58854 -0.19011,-1.02864 -0.57031,-1.32032 -0.37501,-0.29165 -0.94792,-0.43749 -1.71875,-0.4375 l -2.33594,0 m -1.57812,-1.29687 4.03125,0 c 1.20311,10e-6 2.1302,0.25001 2.78125,0.75 0.65103,0.50001 0.97655,1.21094 0.97656,2.13281 -10e-6,0.71355 -0.16668,1.28126 -0.5,1.70313 -0.33334,0.42188 -0.82293,0.6849 -1.46875,0.78906 0.77603,0.16667 1.37759,0.51563 1.80469,1.04687 0.43228,0.52605 0.64842,1.1849 0.64843,1.97657 -10e-6,1.04166 -0.35417,1.84635 -1.0625,2.41406 -0.70834,0.56771 -1.71615,0.85156 -3.02343,0.85156 l -4.1875,0 0,-11.66406"
           style=""
           id="path4263" />
        <path
           d="m 518.70703,927.37177 1.64844,0 0,1.98437 -1.64844,0 0,-1.98437"
           style=""
           id="path4265" />
        <path
           d="m 530.33203,923.78583 0,4.27344 2.53125,0 c 0.84895,0 1.47656,-0.17448 1.88281,-0.52344 0.41145,-0.35417 0.61718,-0.89323 0.61719,-1.61719 -10e-6,-0.72916 -0.20574,-1.26562 -0.61719,-1.60937 -0.40625,-0.34896 -1.03386,-0.52344 -1.88281,-0.52344 l -2.53125,0 m 0,-4.79688 0,3.51563 2.33594,0 c 0.77083,0 1.34374,-0.14322 1.71875,-0.42969 0.3802,-0.29166 0.5703,-0.73437 0.57031,-1.32812 -10e-6,-0.58854 -0.19011,-1.02864 -0.57031,-1.32032 -0.37501,-0.29165 -0.94792,-0.43749 -1.71875,-0.4375 l -2.33594,0 m -1.57812,-1.29687 4.03125,0 c 1.20311,10e-6 2.1302,0.25001 2.78125,0.75 0.65103,0.50001 0.97655,1.21094 0.97656,2.13281 -10e-6,0.71355 -0.16668,1.28126 -0.5,1.70313 -0.33334,0.42188 -0.82293,0.6849 -1.46875,0.78906 0.77603,0.16667 1.37759,0.51563 1.80469,1.04687 0.43228,0.52605 0.64842,1.1849 0.64843,1.97657 -10e-6,1.04166 -0.35417,1.84635 -1.0625,2.41406 -0.70834,0.56771 -1.71615,0.85156 -3.02343,0.85156 l -4.1875,0 0,-11.66406"
           style=""
           id="path4267" />
        <path
           d="m 539.66016,920.60614 1.4375,0 0,8.75 -1.4375,0 0,-8.75 m 0,-3.40625 1.4375,0 0,1.82031 -1.4375,0 0,-1.82031"
           style=""
           id="path4269" />
        <path
           d="m 544.09766,917.19989 1.4375,0 0,12.15625 -1.4375,0 0,-12.15625"
           style=""
           id="path4271" />
        <path
           d="m 548.53516,917.19989 1.4375,0 0,12.15625 -1.4375,0 0,-12.15625"
           style=""
           id="path4273" />
        <path
           d="m 552.97266,920.60614 1.4375,0 0,8.75 -1.4375,0 0,-8.75 m 0,-3.40625 1.4375,0 0,1.82031 -1.4375,0 0,-1.82031"
           style=""
           id="path4275" />
        <path
           d="m 564.68359,924.07489 0,5.28125 -1.4375,0 0,-5.23437 c 0,-0.82812 -0.16146,-1.44791 -0.48437,-1.85938 -0.32292,-0.41145 -0.8073,-0.61718 -1.45313,-0.61719 -0.77604,10e-6 -1.38802,0.24741 -1.83593,0.74219 -0.44792,0.4948 -0.67188,1.16928 -0.67188,2.02344 l 0,4.94531 -1.44531,0 0,-8.75 1.44531,0 0,1.35938 c 0.34375,-0.52604 0.74739,-0.91927 1.21094,-1.17969 0.46874,-0.26041 1.00781,-0.39062 1.61719,-0.39063 1.0052,10e-6 1.76561,0.31251 2.28125,0.9375 0.51561,0.6198 0.77342,1.53386 0.77343,2.74219"
           style=""
           id="path4277" />
        <path
           d="m 573.32422,924.87958 c -10e-6,-1.04166 -0.21615,-1.84895 -0.64844,-2.42188 -0.42709,-0.57291 -1.02865,-0.85936 -1.80469,-0.85937 -0.77083,10e-6 -1.3724,0.28646 -1.80468,0.85937 -0.42709,0.57293 -0.64063,1.38022 -0.64063,2.42188 0,1.03646 0.21354,1.84115 0.64063,2.41406 0.43228,0.57292 1.03385,0.85938 1.80468,0.85938 0.77604,0 1.3776,-0.28646 1.80469,-0.85938 0.43229,-0.57291 0.64843,-1.3776 0.64844,-2.41406 m 1.4375,3.39062 c -10e-6,1.48959 -0.33074,2.59636 -0.99219,3.32032 -0.66146,0.72916 -1.67448,1.09374 -3.03906,1.09375 -0.50521,-10e-6 -0.98178,-0.0391 -1.42969,-0.11719 -0.44792,-0.0729 -0.88281,-0.18751 -1.30469,-0.34375 l 0,-1.39844 c 0.42188,0.22917 0.83854,0.39844 1.25,0.50781 0.41146,0.10938 0.83073,0.16406 1.25782,0.16407 0.9427,-10e-6 1.64843,-0.2474 2.11718,-0.74219 0.46875,-0.48959 0.70312,-1.23177 0.70313,-2.22656 l 0,-0.71094 c -0.29688,0.51562 -0.67709,0.90104 -1.14063,1.15625 -0.46354,0.25521 -1.01823,0.38281 -1.66406,0.38281 -1.07292,0 -1.9375,-0.40885 -2.59375,-1.22656 -0.65625,-0.81771 -0.98437,-1.90104 -0.98437,-3.25 0,-1.35416 0.32812,-2.4401 0.98437,-3.25781 0.65625,-0.8177 1.52083,-1.22656 2.59375,-1.22657 0.64583,10e-6 1.20052,0.12762 1.66406,0.38282 0.46354,0.25521 0.84375,0.64063 1.14063,1.15625 l 0,-1.32813 1.4375,0 0,7.66406"
           style=""
           id="path4279" />
        <path
           d="m 583.30078,920.86395 0,1.35938 c -0.40626,-0.20833 -0.82813,-0.36458 -1.26562,-0.46875 -0.43751,-0.10416 -0.89063,-0.15624 -1.35938,-0.15625 -0.71354,10e-6 -1.25,0.10938 -1.60937,0.32812 -0.35417,0.21876 -0.53126,0.54688 -0.53125,0.98438 -10e-6,0.33334 0.1276,0.59636 0.38281,0.78906 0.2552,0.18751 0.76822,0.36719 1.53906,0.53906 l 0.49219,0.10938 c 1.02083,0.21875 1.74478,0.52865 2.17187,0.92969 0.43229,0.39583 0.64843,0.95052 0.64844,1.66406 -10e-6,0.8125 -0.32292,1.45573 -0.96875,1.92969 -0.64063,0.47395 -1.52344,0.71093 -2.64844,0.71093 -0.46875,0 -0.95833,-0.0469 -1.46875,-0.14062 -0.50521,-0.0885 -1.03906,-0.22396 -1.60156,-0.40625 l 0,-1.48438 c 0.53125,0.27605 1.05469,0.48438 1.57031,0.625 0.51563,0.13542 1.02604,0.20313 1.53125,0.20313 0.67708,0 1.19792,-0.11458 1.5625,-0.34375 0.36458,-0.23438 0.54687,-0.5625 0.54688,-0.98438 -10e-6,-0.39062 -0.13282,-0.6901 -0.39844,-0.89843 -0.26042,-0.20833 -0.83594,-0.40886 -1.72656,-0.60157 l -0.5,-0.11718 c -0.89063,-0.1875 -1.53386,-0.47396 -1.92969,-0.85938 -0.39583,-0.39062 -0.59375,-0.92447 -0.59375,-1.60156 0,-0.82291 0.29167,-1.45833 0.875,-1.90625 0.58333,-0.44791 1.41146,-0.67187 2.48438,-0.67188 0.53124,10e-6 1.03124,0.0391 1.5,0.11719 0.46874,0.0781 0.90103,0.19532 1.29687,0.35156"
           style=""
           id="path4281" />
      </g>
      <g
         style="font-size:20px;font-style:normal;font-weight:bold;line-height:125%;letter-spacing:0px;word-spacing:0px;fill:#800000;fill-opacity:1;stroke:none;font-family:Sans;-inkscape-font-specification:Sans Bold"
         id="text3398">
        <path
           d="m 15.341797,915.87958 4.199219,0 5.302734,10 0,-10 3.564453,0 0,14.58008 -4.199219,0 -5.302734,-10 0,10 -3.564453,0 0,-14.58008"
           style=""
           id="path4284" />
        <path
           d="m 37.109375,921.75848 c -0.774746,1e-5 -1.367193,0.27996 -1.777344,0.83985 -0.40365,0.55339 -0.605473,1.35417 -0.605469,2.40234 -4e-6,1.04818 0.201819,1.85222 0.605469,2.41211 0.410151,0.55339 1.002598,0.83008 1.777344,0.83008 0.761711,0 1.344393,-0.27669 1.748047,-0.83008 0.403637,-0.55989 0.605459,-1.36393 0.605469,-2.41211 -10e-6,-1.04817 -0.201832,-1.84895 -0.605469,-2.40234 -0.403654,-0.55989 -0.986336,-0.83984 -1.748047,-0.83985 m 0,-2.5 c 1.881502,2e-5 3.349599,0.50783 4.404297,1.52344 1.061185,1.01564 1.591784,2.42188 1.591797,4.21875 -1.3e-5,1.79688 -0.530612,3.20313 -1.591797,4.21875 -1.054698,1.01563 -2.522795,1.52344 -4.404297,1.52344 -1.888026,0 -3.365889,-0.50781 -4.433594,-1.52344 -1.061199,-1.01562 -1.591797,-2.42187 -1.591797,-4.21875 0,-1.79687 0.530598,-3.20311 1.591797,-4.21875 1.067705,-1.01561 2.545568,-1.52342 4.433594,-1.52344"
           style=""
           id="path4286" />
        <path
           d="m 49.472656,916.41669 0,3.10547 3.603516,0 0,2.5 -3.603516,0 0,4.63867 c -5e-6,0.50781 0.100906,0.85287 0.302735,1.03515 0.201817,0.17579 0.602207,0.26368 1.201171,0.26368 l 1.796875,0 0,2.5 -2.998046,0 c -1.380213,0 -2.36003,-0.28646 -2.939454,-0.85938 -0.572918,-0.57942 -0.859377,-1.55924 -0.859375,-2.93945 l 0,-4.63867 -1.738281,0 0,-2.5 1.738281,0 0,-3.10547 3.496094,0"
           style=""
           id="path4288" />
        <path
           d="m 65.673828,928.87762 0,5.74219 -3.496094,0 0,-15.09765 3.496094,0 0,1.60156 c 0.481765,-0.63801 1.015619,-1.10676 1.601563,-1.40625 0.58593,-0.30598 1.259757,-0.45897 2.021484,-0.45899 1.347646,2e-5 2.454416,0.53712 3.320312,1.61133 0.865873,1.06772 1.298815,2.44467 1.298829,4.13086 -1.4e-5,1.6862 -0.432956,3.06641 -1.298829,4.14063 -0.865896,1.0677 -1.972666,1.60156 -3.320312,1.60156 -0.761727,0 -1.435554,-0.14974 -2.021484,-0.44922 -0.585944,-0.30599 -1.119798,-0.77799 -1.601563,-1.41602 m 2.324219,-7.08007 c -0.748705,10e-6 -1.324876,0.2767 -1.728516,0.83007 -0.397141,0.54689 -0.595708,1.3379 -0.595703,2.37305 -5e-6,1.03516 0.198562,1.82943 0.595703,2.38281 0.40364,0.54688 0.979811,0.82032 1.728516,0.82032 0.74869,0 1.31835,-0.27344 1.708984,-0.82032 0.397126,-0.54687 0.595694,-1.34114 0.595703,-2.38281 -9e-6,-1.04166 -0.198577,-1.83593 -0.595703,-2.38281 -0.390634,-0.54687 -0.960294,-0.8203 -1.708984,-0.82031"
           style=""
           id="path4290" />
        <path
           d="m 84.638672,922.50067 c -0.305999,-0.14322 -0.611988,-0.24739 -0.917969,-0.3125 -0.299488,-0.0716 -0.602222,-0.10741 -0.908203,-0.10742 -0.898445,1e-5 -1.591803,0.28972 -2.080078,0.86914 -0.481776,0.57292 -0.722662,1.39649 -0.722656,2.4707 l 0,5.03907 -3.496094,0 0,-10.9375 3.496094,0 0,1.79687 c 0.449213,-0.71614 0.963535,-1.23697 1.542968,-1.5625 0.585931,-0.33202 1.2858,-0.49803 2.09961,-0.49805 0.117178,2e-5 0.244131,0.007 0.380859,0.0195 0.13671,0.007 0.335277,0.0261 0.595703,0.0586 l 0.0098,3.16406"
           style=""
           id="path4292" />
        <path
           d="m 86.396484,919.52216 3.496094,0 0,10.9375 -3.496094,0 0,-10.9375 m 0,-4.25782 3.496094,0 0,2.85157 -3.496094,0 0,-2.85157"
           style=""
           id="path4294" />
        <path
           d="m 91.894531,919.52216 3.496094,0 2.724609,7.55859 2.714846,-7.55859 3.50586,0 -4.30664,10.9375 -3.837894,0 -4.296875,-10.9375"
           style=""
           id="path4296" />
        <path
           d="m 111.2207,925.53778 c -0.72917,10e-6 -1.2793,0.1237 -1.65039,0.37109 -0.36459,0.2474 -0.54688,0.61199 -0.54687,1.09375 -10e-6,0.44272 0.14648,0.79102 0.43945,1.04493 0.29947,0.24739 0.71289,0.37109 1.24024,0.37109 0.65754,0 1.21093,-0.23437 1.66015,-0.70312 0.44921,-0.47526 0.67382,-1.06771 0.67383,-1.77735 l 0,-0.40039 -1.81641,0 m 5.3418,-1.31836 0,6.24024 -3.52539,0 0,-1.6211 c -0.46876,0.66407 -0.9961,1.14909 -1.58203,1.45508 -0.58595,0.29948 -1.29884,0.44922 -2.13867,0.44922 -1.13282,0 -2.05404,-0.32878 -2.76368,-0.98633 -0.70312,-0.66406 -1.05468,-1.52343 -1.05468,-2.57812 0,-1.28255 0.43945,-2.22331 1.31836,-2.82227 0.88541,-0.59895 2.27213,-0.89843 4.16015,-0.89844 l 2.06055,0 0,-0.27343 c -1e-5,-0.55338 -0.21811,-0.95703 -0.6543,-1.21094 -0.4362,-0.26041 -1.11654,-0.39062 -2.04101,-0.39063 -0.74871,10e-6 -1.44532,0.0749 -2.08985,0.22461 -0.64453,0.14975 -1.24349,0.37436 -1.79687,0.67383 l 0,-2.66602 c 0.74869,-0.18228 1.50065,-0.31899 2.25586,-0.41015 0.7552,-0.0977 1.51041,-0.14647 2.26562,-0.14649 1.97265,2e-5 3.39518,0.39064 4.26758,1.17188 0.8789,0.77475 1.31835,2.03777 1.31836,3.78906"
           style=""
           id="path4298" />
        <path
           d="m 123.61328,916.41669 0,3.10547 3.60352,0 0,2.5 -3.60352,0 0,4.63867 c 0,0.50781 0.10091,0.85287 0.30274,1.03515 0.20181,0.17579 0.6022,0.26368 1.20117,0.26368 l 1.79687,0 0,2.5 -2.99804,0 c -1.38022,0 -2.36003,-0.28646 -2.93946,-0.85938 -0.57292,-0.57942 -0.85937,-1.55924 -0.85937,-2.93945 l 0,-4.63867 -1.73828,0 0,-2.5 1.73828,0 0,-3.10547 3.49609,0"
           style=""
           id="path4300" />
        <path
           d="m 140.2832,924.96161 0,0.99609 -8.17383,0 c 0.0846,0.82032 0.38086,1.43555 0.88868,1.84571 0.5078,0.41015 1.21744,0.61523 2.1289,0.61523 0.73567,0 1.48762,-0.10742 2.25586,-0.32227 0.77473,-0.22135 1.569,-0.55338 2.38281,-0.99609 l 0,2.69531 c -0.82683,0.3125 -1.65365,0.54688 -2.48046,0.70313 -0.82684,0.16276 -1.65366,0.24414 -2.48047,0.24414 -1.97917,0 -3.51889,-0.5013 -4.61914,-1.50391 -1.09375,-1.00911 -1.64063,-2.42187 -1.64063,-4.23828 0,-1.78385 0.53711,-3.18684 1.61133,-4.20898 1.08073,-1.02213 2.5651,-1.53319 4.45312,-1.53321 1.71875,2e-5 3.09244,0.51759 4.1211,1.55274 1.03514,1.03516 1.55272,2.41863 1.55273,4.15039 m -3.59375,-1.16211 c -1e-5,-0.66406 -0.19532,-1.19791 -0.58593,-1.60156 -0.38413,-0.41015 -0.88868,-0.61523 -1.51368,-0.61524 -0.67709,10e-6 -1.22722,0.19207 -1.65039,0.57617 -0.42318,0.37762 -0.68685,0.92449 -0.79101,1.64063 l 4.54101,0"
           style=""
           id="path4302" />
        <path
           d="m 143.47656,919.52216 3.52539,0 0,3.77929 -3.52539,0 0,-3.77929 m 0,7.1582 3.52539,0 0,3.7793 -3.52539,0 0,-3.7793"
           style=""
           id="path4304" />
      </g>
      <g
         style="font-size:22px;font-style:normal;font-weight:bold;line-height:125%;letter-spacing:0px;word-spacing:0px;fill:#008000;fill-opacity:1;stroke:none;font-family:Sans;-inkscape-font-specification:Sans Bold"
         id="text3402">
        <path
           d="m 15.09668,993.3241 6.864257,0 c 2.041005,10e-6 3.605782,0.45476 4.694336,1.36425 1.095689,0.90236 1.64354,2.19142 1.643555,3.86719 -1.5e-5,1.68296 -0.547866,2.97916 -1.643555,3.88866 -1.088554,0.9024 -2.653331,1.3535 -4.694336,1.3535 l -2.728515,0 0,5.5645 -4.135742,0 0,-16.0381 m 4.135742,2.99707 0,4.47953 2.288086,0 c 0.802074,0 1.421539,-0.1934 1.858398,-0.5801 0.436838,-0.39389 0.655263,-0.9489 0.655274,-1.66506 -1.1e-5,-0.71613 -0.218436,-1.26756 -0.655274,-1.65429 -0.436859,-0.38671 -1.056324,-0.58007 -1.858398,-0.58008 l -2.288086,0"
           style=""
           id="path4307" />
        <path
           d="m 36.763672,999.79089 c -0.85222,10e-6 -1.503912,0.30791 -1.955078,0.92381 -0.444016,0.6088 -0.666021,1.4896 -0.666016,2.6426 -5e-6,1.153 0.222,2.0374 0.666016,2.6533 0.451166,0.6087 1.102858,0.9131 1.955078,0.9131 0.837882,0 1.478832,-0.3044 1.922851,-0.9131 0.444001,-0.6159 0.666006,-1.5003 0.666016,-2.6533 -1e-5,-1.153 -0.222015,-2.0338 -0.666016,-2.6426 -0.444019,-0.6159 -1.084969,-0.9238 -1.922851,-0.92381 m 0,-2.75 c 2.069652,2e-5 3.684559,0.55861 4.844726,1.67578 1.167305,1.1172 1.750963,2.66403 1.750977,4.64063 -1.4e-5,1.9766 -0.583672,3.5234 -1.750977,4.6406 -1.160167,1.1172 -2.775074,1.6758 -4.844726,1.6758 -2.076829,0 -3.702478,-0.5586 -4.876953,-1.6758 -1.167319,-1.1172 -1.750978,-2.664 -1.750977,-4.6406 -1e-6,-1.9766 0.583658,-3.52343 1.750977,-4.64063 1.174475,-1.11717 2.800124,-1.67576 4.876953,-1.67578"
           style=""
           id="path4309" />
        <path
           d="m 50.363281,993.91492 0,3.41601 3.963867,0 0,2.74997 -3.963867,0 0,5.1026 c -6e-6,0.5586 0.110997,0.9381 0.333008,1.1386 0.221999,0.1934 0.662428,0.2901 1.321289,0.2901 l 1.976563,0 0,2.75 -3.297852,0 c -1.518234,0 -2.596032,-0.3151 -3.233398,-0.9453 -0.630211,-0.6374 -0.945315,-1.7152 -0.945313,-3.2334 l 0,-5.1026 -1.912109,0 0,-2.74997 1.912109,0 0,-3.41601 3.845703,0"
           style=""
           id="path4311" />
        <path
           d="m 68.700195,1003.3143 0,1.0957 -8.991211,0 c 0.09309,0.9024 0.41894,1.5791 0.977539,2.0303 0.558588,0.4512 1.339186,0.6768 2.341797,0.6768 0.809236,0 1.636384,-0.1182 2.481446,-0.3545 0.852202,-0.2435 1.725899,-0.6087 2.621093,-1.0957 l 0,2.9648 c -0.909517,0.3438 -1.819022,0.6016 -2.728515,0.7735 -0.909515,0.179 -1.819019,0.2685 -2.728516,0.2685 -2.177089,0 -3.870772,-0.5514 -5.081055,-1.6543 -1.203126,-1.11 -1.804688,-2.664 -1.804687,-4.6621 -10e-7,-1.9622 0.590819,-3.50552 1.772461,-4.62988 1.188798,-1.12434 2.821609,-1.68651 4.898437,-1.68653 1.890616,2e-5 3.401682,0.56935 4.533203,1.70801 1.138659,1.13868 1.707994,2.6605 1.708008,4.5654 m -3.953125,-1.2783 c -10e-6,-0.7304 -0.214853,-1.3177 -0.644531,-1.7617 -0.422535,-0.45117 -0.977547,-0.67676 -1.665039,-0.67677 -0.744799,10e-6 -1.349941,0.21128 -1.81543,0.63377 -0.4655,0.4154 -0.755539,1.017 -0.870117,1.8047 l 4.995117,0"
           style=""
           id="path4313" />
        <path
           d="m 83.696289,1002.036 0,7.3262 -3.867187,0 0,-1.1924 0,-4.415 c -1.1e-5,-1.0384 -0.02508,-1.7546 -0.0752,-2.1485 -0.04298,-0.3938 -0.121754,-0.6839 -0.236328,-0.8701 -0.1504,-0.2506 -0.354501,-0.444 -0.612305,-0.5801 -0.257821,-0.1432 -0.55144,-0.21481 -0.880859,-0.21482 -0.802091,10e-6 -1.432298,0.31152 -1.890625,0.93462 -0.458339,0.6158 -0.687506,1.4716 -0.6875,2.5673 l 0,5.919 -3.845703,0 0,-12.03127 3.845703,0 0,1.76172 c 0.580072,-0.70181 1.195957,-1.21744 1.847656,-1.54687 0.651685,-0.33658 1.371411,-0.50487 2.15918,-0.50489 1.389312,2e-5 2.442045,0.42612 3.158203,1.27832 0.723294,0.85223 1.084947,2.09119 1.084961,3.71679"
           style=""
           id="path4315" />
        <path
           d="m 91.484375,993.91492 0,3.41601 3.963867,0 0,2.74997 -3.963867,0 0,5.1026 c -6e-6,0.5586 0.110996,0.9381 0.333008,1.1386 0.221998,0.1934 0.662428,0.2901 1.321289,0.2901 l 1.976562,0 0,2.75 -3.297851,0 c -1.518234,0 -2.596033,-0.3151 -3.233399,-0.9453 -0.63021,-0.6374 -0.945314,-1.7152 -0.945312,-3.2334 l 0,-5.1026 -1.91211,0 0,-2.74997 1.91211,0 0,-3.41601 3.845703,0"
           style=""
           id="path4317" />
        <path
           d="m 97.811523,997.33093 3.845707,0 0,12.03127 -3.845707,0 0,-12.03127 m 0,-4.68359 3.845707,0 0,3.13672 -3.845707,0 0,-3.13672"
           style=""
           id="path4319" />
        <path
           d="m 110.7666,1003.9481 c -0.80209,0 -1.40723,0.1361 -1.81543,0.4082 -0.40104,0.2722 -0.60157,0.6732 -0.60156,1.2031 -1e-5,0.487 0.16113,0.8702 0.4834,1.1495 0.32942,0.2721 0.78417,0.4082 1.36426,0.4082 0.7233,0 1.33202,-0.2578 1.82617,-0.7735 0.49413,-0.5228 0.7412,-1.1744 0.74121,-1.9551 l 0,-0.4404 -1.99805,0 m 5.87598,-1.4502 0,6.8643 -3.87793,0 0,-1.7832 c -0.51564,0.7304 -1.09571,1.264 -1.74024,1.6006 -0.64453,0.3294 -1.42871,0.4941 -2.35253,0.4941 -1.2461,0 -2.25945,-0.3616 -3.04004,-1.085 -0.77344,-0.7304 -1.16016,-1.6757 -1.16016,-2.8359 0,-1.4108 0.4834,-2.4456 1.4502,-3.1045 0.97395,-0.6588 2.49934,-0.9883 4.57617,-0.9883 l 2.2666,0 0,-0.3007 c -1e-5,-0.6088 -0.23992,-1.0528 -0.71973,-1.3321 -0.47982,-0.28643 -1.2282,-0.42966 -2.24512,-0.42967 -0.82357,10e-6 -1.58984,0.0824 -2.29882,0.24707 -0.70899,0.1647 -1.36784,0.4118 -1.97657,0.7412 l 0,-2.9326 c 0.82357,-0.20051 1.65072,-0.3509 2.48145,-0.45117 0.83072,-0.10741 1.66145,-0.16112 2.49219,-0.16114 2.16991,2e-5 3.73469,0.4297 4.69433,1.28907 0.96679,0.85222 1.45019,2.24154 1.4502,4.16794"
           style=""
           id="path4321" />
        <path
           d="m 120.19824,992.64734 3.84571,0 0,16.71486 -3.84571,0 0,-16.71486"
           style=""
           id="path4323" />
        <path
           d="m 127.76074,992.64734 3.84571,0 0,16.71486 -3.84571,0 0,-16.71486"
           style=""
           id="path4325" />
        <path
           d="m 133.74414,997.33093 3.8457,0 3.2334,8.16407 2.75,-8.16407 3.84571,0 -5.05958,13.16997 c -0.50847,1.3391 -1.10287,2.2737 -1.7832,2.8037 -0.67318,0.5371 -1.56478,0.8056 -2.6748,0.8056 l -2.22364,0 0,-2.5244 1.20313,0 c 0.65169,0 1.12434,-0.1038 1.41797,-0.3115 0.30077,-0.2077 0.53352,-0.5801 0.69824,-1.1172 l 0.10742,-0.333 -5.36035,-12.49317"
           style=""
           id="path4327" />
        <path
           d="m 18.770508,1035.1219 0,6.3165 -3.845703,0 0,-16.6075 3.845703,0 0,1.7618 c 0.529942,-0.7019 1.117181,-1.2175 1.761719,-1.5469 0.644523,-0.3366 1.385733,-0.5049 2.223632,-0.5049 1.482411,0 2.699858,0.5908 3.652344,1.7725 0.95246,1.1744 1.428696,2.6891 1.428711,4.5439 -1.5e-5,1.8548 -0.476251,3.373 -1.428711,4.5547 -0.952486,1.1745 -2.169933,1.7617 -3.652344,1.7617 -0.837899,0 -1.579109,-0.1647 -2.223632,-0.4941 -0.644538,-0.3366 -1.231777,-0.8558 -1.761719,-1.5577 m 2.55664,-7.788 c -0.823575,0 -1.457363,0.3043 -1.901367,0.913 -0.436855,0.6016 -0.655279,1.4717 -0.655273,2.6104 -6e-6,1.1387 0.218418,2.0124 0.655273,2.6211 0.444004,0.6016 1.077792,0.9023 1.901367,0.9023 0.823559,0 1.450186,-0.3007 1.879883,-0.9023 0.436839,-0.6016 0.655263,-1.4753 0.655274,-2.6211 -1.1e-5,-1.1458 -0.218435,-2.0195 -0.655274,-2.6211 -0.429697,-0.6015 -1.056324,-0.9023 -1.879883,-0.9023"
           style=""
           id="path4329" />
        <path
           d="m 39.631836,1028.1073 c -0.336599,-0.1575 -0.673187,-0.2721 -1.009766,-0.3438 -0.329436,-0.079 -0.662444,-0.1181 -0.999023,-0.1181 -0.988289,0 -1.750984,0.3187 -2.288086,0.956 -0.529954,0.6303 -0.794928,1.5362 -0.794922,2.7178 l 0,5.543 -3.845703,0 0,-12.0313 3.845703,0 0,1.9766 c 0.494135,-0.7878 1.059889,-1.3607 1.697266,-1.7188 0.644523,-0.3652 1.414379,-0.5478 2.30957,-0.5478 0.128896,0 0.268545,0.01 0.418945,0.022 0.150381,0.01 0.368805,0.029 0.655274,0.064 l 0.01074,3.4805"
           style=""
           id="path4331" />
        <path
           d="m 41.56543,1024.8309 3.845703,0 0,12.0313 -3.845703,0 0,-12.0313 m 0,-4.6836 3.845703,0 0,3.1368 -3.845703,0 0,-3.1368"
           style=""
           id="path4333" />
        <path
           d="m 47.613281,1024.8309 3.845703,0 2.997071,8.3145 2.986328,-8.3145 3.856445,0 -4.737305,12.0313 -4.221679,0 -4.726563,-12.0313"
           style=""
           id="path4335" />
        <path
           d="m 68.87207,1031.4481 c -0.802089,0 -1.407232,0.1361 -1.815429,0.4082 -0.401047,0.2722 -0.601568,0.6732 -0.601563,1.2031 -5e-6,0.487 0.161128,0.8702 0.483399,1.1495 0.329421,0.2721 0.784173,0.4082 1.364257,0.4082 0.7233,0 1.332024,-0.2578 1.826172,-0.7735 0.494132,-0.5228 0.741202,-1.1744 0.741211,-1.9551 l 0,-0.4404 -1.998047,0 m 5.875977,-1.4502 0,6.8643 -3.87793,0 0,-1.7832 c -0.515634,0.7304 -1.095711,1.264 -1.740234,1.6006 -0.644538,0.3294 -1.428717,0.4941 -2.352539,0.4941 -1.246098,0 -2.259443,-0.3616 -3.040039,-1.085 -0.773439,-0.7304 -1.160158,-1.6757 -1.160157,-2.8359 -1e-6,-1.4108 0.483397,-2.4456 1.450196,-3.1045 0.973955,-0.6588 2.499344,-0.9883 4.576172,-0.9883 l 2.266601,0 0,-0.3007 c -9e-6,-0.6088 -0.239918,-1.0528 -0.719726,-1.3321 -0.479826,-0.2864 -1.228198,-0.4297 -2.245118,-0.4297 -0.823573,0 -1.589848,0.082 -2.298828,0.2471 -0.708987,0.1647 -1.367841,0.4118 -1.976562,0.7412 l 0,-2.9326 c 0.823565,-0.2005 1.650712,-0.3509 2.481445,-0.4512 0.830724,-0.1074 1.661452,-0.1611 2.492188,-0.1611 2.169912,0 3.734689,0.4297 4.694336,1.2891 0.966784,0.8522 1.450182,2.2415 1.450195,4.1679"
           style=""
           id="path4337" />
        <path
           d="m 82.503906,1021.4149 0,3.416 3.963867,0 0,2.75 -3.963867,0 0,5.1026 c -6e-6,0.5586 0.110997,0.9381 0.333008,1.1386 0.221999,0.1934 0.662428,0.2901 1.321289,0.2901 l 1.976563,0 0,2.75 -3.297852,0 c -1.518234,0 -2.596032,-0.3151 -3.233398,-0.9453 -0.630211,-0.6374 -0.945315,-1.7152 -0.945313,-3.2334 l 0,-5.1026 -1.912109,0 0,-2.75 1.912109,0 0,-3.416 3.845703,0"
           style=""
           id="path4339" />
        <path
           d="m 100.84082,1030.8143 0,1.0957 -8.991211,0 c 0.09309,0.9024 0.41894,1.5791 0.977539,2.0303 0.558588,0.4512 1.339186,0.6768 2.341797,0.6768 0.809236,0 1.636384,-0.1182 2.481446,-0.3545 0.852202,-0.2435 1.725899,-0.6087 2.621089,-1.0957 l 0,2.9648 c -0.909513,0.3438 -1.819018,0.6016 -2.728511,0.7735 -0.909515,0.179 -1.819019,0.2685 -2.728516,0.2685 -2.177089,0 -3.870772,-0.5514 -5.081055,-1.6543 -1.203126,-1.11 -1.804688,-2.664 -1.804687,-4.6621 -1e-6,-1.9622 0.590819,-3.5055 1.772461,-4.6299 1.188798,-1.1243 2.821609,-1.6865 4.898437,-1.6865 1.890616,0 3.401682,0.5693 4.533203,1.708 1.138658,1.1387 1.707998,2.6605 1.708008,4.5654 m -3.953125,-1.2783 c -10e-6,-0.7304 -0.214853,-1.3177 -0.644531,-1.7617 -0.422535,-0.4512 -0.977547,-0.6768 -1.665039,-0.6768 -0.744799,0 -1.349941,0.2113 -1.81543,0.6338 -0.4655,0.4154 -0.755539,1.017 -0.870117,1.8047 l 4.995117,0"
           style=""
           id="path4341" />
        <path
           d="m 104.35352,1024.8309 3.87793,0 0,4.1573 -3.87793,0 0,-4.1573 m 0,7.8741 3.87793,0 0,4.1572 -3.87793,0 0,-4.1572"
           style=""
           id="path4343" />
      </g>
      <g
         style="font-size:16px;font-style:normal;font-weight:normal;line-height:125%;letter-spacing:0px;word-spacing:0px;fill:#008000;fill-opacity:1;stroke:none;font-family:Sans"
         id="text3406">
        <path
           d="m 154.72656,1011.3436 6.19531,0 0,1.3282 -4.75,0 0,2.8593 c 0.22917,-0.078 0.45833,-0.1354 0.6875,-0.1718 0.22917,-0.042 0.45833,-0.062 0.6875,-0.062 1.30208,0 2.33333,0.3567 3.09375,1.0703 0.76041,0.7135 1.14062,1.6797 1.14063,2.8984 -1e-5,1.2552 -0.39063,2.2318 -1.17188,2.9297 -0.78125,0.6927 -1.88281,1.0391 -3.30468,1.0391 -0.48959,0 -0.98959,-0.042 -1.5,-0.125 -0.50521,-0.083 -1.02865,-0.2084 -1.57032,-0.375 l 0,-1.586 c 0.46875,0.2552 0.95313,0.4453 1.45313,0.5703 0.5,0.125 1.02864,0.1875 1.58594,0.1875 0.90103,0 1.61457,-0.2369 2.14062,-0.7109 0.52604,-0.474 0.78906,-1.1172 0.78906,-1.9297 0,-0.8125 -0.26302,-1.4557 -0.78906,-1.9297 -0.52605,-0.4739 -1.23959,-0.7109 -2.14062,-0.7109 -0.42188,0 -0.84376,0.047 -1.26563,0.1406 -0.41667,0.094 -0.84375,0.2396 -1.28125,0.4375 l 0,-5.8594"
           style=""
           id="path4346" />
        <path
           d="m 168.67187,1018.6093 c -1.16146,0 -1.96614,0.1328 -2.41406,0.3984 -0.44792,0.2656 -0.67187,0.7187 -0.67187,1.3594 0,0.5104 0.16666,0.9166 0.5,1.2187 0.33854,0.2969 0.79687,0.4453 1.375,0.4453 0.79687,0 1.43489,-0.2812 1.91406,-0.8437 0.48437,-0.5677 0.72656,-1.3203 0.72656,-2.2578 l 0,-0.3203 -1.42969,0 m 2.86719,-0.5938 0,4.9922 -1.4375,0 0,-1.3281 c -0.32813,0.5312 -0.73698,0.9244 -1.22656,1.1797 -0.48959,0.25 -1.08855,0.375 -1.79688,0.375 -0.89583,0 -1.60937,-0.25 -2.14062,-0.75 -0.52604,-0.5053 -0.78906,-1.1797 -0.78906,-2.0235 0,-0.9844 0.32812,-1.7265 0.98437,-2.2265 0.66146,-0.5 1.64583,-0.75 2.95313,-0.75 l 2.01562,0 0,-0.1407 c 0,-0.6614 -0.21875,-1.1718 -0.65625,-1.5312 -0.43229,-0.3646 -1.04167,-0.5469 -1.82812,-0.5469 -0.50001,0 -0.98699,0.06 -1.46094,0.1797 -0.47396,0.1198 -0.92969,0.2995 -1.36719,0.5391 l 0,-1.3282 c 0.52604,-0.2031 1.03646,-0.3541 1.53125,-0.4531 0.49479,-0.1042 0.97656,-0.1562 1.44531,-0.1562 1.26562,0 2.21094,0.3281 2.83594,0.9843 0.62499,0.6563 0.93749,1.6511 0.9375,2.9844"
           style=""
           id="path4348" />
        <path
           d="m 179.52344,1016.7186 c 0.7552,0.1615 1.34374,0.4974 1.76562,1.0078 0.42708,0.5105 0.64062,1.1407 0.64063,1.8907 -1e-5,1.151 -0.39584,2.0416 -1.1875,2.6718 -0.79168,0.6302 -1.91667,0.9454 -3.375,0.9454 -0.48959,0 -0.9948,-0.049 -1.51563,-0.1485 -0.51562,-0.094 -1.04948,-0.237 -1.60156,-0.4297 l 0,-1.5234 c 0.4375,0.2552 0.91666,0.4479 1.4375,0.5781 0.52083,0.1302 1.0651,0.1953 1.63281,0.1953 0.98958,0 1.74218,-0.1953 2.25781,-0.5859 0.52083,-0.3906 0.78125,-0.9583 0.78125,-1.7031 0,-0.6875 -0.24219,-1.224 -0.72656,-1.6094 -0.47917,-0.3906 -1.14844,-0.5859 -2.00781,-0.5859 l -1.35938,0 0,-1.2969 1.42188,0 c 0.77604,0 1.36979,-0.1537 1.78125,-0.461 0.41145,-0.3125 0.61718,-0.7604 0.61719,-1.3437 -1e-5,-0.599 -0.21355,-1.0573 -0.64063,-1.375 -0.42188,-0.3229 -1.02865,-0.4844 -1.82031,-0.4844 -0.4323,0 -0.89584,0.047 -1.39063,0.1406 -0.49479,0.094 -1.03906,0.2396 -1.63281,0.4375 l 0,-1.4062 c 0.59896,-0.1667 1.15885,-0.2917 1.67969,-0.375 0.52604,-0.083 1.02083,-0.125 1.48437,-0.125 1.19792,0 2.14583,0.2734 2.84375,0.8203 0.69791,0.5417 1.04687,1.2761 1.04688,2.2031 -1e-5,0.6459 -0.1849,1.1927 -0.55469,1.6407 -0.3698,0.4427 -0.89584,0.75 -1.57812,0.9218"
           style=""
           id="path4350" />
        <path
           d="m 184.94531,1011.3436 6.19531,0 0,1.3282 -4.75,0 0,2.8593 c 0.22917,-0.078 0.45833,-0.1354 0.6875,-0.1718 0.22917,-0.042 0.45833,-0.062 0.6875,-0.062 1.30208,0 2.33333,0.3567 3.09375,1.0703 0.76041,0.7135 1.14062,1.6797 1.14063,2.8984 -1e-5,1.2552 -0.39063,2.2318 -1.17188,2.9297 -0.78125,0.6927 -1.88281,1.0391 -3.30468,1.0391 -0.48959,0 -0.98959,-0.042 -1.5,-0.125 -0.50521,-0.083 -1.02865,-0.2084 -1.57032,-0.375 l 0,-1.586 c 0.46875,0.2552 0.95313,0.4453 1.45313,0.5703 0.5,0.125 1.02864,0.1875 1.58594,0.1875 0.90103,0 1.61457,-0.2369 2.14062,-0.7109 0.52604,-0.474 0.78906,-1.1172 0.78906,-1.9297 0,-0.8125 -0.26302,-1.4557 -0.78906,-1.9297 -0.52605,-0.4739 -1.23959,-0.7109 -2.14062,-0.7109 -0.42188,0 -0.84376,0.047 -1.26563,0.1406 -0.41667,0.094 -0.84375,0.2396 -1.28125,0.4375 l 0,-5.8594"
           style=""
           id="path4352" />
        <path
           d="m 201.19531,1018.6405 c -1e-5,-1.0573 -0.21876,-1.8854 -0.65625,-2.4844 -0.4323,-0.6041 -1.02865,-0.9062 -1.78906,-0.9062 -0.76042,0 -1.35938,0.3021 -1.79688,0.9062 -0.43229,0.599 -0.64844,1.4271 -0.64843,2.4844 -1e-5,1.0573 0.21614,1.888 0.64843,2.4922 0.4375,0.599 1.03646,0.8984 1.79688,0.8984 0.76041,0 1.35676,-0.2994 1.78906,-0.8984 0.43749,-0.6042 0.65624,-1.4349 0.65625,-2.4922 m -4.89062,-3.0547 c 0.30208,-0.5208 0.68229,-0.9062 1.14062,-1.1562 0.46354,-0.2552 1.01562,-0.3828 1.65625,-0.3828 1.0625,0 1.92447,0.4218 2.58594,1.2656 0.66666,0.8437 0.99999,1.9531 1,3.3281 -1e-5,1.375 -0.33334,2.4844 -1,3.3281 -0.66147,0.8438 -1.52344,1.2657 -2.58594,1.2657 -0.64063,0 -1.19271,-0.125 -1.65625,-0.375 -0.45833,-0.2553 -0.83854,-0.6433 -1.14062,-1.1641 l 0,1.3125 -1.44532,0 0,-12.1563 1.44532,0 0,4.7344"
           style=""
           id="path4354" />
        <path
           d="m 206.63281,1021.6796 5.50781,0 0,1.3281 -7.40625,0 0,-1.3281 c 0.59896,-0.6198 1.41406,-1.4506 2.44532,-2.4922 1.03645,-1.0469 1.68749,-1.7214 1.95312,-2.0235 0.5052,-0.5677 0.85677,-1.0468 1.05469,-1.4375 0.20312,-0.3958 0.30468,-0.7838 0.30469,-1.164 -1e-5,-0.6198 -0.21876,-1.125 -0.65625,-1.5156 -0.4323,-0.3907 -0.9974,-0.586 -1.69532,-0.586 -0.49479,0 -1.01823,0.086 -1.57031,0.2578 -0.54687,0.1719 -1.13281,0.4323 -1.75781,0.7813 l 0,-1.5938 c 0.63541,-0.2552 1.22916,-0.4479 1.78125,-0.5781 0.55208,-0.1302 1.05729,-0.1953 1.51562,-0.1953 1.20833,0 2.17187,0.3021 2.89063,0.9062 0.71874,0.6042 1.07812,1.4115 1.07812,2.4219 0,0.4792 -0.0911,0.9349 -0.27343,1.3672 -0.17709,0.4271 -0.50261,0.9323 -0.97657,1.5156 -0.13021,0.1511 -0.54427,0.5886 -1.24218,1.3125 -0.69792,0.7188 -1.6823,1.7266 -2.95313,3.0235"
           style=""
           id="path4356" />
        <path
           d="m 216.82031,1021.6796 5.50781,0 0,1.3281 -7.40625,0 0,-1.3281 c 0.59896,-0.6198 1.41406,-1.4506 2.44532,-2.4922 1.03645,-1.0469 1.68749,-1.7214 1.95312,-2.0235 0.5052,-0.5677 0.85677,-1.0468 1.05469,-1.4375 0.20312,-0.3958 0.30468,-0.7838 0.30469,-1.164 -1e-5,-0.6198 -0.21876,-1.125 -0.65625,-1.5156 -0.4323,-0.3907 -0.9974,-0.586 -1.69532,-0.586 -0.49479,0 -1.01823,0.086 -1.57031,0.2578 -0.54687,0.1719 -1.13281,0.4323 -1.75781,0.7813 l 0,-1.5938 c 0.63541,-0.2552 1.22916,-0.4479 1.78125,-0.5781 0.55208,-0.1302 1.05729,-0.1953 1.51562,-0.1953 1.20833,0 2.17187,0.3021 2.89063,0.9062 0.71874,0.6042 1.07812,1.4115 1.07812,2.4219 0,0.4792 -0.0911,0.9349 -0.27343,1.3672 -0.17709,0.4271 -0.50261,0.9323 -0.97657,1.5156 -0.13021,0.1511 -0.54427,0.5886 -1.24218,1.3125 -0.69792,0.7188 -1.6823,1.7266 -2.95313,3.0235"
           style=""
           id="path4358" />
        <path
           d="m 225.92187,1021.6796 2.57813,0 0,-8.8985 -2.80469,0.5625 0,-1.4375 2.78906,-0.5625 1.57813,0 0,10.336 2.57812,0 0,1.3281 -6.71875,0 0,-1.3281"
           style=""
           id="path4360" />
        <path
           d="m 236.10937,1021.6796 2.57813,0 0,-8.8985 -2.80469,0.5625 0,-1.4375 2.78906,-0.5625 1.57813,0 0,10.336 2.57812,0 0,1.3281 -6.71875,0 0,-1.3281"
           style=""
           id="path4362" />
        <path
           d="m 247.38281,1021.6796 5.50781,0 0,1.3281 -7.40625,0 0,-1.3281 c 0.59896,-0.6198 1.41406,-1.4506 2.44532,-2.4922 1.03645,-1.0469 1.68749,-1.7214 1.95312,-2.0235 0.5052,-0.5677 0.85677,-1.0468 1.05469,-1.4375 0.20312,-0.3958 0.30468,-0.7838 0.30469,-1.164 -1e-5,-0.6198 -0.21876,-1.125 -0.65625,-1.5156 -0.4323,-0.3907 -0.9974,-0.586 -1.69532,-0.586 -0.49479,0 -1.01823,0.086 -1.57031,0.2578 -0.54687,0.1719 -1.13281,0.4323 -1.75781,0.7813 l 0,-1.5938 c 0.63541,-0.2552 1.22916,-0.4479 1.78125,-0.5781 0.55208,-0.1302 1.05729,-0.1953 1.51562,-0.1953 1.20833,0 2.17187,0.3021 2.89063,0.9062 0.71874,0.6042 1.07812,1.4115 1.07812,2.4219 0,0.4792 -0.0911,0.9349 -0.27343,1.3672 -0.17709,0.4271 -0.50261,0.9323 -0.97657,1.5156 -0.13021,0.1511 -0.54427,0.5886 -1.24218,1.3125 -0.69792,0.7188 -1.6823,1.7266 -2.95313,3.0235"
           style=""
           id="path4364" />
        <path
           d="m 256.25781,1022.7655 0,-1.4375 c 0.39583,0.1875 0.79687,0.3307 1.20313,0.4297 0.40624,0.099 0.80468,0.1484 1.19531,0.1484 1.04166,0 1.83593,-0.3489 2.38281,-1.0468 0.55208,-0.7032 0.86718,-1.7683 0.94531,-3.1954 -0.30209,0.448 -0.6849,0.7917 -1.14843,1.0313 -0.46355,0.2396 -0.97657,0.3594 -1.53907,0.3594 -1.16667,0 -2.09114,-0.3516 -2.77343,-1.0547 -0.67709,-0.7083 -1.01563,-1.6745 -1.01563,-2.8985 0,-1.1979 0.35417,-2.1588 1.0625,-2.8828 0.70833,-0.7239 1.65104,-1.0859 2.82813,-1.0859 1.34895,0 2.37759,0.5182 3.08593,1.5547 0.71354,1.0312 1.07031,2.5312 1.07032,4.5 -10e-6,1.8385 -0.43751,3.3073 -1.3125,4.4062 -0.8698,1.0938 -2.04167,1.6407 -3.51563,1.6407 -0.39583,0 -0.79688,-0.039 -1.20312,-0.1172 -0.40626,-0.078 -0.82813,-0.1953 -1.26563,-0.3516 m 3.14063,-4.9453 c 0.70833,0 1.26822,-0.2422 1.67968,-0.7266 0.41666,-0.4843 0.625,-1.1484 0.625,-1.9922 0,-0.8385 -0.20834,-1.5 -0.625,-1.9843 -0.41146,-0.4896 -0.97135,-0.7344 -1.67968,-0.7344 -0.70834,0 -1.27084,0.2448 -1.6875,0.7344 -0.41146,0.4843 -0.61719,1.1458 -0.61719,1.9843 0,0.8438 0.20573,1.5079 0.61719,1.9922 0.41666,0.4844 0.97916,0.7266 1.6875,0.7266"
           style=""
           id="path4366" />
        <path
           d="m 272.49219,1014.5936 0,1.3438 c -0.40626,-0.224 -0.81511,-0.3906 -1.22657,-0.5 -0.40625,-0.1146 -0.81771,-0.1719 -1.23437,-0.1719 -0.9323,0 -1.65625,0.2969 -2.17188,0.8906 -0.51562,0.5886 -0.77343,1.4167 -0.77343,2.4844 0,1.0677 0.25781,1.8984 0.77343,2.4922 0.51563,0.5885 1.23958,0.8828 2.17188,0.8828 0.41666,0 0.82812,-0.055 1.23437,-0.1641 0.41146,-0.1145 0.82031,-0.2838 1.22657,-0.5078 l 0,1.3282 c -0.40105,0.1875 -0.81772,0.3281 -1.25,0.4218 -0.42709,0.094 -0.88282,0.1407 -1.36719,0.1407 -1.31771,0 -2.36459,-0.4141 -3.14063,-1.2422 -0.77604,-0.8282 -1.16406,-1.9453 -1.16406,-3.3516 0,-1.4271 0.39063,-2.5495 1.17188,-3.3672 0.78645,-0.8177 1.86197,-1.2265 3.22656,-1.2265 0.4427,0 0.87499,0.047 1.29687,0.1406 0.42187,0.088 0.83073,0.2239 1.22657,0.4062"
           style=""
           id="path4368" />
        <path
           d="m 279.51562,1012.7186 -3.98437,6.2266 3.98437,0 0,-6.2266 m -0.41406,-1.375 1.98438,0 0,7.6016 1.66406,0 0,1.3125 -1.66406,0 0,2.75 -1.57032,0 0,-2.75 -5.26562,0 0,-1.5234 4.85156,-7.3907"
           style=""
           id="path4370" />
        <path
           d="m 285.64062,1021.6796 2.57813,0 0,-8.8985 -2.80469,0.5625 0,-1.4375 2.78906,-0.5625 1.57813,0 0,10.336 2.57812,0 0,1.3281 -6.71875,0 0,-1.3281"
           style=""
           id="path4372" />
      </g>
      <g
         style="font-size:16px;font-style:normal;font-weight:normal;line-height:125%;letter-spacing:0px;word-spacing:0px;fill:#008000;fill-opacity:1;stroke:none;font-family:Sans"
         id="text3410">
        <path
           d="m 467.20312,1012.3827 c -0.8125,0 -1.42448,0.401 -1.83593,1.2031 -0.40626,0.7969 -0.60938,1.9974 -0.60938,3.6016 0,1.5989 0.20312,2.7995 0.60938,3.6015 0.41145,0.7969 1.02343,1.1954 1.83593,1.1954 0.81771,0 1.42969,-0.3985 1.83594,-1.1954 0.41145,-0.802 0.61718,-2.0026 0.61719,-3.6015 -10e-6,-1.6042 -0.20574,-2.8047 -0.61719,-3.6016 -0.40625,-0.8021 -1.01823,-1.2031 -1.83594,-1.2031 m 0,-1.25 c 1.30729,0 2.30469,0.5182 2.99219,1.5547 0.6927,1.0312 1.03906,2.5312 1.03906,4.5 0,1.9635 -0.34636,3.4635 -1.03906,4.5 -0.6875,1.0312 -1.6849,1.5469 -2.99219,1.5469 -1.30729,0 -2.30729,-0.5157 -3,-1.5469 -0.6875,-1.0365 -1.03125,-2.5365 -1.03125,-4.5 0,-1.9688 0.34375,-3.4688 1.03125,-4.5 0.69271,-1.0365 1.69271,-1.5547 3,-1.5547"
           style=""
           id="path4375" />
        <path
           d="m 477.78906,1018.6093 c -1.16146,0 -1.96615,0.1328 -2.41406,0.3984 -0.44792,0.2656 -0.67188,0.7187 -0.67188,1.3594 0,0.5104 0.16667,0.9166 0.5,1.2187 0.33854,0.2969 0.79688,0.4453 1.375,0.4453 0.79687,0 1.4349,-0.2812 1.91407,-0.8437 0.48437,-0.5677 0.72655,-1.3203 0.72656,-2.2578 l 0,-0.3203 -1.42969,0 m 2.86719,-0.5938 0,4.9922 -1.4375,0 0,-1.3281 c -0.32813,0.5312 -0.73699,0.9244 -1.22656,1.1797 -0.48959,0.25 -1.08855,0.375 -1.79688,0.375 -0.89583,0 -1.60937,-0.25 -2.14062,-0.75 -0.52605,-0.5053 -0.78907,-1.1797 -0.78907,-2.0235 0,-0.9844 0.32813,-1.7265 0.98438,-2.2265 0.66146,-0.5 1.64583,-0.75 2.95312,-0.75 l 2.01563,0 0,-0.1407 c -10e-6,-0.6614 -0.21876,-1.1718 -0.65625,-1.5312 -0.4323,-0.3646 -1.04167,-0.5469 -1.82813,-0.5469 -0.5,0 -0.98698,0.06 -1.46093,0.1797 -0.47396,0.1198 -0.92969,0.2995 -1.36719,0.5391 l 0,-1.3282 c 0.52604,-0.2031 1.03646,-0.3541 1.53125,-0.4531 0.49479,-0.1042 0.97656,-0.1562 1.44531,-0.1562 1.26562,0 2.21093,0.3281 2.83594,0.9843 0.62499,0.6563 0.93749,1.6511 0.9375,2.9844"
           style=""
           id="path4377" />
        <path
           d="m 489.41406,1015.5858 0,-4.7344 1.4375,0 0,12.1563 -1.4375,0 0,-1.3125 c -0.30209,0.5208 -0.6849,0.9088 -1.14844,1.1641 -0.45833,0.25 -1.01042,0.375 -1.65625,0.375 -1.05729,0 -1.91927,-0.4219 -2.58593,-1.2657 -0.66146,-0.8437 -0.99219,-1.9531 -0.99219,-3.3281 0,-1.375 0.33073,-2.4844 0.99219,-3.3281 0.66666,-0.8438 1.52864,-1.2656 2.58593,-1.2656 0.64583,0 1.19792,0.1276 1.65625,0.3828 0.46354,0.25 0.84635,0.6354 1.14844,1.1562 m -4.89844,3.0547 c 0,1.0573 0.21615,1.888 0.64844,2.4922 0.4375,0.599 1.03646,0.8984 1.79688,0.8984 0.76041,0 1.35937,-0.2994 1.79687,-0.8984 0.4375,-0.6042 0.65625,-1.4349 0.65625,-2.4922 0,-1.0573 -0.21875,-1.8854 -0.65625,-2.4844 -0.4375,-0.6041 -1.03646,-0.9062 -1.79687,-0.9062 -0.76042,0 -1.35938,0.3021 -1.79688,0.9062 -0.43229,0.599 -0.64844,1.4271 -0.64844,2.4844"
           style=""
           id="path4379" />
        <path
           d="m 497.39062,1017.4686 c -0.75,0 -1.34114,0.2006 -1.77343,0.6016 -0.42709,0.401 -0.64063,0.9531 -0.64063,1.6562 0,0.7032 0.21354,1.2553 0.64063,1.6563 0.43229,0.401 1.02343,0.6016 1.77343,0.6016 0.75,0 1.34114,-0.2006 1.77344,-0.6016 0.43229,-0.4063 0.64843,-0.9583 0.64844,-1.6563 -10e-6,-0.7031 -0.21615,-1.2552 -0.64844,-1.6562 -0.42709,-0.401 -1.01823,-0.6016 -1.77344,-0.6016 m -1.57812,-0.6718 c -0.67709,-0.1667 -1.20573,-0.4818 -1.58594,-0.9454 -0.375,-0.4635 -0.5625,-1.0286 -0.5625,-1.6953 0,-0.9323 0.33073,-1.6692 0.99219,-2.2109 0.66666,-0.5417 1.57812,-0.8125 2.73437,-0.8125 1.16146,0 2.07291,0.2708 2.73438,0.8125 0.66145,0.5417 0.99218,1.2786 0.99219,2.2109 -10e-6,0.6667 -0.19012,1.2318 -0.57032,1.6953 -0.375,0.4636 -0.89844,0.7787 -1.57031,0.9454 0.76041,0.177 1.35156,0.5234 1.77344,1.039 0.42707,0.5156 0.64062,1.1459 0.64062,1.8906 0,1.1303 -0.34636,1.9974 -1.03906,2.6016 -0.6875,0.6042 -1.67448,0.9063 -2.96094,0.9063 -1.28646,0 -2.27604,-0.3021 -2.96875,-0.9063 -0.6875,-0.6042 -1.03125,-1.4713 -1.03125,-2.6016 0,-0.7447 0.21355,-1.375 0.64063,-1.8906 0.42708,-0.5156 1.02083,-0.862 1.78125,-1.039 m -0.57813,-2.4922 c 0,0.6041 0.1875,1.0755 0.5625,1.414 0.38021,0.3386 0.91146,0.5078 1.59375,0.5078 0.67708,0 1.20573,-0.1692 1.58594,-0.5078 0.38541,-0.3385 0.57812,-0.8099 0.57813,-1.414 -10e-6,-0.6042 -0.19272,-1.0755 -0.57813,-1.4141 -0.38021,-0.3385 -0.90886,-0.5078 -1.58594,-0.5078 -0.68229,0 -1.21354,0.1693 -1.59375,0.5078 -0.375,0.3386 -0.5625,0.8099 -0.5625,1.4141"
           style=""
           id="path4381" />
        <path
           d="m 504.47656,1021.6796 2.57813,0 0,-8.8985 -2.80469,0.5625 0,-1.4375 2.78906,-0.5625 1.57813,0 0,10.336 2.57812,0 0,1.3281 -6.71875,0 0,-1.3281"
           style=""
           id="path4383" />
        <path
           d="m 514.4375,1022.7655 0,-1.4375 c 0.39583,0.1875 0.79687,0.3307 1.20312,0.4297 0.40625,0.099 0.80469,0.1484 1.19532,0.1484 1.04166,0 1.83593,-0.3489 2.38281,-1.0468 0.55208,-0.7032 0.86718,-1.7683 0.94531,-3.1954 -0.30209,0.448 -0.6849,0.7917 -1.14844,1.0313 -0.46354,0.2396 -0.97656,0.3594 -1.53906,0.3594 -1.16667,0 -2.09115,-0.3516 -2.77344,-1.0547 -0.67708,-0.7083 -1.01562,-1.6745 -1.01562,-2.8985 0,-1.1979 0.35417,-2.1588 1.0625,-2.8828 0.70833,-0.7239 1.65104,-1.0859 2.82812,-1.0859 1.34896,0 2.3776,0.5182 3.08594,1.5547 0.71354,1.0312 1.07031,2.5312 1.07031,4.5 0,1.8385 -0.4375,3.3073 -1.3125,4.4062 -0.86979,1.0938 -2.04167,1.6407 -3.51562,1.6407 -0.39584,0 -0.79688,-0.039 -1.20313,-0.1172 -0.40625,-0.078 -0.82812,-0.1953 -1.26562,-0.3516 m 3.14062,-4.9453 c 0.70833,0 1.26823,-0.2422 1.67969,-0.7266 0.41666,-0.4843 0.625,-1.1484 0.625,-1.9922 0,-0.8385 -0.20834,-1.5 -0.625,-1.9843 -0.41146,-0.4896 -0.97136,-0.7344 -1.67969,-0.7344 -0.70833,0 -1.27083,0.2448 -1.6875,0.7344 -0.41146,0.4843 -0.61719,1.1458 -0.61718,1.9843 -1e-5,0.8438 0.20572,1.5079 0.61718,1.9922 0.41667,0.4844 0.97917,0.7266 1.6875,0.7266"
           style=""
           id="path4385" />
        <path
           d="m 529.35937,1016.7186 c 0.75521,0.1615 1.34375,0.4974 1.76563,1.0078 0.42707,0.5105 0.64062,1.1407 0.64062,1.8907 0,1.151 -0.39584,2.0416 -1.1875,2.6718 -0.79167,0.6302 -1.91667,0.9454 -3.375,0.9454 -0.48958,0 -0.99479,-0.049 -1.51562,-0.1485 -0.51563,-0.094 -1.04948,-0.237 -1.60156,-0.4297 l 0,-1.5234 c 0.4375,0.2552 0.91666,0.4479 1.4375,0.5781 0.52083,0.1302 1.0651,0.1953 1.63281,0.1953 0.98958,0 1.74218,-0.1953 2.25781,-0.5859 0.52083,-0.3906 0.78125,-0.9583 0.78125,-1.7031 0,-0.6875 -0.24219,-1.224 -0.72656,-1.6094 -0.47917,-0.3906 -1.14844,-0.5859 -2.00781,-0.5859 l -1.35938,0 0,-1.2969 1.42188,0 c 0.77603,0 1.36978,-0.1537 1.78125,-0.461 0.41145,-0.3125 0.61718,-0.7604 0.61718,-1.3437 0,-0.599 -0.21354,-1.0573 -0.64062,-1.375 -0.42188,-0.3229 -1.02865,-0.4844 -1.82031,-0.4844 -0.4323,0 -0.89584,0.047 -1.39063,0.1406 -0.49479,0.094 -1.03906,0.2396 -1.63281,0.4375 l 0,-1.4062 c 0.59896,-0.1667 1.15885,-0.2917 1.67969,-0.375 0.52604,-0.083 1.02083,-0.125 1.48437,-0.125 1.19791,0 2.14583,0.2734 2.84375,0.8203 0.69791,0.5417 1.04687,1.2761 1.04688,2.2031 -1e-5,0.6459 -0.18491,1.1927 -0.55469,1.6407 -0.3698,0.4427 -0.89584,0.75 -1.57813,0.9218"
           style=""
           id="path4387" />
        <path
           d="m 538.14062,1017.4686 c -0.75,0 -1.34114,0.2006 -1.77343,0.6016 -0.42709,0.401 -0.64063,0.9531 -0.64063,1.6562 0,0.7032 0.21354,1.2553 0.64063,1.6563 0.43229,0.401 1.02343,0.6016 1.77343,0.6016 0.75,0 1.34114,-0.2006 1.77344,-0.6016 0.43229,-0.4063 0.64843,-0.9583 0.64844,-1.6563 -10e-6,-0.7031 -0.21615,-1.2552 -0.64844,-1.6562 -0.42709,-0.401 -1.01823,-0.6016 -1.77344,-0.6016 m -1.57812,-0.6718 c -0.67709,-0.1667 -1.20573,-0.4818 -1.58594,-0.9454 -0.375,-0.4635 -0.5625,-1.0286 -0.5625,-1.6953 0,-0.9323 0.33073,-1.6692 0.99219,-2.2109 0.66666,-0.5417 1.57812,-0.8125 2.73437,-0.8125 1.16146,0 2.07291,0.2708 2.73438,0.8125 0.66145,0.5417 0.99218,1.2786 0.99219,2.2109 -1e-5,0.6667 -0.19012,1.2318 -0.57032,1.6953 -0.375,0.4636 -0.89844,0.7787 -1.57031,0.9454 0.76041,0.177 1.35156,0.5234 1.77344,1.039 0.42707,0.5156 0.64062,1.1459 0.64062,1.8906 0,1.1303 -0.34636,1.9974 -1.03906,2.6016 -0.6875,0.6042 -1.67448,0.9063 -2.96094,0.9063 -1.28646,0 -2.27604,-0.3021 -2.96875,-0.9063 -0.6875,-0.6042 -1.03125,-1.4713 -1.03125,-2.6016 0,-0.7447 0.21355,-1.375 0.64063,-1.8906 0.42708,-0.5156 1.02083,-0.862 1.78125,-1.039 m -0.57813,-2.4922 c 0,0.6041 0.1875,1.0755 0.5625,1.414 0.38021,0.3386 0.91146,0.5078 1.59375,0.5078 0.67708,0 1.20573,-0.1692 1.58594,-0.5078 0.38541,-0.3385 0.57812,-0.8099 0.57813,-1.414 -1e-5,-0.6042 -0.19272,-1.0755 -0.57813,-1.4141 -0.38021,-0.3385 -0.90886,-0.5078 -1.58594,-0.5078 -0.68229,0 -1.21354,0.1693 -1.59375,0.5078 -0.375,0.3386 -0.5625,0.8099 -0.5625,1.4141"
           style=""
           id="path4389" />
        <path
           d="m 548.32812,1012.3827 c -0.8125,0 -1.42448,0.401 -1.83593,1.2031 -0.40626,0.7969 -0.60938,1.9974 -0.60938,3.6016 0,1.5989 0.20312,2.7995 0.60938,3.6015 0.41145,0.7969 1.02343,1.1954 1.83593,1.1954 0.81771,0 1.42969,-0.3985 1.83594,-1.1954 0.41145,-0.802 0.61718,-2.0026 0.61719,-3.6015 -10e-6,-1.6042 -0.20574,-2.8047 -0.61719,-3.6016 -0.40625,-0.8021 -1.01823,-1.2031 -1.83594,-1.2031 m 0,-1.25 c 1.30729,0 2.30469,0.5182 2.99219,1.5547 0.6927,1.0312 1.03906,2.5312 1.03906,4.5 0,1.9635 -0.34636,3.4635 -1.03906,4.5 -0.6875,1.0312 -1.6849,1.5469 -2.99219,1.5469 -1.30729,0 -2.30729,-0.5157 -3,-1.5469 -0.6875,-1.0365 -1.03125,-2.5365 -1.03125,-4.5 0,-1.9688 0.34375,-3.4688 1.03125,-4.5 0.69271,-1.0365 1.69271,-1.5547 3,-1.5547"
           style=""
           id="path4391" />
        <path
           d="m 555.41406,1021.6796 2.57813,0 0,-8.8985 -2.80469,0.5625 0,-1.4375 2.78906,-0.5625 1.57813,0 0,10.336 2.57812,0 0,1.3281 -6.71875,0 0,-1.3281"
           style=""
           id="path4393" />
        <path
           d="m 564.92969,1011.3436 7.5,0 0,0.6719 -4.23438,10.9922 -1.64844,0 3.98438,-10.3359 -5.60156,0 0,-1.3282"
           style=""
           id="path4395" />
        <path
           d="m 582.79687,1018.2733 0,0.7031 -6.60937,0 c 0.0625,0.9896 0.35937,1.7448 0.89062,2.2657 0.53646,0.5156 1.28125,0.7734 2.23438,0.7734 0.55208,0 1.08593,-0.068 1.60156,-0.2031 0.52083,-0.1354 1.03645,-0.3386 1.54688,-0.6094 l 0,1.3594 c -0.51564,0.2187 -1.04428,0.3854 -1.58594,0.5 -0.54167,0.1146 -1.09115,0.1719 -1.64844,0.1719 -1.39583,0 -2.5026,-0.4063 -3.32031,-1.2188 -0.8125,-0.8125 -1.21875,-1.9115 -1.21875,-3.2969 0,-1.4323 0.38542,-2.5677 1.15625,-3.4062 0.77604,-0.8438 1.82031,-1.2656 3.13281,-1.2656 1.17708,0 2.10677,0.3802 2.78906,1.1406 0.6875,0.7552 1.03125,1.7838 1.03125,3.0859 m -1.4375,-0.4219 c -0.0104,-0.7864 -0.23177,-1.414 -0.66406,-1.8828 -0.42709,-0.4687 -0.9948,-0.7031 -1.70312,-0.7031 -0.80209,0 -1.44532,0.2266 -1.92969,0.6797 -0.47917,0.4531 -0.75521,1.0911 -0.82813,1.9141 l 5.125,-0.01"
           style=""
           id="path4397" />
        <path
           d="m 586.6875,1021.6796 5.50781,0 0,1.3281 -7.40625,0 0,-1.3281 c 0.59896,-0.6198 1.41406,-1.4506 2.44531,-2.4922 1.03646,-1.0469 1.6875,-1.7214 1.95313,-2.0235 0.5052,-0.5677 0.85676,-1.0468 1.05469,-1.4375 0.20312,-0.3958 0.30468,-0.7838 0.30468,-1.164 0,-0.6198 -0.21875,-1.125 -0.65625,-1.5156 -0.43229,-0.3907 -0.9974,-0.586 -1.69531,-0.586 -0.49479,0 -1.01823,0.086 -1.57031,0.2578 -0.54688,0.1719 -1.13281,0.4323 -1.75781,0.7813 l 0,-1.5938 c 0.63541,-0.2552 1.22916,-0.4479 1.78125,-0.5781 0.55208,-0.1302 1.05729,-0.1953 1.51562,-0.1953 1.20833,0 2.17187,0.3021 2.89063,0.9062 0.71874,0.6042 1.07811,1.4115 1.07812,2.4219 -10e-6,0.4792 -0.0911,0.9349 -0.27344,1.3672 -0.17709,0.4271 -0.50261,0.9323 -0.97656,1.5156 -0.13021,0.1511 -0.54428,0.5886 -1.24219,1.3125 -0.69792,0.7188 -1.68229,1.7266 -2.95312,3.0235"
           style=""
           id="path4399" />
      </g>
      <path
         style="font-size:16px;font-style:normal;font-weight:normal;line-height:125%;letter-spacing:0px;word-spacing:0px;fill:#800000;fill-opacity:1;stroke:#8d0000;stroke-width:2.67700005;stroke-linecap:butt;stroke-linejoin:miter;stroke-miterlimit:4;stroke-opacity:1;marker-end:url(#Arrow2LendH);font-family:Sans"
         d="m 299.22849,927.89436 143.32641,0"
         id="path3414" />
      <g
         style="font-size:16px;font-style:normal;font-weight:normal;line-height:125%;letter-spacing:0px;word-spacing:0px;fill:#800000;fill-opacity:1;stroke:none;font-family:Sans"
         id="text5000">
        <path
           d="m 323.38196,916.07312 c 0.7552,0.16146 1.34374,0.4974 1.76562,1.00781 0.42708,0.51042 0.64062,1.14063 0.64063,1.89063 -10e-6,1.15104 -0.39584,2.04167 -1.1875,2.67187 -0.79168,0.63021 -1.91667,0.94531 -3.375,0.94532 -0.48959,-10e-6 -0.9948,-0.0495 -1.51563,-0.14844 -0.51562,-0.0937 -1.04948,-0.23698 -1.60156,-0.42969 l 0,-1.52344 c 0.4375,0.25521 0.91667,0.44792 1.4375,0.57813 0.52083,0.13021 1.0651,0.19531 1.63281,0.19531 0.98958,0 1.74218,-0.19531 2.25782,-0.58594 0.52082,-0.39062 0.78124,-0.95833 0.78125,-1.70312 -10e-6,-0.6875 -0.2422,-1.22396 -0.72657,-1.60938 -0.47917,-0.39062 -1.14844,-0.58593 -2.00781,-0.58593 l -1.35937,0 0,-1.29688 1.42187,0 c 0.77604,10e-6 1.36979,-0.15364 1.78125,-0.46094 0.41145,-0.31249 0.61718,-0.76041 0.61719,-1.34375 -10e-6,-0.59895 -0.21355,-1.05728 -0.64063,-1.375 -0.42188,-0.3229 -1.02865,-0.48436 -1.82031,-0.48437 -0.4323,1e-5 -0.89584,0.0469 -1.39062,0.14062 -0.4948,0.0938 -1.03907,0.2396 -1.63282,0.4375 l 0,-1.40625 c 0.59896,-0.16665 1.15885,-0.29165 1.67969,-0.375 0.52604,-0.0833 1.02083,-0.12499 1.48438,-0.125 1.19791,1e-5 2.14582,0.27345 2.84375,0.82032 0.6979,0.54167 1.04686,1.27605 1.04687,2.20312 -10e-6,0.64584 -0.1849,1.19272 -0.55469,1.64063 -0.3698,0.44271 -0.89584,0.75 -1.57812,0.92187"
           style=""
           id="path4403" />
        <path
           d="m 332.16321,911.73718 c -0.81251,1e-5 -1.42448,0.40105 -1.83594,1.20313 -0.40625,0.79688 -0.60938,1.9974 -0.60937,3.60156 -10e-6,1.59896 0.20312,2.79948 0.60937,3.60156 0.41146,0.79688 1.02343,1.19532 1.83594,1.19532 0.8177,0 1.42968,-0.39844 1.83594,-1.19532 0.41145,-0.80208 0.61718,-2.0026 0.61718,-3.60156 0,-1.60416 -0.20573,-2.80468 -0.61718,-3.60156 -0.40626,-0.80208 -1.01824,-1.20312 -1.83594,-1.20313 m 0,-1.25 c 1.30728,1e-5 2.30468,0.51824 2.99219,1.55469 0.6927,1.03126 1.03905,2.53126 1.03906,4.5 -10e-6,1.96355 -0.34636,3.46354 -1.03906,4.5 -0.68751,1.03125 -1.68491,1.54687 -2.99219,1.54688 -1.3073,-10e-6 -2.3073,-0.51563 -3,-1.54688 -0.6875,-1.03646 -1.03125,-2.53645 -1.03125,-4.5 0,-1.96874 0.34375,-3.46874 1.03125,-4.5 0.6927,-1.03645 1.6927,-1.55468 3,-1.55469"
           style=""
           id="path4405" />
        <path
           d="m 350.14758,917.995 c 0,-1.05729 -0.21875,-1.88542 -0.65625,-2.48438 -0.4323,-0.60416 -1.02865,-0.90624 -1.78906,-0.90625 -0.76042,10e-6 -1.35938,0.30209 -1.79687,0.90625 -0.4323,0.59896 -0.64844,1.42709 -0.64844,2.48438 0,1.05729 0.21614,1.88802 0.64844,2.49218 0.43749,0.59896 1.03645,0.89844 1.79687,0.89844 0.76041,0 1.35676,-0.29948 1.78906,-0.89844 0.4375,-0.60416 0.65625,-1.43489 0.65625,-2.49218 m -4.89062,-3.05469 c 0.30208,-0.52083 0.68229,-0.90624 1.14062,-1.15625 0.46354,-0.2552 1.01562,-0.38281 1.65625,-0.38281 1.0625,0 1.92447,0.42188 2.58594,1.26562 0.66666,0.84376 0.99999,1.95313 1,3.32813 -10e-6,1.375 -0.33334,2.48437 -1,3.32812 -0.66147,0.84375 -1.52344,1.26562 -2.58594,1.26563 -0.64063,-10e-6 -1.19271,-0.125 -1.65625,-0.375 -0.45833,-0.25521 -0.83854,-0.64323 -1.14062,-1.16407 l 0,1.3125 -1.44531,0 0,-12.15625 1.44531,0 0,4.73438"
           style=""
           id="path4407" />
        <path
           d="m 354.02258,913.61218 1.4375,0 0,8.75 -1.4375,0 0,-8.75 m 0,-3.40625 1.4375,0 0,1.82032 -1.4375,0 0,-1.82032"
           style=""
           id="path4409" />
        <path
           d="m 359.88196,911.12781 0,2.48437 2.96094,0 0,1.11719 -2.96094,0 0,4.75 c 0,0.71354 0.0964,1.17188 0.28906,1.375 0.19791,0.20313 0.59635,0.30469 1.19531,0.30469 l 1.47657,0 0,1.20312 -1.47657,0 c -1.10938,0 -1.875,-0.20573 -2.29687,-0.61718 -0.42188,-0.41667 -0.63282,-1.17188 -0.63281,-2.26563 l 0,-4.75 -1.05469,0 0,-1.11719 1.05469,0 0,-2.48437 1.44531,0"
           style=""
           id="path4411" />
        <path
           d="m 371.03821,913.94812 0,1.34375 c -0.40626,-0.22395 -0.81511,-0.39062 -1.22656,-0.5 -0.40626,-0.11458 -0.81772,-0.17187 -1.23438,-0.17187 -0.9323,0 -1.65625,0.29688 -2.17187,0.89062 -0.51563,0.58855 -0.77344,1.41667 -0.77344,2.48438 0,1.06771 0.25781,1.89844 0.77344,2.49218 0.51562,0.58855 1.23957,0.88282 2.17187,0.88282 0.41666,0 0.82812,-0.0547 1.23438,-0.16407 0.41145,-0.11458 0.8203,-0.28385 1.22656,-0.50781 l 0,1.32813 c -0.40105,0.1875 -0.81772,0.32812 -1.25,0.42187 -0.42709,0.0937 -0.88282,0.14062 -1.36719,0.14063 -1.31771,-10e-6 -2.36459,-0.41407 -3.14062,-1.24219 -0.77605,-0.82813 -1.16407,-1.94531 -1.16407,-3.35156 0,-1.42708 0.39063,-2.54948 1.17188,-3.36719 0.78645,-0.8177 1.86197,-1.22656 3.22656,-1.22656 0.4427,0 0.87499,0.0469 1.29688,0.14062 0.42186,0.0885 0.83072,0.22397 1.22656,0.40625"
           style=""
           id="path4413" />
        <path
           d="m 376.91321,914.62 c -0.77084,0 -1.38021,0.30209 -1.82813,0.90625 -0.44792,0.59896 -0.67187,1.42188 -0.67187,2.46875 0,1.04687 0.22135,1.87239 0.66406,2.47656 0.44791,0.59896 1.05989,0.89844 1.83594,0.89844 0.76562,0 1.37239,-0.30209 1.82031,-0.90625 0.44791,-0.60417 0.67187,-1.42708 0.67188,-2.46875 -10e-6,-1.03646 -0.22397,-1.85677 -0.67188,-2.46094 -0.44792,-0.60937 -1.05469,-0.91406 -1.82031,-0.91406 m 0,-1.21875 c 1.24999,0 2.23176,0.40625 2.94531,1.21875 0.71353,0.8125 1.0703,1.9375 1.07031,3.375 -1e-5,1.43229 -0.35678,2.55729 -1.07031,3.375 -0.71355,0.8125 -1.69532,1.21874 -2.94531,1.21875 -1.25521,-10e-6 -2.23959,-0.40625 -2.95313,-1.21875 -0.70833,-0.81771 -1.0625,-1.94271 -1.0625,-3.375 0,-1.4375 0.35417,-2.5625 1.0625,-3.375 0.71354,-0.8125 1.69792,-1.21875 2.95313,-1.21875"
           style=""
           id="path4415" />
        <path
           d="m 383.30383,913.61218 1.4375,0 0,8.75 -1.4375,0 0,-8.75 m 0,-3.40625 1.4375,0 0,1.82032 -1.4375,0 0,-1.82032"
           style=""
           id="path4417" />
        <path
           d="m 395.01477,917.08093 0,5.28125 -1.4375,0 0,-5.23437 c -10e-6,-0.82812 -0.16147,-1.44791 -0.48437,-1.85938 -0.32293,-0.41145 -0.8073,-0.61718 -1.45313,-0.61718 -0.77605,0 -1.38802,0.2474 -1.83594,0.74218 -0.44792,0.4948 -0.67187,1.16928 -0.67187,2.02344 l 0,4.94531 -1.44531,0 0,-8.75 1.44531,0 0,1.35938 c 0.34374,-0.52604 0.74739,-0.91926 1.21094,-1.17969 0.46874,-0.26041 1.0078,-0.39062 1.61718,-0.39062 1.0052,0 1.76562,0.3125 2.28125,0.9375 0.51562,0.61979 0.77343,1.53386 0.77344,2.74218"
           style=""
           id="path4419" />
        <path
           d="m 403.47571,913.87 0,1.35937 c -0.40626,-0.20833 -0.82813,-0.36458 -1.26563,-0.46875 -0.4375,-0.10416 -0.89063,-0.15624 -1.35937,-0.15625 -0.71355,10e-6 -1.25001,0.10938 -1.60938,0.32813 -0.35417,0.21875 -0.53125,0.54688 -0.53125,0.98437 0,0.33334 0.1276,0.59636 0.38282,0.78906 0.2552,0.18751 0.76822,0.3672 1.53906,0.53907 l 0.49219,0.10937 c 1.02082,0.21875 1.74478,0.52865 2.17187,0.92969 0.43228,0.39583 0.64843,0.95052 0.64844,1.66406 -10e-6,0.8125 -0.32293,1.45573 -0.96875,1.92969 -0.64063,0.47396 -1.52344,0.71093 -2.64844,0.71094 -0.46875,-10e-6 -0.95834,-0.0469 -1.46875,-0.14063 -0.50521,-0.0885 -1.03906,-0.22396 -1.60156,-0.40625 l 0,-1.48437 c 0.53125,0.27604 1.05468,0.48437 1.57031,0.625 0.51562,0.13541 1.02604,0.20312 1.53125,0.20312 0.67708,0 1.19791,-0.11458 1.5625,-0.34375 0.36458,-0.23437 0.54687,-0.5625 0.54688,-0.98437 -10e-6,-0.39063 -0.13282,-0.69011 -0.39844,-0.89844 -0.26042,-0.20833 -0.83594,-0.40885 -1.72656,-0.60156 l -0.5,-0.11719 c -0.89063,-0.1875 -1.53386,-0.47396 -1.92969,-0.85938 -0.39584,-0.39062 -0.59375,-0.92447 -0.59375,-1.60156 0,-0.82291 0.29166,-1.45833 0.875,-1.90625 0.58333,-0.44791 1.41145,-0.67187 2.48437,-0.67187 0.53125,0 1.03125,0.0391 1.5,0.11718 0.46875,0.0781 0.90104,0.19532 1.29688,0.35157"
           style=""
           id="path4421" />
      </g>
      <path
         style="font-size:16px;font-style:normal;font-weight:normal;line-height:125%;letter-spacing:0px;word-spacing:0px;fill:#008000;fill-opacity:1;stroke:#008000;stroke-width:2.67700005;stroke-linecap:butt;stroke-linejoin:miter;stroke-miterlimit:4;stroke-opacity:1;marker-end:url(#Arrow2Lendkc);font-family:Sans"
         d="m 299.22849,1019.9951 143.32641,0"
         id="path3414-4" />
      <g
         style="font-size:16px;font-style:normal;font-weight:normal;line-height:125%;letter-spacing:0px;word-spacing:0px;fill:#008000;fill-opacity:1;stroke:none;font-family:Sans"
         id="text5000-5">
        <path
           d="m 323.38196,1008.174 c 0.7552,0.1614 1.34374,0.4974 1.76562,1.0078 0.42708,0.5104 0.64062,1.1406 0.64063,1.8906 -10e-6,1.151 -0.39584,2.0417 -1.1875,2.6719 -0.79168,0.6302 -1.91667,0.9453 -3.375,0.9453 -0.48959,0 -0.9948,-0.05 -1.51563,-0.1485 -0.51562,-0.094 -1.04948,-0.2369 -1.60156,-0.4296 l 0,-1.5235 c 0.4375,0.2552 0.91667,0.4479 1.4375,0.5781 0.52083,0.1302 1.0651,0.1954 1.63281,0.1954 0.98958,0 1.74218,-0.1954 2.25782,-0.586 0.52082,-0.3906 0.78124,-0.9583 0.78125,-1.7031 -10e-6,-0.6875 -0.2422,-1.224 -0.72657,-1.6094 -0.47917,-0.3906 -1.14844,-0.5859 -2.00781,-0.5859 l -1.35937,0 0,-1.2969 1.42187,0 c 0.77604,0 1.36979,-0.1536 1.78125,-0.4609 0.41145,-0.3125 0.61718,-0.7604 0.61719,-1.3438 -10e-6,-0.5989 -0.21355,-1.0573 -0.64063,-1.375 -0.42188,-0.3229 -1.02865,-0.4844 -1.82031,-0.4844 -0.4323,0 -0.89584,0.047 -1.39062,0.1407 -0.4948,0.094 -1.03907,0.2396 -1.63282,0.4375 l 0,-1.4063 c 0.59896,-0.1666 1.15885,-0.2916 1.67969,-0.375 0.52604,-0.083 1.02083,-0.125 1.48438,-0.125 1.19791,0 2.14582,0.2735 2.84375,0.8203 0.6979,0.5417 1.04686,1.2761 1.04687,2.2032 -10e-6,0.6458 -0.1849,1.1927 -0.55469,1.6406 -0.3698,0.4427 -0.89584,0.75 -1.57812,0.9219"
           style=""
           id="path4425" />
        <path
           d="m 332.16321,1003.838 c -0.81251,0 -1.42448,0.4011 -1.83594,1.2031 -0.40625,0.7969 -0.60938,1.9974 -0.60937,3.6016 -10e-6,1.599 0.20312,2.7995 0.60937,3.6016 0.41146,0.7968 1.02343,1.1953 1.83594,1.1953 0.8177,0 1.42968,-0.3985 1.83594,-1.1953 0.41145,-0.8021 0.61718,-2.0026 0.61718,-3.6016 0,-1.6042 -0.20573,-2.8047 -0.61718,-3.6016 -0.40626,-0.802 -1.01824,-1.2031 -1.83594,-1.2031 m 0,-1.25 c 1.30728,0 2.30468,0.5183 2.99219,1.5547 0.6927,1.0313 1.03905,2.5313 1.03906,4.5 -10e-6,1.9635 -0.34636,3.4635 -1.03906,4.5 -0.68751,1.0313 -1.68491,1.5469 -2.99219,1.5469 -1.3073,0 -2.3073,-0.5156 -3,-1.5469 -0.6875,-1.0365 -1.03125,-2.5365 -1.03125,-4.5 0,-1.9687 0.34375,-3.4687 1.03125,-4.5 0.6927,-1.0364 1.6927,-1.5547 3,-1.5547"
           style=""
           id="path4427" />
        <path
           d="m 350.14758,1010.0958 c 0,-1.0573 -0.21875,-1.8854 -0.65625,-2.4843 -0.4323,-0.6042 -1.02865,-0.9063 -1.78906,-0.9063 -0.76042,0 -1.35938,0.3021 -1.79687,0.9063 -0.4323,0.5989 -0.64844,1.427 -0.64844,2.4843 0,1.0573 0.21614,1.888 0.64844,2.4922 0.43749,0.599 1.03645,0.8985 1.79687,0.8985 0.76041,0 1.35676,-0.2995 1.78906,-0.8985 0.4375,-0.6042 0.65625,-1.4349 0.65625,-2.4922 m -4.89062,-3.0547 c 0.30208,-0.5208 0.68229,-0.9062 1.14062,-1.1562 0.46354,-0.2552 1.01562,-0.3828 1.65625,-0.3828 1.0625,0 1.92447,0.4219 2.58594,1.2656 0.66666,0.8438 0.99999,1.9531 1,3.3281 -10e-6,1.375 -0.33334,2.4844 -1,3.3282 -0.66147,0.8437 -1.52344,1.2656 -2.58594,1.2656 -0.64063,0 -1.19271,-0.125 -1.65625,-0.375 -0.45833,-0.2552 -0.83854,-0.6433 -1.14062,-1.1641 l 0,1.3125 -1.44531,0 0,-12.1562 1.44531,0 0,4.7343"
           style=""
           id="path4429" />
        <path
           d="m 354.02258,1005.713 1.4375,0 0,8.75 -1.4375,0 0,-8.75 m 0,-3.4062 1.4375,0 0,1.8203 -1.4375,0 0,-1.8203"
           style=""
           id="path4431" />
        <path
           d="m 359.88196,1003.2286 0,2.4844 2.96094,0 0,1.1172 -2.96094,0 0,4.75 c 0,0.7135 0.0964,1.1719 0.28906,1.375 0.19791,0.2031 0.59635,0.3047 1.19531,0.3047 l 1.47657,0 0,1.2031 -1.47657,0 c -1.10938,0 -1.875,-0.2057 -2.29687,-0.6172 -0.42188,-0.4166 -0.63282,-1.1718 -0.63281,-2.2656 l 0,-4.75 -1.05469,0 0,-1.1172 1.05469,0 0,-2.4844 1.44531,0"
           style=""
           id="path4433" />
        <path
           d="m 371.03821,1006.049 0,1.3437 c -0.40626,-0.224 -0.81511,-0.3906 -1.22656,-0.5 -0.40626,-0.1146 -0.81772,-0.1719 -1.23438,-0.1719 -0.9323,0 -1.65625,0.2969 -2.17187,0.8907 -0.51563,0.5885 -0.77344,1.4166 -0.77344,2.4843 0,1.0677 0.25781,1.8985 0.77344,2.4922 0.51562,0.5886 1.23957,0.8828 2.17187,0.8828 0.41666,0 0.82812,-0.055 1.23438,-0.164 0.41145,-0.1146 0.8203,-0.2839 1.22656,-0.5078 l 0,1.3281 c -0.40105,0.1875 -0.81772,0.3281 -1.25,0.4219 -0.42709,0.094 -0.88282,0.1406 -1.36719,0.1406 -1.31771,0 -2.36459,-0.4141 -3.14062,-1.2422 -0.77605,-0.8281 -1.16407,-1.9453 -1.16407,-3.3516 0,-1.4271 0.39063,-2.5494 1.17188,-3.3672 0.78645,-0.8177 1.86197,-1.2265 3.22656,-1.2265 0.4427,0 0.87499,0.047 1.29688,0.1406 0.42186,0.089 0.83072,0.224 1.22656,0.4063"
           style=""
           id="path4435" />
        <path
           d="m 376.91321,1006.7208 c -0.77084,0 -1.38021,0.3021 -1.82813,0.9063 -0.44792,0.5989 -0.67187,1.4219 -0.67187,2.4687 0,1.0469 0.22135,1.8724 0.66406,2.4766 0.44791,0.5989 1.05989,0.8984 1.83594,0.8984 0.76562,0 1.37239,-0.3021 1.82031,-0.9062 0.44791,-0.6042 0.67187,-1.4271 0.67188,-2.4688 -10e-6,-1.0364 -0.22397,-1.8567 -0.67188,-2.4609 -0.44792,-0.6094 -1.05469,-0.9141 -1.82031,-0.9141 m 0,-1.2187 c 1.24999,0 2.23176,0.4062 2.94531,1.2187 0.71353,0.8125 1.0703,1.9375 1.07031,3.375 -1e-5,1.4323 -0.35678,2.5573 -1.07031,3.375 -0.71355,0.8125 -1.69532,1.2188 -2.94531,1.2188 -1.25521,0 -2.23959,-0.4063 -2.95313,-1.2188 -0.70833,-0.8177 -1.0625,-1.9427 -1.0625,-3.375 0,-1.4375 0.35417,-2.5625 1.0625,-3.375 0.71354,-0.8125 1.69792,-1.2187 2.95313,-1.2187"
           style=""
           id="path4437" />
        <path
           d="m 383.30383,1005.713 1.4375,0 0,8.75 -1.4375,0 0,-8.75 m 0,-3.4062 1.4375,0 0,1.8203 -1.4375,0 0,-1.8203"
           style=""
           id="path4439" />
        <path
           d="m 395.01477,1009.1818 0,5.2812 -1.4375,0 0,-5.2344 c -10e-6,-0.8281 -0.16147,-1.4479 -0.48437,-1.8593 -0.32293,-0.4115 -0.8073,-0.6172 -1.45313,-0.6172 -0.77605,0 -1.38802,0.2474 -1.83594,0.7422 -0.44792,0.4948 -0.67187,1.1692 -0.67187,2.0234 l 0,4.9453 -1.44531,0 0,-8.75 1.44531,0 0,1.3594 c 0.34374,-0.526 0.74739,-0.9193 1.21094,-1.1797 0.46874,-0.2604 1.0078,-0.3906 1.61718,-0.3906 1.0052,0 1.76562,0.3125 2.28125,0.9375 0.51562,0.6198 0.77343,1.5338 0.77344,2.7422"
           style=""
           id="path4441" />
        <path
           d="m 403.47571,1005.9708 0,1.3594 c -0.40626,-0.2083 -0.82813,-0.3646 -1.26563,-0.4687 -0.4375,-0.1042 -0.89063,-0.1563 -1.35937,-0.1563 -0.71355,0 -1.25001,0.1094 -1.60938,0.3281 -0.35417,0.2188 -0.53125,0.5469 -0.53125,0.9844 0,0.3333 0.1276,0.5964 0.38282,0.7891 0.2552,0.1875 0.76822,0.3672 1.53906,0.539 l 0.49219,0.1094 c 1.02082,0.2188 1.74478,0.5287 2.17187,0.9297 0.43228,0.3958 0.64843,0.9505 0.64844,1.6641 -10e-6,0.8125 -0.32293,1.4557 -0.96875,1.9296 -0.64063,0.474 -1.52344,0.711 -2.64844,0.711 -0.46875,0 -0.95834,-0.047 -1.46875,-0.1406 -0.50521,-0.089 -1.03906,-0.224 -1.60156,-0.4063 l 0,-1.4844 c 0.53125,0.2761 1.05468,0.4844 1.57031,0.625 0.51562,0.1354 1.02604,0.2032 1.53125,0.2032 0.67708,0 1.19791,-0.1146 1.5625,-0.3438 0.36458,-0.2344 0.54687,-0.5625 0.54688,-0.9844 -10e-6,-0.3906 -0.13282,-0.6901 -0.39844,-0.8984 -0.26042,-0.2083 -0.83594,-0.4089 -1.72656,-0.6016 l -0.5,-0.1172 c -0.89063,-0.1875 -1.53386,-0.4739 -1.92969,-0.8593 -0.39584,-0.3907 -0.59375,-0.9245 -0.59375,-1.6016 0,-0.8229 0.29166,-1.4583 0.875,-1.9062 0.58333,-0.448 1.41145,-0.6719 2.48437,-0.6719 0.53125,0 1.03125,0.039 1.5,0.1172 0.46875,0.078 0.90104,0.1953 1.29688,0.3515"
           style=""
           id="path4443" />
      </g>
    </g>
    <g
       id="text12321"
       style="font-size:16px;font-style:normal;font-weight:normal;line-height:125%;letter-spacing:0px;word-spacing:0px;fill:#000000;fill-opacity:1;stroke:none;font-family:Sans"
       transform="translate(0,852.36218)" />
  </g>
</svg>
