<?xml version="1.0" encoding="UTF-8"?>
<svg width="15px" height="15px" viewBox="0 0 15 15" version="1.1" xmlns="http://www.w3.org/2000/svg" xmlns:xlink="http://www.w3.org/1999/xlink">
    <!-- Generator: Sketch 49 (51002) - http://www.bohemiancoding.com/sketch -->
    <title>Group</title>
    <desc>Created with Sketch.</desc>
    <defs></defs>
    <g id="Page-1" stroke="none" stroke-width="1" fill="none" fill-rule="evenodd">
        <g id="Bitcoin.org---Bitcoin-core--Desktop" transform="translate(-242.000000, -1609.000000)">
            <g id="//Content" transform="translate(215.000000, 543.000000)">
                <g id="RSS" transform="translate(0.000000, 1044.000000)">
                    <g id="icon/rss" transform="translate(20.000000, 15.000000)">
                        <g id="Group" transform="translate(7.000000, 7.000000)">
                            <path d="M2.1875,10.625 C2.78646133,10.625 3.3007791,10.8398416 3.73046875,11.2695312 C4.1601584,11.6992209 4.375,12.2135387 4.375,12.8125 C4.375,13.4114613 4.1601584,13.9257791 3.73046875,14.3554688 C3.3007791,14.7851584 2.78646133,15 2.1875,15 C1.58853867,15 1.0742209,14.7851584 0.64453125,14.3554688 C0.214841602,13.9257791 0,13.4114613 0,12.8125 C0,12.2135387 0.214841602,11.6992209 0.64453125,11.2695312 C1.0742209,10.8398416 1.58853867,10.625 2.1875,10.625 Z M2.1875,14.375 C2.60416875,14.375 2.96874844,14.2187516 3.28125,13.90625 C3.59375156,13.5937484 3.75,13.2291687 3.75,12.8125 C3.75,12.3958313 3.59375156,12.0312516 3.28125,11.71875 C2.96874844,11.4062484 2.60416875,11.25 2.1875,11.25 C1.77083125,11.25 1.40625156,11.4062484 1.09375,11.71875 C0.781248438,12.0312516 0.625,12.3958313 0.625,12.8125 C0.625,13.2291687 0.781248438,13.5937484 1.09375,13.90625 C1.40625156,14.2187516 1.77083125,14.375 2.1875,14.375 Z" id="ion-social-rss-outline---Ionicons" fill="#F7931A"></path>
                            <path d="M0,5 C2.73438867,5 5.08462559,5.98306309 7.05078125,7.94921875 C9.01693691,9.91537441 10,12.2656113 10,15 L6.875,15 C6.875,12.9166563 6.25000625,11.2500062 5,10 C3.74999375,8.74999375 2.08334375,8.125 0,8.125 L0,5 Z M9.375,14.375 C9.29687461,13.3072863 9.04948125,12.3046922 8.6328125,11.3671875 C8.16406016,10.273432 7.48698359,9.28385859 6.6015625,8.3984375 C5.71614141,7.51301641 4.72656797,6.83593984 3.6328125,6.3671875 C2.66926602,5.97656055 1.66667188,5.74218789 0.625,5.6640625 L0.625,7.5 C2.55209297,7.60416719 4.15363945,8.29426445 5.4296875,9.5703125 C6.70573555,10.8463605 7.39583281,12.447907 7.5,14.375 L9.375,14.375 Z" id="Combined-Shape" fill="#95AABF"></path>
                            <path d="M0,0 C4.1406457,0 7.6757666,1.4648291 10.6054688,4.39453125 C13.5351709,7.3242334 15,10.8593543 15,15 L11.875,15 C11.875,11.66665 10.7291781,8.85417813 8.4375,6.5625 C6.14582187,4.27082187 3.33335,3.125 0,3.125 L0,0 Z M8.8671875,6.09375 C11.1328238,8.35938633 12.3437492,11.1197754 12.5,14.375 L14.375,14.375 C14.2187492,10.651023 12.8190236,7.46746113 10.1757812,4.82421875 C7.53253887,2.18097637 4.34897695,0.781250781 0.625,0.625 L0.625,2.5 C3.88022461,2.65625078 6.62759297,3.85415547 8.8671875,6.09375 Z" id="Combined-Shape" fill="#1C3C55"></path>
                        </g>
                    </g>
                </g>
            </g>
        </g>
    </g>
</svg>