<?xml version="1.0" encoding="UTF-8" standalone="no"?>
<!-- Created with Inkscape (http://www.inkscape.org/) -->

<svg
   xmlns:dc="http://purl.org/dc/elements/1.1/"
   xmlns:cc="http://creativecommons.org/ns#"
   xmlns:rdf="http://www.w3.org/1999/02/22-rdf-syntax-ns#"
   xmlns:svg="http://www.w3.org/2000/svg"
   xmlns="http://www.w3.org/2000/svg"
   xmlns:xlink="http://www.w3.org/1999/xlink"
   xmlns:sodipodi="http://sodipodi.sourceforge.net/DTD/sodipodi-0.dtd"
   xmlns:inkscape="http://www.inkscape.org/namespaces/inkscape"
   width="600"
   height="200"
   id="svg2"
   version="1.1"
   inkscape:version="0.48.5 r10040"
   inkscape:export-filename="/home/harding/dev/bitcoin.org/img/bitcoin-core/slider-ui.png"
   inkscape:export-xdpi="90"
   inkscape:export-ydpi="90"
   sodipodi:docname="slider-ui.svg">
  <defs
     id="defs4">
    <inkscape:path-effect
       effect="spiro"
       id="path-effect2987"
       is_visible="true" />
    <inkscape:path-effect
       effect="spiro"
       id="path-effect2987-2"
       is_visible="true" />
    <inkscape:path-effect
       effect="spiro"
       id="path-effect2987-2-7"
       is_visible="true" />
    <inkscape:path-effect
       effect="spiro"
       id="path-effect2987-2-2"
       is_visible="true" />
    <inkscape:path-effect
       effect="spiro"
       id="path-effect2987-2-5"
       is_visible="true" />
    <inkscape:path-effect
       effect="spiro"
       id="path-effect2987-2-9"
       is_visible="true" />
    <linearGradient
       inkscape:collect="always"
       id="linearGradient4459">
      <stop
         style="stop-color:#ffffff;stop-opacity:1;"
         offset="0"
         id="stop4461" />
      <stop
         style="stop-color:#ffffff;stop-opacity:0;"
         offset="1"
         id="stop4463" />
    </linearGradient>
    <linearGradient
       inkscape:collect="always"
       id="linearGradient4459-7">
      <stop
         style="stop-color:#ffffff;stop-opacity:1;"
         offset="0"
         id="stop4461-4" />
      <stop
         style="stop-color:#ffffff;stop-opacity:0;"
         offset="1"
         id="stop4463-7" />
    </linearGradient>
    <linearGradient
       inkscape:collect="always"
       id="linearGradient4459-7-6">
      <stop
         style="stop-color:#ffffff;stop-opacity:1;"
         offset="0"
         id="stop4461-4-0" />
      <stop
         style="stop-color:#ffffff;stop-opacity:0;"
         offset="1"
         id="stop4463-7-0" />
    </linearGradient>
    <inkscape:path-effect
       effect="spiro"
       id="path-effect3805-5"
       is_visible="true" />
    <inkscape:path-effect
       effect="spiro"
       id="path-effect3805-0"
       is_visible="true" />
    <inkscape:path-effect
       effect="spiro"
       id="path-effect3805"
       is_visible="true" />
    <inkscape:path-effect
       effect="spiro"
       id="path-effect3793"
       is_visible="true" />
    <filter
       inkscape:label="Invert"
       x="0"
       y="0"
       width="1"
       height="1"
       inkscape:menu="Color"
       inkscape:menu-tooltip="Invert colors"
       color-interpolation-filters="sRGB"
       id="filter16213">
      <feColorMatrix
         type="saturate"
         values="1"
         result="fbSourceGraphic"
         id="feColorMatrix16215" />
      <feColorMatrix
         in="fbSourceGraphic"
         values="-1 0 0 0 1 0 -1 0 0 1 0 0 -1 0 1 0 0 0 1 0 "
         id="feColorMatrix16217" />
    </filter>
    <inkscape:path-effect
       effect="spiro"
       id="path-effect3805-5-9"
       is_visible="true" />
    <inkscape:path-effect
       effect="spiro"
       id="path-effect3805-0-7"
       is_visible="true" />
    <inkscape:path-effect
       effect="spiro"
       id="path-effect3805-9"
       is_visible="true" />
    <inkscape:path-effect
       effect="spiro"
       id="path-effect3793-4"
       is_visible="true" />
    <linearGradient
       inkscape:collect="always"
       id="linearGradient4459-78">
      <stop
         style="stop-color:#ffffff;stop-opacity:1;"
         offset="0"
         id="stop4461-7" />
      <stop
         style="stop-color:#ffffff;stop-opacity:0;"
         offset="1"
         id="stop4463-0" />
    </linearGradient>
    <linearGradient
       inkscape:collect="always"
       id="linearGradient4459-7-5">
      <stop
         style="stop-color:#ffffff;stop-opacity:1;"
         offset="0"
         id="stop4461-4-1" />
      <stop
         style="stop-color:#ffffff;stop-opacity:0;"
         offset="1"
         id="stop4463-7-9" />
    </linearGradient>
    <radialGradient
       inkscape:collect="always"
       xlink:href="#linearGradient4459-7-6-6"
       id="radialGradient4546"
       gradientUnits="userSpaceOnUse"
       cx="-65.89286"
       cy="61.607143"
       fx="-65.89286"
       fy="61.607143"
       r="4.6071429" />
    <linearGradient
       inkscape:collect="always"
       id="linearGradient4459-7-6-6">
      <stop
         style="stop-color:#ffffff;stop-opacity:1;"
         offset="0"
         id="stop4461-4-0-3" />
      <stop
         style="stop-color:#ffffff;stop-opacity:0;"
         offset="1"
         id="stop4463-7-0-5" />
    </linearGradient>
    <radialGradient
       inkscape:collect="always"
       xlink:href="#linearGradient4459"
       id="radialGradient16744"
       gradientUnits="userSpaceOnUse"
       cx="-65.89286"
       cy="61.607143"
       fx="-65.89286"
       fy="61.607143"
       r="4.6071429" />
    <radialGradient
       inkscape:collect="always"
       xlink:href="#linearGradient4459-7"
       id="radialGradient16746"
       gradientUnits="userSpaceOnUse"
       cx="-65.89286"
       cy="61.607143"
       fx="-65.89286"
       fy="61.607143"
       r="4.6071429" />
    <radialGradient
       inkscape:collect="always"
       xlink:href="#linearGradient4459-7-6"
       id="radialGradient16748"
       gradientUnits="userSpaceOnUse"
       cx="-65.89286"
       cy="61.607143"
       fx="-65.89286"
       fy="61.607143"
       r="4.6071429" />
    <radialGradient
       inkscape:collect="always"
       xlink:href="#linearGradient4459-78"
       id="radialGradient16750"
       gradientUnits="userSpaceOnUse"
       cx="-65.89286"
       cy="61.607143"
       fx="-65.89286"
       fy="61.607143"
       r="4.6071429" />
    <radialGradient
       inkscape:collect="always"
       xlink:href="#linearGradient4459-7-5"
       id="radialGradient16752"
       gradientUnits="userSpaceOnUse"
       cx="-65.89286"
       cy="61.607143"
       fx="-65.89286"
       fy="61.607143"
       r="4.6071429" />
    <radialGradient
       inkscape:collect="always"
       xlink:href="#linearGradient4459-7-6-6"
       id="radialGradient16754"
       gradientUnits="userSpaceOnUse"
       cx="-65.89286"
       cy="61.607143"
       fx="-65.89286"
       fy="61.607143"
       r="4.6071429" />
    <radialGradient
       inkscape:collect="always"
       xlink:href="#linearGradient4459-8"
       id="radialGradient4542"
       gradientUnits="userSpaceOnUse"
       cx="-65.89286"
       cy="61.607143"
       fx="-65.89286"
       fy="61.607143"
       r="4.6071429" />
    <linearGradient
       inkscape:collect="always"
       id="linearGradient4459-8">
      <stop
         style="stop-color:#ffffff;stop-opacity:1;"
         offset="0"
         id="stop4461-72" />
      <stop
         style="stop-color:#ffffff;stop-opacity:0;"
         offset="1"
         id="stop4463-79" />
    </linearGradient>
    <radialGradient
       inkscape:collect="always"
       xlink:href="#linearGradient4459-7-7"
       id="radialGradient4544"
       gradientUnits="userSpaceOnUse"
       cx="-65.89286"
       cy="61.607143"
       fx="-65.89286"
       fy="61.607143"
       r="4.6071429" />
    <linearGradient
       inkscape:collect="always"
       id="linearGradient4459-7-7">
      <stop
         style="stop-color:#ffffff;stop-opacity:1;"
         offset="0"
         id="stop4461-4-18" />
      <stop
         style="stop-color:#ffffff;stop-opacity:0;"
         offset="1"
         id="stop4463-7-4" />
    </linearGradient>
    <radialGradient
       inkscape:collect="always"
       xlink:href="#linearGradient4459-7-6-2"
       id="radialGradient4546-4"
       gradientUnits="userSpaceOnUse"
       cx="-65.89286"
       cy="61.607143"
       fx="-65.89286"
       fy="61.607143"
       r="4.6071429" />
    <linearGradient
       inkscape:collect="always"
       id="linearGradient4459-7-6-2">
      <stop
         style="stop-color:#ffffff;stop-opacity:1;"
         offset="0"
         id="stop4461-4-0-8" />
      <stop
         style="stop-color:#ffffff;stop-opacity:0;"
         offset="1"
         id="stop4463-7-0-8" />
    </linearGradient>
    <linearGradient
       inkscape:collect="always"
       xlink:href="#linearGradient3755"
       id="linearGradient3806"
       gradientUnits="userSpaceOnUse"
       gradientTransform="matrix(6.1271033,0,0,319.65376,-841.59409,-160020)"
       x1="136.93401"
       y1="503.66907"
       x2="171.0209"
       y2="503.66907" />
    <linearGradient
       id="linearGradient3755">
      <stop
         style="stop-color:#000000;stop-opacity:1;"
         offset="0"
         id="stop3757" />
      <stop
         id="stop3771"
         offset="0.25"
         style="stop-color:#000000;stop-opacity:0.74901961;" />
      <stop
         id="stop3767"
         offset="0.5"
         style="stop-color:#000000;stop-opacity:0.49803922;" />
      <stop
         style="stop-color:#000000;stop-opacity:0.24705882;"
         offset="0.75"
         id="stop3769" />
      <stop
         style="stop-color:#000000;stop-opacity:0.70249355;"
         offset="1"
         id="stop3759" />
    </linearGradient>
    <linearGradient
       inkscape:collect="always"
       id="linearGradient4459-6">
      <stop
         style="stop-color:#ffffff;stop-opacity:1;"
         offset="0"
         id="stop4461-5" />
      <stop
         style="stop-color:#ffffff;stop-opacity:0;"
         offset="1"
         id="stop4463-8" />
    </linearGradient>
    <linearGradient
       inkscape:collect="always"
       id="linearGradient4459-7-8">
      <stop
         style="stop-color:#ffffff;stop-opacity:1;"
         offset="0"
         id="stop4461-4-8" />
      <stop
         style="stop-color:#ffffff;stop-opacity:0;"
         offset="1"
         id="stop4463-7-7" />
    </linearGradient>
    <linearGradient
       inkscape:collect="always"
       id="linearGradient4459-7-6-1">
      <stop
         style="stop-color:#ffffff;stop-opacity:1;"
         offset="0"
         id="stop4461-4-0-35" />
      <stop
         style="stop-color:#ffffff;stop-opacity:0;"
         offset="1"
         id="stop4463-7-0-7" />
    </linearGradient>
    <radialGradient
       inkscape:collect="always"
       xlink:href="#linearGradient4459-6"
       id="radialGradient23043"
       gradientUnits="userSpaceOnUse"
       cx="-65.89286"
       cy="61.607143"
       fx="-65.89286"
       fy="61.607143"
       r="4.6071429" />
    <radialGradient
       inkscape:collect="always"
       xlink:href="#linearGradient4459-7-8"
       id="radialGradient23045"
       gradientUnits="userSpaceOnUse"
       cx="-65.89286"
       cy="61.607143"
       fx="-65.89286"
       fy="61.607143"
       r="4.6071429" />
    <radialGradient
       inkscape:collect="always"
       xlink:href="#linearGradient4459-7-6-1"
       id="radialGradient23047"
       gradientUnits="userSpaceOnUse"
       cx="-65.89286"
       cy="61.607143"
       fx="-65.89286"
       fy="61.607143"
       r="4.6071429" />
  </defs>
  <sodipodi:namedview
     id="base"
     pagecolor="#ffffff"
     bordercolor="#666666"
     borderopacity="1.0"
     inkscape:pageopacity="0.0"
     inkscape:pageshadow="2"
     inkscape:zoom="1"
     inkscape:cx="174.74298"
     inkscape:cy="104.01711"
     inkscape:document-units="px"
     inkscape:current-layer="layer1"
     showgrid="false"
     borderlayer="false"
     inkscape:window-width="1918"
     inkscape:window-height="1042"
     inkscape:window-x="0"
     inkscape:window-y="0"
     inkscape:window-maximized="0" />
  <metadata
     id="metadata7">
    <rdf:RDF>
      <cc:Work
         rdf:about="">
        <dc:format>image/svg+xml</dc:format>
        <dc:type
           rdf:resource="http://purl.org/dc/dcmitype/StillImage" />
        <dc:title></dc:title>
      </cc:Work>
    </rdf:RDF>
  </metadata>
  <g
     inkscape:label="Layer 1"
     inkscape:groupmode="layer"
     id="layer1"
     transform="translate(0,-852.36218)">
    <g
       id="g23025"
       transform="matrix(0.79838628,0,0,0.74876771,188.77617,430.99136)">
      <rect
         y="647.56366"
         x="-232.63129"
         height="144.91672"
         width="144.91672"
         id="rect3765"
         style="fill:#000000;fill-opacity:1;fill-rule:nonzero;stroke:none" />
      <path
         inkscape:connector-curvature="0"
         id="path4451"
         d="m -235.93304,665.76016 153.289412,0"
         style="fill:#ffffff;stroke:#ffffff;stroke-width:6.23520231;stroke-linecap:butt;stroke-linejoin:miter;stroke-miterlimit:4;stroke-opacity:1;stroke-dasharray:none" />
      <text
         sodipodi:linespacing="125%"
         id="text4453"
         y="657.87811"
         x="-192.12198"
         style="font-size:10.46237087px;font-style:normal;font-weight:normal;line-height:125%;letter-spacing:0px;word-spacing:0px;fill:#ffffff;fill-opacity:1;stroke:none;font-family:Sans"
         xml:space="preserve"><tspan
           y="657.87811"
           x="-192.12198"
           id="tspan4455"
           sodipodi:role="line">Bitcoin Core</tspan></text>
      <g
         transform="translate(-262.52633,-258.45527)"
         id="g4537">
        <path
           sodipodi:type="arc"
           style="fill:#ff0000;fill-opacity:1;fill-rule:nonzero;stroke:url(#radialGradient23043);stroke-width:2.13955808;stroke-miterlimit:4;stroke-opacity:1;stroke-dasharray:none"
           id="path4457"
           sodipodi:cx="-65.89286"
           sodipodi:cy="61.607143"
           sodipodi:rx="4.1071429"
           sodipodi:ry="4.1071429"
           d="m -61.785717,61.607143 c 0,2.268313 -1.838831,4.107143 -4.107143,4.107143 -2.268313,0 -4.107143,-1.83883 -4.107143,-4.107143 0,-2.268312 1.83883,-4.107143 4.107143,-4.107143 2.268312,0 4.107143,1.838831 4.107143,4.107143 z"
           transform="matrix(0.71221803,0,0,0.60116679,82.77904,876.37959)" />
        <path
           sodipodi:type="arc"
           style="fill:#ffff00;fill-opacity:1;fill-rule:nonzero;stroke:url(#radialGradient23045);stroke-width:2.13955808;stroke-miterlimit:4;stroke-opacity:1;stroke-dasharray:none"
           id="path4457-5"
           sodipodi:cx="-65.89286"
           sodipodi:cy="61.607143"
           sodipodi:rx="4.1071429"
           sodipodi:ry="4.1071429"
           d="m -61.785717,61.607143 c 0,2.268313 -1.838831,4.107143 -4.107143,4.107143 -2.268313,0 -4.107143,-1.83883 -4.107143,-4.107143 0,-2.268312 1.83883,-4.107143 4.107143,-4.107143 2.268312,0 4.107143,1.838831 4.107143,4.107143 z"
           transform="matrix(0.71221803,0,0,0.60116679,90.99742,876.37959)" />
        <path
           sodipodi:type="arc"
           style="fill:#00ff00;fill-opacity:1;fill-rule:nonzero;stroke:url(#radialGradient23047);stroke-width:2.13955808;stroke-miterlimit:4;stroke-opacity:1;stroke-dasharray:none"
           id="path4457-5-5"
           sodipodi:cx="-65.89286"
           sodipodi:cy="61.607143"
           sodipodi:rx="4.1071429"
           sodipodi:ry="4.1071429"
           d="m -61.785717,61.607143 c 0,2.268313 -1.838831,4.107143 -4.107143,4.107143 -2.268313,0 -4.107143,-1.83883 -4.107143,-4.107143 0,-2.268312 1.83883,-4.107143 4.107143,-4.107143 2.268312,0 4.107143,1.838831 4.107143,4.107143 z"
           transform="matrix(0.71221803,0,0,0.60116679,99.215798,876.37959)" />
      </g>
      <path
         inkscape:connector-curvature="0"
         id="path4451-8"
         d="m -236.49246,685.72834 153.289402,0"
         style="fill:#ffffff;stroke:#ffffff;stroke-width:2.5;stroke-linecap:butt;stroke-linejoin:miter;stroke-miterlimit:4;stroke-opacity:1;stroke-dasharray:none" />
      <g
         transform="translate(-263.56712,-257.56241)"
         id="g4635">
        <rect
           style="fill:#000000;fill-opacity:1;fill-rule:nonzero;stroke:#ffffff;stroke-width:1.39999998;stroke-miterlimit:4;stroke-opacity:1;stroke-dasharray:none;stroke-dashoffset:0"
           id="rect4587"
           width="12.142858"
           height="7.5"
           x="35.714287"
           y="930.63" />
        <rect
           style="fill:#000000;fill-opacity:1;fill-rule:nonzero;stroke:#ffffff;stroke-width:1.39999998;stroke-miterlimit:4;stroke-opacity:1;stroke-dasharray:none;stroke-dashoffset:0"
           id="rect4587-2"
           width="12.142858"
           height="7.5"
           x="92.5"
           y="930.63" />
        <rect
           style="fill:#000000;fill-opacity:1;fill-rule:nonzero;stroke:#ffffff;stroke-width:1.39999998;stroke-miterlimit:4;stroke-opacity:1;stroke-dasharray:none;stroke-dashoffset:0"
           id="rect4587-3"
           width="12.142858"
           height="7.5"
           x="73.571426"
           y="930.63" />
        <rect
           style="fill:#000000;fill-opacity:1;fill-rule:nonzero;stroke:#ffffff;stroke-width:1.39999998;stroke-miterlimit:4;stroke-opacity:1;stroke-dasharray:none;stroke-dashoffset:0"
           id="rect4587-1"
           width="12.142858"
           height="7.5"
           x="54.642857"
           y="930.63" />
      </g>
      <path
         inkscape:connector-curvature="0"
         id="path4641"
         d="m -230.33361,765.50539 68.18529,0 0,-70.71072"
         style="fill:none;stroke:#ffffff;stroke-width:2.5;stroke-linecap:butt;stroke-linejoin:miter;stroke-miterlimit:4;stroke-opacity:1;stroke-dasharray:none" />
      <path
         inkscape:connector-curvature="0"
         id="path4643"
         d="m -91.739668,741.76676 -57.578692,0 0,-46.46702"
         style="fill:none;stroke:#ffffff;stroke-width:2.5;stroke-linecap:butt;stroke-linejoin:miter;stroke-miterlimit:4;stroke-opacity:1;stroke-dasharray:none" />
    </g>
    <g
       style="font-size:48px;font-style:normal;font-weight:normal;line-height:125%;letter-spacing:0px;word-spacing:0px;fill:#000000;fill-opacity:1;stroke:none;font-family:Sans"
       id="text23049">
      <path
         d="m 32.003906,853.83875 6.375,0 15.515625,29.27343 0,-29.27343 4.59375,0 0,34.99218 -6.375,0 -15.515625,-29.27343 0,29.27343 -4.59375,0 0,-34.99218"
         style=""
         id="path23689" />
      <path
         d="m 77.894531,865.60437 c -2.312512,2e-5 -4.140635,0.90627 -5.484375,2.71875 -1.343758,1.79689 -2.015632,4.26564 -2.015625,7.40625 -7e-6,3.14064 0.664055,5.6172 1.992188,7.42969 1.343739,1.79688 3.179675,2.69531 5.507812,2.69531 2.296858,0 4.117169,-0.90625 5.460938,-2.71875 1.343728,-1.81249 2.015603,-4.28124 2.015625,-7.40625 -2.2e-5,-3.10936 -0.671897,-5.57029 -2.015625,-7.38281 -1.343769,-1.82811 -3.16408,-2.74217 -5.460938,-2.74219 m 0,-3.65625 c 3.749982,3e-5 6.695291,1.21878 8.835938,3.65625 2.140599,2.43752 3.210911,5.81252 3.210937,10.125 -2.6e-5,4.29688 -1.070338,7.67188 -3.210937,10.125 -2.140647,2.4375 -5.085956,3.65625 -8.835938,3.65625 -3.765636,0 -6.718758,-1.21875 -8.859375,-3.65625 -2.125003,-2.45312 -3.187502,-5.82812 -3.1875,-10.125 -2e-6,-4.31248 1.062497,-7.68748 3.1875,-10.125 2.140617,-2.43747 5.093739,-3.65622 8.859375,-3.65625"
         style=""
         id="path23691" />
      <path
         d="m 101.33203,855.12781 0,7.45312 8.88281,0 0,3.35157 -8.88281,0 0,14.25 c -1e-5,2.14063 0.28905,3.51563 0.86719,4.125 0.59374,0.60937 1.78905,0.91406 3.58594,0.91406 l 4.42968,0 0,3.60937 -4.42968,0 c -3.32814,0 -5.62501,-0.61718 -6.890629,-1.85156 -1.26563,-1.25 -1.898442,-3.51562 -1.898437,-6.79687 l 0,-14.25 -3.164063,0 0,-3.35157 3.164063,0 0,-7.45312 4.335936,0"
         style=""
         id="path23693" />
      <path
         d="m 142.11328,891.26843 c -1.21876,3.125 -2.40626,5.16406 -3.5625,6.11719 -1.15626,0.95312 -2.70313,1.42968 -4.64062,1.42969 l -3.44532,0 0,-3.60938 2.53125,0 c 1.1875,0 2.10937,-0.28125 2.76563,-0.84375 0.65624,-0.5625 1.3828,-1.89063 2.17969,-3.98437 l 0.77343,-1.96875 -10.61718,-25.82813 4.57031,0 8.20312,20.53125 8.20313,-20.53125 4.57031,0 -11.53125,28.6875"
         style=""
         id="path23695" />
      <path
         d="m 169.76953,865.60437 c -2.31251,2e-5 -4.14063,0.90627 -5.48437,2.71875 -1.34376,1.79689 -2.01564,4.26564 -2.01563,7.40625 -1e-5,3.14064 0.66406,5.6172 1.99219,7.42969 1.34374,1.79688 3.17967,2.69531 5.50781,2.69531 2.29686,0 4.11717,-0.90625 5.46094,-2.71875 1.34373,-1.81249 2.0156,-4.28124 2.01562,-7.40625 -2e-5,-3.10936 -0.67189,-5.57029 -2.01562,-7.38281 -1.34377,-1.82811 -3.16408,-2.74217 -5.46094,-2.74219 m 0,-3.65625 c 3.74998,3e-5 6.69529,1.21878 8.83594,3.65625 2.1406,2.43752 3.21091,5.81252 3.21094,10.125 -3e-5,4.29688 -1.07034,7.67188 -3.21094,10.125 -2.14065,2.4375 -5.08596,3.65625 -8.83594,3.65625 -3.76563,0 -6.71876,-1.21875 -8.85937,-3.65625 -2.12501,-2.45312 -3.18751,-5.82812 -3.1875,-10.125 -1e-5,-4.31248 1.06249,-7.68748 3.1875,-10.125 2.14061,-2.43747 5.09374,-3.65622 8.85937,-3.65625"
         style=""
         id="path23697" />
      <path
         d="m 188.49609,878.47156 0,-15.89063 4.3125,0 0,15.72657 c 0,2.48438 0.48437,4.35156 1.45313,5.60156 0.96874,1.23438 2.42186,1.85156 4.35937,1.85156 2.32811,0 4.16405,-0.74218 5.50782,-2.22656 1.35935,-1.48437 2.03904,-3.50781 2.03906,-6.07031 l 0,-14.88282 4.3125,0 0,26.25 -4.3125,0 0,-4.03125 c -1.0469,1.59376 -2.26565,2.78125 -3.65625,3.5625 -1.37502,0.76563 -2.97658,1.14844 -4.80469,1.14844 -3.01563,0 -5.30469,-0.9375 -6.86719,-2.8125 -1.5625,-1.875 -2.34375,-4.61718 -2.34375,-8.22656 m 10.85157,-16.52344 0,0"
         style=""
         id="path23699" />
      <path
         d="m 234.62109,866.61218 c -0.48439,-0.28122 -1.01564,-0.48435 -1.59375,-0.60937 -0.56251,-0.1406 -1.18751,-0.21092 -1.875,-0.21094 -2.43751,2e-5 -4.31251,0.7969 -5.625,2.39063 -1.29688,1.57814 -1.94532,3.85157 -1.94531,6.82031 l 0,13.82812 -4.33594,0 0,-26.25 4.33594,0 0,4.07813 c 0.90624,-1.59373 2.08593,-2.77341 3.53906,-3.53906 1.45312,-0.78123 3.21874,-1.17185 5.29688,-1.17188 0.29686,3e-5 0.62498,0.0235 0.98437,0.0703 0.35936,0.0313 0.7578,0.086 1.19532,0.16407 l 0.0234,4.42968"
         style=""
         id="path23701" />
      <path
         d="m 258.73828,855.12781 0,7.45312 8.88281,0 0,3.35157 -8.88281,0 0,14.25 c -10e-6,2.14063 0.28905,3.51563 0.86719,4.125 0.59374,0.60937 1.78905,0.91406 3.58594,0.91406 l 4.42968,0 0,3.60937 -4.42968,0 c -3.32814,0 -5.62501,-0.61718 -6.89063,-1.85156 -1.26563,-1.25 -1.89844,-3.51562 -1.89844,-6.79687 l 0,-14.25 -3.16406,0 0,-3.35157 3.16406,0 0,-7.45312 4.33594,0"
         style=""
         id="path23703" />
      <path
         d="m 284.23828,891.26843 c -1.21876,3.125 -2.40626,5.16406 -3.5625,6.11719 -1.15626,0.95312 -2.70313,1.42968 -4.64062,1.42969 l -3.44532,0 0,-3.60938 2.53125,0 c 1.1875,0 2.10937,-0.28125 2.76563,-0.84375 0.65624,-0.5625 1.3828,-1.89063 2.17969,-3.98437 l 0.77343,-1.96875 -10.61718,-25.82813 4.57031,0 8.20312,20.53125 8.20313,-20.53125 4.57031,0 -11.53125,28.6875"
         style=""
         id="path23705" />
      <path
         d="m 305.89453,884.89343 0,13.92188 -4.33594,0 0,-36.23438 4.33594,0 0,3.98438 c 0.90624,-1.56248 2.04687,-2.71873 3.42188,-3.46875 1.39061,-0.7656 3.04686,-1.14841 4.96875,-1.14844 3.18748,3e-5 5.77341,1.26565 7.75781,3.79688 1.99997,2.53127 2.99997,5.85939 3,9.98437 -3e-5,4.12501 -1.00003,7.45313 -3,9.98438 -1.9844,2.53125 -4.57033,3.79687 -7.75781,3.79687 -1.92189,0 -3.57814,-0.375 -4.96875,-1.125 -1.37501,-0.76562 -2.51564,-1.92969 -3.42188,-3.49219 m 14.67188,-9.16406 c -3e-5,-3.17186 -0.65628,-5.65623 -1.96875,-7.45312 -1.2969,-1.81248 -3.08596,-2.71873 -5.36719,-2.71875 -2.28127,2e-5 -4.07814,0.90627 -5.39063,2.71875 -1.29688,1.79689 -1.94532,4.28126 -1.94531,7.45312 -10e-6,3.17189 0.64843,5.66407 1.94531,7.47656 1.31249,1.79688 3.10936,2.69532 5.39063,2.69532 2.28123,0 4.07029,-0.89844 5.36719,-2.69532 1.31247,-1.81249 1.96872,-4.30467 1.96875,-7.47656"
         style=""
         id="path23707" />
      <path
         d="m 332.19141,862.58093 4.3125,0 0,26.25 -4.3125,0 0,-26.25 m 0,-10.21875 4.3125,0 0,5.46094 -4.3125,0 0,-5.46094"
         style=""
         id="path23709" />
      <path
         d="m 364.39453,863.58875 0,4.03125 c -1.21877,-0.67186 -2.44533,-1.17186 -3.67969,-1.5 -1.21876,-0.34373 -2.45314,-0.51561 -3.70312,-0.51563 -2.79689,2e-5 -4.96876,0.89065 -6.51563,2.67188 -1.54688,1.76564 -2.32032,4.25001 -2.32031,7.45312 -10e-6,3.20314 0.77343,5.69532 2.32031,7.47656 1.54687,1.76563 3.71874,2.64844 6.51563,2.64844 1.24998,0 2.48436,-0.16406 3.70312,-0.49219 1.23436,-0.34374 2.46092,-0.85156 3.67969,-1.52343 l 0,3.98437 c -1.20315,0.5625 -2.45314,0.98438 -3.75,1.26563 -1.28127,0.28124 -2.64845,0.42187 -4.10156,0.42187 -3.95314,0 -7.09376,-1.24219 -9.42188,-3.72656 -2.32813,-2.48437 -3.49219,-5.83593 -3.49218,-10.05469 -1e-5,-4.28123 1.17187,-7.64842 3.51562,-10.10156 2.35937,-2.4531 5.58593,-3.67966 9.67969,-3.67969 1.32811,3e-5 2.62498,0.14065 3.89062,0.42188 1.26561,0.26565 2.49217,0.6719 3.67969,1.21875"
         style=""
         id="path23711" />
      <path
         d="m 383.77734,875.63562 c -3.48438,10e-6 -5.89844,0.39845 -7.24218,1.19531 -1.34376,0.79689 -2.01564,2.15626 -2.01563,4.07813 -10e-6,1.53125 0.49999,2.75 1.5,3.65625 1.01562,0.89063 2.39062,1.33594 4.125,1.33594 2.39061,0 4.30467,-0.84375 5.74219,-2.53125 1.4531,-1.70312 2.17967,-3.96093 2.17969,-6.77344 l 0,-0.96094 -4.28907,0 m 8.60157,-1.78125 0,14.97656 -4.3125,0 0,-3.98437 c -0.9844,1.59375 -2.21096,2.77344 -3.67969,3.53906 -1.46877,0.75 -3.26564,1.125 -5.39063,1.125 -2.68751,0 -4.82813,-0.75 -6.42187,-2.25 -1.57813,-1.51562 -2.36719,-3.53906 -2.36719,-6.07031 0,-2.95312 0.98437,-5.17968 2.95313,-6.67969 1.98436,-1.49998 4.93749,-2.24998 8.85937,-2.25 l 6.04688,0 0,-0.42187 c -2e-5,-1.98436 -0.65627,-3.51561 -1.96875,-4.59375 -1.2969,-1.09373 -3.12502,-1.64061 -5.48438,-1.64063 -1.50001,2e-5 -2.96095,0.17971 -4.38281,0.53906 -1.42188,0.3594 -2.78907,0.89846 -4.10156,1.61719 l 0,-3.98437 c 1.57811,-0.60935 3.10936,-1.06248 4.59375,-1.35938 1.48436,-0.31247 2.92967,-0.46872 4.33593,-0.46875 3.79686,3e-5 6.6328,0.9844 8.50782,2.95313 1.87497,1.96877 2.81247,4.95314 2.8125,8.95312"
         style=""
         id="path23713" />
      <path
         d="m 401.37891,852.36218 4.3125,0 0,36.46875 -4.3125,0 0,-36.46875"
         style=""
         id="path23715" />
      <path
         d="m 427.46484,862.58093 4.3125,0 5.39063,20.48438 5.36719,-20.48438 5.08593,0 5.39063,20.48438 5.36719,-20.48438 4.3125,0 -6.86719,26.25 -5.08594,0 -5.64844,-21.51562 -5.67187,21.51562 -5.08594,0 -6.86719,-26.25"
         style=""
         id="path23717" />
      <path
         d="m 481.18359,875.63562 c -3.48438,10e-6 -5.89844,0.39845 -7.24218,1.19531 -1.34376,0.79689 -2.01564,2.15626 -2.01563,4.07813 -10e-6,1.53125 0.49999,2.75 1.5,3.65625 1.01562,0.89063 2.39062,1.33594 4.125,1.33594 2.39061,0 4.30467,-0.84375 5.74219,-2.53125 1.4531,-1.70312 2.17967,-3.96093 2.17969,-6.77344 l 0,-0.96094 -4.28907,0 m 8.60157,-1.78125 0,14.97656 -4.3125,0 0,-3.98437 c -0.9844,1.59375 -2.21096,2.77344 -3.67969,3.53906 -1.46877,0.75 -3.26564,1.125 -5.39063,1.125 -2.68751,0 -4.82813,-0.75 -6.42187,-2.25 -1.57813,-1.51562 -2.36719,-3.53906 -2.36719,-6.07031 0,-2.95312 0.98437,-5.17968 2.95313,-6.67969 1.98436,-1.49998 4.93749,-2.24998 8.85937,-2.25 l 6.04688,0 0,-0.42187 c -2e-5,-1.98436 -0.65627,-3.51561 -1.96875,-4.59375 -1.2969,-1.09373 -3.12502,-1.64061 -5.48438,-1.64063 -1.50001,2e-5 -2.96095,0.17971 -4.38281,0.53906 -1.42188,0.3594 -2.78907,0.89846 -4.10156,1.61719 l 0,-3.98437 c 1.57811,-0.60935 3.10936,-1.06248 4.59375,-1.35938 1.48436,-0.31247 2.92967,-0.46872 4.33593,-0.46875 3.79686,3e-5 6.6328,0.9844 8.50782,2.95313 1.87497,1.96877 2.81247,4.95314 2.8125,8.95312"
         style=""
         id="path23719" />
      <path
         d="m 498.78516,852.36218 4.3125,0 0,36.46875 -4.3125,0 0,-36.46875"
         style=""
         id="path23721" />
      <path
         d="m 512.09766,852.36218 4.3125,0 0,36.46875 -4.3125,0 0,-36.46875"
         style=""
         id="path23723" />
      <path
         d="m 547.86328,874.62781 0,2.10937 -19.82812,0 c 0.18749,2.96876 1.07811,5.23438 2.67187,6.79688 1.60936,1.54688 3.84374,2.32031 6.70313,2.32031 1.65623,0 3.25779,-0.20312 4.80468,-0.60937 1.56248,-0.40625 3.10935,-1.01563 4.64063,-1.82813 l 0,4.07813 c -1.5469,0.65625 -3.13284,1.15625 -4.75781,1.5 -1.62502,0.34374 -3.27346,0.51562 -4.94532,0.51562 -4.18751,0 -7.50782,-1.21875 -9.96093,-3.65625 -2.43751,-2.43749 -3.65626,-5.73437 -3.65625,-9.89062 -10e-6,-4.29686 1.15624,-7.70311 3.46875,-10.21875 2.32811,-2.53123 5.46092,-3.79685 9.39843,-3.79688 3.53123,3e-5 6.32029,1.14065 8.36719,3.42188 2.06248,2.26564 3.09372,5.35158 3.09375,9.25781 m -4.3125,-1.26563 c -0.0313,-2.35935 -0.69533,-4.24217 -1.99219,-5.64843 -1.28127,-1.40623 -2.98439,-2.10936 -5.10937,-2.10938 -2.40626,2e-5 -4.33595,0.67971 -5.78906,2.03906 -1.43751,1.3594 -2.26564,3.27346 -2.48438,5.74219 l 15.375,-0.0234"
         style=""
         id="path23725" />
      <path
         d="m 559.11328,855.12781 0,7.45312 8.88281,0 0,3.35157 -8.88281,0 0,14.25 c -10e-6,2.14063 0.28905,3.51563 0.86719,4.125 0.59374,0.60937 1.78905,0.91406 3.58594,0.91406 l 4.42968,0 0,3.60937 -4.42968,0 c -3.32814,0 -5.62501,-0.61718 -6.89063,-1.85156 -1.26563,-1.25 -1.89844,-3.51562 -1.89844,-6.79687 l 0,-14.25 -3.16406,0 0,-3.35157 3.16406,0 0,-7.45312 4.33594,0"
         style=""
         id="path23727" />
    </g>
    <g
       style="font-size:20px;font-style:normal;font-weight:normal;line-height:125%;letter-spacing:0px;word-spacing:0px;fill:#000000;fill-opacity:1;stroke:none;font-family:Sans"
       id="text23053">
      <path
         d="m 12.78125,1046.1219 0,-3.916 -3.2226562,0 0,-1.6211 5.1757812,0 0,6.2598 c -0.761732,0.5404 -1.601575,0.9505 -2.519531,1.2305 -0.917979,0.2734 -1.897796,0.4101 -2.9394534,0.4101 -2.2786519,0 -4.0625043,-0.664 -5.3515625,-1.9922 C 2.6412743,1045.1584 1.9999989,1043.3029 2,1040.9266 c -1.1e-6,-2.3828 0.6412743,-4.2382 1.9238281,-5.5664 1.2890582,-1.3346 3.0729106,-2.0019 5.3515625,-2.0019 0.9505114,0 1.8522034,0.1172 2.7050784,0.3515 0.859363,0.2344 1.650378,0.5795 2.373047,1.0352 l 0,2.0996 c -0.72918,-0.6185 -1.503919,-1.084 -2.324219,-1.3965 -0.820323,-0.3125 -1.682952,-0.4687 -2.5878907,-0.4687 -1.783861,0 -3.1250055,0.498 -4.0234376,1.4941 -0.8919307,0.9961 -1.3378938,2.4805 -1.3378906,4.4531 -3.2e-6,1.9662 0.4459599,3.4473 1.3378906,4.4434 0.8984321,0.9961 2.2395766,1.4941 4.0234376,1.4941 0.6966057,0 1.3183497,-0.059 1.8652347,-0.1757 0.546864,-0.1237 1.0384,-0.3125 1.474609,-0.5665"
         style=""
         id="path23666" />
      <path
         d="m 24.607422,1038.9442 c -0.201831,-0.1172 -0.423185,-0.2018 -0.664063,-0.2539 -0.234382,-0.059 -0.494798,-0.088 -0.78125,-0.088 -1.01563,0 -1.79688,0.3321 -2.34375,0.9961 -0.540368,0.6576 -0.81055,1.6048 -0.810547,2.8418 l 0,5.7617 -1.80664,0 0,-10.9375 1.80664,0 0,1.6992 c 0.377601,-0.664 0.869137,-1.1555 1.47461,-1.4746 0.605463,-0.3255 1.341139,-0.4882 2.207031,-0.4882 0.123691,0 0.260409,0.01 0.410156,0.029 0.149732,0.013 0.315748,0.036 0.498047,0.068 l 0.0098,1.8457"
         style=""
         id="path23668" />
      <path
         d="m 31.482422,1042.704 c -1.451828,0 -2.457687,0.166 -3.017578,0.498 -0.559899,0.3321 -0.839847,0.8985 -0.839844,1.6992 -3e-6,0.6381 0.20833,1.1459 0.625,1.5235 0.423173,0.3711 0.996089,0.5566 1.71875,0.5566 0.996087,0 1.793613,-0.3515 2.392578,-1.0547 0.605461,-0.7096 0.908195,-1.6504 0.908203,-2.8222 l 0,-0.4004 -1.787109,0 m 3.583984,-0.7422 0,6.2402 -1.796875,0 0,-1.6601 c -0.410164,0.664 -0.921231,1.1556 -1.533203,1.4746 -0.611986,0.3125 -1.360683,0.4687 -2.246094,0.4687 -1.119795,0 -2.011721,-0.3125 -2.675781,-0.9375 -0.657553,-0.6315 -0.986329,-1.4746 -0.986328,-2.5293 -1e-6,-1.2304 0.410155,-2.1582 1.230469,-2.7832 0.826819,-0.625 2.057287,-0.9375 3.691406,-0.9375 l 2.519531,0 0,-0.1758 c -8e-6,-0.8268 -0.273446,-1.4648 -0.820312,-1.914 -0.540372,-0.4557 -1.30209,-0.6836 -2.285157,-0.6836 -0.625004,0 -1.233728,0.075 -1.826171,0.2246 -0.592451,0.1498 -1.162112,0.3744 -1.708985,0.6738 l 0,-1.6601 c 0.65755,-0.2539 1.29557,-0.4427 1.914063,-0.5664 0.618485,-0.1302 1.220698,-0.1953 1.80664,-0.1953 1.582024,0 2.763664,0.4101 3.544922,1.2304 0.78124,0.8203 1.171865,2.0638 1.171875,3.7305"
         style=""
         id="path23670" />
      <path
         d="m 40.554687,1046.5614 0,5.8008 -1.80664,0 0,-15.0977 1.80664,0 0,1.6602 c 0.377601,-0.651 0.852861,-1.1328 1.425782,-1.4453 0.579421,-0.319 1.269525,-0.4785 2.070312,-0.4785 1.328117,0 2.40559,0.5273 3.232422,1.582 0.833322,1.0547 1.249989,2.4414 1.25,4.1601 -1.1e-5,1.7188 -0.416678,3.1055 -1.25,4.1602 -0.826832,1.0547 -1.904305,1.582 -3.232422,1.582 -0.800787,0 -1.490891,-0.1562 -2.070312,-0.4687 -0.572921,-0.319 -1.048181,-0.8041 -1.425782,-1.4551 m 6.113282,-3.8184 c -10e-6,-1.3216 -0.273447,-2.3567 -0.820313,-3.1054 -0.540373,-0.7552 -1.285815,-1.1328 -2.236328,-1.1328 -0.950526,0 -1.699224,0.3776 -2.246094,1.1328 -0.540368,0.7487 -0.81055,1.7838 -0.810547,3.1054 -3e-6,1.3217 0.270179,2.3601 0.810547,3.1153 0.54687,0.7487 1.295568,1.123 2.246094,1.123 0.950513,0 1.695955,-0.3743 2.236328,-1.123 0.546866,-0.7552 0.820303,-1.7936 0.820313,-3.1153"
         style=""
         id="path23672" />
      <path
         d="m 60.603516,1041.6005 0,6.6015 -1.796875,0 0,-6.5429 c -10e-6,-1.0352 -0.201832,-1.8099 -0.605469,-2.3243 -0.403654,-0.5143 -1.009122,-0.7714 -1.816406,-0.7714 -0.970058,0 -1.735031,0.3092 -2.294922,0.9277 -0.5599,0.6185 -0.839848,1.4616 -0.839844,2.5293 l 0,6.1816 -1.806641,0 0,-15.1953 1.806641,0 0,5.957 c 0.429683,-0.6575 0.93424,-1.149 1.513672,-1.4746 0.585932,-0.3255 1.259759,-0.4882 2.021484,-0.4882 1.256502,0 2.207022,0.3906 2.851563,1.1718 0.64452,0.7748 0.966786,1.9174 0.966797,3.4278"
         style=""
         id="path23674" />
      <path
         d="m 64.207031,1037.2645 1.796875,0 0,10.9375 -1.796875,0 0,-10.9375 m 0,-4.2578 1.796875,0 0,2.2754 -1.796875,0 0,-2.2754"
         style=""
         id="path23676" />
      <path
         d="m 77.625,1037.6844 0,1.6797 c -0.507822,-0.2799 -1.018889,-0.4882 -1.533203,-0.625 -0.50782,-0.1432 -1.022143,-0.2148 -1.542969,-0.2148 -1.16537,0 -2.070317,0.3711 -2.714844,1.1133 -0.644534,0.7357 -0.966799,1.7708 -0.966797,3.1054 -2e-6,1.3347 0.322263,2.3731 0.966797,3.1153 0.644527,0.7357 1.549474,1.1035 2.714844,1.1035 0.520826,0 1.035149,-0.068 1.542969,-0.2051 0.514314,-0.1432 1.025381,-0.3548 1.533203,-0.6348 l 0,1.6602 c -0.501311,0.2344 -1.022144,0.4102 -1.5625,0.5273 -0.533862,0.1172 -1.103523,0.1758 -1.708984,0.1758 -1.647141,0 -2.955733,-0.5175 -3.925782,-1.5527 -0.970053,-1.0352 -1.455079,-2.4316 -1.455078,-4.1895 -10e-7,-1.7838 0.48828,-3.1868 1.464844,-4.2089 0.983069,-1.0222 2.327469,-1.5332 4.033203,-1.5332 0.553378,0 1.093742,0.059 1.621094,0.1757 0.527335,0.1107 1.038402,0.28 1.533203,0.5078"
         style=""
         id="path23678" />
      <path
         d="m 85.701172,1042.704 c -1.451828,0 -2.457687,0.166 -3.017578,0.498 -0.559899,0.3321 -0.839847,0.8985 -0.839844,1.6992 -3e-6,0.6381 0.20833,1.1459 0.625,1.5235 0.423173,0.3711 0.996089,0.5566 1.71875,0.5566 0.996087,0 1.793613,-0.3515 2.392578,-1.0547 0.605461,-0.7096 0.908195,-1.6504 0.908203,-2.8222 l 0,-0.4004 -1.787109,0 m 3.583984,-0.7422 0,6.2402 -1.796875,0 0,-1.6601 c -0.410164,0.664 -0.921231,1.1556 -1.533203,1.4746 -0.611986,0.3125 -1.360683,0.4687 -2.246094,0.4687 -1.119795,0 -2.011721,-0.3125 -2.675781,-0.9375 -0.657553,-0.6315 -0.986329,-1.4746 -0.986328,-2.5293 -10e-7,-1.2304 0.410155,-2.1582 1.230469,-2.7832 0.826819,-0.625 2.057287,-0.9375 3.691406,-0.9375 l 2.519531,0 0,-0.1758 c -8e-6,-0.8268 -0.273446,-1.4648 -0.820312,-1.914 -0.540372,-0.4557 -1.30209,-0.6836 -2.285157,-0.6836 -0.625004,0 -1.233728,0.075 -1.826171,0.2246 -0.592451,0.1498 -1.162112,0.3744 -1.708985,0.6738 l 0,-1.6601 c 0.65755,-0.2539 1.29557,-0.4427 1.914063,-0.5664 0.618485,-0.1302 1.220698,-0.1953 1.80664,-0.1953 1.582024,0 2.763664,0.4101 3.544922,1.2304 0.78124,0.8203 1.171865,2.0638 1.171875,3.7305"
         style=""
         id="path23680" />
      <path
         d="m 93.035156,1033.0067 1.796875,0 0,15.1953 -1.796875,0 0,-15.1953"
         style=""
         id="path23682" />
      <path
         d="m 104.80273,1033.6219 1.98243,0 0,8.8575 c -1e-5,1.5625 0.2832,2.6888 0.84961,3.3789 0.5664,0.6836 1.48436,1.0254 2.7539,1.0254 1.26301,0 2.17773,-0.3418 2.74414,-1.0254 0.5664,-0.6901 0.8496,-1.8164 0.84961,-3.3789 l 0,-8.8575 1.98242,0 0,9.1016 c -10e-6,1.9011 -0.47201,3.3366 -1.41601,4.3067 -0.93751,0.97 -2.32423,1.455 -4.16016,1.455 -1.84245,0 -3.23568,-0.485 -4.17969,-1.455 -0.9375,-0.9701 -1.40625,-2.4056 -1.40625,-4.3067 l 0,-9.1016"
         style=""
         id="path23684" />
      <path
         d="m 119.67578,1033.6219 1.97266,0 0,14.5801 -1.97266,0 0,-14.5801"
         style=""
         id="path23686" />
    </g>
    <g
       style="font-size:20px;font-style:normal;font-weight:normal;line-height:125%;letter-spacing:0px;word-spacing:0px;fill:#000000;fill-opacity:1;stroke:none;font-family:Sans"
       id="text23061">
      <path
         d="m 267.8125,1038.6219 0,2.0801 c -0.66407,-0.6185 -1.37371,-1.0807 -2.12891,-1.3867 -0.7487,-0.306 -1.54623,-0.459 -2.39257,-0.459 -1.66668,0 -2.94272,0.5111 -3.82813,1.5332 -0.88542,1.0157 -1.32813,2.487 -1.32812,4.4141 -10e-6,1.9206 0.4427,3.3919 1.32812,4.4141 0.88541,1.0156 2.16145,1.5234 3.82813,1.5234 0.84634,0 1.64387,-0.153 2.39257,-0.459 0.7552,-0.306 1.46484,-0.7682 2.12891,-1.3867 l 0,2.0605 c -0.69012,0.4688 -1.42254,0.8203 -2.19727,1.0547 -0.76823,0.2344 -1.58204,0.3516 -2.4414,0.3516 -2.20704,0 -3.94532,-0.6738 -5.21485,-2.0215 -1.26953,-1.3542 -1.90429,-3.1999 -1.90429,-5.5371 0,-2.3438 0.63476,-4.1895 1.90429,-5.5371 1.26953,-1.3542 3.00781,-2.0313 5.21485,-2.0313 0.87238,0 1.6927,0.1172 2.46094,0.3516 0.77472,0.2279 1.50063,0.5729 2.17773,1.0351"
         style=""
         id="path23651" />
      <path
         d="m 270.87891,1037.4989 1.97265,0 0,12.9199 7.09961,0 0,1.6602 -9.07226,0 0,-14.5801"
         style=""
         id="path23653" />
      <path
         d="m 282.01172,1037.4989 1.97265,0 0,14.5801 -1.97265,0 0,-14.5801"
         style=""
         id="path23655" />
      <path
         d="m 297.17773,1044.2372 c -0.59245,0.5273 -1.02865,1.0547 -1.30859,1.582 -0.27344,0.5209 -0.41016,1.0677 -0.41016,1.6406 0,0.9506 0.34505,1.7416 1.03516,2.3731 0.6901,0.6315 1.55598,0.9473 2.59766,0.9473 0.61848,0 1.19791,-0.101 1.73828,-0.3028 0.54035,-0.2083 1.04817,-0.5208 1.52344,-0.9375 l -5.17579,-5.3027 m 1.37696,-1.0938 4.96093,5.0782 c 0.38411,-0.5795 0.68359,-1.198 0.89844,-1.8555 0.21483,-0.6641 0.34179,-1.3672 0.38086,-2.1094 l 1.81641,0 c -0.0781,0.8594 -0.28647,1.709 -0.625,2.5488 -0.33856,0.8399 -0.81056,1.67 -1.41602,2.4903 l 2.72461,2.7832 -2.46094,0 -1.39648,-1.4356 c -0.67709,0.5795 -1.38673,1.0124 -2.12891,1.2989 -0.74219,0.2799 -1.53972,0.4199 -2.39257,0.4199 -1.56902,0 -2.85157,-0.446 -3.84766,-1.3379 -0.9961,-0.8984 -1.49414,-2.0475 -1.49414,-3.4473 0,-0.8333 0.2181,-1.6146 0.6543,-2.3437 0.43619,-0.7357 1.09049,-1.4258 1.96289,-2.0703 -0.31251,-0.4102 -0.55014,-0.8171 -0.71289,-1.2207 -0.16277,-0.4102 -0.24415,-0.8106 -0.24415,-1.2012 0,-1.0547 0.36133,-1.901 1.08399,-2.5391 0.72265,-0.6445 1.68294,-0.9668 2.88086,-0.9668 0.54036,0 1.07746,0.059 1.61133,0.1758 0.54035,0.1172 1.08723,0.293 1.64062,0.5274 l 0,1.7773 c -0.56641,-0.306 -1.10678,-0.5371 -1.62109,-0.6934 -0.51433,-0.1627 -0.99285,-0.2441 -1.43555,-0.2441 -0.6836,0 -1.24024,0.1823 -1.66992,0.5469 -0.42318,0.3581 -0.63477,0.8236 -0.63477,1.3965 0,0.332 0.0944,0.6673 0.28321,1.0058 0.1953,0.3321 0.58918,0.8041 1.18164,1.416"
         style=""
         id="path23657" />
      <path
         d="m 321.10352,1039.4423 -2.67579,7.2558 5.36133,0 -2.68554,-7.2558 m -1.11329,-1.9434 2.23633,0 5.55664,14.5801 -2.05078,0 -1.32812,-3.7403 -6.57227,0 -1.32812,3.7403 -2.08008,0 5.5664,-14.5801"
         style=""
         id="path23659" />
      <path
         d="m 331.875,1039.12 0,5.4785 2.48047,0 c 0.91796,0 1.62759,-0.2376 2.1289,-0.7129 0.5013,-0.4752 0.75195,-1.1523 0.75196,-2.0312 -1e-5,-0.8724 -0.25066,-1.5462 -0.75196,-2.0215 -0.50131,-0.4753 -1.21094,-0.7129 -2.1289,-0.7129 l -2.48047,0 m -1.97266,-1.6211 4.45313,0 c 1.63411,0 2.86783,0.3711 3.70117,1.1133 0.83983,0.7357 1.25975,1.8164 1.25977,3.2422 -2e-5,1.4388 -0.41994,2.526 -1.25977,3.2617 -0.83334,0.7357 -2.06706,1.1035 -3.70117,1.1035 l -2.48047,0 0,5.8594 -1.97266,0 0,-14.5801"
         style=""
         id="path23661" />
      <path
         d="m 341.97266,1037.4989 1.97265,0 0,14.5801 -1.97265,0 0,-14.5801"
         style=""
         id="path23663" />
    </g>
    <g
       style="font-size:20px;font-style:normal;font-weight:normal;line-height:125%;letter-spacing:0px;word-spacing:0px;fill:#000000;fill-opacity:1;stroke:none;font-family:Sans"
       id="text23071"
       transform="translate(-2,0)">
      <g
         style="fill:#000000;font-family:Sans"
         id="text6401">
        <path
           d="m 474.60937,1033.6219 12.33399,0 0,1.6602 -5.17578,0 0,12.9199 -1.98242,0 0,-12.9199 -5.17579,0 0,-1.6602"
           style=""
           id="path6406" />
        <path
           d="m 492.22656,1038.9442 c -0.20183,-0.1172 -0.42318,-0.2018 -0.66406,-0.2539 -0.23438,-0.059 -0.4948,-0.088 -0.78125,-0.088 -1.01563,0 -1.79688,0.3321 -2.34375,0.9961 -0.54037,0.6576 -0.81055,1.6048 -0.81055,2.8418 l 0,5.7617 -1.80664,0 0,-10.9375 1.80664,0 0,1.6992 c 0.3776,-0.664 0.86914,-1.1555 1.47461,-1.4746 0.60547,-0.3255 1.34114,-0.4882 2.20703,-0.4882 0.12369,0 0.26041,0.01 0.41016,0.029 0.14973,0.013 0.31575,0.036 0.49805,0.068 l 0.01,1.8457"
           style=""
           id="path6408" />
        <path
           d="m 493.94531,1043.8856 0,-6.6211 1.79688,0 0,6.5528 c -10e-6,1.0351 0.20182,1.8131 0.60547,2.3339 0.40364,0.5144 1.00911,0.7715 1.8164,0.7715 0.97005,0 1.73502,-0.3092 2.29492,-0.9277 0.5664,-0.6185 0.8496,-1.4616 0.84961,-2.5293 l 0,-6.2012 1.79688,0 0,10.9375 -1.79688,0 0,-1.6797 c -0.4362,0.6641 -0.94401,1.1589 -1.52343,1.4844 -0.57293,0.319 -1.24024,0.4785 -2.00196,0.4785 -1.25651,0 -2.21029,-0.3906 -2.86133,-1.1718 -0.65104,-0.7813 -0.97656,-1.9239 -0.97656,-3.4278 m 4.52149,-6.8847 0,0"
           style=""
           id="path6410" />
        <path
           d="m 513.79883,1037.5868 0,1.6992 c -0.50782,-0.2604 -1.03517,-0.4557 -1.58203,-0.5859 -0.54688,-0.1302 -1.11329,-0.1953 -1.69922,-0.1953 -0.89193,0 -1.56251,0.1367 -2.01172,0.4101 -0.44271,0.2735 -0.66407,0.6836 -0.66406,1.2305 -10e-6,0.4167 0.1595,0.7454 0.47851,0.9863 0.31901,0.2344 0.96028,0.459 1.92383,0.6738 l 0.61523,0.1368 c 1.27604,0.2734 2.18099,0.6608 2.71485,1.1621 0.54035,0.4948 0.81054,1.1881 0.81055,2.08 -10e-6,1.0157 -0.40366,1.8197 -1.21094,2.4122 -0.80079,0.5924 -1.90431,0.8886 -3.31055,0.8886 -0.58594,0 -1.19792,-0.059 -1.83594,-0.1758 -0.63151,-0.1106 -1.29883,-0.2799 -2.00195,-0.5078 l 0,-1.8554 c 0.66406,0.345 1.31836,0.6054 1.96289,0.7812 0.64453,0.1693 1.28255,0.2539 1.91406,0.2539 0.84635,0 1.49739,-0.1432 1.95313,-0.4297 0.45572,-0.2929 0.68358,-0.7031 0.68359,-1.2304 -10e-6,-0.4883 -0.16602,-0.8627 -0.49804,-1.1231 -0.32553,-0.2604 -1.04493,-0.511 -2.15821,-0.7519 l -0.625,-0.1465 c -1.11328,-0.2344 -1.91732,-0.5925 -2.41211,-1.0742 -0.49479,-0.4883 -0.74219,-1.1556 -0.74218,-2.002 -10e-6,-1.0286 0.36458,-1.8229 1.09375,-2.3828 0.72916,-0.5599 1.76431,-0.8398 3.10546,-0.8398 0.66406,0 1.28906,0.049 1.875,0.1464 0.58593,0.098 1.1263,0.2442 1.6211,0.4395"
           style=""
           id="path6412" />
        <path
           d="m 519.0332,1034.1591 0,3.1054 3.70117,0 0,1.3965 -3.70117,0 0,5.9375 c 0,0.8919 0.12044,1.4649 0.36133,1.7188 0.24739,0.2539 0.74544,0.3808 1.49414,0.3808 l 1.8457,0 0,1.5039 -1.8457,0 c -1.38672,0 -2.34375,-0.2571 -2.87109,-0.7715 -0.52735,-0.5208 -0.79102,-1.4648 -0.79102,-2.832 l 0,-5.9375 -1.31836,0 0,-1.3965 1.31836,0 0,-3.1054 1.80664,0"
           style=""
           id="path6414" />
        <path
           d="m 534.46289,1042.2841 0,0.8789 -8.26172,0 c 0.0781,1.2369 0.44922,2.181 1.11328,2.832 0.67057,0.6445 1.60156,0.9668 2.79297,0.9668 0.6901,0 1.35742,-0.085 2.00195,-0.2539 0.65104,-0.1693 1.29557,-0.4232 1.9336,-0.7617 l 0,1.6992 c -0.64454,0.2734 -1.30535,0.4818 -1.98242,0.625 -0.67709,0.1432 -1.36394,0.2148 -2.06055,0.2148 -1.7448,0 -3.12826,-0.5078 -4.15039,-1.5234 -1.01563,-1.0156 -1.52344,-2.3893 -1.52344,-4.1211 0,-1.7904 0.48177,-3.2096 1.44531,-4.2578 0.97005,-1.0547 2.27539,-1.582 3.91602,-1.582 1.47135,0 2.63345,0.4752 3.48633,1.4257 0.85936,0.9441 1.28905,2.2299 1.28906,3.8575 m -1.79687,-0.5274 c -0.013,-0.9831 -0.28973,-1.7676 -0.83008,-2.3535 -0.53386,-0.5859 -1.2435,-0.8789 -2.12891,-0.8789 -1.00261,0 -1.80664,0.2832 -2.41211,0.8496 -0.59896,0.5664 -0.94401,1.3639 -1.03515,2.3926 l 6.40625,-0.01"
           style=""
           id="path6416" />
        <path
           d="m 544.57031,1038.9247 0,-5.918 1.79688,0 0,15.1953 -1.79688,0 0,-1.6406 c -0.37761,0.651 -0.85613,1.1361 -1.43554,1.4551 -0.57293,0.3125 -1.26303,0.4687 -2.07032,0.4687 -1.32162,0 -2.39909,-0.5273 -3.23242,-1.582 -0.82682,-1.0547 -1.24023,-2.4414 -1.24023,-4.1602 0,-1.7187 0.41341,-3.1054 1.24023,-4.1601 0.83333,-1.0547 1.9108,-1.582 3.23242,-1.582 0.80729,0 1.49739,0.1595 2.07032,0.4785 0.57941,0.3125 1.05793,0.7943 1.43554,1.4453 m -6.12304,3.8183 c -10e-6,1.3217 0.27017,2.3601 0.81054,3.1153 0.54687,0.7487 1.29557,1.123 2.2461,1.123 0.95051,0 1.69921,-0.3743 2.24609,-1.123 0.54687,-0.7552 0.8203,-1.7936 0.82031,-3.1153 -10e-6,-1.3216 -0.27344,-2.3567 -0.82031,-3.1054 -0.54688,-0.7552 -1.29558,-1.1328 -2.24609,-1.1328 -0.95053,0 -1.69923,0.3776 -2.2461,1.1328 -0.54037,0.7487 -0.81055,1.7838 -0.81054,3.1054"
           style=""
           id="path6418" />
        <path
           d="m 558.17383,1046.5614 0,5.8008 -1.80664,0 0,-15.0977 1.80664,0 0,1.6602 c 0.3776,-0.651 0.85286,-1.1328 1.42578,-1.4453 0.57942,-0.319 1.26952,-0.4785 2.07031,-0.4785 1.32812,0 2.40559,0.5273 3.23242,1.582 0.83333,1.0547 1.24999,2.4414 1.25,4.1601 -10e-6,1.7188 -0.41667,3.1055 -1.25,4.1602 -0.82683,1.0547 -1.9043,1.582 -3.23242,1.582 -0.80079,0 -1.49089,-0.1562 -2.07031,-0.4687 -0.57292,-0.319 -1.04818,-0.8041 -1.42578,-1.4551 m 6.11328,-3.8184 c -10e-6,-1.3216 -0.27345,-2.3567 -0.82031,-3.1054 -0.54038,-0.7552 -1.28582,-1.1328 -2.23633,-1.1328 -0.95053,0 -1.69922,0.3776 -2.2461,1.1328 -0.54036,0.7487 -0.81055,1.7838 -0.81054,3.1054 -10e-6,1.3217 0.27018,2.3601 0.81054,3.1153 0.54688,0.7487 1.29557,1.123 2.2461,1.123 0.95051,0 1.69595,-0.3743 2.23633,-1.123 0.54686,-0.7552 0.8203,-1.7936 0.82031,-3.1153"
           style=""
           id="path6420" />
        <path
           d="m 578.48633,1042.2841 0,0.8789 -8.26172,0 c 0.0781,1.2369 0.44921,2.181 1.11328,2.832 0.67057,0.6445 1.60156,0.9668 2.79297,0.9668 0.6901,0 1.35741,-0.085 2.00195,-0.2539 0.65103,-0.1693 1.29557,-0.4232 1.9336,-0.7617 l 0,1.6992 c -0.64455,0.2734 -1.30535,0.4818 -1.98243,0.625 -0.67709,0.1432 -1.36394,0.2148 -2.06054,0.2148 -1.7448,0 -3.12826,-0.5078 -4.15039,-1.5234 -1.01563,-1.0156 -1.52344,-2.3893 -1.52344,-4.1211 0,-1.7904 0.48177,-3.2096 1.44531,-4.2578 0.97005,-1.0547 2.27539,-1.582 3.91602,-1.582 1.47134,0 2.63345,0.4752 3.48633,1.4257 0.85936,0.9441 1.28905,2.2299 1.28906,3.8575 m -1.79688,-0.5274 c -0.013,-0.9831 -0.28972,-1.7676 -0.83008,-2.3535 -0.53386,-0.5859 -1.24349,-0.8789 -2.1289,-0.8789 -1.00261,0 -1.80665,0.2832 -2.41211,0.8496 -0.59896,0.5664 -0.94401,1.3639 -1.03516,2.3926 l 6.40625,-0.01"
           style=""
           id="path6422" />
        <path
           d="m 590.75195,1042.2841 0,0.8789 -8.26172,0 c 0.0781,1.2369 0.44922,2.181 1.11329,2.832 0.67056,0.6445 1.60155,0.9668 2.79296,0.9668 0.6901,0 1.35742,-0.085 2.00196,-0.2539 0.65103,-0.1693 1.29556,-0.4232 1.93359,-0.7617 l 0,1.6992 c -0.64454,0.2734 -1.30535,0.4818 -1.98242,0.625 -0.67709,0.1432 -1.36394,0.2148 -2.06055,0.2148 -1.74479,0 -3.12826,-0.5078 -4.15039,-1.5234 -1.01562,-1.0156 -1.52344,-2.3893 -1.52344,-4.1211 0,-1.7904 0.48177,-3.2096 1.44532,-4.2578 0.97005,-1.0547 2.27538,-1.582 3.91601,-1.582 1.47135,0 2.63346,0.4752 3.48633,1.4257 0.85936,0.9441 1.28905,2.2299 1.28906,3.8575 m -1.79687,-0.5274 c -0.013,-0.9831 -0.28972,-1.7676 -0.83008,-2.3535 -0.53386,-0.5859 -1.2435,-0.8789 -2.12891,-0.8789 -1.00261,0 -1.80664,0.2832 -2.41211,0.8496 -0.59896,0.5664 -0.94401,1.3639 -1.03515,2.3926 l 6.40625,-0.01"
           style=""
           id="path6424" />
        <path
           d="m 600,1038.9442 c -0.20183,-0.1172 -0.42318,-0.2018 -0.66406,-0.2539 -0.23438,-0.059 -0.4948,-0.088 -0.78125,-0.088 -1.01563,0 -1.79688,0.3321 -2.34375,0.9961 -0.54037,0.6576 -0.81055,1.6048 -0.81055,2.8418 l 0,5.7617 -1.80664,0 0,-10.9375 1.80664,0 0,1.6992 c 0.3776,-0.664 0.86914,-1.1555 1.47461,-1.4746 0.60546,-0.3255 1.34114,-0.4882 2.20703,-0.4882 0.12369,0 0.26041,0.01 0.41016,0.029 0.14973,0.013 0.31574,0.036 0.49804,0.068 l 0.01,1.8457"
           style=""
           id="path6426" />
      </g>
    </g>
    <path
       style="fill:#800000;fill-opacity:0.74509804;fill-rule:nonzero;stroke:none"
       d="m 245.58775,1022.0562 c 0.32155,-2.2482 1.37992,-2.9292 5.69047,-3.6615 2.91249,-0.4947 6.19652,-1.8448 7.29783,-3.0001 1.69957,-1.7828 20.76371,-49.54495 32.03904,-80.26872 4.34568,-11.8414 4.14134,-11.57321 8.81759,-11.57321 l 3.98153,0 10.81414,25.51153 c 5.94778,14.03128 13.44824,32.08357 16.6677,40.11621 11.17022,27.86979 10.51024,26.83789 18.49496,28.92019 3.27226,0.8534 4.86359,1.9663 5.09866,3.5659 0.33016,2.2466 -0.52497,2.3253 -25.28606,2.3253 -21.26682,0 -25.57251,-0.2817 -25.30293,-1.6555 0.40474,-2.0625 2.5621,-3.1793 8.63265,-4.4689 3.17549,-0.6745 4.88032,-1.7324 5.16092,-3.2021 0.23046,-1.2072 -1.63595,-7.4793 -4.14758,-13.9379 l -4.5666,-11.74312 -15.59222,-0.0285 -15.59223,-0.0285 -4.47955,12.57312 c -5.17797,14.5333 -4.83814,15.767 4.63715,16.835 4.35902,0.4914 5.47134,1.0743 5.47134,2.8672 0,2.102 -1.00017,2.236 -15.15501,2.0322 -8.33526,-0.1201 -16.93742,0.1871 -19.11591,0.6825 -3.67177,0.8349 -3.93208,0.699 -3.56589,-1.8611 l 0,0 z m 59.23212,-41.91068 c 0,-2.00153 -10.16565,-26.82056 -11.55413,-28.20912 -0.54228,-0.54225 -3.32162,5.28559 -6.17633,12.95082 -2.8547,7.66511 -5.43923,14.60527 -5.74341,15.42245 -0.41953,1.12706 2.34712,1.48579 11.46042,1.48579 9.456,0 12.01345,-0.35124 12.01345,-1.64994 z"
       id="path23621"
       inkscape:connector-curvature="0" />
    <path
       style="fill:#008000;fill-opacity:0.74509804;fill-rule:nonzero;stroke:none"
       d="m 557.3692,1022.8357 c -0.82879,-0.8287 -1.50689,-3.3716 -1.50689,-5.6508 l 0,-4.1439 -7.44472,0 c -11.12048,0 -11.39133,-0.5097 -11.39133,-21.43718 l 0,-17.49066 -6.83435,0 -6.83435,0 -0.38614,5.33688 -0.38614,5.33689 -13.16757,0.36115 c -16.16849,0.4434 -16.34225,0.2902 -16.34225,-14.41423 0,-14.14487 1.28595,-15.45674 15.1514,-15.45674 12.85676,0 14.98629,1.07692 14.98629,7.57862 l 0,4.97875 6.90655,0 6.90656,0 0,-17.95704 c 0,-12.29229 0.47536,-18.43246 1.50688,-19.46393 0.8531,-0.85314 4.93923,-1.50688 9.41803,-1.50688 l 7.91114,0 0,-4.20044 c 0,-6.79253 2.88139,-8.35693 15.39196,-8.35693 14.29903,0 14.74573,0.47065 14.74573,15.53522 0,7.33916 -0.55257,12.14122 -1.50688,13.09558 -2.05247,2.05251 -25.07146,2.05251 -27.12392,0 -0.82879,-0.82878 -1.50689,-3.37165 -1.50689,-5.65081 0,-4.13552 -0.0127,-4.14393 -6.27868,-4.14393 l -6.27869,0 0,16.32458 0,16.32458 6.27869,0 6.27868,0 0,-4.20044 c 0,-6.79254 2.88139,-8.35693 15.39196,-8.35693 14.29903,0 14.74573,0.47065 14.74573,15.53522 0,7.33916 -0.55257,12.14122 -1.50688,13.09558 -2.05247,2.0525 -25.07146,2.0525 -27.12392,0 -0.82879,-0.82879 -1.50689,-3.37165 -1.50689,-5.65082 0,-4.13551 -0.0127,-4.14393 -6.27868,-4.14393 l -6.27869,0 0,16.32458 0,16.32456 6.27869,0 6.27868,0 0,-4.2004 c 0,-6.7925 2.88139,-8.3569 15.39196,-8.3569 14.29903,0 14.74573,0.4706 14.74573,15.5352 0,7.3391 -0.55257,12.1412 -1.50688,13.0955 -2.05247,2.0525 -25.07146,2.0525 -27.12392,0 l 0,0 z"
       id="path23623"
       inkscape:connector-curvature="0" />
  </g>
</svg>
