<?xml version="1.0" encoding="UTF-8" standalone="no"?>
<!-- Created with Inkscape (http://www.inkscape.org/) -->

<svg
   xmlns:dc="http://purl.org/dc/elements/1.1/"
   xmlns:cc="http://creativecommons.org/ns#"
   xmlns:rdf="http://www.w3.org/1999/02/22-rdf-syntax-ns#"
   xmlns:svg="http://www.w3.org/2000/svg"
   xmlns="http://www.w3.org/2000/svg"
   xmlns:sodipodi="http://sodipodi.sourceforge.net/DTD/sodipodi-0.dtd"
   xmlns:inkscape="http://www.inkscape.org/namespaces/inkscape"
   width="32px"
   height="32px"
   id="svg2984"
   version="1.1"
   inkscape:version="0.48.4 r9939"
   sodipodi:docname="but_start.svg">
  <defs
     id="defs2986" />
  <sodipodi:namedview
     id="base"
     pagecolor="#ffffff"
     bordercolor="#666666"
     borderopacity="1.0"
     inkscape:pageopacity="0.0"
     inkscape:pageshadow="2"
     inkscape:zoom="11.197802"
     inkscape:cx="48.198722"
     inkscape:cy="3.5635425"
     inkscape:current-layer="layer1"
     showgrid="true"
     inkscape:grid-bbox="true"
     inkscape:document-units="px"
     inkscape:window-width="1680"
     inkscape:window-height="1026"
     inkscape:window-x="0"
     inkscape:window-y="24"
     inkscape:window-maximized="1" />
  <metadata
     id="metadata2989">
    <rdf:RDF>
      <cc:Work
         rdf:about="">
        <dc:format>image/svg+xml</dc:format>
        <dc:type
           rdf:resource="http://purl.org/dc/dcmitype/StillImage" />
        <dc:title></dc:title>
      </cc:Work>
    </rdf:RDF>
  </metadata>
  <g
     id="layer1"
     inkscape:label="Layer 1"
     inkscape:groupmode="layer">
    <path
       style="fill:#ffffff;fill-opacity:1;stroke:#ffffff;stroke-width:1px;stroke-linecap:butt;stroke-linejoin:round;stroke-opacity:1"
       d="m 16.080244,29.410976 c 0,0 2.737074,-1.369993 3.978257,-2.904759 1.241182,-1.534766 2.170319,-3.56142 1.957555,-5.493783 -0.242239,-2.200052 -1.568807,-3.940562 -3.662522,-5.051753 -2.093715,-1.111191 -5.74637,-0.189441 -5.74637,-0.189441 l 0.06315,4.483432 L 1.5564542,12.992775 12.291432,5.4782908 12.417726,9.3934003 c 0,0 5.222792,-0.1961592 7.703924,0.8840567 1.421607,0.618929 3.621445,1.931689 4.483433,3.220493 0.780886,1.167545 1.470123,2.593413 1.704967,3.978257 0.218196,1.286666 -0.01586,3.681814 -0.505175,4.891643 -0.488974,1.208973 -0.822155,2.457446 -3.409934,4.609725 -1.737039,1.44471 -6.314694,2.433401 -6.314694,2.433401 z"
       id="path2992"
       inkscape:connector-curvature="0"
       sodipodi:nodetypes="czszcccccsssssc" />
  </g>
</svg>
