<?xml version="1.0" encoding="UTF-8" standalone="no"?>
<!-- Created with Inkscape (http://www.inkscape.org/) -->

<svg
   xmlns:dc="http://purl.org/dc/elements/1.1/"
   xmlns:cc="http://creativecommons.org/ns#"
   xmlns:rdf="http://www.w3.org/1999/02/22-rdf-syntax-ns#"
   xmlns:svg="http://www.w3.org/2000/svg"
   xmlns="http://www.w3.org/2000/svg"
   xmlns:sodipodi="http://sodipodi.sourceforge.net/DTD/sodipodi-0.dtd"
   xmlns:inkscape="http://www.inkscape.org/namespaces/inkscape"
   width="32px"
   height="32px"
   id="svg5494"
   version="1.1"
   inkscape:version="0.48.3.1 r9886"
   sodipodi:docname="icon-bitcoin.svg"
   inkscape:export-filename="/var/www/img/ico-bitcoin.png"
   inkscape:export-xdpi="90"
   inkscape:export-ydpi="90">
  <defs
     id="defs5496" />
  <sodipodi:namedview
     id="base"
     pagecolor="#ffffff"
     bordercolor="#666666"
     borderopacity="1.0"
     inkscape:pageopacity="0.0"
     inkscape:pageshadow="2"
     inkscape:zoom="15.836083"
     inkscape:cx="42.393869"
     inkscape:cy="19.372589"
     inkscape:current-layer="layer1"
     showgrid="true"
     inkscape:grid-bbox="true"
     inkscape:document-units="px"
     inkscape:window-width="1680"
     inkscape:window-height="1026"
     inkscape:window-x="0"
     inkscape:window-y="24"
     inkscape:window-maximized="1" />
  <metadata
     id="metadata5499">
    <rdf:RDF>
      <cc:Work
         rdf:about="">
        <dc:format>image/svg+xml</dc:format>
        <dc:type
           rdf:resource="http://purl.org/dc/dcmitype/StillImage" />
        <dc:title></dc:title>
      </cc:Work>
    </rdf:RDF>
  </metadata>
  <g
     id="layer1"
     inkscape:label="Layer 1"
     inkscape:groupmode="layer">
    <path
       style="fill:#ffffff"
       inkscape:connector-curvature="0"
       d="M 27.081102,13.078581 C 27.552913,9.92374 25.150729,8.2284511 21.866495,7.0971606 L 22.931608,2.8241982 20.33089,2.1759115 19.293433,6.3362716 C 18.60893,6.165722 17.907306,6.0050494 17.208974,5.8460235 l 1.04404,-4.1880169 -2.599071,-0.6482861 -1.066431,4.272303 C 14.021537,5.1529591 13.466098,5.02587 12.926465,4.8915373 l 0.0025,-0.013169 L 9.3421705,3.982818 8.6500943,6.760671 c 0,0 1.9297147,0.4421785 1.8888887,0.4698352 1.053587,0.2630682 1.243564,0.9600825 1.211956,1.5125588 l -1.213195,4.867908 c 0.07244,0.01877 0.16627,0.04478 0.270313,0.08692 -0.08692,-0.02172 -0.179441,-0.04511 -0.274592,-0.06816 l -1.7008532,6.818702 c -0.1290645,0.320028 -0.4560063,0.800398 -1.1922015,0.617997 0.02601,0.03753 -1.8915215,-0.471811 -1.8915215,-0.471811 l -1.2906462,2.976718 3.3846546,0.843857 c 0.6291899,0.157711 1.2471857,0.322333 1.8543163,0.478396 l -1.0756484,4.32202 2.5980859,0.648286 1.06577,-4.275926 c 0.710514,0.192282 1.399298,0.370404 2.073594,0.537989 l -1.062149,4.255841 2.601048,0.648287 1.076635,-4.313788 c 4.43594,0.83892 7.771536,0.500454 9.174786,-3.510757 1.131621,-3.229908 -0.05597,-5.093114 -2.389673,-6.308362 1.699243,-0.391804 2.980011,-1.509927 3.32144,-3.818602 z m -5.942571,8.333559 c -0.804679,3.230239 -6.242513,1.483914 -8.006616,1.045687 l 1.42827,-5.725268 c 1.763114,0.439544 7.417925,1.310731 6.578346,4.679581 z m 0.803362,-8.379982 c -0.732902,2.938197 -5.259714,1.445063 -6.728155,1.078941 l 1.294599,-5.1928765 c 1.468111,0.3661225 6.197736,1.0493085 5.433556,4.1139355 z"
       id="path167" />
  </g>
</svg>
