<?xml version="1.0" encoding="UTF-8" standalone="no"?>
<!-- Created with Inkscape (http://www.inkscape.org/) -->

<svg
   xmlns:dc="http://purl.org/dc/elements/1.1/"
   xmlns:cc="http://creativecommons.org/ns#"
   xmlns:rdf="http://www.w3.org/1999/02/22-rdf-syntax-ns#"
   xmlns:svg="http://www.w3.org/2000/svg"
   xmlns="http://www.w3.org/2000/svg"
   xmlns:sodipodi="http://sodipodi.sourceforge.net/DTD/sodipodi-0.dtd"
   xmlns:inkscape="http://www.inkscape.org/namespaces/inkscape"
   width="32px"
   height="32px"
   id="svg3789"
   version="1.1"
   inkscape:version="0.48.3.1 r9886"
   sodipodi:docname="icon-involve.svg"
   inkscape:export-filename="/var/www/en/img/ico-involve.png"
   inkscape:export-xdpi="90"
   inkscape:export-ydpi="90">
  <defs
     id="defs3791" />
  <sodipodi:namedview
     id="base"
     pagecolor="#000000"
     bordercolor="#666666"
     borderopacity="1.0"
     inkscape:pageopacity="0"
     inkscape:pageshadow="2"
     inkscape:zoom="15.836083"
     inkscape:cx="1.9774948"
     inkscape:cy="25.422394"
     inkscape:current-layer="layer1"
     showgrid="true"
     inkscape:grid-bbox="true"
     inkscape:document-units="px"
     inkscape:window-width="1680"
     inkscape:window-height="1026"
     inkscape:window-x="0"
     inkscape:window-y="24"
     inkscape:window-maximized="1" />
  <metadata
     id="metadata3794">
    <rdf:RDF>
      <cc:Work
         rdf:about="">
        <dc:format>image/svg+xml</dc:format>
        <dc:type
           rdf:resource="http://purl.org/dc/dcmitype/StillImage" />
        <dc:title></dc:title>
      </cc:Work>
    </rdf:RDF>
  </metadata>
  <g
     id="layer1"
     inkscape:label="Layer 1"
     inkscape:groupmode="layer">
    <path
       style="fill:#ffffff;fill-opacity:1;stroke:#ffffff;stroke-width:0.77984195999999995;stroke-linecap:butt;stroke-linejoin:miter;stroke-miterlimit:4;stroke-opacity:1;stroke-dasharray:none"
       d="m 8.0013022,26.990098 c -0.2719595,0.470614 8.6754438,4.597789 9.0608198,3.8516 0.362759,-0.702393 1.000051,-3.3984 1.533258,-3.753955 0.58423,-0.324629 1.226346,-1.152208 1.640432,-1.552002 0.779689,-0.745977 0.873915,-1.046446 1.488615,-1.765113 1.125371,-1.315709 2.268153,-2.770676 3.195057,-4.266508 0.926903,-1.495831 2.842236,-4.177295 2.842236,-4.177295 0,0 1.324596,-1.744598 1.872534,-3.143416 0.127746,-0.326139 -0.315169,-1.183065 -0.639646,-1.346171 -0.347074,-0.174464 -0.749677,0.254424 -0.987896,0.544135 -1.03495,1.258656 -1.954753,2.3485 -2.945088,3.37773 -0.834802,0.867589 -2.814342,2.564608 -2.814342,2.564608 l -0.286928,-0.237514 1.282849,-2.660611 2.024459,-4.391685 c 0,0 1.26831,-2.5530372 1.620955,-3.8935334 0.0967,-0.3676098 -0.281553,-0.8017007 -0.624057,-0.9861231 -0.301222,-0.1621938 -0.82798,-0.247796 -1.02616,0.019202 -0.68608,0.9243169 -1.463796,2.3959858 -2.148553,3.6211318 -1.21127,2.1671647 -4.134382,6.4146087 -4.134382,6.4146087 L 18.36438,15.095519 21.095183,7.4722854 c 0,0 1.251381,-3.3432592 1.892146,-4.8898431 0.20843,-0.5028027 -0.522475,-1.1805606 -1.075613,-1.2894872 -0.494441,-0.097373 -1.0851,0.2710724 -1.301279,0.7070574 -0.528934,1.0667239 -1.316055,2.9720823 -1.316055,2.9720823 l -2.128873,5.1634202 -1.519076,3.320513 -0.591084,-0.113667 1.125459,-6.1661131 c 0,0 0.226153,-1.7790266 0.734754,-4.2767186 0.07127,-0.3500021 -0.445146,-0.8831337 -0.871379,-1.0078596 -0.433348,-0.1268078 -1.156672,-0.051707 -1.29856,0.3854502 -0.625167,1.9261222 -0.811869,2.946123 -1.275644,4.6741452 -0.614139,2.2882824 -1.418038,6.8976019 -1.418038,6.8976019 L 11.334606,14.643263 9.9252935,15.381191 8.6513321,12.390559 C 7.985699,11.200844 7.4549561,9.2705763 6.6907383,9.1258953 5.9265279,8.9811753 5.417049,9.8685073 5.417049,9.8685073 l 0.470345,1.8944887 0.9261503,3.386502 1.0997576,4.113103 0.6782101,1.635164 1.2959629,2.453891 c 0,0 -0.099381,0.921852 -0.8596059,1.910858 -0.4089499,0.532017 -0.7031924,1.168008 -1.0265668,1.727584 z"
       id="path3797"
       inkscape:connector-curvature="0"
       sodipodi:nodetypes="ssccszcssssccccsasscccsascccccsasscccczccccccss" />
  </g>
</svg>
