<?xml version="1.0" encoding="UTF-8" standalone="no"?>
<!-- Created with Inkscape (http://www.inkscape.org/) -->

<svg
   xmlns:dc="http://purl.org/dc/elements/1.1/"
   xmlns:cc="http://creativecommons.org/ns#"
   xmlns:rdf="http://www.w3.org/1999/02/22-rdf-syntax-ns#"
   xmlns:svg="http://www.w3.org/2000/svg"
   xmlns="http://www.w3.org/2000/svg"
   xmlns:sodipodi="http://sodipodi.sourceforge.net/DTD/sodipodi-0.dtd"
   xmlns:inkscape="http://www.inkscape.org/namespaces/inkscape"
   width="32px"
   height="32px"
   id="svg2984"
   version="1.1"
   inkscape:version="0.48.3.1 r9886"
   sodipodi:docname="Nouveau document 1">
  <defs
     id="defs2986" />
  <sodipodi:namedview
     id="base"
     pagecolor="#ffffff"
     bordercolor="#666666"
     borderopacity="1.0"
     inkscape:pageopacity="0.0"
     inkscape:pageshadow="2"
     inkscape:zoom="15.836083"
     inkscape:cx="-12.001508"
     inkscape:cy="15.129286"
     inkscape:current-layer="layer1"
     showgrid="true"
     inkscape:grid-bbox="true"
     inkscape:document-units="px"
     inkscape:window-width="1680"
     inkscape:window-height="1026"
     inkscape:window-x="0"
     inkscape:window-y="24"
     inkscape:window-maximized="1" />
  <metadata
     id="metadata2989">
    <rdf:RDF>
      <cc:Work
         rdf:about="">
        <dc:format>image/svg+xml</dc:format>
        <dc:type
           rdf:resource="http://purl.org/dc/dcmitype/StillImage" />
        <dc:title></dc:title>
      </cc:Work>
    </rdf:RDF>
  </metadata>
  <g
     id="layer1"
     inkscape:label="Layer 1"
     inkscape:groupmode="layer">
    <path
       style="fill:#ffffff;stroke:#ffffff;stroke-width:1px;stroke-linecap:butt;stroke-linejoin:round;stroke-opacity:1;fill-opacity:1"
       d="m 15.976173,29.410976 c 0,0 -2.737074,-1.369993 -3.978257,-2.904759 -1.241182,-1.534766 -2.1703189,-3.56142 -1.957555,-5.493783 0.242239,-2.200052 1.568807,-3.940562 3.662522,-5.051753 2.093715,-1.111191 5.74637,-0.189441 5.74637,-0.189441 l -0.06315,4.483432 11.11386,-7.261897 -10.734978,-7.5144842 -0.126294,3.9151095 c 0,0 -5.222792,-0.1961592 -7.703924,0.8840567 -1.421607,0.618929 -3.6214447,1.931689 -4.4834327,3.220493 -0.7808862,1.167545 -1.4701226,2.593413 -1.704967,3.978257 -0.2181954,1.286666 0.015856,3.681814 0.5051754,4.891643 0.4889738,1.208973 0.8221548,2.457446 3.4099341,4.609725 1.7370382,1.44471 6.3146932,2.433401 6.3146932,2.433401 z"
       id="path2992"
       inkscape:connector-curvature="0"
       sodipodi:nodetypes="czszcccccsssssc" />
  </g>
</svg>
