<?xml version="1.0" encoding="UTF-8" standalone="no"?>
<!-- Created with Inkscape (http://www.inkscape.org/) -->

<svg
   xmlns:dc="http://purl.org/dc/elements/1.1/"
   xmlns:cc="http://creativecommons.org/ns#"
   xmlns:rdf="http://www.w3.org/1999/02/22-rdf-syntax-ns#"
   xmlns:svg="http://www.w3.org/2000/svg"
   xmlns="http://www.w3.org/2000/svg"
   xmlns:sodipodi="http://sodipodi.sourceforge.net/DTD/sodipodi-0.dtd"
   xmlns:inkscape="http://www.inkscape.org/namespaces/inkscape"
   width="42"
   height="42"
   id="svg2986"
   version="1.1"
   inkscape:version="0.48.4 r9939"
   sodipodi:docname="but_linux.svg"
   inkscape:export-filename="/media/X/bitcoin.org/current/img/but_linux.png"
   inkscape:export-xdpi="90"
   inkscape:export-ydpi="90">
  <defs
     id="defs2988">
    <filter
       inkscape:collect="always"
       id="filter3961"
       x="-0.15915464"
       width="1.3183093"
       y="-0.13148048"
       height="1.262961">
      <feGaussianBlur
         inkscape:collect="always"
         stdDeviation="2.0473964"
         id="feGaussianBlur3963" />
    </filter>
  </defs>
  <sodipodi:namedview
     id="base"
     pagecolor="#ffffff"
     bordercolor="#666666"
     borderopacity="1.0"
     inkscape:pageopacity="0.0"
     inkscape:pageshadow="2"
     inkscape:zoom="14"
     inkscape:cx="13.684296"
     inkscape:cy="17.381463"
     inkscape:current-layer="layer1"
     showgrid="true"
     inkscape:grid-bbox="true"
     inkscape:document-units="px"
     inkscape:window-width="1280"
     inkscape:window-height="1000"
     inkscape:window-x="1680"
     inkscape:window-y="24"
     inkscape:window-maximized="1" />
  <metadata
     id="metadata2991">
    <rdf:RDF>
      <cc:Work
         rdf:about="">
        <dc:format>image/svg+xml</dc:format>
        <dc:type
           rdf:resource="http://purl.org/dc/dcmitype/StillImage" />
        <dc:title></dc:title>
      </cc:Work>
    </rdf:RDF>
  </metadata>
  <g
     id="layer1"
     inkscape:label="Layer 1"
     inkscape:groupmode="layer"
     transform="translate(0,-6)">
    <path
       id="path4004-5"
       d="m 21.012236,8.9160113 c -0.239994,-3.46e-4 -0.490324,0.0096 -0.751372,0.03045 -6.597709,0.531349 -4.847956,7.5014887 -4.945876,9.8355667 -0.12049,1.706893 -0.466566,3.052041 -1.640497,4.720739 -1.379202,1.64011 -3.320953,4.294649 -4.24081,7.05793 -0.4341361,1.304151 -0.6407201,2.633433 -0.4499331,3.891506 -0.05978,0.05349 -0.116658,0.109598 -0.170762,0.167359 -0.404928,0.432295 -0.704131,0.956086 -1.037511,1.308751 -0.311465,0.310698 -0.755233,0.428878 -1.242892,0.603833 -0.487845,0.175039 -1.023464,0.433097 -1.348588,1.056983 0,0 0,2.49e-4 -2.43e-4,2.49e-4 -3.46e-4,6.93e-4 -0.0014,0.0021 -0.0014,0.0034 l 0,0 c -0.294318,0.549715 -0.20682,1.182761 -0.116934,1.769273 0.08989,0.586499 0.180885,1.140711 0.06006,1.516729 -0.386093,1.055308 -0.435395,1.785284 -0.163593,2.314778 0.272383,0.530603 0.832414,0.764796 1.465377,0.896995 1.265921,0.264399 2.9803151,0.198703 4.3314581,0.91482 l 0.116131,-0.21913 -0.114934,0.219781 c 1.44646,0.756256 2.912889,1.024861 4.082835,0.757633 0.848239,-0.193741 1.536802,-0.698818 1.890422,-1.475992 0.915088,-0.0042 1.919241,-0.392072 3.527764,-0.480636 1.091222,-0.0879 2.454355,0.387498 4.022288,0.300442 0.04096,0.170106 0.100295,0.333719 0.181494,0.489202 6.92e-4,0.0021 0.0014,0.0034 0.0027,0.0049 0.607816,1.215429 1.73718,1.771357 2.940732,1.676371 1.205138,-0.09511 2.486448,-0.80571 3.522187,-2.038314 l -0.189873,-0.159566 0.191327,0.157822 c 0.98722,-1.197042 2.625836,-1.693405 3.712372,-2.34874 0.543266,-0.327671 0.984086,-0.737955 1.01815,-1.333878 0.03404,-0.595632 -0.315643,-1.263126 -1.119737,-2.155704 l -2.48e-4,-2.42e-4 c -2.41e-4,-3.47e-4 -6.93e-4,-6.92e-4 -6.93e-4,-0.0014 -0.264197,-0.298565 -0.390231,-0.85192 -0.525681,-1.441191 -0.135355,-0.588915 -0.286437,-1.22419 -0.76993,-1.635885 l 0,0 c -0.0014,-6.91e-4 -0.0021,-0.0014 -0.0027,-0.0027 l 0,0 c -0.192421,-0.167669 -0.392384,-0.281468 -0.593757,-0.357929 0.672211,-1.993594 0.408462,-3.978722 -0.270087,-5.772595 -0.832774,-2.201623 -2.286664,-4.119959 -3.397032,-5.432267 -1.24287,-1.567691 -2.458505,-3.056082 -2.434557,-5.254399 0.03702,-3.355106 0.36905,-9.5770367 -5.534919,-9.5850977 z m 0.799283,5.1688577 c 0.335018,0 0.621144,0.09821 0.915061,0.311533 0.298581,0.216708 0.51369,0.488 0.687062,0.866848 0.170158,0.369222 0.252024,0.730405 0.260058,1.15902 0,0.01125 0,0.02083 0.0034,0.0321 0.0027,0.439843 -0.07224,0.813875 -0.239191,1.195935 -0.09525,0.218008 -0.204661,0.400978 -0.335606,0.559395 -0.04443,-0.02132 -0.09062,-0.04187 -0.138502,-0.06159 l 0,0 c -0.331908,-0.142155 -0.58652,-0.232622 -0.79873,-0.306253 0.07692,-0.09246 0.140971,-0.202128 0.197297,-0.339221 0.08509,-0.207075 0.126823,-0.409349 0.13485,-0.650136 0,-0.0096 0.0027,-0.0177 0.0027,-0.02886 0.0049,-0.231155 -0.02567,-0.428608 -0.09312,-0.630874 -0.07064,-0.211898 -0.160529,-0.364392 -0.290554,-0.491215 -0.130025,-0.126822 -0.26006,-0.184608 -0.415772,-0.189423 -0.0073,-3.48e-4 -0.0146,-3.48e-4 -0.0218,-3.48e-4 -0.146467,3.48e-4 -0.273649,0.05064 -0.405231,0.160827 -0.138061,0.115581 -0.240797,0.263262 -0.325879,0.468741 -0.08508,0.205478 -0.126816,0.409342 -0.134836,0.651749 -0.0014,0.0096 -0.0014,0.0177 -0.0014,0.02734 -0.0027,0.133238 0.0056,0.2553 0.02623,0.373826 -0.299703,-0.149333 -0.582126,-0.251148 -0.847187,-0.314233 -0.01516,-0.114619 -0.0238,-0.232901 -0.02664,-0.356568 l 0,-0.03369 c -0.0049,-0.438246 0.0674,-0.813877 0.235979,-1.195935 0.168555,-0.382058 0.377242,-0.656567 0.671008,-0.879697 0.293764,-0.223137 0.582713,-0.325872 0.924646,-0.329082 0.0056,0 0.01067,0 0.01599,0 z m -4.585391,0.363043 c 0.222243,3.45e-4 0.421112,0.07477 0.626812,0.239044 0.223134,0.178181 0.39169,0.406126 0.532955,0.727189 0.141263,0.321056 0.216713,0.642112 0.237575,1.020967 l 0,0.0034 c 0.01009,0.15911 0.0089,0.308885 -0.0034,0.453932 -0.04393,0.01253 -0.08703,0.02602 -0.129224,0.04055 -0.239631,0.08247 -0.450824,0.194897 -0.634886,0.316448 0.01798,-0.127148 0.02069,-0.256152 0.0069,-0.399983 -0.0021,-0.008 -0.0021,-0.01445 -0.0021,-0.02249 -0.01931,-0.191024 -0.05938,-0.351551 -0.126823,-0.513685 -0.07224,-0.168554 -0.152501,-0.287343 -0.258448,-0.378855 -0.09601,-0.08292 -0.18674,-0.120996 -0.286547,-0.12024 -0.01033,0 -0.02076,3.43e-4 -0.03127,0.0014 -0.11237,0.0096 -0.205477,0.06421 -0.293766,0.171759 -0.08828,0.107554 -0.146078,0.240794 -0.187818,0.417368 -0.04171,0.176582 -0.05301,0.349959 -0.03529,0.549017 0,0.008 0.0014,0.01445 0.0014,0.02242 0.0193,0.192635 0.05777,0.353162 0.126816,0.515302 0.07063,0.166949 0.152501,0.285738 0.258445,0.377234 0.01779,0.01536 0.03528,0.02914 0.0528,0.04139 -0.110199,0.08482 -0.162824,0.123916 -0.253133,0.190275 -0.05791,0.04249 -0.126905,0.0931 -0.207076,0.152205 -0.17485,-0.163796 -0.311258,-0.369654 -0.430523,-0.640708 -0.141265,-0.321055 -0.216716,-0.642119 -0.23919,-1.020958 l 0,-0.0034 c -0.02084,-0.378848 0.01605,-0.704727 0.120401,-1.041828 0.104342,-0.337109 0.244005,-0.581116 0.446267,-0.781785 0.202265,-0.200656 0.406138,-0.301785 0.651748,-0.314627 0.01918,-6.92e-4 0.03821,-0.0014 0.05702,-0.0014 z m 2.085415,2.628307 c 0.516546,-0.0021 1.138142,0.167352 1.890669,0.65119 0.462236,0.300595 0.82191,0.325713 1.650132,0.68044 l 0.0014,3.44e-4 6.93e-4,3.47e-4 c 0.398492,0.163495 0.632388,0.376614 0.746658,0.601023 0.114273,0.224416 0.117066,0.467778 0.02139,0.723784 -0.191287,0.512022 -0.80188,1.050871 -1.658713,1.31844 l -6.92e-4,3.45e-4 -6.91e-4,3.46e-4 c -0.417784,0.135743 -0.782096,0.435492 -1.211589,0.681089 -0.429478,0.245592 -0.915468,0.443666 -1.576284,0.405442 l 0,0 c -0.562563,-0.03279 -0.898842,-0.223774 -1.20291,-0.468148 -0.304069,-0.24437 -0.569048,-0.551381 -0.95705,-0.779216 l -6.93e-4,-6.91e-4 -6.9e-4,-6.92e-4 c -0.624988,-0.353245 -0.966193,-0.761821 -1.073279,-1.116021 -0.107091,-0.3542 -0.0069,-0.656539 0.303493,-0.888928 0.34863,-0.26127 0.590802,-0.438992 0.752125,-0.557379 0.160259,-0.1176 0.22693,-0.161691 0.277968,-0.210696 2.42e-4,-3.47e-4 3.46e-4,-3.47e-4 6.92e-4,-6.9e-4 l 2.43e-4,-3.47e-4 c 0.261949,-0.24795 0.679518,-0.699696 1.308952,-0.916363 0.216646,-0.07457 0.458383,-0.122684 0.728952,-0.123757 z m 3.612086,2.136282 c -0.222907,0.01335 -0.456361,0.128055 -0.728197,0.279815 -0.271831,0.151761 -0.577518,0.345897 -0.908794,0.537071 -0.662544,0.382349 -1.425229,0.74801 -2.183182,0.74801 -0.759128,0 -1.365638,-0.350596 -1.82054,-0.711088 -0.227455,-0.180247 -0.415183,-0.361803 -0.565166,-0.502251 -0.07498,-0.07024 -0.140018,-0.130081 -0.200709,-0.176837 -0.06069,-0.04678 -0.110062,-0.0931 -0.211596,-0.0931 l -0.0049,0.213352 c -0.0073,0.0714 -0.01474,0.0692 -0.01176,0.07114 0.0049,0.0034 0.02829,0.01125 0.05577,0.03245 0.04464,0.03431 0.106535,0.0904 0.180042,0.159219 0.147,0.137667 0.342333,0.326933 0.582817,0.517511 0.480973,0.381146 1.149871,0.772186 1.996021,0.772186 0.847326,0 1.648996,-0.396043 2.324451,-0.785831 0.337721,-0.194905 0.644451,-0.389449 0.905279,-0.535065 0.260814,-0.145615 0.480254,-0.236926 0.607298,-0.244504 l -0.01683,-0.28203 z m 0.753177,1.013984 c 0.562778,2.218452 1.871731,5.422739 2.71303,6.986493 0.44718,0.829654 1.28327,2.324509 1.667646,4.448267 0.01676,1.2259 -0.754581,1.038027 -0.924498,1.955317 -0.01232,0.06684 -0.02228,0.134994 -0.02975,0.204073 -0.106859,0.03709 -0.214299,0.08448 -0.32201,0.143422 -0.671623,0.367494 -1.038204,1.0343 -1.24209,1.852142 -0.203717,0.817184 -0.262129,1.805109 -0.31835,2.91565 0,2.49e-4 0,3.46e-4 0,6.92e-4 -0.03439,0.558418 -0.263933,1.313693 -0.496785,2.113667 -2.343059,1.671342 -5.595016,2.395456 -8.356041,0.511172 -0.187119,-0.295999 -0.401765,-0.589273 -0.622708,-0.878526 -0.141084,-0.184731 -0.286022,-0.368309 -0.430109,-0.549326 0.283434,0 0.524353,-0.04622 0.719064,-0.134482 0.242137,-0.109794 0.412263,-0.28614 0.496432,-0.512542 0.168334,-0.45279 -6.91e-4,-1.091533 -0.539624,-1.820947 -0.538857,-0.729362 -1.451491,-1.552511 -2.792543,-2.374961 0,0 -2.42e-4,0 -2.42e-4,-2.41e-4 -1.18922,-0.986527 -0.851176,-2.51188 0.352552,-6.022323 0.881342,-1.997805 2.724785,-5.462256 2.871197,-8.223467 0.0755,0.0548 0.334895,0.229847 0.450487,0.295577 2.42e-4,3.46e-4 3.46e-4,3.46e-4 6.93e-4,3.46e-4 0.338182,0.199152 0.592172,0.490259 0.921129,0.754637 0.32961,0.264897 0.741381,0.493694 1.363487,0.529945 l 0,0 c 0.726122,0.04201 1.279538,-0.182886 1.732951,-0.442162 0.452736,-0.258876 0.814411,-0.545375 1.157062,-0.657211 3.46e-4,-3.45e-4 6.92e-4,-3.45e-4 0.0014,-3.45e-4 0.724052,-0.226423 1.29975,-0.627179 1.627358,-1.094606 z m 3.414637,14.13507 c 0.05917,0.959928 0.534095,1.93894 1.374024,2.150826 0.919146,0.242179 2.244359,-0.546462 2.80388,-1.189707 0.111568,-0.0042 0.220644,-0.01 0.326575,-0.01252 0.490802,-0.0119 0.902454,0.01612 1.323057,0.384009 l 0.0014,0.0014 0.0014,0.0014 c 0.323216,0.273837 0.476852,0.791339 0.610109,1.371063 0.133244,0.579732 0.239799,1.211124 0.639405,1.660919 l 6.93e-4,6.92e-4 3.45e-4,6.91e-4 c 0.768249,0.852516 1.015188,1.428768 0.994173,1.796551 -0.02103,0.367818 -0.287328,0.640852 -0.779063,0.937446 -0.983053,0.59292 -2.724876,1.108516 -3.837431,2.456127 -0.966044,1.149657 -2.14403,1.781064 -3.181472,1.862936 -1.037435,0.08188 -1.932501,-0.348713 -2.460195,-1.407834 l -0.0014,-0.0027 -0.0014,-0.0027 c -0.327366,-0.622737 -0.190995,-1.605514 0.08478,-2.642147 0.275773,-1.036632 0.671997,-2.101032 0.725034,-2.966162 l 0,-0.0014 0,-0.0014 c 0.05612,-1.108466 0.118152,-2.076483 0.304353,-2.823384 0.186199,-0.746909 0.479389,-1.252761 0.998885,-1.537016 0.02416,-0.01322 0.04822,-0.02567 0.07209,-0.03751 z m -16.870021,0.07244 c 0.07754,2.5e-4 0.159592,0.0069 0.247016,0.02006 0.588041,0.08907 1.100838,0.50024 1.594899,1.170356 0.494059,0.670128 0.95377,1.584892 1.426344,2.599609 l 6.91e-4,0.0014 3.47e-4,0.0014 c 0.379761,0.792612 1.18112,1.664148 1.860224,2.553242 0.679097,0.889099 1.204682,1.781547 1.13624,2.464616 l -2.49e-4,0.0034 -2.43e-4,0.0034 c -0.08854,1.164998 -0.745704,1.799212 -1.754526,2.029635 -1.008526,0.230348 -2.37572,0.0014 -3.741311,-0.712945 -3.46e-4,0 -6.92e-4,0 -0.0014,0 -1.510853,-0.800015 -3.3081701,-0.720542 -4.4611001,-0.96133 -0.576595,-0.120538 -0.952841,-0.301603 -1.125527,-0.638019 -0.172692,-0.336396 -0.176554,-0.923297 0.190427,-1.92401 l 0.0014,-0.0042 0.0014,-0.0042 c 0.181487,-0.559788 0.0472,-1.172312 -0.04096,-1.747233 -0.08811,-0.574924 -0.131202,-1.097857 0.06511,-1.462355 l 6.92e-4,-0.0014 6.92e-4,-0.0021 c 0.251348,-0.484549 0.620024,-0.657739 1.077597,-0.821899 0.457565,-0.164168 1.000145,-0.293095 1.4286,-0.722483 l 0.0021,-0.0021 0.0021,-0.0021 c 0.396091,-0.417849 0.693614,-0.941619 1.0418281,-1.313368 0.293799,-0.313665 0.58782,-0.52155 1.030993,-0.524629 0.0049,0 0.01033,0 0.0155,0 z"
       style="font-size:medium;font-style:normal;font-variant:normal;font-weight:normal;font-stretch:normal;text-indent:0;text-align:start;text-decoration:none;line-height:normal;letter-spacing:normal;word-spacing:normal;text-transform:none;direction:ltr;block-progression:tb;writing-mode:lr-tb;text-anchor:start;baseline-shift:baseline;opacity:0.6;color:#000000;fill:#000000;fill-opacity:1;stroke:#000000;stroke-width:0.40000001000000002;stroke-miterlimit:4;stroke-opacity:1;stroke-dasharray:none;marker:none;visibility:visible;display:inline;overflow:visible;filter:url(#filter3961);enable-background:accumulate;font-family:Bitstream Vera Sans;-inkscape-font-specification:Bitstream Vera Sans"
       inkscape:connector-curvature="0"
       sodipodi:nodetypes="ccccscsccccccsccscccscccccscccsccccccccccscccccsccccccccccccscccscccccccccccccsccccccccccccccccccccsccccccccccccsccccsccscccccccccccccssssccccccccscccccccccccscccccccsccccccccscccccccccccccccccccccscccscccssccccscccscccscccccccccccccccccc"
       transform="matrix(0.95110883,0,0,0.95110883,2.2699103,1.4416795)" />
    <path
       id="path4004-5-6"
       d="m 22.327618,8.4048878 c -0.22826,-3.291e-4 -0.466351,0.00913 -0.714636,0.028962 -6.275138,0.505371 -4.610933,7.1347322 -4.704066,9.3546942 -0.114599,1.623441 -0.443756,2.902823 -1.56029,4.489936 -1.311772,1.559924 -3.158588,4.084679 -4.033472,6.71286 -0.41291,1.24039 -0.609394,2.504682 -0.427935,3.701246 -0.05686,0.05087 -0.110955,0.10424 -0.162413,0.159177 -0.385131,0.411159 -0.669706,0.909341 -0.9867863,1.244764 -0.2962371,0.295508 -0.7183087,0.407909 -1.1821255,0.574311 -0.4639937,0.166481 -0.9734266,0.411922 -1.2826549,1.005306 0,0 0,2.37e-4 -2.311e-4,2.37e-4 -3.291e-4,6.59e-4 -0.00134,0.002 -0.00134,0.0032 l 0,0 c -0.2799284,0.522838 -0.1967082,1.124934 -0.1112169,1.682771 0.085495,0.557825 0.1720413,1.08494 0.057123,1.442575 -0.3672164,1.003712 -0.414108,1.697999 -0.1555948,2.201605 0.2590659,0.504661 0.7917173,0.727404 1.393734,0.85314 1.2040286,0.251472 2.8346045,0.188988 4.1196885,0.870093 l 0.110452,-0.208416 -0.109314,0.209035 c 1.37574,0.719282 2.770474,0.974754 3.883219,0.720591 0.806768,-0.184268 1.461667,-0.664651 1.797997,-1.403828 0.870348,-0.004 1.825408,-0.372903 3.355288,-0.457137 1.037871,-0.0836 2.334358,0.368553 3.825633,0.285753 0.03896,0.161789 0.09539,0.317403 0.172621,0.465284 6.58e-4,0.002 0.0014,0.0032 0.0026,0.0046 0.578099,1.156005 1.652248,1.684753 2.796957,1.594411 1.146217,-0.09046 2.364883,-0.766318 3.349983,-1.938658 l -0.18059,-0.151765 0.181973,0.150106 c 0.938953,-1.138517 2.497456,-1.610613 3.530869,-2.233907 0.516706,-0.311651 0.935972,-0.701876 0.968372,-1.268663 0.03238,-0.566511 -0.300211,-1.201371 -1.064991,-2.050309 l -2.38e-4,-2.31e-4 c -2.28e-4,-3.3e-4 -6.59e-4,-6.58e-4 -6.59e-4,-0.0014 -0.251279,-0.283968 -0.371151,-0.81027 -0.499979,-1.37073 -0.128738,-0.560122 -0.272434,-1.164338 -0.732287,-1.555905 l 0,0 c -0.0014,-6.57e-4 -0.002,-0.0014 -0.0026,-0.0026 l 0,0 c -0.183013,-0.159471 -0.3732,-0.267706 -0.564728,-0.340428 0.639346,-1.896126 0.388492,-3.784198 -0.256882,-5.490367 -0.792059,-2.093983 -2.174866,-3.918529 -3.230947,-5.166677 -1.182105,-1.491045 -2.338306,-2.906667 -2.315528,-4.997505 0.03521,-3.191071 0.351006,-9.1088032 -5.264312,-9.11647 z m 0.760206,4.9161462 c 0.318639,0 0.590775,0.09341 0.870323,0.296301 0.283983,0.206113 0.488574,0.464141 0.65347,0.824467 0.161839,0.351171 0.239703,0.694695 0.247344,1.102354 0,0.01071 0,0.01981 0.0032,0.03053 0.0026,0.41834 -0.06871,0.774084 -0.227497,1.137465 -0.0906,0.207349 -0.194655,0.381374 -0.319198,0.532045 -0.04226,-0.02028 -0.08618,-0.03982 -0.13173,-0.05858 l 0,0 c -0.315681,-0.135205 -0.557844,-0.221249 -0.759679,-0.29128 0.07316,-0.08794 0.134079,-0.192245 0.187651,-0.322636 0.08093,-0.196951 0.120622,-0.389335 0.128256,-0.618351 0,-0.0091 0.0026,-0.01683 0.0026,-0.02745 0.0046,-0.219854 -0.02441,-0.407653 -0.08857,-0.60003 -0.06718,-0.201538 -0.15268,-0.346577 -0.276349,-0.467199 -0.123667,-0.120622 -0.247345,-0.175582 -0.395444,-0.180162 -0.007,-3.31e-4 -0.01389,-3.31e-4 -0.02073,-3.31e-4 -0.139306,3.31e-4 -0.260271,0.04816 -0.385419,0.152964 -0.131311,0.109931 -0.229024,0.250391 -0.309947,0.445824 -0.08092,0.195432 -0.120615,0.389328 -0.128243,0.619884 -0.0014,0.0091 -0.0014,0.01683 -0.0014,0.026 -0.0026,0.126723 0.0053,0.242818 0.02494,0.355549 -0.285051,-0.142032 -0.553665,-0.238869 -0.805767,-0.29887 -0.01442,-0.109015 -0.02264,-0.221514 -0.02534,-0.339135 l 0,-0.03204 c -0.0046,-0.41682 0.06411,-0.774086 0.224442,-1.137464 0.160314,-0.363379 0.358798,-0.624467 0.638202,-0.836687 0.279402,-0.212229 0.554223,-0.30994 0.879439,-0.312993 0.0053,0 0.01014,0 0.01521,0 z m -4.361206,0.345293 c 0.211377,3.28e-4 0.400523,0.07111 0.596166,0.227356 0.212226,0.16947 0.37254,0.386271 0.506898,0.691637 0.134357,0.305359 0.206118,0.610718 0.225961,0.97105 l 0,0.0032 c 0.0096,0.151331 0.0084,0.293784 -0.0032,0.431739 -0.04179,0.01191 -0.08278,0.02475 -0.122907,0.03857 -0.227915,0.07844 -0.428783,0.185368 -0.603845,0.300976 0.0171,-0.120931 0.01968,-0.243628 0.0066,-0.380428 -0.002,-0.0076 -0.002,-0.01374 -0.002,-0.02139 -0.01836,-0.181684 -0.05648,-0.334363 -0.120623,-0.48857 -0.0687,-0.160314 -0.145044,-0.273295 -0.245811,-0.360333 -0.09131,-0.07887 -0.17761,-0.11508 -0.272537,-0.114361 -0.0098,0 -0.01975,3.27e-4 -0.02974,0.0014 -0.106876,0.0091 -0.195431,0.06108 -0.279403,0.163363 -0.08397,0.102295 -0.138936,0.229021 -0.178636,0.396962 -0.03967,0.167949 -0.05042,0.332849 -0.03357,0.522175 0,0.0076 0.0014,0.01374 0.0014,0.02132 0.01835,0.183217 0.05495,0.335895 0.120616,0.490108 0.06717,0.158787 0.145045,0.271768 0.24581,0.358791 0.01692,0.01461 0.03356,0.02771 0.05022,0.03937 -0.104811,0.08068 -0.154863,0.117858 -0.240757,0.180973 -0.05507,0.04041 -0.1207,0.08855 -0.196952,0.144762 -0.166301,-0.155787 -0.29604,-0.35158 -0.409474,-0.609382 -0.134358,-0.305358 -0.20612,-0.610726 -0.227495,-0.971042 l 0,-0.0032 c -0.01982,-0.360325 0.01526,-0.670272 0.114514,-0.990892 0.09924,-0.320627 0.232075,-0.552704 0.424449,-0.743562 0.192376,-0.190846 0.386281,-0.287031 0.619882,-0.299245 0.01825,-6.58e-4 0.03635,-0.0014 0.05423,-0.0014 z m 1.983457,2.499806 c 0.491291,-0.002 1.082497,0.15917 1.798232,0.619353 0.439637,0.285898 0.781725,0.309788 1.569455,0.647172 l 0.0014,3.27e-4 6.59e-4,3.3e-4 c 0.379009,0.155501 0.60147,0.358201 0.710153,0.571639 0.108686,0.213444 0.111342,0.444908 0.02035,0.688397 -0.181935,0.486988 -0.762676,0.999493 -1.577617,1.25398 l -6.58e-4,3.28e-4 -6.57e-4,3.29e-4 c -0.397358,0.129106 -0.743858,0.4142 -1.152353,0.64779 -0.408481,0.233585 -0.87071,0.421974 -1.499218,0.385619 l 0,0 c -0.535107,-0.03119 -0.854945,-0.212834 -1.144147,-0.44526 -0.289203,-0.232422 -0.541227,-0.524422 -0.910259,-0.741119 l -6.59e-4,-6.57e-4 -6.56e-4,-6.58e-4 c -0.594431,-0.335975 -0.918955,-0.724575 -1.020806,-1.061457 -0.101855,-0.336884 -0.0066,-0.62444 0.288656,-0.845468 0.331584,-0.248496 0.561917,-0.417529 0.715352,-0.530128 0.152424,-0.111851 0.215835,-0.153785 0.264378,-0.200395 2.3e-4,-3.3e-4 3.29e-4,-3.3e-4 6.58e-4,-6.56e-4 l 2.31e-4,-3.3e-4 c 0.249142,-0.235828 0.646296,-0.665487 1.244957,-0.871561 0.206054,-0.07092 0.435972,-0.116686 0.693312,-0.117706 z m 3.435486,2.031836 c -0.212008,0.0127 -0.434048,0.121795 -0.692594,0.266135 -0.258541,0.144341 -0.549282,0.328986 -0.864362,0.510813 -0.630151,0.363655 -1.355548,0.711438 -2.076444,0.711438 -0.722013,0 -1.29887,-0.333454 -1.731532,-0.676321 -0.216334,-0.171434 -0.394883,-0.344114 -0.537534,-0.477695 -0.07132,-0.06681 -0.133172,-0.123722 -0.190896,-0.168191 -0.05773,-0.0445 -0.104681,-0.08855 -0.20125,-0.08855 l -0.0046,0.202921 c -0.007,0.06791 -0.01402,0.06582 -0.01119,0.06766 0.0046,0.0032 0.02691,0.0107 0.05304,0.03087 0.04245,0.03263 0.101326,0.08598 0.171239,0.151434 0.139813,0.130936 0.325597,0.310949 0.554322,0.492209 0.457459,0.362511 1.093653,0.734433 1.898434,0.734433 0.805899,0 1.568374,-0.37668 2.210806,-0.747411 0.321209,-0.185376 0.612943,-0.370408 0.861018,-0.508905 0.248063,-0.138496 0.456774,-0.225342 0.577608,-0.23255 l -0.01601,-0.268241 z m 0.716354,0.964409 c 0.535263,2.10999 1.78022,5.157615 2.580386,6.644915 0.425317,0.789092 1.22053,2.210862 1.586113,4.230787 0.01594,1.165965 -0.717688,0.987277 -0.879297,1.859719 -0.01172,0.06357 -0.02119,0.128394 -0.02829,0.194096 -0.101635,0.03528 -0.203822,0.08035 -0.306267,0.136409 -0.638786,0.349528 -0.987445,0.983733 -1.181363,1.761589 -0.193756,0.777231 -0.249313,1.716856 -0.302785,2.773101 0,2.37e-4 0,3.29e-4 0,6.58e-4 -0.03271,0.531117 -0.251029,1.249465 -0.472497,2.010328 -2.228504,1.589627 -5.321468,2.278339 -7.947504,0.486179 -0.177971,-0.281527 -0.382123,-0.560462 -0.592263,-0.835573 -0.134186,-0.1757 -0.272038,-0.350303 -0.40908,-0.522469 0.269576,0 0.498716,-0.04396 0.683907,-0.127907 0.230299,-0.104427 0.392108,-0.27215 0.472161,-0.487483 0.160105,-0.430653 -6.57e-4,-1.038167 -0.513241,-1.731919 -0.512512,-0.693703 -1.380524,-1.476607 -2.656011,-2.258847 0,0 -2.31e-4,0 -2.31e-4,-2.28e-4 -1.131077,-0.938295 -0.80956,-2.389072 0.335316,-5.727885 0.838252,-1.90013 2.591566,-5.1952 2.730819,-7.821412 0.07181,0.05212 0.318522,0.218609 0.428463,0.281125 2.3e-4,3.3e-4 3.3e-4,3.3e-4 6.6e-4,3.3e-4 0.321647,0.189415 0.563219,0.466289 0.876093,0.717741 0.313495,0.251946 0.705134,0.469557 1.296824,0.504036 l 0,0 c 0.690621,0.03996 1.216981,-0.173945 1.648226,-0.420544 0.430601,-0.246219 0.774593,-0.518711 1.100492,-0.62508 3.29e-4,-3.28e-4 6.58e-4,-3.28e-4 0.0014,-3.28e-4 0.688652,-0.215353 1.236203,-0.596515 1.547794,-1.041089 z m 3.247692,13.44399 c 0.05627,0.912996 0.507982,1.844144 1.306846,2.04567 0.874208,0.230339 2.134629,-0.519745 2.666795,-1.13154 0.106113,-0.004 0.209856,-0.0095 0.310608,-0.01191 0.466806,-0.01132 0.858332,0.01533 1.258371,0.365235 l 0.0014,0.0014 0.0014,0.0014 c 0.307414,0.260449 0.453538,0.75265 0.58028,1.30403 0.126729,0.551389 0.228075,1.151911 0.608144,1.579716 l 6.59e-4,6.58e-4 3.28e-4,6.57e-4 c 0.730688,0.810835 0.965554,1.358914 0.945567,1.708715 -0.02001,0.349835 -0.273281,0.60952 -0.740974,0.891614 -0.93499,0.563931 -2.591654,1.054318 -3.649814,2.336044 -0.918814,1.093448 -2.039206,1.693985 -3.025927,1.771855 -0.986713,0.07788 -1.838019,-0.331665 -2.339913,-1.339004 l -0.0014,-0.0026 -0.0014,-0.0026 c -0.311361,-0.592291 -0.181656,-1.527019 0.08064,-2.51297 0.26229,-0.98595 0.639143,-1.99831 0.689587,-2.821142 l 0,-0.0014 0,-0.0014 c 0.05337,-1.054272 0.112375,-1.974961 0.289473,-2.685345 0.177095,-0.710392 0.455951,-1.191512 0.950048,-1.46187 0.02298,-0.01257 0.04586,-0.02441 0.06857,-0.03568 z m -16.045226,0.0689 c 0.07375,2.38e-4 0.15179,0.0066 0.234939,0.01908 0.559291,0.08471 1.047017,0.475783 1.516923,1.113136 0.469904,0.637365 0.907139,1.507405 1.356608,2.472511 l 6.57e-4,0.0014 3.3e-4,0.0014 c 0.361195,0.75386 1.123373,1.582785 1.769275,2.428411 0.645896,0.84563 1.145784,1.694444 1.080688,2.344118 l -2.37e-4,0.0032 -2.31e-4,0.0032 c -0.08421,1.108039 -0.709246,1.711246 -1.668745,1.930402 -0.959217,0.219087 -2.259568,0.0014 -3.558394,-0.678088 -3.29e-4,0 -6.58e-4,0 -0.0014,0 C 11.357878,41.553067 9.6484339,41.628654 8.551872,41.399639 8.0034673,41.284994 7.6456155,41.112781 7.4813723,40.792814 7.3171234,40.472864 7.3134503,39.914657 7.66249,38.96287 l 0.00134,-0.004 0.00134,-0.004 C 7.8377839,38.422452 7.710063,37.839874 7.626213,37.293062 7.542411,36.746246 7.5014256,36.24888 7.68814,35.902203 l 6.582e-4,-0.0014 6.581e-4,-0.002 c 0.2390593,-0.460859 0.5897103,-0.625581 1.0249121,-0.781716 0.435194,-0.156141 0.9512467,-0.278765 1.3587536,-0.687159 l 0.002,-0.002 0.002,-0.002 c 0.376726,-0.397419 0.659703,-0.895582 0.990892,-1.249155 0.279435,-0.29833 0.559081,-0.496052 0.980587,-0.49898 0.0046,0 0.0098,0 0.01474,0 z"
       style="font-size:medium;font-style:normal;font-variant:normal;font-weight:normal;font-stretch:normal;text-indent:0;text-align:start;text-decoration:none;line-height:normal;letter-spacing:normal;word-spacing:normal;text-transform:none;direction:ltr;block-progression:tb;writing-mode:lr-tb;text-anchor:start;baseline-shift:baseline;color:#000000;fill:#ffffff;fill-opacity:1;stroke:#ffffff;stroke-width:0.38044354;stroke-miterlimit:4;stroke-opacity:1;stroke-dasharray:none;marker:none;visibility:visible;display:inline;overflow:visible;enable-background:accumulate;font-family:Bitstream Vera Sans;-inkscape-font-specification:Bitstream Vera Sans"
       inkscape:connector-curvature="0"
       sodipodi:nodetypes="ccccscsccccccsccscccscccccscccsccccccccccscccccsccccccccccccscccscccccccccccccsccccccccccccccccccccsccccccccccccsccccsccscccccccccccccssssccccccccscccccccccccscccccccsccccccccscccccccccccccccccccccscccscccssccccscccscccscccccccccccccccccc" />
  </g>
</svg>
