<?xml version="1.0" encoding="UTF-8" standalone="no"?>
<!-- Created with Inkscape (http://www.inkscape.org/) -->

<svg
   xmlns:dc="http://purl.org/dc/elements/1.1/"
   xmlns:cc="http://creativecommons.org/ns#"
   xmlns:rdf="http://www.w3.org/1999/02/22-rdf-syntax-ns#"
   xmlns:svg="http://www.w3.org/2000/svg"
   xmlns="http://www.w3.org/2000/svg"
   xmlns:sodipodi="http://sodipodi.sourceforge.net/DTD/sodipodi-0.dtd"
   xmlns:inkscape="http://www.inkscape.org/namespaces/inkscape"
   xml:space="preserve"
   width="48"
   height="48"
   style="fill-rule:evenodd"
   viewBox="0 0 13.546666 13.546666"
   id="svg2"
   version="1.1"
   inkscape:version="0.48.3.1 r9886"
   sodipodi:docname="Compass_rose_en_04p.svg"><metadata
   id="metadata34"><rdf:RDF><cc:Work
       rdf:about=""><dc:format>image/svg+xml</dc:format><dc:type
         rdf:resource="http://purl.org/dc/dcmitype/StillImage" /><dc:title></dc:title></cc:Work></rdf:RDF></metadata><sodipodi:namedview
   pagecolor="#ffffff"
   bordercolor="#666666"
   borderopacity="1"
   objecttolerance="10"
   gridtolerance="10"
   guidetolerance="10"
   inkscape:pageopacity="0"
   inkscape:pageshadow="2"
   inkscape:window-width="1280"
   inkscape:window-height="800"
   id="namedview32"
   showgrid="false"
   inkscape:zoom="1"
   inkscape:cx="40.338701"
   inkscape:cy="32.568949"
   inkscape:window-x="0"
   inkscape:window-y="0"
   inkscape:window-maximized="0"
   inkscape:current-layer="svg2" />
 <defs
   id="defs4">
  <style
   type="text/css"
   id="style6">
   
    .str1 {stroke:#999999;stroke-width:0.0762}
    .str0 {stroke:#B2B2B2;stroke-width:0.0762}
    .fil0 {fill:none}
    .fil1 {fill:#9999FF}
    .fil2 {fill:#E5E5E5}
    .fil3 {fill:black;fill-rule:nonzero}
   
  </style>
  </defs>
 
<circle
   d="M 76.5,45 C 76.5,62.39697 62.39697,76.5 45,76.5 27.60303,76.5 13.5,62.39697 13.5,45 13.5,27.60303 27.60303,13.5 45,13.5 62.39697,13.5 76.5,27.60303 76.5,45 z"
   style="fill:none;stroke:#000000;stroke-width:0.28222221;stroke-miterlimit:4;stroke-opacity:1;stroke-dasharray:none"
   sodipodi:ry="31.5"
   sodipodi:rx="31.5"
   sodipodi:cy="45"
   sodipodi:cx="45"
   id="circle10"
   r="31.5"
   cy="45"
   cx="45"
   class="fil0 str0"
   transform="matrix(0.18698133,0,0,-0.18698133,-1.7495191,15.188054)" /><polygon
   id="_125488368"
   class="fil1 str1"
   points="45.5813,45.003 53.596,37.003 45.5813,10.003 "
   style="fill:#000000;stroke:#000000;stroke-width:0.56444442;stroke-miterlimit:4;stroke-opacity:1;stroke-dasharray:none"
   transform="matrix(0.18698133,0,0,-0.18698133,-1.7495191,15.188054)" /><polygon
   id="_125485752"
   class="fil2 str1"
   points="45.5813,45.003 37.5666,37.003 45.5813,10.003 "
   style="fill:#ffffff;stroke:#000000;stroke-width:0.56444442;stroke-miterlimit:4;stroke-opacity:1;stroke-dasharray:none"
   transform="matrix(0.18698133,0,0,-0.18698133,-1.7495191,15.188054)" /><polygon
   id="_125486160"
   class="fil1 str1"
   points="45.5813,45.003 53.5813,53.0177 80.5813,45.003 "
   style="fill:#000000;stroke:#000000;stroke-width:0.56444442;stroke-miterlimit:4;stroke-opacity:1;stroke-dasharray:none"
   transform="matrix(0.18698133,0,0,-0.18698133,-1.7495191,15.188054)" /><polygon
   id="_125485464"
   class="fil2 str1"
   points="45.5813,45.003 53.5813,36.9883 80.5813,45.003 "
   style="fill:#ffffff;stroke:#000000;stroke-width:0.56444442;stroke-miterlimit:4;stroke-opacity:1;stroke-dasharray:none"
   transform="matrix(0.18698133,0,0,-0.18698133,-1.7495191,15.188054)" /><polygon
   id="_125486136"
   class="fil1 str1"
   points="45.5813,45.003 37.5666,53.003 45.5813,80.003 "
   style="fill:#000000;stroke:#000000;stroke-width:0.56444442;stroke-miterlimit:4;stroke-opacity:1;stroke-dasharray:none"
   transform="matrix(0.18698133,0,0,-0.18698133,-1.7495191,15.188054)" /><polygon
   id="_125485440"
   class="fil2 str1"
   points="45.5813,45.003 53.596,53.003 45.5813,80.003 "
   style="fill:#ffffff;stroke:#000000;stroke-width:0.56444442;stroke-miterlimit:4;stroke-opacity:1;stroke-dasharray:none"
   transform="matrix(0.18698133,0,0,-0.18698133,-1.7495191,15.188054)" /><polygon
   id="_125488056"
   class="fil1 str1"
   points="45.5813,45.003 37.5813,36.9883 10.5813,45.003 "
   style="fill:#000000;stroke:#000000;stroke-width:0.56444442;stroke-miterlimit:4;stroke-opacity:1;stroke-dasharray:none"
   transform="matrix(0.18698133,0,0,-0.18698133,-1.7495191,15.188054)" /><polygon
   id="_125486208"
   class="fil2 str1"
   points="45.5813,45.003 37.5813,53.0177 10.5813,45.003 "
   style="fill:#ffffff;stroke:#000000;stroke-width:0.56444442;stroke-miterlimit:4;stroke-opacity:1;stroke-dasharray:none"
   transform="matrix(0.18698133,0,0,-0.18698133,-1.7495191,15.188054)" /><path
   style="fill:none;stroke:#000000;stroke-width:0.15696824px;stroke-linecap:butt;stroke-linejoin:miter;stroke-opacity:1"
   d="M 8.9329554,4.7290382 11.932577,1.7294216"
   id="path3804"
   inkscape:connector-curvature="0" /><path
   style="fill:none;stroke:#000000;stroke-width:0.16438642px;stroke-linecap:butt;stroke-linejoin:miter;stroke-opacity:1"
   d="M 8.8605813,8.8551168 12.004951,11.993504"
   id="path3804-4"
   inkscape:connector-curvature="0" /><path
   style="fill:none;stroke:#000000;stroke-width:0.16195713px;stroke-linecap:butt;stroke-linejoin:miter;stroke-opacity:1"
   d="M 1.659623,1.6832236 4.757519,4.7752362"
   id="path3804-4-5"
   inkscape:connector-curvature="0" /><path
   style="fill:none;stroke:#000000;stroke-width:0.15696824px;stroke-linecap:butt;stroke-linejoin:miter;stroke-opacity:1"
   d="M 1.7087612,11.924122 4.7083808,8.9244992"
   id="path3804-5"
   inkscape:connector-curvature="0" /></svg>
