<?xml version="1.0" encoding="UTF-8" standalone="no"?>
<!-- Created with Inkscape (http://www.inkscape.org/) -->

<svg
   xmlns:dc="http://purl.org/dc/elements/1.1/"
   xmlns:cc="http://creativecommons.org/ns#"
   xmlns:rdf="http://www.w3.org/1999/02/22-rdf-syntax-ns#"
   xmlns:svg="http://www.w3.org/2000/svg"
   xmlns="http://www.w3.org/2000/svg"
   xmlns:sodipodi="http://sodipodi.sourceforge.net/DTD/sodipodi-0.dtd"
   xmlns:inkscape="http://www.inkscape.org/namespaces/inkscape"
   width="32"
   height="32"
   id="svg2"
   version="1.1"
   inkscape:version="0.48.4 r9939"
   sodipodi:docname="ico_multisig.svg"
   inkscape:export-filename="/media/X/bitcoin.org/current/img/ico_multisig.png"
   inkscape:export-xdpi="90"
   inkscape:export-ydpi="90">
  <defs
     id="defs4" />
  <sodipodi:namedview
     id="base"
     pagecolor="#ffffff"
     bordercolor="#666666"
     borderopacity="1.0"
     inkscape:pageopacity="0.0"
     inkscape:pageshadow="2"
     inkscape:zoom="7.919596"
     inkscape:cx="-20.940661"
     inkscape:cy="25.235412"
     inkscape:document-units="px"
     inkscape:current-layer="layer1"
     showgrid="false"
     inkscape:window-width="1680"
     inkscape:window-height="1026"
     inkscape:window-x="0"
     inkscape:window-y="24"
     inkscape:window-maximized="1" />
  <metadata
     id="metadata7">
    <rdf:RDF>
      <cc:Work
         rdf:about="">
        <dc:format>image/svg+xml</dc:format>
        <dc:type
           rdf:resource="http://purl.org/dc/dcmitype/StillImage" />
        <dc:title></dc:title>
      </cc:Work>
    </rdf:RDF>
  </metadata>
  <g
     inkscape:label="Calque 1"
     inkscape:groupmode="layer"
     id="layer1"
     transform="translate(0,-1020.3622)">
    <path
       sodipodi:type="arc"
       style="opacity:0.98999999;fill:#000000;fill-opacity:1;stroke:#000000;stroke-width:0.1;stroke-linecap:round;stroke-linejoin:round;stroke-miterlimit:4;stroke-opacity:1;stroke-dasharray:none"
       id="path4293-3"
       sodipodi:cx="12.867188"
       sodipodi:cy="10.052734"
       sodipodi:rx="0.2109375"
       sodipodi:ry="0.20898438"
       d="m 13.078126,10.052734 a 0.2109375,0.20898438 0 1 1 -0.421875,0 0.2109375,0.20898438 0 1 1 0.421875,0 z"
       transform="matrix(19.98546,-16.769793,16.769793,19.98546,-417.71784,1042.6765)" />
    <path
       style="fill:#000000;fill-opacity:1;stroke:#000000;stroke-width:0;stroke-linecap:butt;stroke-linejoin:miter;stroke-miterlimit:4;stroke-opacity:1;stroke-dasharray:none"
       d="m 4.9867332,1031.7716 0.1153529,13.2685 1.769452,2.1086 1.2840829,-1.0635 0.6355761,-2.4884 -0.4611129,-1.6763 1.8205948,-1.6264 -1.1237327,-2.0722 1.2546747,-1.8148 0.743914,-6.8857 z"
       id="path4297-3"
       inkscape:connector-curvature="0"
       sodipodi:nodetypes="ccccccccccc" />
    <path
       sodipodi:type="arc"
       style="opacity:0.98999999;fill:#ffffff;fill-opacity:1;fill-rule:nonzero;stroke:#ffffff;stroke-width:3;stroke-linecap:round;stroke-linejoin:round;stroke-miterlimit:4;stroke-opacity:1;stroke-dasharray:none;stroke-dashoffset:0"
       id="path2986"
       sodipodi:cx="22.033953"
       sodipodi:cy="8.5770874"
       sodipodi:rx="1.1995561"
       sodipodi:ry="1.1995561"
       d="m 23.233509,8.5770874 a 1.1995561,1.1995561 0 1 1 -2.399112,0 1.1995561,1.1995561 0 1 1 2.399112,0 z"
       transform="matrix(0.52449215,-0.44010116,0.44010116,0.52449215,-7.0620827,1030.6973)" />
    <path
       sodipodi:type="arc"
       style="opacity:0.98999999;fill:#000000;fill-opacity:1;stroke:#000000;stroke-width:0.1;stroke-linecap:round;stroke-linejoin:round;stroke-miterlimit:4;stroke-opacity:1;stroke-dasharray:none"
       id="path4293-3-9"
       sodipodi:cx="12.867188"
       sodipodi:cy="10.052734"
       sodipodi:rx="0.2109375"
       sodipodi:ry="0.20898438"
       d="m 13.078126,10.052734 a 0.2109375,0.20898438 0 1 1 -0.421875,0 0.2109375,0.20898438 0 1 1 0.421875,0 z"
       transform="matrix(19.98546,-16.769793,16.769793,19.98546,-401.86377,1047.6508)" />
    <path
       style="fill:#000000;fill-opacity:1;stroke:#000000;stroke-width:0;stroke-linecap:butt;stroke-linejoin:miter;stroke-miterlimit:4;stroke-opacity:1;stroke-dasharray:none"
       d="m 20.840793,1036.746 0.115386,13.2684 1.76942,2.1086 1.284084,-1.0635 0.635575,-2.4884 -0.461116,-1.6761 1.820598,-1.6266 -1.123732,-2.0722 1.254675,-1.8148 0.743913,-6.8856 z"
       id="path4297-3-6"
       inkscape:connector-curvature="0"
       sodipodi:nodetypes="ccccccccccc" />
    <path
       sodipodi:type="arc"
       style="opacity:0.98999999;fill:#ffffff;fill-opacity:1;fill-rule:nonzero;stroke:#ffffff;stroke-width:3;stroke-linecap:round;stroke-linejoin:round;stroke-miterlimit:4;stroke-opacity:1;stroke-dasharray:none;stroke-dashoffset:0"
       id="path2986-5"
       sodipodi:cx="22.033953"
       sodipodi:cy="8.5770874"
       sodipodi:rx="1.1995561"
       sodipodi:ry="1.1995561"
       d="m 23.233509,8.5770874 a 1.1995561,1.1995561 0 1 1 -2.399112,0 1.1995561,1.1995561 0 1 1 2.399112,0 z"
       transform="matrix(0.52449215,-0.44010116,0.44010116,0.52449215,8.791978,1035.6717)" />
  </g>
</svg>
