<?xml version="1.0" encoding="UTF-8" standalone="no"?>
<!-- Created with Inkscape (http://www.inkscape.org/) -->

<svg
   xmlns:dc="http://purl.org/dc/elements/1.1/"
   xmlns:cc="http://creativecommons.org/ns#"
   xmlns:rdf="http://www.w3.org/1999/02/22-rdf-syntax-ns#"
   xmlns:svg="http://www.w3.org/2000/svg"
   xmlns="http://www.w3.org/2000/svg"
   xmlns:sodipodi="http://sodipodi.sourceforge.net/DTD/sodipodi-0.dtd"
   xmlns:inkscape="http://www.inkscape.org/namespaces/inkscape"
   width="32px"
   height="32px"
   id="svg5494"
   version="1.1"
   inkscape:version="0.48.3.1 r9886"
   sodipodi:docname="ico_donate.svg"
   inkscape:export-filename="/media/X/bitcoin.org/bitcoin.org/img/ico_donate.png"
   inkscape:export-xdpi="90"
   inkscape:export-ydpi="90">
  <defs
     id="defs5496" />
  <sodipodi:namedview
     id="base"
     pagecolor="#ffffff"
     bordercolor="#666666"
     borderopacity="1.0"
     inkscape:pageopacity="0.0"
     inkscape:pageshadow="2"
     inkscape:zoom="15.836083"
     inkscape:cx="30.143365"
     inkscape:cy="19.372589"
     inkscape:current-layer="layer1"
     showgrid="true"
     inkscape:grid-bbox="true"
     inkscape:document-units="px"
     inkscape:window-width="1680"
     inkscape:window-height="1026"
     inkscape:window-x="0"
     inkscape:window-y="24"
     inkscape:window-maximized="1" />
  <metadata
     id="metadata5499">
    <rdf:RDF>
      <cc:Work
         rdf:about="">
        <dc:format>image/svg+xml</dc:format>
        <dc:type
           rdf:resource="http://purl.org/dc/dcmitype/StillImage" />
        <dc:title></dc:title>
      </cc:Work>
    </rdf:RDF>
  </metadata>
  <g
     id="layer1"
     inkscape:label="Layer 1"
     inkscape:groupmode="layer">
    <path
       sodipodi:type="arc"
       style="opacity:0.98999999;fill:#000000;fill-opacity:1;fill-rule:nonzero;stroke:#000000;stroke-width:2;stroke-linecap:round;stroke-linejoin:round;stroke-miterlimit:4;stroke-opacity:1;stroke-dasharray:none;stroke-dashoffset:0"
       id="path2990"
       sodipodi:cx="16.03932"
       sodipodi:cy="14.824036"
       sodipodi:rx="14.018619"
       sodipodi:ry="14.018619"
       d="m 30.057939,14.824036 a 14.018619,14.018619 0 1 1 -28.0372376,0 14.018619,14.018619 0 1 1 28.0372376,0 z"
       transform="matrix(0.84653297,0,0,0.84653297,2.4930804,3.4432189)" />
    <path
       style="fill:#ffffff"
       inkscape:connector-curvature="0"
       d="m 22.528242,14.239913 c 0.284723,-1.903855 -1.164925,-2.926915 -3.146866,-3.609615 L 20.024141,8.0516885 18.454682,7.6604658 17.828607,10.171123 C 17.415529,10.068201 16.99212,9.9712398 16.570695,9.8752723 L 17.200744,7.3479245 15.632279,6.9567028 14.988719,9.5349155 C 14.647171,9.4570316 14.311979,9.3803336 13.986325,9.299268 l 0.0015,-0.00796 -2.164528,-0.5404392 -0.417647,1.6763542 c 0,0 1.164528,0.266841 1.139891,0.283531 0.635809,0.158754 0.750454,0.579382 0.731379,0.912785 l -0.732128,2.937644 c 0.04372,0.01133 0.100341,0.02703 0.163126,0.05246 -0.05246,-0.01311 -0.108286,-0.02722 -0.165708,-0.04113 l -1.026416,4.11489 c -0.07788,0.193127 -0.275188,0.483017 -0.719458,0.372944 0.0157,0.02264 -1.1414815,-0.284725 -1.1414815,-0.284725 l -0.778868,1.796365 2.0425435,0.509242 c 0.379698,0.09517 0.75264,0.19452 1.119027,0.288699 l -0.649125,2.608216 1.567872,0.391221 0.643162,-2.5804 c 0.428773,0.116037 0.844435,0.223528 1.251353,0.324662 l -0.640977,2.568278 1.569658,0.391224 0.649719,-2.603249 c 2.676961,0.506265 4.689898,0.302009 5.536719,-2.118641 0.682901,-1.949156 -0.03378,-3.073548 -1.442099,-3.806915 1.025445,-0.236442 1.798351,-0.911198 2.004394,-2.304417 z m -3.586171,5.029065 c -0.485601,1.949356 -3.767178,0.895498 -4.831762,0.631041 l 0.861919,-3.455035 c 1.063988,0.265253 4.476504,0.790989 3.969843,2.823994 z m 0.484805,-5.057079 c -0.442285,1.773117 -3.174085,0.872054 -4.060248,0.65111 l 0.781254,-3.133753 c 0.885962,0.220944 3.740155,0.633229 3.278994,2.482643 z"
       id="path167-0" />
  </g>
</svg>
