<?xml version="1.0" encoding="UTF-8" standalone="no"?>
<!-- Created with Inkscape (http://www.inkscape.org/) -->

<svg
   xmlns:dc="http://purl.org/dc/elements/1.1/"
   xmlns:cc="http://creativecommons.org/ns#"
   xmlns:rdf="http://www.w3.org/1999/02/22-rdf-syntax-ns#"
   xmlns:svg="http://www.w3.org/2000/svg"
   xmlns="http://www.w3.org/2000/svg"
   xmlns:sodipodi="http://sodipodi.sourceforge.net/DTD/sodipodi-0.dtd"
   xmlns:inkscape="http://www.inkscape.org/namespaces/inkscape"
   width="32px"
   height="32px"
   id="svg2989"
   version="1.1"
   inkscape:version="0.48.3.1 r9886"
   sodipodi:docname="for_own.svg"
   inkscape:export-filename="/media/X/bitcoin.org/bitcoin.org_icon/img/for_own.png"
   inkscape:export-xdpi="90"
   inkscape:export-ydpi="90">
  <defs
     id="defs2991" />
  <sodipodi:namedview
     id="base"
     pagecolor="#ffffff"
     bordercolor="#666666"
     borderopacity="1.0"
     inkscape:pageopacity="0.0"
     inkscape:pageshadow="2"
     inkscape:zoom="11.197802"
     inkscape:cx="3.7644068"
     inkscape:cy="18.814337"
     inkscape:current-layer="layer1"
     showgrid="true"
     inkscape:grid-bbox="true"
     inkscape:document-units="px"
     inkscape:window-width="1680"
     inkscape:window-height="1026"
     inkscape:window-x="0"
     inkscape:window-y="24"
     inkscape:window-maximized="1" />
  <metadata
     id="metadata2994">
    <rdf:RDF>
      <cc:Work
         rdf:about="">
        <dc:format>image/svg+xml</dc:format>
        <dc:type
           rdf:resource="http://purl.org/dc/dcmitype/StillImage" />
        <dc:title></dc:title>
      </cc:Work>
    </rdf:RDF>
  </metadata>
  <g
     id="layer1"
     inkscape:label="Layer 1"
     inkscape:groupmode="layer">
    <path
       style="fill:#000000;fill-opacity:1;stroke:#000000;stroke-width:1.34488225px;stroke-linecap:round;stroke-linejoin:round;stroke-opacity:1"
       d="m 12.191017,31.041024 c -0.814229,0 -3.5598949,0.02326 -3.5598949,0.02326 L 12.289977,19.087233 13.104212,10.158588 7.7139032,17.481001 6.695022,16.533844 c 0,0 4.760342,-7.7153353 5.169987,-8.1711076 C 12.274654,7.9069642 14.124,6.9818028 14.124,6.9818028 c 0,0 -0.548777,-1.0399172 -0.68165,-1.5962301 -0.157164,-0.6580115 -0.24592,-1.3501928 -0.125778,-2.0142341 0.125543,-0.6939072 0.207019,-1.5709508 0.867657,-1.9644735 0.901845,-0.53720294 2.387928,-0.53651614 3.265531,0.031009 0.661443,0.4277385 0.670536,1.3436042 0.76342,2.0619153 0.07954,0.6150997 -0.0076,1.2512711 -0.186193,1.8499781 -0.173605,0.5814682 -0.845988,1.6425122 -0.845988,1.6425122 0,0 1.609666,0.6696317 2.250501,1.195947 0.487235,0.400164 5.352237,8.6949553 5.352237,8.6949553 l -1.096061,0.854044 -5.191395,-7.706037 0.669432,8.976318 4.275031,12.058572 -3.661222,-0.0084 -3.907746,-12.922111 z"
       id="path3789"
       inkscape:connector-curvature="0"
       sodipodi:nodetypes="cccccczcaaaaaacscccccccc" />
  </g>
</svg>
