<?xml version="1.0" encoding="UTF-8" standalone="no"?>
<!-- Created with Inkscape (http://www.inkscape.org/) -->

<svg
   xmlns:dc="http://purl.org/dc/elements/1.1/"
   xmlns:cc="http://creativecommons.org/ns#"
   xmlns:rdf="http://www.w3.org/1999/02/22-rdf-syntax-ns#"
   xmlns:svg="http://www.w3.org/2000/svg"
   xmlns="http://www.w3.org/2000/svg"
   xmlns:sodipodi="http://sodipodi.sourceforge.net/DTD/sodipodi-0.dtd"
   xmlns:inkscape="http://www.inkscape.org/namespaces/inkscape"
   width="32px"
   height="32px"
   id="svg2989"
   version="1.1"
   inkscape:version="0.48.3.1 r9886"
   sodipodi:docname="for_multi.svg"
   inkscape:export-filename="/media/X/bitcoin.org/bitcoin.org_icon/img/for_multi.png"
   inkscape:export-xdpi="90"
   inkscape:export-ydpi="90">
  <defs
     id="defs2991" />
  <sodipodi:namedview
     id="base"
     pagecolor="#ffffff"
     bordercolor="#666666"
     borderopacity="1.0"
     inkscape:pageopacity="0.0"
     inkscape:pageshadow="2"
     inkscape:zoom="11.197802"
     inkscape:cx="28.352933"
     inkscape:cy="8.2141838"
     inkscape:current-layer="layer1"
     showgrid="true"
     inkscape:grid-bbox="true"
     inkscape:document-units="px"
     inkscape:window-width="1680"
     inkscape:window-height="1026"
     inkscape:window-x="0"
     inkscape:window-y="24"
     inkscape:window-maximized="1" />
  <metadata
     id="metadata2994">
    <rdf:RDF>
      <cc:Work
         rdf:about="">
        <dc:format>image/svg+xml</dc:format>
        <dc:type
           rdf:resource="http://purl.org/dc/dcmitype/StillImage" />
        <dc:title></dc:title>
      </cc:Work>
    </rdf:RDF>
  </metadata>
  <g
     id="layer1"
     inkscape:label="Layer 1"
     inkscape:groupmode="layer">
    <path
       style="fill:#000000;fill-opacity:1;stroke:#000000;stroke-width:1.0960803px;stroke-linecap:round;stroke-linejoin:round;stroke-opacity:1"
       d="m 5.7928725,30.651667 c -0.6635974,0 -2.9013176,0.01896 -2.9013176,0.01896 L 5.873525,20.90932 6.5371273,13.632466 2.1440207,19.600239 1.3136317,18.828305 c 0,0 3.8796829,-6.288005 4.213544,-6.65946 0.333861,-0.371455 1.8410797,-1.125462 1.8410797,-1.125462 0,0 -0.4472538,-0.847534 -0.5555454,-1.3009294 C 6.6846212,9.2061707 6.612285,8.6420423 6.7102008,8.100848 6.8125185,7.535313 6.8789215,6.8205217 7.4173421,6.4998004 8.1523466,6.0619795 9.3635055,6.0625392 10.078753,6.5250727 c 0.539076,0.3486073 0.546487,1.0950386 0.622188,1.6804628 0.06482,0.5013068 -0.0062,1.0197871 -0.151748,1.5077339 -0.141488,0.4738966 -0.6894808,1.3386486 -0.6894808,1.3386486 0,0 1.3118788,0.545751 1.8341598,0.974698 0.397097,0.326134 4.362078,7.086397 4.362078,7.086397 l -0.893291,0.696047 -4.230991,-6.280428 0.545587,7.315708 3.484155,9.827747 -2.9839,-0.0068 -3.1848156,-10.531532 z"
       id="path3789"
       inkscape:connector-curvature="0"
       sodipodi:nodetypes="cccccczcaaaaaacscccccccc" />
    <path
       style="fill:#333333;fill-opacity:1;stroke:#000000;stroke-width:0.72764951000000000px;stroke-linecap:round;stroke-linejoin:round;stroke-opacity:1"
       d="m 24.048514,23.906571 c -0.429859,0 -1.879388,0.0129 -1.879388,0.0129 l 1.931632,-6.641197 0.429862,-4.950877 -2.845725,4.06023 -0.537902,-0.525192 c 0,0 2.513145,-4.278105 2.729411,-4.530827 0.216265,-0.252723 1.192597,-0.765719 1.192597,-0.765719 0,0 -0.289718,-0.576627 -0.359866,-0.885099 -0.08298,-0.364863 -0.12983,-0.7486732 -0.0664,-1.1168799 0.06628,-0.384767 0.109293,-0.8710821 0.458066,-1.0892878 0.476114,-0.2978756 1.260667,-0.2974948 1.723983,0.017194 0.349199,0.2371782 0.354,0.7450199 0.403035,1.1433188 0.04199,0.3410689 -0.004,0.6938219 -0.0983,1.0258009 -0.09165,0.32242 -0.446627,0.910763 -0.446627,0.910763 0,0 0.849797,0.371306 1.188116,0.663143 0.257228,0.221889 2.825626,4.821298 2.825626,4.821298 l -0.578647,0.473562 -2.740713,-4.272948 0.353417,4.97731 2.256932,6.686401 -1.932882,-0.0047 -2.063032,-7.165228 z"
       id="path3789-5"
       inkscape:connector-curvature="0"
       sodipodi:nodetypes="cccccczcaaaaaacscccccccc" />
    <path
       style="fill:#666666;fill-opacity:1;stroke:#000000;stroke-width:0.48398855000000002px;stroke-linecap:round;stroke-linejoin:round;stroke-opacity:1"
       d="m 16.940925,11.435603 c -0.293021,0 -1.281115,0.0084 -1.281115,0.0084 L 16.976538,7.1337408 17.26956,3.9205507 15.329726,6.5556992 14.963057,6.2148417 c 0,0 1.713125,-2.7765511 1.860546,-2.9405718 0.14742,-0.1640207 0.812952,-0.4969626 0.812952,-0.4969626 0,0 -0.19749,-0.3742394 -0.245308,-0.5744422 -0.05656,-0.2368014 -0.0885,-0.4858997 -0.04526,-0.7248711 0.04518,-0.2497193 0.0745,-0.56534481 0.312247,-0.70696352 0.324551,-0.19332553 0.859354,-0.19307837 1.175181,0.0111593 0.238036,0.1539321 0.241309,0.48352862 0.274735,0.74203032 0.02863,0.2213587 -0.0027,0.4503004 -0.06701,0.6657597 -0.06248,0.2092554 -0.304449,0.5910979 -0.304449,0.5910979 0,0 0.579277,0.2409833 0.809897,0.4303906 0.175344,0.1440088 1.926133,3.1290912 1.926133,3.1290912 l -0.394444,0.3073485 -1.86825,-2.7732049 0.240911,3.2303464 1.538474,4.3395695 -1.317579,-0.003 -1.406298,-4.650335 z"
       id="path3789-0"
       inkscape:connector-curvature="0"
       sodipodi:nodetypes="cccccczcaaaaaacscccccccc" />
  </g>
</svg>
