<?xml version="1.0" encoding="UTF-8" standalone="no"?>
<!-- Created with Inkscape (http://www.inkscape.org/) -->

<svg
   xmlns:dc="http://purl.org/dc/elements/1.1/"
   xmlns:cc="http://creativecommons.org/ns#"
   xmlns:rdf="http://www.w3.org/1999/02/22-rdf-syntax-ns#"
   xmlns:svg="http://www.w3.org/2000/svg"
   xmlns="http://www.w3.org/2000/svg"
   xmlns:sodipodi="http://sodipodi.sourceforge.net/DTD/sodipodi-0.dtd"
   xmlns:inkscape="http://www.inkscape.org/namespaces/inkscape"
   width="32"
   height="32"
   id="svg2984"
   version="1.1"
   inkscape:version="0.48.3.1 r9886"
   sodipodi:docname="for_international.svg"
   inkscape:export-filename="/media/X/bitcoin.org/bitcoin.org_icon/img/for_international.png"
   inkscape:export-xdpi="90"
   inkscape:export-ydpi="90">
  <defs
     id="defs2986" />
  <sodipodi:namedview
     id="base"
     pagecolor="#ffffff"
     bordercolor="#666666"
     borderopacity="1.0"
     inkscape:pageopacity="0.0"
     inkscape:pageshadow="2"
     inkscape:zoom="15.839192"
     inkscape:cx="5.6336282"
     inkscape:cy="9.5383874"
     inkscape:document-units="px"
     inkscape:current-layer="layer1"
     showgrid="false"
     inkscape:window-width="1680"
     inkscape:window-height="1026"
     inkscape:window-x="0"
     inkscape:window-y="24"
     inkscape:window-maximized="1" />
  <metadata
     id="metadata2989">
    <rdf:RDF>
      <cc:Work
         rdf:about="">
        <dc:format>image/svg+xml</dc:format>
        <dc:type
           rdf:resource="http://purl.org/dc/dcmitype/StillImage" />
        <dc:title></dc:title>
      </cc:Work>
    </rdf:RDF>
  </metadata>
  <g
     inkscape:label="Calque 1"
     inkscape:groupmode="layer"
     id="layer1"
     transform="translate(0,-1020.3622)">
    <path
       sodipodi:type="arc"
       style="opacity:0.98999999;fill:#ffffff;fill-opacity:0;stroke:none"
       id="path2992"
       sodipodi:cx="49.750011"
       sodipodi:cy="49.744911"
       sodipodi:rx="49.750011"
       sodipodi:ry="49.750011"
       d="m 99.500023,49.744911 a 49.750011,49.750011 0 1 1 -99.500023,0 49.750011,49.750011 0 1 1 99.500023,0 z"
       transform="matrix(0.25442777,0,0,0.25442777,3.380253,1023.821)" />
    <path
       style="fill:#000000;fill-opacity:1;stroke:none"
       d="m 26.050827,1037.7302 0.782525,0.4268 -0.995942,1.2094 -0.782527,0.5693 -0.142281,1.7071 -0.533951,1.7451 -1.264347,0.5396 -0.0162,0.6627 -0.895367,0.8707 -0.453204,0.7076 -1.191574,0.4614 -0.377361,-1.7565 0.0368,-1.5232 -0.142284,-1.3516 0.284555,-1.1384 -0.426831,-0.3555 -0.853666,-0.427 -1.13822,0.1414 -1.422773,-0.4978 -0.142284,-1.8497 0,-1.2805 1.280497,-1.494 1.138219,-1.5651 1.991884,-0.7825 0.782525,0.9248 1.067083,0 1.213445,0.717 0.06705,1.275 1.493913,1.4937"
       id="path2996"
       inkscape:connector-curvature="0"
       sodipodi:nodetypes="ccccccccccccccccccccccccccccc" />
    <path
       style="fill:#000000;fill-opacity:1;stroke:none"
       d="m 6.1227732,1040.6851 0.4418514,-1.5024 1.0604399,-2.3418 1.2371809,-0.5743 0.3534817,0.6185 1.1488099,0.5302 0,0.7954 0.795331,0 0.61859,0.8396 0.441852,0.2651 1.016255,0.4858 1.148811,0.7071 0.486037,0.2651 -0.176747,0.6186 -0.26511,0.5744 -0.795329,0.6628 0.397664,1.193 0,1.3696 -1.590661,0.8397 -0.706962,1.7232 -0.385104,0.4788 -1.16085,-0.5264 -1.9373819,-1.1861 0.081082,-0.7105 -0.2651086,-1.7673 -1.0162569,-1.1491 -0.3092953,-1.0602 z"
       id="path3766"
       inkscape:connector-curvature="0"
       sodipodi:nodetypes="cccccccccccccccccccccccccccc" />
    <path
       style="fill:#000000;fill-opacity:1;stroke:none"
       d="m 6.6853417,1038.2355 -0.1758044,-0.3517 -0.1054825,-0.8438 -0.2812834,0.2814 -0.1758044,-0.5626 0.1054826,-1.0197 -0.3164443,0 -0.2812834,0.4572 0,0.3868 -0.5625685,-0.2463 -0.070322,-1.1953 0.2461242,-0.7385 1.3822902,-0.4751 0.5274076,0 0.4570859,0.3165 0.3164462,0 -0.1406437,-0.8438 0.6680513,-0.4571 0.4922467,-0.1056 0.9493325,-1.0196 1.0548147,-0.2813 0.668052,-0.5978 0.316443,-0.6329 0.281284,-0.5977 -0.527407,0 -0.246123,0.1056 0.210962,-0.2813 0.764742,-0.3428 1.151507,-0.4484 0.05275,-0.5801 -0.69666,-0.9576 -0.755951,-0.5449 -0.325235,0.079 -0.202173,0.5627 -0.492246,0.7382 -0.492249,0 -0.5774977,-0.4034 c 0,0 -0.02487,-0.5274 0.1157897,-0.5274 0.140644,0 1.024286,-0.5107 1.024286,-0.5107 l 0.421927,-0.6329 0.966914,-0.3867 -0.439506,-0.3867 -1.230619,0.3515 -1.0899757,0.1753 -0.133144,-0.034 -2.1874477,1.4052 c 0,0 -1.7049299,1.9766 -2.2935355,3.1277 -0.8807539,1.7222 -1.504817,3.7071 -1.7850842,5.5219 -0.095073,0.6156 1.4064206,1.2306 1.4064206,1.2306 l 0.8086928,0.7736 1.0196545,0.5976 0.5274076,0.1055 0.1758045,-0.211 z"
       id="path3806"
       inkscape:connector-curvature="0"
       sodipodi:nodetypes="cccccccccccccccccccccccccccccccccccccsccccccccsscccccc" />
    <path
       style="fill:#000000;fill-opacity:1;stroke:none"
       d="m 13.986193,1026.4802 0.06217,0.5282 0.167813,0.5222 0.826669,-0.2549 0.35429,-0.8391 0.341854,-0.1432 0.795593,-0.3605 0.646417,-0.1488 0.14918,-0.9944 c 0,0 -0.14918,-0.4476 -0.348072,-0.4476 -0.198899,0 -1.143663,-0.2238 -1.143663,-0.2238 l -0.696143,-0.074 -1.640907,0.4972 -0.546971,0.348 0.04972,0.5968 0.770729,0.2363 0.453735,0.1432 0.01865,0.3171 z"
       id="path3826"
       inkscape:connector-curvature="0"
       sodipodi:nodetypes="cccccccccsccccccccc" />
    <path
       style="fill:#000000;fill-opacity:1;stroke:none"
       d="m 24.714521,1034.2533 0.447672,0.554 0.492246,0.7561 0.492247,0.3691 -0.05275,0.879 0.755951,-0.211 1.169089,-2.0568 -0.448298,-0.5801 -0.562569,-0.018 -1.107554,-1.0548 -0.228544,-0.8264 1.529482,1.4769 c 0,0 0.236892,-0.3115 0.483895,-0.397 0.247003,-0.085 0.433794,-0.2964 0.403907,-0.3767 -0.688053,-1.8502 -1.582286,-3.4882 -2.812841,-4.9224 -0.797053,-0.929 -2.874371,-2.2855 -2.874371,-2.2855 l -1.406421,0.6329 -0.791111,0.2636 0.158225,-0.2988 0.668049,-0.1751 -0.08791,-0.2287 -0.650468,0.1583 -0.843853,-0.089 -1.195457,0.7032 -0.509829,0.5978 0.03516,0.299 0.544989,-0.1936 0.421927,0.3166 0.281282,-0.6682 0.334025,-0.2988 0.10548,0.5098 -0.281284,0.1056 0.685631,-0.069 -0.650472,0.2812 -0.0879,0.1751 -0.68563,0.299 -0.632891,0.1582 -0.263702,-0.053 -0.457088,-0.5449 -0.263702,0.037 0.175804,0.58 0.228542,0.4571 -0.03516,0.5273 -0.369186,0.5977 0.75595,1.635 -0.597728,0.8966 -0.140643,0.7209 0.281282,0.7032 0.327433,0 0.274691,0.4068 0.751558,-0.4573 0.351602,-1.5646 0.843854,-1.0371 0.808691,0.2108 -0.03516,0.5451 0.386766,-0.7559 0.386766,0.4043 0,0.1224 0,0.2109 0.738371,0.211 0.369186,0.7209 1.002074,-0.1583 0.778164,0.6035 -0.786801,1.2615 0.283523,0.581 0.782946,-0.5854"
       id="path3828"
       inkscape:connector-curvature="0"
       sodipodi:nodetypes="ccccccccccccssaccccccccccccccccccccccccccccccccccccccccccccccccccc" />
    <path
       sodipodi:type="arc"
       style="opacity:0.98999999;fill:none;stroke:#000000;stroke-width:7.83737087;stroke-miterlimit:4;stroke-opacity:1;stroke-dasharray:none"
       id="path2992-7"
       sodipodi:cx="49.750011"
       sodipodi:cy="49.744911"
       sodipodi:rx="49.750011"
       sodipodi:ry="49.750011"
       d="m 99.500023,49.744911 a 49.750011,49.750011 0 1 1 -99.500023,0 49.750011,49.750011 0 1 1 99.500023,0 z"
       transform="matrix(0.25442777,0,0,0.25442777,3.3729715,1023.8139)" />
  </g>
</svg>
