<?xml version="1.0" encoding="UTF-8" standalone="no"?>
<!-- Created with Inkscape (http://www.inkscape.org/) -->

<svg
   xmlns:dc="http://purl.org/dc/elements/1.1/"
   xmlns:cc="http://creativecommons.org/ns#"
   xmlns:rdf="http://www.w3.org/1999/02/22-rdf-syntax-ns#"
   xmlns:svg="http://www.w3.org/2000/svg"
   xmlns="http://www.w3.org/2000/svg"
   xmlns:sodipodi="http://sodipodi.sourceforge.net/DTD/sodipodi-0.dtd"
   xmlns:inkscape="http://www.inkscape.org/namespaces/inkscape"
   width="32px"
   height="32px"
   id="svg3019"
   version="1.1"
   inkscape:version="0.48.3.1 r9886"
   sodipodi:docname="ico_help.svg"
   inkscape:export-filename="/media/X/bitcoin.org/bitcoin.org_icon/img/for_help.png"
   inkscape:export-xdpi="90"
   inkscape:export-ydpi="90">
  <defs
     id="defs3021" />
  <sodipodi:namedview
     id="base"
     pagecolor="#ffffff"
     bordercolor="#666666"
     borderopacity="1.0"
     inkscape:pageopacity="0.0"
     inkscape:pageshadow="2"
     inkscape:zoom="15.836083"
     inkscape:cx="-3.2763137"
     inkscape:cy="8.7364419"
     inkscape:current-layer="layer1"
     showgrid="true"
     inkscape:grid-bbox="true"
     inkscape:document-units="px"
     inkscape:window-width="1680"
     inkscape:window-height="1026"
     inkscape:window-x="0"
     inkscape:window-y="24"
     inkscape:window-maximized="1" />
  <metadata
     id="metadata3024">
    <rdf:RDF>
      <cc:Work
         rdf:about="">
        <dc:format>image/svg+xml</dc:format>
        <dc:type
           rdf:resource="http://purl.org/dc/dcmitype/StillImage" />
        <dc:title />
      </cc:Work>
    </rdf:RDF>
  </metadata>
  <g
     id="layer1"
     inkscape:label="Layer 1"
     inkscape:groupmode="layer">
    <path
       style="fill:none;stroke:#000000;stroke-width:3;stroke-linecap:round;stroke-linejoin:round;stroke-miterlimit:4;stroke-opacity:1;stroke-dasharray:none"
       d="M 11.393569,30.039047 8.8037744,25.216672 c 0,0 -2.7776148,0.101423 -4.0474313,-1.639961 C 1.5257619,19.146399 0.9336011,9.2420341 5.7616621,5.7773503 11.377973,1.7470072 22.734628,0.979332 27.660992,6.2706025 c 3.518999,3.7796585 4.058912,14.0007025 -0.435685,17.3576505 -4.936625,2.788626 -8.68289,1.64673 -13.018689,1.90098 z"
       id="path3027"
       inkscape:connector-curvature="0"
       sodipodi:nodetypes="ccsssccc" />
    <g
       style="font-size:20.33304596px;font-style:normal;font-variant:normal;font-weight:500;font-stretch:normal;line-height:125%;letter-spacing:0px;word-spacing:0px;fill:#000000;fill-opacity:1;stroke:#000000;stroke-opacity:1;font-family:Ubuntu;-inkscape-font-specification:Ubuntu Medium"
       id="text3797">
      <path
         d="m 16.45692,9.1004859 c -0.474441,1.24e-5 -0.928546,0.061011 -1.362315,0.1829974 -0.433773,0.108455 -0.887877,0.2914522 -1.362314,0.5489923 L 13.040968,7.9415023 c 0.501547,-0.2846489 1.070872,-0.5083121 1.707976,-0.6709905 0.650654,-0.1762054 1.314867,-0.2643152 1.992638,-0.2643296 0.813317,1.44e-5 1.484307,0.1152349 2.012972,0.3456618 0.528652,0.2168997 0.948868,0.4947843 1.260649,0.8336549 0.311765,0.338897 0.528651,0.7116691 0.650657,1.1183175 0.12199,0.4066726 0.182989,0.7997776 0.182997,1.1793166 -8e-6,0.460893 -0.08812,0.874331 -0.264329,1.240316 -0.162672,0.366004 -0.37278,0.704888 -0.630325,1.016652 -0.257558,0.311782 -0.535443,0.61 -0.833654,0.894654 -0.298225,0.271115 -0.576109,0.555777 -0.833655,0.853988 -0.257558,0.284669 -0.474443,0.589665 -0.650658,0.914987 -0.162669,0.325335 -0.244001,0.691329 -0.243996,1.097985 -5e-6,0.06778 -5e-6,0.149113 0,0.243996 -5e-6,0.08134 0.0068,0.162669 0.02033,0.243997 l -2.114637,0 c -0.02711,-0.135549 -0.04745,-0.27788 -0.061,-0.426994 -0.01356,-0.16266 -0.02034,-0.311768 -0.02033,-0.447327 -3e-6,-0.447321 0.07455,-0.847204 0.223663,-1.19965 0.149106,-0.352433 0.338881,-0.677761 0.569326,-0.975986 0.230437,-0.29821 0.474434,-0.576095 0.731989,-0.833655 0.271103,-0.257543 0.521877,-0.515095 0.752323,-0.772656 0.230436,-0.257542 0.420211,-0.521872 0.569325,-0.792989 0.149104,-0.271097 0.223658,-0.569314 0.223664,-0.894654 -6e-6,-0.447315 -0.155892,-0.8133098 -0.46766,-1.0979841 C 17.521011,9.2496071 17.066907,9.1004983 16.45692,9.1004859 m 1.585977,10.9798451 c -5e-6,0.474438 -0.155892,0.860766 -0.46766,1.158983 -0.311778,0.298218 -0.698105,0.447327 -1.158984,0.447327 -0.44733,0 -0.833657,-0.149109 -1.158983,-0.447327 -0.311776,-0.298217 -0.467662,-0.684545 -0.46766,-1.158983 -2e-6,-0.474436 0.155884,-0.860764 0.46766,-1.158984 0.325326,-0.31177 0.711653,-0.467657 1.158983,-0.46766 0.460879,3e-6 0.847206,0.15589 1.158984,0.46766 0.311768,0.29822 0.467655,0.684548 0.46766,1.158984"
         style=""
         id="path2986" />
    </g>
  </g>
</svg>
