<?xml version="1.0" encoding="UTF-8" standalone="no"?>
<!-- Created with Inkscape (http://www.inkscape.org/) -->

<svg
   xmlns:dc="http://purl.org/dc/elements/1.1/"
   xmlns:cc="http://creativecommons.org/ns#"
   xmlns:rdf="http://www.w3.org/1999/02/22-rdf-syntax-ns#"
   xmlns:svg="http://www.w3.org/2000/svg"
   xmlns="http://www.w3.org/2000/svg"
   xmlns:sodipodi="http://sodipodi.sourceforge.net/DTD/sodipodi-0.dtd"
   xmlns:inkscape="http://www.inkscape.org/namespaces/inkscape"
   width="100"
   height="100"
   id="svg2989"
   version="1.1"
   inkscape:version="0.48.3.1 r9886"
   sodipodi:docname="be_the_network.svg"
   inkscape:export-filename="/var/www/img/icon-network.png"
   inkscape:export-xdpi="281.25"
   inkscape:export-ydpi="281.25">
  <defs
     id="defs2991" />
  <sodipodi:namedview
     id="base"
     pagecolor="#ffffff"
     bordercolor="#666666"
     borderopacity="1.0"
     inkscape:pageopacity="0.0"
     inkscape:pageshadow="2"
     inkscape:zoom="2.0000001"
     inkscape:cx="-220.51955"
     inkscape:cy="107.16619"
     inkscape:current-layer="layer1"
     showgrid="true"
     inkscape:grid-bbox="true"
     inkscape:document-units="px"
     inkscape:window-width="1680"
     inkscape:window-height="1026"
     inkscape:window-x="0"
     inkscape:window-y="24"
     inkscape:window-maximized="1" />
  <metadata
     id="metadata2994">
    <rdf:RDF>
      <cc:Work
         rdf:about="">
        <dc:format>image/svg+xml</dc:format>
        <dc:type
           rdf:resource="http://purl.org/dc/dcmitype/StillImage" />
        <dc:title />
      </cc:Work>
    </rdf:RDF>
  </metadata>
  <g
     id="layer1"
     inkscape:label="Layer 1"
     inkscape:groupmode="layer"
     transform="translate(0,68)">
    <rect
       style="opacity:0.98999999;fill:none;stroke:none"
       id="rect3885"
       width="42.490856"
       height="82.642776"
       x="29.796608"
       y="-57.12709" />
    <rect
       style="opacity:0.98999999;fill:none;stroke:none"
       id="rect3887"
       width="29.041916"
       height="88.490135"
       x="40.711689"
       y="-62.389717" />
    <path
       sodipodi:type="arc"
       style="opacity:0.98999999;fill:#000000;fill-opacity:1;stroke:#000000;stroke-width:0.1;stroke-linecap:round;stroke-linejoin:round;stroke-miterlimit:4;stroke-opacity:1;stroke-dasharray:none;stroke-dashoffset:0"
       id="path3926"
       sodipodi:cx="17.235525"
       sodipodi:cy="13.157017"
       sodipodi:rx="1.2502453"
       sodipodi:ry="1.2502453"
       d="m 18.48577,13.157017 a 1.2502453,1.2502453 0 1 1 -2.50049,0 1.2502453,1.2502453 0 1 1 2.50049,0 z"
       transform="matrix(3.9790518,0,0,3.9790518,-14.020038,-76.662425)" />
    <path
       style="fill:none;stroke:#000000;stroke-width:1.85198748;stroke-linecap:butt;stroke-linejoin:miter;stroke-miterlimit:4;stroke-opacity:1;stroke-dasharray:none"
       d="M 54.492095,-25.619301 25.549111,-56.62964"
       id="path3930"
       inkscape:connector-curvature="0" />
    <path
       style="fill:none;stroke:#000000;stroke-width:3.0866456px;stroke-linecap:butt;stroke-linejoin:miter;stroke-opacity:1"
       d="m 56.421626,-24.378886 c 0,0.183748 0,0.36753 0,0 z"
       id="path3936"
       inkscape:connector-curvature="0" />
    <path
       style="fill:none;stroke:#000000;stroke-width:1.85198748;stroke-linecap:butt;stroke-linejoin:miter;stroke-miterlimit:4;stroke-opacity:1;stroke-dasharray:none"
       d="M 80.402956,15.727818 54.629917,-24.930183"
       id="path3938"
       inkscape:connector-curvature="0" />
    <path
       style="fill:none;stroke:#000000;stroke-width:1.23465836;stroke-linecap:butt;stroke-linejoin:miter;stroke-miterlimit:4;stroke-opacity:1;stroke-dasharray:none"
       d="M 28.374498,-0.32864721 55.45686,-24.930183"
       id="path3944"
       inkscape:connector-curvature="0"
       sodipodi:nodetypes="cc" />
    <path
       style="fill:none;stroke:#000000;stroke-width:1.23465836;stroke-linecap:butt;stroke-linejoin:miter;stroke-miterlimit:4;stroke-opacity:1;stroke-dasharray:none"
       d="M 52.346874,15.993671 27.814842,0.27830159"
       id="path3946"
       inkscape:connector-curvature="0"
       sodipodi:nodetypes="cc" />
    <path
       style="fill:none;stroke:#000000;stroke-width:1.23465836;stroke-linecap:butt;stroke-linejoin:miter;stroke-miterlimit:4;stroke-opacity:1;stroke-dasharray:none"
       d="M 27.088819,0.17357169 4.233726,-5.9365298"
       id="path3948"
       inkscape:connector-curvature="0"
       sodipodi:nodetypes="cc" />
    <path
       style="fill:none;stroke:#000000;stroke-width:1.23465836;stroke-linecap:butt;stroke-linejoin:miter;stroke-miterlimit:4;stroke-opacity:1;stroke-dasharray:none"
       d="M 27.388113,-0.01010841 21.873484,-34.70993"
       id="path3950"
       inkscape:connector-curvature="0"
       sodipodi:nodetypes="cc" />
    <path
       sodipodi:type="arc"
       style="opacity:0.98999999;fill:#000000;fill-opacity:1;fill-rule:nonzero;stroke:#000000;stroke-width:0.2;stroke-linecap:round;stroke-linejoin:round;stroke-miterlimit:4;stroke-opacity:1;stroke-dasharray:none;stroke-dashoffset:0"
       id="path3942-9"
       sodipodi:cx="8.7517176"
       sodipodi:cy="18.381256"
       sodipodi:rx="0.53581941"
       sodipodi:ry="0.53581941"
       d="m 9.287537,18.381256 a 0.53581941,0.53581941 0 1 1 -1.0716388,0 0.53581941,0.53581941 0 1 1 1.0716388,0 z"
       transform="matrix(2.7609334,0,0,2.7609334,-2.3684305,-86.572458)" />
    <path
       sodipodi:type="arc"
       style="opacity:0.98999999;fill:#000000;fill-opacity:1;fill-rule:nonzero;stroke:#000000;stroke-width:0.2;stroke-linecap:round;stroke-linejoin:round;stroke-miterlimit:4;stroke-opacity:1;stroke-dasharray:none;stroke-dashoffset:0"
       id="path3942-3"
       sodipodi:cx="8.7517176"
       sodipodi:cy="18.381256"
       sodipodi:rx="0.53581941"
       sodipodi:ry="0.53581941"
       d="m 9.287537,18.381256 a 0.53581941,0.53581941 0 1 1 -1.0716388,0 0.53581941,0.53581941 0 1 1 1.0716388,0 z"
       transform="matrix(5.404951,0,0,5.404951,-21.563478,-156.47262)" />
    <path
       sodipodi:type="arc"
       style="opacity:0.98999999;fill:#000000;fill-opacity:1;fill-rule:nonzero;stroke:#000000;stroke-width:0.2;stroke-linecap:round;stroke-linejoin:round;stroke-miterlimit:4;stroke-opacity:1;stroke-dasharray:none;stroke-dashoffset:0"
       id="path3942-53"
       sodipodi:cx="8.7517176"
       sodipodi:cy="18.381256"
       sodipodi:rx="0.53581941"
       sodipodi:ry="0.53581941"
       d="m 9.287537,18.381256 a 0.53581941,0.53581941 0 1 1 -1.0716388,0 0.53581941,0.53581941 0 1 1 1.0716388,0 z"
       transform="matrix(3.7189108,0,0,3.7189108,48.131748,-52.768257)" />
    <path
       sodipodi:type="arc"
       style="opacity:0.98999999;fill:#000000;fill-opacity:1;fill-rule:nonzero;stroke:#000000;stroke-width:0.2;stroke-linecap:round;stroke-linejoin:round;stroke-miterlimit:4;stroke-opacity:1;stroke-dasharray:none;stroke-dashoffset:0"
       id="path3942-9-0"
       sodipodi:cx="8.7517176"
       sodipodi:cy="18.381256"
       sodipodi:rx="0.53581941"
       sodipodi:ry="0.53581941"
       d="m 9.287537,18.381256 a 0.53581941,0.53581941 0 1 1 -1.0716388,0 0.53581941,0.53581941 0 1 1 1.0716388,0 z"
       transform="matrix(2.7609334,0,0,2.7609334,-20.094711,-56.80952)" />
    <path
       sodipodi:type="arc"
       style="opacity:0.98999999;fill:#000000;fill-opacity:1;fill-rule:nonzero;stroke:#000000;stroke-width:0.2;stroke-linecap:round;stroke-linejoin:round;stroke-miterlimit:4;stroke-opacity:1;stroke-dasharray:none;stroke-dashoffset:0"
       id="path3942-9-7"
       sodipodi:cx="8.7517176"
       sodipodi:cy="18.381256"
       sodipodi:rx="0.53581941"
       sodipodi:ry="0.53581941"
       d="m 9.287537,18.381256 a 0.53581941,0.53581941 0 1 1 -1.0716388,0 0.53581941,0.53581941 0 1 1 1.0716388,0 z"
       transform="matrix(2.7609334,0,0,2.7609334,-7.6826142,-26.56196)" />
    <path
       sodipodi:type="arc"
       style="opacity:0.98999999;fill:#000000;fill-opacity:1;fill-rule:nonzero;stroke:#000000;stroke-width:0.2;stroke-linecap:round;stroke-linejoin:round;stroke-miterlimit:4;stroke-opacity:1;stroke-dasharray:none;stroke-dashoffset:0"
       id="path3942-9-78"
       sodipodi:cx="8.7517176"
       sodipodi:cy="18.381256"
       sodipodi:rx="0.53581941"
       sodipodi:ry="0.53581941"
       d="m 9.287537,18.381256 a 0.53581941,0.53581941 0 1 1 -1.0716388,0 0.53581941,0.53581941 0 1 1 1.0716388,0 z"
       transform="matrix(2.7609334,0,0,2.7609334,28.194784,-34.784443)" />
    <path
       style="fill:none;stroke:#000000;stroke-width:1.23465836;stroke-linecap:butt;stroke-linejoin:miter;stroke-miterlimit:4;stroke-opacity:1;stroke-dasharray:none"
       d="m 90.18844,-13.352989 5.581862,-23.774594"
       id="path4083"
       inkscape:connector-curvature="0"
       sodipodi:nodetypes="cc" />
    <path
       style="fill:none;stroke:#000000;stroke-width:1.23465836;stroke-linecap:butt;stroke-linejoin:miter;stroke-miterlimit:4;stroke-opacity:1;stroke-dasharray:none"
       d="M 94.138036,1.3289495 90.221885,-12.053804"
       id="path4144"
       inkscape:connector-curvature="0"
       sodipodi:nodetypes="cc" />
    <path
       style="fill:none;stroke:#000000;stroke-width:1.23465836;stroke-linecap:butt;stroke-linejoin:miter;stroke-miterlimit:4;stroke-opacity:1;stroke-dasharray:none"
       d="M 89.08585,-13.904282 66.896229,-46.430684"
       id="path4146"
       inkscape:connector-curvature="0"
       sodipodi:nodetypes="cc" />
    <path
       style="fill:#000000;fill-opacity:1;stroke:#000000;stroke-width:3.18010879px;stroke-linecap:round;stroke-linejoin:round;stroke-opacity:1"
       d="m 43.12052,20.48225 c -1.807321,0 -7.901802,0.05861 -7.901802,0.05861 l 8.121459,-30.1701021 1.807337,-22.4911739 -11.964722,18.445091 -2.261583,-2.385878 c 0,0 10.566403,-19.434857 11.47568,-20.582943 0.909276,-1.148086 5.014222,-3.478559 5.014222,-3.478559 0,0 -1.218107,-2.619541 -1.513042,-4.020887 -0.348853,-1.657525 -0.545857,-3.401124 -0.279188,-5.073836 0.278662,-1.747947 0.459516,-3.957212 1.925916,-4.948492 2.001805,-1.353208 5.300419,-1.351478 7.24841,0.07811 1.468184,1.07747 1.488372,3.384525 1.694544,5.193945 0.176556,1.54943 -0.01667,3.15194 -0.413289,4.660077 -0.385344,1.464713 -1.877813,4.137472 -1.877813,4.137472 0,0 3.57293,1.686797 4.995375,3.01258 1.081501,1.008008 11.880212,21.902509 11.880212,21.902509 l -2.432895,2.151328 -11.523198,-19.411435 1.485921,22.6112609 9.489166,30.3754271 -8.126715,-0.02099 -8.673916,-32.550672 z"
       id="path3789"
       inkscape:connector-curvature="0"
       sodipodi:nodetypes="cccccczcaaaaaacscccccccc" />
    <path
       style="fill:none;stroke:#000000;stroke-width:1.85198748;stroke-linecap:butt;stroke-linejoin:miter;stroke-miterlimit:4;stroke-opacity:1;stroke-dasharray:none"
       d="m 12.449422,-21.068331 39.274808,-5.555"
       id="path4188"
       inkscape:connector-curvature="0" />
    <path
       style="fill:none;stroke:#000000;stroke-width:1.23465836;stroke-linecap:butt;stroke-linejoin:miter;stroke-miterlimit:4;stroke-opacity:1;stroke-dasharray:none"
       d="M 16.500039,24.246868 26.974641,0.95465669"
       id="path4209"
       inkscape:connector-curvature="0" />
    <path
       style="fill:none;stroke:#000000;stroke-width:1.85198748;stroke-linecap:butt;stroke-linejoin:miter;stroke-miterlimit:4;stroke-opacity:1;stroke-dasharray:none"
       d="M 54.767743,-27.135363 84.399844,-46.568509"
       id="path4211"
       inkscape:connector-curvature="0" />
    <path
       sodipodi:type="arc"
       style="opacity:0.98999999;fill:#000000;fill-opacity:1;fill-rule:nonzero;stroke:#000000;stroke-width:0.2;stroke-linecap:round;stroke-linejoin:round;stroke-miterlimit:4;stroke-opacity:1;stroke-dasharray:none;stroke-dashoffset:0"
       id="path3942-3-4"
       sodipodi:cx="8.7517176"
       sodipodi:cy="18.381256"
       sodipodi:rx="0.53581941"
       sodipodi:ry="0.53581941"
       d="m 9.287537,18.381256 a 0.53581941,0.53581941 0 1 1 -1.0716388,0 0.53581941,0.53581941 0 1 1 1.0716388,0 z"
       transform="matrix(5.404951,0,0,5.404951,-35.048095,-120.71048)" />
    <path
       sodipodi:type="arc"
       style="opacity:0.98999999;fill:#000000;fill-opacity:1;fill-rule:nonzero;stroke:#000000;stroke-width:0.2;stroke-linecap:round;stroke-linejoin:round;stroke-miterlimit:4;stroke-opacity:1;stroke-dasharray:none;stroke-dashoffset:0"
       id="path3942-3-0"
       sodipodi:cx="8.7517176"
       sodipodi:cy="18.381256"
       sodipodi:rx="0.53581941"
       sodipodi:ry="0.53581941"
       d="m 9.287537,18.381256 a 0.53581941,0.53581941 0 1 1 -1.0716388,0 0.53581941,0.53581941 0 1 1 1.0716388,0 z"
       transform="matrix(5.404951,0,0,5.404951,-19.844942,-98.88033)" />
    <path
       sodipodi:type="arc"
       style="opacity:0.98999999;fill:#000000;fill-opacity:1;fill-rule:nonzero;stroke:#000000;stroke-width:0.2;stroke-linecap:round;stroke-linejoin:round;stroke-miterlimit:4;stroke-opacity:1;stroke-dasharray:none;stroke-dashoffset:0"
       id="path3942-3-04"
       sodipodi:cx="8.7517176"
       sodipodi:cy="18.381256"
       sodipodi:rx="0.53581941"
       sodipodi:ry="0.53581941"
       d="m 9.287537,18.381256 a 0.53581941,0.53581941 0 1 1 -1.0716388,0 0.53581941,0.53581941 0 1 1 1.0716388,0 z"
       transform="matrix(5.404951,0,0,5.404951,38.062007,-146.60741)" />
    <path
       sodipodi:type="arc"
       style="opacity:0.98999999;fill:#000000;fill-opacity:1;fill-rule:nonzero;stroke:#000000;stroke-width:0.2;stroke-linecap:round;stroke-linejoin:round;stroke-miterlimit:4;stroke-opacity:1;stroke-dasharray:none;stroke-dashoffset:0"
       id="path3942-9-5"
       sodipodi:cx="8.7517176"
       sodipodi:cy="18.381256"
       sodipodi:rx="0.53581941"
       sodipodi:ry="0.53581941"
       d="m 9.287537,18.381256 a 0.53581941,0.53581941 0 1 1 -1.0716388,0 0.53581941,0.53581941 0 1 1 1.0716388,0 z"
       transform="matrix(2.7609334,0,0,2.7609334,42.886293,-97.131982)" />
    <path
       sodipodi:type="arc"
       style="opacity:0.98999999;fill:#000000;fill-opacity:1;fill-rule:nonzero;stroke:#000000;stroke-width:0.2;stroke-linecap:round;stroke-linejoin:round;stroke-miterlimit:4;stroke-opacity:1;stroke-dasharray:none;stroke-dashoffset:0"
       id="path3942-9-53"
       sodipodi:cx="8.7517176"
       sodipodi:cy="18.381256"
       sodipodi:rx="0.53581941"
       sodipodi:ry="0.53581941"
       d="m 9.287537,18.381256 a 0.53581941,0.53581941 0 1 1 -1.0716388,0 0.53581941,0.53581941 0 1 1 1.0716388,0 z"
       transform="matrix(2.7609334,0,0,2.7609334,71.691368,-88.131266)" />
    <path
       sodipodi:type="arc"
       style="opacity:0.98999999;fill:#000000;fill-opacity:1;fill-rule:nonzero;stroke:#000000;stroke-width:0.2;stroke-linecap:round;stroke-linejoin:round;stroke-miterlimit:4;stroke-opacity:1;stroke-dasharray:none;stroke-dashoffset:0"
       id="path3942-9-51"
       sodipodi:cx="8.7517176"
       sodipodi:cy="18.381256"
       sodipodi:rx="0.53581941"
       sodipodi:ry="0.53581941"
       d="m 9.287537,18.381256 a 0.53581941,0.53581941 0 1 1 -1.0716388,0 0.53581941,0.53581941 0 1 1 1.0716388,0 z"
       transform="matrix(2.7609334,0,0,2.7609334,70.082926,-49.001558)" />
    <path
       sodipodi:type="arc"
       style="opacity:0.98999999;fill:#000000;fill-opacity:1;fill-rule:nonzero;stroke:#000000;stroke-width:0.2;stroke-linecap:round;stroke-linejoin:round;stroke-miterlimit:4;stroke-opacity:1;stroke-dasharray:none;stroke-dashoffset:0"
       id="path3942-3-04-7"
       sodipodi:cx="8.7517176"
       sodipodi:cy="18.381256"
       sodipodi:rx="0.53581941"
       sodipodi:ry="0.53581941"
       d="m 9.287537,18.381256 a 0.53581941,0.53581941 0 1 1 -1.0716388,0 0.53581941,0.53581941 0 1 1 1.0716388,0 z"
       transform="matrix(5.404951,0,0,5.404951,42.584166,-112.2241)" />
    <path
       style="fill:none;stroke:#000000;stroke-width:1.85198748;stroke-linecap:butt;stroke-linejoin:miter;stroke-miterlimit:4;stroke-opacity:1;stroke-dasharray:none"
       d="M 89.34228,-12.687107 68.973959,-3.3313238"
       id="path4330"
       inkscape:connector-curvature="0"
       sodipodi:nodetypes="cc" />
    <path
       sodipodi:type="arc"
       style="opacity:0.98999999;fill:#000000;fill-opacity:1;fill-rule:nonzero;stroke:#000000;stroke-width:0.2;stroke-linecap:round;stroke-linejoin:round;stroke-miterlimit:4;stroke-opacity:1;stroke-dasharray:none;stroke-dashoffset:0"
       id="path3942-3-08"
       sodipodi:cx="8.7517176"
       sodipodi:cy="18.381256"
       sodipodi:rx="0.53581941"
       sodipodi:ry="0.53581941"
       d="m 9.287537,18.381256 a 0.53581941,0.53581941 0 1 1 -1.0716388,0 0.53581941,0.53581941 0 1 1 1.0716388,0 z"
       transform="matrix(5.404951,0,0,5.404951,21.647707,-102.62402)" />
    <path
       sodipodi:type="arc"
       style="opacity:0.98999999;fill:#000000;fill-opacity:1;fill-rule:nonzero;stroke:#000000;stroke-width:0.2;stroke-linecap:round;stroke-linejoin:round;stroke-miterlimit:4;stroke-opacity:1;stroke-dasharray:none;stroke-dashoffset:0"
       id="path3942-3-09"
       sodipodi:cx="8.7517176"
       sodipodi:cy="18.381256"
       sodipodi:rx="0.53581941"
       sodipodi:ry="0.53581941"
       d="m 9.287537,18.381256 a 0.53581941,0.53581941 0 1 1 -1.0716388,0 0.53581941,0.53581941 0 1 1 1.0716388,0 z"
       transform="matrix(5.404951,0,0,5.404951,33.366087,-83.384805)" />
  </g>
</svg>
