<?xml version="1.0" encoding="UTF-8" standalone="no"?>
<!-- Created with Inkscape (http://www.inkscape.org/) -->

<svg
   xmlns:dc="http://purl.org/dc/elements/1.1/"
   xmlns:cc="http://creativecommons.org/ns#"
   xmlns:rdf="http://www.w3.org/1999/02/22-rdf-syntax-ns#"
   xmlns:svg="http://www.w3.org/2000/svg"
   xmlns="http://www.w3.org/2000/svg"
   xmlns:sodipodi="http://sodipodi.sourceforge.net/DTD/sodipodi-0.dtd"
   xmlns:inkscape="http://www.inkscape.org/namespaces/inkscape"
   width="16"
   height="16"
   id="svg2985"
   version="1.1"
   inkscape:version="0.48.4 r9939"
   sodipodi:docname="wallet_help.svg"
   inkscape:export-filename="/media/X/bitcoin.org/current/img/wallet_help.png"
   inkscape:export-xdpi="90"
   inkscape:export-ydpi="90">
  <defs
     id="defs2987" />
  <sodipodi:namedview
     id="base"
     pagecolor="#ffffff"
     bordercolor="#666666"
     borderopacity="1.0"
     inkscape:pageopacity="0.0"
     inkscape:pageshadow="2"
     inkscape:zoom="22.627417"
     inkscape:cx="6.2129532"
     inkscape:cy="3.7596497"
     inkscape:current-layer="layer1"
     showgrid="true"
     inkscape:grid-bbox="true"
     inkscape:document-units="px"
     inkscape:window-width="1615"
     inkscape:window-height="1026"
     inkscape:window-x="65"
     inkscape:window-y="24"
     inkscape:window-maximized="1" />
  <metadata
     id="metadata2990">
    <rdf:RDF>
      <cc:Work
         rdf:about="">
        <dc:format>image/svg+xml</dc:format>
        <dc:type
           rdf:resource="http://purl.org/dc/dcmitype/StillImage" />
        <dc:title></dc:title>
      </cc:Work>
    </rdf:RDF>
  </metadata>
  <g
     id="layer1"
     inkscape:label="Layer 1"
     inkscape:groupmode="layer"
     transform="translate(0,-16)">
    <path
       sodipodi:type="arc"
       style="opacity:1;fill:#b3b3b3;fill-opacity:1;stroke:#b3b3b3;stroke-width:0.40000001000000002;stroke-linecap:round;stroke-linejoin:round;stroke-miterlimit:4;stroke-opacity:1;stroke-dasharray:none"
       id="path2997"
       sodipodi:cx="15.50257"
       sodipodi:cy="17.31834"
       sodipodi:rx="13.987044"
       sodipodi:ry="13.987044"
       d="m 27.61704,10.32713 c 3.861139,6.690637 1.567377,15.244542 -5.12326,19.105681 C 15.803143,33.293949 7.2492385,31.000188 3.3880998,24.30955 -0.47303887,17.618913 1.8207229,9.0650086 8.5113601,5.20387 15.201095,1.3432519 23.753813,3.6358215 27.615707,10.32482"
       sodipodi:start="5.7597774"
       sodipodi:end="12.042772"
       sodipodi:open="true"
       transform="matrix(0.49749391,0,0,0.49749391,0.41047052,15.387622)" />
    <g
       style="font-size:13.16910361999999957px;font-style:normal;font-variant:normal;font-weight:500;font-stretch:normal;line-height:125%;letter-spacing:0px;word-spacing:0px;fill:#ffffff;fill-opacity:1;stroke:#ffffff;font-family:Ubuntu;-inkscape-font-specification:Ubuntu Medium;stroke-width:0.40000000000000002;stroke-miterlimit:4;stroke-dasharray:none;stroke-opacity:1"
       id="text2999">
      <path
         style="font-size:medium;font-style:normal;font-variant:normal;font-weight:normal;font-stretch:normal;text-indent:0;text-align:start;text-decoration:none;line-height:125%;letter-spacing:0;word-spacing:0;text-transform:none;direction:ltr;block-progression:tb;writing-mode:lr-tb;text-anchor:start;baseline-shift:baseline;color:#000000;fill:#ffffff;fill-opacity:1;fill-rule:nonzero;stroke:none;stroke-width:0.40000001;marker:none;visibility:visible;display:inline;overflow:visible;enable-background:accumulate;font-family:Ubuntu;-inkscape-font-specification:Ubuntu Medium"
         d="m 8.1875,19.3125 c -0.4563028,9e-6 -0.9054294,0.0688 -1.34375,0.1875 -0.4275366,0.109168 -0.8140211,0.243272 -1.15625,0.4375 l -0.15625,0.09375 0.0625,0.15625 0.4375,1.21875 L 6.125,21.625 6.34375,21.53125 C 6.6389136,21.371025 6.8948048,21.252865 7.15625,21.1875 7.4189009,21.113641 7.7098603,21.062508 8,21.0625 c 0.3624793,7e-6 0.6050609,0.105069 0.75,0.25 0.1634037,0.149203 0.218747,0.319251 0.21875,0.5625 -3.1e-6,0.180161 -0.01346,0.322768 -0.09375,0.46875 -0.088499,0.160907 -0.2034632,0.311961 -0.34375,0.46875 -0.1453543,0.162457 -0.3280361,0.336637 -0.5,0.5 C 7.8582374,23.485516 7.7167572,23.675375 7.5625,23.875 7.4027018,24.081799 7.2593404,24.318833 7.15625,24.5625 7.047844,24.818732 6.9999983,25.094311 7,25.40625 c -2.2e-6,0.09447 -0.00916,0.20257 0,0.3125 0.00937,0.103111 0.043429,0.217162 0.0625,0.3125 l 0.03125,0.15625 0.15625,0 1.375,0 0.21875,0 -0.03125,-0.25 c -0.007,-0.04202 -2.4e-6,-0.08345 0,-0.125 l 0,-0.15625 c -2.8e-6,-0.236711 0.034551,-0.444104 0.125,-0.625 C 9.0438291,24.834949 9.1871434,24.673092 9.34375,24.5 9.4928097,24.270139 9.7267106,24.094512 9.875,23.9375 c 0.198721,-0.189687 0.359332,-0.385639 0.53125,-0.59375 0.17811,-0.215608 0.324792,-0.433913 0.4375,-0.6875 0.128363,-0.266604 0.187495,-0.582256 0.1875,-0.90625 -5e-6,-0.267242 -0.04107,-0.53271 -0.125,-0.8125 -0.0881,-0.293639 -0.248645,-0.57324 -0.46875,-0.8125 -0.225671,-0.24528 -0.5115426,-0.413377 -0.875,-0.5625 -0.3768384,-0.164255 -0.8293529,-0.249991 -1.375,-0.25 z m -0.21875,7.40625 c -0.3361859,2e-6 -0.6312348,0.141392 -0.875,0.375 -0.240211,0.229768 -0.3750015,0.523912 -0.375,0.875 -1.5e-6,0.35109 0.1347875,0.676484 0.375,0.90625 0.2443639,0.224006 0.5408351,0.34375 0.875,0.34375 0.3416345,0 0.6687481,-0.116577 0.90625,-0.34375 0.2402067,-0.229766 0.343746,-0.555162 0.34375,-0.90625 -4e-6,-0.351086 -0.1035448,-0.645232 -0.34375,-0.875 -0.2367714,-0.236765 -0.5626554,-0.374998 -0.90625,-0.375 z"
         inkscape:connector-curvature="0"
         sodipodi:nodetypes="ccccccccccccsccsscccccccccccccsccccccccscssccc"
         id="path9" />
    </g>
  </g>
</svg>
