<svg width="1024" height="397" viewBox="0 0 1024 397" fill="none" xmlns="http://www.w3.org/2000/svg">
<rect width="1024" height="395.641" transform="translate(0 0.381836)" fill="#F7931A"/>
<path d="M212.504 255.544C209.052 242.56 193.518 233.166 185.864 222.493C174.802 207.07 175.114 186.121 188.51 169.766C192.404 174.128 193.339 174.988 198.634 179.891C189.417 191.462 188.705 202.59 195.152 212.785C204.531 227.616 223.459 235.523 226.544 255.281C226.544 255.281 219.535 255.437 212.504 255.544Z" fill="#171717"/>
<path d="M242.588 206.215C252.713 214.315 263.21 222.479 262.827 235.34C262.264 254.254 247.518 261.511 227.479 261.823C225.062 261.861 197.884 261.979 197.884 261.979C196.663 269.173 197.027 275.436 199.127 280.901C199.127 280.901 232.831 280.995 232.746 280.995C263.696 280.995 288.667 266.296 288.667 235.34C288.667 216.911 276.701 205.748 260.034 195.467C253.492 199.361 248.04 202.321 242.588 206.215Z" fill="#171717"/>
<path d="M212.993 222.882C209.855 219.94 205.672 216.184 202.868 212.913C227.507 180.825 257.104 180.358 257.707 156.064C258.026 143.187 246.938 136.03 234.584 133.685C235.679 126.804 235.366 121.8 234.271 116.17C256.634 116.639 279.715 132.121 279.715 156.064C279.715 190.171 242.42 187.583 212.993 222.882Z" fill="#171717"/>
<path d="M171.758 262.154H161.395L161.402 132.435C161.402 132.435 192.903 132.435 208.311 132.435C209.875 126.961 209.583 121.35 207.818 116.08H130.126V117.987C141.072 126.491 143.067 133.391 143.067 146.225V250.664C143.067 262.191 140.134 271.3 130.126 278.892V280.799C130.126 280.799 159.12 280.767 172.008 280.798C170.831 273.934 170.714 268.835 171.758 262.154Z" fill="#171717"/>
<path d="M203.08 96.6983C209.975 103.572 214.596 113.31 215.264 123.039C215.899 132.271 212.273 141.776 206.905 149.323C209.962 152.853 213.626 155.96 217.07 158.705C223.846 149.915 227.946 140.006 228.592 128.868C229.779 108.406 219.847 92.3503 202.972 81.6411C191.164 88.8515 183.917 97.0098 179.226 109.602C184.138 109.602 189.137 109.591 194.082 109.602C195.802 105.067 199.582 100.093 203.08 96.6983Z" fill="#171717"/>
<path d="M211.89 287.428C209.659 291.985 206.632 296.788 202.991 300.322C196.095 293.449 191.474 283.399 190.806 273.67C190.172 264.438 191.787 253.604 197.416 244.377C193.834 240.639 190.563 237.679 187.136 234.564C180.412 245.354 178.124 256.703 177.478 267.841C176.342 287.428 186.652 304.982 203.098 315.068C214.055 308.377 222.556 299.613 226.682 287.46C221.769 287.46 216.856 287.46 211.911 287.449L211.89 287.428Z" fill="#171717"/>
<path d="M232.395 177.628C222.473 170.602 200.128 158.872 193.37 139.314H178.952C184.009 160.988 201.887 174.696 218.164 188.182C222.699 184.196 226.453 181.85 232.395 177.628Z" fill="#171717"/>
<path d="M347.641 262.631V140.599C347.641 135.311 352.147 130.806 357.435 130.806C362.724 130.806 367.229 135.311 367.229 140.599V188.981L421.487 133.744C423.25 131.981 425.992 130.806 428.538 130.806C433.827 130.806 438.332 135.311 438.332 140.599C438.332 143.146 437.157 145.692 435.394 147.455L385.054 198.971L439.899 255.775C441.662 257.734 442.837 260.084 442.837 262.631C442.837 267.919 438.332 272.424 433.044 272.424C430.497 272.424 427.951 271.445 425.992 269.486L367.229 208.765V262.631C367.229 267.919 362.724 272.424 357.435 272.424C352.147 272.424 347.641 267.919 347.641 262.631Z" fill="#171717"/>
<path d="M465.688 263.218V175.27C465.688 169.981 470.193 165.672 475.482 165.672C480.77 165.672 485.275 169.981 485.275 175.27V177.033C493.502 169.785 504.079 164.888 517.399 164.888C546.781 164.888 558.141 185.259 558.141 214.445V263.218C558.141 268.507 553.44 273.012 548.348 273.012C543.059 273.012 538.554 268.703 538.554 263.218V214.445C538.554 196.816 535.224 184.476 517.399 184.476C500.75 184.476 490.172 198.383 485.275 210.919V263.218C485.275 268.507 480.77 273.012 475.482 273.012C470.193 273.012 465.688 268.507 465.688 263.218Z" fill="#171717"/>
<path d="M586.937 218.95C586.937 188.002 603.978 163.909 635.906 163.909C666.855 163.909 684.875 188.002 684.875 218.95C684.875 249.507 667.246 273.6 635.906 273.6C604.37 273.6 586.937 249.899 586.937 218.95ZM606.525 218.95C606.525 238.342 615.731 254.012 635.906 254.012C656.081 254.012 665.288 238.342 665.288 218.95C665.288 199.362 655.69 183.496 635.906 183.496C615.927 183.496 606.525 199.558 606.525 218.95Z" fill="#171717"/>
<path d="M703.426 177.033C703.426 171.744 707.931 167.239 713.22 167.239H728.302L728.694 147.455C728.694 141.775 733.003 137.661 738.488 137.661C743.973 137.661 748.282 142.167 748.282 147.455L747.89 167.239H777.076C782.364 167.239 786.869 171.744 786.869 177.033C786.869 182.321 782.364 186.826 777.076 186.826H747.498L746.911 231.486C746.911 244.61 746.911 253.424 760.426 253.424C764.735 253.229 769.045 252.249 772.766 250.486C774.137 249.899 775.509 249.507 777.076 249.507C782.364 249.507 786.869 254.012 786.869 259.301C786.869 269.29 773.746 273.012 761.601 273.012C755.725 273.012 749.849 272.033 746.127 270.661C731.828 265.177 727.323 252.053 727.323 233.445V231.094L727.911 186.826H713.22C707.931 186.826 703.426 182.321 703.426 177.033Z" fill="#171717"/>
<path d="M816.198 251.466C816.198 245.981 820.703 241.672 825.992 241.672C833.043 241.672 834.806 248.919 839.507 251.466C844.404 253.816 850.672 254.012 857.332 254.012C867.322 253.424 880.054 252.053 880.054 241.28C880.054 234.033 871.827 232.074 865.951 230.507C844.404 224.826 817.373 221.497 817.373 194.27C817.373 172.331 836.373 163.909 857.332 163.909H863.404C877.703 164.692 891.806 171.744 895.332 185.063C895.528 186.043 895.724 186.826 895.724 187.61C895.724 192.899 891.219 197.404 885.93 197.404C881.229 197.404 877.312 194.27 876.332 190.156C874.961 184.672 868.301 183.888 862.425 183.496H857.332C848.322 183.496 836.961 184.28 836.961 194.27C836.961 201.713 843.033 204.259 848.909 205.826C870.652 211.507 899.641 214.053 899.641 241.28C899.641 264.393 879.858 273.012 857.332 273.6H855.373C837.157 273.6 824.621 268.311 817.373 256.558C816.394 254.991 816.198 253.229 816.198 251.466Z" fill="#171717"/>
</svg>
